; NON-PLATED HOLES START AT T1
; THROUGH (PLATED) HOLES START AT T100
M48
INCH
T100C0.031496
T101C0.038000
T102C0.031555
T103C0.030000
T104C0.015748
T105C0.040278
%
T100
X015183Y005807
T101
X024502Y009307
X022252Y016807
X020252Y016807
X016252Y003807
X017252Y003807
X016252Y016807
X020252Y003807
X025502Y009307
X021252Y003807
X021252Y016807
X009252Y016807
X014252Y003807
X012252Y016807
X007252Y016807
X013252Y016807
X012252Y003807
X015252Y016807
X018252Y003807
X019252Y003807
X024502Y008307
X019252Y016807
X015252Y003807
X008252Y016807
X025502Y008307
X013252Y003807
X024502Y010307
X025502Y010307
X011252Y016807
X011252Y003807
X008252Y003807
X017252Y016807
X007252Y003807
X010252Y016807
X018252Y016807
X009252Y003807
X014252Y016807
X010252Y003807
X022252Y003807
T102
X013252Y005807
T103
X017002Y005807
X011252Y005807
X018004Y005807
X010250Y005807
T104
X022502Y007300
X017750Y019305
X011002Y018307
X022247Y017563
X011502Y002807
X016002Y002805
X011005Y017803
X015499Y019303
X016496Y019303
X009246Y007300
X015002Y002307
X023002Y008307
X021243Y015811
X024502Y011307
X011006Y018812
X023002Y011057
X014502Y019307
X022252Y009557
X010252Y015807
X023752Y011807
X025511Y012799
X022252Y011057
X022502Y019307
T105
X014502Y020057
X008502Y020057
X014102Y001057
X024102Y001057
X019102Y020057
X018102Y020057
X023102Y001057
X021102Y020057
X017102Y001057
X020102Y020057
X013502Y020057
X007502Y020057
X025102Y020057
X025102Y001057
X021102Y001057
X022102Y020057
X011102Y001057
X015102Y001057
X009502Y020057
X022102Y001057
X012102Y001057
X018102Y001057
X020102Y001057
X012502Y020057
X016502Y020057
X015502Y020057
X024102Y020057
X010502Y020057
X011502Y020057
X013102Y001057
X016102Y001057
X023102Y020057
T00
M30
