G04 MADE WITH FRITZING*
G04 WWW.FRITZING.ORG*
G04 DOUBLE SIDED*
G04 HOLES PLATED*
G04 CONTOUR ON CENTER OF CONTOUR VECTOR*
%ASAXBY*%
%FSLAX23Y23*%
%MOIN*%
%OFA0B0*%
%SFA1.0B1.0*%
%ADD10R,0.001000X0.001000*%
%LNSILK0*%
G90*
G70*
G54D10*
X0Y1489D02*
X2604Y1489D01*
X0Y1488D02*
X2604Y1488D01*
X0Y1487D02*
X2604Y1487D01*
X0Y1486D02*
X2604Y1486D01*
X0Y1485D02*
X2604Y1485D01*
X0Y1484D02*
X2604Y1484D01*
X0Y1483D02*
X2604Y1483D01*
X0Y1482D02*
X2604Y1482D01*
X0Y1481D02*
X7Y1481D01*
X2597Y1481D02*
X2604Y1481D01*
X0Y1480D02*
X7Y1480D01*
X2597Y1480D02*
X2604Y1480D01*
X0Y1479D02*
X7Y1479D01*
X2597Y1479D02*
X2604Y1479D01*
X0Y1478D02*
X7Y1478D01*
X2597Y1478D02*
X2604Y1478D01*
X0Y1477D02*
X7Y1477D01*
X2597Y1477D02*
X2604Y1477D01*
X0Y1476D02*
X7Y1476D01*
X2597Y1476D02*
X2604Y1476D01*
X0Y1475D02*
X7Y1475D01*
X2597Y1475D02*
X2604Y1475D01*
X0Y1474D02*
X7Y1474D01*
X2597Y1474D02*
X2604Y1474D01*
X0Y1473D02*
X7Y1473D01*
X2597Y1473D02*
X2604Y1473D01*
X0Y1472D02*
X7Y1472D01*
X2597Y1472D02*
X2604Y1472D01*
X0Y1471D02*
X7Y1471D01*
X2597Y1471D02*
X2604Y1471D01*
X0Y1470D02*
X7Y1470D01*
X2597Y1470D02*
X2604Y1470D01*
X0Y1469D02*
X7Y1469D01*
X2597Y1469D02*
X2604Y1469D01*
X0Y1468D02*
X7Y1468D01*
X2597Y1468D02*
X2604Y1468D01*
X0Y1467D02*
X7Y1467D01*
X2597Y1467D02*
X2604Y1467D01*
X0Y1466D02*
X7Y1466D01*
X2597Y1466D02*
X2604Y1466D01*
X0Y1465D02*
X7Y1465D01*
X2597Y1465D02*
X2604Y1465D01*
X0Y1464D02*
X7Y1464D01*
X2597Y1464D02*
X2604Y1464D01*
X0Y1463D02*
X7Y1463D01*
X2597Y1463D02*
X2604Y1463D01*
X0Y1462D02*
X7Y1462D01*
X2597Y1462D02*
X2604Y1462D01*
X0Y1461D02*
X7Y1461D01*
X2597Y1461D02*
X2604Y1461D01*
X0Y1460D02*
X7Y1460D01*
X2597Y1460D02*
X2604Y1460D01*
X0Y1459D02*
X7Y1459D01*
X2597Y1459D02*
X2604Y1459D01*
X0Y1458D02*
X7Y1458D01*
X2597Y1458D02*
X2604Y1458D01*
X0Y1457D02*
X7Y1457D01*
X2597Y1457D02*
X2604Y1457D01*
X0Y1456D02*
X7Y1456D01*
X2597Y1456D02*
X2604Y1456D01*
X0Y1455D02*
X7Y1455D01*
X2597Y1455D02*
X2604Y1455D01*
X0Y1454D02*
X7Y1454D01*
X2597Y1454D02*
X2604Y1454D01*
X0Y1453D02*
X7Y1453D01*
X2597Y1453D02*
X2604Y1453D01*
X0Y1452D02*
X7Y1452D01*
X2597Y1452D02*
X2604Y1452D01*
X0Y1451D02*
X7Y1451D01*
X2597Y1451D02*
X2604Y1451D01*
X0Y1450D02*
X7Y1450D01*
X2597Y1450D02*
X2604Y1450D01*
X0Y1449D02*
X7Y1449D01*
X2597Y1449D02*
X2604Y1449D01*
X0Y1448D02*
X7Y1448D01*
X2597Y1448D02*
X2604Y1448D01*
X0Y1447D02*
X7Y1447D01*
X2597Y1447D02*
X2604Y1447D01*
X0Y1446D02*
X7Y1446D01*
X2597Y1446D02*
X2604Y1446D01*
X0Y1445D02*
X7Y1445D01*
X2597Y1445D02*
X2604Y1445D01*
X0Y1444D02*
X7Y1444D01*
X2597Y1444D02*
X2604Y1444D01*
X0Y1443D02*
X7Y1443D01*
X2597Y1443D02*
X2604Y1443D01*
X0Y1442D02*
X7Y1442D01*
X2597Y1442D02*
X2604Y1442D01*
X0Y1441D02*
X7Y1441D01*
X2597Y1441D02*
X2604Y1441D01*
X0Y1440D02*
X7Y1440D01*
X2597Y1440D02*
X2604Y1440D01*
X0Y1439D02*
X7Y1439D01*
X2597Y1439D02*
X2604Y1439D01*
X0Y1438D02*
X7Y1438D01*
X2597Y1438D02*
X2604Y1438D01*
X0Y1437D02*
X7Y1437D01*
X2597Y1437D02*
X2604Y1437D01*
X0Y1436D02*
X7Y1436D01*
X2597Y1436D02*
X2604Y1436D01*
X0Y1435D02*
X7Y1435D01*
X2597Y1435D02*
X2604Y1435D01*
X0Y1434D02*
X7Y1434D01*
X2597Y1434D02*
X2604Y1434D01*
X0Y1433D02*
X7Y1433D01*
X2597Y1433D02*
X2604Y1433D01*
X0Y1432D02*
X7Y1432D01*
X2597Y1432D02*
X2604Y1432D01*
X0Y1431D02*
X7Y1431D01*
X2597Y1431D02*
X2604Y1431D01*
X0Y1430D02*
X7Y1430D01*
X2597Y1430D02*
X2604Y1430D01*
X0Y1429D02*
X7Y1429D01*
X2597Y1429D02*
X2604Y1429D01*
X0Y1428D02*
X7Y1428D01*
X2597Y1428D02*
X2604Y1428D01*
X0Y1427D02*
X7Y1427D01*
X2597Y1427D02*
X2604Y1427D01*
X0Y1426D02*
X7Y1426D01*
X2597Y1426D02*
X2604Y1426D01*
X0Y1425D02*
X7Y1425D01*
X2597Y1425D02*
X2604Y1425D01*
X0Y1424D02*
X7Y1424D01*
X2597Y1424D02*
X2604Y1424D01*
X0Y1423D02*
X7Y1423D01*
X2597Y1423D02*
X2604Y1423D01*
X0Y1422D02*
X7Y1422D01*
X2597Y1422D02*
X2604Y1422D01*
X0Y1421D02*
X7Y1421D01*
X2597Y1421D02*
X2604Y1421D01*
X0Y1420D02*
X7Y1420D01*
X2597Y1420D02*
X2604Y1420D01*
X0Y1419D02*
X7Y1419D01*
X2597Y1419D02*
X2604Y1419D01*
X0Y1418D02*
X7Y1418D01*
X2597Y1418D02*
X2604Y1418D01*
X0Y1417D02*
X7Y1417D01*
X2597Y1417D02*
X2604Y1417D01*
X0Y1416D02*
X7Y1416D01*
X2597Y1416D02*
X2604Y1416D01*
X0Y1415D02*
X7Y1415D01*
X2597Y1415D02*
X2604Y1415D01*
X0Y1414D02*
X7Y1414D01*
X2597Y1414D02*
X2604Y1414D01*
X0Y1413D02*
X7Y1413D01*
X2597Y1413D02*
X2604Y1413D01*
X0Y1412D02*
X7Y1412D01*
X2597Y1412D02*
X2604Y1412D01*
X0Y1411D02*
X7Y1411D01*
X2597Y1411D02*
X2604Y1411D01*
X0Y1410D02*
X7Y1410D01*
X2597Y1410D02*
X2604Y1410D01*
X0Y1409D02*
X7Y1409D01*
X2597Y1409D02*
X2604Y1409D01*
X0Y1408D02*
X7Y1408D01*
X2597Y1408D02*
X2604Y1408D01*
X0Y1407D02*
X7Y1407D01*
X2597Y1407D02*
X2604Y1407D01*
X0Y1406D02*
X7Y1406D01*
X2597Y1406D02*
X2604Y1406D01*
X0Y1405D02*
X7Y1405D01*
X2597Y1405D02*
X2604Y1405D01*
X0Y1404D02*
X7Y1404D01*
X2597Y1404D02*
X2604Y1404D01*
X0Y1403D02*
X7Y1403D01*
X2597Y1403D02*
X2604Y1403D01*
X0Y1402D02*
X7Y1402D01*
X2597Y1402D02*
X2604Y1402D01*
X0Y1401D02*
X7Y1401D01*
X2597Y1401D02*
X2604Y1401D01*
X0Y1400D02*
X7Y1400D01*
X2597Y1400D02*
X2604Y1400D01*
X0Y1399D02*
X7Y1399D01*
X2597Y1399D02*
X2604Y1399D01*
X0Y1398D02*
X7Y1398D01*
X2597Y1398D02*
X2604Y1398D01*
X0Y1397D02*
X7Y1397D01*
X2597Y1397D02*
X2604Y1397D01*
X0Y1396D02*
X7Y1396D01*
X2597Y1396D02*
X2604Y1396D01*
X0Y1395D02*
X7Y1395D01*
X2597Y1395D02*
X2604Y1395D01*
X0Y1394D02*
X7Y1394D01*
X2597Y1394D02*
X2604Y1394D01*
X0Y1393D02*
X7Y1393D01*
X2597Y1393D02*
X2604Y1393D01*
X0Y1392D02*
X7Y1392D01*
X2597Y1392D02*
X2604Y1392D01*
X0Y1391D02*
X7Y1391D01*
X2597Y1391D02*
X2604Y1391D01*
X0Y1390D02*
X7Y1390D01*
X2597Y1390D02*
X2604Y1390D01*
X0Y1389D02*
X7Y1389D01*
X2597Y1389D02*
X2604Y1389D01*
X0Y1388D02*
X7Y1388D01*
X2597Y1388D02*
X2604Y1388D01*
X0Y1387D02*
X7Y1387D01*
X2597Y1387D02*
X2604Y1387D01*
X0Y1386D02*
X7Y1386D01*
X2597Y1386D02*
X2604Y1386D01*
X0Y1385D02*
X7Y1385D01*
X2597Y1385D02*
X2604Y1385D01*
X0Y1384D02*
X7Y1384D01*
X2597Y1384D02*
X2604Y1384D01*
X0Y1383D02*
X7Y1383D01*
X2597Y1383D02*
X2604Y1383D01*
X0Y1382D02*
X7Y1382D01*
X2597Y1382D02*
X2604Y1382D01*
X0Y1381D02*
X7Y1381D01*
X2597Y1381D02*
X2604Y1381D01*
X0Y1380D02*
X7Y1380D01*
X2597Y1380D02*
X2604Y1380D01*
X0Y1379D02*
X7Y1379D01*
X2597Y1379D02*
X2604Y1379D01*
X0Y1378D02*
X7Y1378D01*
X2597Y1378D02*
X2604Y1378D01*
X0Y1377D02*
X7Y1377D01*
X2597Y1377D02*
X2604Y1377D01*
X0Y1376D02*
X7Y1376D01*
X2597Y1376D02*
X2604Y1376D01*
X0Y1375D02*
X7Y1375D01*
X2597Y1375D02*
X2604Y1375D01*
X0Y1374D02*
X7Y1374D01*
X2597Y1374D02*
X2604Y1374D01*
X0Y1373D02*
X7Y1373D01*
X2597Y1373D02*
X2604Y1373D01*
X0Y1372D02*
X7Y1372D01*
X2597Y1372D02*
X2604Y1372D01*
X0Y1371D02*
X7Y1371D01*
X2597Y1371D02*
X2604Y1371D01*
X0Y1370D02*
X7Y1370D01*
X2597Y1370D02*
X2604Y1370D01*
X0Y1369D02*
X7Y1369D01*
X2597Y1369D02*
X2604Y1369D01*
X0Y1368D02*
X7Y1368D01*
X2597Y1368D02*
X2604Y1368D01*
X0Y1367D02*
X7Y1367D01*
X2597Y1367D02*
X2604Y1367D01*
X0Y1366D02*
X7Y1366D01*
X2597Y1366D02*
X2604Y1366D01*
X0Y1365D02*
X7Y1365D01*
X2597Y1365D02*
X2604Y1365D01*
X0Y1364D02*
X7Y1364D01*
X2597Y1364D02*
X2604Y1364D01*
X0Y1363D02*
X7Y1363D01*
X2597Y1363D02*
X2604Y1363D01*
X0Y1362D02*
X7Y1362D01*
X2597Y1362D02*
X2604Y1362D01*
X0Y1361D02*
X7Y1361D01*
X2597Y1361D02*
X2604Y1361D01*
X0Y1360D02*
X7Y1360D01*
X2597Y1360D02*
X2604Y1360D01*
X0Y1359D02*
X7Y1359D01*
X2597Y1359D02*
X2604Y1359D01*
X0Y1358D02*
X7Y1358D01*
X2597Y1358D02*
X2604Y1358D01*
X0Y1357D02*
X7Y1357D01*
X2597Y1357D02*
X2604Y1357D01*
X0Y1356D02*
X7Y1356D01*
X2597Y1356D02*
X2604Y1356D01*
X0Y1355D02*
X7Y1355D01*
X2597Y1355D02*
X2604Y1355D01*
X0Y1354D02*
X7Y1354D01*
X2597Y1354D02*
X2604Y1354D01*
X0Y1353D02*
X7Y1353D01*
X2597Y1353D02*
X2604Y1353D01*
X0Y1352D02*
X7Y1352D01*
X2597Y1352D02*
X2604Y1352D01*
X0Y1351D02*
X7Y1351D01*
X2597Y1351D02*
X2604Y1351D01*
X0Y1350D02*
X7Y1350D01*
X2597Y1350D02*
X2604Y1350D01*
X0Y1349D02*
X7Y1349D01*
X2597Y1349D02*
X2604Y1349D01*
X0Y1348D02*
X7Y1348D01*
X2597Y1348D02*
X2604Y1348D01*
X0Y1347D02*
X7Y1347D01*
X2597Y1347D02*
X2604Y1347D01*
X0Y1346D02*
X7Y1346D01*
X2597Y1346D02*
X2604Y1346D01*
X0Y1345D02*
X7Y1345D01*
X2597Y1345D02*
X2604Y1345D01*
X0Y1344D02*
X7Y1344D01*
X2597Y1344D02*
X2604Y1344D01*
X0Y1343D02*
X7Y1343D01*
X2597Y1343D02*
X2604Y1343D01*
X0Y1342D02*
X7Y1342D01*
X2597Y1342D02*
X2604Y1342D01*
X0Y1341D02*
X7Y1341D01*
X2597Y1341D02*
X2604Y1341D01*
X0Y1340D02*
X7Y1340D01*
X2597Y1340D02*
X2604Y1340D01*
X0Y1339D02*
X7Y1339D01*
X2597Y1339D02*
X2604Y1339D01*
X0Y1338D02*
X7Y1338D01*
X2597Y1338D02*
X2604Y1338D01*
X0Y1337D02*
X7Y1337D01*
X2597Y1337D02*
X2604Y1337D01*
X0Y1336D02*
X7Y1336D01*
X2597Y1336D02*
X2604Y1336D01*
X0Y1335D02*
X7Y1335D01*
X2597Y1335D02*
X2604Y1335D01*
X0Y1334D02*
X7Y1334D01*
X2597Y1334D02*
X2604Y1334D01*
X0Y1333D02*
X7Y1333D01*
X2597Y1333D02*
X2604Y1333D01*
X0Y1332D02*
X7Y1332D01*
X2597Y1332D02*
X2604Y1332D01*
X0Y1331D02*
X7Y1331D01*
X2597Y1331D02*
X2604Y1331D01*
X0Y1330D02*
X7Y1330D01*
X2597Y1330D02*
X2604Y1330D01*
X0Y1329D02*
X7Y1329D01*
X2597Y1329D02*
X2604Y1329D01*
X0Y1328D02*
X7Y1328D01*
X2597Y1328D02*
X2604Y1328D01*
X0Y1327D02*
X7Y1327D01*
X2597Y1327D02*
X2604Y1327D01*
X0Y1326D02*
X7Y1326D01*
X2597Y1326D02*
X2604Y1326D01*
X0Y1325D02*
X7Y1325D01*
X2597Y1325D02*
X2604Y1325D01*
X0Y1324D02*
X7Y1324D01*
X2597Y1324D02*
X2604Y1324D01*
X0Y1323D02*
X7Y1323D01*
X2597Y1323D02*
X2604Y1323D01*
X0Y1322D02*
X7Y1322D01*
X2597Y1322D02*
X2604Y1322D01*
X0Y1321D02*
X7Y1321D01*
X2597Y1321D02*
X2604Y1321D01*
X0Y1320D02*
X7Y1320D01*
X2597Y1320D02*
X2604Y1320D01*
X0Y1319D02*
X7Y1319D01*
X2597Y1319D02*
X2604Y1319D01*
X0Y1318D02*
X7Y1318D01*
X2597Y1318D02*
X2604Y1318D01*
X0Y1317D02*
X7Y1317D01*
X2597Y1317D02*
X2604Y1317D01*
X0Y1316D02*
X7Y1316D01*
X2597Y1316D02*
X2604Y1316D01*
X0Y1315D02*
X7Y1315D01*
X2597Y1315D02*
X2604Y1315D01*
X0Y1314D02*
X7Y1314D01*
X2597Y1314D02*
X2604Y1314D01*
X0Y1313D02*
X7Y1313D01*
X2597Y1313D02*
X2604Y1313D01*
X0Y1312D02*
X7Y1312D01*
X2597Y1312D02*
X2604Y1312D01*
X0Y1311D02*
X7Y1311D01*
X2597Y1311D02*
X2604Y1311D01*
X0Y1310D02*
X7Y1310D01*
X2597Y1310D02*
X2604Y1310D01*
X0Y1309D02*
X7Y1309D01*
X2597Y1309D02*
X2604Y1309D01*
X0Y1308D02*
X7Y1308D01*
X2597Y1308D02*
X2604Y1308D01*
X0Y1307D02*
X7Y1307D01*
X2597Y1307D02*
X2604Y1307D01*
X0Y1306D02*
X7Y1306D01*
X2597Y1306D02*
X2604Y1306D01*
X0Y1305D02*
X7Y1305D01*
X2597Y1305D02*
X2604Y1305D01*
X0Y1304D02*
X7Y1304D01*
X2597Y1304D02*
X2604Y1304D01*
X0Y1303D02*
X7Y1303D01*
X2597Y1303D02*
X2604Y1303D01*
X0Y1302D02*
X7Y1302D01*
X2597Y1302D02*
X2604Y1302D01*
X0Y1301D02*
X7Y1301D01*
X2597Y1301D02*
X2604Y1301D01*
X0Y1300D02*
X7Y1300D01*
X2597Y1300D02*
X2604Y1300D01*
X0Y1299D02*
X7Y1299D01*
X2597Y1299D02*
X2604Y1299D01*
X0Y1298D02*
X7Y1298D01*
X2597Y1298D02*
X2604Y1298D01*
X0Y1297D02*
X7Y1297D01*
X2597Y1297D02*
X2604Y1297D01*
X0Y1296D02*
X7Y1296D01*
X2597Y1296D02*
X2604Y1296D01*
X0Y1295D02*
X7Y1295D01*
X2597Y1295D02*
X2604Y1295D01*
X0Y1294D02*
X7Y1294D01*
X2597Y1294D02*
X2604Y1294D01*
X0Y1293D02*
X7Y1293D01*
X2597Y1293D02*
X2604Y1293D01*
X0Y1292D02*
X7Y1292D01*
X2597Y1292D02*
X2604Y1292D01*
X0Y1291D02*
X7Y1291D01*
X2597Y1291D02*
X2604Y1291D01*
X0Y1290D02*
X7Y1290D01*
X2597Y1290D02*
X2604Y1290D01*
X0Y1289D02*
X7Y1289D01*
X2597Y1289D02*
X2604Y1289D01*
X0Y1288D02*
X7Y1288D01*
X2597Y1288D02*
X2604Y1288D01*
X0Y1287D02*
X7Y1287D01*
X2597Y1287D02*
X2604Y1287D01*
X0Y1286D02*
X7Y1286D01*
X2597Y1286D02*
X2604Y1286D01*
X0Y1285D02*
X7Y1285D01*
X2597Y1285D02*
X2604Y1285D01*
X0Y1284D02*
X7Y1284D01*
X2597Y1284D02*
X2604Y1284D01*
X0Y1283D02*
X7Y1283D01*
X2597Y1283D02*
X2604Y1283D01*
X0Y1282D02*
X7Y1282D01*
X2597Y1282D02*
X2604Y1282D01*
X0Y1281D02*
X7Y1281D01*
X2597Y1281D02*
X2604Y1281D01*
X0Y1280D02*
X7Y1280D01*
X2597Y1280D02*
X2604Y1280D01*
X0Y1279D02*
X7Y1279D01*
X2597Y1279D02*
X2604Y1279D01*
X0Y1278D02*
X7Y1278D01*
X2597Y1278D02*
X2604Y1278D01*
X0Y1277D02*
X7Y1277D01*
X2597Y1277D02*
X2604Y1277D01*
X0Y1276D02*
X7Y1276D01*
X2597Y1276D02*
X2604Y1276D01*
X0Y1275D02*
X7Y1275D01*
X2597Y1275D02*
X2604Y1275D01*
X0Y1274D02*
X7Y1274D01*
X2597Y1274D02*
X2604Y1274D01*
X0Y1273D02*
X7Y1273D01*
X2597Y1273D02*
X2604Y1273D01*
X0Y1272D02*
X7Y1272D01*
X2597Y1272D02*
X2604Y1272D01*
X0Y1271D02*
X7Y1271D01*
X2597Y1271D02*
X2604Y1271D01*
X0Y1270D02*
X7Y1270D01*
X2597Y1270D02*
X2604Y1270D01*
X0Y1269D02*
X7Y1269D01*
X2597Y1269D02*
X2604Y1269D01*
X0Y1268D02*
X7Y1268D01*
X2597Y1268D02*
X2604Y1268D01*
X0Y1267D02*
X7Y1267D01*
X2597Y1267D02*
X2604Y1267D01*
X0Y1266D02*
X7Y1266D01*
X2597Y1266D02*
X2604Y1266D01*
X0Y1265D02*
X7Y1265D01*
X2597Y1265D02*
X2604Y1265D01*
X0Y1264D02*
X7Y1264D01*
X2597Y1264D02*
X2604Y1264D01*
X0Y1263D02*
X7Y1263D01*
X2597Y1263D02*
X2604Y1263D01*
X0Y1262D02*
X7Y1262D01*
X2597Y1262D02*
X2604Y1262D01*
X0Y1261D02*
X7Y1261D01*
X2597Y1261D02*
X2604Y1261D01*
X0Y1260D02*
X7Y1260D01*
X2597Y1260D02*
X2604Y1260D01*
X0Y1259D02*
X7Y1259D01*
X2597Y1259D02*
X2604Y1259D01*
X0Y1258D02*
X7Y1258D01*
X2597Y1258D02*
X2604Y1258D01*
X0Y1257D02*
X7Y1257D01*
X2597Y1257D02*
X2604Y1257D01*
X0Y1256D02*
X7Y1256D01*
X2597Y1256D02*
X2604Y1256D01*
X0Y1255D02*
X7Y1255D01*
X2597Y1255D02*
X2604Y1255D01*
X0Y1254D02*
X7Y1254D01*
X2597Y1254D02*
X2604Y1254D01*
X0Y1253D02*
X7Y1253D01*
X2597Y1253D02*
X2604Y1253D01*
X0Y1252D02*
X7Y1252D01*
X2597Y1252D02*
X2604Y1252D01*
X0Y1251D02*
X7Y1251D01*
X2597Y1251D02*
X2604Y1251D01*
X0Y1250D02*
X7Y1250D01*
X2597Y1250D02*
X2604Y1250D01*
X0Y1249D02*
X7Y1249D01*
X2597Y1249D02*
X2604Y1249D01*
X0Y1248D02*
X7Y1248D01*
X2597Y1248D02*
X2604Y1248D01*
X0Y1247D02*
X7Y1247D01*
X2597Y1247D02*
X2604Y1247D01*
X0Y1246D02*
X7Y1246D01*
X2597Y1246D02*
X2604Y1246D01*
X0Y1245D02*
X7Y1245D01*
X2597Y1245D02*
X2604Y1245D01*
X0Y1244D02*
X7Y1244D01*
X2597Y1244D02*
X2604Y1244D01*
X0Y1243D02*
X7Y1243D01*
X2597Y1243D02*
X2604Y1243D01*
X0Y1242D02*
X7Y1242D01*
X2597Y1242D02*
X2604Y1242D01*
X0Y1241D02*
X7Y1241D01*
X2597Y1241D02*
X2604Y1241D01*
X0Y1240D02*
X7Y1240D01*
X2597Y1240D02*
X2604Y1240D01*
X0Y1239D02*
X7Y1239D01*
X2597Y1239D02*
X2604Y1239D01*
X0Y1238D02*
X7Y1238D01*
X2597Y1238D02*
X2604Y1238D01*
X0Y1237D02*
X7Y1237D01*
X2597Y1237D02*
X2604Y1237D01*
X0Y1236D02*
X7Y1236D01*
X2597Y1236D02*
X2604Y1236D01*
X0Y1235D02*
X7Y1235D01*
X2597Y1235D02*
X2604Y1235D01*
X0Y1234D02*
X7Y1234D01*
X2597Y1234D02*
X2604Y1234D01*
X0Y1233D02*
X7Y1233D01*
X2597Y1233D02*
X2604Y1233D01*
X0Y1232D02*
X7Y1232D01*
X2597Y1232D02*
X2604Y1232D01*
X0Y1231D02*
X7Y1231D01*
X2597Y1231D02*
X2604Y1231D01*
X0Y1230D02*
X7Y1230D01*
X2597Y1230D02*
X2604Y1230D01*
X0Y1229D02*
X7Y1229D01*
X2597Y1229D02*
X2604Y1229D01*
X0Y1228D02*
X7Y1228D01*
X2597Y1228D02*
X2604Y1228D01*
X0Y1227D02*
X7Y1227D01*
X2597Y1227D02*
X2604Y1227D01*
X0Y1226D02*
X7Y1226D01*
X2597Y1226D02*
X2604Y1226D01*
X0Y1225D02*
X7Y1225D01*
X2597Y1225D02*
X2604Y1225D01*
X0Y1224D02*
X7Y1224D01*
X2597Y1224D02*
X2604Y1224D01*
X0Y1223D02*
X7Y1223D01*
X2597Y1223D02*
X2604Y1223D01*
X0Y1222D02*
X7Y1222D01*
X2597Y1222D02*
X2604Y1222D01*
X0Y1221D02*
X7Y1221D01*
X2597Y1221D02*
X2604Y1221D01*
X0Y1220D02*
X7Y1220D01*
X2597Y1220D02*
X2604Y1220D01*
X0Y1219D02*
X7Y1219D01*
X2597Y1219D02*
X2604Y1219D01*
X0Y1218D02*
X7Y1218D01*
X2597Y1218D02*
X2604Y1218D01*
X0Y1217D02*
X7Y1217D01*
X2597Y1217D02*
X2604Y1217D01*
X0Y1216D02*
X7Y1216D01*
X2597Y1216D02*
X2604Y1216D01*
X0Y1215D02*
X7Y1215D01*
X2597Y1215D02*
X2604Y1215D01*
X0Y1214D02*
X7Y1214D01*
X2597Y1214D02*
X2604Y1214D01*
X0Y1213D02*
X7Y1213D01*
X2597Y1213D02*
X2604Y1213D01*
X0Y1212D02*
X7Y1212D01*
X2597Y1212D02*
X2604Y1212D01*
X0Y1211D02*
X7Y1211D01*
X2597Y1211D02*
X2604Y1211D01*
X0Y1210D02*
X7Y1210D01*
X2597Y1210D02*
X2604Y1210D01*
X0Y1209D02*
X7Y1209D01*
X2597Y1209D02*
X2604Y1209D01*
X0Y1208D02*
X7Y1208D01*
X2597Y1208D02*
X2604Y1208D01*
X0Y1207D02*
X7Y1207D01*
X2597Y1207D02*
X2604Y1207D01*
X0Y1206D02*
X7Y1206D01*
X2597Y1206D02*
X2604Y1206D01*
X0Y1205D02*
X7Y1205D01*
X2597Y1205D02*
X2604Y1205D01*
X0Y1204D02*
X7Y1204D01*
X2597Y1204D02*
X2604Y1204D01*
X0Y1203D02*
X7Y1203D01*
X2597Y1203D02*
X2604Y1203D01*
X0Y1202D02*
X7Y1202D01*
X2597Y1202D02*
X2604Y1202D01*
X0Y1201D02*
X7Y1201D01*
X2597Y1201D02*
X2604Y1201D01*
X0Y1200D02*
X7Y1200D01*
X2597Y1200D02*
X2604Y1200D01*
X0Y1199D02*
X7Y1199D01*
X2597Y1199D02*
X2604Y1199D01*
X0Y1198D02*
X7Y1198D01*
X2597Y1198D02*
X2604Y1198D01*
X0Y1197D02*
X7Y1197D01*
X2597Y1197D02*
X2604Y1197D01*
X0Y1196D02*
X7Y1196D01*
X2597Y1196D02*
X2604Y1196D01*
X0Y1195D02*
X7Y1195D01*
X2597Y1195D02*
X2604Y1195D01*
X0Y1194D02*
X7Y1194D01*
X2597Y1194D02*
X2604Y1194D01*
X0Y1193D02*
X7Y1193D01*
X2597Y1193D02*
X2604Y1193D01*
X0Y1192D02*
X7Y1192D01*
X2597Y1192D02*
X2604Y1192D01*
X0Y1191D02*
X7Y1191D01*
X2597Y1191D02*
X2604Y1191D01*
X0Y1190D02*
X7Y1190D01*
X2597Y1190D02*
X2604Y1190D01*
X0Y1189D02*
X7Y1189D01*
X2597Y1189D02*
X2604Y1189D01*
X0Y1188D02*
X7Y1188D01*
X2597Y1188D02*
X2604Y1188D01*
X0Y1187D02*
X7Y1187D01*
X2597Y1187D02*
X2604Y1187D01*
X0Y1186D02*
X7Y1186D01*
X2597Y1186D02*
X2604Y1186D01*
X0Y1185D02*
X7Y1185D01*
X2597Y1185D02*
X2604Y1185D01*
X0Y1184D02*
X7Y1184D01*
X2597Y1184D02*
X2604Y1184D01*
X0Y1183D02*
X7Y1183D01*
X2597Y1183D02*
X2604Y1183D01*
X0Y1182D02*
X7Y1182D01*
X2597Y1182D02*
X2604Y1182D01*
X0Y1181D02*
X7Y1181D01*
X2597Y1181D02*
X2604Y1181D01*
X0Y1180D02*
X7Y1180D01*
X2597Y1180D02*
X2604Y1180D01*
X0Y1179D02*
X7Y1179D01*
X2597Y1179D02*
X2604Y1179D01*
X0Y1178D02*
X7Y1178D01*
X2597Y1178D02*
X2604Y1178D01*
X0Y1177D02*
X7Y1177D01*
X2597Y1177D02*
X2604Y1177D01*
X0Y1176D02*
X7Y1176D01*
X2597Y1176D02*
X2604Y1176D01*
X0Y1175D02*
X7Y1175D01*
X2597Y1175D02*
X2604Y1175D01*
X0Y1174D02*
X7Y1174D01*
X2597Y1174D02*
X2604Y1174D01*
X0Y1173D02*
X7Y1173D01*
X2597Y1173D02*
X2604Y1173D01*
X0Y1172D02*
X7Y1172D01*
X2597Y1172D02*
X2604Y1172D01*
X0Y1171D02*
X7Y1171D01*
X2597Y1171D02*
X2604Y1171D01*
X0Y1170D02*
X7Y1170D01*
X2597Y1170D02*
X2604Y1170D01*
X0Y1169D02*
X7Y1169D01*
X2597Y1169D02*
X2604Y1169D01*
X0Y1168D02*
X7Y1168D01*
X2597Y1168D02*
X2604Y1168D01*
X0Y1167D02*
X7Y1167D01*
X2597Y1167D02*
X2604Y1167D01*
X0Y1166D02*
X7Y1166D01*
X2597Y1166D02*
X2604Y1166D01*
X0Y1165D02*
X7Y1165D01*
X2597Y1165D02*
X2604Y1165D01*
X0Y1164D02*
X7Y1164D01*
X2597Y1164D02*
X2604Y1164D01*
X0Y1163D02*
X7Y1163D01*
X2597Y1163D02*
X2604Y1163D01*
X0Y1162D02*
X7Y1162D01*
X2597Y1162D02*
X2604Y1162D01*
X0Y1161D02*
X7Y1161D01*
X2597Y1161D02*
X2604Y1161D01*
X0Y1160D02*
X7Y1160D01*
X2597Y1160D02*
X2604Y1160D01*
X0Y1159D02*
X7Y1159D01*
X2597Y1159D02*
X2604Y1159D01*
X0Y1158D02*
X7Y1158D01*
X2597Y1158D02*
X2604Y1158D01*
X0Y1157D02*
X7Y1157D01*
X2597Y1157D02*
X2604Y1157D01*
X0Y1156D02*
X7Y1156D01*
X2597Y1156D02*
X2604Y1156D01*
X0Y1155D02*
X7Y1155D01*
X2597Y1155D02*
X2604Y1155D01*
X0Y1154D02*
X7Y1154D01*
X2597Y1154D02*
X2604Y1154D01*
X0Y1153D02*
X7Y1153D01*
X2597Y1153D02*
X2604Y1153D01*
X0Y1152D02*
X7Y1152D01*
X2597Y1152D02*
X2604Y1152D01*
X0Y1151D02*
X7Y1151D01*
X2597Y1151D02*
X2604Y1151D01*
X0Y1150D02*
X7Y1150D01*
X2597Y1150D02*
X2604Y1150D01*
X0Y1149D02*
X7Y1149D01*
X2597Y1149D02*
X2604Y1149D01*
X0Y1148D02*
X7Y1148D01*
X2597Y1148D02*
X2604Y1148D01*
X0Y1147D02*
X7Y1147D01*
X2597Y1147D02*
X2604Y1147D01*
X0Y1146D02*
X7Y1146D01*
X2597Y1146D02*
X2604Y1146D01*
X0Y1145D02*
X7Y1145D01*
X2597Y1145D02*
X2604Y1145D01*
X0Y1144D02*
X7Y1144D01*
X2597Y1144D02*
X2604Y1144D01*
X0Y1143D02*
X7Y1143D01*
X2597Y1143D02*
X2604Y1143D01*
X0Y1142D02*
X7Y1142D01*
X2597Y1142D02*
X2604Y1142D01*
X0Y1141D02*
X7Y1141D01*
X2597Y1141D02*
X2604Y1141D01*
X0Y1140D02*
X7Y1140D01*
X2597Y1140D02*
X2604Y1140D01*
X0Y1139D02*
X7Y1139D01*
X2597Y1139D02*
X2604Y1139D01*
X0Y1138D02*
X7Y1138D01*
X2597Y1138D02*
X2604Y1138D01*
X0Y1137D02*
X7Y1137D01*
X2597Y1137D02*
X2604Y1137D01*
X0Y1136D02*
X7Y1136D01*
X2597Y1136D02*
X2604Y1136D01*
X0Y1135D02*
X7Y1135D01*
X2597Y1135D02*
X2604Y1135D01*
X0Y1134D02*
X7Y1134D01*
X2597Y1134D02*
X2604Y1134D01*
X0Y1133D02*
X7Y1133D01*
X2597Y1133D02*
X2604Y1133D01*
X0Y1132D02*
X7Y1132D01*
X2597Y1132D02*
X2604Y1132D01*
X0Y1131D02*
X7Y1131D01*
X2597Y1131D02*
X2604Y1131D01*
X0Y1130D02*
X7Y1130D01*
X2597Y1130D02*
X2604Y1130D01*
X0Y1129D02*
X7Y1129D01*
X2597Y1129D02*
X2604Y1129D01*
X0Y1128D02*
X7Y1128D01*
X2597Y1128D02*
X2604Y1128D01*
X0Y1127D02*
X7Y1127D01*
X2597Y1127D02*
X2604Y1127D01*
X0Y1126D02*
X7Y1126D01*
X2597Y1126D02*
X2604Y1126D01*
X0Y1125D02*
X7Y1125D01*
X2597Y1125D02*
X2604Y1125D01*
X0Y1124D02*
X7Y1124D01*
X2597Y1124D02*
X2604Y1124D01*
X0Y1123D02*
X7Y1123D01*
X2597Y1123D02*
X2604Y1123D01*
X0Y1122D02*
X7Y1122D01*
X2597Y1122D02*
X2604Y1122D01*
X0Y1121D02*
X7Y1121D01*
X2597Y1121D02*
X2604Y1121D01*
X0Y1120D02*
X7Y1120D01*
X2597Y1120D02*
X2604Y1120D01*
X0Y1119D02*
X7Y1119D01*
X2597Y1119D02*
X2604Y1119D01*
X0Y1118D02*
X7Y1118D01*
X2597Y1118D02*
X2604Y1118D01*
X0Y1117D02*
X7Y1117D01*
X2597Y1117D02*
X2604Y1117D01*
X0Y1116D02*
X7Y1116D01*
X2597Y1116D02*
X2604Y1116D01*
X0Y1115D02*
X7Y1115D01*
X2597Y1115D02*
X2604Y1115D01*
X0Y1114D02*
X7Y1114D01*
X2597Y1114D02*
X2604Y1114D01*
X0Y1113D02*
X7Y1113D01*
X2597Y1113D02*
X2604Y1113D01*
X0Y1112D02*
X7Y1112D01*
X2597Y1112D02*
X2604Y1112D01*
X0Y1111D02*
X7Y1111D01*
X2597Y1111D02*
X2604Y1111D01*
X0Y1110D02*
X7Y1110D01*
X2597Y1110D02*
X2604Y1110D01*
X0Y1109D02*
X7Y1109D01*
X2597Y1109D02*
X2604Y1109D01*
X0Y1108D02*
X7Y1108D01*
X2597Y1108D02*
X2604Y1108D01*
X0Y1107D02*
X7Y1107D01*
X2597Y1107D02*
X2604Y1107D01*
X0Y1106D02*
X7Y1106D01*
X2597Y1106D02*
X2604Y1106D01*
X0Y1105D02*
X7Y1105D01*
X2597Y1105D02*
X2604Y1105D01*
X0Y1104D02*
X7Y1104D01*
X2597Y1104D02*
X2604Y1104D01*
X0Y1103D02*
X7Y1103D01*
X2597Y1103D02*
X2604Y1103D01*
X0Y1102D02*
X7Y1102D01*
X2597Y1102D02*
X2604Y1102D01*
X0Y1101D02*
X7Y1101D01*
X2597Y1101D02*
X2604Y1101D01*
X0Y1100D02*
X7Y1100D01*
X2597Y1100D02*
X2604Y1100D01*
X0Y1099D02*
X7Y1099D01*
X2597Y1099D02*
X2604Y1099D01*
X0Y1098D02*
X7Y1098D01*
X2597Y1098D02*
X2604Y1098D01*
X0Y1097D02*
X7Y1097D01*
X2597Y1097D02*
X2604Y1097D01*
X0Y1096D02*
X7Y1096D01*
X2597Y1096D02*
X2604Y1096D01*
X0Y1095D02*
X7Y1095D01*
X2597Y1095D02*
X2604Y1095D01*
X0Y1094D02*
X7Y1094D01*
X2597Y1094D02*
X2604Y1094D01*
X0Y1093D02*
X7Y1093D01*
X2597Y1093D02*
X2604Y1093D01*
X0Y1092D02*
X7Y1092D01*
X2597Y1092D02*
X2604Y1092D01*
X0Y1091D02*
X7Y1091D01*
X2597Y1091D02*
X2604Y1091D01*
X0Y1090D02*
X7Y1090D01*
X2597Y1090D02*
X2604Y1090D01*
X0Y1089D02*
X7Y1089D01*
X2597Y1089D02*
X2604Y1089D01*
X0Y1088D02*
X7Y1088D01*
X2597Y1088D02*
X2604Y1088D01*
X0Y1087D02*
X7Y1087D01*
X2597Y1087D02*
X2604Y1087D01*
X0Y1086D02*
X7Y1086D01*
X2597Y1086D02*
X2604Y1086D01*
X0Y1085D02*
X7Y1085D01*
X2597Y1085D02*
X2604Y1085D01*
X0Y1084D02*
X7Y1084D01*
X2597Y1084D02*
X2604Y1084D01*
X0Y1083D02*
X7Y1083D01*
X2597Y1083D02*
X2604Y1083D01*
X0Y1082D02*
X7Y1082D01*
X2597Y1082D02*
X2604Y1082D01*
X0Y1081D02*
X7Y1081D01*
X2597Y1081D02*
X2604Y1081D01*
X0Y1080D02*
X7Y1080D01*
X2597Y1080D02*
X2604Y1080D01*
X0Y1079D02*
X7Y1079D01*
X2597Y1079D02*
X2604Y1079D01*
X0Y1078D02*
X7Y1078D01*
X2597Y1078D02*
X2604Y1078D01*
X0Y1077D02*
X7Y1077D01*
X2597Y1077D02*
X2604Y1077D01*
X0Y1076D02*
X7Y1076D01*
X2597Y1076D02*
X2604Y1076D01*
X0Y1075D02*
X7Y1075D01*
X2597Y1075D02*
X2604Y1075D01*
X0Y1074D02*
X7Y1074D01*
X2597Y1074D02*
X2604Y1074D01*
X0Y1073D02*
X7Y1073D01*
X2597Y1073D02*
X2604Y1073D01*
X0Y1072D02*
X7Y1072D01*
X2597Y1072D02*
X2604Y1072D01*
X0Y1071D02*
X7Y1071D01*
X2597Y1071D02*
X2604Y1071D01*
X0Y1070D02*
X7Y1070D01*
X2597Y1070D02*
X2604Y1070D01*
X0Y1069D02*
X7Y1069D01*
X2597Y1069D02*
X2604Y1069D01*
X0Y1068D02*
X7Y1068D01*
X2597Y1068D02*
X2604Y1068D01*
X0Y1067D02*
X7Y1067D01*
X2597Y1067D02*
X2604Y1067D01*
X0Y1066D02*
X7Y1066D01*
X2597Y1066D02*
X2604Y1066D01*
X0Y1065D02*
X7Y1065D01*
X2597Y1065D02*
X2604Y1065D01*
X0Y1064D02*
X7Y1064D01*
X2597Y1064D02*
X2604Y1064D01*
X0Y1063D02*
X7Y1063D01*
X2597Y1063D02*
X2604Y1063D01*
X0Y1062D02*
X7Y1062D01*
X2597Y1062D02*
X2604Y1062D01*
X0Y1061D02*
X7Y1061D01*
X2597Y1061D02*
X2604Y1061D01*
X0Y1060D02*
X7Y1060D01*
X2597Y1060D02*
X2604Y1060D01*
X0Y1059D02*
X7Y1059D01*
X2597Y1059D02*
X2604Y1059D01*
X0Y1058D02*
X7Y1058D01*
X2597Y1058D02*
X2604Y1058D01*
X0Y1057D02*
X7Y1057D01*
X2597Y1057D02*
X2604Y1057D01*
X0Y1056D02*
X7Y1056D01*
X2597Y1056D02*
X2604Y1056D01*
X0Y1055D02*
X7Y1055D01*
X2597Y1055D02*
X2604Y1055D01*
X0Y1054D02*
X7Y1054D01*
X2597Y1054D02*
X2604Y1054D01*
X0Y1053D02*
X7Y1053D01*
X2597Y1053D02*
X2604Y1053D01*
X0Y1052D02*
X7Y1052D01*
X2597Y1052D02*
X2604Y1052D01*
X0Y1051D02*
X7Y1051D01*
X2597Y1051D02*
X2604Y1051D01*
X0Y1050D02*
X7Y1050D01*
X2597Y1050D02*
X2604Y1050D01*
X0Y1049D02*
X7Y1049D01*
X2597Y1049D02*
X2604Y1049D01*
X0Y1048D02*
X7Y1048D01*
X2597Y1048D02*
X2604Y1048D01*
X0Y1047D02*
X7Y1047D01*
X2597Y1047D02*
X2604Y1047D01*
X0Y1046D02*
X7Y1046D01*
X2597Y1046D02*
X2604Y1046D01*
X0Y1045D02*
X7Y1045D01*
X2597Y1045D02*
X2604Y1045D01*
X0Y1044D02*
X7Y1044D01*
X2597Y1044D02*
X2604Y1044D01*
X0Y1043D02*
X7Y1043D01*
X2597Y1043D02*
X2604Y1043D01*
X0Y1042D02*
X7Y1042D01*
X2597Y1042D02*
X2604Y1042D01*
X0Y1041D02*
X7Y1041D01*
X2597Y1041D02*
X2604Y1041D01*
X0Y1040D02*
X7Y1040D01*
X2597Y1040D02*
X2604Y1040D01*
X0Y1039D02*
X7Y1039D01*
X2597Y1039D02*
X2604Y1039D01*
X0Y1038D02*
X7Y1038D01*
X2597Y1038D02*
X2604Y1038D01*
X0Y1037D02*
X7Y1037D01*
X2597Y1037D02*
X2604Y1037D01*
X0Y1036D02*
X7Y1036D01*
X2597Y1036D02*
X2604Y1036D01*
X0Y1035D02*
X7Y1035D01*
X2597Y1035D02*
X2604Y1035D01*
X0Y1034D02*
X7Y1034D01*
X2597Y1034D02*
X2604Y1034D01*
X0Y1033D02*
X7Y1033D01*
X2597Y1033D02*
X2604Y1033D01*
X0Y1032D02*
X7Y1032D01*
X2597Y1032D02*
X2604Y1032D01*
X0Y1031D02*
X7Y1031D01*
X2597Y1031D02*
X2604Y1031D01*
X0Y1030D02*
X7Y1030D01*
X2597Y1030D02*
X2604Y1030D01*
X0Y1029D02*
X7Y1029D01*
X2597Y1029D02*
X2604Y1029D01*
X0Y1028D02*
X7Y1028D01*
X2597Y1028D02*
X2604Y1028D01*
X0Y1027D02*
X7Y1027D01*
X2597Y1027D02*
X2604Y1027D01*
X0Y1026D02*
X7Y1026D01*
X2597Y1026D02*
X2604Y1026D01*
X0Y1025D02*
X7Y1025D01*
X2597Y1025D02*
X2604Y1025D01*
X0Y1024D02*
X7Y1024D01*
X2597Y1024D02*
X2604Y1024D01*
X0Y1023D02*
X7Y1023D01*
X2597Y1023D02*
X2604Y1023D01*
X0Y1022D02*
X7Y1022D01*
X2597Y1022D02*
X2604Y1022D01*
X0Y1021D02*
X7Y1021D01*
X2597Y1021D02*
X2604Y1021D01*
X0Y1020D02*
X7Y1020D01*
X2597Y1020D02*
X2604Y1020D01*
X0Y1019D02*
X7Y1019D01*
X2597Y1019D02*
X2604Y1019D01*
X0Y1018D02*
X7Y1018D01*
X2597Y1018D02*
X2604Y1018D01*
X0Y1017D02*
X7Y1017D01*
X2597Y1017D02*
X2604Y1017D01*
X0Y1016D02*
X7Y1016D01*
X2597Y1016D02*
X2604Y1016D01*
X0Y1015D02*
X7Y1015D01*
X2597Y1015D02*
X2604Y1015D01*
X0Y1014D02*
X7Y1014D01*
X2597Y1014D02*
X2604Y1014D01*
X0Y1013D02*
X7Y1013D01*
X2597Y1013D02*
X2604Y1013D01*
X0Y1012D02*
X7Y1012D01*
X2597Y1012D02*
X2604Y1012D01*
X0Y1011D02*
X7Y1011D01*
X2597Y1011D02*
X2604Y1011D01*
X0Y1010D02*
X7Y1010D01*
X2597Y1010D02*
X2604Y1010D01*
X0Y1009D02*
X7Y1009D01*
X2597Y1009D02*
X2604Y1009D01*
X0Y1008D02*
X7Y1008D01*
X2597Y1008D02*
X2604Y1008D01*
X0Y1007D02*
X7Y1007D01*
X2597Y1007D02*
X2604Y1007D01*
X0Y1006D02*
X7Y1006D01*
X2597Y1006D02*
X2604Y1006D01*
X0Y1005D02*
X7Y1005D01*
X2597Y1005D02*
X2604Y1005D01*
X0Y1004D02*
X7Y1004D01*
X2597Y1004D02*
X2604Y1004D01*
X0Y1003D02*
X7Y1003D01*
X2597Y1003D02*
X2604Y1003D01*
X0Y1002D02*
X7Y1002D01*
X2597Y1002D02*
X2604Y1002D01*
X0Y1001D02*
X7Y1001D01*
X2597Y1001D02*
X2604Y1001D01*
X0Y1000D02*
X7Y1000D01*
X2597Y1000D02*
X2604Y1000D01*
X0Y999D02*
X7Y999D01*
X2597Y999D02*
X2604Y999D01*
X0Y998D02*
X7Y998D01*
X2597Y998D02*
X2604Y998D01*
X0Y997D02*
X7Y997D01*
X2597Y997D02*
X2604Y997D01*
X0Y996D02*
X7Y996D01*
X2597Y996D02*
X2604Y996D01*
X0Y995D02*
X7Y995D01*
X2597Y995D02*
X2604Y995D01*
X0Y994D02*
X7Y994D01*
X2597Y994D02*
X2604Y994D01*
X0Y993D02*
X7Y993D01*
X2597Y993D02*
X2604Y993D01*
X0Y992D02*
X7Y992D01*
X2597Y992D02*
X2604Y992D01*
X0Y991D02*
X7Y991D01*
X2597Y991D02*
X2604Y991D01*
X0Y990D02*
X7Y990D01*
X2597Y990D02*
X2604Y990D01*
X0Y989D02*
X7Y989D01*
X2597Y989D02*
X2604Y989D01*
X0Y988D02*
X7Y988D01*
X2597Y988D02*
X2604Y988D01*
X0Y987D02*
X7Y987D01*
X2597Y987D02*
X2604Y987D01*
X0Y986D02*
X7Y986D01*
X2597Y986D02*
X2604Y986D01*
X0Y985D02*
X7Y985D01*
X2597Y985D02*
X2604Y985D01*
X0Y984D02*
X7Y984D01*
X2597Y984D02*
X2604Y984D01*
X0Y983D02*
X7Y983D01*
X2597Y983D02*
X2604Y983D01*
X0Y982D02*
X7Y982D01*
X2597Y982D02*
X2604Y982D01*
X0Y981D02*
X7Y981D01*
X2597Y981D02*
X2604Y981D01*
X0Y980D02*
X7Y980D01*
X2597Y980D02*
X2604Y980D01*
X0Y979D02*
X7Y979D01*
X2597Y979D02*
X2604Y979D01*
X0Y978D02*
X7Y978D01*
X2597Y978D02*
X2604Y978D01*
X0Y977D02*
X7Y977D01*
X2597Y977D02*
X2604Y977D01*
X0Y976D02*
X7Y976D01*
X2597Y976D02*
X2604Y976D01*
X0Y975D02*
X7Y975D01*
X2597Y975D02*
X2604Y975D01*
X0Y974D02*
X7Y974D01*
X2597Y974D02*
X2604Y974D01*
X0Y973D02*
X7Y973D01*
X2597Y973D02*
X2604Y973D01*
X0Y972D02*
X7Y972D01*
X2597Y972D02*
X2604Y972D01*
X0Y971D02*
X7Y971D01*
X2597Y971D02*
X2604Y971D01*
X0Y970D02*
X7Y970D01*
X2597Y970D02*
X2604Y970D01*
X0Y969D02*
X7Y969D01*
X2597Y969D02*
X2604Y969D01*
X0Y968D02*
X7Y968D01*
X2597Y968D02*
X2604Y968D01*
X0Y967D02*
X7Y967D01*
X2597Y967D02*
X2604Y967D01*
X0Y966D02*
X7Y966D01*
X2597Y966D02*
X2604Y966D01*
X0Y965D02*
X7Y965D01*
X2597Y965D02*
X2604Y965D01*
X0Y964D02*
X7Y964D01*
X2597Y964D02*
X2604Y964D01*
X0Y963D02*
X7Y963D01*
X2597Y963D02*
X2604Y963D01*
X0Y962D02*
X7Y962D01*
X2597Y962D02*
X2604Y962D01*
X0Y961D02*
X7Y961D01*
X2597Y961D02*
X2604Y961D01*
X0Y960D02*
X7Y960D01*
X2597Y960D02*
X2604Y960D01*
X0Y959D02*
X7Y959D01*
X2597Y959D02*
X2604Y959D01*
X0Y958D02*
X7Y958D01*
X2597Y958D02*
X2604Y958D01*
X0Y957D02*
X7Y957D01*
X2597Y957D02*
X2604Y957D01*
X0Y956D02*
X7Y956D01*
X2597Y956D02*
X2604Y956D01*
X0Y955D02*
X7Y955D01*
X2597Y955D02*
X2604Y955D01*
X0Y954D02*
X7Y954D01*
X2597Y954D02*
X2604Y954D01*
X0Y953D02*
X7Y953D01*
X2597Y953D02*
X2604Y953D01*
X0Y952D02*
X7Y952D01*
X2597Y952D02*
X2604Y952D01*
X0Y951D02*
X7Y951D01*
X2597Y951D02*
X2604Y951D01*
X0Y950D02*
X7Y950D01*
X2597Y950D02*
X2604Y950D01*
X0Y949D02*
X7Y949D01*
X2597Y949D02*
X2604Y949D01*
X0Y948D02*
X7Y948D01*
X2597Y948D02*
X2604Y948D01*
X0Y947D02*
X7Y947D01*
X2597Y947D02*
X2604Y947D01*
X0Y946D02*
X7Y946D01*
X2597Y946D02*
X2604Y946D01*
X0Y945D02*
X7Y945D01*
X2597Y945D02*
X2604Y945D01*
X0Y944D02*
X7Y944D01*
X2597Y944D02*
X2604Y944D01*
X0Y943D02*
X7Y943D01*
X2597Y943D02*
X2604Y943D01*
X0Y942D02*
X7Y942D01*
X2597Y942D02*
X2604Y942D01*
X0Y941D02*
X7Y941D01*
X2597Y941D02*
X2604Y941D01*
X0Y940D02*
X7Y940D01*
X2597Y940D02*
X2604Y940D01*
X0Y939D02*
X7Y939D01*
X2597Y939D02*
X2604Y939D01*
X0Y938D02*
X7Y938D01*
X2597Y938D02*
X2604Y938D01*
X0Y937D02*
X7Y937D01*
X2597Y937D02*
X2604Y937D01*
X0Y936D02*
X7Y936D01*
X2597Y936D02*
X2604Y936D01*
X0Y935D02*
X7Y935D01*
X2597Y935D02*
X2604Y935D01*
X0Y934D02*
X7Y934D01*
X2597Y934D02*
X2604Y934D01*
X0Y933D02*
X7Y933D01*
X2597Y933D02*
X2604Y933D01*
X0Y932D02*
X7Y932D01*
X2597Y932D02*
X2604Y932D01*
X0Y931D02*
X7Y931D01*
X2597Y931D02*
X2604Y931D01*
X0Y930D02*
X7Y930D01*
X2597Y930D02*
X2604Y930D01*
X0Y929D02*
X7Y929D01*
X2597Y929D02*
X2604Y929D01*
X0Y928D02*
X7Y928D01*
X2597Y928D02*
X2604Y928D01*
X0Y927D02*
X7Y927D01*
X2597Y927D02*
X2604Y927D01*
X0Y926D02*
X7Y926D01*
X2597Y926D02*
X2604Y926D01*
X0Y925D02*
X7Y925D01*
X2597Y925D02*
X2604Y925D01*
X0Y924D02*
X7Y924D01*
X2597Y924D02*
X2604Y924D01*
X0Y923D02*
X7Y923D01*
X2597Y923D02*
X2604Y923D01*
X0Y922D02*
X7Y922D01*
X2597Y922D02*
X2604Y922D01*
X0Y921D02*
X7Y921D01*
X2597Y921D02*
X2604Y921D01*
X0Y920D02*
X7Y920D01*
X2597Y920D02*
X2604Y920D01*
X0Y919D02*
X7Y919D01*
X2597Y919D02*
X2604Y919D01*
X0Y918D02*
X7Y918D01*
X2597Y918D02*
X2604Y918D01*
X0Y917D02*
X7Y917D01*
X2597Y917D02*
X2604Y917D01*
X0Y916D02*
X7Y916D01*
X2597Y916D02*
X2604Y916D01*
X0Y915D02*
X7Y915D01*
X2597Y915D02*
X2604Y915D01*
X0Y914D02*
X7Y914D01*
X2597Y914D02*
X2604Y914D01*
X0Y913D02*
X7Y913D01*
X2597Y913D02*
X2604Y913D01*
X0Y912D02*
X7Y912D01*
X2597Y912D02*
X2604Y912D01*
X0Y911D02*
X7Y911D01*
X2597Y911D02*
X2604Y911D01*
X0Y910D02*
X7Y910D01*
X2597Y910D02*
X2604Y910D01*
X0Y909D02*
X7Y909D01*
X2597Y909D02*
X2604Y909D01*
X0Y908D02*
X7Y908D01*
X2597Y908D02*
X2604Y908D01*
X0Y907D02*
X7Y907D01*
X2597Y907D02*
X2604Y907D01*
X0Y906D02*
X7Y906D01*
X2597Y906D02*
X2604Y906D01*
X0Y905D02*
X7Y905D01*
X2597Y905D02*
X2604Y905D01*
X0Y904D02*
X7Y904D01*
X2597Y904D02*
X2604Y904D01*
X0Y903D02*
X7Y903D01*
X2597Y903D02*
X2604Y903D01*
X0Y902D02*
X7Y902D01*
X2597Y902D02*
X2604Y902D01*
X0Y901D02*
X7Y901D01*
X2597Y901D02*
X2604Y901D01*
X0Y900D02*
X7Y900D01*
X2597Y900D02*
X2604Y900D01*
X0Y899D02*
X7Y899D01*
X2597Y899D02*
X2604Y899D01*
X0Y898D02*
X7Y898D01*
X2597Y898D02*
X2604Y898D01*
X0Y897D02*
X7Y897D01*
X2597Y897D02*
X2604Y897D01*
X0Y896D02*
X7Y896D01*
X2597Y896D02*
X2604Y896D01*
X0Y895D02*
X7Y895D01*
X2597Y895D02*
X2604Y895D01*
X0Y894D02*
X7Y894D01*
X2597Y894D02*
X2604Y894D01*
X0Y893D02*
X7Y893D01*
X2597Y893D02*
X2604Y893D01*
X0Y892D02*
X7Y892D01*
X2597Y892D02*
X2604Y892D01*
X0Y891D02*
X7Y891D01*
X2597Y891D02*
X2604Y891D01*
X0Y890D02*
X7Y890D01*
X2597Y890D02*
X2604Y890D01*
X0Y889D02*
X7Y889D01*
X2597Y889D02*
X2604Y889D01*
X0Y888D02*
X7Y888D01*
X2597Y888D02*
X2604Y888D01*
X0Y887D02*
X7Y887D01*
X2597Y887D02*
X2604Y887D01*
X0Y886D02*
X7Y886D01*
X2597Y886D02*
X2604Y886D01*
X0Y885D02*
X7Y885D01*
X2597Y885D02*
X2604Y885D01*
X0Y884D02*
X7Y884D01*
X2597Y884D02*
X2604Y884D01*
X0Y883D02*
X7Y883D01*
X2597Y883D02*
X2604Y883D01*
X0Y882D02*
X7Y882D01*
X2597Y882D02*
X2604Y882D01*
X0Y881D02*
X7Y881D01*
X2597Y881D02*
X2604Y881D01*
X0Y880D02*
X7Y880D01*
X2597Y880D02*
X2604Y880D01*
X0Y879D02*
X7Y879D01*
X2597Y879D02*
X2604Y879D01*
X0Y878D02*
X7Y878D01*
X2597Y878D02*
X2604Y878D01*
X0Y877D02*
X7Y877D01*
X2597Y877D02*
X2604Y877D01*
X0Y876D02*
X7Y876D01*
X2597Y876D02*
X2604Y876D01*
X0Y875D02*
X7Y875D01*
X2597Y875D02*
X2604Y875D01*
X0Y874D02*
X7Y874D01*
X2597Y874D02*
X2604Y874D01*
X0Y873D02*
X7Y873D01*
X2597Y873D02*
X2604Y873D01*
X0Y872D02*
X7Y872D01*
X2597Y872D02*
X2604Y872D01*
X0Y871D02*
X7Y871D01*
X2597Y871D02*
X2604Y871D01*
X0Y870D02*
X7Y870D01*
X2597Y870D02*
X2604Y870D01*
X0Y869D02*
X7Y869D01*
X2597Y869D02*
X2604Y869D01*
X0Y868D02*
X7Y868D01*
X2597Y868D02*
X2604Y868D01*
X0Y867D02*
X7Y867D01*
X2597Y867D02*
X2604Y867D01*
X0Y866D02*
X7Y866D01*
X2597Y866D02*
X2604Y866D01*
X0Y865D02*
X7Y865D01*
X2597Y865D02*
X2604Y865D01*
X0Y864D02*
X7Y864D01*
X2597Y864D02*
X2604Y864D01*
X0Y863D02*
X7Y863D01*
X2597Y863D02*
X2604Y863D01*
X0Y862D02*
X7Y862D01*
X2597Y862D02*
X2604Y862D01*
X0Y861D02*
X7Y861D01*
X2597Y861D02*
X2604Y861D01*
X0Y860D02*
X7Y860D01*
X2597Y860D02*
X2604Y860D01*
X0Y859D02*
X7Y859D01*
X2597Y859D02*
X2604Y859D01*
X0Y858D02*
X7Y858D01*
X2597Y858D02*
X2604Y858D01*
X0Y857D02*
X7Y857D01*
X2597Y857D02*
X2604Y857D01*
X0Y856D02*
X7Y856D01*
X2597Y856D02*
X2604Y856D01*
X0Y855D02*
X7Y855D01*
X2597Y855D02*
X2604Y855D01*
X0Y854D02*
X7Y854D01*
X2597Y854D02*
X2604Y854D01*
X0Y853D02*
X7Y853D01*
X2597Y853D02*
X2604Y853D01*
X0Y852D02*
X7Y852D01*
X2597Y852D02*
X2604Y852D01*
X0Y851D02*
X7Y851D01*
X2597Y851D02*
X2604Y851D01*
X0Y850D02*
X7Y850D01*
X2597Y850D02*
X2604Y850D01*
X0Y849D02*
X7Y849D01*
X2597Y849D02*
X2604Y849D01*
X0Y848D02*
X7Y848D01*
X2597Y848D02*
X2604Y848D01*
X0Y847D02*
X7Y847D01*
X2597Y847D02*
X2604Y847D01*
X0Y846D02*
X7Y846D01*
X2597Y846D02*
X2604Y846D01*
X0Y845D02*
X7Y845D01*
X2597Y845D02*
X2604Y845D01*
X0Y844D02*
X7Y844D01*
X2597Y844D02*
X2604Y844D01*
X0Y843D02*
X7Y843D01*
X2597Y843D02*
X2604Y843D01*
X0Y842D02*
X7Y842D01*
X2597Y842D02*
X2604Y842D01*
X0Y841D02*
X7Y841D01*
X2597Y841D02*
X2604Y841D01*
X0Y840D02*
X7Y840D01*
X2597Y840D02*
X2604Y840D01*
X0Y839D02*
X7Y839D01*
X2597Y839D02*
X2604Y839D01*
X0Y838D02*
X7Y838D01*
X2597Y838D02*
X2604Y838D01*
X0Y837D02*
X7Y837D01*
X2597Y837D02*
X2604Y837D01*
X0Y836D02*
X7Y836D01*
X2597Y836D02*
X2604Y836D01*
X0Y835D02*
X7Y835D01*
X2597Y835D02*
X2604Y835D01*
X0Y834D02*
X7Y834D01*
X2597Y834D02*
X2604Y834D01*
X0Y833D02*
X7Y833D01*
X2597Y833D02*
X2604Y833D01*
X0Y832D02*
X7Y832D01*
X2597Y832D02*
X2604Y832D01*
X0Y831D02*
X7Y831D01*
X2597Y831D02*
X2604Y831D01*
X0Y830D02*
X7Y830D01*
X2597Y830D02*
X2604Y830D01*
X0Y829D02*
X7Y829D01*
X2597Y829D02*
X2604Y829D01*
X0Y828D02*
X7Y828D01*
X2597Y828D02*
X2604Y828D01*
X0Y827D02*
X7Y827D01*
X2597Y827D02*
X2604Y827D01*
X0Y826D02*
X7Y826D01*
X2597Y826D02*
X2604Y826D01*
X0Y825D02*
X7Y825D01*
X2597Y825D02*
X2604Y825D01*
X0Y824D02*
X7Y824D01*
X2597Y824D02*
X2604Y824D01*
X0Y823D02*
X7Y823D01*
X2597Y823D02*
X2604Y823D01*
X0Y822D02*
X7Y822D01*
X2597Y822D02*
X2604Y822D01*
X0Y821D02*
X7Y821D01*
X2597Y821D02*
X2604Y821D01*
X0Y820D02*
X7Y820D01*
X2597Y820D02*
X2604Y820D01*
X0Y819D02*
X7Y819D01*
X2597Y819D02*
X2604Y819D01*
X0Y818D02*
X7Y818D01*
X2597Y818D02*
X2604Y818D01*
X0Y817D02*
X7Y817D01*
X2597Y817D02*
X2604Y817D01*
X0Y816D02*
X7Y816D01*
X2597Y816D02*
X2604Y816D01*
X0Y815D02*
X7Y815D01*
X2597Y815D02*
X2604Y815D01*
X0Y814D02*
X7Y814D01*
X2597Y814D02*
X2604Y814D01*
X0Y813D02*
X7Y813D01*
X2597Y813D02*
X2604Y813D01*
X0Y812D02*
X7Y812D01*
X2597Y812D02*
X2604Y812D01*
X0Y811D02*
X7Y811D01*
X2597Y811D02*
X2604Y811D01*
X0Y810D02*
X7Y810D01*
X2597Y810D02*
X2604Y810D01*
X0Y809D02*
X7Y809D01*
X2597Y809D02*
X2604Y809D01*
X0Y808D02*
X7Y808D01*
X2597Y808D02*
X2604Y808D01*
X0Y807D02*
X7Y807D01*
X2597Y807D02*
X2604Y807D01*
X0Y806D02*
X7Y806D01*
X2597Y806D02*
X2604Y806D01*
X0Y805D02*
X7Y805D01*
X2597Y805D02*
X2604Y805D01*
X0Y804D02*
X7Y804D01*
X2597Y804D02*
X2604Y804D01*
X0Y803D02*
X7Y803D01*
X2597Y803D02*
X2604Y803D01*
X0Y802D02*
X7Y802D01*
X2597Y802D02*
X2604Y802D01*
X0Y801D02*
X7Y801D01*
X2597Y801D02*
X2604Y801D01*
X0Y800D02*
X7Y800D01*
X2597Y800D02*
X2604Y800D01*
X0Y799D02*
X7Y799D01*
X2597Y799D02*
X2604Y799D01*
X0Y798D02*
X7Y798D01*
X2597Y798D02*
X2604Y798D01*
X0Y797D02*
X7Y797D01*
X2597Y797D02*
X2604Y797D01*
X0Y796D02*
X7Y796D01*
X2597Y796D02*
X2604Y796D01*
X0Y795D02*
X7Y795D01*
X2597Y795D02*
X2604Y795D01*
X0Y794D02*
X7Y794D01*
X2597Y794D02*
X2604Y794D01*
X0Y793D02*
X7Y793D01*
X2597Y793D02*
X2604Y793D01*
X0Y792D02*
X7Y792D01*
X2597Y792D02*
X2604Y792D01*
X0Y791D02*
X7Y791D01*
X2597Y791D02*
X2604Y791D01*
X0Y790D02*
X7Y790D01*
X2597Y790D02*
X2604Y790D01*
X0Y789D02*
X7Y789D01*
X2597Y789D02*
X2604Y789D01*
X0Y788D02*
X7Y788D01*
X2597Y788D02*
X2604Y788D01*
X0Y787D02*
X7Y787D01*
X2597Y787D02*
X2604Y787D01*
X0Y786D02*
X7Y786D01*
X2597Y786D02*
X2604Y786D01*
X0Y785D02*
X7Y785D01*
X2597Y785D02*
X2604Y785D01*
X0Y784D02*
X7Y784D01*
X2597Y784D02*
X2604Y784D01*
X0Y783D02*
X7Y783D01*
X2597Y783D02*
X2604Y783D01*
X0Y782D02*
X7Y782D01*
X2597Y782D02*
X2604Y782D01*
X0Y781D02*
X7Y781D01*
X2597Y781D02*
X2604Y781D01*
X0Y780D02*
X7Y780D01*
X2597Y780D02*
X2604Y780D01*
X0Y779D02*
X7Y779D01*
X2597Y779D02*
X2604Y779D01*
X0Y778D02*
X7Y778D01*
X2597Y778D02*
X2604Y778D01*
X0Y777D02*
X7Y777D01*
X2597Y777D02*
X2604Y777D01*
X0Y776D02*
X7Y776D01*
X2597Y776D02*
X2604Y776D01*
X0Y775D02*
X7Y775D01*
X2597Y775D02*
X2604Y775D01*
X0Y774D02*
X7Y774D01*
X2597Y774D02*
X2604Y774D01*
X0Y773D02*
X7Y773D01*
X2597Y773D02*
X2604Y773D01*
X0Y772D02*
X7Y772D01*
X2597Y772D02*
X2604Y772D01*
X0Y771D02*
X7Y771D01*
X2597Y771D02*
X2604Y771D01*
X0Y770D02*
X7Y770D01*
X2597Y770D02*
X2604Y770D01*
X0Y769D02*
X7Y769D01*
X2597Y769D02*
X2604Y769D01*
X0Y768D02*
X7Y768D01*
X2597Y768D02*
X2604Y768D01*
X0Y767D02*
X7Y767D01*
X2597Y767D02*
X2604Y767D01*
X0Y766D02*
X7Y766D01*
X2597Y766D02*
X2604Y766D01*
X0Y765D02*
X7Y765D01*
X2597Y765D02*
X2604Y765D01*
X0Y764D02*
X7Y764D01*
X2597Y764D02*
X2604Y764D01*
X0Y763D02*
X7Y763D01*
X2597Y763D02*
X2604Y763D01*
X0Y762D02*
X7Y762D01*
X2597Y762D02*
X2604Y762D01*
X0Y761D02*
X7Y761D01*
X2597Y761D02*
X2604Y761D01*
X0Y760D02*
X7Y760D01*
X2597Y760D02*
X2604Y760D01*
X0Y759D02*
X7Y759D01*
X2597Y759D02*
X2604Y759D01*
X0Y758D02*
X7Y758D01*
X2597Y758D02*
X2604Y758D01*
X0Y757D02*
X7Y757D01*
X2597Y757D02*
X2604Y757D01*
X0Y756D02*
X7Y756D01*
X2597Y756D02*
X2604Y756D01*
X0Y755D02*
X7Y755D01*
X2597Y755D02*
X2604Y755D01*
X0Y754D02*
X7Y754D01*
X2597Y754D02*
X2604Y754D01*
X0Y753D02*
X7Y753D01*
X2597Y753D02*
X2604Y753D01*
X0Y752D02*
X7Y752D01*
X2597Y752D02*
X2604Y752D01*
X0Y751D02*
X7Y751D01*
X2597Y751D02*
X2604Y751D01*
X0Y750D02*
X7Y750D01*
X2597Y750D02*
X2604Y750D01*
X0Y749D02*
X7Y749D01*
X2597Y749D02*
X2604Y749D01*
X0Y748D02*
X7Y748D01*
X2597Y748D02*
X2604Y748D01*
X0Y747D02*
X7Y747D01*
X2597Y747D02*
X2604Y747D01*
X0Y746D02*
X7Y746D01*
X2597Y746D02*
X2604Y746D01*
X0Y745D02*
X7Y745D01*
X2597Y745D02*
X2604Y745D01*
X0Y744D02*
X7Y744D01*
X2597Y744D02*
X2604Y744D01*
X0Y743D02*
X7Y743D01*
X2597Y743D02*
X2604Y743D01*
X0Y742D02*
X7Y742D01*
X2597Y742D02*
X2604Y742D01*
X0Y741D02*
X7Y741D01*
X2597Y741D02*
X2604Y741D01*
X0Y740D02*
X7Y740D01*
X2597Y740D02*
X2604Y740D01*
X0Y739D02*
X7Y739D01*
X2597Y739D02*
X2604Y739D01*
X0Y738D02*
X7Y738D01*
X2597Y738D02*
X2604Y738D01*
X0Y737D02*
X7Y737D01*
X2597Y737D02*
X2604Y737D01*
X0Y736D02*
X7Y736D01*
X2597Y736D02*
X2604Y736D01*
X0Y735D02*
X7Y735D01*
X2597Y735D02*
X2604Y735D01*
X0Y734D02*
X7Y734D01*
X2597Y734D02*
X2604Y734D01*
X0Y733D02*
X7Y733D01*
X2597Y733D02*
X2604Y733D01*
X0Y732D02*
X7Y732D01*
X2597Y732D02*
X2604Y732D01*
X0Y731D02*
X7Y731D01*
X2597Y731D02*
X2604Y731D01*
X0Y730D02*
X7Y730D01*
X2597Y730D02*
X2604Y730D01*
X0Y729D02*
X7Y729D01*
X2597Y729D02*
X2604Y729D01*
X0Y728D02*
X7Y728D01*
X2597Y728D02*
X2604Y728D01*
X0Y727D02*
X7Y727D01*
X2597Y727D02*
X2604Y727D01*
X0Y726D02*
X7Y726D01*
X2597Y726D02*
X2604Y726D01*
X0Y725D02*
X7Y725D01*
X2597Y725D02*
X2604Y725D01*
X0Y724D02*
X7Y724D01*
X2597Y724D02*
X2604Y724D01*
X0Y723D02*
X7Y723D01*
X2597Y723D02*
X2604Y723D01*
X0Y722D02*
X7Y722D01*
X2597Y722D02*
X2604Y722D01*
X0Y721D02*
X7Y721D01*
X2597Y721D02*
X2604Y721D01*
X0Y720D02*
X7Y720D01*
X2597Y720D02*
X2604Y720D01*
X0Y719D02*
X7Y719D01*
X2597Y719D02*
X2604Y719D01*
X0Y718D02*
X7Y718D01*
X2597Y718D02*
X2604Y718D01*
X0Y717D02*
X7Y717D01*
X1351Y717D02*
X1440Y717D01*
X2597Y717D02*
X2604Y717D01*
X0Y716D02*
X7Y716D01*
X1351Y716D02*
X1440Y716D01*
X2597Y716D02*
X2604Y716D01*
X0Y715D02*
X7Y715D01*
X1351Y715D02*
X1440Y715D01*
X2597Y715D02*
X2604Y715D01*
X0Y714D02*
X7Y714D01*
X1351Y714D02*
X1353Y714D01*
X1438Y714D02*
X1440Y714D01*
X2597Y714D02*
X2604Y714D01*
X0Y713D02*
X7Y713D01*
X1351Y713D02*
X1353Y713D01*
X1438Y713D02*
X1440Y713D01*
X2597Y713D02*
X2604Y713D01*
X0Y712D02*
X7Y712D01*
X1351Y712D02*
X1353Y712D01*
X1438Y712D02*
X1440Y712D01*
X2597Y712D02*
X2604Y712D01*
X0Y711D02*
X7Y711D01*
X1351Y711D02*
X1353Y711D01*
X1438Y711D02*
X1440Y711D01*
X2597Y711D02*
X2604Y711D01*
X0Y710D02*
X7Y710D01*
X1351Y710D02*
X1353Y710D01*
X1438Y710D02*
X1440Y710D01*
X2597Y710D02*
X2604Y710D01*
X0Y709D02*
X7Y709D01*
X1351Y709D02*
X1353Y709D01*
X1438Y709D02*
X1440Y709D01*
X2597Y709D02*
X2604Y709D01*
X0Y708D02*
X7Y708D01*
X1351Y708D02*
X1353Y708D01*
X1438Y708D02*
X1440Y708D01*
X2597Y708D02*
X2604Y708D01*
X0Y707D02*
X7Y707D01*
X1351Y707D02*
X1353Y707D01*
X1438Y707D02*
X1440Y707D01*
X2597Y707D02*
X2604Y707D01*
X0Y706D02*
X7Y706D01*
X1351Y706D02*
X1353Y706D01*
X1438Y706D02*
X1440Y706D01*
X2597Y706D02*
X2604Y706D01*
X0Y705D02*
X7Y705D01*
X1351Y705D02*
X1353Y705D01*
X1438Y705D02*
X1440Y705D01*
X2597Y705D02*
X2604Y705D01*
X0Y704D02*
X7Y704D01*
X1351Y704D02*
X1353Y704D01*
X1438Y704D02*
X1440Y704D01*
X2597Y704D02*
X2604Y704D01*
X0Y703D02*
X7Y703D01*
X1351Y703D02*
X1353Y703D01*
X1438Y703D02*
X1440Y703D01*
X2597Y703D02*
X2604Y703D01*
X0Y702D02*
X7Y702D01*
X1351Y702D02*
X1353Y702D01*
X1438Y702D02*
X1440Y702D01*
X2597Y702D02*
X2604Y702D01*
X0Y701D02*
X7Y701D01*
X1351Y701D02*
X1353Y701D01*
X1438Y701D02*
X1440Y701D01*
X2597Y701D02*
X2604Y701D01*
X0Y700D02*
X7Y700D01*
X1351Y700D02*
X1353Y700D01*
X1438Y700D02*
X1440Y700D01*
X2597Y700D02*
X2604Y700D01*
X0Y699D02*
X7Y699D01*
X1351Y699D02*
X1353Y699D01*
X1438Y699D02*
X1440Y699D01*
X2597Y699D02*
X2604Y699D01*
X0Y698D02*
X7Y698D01*
X1351Y698D02*
X1353Y698D01*
X1438Y698D02*
X1440Y698D01*
X2597Y698D02*
X2604Y698D01*
X0Y697D02*
X7Y697D01*
X1351Y697D02*
X1353Y697D01*
X1438Y697D02*
X1440Y697D01*
X2597Y697D02*
X2604Y697D01*
X0Y696D02*
X7Y696D01*
X1351Y696D02*
X1353Y696D01*
X1438Y696D02*
X1440Y696D01*
X2597Y696D02*
X2604Y696D01*
X0Y695D02*
X7Y695D01*
X1351Y695D02*
X1353Y695D01*
X1438Y695D02*
X1440Y695D01*
X2597Y695D02*
X2604Y695D01*
X0Y694D02*
X7Y694D01*
X1351Y694D02*
X1353Y694D01*
X1438Y694D02*
X1440Y694D01*
X2597Y694D02*
X2604Y694D01*
X0Y693D02*
X7Y693D01*
X1351Y693D02*
X1353Y693D01*
X1438Y693D02*
X1440Y693D01*
X2597Y693D02*
X2604Y693D01*
X0Y692D02*
X7Y692D01*
X1351Y692D02*
X1353Y692D01*
X1438Y692D02*
X1440Y692D01*
X2597Y692D02*
X2604Y692D01*
X0Y691D02*
X7Y691D01*
X1351Y691D02*
X1353Y691D01*
X1438Y691D02*
X1440Y691D01*
X2597Y691D02*
X2604Y691D01*
X0Y690D02*
X7Y690D01*
X1351Y690D02*
X1353Y690D01*
X1438Y690D02*
X1440Y690D01*
X2597Y690D02*
X2604Y690D01*
X0Y689D02*
X7Y689D01*
X1351Y689D02*
X1353Y689D01*
X1438Y689D02*
X1440Y689D01*
X2597Y689D02*
X2604Y689D01*
X0Y688D02*
X7Y688D01*
X1351Y688D02*
X1353Y688D01*
X1438Y688D02*
X1440Y688D01*
X2597Y688D02*
X2604Y688D01*
X0Y687D02*
X7Y687D01*
X1351Y687D02*
X1353Y687D01*
X1438Y687D02*
X1440Y687D01*
X2597Y687D02*
X2604Y687D01*
X0Y686D02*
X7Y686D01*
X1351Y686D02*
X1353Y686D01*
X1438Y686D02*
X1440Y686D01*
X2597Y686D02*
X2604Y686D01*
X0Y685D02*
X7Y685D01*
X1351Y685D02*
X1353Y685D01*
X1438Y685D02*
X1440Y685D01*
X2597Y685D02*
X2604Y685D01*
X0Y684D02*
X7Y684D01*
X1351Y684D02*
X1353Y684D01*
X1438Y684D02*
X1440Y684D01*
X2597Y684D02*
X2604Y684D01*
X0Y683D02*
X7Y683D01*
X1351Y683D02*
X1353Y683D01*
X1438Y683D02*
X1440Y683D01*
X2597Y683D02*
X2604Y683D01*
X0Y682D02*
X7Y682D01*
X1351Y682D02*
X1353Y682D01*
X1438Y682D02*
X1440Y682D01*
X2597Y682D02*
X2604Y682D01*
X0Y681D02*
X7Y681D01*
X1351Y681D02*
X1353Y681D01*
X1438Y681D02*
X1440Y681D01*
X2597Y681D02*
X2604Y681D01*
X0Y680D02*
X7Y680D01*
X1351Y680D02*
X1353Y680D01*
X1438Y680D02*
X1440Y680D01*
X2597Y680D02*
X2604Y680D01*
X0Y679D02*
X7Y679D01*
X1351Y679D02*
X1353Y679D01*
X1438Y679D02*
X1440Y679D01*
X2597Y679D02*
X2604Y679D01*
X0Y678D02*
X7Y678D01*
X1351Y678D02*
X1353Y678D01*
X1438Y678D02*
X1440Y678D01*
X2597Y678D02*
X2604Y678D01*
X0Y677D02*
X7Y677D01*
X1351Y677D02*
X1353Y677D01*
X1438Y677D02*
X1440Y677D01*
X2597Y677D02*
X2604Y677D01*
X0Y676D02*
X7Y676D01*
X1351Y676D02*
X1353Y676D01*
X1438Y676D02*
X1440Y676D01*
X2597Y676D02*
X2604Y676D01*
X0Y675D02*
X7Y675D01*
X1351Y675D02*
X1353Y675D01*
X1438Y675D02*
X1440Y675D01*
X2597Y675D02*
X2604Y675D01*
X0Y674D02*
X7Y674D01*
X1351Y674D02*
X1353Y674D01*
X1438Y674D02*
X1440Y674D01*
X2597Y674D02*
X2604Y674D01*
X0Y673D02*
X7Y673D01*
X1351Y673D02*
X1353Y673D01*
X1438Y673D02*
X1440Y673D01*
X2597Y673D02*
X2604Y673D01*
X0Y672D02*
X7Y672D01*
X1351Y672D02*
X1353Y672D01*
X1438Y672D02*
X1440Y672D01*
X2597Y672D02*
X2604Y672D01*
X0Y671D02*
X7Y671D01*
X1351Y671D02*
X1353Y671D01*
X1438Y671D02*
X1440Y671D01*
X2597Y671D02*
X2604Y671D01*
X0Y670D02*
X7Y670D01*
X1351Y670D02*
X1353Y670D01*
X1438Y670D02*
X1440Y670D01*
X2597Y670D02*
X2604Y670D01*
X0Y669D02*
X7Y669D01*
X1351Y669D02*
X1353Y669D01*
X1438Y669D02*
X1440Y669D01*
X2597Y669D02*
X2604Y669D01*
X0Y668D02*
X7Y668D01*
X1351Y668D02*
X1353Y668D01*
X1438Y668D02*
X1440Y668D01*
X2597Y668D02*
X2604Y668D01*
X0Y667D02*
X7Y667D01*
X1351Y667D02*
X1353Y667D01*
X1438Y667D02*
X1440Y667D01*
X2597Y667D02*
X2604Y667D01*
X0Y666D02*
X7Y666D01*
X1351Y666D02*
X1353Y666D01*
X1438Y666D02*
X1440Y666D01*
X2597Y666D02*
X2604Y666D01*
X0Y665D02*
X7Y665D01*
X1351Y665D02*
X1353Y665D01*
X1438Y665D02*
X1440Y665D01*
X2597Y665D02*
X2604Y665D01*
X0Y664D02*
X7Y664D01*
X1351Y664D02*
X1353Y664D01*
X1438Y664D02*
X1440Y664D01*
X2597Y664D02*
X2604Y664D01*
X0Y663D02*
X7Y663D01*
X1351Y663D02*
X1353Y663D01*
X1438Y663D02*
X1440Y663D01*
X2597Y663D02*
X2604Y663D01*
X0Y662D02*
X7Y662D01*
X1351Y662D02*
X1353Y662D01*
X1438Y662D02*
X1440Y662D01*
X2597Y662D02*
X2604Y662D01*
X0Y661D02*
X7Y661D01*
X1351Y661D02*
X1353Y661D01*
X1438Y661D02*
X1440Y661D01*
X2597Y661D02*
X2604Y661D01*
X0Y660D02*
X7Y660D01*
X1351Y660D02*
X1353Y660D01*
X1438Y660D02*
X1440Y660D01*
X2597Y660D02*
X2604Y660D01*
X0Y659D02*
X7Y659D01*
X1351Y659D02*
X1353Y659D01*
X1438Y659D02*
X1440Y659D01*
X2597Y659D02*
X2604Y659D01*
X0Y658D02*
X7Y658D01*
X1351Y658D02*
X1353Y658D01*
X1438Y658D02*
X1440Y658D01*
X2597Y658D02*
X2604Y658D01*
X0Y657D02*
X7Y657D01*
X1351Y657D02*
X1353Y657D01*
X1438Y657D02*
X1440Y657D01*
X2597Y657D02*
X2604Y657D01*
X0Y656D02*
X7Y656D01*
X1351Y656D02*
X1353Y656D01*
X1438Y656D02*
X1440Y656D01*
X2597Y656D02*
X2604Y656D01*
X0Y655D02*
X7Y655D01*
X1351Y655D02*
X1353Y655D01*
X1438Y655D02*
X1440Y655D01*
X2597Y655D02*
X2604Y655D01*
X0Y654D02*
X7Y654D01*
X1351Y654D02*
X1353Y654D01*
X1438Y654D02*
X1440Y654D01*
X2597Y654D02*
X2604Y654D01*
X0Y653D02*
X7Y653D01*
X1351Y653D02*
X1353Y653D01*
X1438Y653D02*
X1440Y653D01*
X2597Y653D02*
X2604Y653D01*
X0Y652D02*
X7Y652D01*
X1351Y652D02*
X1353Y652D01*
X1438Y652D02*
X1440Y652D01*
X2597Y652D02*
X2604Y652D01*
X0Y651D02*
X7Y651D01*
X1351Y651D02*
X1353Y651D01*
X1438Y651D02*
X1440Y651D01*
X2597Y651D02*
X2604Y651D01*
X0Y650D02*
X7Y650D01*
X1351Y650D02*
X1353Y650D01*
X1438Y650D02*
X1440Y650D01*
X2597Y650D02*
X2604Y650D01*
X0Y649D02*
X7Y649D01*
X1351Y649D02*
X1353Y649D01*
X1438Y649D02*
X1440Y649D01*
X2597Y649D02*
X2604Y649D01*
X0Y648D02*
X7Y648D01*
X1351Y648D02*
X1353Y648D01*
X1438Y648D02*
X1440Y648D01*
X2597Y648D02*
X2604Y648D01*
X0Y647D02*
X7Y647D01*
X1351Y647D02*
X1353Y647D01*
X1438Y647D02*
X1440Y647D01*
X2597Y647D02*
X2604Y647D01*
X0Y646D02*
X7Y646D01*
X1351Y646D02*
X1353Y646D01*
X1438Y646D02*
X1440Y646D01*
X2597Y646D02*
X2604Y646D01*
X0Y645D02*
X7Y645D01*
X1351Y645D02*
X1353Y645D01*
X1438Y645D02*
X1440Y645D01*
X2597Y645D02*
X2604Y645D01*
X0Y644D02*
X7Y644D01*
X1351Y644D02*
X1353Y644D01*
X1438Y644D02*
X1440Y644D01*
X2597Y644D02*
X2604Y644D01*
X0Y643D02*
X7Y643D01*
X1351Y643D02*
X1353Y643D01*
X1438Y643D02*
X1440Y643D01*
X2597Y643D02*
X2604Y643D01*
X0Y642D02*
X7Y642D01*
X1351Y642D02*
X1353Y642D01*
X1438Y642D02*
X1440Y642D01*
X2597Y642D02*
X2604Y642D01*
X0Y641D02*
X7Y641D01*
X1351Y641D02*
X1354Y641D01*
X1437Y641D02*
X1440Y641D01*
X2597Y641D02*
X2604Y641D01*
X0Y640D02*
X7Y640D01*
X1351Y640D02*
X1354Y640D01*
X1437Y640D02*
X1440Y640D01*
X2597Y640D02*
X2604Y640D01*
X0Y639D02*
X7Y639D01*
X1351Y639D02*
X1354Y639D01*
X1437Y639D02*
X1440Y639D01*
X2597Y639D02*
X2604Y639D01*
X0Y638D02*
X7Y638D01*
X1351Y638D02*
X1354Y638D01*
X1437Y638D02*
X1440Y638D01*
X2597Y638D02*
X2604Y638D01*
X0Y637D02*
X7Y637D01*
X1351Y637D02*
X1354Y637D01*
X1437Y637D02*
X1440Y637D01*
X2597Y637D02*
X2604Y637D01*
X0Y636D02*
X7Y636D01*
X1351Y636D02*
X1354Y636D01*
X1437Y636D02*
X1440Y636D01*
X2597Y636D02*
X2604Y636D01*
X0Y635D02*
X7Y635D01*
X1351Y635D02*
X1354Y635D01*
X1437Y635D02*
X1440Y635D01*
X2597Y635D02*
X2604Y635D01*
X0Y634D02*
X7Y634D01*
X1351Y634D02*
X1354Y634D01*
X1437Y634D02*
X1440Y634D01*
X2597Y634D02*
X2604Y634D01*
X0Y633D02*
X7Y633D01*
X1351Y633D02*
X1354Y633D01*
X1437Y633D02*
X1440Y633D01*
X2597Y633D02*
X2604Y633D01*
X0Y632D02*
X7Y632D01*
X1351Y632D02*
X1354Y632D01*
X1437Y632D02*
X1440Y632D01*
X2597Y632D02*
X2604Y632D01*
X0Y631D02*
X7Y631D01*
X1351Y631D02*
X1354Y631D01*
X1437Y631D02*
X1440Y631D01*
X2597Y631D02*
X2604Y631D01*
X0Y630D02*
X7Y630D01*
X1351Y630D02*
X1354Y630D01*
X1437Y630D02*
X1440Y630D01*
X2597Y630D02*
X2604Y630D01*
X0Y629D02*
X7Y629D01*
X1351Y629D02*
X1354Y629D01*
X1437Y629D02*
X1440Y629D01*
X2597Y629D02*
X2604Y629D01*
X0Y628D02*
X7Y628D01*
X1351Y628D02*
X1354Y628D01*
X1437Y628D02*
X1440Y628D01*
X2597Y628D02*
X2604Y628D01*
X0Y627D02*
X7Y627D01*
X1351Y627D02*
X1354Y627D01*
X1437Y627D02*
X1440Y627D01*
X2597Y627D02*
X2604Y627D01*
X0Y626D02*
X7Y626D01*
X1351Y626D02*
X1354Y626D01*
X1437Y626D02*
X1440Y626D01*
X2597Y626D02*
X2604Y626D01*
X0Y625D02*
X7Y625D01*
X1351Y625D02*
X1354Y625D01*
X1437Y625D02*
X1440Y625D01*
X2597Y625D02*
X2604Y625D01*
X0Y624D02*
X7Y624D01*
X1351Y624D02*
X1354Y624D01*
X1437Y624D02*
X1440Y624D01*
X2597Y624D02*
X2604Y624D01*
X0Y623D02*
X7Y623D01*
X1351Y623D02*
X1354Y623D01*
X1437Y623D02*
X1440Y623D01*
X2597Y623D02*
X2604Y623D01*
X0Y622D02*
X7Y622D01*
X1351Y622D02*
X1354Y622D01*
X1437Y622D02*
X1440Y622D01*
X2597Y622D02*
X2604Y622D01*
X0Y621D02*
X7Y621D01*
X1351Y621D02*
X1354Y621D01*
X1437Y621D02*
X1440Y621D01*
X2597Y621D02*
X2604Y621D01*
X0Y620D02*
X7Y620D01*
X1351Y620D02*
X1354Y620D01*
X1437Y620D02*
X1440Y620D01*
X2597Y620D02*
X2604Y620D01*
X0Y619D02*
X7Y619D01*
X1351Y619D02*
X1354Y619D01*
X1437Y619D02*
X1440Y619D01*
X2597Y619D02*
X2604Y619D01*
X0Y618D02*
X7Y618D01*
X1351Y618D02*
X1354Y618D01*
X1437Y618D02*
X1440Y618D01*
X2597Y618D02*
X2604Y618D01*
X0Y617D02*
X7Y617D01*
X1351Y617D02*
X1354Y617D01*
X1437Y617D02*
X1440Y617D01*
X2597Y617D02*
X2604Y617D01*
X0Y616D02*
X7Y616D01*
X1351Y616D02*
X1354Y616D01*
X1437Y616D02*
X1440Y616D01*
X2597Y616D02*
X2604Y616D01*
X0Y615D02*
X7Y615D01*
X1351Y615D02*
X1354Y615D01*
X1437Y615D02*
X1440Y615D01*
X2597Y615D02*
X2604Y615D01*
X0Y614D02*
X7Y614D01*
X1351Y614D02*
X1354Y614D01*
X1437Y614D02*
X1440Y614D01*
X2597Y614D02*
X2604Y614D01*
X0Y613D02*
X7Y613D01*
X1351Y613D02*
X1354Y613D01*
X1437Y613D02*
X1440Y613D01*
X2597Y613D02*
X2604Y613D01*
X0Y612D02*
X7Y612D01*
X1351Y612D02*
X1354Y612D01*
X1437Y612D02*
X1440Y612D01*
X2597Y612D02*
X2604Y612D01*
X0Y611D02*
X7Y611D01*
X1351Y611D02*
X1354Y611D01*
X1437Y611D02*
X1440Y611D01*
X2597Y611D02*
X2604Y611D01*
X0Y610D02*
X7Y610D01*
X1351Y610D02*
X1354Y610D01*
X1437Y610D02*
X1440Y610D01*
X2597Y610D02*
X2604Y610D01*
X0Y609D02*
X7Y609D01*
X1351Y609D02*
X1354Y609D01*
X1437Y609D02*
X1440Y609D01*
X2597Y609D02*
X2604Y609D01*
X0Y608D02*
X7Y608D01*
X1351Y608D02*
X1354Y608D01*
X1437Y608D02*
X1440Y608D01*
X2597Y608D02*
X2604Y608D01*
X0Y607D02*
X7Y607D01*
X1351Y607D02*
X1354Y607D01*
X1437Y607D02*
X1440Y607D01*
X2597Y607D02*
X2604Y607D01*
X0Y606D02*
X7Y606D01*
X1351Y606D02*
X1354Y606D01*
X1437Y606D02*
X1440Y606D01*
X2597Y606D02*
X2604Y606D01*
X0Y605D02*
X7Y605D01*
X1351Y605D02*
X1354Y605D01*
X1437Y605D02*
X1440Y605D01*
X2597Y605D02*
X2604Y605D01*
X0Y604D02*
X7Y604D01*
X1351Y604D02*
X1354Y604D01*
X1437Y604D02*
X1440Y604D01*
X2597Y604D02*
X2604Y604D01*
X0Y603D02*
X7Y603D01*
X1351Y603D02*
X1354Y603D01*
X1437Y603D02*
X1440Y603D01*
X2597Y603D02*
X2604Y603D01*
X0Y602D02*
X7Y602D01*
X1351Y602D02*
X1354Y602D01*
X1437Y602D02*
X1440Y602D01*
X2597Y602D02*
X2604Y602D01*
X0Y601D02*
X7Y601D01*
X1351Y601D02*
X1354Y601D01*
X1437Y601D02*
X1440Y601D01*
X2597Y601D02*
X2604Y601D01*
X0Y600D02*
X7Y600D01*
X1351Y600D02*
X1354Y600D01*
X1437Y600D02*
X1440Y600D01*
X2597Y600D02*
X2604Y600D01*
X0Y599D02*
X7Y599D01*
X1351Y599D02*
X1354Y599D01*
X1437Y599D02*
X1440Y599D01*
X2597Y599D02*
X2604Y599D01*
X0Y598D02*
X7Y598D01*
X1351Y598D02*
X1354Y598D01*
X1437Y598D02*
X1440Y598D01*
X2597Y598D02*
X2604Y598D01*
X0Y597D02*
X7Y597D01*
X1351Y597D02*
X1354Y597D01*
X1437Y597D02*
X1440Y597D01*
X2597Y597D02*
X2604Y597D01*
X0Y596D02*
X7Y596D01*
X1351Y596D02*
X1354Y596D01*
X1437Y596D02*
X1440Y596D01*
X2597Y596D02*
X2604Y596D01*
X0Y595D02*
X7Y595D01*
X1351Y595D02*
X1354Y595D01*
X1437Y595D02*
X1440Y595D01*
X2597Y595D02*
X2604Y595D01*
X0Y594D02*
X7Y594D01*
X1351Y594D02*
X1354Y594D01*
X1437Y594D02*
X1440Y594D01*
X2597Y594D02*
X2604Y594D01*
X0Y593D02*
X7Y593D01*
X1351Y593D02*
X1354Y593D01*
X1437Y593D02*
X1440Y593D01*
X2597Y593D02*
X2604Y593D01*
X0Y592D02*
X7Y592D01*
X1351Y592D02*
X1353Y592D01*
X1438Y592D02*
X1440Y592D01*
X2597Y592D02*
X2604Y592D01*
X0Y591D02*
X7Y591D01*
X1351Y591D02*
X1353Y591D01*
X1438Y591D02*
X1440Y591D01*
X2597Y591D02*
X2604Y591D01*
X0Y590D02*
X7Y590D01*
X1351Y590D02*
X1353Y590D01*
X1438Y590D02*
X1440Y590D01*
X2597Y590D02*
X2604Y590D01*
X0Y589D02*
X7Y589D01*
X1351Y589D02*
X1353Y589D01*
X1438Y589D02*
X1440Y589D01*
X2597Y589D02*
X2604Y589D01*
X0Y588D02*
X7Y588D01*
X1351Y588D02*
X1353Y588D01*
X1438Y588D02*
X1440Y588D01*
X2597Y588D02*
X2604Y588D01*
X0Y587D02*
X7Y587D01*
X1351Y587D02*
X1353Y587D01*
X1438Y587D02*
X1440Y587D01*
X2597Y587D02*
X2604Y587D01*
X0Y586D02*
X7Y586D01*
X1351Y586D02*
X1353Y586D01*
X1438Y586D02*
X1440Y586D01*
X2597Y586D02*
X2604Y586D01*
X0Y585D02*
X7Y585D01*
X1351Y585D02*
X1353Y585D01*
X1438Y585D02*
X1440Y585D01*
X2597Y585D02*
X2604Y585D01*
X0Y584D02*
X7Y584D01*
X1351Y584D02*
X1353Y584D01*
X1438Y584D02*
X1440Y584D01*
X2597Y584D02*
X2604Y584D01*
X0Y583D02*
X7Y583D01*
X1351Y583D02*
X1353Y583D01*
X1438Y583D02*
X1440Y583D01*
X2597Y583D02*
X2604Y583D01*
X0Y582D02*
X7Y582D01*
X1351Y582D02*
X1353Y582D01*
X1438Y582D02*
X1440Y582D01*
X2597Y582D02*
X2604Y582D01*
X0Y581D02*
X7Y581D01*
X1351Y581D02*
X1353Y581D01*
X1438Y581D02*
X1440Y581D01*
X2597Y581D02*
X2604Y581D01*
X0Y580D02*
X7Y580D01*
X1351Y580D02*
X1353Y580D01*
X1438Y580D02*
X1440Y580D01*
X2597Y580D02*
X2604Y580D01*
X0Y579D02*
X7Y579D01*
X1351Y579D02*
X1353Y579D01*
X1438Y579D02*
X1440Y579D01*
X2597Y579D02*
X2604Y579D01*
X0Y578D02*
X7Y578D01*
X1351Y578D02*
X1353Y578D01*
X1438Y578D02*
X1440Y578D01*
X2597Y578D02*
X2604Y578D01*
X0Y577D02*
X7Y577D01*
X1351Y577D02*
X1353Y577D01*
X1438Y577D02*
X1440Y577D01*
X2597Y577D02*
X2604Y577D01*
X0Y576D02*
X7Y576D01*
X1351Y576D02*
X1353Y576D01*
X1438Y576D02*
X1440Y576D01*
X2597Y576D02*
X2604Y576D01*
X0Y575D02*
X7Y575D01*
X1351Y575D02*
X1353Y575D01*
X1438Y575D02*
X1440Y575D01*
X2597Y575D02*
X2604Y575D01*
X0Y574D02*
X7Y574D01*
X1351Y574D02*
X1353Y574D01*
X1438Y574D02*
X1440Y574D01*
X2597Y574D02*
X2604Y574D01*
X0Y573D02*
X7Y573D01*
X1351Y573D02*
X1353Y573D01*
X1438Y573D02*
X1440Y573D01*
X2597Y573D02*
X2604Y573D01*
X0Y572D02*
X7Y572D01*
X1351Y572D02*
X1353Y572D01*
X1438Y572D02*
X1440Y572D01*
X2597Y572D02*
X2604Y572D01*
X0Y571D02*
X7Y571D01*
X1351Y571D02*
X1353Y571D01*
X1438Y571D02*
X1440Y571D01*
X2597Y571D02*
X2604Y571D01*
X0Y570D02*
X7Y570D01*
X1351Y570D02*
X1353Y570D01*
X1438Y570D02*
X1440Y570D01*
X2597Y570D02*
X2604Y570D01*
X0Y569D02*
X7Y569D01*
X1351Y569D02*
X1353Y569D01*
X1438Y569D02*
X1440Y569D01*
X2597Y569D02*
X2604Y569D01*
X0Y568D02*
X7Y568D01*
X1351Y568D02*
X1353Y568D01*
X1438Y568D02*
X1440Y568D01*
X2597Y568D02*
X2604Y568D01*
X0Y567D02*
X7Y567D01*
X1351Y567D02*
X1353Y567D01*
X1438Y567D02*
X1440Y567D01*
X2597Y567D02*
X2604Y567D01*
X0Y566D02*
X7Y566D01*
X1351Y566D02*
X1353Y566D01*
X1438Y566D02*
X1440Y566D01*
X2597Y566D02*
X2604Y566D01*
X0Y565D02*
X7Y565D01*
X1351Y565D02*
X1353Y565D01*
X1438Y565D02*
X1440Y565D01*
X2597Y565D02*
X2604Y565D01*
X0Y564D02*
X7Y564D01*
X1351Y564D02*
X1353Y564D01*
X1438Y564D02*
X1440Y564D01*
X2597Y564D02*
X2604Y564D01*
X0Y563D02*
X7Y563D01*
X1351Y563D02*
X1353Y563D01*
X1438Y563D02*
X1440Y563D01*
X2597Y563D02*
X2604Y563D01*
X0Y562D02*
X7Y562D01*
X1351Y562D02*
X1353Y562D01*
X1438Y562D02*
X1440Y562D01*
X2597Y562D02*
X2604Y562D01*
X0Y561D02*
X7Y561D01*
X1351Y561D02*
X1353Y561D01*
X1438Y561D02*
X1440Y561D01*
X2597Y561D02*
X2604Y561D01*
X0Y560D02*
X7Y560D01*
X1351Y560D02*
X1353Y560D01*
X1438Y560D02*
X1440Y560D01*
X2597Y560D02*
X2604Y560D01*
X0Y559D02*
X7Y559D01*
X1351Y559D02*
X1353Y559D01*
X1438Y559D02*
X1440Y559D01*
X2597Y559D02*
X2604Y559D01*
X0Y558D02*
X7Y558D01*
X1351Y558D02*
X1353Y558D01*
X1438Y558D02*
X1440Y558D01*
X2597Y558D02*
X2604Y558D01*
X0Y557D02*
X7Y557D01*
X1351Y557D02*
X1353Y557D01*
X1438Y557D02*
X1440Y557D01*
X2597Y557D02*
X2604Y557D01*
X0Y556D02*
X7Y556D01*
X1351Y556D02*
X1353Y556D01*
X1438Y556D02*
X1440Y556D01*
X2597Y556D02*
X2604Y556D01*
X0Y555D02*
X7Y555D01*
X1351Y555D02*
X1353Y555D01*
X1438Y555D02*
X1440Y555D01*
X2597Y555D02*
X2604Y555D01*
X0Y554D02*
X7Y554D01*
X1351Y554D02*
X1353Y554D01*
X1438Y554D02*
X1440Y554D01*
X2597Y554D02*
X2604Y554D01*
X0Y553D02*
X7Y553D01*
X1351Y553D02*
X1353Y553D01*
X1438Y553D02*
X1440Y553D01*
X2597Y553D02*
X2604Y553D01*
X0Y552D02*
X7Y552D01*
X1351Y552D02*
X1353Y552D01*
X1438Y552D02*
X1440Y552D01*
X2597Y552D02*
X2604Y552D01*
X0Y551D02*
X7Y551D01*
X1351Y551D02*
X1353Y551D01*
X1438Y551D02*
X1440Y551D01*
X2597Y551D02*
X2604Y551D01*
X0Y550D02*
X7Y550D01*
X1351Y550D02*
X1353Y550D01*
X1438Y550D02*
X1440Y550D01*
X2597Y550D02*
X2604Y550D01*
X0Y549D02*
X7Y549D01*
X1351Y549D02*
X1353Y549D01*
X1438Y549D02*
X1440Y549D01*
X2597Y549D02*
X2604Y549D01*
X0Y548D02*
X7Y548D01*
X1351Y548D02*
X1353Y548D01*
X1438Y548D02*
X1440Y548D01*
X2597Y548D02*
X2604Y548D01*
X0Y547D02*
X7Y547D01*
X1351Y547D02*
X1353Y547D01*
X1438Y547D02*
X1440Y547D01*
X2597Y547D02*
X2604Y547D01*
X0Y546D02*
X7Y546D01*
X1351Y546D02*
X1353Y546D01*
X1438Y546D02*
X1440Y546D01*
X2597Y546D02*
X2604Y546D01*
X0Y545D02*
X7Y545D01*
X1351Y545D02*
X1353Y545D01*
X1438Y545D02*
X1440Y545D01*
X2597Y545D02*
X2604Y545D01*
X0Y544D02*
X7Y544D01*
X1351Y544D02*
X1353Y544D01*
X1438Y544D02*
X1440Y544D01*
X2597Y544D02*
X2604Y544D01*
X0Y543D02*
X7Y543D01*
X1351Y543D02*
X1353Y543D01*
X1438Y543D02*
X1440Y543D01*
X2597Y543D02*
X2604Y543D01*
X0Y542D02*
X7Y542D01*
X1351Y542D02*
X1353Y542D01*
X1438Y542D02*
X1440Y542D01*
X2597Y542D02*
X2604Y542D01*
X0Y541D02*
X7Y541D01*
X1351Y541D02*
X1353Y541D01*
X1438Y541D02*
X1440Y541D01*
X2597Y541D02*
X2604Y541D01*
X0Y540D02*
X7Y540D01*
X1351Y540D02*
X1353Y540D01*
X1438Y540D02*
X1440Y540D01*
X2597Y540D02*
X2604Y540D01*
X0Y539D02*
X7Y539D01*
X1351Y539D02*
X1353Y539D01*
X1438Y539D02*
X1440Y539D01*
X2597Y539D02*
X2604Y539D01*
X0Y538D02*
X7Y538D01*
X1351Y538D02*
X1353Y538D01*
X1438Y538D02*
X1440Y538D01*
X2597Y538D02*
X2604Y538D01*
X0Y537D02*
X7Y537D01*
X1351Y537D02*
X1353Y537D01*
X1438Y537D02*
X1440Y537D01*
X2597Y537D02*
X2604Y537D01*
X0Y536D02*
X7Y536D01*
X1351Y536D02*
X1353Y536D01*
X1438Y536D02*
X1440Y536D01*
X2597Y536D02*
X2604Y536D01*
X0Y535D02*
X7Y535D01*
X1351Y535D02*
X1353Y535D01*
X1438Y535D02*
X1440Y535D01*
X2597Y535D02*
X2604Y535D01*
X0Y534D02*
X7Y534D01*
X1351Y534D02*
X1353Y534D01*
X1438Y534D02*
X1440Y534D01*
X2597Y534D02*
X2604Y534D01*
X0Y533D02*
X7Y533D01*
X1351Y533D02*
X1353Y533D01*
X1438Y533D02*
X1440Y533D01*
X2597Y533D02*
X2604Y533D01*
X0Y532D02*
X7Y532D01*
X1351Y532D02*
X1353Y532D01*
X1438Y532D02*
X1440Y532D01*
X2597Y532D02*
X2604Y532D01*
X0Y531D02*
X7Y531D01*
X1351Y531D02*
X1353Y531D01*
X1438Y531D02*
X1440Y531D01*
X2597Y531D02*
X2604Y531D01*
X0Y530D02*
X7Y530D01*
X1351Y530D02*
X1353Y530D01*
X1438Y530D02*
X1440Y530D01*
X2597Y530D02*
X2604Y530D01*
X0Y529D02*
X7Y529D01*
X1351Y529D02*
X1353Y529D01*
X1438Y529D02*
X1440Y529D01*
X2597Y529D02*
X2604Y529D01*
X0Y528D02*
X7Y528D01*
X1351Y528D02*
X1353Y528D01*
X1438Y528D02*
X1440Y528D01*
X2597Y528D02*
X2604Y528D01*
X0Y527D02*
X7Y527D01*
X1351Y527D02*
X1353Y527D01*
X1438Y527D02*
X1440Y527D01*
X2597Y527D02*
X2604Y527D01*
X0Y526D02*
X7Y526D01*
X1351Y526D02*
X1353Y526D01*
X1438Y526D02*
X1440Y526D01*
X2597Y526D02*
X2604Y526D01*
X0Y525D02*
X7Y525D01*
X1351Y525D02*
X1353Y525D01*
X1438Y525D02*
X1440Y525D01*
X2597Y525D02*
X2604Y525D01*
X0Y524D02*
X7Y524D01*
X1351Y524D02*
X1353Y524D01*
X1438Y524D02*
X1440Y524D01*
X2597Y524D02*
X2604Y524D01*
X0Y523D02*
X7Y523D01*
X1351Y523D02*
X1353Y523D01*
X1438Y523D02*
X1440Y523D01*
X2597Y523D02*
X2604Y523D01*
X0Y522D02*
X7Y522D01*
X1351Y522D02*
X1353Y522D01*
X1438Y522D02*
X1440Y522D01*
X2597Y522D02*
X2604Y522D01*
X0Y521D02*
X7Y521D01*
X1351Y521D02*
X1353Y521D01*
X1438Y521D02*
X1440Y521D01*
X2597Y521D02*
X2604Y521D01*
X0Y520D02*
X7Y520D01*
X1351Y520D02*
X1353Y520D01*
X1438Y520D02*
X1440Y520D01*
X2597Y520D02*
X2604Y520D01*
X0Y519D02*
X7Y519D01*
X1351Y519D02*
X1440Y519D01*
X2597Y519D02*
X2604Y519D01*
X0Y518D02*
X7Y518D01*
X1351Y518D02*
X1440Y518D01*
X2597Y518D02*
X2604Y518D01*
X0Y517D02*
X7Y517D01*
X1351Y517D02*
X1440Y517D01*
X2597Y517D02*
X2604Y517D01*
X0Y516D02*
X7Y516D01*
X2597Y516D02*
X2604Y516D01*
X0Y515D02*
X7Y515D01*
X2597Y515D02*
X2604Y515D01*
X0Y514D02*
X7Y514D01*
X2597Y514D02*
X2604Y514D01*
X0Y513D02*
X7Y513D01*
X2597Y513D02*
X2604Y513D01*
X0Y512D02*
X7Y512D01*
X2597Y512D02*
X2604Y512D01*
X0Y511D02*
X7Y511D01*
X2597Y511D02*
X2604Y511D01*
X0Y510D02*
X7Y510D01*
X2597Y510D02*
X2604Y510D01*
X0Y509D02*
X7Y509D01*
X1271Y509D02*
X1321Y509D01*
X2597Y509D02*
X2604Y509D01*
X0Y508D02*
X7Y508D01*
X1271Y508D02*
X1323Y508D01*
X2597Y508D02*
X2604Y508D01*
X0Y507D02*
X7Y507D01*
X1271Y507D02*
X1324Y507D01*
X2597Y507D02*
X2604Y507D01*
X0Y506D02*
X7Y506D01*
X1271Y506D02*
X1324Y506D01*
X2597Y506D02*
X2604Y506D01*
X0Y505D02*
X7Y505D01*
X1271Y505D02*
X1324Y505D01*
X2597Y505D02*
X2604Y505D01*
X0Y504D02*
X7Y504D01*
X1271Y504D02*
X1324Y504D01*
X2597Y504D02*
X2604Y504D01*
X0Y503D02*
X7Y503D01*
X1271Y503D02*
X1323Y503D01*
X2597Y503D02*
X2604Y503D01*
X0Y502D02*
X7Y502D01*
X1271Y502D02*
X1277Y502D01*
X1288Y502D02*
X1295Y502D01*
X2597Y502D02*
X2604Y502D01*
X0Y501D02*
X7Y501D01*
X1271Y501D02*
X1277Y501D01*
X1289Y501D02*
X1295Y501D01*
X2597Y501D02*
X2604Y501D01*
X0Y500D02*
X7Y500D01*
X1271Y500D02*
X1277Y500D01*
X1289Y500D02*
X1295Y500D01*
X2597Y500D02*
X2604Y500D01*
X0Y499D02*
X7Y499D01*
X1271Y499D02*
X1277Y499D01*
X1289Y499D02*
X1295Y499D01*
X2597Y499D02*
X2604Y499D01*
X0Y498D02*
X7Y498D01*
X1271Y498D02*
X1277Y498D01*
X1289Y498D02*
X1295Y498D01*
X2597Y498D02*
X2604Y498D01*
X0Y497D02*
X7Y497D01*
X1271Y497D02*
X1277Y497D01*
X1289Y497D02*
X1295Y497D01*
X2597Y497D02*
X2604Y497D01*
X0Y496D02*
X7Y496D01*
X1271Y496D02*
X1277Y496D01*
X1289Y496D02*
X1297Y496D01*
X2597Y496D02*
X2604Y496D01*
X0Y495D02*
X7Y495D01*
X1271Y495D02*
X1277Y495D01*
X1289Y495D02*
X1299Y495D01*
X2597Y495D02*
X2604Y495D01*
X0Y494D02*
X7Y494D01*
X1271Y494D02*
X1277Y494D01*
X1289Y494D02*
X1300Y494D01*
X2597Y494D02*
X2604Y494D01*
X0Y493D02*
X7Y493D01*
X1271Y493D02*
X1277Y493D01*
X1289Y493D02*
X1302Y493D01*
X2597Y493D02*
X2604Y493D01*
X0Y492D02*
X7Y492D01*
X1271Y492D02*
X1277Y492D01*
X1289Y492D02*
X1304Y492D01*
X2597Y492D02*
X2604Y492D01*
X0Y491D02*
X7Y491D01*
X1271Y491D02*
X1277Y491D01*
X1289Y491D02*
X1305Y491D01*
X2597Y491D02*
X2604Y491D01*
X0Y490D02*
X7Y490D01*
X1271Y490D02*
X1277Y490D01*
X1289Y490D02*
X1307Y490D01*
X2597Y490D02*
X2604Y490D01*
X0Y489D02*
X7Y489D01*
X1271Y489D02*
X1277Y489D01*
X1289Y489D02*
X1309Y489D01*
X2597Y489D02*
X2604Y489D01*
X0Y488D02*
X7Y488D01*
X1271Y488D02*
X1277Y488D01*
X1289Y488D02*
X1295Y488D01*
X1297Y488D02*
X1310Y488D01*
X2597Y488D02*
X2604Y488D01*
X0Y487D02*
X7Y487D01*
X1271Y487D02*
X1277Y487D01*
X1289Y487D02*
X1295Y487D01*
X1299Y487D02*
X1312Y487D01*
X2597Y487D02*
X2604Y487D01*
X0Y486D02*
X7Y486D01*
X1271Y486D02*
X1277Y486D01*
X1289Y486D02*
X1295Y486D01*
X1301Y486D02*
X1314Y486D01*
X2597Y486D02*
X2604Y486D01*
X0Y485D02*
X7Y485D01*
X1271Y485D02*
X1277Y485D01*
X1289Y485D02*
X1295Y485D01*
X1303Y485D02*
X1316Y485D01*
X2597Y485D02*
X2604Y485D01*
X0Y484D02*
X7Y484D01*
X1271Y484D02*
X1277Y484D01*
X1288Y484D02*
X1294Y484D01*
X1304Y484D02*
X1317Y484D01*
X2597Y484D02*
X2604Y484D01*
X0Y483D02*
X7Y483D01*
X1271Y483D02*
X1278Y483D01*
X1288Y483D02*
X1294Y483D01*
X1306Y483D02*
X1319Y483D01*
X2597Y483D02*
X2604Y483D01*
X0Y482D02*
X7Y482D01*
X1271Y482D02*
X1279Y482D01*
X1287Y482D02*
X1294Y482D01*
X1308Y482D02*
X1321Y482D01*
X2597Y482D02*
X2604Y482D01*
X0Y481D02*
X7Y481D01*
X1272Y481D02*
X1294Y481D01*
X1309Y481D02*
X1322Y481D01*
X2597Y481D02*
X2604Y481D01*
X0Y480D02*
X7Y480D01*
X1272Y480D02*
X1293Y480D01*
X1311Y480D02*
X1323Y480D01*
X2597Y480D02*
X2604Y480D01*
X0Y479D02*
X7Y479D01*
X1273Y479D02*
X1293Y479D01*
X1313Y479D02*
X1324Y479D01*
X2597Y479D02*
X2604Y479D01*
X0Y478D02*
X7Y478D01*
X1274Y478D02*
X1292Y478D01*
X1315Y478D02*
X1324Y478D01*
X2597Y478D02*
X2604Y478D01*
X0Y477D02*
X7Y477D01*
X1275Y477D02*
X1291Y477D01*
X1316Y477D02*
X1324Y477D01*
X2597Y477D02*
X2604Y477D01*
X0Y476D02*
X7Y476D01*
X1276Y476D02*
X1289Y476D01*
X1318Y476D02*
X1323Y476D01*
X2597Y476D02*
X2604Y476D01*
X0Y475D02*
X7Y475D01*
X1278Y475D02*
X1287Y475D01*
X1320Y475D02*
X1322Y475D01*
X2597Y475D02*
X2604Y475D01*
X0Y474D02*
X7Y474D01*
X2597Y474D02*
X2604Y474D01*
X0Y473D02*
X7Y473D01*
X2597Y473D02*
X2604Y473D01*
X0Y472D02*
X7Y472D01*
X2597Y472D02*
X2604Y472D01*
X0Y471D02*
X7Y471D01*
X2597Y471D02*
X2604Y471D01*
X0Y470D02*
X7Y470D01*
X2597Y470D02*
X2604Y470D01*
X0Y469D02*
X7Y469D01*
X2597Y469D02*
X2604Y469D01*
X0Y468D02*
X7Y468D01*
X2597Y468D02*
X2604Y468D01*
X0Y467D02*
X7Y467D01*
X2597Y467D02*
X2604Y467D01*
X0Y466D02*
X7Y466D01*
X2597Y466D02*
X2604Y466D01*
X0Y465D02*
X7Y465D01*
X2597Y465D02*
X2604Y465D01*
X0Y464D02*
X7Y464D01*
X2597Y464D02*
X2604Y464D01*
X0Y463D02*
X7Y463D01*
X2597Y463D02*
X2604Y463D01*
X0Y462D02*
X7Y462D01*
X2597Y462D02*
X2604Y462D01*
X0Y461D02*
X7Y461D01*
X2597Y461D02*
X2604Y461D01*
X0Y460D02*
X7Y460D01*
X2597Y460D02*
X2604Y460D01*
X0Y459D02*
X7Y459D01*
X1274Y459D02*
X1274Y459D01*
X1300Y459D02*
X1324Y459D01*
X2597Y459D02*
X2604Y459D01*
X0Y458D02*
X7Y458D01*
X1272Y458D02*
X1276Y458D01*
X1298Y458D02*
X1324Y458D01*
X2597Y458D02*
X2604Y458D01*
X0Y457D02*
X7Y457D01*
X1271Y457D02*
X1277Y457D01*
X1296Y457D02*
X1324Y457D01*
X2597Y457D02*
X2604Y457D01*
X0Y456D02*
X7Y456D01*
X1271Y456D02*
X1277Y456D01*
X1296Y456D02*
X1324Y456D01*
X2597Y456D02*
X2604Y456D01*
X0Y455D02*
X7Y455D01*
X1271Y455D02*
X1277Y455D01*
X1295Y455D02*
X1324Y455D01*
X2597Y455D02*
X2604Y455D01*
X0Y454D02*
X7Y454D01*
X1271Y454D02*
X1277Y454D01*
X1295Y454D02*
X1324Y454D01*
X2597Y454D02*
X2604Y454D01*
X0Y453D02*
X7Y453D01*
X1271Y453D02*
X1277Y453D01*
X1295Y453D02*
X1324Y453D01*
X2597Y453D02*
X2604Y453D01*
X0Y452D02*
X7Y452D01*
X1271Y452D02*
X1277Y452D01*
X1294Y452D02*
X1301Y452D01*
X1318Y452D02*
X1324Y452D01*
X2597Y452D02*
X2604Y452D01*
X0Y451D02*
X7Y451D01*
X1271Y451D02*
X1277Y451D01*
X1294Y451D02*
X1300Y451D01*
X1318Y451D02*
X1324Y451D01*
X2597Y451D02*
X2604Y451D01*
X0Y450D02*
X7Y450D01*
X1271Y450D02*
X1277Y450D01*
X1294Y450D02*
X1300Y450D01*
X1318Y450D02*
X1324Y450D01*
X2597Y450D02*
X2604Y450D01*
X0Y449D02*
X7Y449D01*
X1271Y449D02*
X1277Y449D01*
X1294Y449D02*
X1300Y449D01*
X1318Y449D02*
X1324Y449D01*
X2597Y449D02*
X2604Y449D01*
X0Y448D02*
X7Y448D01*
X1271Y448D02*
X1277Y448D01*
X1294Y448D02*
X1300Y448D01*
X1318Y448D02*
X1324Y448D01*
X2597Y448D02*
X2604Y448D01*
X0Y447D02*
X7Y447D01*
X1271Y447D02*
X1277Y447D01*
X1294Y447D02*
X1300Y447D01*
X1318Y447D02*
X1324Y447D01*
X2597Y447D02*
X2604Y447D01*
X0Y446D02*
X7Y446D01*
X1271Y446D02*
X1277Y446D01*
X1294Y446D02*
X1300Y446D01*
X1318Y446D02*
X1324Y446D01*
X2597Y446D02*
X2604Y446D01*
X0Y445D02*
X7Y445D01*
X1271Y445D02*
X1277Y445D01*
X1294Y445D02*
X1300Y445D01*
X1318Y445D02*
X1324Y445D01*
X2597Y445D02*
X2604Y445D01*
X0Y444D02*
X7Y444D01*
X1271Y444D02*
X1277Y444D01*
X1294Y444D02*
X1300Y444D01*
X1318Y444D02*
X1324Y444D01*
X2597Y444D02*
X2604Y444D01*
X0Y443D02*
X7Y443D01*
X1271Y443D02*
X1277Y443D01*
X1294Y443D02*
X1300Y443D01*
X1318Y443D02*
X1324Y443D01*
X2597Y443D02*
X2604Y443D01*
X0Y442D02*
X7Y442D01*
X1271Y442D02*
X1277Y442D01*
X1294Y442D02*
X1300Y442D01*
X1318Y442D02*
X1324Y442D01*
X2597Y442D02*
X2604Y442D01*
X0Y441D02*
X7Y441D01*
X1271Y441D02*
X1277Y441D01*
X1294Y441D02*
X1300Y441D01*
X1318Y441D02*
X1324Y441D01*
X2597Y441D02*
X2604Y441D01*
X0Y440D02*
X7Y440D01*
X1271Y440D02*
X1277Y440D01*
X1294Y440D02*
X1300Y440D01*
X1318Y440D02*
X1324Y440D01*
X2597Y440D02*
X2604Y440D01*
X0Y439D02*
X7Y439D01*
X1271Y439D02*
X1277Y439D01*
X1294Y439D02*
X1300Y439D01*
X1318Y439D02*
X1324Y439D01*
X2597Y439D02*
X2604Y439D01*
X0Y438D02*
X7Y438D01*
X1271Y438D02*
X1277Y438D01*
X1294Y438D02*
X1300Y438D01*
X1318Y438D02*
X1324Y438D01*
X2597Y438D02*
X2604Y438D01*
X0Y437D02*
X7Y437D01*
X1271Y437D02*
X1277Y437D01*
X1294Y437D02*
X1300Y437D01*
X1318Y437D02*
X1324Y437D01*
X2597Y437D02*
X2604Y437D01*
X0Y436D02*
X7Y436D01*
X1271Y436D02*
X1277Y436D01*
X1294Y436D02*
X1300Y436D01*
X1318Y436D02*
X1324Y436D01*
X2597Y436D02*
X2604Y436D01*
X0Y435D02*
X7Y435D01*
X1271Y435D02*
X1277Y435D01*
X1294Y435D02*
X1300Y435D01*
X1318Y435D02*
X1324Y435D01*
X2597Y435D02*
X2604Y435D01*
X0Y434D02*
X7Y434D01*
X1271Y434D02*
X1277Y434D01*
X1294Y434D02*
X1300Y434D01*
X1318Y434D02*
X1324Y434D01*
X2597Y434D02*
X2604Y434D01*
X0Y433D02*
X7Y433D01*
X1271Y433D02*
X1277Y433D01*
X1294Y433D02*
X1300Y433D01*
X1318Y433D02*
X1324Y433D01*
X2597Y433D02*
X2604Y433D01*
X0Y432D02*
X7Y432D01*
X1271Y432D02*
X1277Y432D01*
X1294Y432D02*
X1300Y432D01*
X1318Y432D02*
X1324Y432D01*
X2597Y432D02*
X2604Y432D01*
X0Y431D02*
X7Y431D01*
X1271Y431D02*
X1300Y431D01*
X1318Y431D02*
X1324Y431D01*
X2597Y431D02*
X2604Y431D01*
X0Y430D02*
X7Y430D01*
X1271Y430D02*
X1300Y430D01*
X1318Y430D02*
X1324Y430D01*
X2597Y430D02*
X2604Y430D01*
X0Y429D02*
X7Y429D01*
X1271Y429D02*
X1300Y429D01*
X1318Y429D02*
X1324Y429D01*
X2597Y429D02*
X2604Y429D01*
X0Y428D02*
X7Y428D01*
X1272Y428D02*
X1299Y428D01*
X1318Y428D02*
X1324Y428D01*
X2597Y428D02*
X2604Y428D01*
X0Y427D02*
X7Y427D01*
X1273Y427D02*
X1299Y427D01*
X1318Y427D02*
X1324Y427D01*
X2597Y427D02*
X2604Y427D01*
X0Y426D02*
X7Y426D01*
X1274Y426D02*
X1298Y426D01*
X1319Y426D02*
X1323Y426D01*
X2597Y426D02*
X2604Y426D01*
X0Y425D02*
X7Y425D01*
X1276Y425D02*
X1296Y425D01*
X1320Y425D02*
X1322Y425D01*
X2597Y425D02*
X2604Y425D01*
X0Y424D02*
X7Y424D01*
X2597Y424D02*
X2604Y424D01*
X0Y423D02*
X7Y423D01*
X2597Y423D02*
X2604Y423D01*
X0Y422D02*
X7Y422D01*
X2597Y422D02*
X2604Y422D01*
X0Y421D02*
X7Y421D01*
X2597Y421D02*
X2604Y421D01*
X0Y420D02*
X7Y420D01*
X2597Y420D02*
X2604Y420D01*
X0Y419D02*
X7Y419D01*
X2597Y419D02*
X2604Y419D01*
X0Y418D02*
X7Y418D01*
X2597Y418D02*
X2604Y418D01*
X0Y417D02*
X7Y417D01*
X2597Y417D02*
X2604Y417D01*
X0Y416D02*
X7Y416D01*
X2597Y416D02*
X2604Y416D01*
X0Y415D02*
X7Y415D01*
X2597Y415D02*
X2604Y415D01*
X0Y414D02*
X7Y414D01*
X2597Y414D02*
X2604Y414D01*
X0Y413D02*
X7Y413D01*
X2597Y413D02*
X2604Y413D01*
X0Y412D02*
X7Y412D01*
X2597Y412D02*
X2604Y412D01*
X0Y411D02*
X7Y411D01*
X2597Y411D02*
X2604Y411D01*
X0Y410D02*
X7Y410D01*
X2597Y410D02*
X2604Y410D01*
X0Y409D02*
X7Y409D01*
X1274Y409D02*
X1274Y409D01*
X1321Y409D02*
X1321Y409D01*
X2597Y409D02*
X2604Y409D01*
X0Y408D02*
X7Y408D01*
X1272Y408D02*
X1276Y408D01*
X1319Y408D02*
X1323Y408D01*
X2597Y408D02*
X2604Y408D01*
X0Y407D02*
X7Y407D01*
X1271Y407D02*
X1277Y407D01*
X1318Y407D02*
X1324Y407D01*
X2597Y407D02*
X2604Y407D01*
X0Y406D02*
X7Y406D01*
X1271Y406D02*
X1277Y406D01*
X1318Y406D02*
X1324Y406D01*
X2597Y406D02*
X2604Y406D01*
X0Y405D02*
X7Y405D01*
X1271Y405D02*
X1277Y405D01*
X1318Y405D02*
X1324Y405D01*
X2597Y405D02*
X2604Y405D01*
X0Y404D02*
X7Y404D01*
X1271Y404D02*
X1277Y404D01*
X1318Y404D02*
X1324Y404D01*
X2597Y404D02*
X2604Y404D01*
X0Y403D02*
X7Y403D01*
X1271Y403D02*
X1277Y403D01*
X1318Y403D02*
X1324Y403D01*
X2597Y403D02*
X2604Y403D01*
X0Y402D02*
X7Y402D01*
X1271Y402D02*
X1277Y402D01*
X1297Y402D02*
X1298Y402D01*
X1318Y402D02*
X1324Y402D01*
X2597Y402D02*
X2604Y402D01*
X0Y401D02*
X7Y401D01*
X1271Y401D02*
X1277Y401D01*
X1295Y401D02*
X1300Y401D01*
X1318Y401D02*
X1324Y401D01*
X2597Y401D02*
X2604Y401D01*
X0Y400D02*
X7Y400D01*
X1271Y400D02*
X1277Y400D01*
X1295Y400D02*
X1300Y400D01*
X1318Y400D02*
X1324Y400D01*
X2597Y400D02*
X2604Y400D01*
X0Y399D02*
X7Y399D01*
X1271Y399D02*
X1277Y399D01*
X1294Y399D02*
X1300Y399D01*
X1318Y399D02*
X1324Y399D01*
X2597Y399D02*
X2604Y399D01*
X0Y398D02*
X7Y398D01*
X1271Y398D02*
X1277Y398D01*
X1294Y398D02*
X1300Y398D01*
X1318Y398D02*
X1324Y398D01*
X2597Y398D02*
X2604Y398D01*
X0Y397D02*
X7Y397D01*
X1271Y397D02*
X1277Y397D01*
X1294Y397D02*
X1300Y397D01*
X1318Y397D02*
X1324Y397D01*
X2597Y397D02*
X2604Y397D01*
X0Y396D02*
X7Y396D01*
X1271Y396D02*
X1277Y396D01*
X1294Y396D02*
X1300Y396D01*
X1318Y396D02*
X1324Y396D01*
X2597Y396D02*
X2604Y396D01*
X0Y395D02*
X7Y395D01*
X1271Y395D02*
X1277Y395D01*
X1294Y395D02*
X1300Y395D01*
X1318Y395D02*
X1324Y395D01*
X2597Y395D02*
X2604Y395D01*
X0Y394D02*
X7Y394D01*
X1271Y394D02*
X1277Y394D01*
X1294Y394D02*
X1300Y394D01*
X1318Y394D02*
X1324Y394D01*
X2597Y394D02*
X2604Y394D01*
X0Y393D02*
X7Y393D01*
X1271Y393D02*
X1277Y393D01*
X1294Y393D02*
X1300Y393D01*
X1318Y393D02*
X1324Y393D01*
X2597Y393D02*
X2604Y393D01*
X0Y392D02*
X7Y392D01*
X1271Y392D02*
X1277Y392D01*
X1294Y392D02*
X1300Y392D01*
X1318Y392D02*
X1324Y392D01*
X2597Y392D02*
X2604Y392D01*
X0Y391D02*
X7Y391D01*
X1271Y391D02*
X1277Y391D01*
X1294Y391D02*
X1300Y391D01*
X1318Y391D02*
X1324Y391D01*
X2597Y391D02*
X2604Y391D01*
X0Y390D02*
X7Y390D01*
X1271Y390D02*
X1277Y390D01*
X1294Y390D02*
X1300Y390D01*
X1318Y390D02*
X1324Y390D01*
X2597Y390D02*
X2604Y390D01*
X0Y389D02*
X7Y389D01*
X1271Y389D02*
X1277Y389D01*
X1294Y389D02*
X1300Y389D01*
X1318Y389D02*
X1324Y389D01*
X2597Y389D02*
X2604Y389D01*
X0Y388D02*
X7Y388D01*
X1271Y388D02*
X1277Y388D01*
X1294Y388D02*
X1300Y388D01*
X1318Y388D02*
X1324Y388D01*
X2597Y388D02*
X2604Y388D01*
X0Y387D02*
X7Y387D01*
X1271Y387D02*
X1277Y387D01*
X1294Y387D02*
X1300Y387D01*
X1318Y387D02*
X1324Y387D01*
X2597Y387D02*
X2604Y387D01*
X0Y386D02*
X7Y386D01*
X1271Y386D02*
X1277Y386D01*
X1294Y386D02*
X1300Y386D01*
X1318Y386D02*
X1324Y386D01*
X2597Y386D02*
X2604Y386D01*
X0Y385D02*
X7Y385D01*
X1271Y385D02*
X1277Y385D01*
X1294Y385D02*
X1300Y385D01*
X1318Y385D02*
X1324Y385D01*
X2597Y385D02*
X2604Y385D01*
X0Y384D02*
X7Y384D01*
X1271Y384D02*
X1277Y384D01*
X1294Y384D02*
X1301Y384D01*
X1318Y384D02*
X1324Y384D01*
X2597Y384D02*
X2604Y384D01*
X0Y383D02*
X7Y383D01*
X1271Y383D02*
X1277Y383D01*
X1294Y383D02*
X1301Y383D01*
X1318Y383D02*
X1324Y383D01*
X2597Y383D02*
X2604Y383D01*
X0Y382D02*
X7Y382D01*
X1271Y382D02*
X1277Y382D01*
X1292Y382D02*
X1303Y382D01*
X1318Y382D02*
X1324Y382D01*
X2597Y382D02*
X2604Y382D01*
X0Y381D02*
X7Y381D01*
X1271Y381D02*
X1324Y381D01*
X2597Y381D02*
X2604Y381D01*
X0Y380D02*
X7Y380D01*
X1271Y380D02*
X1324Y380D01*
X2597Y380D02*
X2604Y380D01*
X0Y379D02*
X7Y379D01*
X1271Y379D02*
X1323Y379D01*
X2597Y379D02*
X2604Y379D01*
X0Y378D02*
X7Y378D01*
X1272Y378D02*
X1323Y378D01*
X2597Y378D02*
X2604Y378D01*
X0Y377D02*
X7Y377D01*
X1273Y377D02*
X1296Y377D01*
X1298Y377D02*
X1322Y377D01*
X2597Y377D02*
X2604Y377D01*
X0Y376D02*
X7Y376D01*
X1274Y376D02*
X1295Y376D01*
X1300Y376D02*
X1321Y376D01*
X2597Y376D02*
X2604Y376D01*
X0Y375D02*
X7Y375D01*
X1276Y375D02*
X1293Y375D01*
X1302Y375D02*
X1319Y375D01*
X2597Y375D02*
X2604Y375D01*
X0Y374D02*
X7Y374D01*
X2597Y374D02*
X2604Y374D01*
X0Y373D02*
X7Y373D01*
X2597Y373D02*
X2604Y373D01*
X0Y372D02*
X7Y372D01*
X2597Y372D02*
X2604Y372D01*
X0Y371D02*
X7Y371D01*
X2597Y371D02*
X2604Y371D01*
X0Y370D02*
X7Y370D01*
X2597Y370D02*
X2604Y370D01*
X0Y369D02*
X7Y369D01*
X2597Y369D02*
X2604Y369D01*
X0Y368D02*
X7Y368D01*
X2597Y368D02*
X2604Y368D01*
X0Y367D02*
X7Y367D01*
X2597Y367D02*
X2604Y367D01*
X0Y366D02*
X7Y366D01*
X2597Y366D02*
X2604Y366D01*
X0Y365D02*
X7Y365D01*
X2597Y365D02*
X2604Y365D01*
X0Y364D02*
X7Y364D01*
X2597Y364D02*
X2604Y364D01*
X0Y363D02*
X7Y363D01*
X2597Y363D02*
X2604Y363D01*
X0Y362D02*
X7Y362D01*
X2597Y362D02*
X2604Y362D01*
X0Y361D02*
X7Y361D01*
X2597Y361D02*
X2604Y361D01*
X0Y360D02*
X7Y360D01*
X2597Y360D02*
X2604Y360D01*
X0Y359D02*
X7Y359D01*
X2597Y359D02*
X2604Y359D01*
X0Y358D02*
X7Y358D01*
X2597Y358D02*
X2604Y358D01*
X0Y357D02*
X7Y357D01*
X2597Y357D02*
X2604Y357D01*
X0Y356D02*
X7Y356D01*
X2597Y356D02*
X2604Y356D01*
X0Y355D02*
X7Y355D01*
X2597Y355D02*
X2604Y355D01*
X0Y354D02*
X7Y354D01*
X2597Y354D02*
X2604Y354D01*
X0Y353D02*
X7Y353D01*
X2597Y353D02*
X2604Y353D01*
X0Y352D02*
X7Y352D01*
X2597Y352D02*
X2604Y352D01*
X0Y351D02*
X7Y351D01*
X2597Y351D02*
X2604Y351D01*
X0Y350D02*
X7Y350D01*
X2597Y350D02*
X2604Y350D01*
X0Y349D02*
X7Y349D01*
X2597Y349D02*
X2604Y349D01*
X0Y348D02*
X7Y348D01*
X2597Y348D02*
X2604Y348D01*
X0Y347D02*
X7Y347D01*
X2597Y347D02*
X2604Y347D01*
X0Y346D02*
X7Y346D01*
X2597Y346D02*
X2604Y346D01*
X0Y345D02*
X7Y345D01*
X2597Y345D02*
X2604Y345D01*
X0Y344D02*
X7Y344D01*
X2597Y344D02*
X2604Y344D01*
X0Y343D02*
X7Y343D01*
X2597Y343D02*
X2604Y343D01*
X0Y342D02*
X7Y342D01*
X2597Y342D02*
X2604Y342D01*
X0Y341D02*
X7Y341D01*
X2597Y341D02*
X2604Y341D01*
X0Y340D02*
X7Y340D01*
X2597Y340D02*
X2604Y340D01*
X0Y339D02*
X7Y339D01*
X2597Y339D02*
X2604Y339D01*
X0Y338D02*
X7Y338D01*
X2597Y338D02*
X2604Y338D01*
X0Y337D02*
X7Y337D01*
X2597Y337D02*
X2604Y337D01*
X0Y336D02*
X7Y336D01*
X2597Y336D02*
X2604Y336D01*
X0Y335D02*
X7Y335D01*
X2597Y335D02*
X2604Y335D01*
X0Y334D02*
X7Y334D01*
X2597Y334D02*
X2604Y334D01*
X0Y333D02*
X7Y333D01*
X2597Y333D02*
X2604Y333D01*
X0Y332D02*
X7Y332D01*
X2597Y332D02*
X2604Y332D01*
X0Y331D02*
X7Y331D01*
X2597Y331D02*
X2604Y331D01*
X0Y330D02*
X7Y330D01*
X2597Y330D02*
X2604Y330D01*
X0Y329D02*
X7Y329D01*
X2597Y329D02*
X2604Y329D01*
X0Y328D02*
X7Y328D01*
X2597Y328D02*
X2604Y328D01*
X0Y327D02*
X7Y327D01*
X2597Y327D02*
X2604Y327D01*
X0Y326D02*
X7Y326D01*
X2597Y326D02*
X2604Y326D01*
X0Y325D02*
X7Y325D01*
X2597Y325D02*
X2604Y325D01*
X0Y324D02*
X7Y324D01*
X2597Y324D02*
X2604Y324D01*
X0Y323D02*
X7Y323D01*
X2597Y323D02*
X2604Y323D01*
X0Y322D02*
X7Y322D01*
X2597Y322D02*
X2604Y322D01*
X0Y321D02*
X7Y321D01*
X2597Y321D02*
X2604Y321D01*
X0Y320D02*
X7Y320D01*
X2597Y320D02*
X2604Y320D01*
X0Y319D02*
X7Y319D01*
X2597Y319D02*
X2604Y319D01*
X0Y318D02*
X7Y318D01*
X2597Y318D02*
X2604Y318D01*
X0Y317D02*
X7Y317D01*
X2597Y317D02*
X2604Y317D01*
X0Y316D02*
X7Y316D01*
X2597Y316D02*
X2604Y316D01*
X0Y315D02*
X7Y315D01*
X2597Y315D02*
X2604Y315D01*
X0Y314D02*
X7Y314D01*
X2597Y314D02*
X2604Y314D01*
X0Y313D02*
X7Y313D01*
X2597Y313D02*
X2604Y313D01*
X0Y312D02*
X7Y312D01*
X2597Y312D02*
X2604Y312D01*
X0Y311D02*
X7Y311D01*
X2597Y311D02*
X2604Y311D01*
X0Y310D02*
X7Y310D01*
X2597Y310D02*
X2604Y310D01*
X0Y309D02*
X7Y309D01*
X2597Y309D02*
X2604Y309D01*
X0Y308D02*
X7Y308D01*
X2597Y308D02*
X2604Y308D01*
X0Y307D02*
X7Y307D01*
X2597Y307D02*
X2604Y307D01*
X0Y306D02*
X7Y306D01*
X2597Y306D02*
X2604Y306D01*
X0Y305D02*
X7Y305D01*
X2597Y305D02*
X2604Y305D01*
X0Y304D02*
X7Y304D01*
X2597Y304D02*
X2604Y304D01*
X0Y303D02*
X7Y303D01*
X2597Y303D02*
X2604Y303D01*
X0Y302D02*
X7Y302D01*
X2597Y302D02*
X2604Y302D01*
X0Y301D02*
X7Y301D01*
X2597Y301D02*
X2604Y301D01*
X0Y300D02*
X7Y300D01*
X2597Y300D02*
X2604Y300D01*
X0Y299D02*
X7Y299D01*
X2597Y299D02*
X2604Y299D01*
X0Y298D02*
X7Y298D01*
X2597Y298D02*
X2604Y298D01*
X0Y297D02*
X7Y297D01*
X2597Y297D02*
X2604Y297D01*
X0Y296D02*
X7Y296D01*
X2597Y296D02*
X2604Y296D01*
X0Y295D02*
X7Y295D01*
X2597Y295D02*
X2604Y295D01*
X0Y294D02*
X7Y294D01*
X2597Y294D02*
X2604Y294D01*
X0Y293D02*
X7Y293D01*
X2597Y293D02*
X2604Y293D01*
X0Y292D02*
X7Y292D01*
X2597Y292D02*
X2604Y292D01*
X0Y291D02*
X7Y291D01*
X2597Y291D02*
X2604Y291D01*
X0Y290D02*
X7Y290D01*
X2597Y290D02*
X2604Y290D01*
X0Y289D02*
X7Y289D01*
X2597Y289D02*
X2604Y289D01*
X0Y288D02*
X7Y288D01*
X2597Y288D02*
X2604Y288D01*
X0Y287D02*
X7Y287D01*
X2597Y287D02*
X2604Y287D01*
X0Y286D02*
X7Y286D01*
X2597Y286D02*
X2604Y286D01*
X0Y285D02*
X7Y285D01*
X2597Y285D02*
X2604Y285D01*
X0Y284D02*
X7Y284D01*
X2597Y284D02*
X2604Y284D01*
X0Y283D02*
X7Y283D01*
X2597Y283D02*
X2604Y283D01*
X0Y282D02*
X7Y282D01*
X2597Y282D02*
X2604Y282D01*
X0Y281D02*
X7Y281D01*
X2597Y281D02*
X2604Y281D01*
X0Y280D02*
X7Y280D01*
X2597Y280D02*
X2604Y280D01*
X0Y279D02*
X7Y279D01*
X2597Y279D02*
X2604Y279D01*
X0Y278D02*
X7Y278D01*
X2597Y278D02*
X2604Y278D01*
X0Y277D02*
X7Y277D01*
X2597Y277D02*
X2604Y277D01*
X0Y276D02*
X7Y276D01*
X2597Y276D02*
X2604Y276D01*
X0Y275D02*
X7Y275D01*
X2597Y275D02*
X2604Y275D01*
X0Y274D02*
X7Y274D01*
X2597Y274D02*
X2604Y274D01*
X0Y273D02*
X7Y273D01*
X2597Y273D02*
X2604Y273D01*
X0Y272D02*
X7Y272D01*
X2597Y272D02*
X2604Y272D01*
X0Y271D02*
X7Y271D01*
X2597Y271D02*
X2604Y271D01*
X0Y270D02*
X7Y270D01*
X2597Y270D02*
X2604Y270D01*
X0Y269D02*
X7Y269D01*
X2597Y269D02*
X2604Y269D01*
X0Y268D02*
X7Y268D01*
X2597Y268D02*
X2604Y268D01*
X0Y267D02*
X7Y267D01*
X2597Y267D02*
X2604Y267D01*
X0Y266D02*
X7Y266D01*
X2597Y266D02*
X2604Y266D01*
X0Y265D02*
X7Y265D01*
X2597Y265D02*
X2604Y265D01*
X0Y264D02*
X7Y264D01*
X2597Y264D02*
X2604Y264D01*
X0Y263D02*
X7Y263D01*
X2597Y263D02*
X2604Y263D01*
X0Y262D02*
X7Y262D01*
X2597Y262D02*
X2604Y262D01*
X0Y261D02*
X7Y261D01*
X2597Y261D02*
X2604Y261D01*
X0Y260D02*
X7Y260D01*
X2597Y260D02*
X2604Y260D01*
X0Y259D02*
X7Y259D01*
X2597Y259D02*
X2604Y259D01*
X0Y258D02*
X7Y258D01*
X2597Y258D02*
X2604Y258D01*
X0Y257D02*
X7Y257D01*
X2597Y257D02*
X2604Y257D01*
X0Y256D02*
X7Y256D01*
X2597Y256D02*
X2604Y256D01*
X0Y255D02*
X7Y255D01*
X2597Y255D02*
X2604Y255D01*
X0Y254D02*
X7Y254D01*
X2597Y254D02*
X2604Y254D01*
X0Y253D02*
X7Y253D01*
X2597Y253D02*
X2604Y253D01*
X0Y252D02*
X7Y252D01*
X2597Y252D02*
X2604Y252D01*
X0Y251D02*
X7Y251D01*
X2597Y251D02*
X2604Y251D01*
X0Y250D02*
X7Y250D01*
X2597Y250D02*
X2604Y250D01*
X0Y249D02*
X7Y249D01*
X2597Y249D02*
X2604Y249D01*
X0Y248D02*
X7Y248D01*
X2597Y248D02*
X2604Y248D01*
X0Y247D02*
X7Y247D01*
X2597Y247D02*
X2604Y247D01*
X0Y246D02*
X7Y246D01*
X2597Y246D02*
X2604Y246D01*
X0Y245D02*
X7Y245D01*
X2597Y245D02*
X2604Y245D01*
X0Y244D02*
X7Y244D01*
X2597Y244D02*
X2604Y244D01*
X0Y243D02*
X7Y243D01*
X2597Y243D02*
X2604Y243D01*
X0Y242D02*
X7Y242D01*
X2597Y242D02*
X2604Y242D01*
X0Y241D02*
X7Y241D01*
X2597Y241D02*
X2604Y241D01*
X0Y240D02*
X7Y240D01*
X2597Y240D02*
X2604Y240D01*
X0Y239D02*
X7Y239D01*
X2597Y239D02*
X2604Y239D01*
X0Y238D02*
X7Y238D01*
X2597Y238D02*
X2604Y238D01*
X0Y237D02*
X7Y237D01*
X2597Y237D02*
X2604Y237D01*
X0Y236D02*
X7Y236D01*
X2597Y236D02*
X2604Y236D01*
X0Y235D02*
X7Y235D01*
X2597Y235D02*
X2604Y235D01*
X0Y234D02*
X7Y234D01*
X2597Y234D02*
X2604Y234D01*
X0Y233D02*
X7Y233D01*
X2597Y233D02*
X2604Y233D01*
X0Y232D02*
X7Y232D01*
X2597Y232D02*
X2604Y232D01*
X0Y231D02*
X7Y231D01*
X2597Y231D02*
X2604Y231D01*
X0Y230D02*
X7Y230D01*
X2597Y230D02*
X2604Y230D01*
X0Y229D02*
X7Y229D01*
X2597Y229D02*
X2604Y229D01*
X0Y228D02*
X7Y228D01*
X2597Y228D02*
X2604Y228D01*
X0Y227D02*
X7Y227D01*
X2597Y227D02*
X2604Y227D01*
X0Y226D02*
X7Y226D01*
X2597Y226D02*
X2604Y226D01*
X0Y225D02*
X7Y225D01*
X2597Y225D02*
X2604Y225D01*
X0Y224D02*
X7Y224D01*
X2597Y224D02*
X2604Y224D01*
X0Y223D02*
X7Y223D01*
X2597Y223D02*
X2604Y223D01*
X0Y222D02*
X7Y222D01*
X2597Y222D02*
X2604Y222D01*
X0Y221D02*
X7Y221D01*
X2597Y221D02*
X2604Y221D01*
X0Y220D02*
X7Y220D01*
X2597Y220D02*
X2604Y220D01*
X0Y219D02*
X7Y219D01*
X2597Y219D02*
X2604Y219D01*
X0Y218D02*
X7Y218D01*
X2597Y218D02*
X2604Y218D01*
X0Y217D02*
X7Y217D01*
X2597Y217D02*
X2604Y217D01*
X0Y216D02*
X7Y216D01*
X2597Y216D02*
X2604Y216D01*
X0Y215D02*
X7Y215D01*
X2597Y215D02*
X2604Y215D01*
X0Y214D02*
X7Y214D01*
X2597Y214D02*
X2604Y214D01*
X0Y213D02*
X7Y213D01*
X2597Y213D02*
X2604Y213D01*
X0Y212D02*
X7Y212D01*
X2597Y212D02*
X2604Y212D01*
X0Y211D02*
X7Y211D01*
X2597Y211D02*
X2604Y211D01*
X0Y210D02*
X7Y210D01*
X2597Y210D02*
X2604Y210D01*
X0Y209D02*
X7Y209D01*
X2597Y209D02*
X2604Y209D01*
X0Y208D02*
X7Y208D01*
X2597Y208D02*
X2604Y208D01*
X0Y207D02*
X7Y207D01*
X2597Y207D02*
X2604Y207D01*
X0Y206D02*
X7Y206D01*
X2597Y206D02*
X2604Y206D01*
X0Y205D02*
X7Y205D01*
X2597Y205D02*
X2604Y205D01*
X0Y204D02*
X7Y204D01*
X2597Y204D02*
X2604Y204D01*
X0Y203D02*
X7Y203D01*
X2597Y203D02*
X2604Y203D01*
X0Y202D02*
X7Y202D01*
X2597Y202D02*
X2604Y202D01*
X0Y201D02*
X7Y201D01*
X2597Y201D02*
X2604Y201D01*
X0Y200D02*
X7Y200D01*
X2597Y200D02*
X2604Y200D01*
X0Y199D02*
X7Y199D01*
X2597Y199D02*
X2604Y199D01*
X0Y198D02*
X7Y198D01*
X2597Y198D02*
X2604Y198D01*
X0Y197D02*
X7Y197D01*
X2597Y197D02*
X2604Y197D01*
X0Y196D02*
X7Y196D01*
X2597Y196D02*
X2604Y196D01*
X0Y195D02*
X7Y195D01*
X2597Y195D02*
X2604Y195D01*
X0Y194D02*
X7Y194D01*
X2597Y194D02*
X2604Y194D01*
X0Y193D02*
X7Y193D01*
X2597Y193D02*
X2604Y193D01*
X0Y192D02*
X7Y192D01*
X2597Y192D02*
X2604Y192D01*
X0Y191D02*
X7Y191D01*
X2597Y191D02*
X2604Y191D01*
X0Y190D02*
X7Y190D01*
X2597Y190D02*
X2604Y190D01*
X0Y189D02*
X7Y189D01*
X2597Y189D02*
X2604Y189D01*
X0Y188D02*
X7Y188D01*
X2597Y188D02*
X2604Y188D01*
X0Y187D02*
X7Y187D01*
X2597Y187D02*
X2604Y187D01*
X0Y186D02*
X7Y186D01*
X2597Y186D02*
X2604Y186D01*
X0Y185D02*
X7Y185D01*
X2597Y185D02*
X2604Y185D01*
X0Y184D02*
X7Y184D01*
X2597Y184D02*
X2604Y184D01*
X0Y183D02*
X7Y183D01*
X2597Y183D02*
X2604Y183D01*
X0Y182D02*
X7Y182D01*
X2597Y182D02*
X2604Y182D01*
X0Y181D02*
X7Y181D01*
X2597Y181D02*
X2604Y181D01*
X0Y180D02*
X7Y180D01*
X2597Y180D02*
X2604Y180D01*
X0Y179D02*
X7Y179D01*
X2597Y179D02*
X2604Y179D01*
X0Y178D02*
X7Y178D01*
X2597Y178D02*
X2604Y178D01*
X0Y177D02*
X7Y177D01*
X2597Y177D02*
X2604Y177D01*
X0Y176D02*
X7Y176D01*
X2597Y176D02*
X2604Y176D01*
X0Y175D02*
X7Y175D01*
X2597Y175D02*
X2604Y175D01*
X0Y174D02*
X7Y174D01*
X2597Y174D02*
X2604Y174D01*
X0Y173D02*
X7Y173D01*
X2597Y173D02*
X2604Y173D01*
X0Y172D02*
X7Y172D01*
X2597Y172D02*
X2604Y172D01*
X0Y171D02*
X7Y171D01*
X2597Y171D02*
X2604Y171D01*
X0Y170D02*
X7Y170D01*
X2597Y170D02*
X2604Y170D01*
X0Y169D02*
X7Y169D01*
X2597Y169D02*
X2604Y169D01*
X0Y168D02*
X7Y168D01*
X2597Y168D02*
X2604Y168D01*
X0Y167D02*
X7Y167D01*
X2597Y167D02*
X2604Y167D01*
X0Y166D02*
X7Y166D01*
X2597Y166D02*
X2604Y166D01*
X0Y165D02*
X7Y165D01*
X2597Y165D02*
X2604Y165D01*
X0Y164D02*
X7Y164D01*
X2597Y164D02*
X2604Y164D01*
X0Y163D02*
X7Y163D01*
X2597Y163D02*
X2604Y163D01*
X0Y162D02*
X7Y162D01*
X2597Y162D02*
X2604Y162D01*
X0Y161D02*
X7Y161D01*
X2597Y161D02*
X2604Y161D01*
X0Y160D02*
X7Y160D01*
X2597Y160D02*
X2604Y160D01*
X0Y159D02*
X7Y159D01*
X2597Y159D02*
X2604Y159D01*
X0Y158D02*
X7Y158D01*
X2597Y158D02*
X2604Y158D01*
X0Y157D02*
X7Y157D01*
X2597Y157D02*
X2604Y157D01*
X0Y156D02*
X7Y156D01*
X2597Y156D02*
X2604Y156D01*
X0Y155D02*
X7Y155D01*
X2597Y155D02*
X2604Y155D01*
X0Y154D02*
X7Y154D01*
X2597Y154D02*
X2604Y154D01*
X0Y153D02*
X7Y153D01*
X2597Y153D02*
X2604Y153D01*
X0Y152D02*
X7Y152D01*
X2597Y152D02*
X2604Y152D01*
X0Y151D02*
X7Y151D01*
X2597Y151D02*
X2604Y151D01*
X0Y150D02*
X7Y150D01*
X2597Y150D02*
X2604Y150D01*
X0Y149D02*
X7Y149D01*
X2597Y149D02*
X2604Y149D01*
X0Y148D02*
X7Y148D01*
X2597Y148D02*
X2604Y148D01*
X0Y147D02*
X7Y147D01*
X2597Y147D02*
X2604Y147D01*
X0Y146D02*
X7Y146D01*
X2597Y146D02*
X2604Y146D01*
X0Y145D02*
X7Y145D01*
X2597Y145D02*
X2604Y145D01*
X0Y144D02*
X7Y144D01*
X2597Y144D02*
X2604Y144D01*
X0Y143D02*
X7Y143D01*
X2597Y143D02*
X2604Y143D01*
X0Y142D02*
X7Y142D01*
X2597Y142D02*
X2604Y142D01*
X0Y141D02*
X7Y141D01*
X2597Y141D02*
X2604Y141D01*
X0Y140D02*
X7Y140D01*
X2597Y140D02*
X2604Y140D01*
X0Y139D02*
X7Y139D01*
X2597Y139D02*
X2604Y139D01*
X0Y138D02*
X7Y138D01*
X2597Y138D02*
X2604Y138D01*
X0Y137D02*
X7Y137D01*
X2597Y137D02*
X2604Y137D01*
X0Y136D02*
X7Y136D01*
X2597Y136D02*
X2604Y136D01*
X0Y135D02*
X7Y135D01*
X2597Y135D02*
X2604Y135D01*
X0Y134D02*
X7Y134D01*
X2597Y134D02*
X2604Y134D01*
X0Y133D02*
X7Y133D01*
X2597Y133D02*
X2604Y133D01*
X0Y132D02*
X7Y132D01*
X2597Y132D02*
X2604Y132D01*
X0Y131D02*
X7Y131D01*
X2597Y131D02*
X2604Y131D01*
X0Y130D02*
X7Y130D01*
X2597Y130D02*
X2604Y130D01*
X0Y129D02*
X7Y129D01*
X2597Y129D02*
X2604Y129D01*
X0Y128D02*
X7Y128D01*
X2597Y128D02*
X2604Y128D01*
X0Y127D02*
X7Y127D01*
X2597Y127D02*
X2604Y127D01*
X0Y126D02*
X7Y126D01*
X2597Y126D02*
X2604Y126D01*
X0Y125D02*
X7Y125D01*
X2597Y125D02*
X2604Y125D01*
X0Y124D02*
X7Y124D01*
X2597Y124D02*
X2604Y124D01*
X0Y123D02*
X7Y123D01*
X2597Y123D02*
X2604Y123D01*
X0Y122D02*
X7Y122D01*
X2597Y122D02*
X2604Y122D01*
X0Y121D02*
X7Y121D01*
X2597Y121D02*
X2604Y121D01*
X0Y120D02*
X7Y120D01*
X2597Y120D02*
X2604Y120D01*
X0Y119D02*
X7Y119D01*
X2597Y119D02*
X2604Y119D01*
X0Y118D02*
X7Y118D01*
X2597Y118D02*
X2604Y118D01*
X0Y117D02*
X7Y117D01*
X2597Y117D02*
X2604Y117D01*
X0Y116D02*
X7Y116D01*
X2597Y116D02*
X2604Y116D01*
X0Y115D02*
X7Y115D01*
X2597Y115D02*
X2604Y115D01*
X0Y114D02*
X7Y114D01*
X2597Y114D02*
X2604Y114D01*
X0Y113D02*
X7Y113D01*
X2597Y113D02*
X2604Y113D01*
X0Y112D02*
X7Y112D01*
X2597Y112D02*
X2604Y112D01*
X0Y111D02*
X7Y111D01*
X2597Y111D02*
X2604Y111D01*
X0Y110D02*
X7Y110D01*
X2597Y110D02*
X2604Y110D01*
X0Y109D02*
X7Y109D01*
X2597Y109D02*
X2604Y109D01*
X0Y108D02*
X7Y108D01*
X2597Y108D02*
X2604Y108D01*
X0Y107D02*
X7Y107D01*
X2597Y107D02*
X2604Y107D01*
X0Y106D02*
X7Y106D01*
X2597Y106D02*
X2604Y106D01*
X0Y105D02*
X7Y105D01*
X2597Y105D02*
X2604Y105D01*
X0Y104D02*
X7Y104D01*
X2597Y104D02*
X2604Y104D01*
X0Y103D02*
X7Y103D01*
X2597Y103D02*
X2604Y103D01*
X0Y102D02*
X7Y102D01*
X2597Y102D02*
X2604Y102D01*
X0Y101D02*
X7Y101D01*
X2597Y101D02*
X2604Y101D01*
X0Y100D02*
X7Y100D01*
X2597Y100D02*
X2604Y100D01*
X0Y99D02*
X7Y99D01*
X2597Y99D02*
X2604Y99D01*
X0Y98D02*
X7Y98D01*
X2597Y98D02*
X2604Y98D01*
X0Y97D02*
X7Y97D01*
X2597Y97D02*
X2604Y97D01*
X0Y96D02*
X7Y96D01*
X2597Y96D02*
X2604Y96D01*
X0Y95D02*
X7Y95D01*
X2597Y95D02*
X2604Y95D01*
X0Y94D02*
X7Y94D01*
X2597Y94D02*
X2604Y94D01*
X0Y93D02*
X7Y93D01*
X2597Y93D02*
X2604Y93D01*
X0Y92D02*
X7Y92D01*
X2597Y92D02*
X2604Y92D01*
X0Y91D02*
X7Y91D01*
X2597Y91D02*
X2604Y91D01*
X0Y90D02*
X7Y90D01*
X2597Y90D02*
X2604Y90D01*
X0Y89D02*
X7Y89D01*
X2597Y89D02*
X2604Y89D01*
X0Y88D02*
X7Y88D01*
X2597Y88D02*
X2604Y88D01*
X0Y87D02*
X7Y87D01*
X2597Y87D02*
X2604Y87D01*
X0Y86D02*
X7Y86D01*
X2597Y86D02*
X2604Y86D01*
X0Y85D02*
X7Y85D01*
X2597Y85D02*
X2604Y85D01*
X0Y84D02*
X7Y84D01*
X2597Y84D02*
X2604Y84D01*
X0Y83D02*
X7Y83D01*
X2597Y83D02*
X2604Y83D01*
X0Y82D02*
X7Y82D01*
X2597Y82D02*
X2604Y82D01*
X0Y81D02*
X7Y81D01*
X2597Y81D02*
X2604Y81D01*
X0Y80D02*
X7Y80D01*
X2597Y80D02*
X2604Y80D01*
X0Y79D02*
X7Y79D01*
X2597Y79D02*
X2604Y79D01*
X0Y78D02*
X7Y78D01*
X2597Y78D02*
X2604Y78D01*
X0Y77D02*
X7Y77D01*
X2597Y77D02*
X2604Y77D01*
X0Y76D02*
X7Y76D01*
X2597Y76D02*
X2604Y76D01*
X0Y75D02*
X7Y75D01*
X2597Y75D02*
X2604Y75D01*
X0Y74D02*
X7Y74D01*
X2597Y74D02*
X2604Y74D01*
X0Y73D02*
X7Y73D01*
X2597Y73D02*
X2604Y73D01*
X0Y72D02*
X7Y72D01*
X2597Y72D02*
X2604Y72D01*
X0Y71D02*
X7Y71D01*
X2597Y71D02*
X2604Y71D01*
X0Y70D02*
X7Y70D01*
X2597Y70D02*
X2604Y70D01*
X0Y69D02*
X7Y69D01*
X2597Y69D02*
X2604Y69D01*
X0Y68D02*
X7Y68D01*
X2597Y68D02*
X2604Y68D01*
X0Y67D02*
X7Y67D01*
X2597Y67D02*
X2604Y67D01*
X0Y66D02*
X7Y66D01*
X2597Y66D02*
X2604Y66D01*
X0Y65D02*
X7Y65D01*
X2597Y65D02*
X2604Y65D01*
X0Y64D02*
X7Y64D01*
X2597Y64D02*
X2604Y64D01*
X0Y63D02*
X7Y63D01*
X2597Y63D02*
X2604Y63D01*
X0Y62D02*
X7Y62D01*
X2597Y62D02*
X2604Y62D01*
X0Y61D02*
X7Y61D01*
X2597Y61D02*
X2604Y61D01*
X0Y60D02*
X7Y60D01*
X2597Y60D02*
X2604Y60D01*
X0Y59D02*
X7Y59D01*
X2597Y59D02*
X2604Y59D01*
X0Y58D02*
X7Y58D01*
X2597Y58D02*
X2604Y58D01*
X0Y57D02*
X7Y57D01*
X2597Y57D02*
X2604Y57D01*
X0Y56D02*
X7Y56D01*
X2597Y56D02*
X2604Y56D01*
X0Y55D02*
X7Y55D01*
X2597Y55D02*
X2604Y55D01*
X0Y54D02*
X7Y54D01*
X2597Y54D02*
X2604Y54D01*
X0Y53D02*
X7Y53D01*
X2597Y53D02*
X2604Y53D01*
X0Y52D02*
X7Y52D01*
X2597Y52D02*
X2604Y52D01*
X0Y51D02*
X7Y51D01*
X2597Y51D02*
X2604Y51D01*
X0Y50D02*
X7Y50D01*
X2597Y50D02*
X2604Y50D01*
X0Y49D02*
X7Y49D01*
X2597Y49D02*
X2604Y49D01*
X0Y48D02*
X7Y48D01*
X2597Y48D02*
X2604Y48D01*
X0Y47D02*
X7Y47D01*
X2597Y47D02*
X2604Y47D01*
X0Y46D02*
X7Y46D01*
X2597Y46D02*
X2604Y46D01*
X0Y45D02*
X7Y45D01*
X2597Y45D02*
X2604Y45D01*
X0Y44D02*
X7Y44D01*
X2597Y44D02*
X2604Y44D01*
X0Y43D02*
X7Y43D01*
X2597Y43D02*
X2604Y43D01*
X0Y42D02*
X7Y42D01*
X2597Y42D02*
X2604Y42D01*
X0Y41D02*
X7Y41D01*
X2597Y41D02*
X2604Y41D01*
X0Y40D02*
X7Y40D01*
X2597Y40D02*
X2604Y40D01*
X0Y39D02*
X7Y39D01*
X2597Y39D02*
X2604Y39D01*
X0Y38D02*
X7Y38D01*
X2597Y38D02*
X2604Y38D01*
X0Y37D02*
X7Y37D01*
X2597Y37D02*
X2604Y37D01*
X0Y36D02*
X7Y36D01*
X2597Y36D02*
X2604Y36D01*
X0Y35D02*
X7Y35D01*
X2597Y35D02*
X2604Y35D01*
X0Y34D02*
X7Y34D01*
X2597Y34D02*
X2604Y34D01*
X0Y33D02*
X7Y33D01*
X2597Y33D02*
X2604Y33D01*
X0Y32D02*
X7Y32D01*
X2597Y32D02*
X2604Y32D01*
X0Y31D02*
X7Y31D01*
X2597Y31D02*
X2604Y31D01*
X0Y30D02*
X7Y30D01*
X2597Y30D02*
X2604Y30D01*
X0Y29D02*
X7Y29D01*
X2597Y29D02*
X2604Y29D01*
X0Y28D02*
X7Y28D01*
X2597Y28D02*
X2604Y28D01*
X0Y27D02*
X7Y27D01*
X2597Y27D02*
X2604Y27D01*
X0Y26D02*
X7Y26D01*
X2597Y26D02*
X2604Y26D01*
X0Y25D02*
X7Y25D01*
X2597Y25D02*
X2604Y25D01*
X0Y24D02*
X7Y24D01*
X2597Y24D02*
X2604Y24D01*
X0Y23D02*
X7Y23D01*
X2597Y23D02*
X2604Y23D01*
X0Y22D02*
X7Y22D01*
X2597Y22D02*
X2604Y22D01*
X0Y21D02*
X7Y21D01*
X2597Y21D02*
X2604Y21D01*
X0Y20D02*
X7Y20D01*
X2597Y20D02*
X2604Y20D01*
X0Y19D02*
X7Y19D01*
X2597Y19D02*
X2604Y19D01*
X0Y18D02*
X7Y18D01*
X2597Y18D02*
X2604Y18D01*
X0Y17D02*
X7Y17D01*
X2597Y17D02*
X2604Y17D01*
X0Y16D02*
X7Y16D01*
X2597Y16D02*
X2604Y16D01*
X0Y15D02*
X7Y15D01*
X2597Y15D02*
X2604Y15D01*
X0Y14D02*
X7Y14D01*
X2597Y14D02*
X2604Y14D01*
X0Y13D02*
X7Y13D01*
X2597Y13D02*
X2604Y13D01*
X0Y12D02*
X7Y12D01*
X2597Y12D02*
X2604Y12D01*
X0Y11D02*
X7Y11D01*
X2597Y11D02*
X2604Y11D01*
X0Y10D02*
X7Y10D01*
X2597Y10D02*
X2604Y10D01*
X0Y9D02*
X2604Y9D01*
X0Y8D02*
X2604Y8D01*
X0Y7D02*
X2604Y7D01*
X0Y6D02*
X2604Y6D01*
X0Y5D02*
X2604Y5D01*
X0Y4D02*
X2604Y4D01*
X0Y3D02*
X2604Y3D01*
X0Y2D02*
X2604Y2D01*
D02*
G04 End of Silk0*
M02*