G04 MADE WITH FRITZING*
G04 WWW.FRITZING.ORG*
G04 DOUBLE SIDED*
G04 HOLES PLATED*
G04 CONTOUR ON CENTER OF CONTOUR VECTOR*
%ASAXBY*%
%FSLAX23Y23*%
%MOIN*%
%OFA0B0*%
%SFA1.0B1.0*%
%ADD10C,0.088000*%
%ADD11C,0.085000*%
%ADD12C,0.049370*%
%ADD13C,0.072992*%
%ADD14C,0.070000*%
%ADD15C,0.085433*%
%ADD16R,0.072992X0.072992*%
%ADD17R,0.084803X0.072992*%
%LNMASK0*%
G90*
G70*
G54D10*
X2434Y1265D03*
X2434Y1165D03*
X2434Y1065D03*
X2434Y965D03*
X2434Y865D03*
G54D11*
X2034Y965D03*
X2034Y865D03*
X2034Y765D03*
X1534Y1065D03*
X1534Y965D03*
X1534Y865D03*
X1746Y965D03*
X1746Y1265D03*
X1646Y865D03*
X1646Y1165D03*
X2246Y865D03*
X2246Y1165D03*
X2146Y865D03*
X2146Y1165D03*
X1871Y865D03*
X1871Y1265D03*
G54D12*
X1396Y865D03*
G54D10*
X271Y115D03*
X371Y115D03*
X471Y115D03*
X571Y115D03*
X671Y115D03*
X771Y115D03*
G54D13*
X320Y1215D03*
X221Y1215D03*
X320Y352D03*
X221Y352D03*
X1396Y1191D03*
X1396Y1290D03*
X1396Y413D03*
X1396Y315D03*
G54D14*
X1224Y352D03*
X1145Y352D03*
X1066Y352D03*
X988Y352D03*
X909Y352D03*
X830Y352D03*
X751Y352D03*
X673Y352D03*
X594Y352D03*
X515Y352D03*
X1224Y1218D03*
X1145Y1218D03*
X1066Y1218D03*
X988Y1218D03*
X909Y1218D03*
X830Y1218D03*
X751Y1218D03*
X673Y1218D03*
X594Y1218D03*
X515Y1218D03*
G54D15*
X409Y1215D03*
X409Y352D03*
X909Y465D03*
G54D16*
X320Y1215D03*
X320Y352D03*
X1396Y1191D03*
X1396Y413D03*
G54D17*
X1396Y677D03*
X1396Y555D03*
G04 End of Mask0*
M02*