; NON-PLATED HOLES START AT T1
; THROUGH (PLATED) HOLES START AT T100
M48
INCH
T100C0.031497
T101C0.035433
T102C0.038000
T103C0.031496
T104C0.015748
T105C0.035000
%
T100
X013962Y011912
X013962Y003146
X003197Y003521
X003197Y012146
X013962Y004131
X013962Y012896
X002212Y003521
X002212Y012146
T101
X004087Y012146
X009087Y004646
X004087Y003521
T102
X007712Y001146
X003712Y001146
X006712Y001146
X024337Y008646
X024337Y010646
X002712Y001146
X024337Y009646
X005712Y001146
X024337Y011646
X004712Y001146
X024337Y012646
T103
X008300Y003521
X005150Y012183
X008300Y012183
X009875Y012183
X005938Y012183
X009875Y003521
X007512Y003521
X005938Y003521
X006725Y012183
X009087Y003521
X010662Y003521
X011449Y003521
X009087Y012183
X011449Y012183
X012237Y003521
X007512Y012183
X005150Y003521
X006725Y003521
X012237Y012183
X010662Y012183
T104
X013962Y008646
T105
X015337Y009646
X017462Y009646
X018712Y012646
X018712Y008646
X015337Y010646
X020337Y008646
X021462Y011646
X015337Y008646
X017462Y012646
X016462Y008646
X021462Y008646
X022462Y011646
X016462Y011646
X020337Y007646
X022462Y008646
X020337Y009646
T00
M30
