; NON-PLATED HOLES START AT T1
; THROUGH (PLATED) HOLES START AT T100
M48
INCH
T100C0.043307
T101C0.038000
T102C0.035433
T103C0.038194
T104C0.035000
%
T100
X002783Y005754
X002783Y007722
T101
X035033Y004972
X017033Y011722
X016033Y011722
X035033Y013972
X033033Y017597
X035033Y008972
X012033Y008097
X035033Y010972
X023033Y011722
X035033Y015972
X035033Y017597
X035033Y012972
X011033Y008097
X024033Y003222
X022033Y003222
X035033Y014972
X035033Y011972
X018033Y011722
X020033Y011722
X021033Y011722
X032033Y017597
X018033Y003222
X035033Y009972
X015033Y008097
X020033Y003222
X035033Y006972
X019033Y011722
X014033Y008097
X013033Y008097
X029783Y007222
X019033Y003222
X021033Y003222
X034033Y017597
X035033Y005972
X022033Y011722
X028783Y007222
X023033Y003222
T102
X012033Y009722
X016783Y006222
X013033Y009722
X028283Y018472
X029783Y008472
X026783Y008472
T103
X014033Y000972
X013033Y000972
X034033Y000972
X037033Y017972
X028033Y019972
X015033Y000972
X018033Y000972
X023033Y019972
X022033Y000972
X031033Y000972
X029033Y019972
X017033Y000972
X016033Y000972
X027033Y019972
X037033Y009972
X037033Y006972
X037033Y005972
X038033Y016972
X037033Y012972
X024033Y019972
X019033Y019972
X012433Y019972
X034033Y019972
X037033Y018972
X012033Y000972
X038033Y019972
X011433Y019972
X038033Y006972
X030033Y019972
X027033Y000972
X038033Y014972
X038033Y002972
X037033Y013972
X038033Y015972
X038033Y017972
X007433Y019972
X031033Y019972
X037033Y016972
X009433Y019972
X037033Y008972
X024033Y000972
X038033Y004972
X037033Y004972
X018033Y019972
X037033Y002972
X037033Y014972
X038033Y013972
X038033Y003972
X033033Y019972
X014433Y019972
X021033Y019972
X025033Y000972
X037033Y003972
X023033Y000972
X032033Y000972
X038033Y008972
X015433Y019972
X030033Y000972
X038033Y010972
X038033Y018972
X013433Y019972
X008433Y019972
X022033Y019972
X032033Y019972
X037033Y015972
X035033Y000972
X026033Y000972
X021033Y000972
X033033Y000972
X036033Y000972
X037033Y011972
X020033Y000972
X038033Y005972
X011033Y000972
X038033Y007972
X037033Y010972
X025033Y019972
X038033Y009972
X037033Y007972
X038033Y011972
X020033Y019972
X016433Y019972
X029033Y000972
X010433Y019972
X037033Y019972
X038033Y012972
T104
X019033Y015722
X017033Y018722
X026533Y012972
X017033Y015722
X022033Y018722
X023033Y015722
X019033Y018722
X018033Y015722
X009474Y005722
X016033Y015722
X018033Y018722
X009474Y003951
X027533Y012972
X026533Y009972
X016033Y018722
X027533Y009972
X012033Y003951
X023033Y018722
X028533Y009972
X012033Y005722
X028533Y012972
X021033Y018722
X022033Y015722
X020033Y018722
X020033Y015722
X021033Y015722
X029533Y009972
X029533Y012972
T00
M30
