G04 MADE WITH FRITZING*
G04 WWW.FRITZING.ORG*
G04 DOUBLE SIDED*
G04 HOLES PLATED*
G04 CONTOUR ON CENTER OF CONTOUR VECTOR*
%ASAXBY*%
%FSLAX23Y23*%
%MOIN*%
%OFA0B0*%
%SFA1.0B1.0*%
%ADD10C,0.085000*%
%ADD11C,0.088000*%
%ADD12C,0.093307*%
%ADD13C,0.085433*%
%ADD14C,0.084000*%
%ADD15C,0.082917*%
%ADD16R,0.085000X0.085000*%
%ADD17R,0.093307X0.093307*%
%ADD18R,0.125686X0.091052*%
%LNMASK1*%
G90*
G70*
G54D10*
X2653Y997D03*
X2653Y1297D03*
X2753Y997D03*
X2753Y1297D03*
X2853Y997D03*
X2853Y1297D03*
X2953Y997D03*
X2953Y1297D03*
G54D11*
X3503Y697D03*
X3503Y597D03*
X3503Y497D03*
G54D12*
X278Y772D03*
X278Y575D03*
G54D11*
X1503Y810D03*
X1403Y810D03*
X1303Y810D03*
X1203Y810D03*
X1103Y810D03*
G54D13*
X1303Y972D03*
X1203Y972D03*
G54D14*
X2978Y847D03*
X2678Y847D03*
X2978Y847D03*
X2678Y847D03*
G54D13*
X2828Y1847D03*
G54D11*
X2878Y722D03*
X2978Y722D03*
G54D10*
X1203Y395D03*
X947Y395D03*
X1203Y572D03*
X947Y572D03*
G54D13*
X1678Y622D03*
G54D11*
X3503Y897D03*
X3503Y997D03*
X3503Y1097D03*
X3503Y1197D03*
X3503Y1297D03*
X3503Y1397D03*
X3503Y1497D03*
X3503Y1597D03*
G54D15*
X3003Y97D03*
X1403Y97D03*
X3103Y97D03*
X3203Y97D03*
X3303Y97D03*
X3403Y97D03*
X3703Y1497D03*
X3503Y97D03*
X3603Y97D03*
X1443Y1997D03*
X2003Y97D03*
X2103Y97D03*
X2203Y97D03*
X2303Y97D03*
X3703Y697D03*
X2403Y97D03*
X2503Y97D03*
X2603Y97D03*
X2703Y97D03*
X2203Y1997D03*
X3703Y1897D03*
X3703Y1097D03*
X3703Y297D03*
X1043Y1997D03*
X1803Y97D03*
X1803Y1997D03*
X3703Y1697D03*
X3703Y1297D03*
X3703Y897D03*
X3403Y1997D03*
X3703Y497D03*
X3303Y1997D03*
X3203Y1997D03*
X3103Y1997D03*
X3003Y1997D03*
X2903Y1997D03*
X2803Y1997D03*
X2703Y1997D03*
X843Y1997D03*
X1243Y1997D03*
X1643Y1997D03*
X1203Y97D03*
X1603Y97D03*
X2403Y1997D03*
X2003Y1997D03*
X3703Y1997D03*
X3703Y1797D03*
X3703Y1597D03*
X3703Y1397D03*
X3703Y1197D03*
X3703Y997D03*
X3703Y797D03*
X3703Y597D03*
X3703Y397D03*
X743Y1997D03*
X943Y1997D03*
X1143Y1997D03*
X1343Y1997D03*
X1543Y1997D03*
X1103Y97D03*
X1303Y97D03*
X1503Y97D03*
X1703Y97D03*
X2503Y1997D03*
X2303Y1997D03*
X2103Y1997D03*
X1903Y1997D03*
X3803Y1997D03*
X3803Y1897D03*
X3803Y1797D03*
X3803Y1697D03*
X3803Y1597D03*
X3803Y1497D03*
X3803Y1397D03*
X3803Y1297D03*
X3803Y1197D03*
X3803Y1097D03*
X3803Y997D03*
X3803Y897D03*
X3803Y797D03*
X3803Y697D03*
X3803Y597D03*
X3803Y497D03*
X3803Y397D03*
X3803Y297D03*
X2903Y97D03*
G54D11*
X3203Y1760D03*
X3303Y1760D03*
X3403Y1760D03*
X3503Y1760D03*
G54D10*
X2303Y1872D03*
X2303Y1572D03*
X2203Y1872D03*
X2203Y1572D03*
X2103Y1872D03*
X2103Y1572D03*
X2003Y1872D03*
X2003Y1572D03*
X1903Y1872D03*
X1903Y1572D03*
X1803Y1872D03*
X1803Y1572D03*
X1703Y1872D03*
X1703Y1572D03*
X1603Y1872D03*
X1603Y1572D03*
G54D11*
X1603Y1172D03*
X1703Y1172D03*
X1803Y1172D03*
X1903Y1172D03*
X2003Y1172D03*
X2103Y1172D03*
X2203Y1172D03*
X2303Y1172D03*
X1803Y322D03*
X1903Y322D03*
X2003Y322D03*
X2103Y322D03*
X2203Y322D03*
X2303Y322D03*
X2403Y322D03*
G54D16*
X2653Y997D03*
G54D17*
X278Y772D03*
G54D18*
X278Y972D03*
G54D16*
X2303Y1872D03*
G04 End of Mask1*
M02*