G04 MADE WITH FRITZING*
G04 WWW.FRITZING.ORG*
G04 DOUBLE SIDED*
G04 HOLES PLATED*
G04 CONTOUR ON CENTER OF CONTOUR VECTOR*
%ASAXBY*%
%FSLAX23Y23*%
%MOIN*%
%OFA0B0*%
%SFA1.0B1.0*%
%ADD10C,0.075000*%
%ADD11C,0.078000*%
%ADD12C,0.083307*%
%ADD13C,0.075433*%
%ADD14C,0.074000*%
%ADD15C,0.072917*%
%ADD16R,0.075000X0.075000*%
%ADD17R,0.083307X0.083307*%
%ADD18R,0.062992X0.074803*%
%ADD19R,0.074803X0.062992*%
%ADD20C,0.048000*%
%LNCOPPER0*%
G90*
G70*
G54D10*
X3517Y1988D03*
X3402Y1594D03*
X128Y2008D03*
X1610Y332D03*
X2653Y997D03*
X2653Y1297D03*
X2753Y997D03*
X2753Y1297D03*
X2853Y997D03*
X2853Y1297D03*
X2953Y997D03*
X2953Y1297D03*
G54D11*
X3503Y697D03*
X3503Y597D03*
X3503Y497D03*
G54D12*
X278Y772D03*
X278Y575D03*
G54D11*
X1503Y810D03*
X1403Y810D03*
X1303Y810D03*
X1203Y810D03*
X1103Y810D03*
G54D13*
X1303Y972D03*
X1203Y972D03*
G54D14*
X2978Y847D03*
X2678Y847D03*
G54D13*
X2828Y1847D03*
G54D11*
X2878Y722D03*
X2978Y722D03*
G54D10*
X1203Y395D03*
X947Y395D03*
X1203Y572D03*
X947Y572D03*
G54D13*
X1678Y622D03*
G54D11*
X3503Y897D03*
X3503Y997D03*
X3503Y1097D03*
X3503Y1197D03*
X3503Y1297D03*
X3503Y1397D03*
X3503Y1497D03*
X3503Y1597D03*
G54D15*
X3003Y97D03*
X1403Y97D03*
X3103Y97D03*
X3203Y97D03*
X3303Y97D03*
X3403Y97D03*
X3703Y1497D03*
X3503Y97D03*
X3603Y97D03*
X1443Y1997D03*
X2003Y97D03*
X2103Y97D03*
X2203Y97D03*
X2303Y97D03*
X3703Y697D03*
X2403Y97D03*
X2503Y97D03*
X2603Y97D03*
X2703Y97D03*
X2203Y1997D03*
X3703Y1897D03*
X3703Y1097D03*
X3703Y297D03*
X1043Y1997D03*
X1803Y97D03*
X1803Y1997D03*
X3703Y1697D03*
X3703Y1297D03*
X3703Y897D03*
X3403Y1997D03*
X3703Y497D03*
X3303Y1997D03*
X3203Y1997D03*
X3103Y1997D03*
X3003Y1997D03*
X2903Y1997D03*
X2803Y1997D03*
X2703Y1997D03*
X843Y1997D03*
X1243Y1997D03*
X1643Y1997D03*
X1203Y97D03*
X1603Y97D03*
X2403Y1997D03*
X2003Y1997D03*
X3703Y1997D03*
X3703Y1797D03*
X3703Y1597D03*
X3703Y1397D03*
X3703Y1197D03*
X3703Y997D03*
X3703Y797D03*
X3703Y597D03*
X3703Y397D03*
X743Y1997D03*
X943Y1997D03*
X1143Y1997D03*
X1343Y1997D03*
X1543Y1997D03*
X1103Y97D03*
X1303Y97D03*
X1503Y97D03*
X1703Y97D03*
X2503Y1997D03*
X2303Y1997D03*
X2103Y1997D03*
X1903Y1997D03*
X3803Y1997D03*
X3803Y1897D03*
X3803Y1797D03*
X3803Y1697D03*
X3803Y1597D03*
X3803Y1497D03*
X3803Y1397D03*
X3803Y1297D03*
X3803Y1197D03*
X3803Y1097D03*
X3803Y997D03*
X3803Y897D03*
X3803Y797D03*
X3803Y697D03*
X3803Y597D03*
X3803Y497D03*
X3803Y397D03*
X3803Y297D03*
X2903Y97D03*
G54D11*
X3203Y1760D03*
X3303Y1760D03*
X3403Y1760D03*
X3503Y1760D03*
G54D10*
X2303Y1872D03*
X2303Y1572D03*
X2203Y1872D03*
X2203Y1572D03*
X2103Y1872D03*
X2103Y1572D03*
X2003Y1872D03*
X2003Y1572D03*
X1903Y1872D03*
X1903Y1572D03*
X1803Y1872D03*
X1803Y1572D03*
X1703Y1872D03*
X1703Y1572D03*
X1603Y1872D03*
X1603Y1572D03*
G54D11*
X1603Y1172D03*
X1703Y1172D03*
X1803Y1172D03*
X1903Y1172D03*
X2003Y1172D03*
X2103Y1172D03*
X2203Y1172D03*
X2303Y1172D03*
X1803Y322D03*
X1903Y322D03*
X2003Y322D03*
X2103Y322D03*
X2203Y322D03*
X2303Y322D03*
X2403Y322D03*
G54D16*
X2653Y997D03*
G54D17*
X278Y772D03*
G54D18*
X2705Y1536D03*
X2827Y1536D03*
X2753Y722D03*
X2631Y722D03*
G54D16*
X2303Y1872D03*
G54D19*
X2303Y1444D03*
X2303Y1322D03*
X2203Y1444D03*
X2203Y1322D03*
X2103Y1444D03*
X2103Y1322D03*
X2003Y1444D03*
X2003Y1322D03*
X1903Y1444D03*
X1903Y1322D03*
X1803Y1444D03*
X1803Y1322D03*
X1703Y1444D03*
X1703Y1322D03*
G54D20*
X2829Y1398D02*
X2827Y1504D01*
D02*
X2844Y1336D02*
X2829Y1398D01*
D02*
X2827Y1697D02*
X2827Y1568D01*
D02*
X3662Y697D02*
X3545Y697D01*
D02*
X3662Y597D02*
X3545Y597D01*
D02*
X1303Y139D02*
X1302Y346D01*
D02*
X1302Y346D02*
X1239Y378D01*
D02*
X1502Y1122D02*
X1503Y851D01*
D02*
X1541Y1161D02*
X1502Y1122D01*
D02*
X1563Y1165D02*
X1541Y1161D01*
D02*
X1403Y769D02*
X1403Y139D01*
D02*
X1203Y851D02*
X1203Y932D01*
D02*
X1303Y851D02*
X1303Y932D01*
D02*
X2752Y897D02*
X2718Y848D01*
D02*
X2753Y958D02*
X2752Y897D01*
D02*
X2718Y848D02*
X2718Y848D01*
D02*
X2902Y848D02*
X2938Y848D01*
D02*
X2852Y897D02*
X2902Y848D01*
D02*
X2853Y958D02*
X2852Y897D01*
D02*
X2678Y1398D02*
X2663Y1336D01*
D02*
X2668Y1595D02*
X2678Y1398D01*
D02*
X2664Y1758D02*
X2668Y1595D01*
D02*
X2668Y1595D02*
X2685Y1568D01*
D02*
X2837Y722D02*
X2779Y722D01*
D02*
X2629Y809D02*
X2630Y754D01*
D02*
X2647Y823D02*
X2629Y809D01*
D02*
X2978Y807D02*
X2978Y764D01*
D02*
X3578Y1499D02*
X3605Y1521D01*
D02*
X3605Y1521D02*
X3604Y1960D01*
D02*
X3604Y1960D02*
X3641Y1997D01*
D02*
X3641Y1997D02*
X3662Y1997D01*
D02*
X3545Y1498D02*
X3578Y1499D01*
D02*
X3662Y897D02*
X3545Y897D01*
D02*
X3662Y997D02*
X3545Y997D01*
D02*
X3662Y1097D02*
X3545Y1097D01*
D02*
X3662Y1197D02*
X3545Y1197D01*
D02*
X3662Y1297D02*
X3545Y1297D01*
D02*
X3662Y1397D02*
X3545Y1397D01*
D02*
X2303Y1912D02*
X2303Y1956D01*
D02*
X2203Y1912D02*
X2203Y1956D01*
D02*
X2103Y1912D02*
X2103Y1956D01*
D02*
X2003Y1912D02*
X2003Y1956D01*
D02*
X1803Y1912D02*
X1803Y1956D01*
D02*
X1704Y1946D02*
X1675Y1971D01*
D02*
X1704Y1912D02*
X1704Y1946D01*
D02*
X1903Y1912D02*
X1903Y1956D01*
D02*
X1703Y1214D02*
X1703Y1296D01*
D02*
X1803Y1214D02*
X1803Y1296D01*
D02*
X1903Y1214D02*
X1903Y1296D01*
D02*
X2003Y1214D02*
X2003Y1296D01*
D02*
X2103Y1214D02*
X2103Y1296D01*
D02*
X2203Y1214D02*
X2203Y1296D01*
D02*
X2303Y1214D02*
X2303Y1296D01*
D02*
X1703Y1533D02*
X1703Y1470D01*
D02*
X1803Y1533D02*
X1803Y1470D01*
D02*
X1903Y1533D02*
X1903Y1470D01*
D02*
X2003Y1533D02*
X2003Y1470D01*
D02*
X2103Y1533D02*
X2103Y1470D01*
D02*
X2203Y1533D02*
X2203Y1470D01*
D02*
X2303Y1533D02*
X2303Y1470D01*
D02*
X1603Y1214D02*
X1603Y1533D01*
D02*
X1603Y1709D02*
X1603Y1612D01*
D02*
X1654Y1761D02*
X1603Y1709D01*
D02*
X2664Y1758D02*
X1654Y1761D01*
D02*
X1503Y769D02*
X1503Y139D01*
D02*
X2003Y281D02*
X2003Y139D01*
D02*
X2103Y281D02*
X2103Y139D01*
D02*
X2203Y281D02*
X2203Y139D01*
D02*
X2303Y281D02*
X2303Y139D01*
D02*
X2403Y281D02*
X2403Y139D01*
D02*
X1729Y323D02*
X1703Y296D01*
D02*
X1703Y296D02*
X1703Y139D01*
D02*
X1762Y322D02*
X1729Y323D01*
D02*
X1503Y373D02*
X1553Y423D01*
D02*
X1553Y423D02*
X1830Y423D01*
D02*
X1503Y139D02*
X1503Y373D01*
D02*
X1830Y423D02*
X1877Y396D01*
D02*
X1877Y396D02*
X1890Y361D01*
D02*
X3302Y1546D02*
X3303Y1719D01*
D02*
X3354Y1497D02*
X3302Y1546D01*
D02*
X3462Y1497D02*
X3354Y1497D01*
D02*
X2827Y1697D02*
X2828Y1807D01*
D02*
X3303Y1956D02*
X3303Y1948D01*
D02*
X3303Y1948D02*
X3404Y1822D01*
D02*
X3404Y1822D02*
X3404Y1801D01*
D02*
X3503Y1822D02*
X3503Y1801D01*
D02*
X3404Y1948D02*
X3503Y1822D01*
D02*
X3404Y1956D02*
X3404Y1948D01*
G36*
X762Y2061D02*
X762Y2041D01*
X766Y2041D01*
X766Y2039D01*
X770Y2039D01*
X770Y2037D01*
X772Y2037D01*
X772Y2035D01*
X774Y2035D01*
X774Y2033D01*
X778Y2033D01*
X778Y2029D01*
X780Y2029D01*
X780Y2027D01*
X782Y2027D01*
X782Y2025D01*
X784Y2025D01*
X784Y2023D01*
X804Y2023D01*
X804Y2027D01*
X806Y2027D01*
X806Y2029D01*
X808Y2029D01*
X808Y2031D01*
X810Y2031D01*
X810Y2033D01*
X812Y2033D01*
X812Y2035D01*
X814Y2035D01*
X814Y2037D01*
X818Y2037D01*
X818Y2039D01*
X822Y2039D01*
X822Y2041D01*
X824Y2041D01*
X824Y2061D01*
X762Y2061D01*
G37*
D02*
G36*
X862Y2061D02*
X862Y2041D01*
X866Y2041D01*
X866Y2039D01*
X870Y2039D01*
X870Y2037D01*
X872Y2037D01*
X872Y2035D01*
X874Y2035D01*
X874Y2033D01*
X878Y2033D01*
X878Y2029D01*
X880Y2029D01*
X880Y2027D01*
X882Y2027D01*
X882Y2025D01*
X884Y2025D01*
X884Y2023D01*
X904Y2023D01*
X904Y2027D01*
X906Y2027D01*
X906Y2029D01*
X908Y2029D01*
X908Y2031D01*
X910Y2031D01*
X910Y2033D01*
X912Y2033D01*
X912Y2035D01*
X914Y2035D01*
X914Y2037D01*
X918Y2037D01*
X918Y2039D01*
X922Y2039D01*
X922Y2041D01*
X924Y2041D01*
X924Y2061D01*
X862Y2061D01*
G37*
D02*
G36*
X962Y2061D02*
X962Y2041D01*
X966Y2041D01*
X966Y2039D01*
X970Y2039D01*
X970Y2037D01*
X972Y2037D01*
X972Y2035D01*
X974Y2035D01*
X974Y2033D01*
X978Y2033D01*
X978Y2029D01*
X980Y2029D01*
X980Y2027D01*
X982Y2027D01*
X982Y2025D01*
X984Y2025D01*
X984Y2023D01*
X1004Y2023D01*
X1004Y2027D01*
X1006Y2027D01*
X1006Y2029D01*
X1008Y2029D01*
X1008Y2031D01*
X1010Y2031D01*
X1010Y2033D01*
X1012Y2033D01*
X1012Y2035D01*
X1014Y2035D01*
X1014Y2037D01*
X1018Y2037D01*
X1018Y2039D01*
X1022Y2039D01*
X1022Y2041D01*
X1024Y2041D01*
X1024Y2061D01*
X962Y2061D01*
G37*
D02*
G36*
X1062Y2061D02*
X1062Y2041D01*
X1066Y2041D01*
X1066Y2039D01*
X1070Y2039D01*
X1070Y2037D01*
X1072Y2037D01*
X1072Y2035D01*
X1074Y2035D01*
X1074Y2033D01*
X1078Y2033D01*
X1078Y2029D01*
X1080Y2029D01*
X1080Y2027D01*
X1082Y2027D01*
X1082Y2025D01*
X1084Y2025D01*
X1084Y2023D01*
X1104Y2023D01*
X1104Y2027D01*
X1106Y2027D01*
X1106Y2029D01*
X1108Y2029D01*
X1108Y2031D01*
X1110Y2031D01*
X1110Y2033D01*
X1112Y2033D01*
X1112Y2035D01*
X1114Y2035D01*
X1114Y2037D01*
X1118Y2037D01*
X1118Y2039D01*
X1122Y2039D01*
X1122Y2041D01*
X1124Y2041D01*
X1124Y2061D01*
X1062Y2061D01*
G37*
D02*
G36*
X1162Y2061D02*
X1162Y2041D01*
X1166Y2041D01*
X1166Y2039D01*
X1170Y2039D01*
X1170Y2037D01*
X1172Y2037D01*
X1172Y2035D01*
X1174Y2035D01*
X1174Y2033D01*
X1178Y2033D01*
X1178Y2029D01*
X1180Y2029D01*
X1180Y2027D01*
X1182Y2027D01*
X1182Y2025D01*
X1184Y2025D01*
X1184Y2023D01*
X1204Y2023D01*
X1204Y2027D01*
X1206Y2027D01*
X1206Y2029D01*
X1208Y2029D01*
X1208Y2031D01*
X1210Y2031D01*
X1210Y2033D01*
X1212Y2033D01*
X1212Y2035D01*
X1214Y2035D01*
X1214Y2037D01*
X1218Y2037D01*
X1218Y2039D01*
X1222Y2039D01*
X1222Y2041D01*
X1224Y2041D01*
X1224Y2061D01*
X1162Y2061D01*
G37*
D02*
G36*
X1262Y2061D02*
X1262Y2041D01*
X1266Y2041D01*
X1266Y2039D01*
X1270Y2039D01*
X1270Y2037D01*
X1272Y2037D01*
X1272Y2035D01*
X1274Y2035D01*
X1274Y2033D01*
X1278Y2033D01*
X1278Y2029D01*
X1280Y2029D01*
X1280Y2027D01*
X1282Y2027D01*
X1282Y2025D01*
X1284Y2025D01*
X1284Y2023D01*
X1304Y2023D01*
X1304Y2027D01*
X1306Y2027D01*
X1306Y2029D01*
X1308Y2029D01*
X1308Y2031D01*
X1310Y2031D01*
X1310Y2033D01*
X1312Y2033D01*
X1312Y2035D01*
X1314Y2035D01*
X1314Y2037D01*
X1318Y2037D01*
X1318Y2039D01*
X1322Y2039D01*
X1322Y2041D01*
X1324Y2041D01*
X1324Y2061D01*
X1262Y2061D01*
G37*
D02*
G36*
X1362Y2061D02*
X1362Y2041D01*
X1366Y2041D01*
X1366Y2039D01*
X1370Y2039D01*
X1370Y2037D01*
X1372Y2037D01*
X1372Y2035D01*
X1374Y2035D01*
X1374Y2033D01*
X1378Y2033D01*
X1378Y2029D01*
X1380Y2029D01*
X1380Y2027D01*
X1382Y2027D01*
X1382Y2025D01*
X1384Y2025D01*
X1384Y2023D01*
X1404Y2023D01*
X1404Y2027D01*
X1406Y2027D01*
X1406Y2029D01*
X1408Y2029D01*
X1408Y2031D01*
X1410Y2031D01*
X1410Y2033D01*
X1412Y2033D01*
X1412Y2035D01*
X1414Y2035D01*
X1414Y2037D01*
X1418Y2037D01*
X1418Y2039D01*
X1422Y2039D01*
X1422Y2041D01*
X1424Y2041D01*
X1424Y2061D01*
X1362Y2061D01*
G37*
D02*
G36*
X1462Y2061D02*
X1462Y2041D01*
X1466Y2041D01*
X1466Y2039D01*
X1470Y2039D01*
X1470Y2037D01*
X1472Y2037D01*
X1472Y2035D01*
X1474Y2035D01*
X1474Y2033D01*
X1478Y2033D01*
X1478Y2029D01*
X1480Y2029D01*
X1480Y2027D01*
X1482Y2027D01*
X1482Y2025D01*
X1484Y2025D01*
X1484Y2023D01*
X1504Y2023D01*
X1504Y2027D01*
X1506Y2027D01*
X1506Y2029D01*
X1508Y2029D01*
X1508Y2031D01*
X1510Y2031D01*
X1510Y2033D01*
X1512Y2033D01*
X1512Y2035D01*
X1514Y2035D01*
X1514Y2037D01*
X1518Y2037D01*
X1518Y2039D01*
X1522Y2039D01*
X1522Y2041D01*
X1524Y2041D01*
X1524Y2061D01*
X1462Y2061D01*
G37*
D02*
G36*
X1562Y2061D02*
X1562Y2041D01*
X1566Y2041D01*
X1566Y2039D01*
X1570Y2039D01*
X1570Y2037D01*
X1572Y2037D01*
X1572Y2035D01*
X1574Y2035D01*
X1574Y2033D01*
X1578Y2033D01*
X1578Y2029D01*
X1580Y2029D01*
X1580Y2027D01*
X1582Y2027D01*
X1582Y2025D01*
X1584Y2025D01*
X1584Y2023D01*
X1604Y2023D01*
X1604Y2027D01*
X1606Y2027D01*
X1606Y2029D01*
X1608Y2029D01*
X1608Y2031D01*
X1610Y2031D01*
X1610Y2033D01*
X1612Y2033D01*
X1612Y2035D01*
X1614Y2035D01*
X1614Y2037D01*
X1618Y2037D01*
X1618Y2039D01*
X1622Y2039D01*
X1622Y2041D01*
X1624Y2041D01*
X1624Y2061D01*
X1562Y2061D01*
G37*
D02*
G36*
X1662Y2061D02*
X1662Y2041D01*
X1666Y2041D01*
X1666Y2039D01*
X1670Y2039D01*
X1670Y2037D01*
X1672Y2037D01*
X1672Y2035D01*
X1674Y2035D01*
X1674Y2033D01*
X1678Y2033D01*
X1678Y2029D01*
X1680Y2029D01*
X1680Y2027D01*
X1682Y2027D01*
X1682Y2025D01*
X1684Y2025D01*
X1684Y2021D01*
X1686Y2021D01*
X1686Y2017D01*
X1688Y2017D01*
X1688Y2013D01*
X1690Y2013D01*
X1690Y2005D01*
X1692Y2005D01*
X1692Y2001D01*
X1696Y2001D01*
X1696Y1999D01*
X1698Y1999D01*
X1698Y1997D01*
X1700Y1997D01*
X1700Y1995D01*
X1702Y1995D01*
X1702Y1993D01*
X1706Y1993D01*
X1706Y1991D01*
X1708Y1991D01*
X1708Y1989D01*
X1710Y1989D01*
X1710Y1987D01*
X1712Y1987D01*
X1712Y1985D01*
X1714Y1985D01*
X1714Y1983D01*
X1718Y1983D01*
X1718Y1981D01*
X1720Y1981D01*
X1720Y1979D01*
X1722Y1979D01*
X1722Y1977D01*
X1724Y1977D01*
X1724Y1975D01*
X1726Y1975D01*
X1726Y1973D01*
X1728Y1973D01*
X1728Y1971D01*
X1730Y1971D01*
X1730Y1969D01*
X1732Y1969D01*
X1732Y1967D01*
X1734Y1967D01*
X1734Y1963D01*
X1736Y1963D01*
X1736Y1959D01*
X1738Y1959D01*
X1738Y1953D01*
X1740Y1953D01*
X1740Y1905D01*
X1742Y1905D01*
X1742Y1901D01*
X1764Y1901D01*
X1764Y1903D01*
X1766Y1903D01*
X1766Y1905D01*
X1768Y1905D01*
X1768Y1965D01*
X1766Y1965D01*
X1766Y1969D01*
X1764Y1969D01*
X1764Y1971D01*
X1762Y1971D01*
X1762Y1975D01*
X1760Y1975D01*
X1760Y1977D01*
X1758Y1977D01*
X1758Y1985D01*
X1756Y1985D01*
X1756Y1995D01*
X1754Y1995D01*
X1754Y1999D01*
X1756Y1999D01*
X1756Y2011D01*
X1758Y2011D01*
X1758Y2017D01*
X1760Y2017D01*
X1760Y2021D01*
X1762Y2021D01*
X1762Y2023D01*
X1764Y2023D01*
X1764Y2027D01*
X1766Y2027D01*
X1766Y2029D01*
X1768Y2029D01*
X1768Y2031D01*
X1770Y2031D01*
X1770Y2033D01*
X1772Y2033D01*
X1772Y2035D01*
X1774Y2035D01*
X1774Y2037D01*
X1778Y2037D01*
X1778Y2039D01*
X1782Y2039D01*
X1782Y2041D01*
X1784Y2041D01*
X1784Y2061D01*
X1662Y2061D01*
G37*
D02*
G36*
X1822Y2061D02*
X1822Y2041D01*
X1826Y2041D01*
X1826Y2039D01*
X1830Y2039D01*
X1830Y2037D01*
X1832Y2037D01*
X1832Y2035D01*
X1834Y2035D01*
X1834Y2033D01*
X1838Y2033D01*
X1838Y2029D01*
X1840Y2029D01*
X1840Y2027D01*
X1842Y2027D01*
X1842Y2025D01*
X1844Y2025D01*
X1844Y2023D01*
X1864Y2023D01*
X1864Y2027D01*
X1866Y2027D01*
X1866Y2029D01*
X1868Y2029D01*
X1868Y2031D01*
X1870Y2031D01*
X1870Y2033D01*
X1872Y2033D01*
X1872Y2035D01*
X1874Y2035D01*
X1874Y2037D01*
X1878Y2037D01*
X1878Y2039D01*
X1882Y2039D01*
X1882Y2041D01*
X1884Y2041D01*
X1884Y2061D01*
X1822Y2061D01*
G37*
D02*
G36*
X1922Y2061D02*
X1922Y2041D01*
X1926Y2041D01*
X1926Y2039D01*
X1930Y2039D01*
X1930Y2037D01*
X1932Y2037D01*
X1932Y2035D01*
X1934Y2035D01*
X1934Y2033D01*
X1938Y2033D01*
X1938Y2029D01*
X1940Y2029D01*
X1940Y2027D01*
X1942Y2027D01*
X1942Y2025D01*
X1944Y2025D01*
X1944Y2023D01*
X1964Y2023D01*
X1964Y2027D01*
X1966Y2027D01*
X1966Y2029D01*
X1968Y2029D01*
X1968Y2031D01*
X1970Y2031D01*
X1970Y2033D01*
X1972Y2033D01*
X1972Y2035D01*
X1974Y2035D01*
X1974Y2037D01*
X1978Y2037D01*
X1978Y2039D01*
X1982Y2039D01*
X1982Y2041D01*
X1984Y2041D01*
X1984Y2061D01*
X1922Y2061D01*
G37*
D02*
G36*
X2022Y2061D02*
X2022Y2041D01*
X2026Y2041D01*
X2026Y2039D01*
X2030Y2039D01*
X2030Y2037D01*
X2032Y2037D01*
X2032Y2035D01*
X2034Y2035D01*
X2034Y2033D01*
X2038Y2033D01*
X2038Y2029D01*
X2040Y2029D01*
X2040Y2027D01*
X2042Y2027D01*
X2042Y2025D01*
X2044Y2025D01*
X2044Y2023D01*
X2064Y2023D01*
X2064Y2027D01*
X2066Y2027D01*
X2066Y2029D01*
X2068Y2029D01*
X2068Y2031D01*
X2070Y2031D01*
X2070Y2033D01*
X2072Y2033D01*
X2072Y2035D01*
X2074Y2035D01*
X2074Y2037D01*
X2078Y2037D01*
X2078Y2039D01*
X2080Y2039D01*
X2080Y2041D01*
X2084Y2041D01*
X2084Y2061D01*
X2022Y2061D01*
G37*
D02*
G36*
X2122Y2061D02*
X2122Y2041D01*
X2126Y2041D01*
X2126Y2039D01*
X2130Y2039D01*
X2130Y2037D01*
X2132Y2037D01*
X2132Y2035D01*
X2134Y2035D01*
X2134Y2033D01*
X2138Y2033D01*
X2138Y2029D01*
X2140Y2029D01*
X2140Y2027D01*
X2142Y2027D01*
X2142Y2025D01*
X2144Y2025D01*
X2144Y2023D01*
X2164Y2023D01*
X2164Y2027D01*
X2166Y2027D01*
X2166Y2029D01*
X2168Y2029D01*
X2168Y2031D01*
X2170Y2031D01*
X2170Y2033D01*
X2172Y2033D01*
X2172Y2035D01*
X2174Y2035D01*
X2174Y2037D01*
X2178Y2037D01*
X2178Y2039D01*
X2182Y2039D01*
X2182Y2041D01*
X2184Y2041D01*
X2184Y2061D01*
X2122Y2061D01*
G37*
D02*
G36*
X2222Y2061D02*
X2222Y2041D01*
X2226Y2041D01*
X2226Y2039D01*
X2230Y2039D01*
X2230Y2037D01*
X2232Y2037D01*
X2232Y2035D01*
X2234Y2035D01*
X2234Y2033D01*
X2238Y2033D01*
X2238Y2029D01*
X2240Y2029D01*
X2240Y2027D01*
X2242Y2027D01*
X2242Y2025D01*
X2244Y2025D01*
X2244Y2023D01*
X2264Y2023D01*
X2264Y2027D01*
X2266Y2027D01*
X2266Y2029D01*
X2268Y2029D01*
X2268Y2031D01*
X2270Y2031D01*
X2270Y2033D01*
X2272Y2033D01*
X2272Y2035D01*
X2274Y2035D01*
X2274Y2037D01*
X2278Y2037D01*
X2278Y2039D01*
X2282Y2039D01*
X2282Y2041D01*
X2284Y2041D01*
X2284Y2061D01*
X2222Y2061D01*
G37*
D02*
G36*
X2322Y2061D02*
X2322Y2041D01*
X2326Y2041D01*
X2326Y2039D01*
X2330Y2039D01*
X2330Y2037D01*
X2332Y2037D01*
X2332Y2035D01*
X2334Y2035D01*
X2334Y2033D01*
X2338Y2033D01*
X2338Y2029D01*
X2340Y2029D01*
X2340Y2027D01*
X2342Y2027D01*
X2342Y2025D01*
X2344Y2025D01*
X2344Y2023D01*
X2364Y2023D01*
X2364Y2027D01*
X2366Y2027D01*
X2366Y2029D01*
X2368Y2029D01*
X2368Y2031D01*
X2370Y2031D01*
X2370Y2033D01*
X2372Y2033D01*
X2372Y2035D01*
X2374Y2035D01*
X2374Y2037D01*
X2378Y2037D01*
X2378Y2039D01*
X2382Y2039D01*
X2382Y2041D01*
X2384Y2041D01*
X2384Y2061D01*
X2322Y2061D01*
G37*
D02*
G36*
X2422Y2061D02*
X2422Y2041D01*
X2426Y2041D01*
X2426Y2039D01*
X2430Y2039D01*
X2430Y2037D01*
X2432Y2037D01*
X2432Y2035D01*
X2434Y2035D01*
X2434Y2033D01*
X2438Y2033D01*
X2438Y2029D01*
X2440Y2029D01*
X2440Y2027D01*
X2442Y2027D01*
X2442Y2025D01*
X2444Y2025D01*
X2444Y2023D01*
X2464Y2023D01*
X2464Y2027D01*
X2466Y2027D01*
X2466Y2029D01*
X2468Y2029D01*
X2468Y2031D01*
X2470Y2031D01*
X2470Y2033D01*
X2472Y2033D01*
X2472Y2035D01*
X2474Y2035D01*
X2474Y2037D01*
X2478Y2037D01*
X2478Y2039D01*
X2482Y2039D01*
X2482Y2041D01*
X2484Y2041D01*
X2484Y2061D01*
X2422Y2061D01*
G37*
D02*
G36*
X2722Y2061D02*
X2722Y2041D01*
X2726Y2041D01*
X2726Y2039D01*
X2730Y2039D01*
X2730Y2037D01*
X2732Y2037D01*
X2732Y2035D01*
X2734Y2035D01*
X2734Y2033D01*
X2738Y2033D01*
X2738Y2029D01*
X2740Y2029D01*
X2740Y2027D01*
X2742Y2027D01*
X2742Y2025D01*
X2744Y2025D01*
X2744Y2023D01*
X2764Y2023D01*
X2764Y2027D01*
X2766Y2027D01*
X2766Y2029D01*
X2768Y2029D01*
X2768Y2031D01*
X2770Y2031D01*
X2770Y2033D01*
X2772Y2033D01*
X2772Y2035D01*
X2774Y2035D01*
X2774Y2037D01*
X2778Y2037D01*
X2778Y2039D01*
X2782Y2039D01*
X2782Y2041D01*
X2784Y2041D01*
X2784Y2061D01*
X2722Y2061D01*
G37*
D02*
G36*
X2822Y2061D02*
X2822Y2041D01*
X2826Y2041D01*
X2826Y2039D01*
X2830Y2039D01*
X2830Y2037D01*
X2832Y2037D01*
X2832Y2035D01*
X2834Y2035D01*
X2834Y2033D01*
X2838Y2033D01*
X2838Y2029D01*
X2840Y2029D01*
X2840Y2027D01*
X2842Y2027D01*
X2842Y2025D01*
X2844Y2025D01*
X2844Y2023D01*
X2864Y2023D01*
X2864Y2027D01*
X2866Y2027D01*
X2866Y2029D01*
X2868Y2029D01*
X2868Y2031D01*
X2870Y2031D01*
X2870Y2033D01*
X2872Y2033D01*
X2872Y2035D01*
X2874Y2035D01*
X2874Y2037D01*
X2878Y2037D01*
X2878Y2039D01*
X2882Y2039D01*
X2882Y2041D01*
X2884Y2041D01*
X2884Y2061D01*
X2822Y2061D01*
G37*
D02*
G36*
X2922Y2061D02*
X2922Y2041D01*
X2926Y2041D01*
X2926Y2039D01*
X2930Y2039D01*
X2930Y2037D01*
X2932Y2037D01*
X2932Y2035D01*
X2934Y2035D01*
X2934Y2033D01*
X2938Y2033D01*
X2938Y2029D01*
X2940Y2029D01*
X2940Y2027D01*
X2942Y2027D01*
X2942Y2025D01*
X2944Y2025D01*
X2944Y2023D01*
X2964Y2023D01*
X2964Y2027D01*
X2966Y2027D01*
X2966Y2029D01*
X2968Y2029D01*
X2968Y2031D01*
X2970Y2031D01*
X2970Y2033D01*
X2972Y2033D01*
X2972Y2035D01*
X2974Y2035D01*
X2974Y2037D01*
X2978Y2037D01*
X2978Y2039D01*
X2982Y2039D01*
X2982Y2041D01*
X2984Y2041D01*
X2984Y2061D01*
X2922Y2061D01*
G37*
D02*
G36*
X3022Y2061D02*
X3022Y2041D01*
X3026Y2041D01*
X3026Y2039D01*
X3030Y2039D01*
X3030Y2037D01*
X3032Y2037D01*
X3032Y2035D01*
X3034Y2035D01*
X3034Y2033D01*
X3038Y2033D01*
X3038Y2029D01*
X3040Y2029D01*
X3040Y2027D01*
X3042Y2027D01*
X3042Y2025D01*
X3044Y2025D01*
X3044Y2023D01*
X3064Y2023D01*
X3064Y2027D01*
X3066Y2027D01*
X3066Y2029D01*
X3068Y2029D01*
X3068Y2031D01*
X3070Y2031D01*
X3070Y2033D01*
X3072Y2033D01*
X3072Y2035D01*
X3074Y2035D01*
X3074Y2037D01*
X3078Y2037D01*
X3078Y2039D01*
X3080Y2039D01*
X3080Y2041D01*
X3084Y2041D01*
X3084Y2061D01*
X3022Y2061D01*
G37*
D02*
G36*
X3122Y2061D02*
X3122Y2041D01*
X3126Y2041D01*
X3126Y2039D01*
X3130Y2039D01*
X3130Y2037D01*
X3132Y2037D01*
X3132Y2035D01*
X3134Y2035D01*
X3134Y2033D01*
X3138Y2033D01*
X3138Y2029D01*
X3140Y2029D01*
X3140Y2027D01*
X3142Y2027D01*
X3142Y2025D01*
X3144Y2025D01*
X3144Y2023D01*
X3164Y2023D01*
X3164Y2027D01*
X3166Y2027D01*
X3166Y2029D01*
X3168Y2029D01*
X3168Y2031D01*
X3170Y2031D01*
X3170Y2033D01*
X3172Y2033D01*
X3172Y2035D01*
X3174Y2035D01*
X3174Y2037D01*
X3178Y2037D01*
X3178Y2039D01*
X3182Y2039D01*
X3182Y2041D01*
X3184Y2041D01*
X3184Y2061D01*
X3122Y2061D01*
G37*
D02*
G36*
X3222Y2061D02*
X3222Y2041D01*
X3226Y2041D01*
X3226Y2039D01*
X3230Y2039D01*
X3230Y2037D01*
X3232Y2037D01*
X3232Y2035D01*
X3234Y2035D01*
X3234Y2033D01*
X3238Y2033D01*
X3238Y2029D01*
X3240Y2029D01*
X3240Y2027D01*
X3242Y2027D01*
X3242Y2025D01*
X3244Y2025D01*
X3244Y2023D01*
X3264Y2023D01*
X3264Y2027D01*
X3266Y2027D01*
X3266Y2029D01*
X3268Y2029D01*
X3268Y2031D01*
X3270Y2031D01*
X3270Y2033D01*
X3272Y2033D01*
X3272Y2035D01*
X3274Y2035D01*
X3274Y2037D01*
X3278Y2037D01*
X3278Y2039D01*
X3282Y2039D01*
X3282Y2041D01*
X3284Y2041D01*
X3284Y2061D01*
X3222Y2061D01*
G37*
D02*
G36*
X3322Y2061D02*
X3322Y2041D01*
X3326Y2041D01*
X3326Y2039D01*
X3330Y2039D01*
X3330Y2037D01*
X3332Y2037D01*
X3332Y2035D01*
X3334Y2035D01*
X3334Y2033D01*
X3338Y2033D01*
X3338Y2029D01*
X3340Y2029D01*
X3340Y2027D01*
X3342Y2027D01*
X3342Y2025D01*
X3344Y2025D01*
X3344Y2023D01*
X3364Y2023D01*
X3364Y2027D01*
X3366Y2027D01*
X3366Y2029D01*
X3368Y2029D01*
X3368Y2031D01*
X3370Y2031D01*
X3370Y2033D01*
X3372Y2033D01*
X3372Y2035D01*
X3374Y2035D01*
X3374Y2037D01*
X3378Y2037D01*
X3378Y2039D01*
X3382Y2039D01*
X3382Y2041D01*
X3384Y2041D01*
X3384Y2061D01*
X3322Y2061D01*
G37*
D02*
G36*
X3422Y2061D02*
X3422Y2041D01*
X3426Y2041D01*
X3426Y2039D01*
X3430Y2039D01*
X3430Y2037D01*
X3432Y2037D01*
X3432Y2035D01*
X3434Y2035D01*
X3434Y2033D01*
X3438Y2033D01*
X3438Y2029D01*
X3440Y2029D01*
X3440Y2027D01*
X3442Y2027D01*
X3442Y2025D01*
X3444Y2025D01*
X3444Y2021D01*
X3446Y2021D01*
X3446Y2017D01*
X3448Y2017D01*
X3448Y2013D01*
X3450Y2013D01*
X3450Y2005D01*
X3452Y2005D01*
X3452Y1989D01*
X3450Y1989D01*
X3450Y1981D01*
X3448Y1981D01*
X3448Y1977D01*
X3446Y1977D01*
X3446Y1973D01*
X3444Y1973D01*
X3444Y1953D01*
X3446Y1953D01*
X3446Y1951D01*
X3448Y1951D01*
X3448Y1949D01*
X3450Y1949D01*
X3450Y1947D01*
X3452Y1947D01*
X3452Y1943D01*
X3454Y1943D01*
X3454Y1941D01*
X3456Y1941D01*
X3456Y1939D01*
X3458Y1939D01*
X3458Y1937D01*
X3460Y1937D01*
X3460Y1933D01*
X3462Y1933D01*
X3462Y1931D01*
X3464Y1931D01*
X3464Y1929D01*
X3466Y1929D01*
X3466Y1925D01*
X3468Y1925D01*
X3468Y1923D01*
X3470Y1923D01*
X3470Y1921D01*
X3472Y1921D01*
X3472Y1919D01*
X3474Y1919D01*
X3474Y1915D01*
X3476Y1915D01*
X3476Y1913D01*
X3478Y1913D01*
X3478Y1911D01*
X3480Y1911D01*
X3480Y1909D01*
X3482Y1909D01*
X3482Y1905D01*
X3484Y1905D01*
X3484Y1903D01*
X3486Y1903D01*
X3486Y1901D01*
X3488Y1901D01*
X3488Y1897D01*
X3490Y1897D01*
X3490Y1895D01*
X3492Y1895D01*
X3492Y1893D01*
X3494Y1893D01*
X3494Y1891D01*
X3496Y1891D01*
X3496Y1887D01*
X3498Y1887D01*
X3498Y1885D01*
X3500Y1885D01*
X3500Y1883D01*
X3502Y1883D01*
X3502Y1881D01*
X3504Y1881D01*
X3504Y1877D01*
X3506Y1877D01*
X3506Y1875D01*
X3508Y1875D01*
X3508Y1873D01*
X3510Y1873D01*
X3510Y1869D01*
X3512Y1869D01*
X3512Y1867D01*
X3514Y1867D01*
X3514Y1865D01*
X3516Y1865D01*
X3516Y1863D01*
X3518Y1863D01*
X3518Y1859D01*
X3520Y1859D01*
X3520Y1857D01*
X3522Y1857D01*
X3522Y1855D01*
X3524Y1855D01*
X3524Y1853D01*
X3526Y1853D01*
X3526Y1849D01*
X3528Y1849D01*
X3528Y1847D01*
X3530Y1847D01*
X3530Y1845D01*
X3532Y1845D01*
X3532Y1841D01*
X3534Y1841D01*
X3534Y1839D01*
X3536Y1839D01*
X3536Y1833D01*
X3538Y1833D01*
X3538Y1817D01*
X3540Y1817D01*
X3540Y1793D01*
X3542Y1793D01*
X3542Y1791D01*
X3544Y1791D01*
X3544Y1789D01*
X3546Y1789D01*
X3546Y1785D01*
X3548Y1785D01*
X3548Y1783D01*
X3568Y1783D01*
X3568Y1969D01*
X3570Y1969D01*
X3570Y1975D01*
X3572Y1975D01*
X3572Y1979D01*
X3574Y1979D01*
X3574Y1981D01*
X3576Y1981D01*
X3576Y1983D01*
X3578Y1983D01*
X3578Y1987D01*
X3580Y1987D01*
X3580Y1989D01*
X3582Y1989D01*
X3582Y1991D01*
X3584Y1991D01*
X3584Y1993D01*
X3586Y1993D01*
X3586Y1995D01*
X3588Y1995D01*
X3588Y1997D01*
X3590Y1997D01*
X3590Y1999D01*
X3592Y1999D01*
X3592Y2001D01*
X3594Y2001D01*
X3594Y2003D01*
X3596Y2003D01*
X3596Y2005D01*
X3598Y2005D01*
X3598Y2007D01*
X3600Y2007D01*
X3600Y2009D01*
X3602Y2009D01*
X3602Y2011D01*
X3604Y2011D01*
X3604Y2013D01*
X3606Y2013D01*
X3606Y2015D01*
X3608Y2015D01*
X3608Y2017D01*
X3610Y2017D01*
X3610Y2019D01*
X3612Y2019D01*
X3612Y2021D01*
X3614Y2021D01*
X3614Y2023D01*
X3618Y2023D01*
X3618Y2025D01*
X3620Y2025D01*
X3620Y2027D01*
X3622Y2027D01*
X3622Y2029D01*
X3626Y2029D01*
X3626Y2031D01*
X3632Y2031D01*
X3632Y2033D01*
X3672Y2033D01*
X3672Y2035D01*
X3674Y2035D01*
X3674Y2037D01*
X3678Y2037D01*
X3678Y2039D01*
X3682Y2039D01*
X3682Y2041D01*
X3684Y2041D01*
X3684Y2061D01*
X3422Y2061D01*
G37*
D02*
G36*
X1844Y1971D02*
X1844Y1969D01*
X1842Y1969D01*
X1842Y1967D01*
X1840Y1967D01*
X1840Y1905D01*
X1842Y1905D01*
X1842Y1901D01*
X1864Y1901D01*
X1864Y1903D01*
X1866Y1903D01*
X1866Y1905D01*
X1868Y1905D01*
X1868Y1965D01*
X1866Y1965D01*
X1866Y1969D01*
X1864Y1969D01*
X1864Y1971D01*
X1844Y1971D01*
G37*
D02*
G36*
X1944Y1971D02*
X1944Y1969D01*
X1942Y1969D01*
X1942Y1967D01*
X1940Y1967D01*
X1940Y1905D01*
X1942Y1905D01*
X1942Y1901D01*
X1964Y1901D01*
X1964Y1903D01*
X1966Y1903D01*
X1966Y1905D01*
X1968Y1905D01*
X1968Y1965D01*
X1966Y1965D01*
X1966Y1969D01*
X1964Y1969D01*
X1964Y1971D01*
X1944Y1971D01*
G37*
D02*
G36*
X2044Y1971D02*
X2044Y1969D01*
X2042Y1969D01*
X2042Y1967D01*
X2040Y1967D01*
X2040Y1905D01*
X2042Y1905D01*
X2042Y1901D01*
X2064Y1901D01*
X2064Y1903D01*
X2066Y1903D01*
X2066Y1905D01*
X2068Y1905D01*
X2068Y1965D01*
X2066Y1965D01*
X2066Y1969D01*
X2064Y1969D01*
X2064Y1971D01*
X2044Y1971D01*
G37*
D02*
G36*
X2144Y1971D02*
X2144Y1969D01*
X2142Y1969D01*
X2142Y1967D01*
X2140Y1967D01*
X2140Y1905D01*
X2142Y1905D01*
X2142Y1901D01*
X2164Y1901D01*
X2164Y1903D01*
X2166Y1903D01*
X2166Y1905D01*
X2168Y1905D01*
X2168Y1965D01*
X2166Y1965D01*
X2166Y1969D01*
X2164Y1969D01*
X2164Y1971D01*
X2144Y1971D01*
G37*
D02*
G36*
X2244Y1971D02*
X2244Y1969D01*
X2242Y1969D01*
X2242Y1967D01*
X2240Y1967D01*
X2240Y1921D01*
X2268Y1921D01*
X2268Y1965D01*
X2266Y1965D01*
X2266Y1969D01*
X2264Y1969D01*
X2264Y1971D01*
X2244Y1971D01*
G37*
D02*
G36*
X3640Y1877D02*
X3640Y1817D01*
X3660Y1817D01*
X3660Y1821D01*
X3662Y1821D01*
X3662Y1823D01*
X3664Y1823D01*
X3664Y1827D01*
X3666Y1827D01*
X3666Y1829D01*
X3668Y1829D01*
X3668Y1831D01*
X3670Y1831D01*
X3670Y1833D01*
X3672Y1833D01*
X3672Y1835D01*
X3674Y1835D01*
X3674Y1837D01*
X3678Y1837D01*
X3678Y1857D01*
X3676Y1857D01*
X3676Y1859D01*
X3672Y1859D01*
X3672Y1861D01*
X3670Y1861D01*
X3670Y1863D01*
X3668Y1863D01*
X3668Y1865D01*
X3666Y1865D01*
X3666Y1869D01*
X3664Y1869D01*
X3664Y1871D01*
X3662Y1871D01*
X3662Y1875D01*
X3660Y1875D01*
X3660Y1877D01*
X3640Y1877D01*
G37*
D02*
G36*
X3640Y1777D02*
X3640Y1717D01*
X3660Y1717D01*
X3660Y1721D01*
X3662Y1721D01*
X3662Y1723D01*
X3664Y1723D01*
X3664Y1727D01*
X3666Y1727D01*
X3666Y1729D01*
X3668Y1729D01*
X3668Y1731D01*
X3670Y1731D01*
X3670Y1733D01*
X3672Y1733D01*
X3672Y1735D01*
X3674Y1735D01*
X3674Y1737D01*
X3678Y1737D01*
X3678Y1757D01*
X3676Y1757D01*
X3676Y1759D01*
X3672Y1759D01*
X3672Y1761D01*
X3670Y1761D01*
X3670Y1763D01*
X3668Y1763D01*
X3668Y1765D01*
X3666Y1765D01*
X3666Y1769D01*
X3664Y1769D01*
X3664Y1771D01*
X3662Y1771D01*
X3662Y1775D01*
X3660Y1775D01*
X3660Y1777D01*
X3640Y1777D01*
G37*
D02*
G36*
X3548Y1737D02*
X3548Y1733D01*
X3546Y1733D01*
X3546Y1731D01*
X3544Y1731D01*
X3544Y1729D01*
X3542Y1729D01*
X3542Y1725D01*
X3540Y1725D01*
X3540Y1723D01*
X3538Y1723D01*
X3538Y1721D01*
X3534Y1721D01*
X3534Y1719D01*
X3532Y1719D01*
X3532Y1717D01*
X3528Y1717D01*
X3528Y1715D01*
X3526Y1715D01*
X3526Y1713D01*
X3520Y1713D01*
X3520Y1711D01*
X3514Y1711D01*
X3514Y1709D01*
X3568Y1709D01*
X3568Y1737D01*
X3548Y1737D01*
G37*
D02*
G36*
X3342Y1729D02*
X3342Y1725D01*
X3340Y1725D01*
X3340Y1709D01*
X3392Y1709D01*
X3392Y1711D01*
X3386Y1711D01*
X3386Y1713D01*
X3382Y1713D01*
X3382Y1715D01*
X3378Y1715D01*
X3378Y1717D01*
X3374Y1717D01*
X3374Y1719D01*
X3372Y1719D01*
X3372Y1721D01*
X3370Y1721D01*
X3370Y1723D01*
X3368Y1723D01*
X3368Y1725D01*
X3366Y1725D01*
X3366Y1727D01*
X3364Y1727D01*
X3364Y1729D01*
X3342Y1729D01*
G37*
D02*
G36*
X3442Y1729D02*
X3442Y1725D01*
X3440Y1725D01*
X3440Y1723D01*
X3438Y1723D01*
X3438Y1721D01*
X3434Y1721D01*
X3434Y1719D01*
X3432Y1719D01*
X3432Y1717D01*
X3428Y1717D01*
X3428Y1715D01*
X3426Y1715D01*
X3426Y1713D01*
X3420Y1713D01*
X3420Y1711D01*
X3414Y1711D01*
X3414Y1709D01*
X3492Y1709D01*
X3492Y1711D01*
X3486Y1711D01*
X3486Y1713D01*
X3482Y1713D01*
X3482Y1715D01*
X3478Y1715D01*
X3478Y1717D01*
X3474Y1717D01*
X3474Y1719D01*
X3472Y1719D01*
X3472Y1721D01*
X3470Y1721D01*
X3470Y1723D01*
X3468Y1723D01*
X3468Y1725D01*
X3466Y1725D01*
X3466Y1727D01*
X3464Y1727D01*
X3464Y1729D01*
X3442Y1729D01*
G37*
D02*
G36*
X3340Y1709D02*
X3340Y1707D01*
X3568Y1707D01*
X3568Y1709D01*
X3340Y1709D01*
G37*
D02*
G36*
X3340Y1709D02*
X3340Y1707D01*
X3568Y1707D01*
X3568Y1709D01*
X3340Y1709D01*
G37*
D02*
G36*
X3340Y1709D02*
X3340Y1707D01*
X3568Y1707D01*
X3568Y1709D01*
X3340Y1709D01*
G37*
D02*
G36*
X3340Y1707D02*
X3340Y1681D01*
X3338Y1681D01*
X3338Y1649D01*
X3508Y1649D01*
X3508Y1647D01*
X3518Y1647D01*
X3518Y1645D01*
X3524Y1645D01*
X3524Y1643D01*
X3528Y1643D01*
X3528Y1641D01*
X3530Y1641D01*
X3530Y1639D01*
X3534Y1639D01*
X3534Y1637D01*
X3536Y1637D01*
X3536Y1635D01*
X3538Y1635D01*
X3538Y1633D01*
X3540Y1633D01*
X3540Y1631D01*
X3542Y1631D01*
X3542Y1629D01*
X3544Y1629D01*
X3544Y1627D01*
X3546Y1627D01*
X3546Y1623D01*
X3548Y1623D01*
X3548Y1619D01*
X3568Y1619D01*
X3568Y1707D01*
X3340Y1707D01*
G37*
D02*
G36*
X3338Y1649D02*
X3338Y1561D01*
X3340Y1561D01*
X3340Y1559D01*
X3342Y1559D01*
X3342Y1557D01*
X3344Y1557D01*
X3344Y1555D01*
X3346Y1555D01*
X3346Y1553D01*
X3348Y1553D01*
X3348Y1551D01*
X3350Y1551D01*
X3350Y1549D01*
X3352Y1549D01*
X3352Y1547D01*
X3354Y1547D01*
X3354Y1545D01*
X3356Y1545D01*
X3356Y1543D01*
X3358Y1543D01*
X3358Y1541D01*
X3362Y1541D01*
X3362Y1539D01*
X3364Y1539D01*
X3364Y1537D01*
X3366Y1537D01*
X3366Y1535D01*
X3368Y1535D01*
X3368Y1533D01*
X3468Y1533D01*
X3468Y1535D01*
X3470Y1535D01*
X3470Y1537D01*
X3474Y1537D01*
X3474Y1557D01*
X3472Y1557D01*
X3472Y1559D01*
X3468Y1559D01*
X3468Y1561D01*
X3466Y1561D01*
X3466Y1565D01*
X3464Y1565D01*
X3464Y1567D01*
X3462Y1567D01*
X3462Y1569D01*
X3460Y1569D01*
X3460Y1573D01*
X3458Y1573D01*
X3458Y1577D01*
X3456Y1577D01*
X3456Y1581D01*
X3454Y1581D01*
X3454Y1591D01*
X3452Y1591D01*
X3452Y1605D01*
X3454Y1605D01*
X3454Y1613D01*
X3456Y1613D01*
X3456Y1619D01*
X3458Y1619D01*
X3458Y1621D01*
X3460Y1621D01*
X3460Y1625D01*
X3462Y1625D01*
X3462Y1629D01*
X3464Y1629D01*
X3464Y1631D01*
X3466Y1631D01*
X3466Y1633D01*
X3468Y1633D01*
X3468Y1635D01*
X3470Y1635D01*
X3470Y1637D01*
X3474Y1637D01*
X3474Y1639D01*
X3476Y1639D01*
X3476Y1641D01*
X3480Y1641D01*
X3480Y1643D01*
X3484Y1643D01*
X3484Y1645D01*
X3488Y1645D01*
X3488Y1647D01*
X3498Y1647D01*
X3498Y1649D01*
X3338Y1649D01*
G37*
D02*
G36*
X3640Y1677D02*
X3640Y1617D01*
X3660Y1617D01*
X3660Y1621D01*
X3662Y1621D01*
X3662Y1623D01*
X3664Y1623D01*
X3664Y1627D01*
X3666Y1627D01*
X3666Y1629D01*
X3668Y1629D01*
X3668Y1631D01*
X3670Y1631D01*
X3670Y1633D01*
X3672Y1633D01*
X3672Y1635D01*
X3674Y1635D01*
X3674Y1637D01*
X3678Y1637D01*
X3678Y1657D01*
X3676Y1657D01*
X3676Y1659D01*
X3672Y1659D01*
X3672Y1661D01*
X3670Y1661D01*
X3670Y1663D01*
X3668Y1663D01*
X3668Y1665D01*
X3666Y1665D01*
X3666Y1669D01*
X3664Y1669D01*
X3664Y1671D01*
X3662Y1671D01*
X3662Y1675D01*
X3660Y1675D01*
X3660Y1677D01*
X3640Y1677D01*
G37*
D02*
G36*
X3640Y1577D02*
X3640Y1517D01*
X3660Y1517D01*
X3660Y1521D01*
X3662Y1521D01*
X3662Y1523D01*
X3664Y1523D01*
X3664Y1527D01*
X3666Y1527D01*
X3666Y1529D01*
X3668Y1529D01*
X3668Y1531D01*
X3670Y1531D01*
X3670Y1533D01*
X3672Y1533D01*
X3672Y1535D01*
X3674Y1535D01*
X3674Y1537D01*
X3678Y1537D01*
X3678Y1557D01*
X3676Y1557D01*
X3676Y1559D01*
X3672Y1559D01*
X3672Y1561D01*
X3670Y1561D01*
X3670Y1563D01*
X3668Y1563D01*
X3668Y1565D01*
X3666Y1565D01*
X3666Y1569D01*
X3664Y1569D01*
X3664Y1571D01*
X3662Y1571D01*
X3662Y1575D01*
X3660Y1575D01*
X3660Y1577D01*
X3640Y1577D01*
G37*
D02*
G36*
X1642Y1543D02*
X1642Y1541D01*
X1640Y1541D01*
X1640Y1487D01*
X1668Y1487D01*
X1668Y1539D01*
X1666Y1539D01*
X1666Y1541D01*
X1664Y1541D01*
X1664Y1543D01*
X1642Y1543D01*
G37*
D02*
G36*
X1742Y1543D02*
X1742Y1541D01*
X1740Y1541D01*
X1740Y1487D01*
X1768Y1487D01*
X1768Y1539D01*
X1766Y1539D01*
X1766Y1541D01*
X1764Y1541D01*
X1764Y1543D01*
X1742Y1543D01*
G37*
D02*
G36*
X1842Y1543D02*
X1842Y1541D01*
X1840Y1541D01*
X1840Y1487D01*
X1868Y1487D01*
X1868Y1539D01*
X1866Y1539D01*
X1866Y1541D01*
X1864Y1541D01*
X1864Y1543D01*
X1842Y1543D01*
G37*
D02*
G36*
X1942Y1543D02*
X1942Y1541D01*
X1940Y1541D01*
X1940Y1487D01*
X1968Y1487D01*
X1968Y1539D01*
X1966Y1539D01*
X1966Y1541D01*
X1964Y1541D01*
X1964Y1543D01*
X1942Y1543D01*
G37*
D02*
G36*
X2042Y1543D02*
X2042Y1541D01*
X2040Y1541D01*
X2040Y1487D01*
X2068Y1487D01*
X2068Y1539D01*
X2066Y1539D01*
X2066Y1541D01*
X2064Y1541D01*
X2064Y1543D01*
X2042Y1543D01*
G37*
D02*
G36*
X2142Y1543D02*
X2142Y1541D01*
X2140Y1541D01*
X2140Y1487D01*
X2168Y1487D01*
X2168Y1539D01*
X2166Y1539D01*
X2166Y1541D01*
X2164Y1541D01*
X2164Y1543D01*
X2142Y1543D01*
G37*
D02*
G36*
X2242Y1543D02*
X2242Y1541D01*
X2240Y1541D01*
X2240Y1487D01*
X2268Y1487D01*
X2268Y1539D01*
X2266Y1539D01*
X2266Y1541D01*
X2264Y1541D01*
X2264Y1543D01*
X2242Y1543D01*
G37*
D02*
G36*
X3636Y1505D02*
X3636Y1503D01*
X3634Y1503D01*
X3634Y1499D01*
X3632Y1499D01*
X3632Y1497D01*
X3630Y1497D01*
X3630Y1495D01*
X3628Y1495D01*
X3628Y1493D01*
X3626Y1493D01*
X3626Y1491D01*
X3624Y1491D01*
X3624Y1489D01*
X3622Y1489D01*
X3622Y1487D01*
X3618Y1487D01*
X3618Y1485D01*
X3616Y1485D01*
X3616Y1483D01*
X3614Y1483D01*
X3614Y1481D01*
X3612Y1481D01*
X3612Y1479D01*
X3610Y1479D01*
X3610Y1477D01*
X3608Y1477D01*
X3608Y1475D01*
X3604Y1475D01*
X3604Y1473D01*
X3602Y1473D01*
X3602Y1471D01*
X3600Y1471D01*
X3600Y1469D01*
X3596Y1469D01*
X3596Y1467D01*
X3594Y1467D01*
X3594Y1465D01*
X3588Y1465D01*
X3588Y1463D01*
X3540Y1463D01*
X3540Y1461D01*
X3538Y1461D01*
X3538Y1459D01*
X3536Y1459D01*
X3536Y1457D01*
X3534Y1457D01*
X3534Y1437D01*
X3536Y1437D01*
X3536Y1435D01*
X3538Y1435D01*
X3538Y1433D01*
X3672Y1433D01*
X3672Y1435D01*
X3674Y1435D01*
X3674Y1437D01*
X3678Y1437D01*
X3678Y1457D01*
X3676Y1457D01*
X3676Y1459D01*
X3672Y1459D01*
X3672Y1461D01*
X3670Y1461D01*
X3670Y1463D01*
X3668Y1463D01*
X3668Y1465D01*
X3666Y1465D01*
X3666Y1469D01*
X3664Y1469D01*
X3664Y1471D01*
X3662Y1471D01*
X3662Y1475D01*
X3660Y1475D01*
X3660Y1477D01*
X3658Y1477D01*
X3658Y1485D01*
X3656Y1485D01*
X3656Y1495D01*
X3654Y1495D01*
X3654Y1499D01*
X3656Y1499D01*
X3656Y1505D01*
X3636Y1505D01*
G37*
D02*
G36*
X3538Y1361D02*
X3538Y1359D01*
X3536Y1359D01*
X3536Y1357D01*
X3534Y1357D01*
X3534Y1337D01*
X3536Y1337D01*
X3536Y1335D01*
X3538Y1335D01*
X3538Y1333D01*
X3672Y1333D01*
X3672Y1335D01*
X3674Y1335D01*
X3674Y1337D01*
X3678Y1337D01*
X3678Y1357D01*
X3676Y1357D01*
X3676Y1359D01*
X3672Y1359D01*
X3672Y1361D01*
X3538Y1361D01*
G37*
D02*
G36*
X1640Y1279D02*
X1640Y1207D01*
X1642Y1207D01*
X1642Y1203D01*
X1664Y1203D01*
X1664Y1205D01*
X1666Y1205D01*
X1666Y1207D01*
X1668Y1207D01*
X1668Y1279D01*
X1640Y1279D01*
G37*
D02*
G36*
X1740Y1279D02*
X1740Y1207D01*
X1742Y1207D01*
X1742Y1203D01*
X1764Y1203D01*
X1764Y1205D01*
X1766Y1205D01*
X1766Y1207D01*
X1768Y1207D01*
X1768Y1279D01*
X1740Y1279D01*
G37*
D02*
G36*
X1840Y1279D02*
X1840Y1207D01*
X1842Y1207D01*
X1842Y1203D01*
X1864Y1203D01*
X1864Y1205D01*
X1866Y1205D01*
X1866Y1207D01*
X1868Y1207D01*
X1868Y1279D01*
X1840Y1279D01*
G37*
D02*
G36*
X1940Y1279D02*
X1940Y1207D01*
X1942Y1207D01*
X1942Y1203D01*
X1964Y1203D01*
X1964Y1205D01*
X1966Y1205D01*
X1966Y1207D01*
X1968Y1207D01*
X1968Y1279D01*
X1940Y1279D01*
G37*
D02*
G36*
X2040Y1279D02*
X2040Y1207D01*
X2042Y1207D01*
X2042Y1203D01*
X2064Y1203D01*
X2064Y1205D01*
X2066Y1205D01*
X2066Y1207D01*
X2068Y1207D01*
X2068Y1279D01*
X2040Y1279D01*
G37*
D02*
G36*
X2140Y1279D02*
X2140Y1207D01*
X2142Y1207D01*
X2142Y1203D01*
X2164Y1203D01*
X2164Y1205D01*
X2166Y1205D01*
X2166Y1207D01*
X2168Y1207D01*
X2168Y1279D01*
X2140Y1279D01*
G37*
D02*
G36*
X2240Y1279D02*
X2240Y1207D01*
X2242Y1207D01*
X2242Y1203D01*
X2264Y1203D01*
X2264Y1205D01*
X2266Y1205D01*
X2266Y1207D01*
X2268Y1207D01*
X2268Y1279D01*
X2240Y1279D01*
G37*
D02*
G36*
X3538Y1261D02*
X3538Y1259D01*
X3536Y1259D01*
X3536Y1257D01*
X3534Y1257D01*
X3534Y1237D01*
X3536Y1237D01*
X3536Y1235D01*
X3538Y1235D01*
X3538Y1233D01*
X3672Y1233D01*
X3672Y1235D01*
X3674Y1235D01*
X3674Y1237D01*
X3678Y1237D01*
X3678Y1257D01*
X3676Y1257D01*
X3676Y1259D01*
X3672Y1259D01*
X3672Y1261D01*
X3538Y1261D01*
G37*
D02*
G36*
X3538Y1161D02*
X3538Y1159D01*
X3536Y1159D01*
X3536Y1157D01*
X3534Y1157D01*
X3534Y1137D01*
X3536Y1137D01*
X3536Y1135D01*
X3538Y1135D01*
X3538Y1133D01*
X3672Y1133D01*
X3672Y1135D01*
X3674Y1135D01*
X3674Y1137D01*
X3678Y1137D01*
X3678Y1157D01*
X3676Y1157D01*
X3676Y1159D01*
X3672Y1159D01*
X3672Y1161D01*
X3538Y1161D01*
G37*
D02*
G36*
X3538Y1061D02*
X3538Y1059D01*
X3536Y1059D01*
X3536Y1057D01*
X3534Y1057D01*
X3534Y1037D01*
X3536Y1037D01*
X3536Y1035D01*
X3538Y1035D01*
X3538Y1033D01*
X3672Y1033D01*
X3672Y1035D01*
X3674Y1035D01*
X3674Y1037D01*
X3678Y1037D01*
X3678Y1057D01*
X3676Y1057D01*
X3676Y1059D01*
X3672Y1059D01*
X3672Y1061D01*
X3538Y1061D01*
G37*
D02*
G36*
X70Y2061D02*
X70Y2059D01*
X66Y2059D01*
X66Y2057D01*
X64Y2057D01*
X64Y2055D01*
X60Y2055D01*
X60Y2053D01*
X58Y2053D01*
X58Y2051D01*
X56Y2051D01*
X56Y2049D01*
X54Y2049D01*
X54Y2045D01*
X52Y2045D01*
X52Y2041D01*
X50Y2041D01*
X50Y2037D01*
X48Y2037D01*
X48Y1949D01*
X734Y1949D01*
X734Y1951D01*
X726Y1951D01*
X726Y1953D01*
X722Y1953D01*
X722Y1955D01*
X718Y1955D01*
X718Y1957D01*
X716Y1957D01*
X716Y1959D01*
X712Y1959D01*
X712Y1961D01*
X710Y1961D01*
X710Y1963D01*
X708Y1963D01*
X708Y1965D01*
X706Y1965D01*
X706Y1969D01*
X704Y1969D01*
X704Y1971D01*
X702Y1971D01*
X702Y1975D01*
X700Y1975D01*
X700Y1977D01*
X698Y1977D01*
X698Y1985D01*
X696Y1985D01*
X696Y1995D01*
X694Y1995D01*
X694Y1999D01*
X696Y1999D01*
X696Y2011D01*
X698Y2011D01*
X698Y2017D01*
X700Y2017D01*
X700Y2021D01*
X702Y2021D01*
X702Y2023D01*
X704Y2023D01*
X704Y2027D01*
X706Y2027D01*
X706Y2029D01*
X708Y2029D01*
X708Y2031D01*
X710Y2031D01*
X710Y2033D01*
X712Y2033D01*
X712Y2035D01*
X714Y2035D01*
X714Y2037D01*
X718Y2037D01*
X718Y2039D01*
X720Y2039D01*
X720Y2041D01*
X724Y2041D01*
X724Y2061D01*
X70Y2061D01*
G37*
D02*
G36*
X2522Y2061D02*
X2522Y2041D01*
X2526Y2041D01*
X2526Y2039D01*
X2530Y2039D01*
X2530Y2037D01*
X2532Y2037D01*
X2532Y2035D01*
X2534Y2035D01*
X2534Y2033D01*
X2538Y2033D01*
X2538Y2029D01*
X2540Y2029D01*
X2540Y2027D01*
X2542Y2027D01*
X2542Y2025D01*
X2544Y2025D01*
X2544Y2021D01*
X2546Y2021D01*
X2546Y2017D01*
X2548Y2017D01*
X2548Y2013D01*
X2550Y2013D01*
X2550Y2005D01*
X2552Y2005D01*
X2552Y1989D01*
X2550Y1989D01*
X2550Y1981D01*
X2548Y1981D01*
X2548Y1977D01*
X2546Y1977D01*
X2546Y1973D01*
X2544Y1973D01*
X2544Y1969D01*
X2542Y1969D01*
X2542Y1967D01*
X2540Y1967D01*
X2540Y1965D01*
X2538Y1965D01*
X2538Y1963D01*
X2536Y1963D01*
X2536Y1961D01*
X2534Y1961D01*
X2534Y1959D01*
X2532Y1959D01*
X2532Y1957D01*
X2528Y1957D01*
X2528Y1955D01*
X2524Y1955D01*
X2524Y1953D01*
X2520Y1953D01*
X2520Y1951D01*
X2514Y1951D01*
X2514Y1949D01*
X2694Y1949D01*
X2694Y1951D01*
X2686Y1951D01*
X2686Y1953D01*
X2682Y1953D01*
X2682Y1955D01*
X2678Y1955D01*
X2678Y1957D01*
X2676Y1957D01*
X2676Y1959D01*
X2672Y1959D01*
X2672Y1961D01*
X2670Y1961D01*
X2670Y1963D01*
X2668Y1963D01*
X2668Y1965D01*
X2666Y1965D01*
X2666Y1969D01*
X2664Y1969D01*
X2664Y1971D01*
X2662Y1971D01*
X2662Y1975D01*
X2660Y1975D01*
X2660Y1977D01*
X2658Y1977D01*
X2658Y1985D01*
X2656Y1985D01*
X2656Y1995D01*
X2654Y1995D01*
X2654Y1999D01*
X2656Y1999D01*
X2656Y2011D01*
X2658Y2011D01*
X2658Y2017D01*
X2660Y2017D01*
X2660Y2021D01*
X2662Y2021D01*
X2662Y2023D01*
X2664Y2023D01*
X2664Y2027D01*
X2666Y2027D01*
X2666Y2029D01*
X2668Y2029D01*
X2668Y2031D01*
X2670Y2031D01*
X2670Y2033D01*
X2672Y2033D01*
X2672Y2035D01*
X2674Y2035D01*
X2674Y2037D01*
X2678Y2037D01*
X2678Y2039D01*
X2682Y2039D01*
X2682Y2041D01*
X2684Y2041D01*
X2684Y2061D01*
X2522Y2061D01*
G37*
D02*
G36*
X784Y1971D02*
X784Y1969D01*
X782Y1969D01*
X782Y1967D01*
X780Y1967D01*
X780Y1965D01*
X778Y1965D01*
X778Y1963D01*
X776Y1963D01*
X776Y1961D01*
X774Y1961D01*
X774Y1959D01*
X772Y1959D01*
X772Y1957D01*
X768Y1957D01*
X768Y1955D01*
X764Y1955D01*
X764Y1953D01*
X760Y1953D01*
X760Y1951D01*
X754Y1951D01*
X754Y1949D01*
X834Y1949D01*
X834Y1951D01*
X826Y1951D01*
X826Y1953D01*
X822Y1953D01*
X822Y1955D01*
X818Y1955D01*
X818Y1957D01*
X816Y1957D01*
X816Y1959D01*
X812Y1959D01*
X812Y1961D01*
X810Y1961D01*
X810Y1963D01*
X808Y1963D01*
X808Y1965D01*
X806Y1965D01*
X806Y1969D01*
X804Y1969D01*
X804Y1971D01*
X784Y1971D01*
G37*
D02*
G36*
X884Y1971D02*
X884Y1969D01*
X882Y1969D01*
X882Y1967D01*
X880Y1967D01*
X880Y1965D01*
X878Y1965D01*
X878Y1963D01*
X876Y1963D01*
X876Y1961D01*
X874Y1961D01*
X874Y1959D01*
X872Y1959D01*
X872Y1957D01*
X868Y1957D01*
X868Y1955D01*
X864Y1955D01*
X864Y1953D01*
X860Y1953D01*
X860Y1951D01*
X854Y1951D01*
X854Y1949D01*
X934Y1949D01*
X934Y1951D01*
X926Y1951D01*
X926Y1953D01*
X922Y1953D01*
X922Y1955D01*
X918Y1955D01*
X918Y1957D01*
X916Y1957D01*
X916Y1959D01*
X912Y1959D01*
X912Y1961D01*
X910Y1961D01*
X910Y1963D01*
X908Y1963D01*
X908Y1965D01*
X906Y1965D01*
X906Y1969D01*
X904Y1969D01*
X904Y1971D01*
X884Y1971D01*
G37*
D02*
G36*
X984Y1971D02*
X984Y1969D01*
X982Y1969D01*
X982Y1967D01*
X980Y1967D01*
X980Y1965D01*
X978Y1965D01*
X978Y1963D01*
X976Y1963D01*
X976Y1961D01*
X974Y1961D01*
X974Y1959D01*
X972Y1959D01*
X972Y1957D01*
X968Y1957D01*
X968Y1955D01*
X964Y1955D01*
X964Y1953D01*
X960Y1953D01*
X960Y1951D01*
X954Y1951D01*
X954Y1949D01*
X1034Y1949D01*
X1034Y1951D01*
X1026Y1951D01*
X1026Y1953D01*
X1022Y1953D01*
X1022Y1955D01*
X1018Y1955D01*
X1018Y1957D01*
X1016Y1957D01*
X1016Y1959D01*
X1012Y1959D01*
X1012Y1961D01*
X1010Y1961D01*
X1010Y1963D01*
X1008Y1963D01*
X1008Y1965D01*
X1006Y1965D01*
X1006Y1969D01*
X1004Y1969D01*
X1004Y1971D01*
X984Y1971D01*
G37*
D02*
G36*
X1084Y1971D02*
X1084Y1969D01*
X1082Y1969D01*
X1082Y1967D01*
X1080Y1967D01*
X1080Y1965D01*
X1078Y1965D01*
X1078Y1963D01*
X1076Y1963D01*
X1076Y1961D01*
X1074Y1961D01*
X1074Y1959D01*
X1072Y1959D01*
X1072Y1957D01*
X1068Y1957D01*
X1068Y1955D01*
X1064Y1955D01*
X1064Y1953D01*
X1060Y1953D01*
X1060Y1951D01*
X1054Y1951D01*
X1054Y1949D01*
X1134Y1949D01*
X1134Y1951D01*
X1126Y1951D01*
X1126Y1953D01*
X1122Y1953D01*
X1122Y1955D01*
X1118Y1955D01*
X1118Y1957D01*
X1116Y1957D01*
X1116Y1959D01*
X1112Y1959D01*
X1112Y1961D01*
X1110Y1961D01*
X1110Y1963D01*
X1108Y1963D01*
X1108Y1965D01*
X1106Y1965D01*
X1106Y1969D01*
X1104Y1969D01*
X1104Y1971D01*
X1084Y1971D01*
G37*
D02*
G36*
X1184Y1971D02*
X1184Y1969D01*
X1182Y1969D01*
X1182Y1967D01*
X1180Y1967D01*
X1180Y1965D01*
X1178Y1965D01*
X1178Y1963D01*
X1176Y1963D01*
X1176Y1961D01*
X1174Y1961D01*
X1174Y1959D01*
X1172Y1959D01*
X1172Y1957D01*
X1168Y1957D01*
X1168Y1955D01*
X1164Y1955D01*
X1164Y1953D01*
X1160Y1953D01*
X1160Y1951D01*
X1154Y1951D01*
X1154Y1949D01*
X1234Y1949D01*
X1234Y1951D01*
X1226Y1951D01*
X1226Y1953D01*
X1222Y1953D01*
X1222Y1955D01*
X1218Y1955D01*
X1218Y1957D01*
X1216Y1957D01*
X1216Y1959D01*
X1212Y1959D01*
X1212Y1961D01*
X1210Y1961D01*
X1210Y1963D01*
X1208Y1963D01*
X1208Y1965D01*
X1206Y1965D01*
X1206Y1969D01*
X1204Y1969D01*
X1204Y1971D01*
X1184Y1971D01*
G37*
D02*
G36*
X1284Y1971D02*
X1284Y1969D01*
X1282Y1969D01*
X1282Y1967D01*
X1280Y1967D01*
X1280Y1965D01*
X1278Y1965D01*
X1278Y1963D01*
X1276Y1963D01*
X1276Y1961D01*
X1274Y1961D01*
X1274Y1959D01*
X1272Y1959D01*
X1272Y1957D01*
X1268Y1957D01*
X1268Y1955D01*
X1264Y1955D01*
X1264Y1953D01*
X1260Y1953D01*
X1260Y1951D01*
X1254Y1951D01*
X1254Y1949D01*
X1334Y1949D01*
X1334Y1951D01*
X1326Y1951D01*
X1326Y1953D01*
X1322Y1953D01*
X1322Y1955D01*
X1318Y1955D01*
X1318Y1957D01*
X1316Y1957D01*
X1316Y1959D01*
X1312Y1959D01*
X1312Y1961D01*
X1310Y1961D01*
X1310Y1963D01*
X1308Y1963D01*
X1308Y1965D01*
X1306Y1965D01*
X1306Y1969D01*
X1304Y1969D01*
X1304Y1971D01*
X1284Y1971D01*
G37*
D02*
G36*
X1384Y1971D02*
X1384Y1969D01*
X1382Y1969D01*
X1382Y1967D01*
X1380Y1967D01*
X1380Y1965D01*
X1378Y1965D01*
X1378Y1963D01*
X1376Y1963D01*
X1376Y1961D01*
X1374Y1961D01*
X1374Y1959D01*
X1372Y1959D01*
X1372Y1957D01*
X1368Y1957D01*
X1368Y1955D01*
X1364Y1955D01*
X1364Y1953D01*
X1360Y1953D01*
X1360Y1951D01*
X1354Y1951D01*
X1354Y1949D01*
X1434Y1949D01*
X1434Y1951D01*
X1426Y1951D01*
X1426Y1953D01*
X1422Y1953D01*
X1422Y1955D01*
X1418Y1955D01*
X1418Y1957D01*
X1416Y1957D01*
X1416Y1959D01*
X1412Y1959D01*
X1412Y1961D01*
X1410Y1961D01*
X1410Y1963D01*
X1408Y1963D01*
X1408Y1965D01*
X1406Y1965D01*
X1406Y1969D01*
X1404Y1969D01*
X1404Y1971D01*
X1384Y1971D01*
G37*
D02*
G36*
X1484Y1971D02*
X1484Y1969D01*
X1482Y1969D01*
X1482Y1967D01*
X1480Y1967D01*
X1480Y1965D01*
X1478Y1965D01*
X1478Y1963D01*
X1476Y1963D01*
X1476Y1961D01*
X1474Y1961D01*
X1474Y1959D01*
X1472Y1959D01*
X1472Y1957D01*
X1468Y1957D01*
X1468Y1955D01*
X1464Y1955D01*
X1464Y1953D01*
X1460Y1953D01*
X1460Y1951D01*
X1454Y1951D01*
X1454Y1949D01*
X1534Y1949D01*
X1534Y1951D01*
X1526Y1951D01*
X1526Y1953D01*
X1522Y1953D01*
X1522Y1955D01*
X1518Y1955D01*
X1518Y1957D01*
X1516Y1957D01*
X1516Y1959D01*
X1512Y1959D01*
X1512Y1961D01*
X1510Y1961D01*
X1510Y1963D01*
X1508Y1963D01*
X1508Y1965D01*
X1506Y1965D01*
X1506Y1969D01*
X1504Y1969D01*
X1504Y1971D01*
X1484Y1971D01*
G37*
D02*
G36*
X1584Y1971D02*
X1584Y1969D01*
X1582Y1969D01*
X1582Y1967D01*
X1580Y1967D01*
X1580Y1965D01*
X1578Y1965D01*
X1578Y1963D01*
X1576Y1963D01*
X1576Y1961D01*
X1574Y1961D01*
X1574Y1959D01*
X1572Y1959D01*
X1572Y1957D01*
X1568Y1957D01*
X1568Y1955D01*
X1564Y1955D01*
X1564Y1953D01*
X1560Y1953D01*
X1560Y1951D01*
X1554Y1951D01*
X1554Y1949D01*
X1634Y1949D01*
X1634Y1951D01*
X1626Y1951D01*
X1626Y1953D01*
X1622Y1953D01*
X1622Y1955D01*
X1618Y1955D01*
X1618Y1957D01*
X1616Y1957D01*
X1616Y1959D01*
X1612Y1959D01*
X1612Y1961D01*
X1610Y1961D01*
X1610Y1963D01*
X1608Y1963D01*
X1608Y1965D01*
X1606Y1965D01*
X1606Y1969D01*
X1604Y1969D01*
X1604Y1971D01*
X1584Y1971D01*
G37*
D02*
G36*
X2344Y1971D02*
X2344Y1969D01*
X2342Y1969D01*
X2342Y1967D01*
X2340Y1967D01*
X2340Y1949D01*
X2394Y1949D01*
X2394Y1951D01*
X2386Y1951D01*
X2386Y1953D01*
X2382Y1953D01*
X2382Y1955D01*
X2378Y1955D01*
X2378Y1957D01*
X2376Y1957D01*
X2376Y1959D01*
X2372Y1959D01*
X2372Y1961D01*
X2370Y1961D01*
X2370Y1963D01*
X2368Y1963D01*
X2368Y1965D01*
X2366Y1965D01*
X2366Y1969D01*
X2364Y1969D01*
X2364Y1971D01*
X2344Y1971D01*
G37*
D02*
G36*
X2444Y1971D02*
X2444Y1969D01*
X2442Y1969D01*
X2442Y1967D01*
X2440Y1967D01*
X2440Y1965D01*
X2438Y1965D01*
X2438Y1963D01*
X2436Y1963D01*
X2436Y1961D01*
X2434Y1961D01*
X2434Y1959D01*
X2432Y1959D01*
X2432Y1957D01*
X2428Y1957D01*
X2428Y1955D01*
X2424Y1955D01*
X2424Y1953D01*
X2420Y1953D01*
X2420Y1951D01*
X2414Y1951D01*
X2414Y1949D01*
X2494Y1949D01*
X2494Y1951D01*
X2486Y1951D01*
X2486Y1953D01*
X2482Y1953D01*
X2482Y1955D01*
X2478Y1955D01*
X2478Y1957D01*
X2476Y1957D01*
X2476Y1959D01*
X2472Y1959D01*
X2472Y1961D01*
X2470Y1961D01*
X2470Y1963D01*
X2468Y1963D01*
X2468Y1965D01*
X2466Y1965D01*
X2466Y1969D01*
X2464Y1969D01*
X2464Y1971D01*
X2444Y1971D01*
G37*
D02*
G36*
X2744Y1971D02*
X2744Y1969D01*
X2742Y1969D01*
X2742Y1967D01*
X2740Y1967D01*
X2740Y1965D01*
X2738Y1965D01*
X2738Y1963D01*
X2736Y1963D01*
X2736Y1961D01*
X2734Y1961D01*
X2734Y1959D01*
X2732Y1959D01*
X2732Y1957D01*
X2728Y1957D01*
X2728Y1955D01*
X2724Y1955D01*
X2724Y1953D01*
X2720Y1953D01*
X2720Y1951D01*
X2714Y1951D01*
X2714Y1949D01*
X2794Y1949D01*
X2794Y1951D01*
X2786Y1951D01*
X2786Y1953D01*
X2782Y1953D01*
X2782Y1955D01*
X2778Y1955D01*
X2778Y1957D01*
X2776Y1957D01*
X2776Y1959D01*
X2772Y1959D01*
X2772Y1961D01*
X2770Y1961D01*
X2770Y1963D01*
X2768Y1963D01*
X2768Y1965D01*
X2766Y1965D01*
X2766Y1969D01*
X2764Y1969D01*
X2764Y1971D01*
X2744Y1971D01*
G37*
D02*
G36*
X2844Y1971D02*
X2844Y1969D01*
X2842Y1969D01*
X2842Y1967D01*
X2840Y1967D01*
X2840Y1965D01*
X2838Y1965D01*
X2838Y1963D01*
X2836Y1963D01*
X2836Y1961D01*
X2834Y1961D01*
X2834Y1959D01*
X2832Y1959D01*
X2832Y1957D01*
X2828Y1957D01*
X2828Y1955D01*
X2824Y1955D01*
X2824Y1953D01*
X2820Y1953D01*
X2820Y1951D01*
X2814Y1951D01*
X2814Y1949D01*
X2894Y1949D01*
X2894Y1951D01*
X2886Y1951D01*
X2886Y1953D01*
X2882Y1953D01*
X2882Y1955D01*
X2878Y1955D01*
X2878Y1957D01*
X2876Y1957D01*
X2876Y1959D01*
X2872Y1959D01*
X2872Y1961D01*
X2870Y1961D01*
X2870Y1963D01*
X2868Y1963D01*
X2868Y1965D01*
X2866Y1965D01*
X2866Y1969D01*
X2864Y1969D01*
X2864Y1971D01*
X2844Y1971D01*
G37*
D02*
G36*
X2944Y1971D02*
X2944Y1969D01*
X2942Y1969D01*
X2942Y1967D01*
X2940Y1967D01*
X2940Y1965D01*
X2938Y1965D01*
X2938Y1963D01*
X2936Y1963D01*
X2936Y1961D01*
X2934Y1961D01*
X2934Y1959D01*
X2932Y1959D01*
X2932Y1957D01*
X2928Y1957D01*
X2928Y1955D01*
X2924Y1955D01*
X2924Y1953D01*
X2920Y1953D01*
X2920Y1951D01*
X2914Y1951D01*
X2914Y1949D01*
X2994Y1949D01*
X2994Y1951D01*
X2986Y1951D01*
X2986Y1953D01*
X2982Y1953D01*
X2982Y1955D01*
X2978Y1955D01*
X2978Y1957D01*
X2976Y1957D01*
X2976Y1959D01*
X2972Y1959D01*
X2972Y1961D01*
X2970Y1961D01*
X2970Y1963D01*
X2968Y1963D01*
X2968Y1965D01*
X2966Y1965D01*
X2966Y1969D01*
X2964Y1969D01*
X2964Y1971D01*
X2944Y1971D01*
G37*
D02*
G36*
X3044Y1971D02*
X3044Y1969D01*
X3042Y1969D01*
X3042Y1967D01*
X3040Y1967D01*
X3040Y1965D01*
X3038Y1965D01*
X3038Y1963D01*
X3036Y1963D01*
X3036Y1961D01*
X3034Y1961D01*
X3034Y1959D01*
X3032Y1959D01*
X3032Y1957D01*
X3028Y1957D01*
X3028Y1955D01*
X3024Y1955D01*
X3024Y1953D01*
X3020Y1953D01*
X3020Y1951D01*
X3014Y1951D01*
X3014Y1949D01*
X3094Y1949D01*
X3094Y1951D01*
X3086Y1951D01*
X3086Y1953D01*
X3082Y1953D01*
X3082Y1955D01*
X3078Y1955D01*
X3078Y1957D01*
X3076Y1957D01*
X3076Y1959D01*
X3072Y1959D01*
X3072Y1961D01*
X3070Y1961D01*
X3070Y1963D01*
X3068Y1963D01*
X3068Y1965D01*
X3066Y1965D01*
X3066Y1969D01*
X3064Y1969D01*
X3064Y1971D01*
X3044Y1971D01*
G37*
D02*
G36*
X3144Y1971D02*
X3144Y1969D01*
X3142Y1969D01*
X3142Y1967D01*
X3140Y1967D01*
X3140Y1965D01*
X3138Y1965D01*
X3138Y1963D01*
X3136Y1963D01*
X3136Y1961D01*
X3134Y1961D01*
X3134Y1959D01*
X3132Y1959D01*
X3132Y1957D01*
X3128Y1957D01*
X3128Y1955D01*
X3124Y1955D01*
X3124Y1953D01*
X3120Y1953D01*
X3120Y1951D01*
X3114Y1951D01*
X3114Y1949D01*
X3194Y1949D01*
X3194Y1951D01*
X3186Y1951D01*
X3186Y1953D01*
X3182Y1953D01*
X3182Y1955D01*
X3178Y1955D01*
X3178Y1957D01*
X3176Y1957D01*
X3176Y1959D01*
X3172Y1959D01*
X3172Y1961D01*
X3170Y1961D01*
X3170Y1963D01*
X3168Y1963D01*
X3168Y1965D01*
X3166Y1965D01*
X3166Y1969D01*
X3164Y1969D01*
X3164Y1971D01*
X3144Y1971D01*
G37*
D02*
G36*
X3244Y1971D02*
X3244Y1969D01*
X3242Y1969D01*
X3242Y1967D01*
X3240Y1967D01*
X3240Y1965D01*
X3238Y1965D01*
X3238Y1963D01*
X3236Y1963D01*
X3236Y1961D01*
X3234Y1961D01*
X3234Y1959D01*
X3232Y1959D01*
X3232Y1957D01*
X3228Y1957D01*
X3228Y1955D01*
X3224Y1955D01*
X3224Y1953D01*
X3220Y1953D01*
X3220Y1951D01*
X3214Y1951D01*
X3214Y1949D01*
X3268Y1949D01*
X3268Y1965D01*
X3266Y1965D01*
X3266Y1969D01*
X3264Y1969D01*
X3264Y1971D01*
X3244Y1971D01*
G37*
D02*
G36*
X48Y1949D02*
X48Y1947D01*
X1646Y1947D01*
X1646Y1949D01*
X48Y1949D01*
G37*
D02*
G36*
X48Y1949D02*
X48Y1947D01*
X1646Y1947D01*
X1646Y1949D01*
X48Y1949D01*
G37*
D02*
G36*
X48Y1949D02*
X48Y1947D01*
X1646Y1947D01*
X1646Y1949D01*
X48Y1949D01*
G37*
D02*
G36*
X48Y1949D02*
X48Y1947D01*
X1646Y1947D01*
X1646Y1949D01*
X48Y1949D01*
G37*
D02*
G36*
X48Y1949D02*
X48Y1947D01*
X1646Y1947D01*
X1646Y1949D01*
X48Y1949D01*
G37*
D02*
G36*
X48Y1949D02*
X48Y1947D01*
X1646Y1947D01*
X1646Y1949D01*
X48Y1949D01*
G37*
D02*
G36*
X48Y1949D02*
X48Y1947D01*
X1646Y1947D01*
X1646Y1949D01*
X48Y1949D01*
G37*
D02*
G36*
X48Y1949D02*
X48Y1947D01*
X1646Y1947D01*
X1646Y1949D01*
X48Y1949D01*
G37*
D02*
G36*
X48Y1949D02*
X48Y1947D01*
X1646Y1947D01*
X1646Y1949D01*
X48Y1949D01*
G37*
D02*
G36*
X48Y1949D02*
X48Y1947D01*
X1646Y1947D01*
X1646Y1949D01*
X48Y1949D01*
G37*
D02*
G36*
X2340Y1949D02*
X2340Y1947D01*
X3268Y1947D01*
X3268Y1949D01*
X2340Y1949D01*
G37*
D02*
G36*
X2340Y1949D02*
X2340Y1947D01*
X3268Y1947D01*
X3268Y1949D01*
X2340Y1949D01*
G37*
D02*
G36*
X2340Y1949D02*
X2340Y1947D01*
X3268Y1947D01*
X3268Y1949D01*
X2340Y1949D01*
G37*
D02*
G36*
X2340Y1949D02*
X2340Y1947D01*
X3268Y1947D01*
X3268Y1949D01*
X2340Y1949D01*
G37*
D02*
G36*
X2340Y1949D02*
X2340Y1947D01*
X3268Y1947D01*
X3268Y1949D01*
X2340Y1949D01*
G37*
D02*
G36*
X2340Y1949D02*
X2340Y1947D01*
X3268Y1947D01*
X3268Y1949D01*
X2340Y1949D01*
G37*
D02*
G36*
X2340Y1949D02*
X2340Y1947D01*
X3268Y1947D01*
X3268Y1949D01*
X2340Y1949D01*
G37*
D02*
G36*
X2340Y1949D02*
X2340Y1947D01*
X3268Y1947D01*
X3268Y1949D01*
X2340Y1949D01*
G37*
D02*
G36*
X2340Y1949D02*
X2340Y1947D01*
X3268Y1947D01*
X3268Y1949D01*
X2340Y1949D01*
G37*
D02*
G36*
X48Y1947D02*
X48Y1921D01*
X1616Y1921D01*
X1616Y1919D01*
X1622Y1919D01*
X1622Y1917D01*
X1626Y1917D01*
X1626Y1915D01*
X1630Y1915D01*
X1630Y1913D01*
X1632Y1913D01*
X1632Y1911D01*
X1636Y1911D01*
X1636Y1909D01*
X1638Y1909D01*
X1638Y1907D01*
X1640Y1907D01*
X1640Y1905D01*
X1642Y1905D01*
X1642Y1901D01*
X1664Y1901D01*
X1664Y1903D01*
X1666Y1903D01*
X1666Y1905D01*
X1668Y1905D01*
X1668Y1931D01*
X1664Y1931D01*
X1664Y1933D01*
X1662Y1933D01*
X1662Y1935D01*
X1660Y1935D01*
X1660Y1937D01*
X1658Y1937D01*
X1658Y1939D01*
X1656Y1939D01*
X1656Y1941D01*
X1652Y1941D01*
X1652Y1943D01*
X1650Y1943D01*
X1650Y1945D01*
X1648Y1945D01*
X1648Y1947D01*
X48Y1947D01*
G37*
D02*
G36*
X2340Y1947D02*
X2340Y1921D01*
X2352Y1921D01*
X2352Y1897D01*
X2838Y1897D01*
X2838Y1895D01*
X2844Y1895D01*
X2844Y1893D01*
X2850Y1893D01*
X2850Y1891D01*
X2854Y1891D01*
X2854Y1889D01*
X2856Y1889D01*
X2856Y1887D01*
X2860Y1887D01*
X2860Y1885D01*
X2862Y1885D01*
X2862Y1883D01*
X2864Y1883D01*
X2864Y1881D01*
X2866Y1881D01*
X2866Y1879D01*
X2868Y1879D01*
X2868Y1875D01*
X2870Y1875D01*
X2870Y1873D01*
X2872Y1873D01*
X2872Y1869D01*
X2874Y1869D01*
X2874Y1863D01*
X2876Y1863D01*
X2876Y1857D01*
X2878Y1857D01*
X2878Y1837D01*
X2876Y1837D01*
X2876Y1831D01*
X2874Y1831D01*
X2874Y1825D01*
X2872Y1825D01*
X2872Y1823D01*
X2870Y1823D01*
X2870Y1819D01*
X2868Y1819D01*
X2868Y1817D01*
X2866Y1817D01*
X2866Y1813D01*
X2864Y1813D01*
X2864Y1811D01*
X3312Y1811D01*
X3312Y1809D01*
X3320Y1809D01*
X3320Y1807D01*
X3324Y1807D01*
X3324Y1805D01*
X3328Y1805D01*
X3328Y1803D01*
X3332Y1803D01*
X3332Y1801D01*
X3334Y1801D01*
X3334Y1799D01*
X3336Y1799D01*
X3336Y1797D01*
X3340Y1797D01*
X3340Y1793D01*
X3342Y1793D01*
X3342Y1791D01*
X3364Y1791D01*
X3364Y1793D01*
X3366Y1793D01*
X3366Y1813D01*
X3364Y1813D01*
X3364Y1815D01*
X3362Y1815D01*
X3362Y1817D01*
X3360Y1817D01*
X3360Y1821D01*
X3358Y1821D01*
X3358Y1823D01*
X3356Y1823D01*
X3356Y1825D01*
X3354Y1825D01*
X3354Y1827D01*
X3352Y1827D01*
X3352Y1831D01*
X3350Y1831D01*
X3350Y1833D01*
X3348Y1833D01*
X3348Y1835D01*
X3346Y1835D01*
X3346Y1837D01*
X3344Y1837D01*
X3344Y1841D01*
X3342Y1841D01*
X3342Y1843D01*
X3340Y1843D01*
X3340Y1845D01*
X3338Y1845D01*
X3338Y1847D01*
X3336Y1847D01*
X3336Y1851D01*
X3334Y1851D01*
X3334Y1853D01*
X3332Y1853D01*
X3332Y1855D01*
X3330Y1855D01*
X3330Y1857D01*
X3328Y1857D01*
X3328Y1861D01*
X3326Y1861D01*
X3326Y1863D01*
X3324Y1863D01*
X3324Y1865D01*
X3322Y1865D01*
X3322Y1867D01*
X3320Y1867D01*
X3320Y1871D01*
X3318Y1871D01*
X3318Y1873D01*
X3316Y1873D01*
X3316Y1875D01*
X3314Y1875D01*
X3314Y1877D01*
X3312Y1877D01*
X3312Y1881D01*
X3310Y1881D01*
X3310Y1883D01*
X3308Y1883D01*
X3308Y1885D01*
X3306Y1885D01*
X3306Y1887D01*
X3304Y1887D01*
X3304Y1891D01*
X3302Y1891D01*
X3302Y1893D01*
X3300Y1893D01*
X3300Y1895D01*
X3298Y1895D01*
X3298Y1899D01*
X3296Y1899D01*
X3296Y1901D01*
X3294Y1901D01*
X3294Y1903D01*
X3292Y1903D01*
X3292Y1905D01*
X3290Y1905D01*
X3290Y1909D01*
X3288Y1909D01*
X3288Y1911D01*
X3286Y1911D01*
X3286Y1913D01*
X3284Y1913D01*
X3284Y1915D01*
X3282Y1915D01*
X3282Y1919D01*
X3280Y1919D01*
X3280Y1921D01*
X3278Y1921D01*
X3278Y1923D01*
X3276Y1923D01*
X3276Y1925D01*
X3274Y1925D01*
X3274Y1929D01*
X3272Y1929D01*
X3272Y1931D01*
X3270Y1931D01*
X3270Y1937D01*
X3268Y1937D01*
X3268Y1947D01*
X2340Y1947D01*
G37*
D02*
G36*
X48Y1921D02*
X48Y1823D01*
X1594Y1823D01*
X1594Y1825D01*
X1586Y1825D01*
X1586Y1827D01*
X1582Y1827D01*
X1582Y1829D01*
X1578Y1829D01*
X1578Y1831D01*
X1574Y1831D01*
X1574Y1833D01*
X1572Y1833D01*
X1572Y1835D01*
X1570Y1835D01*
X1570Y1837D01*
X1568Y1837D01*
X1568Y1839D01*
X1566Y1839D01*
X1566Y1841D01*
X1564Y1841D01*
X1564Y1843D01*
X1562Y1843D01*
X1562Y1847D01*
X1560Y1847D01*
X1560Y1851D01*
X1558Y1851D01*
X1558Y1855D01*
X1556Y1855D01*
X1556Y1863D01*
X1554Y1863D01*
X1554Y1883D01*
X1556Y1883D01*
X1556Y1889D01*
X1558Y1889D01*
X1558Y1893D01*
X1560Y1893D01*
X1560Y1897D01*
X1562Y1897D01*
X1562Y1901D01*
X1564Y1901D01*
X1564Y1903D01*
X1566Y1903D01*
X1566Y1905D01*
X1568Y1905D01*
X1568Y1907D01*
X1570Y1907D01*
X1570Y1909D01*
X1572Y1909D01*
X1572Y1911D01*
X1574Y1911D01*
X1574Y1913D01*
X1578Y1913D01*
X1578Y1915D01*
X1580Y1915D01*
X1580Y1917D01*
X1584Y1917D01*
X1584Y1919D01*
X1592Y1919D01*
X1592Y1921D01*
X48Y1921D01*
G37*
D02*
G36*
X2352Y1897D02*
X2352Y1823D01*
X2784Y1823D01*
X2784Y1827D01*
X2782Y1827D01*
X2782Y1833D01*
X2780Y1833D01*
X2780Y1843D01*
X2778Y1843D01*
X2778Y1853D01*
X2780Y1853D01*
X2780Y1861D01*
X2782Y1861D01*
X2782Y1867D01*
X2784Y1867D01*
X2784Y1871D01*
X2786Y1871D01*
X2786Y1875D01*
X2788Y1875D01*
X2788Y1877D01*
X2790Y1877D01*
X2790Y1879D01*
X2792Y1879D01*
X2792Y1883D01*
X2796Y1883D01*
X2796Y1885D01*
X2798Y1885D01*
X2798Y1887D01*
X2800Y1887D01*
X2800Y1889D01*
X2804Y1889D01*
X2804Y1891D01*
X2808Y1891D01*
X2808Y1893D01*
X2812Y1893D01*
X2812Y1895D01*
X2820Y1895D01*
X2820Y1897D01*
X2352Y1897D01*
G37*
D02*
G36*
X1642Y1843D02*
X1642Y1841D01*
X1640Y1841D01*
X1640Y1839D01*
X1638Y1839D01*
X1638Y1837D01*
X1636Y1837D01*
X1636Y1835D01*
X1634Y1835D01*
X1634Y1833D01*
X1632Y1833D01*
X1632Y1831D01*
X1628Y1831D01*
X1628Y1829D01*
X1624Y1829D01*
X1624Y1827D01*
X1620Y1827D01*
X1620Y1825D01*
X1614Y1825D01*
X1614Y1823D01*
X1694Y1823D01*
X1694Y1825D01*
X1686Y1825D01*
X1686Y1827D01*
X1682Y1827D01*
X1682Y1829D01*
X1678Y1829D01*
X1678Y1831D01*
X1674Y1831D01*
X1674Y1833D01*
X1672Y1833D01*
X1672Y1835D01*
X1670Y1835D01*
X1670Y1837D01*
X1668Y1837D01*
X1668Y1839D01*
X1666Y1839D01*
X1666Y1841D01*
X1664Y1841D01*
X1664Y1843D01*
X1642Y1843D01*
G37*
D02*
G36*
X1742Y1843D02*
X1742Y1841D01*
X1740Y1841D01*
X1740Y1839D01*
X1738Y1839D01*
X1738Y1837D01*
X1736Y1837D01*
X1736Y1835D01*
X1734Y1835D01*
X1734Y1833D01*
X1732Y1833D01*
X1732Y1831D01*
X1728Y1831D01*
X1728Y1829D01*
X1724Y1829D01*
X1724Y1827D01*
X1720Y1827D01*
X1720Y1825D01*
X1714Y1825D01*
X1714Y1823D01*
X1794Y1823D01*
X1794Y1825D01*
X1786Y1825D01*
X1786Y1827D01*
X1782Y1827D01*
X1782Y1829D01*
X1778Y1829D01*
X1778Y1831D01*
X1774Y1831D01*
X1774Y1833D01*
X1772Y1833D01*
X1772Y1835D01*
X1770Y1835D01*
X1770Y1837D01*
X1768Y1837D01*
X1768Y1839D01*
X1766Y1839D01*
X1766Y1841D01*
X1764Y1841D01*
X1764Y1843D01*
X1742Y1843D01*
G37*
D02*
G36*
X1842Y1843D02*
X1842Y1841D01*
X1840Y1841D01*
X1840Y1839D01*
X1838Y1839D01*
X1838Y1837D01*
X1836Y1837D01*
X1836Y1835D01*
X1834Y1835D01*
X1834Y1833D01*
X1832Y1833D01*
X1832Y1831D01*
X1828Y1831D01*
X1828Y1829D01*
X1824Y1829D01*
X1824Y1827D01*
X1820Y1827D01*
X1820Y1825D01*
X1814Y1825D01*
X1814Y1823D01*
X1894Y1823D01*
X1894Y1825D01*
X1886Y1825D01*
X1886Y1827D01*
X1882Y1827D01*
X1882Y1829D01*
X1878Y1829D01*
X1878Y1831D01*
X1874Y1831D01*
X1874Y1833D01*
X1872Y1833D01*
X1872Y1835D01*
X1870Y1835D01*
X1870Y1837D01*
X1868Y1837D01*
X1868Y1839D01*
X1866Y1839D01*
X1866Y1841D01*
X1864Y1841D01*
X1864Y1843D01*
X1842Y1843D01*
G37*
D02*
G36*
X1942Y1843D02*
X1942Y1841D01*
X1940Y1841D01*
X1940Y1839D01*
X1938Y1839D01*
X1938Y1837D01*
X1936Y1837D01*
X1936Y1835D01*
X1934Y1835D01*
X1934Y1833D01*
X1932Y1833D01*
X1932Y1831D01*
X1928Y1831D01*
X1928Y1829D01*
X1924Y1829D01*
X1924Y1827D01*
X1920Y1827D01*
X1920Y1825D01*
X1914Y1825D01*
X1914Y1823D01*
X1994Y1823D01*
X1994Y1825D01*
X1986Y1825D01*
X1986Y1827D01*
X1982Y1827D01*
X1982Y1829D01*
X1978Y1829D01*
X1978Y1831D01*
X1974Y1831D01*
X1974Y1833D01*
X1972Y1833D01*
X1972Y1835D01*
X1970Y1835D01*
X1970Y1837D01*
X1968Y1837D01*
X1968Y1839D01*
X1966Y1839D01*
X1966Y1841D01*
X1964Y1841D01*
X1964Y1843D01*
X1942Y1843D01*
G37*
D02*
G36*
X2042Y1843D02*
X2042Y1841D01*
X2040Y1841D01*
X2040Y1839D01*
X2038Y1839D01*
X2038Y1837D01*
X2036Y1837D01*
X2036Y1835D01*
X2034Y1835D01*
X2034Y1833D01*
X2032Y1833D01*
X2032Y1831D01*
X2028Y1831D01*
X2028Y1829D01*
X2024Y1829D01*
X2024Y1827D01*
X2020Y1827D01*
X2020Y1825D01*
X2014Y1825D01*
X2014Y1823D01*
X2094Y1823D01*
X2094Y1825D01*
X2086Y1825D01*
X2086Y1827D01*
X2082Y1827D01*
X2082Y1829D01*
X2078Y1829D01*
X2078Y1831D01*
X2074Y1831D01*
X2074Y1833D01*
X2072Y1833D01*
X2072Y1835D01*
X2070Y1835D01*
X2070Y1837D01*
X2068Y1837D01*
X2068Y1839D01*
X2066Y1839D01*
X2066Y1841D01*
X2064Y1841D01*
X2064Y1843D01*
X2042Y1843D01*
G37*
D02*
G36*
X2142Y1843D02*
X2142Y1841D01*
X2140Y1841D01*
X2140Y1839D01*
X2138Y1839D01*
X2138Y1837D01*
X2136Y1837D01*
X2136Y1835D01*
X2134Y1835D01*
X2134Y1833D01*
X2132Y1833D01*
X2132Y1831D01*
X2128Y1831D01*
X2128Y1829D01*
X2124Y1829D01*
X2124Y1827D01*
X2120Y1827D01*
X2120Y1825D01*
X2114Y1825D01*
X2114Y1823D01*
X2194Y1823D01*
X2194Y1825D01*
X2186Y1825D01*
X2186Y1827D01*
X2182Y1827D01*
X2182Y1829D01*
X2178Y1829D01*
X2178Y1831D01*
X2174Y1831D01*
X2174Y1833D01*
X2172Y1833D01*
X2172Y1835D01*
X2170Y1835D01*
X2170Y1837D01*
X2168Y1837D01*
X2168Y1839D01*
X2166Y1839D01*
X2166Y1841D01*
X2164Y1841D01*
X2164Y1843D01*
X2142Y1843D01*
G37*
D02*
G36*
X2234Y1835D02*
X2234Y1833D01*
X2232Y1833D01*
X2232Y1831D01*
X2228Y1831D01*
X2228Y1829D01*
X2224Y1829D01*
X2224Y1827D01*
X2220Y1827D01*
X2220Y1825D01*
X2214Y1825D01*
X2214Y1823D01*
X2254Y1823D01*
X2254Y1835D01*
X2234Y1835D01*
G37*
D02*
G36*
X48Y1823D02*
X48Y1821D01*
X2786Y1821D01*
X2786Y1823D01*
X48Y1823D01*
G37*
D02*
G36*
X48Y1823D02*
X48Y1821D01*
X2786Y1821D01*
X2786Y1823D01*
X48Y1823D01*
G37*
D02*
G36*
X48Y1823D02*
X48Y1821D01*
X2786Y1821D01*
X2786Y1823D01*
X48Y1823D01*
G37*
D02*
G36*
X48Y1823D02*
X48Y1821D01*
X2786Y1821D01*
X2786Y1823D01*
X48Y1823D01*
G37*
D02*
G36*
X48Y1823D02*
X48Y1821D01*
X2786Y1821D01*
X2786Y1823D01*
X48Y1823D01*
G37*
D02*
G36*
X48Y1823D02*
X48Y1821D01*
X2786Y1821D01*
X2786Y1823D01*
X48Y1823D01*
G37*
D02*
G36*
X48Y1823D02*
X48Y1821D01*
X2786Y1821D01*
X2786Y1823D01*
X48Y1823D01*
G37*
D02*
G36*
X48Y1823D02*
X48Y1821D01*
X2786Y1821D01*
X2786Y1823D01*
X48Y1823D01*
G37*
D02*
G36*
X48Y1823D02*
X48Y1821D01*
X2786Y1821D01*
X2786Y1823D01*
X48Y1823D01*
G37*
D02*
G36*
X48Y1821D02*
X48Y1797D01*
X1980Y1797D01*
X1980Y1795D01*
X2666Y1795D01*
X2666Y1793D01*
X2676Y1793D01*
X2676Y1791D01*
X2680Y1791D01*
X2680Y1789D01*
X2684Y1789D01*
X2684Y1787D01*
X2686Y1787D01*
X2686Y1785D01*
X2690Y1785D01*
X2690Y1781D01*
X2692Y1781D01*
X2692Y1779D01*
X2694Y1779D01*
X2694Y1777D01*
X2696Y1777D01*
X2696Y1773D01*
X2698Y1773D01*
X2698Y1767D01*
X2700Y1767D01*
X2700Y1723D01*
X2702Y1723D01*
X2702Y1631D01*
X2704Y1631D01*
X2704Y1603D01*
X2706Y1603D01*
X2706Y1599D01*
X2708Y1599D01*
X2708Y1597D01*
X2710Y1597D01*
X2710Y1593D01*
X2712Y1593D01*
X2712Y1591D01*
X2714Y1591D01*
X2714Y1587D01*
X2716Y1587D01*
X2716Y1585D01*
X2748Y1585D01*
X2748Y1487D01*
X2710Y1487D01*
X2710Y1461D01*
X2712Y1461D01*
X2712Y1425D01*
X2714Y1425D01*
X2714Y1389D01*
X2712Y1389D01*
X2712Y1379D01*
X2710Y1379D01*
X2710Y1371D01*
X2708Y1371D01*
X2708Y1363D01*
X2706Y1363D01*
X2706Y1355D01*
X2704Y1355D01*
X2704Y1347D01*
X2762Y1347D01*
X2762Y1345D01*
X2768Y1345D01*
X2768Y1343D01*
X2774Y1343D01*
X2774Y1341D01*
X2778Y1341D01*
X2778Y1339D01*
X2782Y1339D01*
X2782Y1337D01*
X2784Y1337D01*
X2784Y1335D01*
X2786Y1335D01*
X2786Y1333D01*
X2788Y1333D01*
X2788Y1331D01*
X2808Y1331D01*
X2808Y1335D01*
X2806Y1335D01*
X2806Y1343D01*
X2804Y1343D01*
X2804Y1351D01*
X2802Y1351D01*
X2802Y1359D01*
X2800Y1359D01*
X2800Y1367D01*
X2798Y1367D01*
X2798Y1375D01*
X2796Y1375D01*
X2796Y1383D01*
X2794Y1383D01*
X2794Y1395D01*
X2792Y1395D01*
X2792Y1487D01*
X2784Y1487D01*
X2784Y1585D01*
X2792Y1585D01*
X2792Y1815D01*
X2790Y1815D01*
X2790Y1817D01*
X2788Y1817D01*
X2788Y1819D01*
X2786Y1819D01*
X2786Y1821D01*
X48Y1821D01*
G37*
D02*
G36*
X2864Y1811D02*
X2864Y1709D01*
X3192Y1709D01*
X3192Y1711D01*
X3186Y1711D01*
X3186Y1713D01*
X3182Y1713D01*
X3182Y1715D01*
X3178Y1715D01*
X3178Y1717D01*
X3174Y1717D01*
X3174Y1719D01*
X3172Y1719D01*
X3172Y1721D01*
X3170Y1721D01*
X3170Y1723D01*
X3168Y1723D01*
X3168Y1725D01*
X3166Y1725D01*
X3166Y1727D01*
X3164Y1727D01*
X3164Y1729D01*
X3162Y1729D01*
X3162Y1731D01*
X3160Y1731D01*
X3160Y1735D01*
X3158Y1735D01*
X3158Y1739D01*
X3156Y1739D01*
X3156Y1743D01*
X3154Y1743D01*
X3154Y1753D01*
X3152Y1753D01*
X3152Y1767D01*
X3154Y1767D01*
X3154Y1775D01*
X3156Y1775D01*
X3156Y1781D01*
X3158Y1781D01*
X3158Y1785D01*
X3160Y1785D01*
X3160Y1787D01*
X3162Y1787D01*
X3162Y1791D01*
X3164Y1791D01*
X3164Y1793D01*
X3166Y1793D01*
X3166Y1795D01*
X3168Y1795D01*
X3168Y1797D01*
X3170Y1797D01*
X3170Y1799D01*
X3172Y1799D01*
X3172Y1801D01*
X3176Y1801D01*
X3176Y1803D01*
X3178Y1803D01*
X3178Y1805D01*
X3182Y1805D01*
X3182Y1807D01*
X3188Y1807D01*
X3188Y1809D01*
X3196Y1809D01*
X3196Y1811D01*
X2864Y1811D01*
G37*
D02*
G36*
X3212Y1811D02*
X3212Y1809D01*
X3220Y1809D01*
X3220Y1807D01*
X3224Y1807D01*
X3224Y1805D01*
X3228Y1805D01*
X3228Y1803D01*
X3232Y1803D01*
X3232Y1801D01*
X3234Y1801D01*
X3234Y1799D01*
X3236Y1799D01*
X3236Y1797D01*
X3240Y1797D01*
X3240Y1793D01*
X3242Y1793D01*
X3242Y1791D01*
X3264Y1791D01*
X3264Y1793D01*
X3266Y1793D01*
X3266Y1795D01*
X3268Y1795D01*
X3268Y1797D01*
X3270Y1797D01*
X3270Y1799D01*
X3272Y1799D01*
X3272Y1801D01*
X3276Y1801D01*
X3276Y1803D01*
X3278Y1803D01*
X3278Y1805D01*
X3282Y1805D01*
X3282Y1807D01*
X3288Y1807D01*
X3288Y1809D01*
X3296Y1809D01*
X3296Y1811D01*
X3212Y1811D01*
G37*
D02*
G36*
X48Y1797D02*
X48Y1717D01*
X40Y1717D01*
X40Y1325D01*
X48Y1325D01*
X48Y1021D01*
X1316Y1021D01*
X1316Y1019D01*
X1322Y1019D01*
X1322Y1017D01*
X1326Y1017D01*
X1326Y1015D01*
X1330Y1015D01*
X1330Y1013D01*
X1332Y1013D01*
X1332Y1011D01*
X1336Y1011D01*
X1336Y1009D01*
X1338Y1009D01*
X1338Y1007D01*
X1340Y1007D01*
X1340Y1005D01*
X1342Y1005D01*
X1342Y1001D01*
X1344Y1001D01*
X1344Y999D01*
X1346Y999D01*
X1346Y995D01*
X1348Y995D01*
X1348Y991D01*
X1350Y991D01*
X1350Y985D01*
X1352Y985D01*
X1352Y973D01*
X1354Y973D01*
X1354Y971D01*
X1352Y971D01*
X1352Y959D01*
X1350Y959D01*
X1350Y953D01*
X1348Y953D01*
X1348Y949D01*
X1346Y949D01*
X1346Y945D01*
X1344Y945D01*
X1344Y943D01*
X1342Y943D01*
X1342Y941D01*
X1340Y941D01*
X1340Y861D01*
X1412Y861D01*
X1412Y859D01*
X1420Y859D01*
X1420Y857D01*
X1424Y857D01*
X1424Y855D01*
X1428Y855D01*
X1428Y853D01*
X1432Y853D01*
X1432Y851D01*
X1434Y851D01*
X1434Y849D01*
X1436Y849D01*
X1436Y847D01*
X1440Y847D01*
X1440Y843D01*
X1442Y843D01*
X1442Y841D01*
X1464Y841D01*
X1464Y843D01*
X1466Y843D01*
X1466Y845D01*
X1468Y845D01*
X1468Y915D01*
X1466Y915D01*
X1466Y1129D01*
X1468Y1129D01*
X1468Y1135D01*
X1470Y1135D01*
X1470Y1139D01*
X1472Y1139D01*
X1472Y1143D01*
X1474Y1143D01*
X1474Y1145D01*
X1476Y1145D01*
X1476Y1147D01*
X1478Y1147D01*
X1478Y1149D01*
X1480Y1149D01*
X1480Y1151D01*
X1482Y1151D01*
X1482Y1153D01*
X1484Y1153D01*
X1484Y1155D01*
X1486Y1155D01*
X1486Y1157D01*
X1488Y1157D01*
X1488Y1159D01*
X1490Y1159D01*
X1490Y1161D01*
X1492Y1161D01*
X1492Y1163D01*
X1494Y1163D01*
X1494Y1165D01*
X1496Y1165D01*
X1496Y1167D01*
X1498Y1167D01*
X1498Y1169D01*
X1500Y1169D01*
X1500Y1171D01*
X1502Y1171D01*
X1502Y1173D01*
X1504Y1173D01*
X1504Y1175D01*
X1506Y1175D01*
X1506Y1177D01*
X1508Y1177D01*
X1508Y1179D01*
X1510Y1179D01*
X1510Y1181D01*
X1512Y1181D01*
X1512Y1183D01*
X1514Y1183D01*
X1514Y1185D01*
X1516Y1185D01*
X1516Y1187D01*
X1518Y1187D01*
X1518Y1189D01*
X1520Y1189D01*
X1520Y1191D01*
X1524Y1191D01*
X1524Y1193D01*
X1528Y1193D01*
X1528Y1195D01*
X1534Y1195D01*
X1534Y1197D01*
X1544Y1197D01*
X1544Y1199D01*
X1556Y1199D01*
X1556Y1201D01*
X1562Y1201D01*
X1562Y1203D01*
X1564Y1203D01*
X1564Y1205D01*
X1566Y1205D01*
X1566Y1207D01*
X1568Y1207D01*
X1568Y1539D01*
X1566Y1539D01*
X1566Y1541D01*
X1564Y1541D01*
X1564Y1543D01*
X1562Y1543D01*
X1562Y1547D01*
X1560Y1547D01*
X1560Y1551D01*
X1558Y1551D01*
X1558Y1555D01*
X1556Y1555D01*
X1556Y1563D01*
X1554Y1563D01*
X1554Y1583D01*
X1556Y1583D01*
X1556Y1589D01*
X1558Y1589D01*
X1558Y1593D01*
X1560Y1593D01*
X1560Y1597D01*
X1562Y1597D01*
X1562Y1601D01*
X1564Y1601D01*
X1564Y1603D01*
X1566Y1603D01*
X1566Y1605D01*
X1568Y1605D01*
X1568Y1719D01*
X1570Y1719D01*
X1570Y1725D01*
X1572Y1725D01*
X1572Y1729D01*
X1574Y1729D01*
X1574Y1731D01*
X1576Y1731D01*
X1576Y1733D01*
X1578Y1733D01*
X1578Y1735D01*
X1580Y1735D01*
X1580Y1737D01*
X1582Y1737D01*
X1582Y1739D01*
X1584Y1739D01*
X1584Y1741D01*
X1586Y1741D01*
X1586Y1743D01*
X1588Y1743D01*
X1588Y1745D01*
X1590Y1745D01*
X1590Y1747D01*
X1592Y1747D01*
X1592Y1749D01*
X1594Y1749D01*
X1594Y1751D01*
X1596Y1751D01*
X1596Y1755D01*
X1598Y1755D01*
X1598Y1757D01*
X1600Y1757D01*
X1600Y1759D01*
X1602Y1759D01*
X1602Y1761D01*
X1604Y1761D01*
X1604Y1763D01*
X1606Y1763D01*
X1606Y1765D01*
X1608Y1765D01*
X1608Y1767D01*
X1610Y1767D01*
X1610Y1769D01*
X1612Y1769D01*
X1612Y1771D01*
X1614Y1771D01*
X1614Y1773D01*
X1616Y1773D01*
X1616Y1775D01*
X1618Y1775D01*
X1618Y1777D01*
X1620Y1777D01*
X1620Y1779D01*
X1622Y1779D01*
X1622Y1781D01*
X1624Y1781D01*
X1624Y1783D01*
X1626Y1783D01*
X1626Y1785D01*
X1628Y1785D01*
X1628Y1787D01*
X1630Y1787D01*
X1630Y1789D01*
X1634Y1789D01*
X1634Y1791D01*
X1636Y1791D01*
X1636Y1793D01*
X1640Y1793D01*
X1640Y1795D01*
X1646Y1795D01*
X1646Y1797D01*
X48Y1797D01*
G37*
D02*
G36*
X3242Y1729D02*
X3242Y1725D01*
X3240Y1725D01*
X3240Y1723D01*
X3238Y1723D01*
X3238Y1721D01*
X3234Y1721D01*
X3234Y1719D01*
X3232Y1719D01*
X3232Y1717D01*
X3228Y1717D01*
X3228Y1715D01*
X3226Y1715D01*
X3226Y1713D01*
X3220Y1713D01*
X3220Y1711D01*
X3214Y1711D01*
X3214Y1709D01*
X3268Y1709D01*
X3268Y1725D01*
X3266Y1725D01*
X3266Y1727D01*
X3264Y1727D01*
X3264Y1729D01*
X3242Y1729D01*
G37*
D02*
G36*
X1668Y1725D02*
X1668Y1723D01*
X1666Y1723D01*
X1666Y1721D01*
X1664Y1721D01*
X1664Y1719D01*
X1662Y1719D01*
X1662Y1717D01*
X1660Y1717D01*
X1660Y1715D01*
X1658Y1715D01*
X1658Y1713D01*
X1656Y1713D01*
X1656Y1711D01*
X1654Y1711D01*
X1654Y1709D01*
X1652Y1709D01*
X1652Y1707D01*
X1650Y1707D01*
X1650Y1705D01*
X1648Y1705D01*
X1648Y1703D01*
X1646Y1703D01*
X1646Y1701D01*
X1644Y1701D01*
X1644Y1699D01*
X1642Y1699D01*
X1642Y1697D01*
X1640Y1697D01*
X1640Y1621D01*
X2316Y1621D01*
X2316Y1619D01*
X2322Y1619D01*
X2322Y1617D01*
X2326Y1617D01*
X2326Y1615D01*
X2330Y1615D01*
X2330Y1613D01*
X2332Y1613D01*
X2332Y1611D01*
X2336Y1611D01*
X2336Y1609D01*
X2338Y1609D01*
X2338Y1607D01*
X2340Y1607D01*
X2340Y1605D01*
X2342Y1605D01*
X2342Y1601D01*
X2344Y1601D01*
X2344Y1599D01*
X2346Y1599D01*
X2346Y1595D01*
X2348Y1595D01*
X2348Y1591D01*
X2350Y1591D01*
X2350Y1585D01*
X2352Y1585D01*
X2352Y1559D01*
X2350Y1559D01*
X2350Y1553D01*
X2348Y1553D01*
X2348Y1549D01*
X2346Y1549D01*
X2346Y1545D01*
X2344Y1545D01*
X2344Y1543D01*
X2342Y1543D01*
X2342Y1541D01*
X2340Y1541D01*
X2340Y1487D01*
X2352Y1487D01*
X2352Y1401D01*
X1640Y1401D01*
X1640Y1365D01*
X2352Y1365D01*
X2352Y1279D01*
X2340Y1279D01*
X2340Y1247D01*
X2650Y1247D01*
X2650Y1249D01*
X2640Y1249D01*
X2640Y1251D01*
X2634Y1251D01*
X2634Y1253D01*
X2630Y1253D01*
X2630Y1255D01*
X2626Y1255D01*
X2626Y1257D01*
X2624Y1257D01*
X2624Y1259D01*
X2622Y1259D01*
X2622Y1261D01*
X2618Y1261D01*
X2618Y1263D01*
X2616Y1263D01*
X2616Y1267D01*
X2614Y1267D01*
X2614Y1269D01*
X2612Y1269D01*
X2612Y1273D01*
X2610Y1273D01*
X2610Y1275D01*
X2608Y1275D01*
X2608Y1281D01*
X2606Y1281D01*
X2606Y1287D01*
X2604Y1287D01*
X2604Y1307D01*
X2606Y1307D01*
X2606Y1315D01*
X2608Y1315D01*
X2608Y1319D01*
X2610Y1319D01*
X2610Y1323D01*
X2612Y1323D01*
X2612Y1325D01*
X2614Y1325D01*
X2614Y1329D01*
X2616Y1329D01*
X2616Y1331D01*
X2618Y1331D01*
X2618Y1333D01*
X2620Y1333D01*
X2620Y1335D01*
X2622Y1335D01*
X2622Y1337D01*
X2626Y1337D01*
X2626Y1339D01*
X2628Y1339D01*
X2628Y1349D01*
X2630Y1349D01*
X2630Y1357D01*
X2632Y1357D01*
X2632Y1365D01*
X2634Y1365D01*
X2634Y1373D01*
X2636Y1373D01*
X2636Y1381D01*
X2638Y1381D01*
X2638Y1389D01*
X2640Y1389D01*
X2640Y1397D01*
X2642Y1397D01*
X2642Y1423D01*
X2640Y1423D01*
X2640Y1459D01*
X2638Y1459D01*
X2638Y1497D01*
X2636Y1497D01*
X2636Y1533D01*
X2634Y1533D01*
X2634Y1571D01*
X2632Y1571D01*
X2632Y1631D01*
X2630Y1631D01*
X2630Y1723D01*
X1976Y1723D01*
X1976Y1725D01*
X1668Y1725D01*
G37*
D02*
G36*
X2864Y1709D02*
X2864Y1707D01*
X3268Y1707D01*
X3268Y1709D01*
X2864Y1709D01*
G37*
D02*
G36*
X2864Y1709D02*
X2864Y1707D01*
X3268Y1707D01*
X3268Y1709D01*
X2864Y1709D01*
G37*
D02*
G36*
X2864Y1707D02*
X2864Y1585D01*
X2870Y1585D01*
X2870Y1487D01*
X2864Y1487D01*
X2864Y1401D01*
X2866Y1401D01*
X2866Y1393D01*
X2868Y1393D01*
X2868Y1385D01*
X2870Y1385D01*
X2870Y1377D01*
X2872Y1377D01*
X2872Y1369D01*
X2874Y1369D01*
X2874Y1361D01*
X2876Y1361D01*
X2876Y1351D01*
X2878Y1351D01*
X2878Y1347D01*
X2962Y1347D01*
X2962Y1345D01*
X2968Y1345D01*
X2968Y1343D01*
X2974Y1343D01*
X2974Y1341D01*
X2978Y1341D01*
X2978Y1339D01*
X2982Y1339D01*
X2982Y1337D01*
X2984Y1337D01*
X2984Y1335D01*
X2986Y1335D01*
X2986Y1333D01*
X2988Y1333D01*
X2988Y1331D01*
X2990Y1331D01*
X2990Y1329D01*
X2992Y1329D01*
X2992Y1327D01*
X2994Y1327D01*
X2994Y1323D01*
X2996Y1323D01*
X2996Y1321D01*
X2998Y1321D01*
X2998Y1317D01*
X3000Y1317D01*
X3000Y1309D01*
X3002Y1309D01*
X3002Y1285D01*
X3000Y1285D01*
X3000Y1279D01*
X2998Y1279D01*
X2998Y1275D01*
X2996Y1275D01*
X2996Y1271D01*
X2994Y1271D01*
X2994Y1269D01*
X2992Y1269D01*
X2992Y1265D01*
X2990Y1265D01*
X2990Y1263D01*
X2988Y1263D01*
X2988Y1261D01*
X2986Y1261D01*
X2986Y1259D01*
X2984Y1259D01*
X2984Y1257D01*
X2980Y1257D01*
X2980Y1255D01*
X2976Y1255D01*
X2976Y1253D01*
X2974Y1253D01*
X2974Y1251D01*
X2968Y1251D01*
X2968Y1249D01*
X2956Y1249D01*
X2956Y1247D01*
X3474Y1247D01*
X3474Y1257D01*
X3472Y1257D01*
X3472Y1259D01*
X3468Y1259D01*
X3468Y1261D01*
X3466Y1261D01*
X3466Y1265D01*
X3464Y1265D01*
X3464Y1267D01*
X3462Y1267D01*
X3462Y1269D01*
X3460Y1269D01*
X3460Y1273D01*
X3458Y1273D01*
X3458Y1277D01*
X3456Y1277D01*
X3456Y1281D01*
X3454Y1281D01*
X3454Y1291D01*
X3452Y1291D01*
X3452Y1305D01*
X3454Y1305D01*
X3454Y1313D01*
X3456Y1313D01*
X3456Y1319D01*
X3458Y1319D01*
X3458Y1321D01*
X3460Y1321D01*
X3460Y1325D01*
X3462Y1325D01*
X3462Y1329D01*
X3464Y1329D01*
X3464Y1331D01*
X3466Y1331D01*
X3466Y1333D01*
X3468Y1333D01*
X3468Y1335D01*
X3470Y1335D01*
X3470Y1337D01*
X3474Y1337D01*
X3474Y1357D01*
X3472Y1357D01*
X3472Y1359D01*
X3468Y1359D01*
X3468Y1361D01*
X3466Y1361D01*
X3466Y1365D01*
X3464Y1365D01*
X3464Y1367D01*
X3462Y1367D01*
X3462Y1369D01*
X3460Y1369D01*
X3460Y1373D01*
X3458Y1373D01*
X3458Y1377D01*
X3456Y1377D01*
X3456Y1381D01*
X3454Y1381D01*
X3454Y1391D01*
X3452Y1391D01*
X3452Y1405D01*
X3454Y1405D01*
X3454Y1413D01*
X3456Y1413D01*
X3456Y1419D01*
X3458Y1419D01*
X3458Y1421D01*
X3460Y1421D01*
X3460Y1425D01*
X3462Y1425D01*
X3462Y1429D01*
X3464Y1429D01*
X3464Y1431D01*
X3466Y1431D01*
X3466Y1433D01*
X3468Y1433D01*
X3468Y1435D01*
X3470Y1435D01*
X3470Y1437D01*
X3474Y1437D01*
X3474Y1457D01*
X3472Y1457D01*
X3472Y1459D01*
X3468Y1459D01*
X3468Y1461D01*
X3346Y1461D01*
X3346Y1463D01*
X3340Y1463D01*
X3340Y1465D01*
X3336Y1465D01*
X3336Y1467D01*
X3332Y1467D01*
X3332Y1469D01*
X3330Y1469D01*
X3330Y1471D01*
X3328Y1471D01*
X3328Y1473D01*
X3326Y1473D01*
X3326Y1475D01*
X3324Y1475D01*
X3324Y1477D01*
X3322Y1477D01*
X3322Y1479D01*
X3320Y1479D01*
X3320Y1481D01*
X3318Y1481D01*
X3318Y1483D01*
X3316Y1483D01*
X3316Y1485D01*
X3314Y1485D01*
X3314Y1487D01*
X3312Y1487D01*
X3312Y1489D01*
X3310Y1489D01*
X3310Y1491D01*
X3306Y1491D01*
X3306Y1493D01*
X3304Y1493D01*
X3304Y1495D01*
X3302Y1495D01*
X3302Y1497D01*
X3300Y1497D01*
X3300Y1499D01*
X3298Y1499D01*
X3298Y1501D01*
X3296Y1501D01*
X3296Y1503D01*
X3294Y1503D01*
X3294Y1505D01*
X3292Y1505D01*
X3292Y1507D01*
X3290Y1507D01*
X3290Y1509D01*
X3288Y1509D01*
X3288Y1511D01*
X3286Y1511D01*
X3286Y1513D01*
X3284Y1513D01*
X3284Y1515D01*
X3282Y1515D01*
X3282Y1517D01*
X3280Y1517D01*
X3280Y1519D01*
X3278Y1519D01*
X3278Y1521D01*
X3276Y1521D01*
X3276Y1523D01*
X3274Y1523D01*
X3274Y1525D01*
X3272Y1525D01*
X3272Y1529D01*
X3270Y1529D01*
X3270Y1533D01*
X3268Y1533D01*
X3268Y1541D01*
X3266Y1541D01*
X3266Y1685D01*
X3268Y1685D01*
X3268Y1707D01*
X2864Y1707D01*
G37*
D02*
G36*
X1640Y1621D02*
X1640Y1605D01*
X1642Y1605D01*
X1642Y1601D01*
X1664Y1601D01*
X1664Y1603D01*
X1666Y1603D01*
X1666Y1605D01*
X1668Y1605D01*
X1668Y1607D01*
X1670Y1607D01*
X1670Y1609D01*
X1672Y1609D01*
X1672Y1611D01*
X1674Y1611D01*
X1674Y1613D01*
X1678Y1613D01*
X1678Y1615D01*
X1680Y1615D01*
X1680Y1617D01*
X1684Y1617D01*
X1684Y1619D01*
X1692Y1619D01*
X1692Y1621D01*
X1640Y1621D01*
G37*
D02*
G36*
X1716Y1621D02*
X1716Y1619D01*
X1722Y1619D01*
X1722Y1617D01*
X1726Y1617D01*
X1726Y1615D01*
X1730Y1615D01*
X1730Y1613D01*
X1732Y1613D01*
X1732Y1611D01*
X1736Y1611D01*
X1736Y1609D01*
X1738Y1609D01*
X1738Y1607D01*
X1740Y1607D01*
X1740Y1605D01*
X1742Y1605D01*
X1742Y1601D01*
X1764Y1601D01*
X1764Y1603D01*
X1766Y1603D01*
X1766Y1605D01*
X1768Y1605D01*
X1768Y1607D01*
X1770Y1607D01*
X1770Y1609D01*
X1772Y1609D01*
X1772Y1611D01*
X1774Y1611D01*
X1774Y1613D01*
X1778Y1613D01*
X1778Y1615D01*
X1780Y1615D01*
X1780Y1617D01*
X1784Y1617D01*
X1784Y1619D01*
X1792Y1619D01*
X1792Y1621D01*
X1716Y1621D01*
G37*
D02*
G36*
X1816Y1621D02*
X1816Y1619D01*
X1822Y1619D01*
X1822Y1617D01*
X1826Y1617D01*
X1826Y1615D01*
X1830Y1615D01*
X1830Y1613D01*
X1832Y1613D01*
X1832Y1611D01*
X1836Y1611D01*
X1836Y1609D01*
X1838Y1609D01*
X1838Y1607D01*
X1840Y1607D01*
X1840Y1605D01*
X1842Y1605D01*
X1842Y1601D01*
X1864Y1601D01*
X1864Y1603D01*
X1866Y1603D01*
X1866Y1605D01*
X1868Y1605D01*
X1868Y1607D01*
X1870Y1607D01*
X1870Y1609D01*
X1872Y1609D01*
X1872Y1611D01*
X1874Y1611D01*
X1874Y1613D01*
X1878Y1613D01*
X1878Y1615D01*
X1880Y1615D01*
X1880Y1617D01*
X1884Y1617D01*
X1884Y1619D01*
X1892Y1619D01*
X1892Y1621D01*
X1816Y1621D01*
G37*
D02*
G36*
X1916Y1621D02*
X1916Y1619D01*
X1922Y1619D01*
X1922Y1617D01*
X1926Y1617D01*
X1926Y1615D01*
X1930Y1615D01*
X1930Y1613D01*
X1932Y1613D01*
X1932Y1611D01*
X1936Y1611D01*
X1936Y1609D01*
X1938Y1609D01*
X1938Y1607D01*
X1940Y1607D01*
X1940Y1605D01*
X1942Y1605D01*
X1942Y1601D01*
X1964Y1601D01*
X1964Y1603D01*
X1966Y1603D01*
X1966Y1605D01*
X1968Y1605D01*
X1968Y1607D01*
X1970Y1607D01*
X1970Y1609D01*
X1972Y1609D01*
X1972Y1611D01*
X1974Y1611D01*
X1974Y1613D01*
X1978Y1613D01*
X1978Y1615D01*
X1980Y1615D01*
X1980Y1617D01*
X1984Y1617D01*
X1984Y1619D01*
X1992Y1619D01*
X1992Y1621D01*
X1916Y1621D01*
G37*
D02*
G36*
X2016Y1621D02*
X2016Y1619D01*
X2022Y1619D01*
X2022Y1617D01*
X2026Y1617D01*
X2026Y1615D01*
X2030Y1615D01*
X2030Y1613D01*
X2032Y1613D01*
X2032Y1611D01*
X2036Y1611D01*
X2036Y1609D01*
X2038Y1609D01*
X2038Y1607D01*
X2040Y1607D01*
X2040Y1605D01*
X2042Y1605D01*
X2042Y1601D01*
X2064Y1601D01*
X2064Y1603D01*
X2066Y1603D01*
X2066Y1605D01*
X2068Y1605D01*
X2068Y1607D01*
X2070Y1607D01*
X2070Y1609D01*
X2072Y1609D01*
X2072Y1611D01*
X2074Y1611D01*
X2074Y1613D01*
X2078Y1613D01*
X2078Y1615D01*
X2080Y1615D01*
X2080Y1617D01*
X2084Y1617D01*
X2084Y1619D01*
X2092Y1619D01*
X2092Y1621D01*
X2016Y1621D01*
G37*
D02*
G36*
X2116Y1621D02*
X2116Y1619D01*
X2122Y1619D01*
X2122Y1617D01*
X2126Y1617D01*
X2126Y1615D01*
X2130Y1615D01*
X2130Y1613D01*
X2132Y1613D01*
X2132Y1611D01*
X2136Y1611D01*
X2136Y1609D01*
X2138Y1609D01*
X2138Y1607D01*
X2140Y1607D01*
X2140Y1605D01*
X2142Y1605D01*
X2142Y1601D01*
X2164Y1601D01*
X2164Y1603D01*
X2166Y1603D01*
X2166Y1605D01*
X2168Y1605D01*
X2168Y1607D01*
X2170Y1607D01*
X2170Y1609D01*
X2172Y1609D01*
X2172Y1611D01*
X2174Y1611D01*
X2174Y1613D01*
X2178Y1613D01*
X2178Y1615D01*
X2180Y1615D01*
X2180Y1617D01*
X2184Y1617D01*
X2184Y1619D01*
X2192Y1619D01*
X2192Y1621D01*
X2116Y1621D01*
G37*
D02*
G36*
X2216Y1621D02*
X2216Y1619D01*
X2222Y1619D01*
X2222Y1617D01*
X2226Y1617D01*
X2226Y1615D01*
X2230Y1615D01*
X2230Y1613D01*
X2232Y1613D01*
X2232Y1611D01*
X2236Y1611D01*
X2236Y1609D01*
X2238Y1609D01*
X2238Y1607D01*
X2240Y1607D01*
X2240Y1605D01*
X2242Y1605D01*
X2242Y1601D01*
X2264Y1601D01*
X2264Y1603D01*
X2266Y1603D01*
X2266Y1605D01*
X2268Y1605D01*
X2268Y1607D01*
X2270Y1607D01*
X2270Y1609D01*
X2272Y1609D01*
X2272Y1611D01*
X2274Y1611D01*
X2274Y1613D01*
X2278Y1613D01*
X2278Y1615D01*
X2280Y1615D01*
X2280Y1617D01*
X2284Y1617D01*
X2284Y1619D01*
X2292Y1619D01*
X2292Y1621D01*
X2216Y1621D01*
G37*
D02*
G36*
X3840Y1567D02*
X3840Y1565D01*
X3838Y1565D01*
X3838Y1563D01*
X3836Y1563D01*
X3836Y1561D01*
X3834Y1561D01*
X3834Y1559D01*
X3832Y1559D01*
X3832Y1557D01*
X3830Y1557D01*
X3830Y1537D01*
X3832Y1537D01*
X3832Y1535D01*
X3834Y1535D01*
X3834Y1533D01*
X3838Y1533D01*
X3838Y1529D01*
X3840Y1529D01*
X3840Y1527D01*
X3842Y1527D01*
X3842Y1525D01*
X3844Y1525D01*
X3844Y1521D01*
X3846Y1521D01*
X3846Y1517D01*
X3848Y1517D01*
X3848Y1513D01*
X3850Y1513D01*
X3850Y1505D01*
X3852Y1505D01*
X3852Y1489D01*
X3850Y1489D01*
X3850Y1481D01*
X3848Y1481D01*
X3848Y1477D01*
X3846Y1477D01*
X3846Y1473D01*
X3844Y1473D01*
X3844Y1469D01*
X3842Y1469D01*
X3842Y1467D01*
X3840Y1467D01*
X3840Y1465D01*
X3838Y1465D01*
X3838Y1463D01*
X3836Y1463D01*
X3836Y1461D01*
X3834Y1461D01*
X3834Y1459D01*
X3832Y1459D01*
X3832Y1457D01*
X3830Y1457D01*
X3830Y1437D01*
X3832Y1437D01*
X3832Y1435D01*
X3834Y1435D01*
X3834Y1433D01*
X3838Y1433D01*
X3838Y1429D01*
X3840Y1429D01*
X3840Y1427D01*
X3842Y1427D01*
X3842Y1425D01*
X3844Y1425D01*
X3844Y1421D01*
X3846Y1421D01*
X3846Y1417D01*
X3848Y1417D01*
X3848Y1413D01*
X3850Y1413D01*
X3850Y1405D01*
X3852Y1405D01*
X3852Y1389D01*
X3850Y1389D01*
X3850Y1381D01*
X3848Y1381D01*
X3848Y1377D01*
X3846Y1377D01*
X3846Y1373D01*
X3844Y1373D01*
X3844Y1369D01*
X3842Y1369D01*
X3842Y1367D01*
X3840Y1367D01*
X3840Y1365D01*
X3838Y1365D01*
X3838Y1363D01*
X3836Y1363D01*
X3836Y1361D01*
X3834Y1361D01*
X3834Y1359D01*
X3832Y1359D01*
X3832Y1357D01*
X3830Y1357D01*
X3830Y1337D01*
X3832Y1337D01*
X3832Y1335D01*
X3834Y1335D01*
X3834Y1333D01*
X3838Y1333D01*
X3838Y1329D01*
X3840Y1329D01*
X3840Y1327D01*
X3842Y1327D01*
X3842Y1325D01*
X3844Y1325D01*
X3844Y1321D01*
X3846Y1321D01*
X3846Y1317D01*
X3848Y1317D01*
X3848Y1313D01*
X3850Y1313D01*
X3850Y1305D01*
X3852Y1305D01*
X3852Y1289D01*
X3850Y1289D01*
X3850Y1281D01*
X3848Y1281D01*
X3848Y1277D01*
X3846Y1277D01*
X3846Y1273D01*
X3844Y1273D01*
X3844Y1269D01*
X3842Y1269D01*
X3842Y1267D01*
X3840Y1267D01*
X3840Y1265D01*
X3838Y1265D01*
X3838Y1263D01*
X3836Y1263D01*
X3836Y1261D01*
X3834Y1261D01*
X3834Y1259D01*
X3832Y1259D01*
X3832Y1257D01*
X3830Y1257D01*
X3830Y1237D01*
X3832Y1237D01*
X3832Y1235D01*
X3834Y1235D01*
X3834Y1233D01*
X3838Y1233D01*
X3838Y1229D01*
X3840Y1229D01*
X3840Y1227D01*
X3842Y1227D01*
X3842Y1225D01*
X3844Y1225D01*
X3844Y1221D01*
X3846Y1221D01*
X3846Y1217D01*
X3848Y1217D01*
X3848Y1213D01*
X3850Y1213D01*
X3850Y1205D01*
X3852Y1205D01*
X3852Y1189D01*
X3850Y1189D01*
X3850Y1181D01*
X3848Y1181D01*
X3848Y1177D01*
X3846Y1177D01*
X3846Y1173D01*
X3844Y1173D01*
X3844Y1169D01*
X3842Y1169D01*
X3842Y1167D01*
X3840Y1167D01*
X3840Y1165D01*
X3838Y1165D01*
X3838Y1163D01*
X3836Y1163D01*
X3836Y1161D01*
X3834Y1161D01*
X3834Y1159D01*
X3832Y1159D01*
X3832Y1157D01*
X3830Y1157D01*
X3830Y1137D01*
X3832Y1137D01*
X3832Y1135D01*
X3834Y1135D01*
X3834Y1133D01*
X3838Y1133D01*
X3838Y1129D01*
X3840Y1129D01*
X3840Y1127D01*
X3842Y1127D01*
X3842Y1125D01*
X3844Y1125D01*
X3844Y1121D01*
X3846Y1121D01*
X3846Y1117D01*
X3848Y1117D01*
X3848Y1113D01*
X3850Y1113D01*
X3850Y1105D01*
X3852Y1105D01*
X3852Y1089D01*
X3850Y1089D01*
X3850Y1081D01*
X3848Y1081D01*
X3848Y1077D01*
X3846Y1077D01*
X3846Y1073D01*
X3844Y1073D01*
X3844Y1069D01*
X3842Y1069D01*
X3842Y1067D01*
X3840Y1067D01*
X3840Y1065D01*
X3838Y1065D01*
X3838Y1063D01*
X3836Y1063D01*
X3836Y1061D01*
X3834Y1061D01*
X3834Y1059D01*
X3832Y1059D01*
X3832Y1057D01*
X3830Y1057D01*
X3830Y1037D01*
X3832Y1037D01*
X3832Y1035D01*
X3834Y1035D01*
X3834Y1033D01*
X3838Y1033D01*
X3838Y1029D01*
X3840Y1029D01*
X3840Y1027D01*
X3842Y1027D01*
X3842Y1025D01*
X3844Y1025D01*
X3844Y1021D01*
X3846Y1021D01*
X3846Y1017D01*
X3848Y1017D01*
X3848Y1013D01*
X3850Y1013D01*
X3850Y1005D01*
X3852Y1005D01*
X3852Y989D01*
X3850Y989D01*
X3850Y981D01*
X3848Y981D01*
X3848Y977D01*
X3846Y977D01*
X3846Y973D01*
X3844Y973D01*
X3844Y969D01*
X3842Y969D01*
X3842Y967D01*
X3840Y967D01*
X3840Y965D01*
X3838Y965D01*
X3838Y963D01*
X3836Y963D01*
X3836Y961D01*
X3834Y961D01*
X3834Y959D01*
X3832Y959D01*
X3832Y957D01*
X3830Y957D01*
X3830Y937D01*
X3832Y937D01*
X3832Y935D01*
X3834Y935D01*
X3834Y933D01*
X3838Y933D01*
X3838Y929D01*
X3840Y929D01*
X3840Y927D01*
X3842Y927D01*
X3842Y925D01*
X3844Y925D01*
X3844Y921D01*
X3846Y921D01*
X3846Y917D01*
X3848Y917D01*
X3848Y913D01*
X3850Y913D01*
X3850Y905D01*
X3852Y905D01*
X3852Y889D01*
X3850Y889D01*
X3850Y881D01*
X3848Y881D01*
X3848Y877D01*
X3846Y877D01*
X3846Y873D01*
X3844Y873D01*
X3844Y869D01*
X3842Y869D01*
X3842Y867D01*
X3840Y867D01*
X3840Y865D01*
X3838Y865D01*
X3838Y863D01*
X3836Y863D01*
X3836Y861D01*
X3834Y861D01*
X3834Y859D01*
X3832Y859D01*
X3832Y857D01*
X3830Y857D01*
X3830Y837D01*
X3832Y837D01*
X3832Y835D01*
X3834Y835D01*
X3834Y833D01*
X3838Y833D01*
X3838Y829D01*
X3840Y829D01*
X3840Y827D01*
X3842Y827D01*
X3842Y825D01*
X3844Y825D01*
X3844Y821D01*
X3846Y821D01*
X3846Y817D01*
X3848Y817D01*
X3848Y813D01*
X3850Y813D01*
X3850Y805D01*
X3852Y805D01*
X3852Y789D01*
X3850Y789D01*
X3850Y781D01*
X3848Y781D01*
X3848Y777D01*
X3846Y777D01*
X3846Y773D01*
X3844Y773D01*
X3844Y769D01*
X3842Y769D01*
X3842Y767D01*
X3840Y767D01*
X3840Y765D01*
X3838Y765D01*
X3838Y763D01*
X3836Y763D01*
X3836Y761D01*
X3834Y761D01*
X3834Y759D01*
X3832Y759D01*
X3832Y757D01*
X3830Y757D01*
X3830Y737D01*
X3832Y737D01*
X3832Y735D01*
X3834Y735D01*
X3834Y733D01*
X3838Y733D01*
X3838Y729D01*
X3840Y729D01*
X3840Y727D01*
X3842Y727D01*
X3842Y725D01*
X3844Y725D01*
X3844Y721D01*
X3846Y721D01*
X3846Y717D01*
X3848Y717D01*
X3848Y713D01*
X3850Y713D01*
X3850Y705D01*
X3852Y705D01*
X3852Y689D01*
X3850Y689D01*
X3850Y681D01*
X3848Y681D01*
X3848Y677D01*
X3846Y677D01*
X3846Y673D01*
X3844Y673D01*
X3844Y669D01*
X3842Y669D01*
X3842Y667D01*
X3840Y667D01*
X3840Y665D01*
X3838Y665D01*
X3838Y663D01*
X3836Y663D01*
X3836Y661D01*
X3834Y661D01*
X3834Y659D01*
X3832Y659D01*
X3832Y657D01*
X3830Y657D01*
X3830Y637D01*
X3832Y637D01*
X3832Y635D01*
X3834Y635D01*
X3834Y633D01*
X3838Y633D01*
X3838Y629D01*
X3840Y629D01*
X3840Y627D01*
X3842Y627D01*
X3842Y625D01*
X3844Y625D01*
X3844Y621D01*
X3846Y621D01*
X3846Y617D01*
X3848Y617D01*
X3848Y613D01*
X3850Y613D01*
X3850Y605D01*
X3852Y605D01*
X3852Y589D01*
X3850Y589D01*
X3850Y581D01*
X3848Y581D01*
X3848Y577D01*
X3846Y577D01*
X3846Y573D01*
X3844Y573D01*
X3844Y569D01*
X3842Y569D01*
X3842Y567D01*
X3840Y567D01*
X3840Y565D01*
X3838Y565D01*
X3838Y563D01*
X3836Y563D01*
X3836Y561D01*
X3834Y561D01*
X3834Y559D01*
X3832Y559D01*
X3832Y557D01*
X3830Y557D01*
X3830Y537D01*
X3832Y537D01*
X3832Y535D01*
X3834Y535D01*
X3834Y533D01*
X3838Y533D01*
X3838Y529D01*
X3840Y529D01*
X3840Y527D01*
X3842Y527D01*
X3842Y525D01*
X3844Y525D01*
X3844Y521D01*
X3846Y521D01*
X3846Y517D01*
X3848Y517D01*
X3848Y513D01*
X3850Y513D01*
X3850Y505D01*
X3852Y505D01*
X3852Y489D01*
X3850Y489D01*
X3850Y481D01*
X3848Y481D01*
X3848Y477D01*
X3846Y477D01*
X3846Y473D01*
X3844Y473D01*
X3844Y469D01*
X3842Y469D01*
X3842Y467D01*
X3840Y467D01*
X3840Y465D01*
X3838Y465D01*
X3838Y463D01*
X3836Y463D01*
X3836Y461D01*
X3834Y461D01*
X3834Y459D01*
X3832Y459D01*
X3832Y457D01*
X3830Y457D01*
X3830Y437D01*
X3832Y437D01*
X3832Y435D01*
X3834Y435D01*
X3834Y433D01*
X3838Y433D01*
X3838Y429D01*
X3840Y429D01*
X3840Y427D01*
X3842Y427D01*
X3842Y425D01*
X3844Y425D01*
X3844Y421D01*
X3846Y421D01*
X3846Y417D01*
X3848Y417D01*
X3848Y413D01*
X3850Y413D01*
X3850Y405D01*
X3852Y405D01*
X3852Y389D01*
X3850Y389D01*
X3850Y381D01*
X3848Y381D01*
X3848Y377D01*
X3846Y377D01*
X3846Y373D01*
X3844Y373D01*
X3844Y369D01*
X3842Y369D01*
X3842Y367D01*
X3840Y367D01*
X3840Y365D01*
X3838Y365D01*
X3838Y363D01*
X3836Y363D01*
X3836Y361D01*
X3834Y361D01*
X3834Y359D01*
X3832Y359D01*
X3832Y357D01*
X3830Y357D01*
X3830Y337D01*
X3832Y337D01*
X3832Y335D01*
X3834Y335D01*
X3834Y333D01*
X3838Y333D01*
X3838Y329D01*
X3840Y329D01*
X3840Y327D01*
X3842Y327D01*
X3842Y325D01*
X3844Y325D01*
X3844Y321D01*
X3846Y321D01*
X3846Y317D01*
X3848Y317D01*
X3848Y313D01*
X3850Y313D01*
X3850Y305D01*
X3852Y305D01*
X3852Y289D01*
X3850Y289D01*
X3850Y281D01*
X3848Y281D01*
X3848Y277D01*
X3846Y277D01*
X3846Y273D01*
X3844Y273D01*
X3844Y269D01*
X3842Y269D01*
X3842Y267D01*
X3840Y267D01*
X3840Y265D01*
X3838Y265D01*
X3838Y263D01*
X3836Y263D01*
X3836Y261D01*
X3834Y261D01*
X3834Y259D01*
X3832Y259D01*
X3832Y257D01*
X3828Y257D01*
X3828Y255D01*
X3824Y255D01*
X3824Y253D01*
X3820Y253D01*
X3820Y251D01*
X3814Y251D01*
X3814Y249D01*
X3960Y249D01*
X3960Y1465D01*
X3958Y1465D01*
X3958Y1467D01*
X3956Y1467D01*
X3956Y1469D01*
X3954Y1469D01*
X3954Y1471D01*
X3952Y1471D01*
X3952Y1473D01*
X3950Y1473D01*
X3950Y1475D01*
X3948Y1475D01*
X3948Y1477D01*
X3946Y1477D01*
X3946Y1479D01*
X3944Y1479D01*
X3944Y1481D01*
X3942Y1481D01*
X3942Y1483D01*
X3940Y1483D01*
X3940Y1485D01*
X3938Y1485D01*
X3938Y1487D01*
X3936Y1487D01*
X3936Y1489D01*
X3934Y1489D01*
X3934Y1491D01*
X3932Y1491D01*
X3932Y1493D01*
X3930Y1493D01*
X3930Y1495D01*
X3928Y1495D01*
X3928Y1497D01*
X3926Y1497D01*
X3926Y1499D01*
X3924Y1499D01*
X3924Y1501D01*
X3922Y1501D01*
X3922Y1503D01*
X3920Y1503D01*
X3920Y1505D01*
X3918Y1505D01*
X3918Y1507D01*
X3916Y1507D01*
X3916Y1509D01*
X3914Y1509D01*
X3914Y1511D01*
X3912Y1511D01*
X3912Y1513D01*
X3910Y1513D01*
X3910Y1515D01*
X3908Y1515D01*
X3908Y1517D01*
X3906Y1517D01*
X3906Y1519D01*
X3904Y1519D01*
X3904Y1521D01*
X3902Y1521D01*
X3902Y1523D01*
X3900Y1523D01*
X3900Y1525D01*
X3898Y1525D01*
X3898Y1527D01*
X3896Y1527D01*
X3896Y1529D01*
X3894Y1529D01*
X3894Y1531D01*
X3892Y1531D01*
X3892Y1533D01*
X3890Y1533D01*
X3890Y1535D01*
X3888Y1535D01*
X3888Y1537D01*
X3886Y1537D01*
X3886Y1539D01*
X3884Y1539D01*
X3884Y1541D01*
X3882Y1541D01*
X3882Y1543D01*
X3880Y1543D01*
X3880Y1545D01*
X3878Y1545D01*
X3878Y1547D01*
X3876Y1547D01*
X3876Y1549D01*
X3874Y1549D01*
X3874Y1551D01*
X3872Y1551D01*
X3872Y1553D01*
X3870Y1553D01*
X3870Y1555D01*
X3868Y1555D01*
X3868Y1557D01*
X3866Y1557D01*
X3866Y1559D01*
X3864Y1559D01*
X3864Y1561D01*
X3862Y1561D01*
X3862Y1563D01*
X3860Y1563D01*
X3860Y1567D01*
X3840Y1567D01*
G37*
D02*
G36*
X2702Y1347D02*
X2702Y1339D01*
X2700Y1339D01*
X2700Y1333D01*
X2720Y1333D01*
X2720Y1335D01*
X2722Y1335D01*
X2722Y1337D01*
X2726Y1337D01*
X2726Y1339D01*
X2728Y1339D01*
X2728Y1341D01*
X2732Y1341D01*
X2732Y1343D01*
X2738Y1343D01*
X2738Y1345D01*
X2746Y1345D01*
X2746Y1347D01*
X2702Y1347D01*
G37*
D02*
G36*
X2878Y1347D02*
X2878Y1343D01*
X2880Y1343D01*
X2880Y1339D01*
X2882Y1339D01*
X2882Y1337D01*
X2884Y1337D01*
X2884Y1335D01*
X2886Y1335D01*
X2886Y1333D01*
X2888Y1333D01*
X2888Y1331D01*
X2890Y1331D01*
X2890Y1329D01*
X2892Y1329D01*
X2892Y1327D01*
X2894Y1327D01*
X2894Y1325D01*
X2914Y1325D01*
X2914Y1329D01*
X2916Y1329D01*
X2916Y1331D01*
X2918Y1331D01*
X2918Y1333D01*
X2920Y1333D01*
X2920Y1335D01*
X2922Y1335D01*
X2922Y1337D01*
X2926Y1337D01*
X2926Y1339D01*
X2928Y1339D01*
X2928Y1341D01*
X2932Y1341D01*
X2932Y1343D01*
X2938Y1343D01*
X2938Y1345D01*
X2946Y1345D01*
X2946Y1347D01*
X2878Y1347D01*
G37*
D02*
G36*
X2692Y1269D02*
X2692Y1265D01*
X2690Y1265D01*
X2690Y1263D01*
X2688Y1263D01*
X2688Y1261D01*
X2686Y1261D01*
X2686Y1259D01*
X2684Y1259D01*
X2684Y1257D01*
X2680Y1257D01*
X2680Y1255D01*
X2676Y1255D01*
X2676Y1253D01*
X2674Y1253D01*
X2674Y1251D01*
X2668Y1251D01*
X2668Y1249D01*
X2656Y1249D01*
X2656Y1247D01*
X2750Y1247D01*
X2750Y1249D01*
X2740Y1249D01*
X2740Y1251D01*
X2734Y1251D01*
X2734Y1253D01*
X2730Y1253D01*
X2730Y1255D01*
X2726Y1255D01*
X2726Y1257D01*
X2724Y1257D01*
X2724Y1259D01*
X2722Y1259D01*
X2722Y1261D01*
X2718Y1261D01*
X2718Y1263D01*
X2716Y1263D01*
X2716Y1267D01*
X2714Y1267D01*
X2714Y1269D01*
X2692Y1269D01*
G37*
D02*
G36*
X2792Y1269D02*
X2792Y1265D01*
X2790Y1265D01*
X2790Y1263D01*
X2788Y1263D01*
X2788Y1261D01*
X2786Y1261D01*
X2786Y1259D01*
X2784Y1259D01*
X2784Y1257D01*
X2780Y1257D01*
X2780Y1255D01*
X2776Y1255D01*
X2776Y1253D01*
X2774Y1253D01*
X2774Y1251D01*
X2768Y1251D01*
X2768Y1249D01*
X2756Y1249D01*
X2756Y1247D01*
X2850Y1247D01*
X2850Y1249D01*
X2840Y1249D01*
X2840Y1251D01*
X2834Y1251D01*
X2834Y1253D01*
X2830Y1253D01*
X2830Y1255D01*
X2826Y1255D01*
X2826Y1257D01*
X2824Y1257D01*
X2824Y1259D01*
X2822Y1259D01*
X2822Y1261D01*
X2818Y1261D01*
X2818Y1263D01*
X2816Y1263D01*
X2816Y1267D01*
X2814Y1267D01*
X2814Y1269D01*
X2792Y1269D01*
G37*
D02*
G36*
X2892Y1269D02*
X2892Y1265D01*
X2890Y1265D01*
X2890Y1263D01*
X2888Y1263D01*
X2888Y1261D01*
X2886Y1261D01*
X2886Y1259D01*
X2884Y1259D01*
X2884Y1257D01*
X2880Y1257D01*
X2880Y1255D01*
X2876Y1255D01*
X2876Y1253D01*
X2874Y1253D01*
X2874Y1251D01*
X2868Y1251D01*
X2868Y1249D01*
X2856Y1249D01*
X2856Y1247D01*
X2950Y1247D01*
X2950Y1249D01*
X2940Y1249D01*
X2940Y1251D01*
X2934Y1251D01*
X2934Y1253D01*
X2930Y1253D01*
X2930Y1255D01*
X2926Y1255D01*
X2926Y1257D01*
X2924Y1257D01*
X2924Y1259D01*
X2922Y1259D01*
X2922Y1261D01*
X2918Y1261D01*
X2918Y1263D01*
X2916Y1263D01*
X2916Y1267D01*
X2914Y1267D01*
X2914Y1269D01*
X2892Y1269D01*
G37*
D02*
G36*
X2340Y1247D02*
X2340Y1245D01*
X3474Y1245D01*
X3474Y1247D01*
X2340Y1247D01*
G37*
D02*
G36*
X2340Y1247D02*
X2340Y1245D01*
X3474Y1245D01*
X3474Y1247D01*
X2340Y1247D01*
G37*
D02*
G36*
X2340Y1247D02*
X2340Y1245D01*
X3474Y1245D01*
X3474Y1247D01*
X2340Y1247D01*
G37*
D02*
G36*
X2340Y1247D02*
X2340Y1245D01*
X3474Y1245D01*
X3474Y1247D01*
X2340Y1247D01*
G37*
D02*
G36*
X2340Y1247D02*
X2340Y1245D01*
X3474Y1245D01*
X3474Y1247D01*
X2340Y1247D01*
G37*
D02*
G36*
X2340Y1245D02*
X2340Y1207D01*
X2342Y1207D01*
X2342Y1203D01*
X2344Y1203D01*
X2344Y1201D01*
X2346Y1201D01*
X2346Y1199D01*
X2348Y1199D01*
X2348Y1195D01*
X2350Y1195D01*
X2350Y1191D01*
X2352Y1191D01*
X2352Y1183D01*
X2354Y1183D01*
X2354Y1161D01*
X2352Y1161D01*
X2352Y1155D01*
X2350Y1155D01*
X2350Y1149D01*
X2348Y1149D01*
X2348Y1147D01*
X2346Y1147D01*
X2346Y1143D01*
X2344Y1143D01*
X2344Y1141D01*
X2342Y1141D01*
X2342Y1139D01*
X2340Y1139D01*
X2340Y1135D01*
X2336Y1135D01*
X2336Y1133D01*
X2334Y1133D01*
X2334Y1131D01*
X2332Y1131D01*
X2332Y1129D01*
X2328Y1129D01*
X2328Y1127D01*
X2324Y1127D01*
X2324Y1125D01*
X2320Y1125D01*
X2320Y1123D01*
X2310Y1123D01*
X2310Y1121D01*
X3460Y1121D01*
X3460Y1125D01*
X3462Y1125D01*
X3462Y1129D01*
X3464Y1129D01*
X3464Y1131D01*
X3466Y1131D01*
X3466Y1133D01*
X3468Y1133D01*
X3468Y1135D01*
X3470Y1135D01*
X3470Y1137D01*
X3474Y1137D01*
X3474Y1157D01*
X3472Y1157D01*
X3472Y1159D01*
X3468Y1159D01*
X3468Y1161D01*
X3466Y1161D01*
X3466Y1165D01*
X3464Y1165D01*
X3464Y1167D01*
X3462Y1167D01*
X3462Y1169D01*
X3460Y1169D01*
X3460Y1173D01*
X3458Y1173D01*
X3458Y1177D01*
X3456Y1177D01*
X3456Y1181D01*
X3454Y1181D01*
X3454Y1191D01*
X3452Y1191D01*
X3452Y1205D01*
X3454Y1205D01*
X3454Y1213D01*
X3456Y1213D01*
X3456Y1219D01*
X3458Y1219D01*
X3458Y1221D01*
X3460Y1221D01*
X3460Y1225D01*
X3462Y1225D01*
X3462Y1229D01*
X3464Y1229D01*
X3464Y1231D01*
X3466Y1231D01*
X3466Y1233D01*
X3468Y1233D01*
X3468Y1235D01*
X3470Y1235D01*
X3470Y1237D01*
X3474Y1237D01*
X3474Y1245D01*
X2340Y1245D01*
G37*
D02*
G36*
X1642Y1141D02*
X1642Y1139D01*
X1640Y1139D01*
X1640Y1135D01*
X1636Y1135D01*
X1636Y1133D01*
X1634Y1133D01*
X1634Y1131D01*
X1632Y1131D01*
X1632Y1129D01*
X1628Y1129D01*
X1628Y1127D01*
X1624Y1127D01*
X1624Y1125D01*
X1620Y1125D01*
X1620Y1123D01*
X1610Y1123D01*
X1610Y1121D01*
X1696Y1121D01*
X1696Y1123D01*
X1688Y1123D01*
X1688Y1125D01*
X1682Y1125D01*
X1682Y1127D01*
X1678Y1127D01*
X1678Y1129D01*
X1676Y1129D01*
X1676Y1131D01*
X1672Y1131D01*
X1672Y1133D01*
X1670Y1133D01*
X1670Y1135D01*
X1668Y1135D01*
X1668Y1137D01*
X1666Y1137D01*
X1666Y1139D01*
X1664Y1139D01*
X1664Y1141D01*
X1642Y1141D01*
G37*
D02*
G36*
X1742Y1141D02*
X1742Y1139D01*
X1740Y1139D01*
X1740Y1135D01*
X1736Y1135D01*
X1736Y1133D01*
X1734Y1133D01*
X1734Y1131D01*
X1732Y1131D01*
X1732Y1129D01*
X1728Y1129D01*
X1728Y1127D01*
X1724Y1127D01*
X1724Y1125D01*
X1720Y1125D01*
X1720Y1123D01*
X1710Y1123D01*
X1710Y1121D01*
X1796Y1121D01*
X1796Y1123D01*
X1788Y1123D01*
X1788Y1125D01*
X1782Y1125D01*
X1782Y1127D01*
X1778Y1127D01*
X1778Y1129D01*
X1776Y1129D01*
X1776Y1131D01*
X1772Y1131D01*
X1772Y1133D01*
X1770Y1133D01*
X1770Y1135D01*
X1768Y1135D01*
X1768Y1137D01*
X1766Y1137D01*
X1766Y1139D01*
X1764Y1139D01*
X1764Y1141D01*
X1742Y1141D01*
G37*
D02*
G36*
X1842Y1141D02*
X1842Y1139D01*
X1840Y1139D01*
X1840Y1135D01*
X1836Y1135D01*
X1836Y1133D01*
X1834Y1133D01*
X1834Y1131D01*
X1832Y1131D01*
X1832Y1129D01*
X1828Y1129D01*
X1828Y1127D01*
X1824Y1127D01*
X1824Y1125D01*
X1820Y1125D01*
X1820Y1123D01*
X1810Y1123D01*
X1810Y1121D01*
X1896Y1121D01*
X1896Y1123D01*
X1888Y1123D01*
X1888Y1125D01*
X1882Y1125D01*
X1882Y1127D01*
X1878Y1127D01*
X1878Y1129D01*
X1876Y1129D01*
X1876Y1131D01*
X1872Y1131D01*
X1872Y1133D01*
X1870Y1133D01*
X1870Y1135D01*
X1868Y1135D01*
X1868Y1137D01*
X1866Y1137D01*
X1866Y1139D01*
X1864Y1139D01*
X1864Y1141D01*
X1842Y1141D01*
G37*
D02*
G36*
X1942Y1141D02*
X1942Y1139D01*
X1940Y1139D01*
X1940Y1135D01*
X1936Y1135D01*
X1936Y1133D01*
X1934Y1133D01*
X1934Y1131D01*
X1932Y1131D01*
X1932Y1129D01*
X1928Y1129D01*
X1928Y1127D01*
X1924Y1127D01*
X1924Y1125D01*
X1920Y1125D01*
X1920Y1123D01*
X1910Y1123D01*
X1910Y1121D01*
X1996Y1121D01*
X1996Y1123D01*
X1988Y1123D01*
X1988Y1125D01*
X1982Y1125D01*
X1982Y1127D01*
X1978Y1127D01*
X1978Y1129D01*
X1976Y1129D01*
X1976Y1131D01*
X1972Y1131D01*
X1972Y1133D01*
X1970Y1133D01*
X1970Y1135D01*
X1968Y1135D01*
X1968Y1137D01*
X1966Y1137D01*
X1966Y1139D01*
X1964Y1139D01*
X1964Y1141D01*
X1942Y1141D01*
G37*
D02*
G36*
X2042Y1141D02*
X2042Y1139D01*
X2040Y1139D01*
X2040Y1135D01*
X2036Y1135D01*
X2036Y1133D01*
X2034Y1133D01*
X2034Y1131D01*
X2032Y1131D01*
X2032Y1129D01*
X2028Y1129D01*
X2028Y1127D01*
X2024Y1127D01*
X2024Y1125D01*
X2020Y1125D01*
X2020Y1123D01*
X2010Y1123D01*
X2010Y1121D01*
X2096Y1121D01*
X2096Y1123D01*
X2088Y1123D01*
X2088Y1125D01*
X2082Y1125D01*
X2082Y1127D01*
X2078Y1127D01*
X2078Y1129D01*
X2076Y1129D01*
X2076Y1131D01*
X2072Y1131D01*
X2072Y1133D01*
X2070Y1133D01*
X2070Y1135D01*
X2068Y1135D01*
X2068Y1137D01*
X2066Y1137D01*
X2066Y1139D01*
X2064Y1139D01*
X2064Y1141D01*
X2042Y1141D01*
G37*
D02*
G36*
X2142Y1141D02*
X2142Y1139D01*
X2140Y1139D01*
X2140Y1135D01*
X2136Y1135D01*
X2136Y1133D01*
X2134Y1133D01*
X2134Y1131D01*
X2132Y1131D01*
X2132Y1129D01*
X2128Y1129D01*
X2128Y1127D01*
X2124Y1127D01*
X2124Y1125D01*
X2120Y1125D01*
X2120Y1123D01*
X2110Y1123D01*
X2110Y1121D01*
X2196Y1121D01*
X2196Y1123D01*
X2188Y1123D01*
X2188Y1125D01*
X2182Y1125D01*
X2182Y1127D01*
X2178Y1127D01*
X2178Y1129D01*
X2176Y1129D01*
X2176Y1131D01*
X2172Y1131D01*
X2172Y1133D01*
X2170Y1133D01*
X2170Y1135D01*
X2168Y1135D01*
X2168Y1137D01*
X2166Y1137D01*
X2166Y1139D01*
X2164Y1139D01*
X2164Y1141D01*
X2142Y1141D01*
G37*
D02*
G36*
X2242Y1141D02*
X2242Y1139D01*
X2240Y1139D01*
X2240Y1135D01*
X2236Y1135D01*
X2236Y1133D01*
X2234Y1133D01*
X2234Y1131D01*
X2232Y1131D01*
X2232Y1129D01*
X2228Y1129D01*
X2228Y1127D01*
X2224Y1127D01*
X2224Y1125D01*
X2220Y1125D01*
X2220Y1123D01*
X2210Y1123D01*
X2210Y1121D01*
X2296Y1121D01*
X2296Y1123D01*
X2288Y1123D01*
X2288Y1125D01*
X2282Y1125D01*
X2282Y1127D01*
X2278Y1127D01*
X2278Y1129D01*
X2276Y1129D01*
X2276Y1131D01*
X2272Y1131D01*
X2272Y1133D01*
X2270Y1133D01*
X2270Y1135D01*
X2268Y1135D01*
X2268Y1137D01*
X2266Y1137D01*
X2266Y1139D01*
X2264Y1139D01*
X2264Y1141D01*
X2242Y1141D01*
G37*
D02*
G36*
X1558Y1127D02*
X1558Y1125D01*
X1556Y1125D01*
X1556Y1123D01*
X1554Y1123D01*
X1554Y1121D01*
X1596Y1121D01*
X1596Y1123D01*
X1588Y1123D01*
X1588Y1125D01*
X1582Y1125D01*
X1582Y1127D01*
X1558Y1127D01*
G37*
D02*
G36*
X1552Y1121D02*
X1552Y1119D01*
X3458Y1119D01*
X3458Y1121D01*
X1552Y1121D01*
G37*
D02*
G36*
X1552Y1121D02*
X1552Y1119D01*
X3458Y1119D01*
X3458Y1121D01*
X1552Y1121D01*
G37*
D02*
G36*
X1552Y1121D02*
X1552Y1119D01*
X3458Y1119D01*
X3458Y1121D01*
X1552Y1121D01*
G37*
D02*
G36*
X1552Y1121D02*
X1552Y1119D01*
X3458Y1119D01*
X3458Y1121D01*
X1552Y1121D01*
G37*
D02*
G36*
X1552Y1121D02*
X1552Y1119D01*
X3458Y1119D01*
X3458Y1121D01*
X1552Y1121D01*
G37*
D02*
G36*
X1552Y1121D02*
X1552Y1119D01*
X3458Y1119D01*
X3458Y1121D01*
X1552Y1121D01*
G37*
D02*
G36*
X1552Y1121D02*
X1552Y1119D01*
X3458Y1119D01*
X3458Y1121D01*
X1552Y1121D01*
G37*
D02*
G36*
X1552Y1121D02*
X1552Y1119D01*
X3458Y1119D01*
X3458Y1121D01*
X1552Y1121D01*
G37*
D02*
G36*
X1552Y1121D02*
X1552Y1119D01*
X3458Y1119D01*
X3458Y1121D01*
X1552Y1121D01*
G37*
D02*
G36*
X1550Y1119D02*
X1550Y1117D01*
X1548Y1117D01*
X1548Y1115D01*
X1546Y1115D01*
X1546Y1113D01*
X1544Y1113D01*
X1544Y1111D01*
X1542Y1111D01*
X1542Y1109D01*
X1540Y1109D01*
X1540Y1107D01*
X1538Y1107D01*
X1538Y1047D01*
X2962Y1047D01*
X2962Y1045D01*
X2968Y1045D01*
X2968Y1043D01*
X2974Y1043D01*
X2974Y1041D01*
X2978Y1041D01*
X2978Y1039D01*
X2982Y1039D01*
X2982Y1037D01*
X2984Y1037D01*
X2984Y1035D01*
X2986Y1035D01*
X2986Y1033D01*
X2988Y1033D01*
X2988Y1031D01*
X2990Y1031D01*
X2990Y1029D01*
X2992Y1029D01*
X2992Y1027D01*
X2994Y1027D01*
X2994Y1023D01*
X2996Y1023D01*
X2996Y1021D01*
X2998Y1021D01*
X2998Y1017D01*
X3000Y1017D01*
X3000Y1009D01*
X3002Y1009D01*
X3002Y985D01*
X3000Y985D01*
X3000Y979D01*
X2998Y979D01*
X2998Y975D01*
X2996Y975D01*
X2996Y971D01*
X2994Y971D01*
X2994Y969D01*
X2992Y969D01*
X2992Y965D01*
X2990Y965D01*
X2990Y963D01*
X2988Y963D01*
X2988Y961D01*
X2986Y961D01*
X2986Y959D01*
X2984Y959D01*
X2984Y957D01*
X2980Y957D01*
X2980Y955D01*
X2976Y955D01*
X2976Y953D01*
X2974Y953D01*
X2974Y951D01*
X2968Y951D01*
X2968Y949D01*
X2956Y949D01*
X2956Y947D01*
X3474Y947D01*
X3474Y957D01*
X3472Y957D01*
X3472Y959D01*
X3468Y959D01*
X3468Y961D01*
X3466Y961D01*
X3466Y965D01*
X3464Y965D01*
X3464Y967D01*
X3462Y967D01*
X3462Y969D01*
X3460Y969D01*
X3460Y973D01*
X3458Y973D01*
X3458Y977D01*
X3456Y977D01*
X3456Y981D01*
X3454Y981D01*
X3454Y991D01*
X3452Y991D01*
X3452Y1005D01*
X3454Y1005D01*
X3454Y1013D01*
X3456Y1013D01*
X3456Y1019D01*
X3458Y1019D01*
X3458Y1021D01*
X3460Y1021D01*
X3460Y1025D01*
X3462Y1025D01*
X3462Y1029D01*
X3464Y1029D01*
X3464Y1031D01*
X3466Y1031D01*
X3466Y1033D01*
X3468Y1033D01*
X3468Y1035D01*
X3470Y1035D01*
X3470Y1037D01*
X3474Y1037D01*
X3474Y1057D01*
X3472Y1057D01*
X3472Y1059D01*
X3468Y1059D01*
X3468Y1061D01*
X3466Y1061D01*
X3466Y1065D01*
X3464Y1065D01*
X3464Y1067D01*
X3462Y1067D01*
X3462Y1069D01*
X3460Y1069D01*
X3460Y1073D01*
X3458Y1073D01*
X3458Y1077D01*
X3456Y1077D01*
X3456Y1081D01*
X3454Y1081D01*
X3454Y1091D01*
X3452Y1091D01*
X3452Y1105D01*
X3454Y1105D01*
X3454Y1113D01*
X3456Y1113D01*
X3456Y1119D01*
X1550Y1119D01*
G37*
D02*
G36*
X1538Y1047D02*
X1538Y919D01*
X1540Y919D01*
X1540Y897D01*
X2682Y897D01*
X2682Y895D01*
X2708Y895D01*
X2708Y899D01*
X2710Y899D01*
X2710Y901D01*
X2712Y901D01*
X2712Y905D01*
X2714Y905D01*
X2714Y907D01*
X2716Y907D01*
X2716Y947D01*
X2604Y947D01*
X2604Y1047D01*
X1538Y1047D01*
G37*
D02*
G36*
X2702Y1047D02*
X2702Y1035D01*
X2722Y1035D01*
X2722Y1037D01*
X2726Y1037D01*
X2726Y1039D01*
X2728Y1039D01*
X2728Y1041D01*
X2732Y1041D01*
X2732Y1043D01*
X2738Y1043D01*
X2738Y1045D01*
X2746Y1045D01*
X2746Y1047D01*
X2702Y1047D01*
G37*
D02*
G36*
X2762Y1047D02*
X2762Y1045D01*
X2768Y1045D01*
X2768Y1043D01*
X2774Y1043D01*
X2774Y1041D01*
X2778Y1041D01*
X2778Y1039D01*
X2782Y1039D01*
X2782Y1037D01*
X2784Y1037D01*
X2784Y1035D01*
X2786Y1035D01*
X2786Y1033D01*
X2788Y1033D01*
X2788Y1031D01*
X2790Y1031D01*
X2790Y1029D01*
X2792Y1029D01*
X2792Y1027D01*
X2794Y1027D01*
X2794Y1025D01*
X2814Y1025D01*
X2814Y1029D01*
X2816Y1029D01*
X2816Y1031D01*
X2818Y1031D01*
X2818Y1033D01*
X2820Y1033D01*
X2820Y1035D01*
X2822Y1035D01*
X2822Y1037D01*
X2826Y1037D01*
X2826Y1039D01*
X2828Y1039D01*
X2828Y1041D01*
X2832Y1041D01*
X2832Y1043D01*
X2838Y1043D01*
X2838Y1045D01*
X2846Y1045D01*
X2846Y1047D01*
X2762Y1047D01*
G37*
D02*
G36*
X2862Y1047D02*
X2862Y1045D01*
X2868Y1045D01*
X2868Y1043D01*
X2874Y1043D01*
X2874Y1041D01*
X2878Y1041D01*
X2878Y1039D01*
X2882Y1039D01*
X2882Y1037D01*
X2884Y1037D01*
X2884Y1035D01*
X2886Y1035D01*
X2886Y1033D01*
X2888Y1033D01*
X2888Y1031D01*
X2890Y1031D01*
X2890Y1029D01*
X2892Y1029D01*
X2892Y1027D01*
X2894Y1027D01*
X2894Y1025D01*
X2914Y1025D01*
X2914Y1029D01*
X2916Y1029D01*
X2916Y1031D01*
X2918Y1031D01*
X2918Y1033D01*
X2920Y1033D01*
X2920Y1035D01*
X2922Y1035D01*
X2922Y1037D01*
X2926Y1037D01*
X2926Y1039D01*
X2928Y1039D01*
X2928Y1041D01*
X2932Y1041D01*
X2932Y1043D01*
X2938Y1043D01*
X2938Y1045D01*
X2946Y1045D01*
X2946Y1047D01*
X2862Y1047D01*
G37*
D02*
G36*
X48Y1021D02*
X48Y861D01*
X1112Y861D01*
X1112Y859D01*
X1120Y859D01*
X1120Y857D01*
X1124Y857D01*
X1124Y855D01*
X1128Y855D01*
X1128Y853D01*
X1132Y853D01*
X1132Y851D01*
X1134Y851D01*
X1134Y849D01*
X1136Y849D01*
X1136Y847D01*
X1140Y847D01*
X1140Y843D01*
X1142Y843D01*
X1142Y841D01*
X1164Y841D01*
X1164Y843D01*
X1166Y843D01*
X1166Y845D01*
X1168Y845D01*
X1168Y939D01*
X1166Y939D01*
X1166Y941D01*
X1164Y941D01*
X1164Y943D01*
X1162Y943D01*
X1162Y947D01*
X1160Y947D01*
X1160Y951D01*
X1158Y951D01*
X1158Y955D01*
X1156Y955D01*
X1156Y961D01*
X1154Y961D01*
X1154Y983D01*
X1156Y983D01*
X1156Y989D01*
X1158Y989D01*
X1158Y995D01*
X1160Y995D01*
X1160Y997D01*
X1162Y997D01*
X1162Y1001D01*
X1164Y1001D01*
X1164Y1003D01*
X1166Y1003D01*
X1166Y1005D01*
X1168Y1005D01*
X1168Y1009D01*
X1172Y1009D01*
X1172Y1011D01*
X1174Y1011D01*
X1174Y1013D01*
X1176Y1013D01*
X1176Y1015D01*
X1180Y1015D01*
X1180Y1017D01*
X1184Y1017D01*
X1184Y1019D01*
X1190Y1019D01*
X1190Y1021D01*
X48Y1021D01*
G37*
D02*
G36*
X1216Y1021D02*
X1216Y1019D01*
X1222Y1019D01*
X1222Y1017D01*
X1226Y1017D01*
X1226Y1015D01*
X1230Y1015D01*
X1230Y1013D01*
X1232Y1013D01*
X1232Y1011D01*
X1236Y1011D01*
X1236Y1009D01*
X1238Y1009D01*
X1238Y1007D01*
X1240Y1007D01*
X1240Y1005D01*
X1242Y1005D01*
X1242Y1001D01*
X1264Y1001D01*
X1264Y1003D01*
X1266Y1003D01*
X1266Y1005D01*
X1268Y1005D01*
X1268Y1009D01*
X1272Y1009D01*
X1272Y1011D01*
X1274Y1011D01*
X1274Y1013D01*
X1276Y1013D01*
X1276Y1015D01*
X1280Y1015D01*
X1280Y1017D01*
X1284Y1017D01*
X1284Y1019D01*
X1290Y1019D01*
X1290Y1021D01*
X1216Y1021D01*
G37*
D02*
G36*
X2792Y969D02*
X2792Y965D01*
X2790Y965D01*
X2790Y963D01*
X2788Y963D01*
X2788Y889D01*
X2786Y889D01*
X2786Y883D01*
X2784Y883D01*
X2784Y879D01*
X2782Y879D01*
X2782Y875D01*
X2780Y875D01*
X2780Y873D01*
X2778Y873D01*
X2778Y869D01*
X2776Y869D01*
X2776Y867D01*
X2774Y867D01*
X2774Y865D01*
X2772Y865D01*
X2772Y861D01*
X2770Y861D01*
X2770Y859D01*
X2768Y859D01*
X2768Y855D01*
X2766Y855D01*
X2766Y853D01*
X2764Y853D01*
X2764Y849D01*
X2762Y849D01*
X2762Y847D01*
X2760Y847D01*
X2760Y845D01*
X2758Y845D01*
X2758Y841D01*
X2756Y841D01*
X2756Y839D01*
X2754Y839D01*
X2754Y835D01*
X2752Y835D01*
X2752Y833D01*
X2750Y833D01*
X2750Y829D01*
X2748Y829D01*
X2748Y827D01*
X2746Y827D01*
X2746Y823D01*
X2744Y823D01*
X2744Y821D01*
X2740Y821D01*
X2740Y819D01*
X2738Y819D01*
X2738Y817D01*
X2734Y817D01*
X2734Y815D01*
X2730Y815D01*
X2730Y813D01*
X2720Y813D01*
X2720Y811D01*
X2710Y811D01*
X2710Y809D01*
X2708Y809D01*
X2708Y807D01*
X2704Y807D01*
X2704Y805D01*
X2700Y805D01*
X2700Y803D01*
X2696Y803D01*
X2696Y801D01*
X2690Y801D01*
X2690Y799D01*
X2672Y799D01*
X2672Y797D01*
X2670Y797D01*
X2670Y795D01*
X2668Y795D01*
X2668Y793D01*
X2666Y793D01*
X2666Y773D01*
X2890Y773D01*
X2890Y771D01*
X2896Y771D01*
X2896Y769D01*
X2900Y769D01*
X2900Y767D01*
X2904Y767D01*
X2904Y765D01*
X2908Y765D01*
X2908Y763D01*
X2910Y763D01*
X2910Y761D01*
X2912Y761D01*
X2912Y759D01*
X2914Y759D01*
X2914Y757D01*
X2916Y757D01*
X2916Y755D01*
X2918Y755D01*
X2918Y753D01*
X2938Y753D01*
X2938Y755D01*
X2940Y755D01*
X2940Y757D01*
X2942Y757D01*
X2942Y811D01*
X2900Y811D01*
X2900Y813D01*
X2890Y813D01*
X2890Y815D01*
X2886Y815D01*
X2886Y817D01*
X2882Y817D01*
X2882Y819D01*
X2880Y819D01*
X2880Y821D01*
X2878Y821D01*
X2878Y823D01*
X2876Y823D01*
X2876Y825D01*
X2874Y825D01*
X2874Y827D01*
X2872Y827D01*
X2872Y829D01*
X2870Y829D01*
X2870Y831D01*
X2868Y831D01*
X2868Y833D01*
X2866Y833D01*
X2866Y835D01*
X2864Y835D01*
X2864Y837D01*
X2862Y837D01*
X2862Y839D01*
X2860Y839D01*
X2860Y841D01*
X2858Y841D01*
X2858Y843D01*
X2856Y843D01*
X2856Y845D01*
X2854Y845D01*
X2854Y847D01*
X2850Y847D01*
X2850Y849D01*
X2848Y849D01*
X2848Y851D01*
X2846Y851D01*
X2846Y853D01*
X2844Y853D01*
X2844Y855D01*
X2842Y855D01*
X2842Y857D01*
X2840Y857D01*
X2840Y859D01*
X2838Y859D01*
X2838Y861D01*
X2836Y861D01*
X2836Y863D01*
X2834Y863D01*
X2834Y865D01*
X2832Y865D01*
X2832Y867D01*
X2830Y867D01*
X2830Y869D01*
X2828Y869D01*
X2828Y871D01*
X2826Y871D01*
X2826Y873D01*
X2824Y873D01*
X2824Y877D01*
X2822Y877D01*
X2822Y879D01*
X2820Y879D01*
X2820Y883D01*
X2818Y883D01*
X2818Y891D01*
X2816Y891D01*
X2816Y967D01*
X2814Y967D01*
X2814Y969D01*
X2792Y969D01*
G37*
D02*
G36*
X2892Y969D02*
X2892Y965D01*
X2890Y965D01*
X2890Y963D01*
X2888Y963D01*
X2888Y947D01*
X2950Y947D01*
X2950Y949D01*
X2940Y949D01*
X2940Y951D01*
X2934Y951D01*
X2934Y953D01*
X2930Y953D01*
X2930Y955D01*
X2926Y955D01*
X2926Y957D01*
X2924Y957D01*
X2924Y959D01*
X2922Y959D01*
X2922Y961D01*
X2918Y961D01*
X2918Y963D01*
X2916Y963D01*
X2916Y967D01*
X2914Y967D01*
X2914Y969D01*
X2892Y969D01*
G37*
D02*
G36*
X2888Y947D02*
X2888Y945D01*
X3474Y945D01*
X3474Y947D01*
X2888Y947D01*
G37*
D02*
G36*
X2888Y947D02*
X2888Y945D01*
X3474Y945D01*
X3474Y947D01*
X2888Y947D01*
G37*
D02*
G36*
X2888Y945D02*
X2888Y911D01*
X2890Y911D01*
X2890Y909D01*
X2892Y909D01*
X2892Y907D01*
X2894Y907D01*
X2894Y905D01*
X2896Y905D01*
X2896Y903D01*
X2898Y903D01*
X2898Y901D01*
X2900Y901D01*
X2900Y899D01*
X2902Y899D01*
X2902Y897D01*
X2982Y897D01*
X2982Y895D01*
X2992Y895D01*
X2992Y893D01*
X2998Y893D01*
X2998Y891D01*
X3002Y891D01*
X3002Y889D01*
X3006Y889D01*
X3006Y887D01*
X3008Y887D01*
X3008Y885D01*
X3010Y885D01*
X3010Y883D01*
X3012Y883D01*
X3012Y881D01*
X3014Y881D01*
X3014Y879D01*
X3016Y879D01*
X3016Y877D01*
X3018Y877D01*
X3018Y875D01*
X3020Y875D01*
X3020Y871D01*
X3022Y871D01*
X3022Y867D01*
X3024Y867D01*
X3024Y861D01*
X3026Y861D01*
X3026Y853D01*
X3028Y853D01*
X3028Y847D01*
X3490Y847D01*
X3490Y849D01*
X3484Y849D01*
X3484Y851D01*
X3480Y851D01*
X3480Y853D01*
X3476Y853D01*
X3476Y855D01*
X3474Y855D01*
X3474Y857D01*
X3472Y857D01*
X3472Y859D01*
X3468Y859D01*
X3468Y861D01*
X3466Y861D01*
X3466Y865D01*
X3464Y865D01*
X3464Y867D01*
X3462Y867D01*
X3462Y869D01*
X3460Y869D01*
X3460Y873D01*
X3458Y873D01*
X3458Y877D01*
X3456Y877D01*
X3456Y881D01*
X3454Y881D01*
X3454Y891D01*
X3452Y891D01*
X3452Y905D01*
X3454Y905D01*
X3454Y913D01*
X3456Y913D01*
X3456Y919D01*
X3458Y919D01*
X3458Y921D01*
X3460Y921D01*
X3460Y925D01*
X3462Y925D01*
X3462Y929D01*
X3464Y929D01*
X3464Y931D01*
X3466Y931D01*
X3466Y933D01*
X3468Y933D01*
X3468Y935D01*
X3470Y935D01*
X3470Y937D01*
X3474Y937D01*
X3474Y945D01*
X2888Y945D01*
G37*
D02*
G36*
X1540Y897D02*
X1540Y843D01*
X1542Y843D01*
X1542Y841D01*
X1544Y841D01*
X1544Y839D01*
X1546Y839D01*
X1546Y835D01*
X1548Y835D01*
X1548Y833D01*
X1550Y833D01*
X1550Y827D01*
X1552Y827D01*
X1552Y821D01*
X1554Y821D01*
X1554Y799D01*
X1552Y799D01*
X1552Y791D01*
X1550Y791D01*
X1550Y787D01*
X1548Y787D01*
X1548Y783D01*
X1546Y783D01*
X1546Y781D01*
X1544Y781D01*
X1544Y779D01*
X1542Y779D01*
X1542Y775D01*
X1540Y775D01*
X1540Y673D01*
X2588Y673D01*
X2588Y771D01*
X2594Y771D01*
X2594Y797D01*
X2592Y797D01*
X2592Y813D01*
X2594Y813D01*
X2594Y821D01*
X2596Y821D01*
X2596Y825D01*
X2598Y825D01*
X2598Y829D01*
X2600Y829D01*
X2600Y831D01*
X2602Y831D01*
X2602Y833D01*
X2604Y833D01*
X2604Y835D01*
X2606Y835D01*
X2606Y837D01*
X2608Y837D01*
X2608Y839D01*
X2610Y839D01*
X2610Y841D01*
X2612Y841D01*
X2612Y843D01*
X2616Y843D01*
X2616Y845D01*
X2618Y845D01*
X2618Y847D01*
X2620Y847D01*
X2620Y849D01*
X2624Y849D01*
X2624Y851D01*
X2626Y851D01*
X2626Y853D01*
X2630Y853D01*
X2630Y859D01*
X2632Y859D01*
X2632Y865D01*
X2634Y865D01*
X2634Y869D01*
X2636Y869D01*
X2636Y873D01*
X2638Y873D01*
X2638Y877D01*
X2640Y877D01*
X2640Y879D01*
X2642Y879D01*
X2642Y881D01*
X2644Y881D01*
X2644Y883D01*
X2646Y883D01*
X2646Y885D01*
X2648Y885D01*
X2648Y887D01*
X2652Y887D01*
X2652Y889D01*
X2654Y889D01*
X2654Y891D01*
X2658Y891D01*
X2658Y893D01*
X2664Y893D01*
X2664Y895D01*
X2674Y895D01*
X2674Y897D01*
X1540Y897D01*
G37*
D02*
G36*
X2904Y897D02*
X2904Y895D01*
X2906Y895D01*
X2906Y893D01*
X2908Y893D01*
X2908Y891D01*
X2910Y891D01*
X2910Y889D01*
X2912Y889D01*
X2912Y887D01*
X2916Y887D01*
X2916Y885D01*
X2918Y885D01*
X2918Y883D01*
X2946Y883D01*
X2946Y885D01*
X2948Y885D01*
X2948Y887D01*
X2952Y887D01*
X2952Y889D01*
X2954Y889D01*
X2954Y891D01*
X2958Y891D01*
X2958Y893D01*
X2964Y893D01*
X2964Y895D01*
X2974Y895D01*
X2974Y897D01*
X2904Y897D01*
G37*
D02*
G36*
X48Y861D02*
X48Y825D01*
X332Y825D01*
X332Y759D01*
X1092Y759D01*
X1092Y761D01*
X1086Y761D01*
X1086Y763D01*
X1082Y763D01*
X1082Y765D01*
X1078Y765D01*
X1078Y767D01*
X1074Y767D01*
X1074Y769D01*
X1072Y769D01*
X1072Y771D01*
X1070Y771D01*
X1070Y773D01*
X1068Y773D01*
X1068Y775D01*
X1066Y775D01*
X1066Y777D01*
X1064Y777D01*
X1064Y779D01*
X1062Y779D01*
X1062Y781D01*
X1060Y781D01*
X1060Y785D01*
X1058Y785D01*
X1058Y789D01*
X1056Y789D01*
X1056Y793D01*
X1054Y793D01*
X1054Y803D01*
X1052Y803D01*
X1052Y817D01*
X1054Y817D01*
X1054Y825D01*
X1056Y825D01*
X1056Y831D01*
X1058Y831D01*
X1058Y835D01*
X1060Y835D01*
X1060Y837D01*
X1062Y837D01*
X1062Y841D01*
X1064Y841D01*
X1064Y843D01*
X1066Y843D01*
X1066Y845D01*
X1068Y845D01*
X1068Y847D01*
X1070Y847D01*
X1070Y849D01*
X1072Y849D01*
X1072Y851D01*
X1076Y851D01*
X1076Y853D01*
X1078Y853D01*
X1078Y855D01*
X1082Y855D01*
X1082Y857D01*
X1088Y857D01*
X1088Y859D01*
X1096Y859D01*
X1096Y861D01*
X48Y861D01*
G37*
D02*
G36*
X1340Y861D02*
X1340Y843D01*
X1342Y843D01*
X1342Y841D01*
X1364Y841D01*
X1364Y843D01*
X1366Y843D01*
X1366Y845D01*
X1368Y845D01*
X1368Y847D01*
X1370Y847D01*
X1370Y849D01*
X1372Y849D01*
X1372Y851D01*
X1376Y851D01*
X1376Y853D01*
X1378Y853D01*
X1378Y855D01*
X1382Y855D01*
X1382Y857D01*
X1388Y857D01*
X1388Y859D01*
X1396Y859D01*
X1396Y861D01*
X1340Y861D01*
G37*
D02*
G36*
X3538Y861D02*
X3538Y859D01*
X3536Y859D01*
X3536Y857D01*
X3532Y857D01*
X3532Y855D01*
X3530Y855D01*
X3530Y853D01*
X3526Y853D01*
X3526Y851D01*
X3522Y851D01*
X3522Y849D01*
X3516Y849D01*
X3516Y847D01*
X3678Y847D01*
X3678Y857D01*
X3676Y857D01*
X3676Y859D01*
X3672Y859D01*
X3672Y861D01*
X3538Y861D01*
G37*
D02*
G36*
X3028Y847D02*
X3028Y845D01*
X3678Y845D01*
X3678Y847D01*
X3028Y847D01*
G37*
D02*
G36*
X3028Y847D02*
X3028Y845D01*
X3678Y845D01*
X3678Y847D01*
X3028Y847D01*
G37*
D02*
G36*
X3028Y845D02*
X3028Y843D01*
X3026Y843D01*
X3026Y833D01*
X3024Y833D01*
X3024Y827D01*
X3022Y827D01*
X3022Y823D01*
X3020Y823D01*
X3020Y821D01*
X3018Y821D01*
X3018Y817D01*
X3016Y817D01*
X3016Y815D01*
X3014Y815D01*
X3014Y757D01*
X3016Y757D01*
X3016Y755D01*
X3018Y755D01*
X3018Y753D01*
X3020Y753D01*
X3020Y749D01*
X3508Y749D01*
X3508Y747D01*
X3518Y747D01*
X3518Y745D01*
X3524Y745D01*
X3524Y743D01*
X3528Y743D01*
X3528Y741D01*
X3530Y741D01*
X3530Y739D01*
X3534Y739D01*
X3534Y737D01*
X3536Y737D01*
X3536Y735D01*
X3538Y735D01*
X3538Y733D01*
X3672Y733D01*
X3672Y735D01*
X3674Y735D01*
X3674Y737D01*
X3678Y737D01*
X3678Y757D01*
X3676Y757D01*
X3676Y759D01*
X3672Y759D01*
X3672Y761D01*
X3670Y761D01*
X3670Y763D01*
X3668Y763D01*
X3668Y765D01*
X3666Y765D01*
X3666Y769D01*
X3664Y769D01*
X3664Y771D01*
X3662Y771D01*
X3662Y775D01*
X3660Y775D01*
X3660Y777D01*
X3658Y777D01*
X3658Y785D01*
X3656Y785D01*
X3656Y795D01*
X3654Y795D01*
X3654Y799D01*
X3656Y799D01*
X3656Y811D01*
X3658Y811D01*
X3658Y817D01*
X3660Y817D01*
X3660Y821D01*
X3662Y821D01*
X3662Y823D01*
X3664Y823D01*
X3664Y827D01*
X3666Y827D01*
X3666Y829D01*
X3668Y829D01*
X3668Y831D01*
X3670Y831D01*
X3670Y833D01*
X3672Y833D01*
X3672Y835D01*
X3674Y835D01*
X3674Y837D01*
X3678Y837D01*
X3678Y845D01*
X3028Y845D01*
G37*
D02*
G36*
X48Y825D02*
X48Y719D01*
X224Y719D01*
X224Y825D01*
X48Y825D01*
G37*
D02*
G36*
X1142Y779D02*
X1142Y775D01*
X1140Y775D01*
X1140Y773D01*
X1138Y773D01*
X1138Y771D01*
X1134Y771D01*
X1134Y769D01*
X1132Y769D01*
X1132Y767D01*
X1128Y767D01*
X1128Y765D01*
X1126Y765D01*
X1126Y763D01*
X1120Y763D01*
X1120Y761D01*
X1114Y761D01*
X1114Y759D01*
X1192Y759D01*
X1192Y761D01*
X1186Y761D01*
X1186Y763D01*
X1182Y763D01*
X1182Y765D01*
X1178Y765D01*
X1178Y767D01*
X1174Y767D01*
X1174Y769D01*
X1172Y769D01*
X1172Y771D01*
X1170Y771D01*
X1170Y773D01*
X1168Y773D01*
X1168Y775D01*
X1166Y775D01*
X1166Y777D01*
X1164Y777D01*
X1164Y779D01*
X1142Y779D01*
G37*
D02*
G36*
X1242Y779D02*
X1242Y775D01*
X1240Y775D01*
X1240Y773D01*
X1238Y773D01*
X1238Y771D01*
X1234Y771D01*
X1234Y769D01*
X1232Y769D01*
X1232Y767D01*
X1228Y767D01*
X1228Y765D01*
X1226Y765D01*
X1226Y763D01*
X1220Y763D01*
X1220Y761D01*
X1214Y761D01*
X1214Y759D01*
X1292Y759D01*
X1292Y761D01*
X1286Y761D01*
X1286Y763D01*
X1282Y763D01*
X1282Y765D01*
X1278Y765D01*
X1278Y767D01*
X1274Y767D01*
X1274Y769D01*
X1272Y769D01*
X1272Y771D01*
X1270Y771D01*
X1270Y773D01*
X1268Y773D01*
X1268Y775D01*
X1266Y775D01*
X1266Y777D01*
X1264Y777D01*
X1264Y779D01*
X1242Y779D01*
G37*
D02*
G36*
X1342Y779D02*
X1342Y775D01*
X1340Y775D01*
X1340Y773D01*
X1338Y773D01*
X1338Y771D01*
X1334Y771D01*
X1334Y769D01*
X1332Y769D01*
X1332Y767D01*
X1328Y767D01*
X1328Y765D01*
X1326Y765D01*
X1326Y763D01*
X1320Y763D01*
X1320Y761D01*
X1314Y761D01*
X1314Y759D01*
X1368Y759D01*
X1368Y775D01*
X1366Y775D01*
X1366Y777D01*
X1364Y777D01*
X1364Y779D01*
X1342Y779D01*
G37*
D02*
G36*
X2666Y773D02*
X2666Y771D01*
X2796Y771D01*
X2796Y759D01*
X2844Y759D01*
X2844Y761D01*
X2846Y761D01*
X2846Y763D01*
X2850Y763D01*
X2850Y765D01*
X2852Y765D01*
X2852Y767D01*
X2856Y767D01*
X2856Y769D01*
X2860Y769D01*
X2860Y771D01*
X2868Y771D01*
X2868Y773D01*
X2666Y773D01*
G37*
D02*
G36*
X2674Y771D02*
X2674Y673D01*
X2710Y673D01*
X2710Y771D01*
X2674Y771D01*
G37*
D02*
G36*
X332Y759D02*
X332Y757D01*
X1368Y757D01*
X1368Y759D01*
X332Y759D01*
G37*
D02*
G36*
X332Y759D02*
X332Y757D01*
X1368Y757D01*
X1368Y759D01*
X332Y759D01*
G37*
D02*
G36*
X332Y759D02*
X332Y757D01*
X1368Y757D01*
X1368Y759D01*
X332Y759D01*
G37*
D02*
G36*
X332Y759D02*
X332Y757D01*
X1368Y757D01*
X1368Y759D01*
X332Y759D01*
G37*
D02*
G36*
X332Y757D02*
X332Y719D01*
X1368Y719D01*
X1368Y757D01*
X332Y757D01*
G37*
D02*
G36*
X3022Y749D02*
X3022Y747D01*
X3024Y747D01*
X3024Y743D01*
X3026Y743D01*
X3026Y737D01*
X3028Y737D01*
X3028Y727D01*
X3030Y727D01*
X3030Y717D01*
X3028Y717D01*
X3028Y707D01*
X3026Y707D01*
X3026Y701D01*
X3024Y701D01*
X3024Y699D01*
X3022Y699D01*
X3022Y695D01*
X3020Y695D01*
X3020Y691D01*
X3018Y691D01*
X3018Y689D01*
X3016Y689D01*
X3016Y687D01*
X3014Y687D01*
X3014Y685D01*
X3012Y685D01*
X3012Y683D01*
X3010Y683D01*
X3010Y681D01*
X3006Y681D01*
X3006Y679D01*
X3004Y679D01*
X3004Y677D01*
X3000Y677D01*
X3000Y675D01*
X2994Y675D01*
X2994Y673D01*
X2986Y673D01*
X2986Y671D01*
X3460Y671D01*
X3460Y673D01*
X3458Y673D01*
X3458Y677D01*
X3456Y677D01*
X3456Y681D01*
X3454Y681D01*
X3454Y691D01*
X3452Y691D01*
X3452Y705D01*
X3454Y705D01*
X3454Y713D01*
X3456Y713D01*
X3456Y719D01*
X3458Y719D01*
X3458Y721D01*
X3460Y721D01*
X3460Y725D01*
X3462Y725D01*
X3462Y729D01*
X3464Y729D01*
X3464Y731D01*
X3466Y731D01*
X3466Y733D01*
X3468Y733D01*
X3468Y735D01*
X3470Y735D01*
X3470Y737D01*
X3474Y737D01*
X3474Y739D01*
X3476Y739D01*
X3476Y741D01*
X3480Y741D01*
X3480Y743D01*
X3484Y743D01*
X3484Y745D01*
X3488Y745D01*
X3488Y747D01*
X3498Y747D01*
X3498Y749D01*
X3022Y749D01*
G37*
D02*
G36*
X48Y719D02*
X48Y717D01*
X1368Y717D01*
X1368Y719D01*
X48Y719D01*
G37*
D02*
G36*
X48Y719D02*
X48Y717D01*
X1368Y717D01*
X1368Y719D01*
X48Y719D01*
G37*
D02*
G36*
X48Y717D02*
X48Y629D01*
X288Y629D01*
X288Y627D01*
X296Y627D01*
X296Y625D01*
X300Y625D01*
X300Y623D01*
X304Y623D01*
X304Y621D01*
X1216Y621D01*
X1216Y619D01*
X1222Y619D01*
X1222Y617D01*
X1226Y617D01*
X1226Y615D01*
X1230Y615D01*
X1230Y613D01*
X1232Y613D01*
X1232Y611D01*
X1234Y611D01*
X1234Y609D01*
X1238Y609D01*
X1238Y607D01*
X1240Y607D01*
X1240Y605D01*
X1242Y605D01*
X1242Y601D01*
X1244Y601D01*
X1244Y599D01*
X1246Y599D01*
X1246Y595D01*
X1248Y595D01*
X1248Y591D01*
X1250Y591D01*
X1250Y585D01*
X1252Y585D01*
X1252Y559D01*
X1250Y559D01*
X1250Y553D01*
X1248Y553D01*
X1248Y549D01*
X1246Y549D01*
X1246Y545D01*
X1244Y545D01*
X1244Y543D01*
X1242Y543D01*
X1242Y541D01*
X1240Y541D01*
X1240Y539D01*
X1238Y539D01*
X1238Y537D01*
X1236Y537D01*
X1236Y535D01*
X1234Y535D01*
X1234Y533D01*
X1232Y533D01*
X1232Y531D01*
X1228Y531D01*
X1228Y529D01*
X1224Y529D01*
X1224Y527D01*
X1220Y527D01*
X1220Y525D01*
X1214Y525D01*
X1214Y523D01*
X1368Y523D01*
X1368Y717D01*
X48Y717D01*
G37*
D02*
G36*
X2918Y691D02*
X2918Y689D01*
X2916Y689D01*
X2916Y687D01*
X2914Y687D01*
X2914Y685D01*
X2912Y685D01*
X2912Y683D01*
X2910Y683D01*
X2910Y681D01*
X2906Y681D01*
X2906Y679D01*
X2904Y679D01*
X2904Y677D01*
X2900Y677D01*
X2900Y675D01*
X2894Y675D01*
X2894Y673D01*
X2886Y673D01*
X2886Y671D01*
X2970Y671D01*
X2970Y673D01*
X2962Y673D01*
X2962Y675D01*
X2958Y675D01*
X2958Y677D01*
X2954Y677D01*
X2954Y679D01*
X2950Y679D01*
X2950Y681D01*
X2948Y681D01*
X2948Y683D01*
X2946Y683D01*
X2946Y685D01*
X2942Y685D01*
X2942Y687D01*
X2940Y687D01*
X2940Y691D01*
X2918Y691D01*
G37*
D02*
G36*
X2796Y687D02*
X2796Y673D01*
X2862Y673D01*
X2862Y675D01*
X2858Y675D01*
X2858Y677D01*
X2854Y677D01*
X2854Y679D01*
X2850Y679D01*
X2850Y681D01*
X2848Y681D01*
X2848Y683D01*
X2846Y683D01*
X2846Y685D01*
X2842Y685D01*
X2842Y687D01*
X2796Y687D01*
G37*
D02*
G36*
X1540Y673D02*
X1540Y671D01*
X2870Y671D01*
X2870Y673D01*
X1540Y673D01*
G37*
D02*
G36*
X1540Y673D02*
X1540Y671D01*
X2870Y671D01*
X2870Y673D01*
X1540Y673D01*
G37*
D02*
G36*
X1540Y673D02*
X1540Y671D01*
X2870Y671D01*
X2870Y673D01*
X1540Y673D01*
G37*
D02*
G36*
X1540Y671D02*
X1540Y573D01*
X1668Y573D01*
X1668Y575D01*
X1660Y575D01*
X1660Y577D01*
X1656Y577D01*
X1656Y579D01*
X1652Y579D01*
X1652Y581D01*
X1650Y581D01*
X1650Y583D01*
X1648Y583D01*
X1648Y585D01*
X1644Y585D01*
X1644Y587D01*
X1642Y587D01*
X1642Y589D01*
X1640Y589D01*
X1640Y593D01*
X1638Y593D01*
X1638Y595D01*
X1636Y595D01*
X1636Y599D01*
X1634Y599D01*
X1634Y603D01*
X1632Y603D01*
X1632Y609D01*
X1630Y609D01*
X1630Y617D01*
X1628Y617D01*
X1628Y627D01*
X1630Y627D01*
X1630Y637D01*
X1632Y637D01*
X1632Y643D01*
X1634Y643D01*
X1634Y647D01*
X1636Y647D01*
X1636Y649D01*
X1638Y649D01*
X1638Y653D01*
X1640Y653D01*
X1640Y655D01*
X1642Y655D01*
X1642Y657D01*
X1644Y657D01*
X1644Y659D01*
X1646Y659D01*
X1646Y661D01*
X1648Y661D01*
X1648Y663D01*
X1652Y663D01*
X1652Y665D01*
X1656Y665D01*
X1656Y667D01*
X1658Y667D01*
X1658Y669D01*
X1666Y669D01*
X1666Y671D01*
X1540Y671D01*
G37*
D02*
G36*
X1692Y671D02*
X1692Y669D01*
X3460Y669D01*
X3460Y671D01*
X1692Y671D01*
G37*
D02*
G36*
X1692Y671D02*
X1692Y669D01*
X3460Y669D01*
X3460Y671D01*
X1692Y671D01*
G37*
D02*
G36*
X1692Y671D02*
X1692Y669D01*
X3460Y669D01*
X3460Y671D01*
X1692Y671D01*
G37*
D02*
G36*
X1698Y669D02*
X1698Y667D01*
X1702Y667D01*
X1702Y665D01*
X1706Y665D01*
X1706Y663D01*
X1708Y663D01*
X1708Y661D01*
X1710Y661D01*
X1710Y659D01*
X1712Y659D01*
X1712Y657D01*
X1714Y657D01*
X1714Y655D01*
X1716Y655D01*
X1716Y653D01*
X1718Y653D01*
X1718Y651D01*
X1720Y651D01*
X1720Y647D01*
X1722Y647D01*
X1722Y643D01*
X1724Y643D01*
X1724Y639D01*
X1726Y639D01*
X1726Y631D01*
X1728Y631D01*
X1728Y613D01*
X1726Y613D01*
X1726Y605D01*
X1724Y605D01*
X1724Y601D01*
X1722Y601D01*
X1722Y597D01*
X1720Y597D01*
X1720Y593D01*
X1718Y593D01*
X1718Y591D01*
X1716Y591D01*
X1716Y589D01*
X1714Y589D01*
X1714Y587D01*
X1712Y587D01*
X1712Y585D01*
X1710Y585D01*
X1710Y583D01*
X1708Y583D01*
X1708Y581D01*
X1704Y581D01*
X1704Y579D01*
X1700Y579D01*
X1700Y577D01*
X1696Y577D01*
X1696Y575D01*
X1690Y575D01*
X1690Y573D01*
X3458Y573D01*
X3458Y577D01*
X3456Y577D01*
X3456Y581D01*
X3454Y581D01*
X3454Y591D01*
X3452Y591D01*
X3452Y605D01*
X3454Y605D01*
X3454Y613D01*
X3456Y613D01*
X3456Y619D01*
X3458Y619D01*
X3458Y621D01*
X3460Y621D01*
X3460Y625D01*
X3462Y625D01*
X3462Y629D01*
X3464Y629D01*
X3464Y631D01*
X3466Y631D01*
X3466Y633D01*
X3468Y633D01*
X3468Y635D01*
X3470Y635D01*
X3470Y637D01*
X3474Y637D01*
X3474Y657D01*
X3472Y657D01*
X3472Y659D01*
X3468Y659D01*
X3468Y661D01*
X3466Y661D01*
X3466Y665D01*
X3464Y665D01*
X3464Y667D01*
X3462Y667D01*
X3462Y669D01*
X1698Y669D01*
G37*
D02*
G36*
X48Y629D02*
X48Y521D01*
X274Y521D01*
X274Y523D01*
X264Y523D01*
X264Y525D01*
X258Y525D01*
X258Y527D01*
X254Y527D01*
X254Y529D01*
X250Y529D01*
X250Y531D01*
X248Y531D01*
X248Y533D01*
X244Y533D01*
X244Y535D01*
X242Y535D01*
X242Y537D01*
X240Y537D01*
X240Y539D01*
X238Y539D01*
X238Y541D01*
X236Y541D01*
X236Y545D01*
X234Y545D01*
X234Y547D01*
X232Y547D01*
X232Y551D01*
X230Y551D01*
X230Y555D01*
X228Y555D01*
X228Y561D01*
X226Y561D01*
X226Y571D01*
X224Y571D01*
X224Y581D01*
X226Y581D01*
X226Y591D01*
X228Y591D01*
X228Y597D01*
X230Y597D01*
X230Y601D01*
X232Y601D01*
X232Y603D01*
X234Y603D01*
X234Y607D01*
X236Y607D01*
X236Y609D01*
X238Y609D01*
X238Y611D01*
X240Y611D01*
X240Y613D01*
X242Y613D01*
X242Y615D01*
X244Y615D01*
X244Y617D01*
X246Y617D01*
X246Y619D01*
X248Y619D01*
X248Y621D01*
X252Y621D01*
X252Y623D01*
X256Y623D01*
X256Y625D01*
X260Y625D01*
X260Y627D01*
X268Y627D01*
X268Y629D01*
X48Y629D01*
G37*
D02*
G36*
X308Y621D02*
X308Y619D01*
X310Y619D01*
X310Y617D01*
X314Y617D01*
X314Y615D01*
X316Y615D01*
X316Y613D01*
X318Y613D01*
X318Y611D01*
X320Y611D01*
X320Y607D01*
X322Y607D01*
X322Y605D01*
X324Y605D01*
X324Y601D01*
X326Y601D01*
X326Y597D01*
X328Y597D01*
X328Y593D01*
X330Y593D01*
X330Y585D01*
X332Y585D01*
X332Y565D01*
X330Y565D01*
X330Y557D01*
X328Y557D01*
X328Y553D01*
X326Y553D01*
X326Y549D01*
X324Y549D01*
X324Y545D01*
X322Y545D01*
X322Y543D01*
X320Y543D01*
X320Y541D01*
X318Y541D01*
X318Y539D01*
X316Y539D01*
X316Y537D01*
X314Y537D01*
X314Y535D01*
X312Y535D01*
X312Y533D01*
X310Y533D01*
X310Y531D01*
X306Y531D01*
X306Y529D01*
X302Y529D01*
X302Y527D01*
X300Y527D01*
X300Y525D01*
X294Y525D01*
X294Y523D01*
X938Y523D01*
X938Y525D01*
X930Y525D01*
X930Y527D01*
X926Y527D01*
X926Y529D01*
X922Y529D01*
X922Y531D01*
X918Y531D01*
X918Y533D01*
X916Y533D01*
X916Y535D01*
X914Y535D01*
X914Y537D01*
X912Y537D01*
X912Y539D01*
X910Y539D01*
X910Y541D01*
X908Y541D01*
X908Y545D01*
X906Y545D01*
X906Y547D01*
X904Y547D01*
X904Y551D01*
X902Y551D01*
X902Y555D01*
X900Y555D01*
X900Y563D01*
X898Y563D01*
X898Y581D01*
X900Y581D01*
X900Y589D01*
X902Y589D01*
X902Y593D01*
X904Y593D01*
X904Y597D01*
X906Y597D01*
X906Y601D01*
X908Y601D01*
X908Y603D01*
X910Y603D01*
X910Y605D01*
X912Y605D01*
X912Y607D01*
X914Y607D01*
X914Y609D01*
X916Y609D01*
X916Y611D01*
X918Y611D01*
X918Y613D01*
X922Y613D01*
X922Y615D01*
X924Y615D01*
X924Y617D01*
X928Y617D01*
X928Y619D01*
X936Y619D01*
X936Y621D01*
X308Y621D01*
G37*
D02*
G36*
X960Y621D02*
X960Y619D01*
X966Y619D01*
X966Y617D01*
X970Y617D01*
X970Y615D01*
X974Y615D01*
X974Y613D01*
X976Y613D01*
X976Y611D01*
X980Y611D01*
X980Y609D01*
X982Y609D01*
X982Y607D01*
X984Y607D01*
X984Y605D01*
X986Y605D01*
X986Y601D01*
X988Y601D01*
X988Y599D01*
X990Y599D01*
X990Y595D01*
X992Y595D01*
X992Y591D01*
X994Y591D01*
X994Y585D01*
X996Y585D01*
X996Y559D01*
X994Y559D01*
X994Y553D01*
X992Y553D01*
X992Y549D01*
X990Y549D01*
X990Y545D01*
X988Y545D01*
X988Y543D01*
X986Y543D01*
X986Y541D01*
X984Y541D01*
X984Y537D01*
X980Y537D01*
X980Y535D01*
X978Y535D01*
X978Y533D01*
X976Y533D01*
X976Y531D01*
X972Y531D01*
X972Y529D01*
X970Y529D01*
X970Y527D01*
X964Y527D01*
X964Y525D01*
X958Y525D01*
X958Y523D01*
X1194Y523D01*
X1194Y525D01*
X1186Y525D01*
X1186Y527D01*
X1182Y527D01*
X1182Y529D01*
X1178Y529D01*
X1178Y531D01*
X1174Y531D01*
X1174Y533D01*
X1172Y533D01*
X1172Y535D01*
X1170Y535D01*
X1170Y537D01*
X1168Y537D01*
X1168Y539D01*
X1166Y539D01*
X1166Y541D01*
X1164Y541D01*
X1164Y543D01*
X1162Y543D01*
X1162Y547D01*
X1160Y547D01*
X1160Y551D01*
X1158Y551D01*
X1158Y555D01*
X1156Y555D01*
X1156Y563D01*
X1154Y563D01*
X1154Y583D01*
X1156Y583D01*
X1156Y589D01*
X1158Y589D01*
X1158Y593D01*
X1160Y593D01*
X1160Y597D01*
X1162Y597D01*
X1162Y601D01*
X1164Y601D01*
X1164Y603D01*
X1166Y603D01*
X1166Y605D01*
X1168Y605D01*
X1168Y607D01*
X1170Y607D01*
X1170Y609D01*
X1172Y609D01*
X1172Y611D01*
X1174Y611D01*
X1174Y613D01*
X1178Y613D01*
X1178Y615D01*
X1180Y615D01*
X1180Y617D01*
X1184Y617D01*
X1184Y619D01*
X1192Y619D01*
X1192Y621D01*
X960Y621D01*
G37*
D02*
G36*
X1540Y573D02*
X1540Y571D01*
X3460Y571D01*
X3460Y573D01*
X1540Y573D01*
G37*
D02*
G36*
X1540Y573D02*
X1540Y571D01*
X3460Y571D01*
X3460Y573D01*
X1540Y573D01*
G37*
D02*
G36*
X1540Y571D02*
X1540Y459D01*
X1836Y459D01*
X1836Y457D01*
X1844Y457D01*
X1844Y455D01*
X1848Y455D01*
X1848Y453D01*
X1850Y453D01*
X1850Y451D01*
X1854Y451D01*
X1854Y449D01*
X1858Y449D01*
X1858Y447D01*
X3490Y447D01*
X3490Y449D01*
X3484Y449D01*
X3484Y451D01*
X3480Y451D01*
X3480Y453D01*
X3476Y453D01*
X3476Y455D01*
X3474Y455D01*
X3474Y457D01*
X3472Y457D01*
X3472Y459D01*
X3468Y459D01*
X3468Y461D01*
X3466Y461D01*
X3466Y465D01*
X3464Y465D01*
X3464Y467D01*
X3462Y467D01*
X3462Y469D01*
X3460Y469D01*
X3460Y473D01*
X3458Y473D01*
X3458Y477D01*
X3456Y477D01*
X3456Y481D01*
X3454Y481D01*
X3454Y491D01*
X3452Y491D01*
X3452Y505D01*
X3454Y505D01*
X3454Y513D01*
X3456Y513D01*
X3456Y519D01*
X3458Y519D01*
X3458Y521D01*
X3460Y521D01*
X3460Y525D01*
X3462Y525D01*
X3462Y529D01*
X3464Y529D01*
X3464Y531D01*
X3466Y531D01*
X3466Y533D01*
X3468Y533D01*
X3468Y535D01*
X3470Y535D01*
X3470Y537D01*
X3474Y537D01*
X3474Y557D01*
X3472Y557D01*
X3472Y559D01*
X3468Y559D01*
X3468Y561D01*
X3466Y561D01*
X3466Y565D01*
X3464Y565D01*
X3464Y567D01*
X3462Y567D01*
X3462Y569D01*
X3460Y569D01*
X3460Y571D01*
X1540Y571D01*
G37*
D02*
G36*
X3538Y561D02*
X3538Y559D01*
X3536Y559D01*
X3536Y557D01*
X3534Y557D01*
X3534Y537D01*
X3536Y537D01*
X3536Y535D01*
X3538Y535D01*
X3538Y533D01*
X3540Y533D01*
X3540Y531D01*
X3542Y531D01*
X3542Y529D01*
X3544Y529D01*
X3544Y527D01*
X3546Y527D01*
X3546Y523D01*
X3548Y523D01*
X3548Y519D01*
X3550Y519D01*
X3550Y515D01*
X3552Y515D01*
X3552Y509D01*
X3554Y509D01*
X3554Y487D01*
X3552Y487D01*
X3552Y479D01*
X3550Y479D01*
X3550Y475D01*
X3548Y475D01*
X3548Y471D01*
X3546Y471D01*
X3546Y469D01*
X3544Y469D01*
X3544Y465D01*
X3542Y465D01*
X3542Y463D01*
X3540Y463D01*
X3540Y461D01*
X3538Y461D01*
X3538Y459D01*
X3536Y459D01*
X3536Y457D01*
X3532Y457D01*
X3532Y455D01*
X3530Y455D01*
X3530Y453D01*
X3526Y453D01*
X3526Y451D01*
X3522Y451D01*
X3522Y449D01*
X3516Y449D01*
X3516Y447D01*
X3678Y447D01*
X3678Y457D01*
X3676Y457D01*
X3676Y459D01*
X3672Y459D01*
X3672Y461D01*
X3670Y461D01*
X3670Y463D01*
X3668Y463D01*
X3668Y465D01*
X3666Y465D01*
X3666Y469D01*
X3664Y469D01*
X3664Y471D01*
X3662Y471D01*
X3662Y475D01*
X3660Y475D01*
X3660Y477D01*
X3658Y477D01*
X3658Y485D01*
X3656Y485D01*
X3656Y495D01*
X3654Y495D01*
X3654Y499D01*
X3656Y499D01*
X3656Y511D01*
X3658Y511D01*
X3658Y517D01*
X3660Y517D01*
X3660Y521D01*
X3662Y521D01*
X3662Y523D01*
X3664Y523D01*
X3664Y527D01*
X3666Y527D01*
X3666Y529D01*
X3668Y529D01*
X3668Y531D01*
X3670Y531D01*
X3670Y533D01*
X3672Y533D01*
X3672Y535D01*
X3674Y535D01*
X3674Y537D01*
X3678Y537D01*
X3678Y557D01*
X3676Y557D01*
X3676Y559D01*
X3672Y559D01*
X3672Y561D01*
X3538Y561D01*
G37*
D02*
G36*
X282Y523D02*
X282Y521D01*
X1368Y521D01*
X1368Y523D01*
X282Y523D01*
G37*
D02*
G36*
X282Y523D02*
X282Y521D01*
X1368Y521D01*
X1368Y523D01*
X282Y523D01*
G37*
D02*
G36*
X282Y523D02*
X282Y521D01*
X1368Y521D01*
X1368Y523D01*
X282Y523D01*
G37*
D02*
G36*
X48Y521D02*
X48Y519D01*
X1368Y519D01*
X1368Y521D01*
X48Y521D01*
G37*
D02*
G36*
X48Y521D02*
X48Y519D01*
X1368Y519D01*
X1368Y521D01*
X48Y521D01*
G37*
D02*
G36*
X48Y519D02*
X48Y445D01*
X1210Y445D01*
X1210Y443D01*
X1218Y443D01*
X1218Y441D01*
X1224Y441D01*
X1224Y439D01*
X1228Y439D01*
X1228Y437D01*
X1232Y437D01*
X1232Y435D01*
X1234Y435D01*
X1234Y433D01*
X1236Y433D01*
X1236Y431D01*
X1238Y431D01*
X1238Y429D01*
X1240Y429D01*
X1240Y427D01*
X1242Y427D01*
X1242Y425D01*
X1244Y425D01*
X1244Y421D01*
X1246Y421D01*
X1246Y417D01*
X1248Y417D01*
X1248Y415D01*
X1250Y415D01*
X1250Y411D01*
X1254Y411D01*
X1254Y409D01*
X1258Y409D01*
X1258Y407D01*
X1262Y407D01*
X1262Y405D01*
X1266Y405D01*
X1266Y403D01*
X1270Y403D01*
X1270Y401D01*
X1274Y401D01*
X1274Y399D01*
X1278Y399D01*
X1278Y397D01*
X1282Y397D01*
X1282Y395D01*
X1286Y395D01*
X1286Y393D01*
X1292Y393D01*
X1292Y391D01*
X1296Y391D01*
X1296Y389D01*
X1300Y389D01*
X1300Y387D01*
X1304Y387D01*
X1304Y385D01*
X1308Y385D01*
X1308Y383D01*
X1312Y383D01*
X1312Y381D01*
X1316Y381D01*
X1316Y379D01*
X1320Y379D01*
X1320Y377D01*
X1322Y377D01*
X1322Y375D01*
X1326Y375D01*
X1326Y373D01*
X1328Y373D01*
X1328Y371D01*
X1330Y371D01*
X1330Y367D01*
X1332Y367D01*
X1332Y365D01*
X1334Y365D01*
X1334Y361D01*
X1336Y361D01*
X1336Y355D01*
X1338Y355D01*
X1338Y189D01*
X1340Y189D01*
X1340Y127D01*
X1342Y127D01*
X1342Y125D01*
X1344Y125D01*
X1344Y123D01*
X1364Y123D01*
X1364Y127D01*
X1366Y127D01*
X1366Y129D01*
X1368Y129D01*
X1368Y519D01*
X48Y519D01*
G37*
D02*
G36*
X1862Y447D02*
X1862Y445D01*
X3678Y445D01*
X3678Y447D01*
X1862Y447D01*
G37*
D02*
G36*
X1862Y447D02*
X1862Y445D01*
X3678Y445D01*
X3678Y447D01*
X1862Y447D01*
G37*
D02*
G36*
X48Y445D02*
X48Y345D01*
X942Y345D01*
X942Y347D01*
X934Y347D01*
X934Y349D01*
X928Y349D01*
X928Y351D01*
X924Y351D01*
X924Y353D01*
X920Y353D01*
X920Y355D01*
X918Y355D01*
X918Y357D01*
X916Y357D01*
X916Y359D01*
X912Y359D01*
X912Y361D01*
X910Y361D01*
X910Y365D01*
X908Y365D01*
X908Y367D01*
X906Y367D01*
X906Y371D01*
X904Y371D01*
X904Y373D01*
X902Y373D01*
X902Y379D01*
X900Y379D01*
X900Y385D01*
X898Y385D01*
X898Y405D01*
X900Y405D01*
X900Y411D01*
X902Y411D01*
X902Y417D01*
X904Y417D01*
X904Y421D01*
X906Y421D01*
X906Y423D01*
X908Y423D01*
X908Y425D01*
X910Y425D01*
X910Y429D01*
X912Y429D01*
X912Y431D01*
X914Y431D01*
X914Y433D01*
X918Y433D01*
X918Y435D01*
X920Y435D01*
X920Y437D01*
X924Y437D01*
X924Y439D01*
X926Y439D01*
X926Y441D01*
X932Y441D01*
X932Y443D01*
X940Y443D01*
X940Y445D01*
X48Y445D01*
G37*
D02*
G36*
X954Y445D02*
X954Y443D01*
X962Y443D01*
X962Y441D01*
X968Y441D01*
X968Y439D01*
X972Y439D01*
X972Y437D01*
X976Y437D01*
X976Y435D01*
X978Y435D01*
X978Y433D01*
X980Y433D01*
X980Y431D01*
X982Y431D01*
X982Y429D01*
X984Y429D01*
X984Y427D01*
X986Y427D01*
X986Y425D01*
X988Y425D01*
X988Y421D01*
X990Y421D01*
X990Y419D01*
X992Y419D01*
X992Y415D01*
X994Y415D01*
X994Y407D01*
X996Y407D01*
X996Y383D01*
X994Y383D01*
X994Y375D01*
X992Y375D01*
X992Y373D01*
X990Y373D01*
X990Y369D01*
X988Y369D01*
X988Y365D01*
X986Y365D01*
X986Y363D01*
X984Y363D01*
X984Y361D01*
X982Y361D01*
X982Y359D01*
X980Y359D01*
X980Y357D01*
X978Y357D01*
X978Y355D01*
X974Y355D01*
X974Y353D01*
X972Y353D01*
X972Y351D01*
X968Y351D01*
X968Y349D01*
X962Y349D01*
X962Y347D01*
X952Y347D01*
X952Y345D01*
X1198Y345D01*
X1198Y347D01*
X1190Y347D01*
X1190Y349D01*
X1184Y349D01*
X1184Y351D01*
X1180Y351D01*
X1180Y353D01*
X1176Y353D01*
X1176Y355D01*
X1174Y355D01*
X1174Y357D01*
X1170Y357D01*
X1170Y359D01*
X1168Y359D01*
X1168Y361D01*
X1166Y361D01*
X1166Y365D01*
X1164Y365D01*
X1164Y367D01*
X1162Y367D01*
X1162Y369D01*
X1160Y369D01*
X1160Y373D01*
X1158Y373D01*
X1158Y379D01*
X1156Y379D01*
X1156Y385D01*
X1154Y385D01*
X1154Y405D01*
X1156Y405D01*
X1156Y411D01*
X1158Y411D01*
X1158Y417D01*
X1160Y417D01*
X1160Y421D01*
X1162Y421D01*
X1162Y423D01*
X1164Y423D01*
X1164Y425D01*
X1166Y425D01*
X1166Y429D01*
X1168Y429D01*
X1168Y431D01*
X1170Y431D01*
X1170Y433D01*
X1174Y433D01*
X1174Y435D01*
X1176Y435D01*
X1176Y437D01*
X1180Y437D01*
X1180Y439D01*
X1182Y439D01*
X1182Y441D01*
X1188Y441D01*
X1188Y443D01*
X1196Y443D01*
X1196Y445D01*
X954Y445D01*
G37*
D02*
G36*
X1866Y445D02*
X1866Y443D01*
X1868Y443D01*
X1868Y441D01*
X1872Y441D01*
X1872Y439D01*
X1876Y439D01*
X1876Y437D01*
X1880Y437D01*
X1880Y435D01*
X1884Y435D01*
X1884Y433D01*
X1886Y433D01*
X1886Y431D01*
X1890Y431D01*
X1890Y429D01*
X1894Y429D01*
X1894Y427D01*
X1898Y427D01*
X1898Y425D01*
X1900Y425D01*
X1900Y423D01*
X1902Y423D01*
X1902Y421D01*
X1904Y421D01*
X1904Y419D01*
X1906Y419D01*
X1906Y417D01*
X1908Y417D01*
X1908Y413D01*
X1910Y413D01*
X1910Y409D01*
X1912Y409D01*
X1912Y403D01*
X1914Y403D01*
X1914Y397D01*
X1916Y397D01*
X1916Y391D01*
X1918Y391D01*
X1918Y385D01*
X1920Y385D01*
X1920Y381D01*
X1922Y381D01*
X1922Y375D01*
X1924Y375D01*
X1924Y373D01*
X2414Y373D01*
X2414Y371D01*
X2422Y371D01*
X2422Y369D01*
X2426Y369D01*
X2426Y367D01*
X2430Y367D01*
X2430Y365D01*
X2432Y365D01*
X2432Y363D01*
X2434Y363D01*
X2434Y361D01*
X2438Y361D01*
X2438Y359D01*
X2440Y359D01*
X2440Y357D01*
X2442Y357D01*
X2442Y353D01*
X2444Y353D01*
X2444Y351D01*
X2446Y351D01*
X2446Y349D01*
X2448Y349D01*
X2448Y345D01*
X2450Y345D01*
X2450Y341D01*
X2452Y341D01*
X2452Y333D01*
X2454Y333D01*
X2454Y311D01*
X2452Y311D01*
X2452Y305D01*
X2450Y305D01*
X2450Y299D01*
X2448Y299D01*
X2448Y297D01*
X2446Y297D01*
X2446Y293D01*
X2444Y293D01*
X2444Y291D01*
X2442Y291D01*
X2442Y289D01*
X2440Y289D01*
X2440Y249D01*
X3694Y249D01*
X3694Y251D01*
X3686Y251D01*
X3686Y253D01*
X3682Y253D01*
X3682Y255D01*
X3678Y255D01*
X3678Y257D01*
X3676Y257D01*
X3676Y259D01*
X3672Y259D01*
X3672Y261D01*
X3670Y261D01*
X3670Y263D01*
X3668Y263D01*
X3668Y265D01*
X3666Y265D01*
X3666Y269D01*
X3664Y269D01*
X3664Y271D01*
X3662Y271D01*
X3662Y275D01*
X3660Y275D01*
X3660Y277D01*
X3658Y277D01*
X3658Y285D01*
X3656Y285D01*
X3656Y295D01*
X3654Y295D01*
X3654Y299D01*
X3656Y299D01*
X3656Y311D01*
X3658Y311D01*
X3658Y317D01*
X3660Y317D01*
X3660Y321D01*
X3662Y321D01*
X3662Y323D01*
X3664Y323D01*
X3664Y327D01*
X3666Y327D01*
X3666Y329D01*
X3668Y329D01*
X3668Y331D01*
X3670Y331D01*
X3670Y333D01*
X3672Y333D01*
X3672Y335D01*
X3674Y335D01*
X3674Y337D01*
X3678Y337D01*
X3678Y357D01*
X3676Y357D01*
X3676Y359D01*
X3672Y359D01*
X3672Y361D01*
X3670Y361D01*
X3670Y363D01*
X3668Y363D01*
X3668Y365D01*
X3666Y365D01*
X3666Y369D01*
X3664Y369D01*
X3664Y371D01*
X3662Y371D01*
X3662Y375D01*
X3660Y375D01*
X3660Y377D01*
X3658Y377D01*
X3658Y385D01*
X3656Y385D01*
X3656Y395D01*
X3654Y395D01*
X3654Y399D01*
X3656Y399D01*
X3656Y411D01*
X3658Y411D01*
X3658Y417D01*
X3660Y417D01*
X3660Y421D01*
X3662Y421D01*
X3662Y423D01*
X3664Y423D01*
X3664Y427D01*
X3666Y427D01*
X3666Y429D01*
X3668Y429D01*
X3668Y431D01*
X3670Y431D01*
X3670Y433D01*
X3672Y433D01*
X3672Y435D01*
X3674Y435D01*
X3674Y437D01*
X3678Y437D01*
X3678Y445D01*
X1866Y445D01*
G37*
D02*
G36*
X1924Y373D02*
X1924Y369D01*
X1926Y369D01*
X1926Y367D01*
X1930Y367D01*
X1930Y365D01*
X1932Y365D01*
X1932Y363D01*
X1934Y363D01*
X1934Y361D01*
X1938Y361D01*
X1938Y359D01*
X1940Y359D01*
X1940Y357D01*
X1942Y357D01*
X1942Y353D01*
X1964Y353D01*
X1964Y355D01*
X1966Y355D01*
X1966Y357D01*
X1968Y357D01*
X1968Y359D01*
X1970Y359D01*
X1970Y361D01*
X1972Y361D01*
X1972Y363D01*
X1974Y363D01*
X1974Y365D01*
X1978Y365D01*
X1978Y367D01*
X1982Y367D01*
X1982Y369D01*
X1986Y369D01*
X1986Y371D01*
X1992Y371D01*
X1992Y373D01*
X1924Y373D01*
G37*
D02*
G36*
X2014Y373D02*
X2014Y371D01*
X2022Y371D01*
X2022Y369D01*
X2026Y369D01*
X2026Y367D01*
X2030Y367D01*
X2030Y365D01*
X2032Y365D01*
X2032Y363D01*
X2034Y363D01*
X2034Y361D01*
X2038Y361D01*
X2038Y359D01*
X2040Y359D01*
X2040Y357D01*
X2042Y357D01*
X2042Y353D01*
X2064Y353D01*
X2064Y355D01*
X2066Y355D01*
X2066Y357D01*
X2068Y357D01*
X2068Y359D01*
X2070Y359D01*
X2070Y361D01*
X2072Y361D01*
X2072Y363D01*
X2074Y363D01*
X2074Y365D01*
X2078Y365D01*
X2078Y367D01*
X2082Y367D01*
X2082Y369D01*
X2086Y369D01*
X2086Y371D01*
X2092Y371D01*
X2092Y373D01*
X2014Y373D01*
G37*
D02*
G36*
X2114Y373D02*
X2114Y371D01*
X2122Y371D01*
X2122Y369D01*
X2126Y369D01*
X2126Y367D01*
X2130Y367D01*
X2130Y365D01*
X2132Y365D01*
X2132Y363D01*
X2134Y363D01*
X2134Y361D01*
X2138Y361D01*
X2138Y359D01*
X2140Y359D01*
X2140Y357D01*
X2142Y357D01*
X2142Y353D01*
X2164Y353D01*
X2164Y355D01*
X2166Y355D01*
X2166Y357D01*
X2168Y357D01*
X2168Y359D01*
X2170Y359D01*
X2170Y361D01*
X2172Y361D01*
X2172Y363D01*
X2174Y363D01*
X2174Y365D01*
X2178Y365D01*
X2178Y367D01*
X2182Y367D01*
X2182Y369D01*
X2186Y369D01*
X2186Y371D01*
X2192Y371D01*
X2192Y373D01*
X2114Y373D01*
G37*
D02*
G36*
X2214Y373D02*
X2214Y371D01*
X2222Y371D01*
X2222Y369D01*
X2226Y369D01*
X2226Y367D01*
X2230Y367D01*
X2230Y365D01*
X2232Y365D01*
X2232Y363D01*
X2234Y363D01*
X2234Y361D01*
X2238Y361D01*
X2238Y359D01*
X2240Y359D01*
X2240Y357D01*
X2242Y357D01*
X2242Y353D01*
X2264Y353D01*
X2264Y355D01*
X2266Y355D01*
X2266Y357D01*
X2268Y357D01*
X2268Y359D01*
X2270Y359D01*
X2270Y361D01*
X2272Y361D01*
X2272Y363D01*
X2274Y363D01*
X2274Y365D01*
X2278Y365D01*
X2278Y367D01*
X2282Y367D01*
X2282Y369D01*
X2286Y369D01*
X2286Y371D01*
X2292Y371D01*
X2292Y373D01*
X2214Y373D01*
G37*
D02*
G36*
X2314Y373D02*
X2314Y371D01*
X2322Y371D01*
X2322Y369D01*
X2326Y369D01*
X2326Y367D01*
X2330Y367D01*
X2330Y365D01*
X2332Y365D01*
X2332Y363D01*
X2334Y363D01*
X2334Y361D01*
X2338Y361D01*
X2338Y359D01*
X2340Y359D01*
X2340Y357D01*
X2342Y357D01*
X2342Y353D01*
X2364Y353D01*
X2364Y355D01*
X2366Y355D01*
X2366Y357D01*
X2368Y357D01*
X2368Y359D01*
X2370Y359D01*
X2370Y361D01*
X2372Y361D01*
X2372Y363D01*
X2374Y363D01*
X2374Y365D01*
X2378Y365D01*
X2378Y367D01*
X2382Y367D01*
X2382Y369D01*
X2386Y369D01*
X2386Y371D01*
X2392Y371D01*
X2392Y373D01*
X2314Y373D01*
G37*
D02*
G36*
X48Y345D02*
X48Y343D01*
X1226Y343D01*
X1226Y345D01*
X48Y345D01*
G37*
D02*
G36*
X48Y345D02*
X48Y343D01*
X1226Y343D01*
X1226Y345D01*
X48Y345D01*
G37*
D02*
G36*
X48Y343D02*
X48Y145D01*
X1216Y145D01*
X1216Y143D01*
X1222Y143D01*
X1222Y141D01*
X1226Y141D01*
X1226Y139D01*
X1230Y139D01*
X1230Y137D01*
X1232Y137D01*
X1232Y135D01*
X1234Y135D01*
X1234Y133D01*
X1238Y133D01*
X1238Y129D01*
X1240Y129D01*
X1240Y127D01*
X1242Y127D01*
X1242Y125D01*
X1244Y125D01*
X1244Y123D01*
X1264Y123D01*
X1264Y127D01*
X1266Y127D01*
X1266Y129D01*
X1268Y129D01*
X1268Y185D01*
X1266Y185D01*
X1266Y325D01*
X1262Y325D01*
X1262Y327D01*
X1258Y327D01*
X1258Y329D01*
X1254Y329D01*
X1254Y331D01*
X1250Y331D01*
X1250Y333D01*
X1246Y333D01*
X1246Y335D01*
X1242Y335D01*
X1242Y337D01*
X1238Y337D01*
X1238Y339D01*
X1234Y339D01*
X1234Y341D01*
X1230Y341D01*
X1230Y343D01*
X48Y343D01*
G37*
D02*
G36*
X3744Y271D02*
X3744Y269D01*
X3742Y269D01*
X3742Y267D01*
X3740Y267D01*
X3740Y265D01*
X3738Y265D01*
X3738Y263D01*
X3736Y263D01*
X3736Y261D01*
X3734Y261D01*
X3734Y259D01*
X3732Y259D01*
X3732Y257D01*
X3728Y257D01*
X3728Y255D01*
X3724Y255D01*
X3724Y253D01*
X3720Y253D01*
X3720Y251D01*
X3714Y251D01*
X3714Y249D01*
X3794Y249D01*
X3794Y251D01*
X3786Y251D01*
X3786Y253D01*
X3782Y253D01*
X3782Y255D01*
X3778Y255D01*
X3778Y257D01*
X3776Y257D01*
X3776Y259D01*
X3772Y259D01*
X3772Y261D01*
X3770Y261D01*
X3770Y263D01*
X3768Y263D01*
X3768Y265D01*
X3766Y265D01*
X3766Y269D01*
X3764Y269D01*
X3764Y271D01*
X3744Y271D01*
G37*
D02*
G36*
X2440Y249D02*
X2440Y247D01*
X3960Y247D01*
X3960Y249D01*
X2440Y249D01*
G37*
D02*
G36*
X2440Y249D02*
X2440Y247D01*
X3960Y247D01*
X3960Y249D01*
X2440Y249D01*
G37*
D02*
G36*
X2440Y249D02*
X2440Y247D01*
X3960Y247D01*
X3960Y249D01*
X2440Y249D01*
G37*
D02*
G36*
X2440Y247D02*
X2440Y145D01*
X3616Y145D01*
X3616Y143D01*
X3622Y143D01*
X3622Y141D01*
X3626Y141D01*
X3626Y139D01*
X3630Y139D01*
X3630Y137D01*
X3632Y137D01*
X3632Y135D01*
X3634Y135D01*
X3634Y133D01*
X3638Y133D01*
X3638Y129D01*
X3640Y129D01*
X3640Y127D01*
X3642Y127D01*
X3642Y125D01*
X3644Y125D01*
X3644Y121D01*
X3646Y121D01*
X3646Y117D01*
X3648Y117D01*
X3648Y113D01*
X3650Y113D01*
X3650Y105D01*
X3652Y105D01*
X3652Y89D01*
X3650Y89D01*
X3650Y81D01*
X3648Y81D01*
X3648Y77D01*
X3646Y77D01*
X3646Y73D01*
X3644Y73D01*
X3644Y69D01*
X3642Y69D01*
X3642Y49D01*
X3830Y49D01*
X3830Y51D01*
X3838Y51D01*
X3838Y53D01*
X3842Y53D01*
X3842Y55D01*
X3846Y55D01*
X3846Y57D01*
X3848Y57D01*
X3848Y59D01*
X3850Y59D01*
X3850Y61D01*
X3852Y61D01*
X3852Y63D01*
X3854Y63D01*
X3854Y67D01*
X3856Y67D01*
X3856Y69D01*
X3858Y69D01*
X3858Y75D01*
X3860Y75D01*
X3860Y101D01*
X3862Y101D01*
X3862Y103D01*
X3864Y103D01*
X3864Y105D01*
X3866Y105D01*
X3866Y107D01*
X3868Y107D01*
X3868Y109D01*
X3870Y109D01*
X3870Y111D01*
X3872Y111D01*
X3872Y113D01*
X3874Y113D01*
X3874Y115D01*
X3876Y115D01*
X3876Y117D01*
X3878Y117D01*
X3878Y119D01*
X3880Y119D01*
X3880Y121D01*
X3882Y121D01*
X3882Y123D01*
X3884Y123D01*
X3884Y125D01*
X3886Y125D01*
X3886Y127D01*
X3888Y127D01*
X3888Y129D01*
X3890Y129D01*
X3890Y131D01*
X3892Y131D01*
X3892Y133D01*
X3894Y133D01*
X3894Y135D01*
X3896Y135D01*
X3896Y137D01*
X3898Y137D01*
X3898Y139D01*
X3900Y139D01*
X3900Y141D01*
X3902Y141D01*
X3902Y143D01*
X3904Y143D01*
X3904Y145D01*
X3906Y145D01*
X3906Y147D01*
X3908Y147D01*
X3908Y149D01*
X3910Y149D01*
X3910Y151D01*
X3912Y151D01*
X3912Y153D01*
X3914Y153D01*
X3914Y155D01*
X3916Y155D01*
X3916Y157D01*
X3918Y157D01*
X3918Y159D01*
X3920Y159D01*
X3920Y161D01*
X3922Y161D01*
X3922Y163D01*
X3924Y163D01*
X3924Y165D01*
X3926Y165D01*
X3926Y167D01*
X3928Y167D01*
X3928Y169D01*
X3930Y169D01*
X3930Y171D01*
X3932Y171D01*
X3932Y173D01*
X3934Y173D01*
X3934Y175D01*
X3936Y175D01*
X3936Y177D01*
X3938Y177D01*
X3938Y179D01*
X3940Y179D01*
X3940Y181D01*
X3942Y181D01*
X3942Y183D01*
X3944Y183D01*
X3944Y185D01*
X3946Y185D01*
X3946Y187D01*
X3948Y187D01*
X3948Y189D01*
X3950Y189D01*
X3950Y191D01*
X3952Y191D01*
X3952Y193D01*
X3954Y193D01*
X3954Y195D01*
X3956Y195D01*
X3956Y197D01*
X3958Y197D01*
X3958Y199D01*
X3960Y199D01*
X3960Y247D01*
X2440Y247D01*
G37*
D02*
G36*
X48Y145D02*
X48Y75D01*
X50Y75D01*
X50Y71D01*
X52Y71D01*
X52Y67D01*
X54Y67D01*
X54Y63D01*
X56Y63D01*
X56Y61D01*
X58Y61D01*
X58Y59D01*
X60Y59D01*
X60Y57D01*
X64Y57D01*
X64Y55D01*
X66Y55D01*
X66Y53D01*
X70Y53D01*
X70Y51D01*
X78Y51D01*
X78Y49D01*
X1066Y49D01*
X1066Y69D01*
X1064Y69D01*
X1064Y71D01*
X1062Y71D01*
X1062Y75D01*
X1060Y75D01*
X1060Y77D01*
X1058Y77D01*
X1058Y85D01*
X1056Y85D01*
X1056Y95D01*
X1054Y95D01*
X1054Y99D01*
X1056Y99D01*
X1056Y111D01*
X1058Y111D01*
X1058Y117D01*
X1060Y117D01*
X1060Y121D01*
X1062Y121D01*
X1062Y123D01*
X1064Y123D01*
X1064Y127D01*
X1066Y127D01*
X1066Y129D01*
X1068Y129D01*
X1068Y131D01*
X1070Y131D01*
X1070Y133D01*
X1072Y133D01*
X1072Y135D01*
X1074Y135D01*
X1074Y137D01*
X1078Y137D01*
X1078Y139D01*
X1082Y139D01*
X1082Y141D01*
X1084Y141D01*
X1084Y143D01*
X1092Y143D01*
X1092Y145D01*
X48Y145D01*
G37*
D02*
G36*
X1116Y145D02*
X1116Y143D01*
X1122Y143D01*
X1122Y141D01*
X1126Y141D01*
X1126Y139D01*
X1130Y139D01*
X1130Y137D01*
X1132Y137D01*
X1132Y135D01*
X1134Y135D01*
X1134Y133D01*
X1138Y133D01*
X1138Y129D01*
X1140Y129D01*
X1140Y127D01*
X1142Y127D01*
X1142Y125D01*
X1144Y125D01*
X1144Y123D01*
X1164Y123D01*
X1164Y127D01*
X1166Y127D01*
X1166Y129D01*
X1168Y129D01*
X1168Y131D01*
X1170Y131D01*
X1170Y133D01*
X1172Y133D01*
X1172Y135D01*
X1174Y135D01*
X1174Y137D01*
X1178Y137D01*
X1178Y139D01*
X1182Y139D01*
X1182Y141D01*
X1184Y141D01*
X1184Y143D01*
X1192Y143D01*
X1192Y145D01*
X1116Y145D01*
G37*
D02*
G36*
X2440Y145D02*
X2440Y127D01*
X2442Y127D01*
X2442Y125D01*
X2444Y125D01*
X2444Y123D01*
X2464Y123D01*
X2464Y127D01*
X2466Y127D01*
X2466Y129D01*
X2468Y129D01*
X2468Y131D01*
X2470Y131D01*
X2470Y133D01*
X2472Y133D01*
X2472Y135D01*
X2474Y135D01*
X2474Y137D01*
X2478Y137D01*
X2478Y139D01*
X2482Y139D01*
X2482Y141D01*
X2484Y141D01*
X2484Y143D01*
X2492Y143D01*
X2492Y145D01*
X2440Y145D01*
G37*
D02*
G36*
X2516Y145D02*
X2516Y143D01*
X2522Y143D01*
X2522Y141D01*
X2526Y141D01*
X2526Y139D01*
X2530Y139D01*
X2530Y137D01*
X2532Y137D01*
X2532Y135D01*
X2534Y135D01*
X2534Y133D01*
X2538Y133D01*
X2538Y129D01*
X2540Y129D01*
X2540Y127D01*
X2542Y127D01*
X2542Y125D01*
X2544Y125D01*
X2544Y123D01*
X2564Y123D01*
X2564Y127D01*
X2566Y127D01*
X2566Y129D01*
X2568Y129D01*
X2568Y131D01*
X2570Y131D01*
X2570Y133D01*
X2572Y133D01*
X2572Y135D01*
X2574Y135D01*
X2574Y137D01*
X2578Y137D01*
X2578Y139D01*
X2580Y139D01*
X2580Y141D01*
X2584Y141D01*
X2584Y143D01*
X2592Y143D01*
X2592Y145D01*
X2516Y145D01*
G37*
D02*
G36*
X2616Y145D02*
X2616Y143D01*
X2622Y143D01*
X2622Y141D01*
X2626Y141D01*
X2626Y139D01*
X2630Y139D01*
X2630Y137D01*
X2632Y137D01*
X2632Y135D01*
X2634Y135D01*
X2634Y133D01*
X2638Y133D01*
X2638Y129D01*
X2640Y129D01*
X2640Y127D01*
X2642Y127D01*
X2642Y125D01*
X2644Y125D01*
X2644Y123D01*
X2664Y123D01*
X2664Y127D01*
X2666Y127D01*
X2666Y129D01*
X2668Y129D01*
X2668Y131D01*
X2670Y131D01*
X2670Y133D01*
X2672Y133D01*
X2672Y135D01*
X2674Y135D01*
X2674Y137D01*
X2678Y137D01*
X2678Y139D01*
X2682Y139D01*
X2682Y141D01*
X2684Y141D01*
X2684Y143D01*
X2692Y143D01*
X2692Y145D01*
X2616Y145D01*
G37*
D02*
G36*
X2716Y145D02*
X2716Y143D01*
X2722Y143D01*
X2722Y141D01*
X2726Y141D01*
X2726Y139D01*
X2730Y139D01*
X2730Y137D01*
X2732Y137D01*
X2732Y135D01*
X2734Y135D01*
X2734Y133D01*
X2738Y133D01*
X2738Y129D01*
X2740Y129D01*
X2740Y127D01*
X2742Y127D01*
X2742Y125D01*
X2744Y125D01*
X2744Y121D01*
X2746Y121D01*
X2746Y117D01*
X2748Y117D01*
X2748Y113D01*
X2750Y113D01*
X2750Y105D01*
X2752Y105D01*
X2752Y89D01*
X2750Y89D01*
X2750Y81D01*
X2748Y81D01*
X2748Y77D01*
X2746Y77D01*
X2746Y73D01*
X2744Y73D01*
X2744Y69D01*
X2742Y69D01*
X2742Y49D01*
X2866Y49D01*
X2866Y69D01*
X2864Y69D01*
X2864Y71D01*
X2862Y71D01*
X2862Y75D01*
X2860Y75D01*
X2860Y77D01*
X2858Y77D01*
X2858Y85D01*
X2856Y85D01*
X2856Y95D01*
X2854Y95D01*
X2854Y99D01*
X2856Y99D01*
X2856Y111D01*
X2858Y111D01*
X2858Y117D01*
X2860Y117D01*
X2860Y121D01*
X2862Y121D01*
X2862Y123D01*
X2864Y123D01*
X2864Y127D01*
X2866Y127D01*
X2866Y129D01*
X2868Y129D01*
X2868Y131D01*
X2870Y131D01*
X2870Y133D01*
X2872Y133D01*
X2872Y135D01*
X2874Y135D01*
X2874Y137D01*
X2878Y137D01*
X2878Y139D01*
X2882Y139D01*
X2882Y141D01*
X2884Y141D01*
X2884Y143D01*
X2892Y143D01*
X2892Y145D01*
X2716Y145D01*
G37*
D02*
G36*
X2916Y145D02*
X2916Y143D01*
X2922Y143D01*
X2922Y141D01*
X2926Y141D01*
X2926Y139D01*
X2930Y139D01*
X2930Y137D01*
X2932Y137D01*
X2932Y135D01*
X2934Y135D01*
X2934Y133D01*
X2938Y133D01*
X2938Y129D01*
X2940Y129D01*
X2940Y127D01*
X2942Y127D01*
X2942Y125D01*
X2944Y125D01*
X2944Y123D01*
X2964Y123D01*
X2964Y127D01*
X2966Y127D01*
X2966Y129D01*
X2968Y129D01*
X2968Y131D01*
X2970Y131D01*
X2970Y133D01*
X2972Y133D01*
X2972Y135D01*
X2974Y135D01*
X2974Y137D01*
X2978Y137D01*
X2978Y139D01*
X2982Y139D01*
X2982Y141D01*
X2984Y141D01*
X2984Y143D01*
X2992Y143D01*
X2992Y145D01*
X2916Y145D01*
G37*
D02*
G36*
X3016Y145D02*
X3016Y143D01*
X3022Y143D01*
X3022Y141D01*
X3026Y141D01*
X3026Y139D01*
X3030Y139D01*
X3030Y137D01*
X3032Y137D01*
X3032Y135D01*
X3034Y135D01*
X3034Y133D01*
X3038Y133D01*
X3038Y129D01*
X3040Y129D01*
X3040Y127D01*
X3042Y127D01*
X3042Y125D01*
X3044Y125D01*
X3044Y123D01*
X3064Y123D01*
X3064Y127D01*
X3066Y127D01*
X3066Y129D01*
X3068Y129D01*
X3068Y131D01*
X3070Y131D01*
X3070Y133D01*
X3072Y133D01*
X3072Y135D01*
X3074Y135D01*
X3074Y137D01*
X3078Y137D01*
X3078Y139D01*
X3080Y139D01*
X3080Y141D01*
X3084Y141D01*
X3084Y143D01*
X3092Y143D01*
X3092Y145D01*
X3016Y145D01*
G37*
D02*
G36*
X3116Y145D02*
X3116Y143D01*
X3122Y143D01*
X3122Y141D01*
X3126Y141D01*
X3126Y139D01*
X3130Y139D01*
X3130Y137D01*
X3132Y137D01*
X3132Y135D01*
X3134Y135D01*
X3134Y133D01*
X3138Y133D01*
X3138Y129D01*
X3140Y129D01*
X3140Y127D01*
X3142Y127D01*
X3142Y125D01*
X3144Y125D01*
X3144Y123D01*
X3164Y123D01*
X3164Y127D01*
X3166Y127D01*
X3166Y129D01*
X3168Y129D01*
X3168Y131D01*
X3170Y131D01*
X3170Y133D01*
X3172Y133D01*
X3172Y135D01*
X3174Y135D01*
X3174Y137D01*
X3178Y137D01*
X3178Y139D01*
X3182Y139D01*
X3182Y141D01*
X3184Y141D01*
X3184Y143D01*
X3192Y143D01*
X3192Y145D01*
X3116Y145D01*
G37*
D02*
G36*
X3216Y145D02*
X3216Y143D01*
X3222Y143D01*
X3222Y141D01*
X3226Y141D01*
X3226Y139D01*
X3230Y139D01*
X3230Y137D01*
X3232Y137D01*
X3232Y135D01*
X3234Y135D01*
X3234Y133D01*
X3238Y133D01*
X3238Y129D01*
X3240Y129D01*
X3240Y127D01*
X3242Y127D01*
X3242Y125D01*
X3244Y125D01*
X3244Y123D01*
X3264Y123D01*
X3264Y127D01*
X3266Y127D01*
X3266Y129D01*
X3268Y129D01*
X3268Y131D01*
X3270Y131D01*
X3270Y133D01*
X3272Y133D01*
X3272Y135D01*
X3274Y135D01*
X3274Y137D01*
X3278Y137D01*
X3278Y139D01*
X3282Y139D01*
X3282Y141D01*
X3284Y141D01*
X3284Y143D01*
X3292Y143D01*
X3292Y145D01*
X3216Y145D01*
G37*
D02*
G36*
X3316Y145D02*
X3316Y143D01*
X3322Y143D01*
X3322Y141D01*
X3326Y141D01*
X3326Y139D01*
X3330Y139D01*
X3330Y137D01*
X3332Y137D01*
X3332Y135D01*
X3334Y135D01*
X3334Y133D01*
X3338Y133D01*
X3338Y129D01*
X3340Y129D01*
X3340Y127D01*
X3342Y127D01*
X3342Y125D01*
X3344Y125D01*
X3344Y123D01*
X3364Y123D01*
X3364Y127D01*
X3366Y127D01*
X3366Y129D01*
X3368Y129D01*
X3368Y131D01*
X3370Y131D01*
X3370Y133D01*
X3372Y133D01*
X3372Y135D01*
X3374Y135D01*
X3374Y137D01*
X3378Y137D01*
X3378Y139D01*
X3382Y139D01*
X3382Y141D01*
X3384Y141D01*
X3384Y143D01*
X3392Y143D01*
X3392Y145D01*
X3316Y145D01*
G37*
D02*
G36*
X3416Y145D02*
X3416Y143D01*
X3422Y143D01*
X3422Y141D01*
X3426Y141D01*
X3426Y139D01*
X3430Y139D01*
X3430Y137D01*
X3432Y137D01*
X3432Y135D01*
X3434Y135D01*
X3434Y133D01*
X3438Y133D01*
X3438Y129D01*
X3440Y129D01*
X3440Y127D01*
X3442Y127D01*
X3442Y125D01*
X3444Y125D01*
X3444Y123D01*
X3464Y123D01*
X3464Y127D01*
X3466Y127D01*
X3466Y129D01*
X3468Y129D01*
X3468Y131D01*
X3470Y131D01*
X3470Y133D01*
X3472Y133D01*
X3472Y135D01*
X3474Y135D01*
X3474Y137D01*
X3478Y137D01*
X3478Y139D01*
X3482Y139D01*
X3482Y141D01*
X3484Y141D01*
X3484Y143D01*
X3492Y143D01*
X3492Y145D01*
X3416Y145D01*
G37*
D02*
G36*
X3516Y145D02*
X3516Y143D01*
X3522Y143D01*
X3522Y141D01*
X3526Y141D01*
X3526Y139D01*
X3530Y139D01*
X3530Y137D01*
X3532Y137D01*
X3532Y135D01*
X3534Y135D01*
X3534Y133D01*
X3538Y133D01*
X3538Y129D01*
X3540Y129D01*
X3540Y127D01*
X3542Y127D01*
X3542Y125D01*
X3544Y125D01*
X3544Y123D01*
X3564Y123D01*
X3564Y127D01*
X3566Y127D01*
X3566Y129D01*
X3568Y129D01*
X3568Y131D01*
X3570Y131D01*
X3570Y133D01*
X3572Y133D01*
X3572Y135D01*
X3574Y135D01*
X3574Y137D01*
X3578Y137D01*
X3578Y139D01*
X3580Y139D01*
X3580Y141D01*
X3584Y141D01*
X3584Y143D01*
X3592Y143D01*
X3592Y145D01*
X3516Y145D01*
G37*
D02*
G36*
X3538Y961D02*
X3538Y959D01*
X3536Y959D01*
X3536Y957D01*
X3534Y957D01*
X3534Y937D01*
X3536Y937D01*
X3536Y935D01*
X3538Y935D01*
X3538Y933D01*
X3672Y933D01*
X3672Y935D01*
X3674Y935D01*
X3674Y937D01*
X3678Y937D01*
X3678Y957D01*
X3676Y957D01*
X3676Y959D01*
X3672Y959D01*
X3672Y961D01*
X3538Y961D01*
G37*
D02*
G36*
X1242Y943D02*
X1242Y941D01*
X1240Y941D01*
X1240Y843D01*
X1242Y843D01*
X1242Y841D01*
X1264Y841D01*
X1264Y843D01*
X1266Y843D01*
X1266Y845D01*
X1268Y845D01*
X1268Y939D01*
X1266Y939D01*
X1266Y941D01*
X1264Y941D01*
X1264Y943D01*
X1242Y943D01*
G37*
D02*
G36*
X1442Y779D02*
X1442Y775D01*
X1440Y775D01*
X1440Y127D01*
X1442Y127D01*
X1442Y125D01*
X1444Y125D01*
X1444Y123D01*
X1464Y123D01*
X1464Y127D01*
X1466Y127D01*
X1466Y129D01*
X1468Y129D01*
X1468Y257D01*
X1466Y257D01*
X1466Y375D01*
X1468Y375D01*
X1468Y775D01*
X1466Y775D01*
X1466Y777D01*
X1464Y777D01*
X1464Y779D01*
X1442Y779D01*
G37*
D02*
G36*
X3538Y661D02*
X3538Y659D01*
X3536Y659D01*
X3536Y657D01*
X3534Y657D01*
X3534Y637D01*
X3536Y637D01*
X3536Y635D01*
X3538Y635D01*
X3538Y633D01*
X3672Y633D01*
X3672Y635D01*
X3674Y635D01*
X3674Y637D01*
X3678Y637D01*
X3678Y657D01*
X3676Y657D01*
X3676Y659D01*
X3672Y659D01*
X3672Y661D01*
X3538Y661D01*
G37*
D02*
G36*
X1568Y387D02*
X1568Y385D01*
X1566Y385D01*
X1566Y383D01*
X1564Y383D01*
X1564Y381D01*
X1562Y381D01*
X1562Y379D01*
X1560Y379D01*
X1560Y377D01*
X1558Y377D01*
X1558Y375D01*
X1556Y375D01*
X1556Y373D01*
X1554Y373D01*
X1554Y371D01*
X1552Y371D01*
X1552Y369D01*
X1550Y369D01*
X1550Y367D01*
X1548Y367D01*
X1548Y365D01*
X1546Y365D01*
X1546Y363D01*
X1544Y363D01*
X1544Y361D01*
X1542Y361D01*
X1542Y359D01*
X1540Y359D01*
X1540Y271D01*
X1796Y271D01*
X1796Y273D01*
X1788Y273D01*
X1788Y275D01*
X1782Y275D01*
X1782Y277D01*
X1778Y277D01*
X1778Y279D01*
X1776Y279D01*
X1776Y281D01*
X1772Y281D01*
X1772Y283D01*
X1770Y283D01*
X1770Y285D01*
X1768Y285D01*
X1768Y287D01*
X1766Y287D01*
X1766Y289D01*
X1764Y289D01*
X1764Y291D01*
X1762Y291D01*
X1762Y295D01*
X1760Y295D01*
X1760Y297D01*
X1758Y297D01*
X1758Y301D01*
X1756Y301D01*
X1756Y307D01*
X1754Y307D01*
X1754Y315D01*
X1752Y315D01*
X1752Y329D01*
X1754Y329D01*
X1754Y339D01*
X1756Y339D01*
X1756Y343D01*
X1758Y343D01*
X1758Y347D01*
X1760Y347D01*
X1760Y351D01*
X1762Y351D01*
X1762Y353D01*
X1764Y353D01*
X1764Y355D01*
X1766Y355D01*
X1766Y357D01*
X1768Y357D01*
X1768Y359D01*
X1770Y359D01*
X1770Y361D01*
X1772Y361D01*
X1772Y363D01*
X1774Y363D01*
X1774Y365D01*
X1778Y365D01*
X1778Y367D01*
X1782Y367D01*
X1782Y387D01*
X1568Y387D01*
G37*
D02*
G36*
X1842Y291D02*
X1842Y289D01*
X1840Y289D01*
X1840Y285D01*
X1836Y285D01*
X1836Y283D01*
X1834Y283D01*
X1834Y281D01*
X1832Y281D01*
X1832Y279D01*
X1828Y279D01*
X1828Y277D01*
X1824Y277D01*
X1824Y275D01*
X1820Y275D01*
X1820Y273D01*
X1810Y273D01*
X1810Y271D01*
X1896Y271D01*
X1896Y273D01*
X1888Y273D01*
X1888Y275D01*
X1882Y275D01*
X1882Y277D01*
X1878Y277D01*
X1878Y279D01*
X1876Y279D01*
X1876Y281D01*
X1872Y281D01*
X1872Y283D01*
X1870Y283D01*
X1870Y285D01*
X1868Y285D01*
X1868Y287D01*
X1866Y287D01*
X1866Y289D01*
X1864Y289D01*
X1864Y291D01*
X1842Y291D01*
G37*
D02*
G36*
X1942Y291D02*
X1942Y289D01*
X1940Y289D01*
X1940Y285D01*
X1936Y285D01*
X1936Y283D01*
X1934Y283D01*
X1934Y281D01*
X1932Y281D01*
X1932Y279D01*
X1928Y279D01*
X1928Y277D01*
X1924Y277D01*
X1924Y275D01*
X1920Y275D01*
X1920Y273D01*
X1910Y273D01*
X1910Y271D01*
X1968Y271D01*
X1968Y287D01*
X1966Y287D01*
X1966Y289D01*
X1964Y289D01*
X1964Y291D01*
X1942Y291D01*
G37*
D02*
G36*
X1540Y271D02*
X1540Y269D01*
X1968Y269D01*
X1968Y271D01*
X1540Y271D01*
G37*
D02*
G36*
X1540Y271D02*
X1540Y269D01*
X1968Y269D01*
X1968Y271D01*
X1540Y271D01*
G37*
D02*
G36*
X1540Y271D02*
X1540Y269D01*
X1968Y269D01*
X1968Y271D01*
X1540Y271D01*
G37*
D02*
G36*
X1540Y269D02*
X1540Y145D01*
X1816Y145D01*
X1816Y143D01*
X1822Y143D01*
X1822Y141D01*
X1826Y141D01*
X1826Y139D01*
X1830Y139D01*
X1830Y137D01*
X1832Y137D01*
X1832Y135D01*
X1834Y135D01*
X1834Y133D01*
X1838Y133D01*
X1838Y129D01*
X1840Y129D01*
X1840Y127D01*
X1842Y127D01*
X1842Y125D01*
X1844Y125D01*
X1844Y121D01*
X1846Y121D01*
X1846Y117D01*
X1848Y117D01*
X1848Y113D01*
X1850Y113D01*
X1850Y105D01*
X1852Y105D01*
X1852Y89D01*
X1850Y89D01*
X1850Y81D01*
X1848Y81D01*
X1848Y77D01*
X1846Y77D01*
X1846Y73D01*
X1844Y73D01*
X1844Y69D01*
X1842Y69D01*
X1842Y49D01*
X1966Y49D01*
X1966Y69D01*
X1964Y69D01*
X1964Y71D01*
X1962Y71D01*
X1962Y75D01*
X1960Y75D01*
X1960Y77D01*
X1958Y77D01*
X1958Y85D01*
X1956Y85D01*
X1956Y95D01*
X1954Y95D01*
X1954Y99D01*
X1956Y99D01*
X1956Y111D01*
X1958Y111D01*
X1958Y117D01*
X1960Y117D01*
X1960Y121D01*
X1962Y121D01*
X1962Y123D01*
X1964Y123D01*
X1964Y127D01*
X1966Y127D01*
X1966Y129D01*
X1968Y129D01*
X1968Y269D01*
X1540Y269D01*
G37*
D02*
G36*
X1540Y145D02*
X1540Y127D01*
X1542Y127D01*
X1542Y125D01*
X1544Y125D01*
X1544Y123D01*
X1564Y123D01*
X1564Y127D01*
X1566Y127D01*
X1566Y129D01*
X1568Y129D01*
X1568Y131D01*
X1570Y131D01*
X1570Y133D01*
X1572Y133D01*
X1572Y135D01*
X1574Y135D01*
X1574Y137D01*
X1578Y137D01*
X1578Y139D01*
X1582Y139D01*
X1582Y141D01*
X1584Y141D01*
X1584Y143D01*
X1592Y143D01*
X1592Y145D01*
X1540Y145D01*
G37*
D02*
G36*
X1616Y145D02*
X1616Y143D01*
X1622Y143D01*
X1622Y141D01*
X1626Y141D01*
X1626Y139D01*
X1630Y139D01*
X1630Y137D01*
X1632Y137D01*
X1632Y135D01*
X1634Y135D01*
X1634Y133D01*
X1638Y133D01*
X1638Y129D01*
X1640Y129D01*
X1640Y127D01*
X1642Y127D01*
X1642Y125D01*
X1644Y125D01*
X1644Y123D01*
X1664Y123D01*
X1664Y127D01*
X1666Y127D01*
X1666Y129D01*
X1668Y129D01*
X1668Y131D01*
X1670Y131D01*
X1670Y133D01*
X1672Y133D01*
X1672Y135D01*
X1674Y135D01*
X1674Y137D01*
X1678Y137D01*
X1678Y139D01*
X1682Y139D01*
X1682Y141D01*
X1684Y141D01*
X1684Y143D01*
X1692Y143D01*
X1692Y145D01*
X1616Y145D01*
G37*
D02*
G36*
X1716Y145D02*
X1716Y143D01*
X1722Y143D01*
X1722Y141D01*
X1726Y141D01*
X1726Y139D01*
X1730Y139D01*
X1730Y137D01*
X1732Y137D01*
X1732Y135D01*
X1734Y135D01*
X1734Y133D01*
X1738Y133D01*
X1738Y129D01*
X1740Y129D01*
X1740Y127D01*
X1742Y127D01*
X1742Y125D01*
X1744Y125D01*
X1744Y123D01*
X1764Y123D01*
X1764Y127D01*
X1766Y127D01*
X1766Y129D01*
X1768Y129D01*
X1768Y131D01*
X1770Y131D01*
X1770Y133D01*
X1772Y133D01*
X1772Y135D01*
X1774Y135D01*
X1774Y137D01*
X1778Y137D01*
X1778Y139D01*
X1782Y139D01*
X1782Y141D01*
X1784Y141D01*
X1784Y143D01*
X1792Y143D01*
X1792Y145D01*
X1716Y145D01*
G37*
D02*
G36*
X2042Y291D02*
X2042Y289D01*
X2040Y289D01*
X2040Y127D01*
X2042Y127D01*
X2042Y125D01*
X2044Y125D01*
X2044Y123D01*
X2064Y123D01*
X2064Y127D01*
X2066Y127D01*
X2066Y129D01*
X2068Y129D01*
X2068Y287D01*
X2066Y287D01*
X2066Y289D01*
X2064Y289D01*
X2064Y291D01*
X2042Y291D01*
G37*
D02*
G36*
X2142Y291D02*
X2142Y289D01*
X2140Y289D01*
X2140Y127D01*
X2142Y127D01*
X2142Y125D01*
X2144Y125D01*
X2144Y123D01*
X2164Y123D01*
X2164Y127D01*
X2166Y127D01*
X2166Y129D01*
X2168Y129D01*
X2168Y287D01*
X2166Y287D01*
X2166Y289D01*
X2164Y289D01*
X2164Y291D01*
X2142Y291D01*
G37*
D02*
G36*
X2242Y291D02*
X2242Y289D01*
X2240Y289D01*
X2240Y127D01*
X2242Y127D01*
X2242Y125D01*
X2244Y125D01*
X2244Y123D01*
X2264Y123D01*
X2264Y127D01*
X2266Y127D01*
X2266Y129D01*
X2268Y129D01*
X2268Y287D01*
X2266Y287D01*
X2266Y289D01*
X2264Y289D01*
X2264Y291D01*
X2242Y291D01*
G37*
D02*
G36*
X2342Y291D02*
X2342Y289D01*
X2340Y289D01*
X2340Y127D01*
X2342Y127D01*
X2342Y125D01*
X2344Y125D01*
X2344Y123D01*
X2364Y123D01*
X2364Y127D01*
X2366Y127D01*
X2366Y129D01*
X2368Y129D01*
X2368Y287D01*
X2366Y287D01*
X2366Y289D01*
X2364Y289D01*
X2364Y291D01*
X2342Y291D01*
G37*
D02*
G36*
X1550Y1895D02*
X1584Y1895D01*
X1584Y1852D01*
X1550Y1852D01*
X1550Y1895D01*
G37*
D02*
G36*
X1654Y675D02*
X1697Y675D01*
X1697Y641D01*
X1654Y641D01*
X1654Y675D01*
G37*
D02*
G36*
X1654Y607D02*
X1697Y607D01*
X1697Y573D01*
X1654Y573D01*
X1654Y607D01*
G37*
D02*
G36*
X1624Y645D02*
X1658Y645D01*
X1658Y602D01*
X1624Y602D01*
X1624Y645D01*
G37*
D02*
G36*
X1692Y645D02*
X1728Y645D01*
X1728Y602D01*
X1692Y602D01*
X1692Y645D01*
G37*
D02*
G36*
X1020Y2049D02*
X1063Y2049D01*
X1063Y2019D01*
X1020Y2019D01*
X1020Y2049D01*
G37*
D02*
G36*
X1020Y1981D02*
X1063Y1981D01*
X1063Y1949D01*
X1020Y1949D01*
X1020Y1981D01*
G37*
D02*
G36*
X3680Y281D02*
X3723Y281D01*
X3723Y249D01*
X3680Y249D01*
X3680Y281D01*
G37*
D02*
G36*
X3650Y320D02*
X3682Y320D01*
X3682Y279D01*
X3650Y279D01*
X3650Y320D01*
G37*
D02*
G36*
X3780Y281D02*
X3823Y281D01*
X3823Y249D01*
X3780Y249D01*
X3780Y281D01*
G37*
D02*
G36*
X3820Y320D02*
X3852Y320D01*
X3852Y279D01*
X3820Y279D01*
X3820Y320D01*
G37*
D02*
G36*
X1580Y149D02*
X1623Y149D01*
X1623Y119D01*
X1580Y119D01*
X1580Y149D01*
G37*
D02*
G36*
X1580Y81D02*
X1623Y81D01*
X1623Y49D01*
X1580Y49D01*
X1580Y81D01*
G37*
D02*
G36*
X1680Y81D02*
X1723Y81D01*
X1723Y49D01*
X1680Y49D01*
X1680Y81D01*
G37*
D02*
G36*
X3479Y481D02*
X3524Y481D01*
X3524Y447D01*
X3479Y447D01*
X3479Y481D01*
G37*
D02*
G36*
X3448Y522D02*
X3482Y522D01*
X3482Y477D01*
X3448Y477D01*
X3448Y522D01*
G37*
D02*
G36*
X3520Y522D02*
X3554Y522D01*
X3554Y477D01*
X3520Y477D01*
X3520Y522D01*
G37*
D02*
G36*
X1180Y625D02*
X1223Y625D01*
X1223Y593D01*
X1180Y593D01*
X1180Y625D01*
G37*
D02*
G36*
X1180Y559D02*
X1223Y559D01*
X1223Y523D01*
X1180Y523D01*
X1180Y559D01*
G37*
D02*
G36*
X1150Y597D02*
X1184Y597D01*
X1184Y554D01*
X1150Y554D01*
X1150Y597D01*
G37*
D02*
G36*
X1218Y597D02*
X1252Y597D01*
X1252Y554D01*
X1218Y554D01*
X1218Y597D01*
G37*
D02*
G36*
X924Y625D02*
X967Y625D01*
X967Y593D01*
X924Y593D01*
X924Y625D01*
G37*
D02*
G36*
X924Y559D02*
X967Y559D01*
X967Y523D01*
X924Y523D01*
X924Y559D01*
G37*
D02*
G36*
X894Y597D02*
X928Y597D01*
X928Y554D01*
X894Y554D01*
X894Y597D01*
G37*
D02*
G36*
X962Y597D02*
X996Y597D01*
X996Y554D01*
X962Y554D01*
X962Y597D01*
G37*
D02*
G36*
X2930Y1351D02*
X2973Y1351D01*
X2973Y1317D01*
X2930Y1317D01*
X2930Y1351D01*
G37*
D02*
G36*
X2930Y1283D02*
X2973Y1283D01*
X2973Y1247D01*
X2930Y1247D01*
X2930Y1283D01*
G37*
D02*
G36*
X2968Y1321D02*
X3002Y1321D01*
X3002Y1278D01*
X2968Y1278D01*
X2968Y1321D01*
G37*
D02*
G36*
X1079Y865D02*
X1124Y865D01*
X1124Y831D01*
X1079Y831D01*
X1079Y865D01*
G37*
D02*
G36*
X1079Y793D02*
X1124Y793D01*
X1124Y759D01*
X1079Y759D01*
X1079Y793D01*
G37*
D02*
G36*
X1048Y834D02*
X1082Y834D01*
X1082Y789D01*
X1048Y789D01*
X1048Y834D01*
G37*
D02*
G36*
X254Y633D02*
X301Y633D01*
X301Y599D01*
X254Y599D01*
X254Y633D01*
G37*
D02*
G36*
X254Y557D02*
X301Y557D01*
X301Y521D01*
X254Y521D01*
X254Y557D01*
G37*
D02*
G36*
X220Y601D02*
X256Y601D01*
X256Y554D01*
X220Y554D01*
X220Y601D01*
G37*
D02*
G36*
X298Y601D02*
X332Y601D01*
X332Y554D01*
X298Y554D01*
X298Y601D01*
G37*
D02*
G36*
X1779Y307D02*
X1824Y307D01*
X1824Y271D01*
X1779Y271D01*
X1779Y307D01*
G37*
D02*
G36*
X3179Y1815D02*
X3224Y1815D01*
X3224Y1781D01*
X3179Y1781D01*
X3179Y1815D01*
G37*
D02*
G36*
X3179Y1743D02*
X3224Y1743D01*
X3224Y1709D01*
X3179Y1709D01*
X3179Y1743D01*
G37*
D02*
G36*
X3148Y1784D02*
X3182Y1784D01*
X3182Y1739D01*
X3148Y1739D01*
X3148Y1784D01*
G37*
D02*
G36*
X3448Y1622D02*
X3482Y1622D01*
X3482Y1577D01*
X3448Y1577D01*
X3448Y1622D01*
G37*
D02*
G04 End of Copper0*
M02*