G04 MADE WITH FRITZING*
G04 WWW.FRITZING.ORG*
G04 SINGLE SIDED*
G04 HOLES NOT PLATED*
G04 CONTOUR ON CENTER OF CONTOUR VECTOR*
%ASAXBY*%
%FSLAX23Y23*%
%MOIN*%
%OFA0B0*%
%SFA1.0B1.0*%
%ADD10C,0.075000*%
%ADD11C,0.075433*%
%ADD12C,0.078000*%
%ADD13C,0.070000*%
%ADD14C,0.099055*%
%ADD15R,0.075000X0.075000*%
%ADD16C,0.048000*%
%ADD17C,0.032000*%
%ADD18C,0.024000*%
%LNCOPPER0*%
G90*
G70*
G54D10*
X1195Y941D03*
X1471Y752D03*
X1669Y645D03*
X239Y1736D03*
G54D11*
X1784Y1268D03*
X1984Y1268D03*
X1984Y768D03*
X1684Y768D03*
G54D10*
X1884Y1168D03*
X1884Y868D03*
X1784Y1168D03*
X1784Y868D03*
X1684Y1168D03*
X1684Y868D03*
X1584Y1168D03*
X1584Y868D03*
X1484Y1168D03*
X1484Y868D03*
X1384Y1168D03*
X1384Y868D03*
X1284Y1168D03*
X1284Y868D03*
G54D12*
X2184Y1268D03*
X2184Y1168D03*
X2184Y1068D03*
X2184Y968D03*
X2184Y868D03*
X2184Y768D03*
X2184Y668D03*
X2184Y568D03*
G54D13*
X1034Y518D03*
X1034Y418D03*
X1034Y718D03*
X1034Y618D03*
X1034Y918D03*
X1034Y818D03*
X1034Y1118D03*
X1034Y1018D03*
X1034Y1318D03*
X1034Y1218D03*
X1034Y1518D03*
X1034Y1418D03*
G54D10*
X484Y418D03*
X884Y418D03*
X484Y618D03*
X884Y618D03*
X484Y818D03*
X884Y818D03*
X484Y1018D03*
X884Y1018D03*
X484Y1218D03*
X884Y1218D03*
X484Y1418D03*
X884Y1418D03*
X684Y518D03*
X284Y518D03*
X684Y718D03*
X284Y718D03*
X684Y918D03*
X284Y918D03*
X684Y1118D03*
X284Y1118D03*
X684Y1318D03*
X284Y1318D03*
X684Y1518D03*
X284Y1518D03*
G54D14*
X134Y318D03*
X134Y518D03*
X134Y718D03*
X134Y918D03*
X134Y1118D03*
X134Y1318D03*
X134Y1518D03*
G54D15*
X1884Y1168D03*
G54D16*
X684Y1146D02*
X684Y1289D01*
D02*
X256Y1118D02*
X175Y1118D01*
D02*
X1884Y828D02*
X1884Y693D01*
D02*
X1884Y693D02*
X1908Y668D01*
D02*
X1908Y668D02*
X2143Y668D01*
D02*
X1384Y828D02*
X1385Y717D01*
D02*
X1385Y717D02*
X1335Y667D01*
D02*
X1335Y667D02*
X1285Y667D01*
D02*
X1285Y667D02*
X1134Y818D01*
D02*
X1134Y818D02*
X1071Y818D01*
D02*
X1008Y1418D02*
X913Y1418D01*
D02*
X256Y718D02*
X175Y718D01*
D02*
X1584Y828D02*
X1583Y667D01*
D02*
X1583Y667D02*
X1533Y617D01*
D02*
X1533Y617D02*
X1071Y617D01*
D02*
X1008Y818D02*
X913Y818D01*
D02*
X175Y518D02*
X256Y518D01*
D02*
X1008Y618D02*
X913Y618D01*
D02*
X310Y505D02*
X459Y430D01*
D02*
X1008Y1218D02*
X913Y1218D01*
D02*
X256Y1318D02*
X175Y1318D01*
D02*
X1071Y1418D02*
X1833Y1417D01*
D02*
X1833Y1417D02*
X1883Y1367D01*
D02*
X1883Y1367D02*
X1884Y1207D01*
G54D17*
D02*
X1285Y902D02*
X1285Y942D01*
D02*
X1285Y942D02*
X1335Y992D01*
D02*
X1335Y992D02*
X2034Y992D01*
D02*
X2034Y992D02*
X2059Y967D01*
D02*
X2059Y967D02*
X2148Y967D01*
G54D16*
D02*
X1884Y828D02*
X1883Y368D01*
D02*
X1883Y368D02*
X1833Y318D01*
D02*
X1833Y318D02*
X734Y318D01*
D02*
X734Y318D02*
X684Y368D01*
D02*
X684Y368D02*
X684Y478D01*
G54D17*
D02*
X1484Y902D02*
X1483Y918D01*
D02*
X1483Y918D02*
X1510Y942D01*
D02*
X1510Y942D02*
X2009Y942D01*
D02*
X2009Y942D02*
X2059Y868D01*
D02*
X2059Y868D02*
X2148Y868D01*
G54D18*
D02*
X1008Y418D02*
X913Y418D01*
G54D16*
D02*
X2143Y1268D02*
X2024Y1268D01*
D02*
X459Y830D02*
X310Y905D01*
D02*
X1063Y1242D02*
X1183Y1343D01*
D02*
X1183Y1343D02*
X1635Y1343D01*
D02*
X1635Y1343D02*
X1685Y1293D01*
D02*
X1685Y1293D02*
X1684Y1207D01*
D02*
X1684Y796D02*
X1684Y839D01*
D02*
X1784Y1239D02*
X1784Y1196D01*
D02*
X256Y918D02*
X175Y918D01*
D02*
X310Y1105D02*
X459Y1030D01*
D02*
X684Y889D02*
X684Y746D01*
D02*
X310Y1505D02*
X459Y1430D01*
D02*
X1071Y1018D02*
X1134Y1018D01*
D02*
X1134Y1018D02*
X1185Y1067D01*
D02*
X1185Y1067D02*
X1183Y1217D01*
D02*
X1183Y1217D02*
X1234Y1268D01*
D02*
X1234Y1268D02*
X1433Y1268D01*
D02*
X1433Y1268D02*
X1483Y1217D01*
D02*
X1483Y1217D02*
X1484Y1207D01*
D02*
X1008Y1018D02*
X913Y1018D01*
D02*
X310Y705D02*
X459Y630D01*
D02*
X175Y1518D02*
X256Y1518D01*
G54D17*
D02*
X1584Y1133D02*
X1584Y1118D01*
D02*
X1584Y1118D02*
X1609Y1093D01*
D02*
X1609Y1093D02*
X2009Y1093D01*
D02*
X2009Y1093D02*
X2059Y1167D01*
D02*
X2059Y1167D02*
X2148Y1167D01*
G54D16*
D02*
X684Y1346D02*
X684Y1489D01*
D02*
X684Y689D02*
X684Y546D01*
D02*
X310Y1305D02*
X459Y1230D01*
D02*
X2024Y768D02*
X2143Y768D01*
D02*
X1784Y828D02*
X1783Y467D01*
D02*
X1783Y467D02*
X1733Y417D01*
D02*
X1733Y417D02*
X1071Y417D01*
D02*
X684Y1089D02*
X684Y946D01*
G54D17*
D02*
X1405Y1141D02*
X1483Y1043D01*
D02*
X1483Y1043D02*
X2034Y1043D01*
D02*
X2034Y1043D02*
X2059Y1068D01*
D02*
X2059Y1068D02*
X2148Y1068D01*
G36*
X1062Y1381D02*
X1062Y1379D01*
X1058Y1379D01*
X1058Y1357D01*
X1062Y1357D01*
X1062Y1355D01*
X1064Y1355D01*
X1064Y1353D01*
X1066Y1353D01*
X1066Y1351D01*
X1068Y1351D01*
X1068Y1349D01*
X1070Y1349D01*
X1070Y1347D01*
X1072Y1347D01*
X1072Y1345D01*
X1074Y1345D01*
X1074Y1341D01*
X1076Y1341D01*
X1076Y1337D01*
X1078Y1337D01*
X1078Y1331D01*
X1080Y1331D01*
X1080Y1321D01*
X1102Y1321D01*
X1102Y1323D01*
X1104Y1323D01*
X1104Y1325D01*
X1106Y1325D01*
X1106Y1327D01*
X1108Y1327D01*
X1108Y1329D01*
X1110Y1329D01*
X1110Y1331D01*
X1114Y1331D01*
X1114Y1333D01*
X1116Y1333D01*
X1116Y1335D01*
X1118Y1335D01*
X1118Y1337D01*
X1120Y1337D01*
X1120Y1339D01*
X1122Y1339D01*
X1122Y1341D01*
X1126Y1341D01*
X1126Y1343D01*
X1128Y1343D01*
X1128Y1345D01*
X1130Y1345D01*
X1130Y1347D01*
X1132Y1347D01*
X1132Y1349D01*
X1134Y1349D01*
X1134Y1351D01*
X1138Y1351D01*
X1138Y1353D01*
X1140Y1353D01*
X1140Y1355D01*
X1142Y1355D01*
X1142Y1357D01*
X1144Y1357D01*
X1144Y1359D01*
X1146Y1359D01*
X1146Y1361D01*
X1148Y1361D01*
X1148Y1381D01*
X1062Y1381D01*
G37*
D02*
G36*
X1668Y1381D02*
X1668Y1361D01*
X1670Y1361D01*
X1670Y1359D01*
X1672Y1359D01*
X1672Y1357D01*
X1674Y1357D01*
X1674Y1355D01*
X1676Y1355D01*
X1676Y1353D01*
X1678Y1353D01*
X1678Y1351D01*
X1680Y1351D01*
X1680Y1349D01*
X1682Y1349D01*
X1682Y1347D01*
X1684Y1347D01*
X1684Y1345D01*
X1686Y1345D01*
X1686Y1343D01*
X1688Y1343D01*
X1688Y1341D01*
X1690Y1341D01*
X1690Y1339D01*
X1692Y1339D01*
X1692Y1337D01*
X1694Y1337D01*
X1694Y1335D01*
X1696Y1335D01*
X1696Y1333D01*
X1698Y1333D01*
X1698Y1331D01*
X1700Y1331D01*
X1700Y1329D01*
X1702Y1329D01*
X1702Y1327D01*
X1704Y1327D01*
X1704Y1325D01*
X1706Y1325D01*
X1706Y1323D01*
X1708Y1323D01*
X1708Y1321D01*
X1710Y1321D01*
X1710Y1319D01*
X1712Y1319D01*
X1712Y1317D01*
X1796Y1317D01*
X1796Y1315D01*
X1802Y1315D01*
X1802Y1313D01*
X1806Y1313D01*
X1806Y1311D01*
X1810Y1311D01*
X1810Y1309D01*
X1814Y1309D01*
X1814Y1307D01*
X1816Y1307D01*
X1816Y1305D01*
X1818Y1305D01*
X1818Y1303D01*
X1820Y1303D01*
X1820Y1301D01*
X1822Y1301D01*
X1822Y1299D01*
X1824Y1299D01*
X1824Y1297D01*
X1826Y1297D01*
X1826Y1293D01*
X1828Y1293D01*
X1828Y1289D01*
X1848Y1289D01*
X1848Y1353D01*
X1846Y1353D01*
X1846Y1355D01*
X1844Y1355D01*
X1844Y1357D01*
X1842Y1357D01*
X1842Y1359D01*
X1840Y1359D01*
X1840Y1361D01*
X1838Y1361D01*
X1838Y1363D01*
X1836Y1363D01*
X1836Y1365D01*
X1834Y1365D01*
X1834Y1367D01*
X1832Y1367D01*
X1832Y1369D01*
X1830Y1369D01*
X1830Y1371D01*
X1828Y1371D01*
X1828Y1373D01*
X1826Y1373D01*
X1826Y1375D01*
X1824Y1375D01*
X1824Y1377D01*
X1822Y1377D01*
X1822Y1379D01*
X1820Y1379D01*
X1820Y1381D01*
X1668Y1381D01*
G37*
D02*
G36*
X1714Y1317D02*
X1714Y1313D01*
X1716Y1313D01*
X1716Y1309D01*
X1718Y1309D01*
X1718Y1305D01*
X1720Y1305D01*
X1720Y1295D01*
X1722Y1295D01*
X1722Y1293D01*
X1742Y1293D01*
X1742Y1295D01*
X1744Y1295D01*
X1744Y1299D01*
X1746Y1299D01*
X1746Y1301D01*
X1748Y1301D01*
X1748Y1303D01*
X1750Y1303D01*
X1750Y1305D01*
X1752Y1305D01*
X1752Y1307D01*
X1756Y1307D01*
X1756Y1309D01*
X1758Y1309D01*
X1758Y1311D01*
X1762Y1311D01*
X1762Y1313D01*
X1766Y1313D01*
X1766Y1315D01*
X1772Y1315D01*
X1772Y1317D01*
X1714Y1317D01*
G37*
D02*
G36*
X1464Y1307D02*
X1464Y1287D01*
X1466Y1287D01*
X1466Y1285D01*
X1468Y1285D01*
X1468Y1283D01*
X1470Y1283D01*
X1470Y1281D01*
X1472Y1281D01*
X1472Y1279D01*
X1474Y1279D01*
X1474Y1277D01*
X1476Y1277D01*
X1476Y1275D01*
X1478Y1275D01*
X1478Y1273D01*
X1480Y1273D01*
X1480Y1271D01*
X1482Y1271D01*
X1482Y1269D01*
X1484Y1269D01*
X1484Y1267D01*
X1486Y1267D01*
X1486Y1265D01*
X1488Y1265D01*
X1488Y1263D01*
X1490Y1263D01*
X1490Y1261D01*
X1492Y1261D01*
X1492Y1259D01*
X1494Y1259D01*
X1494Y1257D01*
X1496Y1257D01*
X1496Y1255D01*
X1498Y1255D01*
X1498Y1253D01*
X1500Y1253D01*
X1500Y1251D01*
X1502Y1251D01*
X1502Y1249D01*
X1504Y1249D01*
X1504Y1247D01*
X1506Y1247D01*
X1506Y1245D01*
X1508Y1245D01*
X1508Y1243D01*
X1510Y1243D01*
X1510Y1241D01*
X1512Y1241D01*
X1512Y1239D01*
X1514Y1239D01*
X1514Y1235D01*
X1516Y1235D01*
X1516Y1231D01*
X1518Y1231D01*
X1518Y1223D01*
X1520Y1223D01*
X1520Y1217D01*
X1596Y1217D01*
X1596Y1215D01*
X1602Y1215D01*
X1602Y1213D01*
X1606Y1213D01*
X1606Y1211D01*
X1610Y1211D01*
X1610Y1209D01*
X1612Y1209D01*
X1612Y1207D01*
X1616Y1207D01*
X1616Y1205D01*
X1618Y1205D01*
X1618Y1203D01*
X1620Y1203D01*
X1620Y1201D01*
X1622Y1201D01*
X1622Y1199D01*
X1624Y1199D01*
X1624Y1195D01*
X1644Y1195D01*
X1644Y1197D01*
X1646Y1197D01*
X1646Y1201D01*
X1648Y1201D01*
X1648Y1281D01*
X1646Y1281D01*
X1646Y1283D01*
X1644Y1283D01*
X1644Y1285D01*
X1642Y1285D01*
X1642Y1287D01*
X1640Y1287D01*
X1640Y1289D01*
X1638Y1289D01*
X1638Y1291D01*
X1636Y1291D01*
X1636Y1293D01*
X1634Y1293D01*
X1634Y1295D01*
X1632Y1295D01*
X1632Y1297D01*
X1630Y1297D01*
X1630Y1299D01*
X1628Y1299D01*
X1628Y1301D01*
X1626Y1301D01*
X1626Y1303D01*
X1624Y1303D01*
X1624Y1305D01*
X1622Y1305D01*
X1622Y1307D01*
X1464Y1307D01*
G37*
D02*
G36*
X1520Y1217D02*
X1520Y1201D01*
X1522Y1201D01*
X1522Y1199D01*
X1524Y1199D01*
X1524Y1195D01*
X1544Y1195D01*
X1544Y1197D01*
X1546Y1197D01*
X1546Y1201D01*
X1548Y1201D01*
X1548Y1203D01*
X1550Y1203D01*
X1550Y1205D01*
X1552Y1205D01*
X1552Y1207D01*
X1556Y1207D01*
X1556Y1209D01*
X1558Y1209D01*
X1558Y1211D01*
X1562Y1211D01*
X1562Y1213D01*
X1566Y1213D01*
X1566Y1215D01*
X1574Y1215D01*
X1574Y1217D01*
X1520Y1217D01*
G37*
D02*
G36*
X1182Y1297D02*
X1182Y1295D01*
X1180Y1295D01*
X1180Y1293D01*
X1178Y1293D01*
X1178Y1291D01*
X1176Y1291D01*
X1176Y1289D01*
X1172Y1289D01*
X1172Y1287D01*
X1170Y1287D01*
X1170Y1285D01*
X1168Y1285D01*
X1168Y1283D01*
X1166Y1283D01*
X1166Y1281D01*
X1164Y1281D01*
X1164Y1279D01*
X1162Y1279D01*
X1162Y1277D01*
X1158Y1277D01*
X1158Y1275D01*
X1156Y1275D01*
X1156Y1273D01*
X1154Y1273D01*
X1154Y1271D01*
X1152Y1271D01*
X1152Y1269D01*
X1150Y1269D01*
X1150Y1267D01*
X1146Y1267D01*
X1146Y1265D01*
X1144Y1265D01*
X1144Y1263D01*
X1142Y1263D01*
X1142Y1261D01*
X1140Y1261D01*
X1140Y1259D01*
X1138Y1259D01*
X1138Y1257D01*
X1134Y1257D01*
X1134Y1255D01*
X1132Y1255D01*
X1132Y1253D01*
X1130Y1253D01*
X1130Y1251D01*
X1128Y1251D01*
X1128Y1249D01*
X1126Y1249D01*
X1126Y1247D01*
X1124Y1247D01*
X1124Y1245D01*
X1120Y1245D01*
X1120Y1243D01*
X1118Y1243D01*
X1118Y1241D01*
X1116Y1241D01*
X1116Y1239D01*
X1114Y1239D01*
X1114Y1237D01*
X1112Y1237D01*
X1112Y1235D01*
X1108Y1235D01*
X1108Y1233D01*
X1106Y1233D01*
X1106Y1231D01*
X1104Y1231D01*
X1104Y1229D01*
X1102Y1229D01*
X1102Y1227D01*
X1100Y1227D01*
X1100Y1225D01*
X1098Y1225D01*
X1098Y1223D01*
X1094Y1223D01*
X1094Y1221D01*
X1092Y1221D01*
X1092Y1219D01*
X1090Y1219D01*
X1090Y1217D01*
X1088Y1217D01*
X1088Y1215D01*
X1086Y1215D01*
X1086Y1213D01*
X1082Y1213D01*
X1082Y1211D01*
X1080Y1211D01*
X1080Y1205D01*
X1078Y1205D01*
X1078Y1199D01*
X1076Y1199D01*
X1076Y1195D01*
X1074Y1195D01*
X1074Y1191D01*
X1072Y1191D01*
X1072Y1189D01*
X1070Y1189D01*
X1070Y1187D01*
X1068Y1187D01*
X1068Y1185D01*
X1066Y1185D01*
X1066Y1183D01*
X1064Y1183D01*
X1064Y1181D01*
X1062Y1181D01*
X1062Y1179D01*
X1058Y1179D01*
X1058Y1157D01*
X1062Y1157D01*
X1062Y1155D01*
X1064Y1155D01*
X1064Y1153D01*
X1066Y1153D01*
X1066Y1151D01*
X1068Y1151D01*
X1068Y1149D01*
X1070Y1149D01*
X1070Y1147D01*
X1072Y1147D01*
X1072Y1145D01*
X1074Y1145D01*
X1074Y1141D01*
X1076Y1141D01*
X1076Y1137D01*
X1078Y1137D01*
X1078Y1131D01*
X1080Y1131D01*
X1080Y1121D01*
X1082Y1121D01*
X1082Y1115D01*
X1080Y1115D01*
X1080Y1105D01*
X1078Y1105D01*
X1078Y1099D01*
X1076Y1099D01*
X1076Y1095D01*
X1074Y1095D01*
X1074Y1091D01*
X1072Y1091D01*
X1072Y1089D01*
X1070Y1089D01*
X1070Y1087D01*
X1068Y1087D01*
X1068Y1085D01*
X1066Y1085D01*
X1066Y1083D01*
X1064Y1083D01*
X1064Y1081D01*
X1062Y1081D01*
X1062Y1079D01*
X1058Y1079D01*
X1058Y1057D01*
X1062Y1057D01*
X1062Y1055D01*
X1122Y1055D01*
X1122Y1057D01*
X1124Y1057D01*
X1124Y1059D01*
X1126Y1059D01*
X1126Y1061D01*
X1128Y1061D01*
X1128Y1063D01*
X1130Y1063D01*
X1130Y1065D01*
X1132Y1065D01*
X1132Y1067D01*
X1134Y1067D01*
X1134Y1069D01*
X1136Y1069D01*
X1136Y1071D01*
X1138Y1071D01*
X1138Y1073D01*
X1140Y1073D01*
X1140Y1075D01*
X1142Y1075D01*
X1142Y1077D01*
X1144Y1077D01*
X1144Y1079D01*
X1146Y1079D01*
X1146Y1081D01*
X1148Y1081D01*
X1148Y1229D01*
X1150Y1229D01*
X1150Y1233D01*
X1152Y1233D01*
X1152Y1237D01*
X1154Y1237D01*
X1154Y1239D01*
X1156Y1239D01*
X1156Y1243D01*
X1158Y1243D01*
X1158Y1245D01*
X1160Y1245D01*
X1160Y1247D01*
X1162Y1247D01*
X1162Y1249D01*
X1164Y1249D01*
X1164Y1251D01*
X1166Y1251D01*
X1166Y1253D01*
X1168Y1253D01*
X1168Y1255D01*
X1170Y1255D01*
X1170Y1257D01*
X1172Y1257D01*
X1172Y1259D01*
X1174Y1259D01*
X1174Y1261D01*
X1176Y1261D01*
X1176Y1263D01*
X1178Y1263D01*
X1178Y1265D01*
X1180Y1265D01*
X1180Y1267D01*
X1182Y1267D01*
X1182Y1269D01*
X1184Y1269D01*
X1184Y1271D01*
X1186Y1271D01*
X1186Y1273D01*
X1188Y1273D01*
X1188Y1275D01*
X1190Y1275D01*
X1190Y1277D01*
X1192Y1277D01*
X1192Y1279D01*
X1194Y1279D01*
X1194Y1281D01*
X1196Y1281D01*
X1196Y1283D01*
X1198Y1283D01*
X1198Y1285D01*
X1200Y1285D01*
X1200Y1287D01*
X1202Y1287D01*
X1202Y1297D01*
X1182Y1297D01*
G37*
D02*
G36*
X1720Y1247D02*
X1720Y1201D01*
X1722Y1201D01*
X1722Y1199D01*
X1724Y1199D01*
X1724Y1195D01*
X1744Y1195D01*
X1744Y1197D01*
X1746Y1197D01*
X1746Y1201D01*
X1748Y1201D01*
X1748Y1235D01*
X1746Y1235D01*
X1746Y1237D01*
X1744Y1237D01*
X1744Y1241D01*
X1742Y1241D01*
X1742Y1243D01*
X1740Y1243D01*
X1740Y1247D01*
X1720Y1247D01*
G37*
D02*
G36*
X1920Y1247D02*
X1920Y1219D01*
X1972Y1219D01*
X1972Y1221D01*
X1966Y1221D01*
X1966Y1223D01*
X1962Y1223D01*
X1962Y1225D01*
X1958Y1225D01*
X1958Y1227D01*
X1954Y1227D01*
X1954Y1229D01*
X1952Y1229D01*
X1952Y1231D01*
X1950Y1231D01*
X1950Y1233D01*
X1948Y1233D01*
X1948Y1235D01*
X1946Y1235D01*
X1946Y1237D01*
X1944Y1237D01*
X1944Y1241D01*
X1942Y1241D01*
X1942Y1243D01*
X1940Y1243D01*
X1940Y1247D01*
X1920Y1247D01*
G37*
D02*
G36*
X2016Y1231D02*
X2016Y1229D01*
X2014Y1229D01*
X2014Y1227D01*
X2010Y1227D01*
X2010Y1225D01*
X2006Y1225D01*
X2006Y1223D01*
X2002Y1223D01*
X2002Y1221D01*
X1996Y1221D01*
X1996Y1219D01*
X2154Y1219D01*
X2154Y1227D01*
X2152Y1227D01*
X2152Y1229D01*
X2150Y1229D01*
X2150Y1231D01*
X2016Y1231D01*
G37*
D02*
G36*
X1920Y1219D02*
X1920Y1217D01*
X2154Y1217D01*
X2154Y1219D01*
X1920Y1219D01*
G37*
D02*
G36*
X1920Y1219D02*
X1920Y1217D01*
X2154Y1217D01*
X2154Y1219D01*
X1920Y1219D01*
G37*
D02*
G36*
X1934Y1217D02*
X1934Y1121D01*
X1994Y1121D01*
X1994Y1123D01*
X1996Y1123D01*
X1996Y1125D01*
X1998Y1125D01*
X1998Y1129D01*
X2000Y1129D01*
X2000Y1131D01*
X2002Y1131D01*
X2002Y1135D01*
X2004Y1135D01*
X2004Y1137D01*
X2006Y1137D01*
X2006Y1141D01*
X2008Y1141D01*
X2008Y1143D01*
X2010Y1143D01*
X2010Y1147D01*
X2012Y1147D01*
X2012Y1149D01*
X2014Y1149D01*
X2014Y1153D01*
X2016Y1153D01*
X2016Y1155D01*
X2018Y1155D01*
X2018Y1159D01*
X2020Y1159D01*
X2020Y1161D01*
X2022Y1161D01*
X2022Y1165D01*
X2024Y1165D01*
X2024Y1167D01*
X2026Y1167D01*
X2026Y1171D01*
X2028Y1171D01*
X2028Y1173D01*
X2030Y1173D01*
X2030Y1177D01*
X2032Y1177D01*
X2032Y1179D01*
X2034Y1179D01*
X2034Y1183D01*
X2036Y1183D01*
X2036Y1185D01*
X2038Y1185D01*
X2038Y1187D01*
X2040Y1187D01*
X2040Y1189D01*
X2042Y1189D01*
X2042Y1191D01*
X2046Y1191D01*
X2046Y1193D01*
X2050Y1193D01*
X2050Y1195D01*
X2142Y1195D01*
X2142Y1197D01*
X2144Y1197D01*
X2144Y1201D01*
X2146Y1201D01*
X2146Y1203D01*
X2148Y1203D01*
X2148Y1205D01*
X2150Y1205D01*
X2150Y1207D01*
X2154Y1207D01*
X2154Y1217D01*
X1934Y1217D01*
G37*
D02*
G36*
X1302Y1233D02*
X1302Y1213D01*
X1306Y1213D01*
X1306Y1211D01*
X1310Y1211D01*
X1310Y1209D01*
X1312Y1209D01*
X1312Y1207D01*
X1316Y1207D01*
X1316Y1205D01*
X1318Y1205D01*
X1318Y1203D01*
X1320Y1203D01*
X1320Y1201D01*
X1322Y1201D01*
X1322Y1199D01*
X1324Y1199D01*
X1324Y1195D01*
X1344Y1195D01*
X1344Y1197D01*
X1346Y1197D01*
X1346Y1201D01*
X1348Y1201D01*
X1348Y1203D01*
X1350Y1203D01*
X1350Y1205D01*
X1352Y1205D01*
X1352Y1207D01*
X1356Y1207D01*
X1356Y1209D01*
X1358Y1209D01*
X1358Y1211D01*
X1362Y1211D01*
X1362Y1213D01*
X1366Y1213D01*
X1366Y1233D01*
X1302Y1233D01*
G37*
D02*
G36*
X1220Y1147D02*
X1220Y1119D01*
X1272Y1119D01*
X1272Y1121D01*
X1266Y1121D01*
X1266Y1123D01*
X1262Y1123D01*
X1262Y1125D01*
X1258Y1125D01*
X1258Y1127D01*
X1256Y1127D01*
X1256Y1129D01*
X1252Y1129D01*
X1252Y1131D01*
X1250Y1131D01*
X1250Y1133D01*
X1248Y1133D01*
X1248Y1135D01*
X1246Y1135D01*
X1246Y1139D01*
X1244Y1139D01*
X1244Y1141D01*
X1242Y1141D01*
X1242Y1145D01*
X1240Y1145D01*
X1240Y1147D01*
X1220Y1147D01*
G37*
D02*
G36*
X1324Y1141D02*
X1324Y1137D01*
X1322Y1137D01*
X1322Y1135D01*
X1320Y1135D01*
X1320Y1133D01*
X1318Y1133D01*
X1318Y1131D01*
X1316Y1131D01*
X1316Y1129D01*
X1314Y1129D01*
X1314Y1127D01*
X1310Y1127D01*
X1310Y1125D01*
X1306Y1125D01*
X1306Y1123D01*
X1302Y1123D01*
X1302Y1121D01*
X1296Y1121D01*
X1296Y1119D01*
X1372Y1119D01*
X1372Y1121D01*
X1366Y1121D01*
X1366Y1123D01*
X1362Y1123D01*
X1362Y1125D01*
X1358Y1125D01*
X1358Y1127D01*
X1356Y1127D01*
X1356Y1129D01*
X1352Y1129D01*
X1352Y1131D01*
X1350Y1131D01*
X1350Y1133D01*
X1348Y1133D01*
X1348Y1135D01*
X1346Y1135D01*
X1346Y1139D01*
X1344Y1139D01*
X1344Y1141D01*
X1324Y1141D01*
G37*
D02*
G36*
X1220Y1119D02*
X1220Y1117D01*
X1388Y1117D01*
X1388Y1119D01*
X1220Y1119D01*
G37*
D02*
G36*
X1220Y1119D02*
X1220Y1117D01*
X1388Y1117D01*
X1388Y1119D01*
X1220Y1119D01*
G37*
D02*
G36*
X1220Y1117D02*
X1220Y1089D01*
X1222Y1089D01*
X1222Y1065D01*
X1220Y1065D01*
X1220Y1055D01*
X1218Y1055D01*
X1218Y1051D01*
X1216Y1051D01*
X1216Y1047D01*
X1214Y1047D01*
X1214Y1045D01*
X1212Y1045D01*
X1212Y1043D01*
X1210Y1043D01*
X1210Y1041D01*
X1208Y1041D01*
X1208Y1039D01*
X1206Y1039D01*
X1206Y1037D01*
X1204Y1037D01*
X1204Y1035D01*
X1202Y1035D01*
X1202Y1033D01*
X1200Y1033D01*
X1200Y1031D01*
X1198Y1031D01*
X1198Y1029D01*
X1196Y1029D01*
X1196Y1027D01*
X1194Y1027D01*
X1194Y1025D01*
X1192Y1025D01*
X1192Y1023D01*
X1190Y1023D01*
X1190Y1021D01*
X1188Y1021D01*
X1188Y1019D01*
X1186Y1019D01*
X1186Y1017D01*
X1184Y1017D01*
X1184Y1015D01*
X1182Y1015D01*
X1182Y1013D01*
X1180Y1013D01*
X1180Y1011D01*
X1178Y1011D01*
X1178Y1009D01*
X1176Y1009D01*
X1176Y1007D01*
X1172Y1007D01*
X1172Y1005D01*
X1170Y1005D01*
X1170Y1003D01*
X1168Y1003D01*
X1168Y1001D01*
X1166Y1001D01*
X1166Y999D01*
X1164Y999D01*
X1164Y997D01*
X1162Y997D01*
X1162Y995D01*
X1160Y995D01*
X1160Y993D01*
X1158Y993D01*
X1158Y991D01*
X1156Y991D01*
X1156Y989D01*
X1152Y989D01*
X1152Y987D01*
X1148Y987D01*
X1148Y985D01*
X1142Y985D01*
X1142Y983D01*
X1064Y983D01*
X1064Y981D01*
X1062Y981D01*
X1062Y979D01*
X1058Y979D01*
X1058Y957D01*
X1062Y957D01*
X1062Y955D01*
X1064Y955D01*
X1064Y953D01*
X1066Y953D01*
X1066Y951D01*
X1068Y951D01*
X1068Y949D01*
X1070Y949D01*
X1070Y947D01*
X1072Y947D01*
X1072Y945D01*
X1074Y945D01*
X1074Y941D01*
X1076Y941D01*
X1076Y937D01*
X1078Y937D01*
X1078Y931D01*
X1080Y931D01*
X1080Y921D01*
X1082Y921D01*
X1082Y915D01*
X1080Y915D01*
X1080Y905D01*
X1078Y905D01*
X1078Y899D01*
X1076Y899D01*
X1076Y895D01*
X1074Y895D01*
X1074Y891D01*
X1072Y891D01*
X1072Y889D01*
X1070Y889D01*
X1070Y887D01*
X1068Y887D01*
X1068Y885D01*
X1066Y885D01*
X1066Y883D01*
X1064Y883D01*
X1064Y881D01*
X1062Y881D01*
X1062Y879D01*
X1058Y879D01*
X1058Y857D01*
X1062Y857D01*
X1062Y855D01*
X1140Y855D01*
X1140Y853D01*
X1148Y853D01*
X1148Y851D01*
X1152Y851D01*
X1152Y849D01*
X1154Y849D01*
X1154Y847D01*
X1156Y847D01*
X1156Y845D01*
X1160Y845D01*
X1160Y843D01*
X1162Y843D01*
X1162Y841D01*
X1164Y841D01*
X1164Y839D01*
X1166Y839D01*
X1166Y837D01*
X1168Y837D01*
X1168Y835D01*
X1170Y835D01*
X1170Y833D01*
X1172Y833D01*
X1172Y831D01*
X1174Y831D01*
X1174Y829D01*
X1176Y829D01*
X1176Y827D01*
X1178Y827D01*
X1178Y825D01*
X1180Y825D01*
X1180Y823D01*
X1182Y823D01*
X1182Y821D01*
X1184Y821D01*
X1184Y819D01*
X1272Y819D01*
X1272Y821D01*
X1266Y821D01*
X1266Y823D01*
X1262Y823D01*
X1262Y825D01*
X1258Y825D01*
X1258Y827D01*
X1256Y827D01*
X1256Y829D01*
X1252Y829D01*
X1252Y831D01*
X1250Y831D01*
X1250Y833D01*
X1248Y833D01*
X1248Y835D01*
X1246Y835D01*
X1246Y839D01*
X1244Y839D01*
X1244Y841D01*
X1242Y841D01*
X1242Y845D01*
X1240Y845D01*
X1240Y847D01*
X1238Y847D01*
X1238Y853D01*
X1236Y853D01*
X1236Y863D01*
X1234Y863D01*
X1234Y873D01*
X1236Y873D01*
X1236Y883D01*
X1238Y883D01*
X1238Y889D01*
X1240Y889D01*
X1240Y891D01*
X1242Y891D01*
X1242Y895D01*
X1244Y895D01*
X1244Y897D01*
X1246Y897D01*
X1246Y901D01*
X1248Y901D01*
X1248Y903D01*
X1250Y903D01*
X1250Y905D01*
X1252Y905D01*
X1252Y907D01*
X1256Y907D01*
X1256Y943D01*
X1258Y943D01*
X1258Y953D01*
X1260Y953D01*
X1260Y957D01*
X1262Y957D01*
X1262Y961D01*
X1264Y961D01*
X1264Y963D01*
X1266Y963D01*
X1266Y965D01*
X1268Y965D01*
X1268Y967D01*
X1270Y967D01*
X1270Y969D01*
X1272Y969D01*
X1272Y971D01*
X1274Y971D01*
X1274Y973D01*
X1276Y973D01*
X1276Y975D01*
X1278Y975D01*
X1278Y977D01*
X1280Y977D01*
X1280Y979D01*
X1282Y979D01*
X1282Y981D01*
X1284Y981D01*
X1284Y983D01*
X1286Y983D01*
X1286Y985D01*
X1288Y985D01*
X1288Y987D01*
X1290Y987D01*
X1290Y989D01*
X1292Y989D01*
X1292Y991D01*
X1294Y991D01*
X1294Y993D01*
X1296Y993D01*
X1296Y995D01*
X1298Y995D01*
X1298Y997D01*
X1300Y997D01*
X1300Y999D01*
X1302Y999D01*
X1302Y1001D01*
X1304Y1001D01*
X1304Y1003D01*
X1306Y1003D01*
X1306Y1005D01*
X1308Y1005D01*
X1308Y1007D01*
X1310Y1007D01*
X1310Y1009D01*
X1312Y1009D01*
X1312Y1011D01*
X1314Y1011D01*
X1314Y1013D01*
X1316Y1013D01*
X1316Y1015D01*
X1320Y1015D01*
X1320Y1017D01*
X1324Y1017D01*
X1324Y1019D01*
X1330Y1019D01*
X1330Y1021D01*
X1450Y1021D01*
X1450Y1041D01*
X1448Y1041D01*
X1448Y1045D01*
X1446Y1045D01*
X1446Y1047D01*
X1444Y1047D01*
X1444Y1049D01*
X1442Y1049D01*
X1442Y1051D01*
X1440Y1051D01*
X1440Y1055D01*
X1438Y1055D01*
X1438Y1057D01*
X1436Y1057D01*
X1436Y1059D01*
X1434Y1059D01*
X1434Y1061D01*
X1432Y1061D01*
X1432Y1065D01*
X1430Y1065D01*
X1430Y1067D01*
X1428Y1067D01*
X1428Y1069D01*
X1426Y1069D01*
X1426Y1071D01*
X1424Y1071D01*
X1424Y1075D01*
X1422Y1075D01*
X1422Y1077D01*
X1420Y1077D01*
X1420Y1079D01*
X1418Y1079D01*
X1418Y1081D01*
X1416Y1081D01*
X1416Y1085D01*
X1414Y1085D01*
X1414Y1087D01*
X1412Y1087D01*
X1412Y1089D01*
X1410Y1089D01*
X1410Y1091D01*
X1408Y1091D01*
X1408Y1095D01*
X1406Y1095D01*
X1406Y1097D01*
X1404Y1097D01*
X1404Y1099D01*
X1402Y1099D01*
X1402Y1101D01*
X1400Y1101D01*
X1400Y1105D01*
X1398Y1105D01*
X1398Y1107D01*
X1396Y1107D01*
X1396Y1109D01*
X1394Y1109D01*
X1394Y1111D01*
X1392Y1111D01*
X1392Y1115D01*
X1390Y1115D01*
X1390Y1117D01*
X1220Y1117D01*
G37*
D02*
G36*
X1324Y841D02*
X1324Y837D01*
X1322Y837D01*
X1322Y835D01*
X1320Y835D01*
X1320Y833D01*
X1318Y833D01*
X1318Y831D01*
X1316Y831D01*
X1316Y829D01*
X1314Y829D01*
X1314Y827D01*
X1310Y827D01*
X1310Y825D01*
X1306Y825D01*
X1306Y823D01*
X1302Y823D01*
X1302Y821D01*
X1296Y821D01*
X1296Y819D01*
X1348Y819D01*
X1348Y835D01*
X1346Y835D01*
X1346Y839D01*
X1344Y839D01*
X1344Y841D01*
X1324Y841D01*
G37*
D02*
G36*
X1186Y819D02*
X1186Y817D01*
X1348Y817D01*
X1348Y819D01*
X1186Y819D01*
G37*
D02*
G36*
X1186Y819D02*
X1186Y817D01*
X1348Y817D01*
X1348Y819D01*
X1186Y819D01*
G37*
D02*
G36*
X1188Y817D02*
X1188Y815D01*
X1190Y815D01*
X1190Y813D01*
X1192Y813D01*
X1192Y811D01*
X1194Y811D01*
X1194Y809D01*
X1196Y809D01*
X1196Y807D01*
X1198Y807D01*
X1198Y805D01*
X1200Y805D01*
X1200Y803D01*
X1202Y803D01*
X1202Y801D01*
X1204Y801D01*
X1204Y799D01*
X1206Y799D01*
X1206Y797D01*
X1208Y797D01*
X1208Y795D01*
X1210Y795D01*
X1210Y793D01*
X1212Y793D01*
X1212Y791D01*
X1214Y791D01*
X1214Y789D01*
X1216Y789D01*
X1216Y787D01*
X1218Y787D01*
X1218Y785D01*
X1220Y785D01*
X1220Y783D01*
X1222Y783D01*
X1222Y781D01*
X1224Y781D01*
X1224Y779D01*
X1226Y779D01*
X1226Y777D01*
X1228Y777D01*
X1228Y775D01*
X1230Y775D01*
X1230Y773D01*
X1232Y773D01*
X1232Y771D01*
X1234Y771D01*
X1234Y769D01*
X1236Y769D01*
X1236Y767D01*
X1238Y767D01*
X1238Y765D01*
X1240Y765D01*
X1240Y763D01*
X1242Y763D01*
X1242Y761D01*
X1244Y761D01*
X1244Y759D01*
X1246Y759D01*
X1246Y757D01*
X1248Y757D01*
X1248Y755D01*
X1250Y755D01*
X1250Y753D01*
X1252Y753D01*
X1252Y751D01*
X1254Y751D01*
X1254Y749D01*
X1256Y749D01*
X1256Y747D01*
X1258Y747D01*
X1258Y745D01*
X1260Y745D01*
X1260Y743D01*
X1262Y743D01*
X1262Y741D01*
X1264Y741D01*
X1264Y739D01*
X1266Y739D01*
X1266Y737D01*
X1268Y737D01*
X1268Y735D01*
X1270Y735D01*
X1270Y733D01*
X1272Y733D01*
X1272Y731D01*
X1274Y731D01*
X1274Y729D01*
X1276Y729D01*
X1276Y727D01*
X1278Y727D01*
X1278Y725D01*
X1280Y725D01*
X1280Y723D01*
X1282Y723D01*
X1282Y721D01*
X1284Y721D01*
X1284Y719D01*
X1286Y719D01*
X1286Y717D01*
X1288Y717D01*
X1288Y715D01*
X1290Y715D01*
X1290Y713D01*
X1292Y713D01*
X1292Y711D01*
X1294Y711D01*
X1294Y709D01*
X1296Y709D01*
X1296Y707D01*
X1298Y707D01*
X1298Y705D01*
X1300Y705D01*
X1300Y703D01*
X1322Y703D01*
X1322Y705D01*
X1324Y705D01*
X1324Y707D01*
X1326Y707D01*
X1326Y709D01*
X1328Y709D01*
X1328Y711D01*
X1330Y711D01*
X1330Y713D01*
X1332Y713D01*
X1332Y715D01*
X1334Y715D01*
X1334Y717D01*
X1336Y717D01*
X1336Y719D01*
X1338Y719D01*
X1338Y721D01*
X1340Y721D01*
X1340Y723D01*
X1342Y723D01*
X1342Y725D01*
X1344Y725D01*
X1344Y727D01*
X1346Y727D01*
X1346Y729D01*
X1348Y729D01*
X1348Y731D01*
X1350Y731D01*
X1350Y769D01*
X1348Y769D01*
X1348Y817D01*
X1188Y817D01*
G37*
D02*
G36*
X1524Y1141D02*
X1524Y1137D01*
X1522Y1137D01*
X1522Y1135D01*
X1520Y1135D01*
X1520Y1133D01*
X1518Y1133D01*
X1518Y1131D01*
X1516Y1131D01*
X1516Y1129D01*
X1514Y1129D01*
X1514Y1127D01*
X1510Y1127D01*
X1510Y1125D01*
X1506Y1125D01*
X1506Y1123D01*
X1502Y1123D01*
X1502Y1121D01*
X1496Y1121D01*
X1496Y1119D01*
X1474Y1119D01*
X1474Y1099D01*
X1476Y1099D01*
X1476Y1097D01*
X1478Y1097D01*
X1478Y1095D01*
X1480Y1095D01*
X1480Y1091D01*
X1482Y1091D01*
X1482Y1089D01*
X1484Y1089D01*
X1484Y1087D01*
X1486Y1087D01*
X1486Y1083D01*
X1488Y1083D01*
X1488Y1081D01*
X1490Y1081D01*
X1490Y1079D01*
X1492Y1079D01*
X1492Y1077D01*
X1494Y1077D01*
X1494Y1073D01*
X1496Y1073D01*
X1496Y1071D01*
X1572Y1071D01*
X1572Y1091D01*
X1570Y1091D01*
X1570Y1093D01*
X1568Y1093D01*
X1568Y1095D01*
X1566Y1095D01*
X1566Y1097D01*
X1564Y1097D01*
X1564Y1099D01*
X1562Y1099D01*
X1562Y1103D01*
X1560Y1103D01*
X1560Y1107D01*
X1558Y1107D01*
X1558Y1111D01*
X1556Y1111D01*
X1556Y1129D01*
X1552Y1129D01*
X1552Y1131D01*
X1550Y1131D01*
X1550Y1133D01*
X1548Y1133D01*
X1548Y1135D01*
X1546Y1135D01*
X1546Y1139D01*
X1544Y1139D01*
X1544Y1141D01*
X1524Y1141D01*
G37*
D02*
G36*
X2072Y1139D02*
X2072Y1135D01*
X2070Y1135D01*
X2070Y1133D01*
X2068Y1133D01*
X2068Y1129D01*
X2066Y1129D01*
X2066Y1127D01*
X2064Y1127D01*
X2064Y1123D01*
X2062Y1123D01*
X2062Y1121D01*
X2060Y1121D01*
X2060Y1117D01*
X2058Y1117D01*
X2058Y1097D01*
X2144Y1097D01*
X2144Y1101D01*
X2146Y1101D01*
X2146Y1103D01*
X2148Y1103D01*
X2148Y1105D01*
X2150Y1105D01*
X2150Y1107D01*
X2154Y1107D01*
X2154Y1127D01*
X2152Y1127D01*
X2152Y1129D01*
X2150Y1129D01*
X2150Y1131D01*
X2148Y1131D01*
X2148Y1133D01*
X2146Y1133D01*
X2146Y1135D01*
X2144Y1135D01*
X2144Y1139D01*
X2072Y1139D01*
G37*
D02*
G36*
X2070Y1041D02*
X2070Y1039D01*
X2068Y1039D01*
X2068Y1037D01*
X2066Y1037D01*
X2066Y1035D01*
X2064Y1035D01*
X2064Y1033D01*
X2062Y1033D01*
X2062Y1031D01*
X2060Y1031D01*
X2060Y1029D01*
X2058Y1029D01*
X2058Y1007D01*
X2060Y1007D01*
X2060Y1005D01*
X2062Y1005D01*
X2062Y1003D01*
X2064Y1003D01*
X2064Y1001D01*
X2066Y1001D01*
X2066Y999D01*
X2068Y999D01*
X2068Y997D01*
X2070Y997D01*
X2070Y995D01*
X2142Y995D01*
X2142Y997D01*
X2144Y997D01*
X2144Y1001D01*
X2146Y1001D01*
X2146Y1003D01*
X2148Y1003D01*
X2148Y1005D01*
X2150Y1005D01*
X2150Y1007D01*
X2154Y1007D01*
X2154Y1027D01*
X2152Y1027D01*
X2152Y1029D01*
X2150Y1029D01*
X2150Y1031D01*
X2148Y1031D01*
X2148Y1033D01*
X2146Y1033D01*
X2146Y1035D01*
X2144Y1035D01*
X2144Y1039D01*
X2142Y1039D01*
X2142Y1041D01*
X2070Y1041D01*
G37*
D02*
G36*
X1346Y965D02*
X1346Y963D01*
X1344Y963D01*
X1344Y961D01*
X1342Y961D01*
X1342Y959D01*
X1340Y959D01*
X1340Y957D01*
X1338Y957D01*
X1338Y955D01*
X1336Y955D01*
X1336Y953D01*
X1334Y953D01*
X1334Y951D01*
X1332Y951D01*
X1332Y949D01*
X1330Y949D01*
X1330Y947D01*
X1328Y947D01*
X1328Y945D01*
X1326Y945D01*
X1326Y943D01*
X1324Y943D01*
X1324Y941D01*
X1322Y941D01*
X1322Y939D01*
X1320Y939D01*
X1320Y937D01*
X1318Y937D01*
X1318Y935D01*
X1316Y935D01*
X1316Y933D01*
X1314Y933D01*
X1314Y931D01*
X1312Y931D01*
X1312Y917D01*
X1396Y917D01*
X1396Y915D01*
X1402Y915D01*
X1402Y913D01*
X1406Y913D01*
X1406Y911D01*
X1410Y911D01*
X1410Y909D01*
X1412Y909D01*
X1412Y907D01*
X1416Y907D01*
X1416Y905D01*
X1418Y905D01*
X1418Y903D01*
X1420Y903D01*
X1420Y901D01*
X1422Y901D01*
X1422Y899D01*
X1424Y899D01*
X1424Y895D01*
X1444Y895D01*
X1444Y897D01*
X1446Y897D01*
X1446Y901D01*
X1448Y901D01*
X1448Y903D01*
X1450Y903D01*
X1450Y905D01*
X1452Y905D01*
X1452Y907D01*
X1456Y907D01*
X1456Y927D01*
X1458Y927D01*
X1458Y931D01*
X1460Y931D01*
X1460Y935D01*
X1462Y935D01*
X1462Y937D01*
X1464Y937D01*
X1464Y939D01*
X1466Y939D01*
X1466Y941D01*
X1468Y941D01*
X1468Y943D01*
X1470Y943D01*
X1470Y945D01*
X1472Y945D01*
X1472Y965D01*
X1346Y965D01*
G37*
D02*
G36*
X1312Y917D02*
X1312Y907D01*
X1316Y907D01*
X1316Y905D01*
X1318Y905D01*
X1318Y903D01*
X1320Y903D01*
X1320Y901D01*
X1322Y901D01*
X1322Y899D01*
X1324Y899D01*
X1324Y895D01*
X1344Y895D01*
X1344Y897D01*
X1346Y897D01*
X1346Y901D01*
X1348Y901D01*
X1348Y903D01*
X1350Y903D01*
X1350Y905D01*
X1352Y905D01*
X1352Y907D01*
X1356Y907D01*
X1356Y909D01*
X1358Y909D01*
X1358Y911D01*
X1362Y911D01*
X1362Y913D01*
X1366Y913D01*
X1366Y915D01*
X1374Y915D01*
X1374Y917D01*
X1312Y917D01*
G37*
D02*
G36*
X2058Y939D02*
X2058Y919D01*
X2060Y919D01*
X2060Y915D01*
X2062Y915D01*
X2062Y913D01*
X2064Y913D01*
X2064Y909D01*
X2066Y909D01*
X2066Y907D01*
X2068Y907D01*
X2068Y903D01*
X2070Y903D01*
X2070Y901D01*
X2072Y901D01*
X2072Y897D01*
X2144Y897D01*
X2144Y901D01*
X2146Y901D01*
X2146Y903D01*
X2148Y903D01*
X2148Y905D01*
X2150Y905D01*
X2150Y907D01*
X2154Y907D01*
X2154Y927D01*
X2152Y927D01*
X2152Y929D01*
X2150Y929D01*
X2150Y931D01*
X2148Y931D01*
X2148Y933D01*
X2146Y933D01*
X2146Y935D01*
X2144Y935D01*
X2144Y939D01*
X2058Y939D01*
G37*
D02*
G36*
X1924Y915D02*
X1924Y895D01*
X1926Y895D01*
X1926Y893D01*
X1928Y893D01*
X1928Y889D01*
X1930Y889D01*
X1930Y883D01*
X1932Y883D01*
X1932Y875D01*
X1934Y875D01*
X1934Y861D01*
X1932Y861D01*
X1932Y853D01*
X1930Y853D01*
X1930Y847D01*
X1928Y847D01*
X1928Y843D01*
X1926Y843D01*
X1926Y841D01*
X1924Y841D01*
X1924Y837D01*
X1922Y837D01*
X1922Y835D01*
X1920Y835D01*
X1920Y817D01*
X1996Y817D01*
X1996Y815D01*
X2002Y815D01*
X2002Y813D01*
X2006Y813D01*
X2006Y811D01*
X2010Y811D01*
X2010Y809D01*
X2014Y809D01*
X2014Y807D01*
X2016Y807D01*
X2016Y805D01*
X2018Y805D01*
X2018Y803D01*
X2148Y803D01*
X2148Y805D01*
X2150Y805D01*
X2150Y807D01*
X2154Y807D01*
X2154Y827D01*
X2152Y827D01*
X2152Y829D01*
X2150Y829D01*
X2150Y831D01*
X2148Y831D01*
X2148Y833D01*
X2146Y833D01*
X2146Y835D01*
X2144Y835D01*
X2144Y839D01*
X2142Y839D01*
X2142Y841D01*
X2050Y841D01*
X2050Y843D01*
X2046Y843D01*
X2046Y845D01*
X2042Y845D01*
X2042Y847D01*
X2040Y847D01*
X2040Y849D01*
X2038Y849D01*
X2038Y851D01*
X2036Y851D01*
X2036Y853D01*
X2034Y853D01*
X2034Y857D01*
X2032Y857D01*
X2032Y859D01*
X2030Y859D01*
X2030Y863D01*
X2028Y863D01*
X2028Y865D01*
X2026Y865D01*
X2026Y869D01*
X2024Y869D01*
X2024Y871D01*
X2022Y871D01*
X2022Y875D01*
X2020Y875D01*
X2020Y877D01*
X2018Y877D01*
X2018Y881D01*
X2016Y881D01*
X2016Y883D01*
X2014Y883D01*
X2014Y887D01*
X2012Y887D01*
X2012Y889D01*
X2010Y889D01*
X2010Y893D01*
X2008Y893D01*
X2008Y895D01*
X2006Y895D01*
X2006Y899D01*
X2004Y899D01*
X2004Y901D01*
X2002Y901D01*
X2002Y905D01*
X2000Y905D01*
X2000Y907D01*
X1998Y907D01*
X1998Y911D01*
X1996Y911D01*
X1996Y913D01*
X1994Y913D01*
X1994Y915D01*
X1924Y915D01*
G37*
D02*
G36*
X1920Y817D02*
X1920Y789D01*
X1940Y789D01*
X1940Y793D01*
X1942Y793D01*
X1942Y795D01*
X1944Y795D01*
X1944Y799D01*
X1946Y799D01*
X1946Y801D01*
X1948Y801D01*
X1948Y803D01*
X1950Y803D01*
X1950Y805D01*
X1952Y805D01*
X1952Y807D01*
X1956Y807D01*
X1956Y809D01*
X1958Y809D01*
X1958Y811D01*
X1962Y811D01*
X1962Y813D01*
X1966Y813D01*
X1966Y815D01*
X1972Y815D01*
X1972Y817D01*
X1920Y817D01*
G37*
D02*
G36*
X1424Y841D02*
X1424Y837D01*
X1422Y837D01*
X1422Y835D01*
X1420Y835D01*
X1420Y819D01*
X1472Y819D01*
X1472Y821D01*
X1466Y821D01*
X1466Y823D01*
X1462Y823D01*
X1462Y825D01*
X1458Y825D01*
X1458Y827D01*
X1456Y827D01*
X1456Y829D01*
X1452Y829D01*
X1452Y831D01*
X1450Y831D01*
X1450Y833D01*
X1448Y833D01*
X1448Y835D01*
X1446Y835D01*
X1446Y839D01*
X1444Y839D01*
X1444Y841D01*
X1424Y841D01*
G37*
D02*
G36*
X1524Y841D02*
X1524Y837D01*
X1522Y837D01*
X1522Y835D01*
X1520Y835D01*
X1520Y833D01*
X1518Y833D01*
X1518Y831D01*
X1516Y831D01*
X1516Y829D01*
X1514Y829D01*
X1514Y827D01*
X1510Y827D01*
X1510Y825D01*
X1506Y825D01*
X1506Y823D01*
X1502Y823D01*
X1502Y821D01*
X1496Y821D01*
X1496Y819D01*
X1548Y819D01*
X1548Y835D01*
X1546Y835D01*
X1546Y839D01*
X1544Y839D01*
X1544Y841D01*
X1524Y841D01*
G37*
D02*
G36*
X1420Y819D02*
X1420Y817D01*
X1548Y817D01*
X1548Y819D01*
X1420Y819D01*
G37*
D02*
G36*
X1420Y819D02*
X1420Y817D01*
X1548Y817D01*
X1548Y819D01*
X1420Y819D01*
G37*
D02*
G36*
X1420Y817D02*
X1420Y769D01*
X1422Y769D01*
X1422Y713D01*
X1420Y713D01*
X1420Y705D01*
X1418Y705D01*
X1418Y701D01*
X1416Y701D01*
X1416Y697D01*
X1414Y697D01*
X1414Y695D01*
X1412Y695D01*
X1412Y691D01*
X1410Y691D01*
X1410Y689D01*
X1408Y689D01*
X1408Y687D01*
X1406Y687D01*
X1406Y685D01*
X1404Y685D01*
X1404Y683D01*
X1402Y683D01*
X1402Y681D01*
X1400Y681D01*
X1400Y679D01*
X1398Y679D01*
X1398Y677D01*
X1396Y677D01*
X1396Y675D01*
X1394Y675D01*
X1394Y673D01*
X1392Y673D01*
X1392Y653D01*
X1518Y653D01*
X1518Y655D01*
X1520Y655D01*
X1520Y657D01*
X1522Y657D01*
X1522Y659D01*
X1524Y659D01*
X1524Y661D01*
X1526Y661D01*
X1526Y663D01*
X1528Y663D01*
X1528Y665D01*
X1530Y665D01*
X1530Y667D01*
X1532Y667D01*
X1532Y669D01*
X1534Y669D01*
X1534Y671D01*
X1536Y671D01*
X1536Y673D01*
X1538Y673D01*
X1538Y675D01*
X1540Y675D01*
X1540Y677D01*
X1542Y677D01*
X1542Y679D01*
X1544Y679D01*
X1544Y681D01*
X1546Y681D01*
X1546Y683D01*
X1548Y683D01*
X1548Y817D01*
X1420Y817D01*
G37*
D02*
G36*
X1624Y841D02*
X1624Y837D01*
X1622Y837D01*
X1622Y835D01*
X1620Y835D01*
X1620Y789D01*
X1640Y789D01*
X1640Y793D01*
X1642Y793D01*
X1642Y795D01*
X1644Y795D01*
X1644Y799D01*
X1646Y799D01*
X1646Y801D01*
X1648Y801D01*
X1648Y835D01*
X1646Y835D01*
X1646Y839D01*
X1644Y839D01*
X1644Y841D01*
X1624Y841D01*
G37*
D02*
G36*
X1724Y841D02*
X1724Y837D01*
X1722Y837D01*
X1722Y835D01*
X1720Y835D01*
X1720Y801D01*
X1722Y801D01*
X1722Y799D01*
X1724Y799D01*
X1724Y797D01*
X1726Y797D01*
X1726Y793D01*
X1728Y793D01*
X1728Y789D01*
X1748Y789D01*
X1748Y835D01*
X1746Y835D01*
X1746Y839D01*
X1744Y839D01*
X1744Y841D01*
X1724Y841D01*
G37*
D02*
G36*
X1824Y841D02*
X1824Y837D01*
X1822Y837D01*
X1822Y835D01*
X1820Y835D01*
X1820Y465D01*
X1818Y465D01*
X1818Y455D01*
X1816Y455D01*
X1816Y451D01*
X1814Y451D01*
X1814Y447D01*
X1812Y447D01*
X1812Y445D01*
X1810Y445D01*
X1810Y443D01*
X1808Y443D01*
X1808Y441D01*
X1806Y441D01*
X1806Y439D01*
X1804Y439D01*
X1804Y437D01*
X1802Y437D01*
X1802Y435D01*
X1800Y435D01*
X1800Y433D01*
X1798Y433D01*
X1798Y431D01*
X1796Y431D01*
X1796Y429D01*
X1794Y429D01*
X1794Y427D01*
X1792Y427D01*
X1792Y425D01*
X1790Y425D01*
X1790Y423D01*
X1788Y423D01*
X1788Y421D01*
X1786Y421D01*
X1786Y419D01*
X1784Y419D01*
X1784Y417D01*
X1782Y417D01*
X1782Y415D01*
X1780Y415D01*
X1780Y413D01*
X1778Y413D01*
X1778Y411D01*
X1776Y411D01*
X1776Y409D01*
X1774Y409D01*
X1774Y407D01*
X1772Y407D01*
X1772Y405D01*
X1770Y405D01*
X1770Y403D01*
X1768Y403D01*
X1768Y401D01*
X1766Y401D01*
X1766Y399D01*
X1764Y399D01*
X1764Y397D01*
X1762Y397D01*
X1762Y395D01*
X1760Y395D01*
X1760Y393D01*
X1758Y393D01*
X1758Y391D01*
X1756Y391D01*
X1756Y389D01*
X1754Y389D01*
X1754Y387D01*
X1752Y387D01*
X1752Y385D01*
X1748Y385D01*
X1748Y383D01*
X1742Y383D01*
X1742Y381D01*
X1062Y381D01*
X1062Y379D01*
X1058Y379D01*
X1058Y377D01*
X1054Y377D01*
X1054Y375D01*
X1050Y375D01*
X1050Y355D01*
X1820Y355D01*
X1820Y357D01*
X1822Y357D01*
X1822Y359D01*
X1824Y359D01*
X1824Y361D01*
X1826Y361D01*
X1826Y363D01*
X1828Y363D01*
X1828Y365D01*
X1830Y365D01*
X1830Y367D01*
X1832Y367D01*
X1832Y369D01*
X1834Y369D01*
X1834Y371D01*
X1836Y371D01*
X1836Y373D01*
X1838Y373D01*
X1838Y375D01*
X1840Y375D01*
X1840Y377D01*
X1842Y377D01*
X1842Y379D01*
X1844Y379D01*
X1844Y381D01*
X1846Y381D01*
X1846Y383D01*
X1848Y383D01*
X1848Y835D01*
X1846Y835D01*
X1846Y839D01*
X1844Y839D01*
X1844Y841D01*
X1824Y841D01*
G37*
D02*
G36*
X1064Y783D02*
X1064Y781D01*
X1062Y781D01*
X1062Y779D01*
X1058Y779D01*
X1058Y757D01*
X1062Y757D01*
X1062Y755D01*
X1064Y755D01*
X1064Y753D01*
X1066Y753D01*
X1066Y751D01*
X1068Y751D01*
X1068Y749D01*
X1070Y749D01*
X1070Y747D01*
X1072Y747D01*
X1072Y745D01*
X1074Y745D01*
X1074Y741D01*
X1076Y741D01*
X1076Y737D01*
X1078Y737D01*
X1078Y731D01*
X1080Y731D01*
X1080Y721D01*
X1082Y721D01*
X1082Y715D01*
X1080Y715D01*
X1080Y705D01*
X1078Y705D01*
X1078Y699D01*
X1076Y699D01*
X1076Y695D01*
X1074Y695D01*
X1074Y691D01*
X1072Y691D01*
X1072Y689D01*
X1070Y689D01*
X1070Y687D01*
X1068Y687D01*
X1068Y685D01*
X1066Y685D01*
X1066Y683D01*
X1064Y683D01*
X1064Y681D01*
X1062Y681D01*
X1062Y679D01*
X1058Y679D01*
X1058Y657D01*
X1062Y657D01*
X1062Y655D01*
X1064Y655D01*
X1064Y653D01*
X1230Y653D01*
X1230Y673D01*
X1228Y673D01*
X1228Y675D01*
X1226Y675D01*
X1226Y677D01*
X1224Y677D01*
X1224Y679D01*
X1222Y679D01*
X1222Y681D01*
X1220Y681D01*
X1220Y683D01*
X1218Y683D01*
X1218Y685D01*
X1216Y685D01*
X1216Y687D01*
X1214Y687D01*
X1214Y689D01*
X1212Y689D01*
X1212Y691D01*
X1210Y691D01*
X1210Y693D01*
X1208Y693D01*
X1208Y695D01*
X1206Y695D01*
X1206Y697D01*
X1204Y697D01*
X1204Y699D01*
X1202Y699D01*
X1202Y701D01*
X1200Y701D01*
X1200Y703D01*
X1198Y703D01*
X1198Y705D01*
X1196Y705D01*
X1196Y707D01*
X1194Y707D01*
X1194Y709D01*
X1192Y709D01*
X1192Y711D01*
X1190Y711D01*
X1190Y713D01*
X1188Y713D01*
X1188Y715D01*
X1186Y715D01*
X1186Y717D01*
X1184Y717D01*
X1184Y719D01*
X1182Y719D01*
X1182Y721D01*
X1180Y721D01*
X1180Y723D01*
X1178Y723D01*
X1178Y725D01*
X1176Y725D01*
X1176Y727D01*
X1174Y727D01*
X1174Y729D01*
X1172Y729D01*
X1172Y731D01*
X1170Y731D01*
X1170Y733D01*
X1168Y733D01*
X1168Y735D01*
X1166Y735D01*
X1166Y737D01*
X1164Y737D01*
X1164Y739D01*
X1162Y739D01*
X1162Y741D01*
X1160Y741D01*
X1160Y743D01*
X1158Y743D01*
X1158Y745D01*
X1156Y745D01*
X1156Y747D01*
X1154Y747D01*
X1154Y749D01*
X1152Y749D01*
X1152Y751D01*
X1150Y751D01*
X1150Y753D01*
X1148Y753D01*
X1148Y755D01*
X1146Y755D01*
X1146Y757D01*
X1144Y757D01*
X1144Y759D01*
X1142Y759D01*
X1142Y761D01*
X1140Y761D01*
X1140Y763D01*
X1138Y763D01*
X1138Y765D01*
X1136Y765D01*
X1136Y767D01*
X1134Y767D01*
X1134Y769D01*
X1132Y769D01*
X1132Y771D01*
X1130Y771D01*
X1130Y773D01*
X1128Y773D01*
X1128Y775D01*
X1126Y775D01*
X1126Y777D01*
X1124Y777D01*
X1124Y779D01*
X1122Y779D01*
X1122Y781D01*
X1120Y781D01*
X1120Y783D01*
X1064Y783D01*
G37*
D02*
G36*
X1620Y747D02*
X1620Y719D01*
X1672Y719D01*
X1672Y721D01*
X1666Y721D01*
X1666Y723D01*
X1662Y723D01*
X1662Y725D01*
X1658Y725D01*
X1658Y727D01*
X1654Y727D01*
X1654Y729D01*
X1652Y729D01*
X1652Y731D01*
X1650Y731D01*
X1650Y733D01*
X1648Y733D01*
X1648Y735D01*
X1646Y735D01*
X1646Y737D01*
X1644Y737D01*
X1644Y741D01*
X1642Y741D01*
X1642Y743D01*
X1640Y743D01*
X1640Y747D01*
X1620Y747D01*
G37*
D02*
G36*
X1728Y747D02*
X1728Y743D01*
X1726Y743D01*
X1726Y739D01*
X1724Y739D01*
X1724Y737D01*
X1722Y737D01*
X1722Y735D01*
X1720Y735D01*
X1720Y733D01*
X1718Y733D01*
X1718Y731D01*
X1716Y731D01*
X1716Y729D01*
X1714Y729D01*
X1714Y727D01*
X1710Y727D01*
X1710Y725D01*
X1706Y725D01*
X1706Y723D01*
X1702Y723D01*
X1702Y721D01*
X1696Y721D01*
X1696Y719D01*
X1748Y719D01*
X1748Y747D01*
X1728Y747D01*
G37*
D02*
G36*
X1620Y719D02*
X1620Y717D01*
X1748Y717D01*
X1748Y719D01*
X1620Y719D01*
G37*
D02*
G36*
X1620Y719D02*
X1620Y717D01*
X1748Y717D01*
X1748Y719D01*
X1620Y719D01*
G37*
D02*
G36*
X1620Y717D02*
X1620Y677D01*
X1618Y677D01*
X1618Y655D01*
X1616Y655D01*
X1616Y651D01*
X1614Y651D01*
X1614Y647D01*
X1612Y647D01*
X1612Y645D01*
X1610Y645D01*
X1610Y643D01*
X1608Y643D01*
X1608Y641D01*
X1606Y641D01*
X1606Y639D01*
X1604Y639D01*
X1604Y637D01*
X1602Y637D01*
X1602Y635D01*
X1600Y635D01*
X1600Y633D01*
X1598Y633D01*
X1598Y631D01*
X1596Y631D01*
X1596Y629D01*
X1594Y629D01*
X1594Y627D01*
X1592Y627D01*
X1592Y625D01*
X1590Y625D01*
X1590Y623D01*
X1588Y623D01*
X1588Y621D01*
X1586Y621D01*
X1586Y619D01*
X1584Y619D01*
X1584Y617D01*
X1582Y617D01*
X1582Y615D01*
X1580Y615D01*
X1580Y613D01*
X1578Y613D01*
X1578Y611D01*
X1576Y611D01*
X1576Y609D01*
X1574Y609D01*
X1574Y607D01*
X1572Y607D01*
X1572Y605D01*
X1570Y605D01*
X1570Y603D01*
X1568Y603D01*
X1568Y601D01*
X1566Y601D01*
X1566Y599D01*
X1564Y599D01*
X1564Y597D01*
X1562Y597D01*
X1562Y595D01*
X1560Y595D01*
X1560Y593D01*
X1558Y593D01*
X1558Y591D01*
X1556Y591D01*
X1556Y589D01*
X1554Y589D01*
X1554Y587D01*
X1550Y587D01*
X1550Y585D01*
X1546Y585D01*
X1546Y583D01*
X1540Y583D01*
X1540Y581D01*
X1062Y581D01*
X1062Y579D01*
X1058Y579D01*
X1058Y557D01*
X1062Y557D01*
X1062Y555D01*
X1064Y555D01*
X1064Y553D01*
X1066Y553D01*
X1066Y551D01*
X1068Y551D01*
X1068Y549D01*
X1070Y549D01*
X1070Y547D01*
X1072Y547D01*
X1072Y545D01*
X1074Y545D01*
X1074Y541D01*
X1076Y541D01*
X1076Y537D01*
X1078Y537D01*
X1078Y531D01*
X1080Y531D01*
X1080Y521D01*
X1082Y521D01*
X1082Y515D01*
X1080Y515D01*
X1080Y505D01*
X1078Y505D01*
X1078Y499D01*
X1076Y499D01*
X1076Y495D01*
X1074Y495D01*
X1074Y491D01*
X1072Y491D01*
X1072Y489D01*
X1070Y489D01*
X1070Y487D01*
X1068Y487D01*
X1068Y485D01*
X1066Y485D01*
X1066Y483D01*
X1064Y483D01*
X1064Y481D01*
X1062Y481D01*
X1062Y479D01*
X1058Y479D01*
X1058Y457D01*
X1062Y457D01*
X1062Y455D01*
X1064Y455D01*
X1064Y453D01*
X1720Y453D01*
X1720Y455D01*
X1722Y455D01*
X1722Y457D01*
X1724Y457D01*
X1724Y459D01*
X1726Y459D01*
X1726Y461D01*
X1728Y461D01*
X1728Y463D01*
X1730Y463D01*
X1730Y465D01*
X1732Y465D01*
X1732Y467D01*
X1734Y467D01*
X1734Y469D01*
X1736Y469D01*
X1736Y471D01*
X1738Y471D01*
X1738Y473D01*
X1740Y473D01*
X1740Y475D01*
X1742Y475D01*
X1742Y477D01*
X1744Y477D01*
X1744Y479D01*
X1746Y479D01*
X1746Y481D01*
X1748Y481D01*
X1748Y717D01*
X1620Y717D01*
G37*
D02*
G36*
X2016Y731D02*
X2016Y729D01*
X2014Y729D01*
X2014Y727D01*
X2010Y727D01*
X2010Y725D01*
X2006Y725D01*
X2006Y705D01*
X2150Y705D01*
X2150Y707D01*
X2154Y707D01*
X2154Y727D01*
X2152Y727D01*
X2152Y729D01*
X2150Y729D01*
X2150Y731D01*
X2016Y731D01*
G37*
D02*
G36*
X150Y1799D02*
X150Y1779D01*
X154Y1779D01*
X154Y1777D01*
X156Y1777D01*
X156Y1775D01*
X158Y1775D01*
X158Y1773D01*
X162Y1773D01*
X162Y1771D01*
X164Y1771D01*
X164Y1767D01*
X166Y1767D01*
X166Y1765D01*
X168Y1765D01*
X168Y1763D01*
X170Y1763D01*
X170Y1761D01*
X172Y1761D01*
X172Y1757D01*
X174Y1757D01*
X174Y1753D01*
X176Y1753D01*
X176Y1749D01*
X178Y1749D01*
X178Y1745D01*
X180Y1745D01*
X180Y1739D01*
X182Y1739D01*
X182Y1729D01*
X184Y1729D01*
X184Y1705D01*
X182Y1705D01*
X182Y1697D01*
X180Y1697D01*
X180Y1691D01*
X178Y1691D01*
X178Y1687D01*
X176Y1687D01*
X176Y1683D01*
X174Y1683D01*
X174Y1679D01*
X172Y1679D01*
X172Y1675D01*
X170Y1675D01*
X170Y1673D01*
X168Y1673D01*
X168Y1671D01*
X166Y1671D01*
X166Y1669D01*
X164Y1669D01*
X164Y1665D01*
X162Y1665D01*
X162Y1663D01*
X158Y1663D01*
X158Y1661D01*
X156Y1661D01*
X156Y1659D01*
X154Y1659D01*
X154Y1657D01*
X152Y1657D01*
X152Y1655D01*
X148Y1655D01*
X148Y1653D01*
X144Y1653D01*
X144Y1651D01*
X140Y1651D01*
X140Y1649D01*
X136Y1649D01*
X136Y1647D01*
X130Y1647D01*
X130Y1645D01*
X120Y1645D01*
X120Y1643D01*
X2222Y1643D01*
X2222Y1645D01*
X2214Y1645D01*
X2214Y1647D01*
X2208Y1647D01*
X2208Y1649D01*
X2204Y1649D01*
X2204Y1651D01*
X2198Y1651D01*
X2198Y1653D01*
X2196Y1653D01*
X2196Y1655D01*
X2192Y1655D01*
X2192Y1657D01*
X2190Y1657D01*
X2190Y1659D01*
X2186Y1659D01*
X2186Y1661D01*
X2184Y1661D01*
X2184Y1663D01*
X2182Y1663D01*
X2182Y1665D01*
X2180Y1665D01*
X2180Y1667D01*
X2178Y1667D01*
X2178Y1669D01*
X2176Y1669D01*
X2176Y1673D01*
X2174Y1673D01*
X2174Y1675D01*
X2172Y1675D01*
X2172Y1677D01*
X2170Y1677D01*
X2170Y1681D01*
X2168Y1681D01*
X2168Y1685D01*
X2166Y1685D01*
X2166Y1689D01*
X2164Y1689D01*
X2164Y1695D01*
X2162Y1695D01*
X2162Y1703D01*
X2160Y1703D01*
X2160Y1733D01*
X2162Y1733D01*
X2162Y1741D01*
X2164Y1741D01*
X2164Y1747D01*
X2166Y1747D01*
X2166Y1751D01*
X2168Y1751D01*
X2168Y1755D01*
X2170Y1755D01*
X2170Y1759D01*
X2172Y1759D01*
X2172Y1761D01*
X2174Y1761D01*
X2174Y1763D01*
X2176Y1763D01*
X2176Y1767D01*
X2178Y1767D01*
X2178Y1769D01*
X2180Y1769D01*
X2180Y1771D01*
X2182Y1771D01*
X2182Y1773D01*
X2184Y1773D01*
X2184Y1775D01*
X2186Y1775D01*
X2186Y1777D01*
X2190Y1777D01*
X2190Y1779D01*
X2192Y1779D01*
X2192Y1799D01*
X150Y1799D01*
G37*
D02*
G36*
X2298Y1681D02*
X2298Y1677D01*
X2296Y1677D01*
X2296Y1675D01*
X2294Y1675D01*
X2294Y1671D01*
X2292Y1671D01*
X2292Y1669D01*
X2290Y1669D01*
X2290Y1667D01*
X2288Y1667D01*
X2288Y1665D01*
X2286Y1665D01*
X2286Y1663D01*
X2284Y1663D01*
X2284Y1661D01*
X2282Y1661D01*
X2282Y1659D01*
X2278Y1659D01*
X2278Y1657D01*
X2276Y1657D01*
X2276Y1655D01*
X2272Y1655D01*
X2272Y1653D01*
X2270Y1653D01*
X2270Y1651D01*
X2266Y1651D01*
X2266Y1649D01*
X2260Y1649D01*
X2260Y1647D01*
X2254Y1647D01*
X2254Y1645D01*
X2246Y1645D01*
X2246Y1643D01*
X2318Y1643D01*
X2318Y1681D01*
X2298Y1681D01*
G37*
D02*
G36*
X40Y1663D02*
X40Y1643D01*
X98Y1643D01*
X98Y1645D01*
X88Y1645D01*
X88Y1647D01*
X82Y1647D01*
X82Y1649D01*
X78Y1649D01*
X78Y1651D01*
X74Y1651D01*
X74Y1653D01*
X70Y1653D01*
X70Y1655D01*
X68Y1655D01*
X68Y1657D01*
X64Y1657D01*
X64Y1659D01*
X62Y1659D01*
X62Y1661D01*
X60Y1661D01*
X60Y1663D01*
X40Y1663D01*
G37*
D02*
G36*
X40Y1643D02*
X40Y1641D01*
X2318Y1641D01*
X2318Y1643D01*
X40Y1643D01*
G37*
D02*
G36*
X40Y1643D02*
X40Y1641D01*
X2318Y1641D01*
X2318Y1643D01*
X40Y1643D01*
G37*
D02*
G36*
X40Y1643D02*
X40Y1641D01*
X2318Y1641D01*
X2318Y1643D01*
X40Y1643D01*
G37*
D02*
G36*
X40Y1641D02*
X40Y1579D01*
X148Y1579D01*
X148Y1577D01*
X154Y1577D01*
X154Y1575D01*
X160Y1575D01*
X160Y1573D01*
X164Y1573D01*
X164Y1571D01*
X166Y1571D01*
X166Y1569D01*
X170Y1569D01*
X170Y1567D01*
X696Y1567D01*
X696Y1565D01*
X1042Y1565D01*
X1042Y1563D01*
X1050Y1563D01*
X1050Y1561D01*
X1054Y1561D01*
X1054Y1559D01*
X1058Y1559D01*
X1058Y1557D01*
X1062Y1557D01*
X1062Y1555D01*
X1064Y1555D01*
X1064Y1553D01*
X1066Y1553D01*
X1066Y1551D01*
X1068Y1551D01*
X1068Y1549D01*
X1070Y1549D01*
X1070Y1547D01*
X1072Y1547D01*
X1072Y1545D01*
X1074Y1545D01*
X1074Y1541D01*
X1076Y1541D01*
X1076Y1537D01*
X1078Y1537D01*
X1078Y1531D01*
X1080Y1531D01*
X1080Y1521D01*
X1082Y1521D01*
X1082Y1515D01*
X1080Y1515D01*
X1080Y1505D01*
X1078Y1505D01*
X1078Y1499D01*
X1076Y1499D01*
X1076Y1495D01*
X1074Y1495D01*
X1074Y1491D01*
X1072Y1491D01*
X1072Y1489D01*
X1070Y1489D01*
X1070Y1487D01*
X1068Y1487D01*
X1068Y1485D01*
X1066Y1485D01*
X1066Y1483D01*
X1064Y1483D01*
X1064Y1481D01*
X1062Y1481D01*
X1062Y1479D01*
X1058Y1479D01*
X1058Y1457D01*
X1062Y1457D01*
X1062Y1455D01*
X1064Y1455D01*
X1064Y1453D01*
X1844Y1453D01*
X1844Y1451D01*
X1848Y1451D01*
X1848Y1449D01*
X1852Y1449D01*
X1852Y1447D01*
X1856Y1447D01*
X1856Y1445D01*
X1858Y1445D01*
X1858Y1443D01*
X1860Y1443D01*
X1860Y1441D01*
X1862Y1441D01*
X1862Y1439D01*
X1864Y1439D01*
X1864Y1437D01*
X1866Y1437D01*
X1866Y1435D01*
X1868Y1435D01*
X1868Y1433D01*
X1870Y1433D01*
X1870Y1431D01*
X1872Y1431D01*
X1872Y1429D01*
X1874Y1429D01*
X1874Y1427D01*
X1876Y1427D01*
X1876Y1425D01*
X1878Y1425D01*
X1878Y1423D01*
X1880Y1423D01*
X1880Y1421D01*
X1882Y1421D01*
X1882Y1419D01*
X1884Y1419D01*
X1884Y1417D01*
X1886Y1417D01*
X1886Y1415D01*
X1888Y1415D01*
X1888Y1413D01*
X1890Y1413D01*
X1890Y1411D01*
X1892Y1411D01*
X1892Y1409D01*
X1894Y1409D01*
X1894Y1407D01*
X1896Y1407D01*
X1896Y1405D01*
X1898Y1405D01*
X1898Y1403D01*
X1900Y1403D01*
X1900Y1401D01*
X1902Y1401D01*
X1902Y1399D01*
X1904Y1399D01*
X1904Y1397D01*
X1906Y1397D01*
X1906Y1395D01*
X1908Y1395D01*
X1908Y1393D01*
X1910Y1393D01*
X1910Y1391D01*
X1912Y1391D01*
X1912Y1387D01*
X1914Y1387D01*
X1914Y1385D01*
X1916Y1385D01*
X1916Y1379D01*
X1918Y1379D01*
X1918Y1369D01*
X1920Y1369D01*
X1920Y1319D01*
X2194Y1319D01*
X2194Y1317D01*
X2202Y1317D01*
X2202Y1315D01*
X2206Y1315D01*
X2206Y1313D01*
X2210Y1313D01*
X2210Y1311D01*
X2212Y1311D01*
X2212Y1309D01*
X2216Y1309D01*
X2216Y1307D01*
X2218Y1307D01*
X2218Y1305D01*
X2220Y1305D01*
X2220Y1303D01*
X2222Y1303D01*
X2222Y1301D01*
X2224Y1301D01*
X2224Y1299D01*
X2226Y1299D01*
X2226Y1295D01*
X2228Y1295D01*
X2228Y1291D01*
X2230Y1291D01*
X2230Y1287D01*
X2232Y1287D01*
X2232Y1283D01*
X2234Y1283D01*
X2234Y1271D01*
X2236Y1271D01*
X2236Y1265D01*
X2234Y1265D01*
X2234Y1253D01*
X2232Y1253D01*
X2232Y1247D01*
X2230Y1247D01*
X2230Y1245D01*
X2228Y1245D01*
X2228Y1241D01*
X2226Y1241D01*
X2226Y1237D01*
X2224Y1237D01*
X2224Y1235D01*
X2222Y1235D01*
X2222Y1233D01*
X2220Y1233D01*
X2220Y1231D01*
X2218Y1231D01*
X2218Y1229D01*
X2216Y1229D01*
X2216Y1207D01*
X2218Y1207D01*
X2218Y1205D01*
X2220Y1205D01*
X2220Y1203D01*
X2222Y1203D01*
X2222Y1201D01*
X2224Y1201D01*
X2224Y1199D01*
X2226Y1199D01*
X2226Y1195D01*
X2228Y1195D01*
X2228Y1191D01*
X2230Y1191D01*
X2230Y1187D01*
X2232Y1187D01*
X2232Y1183D01*
X2234Y1183D01*
X2234Y1171D01*
X2236Y1171D01*
X2236Y1165D01*
X2234Y1165D01*
X2234Y1153D01*
X2232Y1153D01*
X2232Y1147D01*
X2230Y1147D01*
X2230Y1145D01*
X2228Y1145D01*
X2228Y1141D01*
X2226Y1141D01*
X2226Y1137D01*
X2224Y1137D01*
X2224Y1135D01*
X2222Y1135D01*
X2222Y1133D01*
X2220Y1133D01*
X2220Y1131D01*
X2218Y1131D01*
X2218Y1129D01*
X2216Y1129D01*
X2216Y1107D01*
X2218Y1107D01*
X2218Y1105D01*
X2220Y1105D01*
X2220Y1103D01*
X2222Y1103D01*
X2222Y1101D01*
X2224Y1101D01*
X2224Y1099D01*
X2226Y1099D01*
X2226Y1095D01*
X2228Y1095D01*
X2228Y1091D01*
X2230Y1091D01*
X2230Y1087D01*
X2232Y1087D01*
X2232Y1083D01*
X2234Y1083D01*
X2234Y1071D01*
X2236Y1071D01*
X2236Y1065D01*
X2234Y1065D01*
X2234Y1053D01*
X2232Y1053D01*
X2232Y1047D01*
X2230Y1047D01*
X2230Y1045D01*
X2228Y1045D01*
X2228Y1041D01*
X2226Y1041D01*
X2226Y1037D01*
X2224Y1037D01*
X2224Y1035D01*
X2222Y1035D01*
X2222Y1033D01*
X2220Y1033D01*
X2220Y1031D01*
X2218Y1031D01*
X2218Y1029D01*
X2216Y1029D01*
X2216Y1007D01*
X2218Y1007D01*
X2218Y1005D01*
X2220Y1005D01*
X2220Y1003D01*
X2222Y1003D01*
X2222Y1001D01*
X2224Y1001D01*
X2224Y999D01*
X2226Y999D01*
X2226Y995D01*
X2228Y995D01*
X2228Y991D01*
X2230Y991D01*
X2230Y987D01*
X2232Y987D01*
X2232Y983D01*
X2234Y983D01*
X2234Y971D01*
X2236Y971D01*
X2236Y965D01*
X2234Y965D01*
X2234Y953D01*
X2232Y953D01*
X2232Y947D01*
X2230Y947D01*
X2230Y945D01*
X2228Y945D01*
X2228Y941D01*
X2226Y941D01*
X2226Y937D01*
X2224Y937D01*
X2224Y935D01*
X2222Y935D01*
X2222Y933D01*
X2220Y933D01*
X2220Y931D01*
X2218Y931D01*
X2218Y929D01*
X2216Y929D01*
X2216Y907D01*
X2218Y907D01*
X2218Y905D01*
X2220Y905D01*
X2220Y903D01*
X2222Y903D01*
X2222Y901D01*
X2224Y901D01*
X2224Y899D01*
X2226Y899D01*
X2226Y895D01*
X2228Y895D01*
X2228Y891D01*
X2230Y891D01*
X2230Y887D01*
X2232Y887D01*
X2232Y883D01*
X2234Y883D01*
X2234Y871D01*
X2236Y871D01*
X2236Y865D01*
X2234Y865D01*
X2234Y853D01*
X2232Y853D01*
X2232Y847D01*
X2230Y847D01*
X2230Y845D01*
X2228Y845D01*
X2228Y841D01*
X2226Y841D01*
X2226Y837D01*
X2224Y837D01*
X2224Y835D01*
X2222Y835D01*
X2222Y833D01*
X2220Y833D01*
X2220Y831D01*
X2218Y831D01*
X2218Y829D01*
X2216Y829D01*
X2216Y807D01*
X2218Y807D01*
X2218Y805D01*
X2220Y805D01*
X2220Y803D01*
X2222Y803D01*
X2222Y801D01*
X2224Y801D01*
X2224Y799D01*
X2226Y799D01*
X2226Y795D01*
X2228Y795D01*
X2228Y791D01*
X2230Y791D01*
X2230Y787D01*
X2232Y787D01*
X2232Y783D01*
X2234Y783D01*
X2234Y771D01*
X2236Y771D01*
X2236Y765D01*
X2234Y765D01*
X2234Y753D01*
X2232Y753D01*
X2232Y747D01*
X2230Y747D01*
X2230Y745D01*
X2228Y745D01*
X2228Y741D01*
X2226Y741D01*
X2226Y737D01*
X2224Y737D01*
X2224Y735D01*
X2222Y735D01*
X2222Y733D01*
X2220Y733D01*
X2220Y731D01*
X2218Y731D01*
X2218Y729D01*
X2216Y729D01*
X2216Y707D01*
X2218Y707D01*
X2218Y705D01*
X2220Y705D01*
X2220Y703D01*
X2222Y703D01*
X2222Y701D01*
X2224Y701D01*
X2224Y699D01*
X2226Y699D01*
X2226Y695D01*
X2228Y695D01*
X2228Y691D01*
X2230Y691D01*
X2230Y687D01*
X2232Y687D01*
X2232Y683D01*
X2234Y683D01*
X2234Y671D01*
X2236Y671D01*
X2236Y665D01*
X2234Y665D01*
X2234Y653D01*
X2232Y653D01*
X2232Y647D01*
X2230Y647D01*
X2230Y645D01*
X2228Y645D01*
X2228Y641D01*
X2226Y641D01*
X2226Y637D01*
X2224Y637D01*
X2224Y635D01*
X2222Y635D01*
X2222Y633D01*
X2220Y633D01*
X2220Y631D01*
X2218Y631D01*
X2218Y629D01*
X2216Y629D01*
X2216Y607D01*
X2218Y607D01*
X2218Y605D01*
X2220Y605D01*
X2220Y603D01*
X2222Y603D01*
X2222Y601D01*
X2224Y601D01*
X2224Y599D01*
X2226Y599D01*
X2226Y595D01*
X2228Y595D01*
X2228Y591D01*
X2230Y591D01*
X2230Y587D01*
X2232Y587D01*
X2232Y583D01*
X2234Y583D01*
X2234Y571D01*
X2236Y571D01*
X2236Y565D01*
X2234Y565D01*
X2234Y553D01*
X2232Y553D01*
X2232Y547D01*
X2230Y547D01*
X2230Y545D01*
X2228Y545D01*
X2228Y541D01*
X2226Y541D01*
X2226Y537D01*
X2224Y537D01*
X2224Y535D01*
X2222Y535D01*
X2222Y533D01*
X2220Y533D01*
X2220Y531D01*
X2218Y531D01*
X2218Y529D01*
X2216Y529D01*
X2216Y527D01*
X2212Y527D01*
X2212Y525D01*
X2210Y525D01*
X2210Y523D01*
X2206Y523D01*
X2206Y521D01*
X2202Y521D01*
X2202Y519D01*
X2194Y519D01*
X2194Y517D01*
X2318Y517D01*
X2318Y1641D01*
X40Y1641D01*
G37*
D02*
G36*
X40Y1579D02*
X40Y1457D01*
X120Y1457D01*
X120Y1459D01*
X114Y1459D01*
X114Y1461D01*
X108Y1461D01*
X108Y1463D01*
X104Y1463D01*
X104Y1465D01*
X102Y1465D01*
X102Y1467D01*
X98Y1467D01*
X98Y1469D01*
X96Y1469D01*
X96Y1471D01*
X94Y1471D01*
X94Y1473D01*
X92Y1473D01*
X92Y1475D01*
X90Y1475D01*
X90Y1477D01*
X88Y1477D01*
X88Y1479D01*
X86Y1479D01*
X86Y1481D01*
X84Y1481D01*
X84Y1483D01*
X82Y1483D01*
X82Y1487D01*
X80Y1487D01*
X80Y1491D01*
X78Y1491D01*
X78Y1495D01*
X76Y1495D01*
X76Y1501D01*
X74Y1501D01*
X74Y1511D01*
X72Y1511D01*
X72Y1525D01*
X74Y1525D01*
X74Y1535D01*
X76Y1535D01*
X76Y1541D01*
X78Y1541D01*
X78Y1545D01*
X80Y1545D01*
X80Y1549D01*
X82Y1549D01*
X82Y1551D01*
X84Y1551D01*
X84Y1555D01*
X86Y1555D01*
X86Y1557D01*
X88Y1557D01*
X88Y1559D01*
X90Y1559D01*
X90Y1561D01*
X92Y1561D01*
X92Y1563D01*
X94Y1563D01*
X94Y1565D01*
X96Y1565D01*
X96Y1567D01*
X98Y1567D01*
X98Y1569D01*
X102Y1569D01*
X102Y1571D01*
X104Y1571D01*
X104Y1573D01*
X108Y1573D01*
X108Y1575D01*
X114Y1575D01*
X114Y1577D01*
X122Y1577D01*
X122Y1579D01*
X40Y1579D01*
G37*
D02*
G36*
X172Y1567D02*
X172Y1565D01*
X174Y1565D01*
X174Y1563D01*
X178Y1563D01*
X178Y1559D01*
X180Y1559D01*
X180Y1557D01*
X182Y1557D01*
X182Y1555D01*
X184Y1555D01*
X184Y1553D01*
X250Y1553D01*
X250Y1555D01*
X252Y1555D01*
X252Y1557D01*
X256Y1557D01*
X256Y1559D01*
X258Y1559D01*
X258Y1561D01*
X262Y1561D01*
X262Y1563D01*
X266Y1563D01*
X266Y1565D01*
X274Y1565D01*
X274Y1567D01*
X172Y1567D01*
G37*
D02*
G36*
X296Y1567D02*
X296Y1565D01*
X302Y1565D01*
X302Y1563D01*
X306Y1563D01*
X306Y1561D01*
X310Y1561D01*
X310Y1559D01*
X312Y1559D01*
X312Y1557D01*
X316Y1557D01*
X316Y1555D01*
X318Y1555D01*
X318Y1553D01*
X320Y1553D01*
X320Y1551D01*
X322Y1551D01*
X322Y1549D01*
X324Y1549D01*
X324Y1545D01*
X326Y1545D01*
X326Y1543D01*
X328Y1543D01*
X328Y1539D01*
X330Y1539D01*
X330Y1535D01*
X332Y1535D01*
X332Y1533D01*
X336Y1533D01*
X336Y1531D01*
X340Y1531D01*
X340Y1529D01*
X344Y1529D01*
X344Y1527D01*
X348Y1527D01*
X348Y1525D01*
X352Y1525D01*
X352Y1523D01*
X356Y1523D01*
X356Y1521D01*
X360Y1521D01*
X360Y1519D01*
X364Y1519D01*
X364Y1517D01*
X368Y1517D01*
X368Y1515D01*
X372Y1515D01*
X372Y1513D01*
X376Y1513D01*
X376Y1511D01*
X380Y1511D01*
X380Y1509D01*
X384Y1509D01*
X384Y1507D01*
X388Y1507D01*
X388Y1505D01*
X392Y1505D01*
X392Y1503D01*
X396Y1503D01*
X396Y1501D01*
X400Y1501D01*
X400Y1499D01*
X404Y1499D01*
X404Y1497D01*
X408Y1497D01*
X408Y1495D01*
X412Y1495D01*
X412Y1493D01*
X416Y1493D01*
X416Y1491D01*
X420Y1491D01*
X420Y1489D01*
X424Y1489D01*
X424Y1487D01*
X428Y1487D01*
X428Y1485D01*
X432Y1485D01*
X432Y1483D01*
X436Y1483D01*
X436Y1481D01*
X440Y1481D01*
X440Y1479D01*
X444Y1479D01*
X444Y1477D01*
X448Y1477D01*
X448Y1475D01*
X452Y1475D01*
X452Y1473D01*
X456Y1473D01*
X456Y1471D01*
X460Y1471D01*
X460Y1469D01*
X464Y1469D01*
X464Y1467D01*
X496Y1467D01*
X496Y1465D01*
X502Y1465D01*
X502Y1463D01*
X506Y1463D01*
X506Y1461D01*
X510Y1461D01*
X510Y1459D01*
X512Y1459D01*
X512Y1457D01*
X516Y1457D01*
X516Y1455D01*
X518Y1455D01*
X518Y1453D01*
X520Y1453D01*
X520Y1451D01*
X522Y1451D01*
X522Y1449D01*
X524Y1449D01*
X524Y1445D01*
X526Y1445D01*
X526Y1443D01*
X528Y1443D01*
X528Y1439D01*
X530Y1439D01*
X530Y1433D01*
X532Y1433D01*
X532Y1425D01*
X534Y1425D01*
X534Y1411D01*
X532Y1411D01*
X532Y1403D01*
X530Y1403D01*
X530Y1397D01*
X528Y1397D01*
X528Y1393D01*
X526Y1393D01*
X526Y1391D01*
X524Y1391D01*
X524Y1387D01*
X522Y1387D01*
X522Y1385D01*
X520Y1385D01*
X520Y1383D01*
X518Y1383D01*
X518Y1381D01*
X516Y1381D01*
X516Y1379D01*
X514Y1379D01*
X514Y1377D01*
X510Y1377D01*
X510Y1375D01*
X506Y1375D01*
X506Y1373D01*
X502Y1373D01*
X502Y1371D01*
X496Y1371D01*
X496Y1369D01*
X648Y1369D01*
X648Y1485D01*
X646Y1485D01*
X646Y1489D01*
X644Y1489D01*
X644Y1491D01*
X642Y1491D01*
X642Y1495D01*
X640Y1495D01*
X640Y1497D01*
X638Y1497D01*
X638Y1503D01*
X636Y1503D01*
X636Y1513D01*
X634Y1513D01*
X634Y1523D01*
X636Y1523D01*
X636Y1533D01*
X638Y1533D01*
X638Y1539D01*
X640Y1539D01*
X640Y1541D01*
X642Y1541D01*
X642Y1545D01*
X644Y1545D01*
X644Y1547D01*
X646Y1547D01*
X646Y1551D01*
X648Y1551D01*
X648Y1553D01*
X650Y1553D01*
X650Y1555D01*
X652Y1555D01*
X652Y1557D01*
X656Y1557D01*
X656Y1559D01*
X658Y1559D01*
X658Y1561D01*
X662Y1561D01*
X662Y1563D01*
X666Y1563D01*
X666Y1565D01*
X674Y1565D01*
X674Y1567D01*
X296Y1567D01*
G37*
D02*
G36*
X702Y1565D02*
X702Y1563D01*
X706Y1563D01*
X706Y1561D01*
X710Y1561D01*
X710Y1559D01*
X712Y1559D01*
X712Y1557D01*
X716Y1557D01*
X716Y1555D01*
X718Y1555D01*
X718Y1553D01*
X720Y1553D01*
X720Y1551D01*
X722Y1551D01*
X722Y1549D01*
X724Y1549D01*
X724Y1545D01*
X726Y1545D01*
X726Y1543D01*
X728Y1543D01*
X728Y1539D01*
X730Y1539D01*
X730Y1533D01*
X732Y1533D01*
X732Y1525D01*
X734Y1525D01*
X734Y1511D01*
X732Y1511D01*
X732Y1503D01*
X730Y1503D01*
X730Y1497D01*
X728Y1497D01*
X728Y1493D01*
X726Y1493D01*
X726Y1491D01*
X724Y1491D01*
X724Y1487D01*
X722Y1487D01*
X722Y1485D01*
X720Y1485D01*
X720Y1467D01*
X896Y1467D01*
X896Y1465D01*
X902Y1465D01*
X902Y1463D01*
X906Y1463D01*
X906Y1461D01*
X910Y1461D01*
X910Y1459D01*
X912Y1459D01*
X912Y1457D01*
X916Y1457D01*
X916Y1455D01*
X918Y1455D01*
X918Y1453D01*
X1004Y1453D01*
X1004Y1455D01*
X1006Y1455D01*
X1006Y1457D01*
X1010Y1457D01*
X1010Y1479D01*
X1006Y1479D01*
X1006Y1481D01*
X1004Y1481D01*
X1004Y1483D01*
X1002Y1483D01*
X1002Y1485D01*
X1000Y1485D01*
X1000Y1487D01*
X998Y1487D01*
X998Y1489D01*
X996Y1489D01*
X996Y1493D01*
X994Y1493D01*
X994Y1495D01*
X992Y1495D01*
X992Y1499D01*
X990Y1499D01*
X990Y1505D01*
X988Y1505D01*
X988Y1531D01*
X990Y1531D01*
X990Y1537D01*
X992Y1537D01*
X992Y1541D01*
X994Y1541D01*
X994Y1543D01*
X996Y1543D01*
X996Y1547D01*
X998Y1547D01*
X998Y1549D01*
X1000Y1549D01*
X1000Y1551D01*
X1002Y1551D01*
X1002Y1553D01*
X1004Y1553D01*
X1004Y1555D01*
X1006Y1555D01*
X1006Y1557D01*
X1010Y1557D01*
X1010Y1559D01*
X1014Y1559D01*
X1014Y1561D01*
X1018Y1561D01*
X1018Y1563D01*
X1026Y1563D01*
X1026Y1565D01*
X702Y1565D01*
G37*
D02*
G36*
X182Y1481D02*
X182Y1479D01*
X180Y1479D01*
X180Y1475D01*
X178Y1475D01*
X178Y1473D01*
X174Y1473D01*
X174Y1471D01*
X172Y1471D01*
X172Y1469D01*
X170Y1469D01*
X170Y1467D01*
X166Y1467D01*
X166Y1465D01*
X164Y1465D01*
X164Y1463D01*
X160Y1463D01*
X160Y1461D01*
X154Y1461D01*
X154Y1459D01*
X148Y1459D01*
X148Y1457D01*
X324Y1457D01*
X324Y1459D01*
X320Y1459D01*
X320Y1461D01*
X316Y1461D01*
X316Y1463D01*
X312Y1463D01*
X312Y1465D01*
X308Y1465D01*
X308Y1467D01*
X304Y1467D01*
X304Y1469D01*
X272Y1469D01*
X272Y1471D01*
X266Y1471D01*
X266Y1473D01*
X262Y1473D01*
X262Y1475D01*
X258Y1475D01*
X258Y1477D01*
X256Y1477D01*
X256Y1479D01*
X252Y1479D01*
X252Y1481D01*
X182Y1481D01*
G37*
D02*
G36*
X720Y1467D02*
X720Y1369D01*
X872Y1369D01*
X872Y1371D01*
X866Y1371D01*
X866Y1373D01*
X862Y1373D01*
X862Y1375D01*
X858Y1375D01*
X858Y1377D01*
X856Y1377D01*
X856Y1379D01*
X852Y1379D01*
X852Y1381D01*
X850Y1381D01*
X850Y1383D01*
X848Y1383D01*
X848Y1385D01*
X846Y1385D01*
X846Y1389D01*
X844Y1389D01*
X844Y1391D01*
X842Y1391D01*
X842Y1395D01*
X840Y1395D01*
X840Y1397D01*
X838Y1397D01*
X838Y1403D01*
X836Y1403D01*
X836Y1413D01*
X834Y1413D01*
X834Y1423D01*
X836Y1423D01*
X836Y1433D01*
X838Y1433D01*
X838Y1439D01*
X840Y1439D01*
X840Y1441D01*
X842Y1441D01*
X842Y1445D01*
X844Y1445D01*
X844Y1447D01*
X846Y1447D01*
X846Y1451D01*
X848Y1451D01*
X848Y1453D01*
X850Y1453D01*
X850Y1455D01*
X852Y1455D01*
X852Y1457D01*
X856Y1457D01*
X856Y1459D01*
X858Y1459D01*
X858Y1461D01*
X862Y1461D01*
X862Y1463D01*
X866Y1463D01*
X866Y1465D01*
X874Y1465D01*
X874Y1467D01*
X720Y1467D01*
G37*
D02*
G36*
X40Y1457D02*
X40Y1455D01*
X328Y1455D01*
X328Y1457D01*
X40Y1457D01*
G37*
D02*
G36*
X40Y1457D02*
X40Y1455D01*
X328Y1455D01*
X328Y1457D01*
X40Y1457D01*
G37*
D02*
G36*
X40Y1455D02*
X40Y1379D01*
X148Y1379D01*
X148Y1377D01*
X154Y1377D01*
X154Y1375D01*
X160Y1375D01*
X160Y1373D01*
X164Y1373D01*
X164Y1371D01*
X166Y1371D01*
X166Y1369D01*
X472Y1369D01*
X472Y1371D01*
X466Y1371D01*
X466Y1373D01*
X462Y1373D01*
X462Y1375D01*
X458Y1375D01*
X458Y1377D01*
X456Y1377D01*
X456Y1379D01*
X452Y1379D01*
X452Y1381D01*
X450Y1381D01*
X450Y1383D01*
X448Y1383D01*
X448Y1385D01*
X446Y1385D01*
X446Y1389D01*
X444Y1389D01*
X444Y1391D01*
X442Y1391D01*
X442Y1395D01*
X440Y1395D01*
X440Y1397D01*
X438Y1397D01*
X438Y1401D01*
X436Y1401D01*
X436Y1403D01*
X432Y1403D01*
X432Y1405D01*
X428Y1405D01*
X428Y1407D01*
X424Y1407D01*
X424Y1409D01*
X420Y1409D01*
X420Y1411D01*
X416Y1411D01*
X416Y1413D01*
X412Y1413D01*
X412Y1415D01*
X408Y1415D01*
X408Y1417D01*
X404Y1417D01*
X404Y1419D01*
X400Y1419D01*
X400Y1421D01*
X396Y1421D01*
X396Y1423D01*
X392Y1423D01*
X392Y1425D01*
X388Y1425D01*
X388Y1427D01*
X384Y1427D01*
X384Y1429D01*
X380Y1429D01*
X380Y1431D01*
X376Y1431D01*
X376Y1433D01*
X372Y1433D01*
X372Y1435D01*
X368Y1435D01*
X368Y1437D01*
X364Y1437D01*
X364Y1439D01*
X360Y1439D01*
X360Y1441D01*
X356Y1441D01*
X356Y1443D01*
X352Y1443D01*
X352Y1445D01*
X348Y1445D01*
X348Y1447D01*
X344Y1447D01*
X344Y1449D01*
X340Y1449D01*
X340Y1451D01*
X336Y1451D01*
X336Y1453D01*
X332Y1453D01*
X332Y1455D01*
X40Y1455D01*
G37*
D02*
G36*
X916Y1381D02*
X916Y1379D01*
X914Y1379D01*
X914Y1377D01*
X910Y1377D01*
X910Y1375D01*
X906Y1375D01*
X906Y1373D01*
X902Y1373D01*
X902Y1371D01*
X896Y1371D01*
X896Y1369D01*
X1010Y1369D01*
X1010Y1379D01*
X1006Y1379D01*
X1006Y1381D01*
X916Y1381D01*
G37*
D02*
G36*
X40Y1379D02*
X40Y1257D01*
X120Y1257D01*
X120Y1259D01*
X114Y1259D01*
X114Y1261D01*
X108Y1261D01*
X108Y1263D01*
X104Y1263D01*
X104Y1265D01*
X102Y1265D01*
X102Y1267D01*
X98Y1267D01*
X98Y1269D01*
X96Y1269D01*
X96Y1271D01*
X94Y1271D01*
X94Y1273D01*
X92Y1273D01*
X92Y1275D01*
X90Y1275D01*
X90Y1277D01*
X88Y1277D01*
X88Y1279D01*
X86Y1279D01*
X86Y1281D01*
X84Y1281D01*
X84Y1283D01*
X82Y1283D01*
X82Y1287D01*
X80Y1287D01*
X80Y1291D01*
X78Y1291D01*
X78Y1295D01*
X76Y1295D01*
X76Y1301D01*
X74Y1301D01*
X74Y1311D01*
X72Y1311D01*
X72Y1325D01*
X74Y1325D01*
X74Y1335D01*
X76Y1335D01*
X76Y1341D01*
X78Y1341D01*
X78Y1345D01*
X80Y1345D01*
X80Y1349D01*
X82Y1349D01*
X82Y1351D01*
X84Y1351D01*
X84Y1355D01*
X86Y1355D01*
X86Y1357D01*
X88Y1357D01*
X88Y1359D01*
X90Y1359D01*
X90Y1361D01*
X92Y1361D01*
X92Y1363D01*
X94Y1363D01*
X94Y1365D01*
X96Y1365D01*
X96Y1367D01*
X98Y1367D01*
X98Y1369D01*
X102Y1369D01*
X102Y1371D01*
X104Y1371D01*
X104Y1373D01*
X108Y1373D01*
X108Y1375D01*
X114Y1375D01*
X114Y1377D01*
X122Y1377D01*
X122Y1379D01*
X40Y1379D01*
G37*
D02*
G36*
X170Y1369D02*
X170Y1367D01*
X648Y1367D01*
X648Y1369D01*
X170Y1369D01*
G37*
D02*
G36*
X170Y1369D02*
X170Y1367D01*
X648Y1367D01*
X648Y1369D01*
X170Y1369D01*
G37*
D02*
G36*
X720Y1369D02*
X720Y1367D01*
X1010Y1367D01*
X1010Y1369D01*
X720Y1369D01*
G37*
D02*
G36*
X720Y1369D02*
X720Y1367D01*
X1010Y1367D01*
X1010Y1369D01*
X720Y1369D01*
G37*
D02*
G36*
X172Y1367D02*
X172Y1365D01*
X174Y1365D01*
X174Y1363D01*
X178Y1363D01*
X178Y1359D01*
X180Y1359D01*
X180Y1357D01*
X182Y1357D01*
X182Y1355D01*
X184Y1355D01*
X184Y1353D01*
X250Y1353D01*
X250Y1355D01*
X252Y1355D01*
X252Y1357D01*
X256Y1357D01*
X256Y1359D01*
X258Y1359D01*
X258Y1361D01*
X262Y1361D01*
X262Y1363D01*
X266Y1363D01*
X266Y1365D01*
X274Y1365D01*
X274Y1367D01*
X172Y1367D01*
G37*
D02*
G36*
X296Y1367D02*
X296Y1365D01*
X302Y1365D01*
X302Y1363D01*
X306Y1363D01*
X306Y1361D01*
X310Y1361D01*
X310Y1359D01*
X312Y1359D01*
X312Y1357D01*
X316Y1357D01*
X316Y1355D01*
X318Y1355D01*
X318Y1353D01*
X320Y1353D01*
X320Y1351D01*
X322Y1351D01*
X322Y1349D01*
X324Y1349D01*
X324Y1345D01*
X326Y1345D01*
X326Y1343D01*
X328Y1343D01*
X328Y1339D01*
X330Y1339D01*
X330Y1335D01*
X332Y1335D01*
X332Y1333D01*
X336Y1333D01*
X336Y1331D01*
X340Y1331D01*
X340Y1329D01*
X344Y1329D01*
X344Y1327D01*
X348Y1327D01*
X348Y1325D01*
X352Y1325D01*
X352Y1323D01*
X356Y1323D01*
X356Y1321D01*
X360Y1321D01*
X360Y1319D01*
X364Y1319D01*
X364Y1317D01*
X368Y1317D01*
X368Y1315D01*
X372Y1315D01*
X372Y1313D01*
X376Y1313D01*
X376Y1311D01*
X380Y1311D01*
X380Y1309D01*
X384Y1309D01*
X384Y1307D01*
X388Y1307D01*
X388Y1305D01*
X392Y1305D01*
X392Y1303D01*
X396Y1303D01*
X396Y1301D01*
X400Y1301D01*
X400Y1299D01*
X404Y1299D01*
X404Y1297D01*
X408Y1297D01*
X408Y1295D01*
X412Y1295D01*
X412Y1293D01*
X416Y1293D01*
X416Y1291D01*
X420Y1291D01*
X420Y1289D01*
X424Y1289D01*
X424Y1287D01*
X428Y1287D01*
X428Y1285D01*
X432Y1285D01*
X432Y1283D01*
X436Y1283D01*
X436Y1281D01*
X440Y1281D01*
X440Y1279D01*
X444Y1279D01*
X444Y1277D01*
X448Y1277D01*
X448Y1275D01*
X452Y1275D01*
X452Y1273D01*
X456Y1273D01*
X456Y1271D01*
X460Y1271D01*
X460Y1269D01*
X464Y1269D01*
X464Y1267D01*
X496Y1267D01*
X496Y1265D01*
X502Y1265D01*
X502Y1263D01*
X506Y1263D01*
X506Y1261D01*
X510Y1261D01*
X510Y1259D01*
X512Y1259D01*
X512Y1257D01*
X516Y1257D01*
X516Y1255D01*
X518Y1255D01*
X518Y1253D01*
X520Y1253D01*
X520Y1251D01*
X522Y1251D01*
X522Y1249D01*
X524Y1249D01*
X524Y1245D01*
X526Y1245D01*
X526Y1243D01*
X528Y1243D01*
X528Y1239D01*
X530Y1239D01*
X530Y1233D01*
X532Y1233D01*
X532Y1225D01*
X534Y1225D01*
X534Y1211D01*
X532Y1211D01*
X532Y1203D01*
X530Y1203D01*
X530Y1197D01*
X528Y1197D01*
X528Y1193D01*
X526Y1193D01*
X526Y1191D01*
X524Y1191D01*
X524Y1187D01*
X522Y1187D01*
X522Y1185D01*
X520Y1185D01*
X520Y1183D01*
X518Y1183D01*
X518Y1181D01*
X516Y1181D01*
X516Y1179D01*
X514Y1179D01*
X514Y1177D01*
X510Y1177D01*
X510Y1175D01*
X506Y1175D01*
X506Y1173D01*
X502Y1173D01*
X502Y1171D01*
X496Y1171D01*
X496Y1169D01*
X648Y1169D01*
X648Y1285D01*
X646Y1285D01*
X646Y1289D01*
X644Y1289D01*
X644Y1291D01*
X642Y1291D01*
X642Y1295D01*
X640Y1295D01*
X640Y1297D01*
X638Y1297D01*
X638Y1303D01*
X636Y1303D01*
X636Y1313D01*
X634Y1313D01*
X634Y1323D01*
X636Y1323D01*
X636Y1333D01*
X638Y1333D01*
X638Y1339D01*
X640Y1339D01*
X640Y1341D01*
X642Y1341D01*
X642Y1345D01*
X644Y1345D01*
X644Y1347D01*
X646Y1347D01*
X646Y1351D01*
X648Y1351D01*
X648Y1367D01*
X296Y1367D01*
G37*
D02*
G36*
X720Y1367D02*
X720Y1351D01*
X722Y1351D01*
X722Y1349D01*
X724Y1349D01*
X724Y1345D01*
X726Y1345D01*
X726Y1343D01*
X728Y1343D01*
X728Y1339D01*
X730Y1339D01*
X730Y1333D01*
X732Y1333D01*
X732Y1325D01*
X734Y1325D01*
X734Y1311D01*
X732Y1311D01*
X732Y1303D01*
X730Y1303D01*
X730Y1297D01*
X728Y1297D01*
X728Y1293D01*
X726Y1293D01*
X726Y1291D01*
X724Y1291D01*
X724Y1287D01*
X722Y1287D01*
X722Y1285D01*
X720Y1285D01*
X720Y1267D01*
X896Y1267D01*
X896Y1265D01*
X902Y1265D01*
X902Y1263D01*
X906Y1263D01*
X906Y1261D01*
X910Y1261D01*
X910Y1259D01*
X912Y1259D01*
X912Y1257D01*
X916Y1257D01*
X916Y1255D01*
X918Y1255D01*
X918Y1253D01*
X1004Y1253D01*
X1004Y1255D01*
X1006Y1255D01*
X1006Y1257D01*
X1010Y1257D01*
X1010Y1279D01*
X1006Y1279D01*
X1006Y1281D01*
X1004Y1281D01*
X1004Y1283D01*
X1002Y1283D01*
X1002Y1285D01*
X1000Y1285D01*
X1000Y1287D01*
X998Y1287D01*
X998Y1289D01*
X996Y1289D01*
X996Y1293D01*
X994Y1293D01*
X994Y1295D01*
X992Y1295D01*
X992Y1299D01*
X990Y1299D01*
X990Y1305D01*
X988Y1305D01*
X988Y1331D01*
X990Y1331D01*
X990Y1337D01*
X992Y1337D01*
X992Y1341D01*
X994Y1341D01*
X994Y1343D01*
X996Y1343D01*
X996Y1347D01*
X998Y1347D01*
X998Y1349D01*
X1000Y1349D01*
X1000Y1351D01*
X1002Y1351D01*
X1002Y1353D01*
X1004Y1353D01*
X1004Y1355D01*
X1006Y1355D01*
X1006Y1357D01*
X1010Y1357D01*
X1010Y1367D01*
X720Y1367D01*
G37*
D02*
G36*
X1920Y1319D02*
X1920Y1317D01*
X1996Y1317D01*
X1996Y1315D01*
X2002Y1315D01*
X2002Y1313D01*
X2006Y1313D01*
X2006Y1311D01*
X2010Y1311D01*
X2010Y1309D01*
X2014Y1309D01*
X2014Y1307D01*
X2016Y1307D01*
X2016Y1305D01*
X2018Y1305D01*
X2018Y1303D01*
X2148Y1303D01*
X2148Y1305D01*
X2150Y1305D01*
X2150Y1307D01*
X2154Y1307D01*
X2154Y1309D01*
X2156Y1309D01*
X2156Y1311D01*
X2158Y1311D01*
X2158Y1313D01*
X2162Y1313D01*
X2162Y1315D01*
X2168Y1315D01*
X2168Y1317D01*
X2176Y1317D01*
X2176Y1319D01*
X1920Y1319D01*
G37*
D02*
G36*
X1920Y1317D02*
X1920Y1289D01*
X1940Y1289D01*
X1940Y1293D01*
X1942Y1293D01*
X1942Y1295D01*
X1944Y1295D01*
X1944Y1299D01*
X1946Y1299D01*
X1946Y1301D01*
X1948Y1301D01*
X1948Y1303D01*
X1950Y1303D01*
X1950Y1305D01*
X1952Y1305D01*
X1952Y1307D01*
X1956Y1307D01*
X1956Y1309D01*
X1958Y1309D01*
X1958Y1311D01*
X1962Y1311D01*
X1962Y1313D01*
X1966Y1313D01*
X1966Y1315D01*
X1972Y1315D01*
X1972Y1317D01*
X1920Y1317D01*
G37*
D02*
G36*
X182Y1281D02*
X182Y1279D01*
X180Y1279D01*
X180Y1275D01*
X178Y1275D01*
X178Y1273D01*
X174Y1273D01*
X174Y1271D01*
X172Y1271D01*
X172Y1269D01*
X170Y1269D01*
X170Y1267D01*
X166Y1267D01*
X166Y1265D01*
X164Y1265D01*
X164Y1263D01*
X160Y1263D01*
X160Y1261D01*
X154Y1261D01*
X154Y1259D01*
X148Y1259D01*
X148Y1257D01*
X324Y1257D01*
X324Y1259D01*
X320Y1259D01*
X320Y1261D01*
X316Y1261D01*
X316Y1263D01*
X312Y1263D01*
X312Y1265D01*
X308Y1265D01*
X308Y1267D01*
X304Y1267D01*
X304Y1269D01*
X272Y1269D01*
X272Y1271D01*
X266Y1271D01*
X266Y1273D01*
X262Y1273D01*
X262Y1275D01*
X258Y1275D01*
X258Y1277D01*
X256Y1277D01*
X256Y1279D01*
X252Y1279D01*
X252Y1281D01*
X182Y1281D01*
G37*
D02*
G36*
X720Y1267D02*
X720Y1169D01*
X872Y1169D01*
X872Y1171D01*
X866Y1171D01*
X866Y1173D01*
X862Y1173D01*
X862Y1175D01*
X858Y1175D01*
X858Y1177D01*
X856Y1177D01*
X856Y1179D01*
X852Y1179D01*
X852Y1181D01*
X850Y1181D01*
X850Y1183D01*
X848Y1183D01*
X848Y1185D01*
X846Y1185D01*
X846Y1189D01*
X844Y1189D01*
X844Y1191D01*
X842Y1191D01*
X842Y1195D01*
X840Y1195D01*
X840Y1197D01*
X838Y1197D01*
X838Y1203D01*
X836Y1203D01*
X836Y1213D01*
X834Y1213D01*
X834Y1223D01*
X836Y1223D01*
X836Y1233D01*
X838Y1233D01*
X838Y1239D01*
X840Y1239D01*
X840Y1241D01*
X842Y1241D01*
X842Y1245D01*
X844Y1245D01*
X844Y1247D01*
X846Y1247D01*
X846Y1251D01*
X848Y1251D01*
X848Y1253D01*
X850Y1253D01*
X850Y1255D01*
X852Y1255D01*
X852Y1257D01*
X856Y1257D01*
X856Y1259D01*
X858Y1259D01*
X858Y1261D01*
X862Y1261D01*
X862Y1263D01*
X866Y1263D01*
X866Y1265D01*
X874Y1265D01*
X874Y1267D01*
X720Y1267D01*
G37*
D02*
G36*
X40Y1257D02*
X40Y1255D01*
X328Y1255D01*
X328Y1257D01*
X40Y1257D01*
G37*
D02*
G36*
X40Y1257D02*
X40Y1255D01*
X328Y1255D01*
X328Y1257D01*
X40Y1257D01*
G37*
D02*
G36*
X40Y1255D02*
X40Y1179D01*
X148Y1179D01*
X148Y1177D01*
X154Y1177D01*
X154Y1175D01*
X160Y1175D01*
X160Y1173D01*
X164Y1173D01*
X164Y1171D01*
X166Y1171D01*
X166Y1169D01*
X472Y1169D01*
X472Y1171D01*
X466Y1171D01*
X466Y1173D01*
X462Y1173D01*
X462Y1175D01*
X458Y1175D01*
X458Y1177D01*
X456Y1177D01*
X456Y1179D01*
X452Y1179D01*
X452Y1181D01*
X450Y1181D01*
X450Y1183D01*
X448Y1183D01*
X448Y1185D01*
X446Y1185D01*
X446Y1189D01*
X444Y1189D01*
X444Y1191D01*
X442Y1191D01*
X442Y1195D01*
X440Y1195D01*
X440Y1197D01*
X438Y1197D01*
X438Y1201D01*
X436Y1201D01*
X436Y1203D01*
X432Y1203D01*
X432Y1205D01*
X428Y1205D01*
X428Y1207D01*
X424Y1207D01*
X424Y1209D01*
X420Y1209D01*
X420Y1211D01*
X416Y1211D01*
X416Y1213D01*
X412Y1213D01*
X412Y1215D01*
X408Y1215D01*
X408Y1217D01*
X404Y1217D01*
X404Y1219D01*
X400Y1219D01*
X400Y1221D01*
X396Y1221D01*
X396Y1223D01*
X392Y1223D01*
X392Y1225D01*
X388Y1225D01*
X388Y1227D01*
X384Y1227D01*
X384Y1229D01*
X380Y1229D01*
X380Y1231D01*
X376Y1231D01*
X376Y1233D01*
X372Y1233D01*
X372Y1235D01*
X368Y1235D01*
X368Y1237D01*
X364Y1237D01*
X364Y1239D01*
X360Y1239D01*
X360Y1241D01*
X356Y1241D01*
X356Y1243D01*
X352Y1243D01*
X352Y1245D01*
X348Y1245D01*
X348Y1247D01*
X344Y1247D01*
X344Y1249D01*
X340Y1249D01*
X340Y1251D01*
X336Y1251D01*
X336Y1253D01*
X332Y1253D01*
X332Y1255D01*
X40Y1255D01*
G37*
D02*
G36*
X916Y1181D02*
X916Y1179D01*
X914Y1179D01*
X914Y1177D01*
X910Y1177D01*
X910Y1175D01*
X906Y1175D01*
X906Y1173D01*
X902Y1173D01*
X902Y1171D01*
X896Y1171D01*
X896Y1169D01*
X1010Y1169D01*
X1010Y1179D01*
X1006Y1179D01*
X1006Y1181D01*
X916Y1181D01*
G37*
D02*
G36*
X40Y1179D02*
X40Y1057D01*
X120Y1057D01*
X120Y1059D01*
X114Y1059D01*
X114Y1061D01*
X108Y1061D01*
X108Y1063D01*
X104Y1063D01*
X104Y1065D01*
X102Y1065D01*
X102Y1067D01*
X98Y1067D01*
X98Y1069D01*
X96Y1069D01*
X96Y1071D01*
X94Y1071D01*
X94Y1073D01*
X92Y1073D01*
X92Y1075D01*
X90Y1075D01*
X90Y1077D01*
X88Y1077D01*
X88Y1079D01*
X86Y1079D01*
X86Y1081D01*
X84Y1081D01*
X84Y1083D01*
X82Y1083D01*
X82Y1087D01*
X80Y1087D01*
X80Y1091D01*
X78Y1091D01*
X78Y1095D01*
X76Y1095D01*
X76Y1101D01*
X74Y1101D01*
X74Y1111D01*
X72Y1111D01*
X72Y1125D01*
X74Y1125D01*
X74Y1135D01*
X76Y1135D01*
X76Y1141D01*
X78Y1141D01*
X78Y1145D01*
X80Y1145D01*
X80Y1149D01*
X82Y1149D01*
X82Y1151D01*
X84Y1151D01*
X84Y1155D01*
X86Y1155D01*
X86Y1157D01*
X88Y1157D01*
X88Y1159D01*
X90Y1159D01*
X90Y1161D01*
X92Y1161D01*
X92Y1163D01*
X94Y1163D01*
X94Y1165D01*
X96Y1165D01*
X96Y1167D01*
X98Y1167D01*
X98Y1169D01*
X102Y1169D01*
X102Y1171D01*
X104Y1171D01*
X104Y1173D01*
X108Y1173D01*
X108Y1175D01*
X114Y1175D01*
X114Y1177D01*
X122Y1177D01*
X122Y1179D01*
X40Y1179D01*
G37*
D02*
G36*
X170Y1169D02*
X170Y1167D01*
X648Y1167D01*
X648Y1169D01*
X170Y1169D01*
G37*
D02*
G36*
X170Y1169D02*
X170Y1167D01*
X648Y1167D01*
X648Y1169D01*
X170Y1169D01*
G37*
D02*
G36*
X720Y1169D02*
X720Y1167D01*
X1010Y1167D01*
X1010Y1169D01*
X720Y1169D01*
G37*
D02*
G36*
X720Y1169D02*
X720Y1167D01*
X1010Y1167D01*
X1010Y1169D01*
X720Y1169D01*
G37*
D02*
G36*
X172Y1167D02*
X172Y1165D01*
X174Y1165D01*
X174Y1163D01*
X178Y1163D01*
X178Y1159D01*
X180Y1159D01*
X180Y1157D01*
X182Y1157D01*
X182Y1155D01*
X184Y1155D01*
X184Y1153D01*
X250Y1153D01*
X250Y1155D01*
X252Y1155D01*
X252Y1157D01*
X256Y1157D01*
X256Y1159D01*
X258Y1159D01*
X258Y1161D01*
X262Y1161D01*
X262Y1163D01*
X266Y1163D01*
X266Y1165D01*
X274Y1165D01*
X274Y1167D01*
X172Y1167D01*
G37*
D02*
G36*
X296Y1167D02*
X296Y1165D01*
X302Y1165D01*
X302Y1163D01*
X306Y1163D01*
X306Y1161D01*
X310Y1161D01*
X310Y1159D01*
X312Y1159D01*
X312Y1157D01*
X316Y1157D01*
X316Y1155D01*
X318Y1155D01*
X318Y1153D01*
X320Y1153D01*
X320Y1151D01*
X322Y1151D01*
X322Y1149D01*
X324Y1149D01*
X324Y1145D01*
X326Y1145D01*
X326Y1143D01*
X328Y1143D01*
X328Y1139D01*
X330Y1139D01*
X330Y1135D01*
X332Y1135D01*
X332Y1133D01*
X336Y1133D01*
X336Y1131D01*
X340Y1131D01*
X340Y1129D01*
X344Y1129D01*
X344Y1127D01*
X348Y1127D01*
X348Y1125D01*
X352Y1125D01*
X352Y1123D01*
X356Y1123D01*
X356Y1121D01*
X360Y1121D01*
X360Y1119D01*
X364Y1119D01*
X364Y1117D01*
X368Y1117D01*
X368Y1115D01*
X372Y1115D01*
X372Y1113D01*
X376Y1113D01*
X376Y1111D01*
X380Y1111D01*
X380Y1109D01*
X384Y1109D01*
X384Y1107D01*
X388Y1107D01*
X388Y1105D01*
X392Y1105D01*
X392Y1103D01*
X396Y1103D01*
X396Y1101D01*
X400Y1101D01*
X400Y1099D01*
X404Y1099D01*
X404Y1097D01*
X408Y1097D01*
X408Y1095D01*
X412Y1095D01*
X412Y1093D01*
X416Y1093D01*
X416Y1091D01*
X420Y1091D01*
X420Y1089D01*
X424Y1089D01*
X424Y1087D01*
X428Y1087D01*
X428Y1085D01*
X432Y1085D01*
X432Y1083D01*
X436Y1083D01*
X436Y1081D01*
X440Y1081D01*
X440Y1079D01*
X444Y1079D01*
X444Y1077D01*
X448Y1077D01*
X448Y1075D01*
X452Y1075D01*
X452Y1073D01*
X456Y1073D01*
X456Y1071D01*
X460Y1071D01*
X460Y1069D01*
X464Y1069D01*
X464Y1067D01*
X496Y1067D01*
X496Y1065D01*
X502Y1065D01*
X502Y1063D01*
X506Y1063D01*
X506Y1061D01*
X510Y1061D01*
X510Y1059D01*
X512Y1059D01*
X512Y1057D01*
X516Y1057D01*
X516Y1055D01*
X518Y1055D01*
X518Y1053D01*
X520Y1053D01*
X520Y1051D01*
X522Y1051D01*
X522Y1049D01*
X524Y1049D01*
X524Y1045D01*
X526Y1045D01*
X526Y1043D01*
X528Y1043D01*
X528Y1039D01*
X530Y1039D01*
X530Y1033D01*
X532Y1033D01*
X532Y1025D01*
X534Y1025D01*
X534Y1011D01*
X532Y1011D01*
X532Y1003D01*
X530Y1003D01*
X530Y997D01*
X528Y997D01*
X528Y993D01*
X526Y993D01*
X526Y991D01*
X524Y991D01*
X524Y987D01*
X522Y987D01*
X522Y985D01*
X520Y985D01*
X520Y983D01*
X518Y983D01*
X518Y981D01*
X516Y981D01*
X516Y979D01*
X514Y979D01*
X514Y977D01*
X510Y977D01*
X510Y975D01*
X506Y975D01*
X506Y973D01*
X502Y973D01*
X502Y971D01*
X496Y971D01*
X496Y969D01*
X648Y969D01*
X648Y1085D01*
X646Y1085D01*
X646Y1089D01*
X644Y1089D01*
X644Y1091D01*
X642Y1091D01*
X642Y1095D01*
X640Y1095D01*
X640Y1097D01*
X638Y1097D01*
X638Y1103D01*
X636Y1103D01*
X636Y1113D01*
X634Y1113D01*
X634Y1123D01*
X636Y1123D01*
X636Y1133D01*
X638Y1133D01*
X638Y1139D01*
X640Y1139D01*
X640Y1141D01*
X642Y1141D01*
X642Y1145D01*
X644Y1145D01*
X644Y1147D01*
X646Y1147D01*
X646Y1151D01*
X648Y1151D01*
X648Y1167D01*
X296Y1167D01*
G37*
D02*
G36*
X720Y1167D02*
X720Y1151D01*
X722Y1151D01*
X722Y1149D01*
X724Y1149D01*
X724Y1145D01*
X726Y1145D01*
X726Y1143D01*
X728Y1143D01*
X728Y1139D01*
X730Y1139D01*
X730Y1133D01*
X732Y1133D01*
X732Y1125D01*
X734Y1125D01*
X734Y1111D01*
X732Y1111D01*
X732Y1103D01*
X730Y1103D01*
X730Y1097D01*
X728Y1097D01*
X728Y1093D01*
X726Y1093D01*
X726Y1091D01*
X724Y1091D01*
X724Y1087D01*
X722Y1087D01*
X722Y1085D01*
X720Y1085D01*
X720Y1067D01*
X896Y1067D01*
X896Y1065D01*
X902Y1065D01*
X902Y1063D01*
X906Y1063D01*
X906Y1061D01*
X910Y1061D01*
X910Y1059D01*
X912Y1059D01*
X912Y1057D01*
X916Y1057D01*
X916Y1055D01*
X918Y1055D01*
X918Y1053D01*
X1004Y1053D01*
X1004Y1055D01*
X1006Y1055D01*
X1006Y1057D01*
X1010Y1057D01*
X1010Y1079D01*
X1006Y1079D01*
X1006Y1081D01*
X1004Y1081D01*
X1004Y1083D01*
X1002Y1083D01*
X1002Y1085D01*
X1000Y1085D01*
X1000Y1087D01*
X998Y1087D01*
X998Y1089D01*
X996Y1089D01*
X996Y1093D01*
X994Y1093D01*
X994Y1095D01*
X992Y1095D01*
X992Y1099D01*
X990Y1099D01*
X990Y1105D01*
X988Y1105D01*
X988Y1131D01*
X990Y1131D01*
X990Y1137D01*
X992Y1137D01*
X992Y1141D01*
X994Y1141D01*
X994Y1143D01*
X996Y1143D01*
X996Y1147D01*
X998Y1147D01*
X998Y1149D01*
X1000Y1149D01*
X1000Y1151D01*
X1002Y1151D01*
X1002Y1153D01*
X1004Y1153D01*
X1004Y1155D01*
X1006Y1155D01*
X1006Y1157D01*
X1010Y1157D01*
X1010Y1167D01*
X720Y1167D01*
G37*
D02*
G36*
X182Y1081D02*
X182Y1079D01*
X180Y1079D01*
X180Y1075D01*
X178Y1075D01*
X178Y1073D01*
X174Y1073D01*
X174Y1071D01*
X172Y1071D01*
X172Y1069D01*
X170Y1069D01*
X170Y1067D01*
X166Y1067D01*
X166Y1065D01*
X164Y1065D01*
X164Y1063D01*
X160Y1063D01*
X160Y1061D01*
X154Y1061D01*
X154Y1059D01*
X148Y1059D01*
X148Y1057D01*
X324Y1057D01*
X324Y1059D01*
X320Y1059D01*
X320Y1061D01*
X316Y1061D01*
X316Y1063D01*
X312Y1063D01*
X312Y1065D01*
X308Y1065D01*
X308Y1067D01*
X304Y1067D01*
X304Y1069D01*
X272Y1069D01*
X272Y1071D01*
X266Y1071D01*
X266Y1073D01*
X262Y1073D01*
X262Y1075D01*
X258Y1075D01*
X258Y1077D01*
X256Y1077D01*
X256Y1079D01*
X252Y1079D01*
X252Y1081D01*
X182Y1081D01*
G37*
D02*
G36*
X720Y1067D02*
X720Y969D01*
X872Y969D01*
X872Y971D01*
X866Y971D01*
X866Y973D01*
X862Y973D01*
X862Y975D01*
X858Y975D01*
X858Y977D01*
X856Y977D01*
X856Y979D01*
X852Y979D01*
X852Y981D01*
X850Y981D01*
X850Y983D01*
X848Y983D01*
X848Y985D01*
X846Y985D01*
X846Y989D01*
X844Y989D01*
X844Y991D01*
X842Y991D01*
X842Y995D01*
X840Y995D01*
X840Y997D01*
X838Y997D01*
X838Y1003D01*
X836Y1003D01*
X836Y1013D01*
X834Y1013D01*
X834Y1023D01*
X836Y1023D01*
X836Y1033D01*
X838Y1033D01*
X838Y1039D01*
X840Y1039D01*
X840Y1041D01*
X842Y1041D01*
X842Y1045D01*
X844Y1045D01*
X844Y1047D01*
X846Y1047D01*
X846Y1051D01*
X848Y1051D01*
X848Y1053D01*
X850Y1053D01*
X850Y1055D01*
X852Y1055D01*
X852Y1057D01*
X856Y1057D01*
X856Y1059D01*
X858Y1059D01*
X858Y1061D01*
X862Y1061D01*
X862Y1063D01*
X866Y1063D01*
X866Y1065D01*
X874Y1065D01*
X874Y1067D01*
X720Y1067D01*
G37*
D02*
G36*
X40Y1057D02*
X40Y1055D01*
X328Y1055D01*
X328Y1057D01*
X40Y1057D01*
G37*
D02*
G36*
X40Y1057D02*
X40Y1055D01*
X328Y1055D01*
X328Y1057D01*
X40Y1057D01*
G37*
D02*
G36*
X40Y1055D02*
X40Y979D01*
X148Y979D01*
X148Y977D01*
X154Y977D01*
X154Y975D01*
X160Y975D01*
X160Y973D01*
X164Y973D01*
X164Y971D01*
X166Y971D01*
X166Y969D01*
X472Y969D01*
X472Y971D01*
X466Y971D01*
X466Y973D01*
X462Y973D01*
X462Y975D01*
X458Y975D01*
X458Y977D01*
X456Y977D01*
X456Y979D01*
X452Y979D01*
X452Y981D01*
X450Y981D01*
X450Y983D01*
X448Y983D01*
X448Y985D01*
X446Y985D01*
X446Y989D01*
X444Y989D01*
X444Y991D01*
X442Y991D01*
X442Y995D01*
X440Y995D01*
X440Y997D01*
X438Y997D01*
X438Y1001D01*
X436Y1001D01*
X436Y1003D01*
X432Y1003D01*
X432Y1005D01*
X428Y1005D01*
X428Y1007D01*
X424Y1007D01*
X424Y1009D01*
X420Y1009D01*
X420Y1011D01*
X416Y1011D01*
X416Y1013D01*
X412Y1013D01*
X412Y1015D01*
X408Y1015D01*
X408Y1017D01*
X404Y1017D01*
X404Y1019D01*
X400Y1019D01*
X400Y1021D01*
X396Y1021D01*
X396Y1023D01*
X392Y1023D01*
X392Y1025D01*
X388Y1025D01*
X388Y1027D01*
X384Y1027D01*
X384Y1029D01*
X380Y1029D01*
X380Y1031D01*
X376Y1031D01*
X376Y1033D01*
X372Y1033D01*
X372Y1035D01*
X368Y1035D01*
X368Y1037D01*
X364Y1037D01*
X364Y1039D01*
X360Y1039D01*
X360Y1041D01*
X356Y1041D01*
X356Y1043D01*
X352Y1043D01*
X352Y1045D01*
X348Y1045D01*
X348Y1047D01*
X344Y1047D01*
X344Y1049D01*
X340Y1049D01*
X340Y1051D01*
X336Y1051D01*
X336Y1053D01*
X332Y1053D01*
X332Y1055D01*
X40Y1055D01*
G37*
D02*
G36*
X916Y981D02*
X916Y979D01*
X914Y979D01*
X914Y977D01*
X910Y977D01*
X910Y975D01*
X906Y975D01*
X906Y973D01*
X902Y973D01*
X902Y971D01*
X896Y971D01*
X896Y969D01*
X1010Y969D01*
X1010Y979D01*
X1006Y979D01*
X1006Y981D01*
X916Y981D01*
G37*
D02*
G36*
X40Y979D02*
X40Y857D01*
X120Y857D01*
X120Y859D01*
X114Y859D01*
X114Y861D01*
X108Y861D01*
X108Y863D01*
X104Y863D01*
X104Y865D01*
X102Y865D01*
X102Y867D01*
X98Y867D01*
X98Y869D01*
X96Y869D01*
X96Y871D01*
X94Y871D01*
X94Y873D01*
X92Y873D01*
X92Y875D01*
X90Y875D01*
X90Y877D01*
X88Y877D01*
X88Y879D01*
X86Y879D01*
X86Y881D01*
X84Y881D01*
X84Y883D01*
X82Y883D01*
X82Y887D01*
X80Y887D01*
X80Y891D01*
X78Y891D01*
X78Y895D01*
X76Y895D01*
X76Y901D01*
X74Y901D01*
X74Y911D01*
X72Y911D01*
X72Y925D01*
X74Y925D01*
X74Y935D01*
X76Y935D01*
X76Y941D01*
X78Y941D01*
X78Y945D01*
X80Y945D01*
X80Y949D01*
X82Y949D01*
X82Y951D01*
X84Y951D01*
X84Y955D01*
X86Y955D01*
X86Y957D01*
X88Y957D01*
X88Y959D01*
X90Y959D01*
X90Y961D01*
X92Y961D01*
X92Y963D01*
X94Y963D01*
X94Y965D01*
X96Y965D01*
X96Y967D01*
X98Y967D01*
X98Y969D01*
X102Y969D01*
X102Y971D01*
X104Y971D01*
X104Y973D01*
X108Y973D01*
X108Y975D01*
X114Y975D01*
X114Y977D01*
X122Y977D01*
X122Y979D01*
X40Y979D01*
G37*
D02*
G36*
X170Y969D02*
X170Y967D01*
X648Y967D01*
X648Y969D01*
X170Y969D01*
G37*
D02*
G36*
X170Y969D02*
X170Y967D01*
X648Y967D01*
X648Y969D01*
X170Y969D01*
G37*
D02*
G36*
X720Y969D02*
X720Y967D01*
X1010Y967D01*
X1010Y969D01*
X720Y969D01*
G37*
D02*
G36*
X720Y969D02*
X720Y967D01*
X1010Y967D01*
X1010Y969D01*
X720Y969D01*
G37*
D02*
G36*
X172Y967D02*
X172Y965D01*
X174Y965D01*
X174Y963D01*
X178Y963D01*
X178Y959D01*
X180Y959D01*
X180Y957D01*
X182Y957D01*
X182Y955D01*
X184Y955D01*
X184Y953D01*
X250Y953D01*
X250Y955D01*
X252Y955D01*
X252Y957D01*
X256Y957D01*
X256Y959D01*
X258Y959D01*
X258Y961D01*
X262Y961D01*
X262Y963D01*
X266Y963D01*
X266Y965D01*
X274Y965D01*
X274Y967D01*
X172Y967D01*
G37*
D02*
G36*
X296Y967D02*
X296Y965D01*
X302Y965D01*
X302Y963D01*
X306Y963D01*
X306Y961D01*
X310Y961D01*
X310Y959D01*
X312Y959D01*
X312Y957D01*
X316Y957D01*
X316Y955D01*
X318Y955D01*
X318Y953D01*
X320Y953D01*
X320Y951D01*
X322Y951D01*
X322Y949D01*
X324Y949D01*
X324Y945D01*
X326Y945D01*
X326Y943D01*
X328Y943D01*
X328Y939D01*
X330Y939D01*
X330Y935D01*
X332Y935D01*
X332Y933D01*
X336Y933D01*
X336Y931D01*
X340Y931D01*
X340Y929D01*
X344Y929D01*
X344Y927D01*
X348Y927D01*
X348Y925D01*
X352Y925D01*
X352Y923D01*
X356Y923D01*
X356Y921D01*
X360Y921D01*
X360Y919D01*
X364Y919D01*
X364Y917D01*
X368Y917D01*
X368Y915D01*
X372Y915D01*
X372Y913D01*
X376Y913D01*
X376Y911D01*
X380Y911D01*
X380Y909D01*
X384Y909D01*
X384Y907D01*
X388Y907D01*
X388Y905D01*
X392Y905D01*
X392Y903D01*
X396Y903D01*
X396Y901D01*
X400Y901D01*
X400Y899D01*
X404Y899D01*
X404Y897D01*
X408Y897D01*
X408Y895D01*
X412Y895D01*
X412Y893D01*
X416Y893D01*
X416Y891D01*
X420Y891D01*
X420Y889D01*
X424Y889D01*
X424Y887D01*
X428Y887D01*
X428Y885D01*
X432Y885D01*
X432Y883D01*
X436Y883D01*
X436Y881D01*
X440Y881D01*
X440Y879D01*
X444Y879D01*
X444Y877D01*
X448Y877D01*
X448Y875D01*
X452Y875D01*
X452Y873D01*
X456Y873D01*
X456Y871D01*
X460Y871D01*
X460Y869D01*
X464Y869D01*
X464Y867D01*
X496Y867D01*
X496Y865D01*
X502Y865D01*
X502Y863D01*
X506Y863D01*
X506Y861D01*
X510Y861D01*
X510Y859D01*
X512Y859D01*
X512Y857D01*
X516Y857D01*
X516Y855D01*
X518Y855D01*
X518Y853D01*
X520Y853D01*
X520Y851D01*
X522Y851D01*
X522Y849D01*
X524Y849D01*
X524Y845D01*
X526Y845D01*
X526Y843D01*
X528Y843D01*
X528Y839D01*
X530Y839D01*
X530Y833D01*
X532Y833D01*
X532Y825D01*
X534Y825D01*
X534Y811D01*
X532Y811D01*
X532Y803D01*
X530Y803D01*
X530Y797D01*
X528Y797D01*
X528Y793D01*
X526Y793D01*
X526Y791D01*
X524Y791D01*
X524Y787D01*
X522Y787D01*
X522Y785D01*
X520Y785D01*
X520Y783D01*
X518Y783D01*
X518Y781D01*
X516Y781D01*
X516Y779D01*
X514Y779D01*
X514Y777D01*
X510Y777D01*
X510Y775D01*
X506Y775D01*
X506Y773D01*
X502Y773D01*
X502Y771D01*
X496Y771D01*
X496Y769D01*
X648Y769D01*
X648Y885D01*
X646Y885D01*
X646Y889D01*
X644Y889D01*
X644Y891D01*
X642Y891D01*
X642Y895D01*
X640Y895D01*
X640Y897D01*
X638Y897D01*
X638Y903D01*
X636Y903D01*
X636Y913D01*
X634Y913D01*
X634Y923D01*
X636Y923D01*
X636Y933D01*
X638Y933D01*
X638Y939D01*
X640Y939D01*
X640Y941D01*
X642Y941D01*
X642Y945D01*
X644Y945D01*
X644Y947D01*
X646Y947D01*
X646Y951D01*
X648Y951D01*
X648Y967D01*
X296Y967D01*
G37*
D02*
G36*
X720Y967D02*
X720Y951D01*
X722Y951D01*
X722Y949D01*
X724Y949D01*
X724Y945D01*
X726Y945D01*
X726Y943D01*
X728Y943D01*
X728Y939D01*
X730Y939D01*
X730Y933D01*
X732Y933D01*
X732Y925D01*
X734Y925D01*
X734Y911D01*
X732Y911D01*
X732Y903D01*
X730Y903D01*
X730Y897D01*
X728Y897D01*
X728Y893D01*
X726Y893D01*
X726Y891D01*
X724Y891D01*
X724Y887D01*
X722Y887D01*
X722Y885D01*
X720Y885D01*
X720Y867D01*
X896Y867D01*
X896Y865D01*
X902Y865D01*
X902Y863D01*
X906Y863D01*
X906Y861D01*
X910Y861D01*
X910Y859D01*
X912Y859D01*
X912Y857D01*
X916Y857D01*
X916Y855D01*
X918Y855D01*
X918Y853D01*
X1004Y853D01*
X1004Y855D01*
X1006Y855D01*
X1006Y857D01*
X1010Y857D01*
X1010Y879D01*
X1006Y879D01*
X1006Y881D01*
X1004Y881D01*
X1004Y883D01*
X1002Y883D01*
X1002Y885D01*
X1000Y885D01*
X1000Y887D01*
X998Y887D01*
X998Y889D01*
X996Y889D01*
X996Y893D01*
X994Y893D01*
X994Y895D01*
X992Y895D01*
X992Y899D01*
X990Y899D01*
X990Y905D01*
X988Y905D01*
X988Y931D01*
X990Y931D01*
X990Y937D01*
X992Y937D01*
X992Y941D01*
X994Y941D01*
X994Y943D01*
X996Y943D01*
X996Y947D01*
X998Y947D01*
X998Y949D01*
X1000Y949D01*
X1000Y951D01*
X1002Y951D01*
X1002Y953D01*
X1004Y953D01*
X1004Y955D01*
X1006Y955D01*
X1006Y957D01*
X1010Y957D01*
X1010Y967D01*
X720Y967D01*
G37*
D02*
G36*
X182Y881D02*
X182Y879D01*
X180Y879D01*
X180Y875D01*
X178Y875D01*
X178Y873D01*
X174Y873D01*
X174Y871D01*
X172Y871D01*
X172Y869D01*
X170Y869D01*
X170Y867D01*
X166Y867D01*
X166Y865D01*
X164Y865D01*
X164Y863D01*
X160Y863D01*
X160Y861D01*
X154Y861D01*
X154Y859D01*
X148Y859D01*
X148Y857D01*
X324Y857D01*
X324Y859D01*
X320Y859D01*
X320Y861D01*
X316Y861D01*
X316Y863D01*
X312Y863D01*
X312Y865D01*
X308Y865D01*
X308Y867D01*
X304Y867D01*
X304Y869D01*
X272Y869D01*
X272Y871D01*
X266Y871D01*
X266Y873D01*
X262Y873D01*
X262Y875D01*
X258Y875D01*
X258Y877D01*
X256Y877D01*
X256Y879D01*
X252Y879D01*
X252Y881D01*
X182Y881D01*
G37*
D02*
G36*
X720Y867D02*
X720Y769D01*
X872Y769D01*
X872Y771D01*
X866Y771D01*
X866Y773D01*
X862Y773D01*
X862Y775D01*
X858Y775D01*
X858Y777D01*
X856Y777D01*
X856Y779D01*
X852Y779D01*
X852Y781D01*
X850Y781D01*
X850Y783D01*
X848Y783D01*
X848Y785D01*
X846Y785D01*
X846Y789D01*
X844Y789D01*
X844Y791D01*
X842Y791D01*
X842Y795D01*
X840Y795D01*
X840Y797D01*
X838Y797D01*
X838Y803D01*
X836Y803D01*
X836Y813D01*
X834Y813D01*
X834Y823D01*
X836Y823D01*
X836Y833D01*
X838Y833D01*
X838Y839D01*
X840Y839D01*
X840Y841D01*
X842Y841D01*
X842Y845D01*
X844Y845D01*
X844Y847D01*
X846Y847D01*
X846Y851D01*
X848Y851D01*
X848Y853D01*
X850Y853D01*
X850Y855D01*
X852Y855D01*
X852Y857D01*
X856Y857D01*
X856Y859D01*
X858Y859D01*
X858Y861D01*
X862Y861D01*
X862Y863D01*
X866Y863D01*
X866Y865D01*
X874Y865D01*
X874Y867D01*
X720Y867D01*
G37*
D02*
G36*
X40Y857D02*
X40Y855D01*
X328Y855D01*
X328Y857D01*
X40Y857D01*
G37*
D02*
G36*
X40Y857D02*
X40Y855D01*
X328Y855D01*
X328Y857D01*
X40Y857D01*
G37*
D02*
G36*
X40Y855D02*
X40Y779D01*
X148Y779D01*
X148Y777D01*
X154Y777D01*
X154Y775D01*
X160Y775D01*
X160Y773D01*
X164Y773D01*
X164Y771D01*
X166Y771D01*
X166Y769D01*
X472Y769D01*
X472Y771D01*
X466Y771D01*
X466Y773D01*
X462Y773D01*
X462Y775D01*
X458Y775D01*
X458Y777D01*
X456Y777D01*
X456Y779D01*
X452Y779D01*
X452Y781D01*
X450Y781D01*
X450Y783D01*
X448Y783D01*
X448Y785D01*
X446Y785D01*
X446Y789D01*
X444Y789D01*
X444Y791D01*
X442Y791D01*
X442Y795D01*
X440Y795D01*
X440Y797D01*
X438Y797D01*
X438Y801D01*
X436Y801D01*
X436Y803D01*
X432Y803D01*
X432Y805D01*
X428Y805D01*
X428Y807D01*
X424Y807D01*
X424Y809D01*
X420Y809D01*
X420Y811D01*
X416Y811D01*
X416Y813D01*
X412Y813D01*
X412Y815D01*
X408Y815D01*
X408Y817D01*
X404Y817D01*
X404Y819D01*
X400Y819D01*
X400Y821D01*
X396Y821D01*
X396Y823D01*
X392Y823D01*
X392Y825D01*
X388Y825D01*
X388Y827D01*
X384Y827D01*
X384Y829D01*
X380Y829D01*
X380Y831D01*
X376Y831D01*
X376Y833D01*
X372Y833D01*
X372Y835D01*
X368Y835D01*
X368Y837D01*
X364Y837D01*
X364Y839D01*
X360Y839D01*
X360Y841D01*
X356Y841D01*
X356Y843D01*
X352Y843D01*
X352Y845D01*
X348Y845D01*
X348Y847D01*
X344Y847D01*
X344Y849D01*
X340Y849D01*
X340Y851D01*
X336Y851D01*
X336Y853D01*
X332Y853D01*
X332Y855D01*
X40Y855D01*
G37*
D02*
G36*
X916Y781D02*
X916Y779D01*
X914Y779D01*
X914Y777D01*
X910Y777D01*
X910Y775D01*
X906Y775D01*
X906Y773D01*
X902Y773D01*
X902Y771D01*
X896Y771D01*
X896Y769D01*
X1010Y769D01*
X1010Y779D01*
X1006Y779D01*
X1006Y781D01*
X916Y781D01*
G37*
D02*
G36*
X40Y779D02*
X40Y657D01*
X120Y657D01*
X120Y659D01*
X114Y659D01*
X114Y661D01*
X108Y661D01*
X108Y663D01*
X104Y663D01*
X104Y665D01*
X102Y665D01*
X102Y667D01*
X98Y667D01*
X98Y669D01*
X96Y669D01*
X96Y671D01*
X94Y671D01*
X94Y673D01*
X92Y673D01*
X92Y675D01*
X90Y675D01*
X90Y677D01*
X88Y677D01*
X88Y679D01*
X86Y679D01*
X86Y681D01*
X84Y681D01*
X84Y683D01*
X82Y683D01*
X82Y687D01*
X80Y687D01*
X80Y691D01*
X78Y691D01*
X78Y695D01*
X76Y695D01*
X76Y701D01*
X74Y701D01*
X74Y711D01*
X72Y711D01*
X72Y725D01*
X74Y725D01*
X74Y735D01*
X76Y735D01*
X76Y741D01*
X78Y741D01*
X78Y745D01*
X80Y745D01*
X80Y749D01*
X82Y749D01*
X82Y751D01*
X84Y751D01*
X84Y755D01*
X86Y755D01*
X86Y757D01*
X88Y757D01*
X88Y759D01*
X90Y759D01*
X90Y761D01*
X92Y761D01*
X92Y763D01*
X94Y763D01*
X94Y765D01*
X96Y765D01*
X96Y767D01*
X98Y767D01*
X98Y769D01*
X102Y769D01*
X102Y771D01*
X104Y771D01*
X104Y773D01*
X108Y773D01*
X108Y775D01*
X114Y775D01*
X114Y777D01*
X122Y777D01*
X122Y779D01*
X40Y779D01*
G37*
D02*
G36*
X170Y769D02*
X170Y767D01*
X648Y767D01*
X648Y769D01*
X170Y769D01*
G37*
D02*
G36*
X170Y769D02*
X170Y767D01*
X648Y767D01*
X648Y769D01*
X170Y769D01*
G37*
D02*
G36*
X720Y769D02*
X720Y767D01*
X1010Y767D01*
X1010Y769D01*
X720Y769D01*
G37*
D02*
G36*
X720Y769D02*
X720Y767D01*
X1010Y767D01*
X1010Y769D01*
X720Y769D01*
G37*
D02*
G36*
X172Y767D02*
X172Y765D01*
X174Y765D01*
X174Y763D01*
X178Y763D01*
X178Y759D01*
X180Y759D01*
X180Y757D01*
X182Y757D01*
X182Y755D01*
X184Y755D01*
X184Y753D01*
X250Y753D01*
X250Y755D01*
X252Y755D01*
X252Y757D01*
X256Y757D01*
X256Y759D01*
X258Y759D01*
X258Y761D01*
X262Y761D01*
X262Y763D01*
X266Y763D01*
X266Y765D01*
X274Y765D01*
X274Y767D01*
X172Y767D01*
G37*
D02*
G36*
X296Y767D02*
X296Y765D01*
X302Y765D01*
X302Y763D01*
X306Y763D01*
X306Y761D01*
X310Y761D01*
X310Y759D01*
X312Y759D01*
X312Y757D01*
X316Y757D01*
X316Y755D01*
X318Y755D01*
X318Y753D01*
X320Y753D01*
X320Y751D01*
X322Y751D01*
X322Y749D01*
X324Y749D01*
X324Y745D01*
X326Y745D01*
X326Y743D01*
X328Y743D01*
X328Y739D01*
X330Y739D01*
X330Y735D01*
X332Y735D01*
X332Y733D01*
X336Y733D01*
X336Y731D01*
X340Y731D01*
X340Y729D01*
X344Y729D01*
X344Y727D01*
X348Y727D01*
X348Y725D01*
X352Y725D01*
X352Y723D01*
X356Y723D01*
X356Y721D01*
X360Y721D01*
X360Y719D01*
X364Y719D01*
X364Y717D01*
X368Y717D01*
X368Y715D01*
X372Y715D01*
X372Y713D01*
X376Y713D01*
X376Y711D01*
X380Y711D01*
X380Y709D01*
X384Y709D01*
X384Y707D01*
X388Y707D01*
X388Y705D01*
X392Y705D01*
X392Y703D01*
X396Y703D01*
X396Y701D01*
X400Y701D01*
X400Y699D01*
X404Y699D01*
X404Y697D01*
X408Y697D01*
X408Y695D01*
X412Y695D01*
X412Y693D01*
X416Y693D01*
X416Y691D01*
X420Y691D01*
X420Y689D01*
X424Y689D01*
X424Y687D01*
X428Y687D01*
X428Y685D01*
X432Y685D01*
X432Y683D01*
X436Y683D01*
X436Y681D01*
X440Y681D01*
X440Y679D01*
X444Y679D01*
X444Y677D01*
X448Y677D01*
X448Y675D01*
X452Y675D01*
X452Y673D01*
X456Y673D01*
X456Y671D01*
X460Y671D01*
X460Y669D01*
X464Y669D01*
X464Y667D01*
X496Y667D01*
X496Y665D01*
X502Y665D01*
X502Y663D01*
X506Y663D01*
X506Y661D01*
X510Y661D01*
X510Y659D01*
X512Y659D01*
X512Y657D01*
X516Y657D01*
X516Y655D01*
X518Y655D01*
X518Y653D01*
X520Y653D01*
X520Y651D01*
X522Y651D01*
X522Y649D01*
X524Y649D01*
X524Y645D01*
X526Y645D01*
X526Y643D01*
X528Y643D01*
X528Y639D01*
X530Y639D01*
X530Y633D01*
X532Y633D01*
X532Y625D01*
X534Y625D01*
X534Y611D01*
X532Y611D01*
X532Y603D01*
X530Y603D01*
X530Y597D01*
X528Y597D01*
X528Y593D01*
X526Y593D01*
X526Y591D01*
X524Y591D01*
X524Y587D01*
X522Y587D01*
X522Y585D01*
X520Y585D01*
X520Y583D01*
X518Y583D01*
X518Y581D01*
X516Y581D01*
X516Y579D01*
X514Y579D01*
X514Y577D01*
X510Y577D01*
X510Y575D01*
X506Y575D01*
X506Y573D01*
X502Y573D01*
X502Y571D01*
X496Y571D01*
X496Y569D01*
X648Y569D01*
X648Y685D01*
X646Y685D01*
X646Y689D01*
X644Y689D01*
X644Y691D01*
X642Y691D01*
X642Y695D01*
X640Y695D01*
X640Y697D01*
X638Y697D01*
X638Y703D01*
X636Y703D01*
X636Y713D01*
X634Y713D01*
X634Y723D01*
X636Y723D01*
X636Y733D01*
X638Y733D01*
X638Y739D01*
X640Y739D01*
X640Y741D01*
X642Y741D01*
X642Y745D01*
X644Y745D01*
X644Y747D01*
X646Y747D01*
X646Y751D01*
X648Y751D01*
X648Y767D01*
X296Y767D01*
G37*
D02*
G36*
X720Y767D02*
X720Y751D01*
X722Y751D01*
X722Y749D01*
X724Y749D01*
X724Y745D01*
X726Y745D01*
X726Y743D01*
X728Y743D01*
X728Y739D01*
X730Y739D01*
X730Y733D01*
X732Y733D01*
X732Y725D01*
X734Y725D01*
X734Y711D01*
X732Y711D01*
X732Y703D01*
X730Y703D01*
X730Y697D01*
X728Y697D01*
X728Y693D01*
X726Y693D01*
X726Y691D01*
X724Y691D01*
X724Y687D01*
X722Y687D01*
X722Y685D01*
X720Y685D01*
X720Y667D01*
X896Y667D01*
X896Y665D01*
X902Y665D01*
X902Y663D01*
X906Y663D01*
X906Y661D01*
X910Y661D01*
X910Y659D01*
X912Y659D01*
X912Y657D01*
X916Y657D01*
X916Y655D01*
X918Y655D01*
X918Y653D01*
X1004Y653D01*
X1004Y655D01*
X1006Y655D01*
X1006Y657D01*
X1010Y657D01*
X1010Y679D01*
X1006Y679D01*
X1006Y681D01*
X1004Y681D01*
X1004Y683D01*
X1002Y683D01*
X1002Y685D01*
X1000Y685D01*
X1000Y687D01*
X998Y687D01*
X998Y689D01*
X996Y689D01*
X996Y693D01*
X994Y693D01*
X994Y695D01*
X992Y695D01*
X992Y699D01*
X990Y699D01*
X990Y705D01*
X988Y705D01*
X988Y731D01*
X990Y731D01*
X990Y737D01*
X992Y737D01*
X992Y741D01*
X994Y741D01*
X994Y743D01*
X996Y743D01*
X996Y747D01*
X998Y747D01*
X998Y749D01*
X1000Y749D01*
X1000Y751D01*
X1002Y751D01*
X1002Y753D01*
X1004Y753D01*
X1004Y755D01*
X1006Y755D01*
X1006Y757D01*
X1010Y757D01*
X1010Y767D01*
X720Y767D01*
G37*
D02*
G36*
X182Y681D02*
X182Y679D01*
X180Y679D01*
X180Y675D01*
X178Y675D01*
X178Y673D01*
X174Y673D01*
X174Y671D01*
X172Y671D01*
X172Y669D01*
X170Y669D01*
X170Y667D01*
X166Y667D01*
X166Y665D01*
X164Y665D01*
X164Y663D01*
X160Y663D01*
X160Y661D01*
X154Y661D01*
X154Y659D01*
X148Y659D01*
X148Y657D01*
X324Y657D01*
X324Y659D01*
X320Y659D01*
X320Y661D01*
X316Y661D01*
X316Y663D01*
X312Y663D01*
X312Y665D01*
X308Y665D01*
X308Y667D01*
X304Y667D01*
X304Y669D01*
X272Y669D01*
X272Y671D01*
X266Y671D01*
X266Y673D01*
X262Y673D01*
X262Y675D01*
X258Y675D01*
X258Y677D01*
X256Y677D01*
X256Y679D01*
X252Y679D01*
X252Y681D01*
X182Y681D01*
G37*
D02*
G36*
X720Y667D02*
X720Y569D01*
X872Y569D01*
X872Y571D01*
X866Y571D01*
X866Y573D01*
X862Y573D01*
X862Y575D01*
X858Y575D01*
X858Y577D01*
X856Y577D01*
X856Y579D01*
X852Y579D01*
X852Y581D01*
X850Y581D01*
X850Y583D01*
X848Y583D01*
X848Y585D01*
X846Y585D01*
X846Y589D01*
X844Y589D01*
X844Y591D01*
X842Y591D01*
X842Y595D01*
X840Y595D01*
X840Y597D01*
X838Y597D01*
X838Y603D01*
X836Y603D01*
X836Y613D01*
X834Y613D01*
X834Y623D01*
X836Y623D01*
X836Y633D01*
X838Y633D01*
X838Y639D01*
X840Y639D01*
X840Y641D01*
X842Y641D01*
X842Y645D01*
X844Y645D01*
X844Y647D01*
X846Y647D01*
X846Y651D01*
X848Y651D01*
X848Y653D01*
X850Y653D01*
X850Y655D01*
X852Y655D01*
X852Y657D01*
X856Y657D01*
X856Y659D01*
X858Y659D01*
X858Y661D01*
X862Y661D01*
X862Y663D01*
X866Y663D01*
X866Y665D01*
X874Y665D01*
X874Y667D01*
X720Y667D01*
G37*
D02*
G36*
X40Y657D02*
X40Y655D01*
X328Y655D01*
X328Y657D01*
X40Y657D01*
G37*
D02*
G36*
X40Y657D02*
X40Y655D01*
X328Y655D01*
X328Y657D01*
X40Y657D01*
G37*
D02*
G36*
X40Y655D02*
X40Y579D01*
X148Y579D01*
X148Y577D01*
X154Y577D01*
X154Y575D01*
X160Y575D01*
X160Y573D01*
X164Y573D01*
X164Y571D01*
X166Y571D01*
X166Y569D01*
X472Y569D01*
X472Y571D01*
X466Y571D01*
X466Y573D01*
X462Y573D01*
X462Y575D01*
X458Y575D01*
X458Y577D01*
X456Y577D01*
X456Y579D01*
X452Y579D01*
X452Y581D01*
X450Y581D01*
X450Y583D01*
X448Y583D01*
X448Y585D01*
X446Y585D01*
X446Y589D01*
X444Y589D01*
X444Y591D01*
X442Y591D01*
X442Y595D01*
X440Y595D01*
X440Y597D01*
X438Y597D01*
X438Y601D01*
X436Y601D01*
X436Y603D01*
X432Y603D01*
X432Y605D01*
X428Y605D01*
X428Y607D01*
X424Y607D01*
X424Y609D01*
X420Y609D01*
X420Y611D01*
X416Y611D01*
X416Y613D01*
X412Y613D01*
X412Y615D01*
X408Y615D01*
X408Y617D01*
X404Y617D01*
X404Y619D01*
X400Y619D01*
X400Y621D01*
X396Y621D01*
X396Y623D01*
X392Y623D01*
X392Y625D01*
X388Y625D01*
X388Y627D01*
X384Y627D01*
X384Y629D01*
X380Y629D01*
X380Y631D01*
X376Y631D01*
X376Y633D01*
X372Y633D01*
X372Y635D01*
X368Y635D01*
X368Y637D01*
X364Y637D01*
X364Y639D01*
X360Y639D01*
X360Y641D01*
X356Y641D01*
X356Y643D01*
X352Y643D01*
X352Y645D01*
X348Y645D01*
X348Y647D01*
X344Y647D01*
X344Y649D01*
X340Y649D01*
X340Y651D01*
X336Y651D01*
X336Y653D01*
X332Y653D01*
X332Y655D01*
X40Y655D01*
G37*
D02*
G36*
X1920Y633D02*
X1920Y517D01*
X2174Y517D01*
X2174Y519D01*
X2168Y519D01*
X2168Y521D01*
X2162Y521D01*
X2162Y523D01*
X2158Y523D01*
X2158Y525D01*
X2156Y525D01*
X2156Y527D01*
X2152Y527D01*
X2152Y529D01*
X2150Y529D01*
X2150Y531D01*
X2148Y531D01*
X2148Y533D01*
X2146Y533D01*
X2146Y535D01*
X2144Y535D01*
X2144Y539D01*
X2142Y539D01*
X2142Y541D01*
X2140Y541D01*
X2140Y545D01*
X2138Y545D01*
X2138Y549D01*
X2136Y549D01*
X2136Y555D01*
X2134Y555D01*
X2134Y581D01*
X2136Y581D01*
X2136Y587D01*
X2138Y587D01*
X2138Y591D01*
X2140Y591D01*
X2140Y595D01*
X2142Y595D01*
X2142Y597D01*
X2144Y597D01*
X2144Y601D01*
X2146Y601D01*
X2146Y603D01*
X2148Y603D01*
X2148Y605D01*
X2150Y605D01*
X2150Y607D01*
X2154Y607D01*
X2154Y627D01*
X2152Y627D01*
X2152Y629D01*
X2150Y629D01*
X2150Y631D01*
X2148Y631D01*
X2148Y633D01*
X1920Y633D01*
G37*
D02*
G36*
X916Y581D02*
X916Y579D01*
X914Y579D01*
X914Y577D01*
X910Y577D01*
X910Y575D01*
X906Y575D01*
X906Y573D01*
X902Y573D01*
X902Y571D01*
X896Y571D01*
X896Y569D01*
X1010Y569D01*
X1010Y579D01*
X1006Y579D01*
X1006Y581D01*
X916Y581D01*
G37*
D02*
G36*
X40Y579D02*
X40Y457D01*
X120Y457D01*
X120Y459D01*
X114Y459D01*
X114Y461D01*
X108Y461D01*
X108Y463D01*
X104Y463D01*
X104Y465D01*
X102Y465D01*
X102Y467D01*
X98Y467D01*
X98Y469D01*
X96Y469D01*
X96Y471D01*
X94Y471D01*
X94Y473D01*
X92Y473D01*
X92Y475D01*
X90Y475D01*
X90Y477D01*
X88Y477D01*
X88Y479D01*
X86Y479D01*
X86Y481D01*
X84Y481D01*
X84Y483D01*
X82Y483D01*
X82Y487D01*
X80Y487D01*
X80Y491D01*
X78Y491D01*
X78Y495D01*
X76Y495D01*
X76Y501D01*
X74Y501D01*
X74Y511D01*
X72Y511D01*
X72Y525D01*
X74Y525D01*
X74Y535D01*
X76Y535D01*
X76Y541D01*
X78Y541D01*
X78Y545D01*
X80Y545D01*
X80Y549D01*
X82Y549D01*
X82Y551D01*
X84Y551D01*
X84Y555D01*
X86Y555D01*
X86Y557D01*
X88Y557D01*
X88Y559D01*
X90Y559D01*
X90Y561D01*
X92Y561D01*
X92Y563D01*
X94Y563D01*
X94Y565D01*
X96Y565D01*
X96Y567D01*
X98Y567D01*
X98Y569D01*
X102Y569D01*
X102Y571D01*
X104Y571D01*
X104Y573D01*
X108Y573D01*
X108Y575D01*
X114Y575D01*
X114Y577D01*
X122Y577D01*
X122Y579D01*
X40Y579D01*
G37*
D02*
G36*
X170Y569D02*
X170Y567D01*
X648Y567D01*
X648Y569D01*
X170Y569D01*
G37*
D02*
G36*
X170Y569D02*
X170Y567D01*
X648Y567D01*
X648Y569D01*
X170Y569D01*
G37*
D02*
G36*
X720Y569D02*
X720Y567D01*
X1010Y567D01*
X1010Y569D01*
X720Y569D01*
G37*
D02*
G36*
X720Y569D02*
X720Y567D01*
X1010Y567D01*
X1010Y569D01*
X720Y569D01*
G37*
D02*
G36*
X172Y567D02*
X172Y565D01*
X174Y565D01*
X174Y563D01*
X178Y563D01*
X178Y559D01*
X180Y559D01*
X180Y557D01*
X182Y557D01*
X182Y555D01*
X184Y555D01*
X184Y553D01*
X250Y553D01*
X250Y555D01*
X252Y555D01*
X252Y557D01*
X256Y557D01*
X256Y559D01*
X258Y559D01*
X258Y561D01*
X262Y561D01*
X262Y563D01*
X266Y563D01*
X266Y565D01*
X274Y565D01*
X274Y567D01*
X172Y567D01*
G37*
D02*
G36*
X296Y567D02*
X296Y565D01*
X302Y565D01*
X302Y563D01*
X306Y563D01*
X306Y561D01*
X310Y561D01*
X310Y559D01*
X312Y559D01*
X312Y557D01*
X316Y557D01*
X316Y555D01*
X318Y555D01*
X318Y553D01*
X320Y553D01*
X320Y551D01*
X322Y551D01*
X322Y549D01*
X324Y549D01*
X324Y545D01*
X326Y545D01*
X326Y543D01*
X328Y543D01*
X328Y539D01*
X330Y539D01*
X330Y535D01*
X332Y535D01*
X332Y533D01*
X336Y533D01*
X336Y531D01*
X340Y531D01*
X340Y529D01*
X344Y529D01*
X344Y527D01*
X348Y527D01*
X348Y525D01*
X352Y525D01*
X352Y523D01*
X356Y523D01*
X356Y521D01*
X360Y521D01*
X360Y519D01*
X364Y519D01*
X364Y517D01*
X368Y517D01*
X368Y515D01*
X372Y515D01*
X372Y513D01*
X376Y513D01*
X376Y511D01*
X380Y511D01*
X380Y509D01*
X384Y509D01*
X384Y507D01*
X388Y507D01*
X388Y505D01*
X392Y505D01*
X392Y503D01*
X396Y503D01*
X396Y501D01*
X400Y501D01*
X400Y499D01*
X404Y499D01*
X404Y497D01*
X408Y497D01*
X408Y495D01*
X412Y495D01*
X412Y493D01*
X416Y493D01*
X416Y491D01*
X420Y491D01*
X420Y489D01*
X424Y489D01*
X424Y487D01*
X428Y487D01*
X428Y485D01*
X432Y485D01*
X432Y483D01*
X436Y483D01*
X436Y481D01*
X440Y481D01*
X440Y479D01*
X444Y479D01*
X444Y477D01*
X448Y477D01*
X448Y475D01*
X452Y475D01*
X452Y473D01*
X456Y473D01*
X456Y471D01*
X460Y471D01*
X460Y469D01*
X464Y469D01*
X464Y467D01*
X496Y467D01*
X496Y465D01*
X502Y465D01*
X502Y463D01*
X506Y463D01*
X506Y461D01*
X510Y461D01*
X510Y459D01*
X512Y459D01*
X512Y457D01*
X516Y457D01*
X516Y455D01*
X518Y455D01*
X518Y453D01*
X520Y453D01*
X520Y451D01*
X522Y451D01*
X522Y449D01*
X524Y449D01*
X524Y445D01*
X526Y445D01*
X526Y443D01*
X528Y443D01*
X528Y439D01*
X530Y439D01*
X530Y433D01*
X532Y433D01*
X532Y425D01*
X534Y425D01*
X534Y411D01*
X532Y411D01*
X532Y403D01*
X530Y403D01*
X530Y397D01*
X528Y397D01*
X528Y393D01*
X526Y393D01*
X526Y391D01*
X524Y391D01*
X524Y387D01*
X522Y387D01*
X522Y385D01*
X520Y385D01*
X520Y383D01*
X518Y383D01*
X518Y381D01*
X516Y381D01*
X516Y379D01*
X514Y379D01*
X514Y377D01*
X510Y377D01*
X510Y375D01*
X506Y375D01*
X506Y373D01*
X502Y373D01*
X502Y371D01*
X496Y371D01*
X496Y369D01*
X648Y369D01*
X648Y485D01*
X646Y485D01*
X646Y489D01*
X644Y489D01*
X644Y491D01*
X642Y491D01*
X642Y495D01*
X640Y495D01*
X640Y497D01*
X638Y497D01*
X638Y503D01*
X636Y503D01*
X636Y513D01*
X634Y513D01*
X634Y523D01*
X636Y523D01*
X636Y533D01*
X638Y533D01*
X638Y539D01*
X640Y539D01*
X640Y541D01*
X642Y541D01*
X642Y545D01*
X644Y545D01*
X644Y547D01*
X646Y547D01*
X646Y551D01*
X648Y551D01*
X648Y567D01*
X296Y567D01*
G37*
D02*
G36*
X720Y567D02*
X720Y551D01*
X722Y551D01*
X722Y549D01*
X724Y549D01*
X724Y545D01*
X726Y545D01*
X726Y543D01*
X728Y543D01*
X728Y539D01*
X730Y539D01*
X730Y533D01*
X732Y533D01*
X732Y525D01*
X734Y525D01*
X734Y511D01*
X732Y511D01*
X732Y503D01*
X730Y503D01*
X730Y497D01*
X728Y497D01*
X728Y493D01*
X726Y493D01*
X726Y491D01*
X724Y491D01*
X724Y487D01*
X722Y487D01*
X722Y485D01*
X720Y485D01*
X720Y467D01*
X896Y467D01*
X896Y465D01*
X902Y465D01*
X902Y463D01*
X906Y463D01*
X906Y461D01*
X910Y461D01*
X910Y459D01*
X912Y459D01*
X912Y457D01*
X916Y457D01*
X916Y455D01*
X918Y455D01*
X918Y453D01*
X920Y453D01*
X920Y451D01*
X922Y451D01*
X922Y449D01*
X924Y449D01*
X924Y445D01*
X926Y445D01*
X926Y443D01*
X928Y443D01*
X928Y441D01*
X994Y441D01*
X994Y443D01*
X996Y443D01*
X996Y447D01*
X998Y447D01*
X998Y449D01*
X1000Y449D01*
X1000Y451D01*
X1002Y451D01*
X1002Y453D01*
X1004Y453D01*
X1004Y455D01*
X1006Y455D01*
X1006Y457D01*
X1010Y457D01*
X1010Y479D01*
X1006Y479D01*
X1006Y481D01*
X1004Y481D01*
X1004Y483D01*
X1002Y483D01*
X1002Y485D01*
X1000Y485D01*
X1000Y487D01*
X998Y487D01*
X998Y489D01*
X996Y489D01*
X996Y493D01*
X994Y493D01*
X994Y495D01*
X992Y495D01*
X992Y499D01*
X990Y499D01*
X990Y505D01*
X988Y505D01*
X988Y531D01*
X990Y531D01*
X990Y537D01*
X992Y537D01*
X992Y541D01*
X994Y541D01*
X994Y543D01*
X996Y543D01*
X996Y547D01*
X998Y547D01*
X998Y549D01*
X1000Y549D01*
X1000Y551D01*
X1002Y551D01*
X1002Y553D01*
X1004Y553D01*
X1004Y555D01*
X1006Y555D01*
X1006Y557D01*
X1010Y557D01*
X1010Y567D01*
X720Y567D01*
G37*
D02*
G36*
X1920Y517D02*
X1920Y515D01*
X2318Y515D01*
X2318Y517D01*
X1920Y517D01*
G37*
D02*
G36*
X1920Y517D02*
X1920Y515D01*
X2318Y515D01*
X2318Y517D01*
X1920Y517D01*
G37*
D02*
G36*
X1920Y515D02*
X1920Y365D01*
X1918Y365D01*
X1918Y357D01*
X1916Y357D01*
X1916Y351D01*
X1914Y351D01*
X1914Y349D01*
X1912Y349D01*
X1912Y345D01*
X1910Y345D01*
X1910Y343D01*
X1908Y343D01*
X1908Y341D01*
X1906Y341D01*
X1906Y339D01*
X1904Y339D01*
X1904Y337D01*
X1902Y337D01*
X1902Y335D01*
X1900Y335D01*
X1900Y333D01*
X1898Y333D01*
X1898Y331D01*
X1896Y331D01*
X1896Y329D01*
X1894Y329D01*
X1894Y327D01*
X1892Y327D01*
X1892Y325D01*
X1890Y325D01*
X1890Y323D01*
X1888Y323D01*
X1888Y321D01*
X1886Y321D01*
X1886Y319D01*
X1884Y319D01*
X1884Y317D01*
X1882Y317D01*
X1882Y315D01*
X1880Y315D01*
X1880Y313D01*
X1878Y313D01*
X1878Y311D01*
X1876Y311D01*
X1876Y309D01*
X1874Y309D01*
X1874Y307D01*
X1872Y307D01*
X1872Y305D01*
X1870Y305D01*
X1870Y303D01*
X1868Y303D01*
X1868Y301D01*
X1866Y301D01*
X1866Y299D01*
X1864Y299D01*
X1864Y297D01*
X1862Y297D01*
X1862Y295D01*
X1860Y295D01*
X1860Y293D01*
X1858Y293D01*
X1858Y291D01*
X1854Y291D01*
X1854Y289D01*
X1852Y289D01*
X1852Y287D01*
X1848Y287D01*
X1848Y285D01*
X1842Y285D01*
X1842Y283D01*
X2318Y283D01*
X2318Y515D01*
X1920Y515D01*
G37*
D02*
G36*
X182Y481D02*
X182Y479D01*
X180Y479D01*
X180Y475D01*
X178Y475D01*
X178Y473D01*
X174Y473D01*
X174Y471D01*
X172Y471D01*
X172Y469D01*
X170Y469D01*
X170Y467D01*
X166Y467D01*
X166Y465D01*
X164Y465D01*
X164Y463D01*
X160Y463D01*
X160Y461D01*
X154Y461D01*
X154Y459D01*
X148Y459D01*
X148Y457D01*
X324Y457D01*
X324Y459D01*
X320Y459D01*
X320Y461D01*
X316Y461D01*
X316Y463D01*
X312Y463D01*
X312Y465D01*
X308Y465D01*
X308Y467D01*
X304Y467D01*
X304Y469D01*
X272Y469D01*
X272Y471D01*
X266Y471D01*
X266Y473D01*
X262Y473D01*
X262Y475D01*
X258Y475D01*
X258Y477D01*
X256Y477D01*
X256Y479D01*
X252Y479D01*
X252Y481D01*
X182Y481D01*
G37*
D02*
G36*
X720Y467D02*
X720Y383D01*
X722Y383D01*
X722Y381D01*
X724Y381D01*
X724Y379D01*
X726Y379D01*
X726Y377D01*
X728Y377D01*
X728Y375D01*
X730Y375D01*
X730Y373D01*
X732Y373D01*
X732Y371D01*
X734Y371D01*
X734Y369D01*
X736Y369D01*
X736Y367D01*
X738Y367D01*
X738Y365D01*
X740Y365D01*
X740Y363D01*
X742Y363D01*
X742Y361D01*
X744Y361D01*
X744Y359D01*
X746Y359D01*
X746Y357D01*
X748Y357D01*
X748Y355D01*
X862Y355D01*
X862Y375D01*
X858Y375D01*
X858Y377D01*
X856Y377D01*
X856Y379D01*
X852Y379D01*
X852Y381D01*
X850Y381D01*
X850Y383D01*
X848Y383D01*
X848Y385D01*
X846Y385D01*
X846Y389D01*
X844Y389D01*
X844Y391D01*
X842Y391D01*
X842Y395D01*
X840Y395D01*
X840Y397D01*
X838Y397D01*
X838Y403D01*
X836Y403D01*
X836Y413D01*
X834Y413D01*
X834Y423D01*
X836Y423D01*
X836Y433D01*
X838Y433D01*
X838Y439D01*
X840Y439D01*
X840Y441D01*
X842Y441D01*
X842Y445D01*
X844Y445D01*
X844Y447D01*
X846Y447D01*
X846Y451D01*
X848Y451D01*
X848Y453D01*
X850Y453D01*
X850Y455D01*
X852Y455D01*
X852Y457D01*
X856Y457D01*
X856Y459D01*
X858Y459D01*
X858Y461D01*
X862Y461D01*
X862Y463D01*
X866Y463D01*
X866Y465D01*
X874Y465D01*
X874Y467D01*
X720Y467D01*
G37*
D02*
G36*
X40Y457D02*
X40Y455D01*
X328Y455D01*
X328Y457D01*
X40Y457D01*
G37*
D02*
G36*
X40Y457D02*
X40Y455D01*
X328Y455D01*
X328Y457D01*
X40Y457D01*
G37*
D02*
G36*
X40Y455D02*
X40Y379D01*
X148Y379D01*
X148Y377D01*
X154Y377D01*
X154Y375D01*
X160Y375D01*
X160Y373D01*
X164Y373D01*
X164Y371D01*
X166Y371D01*
X166Y369D01*
X472Y369D01*
X472Y371D01*
X466Y371D01*
X466Y373D01*
X462Y373D01*
X462Y375D01*
X458Y375D01*
X458Y377D01*
X456Y377D01*
X456Y379D01*
X452Y379D01*
X452Y381D01*
X450Y381D01*
X450Y383D01*
X448Y383D01*
X448Y385D01*
X446Y385D01*
X446Y389D01*
X444Y389D01*
X444Y391D01*
X442Y391D01*
X442Y395D01*
X440Y395D01*
X440Y397D01*
X438Y397D01*
X438Y401D01*
X436Y401D01*
X436Y403D01*
X432Y403D01*
X432Y405D01*
X428Y405D01*
X428Y407D01*
X424Y407D01*
X424Y409D01*
X420Y409D01*
X420Y411D01*
X416Y411D01*
X416Y413D01*
X412Y413D01*
X412Y415D01*
X408Y415D01*
X408Y417D01*
X404Y417D01*
X404Y419D01*
X400Y419D01*
X400Y421D01*
X396Y421D01*
X396Y423D01*
X392Y423D01*
X392Y425D01*
X388Y425D01*
X388Y427D01*
X384Y427D01*
X384Y429D01*
X380Y429D01*
X380Y431D01*
X376Y431D01*
X376Y433D01*
X372Y433D01*
X372Y435D01*
X368Y435D01*
X368Y437D01*
X364Y437D01*
X364Y439D01*
X360Y439D01*
X360Y441D01*
X356Y441D01*
X356Y443D01*
X352Y443D01*
X352Y445D01*
X348Y445D01*
X348Y447D01*
X344Y447D01*
X344Y449D01*
X340Y449D01*
X340Y451D01*
X336Y451D01*
X336Y453D01*
X332Y453D01*
X332Y455D01*
X40Y455D01*
G37*
D02*
G36*
X40Y379D02*
X40Y257D01*
X120Y257D01*
X120Y259D01*
X114Y259D01*
X114Y261D01*
X108Y261D01*
X108Y263D01*
X104Y263D01*
X104Y265D01*
X102Y265D01*
X102Y267D01*
X98Y267D01*
X98Y269D01*
X96Y269D01*
X96Y271D01*
X94Y271D01*
X94Y273D01*
X92Y273D01*
X92Y275D01*
X90Y275D01*
X90Y277D01*
X88Y277D01*
X88Y279D01*
X86Y279D01*
X86Y281D01*
X84Y281D01*
X84Y283D01*
X82Y283D01*
X82Y287D01*
X80Y287D01*
X80Y291D01*
X78Y291D01*
X78Y295D01*
X76Y295D01*
X76Y301D01*
X74Y301D01*
X74Y311D01*
X72Y311D01*
X72Y325D01*
X74Y325D01*
X74Y335D01*
X76Y335D01*
X76Y341D01*
X78Y341D01*
X78Y345D01*
X80Y345D01*
X80Y349D01*
X82Y349D01*
X82Y351D01*
X84Y351D01*
X84Y355D01*
X86Y355D01*
X86Y357D01*
X88Y357D01*
X88Y359D01*
X90Y359D01*
X90Y361D01*
X92Y361D01*
X92Y363D01*
X94Y363D01*
X94Y365D01*
X96Y365D01*
X96Y367D01*
X98Y367D01*
X98Y369D01*
X102Y369D01*
X102Y371D01*
X104Y371D01*
X104Y373D01*
X108Y373D01*
X108Y375D01*
X114Y375D01*
X114Y377D01*
X122Y377D01*
X122Y379D01*
X40Y379D01*
G37*
D02*
G36*
X170Y369D02*
X170Y367D01*
X648Y367D01*
X648Y369D01*
X170Y369D01*
G37*
D02*
G36*
X170Y369D02*
X170Y367D01*
X648Y367D01*
X648Y369D01*
X170Y369D01*
G37*
D02*
G36*
X172Y367D02*
X172Y365D01*
X174Y365D01*
X174Y363D01*
X178Y363D01*
X178Y359D01*
X180Y359D01*
X180Y357D01*
X182Y357D01*
X182Y355D01*
X184Y355D01*
X184Y353D01*
X186Y353D01*
X186Y349D01*
X188Y349D01*
X188Y345D01*
X190Y345D01*
X190Y341D01*
X192Y341D01*
X192Y335D01*
X194Y335D01*
X194Y327D01*
X196Y327D01*
X196Y309D01*
X194Y309D01*
X194Y301D01*
X192Y301D01*
X192Y295D01*
X190Y295D01*
X190Y291D01*
X188Y291D01*
X188Y287D01*
X186Y287D01*
X186Y283D01*
X726Y283D01*
X726Y285D01*
X720Y285D01*
X720Y287D01*
X716Y287D01*
X716Y289D01*
X712Y289D01*
X712Y291D01*
X710Y291D01*
X710Y293D01*
X708Y293D01*
X708Y295D01*
X706Y295D01*
X706Y297D01*
X704Y297D01*
X704Y299D01*
X702Y299D01*
X702Y301D01*
X700Y301D01*
X700Y303D01*
X698Y303D01*
X698Y305D01*
X696Y305D01*
X696Y307D01*
X694Y307D01*
X694Y309D01*
X692Y309D01*
X692Y311D01*
X690Y311D01*
X690Y313D01*
X688Y313D01*
X688Y315D01*
X686Y315D01*
X686Y317D01*
X684Y317D01*
X684Y319D01*
X682Y319D01*
X682Y321D01*
X680Y321D01*
X680Y323D01*
X678Y323D01*
X678Y325D01*
X676Y325D01*
X676Y327D01*
X674Y327D01*
X674Y329D01*
X672Y329D01*
X672Y331D01*
X670Y331D01*
X670Y333D01*
X668Y333D01*
X668Y335D01*
X666Y335D01*
X666Y337D01*
X664Y337D01*
X664Y339D01*
X662Y339D01*
X662Y341D01*
X660Y341D01*
X660Y343D01*
X658Y343D01*
X658Y345D01*
X656Y345D01*
X656Y347D01*
X654Y347D01*
X654Y351D01*
X652Y351D01*
X652Y353D01*
X650Y353D01*
X650Y359D01*
X648Y359D01*
X648Y367D01*
X172Y367D01*
G37*
D02*
G36*
X184Y283D02*
X184Y281D01*
X2318Y281D01*
X2318Y283D01*
X184Y283D01*
G37*
D02*
G36*
X184Y283D02*
X184Y281D01*
X2318Y281D01*
X2318Y283D01*
X184Y283D01*
G37*
D02*
G36*
X182Y281D02*
X182Y279D01*
X180Y279D01*
X180Y275D01*
X178Y275D01*
X178Y273D01*
X174Y273D01*
X174Y271D01*
X172Y271D01*
X172Y269D01*
X170Y269D01*
X170Y267D01*
X166Y267D01*
X166Y265D01*
X164Y265D01*
X164Y263D01*
X160Y263D01*
X160Y261D01*
X154Y261D01*
X154Y259D01*
X148Y259D01*
X148Y257D01*
X2318Y257D01*
X2318Y281D01*
X182Y281D01*
G37*
D02*
G36*
X40Y257D02*
X40Y255D01*
X2318Y255D01*
X2318Y257D01*
X40Y257D01*
G37*
D02*
G36*
X40Y257D02*
X40Y255D01*
X2318Y255D01*
X2318Y257D01*
X40Y257D01*
G37*
D02*
G36*
X40Y255D02*
X40Y193D01*
X2244Y193D01*
X2244Y191D01*
X2254Y191D01*
X2254Y189D01*
X2260Y189D01*
X2260Y187D01*
X2266Y187D01*
X2266Y185D01*
X2270Y185D01*
X2270Y183D01*
X2272Y183D01*
X2272Y181D01*
X2276Y181D01*
X2276Y179D01*
X2278Y179D01*
X2278Y177D01*
X2282Y177D01*
X2282Y175D01*
X2284Y175D01*
X2284Y173D01*
X2286Y173D01*
X2286Y171D01*
X2288Y171D01*
X2288Y169D01*
X2290Y169D01*
X2290Y167D01*
X2292Y167D01*
X2292Y165D01*
X2294Y165D01*
X2294Y161D01*
X2296Y161D01*
X2296Y159D01*
X2298Y159D01*
X2298Y155D01*
X2318Y155D01*
X2318Y255D01*
X40Y255D01*
G37*
D02*
G36*
X40Y193D02*
X40Y173D01*
X60Y173D01*
X60Y175D01*
X62Y175D01*
X62Y177D01*
X64Y177D01*
X64Y179D01*
X68Y179D01*
X68Y181D01*
X70Y181D01*
X70Y183D01*
X74Y183D01*
X74Y185D01*
X78Y185D01*
X78Y187D01*
X84Y187D01*
X84Y189D01*
X90Y189D01*
X90Y191D01*
X98Y191D01*
X98Y193D01*
X40Y193D01*
G37*
D02*
G36*
X120Y193D02*
X120Y191D01*
X130Y191D01*
X130Y189D01*
X136Y189D01*
X136Y187D01*
X140Y187D01*
X140Y185D01*
X144Y185D01*
X144Y183D01*
X148Y183D01*
X148Y181D01*
X150Y181D01*
X150Y179D01*
X154Y179D01*
X154Y177D01*
X156Y177D01*
X156Y175D01*
X158Y175D01*
X158Y173D01*
X162Y173D01*
X162Y171D01*
X164Y171D01*
X164Y167D01*
X166Y167D01*
X166Y165D01*
X168Y165D01*
X168Y163D01*
X170Y163D01*
X170Y161D01*
X172Y161D01*
X172Y157D01*
X174Y157D01*
X174Y153D01*
X176Y153D01*
X176Y149D01*
X178Y149D01*
X178Y145D01*
X180Y145D01*
X180Y139D01*
X182Y139D01*
X182Y129D01*
X184Y129D01*
X184Y105D01*
X182Y105D01*
X182Y97D01*
X180Y97D01*
X180Y91D01*
X178Y91D01*
X178Y87D01*
X176Y87D01*
X176Y83D01*
X174Y83D01*
X174Y79D01*
X172Y79D01*
X172Y75D01*
X170Y75D01*
X170Y73D01*
X168Y73D01*
X168Y71D01*
X166Y71D01*
X166Y69D01*
X164Y69D01*
X164Y65D01*
X162Y65D01*
X162Y63D01*
X158Y63D01*
X158Y61D01*
X156Y61D01*
X156Y41D01*
X2186Y41D01*
X2186Y61D01*
X2184Y61D01*
X2184Y63D01*
X2182Y63D01*
X2182Y65D01*
X2180Y65D01*
X2180Y67D01*
X2178Y67D01*
X2178Y69D01*
X2176Y69D01*
X2176Y73D01*
X2174Y73D01*
X2174Y75D01*
X2172Y75D01*
X2172Y77D01*
X2170Y77D01*
X2170Y81D01*
X2168Y81D01*
X2168Y85D01*
X2166Y85D01*
X2166Y89D01*
X2164Y89D01*
X2164Y95D01*
X2162Y95D01*
X2162Y103D01*
X2160Y103D01*
X2160Y133D01*
X2162Y133D01*
X2162Y141D01*
X2164Y141D01*
X2164Y147D01*
X2166Y147D01*
X2166Y151D01*
X2168Y151D01*
X2168Y155D01*
X2170Y155D01*
X2170Y159D01*
X2172Y159D01*
X2172Y161D01*
X2174Y161D01*
X2174Y163D01*
X2176Y163D01*
X2176Y167D01*
X2178Y167D01*
X2178Y169D01*
X2180Y169D01*
X2180Y171D01*
X2182Y171D01*
X2182Y173D01*
X2184Y173D01*
X2184Y175D01*
X2186Y175D01*
X2186Y177D01*
X2190Y177D01*
X2190Y179D01*
X2192Y179D01*
X2192Y181D01*
X2196Y181D01*
X2196Y183D01*
X2200Y183D01*
X2200Y185D01*
X2204Y185D01*
X2204Y187D01*
X2208Y187D01*
X2208Y189D01*
X2214Y189D01*
X2214Y191D01*
X2224Y191D01*
X2224Y193D01*
X120Y193D01*
G37*
D02*
G36*
X926Y393D02*
X926Y391D01*
X924Y391D01*
X924Y387D01*
X922Y387D01*
X922Y385D01*
X920Y385D01*
X920Y383D01*
X918Y383D01*
X918Y381D01*
X916Y381D01*
X916Y379D01*
X914Y379D01*
X914Y377D01*
X910Y377D01*
X910Y375D01*
X906Y375D01*
X906Y355D01*
X1018Y355D01*
X1018Y375D01*
X1014Y375D01*
X1014Y377D01*
X1010Y377D01*
X1010Y379D01*
X1006Y379D01*
X1006Y381D01*
X1004Y381D01*
X1004Y383D01*
X1002Y383D01*
X1002Y385D01*
X1000Y385D01*
X1000Y387D01*
X998Y387D01*
X998Y389D01*
X996Y389D01*
X996Y393D01*
X926Y393D01*
G37*
D02*
G36*
X106Y291D02*
X161Y291D01*
X161Y257D01*
X106Y257D01*
X106Y291D01*
G37*
D02*
G36*
X68Y347D02*
X104Y347D01*
X104Y292D01*
X68Y292D01*
X68Y347D01*
G37*
D02*
G36*
X162Y347D02*
X196Y347D01*
X196Y292D01*
X162Y292D01*
X162Y347D01*
G37*
D02*
G36*
X1011Y1569D02*
X1052Y1569D01*
X1052Y1535D01*
X1011Y1535D01*
X1011Y1569D01*
G37*
D02*
G36*
X984Y1540D02*
X1016Y1540D01*
X1016Y1499D01*
X984Y1499D01*
X984Y1540D01*
G37*
D02*
G36*
X1046Y1540D02*
X1082Y1540D01*
X1082Y1499D01*
X1046Y1499D01*
X1046Y1540D01*
G37*
D02*
G36*
X984Y1340D02*
X1016Y1340D01*
X1016Y1299D01*
X984Y1299D01*
X984Y1340D01*
G37*
D02*
G36*
X984Y1140D02*
X1016Y1140D01*
X1016Y1099D01*
X984Y1099D01*
X984Y1140D01*
G37*
D02*
G36*
X1046Y1140D02*
X1082Y1140D01*
X1082Y1099D01*
X1046Y1099D01*
X1046Y1140D01*
G37*
D02*
G36*
X984Y940D02*
X1016Y940D01*
X1016Y899D01*
X984Y899D01*
X984Y940D01*
G37*
D02*
G36*
X1046Y940D02*
X1082Y940D01*
X1082Y899D01*
X1046Y899D01*
X1046Y940D01*
G37*
D02*
G36*
X984Y740D02*
X1016Y740D01*
X1016Y699D01*
X984Y699D01*
X984Y740D01*
G37*
D02*
G36*
X1046Y740D02*
X1082Y740D01*
X1082Y699D01*
X1046Y699D01*
X1046Y740D01*
G37*
D02*
G36*
X984Y540D02*
X1016Y540D01*
X1016Y499D01*
X984Y499D01*
X984Y540D01*
G37*
D02*
G36*
X1046Y540D02*
X1082Y540D01*
X1082Y499D01*
X1046Y499D01*
X1046Y540D01*
G37*
D02*
G36*
X2159Y551D02*
X2204Y551D01*
X2204Y517D01*
X2159Y517D01*
X2159Y551D01*
G37*
D02*
G36*
X2130Y592D02*
X2162Y592D01*
X2162Y547D01*
X2130Y547D01*
X2130Y592D01*
G37*
D02*
G36*
X2200Y592D02*
X2236Y592D01*
X2236Y547D01*
X2200Y547D01*
X2200Y592D01*
G37*
D02*
G36*
X1260Y1153D02*
X1303Y1153D01*
X1303Y1119D01*
X1260Y1119D01*
X1260Y1153D01*
G37*
D02*
G04 End of Copper0*
M02*