; NON-PLATED HOLES START AT T1
; THROUGH (PLATED) HOLES START AT T100
M48
INCH
T1C0.125984
T100C0.038000
T101C0.030000
T102C0.059055
T103C0.035433
T104C0.035000
%
T1
X001091Y001175
X022341Y001175
X001091Y017175
X022341Y017175
T100
X021841Y005675
X021841Y012675
X021841Y010675
X021841Y007675
X021841Y008675
X021841Y011675
X021841Y009675
X021841Y006675
T101
X010341Y011175
X010341Y015175
X010341Y005175
X010341Y010175
X010341Y009175
X010341Y014175
X010341Y013175
X010341Y006175
X010341Y004175
X010341Y012175
X010341Y008175
X010341Y007175
T102
X001341Y013175
X001341Y015175
X001341Y005175
X001341Y003175
X001341Y009175
X001341Y011175
X001341Y007175
T103
X019841Y012675
X016841Y007675
X017841Y012675
X019841Y007675
T104
X006841Y015175
X014841Y008675
X014841Y011675
X017841Y008675
X004841Y012175
X006841Y013175
X013841Y011675
X008841Y004175
X008841Y014175
X002841Y013175
X015841Y008675
X018841Y011675
X008841Y010175
X002841Y011175
X015841Y011675
X012841Y011675
X016841Y008675
X006841Y009175
X002841Y009175
X006841Y007175
X008841Y006175
X016841Y011675
X002841Y005175
X004841Y008175
X006841Y011175
X018841Y008675
X017841Y011675
X013841Y008675
X004841Y004175
X006841Y005175
X002841Y007175
X004841Y010175
X002841Y015175
X008841Y012175
X004841Y006175
X004841Y014175
X008841Y008175
X012841Y008675
T00
M30
