G04 MADE WITH FRITZING*
G04 WWW.FRITZING.ORG*
G04 SINGLE SIDED*
G04 HOLES NOT PLATED*
G04 CONTOUR ON CENTER OF CONTOUR VECTOR*
%ASAXBY*%
%FSLAX23Y23*%
%MOIN*%
%OFA0B0*%
%SFA1.0B1.0*%
%ADD10R,2.359390X1.838570X2.343390X1.822570*%
%ADD11C,0.008000*%
%ADD12C,0.010000*%
%ADD13C,0.005000*%
%ADD14R,0.001000X0.001000*%
%LNSILK1*%
G90*
G70*
G54D11*
X4Y1835D02*
X2355Y1835D01*
X2355Y4D01*
X4Y4D01*
X4Y1835D01*
D02*
G54D12*
X1934Y1218D02*
X1234Y1218D01*
D02*
X1234Y1218D02*
X1234Y818D01*
D02*
X1234Y818D02*
X1934Y818D01*
D02*
X1934Y1218D02*
X1934Y1068D01*
D02*
X1934Y968D02*
X1934Y818D01*
D02*
X2134Y1318D02*
X2134Y518D01*
D02*
X2134Y518D02*
X2234Y518D01*
D02*
X2234Y518D02*
X2234Y1318D01*
D02*
X2234Y1318D02*
X2134Y1318D01*
G54D13*
D02*
X2134Y1283D02*
X2169Y1318D01*
G54D12*
D02*
X522Y418D02*
X594Y418D01*
D02*
X794Y418D02*
X847Y418D01*
D02*
X594Y451D02*
X794Y451D01*
D02*
X794Y451D02*
X794Y385D01*
D02*
X794Y385D02*
X594Y385D01*
D02*
X594Y385D02*
X594Y451D01*
D02*
X522Y618D02*
X594Y618D01*
D02*
X794Y618D02*
X847Y618D01*
D02*
X594Y651D02*
X794Y651D01*
D02*
X794Y651D02*
X794Y585D01*
D02*
X794Y585D02*
X594Y585D01*
D02*
X594Y585D02*
X594Y651D01*
D02*
X522Y818D02*
X594Y818D01*
D02*
X794Y818D02*
X847Y818D01*
D02*
X594Y851D02*
X794Y851D01*
D02*
X794Y851D02*
X794Y785D01*
D02*
X794Y785D02*
X594Y785D01*
D02*
X594Y785D02*
X594Y851D01*
D02*
X522Y1018D02*
X594Y1018D01*
D02*
X794Y1018D02*
X847Y1018D01*
D02*
X594Y1051D02*
X794Y1051D01*
D02*
X794Y1051D02*
X794Y985D01*
D02*
X794Y985D02*
X594Y985D01*
D02*
X594Y985D02*
X594Y1051D01*
D02*
X522Y1218D02*
X594Y1218D01*
D02*
X794Y1218D02*
X847Y1218D01*
D02*
X594Y1251D02*
X794Y1251D01*
D02*
X794Y1251D02*
X794Y1185D01*
D02*
X794Y1185D02*
X594Y1185D01*
D02*
X594Y1185D02*
X594Y1251D01*
D02*
X522Y1418D02*
X594Y1418D01*
D02*
X794Y1418D02*
X847Y1418D01*
D02*
X594Y1451D02*
X794Y1451D01*
D02*
X794Y1451D02*
X794Y1385D01*
D02*
X794Y1385D02*
X594Y1385D01*
D02*
X594Y1385D02*
X594Y1451D01*
D02*
X647Y518D02*
X575Y518D01*
D02*
X375Y518D02*
X322Y518D01*
D02*
X575Y485D02*
X375Y485D01*
D02*
X375Y485D02*
X375Y551D01*
D02*
X375Y551D02*
X575Y551D01*
D02*
X575Y551D02*
X575Y485D01*
D02*
X647Y718D02*
X575Y718D01*
D02*
X375Y718D02*
X322Y718D01*
D02*
X575Y685D02*
X375Y685D01*
D02*
X375Y685D02*
X375Y751D01*
D02*
X375Y751D02*
X575Y751D01*
D02*
X575Y751D02*
X575Y685D01*
D02*
X647Y918D02*
X575Y918D01*
D02*
X375Y918D02*
X322Y918D01*
D02*
X575Y885D02*
X375Y885D01*
D02*
X375Y885D02*
X375Y951D01*
D02*
X375Y951D02*
X575Y951D01*
D02*
X575Y951D02*
X575Y885D01*
D02*
X647Y1118D02*
X575Y1118D01*
D02*
X375Y1118D02*
X322Y1118D01*
D02*
X575Y1085D02*
X375Y1085D01*
D02*
X375Y1085D02*
X375Y1151D01*
D02*
X375Y1151D02*
X575Y1151D01*
D02*
X575Y1151D02*
X575Y1085D01*
D02*
X647Y1318D02*
X575Y1318D01*
D02*
X375Y1318D02*
X322Y1318D01*
D02*
X575Y1285D02*
X375Y1285D01*
D02*
X375Y1285D02*
X375Y1351D01*
D02*
X375Y1351D02*
X575Y1351D01*
D02*
X575Y1351D02*
X575Y1285D01*
D02*
X647Y1518D02*
X575Y1518D01*
D02*
X375Y1518D02*
X322Y1518D01*
D02*
X575Y1485D02*
X375Y1485D01*
D02*
X375Y1485D02*
X375Y1551D01*
D02*
X375Y1551D02*
X575Y1551D01*
D02*
X575Y1551D02*
X575Y1485D01*
D02*
X84Y368D02*
X84Y268D01*
D02*
X84Y268D02*
X184Y268D01*
D02*
X184Y268D02*
X184Y368D01*
D02*
X184Y368D02*
X84Y368D01*
G54D13*
D02*
X84Y333D02*
X119Y368D01*
G54D12*
D02*
X84Y568D02*
X84Y468D01*
D02*
X84Y468D02*
X184Y468D01*
D02*
X184Y468D02*
X184Y568D01*
D02*
X184Y568D02*
X84Y568D01*
G54D13*
D02*
X84Y533D02*
X119Y568D01*
G54D12*
D02*
X84Y768D02*
X84Y668D01*
D02*
X84Y668D02*
X184Y668D01*
D02*
X184Y668D02*
X184Y768D01*
D02*
X184Y768D02*
X84Y768D01*
G54D13*
D02*
X84Y733D02*
X119Y768D01*
G54D12*
D02*
X84Y968D02*
X84Y868D01*
D02*
X84Y868D02*
X184Y868D01*
D02*
X184Y868D02*
X184Y968D01*
D02*
X184Y968D02*
X84Y968D01*
G54D13*
D02*
X84Y933D02*
X119Y968D01*
G54D12*
D02*
X84Y1168D02*
X84Y1068D01*
D02*
X84Y1068D02*
X184Y1068D01*
D02*
X184Y1068D02*
X184Y1168D01*
D02*
X184Y1168D02*
X84Y1168D01*
G54D13*
D02*
X84Y1133D02*
X119Y1168D01*
G54D12*
D02*
X84Y1368D02*
X84Y1268D01*
D02*
X84Y1268D02*
X184Y1268D01*
D02*
X184Y1268D02*
X184Y1368D01*
D02*
X184Y1368D02*
X84Y1368D01*
G54D13*
D02*
X84Y1333D02*
X119Y1368D01*
G54D12*
D02*
X84Y1568D02*
X84Y1468D01*
D02*
X84Y1468D02*
X184Y1468D01*
D02*
X184Y1468D02*
X184Y1568D01*
D02*
X184Y1568D02*
X84Y1568D01*
G54D13*
D02*
X84Y1533D02*
X119Y1568D01*
G54D14*
X750Y1534D02*
X782Y1534D01*
X800Y1534D02*
X804Y1534D01*
X828Y1534D02*
X831Y1534D01*
X749Y1533D02*
X782Y1533D01*
X799Y1533D02*
X804Y1533D01*
X827Y1533D02*
X832Y1533D01*
X749Y1532D02*
X782Y1532D01*
X799Y1532D02*
X805Y1532D01*
X827Y1532D02*
X832Y1532D01*
X749Y1531D02*
X782Y1531D01*
X799Y1531D02*
X806Y1531D01*
X826Y1531D02*
X832Y1531D01*
X749Y1530D02*
X782Y1530D01*
X799Y1530D02*
X806Y1530D01*
X826Y1530D02*
X832Y1530D01*
X750Y1529D02*
X782Y1529D01*
X800Y1529D02*
X807Y1529D01*
X826Y1529D02*
X832Y1529D01*
X751Y1528D02*
X782Y1528D01*
X800Y1528D02*
X807Y1528D01*
X826Y1528D02*
X832Y1528D01*
X776Y1527D02*
X782Y1527D01*
X801Y1527D02*
X808Y1527D01*
X826Y1527D02*
X832Y1527D01*
X776Y1526D02*
X782Y1526D01*
X801Y1526D02*
X809Y1526D01*
X826Y1526D02*
X832Y1526D01*
X776Y1525D02*
X782Y1525D01*
X802Y1525D02*
X809Y1525D01*
X826Y1525D02*
X832Y1525D01*
X776Y1524D02*
X782Y1524D01*
X803Y1524D02*
X810Y1524D01*
X826Y1524D02*
X832Y1524D01*
X776Y1523D02*
X782Y1523D01*
X803Y1523D02*
X810Y1523D01*
X826Y1523D02*
X832Y1523D01*
X982Y1523D02*
X985Y1523D01*
X1082Y1523D02*
X1085Y1523D01*
X776Y1522D02*
X782Y1522D01*
X804Y1522D02*
X811Y1522D01*
X826Y1522D02*
X832Y1522D01*
X981Y1522D02*
X986Y1522D01*
X1081Y1522D02*
X1086Y1522D01*
X776Y1521D02*
X782Y1521D01*
X804Y1521D02*
X811Y1521D01*
X826Y1521D02*
X832Y1521D01*
X980Y1521D02*
X987Y1521D01*
X1080Y1521D02*
X1087Y1521D01*
X776Y1520D02*
X782Y1520D01*
X805Y1520D02*
X812Y1520D01*
X826Y1520D02*
X832Y1520D01*
X979Y1520D02*
X987Y1520D01*
X1080Y1520D02*
X1088Y1520D01*
X776Y1519D02*
X782Y1519D01*
X805Y1519D02*
X813Y1519D01*
X826Y1519D02*
X832Y1519D01*
X978Y1519D02*
X987Y1519D01*
X1080Y1519D02*
X1089Y1519D01*
X776Y1518D02*
X782Y1518D01*
X806Y1518D02*
X813Y1518D01*
X826Y1518D02*
X832Y1518D01*
X977Y1518D02*
X987Y1518D01*
X1080Y1518D02*
X1089Y1518D01*
X776Y1517D02*
X782Y1517D01*
X807Y1517D02*
X814Y1517D01*
X826Y1517D02*
X832Y1517D01*
X977Y1517D02*
X986Y1517D01*
X1081Y1517D02*
X1090Y1517D01*
X776Y1516D02*
X782Y1516D01*
X807Y1516D02*
X814Y1516D01*
X826Y1516D02*
X832Y1516D01*
X976Y1516D02*
X985Y1516D01*
X1082Y1516D02*
X1091Y1516D01*
X776Y1515D02*
X782Y1515D01*
X808Y1515D02*
X815Y1515D01*
X826Y1515D02*
X832Y1515D01*
X975Y1515D02*
X984Y1515D01*
X1083Y1515D02*
X1092Y1515D01*
X776Y1514D02*
X782Y1514D01*
X808Y1514D02*
X816Y1514D01*
X826Y1514D02*
X832Y1514D01*
X974Y1514D02*
X984Y1514D01*
X1083Y1514D02*
X1092Y1514D01*
X776Y1513D02*
X782Y1513D01*
X809Y1513D02*
X816Y1513D01*
X826Y1513D02*
X832Y1513D01*
X974Y1513D02*
X983Y1513D01*
X1084Y1513D02*
X1093Y1513D01*
X776Y1512D02*
X782Y1512D01*
X810Y1512D02*
X817Y1512D01*
X826Y1512D02*
X832Y1512D01*
X973Y1512D02*
X982Y1512D01*
X1085Y1512D02*
X1094Y1512D01*
X754Y1511D02*
X782Y1511D01*
X810Y1511D02*
X817Y1511D01*
X826Y1511D02*
X832Y1511D01*
X972Y1511D02*
X981Y1511D01*
X1086Y1511D02*
X1095Y1511D01*
X752Y1510D02*
X782Y1510D01*
X811Y1510D02*
X818Y1510D01*
X826Y1510D02*
X832Y1510D01*
X972Y1510D02*
X980Y1510D01*
X1087Y1510D02*
X1095Y1510D01*
X751Y1509D02*
X782Y1509D01*
X811Y1509D02*
X819Y1509D01*
X826Y1509D02*
X832Y1509D01*
X971Y1509D02*
X980Y1509D01*
X1087Y1509D02*
X1096Y1509D01*
X750Y1508D02*
X782Y1508D01*
X812Y1508D02*
X819Y1508D01*
X826Y1508D02*
X832Y1508D01*
X971Y1508D02*
X979Y1508D01*
X1088Y1508D02*
X1096Y1508D01*
X749Y1507D02*
X781Y1507D01*
X812Y1507D02*
X820Y1507D01*
X826Y1507D02*
X832Y1507D01*
X970Y1507D02*
X978Y1507D01*
X1089Y1507D02*
X1097Y1507D01*
X749Y1506D02*
X780Y1506D01*
X813Y1506D02*
X820Y1506D01*
X826Y1506D02*
X832Y1506D01*
X970Y1506D02*
X978Y1506D01*
X1089Y1506D02*
X1097Y1506D01*
X749Y1505D02*
X778Y1505D01*
X807Y1505D02*
X832Y1505D01*
X969Y1505D02*
X977Y1505D01*
X1090Y1505D02*
X1098Y1505D01*
X749Y1504D02*
X755Y1504D01*
X804Y1504D02*
X832Y1504D01*
X968Y1504D02*
X976Y1504D01*
X1090Y1504D02*
X1098Y1504D01*
X749Y1503D02*
X755Y1503D01*
X803Y1503D02*
X832Y1503D01*
X968Y1503D02*
X976Y1503D01*
X1091Y1503D02*
X1099Y1503D01*
X749Y1502D02*
X755Y1502D01*
X802Y1502D02*
X832Y1502D01*
X968Y1502D02*
X975Y1502D01*
X1092Y1502D02*
X1099Y1502D01*
X749Y1501D02*
X755Y1501D01*
X801Y1501D02*
X832Y1501D01*
X967Y1501D02*
X975Y1501D01*
X1092Y1501D02*
X1100Y1501D01*
X749Y1500D02*
X755Y1500D01*
X800Y1500D02*
X832Y1500D01*
X967Y1500D02*
X974Y1500D01*
X1093Y1500D02*
X1100Y1500D01*
X749Y1499D02*
X755Y1499D01*
X800Y1499D02*
X832Y1499D01*
X966Y1499D02*
X974Y1499D01*
X1093Y1499D02*
X1101Y1499D01*
X749Y1498D02*
X755Y1498D01*
X799Y1498D02*
X807Y1498D01*
X826Y1498D02*
X832Y1498D01*
X966Y1498D02*
X973Y1498D01*
X1094Y1498D02*
X1101Y1498D01*
X749Y1497D02*
X755Y1497D01*
X799Y1497D02*
X806Y1497D01*
X826Y1497D02*
X832Y1497D01*
X965Y1497D02*
X973Y1497D01*
X1094Y1497D02*
X1102Y1497D01*
X1184Y1497D02*
X1187Y1497D01*
X749Y1496D02*
X755Y1496D01*
X799Y1496D02*
X805Y1496D01*
X826Y1496D02*
X832Y1496D01*
X965Y1496D02*
X972Y1496D01*
X1094Y1496D02*
X1102Y1496D01*
X1180Y1496D02*
X1190Y1496D01*
X749Y1495D02*
X755Y1495D01*
X799Y1495D02*
X805Y1495D01*
X826Y1495D02*
X832Y1495D01*
X965Y1495D02*
X972Y1495D01*
X1095Y1495D02*
X1102Y1495D01*
X1177Y1495D02*
X1193Y1495D01*
X749Y1494D02*
X755Y1494D01*
X799Y1494D02*
X805Y1494D01*
X826Y1494D02*
X832Y1494D01*
X964Y1494D02*
X972Y1494D01*
X1095Y1494D02*
X1103Y1494D01*
X1175Y1494D02*
X1195Y1494D01*
X749Y1493D02*
X755Y1493D01*
X799Y1493D02*
X805Y1493D01*
X826Y1493D02*
X832Y1493D01*
X964Y1493D02*
X971Y1493D01*
X1096Y1493D02*
X1103Y1493D01*
X1173Y1493D02*
X1197Y1493D01*
X749Y1492D02*
X755Y1492D01*
X799Y1492D02*
X805Y1492D01*
X826Y1492D02*
X832Y1492D01*
X964Y1492D02*
X971Y1492D01*
X1096Y1492D02*
X1103Y1492D01*
X1172Y1492D02*
X1199Y1492D01*
X749Y1491D02*
X755Y1491D01*
X799Y1491D02*
X805Y1491D01*
X826Y1491D02*
X832Y1491D01*
X963Y1491D02*
X971Y1491D01*
X1096Y1491D02*
X1104Y1491D01*
X1170Y1491D02*
X1201Y1491D01*
X749Y1490D02*
X755Y1490D01*
X799Y1490D02*
X805Y1490D01*
X826Y1490D02*
X832Y1490D01*
X963Y1490D02*
X970Y1490D01*
X1097Y1490D02*
X1104Y1490D01*
X1168Y1490D02*
X1183Y1490D01*
X1187Y1490D02*
X1203Y1490D01*
X749Y1489D02*
X755Y1489D01*
X799Y1489D02*
X806Y1489D01*
X826Y1489D02*
X832Y1489D01*
X963Y1489D02*
X970Y1489D01*
X1097Y1489D02*
X1104Y1489D01*
X1166Y1489D02*
X1180Y1489D01*
X1190Y1489D02*
X1205Y1489D01*
X749Y1488D02*
X755Y1488D01*
X799Y1488D02*
X807Y1488D01*
X826Y1488D02*
X832Y1488D01*
X963Y1488D02*
X970Y1488D01*
X1097Y1488D02*
X1104Y1488D01*
X1164Y1488D02*
X1178Y1488D01*
X1192Y1488D02*
X1207Y1488D01*
X749Y1487D02*
X781Y1487D01*
X800Y1487D02*
X832Y1487D01*
X962Y1487D02*
X969Y1487D01*
X1098Y1487D02*
X1105Y1487D01*
X1162Y1487D02*
X1176Y1487D01*
X1194Y1487D02*
X1208Y1487D01*
X749Y1486D02*
X782Y1486D01*
X800Y1486D02*
X832Y1486D01*
X962Y1486D02*
X969Y1486D01*
X1098Y1486D02*
X1105Y1486D01*
X1161Y1486D02*
X1174Y1486D01*
X1196Y1486D02*
X1209Y1486D01*
X749Y1485D02*
X782Y1485D01*
X801Y1485D02*
X832Y1485D01*
X962Y1485D02*
X969Y1485D01*
X1098Y1485D02*
X1105Y1485D01*
X1161Y1485D02*
X1172Y1485D01*
X1198Y1485D02*
X1210Y1485D01*
X750Y1484D02*
X782Y1484D01*
X802Y1484D02*
X832Y1484D01*
X962Y1484D02*
X969Y1484D01*
X1098Y1484D02*
X1105Y1484D01*
X1160Y1484D02*
X1170Y1484D01*
X1200Y1484D02*
X1210Y1484D01*
X751Y1483D02*
X782Y1483D01*
X803Y1483D02*
X832Y1483D01*
X961Y1483D02*
X968Y1483D01*
X1098Y1483D02*
X1106Y1483D01*
X1159Y1483D02*
X1168Y1483D01*
X1202Y1483D02*
X1211Y1483D01*
X752Y1482D02*
X782Y1482D01*
X804Y1482D02*
X832Y1482D01*
X961Y1482D02*
X968Y1482D01*
X1099Y1482D02*
X1106Y1482D01*
X1159Y1482D02*
X1166Y1482D01*
X1204Y1482D02*
X1211Y1482D01*
X754Y1481D02*
X780Y1481D01*
X807Y1481D02*
X832Y1481D01*
X961Y1481D02*
X968Y1481D01*
X1099Y1481D02*
X1106Y1481D01*
X1159Y1481D02*
X1165Y1481D01*
X1205Y1481D02*
X1211Y1481D01*
X961Y1480D02*
X968Y1480D01*
X1099Y1480D02*
X1106Y1480D01*
X1159Y1480D02*
X1165Y1480D01*
X1206Y1480D02*
X1212Y1480D01*
X961Y1479D02*
X968Y1479D01*
X1099Y1479D02*
X1106Y1479D01*
X1159Y1479D02*
X1165Y1479D01*
X1206Y1479D02*
X1212Y1479D01*
X961Y1478D02*
X968Y1478D01*
X1099Y1478D02*
X1106Y1478D01*
X1159Y1478D02*
X1165Y1478D01*
X1206Y1478D02*
X1212Y1478D01*
X960Y1477D02*
X968Y1477D01*
X1099Y1477D02*
X1106Y1477D01*
X1159Y1477D02*
X1165Y1477D01*
X1206Y1477D02*
X1212Y1477D01*
X960Y1476D02*
X967Y1476D01*
X1100Y1476D02*
X1107Y1476D01*
X1159Y1476D02*
X1165Y1476D01*
X1206Y1476D02*
X1212Y1476D01*
X960Y1475D02*
X967Y1475D01*
X1100Y1475D02*
X1107Y1475D01*
X1159Y1475D02*
X1165Y1475D01*
X1206Y1475D02*
X1212Y1475D01*
X960Y1474D02*
X967Y1474D01*
X1100Y1474D02*
X1107Y1474D01*
X1159Y1474D02*
X1165Y1474D01*
X1206Y1474D02*
X1212Y1474D01*
X960Y1473D02*
X967Y1473D01*
X1100Y1473D02*
X1107Y1473D01*
X1159Y1473D02*
X1165Y1473D01*
X1206Y1473D02*
X1212Y1473D01*
X960Y1472D02*
X967Y1472D01*
X1100Y1472D02*
X1107Y1472D01*
X1159Y1472D02*
X1165Y1472D01*
X1206Y1472D02*
X1212Y1472D01*
X960Y1471D02*
X967Y1471D01*
X1100Y1471D02*
X1107Y1471D01*
X1159Y1471D02*
X1165Y1471D01*
X1206Y1471D02*
X1212Y1471D01*
X960Y1470D02*
X967Y1470D01*
X1100Y1470D02*
X1107Y1470D01*
X1159Y1470D02*
X1165Y1470D01*
X1206Y1470D02*
X1212Y1470D01*
X960Y1469D02*
X967Y1469D01*
X1100Y1469D02*
X1107Y1469D01*
X1159Y1469D02*
X1165Y1469D01*
X1206Y1469D02*
X1212Y1469D01*
X960Y1468D02*
X967Y1468D01*
X1100Y1468D02*
X1107Y1468D01*
X1159Y1468D02*
X1165Y1468D01*
X1206Y1468D02*
X1212Y1468D01*
X960Y1467D02*
X967Y1467D01*
X1100Y1467D02*
X1107Y1467D01*
X1159Y1467D02*
X1165Y1467D01*
X1206Y1467D02*
X1212Y1467D01*
X960Y1466D02*
X967Y1466D01*
X1100Y1466D02*
X1107Y1466D01*
X1159Y1466D02*
X1164Y1466D01*
X1206Y1466D02*
X1212Y1466D01*
X960Y1465D02*
X967Y1465D01*
X1100Y1465D02*
X1107Y1465D01*
X1159Y1465D02*
X1164Y1465D01*
X1206Y1465D02*
X1211Y1465D01*
X960Y1464D02*
X967Y1464D01*
X1100Y1464D02*
X1107Y1464D01*
X1159Y1464D02*
X1164Y1464D01*
X1206Y1464D02*
X1211Y1464D01*
X960Y1463D02*
X967Y1463D01*
X1100Y1463D02*
X1107Y1463D01*
X1160Y1463D02*
X1163Y1463D01*
X1208Y1463D02*
X1210Y1463D01*
X960Y1462D02*
X967Y1462D01*
X1100Y1462D02*
X1107Y1462D01*
X960Y1461D02*
X967Y1461D01*
X1100Y1461D02*
X1107Y1461D01*
X961Y1460D02*
X968Y1460D01*
X1099Y1460D02*
X1106Y1460D01*
X961Y1459D02*
X968Y1459D01*
X1099Y1459D02*
X1106Y1459D01*
X961Y1458D02*
X968Y1458D01*
X1099Y1458D02*
X1106Y1458D01*
X961Y1457D02*
X968Y1457D01*
X1099Y1457D02*
X1106Y1457D01*
X961Y1456D02*
X968Y1456D01*
X1099Y1456D02*
X1106Y1456D01*
X961Y1455D02*
X968Y1455D01*
X1099Y1455D02*
X1106Y1455D01*
X961Y1454D02*
X968Y1454D01*
X1098Y1454D02*
X1106Y1454D01*
X93Y1453D02*
X117Y1453D01*
X145Y1453D02*
X163Y1453D01*
X962Y1453D02*
X969Y1453D01*
X1098Y1453D02*
X1105Y1453D01*
X93Y1452D02*
X120Y1452D01*
X144Y1452D02*
X163Y1452D01*
X962Y1452D02*
X969Y1452D01*
X1098Y1452D02*
X1105Y1452D01*
X93Y1451D02*
X121Y1451D01*
X144Y1451D02*
X163Y1451D01*
X337Y1451D02*
X364Y1451D01*
X388Y1451D02*
X407Y1451D01*
X962Y1451D02*
X969Y1451D01*
X1098Y1451D02*
X1105Y1451D01*
X93Y1450D02*
X122Y1450D01*
X144Y1450D02*
X163Y1450D01*
X337Y1450D02*
X366Y1450D01*
X387Y1450D02*
X407Y1450D01*
X962Y1450D02*
X969Y1450D01*
X1098Y1450D02*
X1105Y1450D01*
X93Y1449D02*
X123Y1449D01*
X144Y1449D02*
X163Y1449D01*
X337Y1449D02*
X367Y1449D01*
X387Y1449D02*
X407Y1449D01*
X963Y1449D02*
X970Y1449D01*
X1097Y1449D02*
X1104Y1449D01*
X93Y1448D02*
X124Y1448D01*
X144Y1448D02*
X163Y1448D01*
X337Y1448D02*
X368Y1448D01*
X387Y1448D02*
X407Y1448D01*
X963Y1448D02*
X970Y1448D01*
X1097Y1448D02*
X1104Y1448D01*
X93Y1447D02*
X125Y1447D01*
X146Y1447D02*
X163Y1447D01*
X337Y1447D02*
X369Y1447D01*
X387Y1447D02*
X407Y1447D01*
X963Y1447D02*
X995Y1447D01*
X1072Y1447D02*
X1104Y1447D01*
X1161Y1447D02*
X1162Y1447D01*
X1208Y1447D02*
X1209Y1447D01*
X93Y1446D02*
X99Y1446D01*
X117Y1446D02*
X125Y1446D01*
X157Y1446D02*
X163Y1446D01*
X337Y1446D02*
X369Y1446D01*
X388Y1446D02*
X407Y1446D01*
X963Y1446D02*
X996Y1446D01*
X1071Y1446D02*
X1104Y1446D01*
X1159Y1446D02*
X1164Y1446D01*
X1207Y1446D02*
X1211Y1446D01*
X93Y1445D02*
X99Y1445D01*
X119Y1445D02*
X126Y1445D01*
X157Y1445D02*
X163Y1445D01*
X337Y1445D02*
X370Y1445D01*
X390Y1445D02*
X407Y1445D01*
X964Y1445D02*
X997Y1445D01*
X1070Y1445D02*
X1103Y1445D01*
X1159Y1445D02*
X1164Y1445D01*
X1206Y1445D02*
X1211Y1445D01*
X93Y1444D02*
X99Y1444D01*
X119Y1444D02*
X126Y1444D01*
X157Y1444D02*
X163Y1444D01*
X337Y1444D02*
X343Y1444D01*
X363Y1444D02*
X370Y1444D01*
X401Y1444D02*
X407Y1444D01*
X964Y1444D02*
X997Y1444D01*
X1070Y1444D02*
X1103Y1444D01*
X1159Y1444D02*
X1164Y1444D01*
X1206Y1444D02*
X1212Y1444D01*
X93Y1443D02*
X99Y1443D01*
X120Y1443D02*
X127Y1443D01*
X157Y1443D02*
X163Y1443D01*
X337Y1443D02*
X343Y1443D01*
X364Y1443D02*
X370Y1443D01*
X401Y1443D02*
X407Y1443D01*
X964Y1443D02*
X997Y1443D01*
X1070Y1443D02*
X1103Y1443D01*
X1159Y1443D02*
X1165Y1443D01*
X1206Y1443D02*
X1212Y1443D01*
X93Y1442D02*
X99Y1442D01*
X121Y1442D02*
X127Y1442D01*
X157Y1442D02*
X163Y1442D01*
X337Y1442D02*
X343Y1442D01*
X364Y1442D02*
X370Y1442D01*
X401Y1442D02*
X407Y1442D01*
X965Y1442D02*
X997Y1442D01*
X1070Y1442D02*
X1102Y1442D01*
X1159Y1442D02*
X1165Y1442D01*
X1206Y1442D02*
X1212Y1442D01*
X93Y1441D02*
X99Y1441D01*
X121Y1441D02*
X127Y1441D01*
X157Y1441D02*
X163Y1441D01*
X337Y1441D02*
X343Y1441D01*
X364Y1441D02*
X370Y1441D01*
X401Y1441D02*
X407Y1441D01*
X965Y1441D02*
X996Y1441D01*
X1071Y1441D02*
X1102Y1441D01*
X1159Y1441D02*
X1165Y1441D01*
X1206Y1441D02*
X1212Y1441D01*
X93Y1440D02*
X99Y1440D01*
X121Y1440D02*
X127Y1440D01*
X157Y1440D02*
X163Y1440D01*
X337Y1440D02*
X343Y1440D01*
X364Y1440D02*
X370Y1440D01*
X401Y1440D02*
X407Y1440D01*
X965Y1440D02*
X995Y1440D01*
X1072Y1440D02*
X1102Y1440D01*
X1159Y1440D02*
X1165Y1440D01*
X1206Y1440D02*
X1212Y1440D01*
X93Y1439D02*
X99Y1439D01*
X121Y1439D02*
X127Y1439D01*
X157Y1439D02*
X163Y1439D01*
X337Y1439D02*
X343Y1439D01*
X364Y1439D02*
X370Y1439D01*
X401Y1439D02*
X407Y1439D01*
X966Y1439D02*
X973Y1439D01*
X1094Y1439D02*
X1101Y1439D01*
X1159Y1439D02*
X1165Y1439D01*
X1206Y1439D02*
X1212Y1439D01*
X93Y1438D02*
X99Y1438D01*
X121Y1438D02*
X127Y1438D01*
X157Y1438D02*
X163Y1438D01*
X337Y1438D02*
X343Y1438D01*
X364Y1438D02*
X370Y1438D01*
X401Y1438D02*
X407Y1438D01*
X966Y1438D02*
X974Y1438D01*
X1093Y1438D02*
X1101Y1438D01*
X1159Y1438D02*
X1165Y1438D01*
X1206Y1438D02*
X1212Y1438D01*
X93Y1437D02*
X99Y1437D01*
X121Y1437D02*
X127Y1437D01*
X157Y1437D02*
X163Y1437D01*
X337Y1437D02*
X343Y1437D01*
X364Y1437D02*
X370Y1437D01*
X401Y1437D02*
X407Y1437D01*
X967Y1437D02*
X974Y1437D01*
X1093Y1437D02*
X1100Y1437D01*
X1159Y1437D02*
X1165Y1437D01*
X1206Y1437D02*
X1212Y1437D01*
X93Y1436D02*
X99Y1436D01*
X121Y1436D02*
X127Y1436D01*
X157Y1436D02*
X163Y1436D01*
X337Y1436D02*
X343Y1436D01*
X364Y1436D02*
X370Y1436D01*
X401Y1436D02*
X407Y1436D01*
X967Y1436D02*
X975Y1436D01*
X1092Y1436D02*
X1100Y1436D01*
X1159Y1436D02*
X1165Y1436D01*
X1206Y1436D02*
X1212Y1436D01*
X93Y1435D02*
X99Y1435D01*
X121Y1435D02*
X127Y1435D01*
X157Y1435D02*
X163Y1435D01*
X337Y1435D02*
X343Y1435D01*
X363Y1435D02*
X370Y1435D01*
X401Y1435D02*
X407Y1435D01*
X968Y1435D02*
X975Y1435D01*
X1092Y1435D02*
X1099Y1435D01*
X1159Y1435D02*
X1165Y1435D01*
X1206Y1435D02*
X1212Y1435D01*
X93Y1434D02*
X99Y1434D01*
X120Y1434D02*
X127Y1434D01*
X157Y1434D02*
X163Y1434D01*
X337Y1434D02*
X370Y1434D01*
X401Y1434D02*
X407Y1434D01*
X968Y1434D02*
X976Y1434D01*
X1091Y1434D02*
X1099Y1434D01*
X1159Y1434D02*
X1165Y1434D01*
X1206Y1434D02*
X1212Y1434D01*
X93Y1433D02*
X99Y1433D01*
X120Y1433D02*
X126Y1433D01*
X157Y1433D02*
X163Y1433D01*
X337Y1433D02*
X369Y1433D01*
X401Y1433D02*
X407Y1433D01*
X969Y1433D02*
X977Y1433D01*
X1090Y1433D02*
X1098Y1433D01*
X1159Y1433D02*
X1212Y1433D01*
X93Y1432D02*
X99Y1432D01*
X119Y1432D02*
X126Y1432D01*
X157Y1432D02*
X163Y1432D01*
X337Y1432D02*
X369Y1432D01*
X401Y1432D02*
X407Y1432D01*
X969Y1432D02*
X977Y1432D01*
X1090Y1432D02*
X1098Y1432D01*
X1159Y1432D02*
X1212Y1432D01*
X93Y1431D02*
X99Y1431D01*
X117Y1431D02*
X126Y1431D01*
X157Y1431D02*
X163Y1431D01*
X337Y1431D02*
X368Y1431D01*
X401Y1431D02*
X407Y1431D01*
X970Y1431D02*
X978Y1431D01*
X1089Y1431D02*
X1097Y1431D01*
X1159Y1431D02*
X1212Y1431D01*
X93Y1430D02*
X125Y1430D01*
X157Y1430D02*
X163Y1430D01*
X337Y1430D02*
X367Y1430D01*
X401Y1430D02*
X407Y1430D01*
X970Y1430D02*
X978Y1430D01*
X1089Y1430D02*
X1097Y1430D01*
X1159Y1430D02*
X1212Y1430D01*
X93Y1429D02*
X124Y1429D01*
X157Y1429D02*
X163Y1429D01*
X337Y1429D02*
X366Y1429D01*
X401Y1429D02*
X407Y1429D01*
X971Y1429D02*
X979Y1429D01*
X1088Y1429D02*
X1096Y1429D01*
X1159Y1429D02*
X1212Y1429D01*
X93Y1428D02*
X123Y1428D01*
X157Y1428D02*
X163Y1428D01*
X337Y1428D02*
X364Y1428D01*
X401Y1428D02*
X407Y1428D01*
X971Y1428D02*
X980Y1428D01*
X1087Y1428D02*
X1096Y1428D01*
X1159Y1428D02*
X1212Y1428D01*
X93Y1427D02*
X123Y1427D01*
X157Y1427D02*
X163Y1427D01*
X337Y1427D02*
X343Y1427D01*
X349Y1427D02*
X356Y1427D01*
X401Y1427D02*
X407Y1427D01*
X972Y1427D02*
X980Y1427D01*
X1086Y1427D02*
X1095Y1427D01*
X1159Y1427D02*
X1212Y1427D01*
X93Y1426D02*
X123Y1426D01*
X157Y1426D02*
X163Y1426D01*
X337Y1426D02*
X343Y1426D01*
X349Y1426D02*
X357Y1426D01*
X401Y1426D02*
X407Y1426D01*
X973Y1426D02*
X981Y1426D01*
X1086Y1426D02*
X1094Y1426D01*
X1159Y1426D02*
X1165Y1426D01*
X93Y1425D02*
X124Y1425D01*
X157Y1425D02*
X163Y1425D01*
X337Y1425D02*
X343Y1425D01*
X350Y1425D02*
X357Y1425D01*
X401Y1425D02*
X407Y1425D01*
X973Y1425D02*
X982Y1425D01*
X1085Y1425D02*
X1094Y1425D01*
X1159Y1425D02*
X1165Y1425D01*
X93Y1424D02*
X125Y1424D01*
X157Y1424D02*
X163Y1424D01*
X173Y1424D02*
X175Y1424D01*
X337Y1424D02*
X343Y1424D01*
X351Y1424D02*
X358Y1424D01*
X401Y1424D02*
X407Y1424D01*
X974Y1424D02*
X983Y1424D01*
X1084Y1424D02*
X1093Y1424D01*
X1159Y1424D02*
X1165Y1424D01*
X93Y1423D02*
X100Y1423D01*
X116Y1423D02*
X125Y1423D01*
X157Y1423D02*
X163Y1423D01*
X172Y1423D02*
X176Y1423D01*
X337Y1423D02*
X343Y1423D01*
X351Y1423D02*
X358Y1423D01*
X401Y1423D02*
X407Y1423D01*
X975Y1423D02*
X984Y1423D01*
X1083Y1423D02*
X1092Y1423D01*
X1159Y1423D02*
X1165Y1423D01*
X93Y1422D02*
X99Y1422D01*
X118Y1422D02*
X126Y1422D01*
X157Y1422D02*
X163Y1422D01*
X171Y1422D02*
X177Y1422D01*
X337Y1422D02*
X343Y1422D01*
X352Y1422D02*
X359Y1422D01*
X401Y1422D02*
X407Y1422D01*
X416Y1422D02*
X419Y1422D01*
X975Y1422D02*
X984Y1422D01*
X1082Y1422D02*
X1092Y1422D01*
X1159Y1422D02*
X1165Y1422D01*
X93Y1421D02*
X99Y1421D01*
X119Y1421D02*
X126Y1421D01*
X157Y1421D02*
X163Y1421D01*
X171Y1421D02*
X177Y1421D01*
X337Y1421D02*
X343Y1421D01*
X352Y1421D02*
X360Y1421D01*
X401Y1421D02*
X407Y1421D01*
X415Y1421D02*
X420Y1421D01*
X976Y1421D02*
X985Y1421D01*
X1082Y1421D02*
X1091Y1421D01*
X1159Y1421D02*
X1165Y1421D01*
X93Y1420D02*
X99Y1420D01*
X120Y1420D02*
X126Y1420D01*
X157Y1420D02*
X163Y1420D01*
X171Y1420D02*
X177Y1420D01*
X337Y1420D02*
X343Y1420D01*
X353Y1420D02*
X360Y1420D01*
X401Y1420D02*
X407Y1420D01*
X415Y1420D02*
X420Y1420D01*
X977Y1420D02*
X986Y1420D01*
X1081Y1420D02*
X1090Y1420D01*
X1159Y1420D02*
X1165Y1420D01*
X93Y1419D02*
X99Y1419D01*
X120Y1419D02*
X127Y1419D01*
X157Y1419D02*
X163Y1419D01*
X171Y1419D02*
X177Y1419D01*
X337Y1419D02*
X343Y1419D01*
X354Y1419D02*
X361Y1419D01*
X401Y1419D02*
X407Y1419D01*
X414Y1419D02*
X420Y1419D01*
X978Y1419D02*
X987Y1419D01*
X1080Y1419D02*
X1089Y1419D01*
X1159Y1419D02*
X1181Y1419D01*
X93Y1418D02*
X99Y1418D01*
X121Y1418D02*
X127Y1418D01*
X157Y1418D02*
X163Y1418D01*
X171Y1418D02*
X177Y1418D01*
X337Y1418D02*
X343Y1418D01*
X354Y1418D02*
X361Y1418D01*
X401Y1418D02*
X407Y1418D01*
X414Y1418D02*
X420Y1418D01*
X978Y1418D02*
X987Y1418D01*
X1080Y1418D02*
X1089Y1418D01*
X1159Y1418D02*
X1182Y1418D01*
X93Y1417D02*
X99Y1417D01*
X121Y1417D02*
X127Y1417D01*
X157Y1417D02*
X163Y1417D01*
X171Y1417D02*
X177Y1417D01*
X337Y1417D02*
X343Y1417D01*
X355Y1417D02*
X362Y1417D01*
X401Y1417D02*
X407Y1417D01*
X414Y1417D02*
X420Y1417D01*
X979Y1417D02*
X987Y1417D01*
X1080Y1417D02*
X1088Y1417D01*
X1159Y1417D02*
X1182Y1417D01*
X93Y1416D02*
X99Y1416D01*
X121Y1416D02*
X127Y1416D01*
X157Y1416D02*
X163Y1416D01*
X171Y1416D02*
X177Y1416D01*
X337Y1416D02*
X343Y1416D01*
X355Y1416D02*
X362Y1416D01*
X401Y1416D02*
X407Y1416D01*
X414Y1416D02*
X420Y1416D01*
X980Y1416D02*
X987Y1416D01*
X1080Y1416D02*
X1087Y1416D01*
X1159Y1416D02*
X1182Y1416D01*
X93Y1415D02*
X99Y1415D01*
X121Y1415D02*
X127Y1415D01*
X157Y1415D02*
X163Y1415D01*
X171Y1415D02*
X177Y1415D01*
X337Y1415D02*
X343Y1415D01*
X356Y1415D02*
X363Y1415D01*
X401Y1415D02*
X407Y1415D01*
X414Y1415D02*
X420Y1415D01*
X981Y1415D02*
X986Y1415D01*
X1081Y1415D02*
X1086Y1415D01*
X1159Y1415D02*
X1182Y1415D01*
X93Y1414D02*
X99Y1414D01*
X121Y1414D02*
X127Y1414D01*
X157Y1414D02*
X163Y1414D01*
X171Y1414D02*
X177Y1414D01*
X337Y1414D02*
X343Y1414D01*
X356Y1414D02*
X364Y1414D01*
X401Y1414D02*
X407Y1414D01*
X414Y1414D02*
X420Y1414D01*
X982Y1414D02*
X984Y1414D01*
X1082Y1414D02*
X1085Y1414D01*
X1159Y1414D02*
X1181Y1414D01*
X93Y1413D02*
X99Y1413D01*
X121Y1413D02*
X127Y1413D01*
X157Y1413D02*
X163Y1413D01*
X171Y1413D02*
X177Y1413D01*
X337Y1413D02*
X343Y1413D01*
X357Y1413D02*
X364Y1413D01*
X401Y1413D02*
X407Y1413D01*
X414Y1413D02*
X420Y1413D01*
X1161Y1413D02*
X1180Y1413D01*
X93Y1412D02*
X99Y1412D01*
X121Y1412D02*
X127Y1412D01*
X157Y1412D02*
X163Y1412D01*
X171Y1412D02*
X177Y1412D01*
X337Y1412D02*
X343Y1412D01*
X358Y1412D02*
X365Y1412D01*
X401Y1412D02*
X407Y1412D01*
X414Y1412D02*
X420Y1412D01*
X93Y1411D02*
X99Y1411D01*
X120Y1411D02*
X127Y1411D01*
X157Y1411D02*
X163Y1411D01*
X171Y1411D02*
X177Y1411D01*
X337Y1411D02*
X343Y1411D01*
X358Y1411D02*
X365Y1411D01*
X401Y1411D02*
X407Y1411D01*
X414Y1411D02*
X420Y1411D01*
X93Y1410D02*
X99Y1410D01*
X120Y1410D02*
X127Y1410D01*
X157Y1410D02*
X163Y1410D01*
X171Y1410D02*
X177Y1410D01*
X337Y1410D02*
X343Y1410D01*
X359Y1410D02*
X366Y1410D01*
X401Y1410D02*
X407Y1410D01*
X414Y1410D02*
X420Y1410D01*
X93Y1409D02*
X99Y1409D01*
X119Y1409D02*
X126Y1409D01*
X157Y1409D02*
X163Y1409D01*
X171Y1409D02*
X177Y1409D01*
X337Y1409D02*
X343Y1409D01*
X359Y1409D02*
X367Y1409D01*
X401Y1409D02*
X407Y1409D01*
X414Y1409D02*
X420Y1409D01*
X2167Y1409D02*
X2169Y1409D01*
X2193Y1409D02*
X2211Y1409D01*
X93Y1408D02*
X99Y1408D01*
X118Y1408D02*
X126Y1408D01*
X157Y1408D02*
X163Y1408D01*
X171Y1408D02*
X177Y1408D01*
X337Y1408D02*
X343Y1408D01*
X360Y1408D02*
X367Y1408D01*
X401Y1408D02*
X407Y1408D01*
X414Y1408D02*
X420Y1408D01*
X2166Y1408D02*
X2170Y1408D01*
X2192Y1408D02*
X2211Y1408D01*
X93Y1407D02*
X100Y1407D01*
X116Y1407D02*
X125Y1407D01*
X157Y1407D02*
X163Y1407D01*
X171Y1407D02*
X177Y1407D01*
X337Y1407D02*
X343Y1407D01*
X361Y1407D02*
X368Y1407D01*
X401Y1407D02*
X407Y1407D01*
X414Y1407D02*
X420Y1407D01*
X2165Y1407D02*
X2171Y1407D01*
X2191Y1407D02*
X2211Y1407D01*
X93Y1406D02*
X125Y1406D01*
X145Y1406D02*
X177Y1406D01*
X337Y1406D02*
X343Y1406D01*
X361Y1406D02*
X368Y1406D01*
X401Y1406D02*
X407Y1406D01*
X414Y1406D02*
X420Y1406D01*
X2165Y1406D02*
X2171Y1406D01*
X2191Y1406D02*
X2211Y1406D01*
X93Y1405D02*
X124Y1405D01*
X144Y1405D02*
X177Y1405D01*
X337Y1405D02*
X343Y1405D01*
X362Y1405D02*
X369Y1405D01*
X400Y1405D02*
X407Y1405D01*
X414Y1405D02*
X420Y1405D01*
X2165Y1405D02*
X2171Y1405D01*
X2191Y1405D02*
X2211Y1405D01*
X93Y1404D02*
X123Y1404D01*
X144Y1404D02*
X177Y1404D01*
X337Y1404D02*
X343Y1404D01*
X362Y1404D02*
X369Y1404D01*
X388Y1404D02*
X420Y1404D01*
X2165Y1404D02*
X2171Y1404D01*
X2192Y1404D02*
X2211Y1404D01*
X93Y1403D02*
X122Y1403D01*
X144Y1403D02*
X177Y1403D01*
X337Y1403D02*
X343Y1403D01*
X363Y1403D02*
X370Y1403D01*
X387Y1403D02*
X420Y1403D01*
X2165Y1403D02*
X2171Y1403D01*
X2193Y1403D02*
X2211Y1403D01*
X93Y1402D02*
X121Y1402D01*
X144Y1402D02*
X177Y1402D01*
X337Y1402D02*
X343Y1402D01*
X363Y1402D02*
X370Y1402D01*
X387Y1402D02*
X420Y1402D01*
X2165Y1402D02*
X2171Y1402D01*
X2205Y1402D02*
X2211Y1402D01*
X93Y1401D02*
X119Y1401D01*
X144Y1401D02*
X176Y1401D01*
X337Y1401D02*
X343Y1401D01*
X364Y1401D02*
X370Y1401D01*
X387Y1401D02*
X420Y1401D01*
X2165Y1401D02*
X2171Y1401D01*
X2205Y1401D02*
X2211Y1401D01*
X94Y1400D02*
X116Y1400D01*
X145Y1400D02*
X175Y1400D01*
X337Y1400D02*
X343Y1400D01*
X365Y1400D02*
X370Y1400D01*
X387Y1400D02*
X420Y1400D01*
X2165Y1400D02*
X2171Y1400D01*
X2205Y1400D02*
X2211Y1400D01*
X338Y1399D02*
X342Y1399D01*
X365Y1399D02*
X369Y1399D01*
X388Y1399D02*
X419Y1399D01*
X2165Y1399D02*
X2171Y1399D01*
X2205Y1399D02*
X2211Y1399D01*
X340Y1398D02*
X340Y1398D01*
X367Y1398D02*
X368Y1398D01*
X390Y1398D02*
X418Y1398D01*
X2165Y1398D02*
X2171Y1398D01*
X2205Y1398D02*
X2211Y1398D01*
X2165Y1397D02*
X2171Y1397D01*
X2205Y1397D02*
X2211Y1397D01*
X2165Y1396D02*
X2171Y1396D01*
X2205Y1396D02*
X2211Y1396D01*
X2165Y1395D02*
X2171Y1395D01*
X2205Y1395D02*
X2211Y1395D01*
X2165Y1394D02*
X2171Y1394D01*
X2205Y1394D02*
X2211Y1394D01*
X2165Y1393D02*
X2171Y1393D01*
X2205Y1393D02*
X2211Y1393D01*
X2165Y1392D02*
X2171Y1392D01*
X2205Y1392D02*
X2211Y1392D01*
X2165Y1391D02*
X2171Y1391D01*
X2205Y1391D02*
X2211Y1391D01*
X2165Y1390D02*
X2171Y1390D01*
X2205Y1390D02*
X2211Y1390D01*
X2165Y1389D02*
X2171Y1389D01*
X2205Y1389D02*
X2211Y1389D01*
X2165Y1388D02*
X2171Y1388D01*
X2205Y1388D02*
X2211Y1388D01*
X2165Y1387D02*
X2171Y1387D01*
X2205Y1387D02*
X2211Y1387D01*
X2165Y1386D02*
X2171Y1386D01*
X2205Y1386D02*
X2211Y1386D01*
X2165Y1385D02*
X2171Y1385D01*
X2205Y1385D02*
X2211Y1385D01*
X2165Y1384D02*
X2171Y1384D01*
X2205Y1384D02*
X2211Y1384D01*
X2165Y1383D02*
X2171Y1383D01*
X2205Y1383D02*
X2211Y1383D01*
X2165Y1382D02*
X2171Y1382D01*
X2205Y1382D02*
X2211Y1382D01*
X2165Y1381D02*
X2171Y1381D01*
X2205Y1381D02*
X2211Y1381D01*
X2165Y1380D02*
X2171Y1380D01*
X2205Y1380D02*
X2211Y1380D01*
X2145Y1379D02*
X2149Y1379D01*
X2165Y1379D02*
X2171Y1379D01*
X2205Y1379D02*
X2211Y1379D01*
X2220Y1379D02*
X2223Y1379D01*
X2145Y1378D02*
X2150Y1378D01*
X2165Y1378D02*
X2171Y1378D01*
X2205Y1378D02*
X2211Y1378D01*
X2219Y1378D02*
X2224Y1378D01*
X2144Y1377D02*
X2150Y1377D01*
X2165Y1377D02*
X2171Y1377D01*
X2205Y1377D02*
X2211Y1377D01*
X2219Y1377D02*
X2224Y1377D01*
X2144Y1376D02*
X2150Y1376D01*
X2165Y1376D02*
X2171Y1376D01*
X2205Y1376D02*
X2211Y1376D01*
X2218Y1376D02*
X2224Y1376D01*
X2144Y1375D02*
X2150Y1375D01*
X2165Y1375D02*
X2171Y1375D01*
X2205Y1375D02*
X2211Y1375D01*
X2218Y1375D02*
X2224Y1375D01*
X2144Y1374D02*
X2150Y1374D01*
X2165Y1374D02*
X2171Y1374D01*
X2205Y1374D02*
X2211Y1374D01*
X2218Y1374D02*
X2224Y1374D01*
X2144Y1373D02*
X2150Y1373D01*
X2165Y1373D02*
X2171Y1373D01*
X2205Y1373D02*
X2211Y1373D01*
X2218Y1373D02*
X2224Y1373D01*
X2144Y1372D02*
X2150Y1372D01*
X2165Y1372D02*
X2171Y1372D01*
X2205Y1372D02*
X2211Y1372D01*
X2218Y1372D02*
X2224Y1372D01*
X2144Y1371D02*
X2150Y1371D01*
X2165Y1371D02*
X2171Y1371D01*
X2205Y1371D02*
X2211Y1371D01*
X2218Y1371D02*
X2224Y1371D01*
X2144Y1370D02*
X2150Y1370D01*
X2165Y1370D02*
X2171Y1370D01*
X2205Y1370D02*
X2211Y1370D01*
X2218Y1370D02*
X2224Y1370D01*
X2144Y1369D02*
X2150Y1369D01*
X2165Y1369D02*
X2171Y1369D01*
X2205Y1369D02*
X2211Y1369D01*
X2218Y1369D02*
X2224Y1369D01*
X2144Y1368D02*
X2150Y1368D01*
X2165Y1368D02*
X2171Y1368D01*
X2205Y1368D02*
X2211Y1368D01*
X2218Y1368D02*
X2224Y1368D01*
X2144Y1367D02*
X2150Y1367D01*
X2165Y1367D02*
X2171Y1367D01*
X2205Y1367D02*
X2211Y1367D01*
X2218Y1367D02*
X2224Y1367D01*
X2144Y1366D02*
X2150Y1366D01*
X2165Y1366D02*
X2171Y1366D01*
X2205Y1366D02*
X2211Y1366D01*
X2218Y1366D02*
X2224Y1366D01*
X2144Y1365D02*
X2150Y1365D01*
X2165Y1365D02*
X2171Y1365D01*
X2205Y1365D02*
X2211Y1365D01*
X2218Y1365D02*
X2224Y1365D01*
X2144Y1364D02*
X2151Y1364D01*
X2164Y1364D02*
X2171Y1364D01*
X2205Y1364D02*
X2211Y1364D01*
X2218Y1364D02*
X2224Y1364D01*
X2145Y1363D02*
X2152Y1363D01*
X2163Y1363D02*
X2171Y1363D01*
X2205Y1363D02*
X2211Y1363D01*
X2218Y1363D02*
X2224Y1363D01*
X2145Y1362D02*
X2170Y1362D01*
X2193Y1362D02*
X2224Y1362D01*
X2146Y1361D02*
X2170Y1361D01*
X2192Y1361D02*
X2224Y1361D01*
X2146Y1360D02*
X2169Y1360D01*
X2191Y1360D02*
X2224Y1360D01*
X2147Y1359D02*
X2168Y1359D01*
X2191Y1359D02*
X2224Y1359D01*
X2148Y1358D02*
X2167Y1358D01*
X2191Y1358D02*
X2224Y1358D01*
X2149Y1357D02*
X2166Y1357D01*
X2191Y1357D02*
X2224Y1357D01*
X2151Y1356D02*
X2164Y1356D01*
X2192Y1356D02*
X2223Y1356D01*
X756Y1332D02*
X758Y1332D01*
X800Y1332D02*
X803Y1332D01*
X828Y1332D02*
X831Y1332D01*
X755Y1331D02*
X759Y1331D01*
X799Y1331D02*
X804Y1331D01*
X827Y1331D02*
X832Y1331D01*
X754Y1330D02*
X760Y1330D01*
X799Y1330D02*
X805Y1330D01*
X827Y1330D02*
X832Y1330D01*
X754Y1329D02*
X760Y1329D01*
X799Y1329D02*
X806Y1329D01*
X826Y1329D02*
X832Y1329D01*
X754Y1328D02*
X760Y1328D01*
X799Y1328D02*
X806Y1328D01*
X826Y1328D02*
X832Y1328D01*
X754Y1327D02*
X760Y1327D01*
X800Y1327D02*
X807Y1327D01*
X826Y1327D02*
X832Y1327D01*
X754Y1326D02*
X760Y1326D01*
X800Y1326D02*
X807Y1326D01*
X826Y1326D02*
X832Y1326D01*
X754Y1325D02*
X760Y1325D01*
X801Y1325D02*
X808Y1325D01*
X826Y1325D02*
X832Y1325D01*
X754Y1324D02*
X760Y1324D01*
X801Y1324D02*
X808Y1324D01*
X826Y1324D02*
X832Y1324D01*
X754Y1323D02*
X760Y1323D01*
X802Y1323D02*
X809Y1323D01*
X826Y1323D02*
X832Y1323D01*
X982Y1323D02*
X985Y1323D01*
X1082Y1323D02*
X1085Y1323D01*
X754Y1322D02*
X760Y1322D01*
X802Y1322D02*
X810Y1322D01*
X826Y1322D02*
X832Y1322D01*
X981Y1322D02*
X986Y1322D01*
X1081Y1322D02*
X1086Y1322D01*
X754Y1321D02*
X760Y1321D01*
X803Y1321D02*
X810Y1321D01*
X826Y1321D02*
X832Y1321D01*
X980Y1321D02*
X987Y1321D01*
X1080Y1321D02*
X1087Y1321D01*
X754Y1320D02*
X760Y1320D01*
X804Y1320D02*
X811Y1320D01*
X826Y1320D02*
X832Y1320D01*
X979Y1320D02*
X987Y1320D01*
X1080Y1320D02*
X1088Y1320D01*
X754Y1319D02*
X760Y1319D01*
X804Y1319D02*
X811Y1319D01*
X826Y1319D02*
X832Y1319D01*
X978Y1319D02*
X987Y1319D01*
X1080Y1319D02*
X1089Y1319D01*
X754Y1318D02*
X760Y1318D01*
X805Y1318D02*
X812Y1318D01*
X826Y1318D02*
X832Y1318D01*
X977Y1318D02*
X987Y1318D01*
X1080Y1318D02*
X1090Y1318D01*
X754Y1317D02*
X760Y1317D01*
X805Y1317D02*
X813Y1317D01*
X826Y1317D02*
X832Y1317D01*
X977Y1317D02*
X986Y1317D01*
X1081Y1317D02*
X1090Y1317D01*
X754Y1316D02*
X760Y1316D01*
X806Y1316D02*
X813Y1316D01*
X826Y1316D02*
X832Y1316D01*
X976Y1316D02*
X985Y1316D01*
X1082Y1316D02*
X1091Y1316D01*
X754Y1315D02*
X760Y1315D01*
X807Y1315D02*
X814Y1315D01*
X826Y1315D02*
X832Y1315D01*
X975Y1315D02*
X984Y1315D01*
X1083Y1315D02*
X1092Y1315D01*
X752Y1314D02*
X781Y1314D01*
X807Y1314D02*
X814Y1314D01*
X826Y1314D02*
X832Y1314D01*
X974Y1314D02*
X983Y1314D01*
X1083Y1314D02*
X1092Y1314D01*
X751Y1313D02*
X781Y1313D01*
X808Y1313D02*
X815Y1313D01*
X826Y1313D02*
X832Y1313D01*
X974Y1313D02*
X983Y1313D01*
X1084Y1313D02*
X1093Y1313D01*
X751Y1312D02*
X781Y1312D01*
X808Y1312D02*
X815Y1312D01*
X826Y1312D02*
X832Y1312D01*
X973Y1312D02*
X982Y1312D01*
X1085Y1312D02*
X1094Y1312D01*
X751Y1311D02*
X781Y1311D01*
X809Y1311D02*
X816Y1311D01*
X826Y1311D02*
X832Y1311D01*
X972Y1311D02*
X981Y1311D01*
X1086Y1311D02*
X1095Y1311D01*
X1166Y1311D02*
X1174Y1311D01*
X751Y1310D02*
X781Y1310D01*
X809Y1310D02*
X817Y1310D01*
X826Y1310D02*
X832Y1310D01*
X972Y1310D02*
X980Y1310D01*
X1087Y1310D02*
X1095Y1310D01*
X1164Y1310D02*
X1177Y1310D01*
X752Y1309D02*
X781Y1309D01*
X810Y1309D02*
X817Y1309D01*
X826Y1309D02*
X832Y1309D01*
X971Y1309D02*
X980Y1309D01*
X1087Y1309D02*
X1096Y1309D01*
X1162Y1309D02*
X1179Y1309D01*
X754Y1308D02*
X781Y1308D01*
X811Y1308D02*
X818Y1308D01*
X826Y1308D02*
X832Y1308D01*
X971Y1308D02*
X979Y1308D01*
X1088Y1308D02*
X1096Y1308D01*
X1160Y1308D02*
X1181Y1308D01*
X754Y1307D02*
X760Y1307D01*
X775Y1307D02*
X781Y1307D01*
X811Y1307D02*
X818Y1307D01*
X826Y1307D02*
X832Y1307D01*
X970Y1307D02*
X978Y1307D01*
X1089Y1307D02*
X1097Y1307D01*
X1158Y1307D02*
X1183Y1307D01*
X754Y1306D02*
X760Y1306D01*
X775Y1306D02*
X781Y1306D01*
X812Y1306D02*
X819Y1306D01*
X826Y1306D02*
X832Y1306D01*
X970Y1306D02*
X978Y1306D01*
X1089Y1306D02*
X1097Y1306D01*
X1156Y1306D02*
X1185Y1306D01*
X754Y1305D02*
X760Y1305D01*
X775Y1305D02*
X781Y1305D01*
X812Y1305D02*
X820Y1305D01*
X826Y1305D02*
X832Y1305D01*
X969Y1305D02*
X977Y1305D01*
X1090Y1305D02*
X1098Y1305D01*
X1154Y1305D02*
X1187Y1305D01*
X754Y1304D02*
X760Y1304D01*
X775Y1304D02*
X781Y1304D01*
X813Y1304D02*
X820Y1304D01*
X826Y1304D02*
X832Y1304D01*
X968Y1304D02*
X976Y1304D01*
X1090Y1304D02*
X1099Y1304D01*
X1152Y1304D02*
X1166Y1304D01*
X1174Y1304D02*
X1189Y1304D01*
X754Y1303D02*
X760Y1303D01*
X775Y1303D02*
X781Y1303D01*
X807Y1303D02*
X832Y1303D01*
X968Y1303D02*
X976Y1303D01*
X1091Y1303D02*
X1099Y1303D01*
X1150Y1303D02*
X1164Y1303D01*
X1176Y1303D02*
X1191Y1303D01*
X754Y1302D02*
X760Y1302D01*
X775Y1302D02*
X781Y1302D01*
X805Y1302D02*
X832Y1302D01*
X968Y1302D02*
X975Y1302D01*
X1092Y1302D02*
X1099Y1302D01*
X1148Y1302D02*
X1162Y1302D01*
X1178Y1302D02*
X1192Y1302D01*
X754Y1301D02*
X760Y1301D01*
X775Y1301D02*
X781Y1301D01*
X803Y1301D02*
X832Y1301D01*
X967Y1301D02*
X975Y1301D01*
X1092Y1301D02*
X1100Y1301D01*
X1147Y1301D02*
X1160Y1301D01*
X1180Y1301D02*
X1194Y1301D01*
X754Y1300D02*
X760Y1300D01*
X775Y1300D02*
X781Y1300D01*
X802Y1300D02*
X832Y1300D01*
X967Y1300D02*
X974Y1300D01*
X1093Y1300D02*
X1100Y1300D01*
X1146Y1300D02*
X1158Y1300D01*
X1182Y1300D02*
X1194Y1300D01*
X754Y1299D02*
X760Y1299D01*
X775Y1299D02*
X781Y1299D01*
X801Y1299D02*
X832Y1299D01*
X966Y1299D02*
X974Y1299D01*
X1093Y1299D02*
X1101Y1299D01*
X1145Y1299D02*
X1156Y1299D01*
X1184Y1299D02*
X1195Y1299D01*
X754Y1298D02*
X760Y1298D01*
X775Y1298D02*
X781Y1298D01*
X800Y1298D02*
X832Y1298D01*
X966Y1298D02*
X973Y1298D01*
X1094Y1298D02*
X1101Y1298D01*
X1145Y1298D02*
X1154Y1298D01*
X1186Y1298D02*
X1196Y1298D01*
X754Y1297D02*
X760Y1297D01*
X775Y1297D02*
X781Y1297D01*
X800Y1297D02*
X832Y1297D01*
X965Y1297D02*
X973Y1297D01*
X1094Y1297D02*
X1102Y1297D01*
X1144Y1297D02*
X1152Y1297D01*
X1188Y1297D02*
X1196Y1297D01*
X754Y1296D02*
X760Y1296D01*
X775Y1296D02*
X781Y1296D01*
X799Y1296D02*
X808Y1296D01*
X826Y1296D02*
X832Y1296D01*
X965Y1296D02*
X972Y1296D01*
X1094Y1296D02*
X1102Y1296D01*
X1144Y1296D02*
X1151Y1296D01*
X1190Y1296D02*
X1196Y1296D01*
X754Y1295D02*
X760Y1295D01*
X775Y1295D02*
X781Y1295D01*
X799Y1295D02*
X806Y1295D01*
X826Y1295D02*
X832Y1295D01*
X965Y1295D02*
X972Y1295D01*
X1095Y1295D02*
X1102Y1295D01*
X1144Y1295D02*
X1150Y1295D01*
X1190Y1295D02*
X1197Y1295D01*
X754Y1294D02*
X760Y1294D01*
X775Y1294D02*
X781Y1294D01*
X799Y1294D02*
X805Y1294D01*
X826Y1294D02*
X832Y1294D01*
X964Y1294D02*
X972Y1294D01*
X1095Y1294D02*
X1103Y1294D01*
X1144Y1294D02*
X1150Y1294D01*
X1191Y1294D02*
X1197Y1294D01*
X754Y1293D02*
X760Y1293D01*
X775Y1293D02*
X781Y1293D01*
X799Y1293D02*
X805Y1293D01*
X826Y1293D02*
X832Y1293D01*
X964Y1293D02*
X971Y1293D01*
X1096Y1293D02*
X1103Y1293D01*
X1144Y1293D02*
X1150Y1293D01*
X1191Y1293D02*
X1197Y1293D01*
X754Y1292D02*
X760Y1292D01*
X775Y1292D02*
X781Y1292D01*
X799Y1292D02*
X805Y1292D01*
X826Y1292D02*
X832Y1292D01*
X964Y1292D02*
X971Y1292D01*
X1096Y1292D02*
X1103Y1292D01*
X1144Y1292D02*
X1150Y1292D01*
X1191Y1292D02*
X1197Y1292D01*
X754Y1291D02*
X760Y1291D01*
X775Y1291D02*
X781Y1291D01*
X799Y1291D02*
X805Y1291D01*
X826Y1291D02*
X832Y1291D01*
X963Y1291D02*
X971Y1291D01*
X1096Y1291D02*
X1104Y1291D01*
X1144Y1291D02*
X1150Y1291D01*
X1191Y1291D02*
X1197Y1291D01*
X754Y1290D02*
X760Y1290D01*
X775Y1290D02*
X781Y1290D01*
X799Y1290D02*
X805Y1290D01*
X826Y1290D02*
X832Y1290D01*
X963Y1290D02*
X970Y1290D01*
X1097Y1290D02*
X1104Y1290D01*
X1144Y1290D02*
X1150Y1290D01*
X1191Y1290D02*
X1197Y1290D01*
X754Y1289D02*
X760Y1289D01*
X775Y1289D02*
X781Y1289D01*
X799Y1289D02*
X805Y1289D01*
X826Y1289D02*
X832Y1289D01*
X963Y1289D02*
X970Y1289D01*
X1097Y1289D02*
X1104Y1289D01*
X1144Y1289D02*
X1150Y1289D01*
X1191Y1289D02*
X1197Y1289D01*
X754Y1288D02*
X760Y1288D01*
X775Y1288D02*
X781Y1288D01*
X799Y1288D02*
X805Y1288D01*
X826Y1288D02*
X832Y1288D01*
X963Y1288D02*
X970Y1288D01*
X1097Y1288D02*
X1104Y1288D01*
X1144Y1288D02*
X1150Y1288D01*
X1191Y1288D02*
X1197Y1288D01*
X754Y1287D02*
X760Y1287D01*
X775Y1287D02*
X781Y1287D01*
X799Y1287D02*
X806Y1287D01*
X826Y1287D02*
X832Y1287D01*
X962Y1287D02*
X969Y1287D01*
X1098Y1287D02*
X1105Y1287D01*
X1144Y1287D02*
X1150Y1287D01*
X1191Y1287D02*
X1197Y1287D01*
X755Y1286D02*
X759Y1286D01*
X775Y1286D02*
X781Y1286D01*
X799Y1286D02*
X807Y1286D01*
X826Y1286D02*
X832Y1286D01*
X962Y1286D02*
X969Y1286D01*
X1098Y1286D02*
X1105Y1286D01*
X1144Y1286D02*
X1150Y1286D01*
X1191Y1286D02*
X1197Y1286D01*
X756Y1285D02*
X758Y1285D01*
X775Y1285D02*
X781Y1285D01*
X800Y1285D02*
X832Y1285D01*
X962Y1285D02*
X969Y1285D01*
X1098Y1285D02*
X1105Y1285D01*
X1144Y1285D02*
X1150Y1285D01*
X1191Y1285D02*
X1197Y1285D01*
X775Y1284D02*
X781Y1284D01*
X800Y1284D02*
X832Y1284D01*
X962Y1284D02*
X969Y1284D01*
X1098Y1284D02*
X1105Y1284D01*
X1144Y1284D02*
X1150Y1284D01*
X1191Y1284D02*
X1197Y1284D01*
X775Y1283D02*
X781Y1283D01*
X801Y1283D02*
X832Y1283D01*
X961Y1283D02*
X968Y1283D01*
X1098Y1283D02*
X1106Y1283D01*
X1144Y1283D02*
X1150Y1283D01*
X1191Y1283D02*
X1197Y1283D01*
X775Y1282D02*
X781Y1282D01*
X802Y1282D02*
X832Y1282D01*
X961Y1282D02*
X968Y1282D01*
X1099Y1282D02*
X1106Y1282D01*
X1144Y1282D02*
X1150Y1282D01*
X1191Y1282D02*
X1197Y1282D01*
X775Y1281D02*
X781Y1281D01*
X803Y1281D02*
X832Y1281D01*
X961Y1281D02*
X968Y1281D01*
X1099Y1281D02*
X1106Y1281D01*
X1144Y1281D02*
X1150Y1281D01*
X1191Y1281D02*
X1197Y1281D01*
X775Y1280D02*
X780Y1280D01*
X804Y1280D02*
X832Y1280D01*
X961Y1280D02*
X968Y1280D01*
X1099Y1280D02*
X1106Y1280D01*
X1144Y1280D02*
X1149Y1280D01*
X1191Y1280D02*
X1197Y1280D01*
X777Y1279D02*
X779Y1279D01*
X806Y1279D02*
X832Y1279D01*
X961Y1279D02*
X968Y1279D01*
X1099Y1279D02*
X1106Y1279D01*
X1144Y1279D02*
X1149Y1279D01*
X1191Y1279D02*
X1196Y1279D01*
X961Y1278D02*
X968Y1278D01*
X1099Y1278D02*
X1106Y1278D01*
X1145Y1278D02*
X1148Y1278D01*
X1192Y1278D02*
X1196Y1278D01*
X960Y1277D02*
X968Y1277D01*
X1099Y1277D02*
X1106Y1277D01*
X960Y1276D02*
X967Y1276D01*
X1100Y1276D02*
X1107Y1276D01*
X960Y1275D02*
X967Y1275D01*
X1100Y1275D02*
X1107Y1275D01*
X960Y1274D02*
X967Y1274D01*
X1100Y1274D02*
X1107Y1274D01*
X960Y1273D02*
X967Y1273D01*
X1100Y1273D02*
X1107Y1273D01*
X960Y1272D02*
X967Y1272D01*
X1100Y1272D02*
X1107Y1272D01*
X960Y1271D02*
X967Y1271D01*
X1100Y1271D02*
X1107Y1271D01*
X960Y1270D02*
X967Y1270D01*
X1100Y1270D02*
X1107Y1270D01*
X960Y1269D02*
X967Y1269D01*
X1100Y1269D02*
X1107Y1269D01*
X960Y1268D02*
X967Y1268D01*
X1100Y1268D02*
X1107Y1268D01*
X960Y1267D02*
X967Y1267D01*
X1100Y1267D02*
X1107Y1267D01*
X960Y1266D02*
X967Y1266D01*
X1100Y1266D02*
X1107Y1266D01*
X960Y1265D02*
X967Y1265D01*
X1100Y1265D02*
X1107Y1265D01*
X960Y1264D02*
X967Y1264D01*
X1100Y1264D02*
X1107Y1264D01*
X960Y1263D02*
X967Y1263D01*
X1100Y1263D02*
X1107Y1263D01*
X960Y1262D02*
X967Y1262D01*
X1100Y1262D02*
X1107Y1262D01*
X960Y1261D02*
X967Y1261D01*
X1100Y1261D02*
X1107Y1261D01*
X1144Y1261D02*
X1169Y1261D01*
X1192Y1261D02*
X1195Y1261D01*
X961Y1260D02*
X968Y1260D01*
X1099Y1260D02*
X1106Y1260D01*
X1144Y1260D02*
X1171Y1260D01*
X1191Y1260D02*
X1196Y1260D01*
X961Y1259D02*
X968Y1259D01*
X1099Y1259D02*
X1106Y1259D01*
X1144Y1259D02*
X1172Y1259D01*
X1191Y1259D02*
X1197Y1259D01*
X961Y1258D02*
X968Y1258D01*
X1099Y1258D02*
X1106Y1258D01*
X1144Y1258D02*
X1172Y1258D01*
X1191Y1258D02*
X1197Y1258D01*
X961Y1257D02*
X968Y1257D01*
X1099Y1257D02*
X1106Y1257D01*
X1144Y1257D02*
X1173Y1257D01*
X1191Y1257D02*
X1197Y1257D01*
X337Y1256D02*
X363Y1256D01*
X389Y1256D02*
X416Y1256D01*
X961Y1256D02*
X968Y1256D01*
X1099Y1256D02*
X1106Y1256D01*
X1144Y1256D02*
X1173Y1256D01*
X1191Y1256D02*
X1197Y1256D01*
X337Y1255D02*
X365Y1255D01*
X388Y1255D02*
X418Y1255D01*
X961Y1255D02*
X968Y1255D01*
X1099Y1255D02*
X1106Y1255D01*
X1144Y1255D02*
X1173Y1255D01*
X1191Y1255D02*
X1197Y1255D01*
X337Y1254D02*
X367Y1254D01*
X387Y1254D02*
X419Y1254D01*
X961Y1254D02*
X969Y1254D01*
X1098Y1254D02*
X1106Y1254D01*
X1144Y1254D02*
X1150Y1254D01*
X1167Y1254D02*
X1173Y1254D01*
X1191Y1254D02*
X1197Y1254D01*
X337Y1253D02*
X368Y1253D01*
X387Y1253D02*
X419Y1253D01*
X962Y1253D02*
X969Y1253D01*
X1098Y1253D02*
X1105Y1253D01*
X1144Y1253D02*
X1150Y1253D01*
X1167Y1253D02*
X1173Y1253D01*
X1191Y1253D02*
X1197Y1253D01*
X337Y1252D02*
X369Y1252D01*
X387Y1252D02*
X420Y1252D01*
X962Y1252D02*
X969Y1252D01*
X1098Y1252D02*
X1105Y1252D01*
X1144Y1252D02*
X1150Y1252D01*
X1167Y1252D02*
X1173Y1252D01*
X1191Y1252D02*
X1197Y1252D01*
X337Y1251D02*
X369Y1251D01*
X388Y1251D02*
X420Y1251D01*
X962Y1251D02*
X969Y1251D01*
X1098Y1251D02*
X1105Y1251D01*
X1144Y1251D02*
X1150Y1251D01*
X1167Y1251D02*
X1173Y1251D01*
X1191Y1251D02*
X1197Y1251D01*
X337Y1250D02*
X370Y1250D01*
X389Y1250D02*
X420Y1250D01*
X962Y1250D02*
X969Y1250D01*
X1098Y1250D02*
X1105Y1250D01*
X1144Y1250D02*
X1150Y1250D01*
X1167Y1250D02*
X1173Y1250D01*
X1191Y1250D02*
X1197Y1250D01*
X337Y1249D02*
X343Y1249D01*
X363Y1249D02*
X370Y1249D01*
X414Y1249D02*
X420Y1249D01*
X963Y1249D02*
X970Y1249D01*
X1097Y1249D02*
X1104Y1249D01*
X1144Y1249D02*
X1150Y1249D01*
X1167Y1249D02*
X1173Y1249D01*
X1191Y1249D02*
X1197Y1249D01*
X337Y1248D02*
X343Y1248D01*
X364Y1248D02*
X370Y1248D01*
X414Y1248D02*
X420Y1248D01*
X963Y1248D02*
X970Y1248D01*
X1097Y1248D02*
X1104Y1248D01*
X1144Y1248D02*
X1150Y1248D01*
X1167Y1248D02*
X1173Y1248D01*
X1191Y1248D02*
X1197Y1248D01*
X337Y1247D02*
X343Y1247D01*
X364Y1247D02*
X370Y1247D01*
X414Y1247D02*
X420Y1247D01*
X963Y1247D02*
X995Y1247D01*
X1072Y1247D02*
X1104Y1247D01*
X1144Y1247D02*
X1150Y1247D01*
X1167Y1247D02*
X1173Y1247D01*
X1191Y1247D02*
X1197Y1247D01*
X337Y1246D02*
X343Y1246D01*
X364Y1246D02*
X370Y1246D01*
X414Y1246D02*
X420Y1246D01*
X963Y1246D02*
X996Y1246D01*
X1071Y1246D02*
X1104Y1246D01*
X1144Y1246D02*
X1150Y1246D01*
X1167Y1246D02*
X1173Y1246D01*
X1191Y1246D02*
X1197Y1246D01*
X337Y1245D02*
X343Y1245D01*
X364Y1245D02*
X370Y1245D01*
X414Y1245D02*
X420Y1245D01*
X964Y1245D02*
X997Y1245D01*
X1070Y1245D02*
X1103Y1245D01*
X1144Y1245D02*
X1150Y1245D01*
X1167Y1245D02*
X1173Y1245D01*
X1191Y1245D02*
X1197Y1245D01*
X337Y1244D02*
X343Y1244D01*
X364Y1244D02*
X370Y1244D01*
X414Y1244D02*
X420Y1244D01*
X964Y1244D02*
X997Y1244D01*
X1070Y1244D02*
X1103Y1244D01*
X1144Y1244D02*
X1150Y1244D01*
X1167Y1244D02*
X1173Y1244D01*
X1191Y1244D02*
X1197Y1244D01*
X337Y1243D02*
X343Y1243D01*
X364Y1243D02*
X370Y1243D01*
X414Y1243D02*
X420Y1243D01*
X964Y1243D02*
X997Y1243D01*
X1070Y1243D02*
X1103Y1243D01*
X1144Y1243D02*
X1150Y1243D01*
X1167Y1243D02*
X1173Y1243D01*
X1191Y1243D02*
X1197Y1243D01*
X337Y1242D02*
X343Y1242D01*
X364Y1242D02*
X370Y1242D01*
X414Y1242D02*
X420Y1242D01*
X965Y1242D02*
X997Y1242D01*
X1070Y1242D02*
X1102Y1242D01*
X1144Y1242D02*
X1150Y1242D01*
X1167Y1242D02*
X1173Y1242D01*
X1191Y1242D02*
X1197Y1242D01*
X337Y1241D02*
X343Y1241D01*
X364Y1241D02*
X370Y1241D01*
X414Y1241D02*
X420Y1241D01*
X965Y1241D02*
X996Y1241D01*
X1071Y1241D02*
X1102Y1241D01*
X1144Y1241D02*
X1150Y1241D01*
X1167Y1241D02*
X1173Y1241D01*
X1191Y1241D02*
X1197Y1241D01*
X87Y1240D02*
X110Y1240D01*
X139Y1240D02*
X166Y1240D01*
X337Y1240D02*
X343Y1240D01*
X363Y1240D02*
X370Y1240D01*
X414Y1240D02*
X420Y1240D01*
X965Y1240D02*
X995Y1240D01*
X1072Y1240D02*
X1102Y1240D01*
X1144Y1240D02*
X1150Y1240D01*
X1167Y1240D02*
X1173Y1240D01*
X1191Y1240D02*
X1197Y1240D01*
X87Y1239D02*
X112Y1239D01*
X137Y1239D02*
X167Y1239D01*
X337Y1239D02*
X343Y1239D01*
X362Y1239D02*
X370Y1239D01*
X414Y1239D02*
X420Y1239D01*
X966Y1239D02*
X973Y1239D01*
X1093Y1239D02*
X1101Y1239D01*
X1144Y1239D02*
X1150Y1239D01*
X1167Y1239D02*
X1173Y1239D01*
X1191Y1239D02*
X1197Y1239D01*
X87Y1238D02*
X114Y1238D01*
X137Y1238D02*
X169Y1238D01*
X337Y1238D02*
X370Y1238D01*
X414Y1238D02*
X420Y1238D01*
X966Y1238D02*
X974Y1238D01*
X1093Y1238D02*
X1101Y1238D01*
X1144Y1238D02*
X1150Y1238D01*
X1167Y1238D02*
X1173Y1238D01*
X1191Y1238D02*
X1197Y1238D01*
X87Y1237D02*
X115Y1237D01*
X137Y1237D02*
X169Y1237D01*
X337Y1237D02*
X369Y1237D01*
X414Y1237D02*
X420Y1237D01*
X967Y1237D02*
X974Y1237D01*
X1093Y1237D02*
X1100Y1237D01*
X1144Y1237D02*
X1150Y1237D01*
X1167Y1237D02*
X1173Y1237D01*
X1191Y1237D02*
X1197Y1237D01*
X87Y1236D02*
X116Y1236D01*
X137Y1236D02*
X170Y1236D01*
X337Y1236D02*
X368Y1236D01*
X414Y1236D02*
X420Y1236D01*
X967Y1236D02*
X975Y1236D01*
X1092Y1236D02*
X1100Y1236D01*
X1144Y1236D02*
X1150Y1236D01*
X1167Y1236D02*
X1173Y1236D01*
X1191Y1236D02*
X1197Y1236D01*
X87Y1235D02*
X117Y1235D01*
X137Y1235D02*
X170Y1235D01*
X337Y1235D02*
X367Y1235D01*
X414Y1235D02*
X420Y1235D01*
X968Y1235D02*
X975Y1235D01*
X1091Y1235D02*
X1099Y1235D01*
X1144Y1235D02*
X1150Y1235D01*
X1167Y1235D02*
X1173Y1235D01*
X1191Y1235D02*
X1197Y1235D01*
X87Y1234D02*
X118Y1234D01*
X138Y1234D02*
X170Y1234D01*
X337Y1234D02*
X366Y1234D01*
X413Y1234D02*
X420Y1234D01*
X968Y1234D02*
X976Y1234D01*
X1091Y1234D02*
X1099Y1234D01*
X1144Y1234D02*
X1150Y1234D01*
X1167Y1234D02*
X1197Y1234D01*
X87Y1233D02*
X93Y1233D01*
X110Y1233D02*
X119Y1233D01*
X164Y1233D02*
X170Y1233D01*
X337Y1233D02*
X365Y1233D01*
X411Y1233D02*
X420Y1233D01*
X969Y1233D02*
X977Y1233D01*
X1090Y1233D02*
X1098Y1233D01*
X1144Y1233D02*
X1150Y1233D01*
X1167Y1233D02*
X1197Y1233D01*
X87Y1232D02*
X93Y1232D01*
X111Y1232D02*
X119Y1232D01*
X164Y1232D02*
X170Y1232D01*
X337Y1232D02*
X362Y1232D01*
X395Y1232D02*
X419Y1232D01*
X969Y1232D02*
X977Y1232D01*
X1090Y1232D02*
X1098Y1232D01*
X1144Y1232D02*
X1150Y1232D01*
X1168Y1232D02*
X1196Y1232D01*
X87Y1231D02*
X93Y1231D01*
X112Y1231D02*
X120Y1231D01*
X164Y1231D02*
X170Y1231D01*
X337Y1231D02*
X343Y1231D01*
X349Y1231D02*
X356Y1231D01*
X394Y1231D02*
X419Y1231D01*
X970Y1231D02*
X978Y1231D01*
X1089Y1231D02*
X1097Y1231D01*
X1144Y1231D02*
X1150Y1231D01*
X1168Y1231D02*
X1196Y1231D01*
X87Y1230D02*
X93Y1230D01*
X113Y1230D02*
X120Y1230D01*
X164Y1230D02*
X170Y1230D01*
X337Y1230D02*
X343Y1230D01*
X350Y1230D02*
X357Y1230D01*
X394Y1230D02*
X418Y1230D01*
X970Y1230D02*
X978Y1230D01*
X1089Y1230D02*
X1097Y1230D01*
X1144Y1230D02*
X1149Y1230D01*
X1169Y1230D02*
X1195Y1230D01*
X87Y1229D02*
X93Y1229D01*
X114Y1229D02*
X120Y1229D01*
X164Y1229D02*
X170Y1229D01*
X337Y1229D02*
X343Y1229D01*
X350Y1229D02*
X358Y1229D01*
X394Y1229D02*
X418Y1229D01*
X971Y1229D02*
X979Y1229D01*
X1088Y1229D02*
X1096Y1229D01*
X1144Y1229D02*
X1149Y1229D01*
X1169Y1229D02*
X1194Y1229D01*
X87Y1228D02*
X93Y1228D01*
X114Y1228D02*
X120Y1228D01*
X164Y1228D02*
X170Y1228D01*
X337Y1228D02*
X343Y1228D01*
X351Y1228D02*
X358Y1228D01*
X394Y1228D02*
X419Y1228D01*
X971Y1228D02*
X980Y1228D01*
X1087Y1228D02*
X1096Y1228D01*
X1145Y1228D02*
X1148Y1228D01*
X1171Y1228D02*
X1193Y1228D01*
X87Y1227D02*
X93Y1227D01*
X114Y1227D02*
X120Y1227D01*
X164Y1227D02*
X170Y1227D01*
X337Y1227D02*
X343Y1227D01*
X352Y1227D02*
X359Y1227D01*
X395Y1227D02*
X419Y1227D01*
X972Y1227D02*
X981Y1227D01*
X1086Y1227D02*
X1095Y1227D01*
X87Y1226D02*
X93Y1226D01*
X114Y1226D02*
X120Y1226D01*
X164Y1226D02*
X170Y1226D01*
X337Y1226D02*
X343Y1226D01*
X352Y1226D02*
X359Y1226D01*
X397Y1226D02*
X420Y1226D01*
X973Y1226D02*
X981Y1226D01*
X1086Y1226D02*
X1094Y1226D01*
X87Y1225D02*
X93Y1225D01*
X114Y1225D02*
X120Y1225D01*
X164Y1225D02*
X170Y1225D01*
X337Y1225D02*
X343Y1225D01*
X353Y1225D02*
X360Y1225D01*
X413Y1225D02*
X420Y1225D01*
X973Y1225D02*
X982Y1225D01*
X1085Y1225D02*
X1094Y1225D01*
X87Y1224D02*
X93Y1224D01*
X114Y1224D02*
X120Y1224D01*
X164Y1224D02*
X170Y1224D01*
X337Y1224D02*
X343Y1224D01*
X353Y1224D02*
X360Y1224D01*
X414Y1224D02*
X420Y1224D01*
X974Y1224D02*
X983Y1224D01*
X1084Y1224D02*
X1093Y1224D01*
X87Y1223D02*
X93Y1223D01*
X114Y1223D02*
X120Y1223D01*
X164Y1223D02*
X170Y1223D01*
X337Y1223D02*
X343Y1223D01*
X354Y1223D02*
X361Y1223D01*
X414Y1223D02*
X420Y1223D01*
X975Y1223D02*
X984Y1223D01*
X1083Y1223D02*
X1092Y1223D01*
X87Y1222D02*
X93Y1222D01*
X114Y1222D02*
X120Y1222D01*
X164Y1222D02*
X170Y1222D01*
X337Y1222D02*
X343Y1222D01*
X354Y1222D02*
X362Y1222D01*
X414Y1222D02*
X420Y1222D01*
X975Y1222D02*
X985Y1222D01*
X1082Y1222D02*
X1092Y1222D01*
X87Y1221D02*
X93Y1221D01*
X114Y1221D02*
X120Y1221D01*
X164Y1221D02*
X170Y1221D01*
X337Y1221D02*
X343Y1221D01*
X355Y1221D02*
X362Y1221D01*
X414Y1221D02*
X420Y1221D01*
X976Y1221D02*
X985Y1221D01*
X1082Y1221D02*
X1091Y1221D01*
X87Y1220D02*
X93Y1220D01*
X113Y1220D02*
X120Y1220D01*
X164Y1220D02*
X170Y1220D01*
X337Y1220D02*
X343Y1220D01*
X356Y1220D02*
X363Y1220D01*
X414Y1220D02*
X420Y1220D01*
X977Y1220D02*
X986Y1220D01*
X1081Y1220D02*
X1090Y1220D01*
X87Y1219D02*
X93Y1219D01*
X112Y1219D02*
X119Y1219D01*
X164Y1219D02*
X170Y1219D01*
X337Y1219D02*
X343Y1219D01*
X356Y1219D02*
X363Y1219D01*
X414Y1219D02*
X420Y1219D01*
X978Y1219D02*
X987Y1219D01*
X1080Y1219D02*
X1089Y1219D01*
X87Y1218D02*
X93Y1218D01*
X111Y1218D02*
X119Y1218D01*
X164Y1218D02*
X170Y1218D01*
X337Y1218D02*
X343Y1218D01*
X357Y1218D02*
X364Y1218D01*
X414Y1218D02*
X420Y1218D01*
X978Y1218D02*
X987Y1218D01*
X1080Y1218D02*
X1088Y1218D01*
X87Y1217D02*
X93Y1217D01*
X108Y1217D02*
X118Y1217D01*
X164Y1217D02*
X170Y1217D01*
X337Y1217D02*
X343Y1217D01*
X357Y1217D02*
X365Y1217D01*
X414Y1217D02*
X420Y1217D01*
X979Y1217D02*
X987Y1217D01*
X1080Y1217D02*
X1088Y1217D01*
X87Y1216D02*
X118Y1216D01*
X141Y1216D02*
X170Y1216D01*
X337Y1216D02*
X343Y1216D01*
X358Y1216D02*
X365Y1216D01*
X414Y1216D02*
X420Y1216D01*
X980Y1216D02*
X986Y1216D01*
X1080Y1216D02*
X1087Y1216D01*
X87Y1215D02*
X117Y1215D01*
X139Y1215D02*
X170Y1215D01*
X337Y1215D02*
X343Y1215D01*
X359Y1215D02*
X366Y1215D01*
X414Y1215D02*
X420Y1215D01*
X981Y1215D02*
X986Y1215D01*
X1081Y1215D02*
X1086Y1215D01*
X87Y1214D02*
X116Y1214D01*
X138Y1214D02*
X170Y1214D01*
X337Y1214D02*
X343Y1214D01*
X359Y1214D02*
X366Y1214D01*
X414Y1214D02*
X420Y1214D01*
X983Y1214D02*
X984Y1214D01*
X1082Y1214D02*
X1084Y1214D01*
X87Y1213D02*
X116Y1213D01*
X138Y1213D02*
X169Y1213D01*
X337Y1213D02*
X343Y1213D01*
X360Y1213D02*
X367Y1213D01*
X414Y1213D02*
X420Y1213D01*
X87Y1212D02*
X117Y1212D01*
X137Y1212D02*
X168Y1212D01*
X337Y1212D02*
X343Y1212D01*
X360Y1212D02*
X367Y1212D01*
X414Y1212D02*
X420Y1212D01*
X87Y1211D02*
X118Y1211D01*
X137Y1211D02*
X167Y1211D01*
X337Y1211D02*
X343Y1211D01*
X361Y1211D02*
X368Y1211D01*
X414Y1211D02*
X420Y1211D01*
X87Y1210D02*
X118Y1210D01*
X137Y1210D02*
X164Y1210D01*
X337Y1210D02*
X343Y1210D01*
X361Y1210D02*
X369Y1210D01*
X414Y1210D02*
X420Y1210D01*
X87Y1209D02*
X93Y1209D01*
X111Y1209D02*
X119Y1209D01*
X137Y1209D02*
X143Y1209D01*
X337Y1209D02*
X343Y1209D01*
X362Y1209D02*
X369Y1209D01*
X389Y1209D02*
X420Y1209D01*
X87Y1208D02*
X93Y1208D01*
X112Y1208D02*
X119Y1208D01*
X137Y1208D02*
X143Y1208D01*
X337Y1208D02*
X343Y1208D01*
X363Y1208D02*
X370Y1208D01*
X388Y1208D02*
X420Y1208D01*
X87Y1207D02*
X93Y1207D01*
X113Y1207D02*
X120Y1207D01*
X137Y1207D02*
X143Y1207D01*
X337Y1207D02*
X343Y1207D01*
X363Y1207D02*
X370Y1207D01*
X387Y1207D02*
X420Y1207D01*
X87Y1206D02*
X93Y1206D01*
X114Y1206D02*
X120Y1206D01*
X137Y1206D02*
X143Y1206D01*
X337Y1206D02*
X343Y1206D01*
X364Y1206D02*
X370Y1206D01*
X387Y1206D02*
X420Y1206D01*
X87Y1205D02*
X93Y1205D01*
X114Y1205D02*
X120Y1205D01*
X137Y1205D02*
X143Y1205D01*
X337Y1205D02*
X343Y1205D01*
X364Y1205D02*
X370Y1205D01*
X387Y1205D02*
X419Y1205D01*
X87Y1204D02*
X93Y1204D01*
X114Y1204D02*
X120Y1204D01*
X137Y1204D02*
X143Y1204D01*
X338Y1204D02*
X342Y1204D01*
X365Y1204D02*
X370Y1204D01*
X388Y1204D02*
X418Y1204D01*
X87Y1203D02*
X93Y1203D01*
X114Y1203D02*
X120Y1203D01*
X137Y1203D02*
X143Y1203D01*
X339Y1203D02*
X341Y1203D01*
X366Y1203D02*
X369Y1203D01*
X389Y1203D02*
X416Y1203D01*
X87Y1202D02*
X93Y1202D01*
X114Y1202D02*
X120Y1202D01*
X137Y1202D02*
X143Y1202D01*
X87Y1201D02*
X93Y1201D01*
X114Y1201D02*
X120Y1201D01*
X137Y1201D02*
X143Y1201D01*
X87Y1200D02*
X93Y1200D01*
X114Y1200D02*
X120Y1200D01*
X137Y1200D02*
X143Y1200D01*
X87Y1199D02*
X93Y1199D01*
X114Y1199D02*
X120Y1199D01*
X137Y1199D02*
X143Y1199D01*
X87Y1198D02*
X93Y1198D01*
X114Y1198D02*
X120Y1198D01*
X137Y1198D02*
X143Y1198D01*
X87Y1197D02*
X93Y1197D01*
X113Y1197D02*
X120Y1197D01*
X137Y1197D02*
X143Y1197D01*
X87Y1196D02*
X93Y1196D01*
X113Y1196D02*
X120Y1196D01*
X137Y1196D02*
X143Y1196D01*
X87Y1195D02*
X93Y1195D01*
X112Y1195D02*
X119Y1195D01*
X137Y1195D02*
X143Y1195D01*
X87Y1194D02*
X93Y1194D01*
X110Y1194D02*
X119Y1194D01*
X137Y1194D02*
X143Y1194D01*
X87Y1193D02*
X118Y1193D01*
X137Y1193D02*
X168Y1193D01*
X87Y1192D02*
X117Y1192D01*
X137Y1192D02*
X169Y1192D01*
X87Y1191D02*
X117Y1191D01*
X137Y1191D02*
X170Y1191D01*
X87Y1190D02*
X116Y1190D01*
X137Y1190D02*
X170Y1190D01*
X87Y1189D02*
X114Y1189D01*
X137Y1189D02*
X170Y1189D01*
X87Y1188D02*
X113Y1188D01*
X137Y1188D02*
X170Y1188D01*
X87Y1187D02*
X111Y1187D01*
X137Y1187D02*
X169Y1187D01*
X758Y1137D02*
X787Y1137D01*
X808Y1137D02*
X809Y1137D01*
X836Y1137D02*
X837Y1137D01*
X757Y1136D02*
X788Y1136D01*
X807Y1136D02*
X811Y1136D01*
X834Y1136D02*
X838Y1136D01*
X756Y1135D02*
X789Y1135D01*
X806Y1135D02*
X811Y1135D01*
X833Y1135D02*
X839Y1135D01*
X756Y1134D02*
X789Y1134D01*
X806Y1134D02*
X812Y1134D01*
X833Y1134D02*
X839Y1134D01*
X756Y1133D02*
X789Y1133D01*
X806Y1133D02*
X813Y1133D01*
X833Y1133D02*
X839Y1133D01*
X756Y1132D02*
X789Y1132D01*
X806Y1132D02*
X813Y1132D01*
X833Y1132D02*
X839Y1132D01*
X756Y1131D02*
X789Y1131D01*
X807Y1131D02*
X814Y1131D01*
X833Y1131D02*
X839Y1131D01*
X756Y1130D02*
X762Y1130D01*
X783Y1130D02*
X789Y1130D01*
X807Y1130D02*
X814Y1130D01*
X833Y1130D02*
X839Y1130D01*
X756Y1129D02*
X762Y1129D01*
X783Y1129D02*
X789Y1129D01*
X808Y1129D02*
X815Y1129D01*
X833Y1129D02*
X839Y1129D01*
X756Y1128D02*
X762Y1128D01*
X783Y1128D02*
X789Y1128D01*
X808Y1128D02*
X815Y1128D01*
X833Y1128D02*
X839Y1128D01*
X756Y1127D02*
X762Y1127D01*
X783Y1127D02*
X789Y1127D01*
X809Y1127D02*
X816Y1127D01*
X833Y1127D02*
X839Y1127D01*
X756Y1126D02*
X762Y1126D01*
X783Y1126D02*
X789Y1126D01*
X809Y1126D02*
X817Y1126D01*
X833Y1126D02*
X839Y1126D01*
X756Y1125D02*
X762Y1125D01*
X783Y1125D02*
X789Y1125D01*
X810Y1125D02*
X817Y1125D01*
X833Y1125D02*
X839Y1125D01*
X756Y1124D02*
X762Y1124D01*
X783Y1124D02*
X789Y1124D01*
X811Y1124D02*
X818Y1124D01*
X833Y1124D02*
X839Y1124D01*
X756Y1123D02*
X762Y1123D01*
X783Y1123D02*
X789Y1123D01*
X811Y1123D02*
X818Y1123D01*
X833Y1123D02*
X839Y1123D01*
X982Y1123D02*
X985Y1123D01*
X1082Y1123D02*
X1085Y1123D01*
X756Y1122D02*
X762Y1122D01*
X783Y1122D02*
X789Y1122D01*
X812Y1122D02*
X819Y1122D01*
X833Y1122D02*
X839Y1122D01*
X981Y1122D02*
X986Y1122D01*
X1081Y1122D02*
X1086Y1122D01*
X756Y1121D02*
X762Y1121D01*
X783Y1121D02*
X789Y1121D01*
X812Y1121D02*
X820Y1121D01*
X833Y1121D02*
X839Y1121D01*
X980Y1121D02*
X987Y1121D01*
X1080Y1121D02*
X1087Y1121D01*
X756Y1120D02*
X762Y1120D01*
X783Y1120D02*
X789Y1120D01*
X813Y1120D02*
X820Y1120D01*
X833Y1120D02*
X839Y1120D01*
X979Y1120D02*
X987Y1120D01*
X1080Y1120D02*
X1088Y1120D01*
X756Y1119D02*
X789Y1119D01*
X814Y1119D02*
X821Y1119D01*
X833Y1119D02*
X839Y1119D01*
X978Y1119D02*
X987Y1119D01*
X1080Y1119D02*
X1089Y1119D01*
X756Y1118D02*
X789Y1118D01*
X814Y1118D02*
X821Y1118D01*
X833Y1118D02*
X839Y1118D01*
X977Y1118D02*
X987Y1118D01*
X1080Y1118D02*
X1090Y1118D01*
X756Y1117D02*
X789Y1117D01*
X815Y1117D02*
X822Y1117D01*
X833Y1117D02*
X839Y1117D01*
X977Y1117D02*
X986Y1117D01*
X1081Y1117D02*
X1090Y1117D01*
X756Y1116D02*
X789Y1116D01*
X815Y1116D02*
X822Y1116D01*
X833Y1116D02*
X839Y1116D01*
X976Y1116D02*
X985Y1116D01*
X1082Y1116D02*
X1091Y1116D01*
X756Y1115D02*
X789Y1115D01*
X816Y1115D02*
X823Y1115D01*
X833Y1115D02*
X839Y1115D01*
X975Y1115D02*
X984Y1115D01*
X1083Y1115D02*
X1092Y1115D01*
X756Y1114D02*
X789Y1114D01*
X816Y1114D02*
X824Y1114D01*
X833Y1114D02*
X839Y1114D01*
X974Y1114D02*
X983Y1114D01*
X1084Y1114D02*
X1093Y1114D01*
X757Y1113D02*
X789Y1113D01*
X817Y1113D02*
X824Y1113D01*
X833Y1113D02*
X839Y1113D01*
X974Y1113D02*
X983Y1113D01*
X1084Y1113D02*
X1093Y1113D01*
X783Y1112D02*
X789Y1112D01*
X818Y1112D02*
X825Y1112D01*
X833Y1112D02*
X839Y1112D01*
X973Y1112D02*
X982Y1112D01*
X1085Y1112D02*
X1094Y1112D01*
X783Y1111D02*
X789Y1111D01*
X818Y1111D02*
X825Y1111D01*
X833Y1111D02*
X839Y1111D01*
X972Y1111D02*
X981Y1111D01*
X1086Y1111D02*
X1095Y1111D01*
X783Y1110D02*
X789Y1110D01*
X819Y1110D02*
X826Y1110D01*
X833Y1110D02*
X839Y1110D01*
X972Y1110D02*
X980Y1110D01*
X1087Y1110D02*
X1095Y1110D01*
X783Y1109D02*
X789Y1109D01*
X819Y1109D02*
X827Y1109D01*
X833Y1109D02*
X839Y1109D01*
X971Y1109D02*
X980Y1109D01*
X1087Y1109D02*
X1096Y1109D01*
X783Y1108D02*
X789Y1108D01*
X820Y1108D02*
X827Y1108D01*
X833Y1108D02*
X839Y1108D01*
X971Y1108D02*
X979Y1108D01*
X1088Y1108D02*
X1096Y1108D01*
X783Y1107D02*
X789Y1107D01*
X812Y1107D02*
X839Y1107D01*
X970Y1107D02*
X978Y1107D01*
X1089Y1107D02*
X1097Y1107D01*
X1168Y1107D02*
X1172Y1107D01*
X783Y1106D02*
X789Y1106D01*
X810Y1106D02*
X839Y1106D01*
X969Y1106D02*
X978Y1106D01*
X1089Y1106D02*
X1097Y1106D01*
X1165Y1106D02*
X1176Y1106D01*
X783Y1105D02*
X789Y1105D01*
X809Y1105D02*
X839Y1105D01*
X969Y1105D02*
X977Y1105D01*
X1090Y1105D02*
X1098Y1105D01*
X1162Y1105D02*
X1178Y1105D01*
X783Y1104D02*
X789Y1104D01*
X808Y1104D02*
X839Y1104D01*
X968Y1104D02*
X976Y1104D01*
X1091Y1104D02*
X1099Y1104D01*
X1160Y1104D02*
X1180Y1104D01*
X783Y1103D02*
X789Y1103D01*
X807Y1103D02*
X839Y1103D01*
X968Y1103D02*
X976Y1103D01*
X1091Y1103D02*
X1099Y1103D01*
X1158Y1103D02*
X1182Y1103D01*
X783Y1102D02*
X789Y1102D01*
X807Y1102D02*
X839Y1102D01*
X967Y1102D02*
X975Y1102D01*
X1092Y1102D02*
X1099Y1102D01*
X1156Y1102D02*
X1184Y1102D01*
X783Y1101D02*
X789Y1101D01*
X806Y1101D02*
X839Y1101D01*
X967Y1101D02*
X975Y1101D01*
X1092Y1101D02*
X1100Y1101D01*
X1154Y1101D02*
X1186Y1101D01*
X783Y1100D02*
X789Y1100D01*
X806Y1100D02*
X813Y1100D01*
X833Y1100D02*
X839Y1100D01*
X967Y1100D02*
X974Y1100D01*
X1093Y1100D02*
X1100Y1100D01*
X1152Y1100D02*
X1168Y1100D01*
X1172Y1100D02*
X1188Y1100D01*
X783Y1099D02*
X789Y1099D01*
X806Y1099D02*
X812Y1099D01*
X833Y1099D02*
X839Y1099D01*
X966Y1099D02*
X974Y1099D01*
X1093Y1099D02*
X1101Y1099D01*
X1150Y1099D02*
X1165Y1099D01*
X1175Y1099D02*
X1190Y1099D01*
X783Y1098D02*
X789Y1098D01*
X806Y1098D02*
X812Y1098D01*
X833Y1098D02*
X839Y1098D01*
X966Y1098D02*
X973Y1098D01*
X1094Y1098D02*
X1101Y1098D01*
X1149Y1098D02*
X1163Y1098D01*
X1177Y1098D02*
X1192Y1098D01*
X783Y1097D02*
X789Y1097D01*
X806Y1097D02*
X812Y1097D01*
X833Y1097D02*
X839Y1097D01*
X965Y1097D02*
X973Y1097D01*
X1094Y1097D02*
X1102Y1097D01*
X1147Y1097D02*
X1161Y1097D01*
X1179Y1097D02*
X1193Y1097D01*
X783Y1096D02*
X789Y1096D01*
X806Y1096D02*
X812Y1096D01*
X833Y1096D02*
X839Y1096D01*
X965Y1096D02*
X972Y1096D01*
X1095Y1096D02*
X1102Y1096D01*
X1146Y1096D02*
X1159Y1096D01*
X1181Y1096D02*
X1194Y1096D01*
X783Y1095D02*
X789Y1095D01*
X806Y1095D02*
X812Y1095D01*
X833Y1095D02*
X839Y1095D01*
X965Y1095D02*
X972Y1095D01*
X1095Y1095D02*
X1102Y1095D01*
X1146Y1095D02*
X1157Y1095D01*
X1183Y1095D02*
X1195Y1095D01*
X783Y1094D02*
X789Y1094D01*
X806Y1094D02*
X812Y1094D01*
X833Y1094D02*
X839Y1094D01*
X964Y1094D02*
X972Y1094D01*
X1095Y1094D02*
X1103Y1094D01*
X1145Y1094D02*
X1155Y1094D01*
X1185Y1094D02*
X1195Y1094D01*
X783Y1093D02*
X789Y1093D01*
X806Y1093D02*
X812Y1093D01*
X833Y1093D02*
X839Y1093D01*
X964Y1093D02*
X971Y1093D01*
X1096Y1093D02*
X1103Y1093D01*
X1144Y1093D02*
X1153Y1093D01*
X1187Y1093D02*
X1196Y1093D01*
X783Y1092D02*
X789Y1092D01*
X806Y1092D02*
X812Y1092D01*
X833Y1092D02*
X839Y1092D01*
X964Y1092D02*
X971Y1092D01*
X1096Y1092D02*
X1103Y1092D01*
X1144Y1092D02*
X1151Y1092D01*
X1189Y1092D02*
X1196Y1092D01*
X783Y1091D02*
X789Y1091D01*
X806Y1091D02*
X813Y1091D01*
X833Y1091D02*
X839Y1091D01*
X963Y1091D02*
X971Y1091D01*
X1096Y1091D02*
X1104Y1091D01*
X1144Y1091D02*
X1150Y1091D01*
X1190Y1091D02*
X1196Y1091D01*
X783Y1090D02*
X789Y1090D01*
X806Y1090D02*
X839Y1090D01*
X963Y1090D02*
X970Y1090D01*
X1097Y1090D02*
X1104Y1090D01*
X1144Y1090D02*
X1150Y1090D01*
X1191Y1090D02*
X1197Y1090D01*
X781Y1089D02*
X789Y1089D01*
X807Y1089D02*
X839Y1089D01*
X963Y1089D02*
X970Y1089D01*
X1097Y1089D02*
X1104Y1089D01*
X1144Y1089D02*
X1150Y1089D01*
X1191Y1089D02*
X1197Y1089D01*
X780Y1088D02*
X789Y1088D01*
X807Y1088D02*
X839Y1088D01*
X962Y1088D02*
X970Y1088D01*
X1097Y1088D02*
X1104Y1088D01*
X1144Y1088D02*
X1150Y1088D01*
X1191Y1088D02*
X1197Y1088D01*
X780Y1087D02*
X789Y1087D01*
X808Y1087D02*
X839Y1087D01*
X962Y1087D02*
X969Y1087D01*
X1098Y1087D02*
X1105Y1087D01*
X1144Y1087D02*
X1150Y1087D01*
X1191Y1087D02*
X1197Y1087D01*
X780Y1086D02*
X789Y1086D01*
X809Y1086D02*
X839Y1086D01*
X962Y1086D02*
X969Y1086D01*
X1098Y1086D02*
X1105Y1086D01*
X1144Y1086D02*
X1150Y1086D01*
X1191Y1086D02*
X1197Y1086D01*
X1566Y1086D02*
X1570Y1086D01*
X1613Y1086D02*
X1617Y1086D01*
X780Y1085D02*
X789Y1085D01*
X810Y1085D02*
X839Y1085D01*
X962Y1085D02*
X969Y1085D01*
X1098Y1085D02*
X1105Y1085D01*
X1144Y1085D02*
X1150Y1085D01*
X1191Y1085D02*
X1197Y1085D01*
X1565Y1085D02*
X1571Y1085D01*
X1612Y1085D02*
X1618Y1085D01*
X781Y1084D02*
X788Y1084D01*
X812Y1084D02*
X839Y1084D01*
X962Y1084D02*
X969Y1084D01*
X1098Y1084D02*
X1105Y1084D01*
X1144Y1084D02*
X1150Y1084D01*
X1191Y1084D02*
X1197Y1084D01*
X1565Y1084D02*
X1571Y1084D01*
X1612Y1084D02*
X1618Y1084D01*
X961Y1083D02*
X968Y1083D01*
X1098Y1083D02*
X1106Y1083D01*
X1144Y1083D02*
X1150Y1083D01*
X1191Y1083D02*
X1197Y1083D01*
X1565Y1083D02*
X1571Y1083D01*
X1612Y1083D02*
X1618Y1083D01*
X961Y1082D02*
X968Y1082D01*
X1099Y1082D02*
X1106Y1082D01*
X1144Y1082D02*
X1150Y1082D01*
X1191Y1082D02*
X1197Y1082D01*
X1565Y1082D02*
X1571Y1082D01*
X1612Y1082D02*
X1618Y1082D01*
X961Y1081D02*
X968Y1081D01*
X1099Y1081D02*
X1106Y1081D01*
X1144Y1081D02*
X1150Y1081D01*
X1191Y1081D02*
X1197Y1081D01*
X1565Y1081D02*
X1571Y1081D01*
X1612Y1081D02*
X1618Y1081D01*
X961Y1080D02*
X968Y1080D01*
X1099Y1080D02*
X1106Y1080D01*
X1144Y1080D02*
X1150Y1080D01*
X1191Y1080D02*
X1197Y1080D01*
X1565Y1080D02*
X1571Y1080D01*
X1612Y1080D02*
X1618Y1080D01*
X961Y1079D02*
X968Y1079D01*
X1099Y1079D02*
X1106Y1079D01*
X1144Y1079D02*
X1150Y1079D01*
X1191Y1079D02*
X1197Y1079D01*
X1565Y1079D02*
X1571Y1079D01*
X1612Y1079D02*
X1618Y1079D01*
X961Y1078D02*
X968Y1078D01*
X1099Y1078D02*
X1106Y1078D01*
X1144Y1078D02*
X1150Y1078D01*
X1191Y1078D02*
X1197Y1078D01*
X1565Y1078D02*
X1571Y1078D01*
X1612Y1078D02*
X1618Y1078D01*
X960Y1077D02*
X968Y1077D01*
X1099Y1077D02*
X1106Y1077D01*
X1144Y1077D02*
X1150Y1077D01*
X1191Y1077D02*
X1197Y1077D01*
X1565Y1077D02*
X1571Y1077D01*
X1612Y1077D02*
X1618Y1077D01*
X960Y1076D02*
X967Y1076D01*
X1100Y1076D02*
X1107Y1076D01*
X1144Y1076D02*
X1150Y1076D01*
X1191Y1076D02*
X1197Y1076D01*
X1565Y1076D02*
X1571Y1076D01*
X1612Y1076D02*
X1618Y1076D01*
X960Y1075D02*
X967Y1075D01*
X1100Y1075D02*
X1107Y1075D01*
X1144Y1075D02*
X1149Y1075D01*
X1191Y1075D02*
X1197Y1075D01*
X1565Y1075D02*
X1571Y1075D01*
X1612Y1075D02*
X1618Y1075D01*
X960Y1074D02*
X967Y1074D01*
X1100Y1074D02*
X1107Y1074D01*
X1144Y1074D02*
X1149Y1074D01*
X1192Y1074D02*
X1196Y1074D01*
X1565Y1074D02*
X1571Y1074D01*
X1612Y1074D02*
X1618Y1074D01*
X960Y1073D02*
X967Y1073D01*
X1100Y1073D02*
X1107Y1073D01*
X1146Y1073D02*
X1148Y1073D01*
X1193Y1073D02*
X1195Y1073D01*
X1565Y1073D02*
X1618Y1073D01*
X960Y1072D02*
X967Y1072D01*
X1100Y1072D02*
X1107Y1072D01*
X1565Y1072D02*
X1618Y1072D01*
X960Y1071D02*
X967Y1071D01*
X1100Y1071D02*
X1107Y1071D01*
X1565Y1071D02*
X1618Y1071D01*
X960Y1070D02*
X967Y1070D01*
X1100Y1070D02*
X1107Y1070D01*
X1565Y1070D02*
X1618Y1070D01*
X960Y1069D02*
X967Y1069D01*
X1100Y1069D02*
X1107Y1069D01*
X1565Y1069D02*
X1618Y1069D01*
X960Y1068D02*
X967Y1068D01*
X1100Y1068D02*
X1107Y1068D01*
X1565Y1068D02*
X1618Y1068D01*
X960Y1067D02*
X967Y1067D01*
X1100Y1067D02*
X1107Y1067D01*
X1565Y1067D02*
X1618Y1067D01*
X960Y1066D02*
X967Y1066D01*
X1100Y1066D02*
X1107Y1066D01*
X1565Y1066D02*
X1571Y1066D01*
X1612Y1066D02*
X1618Y1066D01*
X960Y1065D02*
X967Y1065D01*
X1100Y1065D02*
X1107Y1065D01*
X1565Y1065D02*
X1571Y1065D01*
X1612Y1065D02*
X1618Y1065D01*
X960Y1064D02*
X967Y1064D01*
X1100Y1064D02*
X1107Y1064D01*
X1565Y1064D02*
X1571Y1064D01*
X1612Y1064D02*
X1618Y1064D01*
X960Y1063D02*
X967Y1063D01*
X1100Y1063D02*
X1107Y1063D01*
X1565Y1063D02*
X1571Y1063D01*
X1612Y1063D02*
X1618Y1063D01*
X960Y1062D02*
X967Y1062D01*
X1100Y1062D02*
X1107Y1062D01*
X1565Y1062D02*
X1571Y1062D01*
X1612Y1062D02*
X1618Y1062D01*
X960Y1061D02*
X967Y1061D01*
X1100Y1061D02*
X1107Y1061D01*
X1565Y1061D02*
X1571Y1061D01*
X1612Y1061D02*
X1618Y1061D01*
X961Y1060D02*
X968Y1060D01*
X1099Y1060D02*
X1106Y1060D01*
X1565Y1060D02*
X1571Y1060D01*
X1612Y1060D02*
X1618Y1060D01*
X961Y1059D02*
X968Y1059D01*
X1099Y1059D02*
X1106Y1059D01*
X1565Y1059D02*
X1571Y1059D01*
X1612Y1059D02*
X1618Y1059D01*
X961Y1058D02*
X968Y1058D01*
X1099Y1058D02*
X1106Y1058D01*
X1565Y1058D02*
X1571Y1058D01*
X1612Y1058D02*
X1618Y1058D01*
X961Y1057D02*
X968Y1057D01*
X1099Y1057D02*
X1106Y1057D01*
X1146Y1057D02*
X1147Y1057D01*
X1193Y1057D02*
X1194Y1057D01*
X1565Y1057D02*
X1571Y1057D01*
X1612Y1057D02*
X1618Y1057D01*
X961Y1056D02*
X968Y1056D01*
X1099Y1056D02*
X1106Y1056D01*
X1145Y1056D02*
X1149Y1056D01*
X1192Y1056D02*
X1196Y1056D01*
X1565Y1056D02*
X1571Y1056D01*
X1612Y1056D02*
X1618Y1056D01*
X961Y1055D02*
X968Y1055D01*
X1099Y1055D02*
X1106Y1055D01*
X1144Y1055D02*
X1149Y1055D01*
X1191Y1055D02*
X1196Y1055D01*
X1565Y1055D02*
X1571Y1055D01*
X1612Y1055D02*
X1618Y1055D01*
X961Y1054D02*
X969Y1054D01*
X1098Y1054D02*
X1106Y1054D01*
X1144Y1054D02*
X1150Y1054D01*
X1191Y1054D02*
X1197Y1054D01*
X1566Y1054D02*
X1570Y1054D01*
X1613Y1054D02*
X1617Y1054D01*
X962Y1053D02*
X969Y1053D01*
X1098Y1053D02*
X1105Y1053D01*
X1144Y1053D02*
X1150Y1053D01*
X1191Y1053D02*
X1197Y1053D01*
X1567Y1053D02*
X1569Y1053D01*
X1614Y1053D02*
X1616Y1053D01*
X331Y1052D02*
X355Y1052D01*
X387Y1052D02*
X411Y1052D01*
X962Y1052D02*
X969Y1052D01*
X1098Y1052D02*
X1105Y1052D01*
X1144Y1052D02*
X1150Y1052D01*
X1191Y1052D02*
X1197Y1052D01*
X330Y1051D02*
X358Y1051D01*
X387Y1051D02*
X413Y1051D01*
X962Y1051D02*
X969Y1051D01*
X1098Y1051D02*
X1105Y1051D01*
X1144Y1051D02*
X1150Y1051D01*
X1191Y1051D02*
X1197Y1051D01*
X330Y1050D02*
X359Y1050D01*
X387Y1050D02*
X413Y1050D01*
X962Y1050D02*
X969Y1050D01*
X1097Y1050D02*
X1105Y1050D01*
X1144Y1050D02*
X1150Y1050D01*
X1169Y1050D02*
X1171Y1050D01*
X1191Y1050D02*
X1197Y1050D01*
X330Y1049D02*
X361Y1049D01*
X387Y1049D02*
X414Y1049D01*
X963Y1049D02*
X970Y1049D01*
X1097Y1049D02*
X1104Y1049D01*
X1144Y1049D02*
X1150Y1049D01*
X1168Y1049D02*
X1172Y1049D01*
X1191Y1049D02*
X1197Y1049D01*
X330Y1048D02*
X361Y1048D01*
X387Y1048D02*
X414Y1048D01*
X963Y1048D02*
X970Y1048D01*
X1097Y1048D02*
X1104Y1048D01*
X1144Y1048D02*
X1150Y1048D01*
X1167Y1048D02*
X1173Y1048D01*
X1191Y1048D02*
X1197Y1048D01*
X330Y1047D02*
X362Y1047D01*
X387Y1047D02*
X413Y1047D01*
X963Y1047D02*
X995Y1047D01*
X1072Y1047D02*
X1104Y1047D01*
X1144Y1047D02*
X1150Y1047D01*
X1167Y1047D02*
X1173Y1047D01*
X1191Y1047D02*
X1197Y1047D01*
X330Y1046D02*
X363Y1046D01*
X387Y1046D02*
X412Y1046D01*
X963Y1046D02*
X996Y1046D01*
X1071Y1046D02*
X1104Y1046D01*
X1144Y1046D02*
X1150Y1046D01*
X1167Y1046D02*
X1173Y1046D01*
X1191Y1046D02*
X1197Y1046D01*
X330Y1045D02*
X337Y1045D01*
X355Y1045D02*
X363Y1045D01*
X387Y1045D02*
X393Y1045D01*
X964Y1045D02*
X997Y1045D01*
X1070Y1045D02*
X1103Y1045D01*
X1144Y1045D02*
X1150Y1045D01*
X1167Y1045D02*
X1173Y1045D01*
X1191Y1045D02*
X1197Y1045D01*
X330Y1044D02*
X336Y1044D01*
X357Y1044D02*
X363Y1044D01*
X387Y1044D02*
X393Y1044D01*
X964Y1044D02*
X997Y1044D01*
X1070Y1044D02*
X1103Y1044D01*
X1144Y1044D02*
X1150Y1044D01*
X1167Y1044D02*
X1173Y1044D01*
X1191Y1044D02*
X1197Y1044D01*
X330Y1043D02*
X336Y1043D01*
X357Y1043D02*
X364Y1043D01*
X387Y1043D02*
X393Y1043D01*
X964Y1043D02*
X997Y1043D01*
X1070Y1043D02*
X1103Y1043D01*
X1144Y1043D02*
X1150Y1043D01*
X1167Y1043D02*
X1173Y1043D01*
X1191Y1043D02*
X1197Y1043D01*
X89Y1042D02*
X113Y1042D01*
X140Y1042D02*
X169Y1042D01*
X330Y1042D02*
X336Y1042D01*
X358Y1042D02*
X364Y1042D01*
X387Y1042D02*
X393Y1042D01*
X965Y1042D02*
X997Y1042D01*
X1070Y1042D02*
X1102Y1042D01*
X1144Y1042D02*
X1150Y1042D01*
X1167Y1042D02*
X1173Y1042D01*
X1191Y1042D02*
X1197Y1042D01*
X89Y1041D02*
X115Y1041D01*
X140Y1041D02*
X170Y1041D01*
X330Y1041D02*
X336Y1041D01*
X358Y1041D02*
X364Y1041D01*
X387Y1041D02*
X393Y1041D01*
X965Y1041D02*
X996Y1041D01*
X1071Y1041D02*
X1102Y1041D01*
X1144Y1041D02*
X1150Y1041D01*
X1167Y1041D02*
X1173Y1041D01*
X1191Y1041D02*
X1197Y1041D01*
X89Y1040D02*
X117Y1040D01*
X139Y1040D02*
X171Y1040D01*
X330Y1040D02*
X336Y1040D01*
X358Y1040D02*
X364Y1040D01*
X387Y1040D02*
X393Y1040D01*
X965Y1040D02*
X994Y1040D01*
X1073Y1040D02*
X1101Y1040D01*
X1144Y1040D02*
X1150Y1040D01*
X1167Y1040D02*
X1173Y1040D01*
X1191Y1040D02*
X1197Y1040D01*
X89Y1039D02*
X118Y1039D01*
X139Y1039D02*
X172Y1039D01*
X330Y1039D02*
X336Y1039D01*
X358Y1039D02*
X364Y1039D01*
X387Y1039D02*
X393Y1039D01*
X966Y1039D02*
X973Y1039D01*
X1093Y1039D02*
X1101Y1039D01*
X1144Y1039D02*
X1150Y1039D01*
X1167Y1039D02*
X1173Y1039D01*
X1191Y1039D02*
X1197Y1039D01*
X89Y1038D02*
X119Y1038D01*
X139Y1038D02*
X172Y1038D01*
X330Y1038D02*
X336Y1038D01*
X358Y1038D02*
X364Y1038D01*
X387Y1038D02*
X393Y1038D01*
X966Y1038D02*
X974Y1038D01*
X1093Y1038D02*
X1101Y1038D01*
X1144Y1038D02*
X1150Y1038D01*
X1167Y1038D02*
X1173Y1038D01*
X1191Y1038D02*
X1197Y1038D01*
X89Y1037D02*
X120Y1037D01*
X140Y1037D02*
X172Y1037D01*
X330Y1037D02*
X336Y1037D01*
X358Y1037D02*
X364Y1037D01*
X387Y1037D02*
X393Y1037D01*
X967Y1037D02*
X974Y1037D01*
X1093Y1037D02*
X1100Y1037D01*
X1144Y1037D02*
X1150Y1037D01*
X1167Y1037D02*
X1173Y1037D01*
X1191Y1037D02*
X1197Y1037D01*
X1591Y1037D02*
X1592Y1037D01*
X89Y1036D02*
X120Y1036D01*
X141Y1036D02*
X173Y1036D01*
X330Y1036D02*
X336Y1036D01*
X357Y1036D02*
X364Y1036D01*
X387Y1036D02*
X393Y1036D01*
X967Y1036D02*
X975Y1036D01*
X1092Y1036D02*
X1100Y1036D01*
X1144Y1036D02*
X1150Y1036D01*
X1167Y1036D02*
X1173Y1036D01*
X1191Y1036D02*
X1197Y1036D01*
X1587Y1036D02*
X1596Y1036D01*
X89Y1035D02*
X95Y1035D01*
X113Y1035D02*
X121Y1035D01*
X167Y1035D02*
X173Y1035D01*
X330Y1035D02*
X336Y1035D01*
X356Y1035D02*
X363Y1035D01*
X387Y1035D02*
X393Y1035D01*
X968Y1035D02*
X975Y1035D01*
X1091Y1035D02*
X1099Y1035D01*
X1144Y1035D02*
X1150Y1035D01*
X1167Y1035D02*
X1173Y1035D01*
X1191Y1035D02*
X1197Y1035D01*
X1584Y1035D02*
X1599Y1035D01*
X89Y1034D02*
X95Y1034D01*
X114Y1034D02*
X122Y1034D01*
X167Y1034D02*
X173Y1034D01*
X330Y1034D02*
X363Y1034D01*
X387Y1034D02*
X393Y1034D01*
X968Y1034D02*
X976Y1034D01*
X1091Y1034D02*
X1099Y1034D01*
X1144Y1034D02*
X1150Y1034D01*
X1167Y1034D02*
X1173Y1034D01*
X1191Y1034D02*
X1197Y1034D01*
X1582Y1034D02*
X1601Y1034D01*
X89Y1033D02*
X95Y1033D01*
X115Y1033D02*
X122Y1033D01*
X167Y1033D02*
X173Y1033D01*
X330Y1033D02*
X362Y1033D01*
X387Y1033D02*
X393Y1033D01*
X969Y1033D02*
X977Y1033D01*
X1090Y1033D02*
X1098Y1033D01*
X1144Y1033D02*
X1150Y1033D01*
X1167Y1033D02*
X1173Y1033D01*
X1191Y1033D02*
X1197Y1033D01*
X1580Y1033D02*
X1603Y1033D01*
X89Y1032D02*
X95Y1032D01*
X116Y1032D02*
X122Y1032D01*
X167Y1032D02*
X173Y1032D01*
X330Y1032D02*
X362Y1032D01*
X387Y1032D02*
X393Y1032D01*
X969Y1032D02*
X977Y1032D01*
X1090Y1032D02*
X1098Y1032D01*
X1144Y1032D02*
X1150Y1032D01*
X1167Y1032D02*
X1173Y1032D01*
X1191Y1032D02*
X1197Y1032D01*
X1578Y1032D02*
X1605Y1032D01*
X89Y1031D02*
X95Y1031D01*
X116Y1031D02*
X122Y1031D01*
X167Y1031D02*
X173Y1031D01*
X330Y1031D02*
X361Y1031D01*
X387Y1031D02*
X393Y1031D01*
X970Y1031D02*
X978Y1031D01*
X1089Y1031D02*
X1097Y1031D01*
X1144Y1031D02*
X1150Y1031D01*
X1166Y1031D02*
X1174Y1031D01*
X1191Y1031D02*
X1197Y1031D01*
X1576Y1031D02*
X1607Y1031D01*
X89Y1030D02*
X95Y1030D01*
X116Y1030D02*
X122Y1030D01*
X167Y1030D02*
X173Y1030D01*
X330Y1030D02*
X360Y1030D01*
X387Y1030D02*
X393Y1030D01*
X970Y1030D02*
X978Y1030D01*
X1088Y1030D02*
X1097Y1030D01*
X1144Y1030D02*
X1150Y1030D01*
X1165Y1030D02*
X1175Y1030D01*
X1191Y1030D02*
X1197Y1030D01*
X1574Y1030D02*
X1609Y1030D01*
X89Y1029D02*
X95Y1029D01*
X117Y1029D02*
X123Y1029D01*
X167Y1029D02*
X173Y1029D01*
X330Y1029D02*
X359Y1029D01*
X387Y1029D02*
X393Y1029D01*
X971Y1029D02*
X979Y1029D01*
X1088Y1029D02*
X1096Y1029D01*
X1144Y1029D02*
X1197Y1029D01*
X1572Y1029D02*
X1587Y1029D01*
X1596Y1029D02*
X1611Y1029D01*
X89Y1028D02*
X95Y1028D01*
X117Y1028D02*
X123Y1028D01*
X167Y1028D02*
X173Y1028D01*
X330Y1028D02*
X357Y1028D01*
X387Y1028D02*
X409Y1028D01*
X971Y1028D02*
X980Y1028D01*
X1087Y1028D02*
X1096Y1028D01*
X1144Y1028D02*
X1197Y1028D01*
X1570Y1028D02*
X1585Y1028D01*
X1598Y1028D02*
X1613Y1028D01*
X89Y1027D02*
X95Y1027D01*
X117Y1027D02*
X123Y1027D01*
X167Y1027D02*
X173Y1027D01*
X330Y1027D02*
X336Y1027D01*
X342Y1027D02*
X350Y1027D01*
X387Y1027D02*
X411Y1027D01*
X972Y1027D02*
X981Y1027D01*
X1086Y1027D02*
X1095Y1027D01*
X1144Y1027D02*
X1196Y1027D01*
X1569Y1027D02*
X1583Y1027D01*
X1600Y1027D02*
X1614Y1027D01*
X89Y1026D02*
X95Y1026D01*
X117Y1026D02*
X123Y1026D01*
X167Y1026D02*
X173Y1026D01*
X330Y1026D02*
X336Y1026D01*
X343Y1026D02*
X350Y1026D01*
X387Y1026D02*
X412Y1026D01*
X973Y1026D02*
X981Y1026D01*
X1086Y1026D02*
X1094Y1026D01*
X1145Y1026D02*
X1196Y1026D01*
X1568Y1026D02*
X1581Y1026D01*
X1602Y1026D02*
X1615Y1026D01*
X89Y1025D02*
X95Y1025D01*
X116Y1025D02*
X122Y1025D01*
X167Y1025D02*
X173Y1025D01*
X330Y1025D02*
X336Y1025D01*
X343Y1025D02*
X351Y1025D01*
X387Y1025D02*
X413Y1025D01*
X973Y1025D02*
X982Y1025D01*
X1085Y1025D02*
X1094Y1025D01*
X1146Y1025D02*
X1169Y1025D01*
X1171Y1025D02*
X1195Y1025D01*
X1567Y1025D02*
X1579Y1025D01*
X1604Y1025D02*
X1616Y1025D01*
X89Y1024D02*
X95Y1024D01*
X116Y1024D02*
X122Y1024D01*
X167Y1024D02*
X173Y1024D01*
X330Y1024D02*
X336Y1024D01*
X344Y1024D02*
X351Y1024D01*
X387Y1024D02*
X413Y1024D01*
X974Y1024D02*
X983Y1024D01*
X1084Y1024D02*
X1093Y1024D01*
X1147Y1024D02*
X1168Y1024D01*
X1173Y1024D02*
X1194Y1024D01*
X1566Y1024D02*
X1577Y1024D01*
X1606Y1024D02*
X1617Y1024D01*
X89Y1023D02*
X95Y1023D01*
X116Y1023D02*
X122Y1023D01*
X167Y1023D02*
X173Y1023D01*
X330Y1023D02*
X336Y1023D01*
X345Y1023D02*
X352Y1023D01*
X387Y1023D02*
X414Y1023D01*
X975Y1023D02*
X984Y1023D01*
X1083Y1023D02*
X1092Y1023D01*
X1149Y1023D02*
X1165Y1023D01*
X1175Y1023D02*
X1192Y1023D01*
X1566Y1023D02*
X1575Y1023D01*
X1608Y1023D02*
X1617Y1023D01*
X89Y1022D02*
X95Y1022D01*
X115Y1022D02*
X122Y1022D01*
X166Y1022D02*
X173Y1022D01*
X330Y1022D02*
X336Y1022D01*
X345Y1022D02*
X352Y1022D01*
X387Y1022D02*
X414Y1022D01*
X975Y1022D02*
X985Y1022D01*
X1082Y1022D02*
X1092Y1022D01*
X1565Y1022D02*
X1573Y1022D01*
X1610Y1022D02*
X1618Y1022D01*
X89Y1021D02*
X95Y1021D01*
X114Y1021D02*
X122Y1021D01*
X166Y1021D02*
X172Y1021D01*
X330Y1021D02*
X336Y1021D01*
X346Y1021D02*
X353Y1021D01*
X408Y1021D02*
X414Y1021D01*
X976Y1021D02*
X985Y1021D01*
X1081Y1021D02*
X1091Y1021D01*
X1565Y1021D02*
X1572Y1021D01*
X1611Y1021D02*
X1618Y1021D01*
X89Y1020D02*
X95Y1020D01*
X113Y1020D02*
X121Y1020D01*
X165Y1020D02*
X172Y1020D01*
X330Y1020D02*
X336Y1020D01*
X346Y1020D02*
X354Y1020D01*
X408Y1020D02*
X414Y1020D01*
X977Y1020D02*
X986Y1020D01*
X1081Y1020D02*
X1090Y1020D01*
X1565Y1020D02*
X1571Y1020D01*
X1612Y1020D02*
X1618Y1020D01*
X89Y1019D02*
X120Y1019D01*
X148Y1019D02*
X172Y1019D01*
X330Y1019D02*
X336Y1019D01*
X347Y1019D02*
X354Y1019D01*
X408Y1019D02*
X414Y1019D01*
X978Y1019D02*
X987Y1019D01*
X1080Y1019D02*
X1089Y1019D01*
X1565Y1019D02*
X1571Y1019D01*
X1612Y1019D02*
X1618Y1019D01*
X89Y1018D02*
X120Y1018D01*
X147Y1018D02*
X171Y1018D01*
X330Y1018D02*
X336Y1018D01*
X347Y1018D02*
X355Y1018D01*
X408Y1018D02*
X414Y1018D01*
X979Y1018D02*
X987Y1018D01*
X1080Y1018D02*
X1088Y1018D01*
X1565Y1018D02*
X1571Y1018D01*
X1612Y1018D02*
X1618Y1018D01*
X89Y1017D02*
X119Y1017D01*
X146Y1017D02*
X171Y1017D01*
X330Y1017D02*
X336Y1017D01*
X348Y1017D02*
X355Y1017D01*
X408Y1017D02*
X414Y1017D01*
X979Y1017D02*
X987Y1017D01*
X1080Y1017D02*
X1088Y1017D01*
X1565Y1017D02*
X1571Y1017D01*
X1612Y1017D02*
X1618Y1017D01*
X89Y1016D02*
X118Y1016D01*
X146Y1016D02*
X170Y1016D01*
X330Y1016D02*
X336Y1016D01*
X349Y1016D02*
X356Y1016D01*
X408Y1016D02*
X414Y1016D01*
X980Y1016D02*
X986Y1016D01*
X1080Y1016D02*
X1087Y1016D01*
X1565Y1016D02*
X1571Y1016D01*
X1612Y1016D02*
X1618Y1016D01*
X89Y1015D02*
X118Y1015D01*
X146Y1015D02*
X170Y1015D01*
X330Y1015D02*
X336Y1015D01*
X349Y1015D02*
X356Y1015D01*
X408Y1015D02*
X414Y1015D01*
X981Y1015D02*
X986Y1015D01*
X1081Y1015D02*
X1086Y1015D01*
X1565Y1015D02*
X1571Y1015D01*
X1612Y1015D02*
X1618Y1015D01*
X89Y1014D02*
X119Y1014D01*
X146Y1014D02*
X171Y1014D01*
X330Y1014D02*
X336Y1014D01*
X350Y1014D02*
X357Y1014D01*
X408Y1014D02*
X414Y1014D01*
X983Y1014D02*
X984Y1014D01*
X1083Y1014D02*
X1084Y1014D01*
X1565Y1014D02*
X1571Y1014D01*
X1612Y1014D02*
X1618Y1014D01*
X89Y1013D02*
X120Y1013D01*
X147Y1013D02*
X172Y1013D01*
X330Y1013D02*
X336Y1013D01*
X350Y1013D02*
X358Y1013D01*
X408Y1013D02*
X414Y1013D01*
X1565Y1013D02*
X1571Y1013D01*
X1612Y1013D02*
X1618Y1013D01*
X89Y1012D02*
X95Y1012D01*
X111Y1012D02*
X121Y1012D01*
X164Y1012D02*
X172Y1012D01*
X330Y1012D02*
X336Y1012D01*
X351Y1012D02*
X358Y1012D01*
X408Y1012D02*
X414Y1012D01*
X1565Y1012D02*
X1571Y1012D01*
X1612Y1012D02*
X1618Y1012D01*
X89Y1011D02*
X95Y1011D01*
X113Y1011D02*
X121Y1011D01*
X165Y1011D02*
X172Y1011D01*
X330Y1011D02*
X336Y1011D01*
X352Y1011D02*
X359Y1011D01*
X408Y1011D02*
X414Y1011D01*
X1565Y1011D02*
X1571Y1011D01*
X1612Y1011D02*
X1618Y1011D01*
X89Y1010D02*
X95Y1010D01*
X115Y1010D02*
X122Y1010D01*
X166Y1010D02*
X172Y1010D01*
X330Y1010D02*
X336Y1010D01*
X352Y1010D02*
X359Y1010D01*
X408Y1010D02*
X414Y1010D01*
X1565Y1010D02*
X1571Y1010D01*
X1612Y1010D02*
X1618Y1010D01*
X89Y1009D02*
X95Y1009D01*
X115Y1009D02*
X122Y1009D01*
X166Y1009D02*
X173Y1009D01*
X330Y1009D02*
X336Y1009D01*
X353Y1009D02*
X360Y1009D01*
X408Y1009D02*
X414Y1009D01*
X1565Y1009D02*
X1571Y1009D01*
X1612Y1009D02*
X1618Y1009D01*
X89Y1008D02*
X95Y1008D01*
X116Y1008D02*
X122Y1008D01*
X167Y1008D02*
X173Y1008D01*
X330Y1008D02*
X336Y1008D01*
X353Y1008D02*
X361Y1008D01*
X408Y1008D02*
X414Y1008D01*
X1565Y1008D02*
X1571Y1008D01*
X1612Y1008D02*
X1618Y1008D01*
X89Y1007D02*
X95Y1007D01*
X116Y1007D02*
X122Y1007D01*
X167Y1007D02*
X173Y1007D01*
X330Y1007D02*
X336Y1007D01*
X354Y1007D02*
X361Y1007D01*
X381Y1007D02*
X386Y1007D01*
X408Y1007D02*
X414Y1007D01*
X1565Y1007D02*
X1571Y1007D01*
X1612Y1007D02*
X1618Y1007D01*
X89Y1006D02*
X95Y1006D01*
X116Y1006D02*
X122Y1006D01*
X167Y1006D02*
X173Y1006D01*
X330Y1006D02*
X336Y1006D01*
X355Y1006D02*
X362Y1006D01*
X381Y1006D02*
X388Y1006D01*
X408Y1006D02*
X414Y1006D01*
X1565Y1006D02*
X1571Y1006D01*
X1612Y1006D02*
X1618Y1006D01*
X89Y1005D02*
X95Y1005D01*
X117Y1005D02*
X123Y1005D01*
X167Y1005D02*
X173Y1005D01*
X330Y1005D02*
X336Y1005D01*
X355Y1005D02*
X362Y1005D01*
X380Y1005D02*
X391Y1005D01*
X407Y1005D02*
X414Y1005D01*
X1565Y1005D02*
X1571Y1005D01*
X1612Y1005D02*
X1618Y1005D01*
X89Y1004D02*
X95Y1004D01*
X117Y1004D02*
X123Y1004D01*
X167Y1004D02*
X173Y1004D01*
X330Y1004D02*
X336Y1004D01*
X356Y1004D02*
X363Y1004D01*
X380Y1004D02*
X414Y1004D01*
X1566Y1004D02*
X1570Y1004D01*
X1613Y1004D02*
X1617Y1004D01*
X89Y1003D02*
X95Y1003D01*
X117Y1003D02*
X123Y1003D01*
X167Y1003D02*
X173Y1003D01*
X330Y1003D02*
X336Y1003D01*
X356Y1003D02*
X363Y1003D01*
X380Y1003D02*
X413Y1003D01*
X1567Y1003D02*
X1569Y1003D01*
X1614Y1003D02*
X1616Y1003D01*
X89Y1002D02*
X95Y1002D01*
X117Y1002D02*
X123Y1002D01*
X167Y1002D02*
X173Y1002D01*
X330Y1002D02*
X336Y1002D01*
X357Y1002D02*
X364Y1002D01*
X381Y1002D02*
X413Y1002D01*
X89Y1001D02*
X95Y1001D01*
X116Y1001D02*
X122Y1001D01*
X167Y1001D02*
X173Y1001D01*
X330Y1001D02*
X336Y1001D01*
X357Y1001D02*
X364Y1001D01*
X383Y1001D02*
X412Y1001D01*
X89Y1000D02*
X95Y1000D01*
X116Y1000D02*
X122Y1000D01*
X167Y1000D02*
X173Y1000D01*
X331Y1000D02*
X336Y1000D01*
X358Y1000D02*
X363Y1000D01*
X385Y1000D02*
X412Y1000D01*
X89Y999D02*
X95Y999D01*
X115Y999D02*
X122Y999D01*
X167Y999D02*
X173Y999D01*
X331Y999D02*
X335Y999D01*
X359Y999D02*
X363Y999D01*
X387Y999D02*
X410Y999D01*
X89Y998D02*
X95Y998D01*
X115Y998D02*
X122Y998D01*
X167Y998D02*
X173Y998D01*
X392Y998D02*
X407Y998D01*
X89Y997D02*
X95Y997D01*
X114Y997D02*
X121Y997D01*
X167Y997D02*
X173Y997D01*
X89Y996D02*
X95Y996D01*
X112Y996D02*
X121Y996D01*
X167Y996D02*
X173Y996D01*
X89Y995D02*
X120Y995D01*
X141Y995D02*
X173Y995D01*
X89Y994D02*
X119Y994D01*
X140Y994D02*
X172Y994D01*
X89Y993D02*
X119Y993D01*
X139Y993D02*
X172Y993D01*
X89Y992D02*
X118Y992D01*
X139Y992D02*
X172Y992D01*
X89Y991D02*
X116Y991D01*
X139Y991D02*
X171Y991D01*
X89Y990D02*
X115Y990D01*
X140Y990D02*
X170Y990D01*
X89Y989D02*
X112Y989D01*
X141Y989D02*
X168Y989D01*
X1568Y987D02*
X1568Y987D01*
X1615Y987D02*
X1615Y987D01*
X1566Y986D02*
X1570Y986D01*
X1613Y986D02*
X1617Y986D01*
X1565Y985D02*
X1571Y985D01*
X1612Y985D02*
X1618Y985D01*
X1565Y984D02*
X1571Y984D01*
X1612Y984D02*
X1618Y984D01*
X1565Y983D02*
X1571Y983D01*
X1612Y983D02*
X1618Y983D01*
X1565Y982D02*
X1571Y982D01*
X1612Y982D02*
X1618Y982D01*
X1565Y981D02*
X1571Y981D01*
X1612Y981D02*
X1618Y981D01*
X1565Y980D02*
X1571Y980D01*
X1612Y980D02*
X1618Y980D01*
X1565Y979D02*
X1571Y979D01*
X1612Y979D02*
X1618Y979D01*
X1565Y978D02*
X1571Y978D01*
X1612Y978D02*
X1618Y978D01*
X1565Y977D02*
X1571Y977D01*
X1612Y977D02*
X1618Y977D01*
X1565Y976D02*
X1571Y976D01*
X1612Y976D02*
X1618Y976D01*
X1565Y975D02*
X1571Y975D01*
X1612Y975D02*
X1618Y975D01*
X1565Y974D02*
X1571Y974D01*
X1612Y974D02*
X1618Y974D01*
X1565Y973D02*
X1618Y973D01*
X1565Y972D02*
X1618Y972D01*
X1565Y971D02*
X1618Y971D01*
X1565Y970D02*
X1618Y970D01*
X1565Y969D02*
X1618Y969D01*
X1565Y968D02*
X1618Y968D01*
X1565Y967D02*
X1618Y967D01*
X1565Y966D02*
X1571Y966D01*
X1565Y965D02*
X1571Y965D01*
X1565Y964D02*
X1571Y964D01*
X1565Y963D02*
X1571Y963D01*
X1565Y962D02*
X1571Y962D01*
X1565Y961D02*
X1571Y961D01*
X1565Y960D02*
X1571Y960D01*
X1565Y959D02*
X1587Y959D01*
X1565Y958D02*
X1588Y958D01*
X1565Y957D02*
X1588Y957D01*
X1565Y956D02*
X1589Y956D01*
X1565Y955D02*
X1588Y955D01*
X1566Y954D02*
X1588Y954D01*
X1567Y953D02*
X1587Y953D01*
X760Y930D02*
X785Y930D01*
X807Y930D02*
X810Y930D01*
X835Y930D02*
X837Y930D01*
X758Y929D02*
X786Y929D01*
X806Y929D02*
X811Y929D01*
X834Y929D02*
X838Y929D01*
X757Y928D02*
X787Y928D01*
X806Y928D02*
X812Y928D01*
X833Y928D02*
X839Y928D01*
X757Y927D02*
X788Y927D01*
X806Y927D02*
X812Y927D01*
X833Y927D02*
X839Y927D01*
X756Y926D02*
X789Y926D01*
X806Y926D02*
X813Y926D01*
X833Y926D02*
X839Y926D01*
X756Y925D02*
X789Y925D01*
X806Y925D02*
X813Y925D01*
X833Y925D02*
X839Y925D01*
X756Y924D02*
X789Y924D01*
X807Y924D02*
X814Y924D01*
X833Y924D02*
X839Y924D01*
X756Y923D02*
X762Y923D01*
X783Y923D02*
X789Y923D01*
X807Y923D02*
X815Y923D01*
X833Y923D02*
X839Y923D01*
X982Y923D02*
X985Y923D01*
X1082Y923D02*
X1085Y923D01*
X756Y922D02*
X762Y922D01*
X783Y922D02*
X789Y922D01*
X808Y922D02*
X815Y922D01*
X833Y922D02*
X839Y922D01*
X981Y922D02*
X986Y922D01*
X1081Y922D02*
X1086Y922D01*
X756Y921D02*
X762Y921D01*
X783Y921D02*
X789Y921D01*
X809Y921D02*
X816Y921D01*
X833Y921D02*
X839Y921D01*
X980Y921D02*
X987Y921D01*
X1080Y921D02*
X1087Y921D01*
X756Y920D02*
X762Y920D01*
X783Y920D02*
X789Y920D01*
X809Y920D02*
X816Y920D01*
X833Y920D02*
X839Y920D01*
X979Y920D02*
X987Y920D01*
X1080Y920D02*
X1088Y920D01*
X756Y919D02*
X762Y919D01*
X783Y919D02*
X789Y919D01*
X810Y919D02*
X817Y919D01*
X833Y919D02*
X839Y919D01*
X978Y919D02*
X987Y919D01*
X1080Y919D02*
X1089Y919D01*
X756Y918D02*
X762Y918D01*
X783Y918D02*
X789Y918D01*
X810Y918D02*
X817Y918D01*
X833Y918D02*
X839Y918D01*
X977Y918D02*
X987Y918D01*
X1080Y918D02*
X1090Y918D01*
X756Y917D02*
X762Y917D01*
X783Y917D02*
X789Y917D01*
X811Y917D02*
X818Y917D01*
X833Y917D02*
X839Y917D01*
X976Y917D02*
X986Y917D01*
X1081Y917D02*
X1090Y917D01*
X756Y916D02*
X762Y916D01*
X783Y916D02*
X789Y916D01*
X811Y916D02*
X819Y916D01*
X833Y916D02*
X839Y916D01*
X976Y916D02*
X985Y916D01*
X1082Y916D02*
X1091Y916D01*
X756Y915D02*
X762Y915D01*
X783Y915D02*
X789Y915D01*
X812Y915D02*
X819Y915D01*
X833Y915D02*
X839Y915D01*
X975Y915D02*
X984Y915D01*
X1083Y915D02*
X1092Y915D01*
X756Y914D02*
X762Y914D01*
X783Y914D02*
X789Y914D01*
X813Y914D02*
X820Y914D01*
X833Y914D02*
X839Y914D01*
X974Y914D02*
X983Y914D01*
X1084Y914D02*
X1093Y914D01*
X756Y913D02*
X762Y913D01*
X783Y913D02*
X789Y913D01*
X813Y913D02*
X820Y913D01*
X833Y913D02*
X839Y913D01*
X974Y913D02*
X983Y913D01*
X1084Y913D02*
X1093Y913D01*
X756Y912D02*
X762Y912D01*
X783Y912D02*
X789Y912D01*
X814Y912D02*
X821Y912D01*
X833Y912D02*
X839Y912D01*
X973Y912D02*
X982Y912D01*
X1085Y912D02*
X1094Y912D01*
X756Y911D02*
X762Y911D01*
X783Y911D02*
X789Y911D01*
X814Y911D02*
X822Y911D01*
X833Y911D02*
X839Y911D01*
X972Y911D02*
X981Y911D01*
X1086Y911D02*
X1095Y911D01*
X756Y910D02*
X762Y910D01*
X783Y910D02*
X789Y910D01*
X815Y910D02*
X822Y910D01*
X833Y910D02*
X839Y910D01*
X972Y910D02*
X980Y910D01*
X1087Y910D02*
X1095Y910D01*
X756Y909D02*
X762Y909D01*
X783Y909D02*
X789Y909D01*
X816Y909D02*
X823Y909D01*
X833Y909D02*
X839Y909D01*
X971Y909D02*
X980Y909D01*
X1087Y909D02*
X1096Y909D01*
X756Y908D02*
X762Y908D01*
X783Y908D02*
X789Y908D01*
X816Y908D02*
X823Y908D01*
X833Y908D02*
X839Y908D01*
X971Y908D02*
X979Y908D01*
X1088Y908D02*
X1096Y908D01*
X1166Y908D02*
X1173Y908D01*
X756Y907D02*
X762Y907D01*
X783Y907D02*
X789Y907D01*
X817Y907D02*
X824Y907D01*
X833Y907D02*
X839Y907D01*
X970Y907D02*
X978Y907D01*
X1089Y907D02*
X1097Y907D01*
X1163Y907D02*
X1176Y907D01*
X756Y906D02*
X789Y906D01*
X817Y906D02*
X824Y906D01*
X833Y906D02*
X839Y906D01*
X969Y906D02*
X978Y906D01*
X1089Y906D02*
X1097Y906D01*
X1161Y906D02*
X1178Y906D01*
X756Y905D02*
X789Y905D01*
X818Y905D02*
X825Y905D01*
X833Y905D02*
X839Y905D01*
X969Y905D02*
X977Y905D01*
X1090Y905D02*
X1098Y905D01*
X1159Y905D02*
X1180Y905D01*
X756Y904D02*
X788Y904D01*
X818Y904D02*
X826Y904D01*
X833Y904D02*
X839Y904D01*
X968Y904D02*
X976Y904D01*
X1091Y904D02*
X1099Y904D01*
X1157Y904D02*
X1182Y904D01*
X757Y903D02*
X788Y903D01*
X819Y903D02*
X826Y903D01*
X833Y903D02*
X839Y903D01*
X968Y903D02*
X976Y903D01*
X1091Y903D02*
X1099Y903D01*
X1155Y903D02*
X1184Y903D01*
X758Y902D02*
X787Y902D01*
X820Y902D02*
X827Y902D01*
X833Y902D02*
X839Y902D01*
X967Y902D02*
X975Y902D01*
X1092Y902D02*
X1099Y902D01*
X1153Y902D02*
X1186Y902D01*
X759Y901D02*
X786Y901D01*
X815Y901D02*
X839Y901D01*
X967Y901D02*
X975Y901D01*
X1092Y901D02*
X1100Y901D01*
X1151Y901D02*
X1166Y901D01*
X1173Y901D02*
X1188Y901D01*
X762Y900D02*
X783Y900D01*
X812Y900D02*
X839Y900D01*
X967Y900D02*
X974Y900D01*
X1093Y900D02*
X1100Y900D01*
X1149Y900D02*
X1164Y900D01*
X1175Y900D02*
X1190Y900D01*
X763Y899D02*
X769Y899D01*
X776Y899D02*
X782Y899D01*
X810Y899D02*
X839Y899D01*
X966Y899D02*
X974Y899D01*
X1093Y899D02*
X1101Y899D01*
X1148Y899D02*
X1162Y899D01*
X1177Y899D02*
X1192Y899D01*
X763Y898D02*
X769Y898D01*
X776Y898D02*
X782Y898D01*
X809Y898D02*
X839Y898D01*
X966Y898D02*
X973Y898D01*
X1094Y898D02*
X1101Y898D01*
X1146Y898D02*
X1160Y898D01*
X1179Y898D02*
X1193Y898D01*
X763Y897D02*
X769Y897D01*
X776Y897D02*
X782Y897D01*
X808Y897D02*
X839Y897D01*
X965Y897D02*
X973Y897D01*
X1094Y897D02*
X1102Y897D01*
X1145Y897D02*
X1158Y897D01*
X1181Y897D02*
X1194Y897D01*
X763Y896D02*
X769Y896D01*
X776Y896D02*
X782Y896D01*
X807Y896D02*
X839Y896D01*
X965Y896D02*
X972Y896D01*
X1095Y896D02*
X1102Y896D01*
X1145Y896D02*
X1156Y896D01*
X1183Y896D02*
X1194Y896D01*
X763Y895D02*
X769Y895D01*
X776Y895D02*
X782Y895D01*
X807Y895D02*
X839Y895D01*
X965Y895D02*
X972Y895D01*
X1095Y895D02*
X1102Y895D01*
X1144Y895D02*
X1154Y895D01*
X1185Y895D02*
X1195Y895D01*
X763Y894D02*
X769Y894D01*
X776Y894D02*
X782Y894D01*
X806Y894D02*
X815Y894D01*
X833Y894D02*
X839Y894D01*
X964Y894D02*
X972Y894D01*
X1095Y894D02*
X1103Y894D01*
X1144Y894D02*
X1152Y894D01*
X1187Y894D02*
X1195Y894D01*
X763Y893D02*
X769Y893D01*
X776Y893D02*
X782Y893D01*
X806Y893D02*
X813Y893D01*
X833Y893D02*
X839Y893D01*
X964Y893D02*
X971Y893D01*
X1096Y893D02*
X1103Y893D01*
X1143Y893D02*
X1150Y893D01*
X1189Y893D02*
X1196Y893D01*
X763Y892D02*
X769Y892D01*
X776Y892D02*
X782Y892D01*
X806Y892D02*
X812Y892D01*
X833Y892D02*
X839Y892D01*
X964Y892D02*
X971Y892D01*
X1096Y892D02*
X1103Y892D01*
X1143Y892D02*
X1149Y892D01*
X1190Y892D02*
X1196Y892D01*
X763Y891D02*
X769Y891D01*
X776Y891D02*
X782Y891D01*
X806Y891D02*
X812Y891D01*
X833Y891D02*
X839Y891D01*
X963Y891D02*
X971Y891D01*
X1096Y891D02*
X1104Y891D01*
X1143Y891D02*
X1149Y891D01*
X1190Y891D02*
X1196Y891D01*
X763Y890D02*
X769Y890D01*
X776Y890D02*
X782Y890D01*
X806Y890D02*
X812Y890D01*
X833Y890D02*
X839Y890D01*
X963Y890D02*
X970Y890D01*
X1097Y890D02*
X1104Y890D01*
X1143Y890D02*
X1149Y890D01*
X1190Y890D02*
X1196Y890D01*
X763Y889D02*
X769Y889D01*
X776Y889D02*
X782Y889D01*
X806Y889D02*
X812Y889D01*
X833Y889D02*
X839Y889D01*
X963Y889D02*
X970Y889D01*
X1097Y889D02*
X1104Y889D01*
X1143Y889D02*
X1149Y889D01*
X1190Y889D02*
X1196Y889D01*
X763Y888D02*
X769Y888D01*
X776Y888D02*
X782Y888D01*
X806Y888D02*
X812Y888D01*
X833Y888D02*
X839Y888D01*
X962Y888D02*
X970Y888D01*
X1097Y888D02*
X1104Y888D01*
X1143Y888D02*
X1149Y888D01*
X1190Y888D02*
X1196Y888D01*
X763Y887D02*
X769Y887D01*
X776Y887D02*
X782Y887D01*
X806Y887D02*
X812Y887D01*
X833Y887D02*
X839Y887D01*
X962Y887D02*
X969Y887D01*
X1098Y887D02*
X1105Y887D01*
X1143Y887D02*
X1149Y887D01*
X1190Y887D02*
X1196Y887D01*
X763Y886D02*
X769Y886D01*
X776Y886D02*
X782Y886D01*
X806Y886D02*
X812Y886D01*
X833Y886D02*
X839Y886D01*
X962Y886D02*
X969Y886D01*
X1098Y886D02*
X1105Y886D01*
X1143Y886D02*
X1149Y886D01*
X1190Y886D02*
X1196Y886D01*
X763Y885D02*
X769Y885D01*
X776Y885D02*
X782Y885D01*
X806Y885D02*
X812Y885D01*
X833Y885D02*
X839Y885D01*
X962Y885D02*
X969Y885D01*
X1098Y885D02*
X1105Y885D01*
X1143Y885D02*
X1149Y885D01*
X1190Y885D02*
X1196Y885D01*
X763Y884D02*
X769Y884D01*
X776Y884D02*
X782Y884D01*
X806Y884D02*
X813Y884D01*
X833Y884D02*
X839Y884D01*
X962Y884D02*
X969Y884D01*
X1098Y884D02*
X1105Y884D01*
X1143Y884D02*
X1149Y884D01*
X1190Y884D02*
X1196Y884D01*
X763Y883D02*
X782Y883D01*
X806Y883D02*
X839Y883D01*
X961Y883D02*
X968Y883D01*
X1099Y883D02*
X1106Y883D01*
X1143Y883D02*
X1149Y883D01*
X1190Y883D02*
X1196Y883D01*
X763Y882D02*
X782Y882D01*
X807Y882D02*
X839Y882D01*
X961Y882D02*
X968Y882D01*
X1099Y882D02*
X1106Y882D01*
X1143Y882D02*
X1149Y882D01*
X1190Y882D02*
X1196Y882D01*
X763Y881D02*
X782Y881D01*
X807Y881D02*
X839Y881D01*
X961Y881D02*
X968Y881D01*
X1099Y881D02*
X1106Y881D01*
X1143Y881D02*
X1149Y881D01*
X1190Y881D02*
X1196Y881D01*
X763Y880D02*
X782Y880D01*
X808Y880D02*
X839Y880D01*
X961Y880D02*
X968Y880D01*
X1099Y880D02*
X1106Y880D01*
X1143Y880D02*
X1149Y880D01*
X1190Y880D02*
X1196Y880D01*
X763Y879D02*
X782Y879D01*
X809Y879D02*
X839Y879D01*
X961Y879D02*
X968Y879D01*
X1099Y879D02*
X1106Y879D01*
X1143Y879D02*
X1149Y879D01*
X1190Y879D02*
X1196Y879D01*
X763Y878D02*
X782Y878D01*
X811Y878D02*
X839Y878D01*
X961Y878D02*
X968Y878D01*
X1099Y878D02*
X1106Y878D01*
X1143Y878D02*
X1149Y878D01*
X1190Y878D02*
X1196Y878D01*
X764Y877D02*
X781Y877D01*
X813Y877D02*
X839Y877D01*
X960Y877D02*
X968Y877D01*
X1099Y877D02*
X1106Y877D01*
X1143Y877D02*
X1149Y877D01*
X1190Y877D02*
X1196Y877D01*
X960Y876D02*
X967Y876D01*
X1100Y876D02*
X1107Y876D01*
X1143Y876D02*
X1149Y876D01*
X1190Y876D02*
X1196Y876D01*
X960Y875D02*
X967Y875D01*
X1100Y875D02*
X1107Y875D01*
X1144Y875D02*
X1148Y875D01*
X1191Y875D02*
X1195Y875D01*
X960Y874D02*
X967Y874D01*
X1100Y874D02*
X1107Y874D01*
X1146Y874D02*
X1146Y874D01*
X1193Y874D02*
X1193Y874D01*
X960Y873D02*
X967Y873D01*
X1100Y873D02*
X1107Y873D01*
X960Y872D02*
X967Y872D01*
X1100Y872D02*
X1107Y872D01*
X960Y871D02*
X967Y871D01*
X1100Y871D02*
X1107Y871D01*
X960Y870D02*
X967Y870D01*
X1100Y870D02*
X1107Y870D01*
X960Y869D02*
X967Y869D01*
X1100Y869D02*
X1107Y869D01*
X960Y868D02*
X967Y868D01*
X1100Y868D02*
X1107Y868D01*
X960Y867D02*
X967Y867D01*
X1100Y867D02*
X1107Y867D01*
X960Y866D02*
X967Y866D01*
X1100Y866D02*
X1107Y866D01*
X960Y865D02*
X967Y865D01*
X1100Y865D02*
X1107Y865D01*
X960Y864D02*
X967Y864D01*
X1100Y864D02*
X1107Y864D01*
X960Y863D02*
X967Y863D01*
X1100Y863D02*
X1107Y863D01*
X960Y862D02*
X967Y862D01*
X1100Y862D02*
X1107Y862D01*
X960Y861D02*
X967Y861D01*
X1100Y861D02*
X1107Y861D01*
X961Y860D02*
X968Y860D01*
X1099Y860D02*
X1106Y860D01*
X961Y859D02*
X968Y859D01*
X1099Y859D02*
X1106Y859D01*
X961Y858D02*
X968Y858D01*
X1099Y858D02*
X1106Y858D01*
X961Y857D02*
X968Y857D01*
X1099Y857D02*
X1106Y857D01*
X961Y856D02*
X968Y856D01*
X1099Y856D02*
X1106Y856D01*
X1161Y856D02*
X1195Y856D01*
X961Y855D02*
X968Y855D01*
X1099Y855D02*
X1106Y855D01*
X1161Y855D02*
X1196Y855D01*
X961Y854D02*
X969Y854D01*
X1098Y854D02*
X1106Y854D01*
X1161Y854D02*
X1196Y854D01*
X962Y853D02*
X969Y853D01*
X1098Y853D02*
X1105Y853D01*
X1161Y853D02*
X1196Y853D01*
X962Y852D02*
X969Y852D01*
X1098Y852D02*
X1105Y852D01*
X1161Y852D02*
X1196Y852D01*
X962Y851D02*
X969Y851D01*
X1098Y851D02*
X1105Y851D01*
X1161Y851D02*
X1195Y851D01*
X962Y850D02*
X969Y850D01*
X1097Y850D02*
X1105Y850D01*
X1161Y850D02*
X1193Y850D01*
X335Y849D02*
X362Y849D01*
X386Y849D02*
X418Y849D01*
X963Y849D02*
X970Y849D01*
X1097Y849D02*
X1104Y849D01*
X1161Y849D02*
X1167Y849D01*
X335Y848D02*
X364Y848D01*
X385Y848D02*
X418Y848D01*
X963Y848D02*
X970Y848D01*
X1097Y848D02*
X1104Y848D01*
X1161Y848D02*
X1167Y848D01*
X335Y847D02*
X365Y847D01*
X385Y847D02*
X418Y847D01*
X963Y847D02*
X995Y847D01*
X1072Y847D02*
X1104Y847D01*
X1161Y847D02*
X1167Y847D01*
X335Y846D02*
X366Y846D01*
X385Y846D02*
X418Y846D01*
X963Y846D02*
X996Y846D01*
X1071Y846D02*
X1103Y846D01*
X1161Y846D02*
X1167Y846D01*
X335Y845D02*
X367Y845D01*
X385Y845D02*
X418Y845D01*
X964Y845D02*
X997Y845D01*
X1070Y845D02*
X1103Y845D01*
X1161Y845D02*
X1167Y845D01*
X335Y844D02*
X367Y844D01*
X385Y844D02*
X418Y844D01*
X964Y844D02*
X997Y844D01*
X1070Y844D02*
X1103Y844D01*
X1161Y844D02*
X1167Y844D01*
X335Y843D02*
X368Y843D01*
X385Y843D02*
X418Y843D01*
X964Y843D02*
X997Y843D01*
X1070Y843D02*
X1102Y843D01*
X1161Y843D02*
X1167Y843D01*
X335Y842D02*
X341Y842D01*
X361Y842D02*
X368Y842D01*
X385Y842D02*
X390Y842D01*
X412Y842D02*
X418Y842D01*
X965Y842D02*
X997Y842D01*
X1070Y842D02*
X1102Y842D01*
X1161Y842D02*
X1167Y842D01*
X335Y841D02*
X341Y841D01*
X362Y841D02*
X368Y841D01*
X386Y841D02*
X390Y841D01*
X412Y841D02*
X418Y841D01*
X965Y841D02*
X996Y841D01*
X1071Y841D02*
X1102Y841D01*
X1161Y841D02*
X1167Y841D01*
X89Y840D02*
X112Y840D01*
X142Y840D02*
X145Y840D01*
X335Y840D02*
X341Y840D01*
X362Y840D02*
X368Y840D01*
X412Y840D02*
X418Y840D01*
X965Y840D02*
X994Y840D01*
X1073Y840D02*
X1101Y840D01*
X1161Y840D02*
X1167Y840D01*
X89Y839D02*
X115Y839D01*
X141Y839D02*
X146Y839D01*
X335Y839D02*
X341Y839D01*
X362Y839D02*
X368Y839D01*
X412Y839D02*
X418Y839D01*
X966Y839D02*
X974Y839D01*
X1093Y839D02*
X1101Y839D01*
X1161Y839D02*
X1167Y839D01*
X89Y838D02*
X116Y838D01*
X141Y838D02*
X146Y838D01*
X335Y838D02*
X341Y838D01*
X362Y838D02*
X368Y838D01*
X412Y838D02*
X418Y838D01*
X966Y838D02*
X974Y838D01*
X1093Y838D02*
X1101Y838D01*
X1161Y838D02*
X1167Y838D01*
X89Y837D02*
X118Y837D01*
X141Y837D02*
X147Y837D01*
X335Y837D02*
X341Y837D01*
X362Y837D02*
X368Y837D01*
X412Y837D02*
X418Y837D01*
X967Y837D02*
X974Y837D01*
X1093Y837D02*
X1100Y837D01*
X1161Y837D02*
X1167Y837D01*
X89Y836D02*
X119Y836D01*
X141Y836D02*
X147Y836D01*
X335Y836D02*
X341Y836D01*
X362Y836D02*
X368Y836D01*
X412Y836D02*
X418Y836D01*
X967Y836D02*
X975Y836D01*
X1092Y836D02*
X1100Y836D01*
X1146Y836D02*
X1188Y836D01*
X89Y835D02*
X120Y835D01*
X141Y835D02*
X147Y835D01*
X335Y835D02*
X341Y835D01*
X362Y835D02*
X368Y835D01*
X412Y835D02*
X418Y835D01*
X968Y835D02*
X976Y835D01*
X1091Y835D02*
X1099Y835D01*
X1144Y835D02*
X1189Y835D01*
X89Y834D02*
X120Y834D01*
X141Y834D02*
X147Y834D01*
X163Y834D02*
X166Y834D01*
X335Y834D02*
X341Y834D01*
X362Y834D02*
X368Y834D01*
X412Y834D02*
X418Y834D01*
X968Y834D02*
X976Y834D01*
X1091Y834D02*
X1099Y834D01*
X1143Y834D02*
X1190Y834D01*
X89Y833D02*
X95Y833D01*
X112Y833D02*
X121Y833D01*
X141Y833D02*
X147Y833D01*
X162Y833D02*
X167Y833D01*
X335Y833D02*
X341Y833D01*
X361Y833D02*
X368Y833D01*
X412Y833D02*
X418Y833D01*
X969Y833D02*
X977Y833D01*
X1090Y833D02*
X1098Y833D01*
X1143Y833D02*
X1190Y833D01*
X89Y832D02*
X95Y832D01*
X114Y832D02*
X121Y832D01*
X141Y832D02*
X147Y832D01*
X161Y832D02*
X167Y832D01*
X335Y832D02*
X368Y832D01*
X412Y832D02*
X418Y832D01*
X969Y832D02*
X977Y832D01*
X1090Y832D02*
X1098Y832D01*
X1143Y832D02*
X1190Y832D01*
X89Y831D02*
X95Y831D01*
X115Y831D02*
X122Y831D01*
X141Y831D02*
X147Y831D01*
X161Y831D02*
X167Y831D01*
X335Y831D02*
X367Y831D01*
X412Y831D02*
X418Y831D01*
X970Y831D02*
X978Y831D01*
X1089Y831D02*
X1097Y831D01*
X1143Y831D02*
X1190Y831D01*
X89Y830D02*
X95Y830D01*
X116Y830D02*
X122Y830D01*
X141Y830D02*
X147Y830D01*
X161Y830D02*
X167Y830D01*
X335Y830D02*
X366Y830D01*
X412Y830D02*
X418Y830D01*
X970Y830D02*
X979Y830D01*
X1088Y830D02*
X1097Y830D01*
X1144Y830D02*
X1189Y830D01*
X89Y829D02*
X95Y829D01*
X116Y829D02*
X122Y829D01*
X141Y829D02*
X147Y829D01*
X161Y829D02*
X167Y829D01*
X335Y829D02*
X366Y829D01*
X411Y829D02*
X418Y829D01*
X971Y829D02*
X979Y829D01*
X1088Y829D02*
X1096Y829D01*
X1160Y829D02*
X1167Y829D01*
X89Y828D02*
X95Y828D01*
X116Y828D02*
X122Y828D01*
X141Y828D02*
X147Y828D01*
X161Y828D02*
X167Y828D01*
X335Y828D02*
X365Y828D01*
X409Y828D02*
X418Y828D01*
X971Y828D02*
X980Y828D01*
X1087Y828D02*
X1096Y828D01*
X1161Y828D02*
X1166Y828D01*
X89Y827D02*
X95Y827D01*
X117Y827D02*
X123Y827D01*
X141Y827D02*
X147Y827D01*
X161Y827D02*
X167Y827D01*
X335Y827D02*
X363Y827D01*
X408Y827D02*
X418Y827D01*
X972Y827D02*
X981Y827D01*
X1086Y827D02*
X1095Y827D01*
X1161Y827D02*
X1166Y827D01*
X89Y826D02*
X95Y826D01*
X117Y826D02*
X123Y826D01*
X141Y826D02*
X147Y826D01*
X161Y826D02*
X167Y826D01*
X335Y826D02*
X362Y826D01*
X407Y826D02*
X417Y826D01*
X973Y826D02*
X981Y826D01*
X1086Y826D02*
X1094Y826D01*
X1163Y826D02*
X1164Y826D01*
X89Y825D02*
X95Y825D01*
X117Y825D02*
X123Y825D01*
X141Y825D02*
X147Y825D01*
X161Y825D02*
X167Y825D01*
X335Y825D02*
X341Y825D01*
X347Y825D02*
X354Y825D01*
X406Y825D02*
X416Y825D01*
X973Y825D02*
X982Y825D01*
X1085Y825D02*
X1094Y825D01*
X89Y824D02*
X95Y824D01*
X117Y824D02*
X123Y824D01*
X141Y824D02*
X147Y824D01*
X161Y824D02*
X167Y824D01*
X335Y824D02*
X341Y824D01*
X347Y824D02*
X354Y824D01*
X405Y824D02*
X415Y824D01*
X974Y824D02*
X983Y824D01*
X1084Y824D02*
X1093Y824D01*
X89Y823D02*
X95Y823D01*
X116Y823D02*
X122Y823D01*
X141Y823D02*
X147Y823D01*
X161Y823D02*
X167Y823D01*
X335Y823D02*
X341Y823D01*
X348Y823D02*
X355Y823D01*
X404Y823D02*
X413Y823D01*
X975Y823D02*
X984Y823D01*
X1083Y823D02*
X1092Y823D01*
X89Y822D02*
X95Y822D01*
X116Y822D02*
X122Y822D01*
X141Y822D02*
X147Y822D01*
X161Y822D02*
X167Y822D01*
X335Y822D02*
X341Y822D01*
X348Y822D02*
X356Y822D01*
X402Y822D02*
X412Y822D01*
X975Y822D02*
X985Y822D01*
X1082Y822D02*
X1092Y822D01*
X89Y821D02*
X95Y821D01*
X116Y821D02*
X122Y821D01*
X141Y821D02*
X147Y821D01*
X161Y821D02*
X167Y821D01*
X335Y821D02*
X341Y821D01*
X349Y821D02*
X356Y821D01*
X401Y821D02*
X411Y821D01*
X976Y821D02*
X985Y821D01*
X1081Y821D02*
X1091Y821D01*
X89Y820D02*
X95Y820D01*
X115Y820D02*
X122Y820D01*
X141Y820D02*
X147Y820D01*
X161Y820D02*
X167Y820D01*
X335Y820D02*
X341Y820D01*
X350Y820D02*
X357Y820D01*
X400Y820D02*
X410Y820D01*
X977Y820D02*
X986Y820D01*
X1081Y820D02*
X1090Y820D01*
X89Y819D02*
X95Y819D01*
X114Y819D02*
X122Y819D01*
X141Y819D02*
X147Y819D01*
X161Y819D02*
X167Y819D01*
X335Y819D02*
X341Y819D01*
X350Y819D02*
X357Y819D01*
X399Y819D02*
X409Y819D01*
X978Y819D02*
X987Y819D01*
X1080Y819D02*
X1089Y819D01*
X89Y818D02*
X95Y818D01*
X113Y818D02*
X121Y818D01*
X141Y818D02*
X147Y818D01*
X161Y818D02*
X167Y818D01*
X335Y818D02*
X341Y818D01*
X351Y818D02*
X358Y818D01*
X399Y818D02*
X408Y818D01*
X979Y818D02*
X987Y818D01*
X1080Y818D02*
X1088Y818D01*
X89Y817D02*
X121Y817D01*
X141Y817D02*
X147Y817D01*
X161Y817D02*
X167Y817D01*
X335Y817D02*
X341Y817D01*
X351Y817D02*
X358Y817D01*
X398Y817D02*
X406Y817D01*
X979Y817D02*
X987Y817D01*
X1080Y817D02*
X1088Y817D01*
X89Y816D02*
X120Y816D01*
X141Y816D02*
X147Y816D01*
X161Y816D02*
X167Y816D01*
X335Y816D02*
X341Y816D01*
X352Y816D02*
X359Y816D01*
X398Y816D02*
X405Y816D01*
X980Y816D02*
X986Y816D01*
X1080Y816D02*
X1087Y816D01*
X89Y815D02*
X119Y815D01*
X141Y815D02*
X147Y815D01*
X161Y815D02*
X167Y815D01*
X335Y815D02*
X341Y815D01*
X352Y815D02*
X360Y815D01*
X398Y815D02*
X404Y815D01*
X981Y815D02*
X986Y815D01*
X1081Y815D02*
X1086Y815D01*
X89Y814D02*
X118Y814D01*
X141Y814D02*
X147Y814D01*
X161Y814D02*
X167Y814D01*
X335Y814D02*
X341Y814D01*
X353Y814D02*
X360Y814D01*
X398Y814D02*
X404Y814D01*
X983Y814D02*
X984Y814D01*
X1083Y814D02*
X1084Y814D01*
X89Y813D02*
X118Y813D01*
X141Y813D02*
X147Y813D01*
X161Y813D02*
X167Y813D01*
X335Y813D02*
X341Y813D01*
X354Y813D02*
X361Y813D01*
X398Y813D02*
X404Y813D01*
X89Y812D02*
X119Y812D01*
X141Y812D02*
X147Y812D01*
X161Y812D02*
X167Y812D01*
X335Y812D02*
X341Y812D01*
X354Y812D02*
X361Y812D01*
X398Y812D02*
X404Y812D01*
X89Y811D02*
X120Y811D01*
X141Y811D02*
X168Y811D01*
X335Y811D02*
X341Y811D01*
X355Y811D02*
X362Y811D01*
X398Y811D02*
X404Y811D01*
X89Y810D02*
X121Y810D01*
X141Y810D02*
X170Y810D01*
X335Y810D02*
X341Y810D01*
X355Y810D02*
X363Y810D01*
X398Y810D02*
X404Y810D01*
X89Y809D02*
X95Y809D01*
X113Y809D02*
X121Y809D01*
X141Y809D02*
X170Y809D01*
X335Y809D02*
X341Y809D01*
X356Y809D02*
X363Y809D01*
X398Y809D02*
X404Y809D01*
X89Y808D02*
X95Y808D01*
X114Y808D02*
X122Y808D01*
X141Y808D02*
X171Y808D01*
X335Y808D02*
X341Y808D01*
X357Y808D02*
X364Y808D01*
X398Y808D02*
X404Y808D01*
X89Y807D02*
X95Y807D01*
X115Y807D02*
X122Y807D01*
X141Y807D02*
X171Y807D01*
X335Y807D02*
X341Y807D01*
X357Y807D02*
X364Y807D01*
X398Y807D02*
X404Y807D01*
X89Y806D02*
X95Y806D01*
X116Y806D02*
X122Y806D01*
X141Y806D02*
X170Y806D01*
X335Y806D02*
X341Y806D01*
X358Y806D02*
X365Y806D01*
X398Y806D02*
X404Y806D01*
X89Y805D02*
X95Y805D01*
X116Y805D02*
X122Y805D01*
X141Y805D02*
X170Y805D01*
X335Y805D02*
X341Y805D01*
X358Y805D02*
X365Y805D01*
X398Y805D02*
X404Y805D01*
X89Y804D02*
X95Y804D01*
X116Y804D02*
X122Y804D01*
X161Y804D02*
X168Y804D01*
X335Y804D02*
X341Y804D01*
X359Y804D02*
X366Y804D01*
X398Y804D02*
X404Y804D01*
X89Y803D02*
X95Y803D01*
X117Y803D02*
X123Y803D01*
X161Y803D02*
X167Y803D01*
X335Y803D02*
X341Y803D01*
X359Y803D02*
X367Y803D01*
X398Y803D02*
X404Y803D01*
X89Y802D02*
X95Y802D01*
X117Y802D02*
X123Y802D01*
X161Y802D02*
X167Y802D01*
X335Y802D02*
X341Y802D01*
X360Y802D02*
X367Y802D01*
X398Y802D02*
X404Y802D01*
X89Y801D02*
X95Y801D01*
X117Y801D02*
X123Y801D01*
X161Y801D02*
X167Y801D01*
X335Y801D02*
X341Y801D01*
X361Y801D02*
X368Y801D01*
X398Y801D02*
X404Y801D01*
X89Y800D02*
X95Y800D01*
X117Y800D02*
X123Y800D01*
X161Y800D02*
X167Y800D01*
X335Y800D02*
X341Y800D01*
X361Y800D02*
X368Y800D01*
X398Y800D02*
X404Y800D01*
X89Y799D02*
X95Y799D01*
X116Y799D02*
X122Y799D01*
X161Y799D02*
X167Y799D01*
X335Y799D02*
X341Y799D01*
X362Y799D02*
X368Y799D01*
X398Y799D02*
X404Y799D01*
X89Y798D02*
X95Y798D01*
X116Y798D02*
X122Y798D01*
X161Y798D02*
X167Y798D01*
X335Y798D02*
X340Y798D01*
X362Y798D02*
X368Y798D01*
X399Y798D02*
X404Y798D01*
X89Y797D02*
X95Y797D01*
X116Y797D02*
X122Y797D01*
X161Y797D02*
X167Y797D01*
X336Y797D02*
X340Y797D01*
X363Y797D02*
X367Y797D01*
X399Y797D02*
X403Y797D01*
X89Y796D02*
X95Y796D01*
X115Y796D02*
X122Y796D01*
X161Y796D02*
X167Y796D01*
X337Y796D02*
X338Y796D01*
X365Y796D02*
X366Y796D01*
X401Y796D02*
X402Y796D01*
X89Y795D02*
X95Y795D01*
X114Y795D02*
X121Y795D01*
X161Y795D02*
X167Y795D01*
X89Y794D02*
X95Y794D01*
X112Y794D02*
X121Y794D01*
X161Y794D02*
X167Y794D01*
X89Y793D02*
X120Y793D01*
X161Y793D02*
X167Y793D01*
X89Y792D02*
X120Y792D01*
X161Y792D02*
X167Y792D01*
X89Y791D02*
X119Y791D01*
X161Y791D02*
X167Y791D01*
X89Y790D02*
X118Y790D01*
X161Y790D02*
X167Y790D01*
X89Y789D02*
X117Y789D01*
X162Y789D02*
X167Y789D01*
X89Y788D02*
X115Y788D01*
X162Y788D02*
X167Y788D01*
X89Y787D02*
X112Y787D01*
X163Y787D02*
X166Y787D01*
X761Y735D02*
X782Y735D01*
X808Y735D02*
X835Y735D01*
X858Y735D02*
X858Y735D01*
X885Y735D02*
X885Y735D01*
X758Y734D02*
X785Y734D01*
X806Y734D02*
X837Y734D01*
X856Y734D02*
X860Y734D01*
X883Y734D02*
X887Y734D01*
X757Y733D02*
X786Y733D01*
X805Y733D02*
X838Y733D01*
X855Y733D02*
X861Y733D01*
X883Y733D02*
X888Y733D01*
X756Y732D02*
X787Y732D01*
X805Y732D02*
X838Y732D01*
X855Y732D02*
X861Y732D01*
X882Y732D02*
X888Y732D01*
X755Y731D02*
X788Y731D01*
X805Y731D02*
X838Y731D01*
X855Y731D02*
X862Y731D01*
X882Y731D02*
X888Y731D01*
X755Y730D02*
X788Y730D01*
X805Y730D02*
X838Y730D01*
X855Y730D02*
X862Y730D01*
X882Y730D02*
X888Y730D01*
X755Y729D02*
X788Y729D01*
X805Y729D02*
X837Y729D01*
X856Y729D02*
X863Y729D01*
X882Y729D02*
X888Y729D01*
X755Y728D02*
X761Y728D01*
X782Y728D02*
X788Y728D01*
X805Y728D02*
X811Y728D01*
X818Y728D02*
X825Y728D01*
X856Y728D02*
X863Y728D01*
X882Y728D02*
X888Y728D01*
X755Y727D02*
X761Y727D01*
X782Y727D02*
X788Y727D01*
X805Y727D02*
X811Y727D01*
X819Y727D02*
X825Y727D01*
X857Y727D02*
X864Y727D01*
X882Y727D02*
X888Y727D01*
X755Y726D02*
X761Y726D01*
X782Y726D02*
X788Y726D01*
X805Y726D02*
X811Y726D01*
X819Y726D02*
X825Y726D01*
X857Y726D02*
X865Y726D01*
X882Y726D02*
X888Y726D01*
X755Y725D02*
X761Y725D01*
X782Y725D02*
X788Y725D01*
X805Y725D02*
X811Y725D01*
X819Y725D02*
X825Y725D01*
X858Y725D02*
X865Y725D01*
X882Y725D02*
X888Y725D01*
X755Y724D02*
X761Y724D01*
X782Y724D02*
X788Y724D01*
X805Y724D02*
X811Y724D01*
X819Y724D02*
X825Y724D01*
X859Y724D02*
X866Y724D01*
X882Y724D02*
X888Y724D01*
X755Y723D02*
X761Y723D01*
X782Y723D02*
X788Y723D01*
X805Y723D02*
X811Y723D01*
X819Y723D02*
X825Y723D01*
X859Y723D02*
X866Y723D01*
X882Y723D02*
X888Y723D01*
X982Y723D02*
X985Y723D01*
X1082Y723D02*
X1085Y723D01*
X755Y722D02*
X761Y722D01*
X782Y722D02*
X788Y722D01*
X805Y722D02*
X811Y722D01*
X819Y722D02*
X825Y722D01*
X860Y722D02*
X867Y722D01*
X882Y722D02*
X888Y722D01*
X981Y722D02*
X986Y722D01*
X1081Y722D02*
X1086Y722D01*
X755Y721D02*
X761Y721D01*
X782Y721D02*
X788Y721D01*
X805Y721D02*
X811Y721D01*
X819Y721D02*
X825Y721D01*
X860Y721D02*
X868Y721D01*
X882Y721D02*
X888Y721D01*
X980Y721D02*
X987Y721D01*
X1080Y721D02*
X1087Y721D01*
X755Y720D02*
X761Y720D01*
X782Y720D02*
X788Y720D01*
X805Y720D02*
X811Y720D01*
X819Y720D02*
X825Y720D01*
X861Y720D02*
X868Y720D01*
X882Y720D02*
X888Y720D01*
X979Y720D02*
X987Y720D01*
X1080Y720D02*
X1088Y720D01*
X755Y719D02*
X761Y719D01*
X782Y719D02*
X788Y719D01*
X805Y719D02*
X811Y719D01*
X819Y719D02*
X825Y719D01*
X862Y719D02*
X869Y719D01*
X882Y719D02*
X888Y719D01*
X978Y719D02*
X987Y719D01*
X1080Y719D02*
X1089Y719D01*
X755Y718D02*
X761Y718D01*
X782Y718D02*
X788Y718D01*
X805Y718D02*
X811Y718D01*
X819Y718D02*
X825Y718D01*
X862Y718D02*
X869Y718D01*
X882Y718D02*
X888Y718D01*
X977Y718D02*
X986Y718D01*
X1080Y718D02*
X1090Y718D01*
X755Y717D02*
X761Y717D01*
X782Y717D02*
X788Y717D01*
X805Y717D02*
X811Y717D01*
X819Y717D02*
X825Y717D01*
X863Y717D02*
X870Y717D01*
X882Y717D02*
X888Y717D01*
X976Y717D02*
X986Y717D01*
X1081Y717D02*
X1091Y717D01*
X755Y716D02*
X761Y716D01*
X782Y716D02*
X788Y716D01*
X805Y716D02*
X811Y716D01*
X819Y716D02*
X825Y716D01*
X863Y716D02*
X870Y716D01*
X882Y716D02*
X888Y716D01*
X976Y716D02*
X985Y716D01*
X1082Y716D02*
X1091Y716D01*
X755Y715D02*
X761Y715D01*
X782Y715D02*
X788Y715D01*
X805Y715D02*
X811Y715D01*
X819Y715D02*
X825Y715D01*
X864Y715D02*
X871Y715D01*
X882Y715D02*
X888Y715D01*
X975Y715D02*
X984Y715D01*
X1083Y715D02*
X1092Y715D01*
X755Y714D02*
X761Y714D01*
X782Y714D02*
X788Y714D01*
X805Y714D02*
X811Y714D01*
X819Y714D02*
X825Y714D01*
X864Y714D02*
X872Y714D01*
X882Y714D02*
X888Y714D01*
X974Y714D02*
X983Y714D01*
X1084Y714D02*
X1093Y714D01*
X755Y713D02*
X761Y713D01*
X782Y713D02*
X788Y713D01*
X805Y713D02*
X811Y713D01*
X819Y713D02*
X825Y713D01*
X865Y713D02*
X872Y713D01*
X882Y713D02*
X888Y713D01*
X974Y713D02*
X982Y713D01*
X1084Y713D02*
X1093Y713D01*
X755Y712D02*
X761Y712D01*
X782Y712D02*
X788Y712D01*
X805Y712D02*
X810Y712D01*
X819Y712D02*
X825Y712D01*
X866Y712D02*
X873Y712D01*
X882Y712D02*
X888Y712D01*
X973Y712D02*
X982Y712D01*
X1085Y712D02*
X1094Y712D01*
X755Y711D02*
X761Y711D01*
X782Y711D02*
X788Y711D01*
X806Y711D02*
X809Y711D01*
X819Y711D02*
X825Y711D01*
X866Y711D02*
X873Y711D01*
X882Y711D02*
X888Y711D01*
X972Y711D02*
X981Y711D01*
X1086Y711D02*
X1095Y711D01*
X1166Y711D02*
X1174Y711D01*
X755Y710D02*
X761Y710D01*
X782Y710D02*
X788Y710D01*
X819Y710D02*
X825Y710D01*
X867Y710D02*
X874Y710D01*
X882Y710D02*
X888Y710D01*
X972Y710D02*
X980Y710D01*
X1087Y710D02*
X1095Y710D01*
X1163Y710D02*
X1177Y710D01*
X755Y709D02*
X761Y709D01*
X782Y709D02*
X788Y709D01*
X819Y709D02*
X825Y709D01*
X867Y709D02*
X875Y709D01*
X882Y709D02*
X888Y709D01*
X971Y709D02*
X980Y709D01*
X1087Y709D02*
X1096Y709D01*
X1161Y709D02*
X1179Y709D01*
X755Y708D02*
X761Y708D01*
X782Y708D02*
X788Y708D01*
X819Y708D02*
X825Y708D01*
X868Y708D02*
X875Y708D01*
X882Y708D02*
X888Y708D01*
X971Y708D02*
X979Y708D01*
X1088Y708D02*
X1096Y708D01*
X1159Y708D02*
X1181Y708D01*
X755Y707D02*
X761Y707D01*
X782Y707D02*
X788Y707D01*
X819Y707D02*
X825Y707D01*
X869Y707D02*
X876Y707D01*
X882Y707D02*
X888Y707D01*
X970Y707D02*
X978Y707D01*
X1089Y707D02*
X1097Y707D01*
X1157Y707D02*
X1183Y707D01*
X755Y706D02*
X761Y706D01*
X782Y706D02*
X788Y706D01*
X819Y706D02*
X825Y706D01*
X869Y706D02*
X876Y706D01*
X882Y706D02*
X888Y706D01*
X969Y706D02*
X977Y706D01*
X1089Y706D02*
X1098Y706D01*
X1155Y706D02*
X1185Y706D01*
X755Y705D02*
X761Y705D01*
X782Y705D02*
X788Y705D01*
X819Y705D02*
X825Y705D01*
X862Y705D02*
X888Y705D01*
X969Y705D02*
X977Y705D01*
X1090Y705D02*
X1098Y705D01*
X1153Y705D02*
X1187Y705D01*
X755Y704D02*
X761Y704D01*
X782Y704D02*
X788Y704D01*
X819Y704D02*
X825Y704D01*
X860Y704D02*
X888Y704D01*
X968Y704D02*
X976Y704D01*
X1091Y704D02*
X1099Y704D01*
X1151Y704D02*
X1166Y704D01*
X1174Y704D02*
X1189Y704D01*
X755Y703D02*
X761Y703D01*
X782Y703D02*
X788Y703D01*
X819Y703D02*
X825Y703D01*
X858Y703D02*
X888Y703D01*
X968Y703D02*
X976Y703D01*
X1091Y703D02*
X1099Y703D01*
X1149Y703D02*
X1164Y703D01*
X1176Y703D02*
X1191Y703D01*
X755Y702D02*
X761Y702D01*
X782Y702D02*
X788Y702D01*
X819Y702D02*
X825Y702D01*
X857Y702D02*
X888Y702D01*
X967Y702D02*
X975Y702D01*
X1092Y702D02*
X1100Y702D01*
X1148Y702D02*
X1162Y702D01*
X1178Y702D02*
X1193Y702D01*
X755Y701D02*
X761Y701D01*
X782Y701D02*
X788Y701D01*
X819Y701D02*
X825Y701D01*
X857Y701D02*
X888Y701D01*
X967Y701D02*
X975Y701D01*
X1092Y701D02*
X1100Y701D01*
X1147Y701D02*
X1160Y701D01*
X1180Y701D02*
X1194Y701D01*
X755Y700D02*
X761Y700D01*
X782Y700D02*
X788Y700D01*
X819Y700D02*
X825Y700D01*
X856Y700D02*
X888Y700D01*
X967Y700D02*
X974Y700D01*
X1093Y700D02*
X1100Y700D01*
X1146Y700D02*
X1158Y700D01*
X1182Y700D02*
X1195Y700D01*
X755Y699D02*
X761Y699D01*
X782Y699D02*
X788Y699D01*
X819Y699D02*
X825Y699D01*
X856Y699D02*
X888Y699D01*
X966Y699D02*
X974Y699D01*
X1093Y699D02*
X1101Y699D01*
X1145Y699D02*
X1156Y699D01*
X1184Y699D02*
X1195Y699D01*
X755Y698D02*
X761Y698D01*
X782Y698D02*
X788Y698D01*
X819Y698D02*
X825Y698D01*
X855Y698D02*
X862Y698D01*
X882Y698D02*
X888Y698D01*
X966Y698D02*
X973Y698D01*
X1094Y698D02*
X1101Y698D01*
X1145Y698D02*
X1154Y698D01*
X1186Y698D02*
X1196Y698D01*
X755Y697D02*
X761Y697D01*
X782Y697D02*
X788Y697D01*
X819Y697D02*
X825Y697D01*
X855Y697D02*
X861Y697D01*
X882Y697D02*
X888Y697D01*
X965Y697D02*
X973Y697D01*
X1094Y697D02*
X1102Y697D01*
X1144Y697D02*
X1152Y697D01*
X1188Y697D02*
X1196Y697D01*
X755Y696D02*
X761Y696D01*
X782Y696D02*
X788Y696D01*
X819Y696D02*
X825Y696D01*
X855Y696D02*
X861Y696D01*
X882Y696D02*
X888Y696D01*
X965Y696D02*
X972Y696D01*
X1095Y696D02*
X1102Y696D01*
X1144Y696D02*
X1151Y696D01*
X1190Y696D02*
X1196Y696D01*
X755Y695D02*
X761Y695D01*
X782Y695D02*
X788Y695D01*
X819Y695D02*
X825Y695D01*
X855Y695D02*
X861Y695D01*
X882Y695D02*
X888Y695D01*
X965Y695D02*
X972Y695D01*
X1095Y695D02*
X1102Y695D01*
X1144Y695D02*
X1150Y695D01*
X1190Y695D02*
X1197Y695D01*
X755Y694D02*
X761Y694D01*
X782Y694D02*
X788Y694D01*
X819Y694D02*
X825Y694D01*
X855Y694D02*
X861Y694D01*
X882Y694D02*
X888Y694D01*
X964Y694D02*
X972Y694D01*
X1095Y694D02*
X1103Y694D01*
X1144Y694D02*
X1150Y694D01*
X1191Y694D02*
X1197Y694D01*
X755Y693D02*
X761Y693D01*
X782Y693D02*
X788Y693D01*
X819Y693D02*
X825Y693D01*
X855Y693D02*
X861Y693D01*
X882Y693D02*
X888Y693D01*
X964Y693D02*
X971Y693D01*
X1096Y693D02*
X1103Y693D01*
X1144Y693D02*
X1150Y693D01*
X1191Y693D02*
X1197Y693D01*
X755Y692D02*
X761Y692D01*
X782Y692D02*
X788Y692D01*
X819Y692D02*
X825Y692D01*
X855Y692D02*
X861Y692D01*
X882Y692D02*
X888Y692D01*
X964Y692D02*
X971Y692D01*
X1096Y692D02*
X1103Y692D01*
X1144Y692D02*
X1150Y692D01*
X1191Y692D02*
X1197Y692D01*
X755Y691D02*
X761Y691D01*
X782Y691D02*
X788Y691D01*
X819Y691D02*
X825Y691D01*
X855Y691D02*
X861Y691D01*
X882Y691D02*
X888Y691D01*
X963Y691D02*
X971Y691D01*
X1096Y691D02*
X1104Y691D01*
X1144Y691D02*
X1150Y691D01*
X1191Y691D02*
X1197Y691D01*
X755Y690D02*
X761Y690D01*
X782Y690D02*
X788Y690D01*
X819Y690D02*
X825Y690D01*
X855Y690D02*
X861Y690D01*
X882Y690D02*
X888Y690D01*
X963Y690D02*
X970Y690D01*
X1097Y690D02*
X1104Y690D01*
X1144Y690D02*
X1150Y690D01*
X1191Y690D02*
X1197Y690D01*
X755Y689D02*
X761Y689D01*
X782Y689D02*
X788Y689D01*
X819Y689D02*
X825Y689D01*
X855Y689D02*
X862Y689D01*
X882Y689D02*
X888Y689D01*
X963Y689D02*
X970Y689D01*
X1097Y689D02*
X1104Y689D01*
X1144Y689D02*
X1150Y689D01*
X1191Y689D02*
X1197Y689D01*
X755Y688D02*
X761Y688D01*
X782Y688D02*
X788Y688D01*
X819Y688D02*
X825Y688D01*
X855Y688D02*
X864Y688D01*
X882Y688D02*
X888Y688D01*
X962Y688D02*
X970Y688D01*
X1097Y688D02*
X1104Y688D01*
X1144Y688D02*
X1150Y688D01*
X1191Y688D02*
X1197Y688D01*
X755Y687D02*
X788Y687D01*
X819Y687D02*
X837Y687D01*
X856Y687D02*
X888Y687D01*
X962Y687D02*
X969Y687D01*
X1098Y687D02*
X1105Y687D01*
X1144Y687D02*
X1150Y687D01*
X1191Y687D02*
X1197Y687D01*
X755Y686D02*
X788Y686D01*
X819Y686D02*
X838Y686D01*
X856Y686D02*
X888Y686D01*
X962Y686D02*
X969Y686D01*
X1098Y686D02*
X1105Y686D01*
X1144Y686D02*
X1150Y686D01*
X1191Y686D02*
X1197Y686D01*
X755Y685D02*
X788Y685D01*
X819Y685D02*
X838Y685D01*
X857Y685D02*
X888Y685D01*
X962Y685D02*
X969Y685D01*
X1098Y685D02*
X1105Y685D01*
X1144Y685D02*
X1150Y685D01*
X1191Y685D02*
X1197Y685D01*
X756Y684D02*
X787Y684D01*
X819Y684D02*
X838Y684D01*
X858Y684D02*
X888Y684D01*
X962Y684D02*
X969Y684D01*
X1098Y684D02*
X1105Y684D01*
X1144Y684D02*
X1150Y684D01*
X1191Y684D02*
X1197Y684D01*
X757Y683D02*
X786Y683D01*
X819Y683D02*
X838Y683D01*
X859Y683D02*
X888Y683D01*
X961Y683D02*
X968Y683D01*
X1099Y683D02*
X1106Y683D01*
X1144Y683D02*
X1150Y683D01*
X1191Y683D02*
X1197Y683D01*
X758Y682D02*
X785Y682D01*
X819Y682D02*
X837Y682D01*
X861Y682D02*
X888Y682D01*
X961Y682D02*
X968Y682D01*
X1099Y682D02*
X1106Y682D01*
X1144Y682D02*
X1150Y682D01*
X1191Y682D02*
X1197Y682D01*
X761Y681D02*
X782Y681D01*
X819Y681D02*
X835Y681D01*
X864Y681D02*
X888Y681D01*
X961Y681D02*
X968Y681D01*
X1099Y681D02*
X1106Y681D01*
X1144Y681D02*
X1150Y681D01*
X1191Y681D02*
X1197Y681D01*
X961Y680D02*
X968Y680D01*
X1099Y680D02*
X1106Y680D01*
X1144Y680D02*
X1149Y680D01*
X1191Y680D02*
X1197Y680D01*
X961Y679D02*
X968Y679D01*
X1099Y679D02*
X1106Y679D01*
X1144Y679D02*
X1149Y679D01*
X1191Y679D02*
X1196Y679D01*
X961Y678D02*
X968Y678D01*
X1099Y678D02*
X1106Y678D01*
X1145Y678D02*
X1148Y678D01*
X1192Y678D02*
X1195Y678D01*
X960Y677D02*
X967Y677D01*
X1099Y677D02*
X1106Y677D01*
X960Y676D02*
X967Y676D01*
X1100Y676D02*
X1107Y676D01*
X960Y675D02*
X967Y675D01*
X1100Y675D02*
X1107Y675D01*
X960Y674D02*
X967Y674D01*
X1100Y674D02*
X1107Y674D01*
X960Y673D02*
X967Y673D01*
X1100Y673D02*
X1107Y673D01*
X960Y672D02*
X967Y672D01*
X1100Y672D02*
X1107Y672D01*
X960Y671D02*
X967Y671D01*
X1100Y671D02*
X1107Y671D01*
X960Y670D02*
X967Y670D01*
X1100Y670D02*
X1107Y670D01*
X960Y669D02*
X967Y669D01*
X1100Y669D02*
X1107Y669D01*
X960Y668D02*
X967Y668D01*
X1100Y668D02*
X1107Y668D01*
X960Y667D02*
X967Y667D01*
X1100Y667D02*
X1107Y667D01*
X960Y666D02*
X967Y666D01*
X1100Y666D02*
X1107Y666D01*
X960Y665D02*
X967Y665D01*
X1100Y665D02*
X1107Y665D01*
X960Y664D02*
X967Y664D01*
X1100Y664D02*
X1107Y664D01*
X960Y663D02*
X967Y663D01*
X1100Y663D02*
X1107Y663D01*
X960Y662D02*
X967Y662D01*
X1100Y662D02*
X1107Y662D01*
X960Y661D02*
X967Y661D01*
X1100Y661D02*
X1107Y661D01*
X1148Y661D02*
X1151Y661D01*
X961Y660D02*
X968Y660D01*
X1099Y660D02*
X1106Y660D01*
X1147Y660D02*
X1152Y660D01*
X961Y659D02*
X968Y659D01*
X1099Y659D02*
X1106Y659D01*
X1146Y659D02*
X1152Y659D01*
X961Y658D02*
X968Y658D01*
X1099Y658D02*
X1106Y658D01*
X1146Y658D02*
X1152Y658D01*
X961Y657D02*
X968Y657D01*
X1099Y657D02*
X1106Y657D01*
X1146Y657D02*
X1152Y657D01*
X961Y656D02*
X968Y656D01*
X1099Y656D02*
X1106Y656D01*
X1145Y656D02*
X1152Y656D01*
X961Y655D02*
X968Y655D01*
X1099Y655D02*
X1106Y655D01*
X1145Y655D02*
X1151Y655D01*
X961Y654D02*
X969Y654D01*
X1098Y654D02*
X1106Y654D01*
X1144Y654D02*
X1151Y654D01*
X1167Y654D02*
X1197Y654D01*
X962Y653D02*
X969Y653D01*
X1098Y653D02*
X1105Y653D01*
X1144Y653D02*
X1151Y653D01*
X1167Y653D02*
X1197Y653D01*
X333Y652D02*
X358Y652D01*
X385Y652D02*
X414Y652D01*
X962Y652D02*
X969Y652D01*
X1098Y652D02*
X1105Y652D01*
X1144Y652D02*
X1150Y652D01*
X1167Y652D02*
X1197Y652D01*
X332Y651D02*
X360Y651D01*
X383Y651D02*
X415Y651D01*
X962Y651D02*
X969Y651D01*
X1098Y651D02*
X1105Y651D01*
X1144Y651D02*
X1150Y651D01*
X1167Y651D02*
X1197Y651D01*
X332Y650D02*
X362Y650D01*
X383Y650D02*
X416Y650D01*
X962Y650D02*
X969Y650D01*
X1097Y650D02*
X1105Y650D01*
X1144Y650D02*
X1150Y650D01*
X1167Y650D02*
X1197Y650D01*
X98Y649D02*
X121Y649D01*
X155Y649D02*
X180Y649D01*
X332Y649D02*
X363Y649D01*
X382Y649D02*
X416Y649D01*
X963Y649D02*
X970Y649D01*
X1097Y649D02*
X1104Y649D01*
X1144Y649D02*
X1150Y649D01*
X1167Y649D02*
X1197Y649D01*
X98Y648D02*
X124Y648D01*
X155Y648D02*
X181Y648D01*
X332Y648D02*
X364Y648D01*
X382Y648D02*
X416Y648D01*
X963Y648D02*
X970Y648D01*
X1097Y648D02*
X1104Y648D01*
X1144Y648D02*
X1150Y648D01*
X1167Y648D02*
X1197Y648D01*
X98Y647D02*
X125Y647D01*
X155Y647D02*
X181Y647D01*
X332Y647D02*
X365Y647D01*
X382Y647D02*
X416Y647D01*
X963Y647D02*
X995Y647D01*
X1072Y647D02*
X1104Y647D01*
X1144Y647D02*
X1150Y647D01*
X1167Y647D02*
X1173Y647D01*
X1191Y647D02*
X1197Y647D01*
X98Y646D02*
X127Y646D01*
X155Y646D02*
X181Y646D01*
X332Y646D02*
X365Y646D01*
X382Y646D02*
X416Y646D01*
X963Y646D02*
X996Y646D01*
X1071Y646D02*
X1103Y646D01*
X1144Y646D02*
X1150Y646D01*
X1167Y646D02*
X1173Y646D01*
X1191Y646D02*
X1197Y646D01*
X98Y645D02*
X128Y645D01*
X155Y645D02*
X181Y645D01*
X332Y645D02*
X339Y645D01*
X358Y645D02*
X365Y645D01*
X382Y645D02*
X389Y645D01*
X410Y645D02*
X416Y645D01*
X964Y645D02*
X997Y645D01*
X1070Y645D02*
X1103Y645D01*
X1144Y645D02*
X1150Y645D01*
X1167Y645D02*
X1173Y645D01*
X1191Y645D02*
X1197Y645D01*
X98Y644D02*
X129Y644D01*
X155Y644D02*
X181Y644D01*
X332Y644D02*
X338Y644D01*
X359Y644D02*
X366Y644D01*
X382Y644D02*
X388Y644D01*
X410Y644D02*
X416Y644D01*
X964Y644D02*
X997Y644D01*
X1070Y644D02*
X1103Y644D01*
X1144Y644D02*
X1150Y644D01*
X1167Y644D02*
X1173Y644D01*
X1191Y644D02*
X1197Y644D01*
X98Y643D02*
X129Y643D01*
X155Y643D02*
X180Y643D01*
X332Y643D02*
X338Y643D01*
X360Y643D02*
X366Y643D01*
X382Y643D02*
X388Y643D01*
X410Y643D02*
X416Y643D01*
X964Y643D02*
X997Y643D01*
X1070Y643D02*
X1102Y643D01*
X1144Y643D02*
X1150Y643D01*
X1167Y643D02*
X1173Y643D01*
X1191Y643D02*
X1197Y643D01*
X98Y642D02*
X104Y642D01*
X121Y642D02*
X130Y642D01*
X155Y642D02*
X161Y642D01*
X332Y642D02*
X338Y642D01*
X360Y642D02*
X366Y642D01*
X382Y642D02*
X388Y642D01*
X410Y642D02*
X416Y642D01*
X965Y642D02*
X996Y642D01*
X1070Y642D02*
X1102Y642D01*
X1144Y642D02*
X1150Y642D01*
X1167Y642D02*
X1173Y642D01*
X1191Y642D02*
X1197Y642D01*
X98Y641D02*
X104Y641D01*
X123Y641D02*
X130Y641D01*
X155Y641D02*
X161Y641D01*
X332Y641D02*
X338Y641D01*
X360Y641D02*
X366Y641D01*
X382Y641D02*
X388Y641D01*
X410Y641D02*
X416Y641D01*
X965Y641D02*
X996Y641D01*
X1071Y641D02*
X1102Y641D01*
X1144Y641D02*
X1150Y641D01*
X1167Y641D02*
X1173Y641D01*
X1191Y641D02*
X1197Y641D01*
X98Y640D02*
X104Y640D01*
X124Y640D02*
X131Y640D01*
X155Y640D02*
X161Y640D01*
X332Y640D02*
X338Y640D01*
X360Y640D02*
X366Y640D01*
X382Y640D02*
X388Y640D01*
X410Y640D02*
X416Y640D01*
X966Y640D02*
X994Y640D01*
X1073Y640D02*
X1101Y640D01*
X1144Y640D02*
X1150Y640D01*
X1167Y640D02*
X1173Y640D01*
X1191Y640D02*
X1197Y640D01*
X98Y639D02*
X104Y639D01*
X125Y639D02*
X131Y639D01*
X155Y639D02*
X161Y639D01*
X332Y639D02*
X338Y639D01*
X360Y639D02*
X366Y639D01*
X382Y639D02*
X388Y639D01*
X410Y639D02*
X416Y639D01*
X966Y639D02*
X974Y639D01*
X1093Y639D02*
X1101Y639D01*
X1144Y639D02*
X1150Y639D01*
X1167Y639D02*
X1173Y639D01*
X1191Y639D02*
X1197Y639D01*
X98Y638D02*
X104Y638D01*
X125Y638D02*
X131Y638D01*
X155Y638D02*
X161Y638D01*
X332Y638D02*
X338Y638D01*
X360Y638D02*
X366Y638D01*
X382Y638D02*
X388Y638D01*
X410Y638D02*
X416Y638D01*
X966Y638D02*
X974Y638D01*
X1093Y638D02*
X1101Y638D01*
X1144Y638D02*
X1150Y638D01*
X1167Y638D02*
X1173Y638D01*
X1191Y638D02*
X1197Y638D01*
X98Y637D02*
X104Y637D01*
X125Y637D02*
X131Y637D01*
X155Y637D02*
X161Y637D01*
X332Y637D02*
X338Y637D01*
X360Y637D02*
X366Y637D01*
X382Y637D02*
X388Y637D01*
X410Y637D02*
X416Y637D01*
X967Y637D02*
X974Y637D01*
X1093Y637D02*
X1100Y637D01*
X1144Y637D02*
X1150Y637D01*
X1167Y637D02*
X1173Y637D01*
X1191Y637D02*
X1197Y637D01*
X98Y636D02*
X104Y636D01*
X125Y636D02*
X131Y636D01*
X155Y636D02*
X161Y636D01*
X332Y636D02*
X338Y636D01*
X359Y636D02*
X366Y636D01*
X382Y636D02*
X388Y636D01*
X410Y636D02*
X416Y636D01*
X967Y636D02*
X975Y636D01*
X1092Y636D02*
X1100Y636D01*
X1144Y636D02*
X1150Y636D01*
X1167Y636D02*
X1173Y636D01*
X1191Y636D02*
X1197Y636D01*
X98Y635D02*
X104Y635D01*
X125Y635D02*
X132Y635D01*
X155Y635D02*
X161Y635D01*
X332Y635D02*
X338Y635D01*
X358Y635D02*
X366Y635D01*
X382Y635D02*
X388Y635D01*
X410Y635D02*
X416Y635D01*
X968Y635D02*
X976Y635D01*
X1091Y635D02*
X1099Y635D01*
X1144Y635D02*
X1150Y635D01*
X1167Y635D02*
X1173Y635D01*
X1191Y635D02*
X1197Y635D01*
X98Y634D02*
X104Y634D01*
X125Y634D02*
X132Y634D01*
X155Y634D02*
X161Y634D01*
X332Y634D02*
X365Y634D01*
X382Y634D02*
X416Y634D01*
X968Y634D02*
X976Y634D01*
X1091Y634D02*
X1099Y634D01*
X1144Y634D02*
X1173Y634D01*
X1191Y634D02*
X1197Y634D01*
X98Y633D02*
X104Y633D01*
X125Y633D02*
X132Y633D01*
X155Y633D02*
X161Y633D01*
X332Y633D02*
X365Y633D01*
X382Y633D02*
X416Y633D01*
X969Y633D02*
X977Y633D01*
X1090Y633D02*
X1098Y633D01*
X1144Y633D02*
X1173Y633D01*
X1191Y633D02*
X1197Y633D01*
X98Y632D02*
X104Y632D01*
X125Y632D02*
X131Y632D01*
X155Y632D02*
X161Y632D01*
X332Y632D02*
X364Y632D01*
X382Y632D02*
X416Y632D01*
X969Y632D02*
X977Y632D01*
X1090Y632D02*
X1098Y632D01*
X1144Y632D02*
X1173Y632D01*
X1191Y632D02*
X1197Y632D01*
X98Y631D02*
X104Y631D01*
X125Y631D02*
X131Y631D01*
X155Y631D02*
X161Y631D01*
X332Y631D02*
X363Y631D01*
X382Y631D02*
X416Y631D01*
X970Y631D02*
X978Y631D01*
X1089Y631D02*
X1097Y631D01*
X1144Y631D02*
X1172Y631D01*
X1191Y631D02*
X1197Y631D01*
X98Y630D02*
X104Y630D01*
X125Y630D02*
X131Y630D01*
X155Y630D02*
X161Y630D01*
X332Y630D02*
X362Y630D01*
X383Y630D02*
X416Y630D01*
X970Y630D02*
X979Y630D01*
X1088Y630D02*
X1097Y630D01*
X1145Y630D02*
X1172Y630D01*
X1191Y630D02*
X1197Y630D01*
X98Y629D02*
X104Y629D01*
X124Y629D02*
X131Y629D01*
X155Y629D02*
X161Y629D01*
X332Y629D02*
X361Y629D01*
X383Y629D02*
X416Y629D01*
X971Y629D02*
X979Y629D01*
X1088Y629D02*
X1096Y629D01*
X1146Y629D02*
X1171Y629D01*
X1191Y629D02*
X1196Y629D01*
X98Y628D02*
X104Y628D01*
X123Y628D02*
X131Y628D01*
X155Y628D02*
X161Y628D01*
X332Y628D02*
X358Y628D01*
X384Y628D02*
X416Y628D01*
X971Y628D02*
X980Y628D01*
X1087Y628D02*
X1096Y628D01*
X1148Y628D02*
X1169Y628D01*
X1192Y628D02*
X1195Y628D01*
X98Y627D02*
X104Y627D01*
X122Y627D02*
X130Y627D01*
X155Y627D02*
X161Y627D01*
X332Y627D02*
X338Y627D01*
X345Y627D02*
X352Y627D01*
X410Y627D02*
X416Y627D01*
X972Y627D02*
X981Y627D01*
X1086Y627D02*
X1095Y627D01*
X98Y626D02*
X130Y626D01*
X155Y626D02*
X175Y626D01*
X332Y626D02*
X338Y626D01*
X345Y626D02*
X352Y626D01*
X410Y626D02*
X416Y626D01*
X973Y626D02*
X981Y626D01*
X1086Y626D02*
X1094Y626D01*
X98Y625D02*
X129Y625D01*
X155Y625D02*
X178Y625D01*
X332Y625D02*
X338Y625D01*
X346Y625D02*
X353Y625D01*
X410Y625D02*
X416Y625D01*
X973Y625D02*
X982Y625D01*
X1085Y625D02*
X1094Y625D01*
X98Y624D02*
X128Y624D01*
X155Y624D02*
X179Y624D01*
X332Y624D02*
X338Y624D01*
X346Y624D02*
X353Y624D01*
X410Y624D02*
X416Y624D01*
X974Y624D02*
X983Y624D01*
X1084Y624D02*
X1093Y624D01*
X98Y623D02*
X127Y623D01*
X155Y623D02*
X180Y623D01*
X332Y623D02*
X338Y623D01*
X347Y623D02*
X354Y623D01*
X410Y623D02*
X416Y623D01*
X975Y623D02*
X984Y623D01*
X1083Y623D02*
X1092Y623D01*
X98Y622D02*
X127Y622D01*
X155Y622D02*
X181Y622D01*
X332Y622D02*
X338Y622D01*
X347Y622D02*
X355Y622D01*
X410Y622D02*
X416Y622D01*
X975Y622D02*
X985Y622D01*
X1082Y622D02*
X1092Y622D01*
X98Y621D02*
X128Y621D01*
X155Y621D02*
X181Y621D01*
X332Y621D02*
X338Y621D01*
X348Y621D02*
X355Y621D01*
X410Y621D02*
X416Y621D01*
X976Y621D02*
X986Y621D01*
X1081Y621D02*
X1091Y621D01*
X98Y620D02*
X129Y620D01*
X155Y620D02*
X181Y620D01*
X332Y620D02*
X338Y620D01*
X349Y620D02*
X356Y620D01*
X410Y620D02*
X416Y620D01*
X977Y620D02*
X986Y620D01*
X1081Y620D02*
X1090Y620D01*
X98Y619D02*
X130Y619D01*
X155Y619D02*
X182Y619D01*
X332Y619D02*
X338Y619D01*
X349Y619D02*
X356Y619D01*
X410Y619D02*
X416Y619D01*
X978Y619D02*
X987Y619D01*
X1080Y619D02*
X1089Y619D01*
X98Y618D02*
X104Y618D01*
X122Y618D02*
X130Y618D01*
X175Y618D02*
X182Y618D01*
X332Y618D02*
X338Y618D01*
X350Y618D02*
X357Y618D01*
X410Y618D02*
X416Y618D01*
X979Y618D02*
X987Y618D01*
X1080Y618D02*
X1088Y618D01*
X98Y617D02*
X104Y617D01*
X123Y617D02*
X131Y617D01*
X175Y617D02*
X182Y617D01*
X332Y617D02*
X338Y617D01*
X350Y617D02*
X358Y617D01*
X410Y617D02*
X416Y617D01*
X979Y617D02*
X987Y617D01*
X1080Y617D02*
X1087Y617D01*
X98Y616D02*
X104Y616D01*
X124Y616D02*
X131Y616D01*
X175Y616D02*
X182Y616D01*
X332Y616D02*
X338Y616D01*
X351Y616D02*
X358Y616D01*
X410Y616D02*
X416Y616D01*
X980Y616D02*
X986Y616D01*
X1080Y616D02*
X1087Y616D01*
X98Y615D02*
X104Y615D01*
X125Y615D02*
X131Y615D01*
X175Y615D02*
X182Y615D01*
X332Y615D02*
X338Y615D01*
X352Y615D02*
X359Y615D01*
X410Y615D02*
X416Y615D01*
X981Y615D02*
X986Y615D01*
X1081Y615D02*
X1086Y615D01*
X98Y614D02*
X104Y614D01*
X125Y614D02*
X131Y614D01*
X175Y614D02*
X182Y614D01*
X332Y614D02*
X338Y614D01*
X352Y614D02*
X359Y614D01*
X410Y614D02*
X416Y614D01*
X983Y614D02*
X983Y614D01*
X1083Y614D02*
X1084Y614D01*
X98Y613D02*
X104Y613D01*
X125Y613D02*
X131Y613D01*
X175Y613D02*
X182Y613D01*
X332Y613D02*
X338Y613D01*
X353Y613D02*
X360Y613D01*
X410Y613D02*
X416Y613D01*
X98Y612D02*
X104Y612D01*
X125Y612D02*
X132Y612D01*
X175Y612D02*
X182Y612D01*
X332Y612D02*
X338Y612D01*
X353Y612D02*
X361Y612D01*
X410Y612D02*
X416Y612D01*
X98Y611D02*
X104Y611D01*
X125Y611D02*
X132Y611D01*
X175Y611D02*
X182Y611D01*
X332Y611D02*
X338Y611D01*
X354Y611D02*
X361Y611D01*
X410Y611D02*
X416Y611D01*
X98Y610D02*
X104Y610D01*
X125Y610D02*
X132Y610D01*
X175Y610D02*
X182Y610D01*
X332Y610D02*
X338Y610D01*
X354Y610D02*
X362Y610D01*
X410Y610D02*
X416Y610D01*
X98Y609D02*
X104Y609D01*
X125Y609D02*
X131Y609D01*
X175Y609D02*
X182Y609D01*
X332Y609D02*
X338Y609D01*
X355Y609D02*
X362Y609D01*
X410Y609D02*
X416Y609D01*
X98Y608D02*
X104Y608D01*
X125Y608D02*
X131Y608D01*
X175Y608D02*
X182Y608D01*
X332Y608D02*
X338Y608D01*
X356Y608D02*
X363Y608D01*
X410Y608D02*
X416Y608D01*
X98Y607D02*
X104Y607D01*
X125Y607D02*
X131Y607D01*
X175Y607D02*
X182Y607D01*
X332Y607D02*
X338Y607D01*
X356Y607D02*
X363Y607D01*
X410Y607D02*
X416Y607D01*
X98Y606D02*
X104Y606D01*
X125Y606D02*
X131Y606D01*
X175Y606D02*
X182Y606D01*
X332Y606D02*
X338Y606D01*
X357Y606D02*
X364Y606D01*
X410Y606D02*
X416Y606D01*
X98Y605D02*
X104Y605D01*
X124Y605D02*
X131Y605D01*
X150Y605D02*
X152Y605D01*
X175Y605D02*
X182Y605D01*
X332Y605D02*
X338Y605D01*
X357Y605D02*
X365Y605D01*
X409Y605D02*
X416Y605D01*
X98Y604D02*
X104Y604D01*
X123Y604D02*
X130Y604D01*
X149Y604D02*
X154Y604D01*
X175Y604D02*
X182Y604D01*
X332Y604D02*
X338Y604D01*
X358Y604D02*
X365Y604D01*
X408Y604D02*
X416Y604D01*
X98Y603D02*
X104Y603D01*
X121Y603D02*
X130Y603D01*
X148Y603D02*
X157Y603D01*
X175Y603D02*
X182Y603D01*
X332Y603D02*
X338Y603D01*
X359Y603D02*
X366Y603D01*
X407Y603D02*
X416Y603D01*
X98Y602D02*
X129Y602D01*
X148Y602D02*
X181Y602D01*
X332Y602D02*
X338Y602D01*
X359Y602D02*
X366Y602D01*
X407Y602D02*
X416Y602D01*
X98Y601D02*
X129Y601D01*
X148Y601D02*
X181Y601D01*
X333Y601D02*
X338Y601D01*
X360Y601D02*
X366Y601D01*
X407Y601D02*
X416Y601D01*
X98Y600D02*
X128Y600D01*
X148Y600D02*
X181Y600D01*
X333Y600D02*
X338Y600D01*
X360Y600D02*
X366Y600D01*
X407Y600D02*
X416Y600D01*
X98Y599D02*
X127Y599D01*
X149Y599D02*
X181Y599D01*
X334Y599D02*
X337Y599D01*
X361Y599D02*
X365Y599D01*
X408Y599D02*
X415Y599D01*
X98Y598D02*
X125Y598D01*
X151Y598D02*
X180Y598D01*
X98Y597D02*
X124Y597D01*
X153Y597D02*
X179Y597D01*
X98Y596D02*
X121Y596D01*
X156Y596D02*
X177Y596D01*
X753Y535D02*
X784Y535D01*
X803Y535D02*
X831Y535D01*
X853Y535D02*
X854Y535D01*
X881Y535D02*
X881Y535D01*
X751Y534D02*
X784Y534D01*
X801Y534D02*
X833Y534D01*
X851Y534D02*
X855Y534D01*
X879Y534D02*
X883Y534D01*
X751Y533D02*
X784Y533D01*
X801Y533D02*
X834Y533D01*
X851Y533D02*
X856Y533D01*
X878Y533D02*
X884Y533D01*
X750Y532D02*
X784Y532D01*
X800Y532D02*
X834Y532D01*
X850Y532D02*
X857Y532D01*
X878Y532D02*
X884Y532D01*
X750Y531D02*
X784Y531D01*
X800Y531D02*
X834Y531D01*
X850Y531D02*
X857Y531D01*
X878Y531D02*
X884Y531D01*
X751Y530D02*
X784Y530D01*
X800Y530D02*
X833Y530D01*
X851Y530D02*
X858Y530D01*
X878Y530D02*
X884Y530D01*
X752Y529D02*
X784Y529D01*
X800Y529D02*
X833Y529D01*
X851Y529D02*
X858Y529D01*
X878Y529D02*
X884Y529D01*
X778Y528D02*
X784Y528D01*
X800Y528D02*
X807Y528D01*
X814Y528D02*
X820Y528D01*
X852Y528D02*
X859Y528D01*
X878Y528D02*
X884Y528D01*
X778Y527D02*
X784Y527D01*
X800Y527D02*
X806Y527D01*
X814Y527D02*
X820Y527D01*
X852Y527D02*
X860Y527D01*
X878Y527D02*
X884Y527D01*
X778Y526D02*
X784Y526D01*
X800Y526D02*
X806Y526D01*
X814Y526D02*
X820Y526D01*
X853Y526D02*
X860Y526D01*
X878Y526D02*
X884Y526D01*
X778Y525D02*
X784Y525D01*
X800Y525D02*
X806Y525D01*
X814Y525D02*
X820Y525D01*
X854Y525D02*
X861Y525D01*
X878Y525D02*
X884Y525D01*
X778Y524D02*
X784Y524D01*
X800Y524D02*
X806Y524D01*
X814Y524D02*
X820Y524D01*
X854Y524D02*
X861Y524D01*
X878Y524D02*
X884Y524D01*
X778Y523D02*
X784Y523D01*
X800Y523D02*
X806Y523D01*
X814Y523D02*
X820Y523D01*
X855Y523D02*
X862Y523D01*
X878Y523D02*
X884Y523D01*
X982Y523D02*
X985Y523D01*
X1082Y523D02*
X1085Y523D01*
X778Y522D02*
X784Y522D01*
X800Y522D02*
X806Y522D01*
X814Y522D02*
X820Y522D01*
X855Y522D02*
X863Y522D01*
X878Y522D02*
X884Y522D01*
X981Y522D02*
X986Y522D01*
X1081Y522D02*
X1086Y522D01*
X778Y521D02*
X784Y521D01*
X800Y521D02*
X806Y521D01*
X814Y521D02*
X820Y521D01*
X856Y521D02*
X863Y521D01*
X878Y521D02*
X884Y521D01*
X980Y521D02*
X987Y521D01*
X1080Y521D02*
X1087Y521D01*
X778Y520D02*
X784Y520D01*
X800Y520D02*
X806Y520D01*
X814Y520D02*
X820Y520D01*
X856Y520D02*
X864Y520D01*
X878Y520D02*
X884Y520D01*
X979Y520D02*
X987Y520D01*
X1080Y520D02*
X1088Y520D01*
X778Y519D02*
X784Y519D01*
X800Y519D02*
X806Y519D01*
X814Y519D02*
X820Y519D01*
X857Y519D02*
X864Y519D01*
X878Y519D02*
X884Y519D01*
X978Y519D02*
X987Y519D01*
X1080Y519D02*
X1089Y519D01*
X778Y518D02*
X784Y518D01*
X800Y518D02*
X806Y518D01*
X814Y518D02*
X820Y518D01*
X858Y518D02*
X865Y518D01*
X878Y518D02*
X884Y518D01*
X977Y518D02*
X986Y518D01*
X1081Y518D02*
X1090Y518D01*
X778Y517D02*
X784Y517D01*
X800Y517D02*
X806Y517D01*
X814Y517D02*
X820Y517D01*
X858Y517D02*
X865Y517D01*
X878Y517D02*
X884Y517D01*
X976Y517D02*
X986Y517D01*
X1081Y517D02*
X1091Y517D01*
X778Y516D02*
X784Y516D01*
X800Y516D02*
X806Y516D01*
X814Y516D02*
X820Y516D01*
X859Y516D02*
X866Y516D01*
X878Y516D02*
X884Y516D01*
X976Y516D02*
X985Y516D01*
X1082Y516D02*
X1091Y516D01*
X778Y515D02*
X784Y515D01*
X800Y515D02*
X806Y515D01*
X814Y515D02*
X820Y515D01*
X859Y515D02*
X867Y515D01*
X878Y515D02*
X884Y515D01*
X975Y515D02*
X984Y515D01*
X1083Y515D02*
X1092Y515D01*
X778Y514D02*
X784Y514D01*
X800Y514D02*
X806Y514D01*
X814Y514D02*
X820Y514D01*
X860Y514D02*
X867Y514D01*
X878Y514D02*
X884Y514D01*
X974Y514D02*
X983Y514D01*
X1084Y514D02*
X1093Y514D01*
X778Y513D02*
X784Y513D01*
X800Y513D02*
X806Y513D01*
X814Y513D02*
X820Y513D01*
X861Y513D02*
X868Y513D01*
X878Y513D02*
X884Y513D01*
X974Y513D02*
X982Y513D01*
X1085Y513D02*
X1093Y513D01*
X778Y512D02*
X784Y512D01*
X801Y512D02*
X806Y512D01*
X814Y512D02*
X820Y512D01*
X861Y512D02*
X868Y512D01*
X878Y512D02*
X884Y512D01*
X973Y512D02*
X982Y512D01*
X1085Y512D02*
X1094Y512D01*
X755Y511D02*
X784Y511D01*
X802Y511D02*
X805Y511D01*
X814Y511D02*
X820Y511D01*
X862Y511D02*
X869Y511D01*
X878Y511D02*
X884Y511D01*
X972Y511D02*
X981Y511D01*
X1086Y511D02*
X1095Y511D01*
X753Y510D02*
X784Y510D01*
X814Y510D02*
X820Y510D01*
X862Y510D02*
X870Y510D01*
X878Y510D02*
X884Y510D01*
X972Y510D02*
X980Y510D01*
X1087Y510D02*
X1095Y510D01*
X1170Y510D02*
X1178Y510D01*
X752Y509D02*
X783Y509D01*
X814Y509D02*
X820Y509D01*
X863Y509D02*
X870Y509D01*
X878Y509D02*
X884Y509D01*
X971Y509D02*
X979Y509D01*
X1087Y509D02*
X1096Y509D01*
X1167Y509D02*
X1181Y509D01*
X751Y508D02*
X783Y508D01*
X814Y508D02*
X820Y508D01*
X863Y508D02*
X871Y508D01*
X878Y508D02*
X884Y508D01*
X970Y508D02*
X979Y508D01*
X1088Y508D02*
X1096Y508D01*
X1165Y508D02*
X1183Y508D01*
X751Y507D02*
X782Y507D01*
X814Y507D02*
X820Y507D01*
X864Y507D02*
X871Y507D01*
X878Y507D02*
X884Y507D01*
X970Y507D02*
X978Y507D01*
X1089Y507D02*
X1097Y507D01*
X1163Y507D02*
X1185Y507D01*
X750Y506D02*
X781Y506D01*
X814Y506D02*
X820Y506D01*
X864Y506D02*
X872Y506D01*
X878Y506D02*
X884Y506D01*
X969Y506D02*
X977Y506D01*
X1090Y506D02*
X1098Y506D01*
X1161Y506D02*
X1187Y506D01*
X750Y505D02*
X779Y505D01*
X814Y505D02*
X820Y505D01*
X857Y505D02*
X884Y505D01*
X969Y505D02*
X977Y505D01*
X1090Y505D02*
X1098Y505D01*
X1159Y505D02*
X1189Y505D01*
X750Y504D02*
X756Y504D01*
X814Y504D02*
X820Y504D01*
X855Y504D02*
X884Y504D01*
X968Y504D02*
X976Y504D01*
X1091Y504D02*
X1099Y504D01*
X1157Y504D02*
X1191Y504D01*
X750Y503D02*
X756Y503D01*
X814Y503D02*
X820Y503D01*
X854Y503D02*
X884Y503D01*
X968Y503D02*
X976Y503D01*
X1091Y503D02*
X1099Y503D01*
X1155Y503D02*
X1170Y503D01*
X1178Y503D02*
X1193Y503D01*
X750Y502D02*
X756Y502D01*
X814Y502D02*
X820Y502D01*
X853Y502D02*
X884Y502D01*
X967Y502D02*
X975Y502D01*
X1092Y502D02*
X1100Y502D01*
X1153Y502D02*
X1168Y502D01*
X1180Y502D02*
X1195Y502D01*
X750Y501D02*
X756Y501D01*
X814Y501D02*
X820Y501D01*
X852Y501D02*
X884Y501D01*
X967Y501D02*
X975Y501D01*
X1092Y501D02*
X1100Y501D01*
X1152Y501D02*
X1166Y501D01*
X1182Y501D02*
X1197Y501D01*
X750Y500D02*
X756Y500D01*
X814Y500D02*
X820Y500D01*
X852Y500D02*
X884Y500D01*
X967Y500D02*
X974Y500D01*
X1093Y500D02*
X1100Y500D01*
X1150Y500D02*
X1164Y500D01*
X1184Y500D02*
X1198Y500D01*
X750Y499D02*
X756Y499D01*
X814Y499D02*
X820Y499D01*
X851Y499D02*
X884Y499D01*
X966Y499D02*
X974Y499D01*
X1093Y499D02*
X1101Y499D01*
X1150Y499D02*
X1162Y499D01*
X1186Y499D02*
X1198Y499D01*
X750Y498D02*
X756Y498D01*
X814Y498D02*
X820Y498D01*
X851Y498D02*
X858Y498D01*
X878Y498D02*
X884Y498D01*
X966Y498D02*
X973Y498D01*
X1094Y498D02*
X1101Y498D01*
X1149Y498D02*
X1160Y498D01*
X1188Y498D02*
X1199Y498D01*
X750Y497D02*
X756Y497D01*
X814Y497D02*
X820Y497D01*
X850Y497D02*
X857Y497D01*
X878Y497D02*
X884Y497D01*
X965Y497D02*
X973Y497D01*
X1094Y497D02*
X1102Y497D01*
X1148Y497D02*
X1158Y497D01*
X1190Y497D02*
X1200Y497D01*
X750Y496D02*
X756Y496D01*
X814Y496D02*
X820Y496D01*
X850Y496D02*
X856Y496D01*
X878Y496D02*
X884Y496D01*
X965Y496D02*
X972Y496D01*
X1095Y496D02*
X1102Y496D01*
X1148Y496D02*
X1156Y496D01*
X1192Y496D02*
X1200Y496D01*
X750Y495D02*
X756Y495D01*
X814Y495D02*
X820Y495D01*
X850Y495D02*
X856Y495D01*
X878Y495D02*
X884Y495D01*
X965Y495D02*
X972Y495D01*
X1095Y495D02*
X1102Y495D01*
X1148Y495D02*
X1154Y495D01*
X1194Y495D02*
X1200Y495D01*
X750Y494D02*
X756Y494D01*
X814Y494D02*
X820Y494D01*
X850Y494D02*
X856Y494D01*
X878Y494D02*
X884Y494D01*
X964Y494D02*
X972Y494D01*
X1095Y494D02*
X1103Y494D01*
X1147Y494D02*
X1154Y494D01*
X1194Y494D02*
X1200Y494D01*
X750Y493D02*
X756Y493D01*
X814Y493D02*
X820Y493D01*
X850Y493D02*
X856Y493D01*
X878Y493D02*
X884Y493D01*
X964Y493D02*
X971Y493D01*
X1096Y493D02*
X1103Y493D01*
X1147Y493D02*
X1153Y493D01*
X1194Y493D02*
X1200Y493D01*
X750Y492D02*
X756Y492D01*
X814Y492D02*
X820Y492D01*
X850Y492D02*
X856Y492D01*
X878Y492D02*
X884Y492D01*
X964Y492D02*
X971Y492D01*
X1096Y492D02*
X1103Y492D01*
X1147Y492D02*
X1153Y492D01*
X1194Y492D02*
X1201Y492D01*
X750Y491D02*
X756Y491D01*
X814Y491D02*
X820Y491D01*
X850Y491D02*
X856Y491D01*
X878Y491D02*
X884Y491D01*
X963Y491D02*
X971Y491D01*
X1096Y491D02*
X1104Y491D01*
X1147Y491D02*
X1153Y491D01*
X1194Y491D02*
X1201Y491D01*
X750Y490D02*
X756Y490D01*
X814Y490D02*
X820Y490D01*
X850Y490D02*
X857Y490D01*
X878Y490D02*
X884Y490D01*
X963Y490D02*
X970Y490D01*
X1097Y490D02*
X1104Y490D01*
X1147Y490D02*
X1153Y490D01*
X1194Y490D02*
X1201Y490D01*
X750Y489D02*
X756Y489D01*
X814Y489D02*
X820Y489D01*
X851Y489D02*
X857Y489D01*
X878Y489D02*
X884Y489D01*
X963Y489D02*
X970Y489D01*
X1097Y489D02*
X1104Y489D01*
X1147Y489D02*
X1153Y489D01*
X1194Y489D02*
X1201Y489D01*
X750Y488D02*
X757Y488D01*
X814Y488D02*
X821Y488D01*
X851Y488D02*
X860Y488D01*
X877Y488D02*
X884Y488D01*
X962Y488D02*
X970Y488D01*
X1097Y488D02*
X1104Y488D01*
X1147Y488D02*
X1153Y488D01*
X1194Y488D02*
X1201Y488D01*
X750Y487D02*
X783Y487D01*
X814Y487D02*
X833Y487D01*
X851Y487D02*
X884Y487D01*
X962Y487D02*
X969Y487D01*
X1098Y487D02*
X1105Y487D01*
X1147Y487D02*
X1153Y487D01*
X1194Y487D02*
X1201Y487D01*
X751Y486D02*
X783Y486D01*
X814Y486D02*
X833Y486D01*
X852Y486D02*
X884Y486D01*
X962Y486D02*
X969Y486D01*
X1098Y486D02*
X1105Y486D01*
X1147Y486D02*
X1153Y486D01*
X1194Y486D02*
X1201Y486D01*
X751Y485D02*
X784Y485D01*
X814Y485D02*
X834Y485D01*
X853Y485D02*
X884Y485D01*
X962Y485D02*
X969Y485D01*
X1098Y485D02*
X1105Y485D01*
X1147Y485D02*
X1153Y485D01*
X1194Y485D02*
X1201Y485D01*
X752Y484D02*
X784Y484D01*
X814Y484D02*
X834Y484D01*
X854Y484D02*
X884Y484D01*
X962Y484D02*
X969Y484D01*
X1098Y484D02*
X1105Y484D01*
X1147Y484D02*
X1153Y484D01*
X1194Y484D02*
X1201Y484D01*
X752Y483D02*
X783Y483D01*
X814Y483D02*
X833Y483D01*
X855Y483D02*
X884Y483D01*
X961Y483D02*
X968Y483D01*
X1099Y483D02*
X1106Y483D01*
X1147Y483D02*
X1153Y483D01*
X1194Y483D02*
X1201Y483D01*
X754Y482D02*
X783Y482D01*
X814Y482D02*
X833Y482D01*
X856Y482D02*
X884Y482D01*
X961Y482D02*
X968Y482D01*
X1099Y482D02*
X1106Y482D01*
X1147Y482D02*
X1153Y482D01*
X1194Y482D02*
X1201Y482D01*
X757Y481D02*
X780Y481D01*
X815Y481D02*
X830Y481D01*
X861Y481D02*
X883Y481D01*
X961Y481D02*
X968Y481D01*
X1099Y481D02*
X1106Y481D01*
X1147Y481D02*
X1153Y481D01*
X1194Y481D02*
X1201Y481D01*
X961Y480D02*
X968Y480D01*
X1099Y480D02*
X1106Y480D01*
X1147Y480D02*
X1153Y480D01*
X1194Y480D02*
X1200Y480D01*
X961Y479D02*
X968Y479D01*
X1099Y479D02*
X1106Y479D01*
X1148Y479D02*
X1153Y479D01*
X1195Y479D02*
X1200Y479D01*
X961Y478D02*
X968Y478D01*
X1099Y478D02*
X1106Y478D01*
X1148Y478D02*
X1153Y478D01*
X1195Y478D02*
X1200Y478D01*
X960Y477D02*
X967Y477D01*
X1099Y477D02*
X1106Y477D01*
X1149Y477D02*
X1152Y477D01*
X1196Y477D02*
X1199Y477D01*
X960Y476D02*
X967Y476D01*
X1100Y476D02*
X1107Y476D01*
X960Y475D02*
X967Y475D01*
X1100Y475D02*
X1107Y475D01*
X960Y474D02*
X967Y474D01*
X1100Y474D02*
X1107Y474D01*
X960Y473D02*
X967Y473D01*
X1100Y473D02*
X1107Y473D01*
X960Y472D02*
X967Y472D01*
X1100Y472D02*
X1107Y472D01*
X960Y471D02*
X967Y471D01*
X1100Y471D02*
X1107Y471D01*
X960Y470D02*
X967Y470D01*
X1100Y470D02*
X1107Y470D01*
X960Y469D02*
X967Y469D01*
X1100Y469D02*
X1107Y469D01*
X960Y468D02*
X967Y468D01*
X1100Y468D02*
X1107Y468D01*
X960Y467D02*
X967Y467D01*
X1100Y467D02*
X1107Y467D01*
X960Y466D02*
X967Y466D01*
X1100Y466D02*
X1107Y466D01*
X960Y465D02*
X967Y465D01*
X1100Y465D02*
X1107Y465D01*
X960Y464D02*
X967Y464D01*
X1100Y464D02*
X1107Y464D01*
X960Y463D02*
X967Y463D01*
X1100Y463D02*
X1107Y463D01*
X960Y462D02*
X967Y462D01*
X1100Y462D02*
X1107Y462D01*
X960Y461D02*
X967Y461D01*
X1099Y461D02*
X1107Y461D01*
X961Y460D02*
X968Y460D01*
X1099Y460D02*
X1106Y460D01*
X1149Y460D02*
X1199Y460D01*
X961Y459D02*
X968Y459D01*
X1099Y459D02*
X1106Y459D01*
X1148Y459D02*
X1200Y459D01*
X961Y458D02*
X968Y458D01*
X1099Y458D02*
X1106Y458D01*
X1147Y458D02*
X1200Y458D01*
X961Y457D02*
X968Y457D01*
X1099Y457D02*
X1106Y457D01*
X1147Y457D02*
X1201Y457D01*
X961Y456D02*
X968Y456D01*
X1099Y456D02*
X1106Y456D01*
X1147Y456D02*
X1201Y456D01*
X961Y455D02*
X968Y455D01*
X1099Y455D02*
X1106Y455D01*
X1147Y455D02*
X1201Y455D01*
X290Y454D02*
X316Y454D01*
X342Y454D02*
X360Y454D01*
X392Y454D02*
X410Y454D01*
X961Y454D02*
X969Y454D01*
X1098Y454D02*
X1105Y454D01*
X1147Y454D02*
X1200Y454D01*
X290Y453D02*
X318Y453D01*
X341Y453D02*
X360Y453D01*
X391Y453D02*
X410Y453D01*
X962Y453D02*
X969Y453D01*
X1098Y453D02*
X1105Y453D01*
X1147Y453D02*
X1153Y453D01*
X1165Y453D02*
X1171Y453D01*
X1195Y453D02*
X1200Y453D01*
X290Y452D02*
X320Y452D01*
X340Y452D02*
X360Y452D01*
X390Y452D02*
X410Y452D01*
X962Y452D02*
X969Y452D01*
X1098Y452D02*
X1105Y452D01*
X1147Y452D02*
X1153Y452D01*
X1165Y452D02*
X1171Y452D01*
X1195Y452D02*
X1200Y452D01*
X290Y451D02*
X321Y451D01*
X340Y451D02*
X360Y451D01*
X390Y451D02*
X410Y451D01*
X962Y451D02*
X969Y451D01*
X1098Y451D02*
X1105Y451D01*
X1147Y451D02*
X1153Y451D01*
X1165Y451D02*
X1171Y451D01*
X1196Y451D02*
X1199Y451D01*
X290Y450D02*
X322Y450D01*
X340Y450D02*
X360Y450D01*
X390Y450D02*
X410Y450D01*
X962Y450D02*
X969Y450D01*
X1097Y450D02*
X1105Y450D01*
X1147Y450D02*
X1153Y450D01*
X1165Y450D02*
X1171Y450D01*
X290Y449D02*
X322Y449D01*
X341Y449D02*
X360Y449D01*
X391Y449D02*
X410Y449D01*
X963Y449D02*
X970Y449D01*
X1097Y449D02*
X1104Y449D01*
X1147Y449D02*
X1153Y449D01*
X1165Y449D02*
X1171Y449D01*
X290Y448D02*
X323Y448D01*
X342Y448D02*
X360Y448D01*
X392Y448D02*
X410Y448D01*
X963Y448D02*
X970Y448D01*
X1097Y448D02*
X1104Y448D01*
X1147Y448D02*
X1153Y448D01*
X1165Y448D02*
X1171Y448D01*
X290Y447D02*
X296Y447D01*
X316Y447D02*
X323Y447D01*
X354Y447D02*
X360Y447D01*
X404Y447D02*
X410Y447D01*
X963Y447D02*
X995Y447D01*
X1072Y447D02*
X1104Y447D01*
X1147Y447D02*
X1153Y447D01*
X1165Y447D02*
X1171Y447D01*
X290Y446D02*
X296Y446D01*
X317Y446D02*
X323Y446D01*
X354Y446D02*
X360Y446D01*
X404Y446D02*
X410Y446D01*
X963Y446D02*
X996Y446D01*
X1071Y446D02*
X1103Y446D01*
X1147Y446D02*
X1153Y446D01*
X1165Y446D02*
X1171Y446D01*
X290Y445D02*
X296Y445D01*
X317Y445D02*
X323Y445D01*
X354Y445D02*
X360Y445D01*
X404Y445D02*
X410Y445D01*
X964Y445D02*
X997Y445D01*
X1070Y445D02*
X1103Y445D01*
X1147Y445D02*
X1153Y445D01*
X1165Y445D02*
X1171Y445D01*
X290Y444D02*
X296Y444D01*
X318Y444D02*
X324Y444D01*
X354Y444D02*
X360Y444D01*
X404Y444D02*
X410Y444D01*
X964Y444D02*
X997Y444D01*
X1070Y444D02*
X1103Y444D01*
X1147Y444D02*
X1153Y444D01*
X1165Y444D02*
X1171Y444D01*
X290Y443D02*
X296Y443D01*
X318Y443D02*
X324Y443D01*
X354Y443D02*
X360Y443D01*
X404Y443D02*
X410Y443D01*
X964Y443D02*
X997Y443D01*
X1070Y443D02*
X1102Y443D01*
X1147Y443D02*
X1153Y443D01*
X1165Y443D02*
X1171Y443D01*
X93Y442D02*
X118Y442D01*
X145Y442D02*
X152Y442D01*
X290Y442D02*
X296Y442D01*
X318Y442D02*
X324Y442D01*
X354Y442D02*
X360Y442D01*
X404Y442D02*
X410Y442D01*
X965Y442D02*
X996Y442D01*
X1071Y442D02*
X1102Y442D01*
X1147Y442D02*
X1153Y442D01*
X1165Y442D02*
X1171Y442D01*
X93Y441D02*
X120Y441D01*
X144Y441D02*
X152Y441D01*
X290Y441D02*
X296Y441D01*
X318Y441D02*
X324Y441D01*
X354Y441D02*
X360Y441D01*
X404Y441D02*
X410Y441D01*
X965Y441D02*
X996Y441D01*
X1071Y441D02*
X1102Y441D01*
X1147Y441D02*
X1153Y441D01*
X1165Y441D02*
X1171Y441D01*
X93Y440D02*
X121Y440D01*
X144Y440D02*
X153Y440D01*
X290Y440D02*
X296Y440D01*
X317Y440D02*
X324Y440D01*
X354Y440D02*
X360Y440D01*
X404Y440D02*
X410Y440D01*
X966Y440D02*
X994Y440D01*
X1073Y440D02*
X1101Y440D01*
X1147Y440D02*
X1153Y440D01*
X1165Y440D02*
X1171Y440D01*
X93Y439D02*
X123Y439D01*
X143Y439D02*
X153Y439D01*
X290Y439D02*
X296Y439D01*
X317Y439D02*
X323Y439D01*
X354Y439D02*
X360Y439D01*
X404Y439D02*
X410Y439D01*
X966Y439D02*
X974Y439D01*
X1093Y439D02*
X1101Y439D01*
X1147Y439D02*
X1153Y439D01*
X1165Y439D02*
X1171Y439D01*
X93Y438D02*
X123Y438D01*
X143Y438D02*
X153Y438D01*
X290Y438D02*
X296Y438D01*
X316Y438D02*
X323Y438D01*
X354Y438D02*
X360Y438D01*
X404Y438D02*
X410Y438D01*
X966Y438D02*
X974Y438D01*
X1093Y438D02*
X1101Y438D01*
X1147Y438D02*
X1153Y438D01*
X1165Y438D02*
X1171Y438D01*
X93Y437D02*
X124Y437D01*
X143Y437D02*
X152Y437D01*
X290Y437D02*
X296Y437D01*
X315Y437D02*
X323Y437D01*
X354Y437D02*
X360Y437D01*
X404Y437D02*
X410Y437D01*
X967Y437D02*
X974Y437D01*
X1092Y437D02*
X1100Y437D01*
X1147Y437D02*
X1153Y437D01*
X1165Y437D02*
X1171Y437D01*
X93Y436D02*
X125Y436D01*
X143Y436D02*
X150Y436D01*
X290Y436D02*
X323Y436D01*
X354Y436D02*
X360Y436D01*
X404Y436D02*
X410Y436D01*
X967Y436D02*
X975Y436D01*
X1092Y436D02*
X1100Y436D01*
X1147Y436D02*
X1153Y436D01*
X1165Y436D02*
X1171Y436D01*
X93Y435D02*
X99Y435D01*
X117Y435D02*
X126Y435D01*
X143Y435D02*
X149Y435D01*
X290Y435D02*
X322Y435D01*
X354Y435D02*
X360Y435D01*
X404Y435D02*
X410Y435D01*
X968Y435D02*
X976Y435D01*
X1091Y435D02*
X1099Y435D01*
X1147Y435D02*
X1153Y435D01*
X1165Y435D02*
X1171Y435D01*
X93Y434D02*
X99Y434D01*
X119Y434D02*
X126Y434D01*
X143Y434D02*
X149Y434D01*
X290Y434D02*
X321Y434D01*
X354Y434D02*
X360Y434D01*
X404Y434D02*
X410Y434D01*
X968Y434D02*
X976Y434D01*
X1091Y434D02*
X1099Y434D01*
X1147Y434D02*
X1153Y434D01*
X1165Y434D02*
X1171Y434D01*
X93Y433D02*
X99Y433D01*
X120Y433D02*
X126Y433D01*
X143Y433D02*
X149Y433D01*
X290Y433D02*
X320Y433D01*
X354Y433D02*
X360Y433D01*
X404Y433D02*
X410Y433D01*
X969Y433D02*
X977Y433D01*
X1090Y433D02*
X1098Y433D01*
X1147Y433D02*
X1171Y433D01*
X93Y432D02*
X99Y432D01*
X120Y432D02*
X127Y432D01*
X143Y432D02*
X149Y432D01*
X290Y432D02*
X319Y432D01*
X354Y432D02*
X360Y432D01*
X404Y432D02*
X410Y432D01*
X969Y432D02*
X977Y432D01*
X1090Y432D02*
X1098Y432D01*
X1147Y432D02*
X1171Y432D01*
X93Y431D02*
X99Y431D01*
X121Y431D02*
X127Y431D01*
X143Y431D02*
X149Y431D01*
X290Y431D02*
X318Y431D01*
X354Y431D02*
X360Y431D01*
X404Y431D02*
X410Y431D01*
X970Y431D02*
X978Y431D01*
X1089Y431D02*
X1097Y431D01*
X1147Y431D02*
X1171Y431D01*
X93Y430D02*
X99Y430D01*
X121Y430D02*
X127Y430D01*
X143Y430D02*
X149Y430D01*
X290Y430D02*
X315Y430D01*
X354Y430D02*
X360Y430D01*
X404Y430D02*
X410Y430D01*
X970Y430D02*
X979Y430D01*
X1088Y430D02*
X1097Y430D01*
X1147Y430D02*
X1171Y430D01*
X93Y429D02*
X99Y429D01*
X121Y429D02*
X127Y429D01*
X143Y429D02*
X149Y429D01*
X290Y429D02*
X296Y429D01*
X302Y429D02*
X309Y429D01*
X354Y429D02*
X360Y429D01*
X404Y429D02*
X410Y429D01*
X971Y429D02*
X979Y429D01*
X1088Y429D02*
X1096Y429D01*
X1148Y429D02*
X1171Y429D01*
X93Y428D02*
X99Y428D01*
X121Y428D02*
X127Y428D01*
X143Y428D02*
X149Y428D01*
X290Y428D02*
X296Y428D01*
X303Y428D02*
X310Y428D01*
X354Y428D02*
X360Y428D01*
X404Y428D02*
X410Y428D01*
X971Y428D02*
X980Y428D01*
X1087Y428D02*
X1095Y428D01*
X1148Y428D02*
X1170Y428D01*
X93Y427D02*
X99Y427D01*
X121Y427D02*
X127Y427D01*
X143Y427D02*
X149Y427D01*
X290Y427D02*
X296Y427D01*
X303Y427D02*
X311Y427D01*
X354Y427D02*
X360Y427D01*
X404Y427D02*
X410Y427D01*
X972Y427D02*
X981Y427D01*
X1086Y427D02*
X1095Y427D01*
X1149Y427D02*
X1170Y427D01*
X93Y426D02*
X99Y426D01*
X121Y426D02*
X127Y426D01*
X143Y426D02*
X149Y426D01*
X290Y426D02*
X296Y426D01*
X304Y426D02*
X311Y426D01*
X354Y426D02*
X360Y426D01*
X404Y426D02*
X410Y426D01*
X973Y426D02*
X981Y426D01*
X1086Y426D02*
X1094Y426D01*
X93Y425D02*
X99Y425D01*
X121Y425D02*
X127Y425D01*
X143Y425D02*
X149Y425D01*
X290Y425D02*
X296Y425D01*
X305Y425D02*
X312Y425D01*
X354Y425D02*
X360Y425D01*
X370Y425D02*
X371Y425D01*
X404Y425D02*
X410Y425D01*
X420Y425D02*
X421Y425D01*
X973Y425D02*
X982Y425D01*
X1085Y425D02*
X1094Y425D01*
X93Y424D02*
X99Y424D01*
X121Y424D02*
X127Y424D01*
X143Y424D02*
X149Y424D01*
X290Y424D02*
X296Y424D01*
X305Y424D02*
X312Y424D01*
X354Y424D02*
X360Y424D01*
X369Y424D02*
X372Y424D01*
X404Y424D02*
X410Y424D01*
X419Y424D02*
X422Y424D01*
X974Y424D02*
X983Y424D01*
X1084Y424D02*
X1093Y424D01*
X93Y423D02*
X99Y423D01*
X120Y423D02*
X127Y423D01*
X143Y423D02*
X149Y423D01*
X290Y423D02*
X296Y423D01*
X306Y423D02*
X313Y423D01*
X354Y423D02*
X360Y423D01*
X368Y423D02*
X373Y423D01*
X404Y423D02*
X410Y423D01*
X418Y423D02*
X423Y423D01*
X975Y423D02*
X984Y423D01*
X1083Y423D02*
X1092Y423D01*
X93Y422D02*
X99Y422D01*
X119Y422D02*
X126Y422D01*
X143Y422D02*
X149Y422D01*
X290Y422D02*
X296Y422D01*
X306Y422D02*
X314Y422D01*
X354Y422D02*
X360Y422D01*
X368Y422D02*
X373Y422D01*
X404Y422D02*
X410Y422D01*
X418Y422D02*
X423Y422D01*
X975Y422D02*
X985Y422D01*
X1082Y422D02*
X1091Y422D01*
X93Y421D02*
X99Y421D01*
X118Y421D02*
X126Y421D01*
X143Y421D02*
X149Y421D01*
X290Y421D02*
X296Y421D01*
X307Y421D02*
X314Y421D01*
X354Y421D02*
X360Y421D01*
X368Y421D02*
X374Y421D01*
X404Y421D02*
X410Y421D01*
X418Y421D02*
X424Y421D01*
X976Y421D02*
X986Y421D01*
X1081Y421D02*
X1091Y421D01*
X93Y420D02*
X99Y420D01*
X117Y420D02*
X125Y420D01*
X143Y420D02*
X149Y420D01*
X290Y420D02*
X296Y420D01*
X307Y420D02*
X315Y420D01*
X354Y420D02*
X360Y420D01*
X368Y420D02*
X374Y420D01*
X404Y420D02*
X410Y420D01*
X418Y420D02*
X424Y420D01*
X977Y420D02*
X986Y420D01*
X1081Y420D02*
X1090Y420D01*
X93Y419D02*
X125Y419D01*
X143Y419D02*
X149Y419D01*
X290Y419D02*
X296Y419D01*
X308Y419D02*
X315Y419D01*
X354Y419D02*
X360Y419D01*
X368Y419D02*
X374Y419D01*
X404Y419D02*
X410Y419D01*
X418Y419D02*
X424Y419D01*
X978Y419D02*
X987Y419D01*
X1080Y419D02*
X1089Y419D01*
X93Y418D02*
X124Y418D01*
X143Y418D02*
X149Y418D01*
X290Y418D02*
X296Y418D01*
X309Y418D02*
X316Y418D01*
X354Y418D02*
X360Y418D01*
X368Y418D02*
X374Y418D01*
X404Y418D02*
X410Y418D01*
X418Y418D02*
X424Y418D01*
X979Y418D02*
X987Y418D01*
X1080Y418D02*
X1088Y418D01*
X93Y417D02*
X123Y417D01*
X143Y417D02*
X149Y417D01*
X290Y417D02*
X296Y417D01*
X309Y417D02*
X316Y417D01*
X354Y417D02*
X360Y417D01*
X368Y417D02*
X374Y417D01*
X404Y417D02*
X410Y417D01*
X418Y417D02*
X424Y417D01*
X980Y417D02*
X987Y417D01*
X1080Y417D02*
X1087Y417D01*
X93Y416D02*
X122Y416D01*
X143Y416D02*
X149Y416D01*
X290Y416D02*
X296Y416D01*
X310Y416D02*
X317Y416D01*
X354Y416D02*
X360Y416D01*
X368Y416D02*
X374Y416D01*
X404Y416D02*
X410Y416D01*
X418Y416D02*
X424Y416D01*
X980Y416D02*
X986Y416D01*
X1080Y416D02*
X1087Y416D01*
X93Y415D02*
X123Y415D01*
X143Y415D02*
X149Y415D01*
X290Y415D02*
X296Y415D01*
X310Y415D02*
X318Y415D01*
X354Y415D02*
X360Y415D01*
X368Y415D02*
X374Y415D01*
X404Y415D02*
X410Y415D01*
X418Y415D02*
X424Y415D01*
X981Y415D02*
X986Y415D01*
X1081Y415D02*
X1086Y415D01*
X93Y414D02*
X124Y414D01*
X143Y414D02*
X149Y414D01*
X290Y414D02*
X296Y414D01*
X311Y414D02*
X318Y414D01*
X354Y414D02*
X360Y414D01*
X368Y414D02*
X374Y414D01*
X404Y414D02*
X410Y414D01*
X418Y414D02*
X424Y414D01*
X1083Y414D02*
X1084Y414D01*
X93Y413D02*
X125Y413D01*
X143Y413D02*
X175Y413D01*
X290Y413D02*
X296Y413D01*
X312Y413D02*
X319Y413D01*
X354Y413D02*
X360Y413D01*
X368Y413D02*
X374Y413D01*
X404Y413D02*
X410Y413D01*
X418Y413D02*
X424Y413D01*
X93Y412D02*
X100Y412D01*
X116Y412D02*
X125Y412D01*
X143Y412D02*
X176Y412D01*
X290Y412D02*
X296Y412D01*
X312Y412D02*
X319Y412D01*
X354Y412D02*
X360Y412D01*
X368Y412D02*
X374Y412D01*
X404Y412D02*
X410Y412D01*
X418Y412D02*
X424Y412D01*
X93Y411D02*
X99Y411D01*
X118Y411D02*
X126Y411D01*
X143Y411D02*
X177Y411D01*
X290Y411D02*
X296Y411D01*
X313Y411D02*
X320Y411D01*
X354Y411D02*
X360Y411D01*
X368Y411D02*
X374Y411D01*
X404Y411D02*
X410Y411D01*
X418Y411D02*
X424Y411D01*
X93Y410D02*
X99Y410D01*
X119Y410D02*
X126Y410D01*
X143Y410D02*
X177Y410D01*
X290Y410D02*
X296Y410D01*
X313Y410D02*
X321Y410D01*
X354Y410D02*
X360Y410D01*
X368Y410D02*
X374Y410D01*
X404Y410D02*
X410Y410D01*
X418Y410D02*
X424Y410D01*
X93Y409D02*
X99Y409D01*
X120Y409D02*
X127Y409D01*
X143Y409D02*
X177Y409D01*
X290Y409D02*
X296Y409D01*
X314Y409D02*
X321Y409D01*
X354Y409D02*
X360Y409D01*
X368Y409D02*
X374Y409D01*
X404Y409D02*
X410Y409D01*
X418Y409D02*
X424Y409D01*
X93Y408D02*
X99Y408D01*
X120Y408D02*
X127Y408D01*
X143Y408D02*
X177Y408D01*
X290Y408D02*
X296Y408D01*
X315Y408D02*
X322Y408D01*
X354Y408D02*
X360Y408D01*
X368Y408D02*
X374Y408D01*
X404Y408D02*
X410Y408D01*
X418Y408D02*
X424Y408D01*
X93Y407D02*
X99Y407D01*
X121Y407D02*
X127Y407D01*
X143Y407D02*
X177Y407D01*
X290Y407D02*
X296Y407D01*
X315Y407D02*
X322Y407D01*
X342Y407D02*
X374Y407D01*
X392Y407D02*
X424Y407D01*
X93Y406D02*
X99Y406D01*
X121Y406D02*
X127Y406D01*
X143Y406D02*
X149Y406D01*
X171Y406D02*
X177Y406D01*
X290Y406D02*
X296Y406D01*
X316Y406D02*
X323Y406D01*
X341Y406D02*
X374Y406D01*
X391Y406D02*
X424Y406D01*
X93Y405D02*
X99Y405D01*
X121Y405D02*
X127Y405D01*
X143Y405D02*
X149Y405D01*
X171Y405D02*
X177Y405D01*
X290Y405D02*
X296Y405D01*
X316Y405D02*
X323Y405D01*
X340Y405D02*
X374Y405D01*
X390Y405D02*
X424Y405D01*
X93Y404D02*
X99Y404D01*
X121Y404D02*
X127Y404D01*
X143Y404D02*
X149Y404D01*
X171Y404D02*
X177Y404D01*
X290Y404D02*
X296Y404D01*
X317Y404D02*
X323Y404D01*
X340Y404D02*
X374Y404D01*
X390Y404D02*
X424Y404D01*
X93Y403D02*
X99Y403D01*
X121Y403D02*
X127Y403D01*
X143Y403D02*
X149Y403D01*
X171Y403D02*
X177Y403D01*
X290Y403D02*
X296Y403D01*
X317Y403D02*
X323Y403D01*
X340Y403D02*
X373Y403D01*
X390Y403D02*
X423Y403D01*
X93Y402D02*
X99Y402D01*
X121Y402D02*
X127Y402D01*
X143Y402D02*
X149Y402D01*
X171Y402D02*
X177Y402D01*
X291Y402D02*
X295Y402D01*
X318Y402D02*
X323Y402D01*
X341Y402D02*
X373Y402D01*
X391Y402D02*
X423Y402D01*
X93Y401D02*
X99Y401D01*
X121Y401D02*
X127Y401D01*
X143Y401D02*
X149Y401D01*
X171Y401D02*
X177Y401D01*
X292Y401D02*
X294Y401D01*
X319Y401D02*
X322Y401D01*
X342Y401D02*
X372Y401D01*
X392Y401D02*
X422Y401D01*
X93Y400D02*
X99Y400D01*
X120Y400D02*
X127Y400D01*
X143Y400D02*
X149Y400D01*
X171Y400D02*
X177Y400D01*
X93Y399D02*
X99Y399D01*
X120Y399D02*
X126Y399D01*
X143Y399D02*
X149Y399D01*
X171Y399D02*
X177Y399D01*
X93Y398D02*
X99Y398D01*
X119Y398D02*
X126Y398D01*
X143Y398D02*
X149Y398D01*
X171Y398D02*
X177Y398D01*
X93Y397D02*
X99Y397D01*
X118Y397D02*
X126Y397D01*
X143Y397D02*
X149Y397D01*
X171Y397D02*
X177Y397D01*
X93Y396D02*
X100Y396D01*
X116Y396D02*
X125Y396D01*
X143Y396D02*
X150Y396D01*
X171Y396D02*
X177Y396D01*
X93Y395D02*
X125Y395D01*
X143Y395D02*
X177Y395D01*
X93Y394D02*
X124Y394D01*
X143Y394D02*
X177Y394D01*
X93Y393D02*
X123Y393D01*
X143Y393D02*
X177Y393D01*
X93Y392D02*
X122Y392D01*
X144Y392D02*
X177Y392D01*
X93Y391D02*
X121Y391D01*
X144Y391D02*
X177Y391D01*
X93Y390D02*
X119Y390D01*
X144Y390D02*
X176Y390D01*
X94Y389D02*
X116Y389D01*
X146Y389D02*
X175Y389D01*
X228Y341D02*
X250Y341D01*
X296Y341D02*
X309Y341D01*
X328Y341D02*
X336Y341D01*
X357Y341D02*
X359Y341D01*
X380Y341D02*
X395Y341D01*
X228Y340D02*
X253Y340D01*
X293Y340D02*
X310Y340D01*
X328Y340D02*
X336Y340D01*
X356Y340D02*
X360Y340D01*
X378Y340D02*
X398Y340D01*
X228Y339D02*
X255Y339D01*
X292Y339D02*
X311Y339D01*
X328Y339D02*
X337Y339D01*
X355Y339D02*
X361Y339D01*
X378Y339D02*
X399Y339D01*
X228Y338D02*
X256Y338D01*
X291Y338D02*
X311Y338D01*
X328Y338D02*
X337Y338D01*
X355Y338D02*
X361Y338D01*
X378Y338D02*
X400Y338D01*
X228Y337D02*
X257Y337D01*
X290Y337D02*
X311Y337D01*
X328Y337D02*
X338Y337D01*
X355Y337D02*
X361Y337D01*
X378Y337D02*
X401Y337D01*
X228Y336D02*
X258Y336D01*
X289Y336D02*
X311Y336D01*
X328Y336D02*
X338Y336D01*
X355Y336D02*
X361Y336D01*
X378Y336D02*
X402Y336D01*
X228Y335D02*
X259Y335D01*
X288Y335D02*
X310Y335D01*
X328Y335D02*
X339Y335D01*
X355Y335D02*
X361Y335D01*
X379Y335D02*
X403Y335D01*
X228Y334D02*
X234Y334D01*
X250Y334D02*
X259Y334D01*
X287Y334D02*
X296Y334D01*
X328Y334D02*
X339Y334D01*
X355Y334D02*
X361Y334D01*
X384Y334D02*
X391Y334D01*
X395Y334D02*
X403Y334D01*
X228Y333D02*
X234Y333D01*
X252Y333D02*
X260Y333D01*
X287Y333D02*
X295Y333D01*
X328Y333D02*
X339Y333D01*
X355Y333D02*
X361Y333D01*
X384Y333D02*
X390Y333D01*
X397Y333D02*
X404Y333D01*
X228Y332D02*
X234Y332D01*
X253Y332D02*
X260Y332D01*
X286Y332D02*
X294Y332D01*
X328Y332D02*
X340Y332D01*
X355Y332D02*
X361Y332D01*
X384Y332D02*
X390Y332D01*
X397Y332D02*
X404Y332D01*
X228Y331D02*
X234Y331D01*
X254Y331D02*
X261Y331D01*
X285Y331D02*
X293Y331D01*
X328Y331D02*
X340Y331D01*
X355Y331D02*
X361Y331D01*
X384Y331D02*
X390Y331D01*
X398Y331D02*
X405Y331D01*
X228Y330D02*
X234Y330D01*
X255Y330D02*
X261Y330D01*
X284Y330D02*
X292Y330D01*
X328Y330D02*
X341Y330D01*
X355Y330D02*
X361Y330D01*
X384Y330D02*
X390Y330D01*
X398Y330D02*
X405Y330D01*
X228Y329D02*
X234Y329D01*
X255Y329D02*
X261Y329D01*
X284Y329D02*
X291Y329D01*
X328Y329D02*
X341Y329D01*
X355Y329D02*
X361Y329D01*
X384Y329D02*
X390Y329D01*
X399Y329D02*
X406Y329D01*
X228Y328D02*
X234Y328D01*
X255Y328D02*
X261Y328D01*
X283Y328D02*
X291Y328D01*
X328Y328D02*
X342Y328D01*
X355Y328D02*
X361Y328D01*
X384Y328D02*
X390Y328D01*
X399Y328D02*
X406Y328D01*
X228Y327D02*
X234Y327D01*
X255Y327D02*
X261Y327D01*
X282Y327D02*
X290Y327D01*
X328Y327D02*
X342Y327D01*
X355Y327D02*
X361Y327D01*
X384Y327D02*
X390Y327D01*
X400Y327D02*
X407Y327D01*
X228Y326D02*
X234Y326D01*
X255Y326D02*
X261Y326D01*
X281Y326D02*
X289Y326D01*
X328Y326D02*
X334Y326D01*
X336Y326D02*
X343Y326D01*
X355Y326D02*
X361Y326D01*
X384Y326D02*
X390Y326D01*
X400Y326D02*
X407Y326D01*
X228Y325D02*
X234Y325D01*
X255Y325D02*
X261Y325D01*
X280Y325D02*
X288Y325D01*
X328Y325D02*
X334Y325D01*
X336Y325D02*
X343Y325D01*
X355Y325D02*
X361Y325D01*
X384Y325D02*
X390Y325D01*
X401Y325D02*
X408Y325D01*
X228Y324D02*
X234Y324D01*
X255Y324D02*
X261Y324D01*
X280Y324D02*
X288Y324D01*
X328Y324D02*
X334Y324D01*
X337Y324D02*
X343Y324D01*
X355Y324D02*
X361Y324D01*
X384Y324D02*
X390Y324D01*
X401Y324D02*
X408Y324D01*
X228Y323D02*
X234Y323D01*
X255Y323D02*
X261Y323D01*
X279Y323D02*
X287Y323D01*
X328Y323D02*
X334Y323D01*
X337Y323D02*
X344Y323D01*
X355Y323D02*
X361Y323D01*
X384Y323D02*
X390Y323D01*
X402Y323D02*
X409Y323D01*
X228Y322D02*
X234Y322D01*
X255Y322D02*
X261Y322D01*
X279Y322D02*
X286Y322D01*
X328Y322D02*
X334Y322D01*
X338Y322D02*
X344Y322D01*
X355Y322D02*
X361Y322D01*
X384Y322D02*
X390Y322D01*
X402Y322D02*
X409Y322D01*
X228Y321D02*
X234Y321D01*
X254Y321D02*
X261Y321D01*
X278Y321D02*
X285Y321D01*
X328Y321D02*
X334Y321D01*
X338Y321D02*
X345Y321D01*
X355Y321D02*
X361Y321D01*
X384Y321D02*
X390Y321D01*
X403Y321D02*
X410Y321D01*
X228Y320D02*
X234Y320D01*
X253Y320D02*
X260Y320D01*
X278Y320D02*
X285Y320D01*
X328Y320D02*
X334Y320D01*
X338Y320D02*
X345Y320D01*
X355Y320D02*
X361Y320D01*
X384Y320D02*
X390Y320D01*
X403Y320D02*
X410Y320D01*
X228Y319D02*
X234Y319D01*
X252Y319D02*
X260Y319D01*
X278Y319D02*
X284Y319D01*
X328Y319D02*
X334Y319D01*
X339Y319D02*
X346Y319D01*
X355Y319D02*
X361Y319D01*
X384Y319D02*
X390Y319D01*
X404Y319D02*
X410Y319D01*
X228Y318D02*
X234Y318D01*
X250Y318D02*
X259Y318D01*
X278Y318D02*
X284Y318D01*
X328Y318D02*
X334Y318D01*
X339Y318D02*
X346Y318D01*
X355Y318D02*
X361Y318D01*
X384Y318D02*
X390Y318D01*
X404Y318D02*
X411Y318D01*
X228Y317D02*
X259Y317D01*
X278Y317D02*
X284Y317D01*
X328Y317D02*
X334Y317D01*
X340Y317D02*
X346Y317D01*
X355Y317D02*
X361Y317D01*
X384Y317D02*
X390Y317D01*
X405Y317D02*
X411Y317D01*
X228Y316D02*
X258Y316D01*
X278Y316D02*
X284Y316D01*
X328Y316D02*
X334Y316D01*
X340Y316D02*
X347Y316D01*
X355Y316D02*
X361Y316D01*
X384Y316D02*
X390Y316D01*
X405Y316D02*
X411Y316D01*
X228Y315D02*
X257Y315D01*
X278Y315D02*
X284Y315D01*
X328Y315D02*
X334Y315D01*
X341Y315D02*
X347Y315D01*
X355Y315D02*
X361Y315D01*
X384Y315D02*
X390Y315D01*
X405Y315D02*
X411Y315D01*
X228Y314D02*
X257Y314D01*
X278Y314D02*
X284Y314D01*
X328Y314D02*
X334Y314D01*
X341Y314D02*
X348Y314D01*
X355Y314D02*
X361Y314D01*
X384Y314D02*
X390Y314D01*
X405Y314D02*
X411Y314D01*
X228Y313D02*
X258Y313D01*
X278Y313D02*
X284Y313D01*
X328Y313D02*
X334Y313D01*
X342Y313D02*
X348Y313D01*
X355Y313D02*
X361Y313D01*
X384Y313D02*
X390Y313D01*
X405Y313D02*
X411Y313D01*
X228Y312D02*
X258Y312D01*
X278Y312D02*
X284Y312D01*
X328Y312D02*
X334Y312D01*
X342Y312D02*
X349Y312D01*
X355Y312D02*
X361Y312D01*
X384Y312D02*
X390Y312D01*
X405Y312D02*
X411Y312D01*
X228Y311D02*
X259Y311D01*
X278Y311D02*
X284Y311D01*
X296Y311D02*
X311Y311D01*
X328Y311D02*
X334Y311D01*
X342Y311D02*
X349Y311D01*
X355Y311D02*
X361Y311D01*
X384Y311D02*
X390Y311D01*
X404Y311D02*
X411Y311D01*
X228Y310D02*
X234Y310D01*
X251Y310D02*
X260Y310D01*
X278Y310D02*
X284Y310D01*
X295Y310D02*
X311Y310D01*
X328Y310D02*
X334Y310D01*
X343Y310D02*
X350Y310D01*
X355Y310D02*
X361Y310D01*
X384Y310D02*
X390Y310D01*
X404Y310D02*
X410Y310D01*
X228Y309D02*
X234Y309D01*
X253Y309D02*
X260Y309D01*
X278Y309D02*
X284Y309D01*
X295Y309D02*
X311Y309D01*
X328Y309D02*
X334Y309D01*
X343Y309D02*
X350Y309D01*
X355Y309D02*
X361Y309D01*
X384Y309D02*
X390Y309D01*
X404Y309D02*
X410Y309D01*
X228Y308D02*
X234Y308D01*
X254Y308D02*
X260Y308D01*
X278Y308D02*
X284Y308D01*
X295Y308D02*
X311Y308D01*
X328Y308D02*
X334Y308D01*
X344Y308D02*
X350Y308D01*
X355Y308D02*
X361Y308D01*
X384Y308D02*
X390Y308D01*
X403Y308D02*
X410Y308D01*
X228Y307D02*
X234Y307D01*
X254Y307D02*
X261Y307D01*
X278Y307D02*
X284Y307D01*
X295Y307D02*
X311Y307D01*
X328Y307D02*
X334Y307D01*
X344Y307D02*
X351Y307D01*
X355Y307D02*
X361Y307D01*
X384Y307D02*
X390Y307D01*
X403Y307D02*
X409Y307D01*
X228Y306D02*
X234Y306D01*
X255Y306D02*
X261Y306D01*
X278Y306D02*
X284Y306D01*
X296Y306D02*
X311Y306D01*
X328Y306D02*
X334Y306D01*
X345Y306D02*
X351Y306D01*
X355Y306D02*
X361Y306D01*
X384Y306D02*
X390Y306D01*
X402Y306D02*
X409Y306D01*
X228Y305D02*
X234Y305D01*
X255Y305D02*
X261Y305D01*
X278Y305D02*
X284Y305D01*
X298Y305D02*
X311Y305D01*
X328Y305D02*
X334Y305D01*
X345Y305D02*
X352Y305D01*
X355Y305D02*
X361Y305D01*
X384Y305D02*
X390Y305D01*
X402Y305D02*
X408Y305D01*
X228Y304D02*
X234Y304D01*
X255Y304D02*
X261Y304D01*
X278Y304D02*
X284Y304D01*
X305Y304D02*
X311Y304D01*
X328Y304D02*
X334Y304D01*
X345Y304D02*
X352Y304D01*
X355Y304D02*
X361Y304D01*
X384Y304D02*
X390Y304D01*
X401Y304D02*
X408Y304D01*
X228Y303D02*
X234Y303D01*
X255Y303D02*
X261Y303D01*
X278Y303D02*
X284Y303D01*
X305Y303D02*
X311Y303D01*
X328Y303D02*
X334Y303D01*
X346Y303D02*
X353Y303D01*
X355Y303D02*
X361Y303D01*
X384Y303D02*
X390Y303D01*
X400Y303D02*
X407Y303D01*
X228Y302D02*
X234Y302D01*
X255Y302D02*
X261Y302D01*
X278Y302D02*
X284Y302D01*
X305Y302D02*
X311Y302D01*
X328Y302D02*
X334Y302D01*
X346Y302D02*
X353Y302D01*
X355Y302D02*
X361Y302D01*
X384Y302D02*
X390Y302D01*
X400Y302D02*
X407Y302D01*
X228Y301D02*
X234Y301D01*
X255Y301D02*
X261Y301D01*
X278Y301D02*
X284Y301D01*
X305Y301D02*
X311Y301D01*
X328Y301D02*
X334Y301D01*
X347Y301D02*
X361Y301D01*
X384Y301D02*
X390Y301D01*
X399Y301D02*
X406Y301D01*
X228Y300D02*
X234Y300D01*
X255Y300D02*
X261Y300D01*
X278Y300D02*
X284Y300D01*
X305Y300D02*
X311Y300D01*
X328Y300D02*
X334Y300D01*
X347Y300D02*
X361Y300D01*
X384Y300D02*
X390Y300D01*
X399Y300D02*
X406Y300D01*
X228Y299D02*
X234Y299D01*
X255Y299D02*
X261Y299D01*
X278Y299D02*
X284Y299D01*
X305Y299D02*
X311Y299D01*
X328Y299D02*
X334Y299D01*
X348Y299D02*
X361Y299D01*
X384Y299D02*
X390Y299D01*
X398Y299D02*
X405Y299D01*
X228Y298D02*
X234Y298D01*
X254Y298D02*
X261Y298D01*
X278Y298D02*
X284Y298D01*
X305Y298D02*
X311Y298D01*
X328Y298D02*
X334Y298D01*
X348Y298D02*
X361Y298D01*
X384Y298D02*
X390Y298D01*
X398Y298D02*
X405Y298D01*
X228Y297D02*
X234Y297D01*
X254Y297D02*
X260Y297D01*
X278Y297D02*
X284Y297D01*
X305Y297D02*
X311Y297D01*
X328Y297D02*
X334Y297D01*
X349Y297D02*
X361Y297D01*
X384Y297D02*
X390Y297D01*
X397Y297D02*
X404Y297D01*
X228Y296D02*
X234Y296D01*
X253Y296D02*
X260Y296D01*
X278Y296D02*
X284Y296D01*
X305Y296D02*
X311Y296D01*
X328Y296D02*
X334Y296D01*
X349Y296D02*
X361Y296D01*
X384Y296D02*
X390Y296D01*
X397Y296D02*
X404Y296D01*
X228Y295D02*
X234Y295D01*
X251Y295D02*
X260Y295D01*
X278Y295D02*
X285Y295D01*
X304Y295D02*
X311Y295D01*
X328Y295D02*
X334Y295D01*
X349Y295D02*
X361Y295D01*
X384Y295D02*
X390Y295D01*
X396Y295D02*
X403Y295D01*
X228Y294D02*
X259Y294D01*
X278Y294D02*
X310Y294D01*
X328Y294D02*
X334Y294D01*
X350Y294D02*
X361Y294D01*
X380Y294D02*
X403Y294D01*
X228Y293D02*
X258Y293D01*
X279Y293D02*
X310Y293D01*
X328Y293D02*
X334Y293D01*
X350Y293D02*
X361Y293D01*
X379Y293D02*
X402Y293D01*
X228Y292D02*
X258Y292D01*
X279Y292D02*
X309Y292D01*
X328Y292D02*
X334Y292D01*
X351Y292D02*
X361Y292D01*
X378Y292D02*
X402Y292D01*
X228Y291D02*
X257Y291D01*
X280Y291D02*
X309Y291D01*
X328Y291D02*
X334Y291D01*
X351Y291D02*
X361Y291D01*
X378Y291D02*
X401Y291D01*
X228Y290D02*
X255Y290D01*
X281Y290D02*
X308Y290D01*
X328Y290D02*
X333Y290D01*
X352Y290D02*
X361Y290D01*
X378Y290D02*
X400Y290D01*
X228Y289D02*
X254Y289D01*
X282Y289D02*
X306Y289D01*
X328Y289D02*
X333Y289D01*
X352Y289D02*
X361Y289D01*
X378Y289D02*
X399Y289D01*
X228Y288D02*
X252Y288D01*
X284Y288D02*
X305Y288D01*
X329Y288D02*
X332Y288D01*
X352Y288D02*
X361Y288D01*
X379Y288D02*
X397Y288D01*
D02*
G04 End of Silk1*
M02*