G04 MADE WITH FRITZING*
G04 WWW.FRITZING.ORG*
G04 DOUBLE SIDED*
G04 HOLES PLATED*
G04 CONTOUR ON CENTER OF CONTOUR VECTOR*
%ASAXBY*%
%FSLAX23Y23*%
%MOIN*%
%OFA0B0*%
%SFA1.0B1.0*%
%ADD10C,0.075000*%
%ADD11C,0.052000*%
%ADD12C,0.078000*%
%ADD13C,0.039370*%
%ADD14C,0.070000*%
%ADD15R,0.075000X0.075000*%
%ADD16C,0.016000*%
%ADD17C,0.024000*%
%LNCOPPER0*%
G90*
G70*
G54D10*
X1316Y772D03*
X1888Y774D03*
X426Y764D03*
X2578Y1561D03*
X2583Y443D03*
X2583Y143D03*
X2483Y443D03*
X2483Y143D03*
X2383Y443D03*
X2383Y143D03*
X2283Y443D03*
X2283Y143D03*
X2183Y443D03*
X2183Y143D03*
X2083Y443D03*
X2083Y143D03*
X1983Y443D03*
X1983Y143D03*
X1883Y443D03*
X1883Y143D03*
X1783Y443D03*
X1783Y143D03*
X1683Y443D03*
X1683Y143D03*
X1583Y443D03*
X1583Y143D03*
X1483Y443D03*
X1483Y143D03*
X1383Y443D03*
X1383Y143D03*
X1283Y443D03*
X1283Y143D03*
X583Y893D03*
X583Y1493D03*
X683Y893D03*
X683Y1493D03*
X783Y893D03*
X783Y1493D03*
X883Y893D03*
X883Y1493D03*
X983Y893D03*
X983Y1493D03*
X1083Y893D03*
X1083Y1493D03*
X1183Y893D03*
X1183Y1493D03*
X1283Y893D03*
X1283Y1493D03*
X1383Y893D03*
X1383Y1493D03*
X1483Y893D03*
X1483Y1493D03*
X1583Y893D03*
X1583Y1493D03*
X1683Y893D03*
X1683Y1493D03*
X1783Y893D03*
X1783Y1493D03*
X1883Y893D03*
X1883Y1493D03*
X1983Y893D03*
X1983Y1493D03*
X2083Y893D03*
X2083Y1493D03*
X2183Y893D03*
X2183Y1493D03*
X2283Y893D03*
X2283Y1493D03*
X2383Y893D03*
X2383Y1493D03*
X2483Y893D03*
X2483Y1493D03*
G54D11*
X334Y1153D03*
X334Y1343D03*
X134Y1153D03*
X134Y1343D03*
G54D12*
X284Y343D03*
X284Y243D03*
X284Y143D03*
X284Y343D03*
X284Y243D03*
X284Y143D03*
X384Y143D03*
X384Y243D03*
X384Y343D03*
G54D13*
X1458Y743D03*
X1383Y668D03*
X1958Y568D03*
X983Y343D03*
X309Y68D03*
X683Y143D03*
X1583Y968D03*
X1883Y343D03*
G54D12*
X134Y1543D03*
X234Y1543D03*
X334Y1543D03*
X134Y968D03*
X234Y968D03*
X334Y968D03*
G54D13*
X1684Y968D03*
X1784Y968D03*
X1659Y1268D03*
X1610Y1219D03*
G54D14*
X1584Y668D03*
X1684Y668D03*
X1784Y668D03*
X1884Y668D03*
G54D15*
X2583Y443D03*
X583Y893D03*
G54D16*
X1384Y992D02*
X1409Y1018D01*
D02*
X2583Y992D02*
X2583Y460D01*
D02*
X2559Y1018D02*
X2583Y992D01*
D02*
X1409Y1018D02*
X2559Y1018D01*
D02*
X1383Y910D02*
X1384Y992D01*
D02*
X1583Y160D02*
X1583Y218D01*
D02*
X1583Y218D02*
X1533Y267D01*
D02*
X1533Y267D02*
X1184Y267D01*
D02*
X1133Y318D02*
X1134Y768D01*
D02*
X1184Y267D02*
X1133Y318D01*
D02*
X1409Y193D02*
X1384Y219D01*
D02*
X1384Y219D02*
X1059Y218D01*
D02*
X1469Y152D02*
X1409Y193D01*
D02*
X1233Y318D02*
X1208Y343D01*
D02*
X1208Y343D02*
X1208Y768D01*
D02*
X1608Y318D02*
X1233Y318D01*
D02*
X1684Y243D02*
X1608Y318D01*
D02*
X1683Y160D02*
X1684Y243D01*
D02*
X1059Y218D02*
X1084Y243D01*
D02*
X1084Y243D02*
X1083Y875D01*
D02*
X1208Y768D02*
X1283Y843D01*
D02*
X1283Y843D02*
X1283Y867D01*
D02*
X1283Y867D02*
X1283Y875D01*
D02*
X1134Y768D02*
X1184Y818D01*
D02*
X1184Y818D02*
X1183Y875D01*
D02*
X459Y219D02*
X1059Y218D01*
D02*
X402Y237D02*
X459Y219D01*
D02*
X1465Y738D02*
X1459Y742D01*
D02*
X1459Y742D02*
X1483Y768D01*
D02*
X1483Y768D02*
X1483Y875D01*
D02*
X1383Y675D02*
X1383Y875D01*
D02*
X1984Y543D02*
X1984Y460D01*
D02*
X1964Y562D02*
X1984Y543D01*
D02*
X1259Y1018D02*
X1284Y994D01*
D02*
X1284Y994D02*
X1283Y910D01*
D02*
X510Y1018D02*
X1259Y1018D01*
D02*
X184Y719D02*
X510Y1018D01*
D02*
X184Y268D02*
X184Y719D01*
D02*
X235Y243D02*
X184Y268D01*
D02*
X265Y243D02*
X235Y243D01*
D02*
X1160Y969D02*
X1185Y944D01*
D02*
X1185Y944D02*
X1184Y910D01*
D02*
X534Y968D02*
X1160Y969D01*
D02*
X260Y719D02*
X534Y968D01*
D02*
X260Y393D02*
X260Y719D01*
D02*
X276Y360D02*
X260Y393D01*
D02*
X403Y343D02*
X975Y343D01*
D02*
X284Y94D02*
X303Y74D01*
D02*
X284Y124D02*
X284Y94D01*
G54D17*
D02*
X403Y143D02*
X675Y143D01*
D02*
X1583Y960D02*
X1583Y910D01*
D02*
X1883Y351D02*
X1883Y425D01*
G54D16*
D02*
X134Y1137D02*
X134Y987D01*
D02*
X134Y1524D02*
X134Y1359D01*
D02*
X334Y1524D02*
X334Y1359D01*
G54D17*
D02*
X334Y1137D02*
X334Y987D01*
G54D16*
D02*
X235Y1168D02*
X234Y987D01*
D02*
X1602Y1219D02*
X284Y1219D01*
D02*
X284Y1219D02*
X235Y1168D01*
D02*
X235Y1317D02*
X234Y1524D01*
D02*
X284Y1268D02*
X235Y1317D01*
D02*
X1651Y1268D02*
X284Y1268D01*
D02*
X1784Y910D02*
X1784Y960D01*
D02*
X1684Y960D02*
X1684Y910D01*
G54D17*
D02*
X1783Y460D02*
X1784Y653D01*
D02*
X1683Y460D02*
X1684Y653D01*
D02*
X1783Y875D02*
X1784Y683D01*
D02*
X1683Y875D02*
X1684Y683D01*
G36*
X274Y1514D02*
X274Y1510D01*
X272Y1510D01*
X272Y1508D01*
X270Y1508D01*
X270Y1506D01*
X268Y1506D01*
X268Y1504D01*
X266Y1504D01*
X266Y1502D01*
X262Y1502D01*
X262Y1500D01*
X260Y1500D01*
X260Y1498D01*
X256Y1498D01*
X256Y1496D01*
X254Y1496D01*
X254Y1326D01*
X256Y1326D01*
X256Y1324D01*
X258Y1324D01*
X258Y1322D01*
X260Y1322D01*
X260Y1320D01*
X262Y1320D01*
X262Y1318D01*
X264Y1318D01*
X264Y1316D01*
X266Y1316D01*
X266Y1314D01*
X268Y1314D01*
X268Y1312D01*
X270Y1312D01*
X270Y1310D01*
X272Y1310D01*
X272Y1308D01*
X274Y1308D01*
X274Y1306D01*
X276Y1306D01*
X276Y1304D01*
X278Y1304D01*
X278Y1302D01*
X280Y1302D01*
X280Y1300D01*
X282Y1300D01*
X282Y1298D01*
X284Y1298D01*
X284Y1296D01*
X286Y1296D01*
X286Y1294D01*
X288Y1294D01*
X288Y1292D01*
X290Y1292D01*
X290Y1290D01*
X292Y1290D01*
X292Y1288D01*
X324Y1288D01*
X324Y1308D01*
X318Y1308D01*
X318Y1310D01*
X314Y1310D01*
X314Y1312D01*
X312Y1312D01*
X312Y1314D01*
X308Y1314D01*
X308Y1316D01*
X306Y1316D01*
X306Y1320D01*
X304Y1320D01*
X304Y1322D01*
X302Y1322D01*
X302Y1326D01*
X300Y1326D01*
X300Y1328D01*
X298Y1328D01*
X298Y1336D01*
X296Y1336D01*
X296Y1350D01*
X298Y1350D01*
X298Y1358D01*
X300Y1358D01*
X300Y1362D01*
X302Y1362D01*
X302Y1364D01*
X304Y1364D01*
X304Y1368D01*
X306Y1368D01*
X306Y1370D01*
X308Y1370D01*
X308Y1372D01*
X310Y1372D01*
X310Y1374D01*
X314Y1374D01*
X314Y1496D01*
X312Y1496D01*
X312Y1498D01*
X310Y1498D01*
X310Y1500D01*
X306Y1500D01*
X306Y1502D01*
X304Y1502D01*
X304Y1504D01*
X300Y1504D01*
X300Y1506D01*
X298Y1506D01*
X298Y1508D01*
X296Y1508D01*
X296Y1510D01*
X294Y1510D01*
X294Y1514D01*
X274Y1514D01*
G37*
D02*
G36*
X288Y1196D02*
X288Y1194D01*
X286Y1194D01*
X286Y1192D01*
X284Y1192D01*
X284Y1190D01*
X282Y1190D01*
X282Y1188D01*
X280Y1188D01*
X280Y1186D01*
X278Y1186D01*
X278Y1184D01*
X276Y1184D01*
X276Y1182D01*
X274Y1182D01*
X274Y1180D01*
X272Y1180D01*
X272Y1176D01*
X270Y1176D01*
X270Y1174D01*
X268Y1174D01*
X268Y1172D01*
X266Y1172D01*
X266Y1170D01*
X264Y1170D01*
X264Y1168D01*
X262Y1168D01*
X262Y1166D01*
X260Y1166D01*
X260Y1164D01*
X258Y1164D01*
X258Y1162D01*
X256Y1162D01*
X256Y1160D01*
X254Y1160D01*
X254Y1014D01*
X258Y1014D01*
X258Y1012D01*
X262Y1012D01*
X262Y1010D01*
X264Y1010D01*
X264Y1008D01*
X266Y1008D01*
X266Y1006D01*
X270Y1006D01*
X270Y1004D01*
X272Y1004D01*
X272Y1000D01*
X274Y1000D01*
X274Y998D01*
X294Y998D01*
X294Y1000D01*
X296Y1000D01*
X296Y1002D01*
X298Y1002D01*
X298Y1004D01*
X300Y1004D01*
X300Y1006D01*
X302Y1006D01*
X302Y1008D01*
X304Y1008D01*
X304Y1010D01*
X306Y1010D01*
X306Y1012D01*
X310Y1012D01*
X310Y1124D01*
X308Y1124D01*
X308Y1126D01*
X306Y1126D01*
X306Y1130D01*
X304Y1130D01*
X304Y1132D01*
X302Y1132D01*
X302Y1136D01*
X300Y1136D01*
X300Y1138D01*
X298Y1138D01*
X298Y1146D01*
X296Y1146D01*
X296Y1160D01*
X298Y1160D01*
X298Y1168D01*
X300Y1168D01*
X300Y1172D01*
X302Y1172D01*
X302Y1174D01*
X304Y1174D01*
X304Y1178D01*
X306Y1178D01*
X306Y1180D01*
X308Y1180D01*
X308Y1196D01*
X288Y1196D01*
G37*
D02*
G36*
X1178Y998D02*
X1178Y978D01*
X1180Y978D01*
X1180Y976D01*
X1182Y976D01*
X1182Y974D01*
X1184Y974D01*
X1184Y972D01*
X1186Y972D01*
X1186Y970D01*
X1188Y970D01*
X1188Y968D01*
X1190Y968D01*
X1190Y966D01*
X1192Y966D01*
X1192Y964D01*
X1194Y964D01*
X1194Y962D01*
X1196Y962D01*
X1196Y960D01*
X1198Y960D01*
X1198Y958D01*
X1200Y958D01*
X1200Y956D01*
X1202Y956D01*
X1202Y952D01*
X1204Y952D01*
X1204Y936D01*
X1208Y936D01*
X1208Y934D01*
X1212Y934D01*
X1212Y932D01*
X1214Y932D01*
X1214Y930D01*
X1216Y930D01*
X1216Y928D01*
X1218Y928D01*
X1218Y926D01*
X1220Y926D01*
X1220Y924D01*
X1222Y924D01*
X1222Y922D01*
X1224Y922D01*
X1224Y920D01*
X1244Y920D01*
X1244Y924D01*
X1246Y924D01*
X1246Y926D01*
X1248Y926D01*
X1248Y928D01*
X1250Y928D01*
X1250Y930D01*
X1252Y930D01*
X1252Y932D01*
X1256Y932D01*
X1256Y934D01*
X1258Y934D01*
X1258Y936D01*
X1262Y936D01*
X1262Y938D01*
X1264Y938D01*
X1264Y986D01*
X1262Y986D01*
X1262Y988D01*
X1260Y988D01*
X1260Y990D01*
X1258Y990D01*
X1258Y992D01*
X1256Y992D01*
X1256Y994D01*
X1254Y994D01*
X1254Y996D01*
X1252Y996D01*
X1252Y998D01*
X1178Y998D01*
G37*
D02*
G36*
X1416Y998D02*
X1416Y996D01*
X1414Y996D01*
X1414Y994D01*
X1412Y994D01*
X1412Y992D01*
X1410Y992D01*
X1410Y990D01*
X1408Y990D01*
X1408Y988D01*
X1406Y988D01*
X1406Y986D01*
X1404Y986D01*
X1404Y942D01*
X1492Y942D01*
X1492Y940D01*
X1500Y940D01*
X1500Y938D01*
X1504Y938D01*
X1504Y936D01*
X1508Y936D01*
X1508Y934D01*
X1512Y934D01*
X1512Y932D01*
X1514Y932D01*
X1514Y930D01*
X1516Y930D01*
X1516Y928D01*
X1518Y928D01*
X1518Y926D01*
X1520Y926D01*
X1520Y924D01*
X1522Y924D01*
X1522Y922D01*
X1524Y922D01*
X1524Y920D01*
X1544Y920D01*
X1544Y924D01*
X1546Y924D01*
X1546Y926D01*
X1548Y926D01*
X1548Y928D01*
X1550Y928D01*
X1550Y930D01*
X1552Y930D01*
X1552Y932D01*
X1556Y932D01*
X1556Y954D01*
X1554Y954D01*
X1554Y960D01*
X1552Y960D01*
X1552Y976D01*
X1554Y976D01*
X1554Y998D01*
X1416Y998D01*
G37*
D02*
G36*
X1404Y942D02*
X1404Y936D01*
X1408Y936D01*
X1408Y934D01*
X1412Y934D01*
X1412Y932D01*
X1414Y932D01*
X1414Y930D01*
X1416Y930D01*
X1416Y928D01*
X1418Y928D01*
X1418Y926D01*
X1420Y926D01*
X1420Y924D01*
X1422Y924D01*
X1422Y922D01*
X1424Y922D01*
X1424Y920D01*
X1444Y920D01*
X1444Y924D01*
X1446Y924D01*
X1446Y926D01*
X1448Y926D01*
X1448Y928D01*
X1450Y928D01*
X1450Y930D01*
X1452Y930D01*
X1452Y932D01*
X1456Y932D01*
X1456Y934D01*
X1458Y934D01*
X1458Y936D01*
X1462Y936D01*
X1462Y938D01*
X1466Y938D01*
X1466Y940D01*
X1474Y940D01*
X1474Y942D01*
X1404Y942D01*
G37*
D02*
G36*
X1612Y998D02*
X1612Y978D01*
X1614Y978D01*
X1614Y956D01*
X1612Y956D01*
X1612Y932D01*
X1614Y932D01*
X1614Y930D01*
X1616Y930D01*
X1616Y928D01*
X1618Y928D01*
X1618Y926D01*
X1620Y926D01*
X1620Y924D01*
X1622Y924D01*
X1622Y922D01*
X1624Y922D01*
X1624Y920D01*
X1644Y920D01*
X1644Y924D01*
X1646Y924D01*
X1646Y926D01*
X1648Y926D01*
X1648Y928D01*
X1650Y928D01*
X1650Y930D01*
X1652Y930D01*
X1652Y932D01*
X1656Y932D01*
X1656Y956D01*
X1654Y956D01*
X1654Y964D01*
X1652Y964D01*
X1652Y972D01*
X1654Y972D01*
X1654Y998D01*
X1612Y998D01*
G37*
D02*
G36*
X1714Y998D02*
X1714Y974D01*
X1716Y974D01*
X1716Y962D01*
X1714Y962D01*
X1714Y956D01*
X1712Y956D01*
X1712Y932D01*
X1714Y932D01*
X1714Y930D01*
X1716Y930D01*
X1716Y928D01*
X1718Y928D01*
X1718Y926D01*
X1720Y926D01*
X1720Y924D01*
X1722Y924D01*
X1722Y922D01*
X1724Y922D01*
X1724Y920D01*
X1744Y920D01*
X1744Y924D01*
X1746Y924D01*
X1746Y926D01*
X1748Y926D01*
X1748Y928D01*
X1750Y928D01*
X1750Y930D01*
X1752Y930D01*
X1752Y932D01*
X1756Y932D01*
X1756Y956D01*
X1754Y956D01*
X1754Y964D01*
X1752Y964D01*
X1752Y972D01*
X1754Y972D01*
X1754Y998D01*
X1714Y998D01*
G37*
D02*
G36*
X1122Y864D02*
X1122Y860D01*
X1120Y860D01*
X1120Y858D01*
X1118Y858D01*
X1118Y856D01*
X1116Y856D01*
X1116Y854D01*
X1112Y854D01*
X1112Y852D01*
X1110Y852D01*
X1110Y850D01*
X1106Y850D01*
X1106Y848D01*
X1104Y848D01*
X1104Y786D01*
X1124Y786D01*
X1124Y788D01*
X1126Y788D01*
X1126Y790D01*
X1128Y790D01*
X1128Y792D01*
X1130Y792D01*
X1130Y794D01*
X1132Y794D01*
X1132Y796D01*
X1134Y796D01*
X1134Y798D01*
X1136Y798D01*
X1136Y800D01*
X1138Y800D01*
X1138Y802D01*
X1140Y802D01*
X1140Y804D01*
X1142Y804D01*
X1142Y806D01*
X1144Y806D01*
X1144Y808D01*
X1146Y808D01*
X1146Y810D01*
X1148Y810D01*
X1148Y812D01*
X1150Y812D01*
X1150Y814D01*
X1152Y814D01*
X1152Y816D01*
X1154Y816D01*
X1154Y818D01*
X1156Y818D01*
X1156Y820D01*
X1158Y820D01*
X1158Y822D01*
X1160Y822D01*
X1160Y824D01*
X1162Y824D01*
X1162Y826D01*
X1164Y826D01*
X1164Y848D01*
X1160Y848D01*
X1160Y850D01*
X1156Y850D01*
X1156Y852D01*
X1154Y852D01*
X1154Y854D01*
X1152Y854D01*
X1152Y856D01*
X1150Y856D01*
X1150Y858D01*
X1148Y858D01*
X1148Y860D01*
X1146Y860D01*
X1146Y862D01*
X1144Y862D01*
X1144Y864D01*
X1122Y864D01*
G37*
D02*
G36*
X1222Y864D02*
X1222Y860D01*
X1220Y860D01*
X1220Y858D01*
X1218Y858D01*
X1218Y856D01*
X1216Y856D01*
X1216Y854D01*
X1212Y854D01*
X1212Y852D01*
X1210Y852D01*
X1210Y850D01*
X1206Y850D01*
X1206Y848D01*
X1204Y848D01*
X1204Y812D01*
X1202Y812D01*
X1202Y808D01*
X1200Y808D01*
X1200Y806D01*
X1198Y806D01*
X1198Y804D01*
X1218Y804D01*
X1218Y806D01*
X1220Y806D01*
X1220Y808D01*
X1222Y808D01*
X1222Y810D01*
X1224Y810D01*
X1224Y812D01*
X1226Y812D01*
X1226Y814D01*
X1228Y814D01*
X1228Y816D01*
X1230Y816D01*
X1230Y818D01*
X1232Y818D01*
X1232Y820D01*
X1234Y820D01*
X1234Y822D01*
X1236Y822D01*
X1236Y824D01*
X1238Y824D01*
X1238Y826D01*
X1240Y826D01*
X1240Y828D01*
X1242Y828D01*
X1242Y830D01*
X1244Y830D01*
X1244Y832D01*
X1246Y832D01*
X1246Y834D01*
X1248Y834D01*
X1248Y836D01*
X1250Y836D01*
X1250Y858D01*
X1248Y858D01*
X1248Y860D01*
X1246Y860D01*
X1246Y862D01*
X1244Y862D01*
X1244Y864D01*
X1222Y864D01*
G37*
D02*
G36*
X1322Y864D02*
X1322Y860D01*
X1320Y860D01*
X1320Y858D01*
X1318Y858D01*
X1318Y856D01*
X1316Y856D01*
X1316Y854D01*
X1312Y854D01*
X1312Y852D01*
X1310Y852D01*
X1310Y850D01*
X1306Y850D01*
X1306Y848D01*
X1302Y848D01*
X1302Y834D01*
X1300Y834D01*
X1300Y830D01*
X1298Y830D01*
X1298Y828D01*
X1296Y828D01*
X1296Y826D01*
X1294Y826D01*
X1294Y824D01*
X1292Y824D01*
X1292Y822D01*
X1290Y822D01*
X1290Y820D01*
X1288Y820D01*
X1288Y818D01*
X1286Y818D01*
X1286Y816D01*
X1284Y816D01*
X1284Y814D01*
X1282Y814D01*
X1282Y812D01*
X1280Y812D01*
X1280Y810D01*
X1278Y810D01*
X1278Y808D01*
X1276Y808D01*
X1276Y806D01*
X1274Y806D01*
X1274Y804D01*
X1272Y804D01*
X1272Y802D01*
X1270Y802D01*
X1270Y800D01*
X1268Y800D01*
X1268Y798D01*
X1266Y798D01*
X1266Y796D01*
X1264Y796D01*
X1264Y794D01*
X1262Y794D01*
X1262Y792D01*
X1260Y792D01*
X1260Y790D01*
X1258Y790D01*
X1258Y788D01*
X1256Y788D01*
X1256Y786D01*
X1254Y786D01*
X1254Y784D01*
X1252Y784D01*
X1252Y782D01*
X1250Y782D01*
X1250Y780D01*
X1248Y780D01*
X1248Y778D01*
X1246Y778D01*
X1246Y776D01*
X1244Y776D01*
X1244Y774D01*
X1242Y774D01*
X1242Y772D01*
X1240Y772D01*
X1240Y770D01*
X1238Y770D01*
X1238Y768D01*
X1236Y768D01*
X1236Y766D01*
X1234Y766D01*
X1234Y764D01*
X1232Y764D01*
X1232Y762D01*
X1230Y762D01*
X1230Y760D01*
X1228Y760D01*
X1228Y636D01*
X1376Y636D01*
X1376Y638D01*
X1370Y638D01*
X1370Y640D01*
X1366Y640D01*
X1366Y642D01*
X1364Y642D01*
X1364Y644D01*
X1362Y644D01*
X1362Y646D01*
X1360Y646D01*
X1360Y648D01*
X1358Y648D01*
X1358Y650D01*
X1356Y650D01*
X1356Y654D01*
X1354Y654D01*
X1354Y660D01*
X1352Y660D01*
X1352Y676D01*
X1354Y676D01*
X1354Y682D01*
X1356Y682D01*
X1356Y684D01*
X1358Y684D01*
X1358Y688D01*
X1360Y688D01*
X1360Y690D01*
X1362Y690D01*
X1362Y692D01*
X1364Y692D01*
X1364Y848D01*
X1360Y848D01*
X1360Y850D01*
X1356Y850D01*
X1356Y852D01*
X1354Y852D01*
X1354Y854D01*
X1352Y854D01*
X1352Y856D01*
X1350Y856D01*
X1350Y858D01*
X1348Y858D01*
X1348Y860D01*
X1346Y860D01*
X1346Y862D01*
X1344Y862D01*
X1344Y864D01*
X1322Y864D01*
G37*
D02*
G36*
X1422Y864D02*
X1422Y860D01*
X1420Y860D01*
X1420Y858D01*
X1418Y858D01*
X1418Y856D01*
X1416Y856D01*
X1416Y854D01*
X1412Y854D01*
X1412Y852D01*
X1410Y852D01*
X1410Y850D01*
X1406Y850D01*
X1406Y848D01*
X1404Y848D01*
X1404Y710D01*
X1458Y710D01*
X1458Y712D01*
X1448Y712D01*
X1448Y714D01*
X1444Y714D01*
X1444Y716D01*
X1440Y716D01*
X1440Y718D01*
X1438Y718D01*
X1438Y720D01*
X1436Y720D01*
X1436Y722D01*
X1434Y722D01*
X1434Y724D01*
X1432Y724D01*
X1432Y726D01*
X1430Y726D01*
X1430Y730D01*
X1428Y730D01*
X1428Y740D01*
X1426Y740D01*
X1426Y746D01*
X1428Y746D01*
X1428Y754D01*
X1430Y754D01*
X1430Y758D01*
X1432Y758D01*
X1432Y762D01*
X1434Y762D01*
X1434Y764D01*
X1436Y764D01*
X1436Y766D01*
X1438Y766D01*
X1438Y768D01*
X1442Y768D01*
X1442Y770D01*
X1444Y770D01*
X1444Y772D01*
X1450Y772D01*
X1450Y774D01*
X1462Y774D01*
X1462Y818D01*
X1464Y818D01*
X1464Y848D01*
X1460Y848D01*
X1460Y850D01*
X1456Y850D01*
X1456Y852D01*
X1454Y852D01*
X1454Y854D01*
X1452Y854D01*
X1452Y856D01*
X1450Y856D01*
X1450Y858D01*
X1448Y858D01*
X1448Y860D01*
X1446Y860D01*
X1446Y862D01*
X1444Y862D01*
X1444Y864D01*
X1422Y864D01*
G37*
D02*
G36*
X1522Y864D02*
X1522Y860D01*
X1520Y860D01*
X1520Y858D01*
X1518Y858D01*
X1518Y856D01*
X1516Y856D01*
X1516Y854D01*
X1512Y854D01*
X1512Y852D01*
X1510Y852D01*
X1510Y850D01*
X1506Y850D01*
X1506Y848D01*
X1504Y848D01*
X1504Y844D01*
X1570Y844D01*
X1570Y846D01*
X1564Y846D01*
X1564Y848D01*
X1560Y848D01*
X1560Y850D01*
X1556Y850D01*
X1556Y852D01*
X1554Y852D01*
X1554Y854D01*
X1552Y854D01*
X1552Y856D01*
X1550Y856D01*
X1550Y858D01*
X1548Y858D01*
X1548Y860D01*
X1546Y860D01*
X1546Y862D01*
X1544Y862D01*
X1544Y864D01*
X1522Y864D01*
G37*
D02*
G36*
X1622Y864D02*
X1622Y860D01*
X1620Y860D01*
X1620Y858D01*
X1618Y858D01*
X1618Y856D01*
X1616Y856D01*
X1616Y854D01*
X1612Y854D01*
X1612Y852D01*
X1610Y852D01*
X1610Y850D01*
X1606Y850D01*
X1606Y848D01*
X1602Y848D01*
X1602Y846D01*
X1596Y846D01*
X1596Y844D01*
X1660Y844D01*
X1660Y850D01*
X1656Y850D01*
X1656Y852D01*
X1654Y852D01*
X1654Y854D01*
X1652Y854D01*
X1652Y856D01*
X1650Y856D01*
X1650Y858D01*
X1648Y858D01*
X1648Y860D01*
X1646Y860D01*
X1646Y862D01*
X1644Y862D01*
X1644Y864D01*
X1622Y864D01*
G37*
D02*
G36*
X1504Y844D02*
X1504Y842D01*
X1660Y842D01*
X1660Y844D01*
X1504Y844D01*
G37*
D02*
G36*
X1504Y844D02*
X1504Y842D01*
X1660Y842D01*
X1660Y844D01*
X1504Y844D01*
G37*
D02*
G36*
X1504Y842D02*
X1504Y814D01*
X1502Y814D01*
X1502Y760D01*
X1500Y760D01*
X1500Y756D01*
X1498Y756D01*
X1498Y754D01*
X1496Y754D01*
X1496Y752D01*
X1494Y752D01*
X1494Y750D01*
X1492Y750D01*
X1492Y748D01*
X1490Y748D01*
X1490Y736D01*
X1488Y736D01*
X1488Y730D01*
X1486Y730D01*
X1486Y726D01*
X1484Y726D01*
X1484Y722D01*
X1482Y722D01*
X1482Y720D01*
X1480Y720D01*
X1480Y718D01*
X1476Y718D01*
X1476Y716D01*
X1588Y716D01*
X1588Y714D01*
X1598Y714D01*
X1598Y712D01*
X1604Y712D01*
X1604Y710D01*
X1606Y710D01*
X1606Y708D01*
X1610Y708D01*
X1610Y706D01*
X1612Y706D01*
X1612Y704D01*
X1616Y704D01*
X1616Y702D01*
X1618Y702D01*
X1618Y700D01*
X1620Y700D01*
X1620Y696D01*
X1622Y696D01*
X1622Y694D01*
X1624Y694D01*
X1624Y690D01*
X1644Y690D01*
X1644Y694D01*
X1646Y694D01*
X1646Y696D01*
X1648Y696D01*
X1648Y700D01*
X1650Y700D01*
X1650Y702D01*
X1652Y702D01*
X1652Y704D01*
X1656Y704D01*
X1656Y706D01*
X1658Y706D01*
X1658Y708D01*
X1660Y708D01*
X1660Y842D01*
X1504Y842D01*
G37*
D02*
G36*
X1474Y716D02*
X1474Y714D01*
X1470Y714D01*
X1470Y712D01*
X1460Y712D01*
X1460Y710D01*
X1564Y710D01*
X1564Y712D01*
X1570Y712D01*
X1570Y714D01*
X1580Y714D01*
X1580Y716D01*
X1474Y716D01*
G37*
D02*
G36*
X1404Y710D02*
X1404Y708D01*
X1562Y708D01*
X1562Y710D01*
X1404Y710D01*
G37*
D02*
G36*
X1404Y710D02*
X1404Y708D01*
X1562Y708D01*
X1562Y710D01*
X1404Y710D01*
G37*
D02*
G36*
X1404Y708D02*
X1404Y690D01*
X1406Y690D01*
X1406Y688D01*
X1408Y688D01*
X1408Y686D01*
X1410Y686D01*
X1410Y682D01*
X1412Y682D01*
X1412Y678D01*
X1414Y678D01*
X1414Y656D01*
X1412Y656D01*
X1412Y652D01*
X1410Y652D01*
X1410Y650D01*
X1408Y650D01*
X1408Y646D01*
X1406Y646D01*
X1406Y644D01*
X1404Y644D01*
X1404Y642D01*
X1400Y642D01*
X1400Y640D01*
X1396Y640D01*
X1396Y638D01*
X1392Y638D01*
X1392Y636D01*
X1550Y636D01*
X1550Y638D01*
X1548Y638D01*
X1548Y640D01*
X1546Y640D01*
X1546Y642D01*
X1544Y642D01*
X1544Y646D01*
X1542Y646D01*
X1542Y650D01*
X1540Y650D01*
X1540Y656D01*
X1538Y656D01*
X1538Y680D01*
X1540Y680D01*
X1540Y688D01*
X1542Y688D01*
X1542Y690D01*
X1544Y690D01*
X1544Y694D01*
X1546Y694D01*
X1546Y696D01*
X1548Y696D01*
X1548Y700D01*
X1550Y700D01*
X1550Y702D01*
X1552Y702D01*
X1552Y704D01*
X1556Y704D01*
X1556Y706D01*
X1558Y706D01*
X1558Y708D01*
X1404Y708D01*
G37*
D02*
G36*
X1624Y646D02*
X1624Y642D01*
X1622Y642D01*
X1622Y640D01*
X1620Y640D01*
X1620Y638D01*
X1618Y638D01*
X1618Y634D01*
X1614Y634D01*
X1614Y632D01*
X1612Y632D01*
X1612Y630D01*
X1610Y630D01*
X1610Y628D01*
X1606Y628D01*
X1606Y626D01*
X1602Y626D01*
X1602Y624D01*
X1596Y624D01*
X1596Y622D01*
X1660Y622D01*
X1660Y628D01*
X1658Y628D01*
X1658Y630D01*
X1656Y630D01*
X1656Y632D01*
X1654Y632D01*
X1654Y634D01*
X1650Y634D01*
X1650Y638D01*
X1648Y638D01*
X1648Y640D01*
X1646Y640D01*
X1646Y642D01*
X1644Y642D01*
X1644Y646D01*
X1624Y646D01*
G37*
D02*
G36*
X1228Y636D02*
X1228Y634D01*
X1550Y634D01*
X1550Y636D01*
X1228Y636D01*
G37*
D02*
G36*
X1228Y636D02*
X1228Y634D01*
X1550Y634D01*
X1550Y636D01*
X1228Y636D01*
G37*
D02*
G36*
X1228Y634D02*
X1228Y622D01*
X1572Y622D01*
X1572Y624D01*
X1566Y624D01*
X1566Y626D01*
X1562Y626D01*
X1562Y628D01*
X1558Y628D01*
X1558Y630D01*
X1556Y630D01*
X1556Y632D01*
X1554Y632D01*
X1554Y634D01*
X1228Y634D01*
G37*
D02*
G36*
X1228Y622D02*
X1228Y620D01*
X1660Y620D01*
X1660Y622D01*
X1228Y622D01*
G37*
D02*
G36*
X1228Y622D02*
X1228Y620D01*
X1660Y620D01*
X1660Y622D01*
X1228Y622D01*
G37*
D02*
G36*
X1228Y620D02*
X1228Y492D01*
X1592Y492D01*
X1592Y490D01*
X1600Y490D01*
X1600Y488D01*
X1604Y488D01*
X1604Y486D01*
X1608Y486D01*
X1608Y484D01*
X1612Y484D01*
X1612Y482D01*
X1614Y482D01*
X1614Y480D01*
X1616Y480D01*
X1616Y478D01*
X1618Y478D01*
X1618Y476D01*
X1620Y476D01*
X1620Y474D01*
X1622Y474D01*
X1622Y472D01*
X1624Y472D01*
X1624Y470D01*
X1644Y470D01*
X1644Y474D01*
X1646Y474D01*
X1646Y476D01*
X1648Y476D01*
X1648Y478D01*
X1650Y478D01*
X1650Y480D01*
X1652Y480D01*
X1652Y482D01*
X1656Y482D01*
X1656Y484D01*
X1658Y484D01*
X1658Y486D01*
X1660Y486D01*
X1660Y620D01*
X1228Y620D01*
G37*
D02*
G36*
X1228Y492D02*
X1228Y476D01*
X1248Y476D01*
X1248Y478D01*
X1250Y478D01*
X1250Y480D01*
X1252Y480D01*
X1252Y482D01*
X1256Y482D01*
X1256Y484D01*
X1258Y484D01*
X1258Y486D01*
X1262Y486D01*
X1262Y488D01*
X1266Y488D01*
X1266Y490D01*
X1274Y490D01*
X1274Y492D01*
X1228Y492D01*
G37*
D02*
G36*
X1292Y492D02*
X1292Y490D01*
X1300Y490D01*
X1300Y488D01*
X1304Y488D01*
X1304Y486D01*
X1308Y486D01*
X1308Y484D01*
X1312Y484D01*
X1312Y482D01*
X1314Y482D01*
X1314Y480D01*
X1316Y480D01*
X1316Y478D01*
X1318Y478D01*
X1318Y476D01*
X1320Y476D01*
X1320Y474D01*
X1322Y474D01*
X1322Y472D01*
X1324Y472D01*
X1324Y470D01*
X1344Y470D01*
X1344Y474D01*
X1346Y474D01*
X1346Y476D01*
X1348Y476D01*
X1348Y478D01*
X1350Y478D01*
X1350Y480D01*
X1352Y480D01*
X1352Y482D01*
X1356Y482D01*
X1356Y484D01*
X1358Y484D01*
X1358Y486D01*
X1362Y486D01*
X1362Y488D01*
X1366Y488D01*
X1366Y490D01*
X1374Y490D01*
X1374Y492D01*
X1292Y492D01*
G37*
D02*
G36*
X1392Y492D02*
X1392Y490D01*
X1400Y490D01*
X1400Y488D01*
X1404Y488D01*
X1404Y486D01*
X1408Y486D01*
X1408Y484D01*
X1412Y484D01*
X1412Y482D01*
X1414Y482D01*
X1414Y480D01*
X1416Y480D01*
X1416Y478D01*
X1418Y478D01*
X1418Y476D01*
X1420Y476D01*
X1420Y474D01*
X1422Y474D01*
X1422Y472D01*
X1424Y472D01*
X1424Y470D01*
X1444Y470D01*
X1444Y474D01*
X1446Y474D01*
X1446Y476D01*
X1448Y476D01*
X1448Y478D01*
X1450Y478D01*
X1450Y480D01*
X1452Y480D01*
X1452Y482D01*
X1456Y482D01*
X1456Y484D01*
X1458Y484D01*
X1458Y486D01*
X1462Y486D01*
X1462Y488D01*
X1466Y488D01*
X1466Y490D01*
X1474Y490D01*
X1474Y492D01*
X1392Y492D01*
G37*
D02*
G36*
X1492Y492D02*
X1492Y490D01*
X1500Y490D01*
X1500Y488D01*
X1504Y488D01*
X1504Y486D01*
X1508Y486D01*
X1508Y484D01*
X1512Y484D01*
X1512Y482D01*
X1514Y482D01*
X1514Y480D01*
X1516Y480D01*
X1516Y478D01*
X1518Y478D01*
X1518Y476D01*
X1520Y476D01*
X1520Y474D01*
X1522Y474D01*
X1522Y472D01*
X1524Y472D01*
X1524Y470D01*
X1544Y470D01*
X1544Y474D01*
X1546Y474D01*
X1546Y476D01*
X1548Y476D01*
X1548Y478D01*
X1550Y478D01*
X1550Y480D01*
X1552Y480D01*
X1552Y482D01*
X1556Y482D01*
X1556Y484D01*
X1558Y484D01*
X1558Y486D01*
X1562Y486D01*
X1562Y488D01*
X1566Y488D01*
X1566Y490D01*
X1574Y490D01*
X1574Y492D01*
X1492Y492D01*
G37*
D02*
G36*
X1722Y864D02*
X1722Y860D01*
X1720Y860D01*
X1720Y858D01*
X1718Y858D01*
X1718Y856D01*
X1716Y856D01*
X1716Y854D01*
X1712Y854D01*
X1712Y852D01*
X1710Y852D01*
X1710Y850D01*
X1708Y850D01*
X1708Y708D01*
X1710Y708D01*
X1710Y706D01*
X1712Y706D01*
X1712Y704D01*
X1716Y704D01*
X1716Y702D01*
X1718Y702D01*
X1718Y700D01*
X1720Y700D01*
X1720Y696D01*
X1722Y696D01*
X1722Y694D01*
X1724Y694D01*
X1724Y690D01*
X1744Y690D01*
X1744Y694D01*
X1746Y694D01*
X1746Y696D01*
X1748Y696D01*
X1748Y700D01*
X1750Y700D01*
X1750Y702D01*
X1752Y702D01*
X1752Y704D01*
X1756Y704D01*
X1756Y706D01*
X1758Y706D01*
X1758Y708D01*
X1760Y708D01*
X1760Y850D01*
X1756Y850D01*
X1756Y852D01*
X1754Y852D01*
X1754Y854D01*
X1752Y854D01*
X1752Y856D01*
X1750Y856D01*
X1750Y858D01*
X1748Y858D01*
X1748Y860D01*
X1746Y860D01*
X1746Y862D01*
X1744Y862D01*
X1744Y864D01*
X1722Y864D01*
G37*
D02*
G36*
X1170Y776D02*
X1170Y774D01*
X1168Y774D01*
X1168Y772D01*
X1166Y772D01*
X1166Y770D01*
X1164Y770D01*
X1164Y768D01*
X1162Y768D01*
X1162Y766D01*
X1160Y766D01*
X1160Y764D01*
X1158Y764D01*
X1158Y762D01*
X1156Y762D01*
X1156Y760D01*
X1154Y760D01*
X1154Y460D01*
X1152Y460D01*
X1152Y326D01*
X1154Y326D01*
X1154Y324D01*
X1156Y324D01*
X1156Y322D01*
X1158Y322D01*
X1158Y320D01*
X1160Y320D01*
X1160Y318D01*
X1162Y318D01*
X1162Y316D01*
X1164Y316D01*
X1164Y314D01*
X1166Y314D01*
X1166Y312D01*
X1168Y312D01*
X1168Y310D01*
X1170Y310D01*
X1170Y308D01*
X1172Y308D01*
X1172Y306D01*
X1174Y306D01*
X1174Y304D01*
X1176Y304D01*
X1176Y302D01*
X1178Y302D01*
X1178Y300D01*
X1180Y300D01*
X1180Y298D01*
X1182Y298D01*
X1182Y296D01*
X1184Y296D01*
X1184Y294D01*
X1186Y294D01*
X1186Y292D01*
X1188Y292D01*
X1188Y290D01*
X1190Y290D01*
X1190Y288D01*
X1192Y288D01*
X1192Y286D01*
X1218Y286D01*
X1218Y306D01*
X1216Y306D01*
X1216Y308D01*
X1214Y308D01*
X1214Y310D01*
X1212Y310D01*
X1212Y312D01*
X1210Y312D01*
X1210Y314D01*
X1208Y314D01*
X1208Y316D01*
X1206Y316D01*
X1206Y318D01*
X1204Y318D01*
X1204Y320D01*
X1202Y320D01*
X1202Y322D01*
X1200Y322D01*
X1200Y324D01*
X1198Y324D01*
X1198Y326D01*
X1196Y326D01*
X1196Y328D01*
X1194Y328D01*
X1194Y330D01*
X1192Y330D01*
X1192Y332D01*
X1190Y332D01*
X1190Y336D01*
X1188Y336D01*
X1188Y772D01*
X1190Y772D01*
X1190Y776D01*
X1170Y776D01*
G37*
D02*
G36*
X220Y726D02*
X220Y724D01*
X218Y724D01*
X218Y722D01*
X216Y722D01*
X216Y720D01*
X214Y720D01*
X214Y718D01*
X212Y718D01*
X212Y716D01*
X210Y716D01*
X210Y714D01*
X208Y714D01*
X208Y712D01*
X206Y712D01*
X206Y710D01*
X204Y710D01*
X204Y280D01*
X206Y280D01*
X206Y278D01*
X210Y278D01*
X210Y276D01*
X214Y276D01*
X214Y274D01*
X218Y274D01*
X218Y272D01*
X222Y272D01*
X222Y270D01*
X242Y270D01*
X242Y272D01*
X244Y272D01*
X244Y276D01*
X246Y276D01*
X246Y278D01*
X248Y278D01*
X248Y280D01*
X250Y280D01*
X250Y282D01*
X252Y282D01*
X252Y284D01*
X254Y284D01*
X254Y304D01*
X250Y304D01*
X250Y306D01*
X248Y306D01*
X248Y308D01*
X246Y308D01*
X246Y310D01*
X244Y310D01*
X244Y314D01*
X242Y314D01*
X242Y316D01*
X240Y316D01*
X240Y320D01*
X238Y320D01*
X238Y324D01*
X236Y324D01*
X236Y330D01*
X234Y330D01*
X234Y356D01*
X236Y356D01*
X236Y362D01*
X238Y362D01*
X238Y366D01*
X240Y366D01*
X240Y726D01*
X220Y726D01*
G37*
D02*
G36*
X1724Y646D02*
X1724Y642D01*
X1722Y642D01*
X1722Y640D01*
X1720Y640D01*
X1720Y636D01*
X1718Y636D01*
X1718Y634D01*
X1714Y634D01*
X1714Y632D01*
X1712Y632D01*
X1712Y630D01*
X1710Y630D01*
X1710Y628D01*
X1708Y628D01*
X1708Y484D01*
X1712Y484D01*
X1712Y482D01*
X1714Y482D01*
X1714Y480D01*
X1716Y480D01*
X1716Y478D01*
X1718Y478D01*
X1718Y476D01*
X1720Y476D01*
X1720Y474D01*
X1722Y474D01*
X1722Y472D01*
X1724Y472D01*
X1724Y470D01*
X1744Y470D01*
X1744Y474D01*
X1746Y474D01*
X1746Y476D01*
X1748Y476D01*
X1748Y478D01*
X1750Y478D01*
X1750Y480D01*
X1752Y480D01*
X1752Y482D01*
X1756Y482D01*
X1756Y484D01*
X1758Y484D01*
X1758Y486D01*
X1760Y486D01*
X1760Y628D01*
X1758Y628D01*
X1758Y630D01*
X1756Y630D01*
X1756Y632D01*
X1754Y632D01*
X1754Y634D01*
X1750Y634D01*
X1750Y638D01*
X1748Y638D01*
X1748Y640D01*
X1746Y640D01*
X1746Y642D01*
X1744Y642D01*
X1744Y646D01*
X1724Y646D01*
G37*
D02*
G36*
X1814Y998D02*
X1814Y974D01*
X1816Y974D01*
X1816Y962D01*
X1814Y962D01*
X1814Y956D01*
X1812Y956D01*
X1812Y942D01*
X2492Y942D01*
X2492Y940D01*
X2500Y940D01*
X2500Y938D01*
X2504Y938D01*
X2504Y936D01*
X2508Y936D01*
X2508Y934D01*
X2512Y934D01*
X2512Y932D01*
X2514Y932D01*
X2514Y930D01*
X2516Y930D01*
X2516Y928D01*
X2518Y928D01*
X2518Y926D01*
X2520Y926D01*
X2520Y924D01*
X2522Y924D01*
X2522Y922D01*
X2524Y922D01*
X2524Y918D01*
X2526Y918D01*
X2526Y916D01*
X2528Y916D01*
X2528Y912D01*
X2530Y912D01*
X2530Y906D01*
X2532Y906D01*
X2532Y880D01*
X2530Y880D01*
X2530Y874D01*
X2528Y874D01*
X2528Y870D01*
X2526Y870D01*
X2526Y866D01*
X2524Y866D01*
X2524Y864D01*
X2522Y864D01*
X2522Y860D01*
X2520Y860D01*
X2520Y858D01*
X2518Y858D01*
X2518Y856D01*
X2516Y856D01*
X2516Y854D01*
X2512Y854D01*
X2512Y852D01*
X2510Y852D01*
X2510Y850D01*
X2506Y850D01*
X2506Y848D01*
X2502Y848D01*
X2502Y846D01*
X2496Y846D01*
X2496Y844D01*
X2562Y844D01*
X2562Y986D01*
X2560Y986D01*
X2560Y988D01*
X2558Y988D01*
X2558Y990D01*
X2556Y990D01*
X2556Y992D01*
X2554Y992D01*
X2554Y994D01*
X2552Y994D01*
X2552Y996D01*
X2550Y996D01*
X2550Y998D01*
X1814Y998D01*
G37*
D02*
G36*
X1812Y942D02*
X1812Y932D01*
X1814Y932D01*
X1814Y930D01*
X1816Y930D01*
X1816Y928D01*
X1818Y928D01*
X1818Y926D01*
X1820Y926D01*
X1820Y924D01*
X1822Y924D01*
X1822Y922D01*
X1824Y922D01*
X1824Y920D01*
X1844Y920D01*
X1844Y924D01*
X1846Y924D01*
X1846Y926D01*
X1848Y926D01*
X1848Y928D01*
X1850Y928D01*
X1850Y930D01*
X1852Y930D01*
X1852Y932D01*
X1856Y932D01*
X1856Y934D01*
X1858Y934D01*
X1858Y936D01*
X1862Y936D01*
X1862Y938D01*
X1866Y938D01*
X1866Y940D01*
X1874Y940D01*
X1874Y942D01*
X1812Y942D01*
G37*
D02*
G36*
X1892Y942D02*
X1892Y940D01*
X1900Y940D01*
X1900Y938D01*
X1904Y938D01*
X1904Y936D01*
X1908Y936D01*
X1908Y934D01*
X1912Y934D01*
X1912Y932D01*
X1914Y932D01*
X1914Y930D01*
X1916Y930D01*
X1916Y928D01*
X1918Y928D01*
X1918Y926D01*
X1920Y926D01*
X1920Y924D01*
X1922Y924D01*
X1922Y922D01*
X1924Y922D01*
X1924Y920D01*
X1944Y920D01*
X1944Y924D01*
X1946Y924D01*
X1946Y926D01*
X1948Y926D01*
X1948Y928D01*
X1950Y928D01*
X1950Y930D01*
X1952Y930D01*
X1952Y932D01*
X1956Y932D01*
X1956Y934D01*
X1958Y934D01*
X1958Y936D01*
X1962Y936D01*
X1962Y938D01*
X1966Y938D01*
X1966Y940D01*
X1974Y940D01*
X1974Y942D01*
X1892Y942D01*
G37*
D02*
G36*
X1992Y942D02*
X1992Y940D01*
X2000Y940D01*
X2000Y938D01*
X2004Y938D01*
X2004Y936D01*
X2008Y936D01*
X2008Y934D01*
X2012Y934D01*
X2012Y932D01*
X2014Y932D01*
X2014Y930D01*
X2016Y930D01*
X2016Y928D01*
X2018Y928D01*
X2018Y926D01*
X2020Y926D01*
X2020Y924D01*
X2022Y924D01*
X2022Y922D01*
X2024Y922D01*
X2024Y920D01*
X2044Y920D01*
X2044Y924D01*
X2046Y924D01*
X2046Y926D01*
X2048Y926D01*
X2048Y928D01*
X2050Y928D01*
X2050Y930D01*
X2052Y930D01*
X2052Y932D01*
X2056Y932D01*
X2056Y934D01*
X2058Y934D01*
X2058Y936D01*
X2062Y936D01*
X2062Y938D01*
X2066Y938D01*
X2066Y940D01*
X2074Y940D01*
X2074Y942D01*
X1992Y942D01*
G37*
D02*
G36*
X2092Y942D02*
X2092Y940D01*
X2100Y940D01*
X2100Y938D01*
X2104Y938D01*
X2104Y936D01*
X2108Y936D01*
X2108Y934D01*
X2112Y934D01*
X2112Y932D01*
X2114Y932D01*
X2114Y930D01*
X2116Y930D01*
X2116Y928D01*
X2118Y928D01*
X2118Y926D01*
X2120Y926D01*
X2120Y924D01*
X2122Y924D01*
X2122Y922D01*
X2124Y922D01*
X2124Y920D01*
X2144Y920D01*
X2144Y924D01*
X2146Y924D01*
X2146Y926D01*
X2148Y926D01*
X2148Y928D01*
X2150Y928D01*
X2150Y930D01*
X2152Y930D01*
X2152Y932D01*
X2156Y932D01*
X2156Y934D01*
X2158Y934D01*
X2158Y936D01*
X2162Y936D01*
X2162Y938D01*
X2166Y938D01*
X2166Y940D01*
X2174Y940D01*
X2174Y942D01*
X2092Y942D01*
G37*
D02*
G36*
X2192Y942D02*
X2192Y940D01*
X2200Y940D01*
X2200Y938D01*
X2204Y938D01*
X2204Y936D01*
X2208Y936D01*
X2208Y934D01*
X2212Y934D01*
X2212Y932D01*
X2214Y932D01*
X2214Y930D01*
X2216Y930D01*
X2216Y928D01*
X2218Y928D01*
X2218Y926D01*
X2220Y926D01*
X2220Y924D01*
X2222Y924D01*
X2222Y922D01*
X2224Y922D01*
X2224Y920D01*
X2244Y920D01*
X2244Y924D01*
X2246Y924D01*
X2246Y926D01*
X2248Y926D01*
X2248Y928D01*
X2250Y928D01*
X2250Y930D01*
X2252Y930D01*
X2252Y932D01*
X2256Y932D01*
X2256Y934D01*
X2258Y934D01*
X2258Y936D01*
X2262Y936D01*
X2262Y938D01*
X2266Y938D01*
X2266Y940D01*
X2274Y940D01*
X2274Y942D01*
X2192Y942D01*
G37*
D02*
G36*
X2292Y942D02*
X2292Y940D01*
X2300Y940D01*
X2300Y938D01*
X2304Y938D01*
X2304Y936D01*
X2308Y936D01*
X2308Y934D01*
X2312Y934D01*
X2312Y932D01*
X2314Y932D01*
X2314Y930D01*
X2316Y930D01*
X2316Y928D01*
X2318Y928D01*
X2318Y926D01*
X2320Y926D01*
X2320Y924D01*
X2322Y924D01*
X2322Y922D01*
X2324Y922D01*
X2324Y920D01*
X2344Y920D01*
X2344Y924D01*
X2346Y924D01*
X2346Y926D01*
X2348Y926D01*
X2348Y928D01*
X2350Y928D01*
X2350Y930D01*
X2352Y930D01*
X2352Y932D01*
X2356Y932D01*
X2356Y934D01*
X2358Y934D01*
X2358Y936D01*
X2362Y936D01*
X2362Y938D01*
X2366Y938D01*
X2366Y940D01*
X2374Y940D01*
X2374Y942D01*
X2292Y942D01*
G37*
D02*
G36*
X2392Y942D02*
X2392Y940D01*
X2400Y940D01*
X2400Y938D01*
X2404Y938D01*
X2404Y936D01*
X2408Y936D01*
X2408Y934D01*
X2412Y934D01*
X2412Y932D01*
X2414Y932D01*
X2414Y930D01*
X2416Y930D01*
X2416Y928D01*
X2418Y928D01*
X2418Y926D01*
X2420Y926D01*
X2420Y924D01*
X2422Y924D01*
X2422Y922D01*
X2424Y922D01*
X2424Y920D01*
X2444Y920D01*
X2444Y924D01*
X2446Y924D01*
X2446Y926D01*
X2448Y926D01*
X2448Y928D01*
X2450Y928D01*
X2450Y930D01*
X2452Y930D01*
X2452Y932D01*
X2456Y932D01*
X2456Y934D01*
X2458Y934D01*
X2458Y936D01*
X2462Y936D01*
X2462Y938D01*
X2466Y938D01*
X2466Y940D01*
X2474Y940D01*
X2474Y942D01*
X2392Y942D01*
G37*
D02*
G36*
X1822Y864D02*
X1822Y860D01*
X1820Y860D01*
X1820Y858D01*
X1818Y858D01*
X1818Y856D01*
X1816Y856D01*
X1816Y854D01*
X1812Y854D01*
X1812Y852D01*
X1810Y852D01*
X1810Y850D01*
X1808Y850D01*
X1808Y844D01*
X1870Y844D01*
X1870Y846D01*
X1864Y846D01*
X1864Y848D01*
X1860Y848D01*
X1860Y850D01*
X1856Y850D01*
X1856Y852D01*
X1854Y852D01*
X1854Y854D01*
X1852Y854D01*
X1852Y856D01*
X1850Y856D01*
X1850Y858D01*
X1848Y858D01*
X1848Y860D01*
X1846Y860D01*
X1846Y862D01*
X1844Y862D01*
X1844Y864D01*
X1822Y864D01*
G37*
D02*
G36*
X1922Y864D02*
X1922Y860D01*
X1920Y860D01*
X1920Y858D01*
X1918Y858D01*
X1918Y856D01*
X1916Y856D01*
X1916Y854D01*
X1912Y854D01*
X1912Y852D01*
X1910Y852D01*
X1910Y850D01*
X1906Y850D01*
X1906Y848D01*
X1902Y848D01*
X1902Y846D01*
X1896Y846D01*
X1896Y844D01*
X1970Y844D01*
X1970Y846D01*
X1964Y846D01*
X1964Y848D01*
X1960Y848D01*
X1960Y850D01*
X1956Y850D01*
X1956Y852D01*
X1954Y852D01*
X1954Y854D01*
X1952Y854D01*
X1952Y856D01*
X1950Y856D01*
X1950Y858D01*
X1948Y858D01*
X1948Y860D01*
X1946Y860D01*
X1946Y862D01*
X1944Y862D01*
X1944Y864D01*
X1922Y864D01*
G37*
D02*
G36*
X2022Y864D02*
X2022Y860D01*
X2020Y860D01*
X2020Y858D01*
X2018Y858D01*
X2018Y856D01*
X2016Y856D01*
X2016Y854D01*
X2012Y854D01*
X2012Y852D01*
X2010Y852D01*
X2010Y850D01*
X2006Y850D01*
X2006Y848D01*
X2002Y848D01*
X2002Y846D01*
X1996Y846D01*
X1996Y844D01*
X2070Y844D01*
X2070Y846D01*
X2064Y846D01*
X2064Y848D01*
X2060Y848D01*
X2060Y850D01*
X2056Y850D01*
X2056Y852D01*
X2054Y852D01*
X2054Y854D01*
X2052Y854D01*
X2052Y856D01*
X2050Y856D01*
X2050Y858D01*
X2048Y858D01*
X2048Y860D01*
X2046Y860D01*
X2046Y862D01*
X2044Y862D01*
X2044Y864D01*
X2022Y864D01*
G37*
D02*
G36*
X2122Y864D02*
X2122Y860D01*
X2120Y860D01*
X2120Y858D01*
X2118Y858D01*
X2118Y856D01*
X2116Y856D01*
X2116Y854D01*
X2112Y854D01*
X2112Y852D01*
X2110Y852D01*
X2110Y850D01*
X2106Y850D01*
X2106Y848D01*
X2102Y848D01*
X2102Y846D01*
X2096Y846D01*
X2096Y844D01*
X2170Y844D01*
X2170Y846D01*
X2164Y846D01*
X2164Y848D01*
X2160Y848D01*
X2160Y850D01*
X2156Y850D01*
X2156Y852D01*
X2154Y852D01*
X2154Y854D01*
X2152Y854D01*
X2152Y856D01*
X2150Y856D01*
X2150Y858D01*
X2148Y858D01*
X2148Y860D01*
X2146Y860D01*
X2146Y862D01*
X2144Y862D01*
X2144Y864D01*
X2122Y864D01*
G37*
D02*
G36*
X2222Y864D02*
X2222Y860D01*
X2220Y860D01*
X2220Y858D01*
X2218Y858D01*
X2218Y856D01*
X2216Y856D01*
X2216Y854D01*
X2212Y854D01*
X2212Y852D01*
X2210Y852D01*
X2210Y850D01*
X2206Y850D01*
X2206Y848D01*
X2202Y848D01*
X2202Y846D01*
X2196Y846D01*
X2196Y844D01*
X2270Y844D01*
X2270Y846D01*
X2264Y846D01*
X2264Y848D01*
X2260Y848D01*
X2260Y850D01*
X2256Y850D01*
X2256Y852D01*
X2254Y852D01*
X2254Y854D01*
X2252Y854D01*
X2252Y856D01*
X2250Y856D01*
X2250Y858D01*
X2248Y858D01*
X2248Y860D01*
X2246Y860D01*
X2246Y862D01*
X2244Y862D01*
X2244Y864D01*
X2222Y864D01*
G37*
D02*
G36*
X2322Y864D02*
X2322Y860D01*
X2320Y860D01*
X2320Y858D01*
X2318Y858D01*
X2318Y856D01*
X2316Y856D01*
X2316Y854D01*
X2312Y854D01*
X2312Y852D01*
X2310Y852D01*
X2310Y850D01*
X2306Y850D01*
X2306Y848D01*
X2302Y848D01*
X2302Y846D01*
X2296Y846D01*
X2296Y844D01*
X2370Y844D01*
X2370Y846D01*
X2364Y846D01*
X2364Y848D01*
X2360Y848D01*
X2360Y850D01*
X2356Y850D01*
X2356Y852D01*
X2354Y852D01*
X2354Y854D01*
X2352Y854D01*
X2352Y856D01*
X2350Y856D01*
X2350Y858D01*
X2348Y858D01*
X2348Y860D01*
X2346Y860D01*
X2346Y862D01*
X2344Y862D01*
X2344Y864D01*
X2322Y864D01*
G37*
D02*
G36*
X2422Y864D02*
X2422Y860D01*
X2420Y860D01*
X2420Y858D01*
X2418Y858D01*
X2418Y856D01*
X2416Y856D01*
X2416Y854D01*
X2412Y854D01*
X2412Y852D01*
X2410Y852D01*
X2410Y850D01*
X2406Y850D01*
X2406Y848D01*
X2402Y848D01*
X2402Y846D01*
X2396Y846D01*
X2396Y844D01*
X2470Y844D01*
X2470Y846D01*
X2464Y846D01*
X2464Y848D01*
X2460Y848D01*
X2460Y850D01*
X2456Y850D01*
X2456Y852D01*
X2454Y852D01*
X2454Y854D01*
X2452Y854D01*
X2452Y856D01*
X2450Y856D01*
X2450Y858D01*
X2448Y858D01*
X2448Y860D01*
X2446Y860D01*
X2446Y862D01*
X2444Y862D01*
X2444Y864D01*
X2422Y864D01*
G37*
D02*
G36*
X1808Y844D02*
X1808Y842D01*
X2562Y842D01*
X2562Y844D01*
X1808Y844D01*
G37*
D02*
G36*
X1808Y844D02*
X1808Y842D01*
X2562Y842D01*
X2562Y844D01*
X1808Y844D01*
G37*
D02*
G36*
X1808Y844D02*
X1808Y842D01*
X2562Y842D01*
X2562Y844D01*
X1808Y844D01*
G37*
D02*
G36*
X1808Y844D02*
X1808Y842D01*
X2562Y842D01*
X2562Y844D01*
X1808Y844D01*
G37*
D02*
G36*
X1808Y844D02*
X1808Y842D01*
X2562Y842D01*
X2562Y844D01*
X1808Y844D01*
G37*
D02*
G36*
X1808Y844D02*
X1808Y842D01*
X2562Y842D01*
X2562Y844D01*
X1808Y844D01*
G37*
D02*
G36*
X1808Y844D02*
X1808Y842D01*
X2562Y842D01*
X2562Y844D01*
X1808Y844D01*
G37*
D02*
G36*
X1808Y844D02*
X1808Y842D01*
X2562Y842D01*
X2562Y844D01*
X1808Y844D01*
G37*
D02*
G36*
X1808Y842D02*
X1808Y716D01*
X1888Y716D01*
X1888Y714D01*
X1898Y714D01*
X1898Y712D01*
X1904Y712D01*
X1904Y710D01*
X1906Y710D01*
X1906Y708D01*
X1910Y708D01*
X1910Y706D01*
X1912Y706D01*
X1912Y704D01*
X1916Y704D01*
X1916Y702D01*
X1918Y702D01*
X1918Y700D01*
X1920Y700D01*
X1920Y696D01*
X1922Y696D01*
X1922Y694D01*
X1924Y694D01*
X1924Y690D01*
X1926Y690D01*
X1926Y688D01*
X1928Y688D01*
X1928Y682D01*
X1930Y682D01*
X1930Y670D01*
X1932Y670D01*
X1932Y666D01*
X1930Y666D01*
X1930Y656D01*
X1928Y656D01*
X1928Y650D01*
X1926Y650D01*
X1926Y646D01*
X1924Y646D01*
X1924Y642D01*
X1922Y642D01*
X1922Y640D01*
X1920Y640D01*
X1920Y636D01*
X1918Y636D01*
X1918Y634D01*
X1914Y634D01*
X1914Y632D01*
X1912Y632D01*
X1912Y630D01*
X1910Y630D01*
X1910Y628D01*
X1906Y628D01*
X1906Y626D01*
X1902Y626D01*
X1902Y624D01*
X1896Y624D01*
X1896Y622D01*
X2564Y622D01*
X2564Y840D01*
X2562Y840D01*
X2562Y842D01*
X1808Y842D01*
G37*
D02*
G36*
X1808Y716D02*
X1808Y708D01*
X1810Y708D01*
X1810Y706D01*
X1812Y706D01*
X1812Y704D01*
X1816Y704D01*
X1816Y702D01*
X1818Y702D01*
X1818Y700D01*
X1820Y700D01*
X1820Y696D01*
X1822Y696D01*
X1822Y694D01*
X1824Y694D01*
X1824Y690D01*
X1844Y690D01*
X1844Y694D01*
X1846Y694D01*
X1846Y696D01*
X1848Y696D01*
X1848Y700D01*
X1850Y700D01*
X1850Y702D01*
X1852Y702D01*
X1852Y704D01*
X1856Y704D01*
X1856Y706D01*
X1858Y706D01*
X1858Y708D01*
X1862Y708D01*
X1862Y710D01*
X1864Y710D01*
X1864Y712D01*
X1870Y712D01*
X1870Y714D01*
X1880Y714D01*
X1880Y716D01*
X1808Y716D01*
G37*
D02*
G36*
X1824Y646D02*
X1824Y642D01*
X1822Y642D01*
X1822Y640D01*
X1820Y640D01*
X1820Y638D01*
X1818Y638D01*
X1818Y634D01*
X1814Y634D01*
X1814Y632D01*
X1812Y632D01*
X1812Y630D01*
X1810Y630D01*
X1810Y628D01*
X1808Y628D01*
X1808Y622D01*
X1872Y622D01*
X1872Y624D01*
X1866Y624D01*
X1866Y626D01*
X1862Y626D01*
X1862Y628D01*
X1858Y628D01*
X1858Y630D01*
X1856Y630D01*
X1856Y632D01*
X1854Y632D01*
X1854Y634D01*
X1850Y634D01*
X1850Y638D01*
X1848Y638D01*
X1848Y640D01*
X1846Y640D01*
X1846Y642D01*
X1844Y642D01*
X1844Y646D01*
X1824Y646D01*
G37*
D02*
G36*
X1808Y622D02*
X1808Y620D01*
X2564Y620D01*
X2564Y622D01*
X1808Y622D01*
G37*
D02*
G36*
X1808Y622D02*
X1808Y620D01*
X2564Y620D01*
X2564Y622D01*
X1808Y622D01*
G37*
D02*
G36*
X1808Y620D02*
X1808Y600D01*
X1960Y600D01*
X1960Y598D01*
X1970Y598D01*
X1970Y596D01*
X1974Y596D01*
X1974Y594D01*
X1976Y594D01*
X1976Y592D01*
X1980Y592D01*
X1980Y590D01*
X1982Y590D01*
X1982Y588D01*
X1984Y588D01*
X1984Y584D01*
X1986Y584D01*
X1986Y580D01*
X1988Y580D01*
X1988Y574D01*
X1990Y574D01*
X1990Y564D01*
X1992Y564D01*
X1992Y562D01*
X1994Y562D01*
X1994Y560D01*
X1996Y560D01*
X1996Y558D01*
X1998Y558D01*
X1998Y556D01*
X2000Y556D01*
X2000Y554D01*
X2002Y554D01*
X2002Y548D01*
X2004Y548D01*
X2004Y492D01*
X2492Y492D01*
X2492Y490D01*
X2500Y490D01*
X2500Y488D01*
X2504Y488D01*
X2504Y486D01*
X2508Y486D01*
X2508Y484D01*
X2512Y484D01*
X2512Y482D01*
X2514Y482D01*
X2514Y480D01*
X2534Y480D01*
X2534Y492D01*
X2564Y492D01*
X2564Y620D01*
X1808Y620D01*
G37*
D02*
G36*
X1808Y600D02*
X1808Y492D01*
X1892Y492D01*
X1892Y490D01*
X1900Y490D01*
X1900Y488D01*
X1904Y488D01*
X1904Y486D01*
X1908Y486D01*
X1908Y484D01*
X1912Y484D01*
X1912Y482D01*
X1914Y482D01*
X1914Y480D01*
X1916Y480D01*
X1916Y478D01*
X1918Y478D01*
X1918Y476D01*
X1920Y476D01*
X1920Y474D01*
X1922Y474D01*
X1922Y472D01*
X1924Y472D01*
X1924Y470D01*
X1944Y470D01*
X1944Y474D01*
X1946Y474D01*
X1946Y476D01*
X1948Y476D01*
X1948Y478D01*
X1950Y478D01*
X1950Y480D01*
X1952Y480D01*
X1952Y482D01*
X1956Y482D01*
X1956Y484D01*
X1958Y484D01*
X1958Y486D01*
X1962Y486D01*
X1962Y488D01*
X1964Y488D01*
X1964Y536D01*
X1950Y536D01*
X1950Y538D01*
X1944Y538D01*
X1944Y540D01*
X1942Y540D01*
X1942Y542D01*
X1938Y542D01*
X1938Y544D01*
X1936Y544D01*
X1936Y546D01*
X1934Y546D01*
X1934Y548D01*
X1932Y548D01*
X1932Y552D01*
X1930Y552D01*
X1930Y556D01*
X1928Y556D01*
X1928Y564D01*
X1926Y564D01*
X1926Y570D01*
X1928Y570D01*
X1928Y580D01*
X1930Y580D01*
X1930Y584D01*
X1932Y584D01*
X1932Y586D01*
X1934Y586D01*
X1934Y588D01*
X1936Y588D01*
X1936Y590D01*
X1938Y590D01*
X1938Y592D01*
X1940Y592D01*
X1940Y594D01*
X1942Y594D01*
X1942Y596D01*
X1946Y596D01*
X1946Y598D01*
X1956Y598D01*
X1956Y600D01*
X1808Y600D01*
G37*
D02*
G36*
X1808Y492D02*
X1808Y484D01*
X1812Y484D01*
X1812Y482D01*
X1814Y482D01*
X1814Y480D01*
X1816Y480D01*
X1816Y478D01*
X1818Y478D01*
X1818Y476D01*
X1820Y476D01*
X1820Y474D01*
X1822Y474D01*
X1822Y472D01*
X1824Y472D01*
X1824Y470D01*
X1844Y470D01*
X1844Y474D01*
X1846Y474D01*
X1846Y476D01*
X1848Y476D01*
X1848Y478D01*
X1850Y478D01*
X1850Y480D01*
X1852Y480D01*
X1852Y482D01*
X1856Y482D01*
X1856Y484D01*
X1858Y484D01*
X1858Y486D01*
X1862Y486D01*
X1862Y488D01*
X1866Y488D01*
X1866Y490D01*
X1874Y490D01*
X1874Y492D01*
X1808Y492D01*
G37*
D02*
G36*
X2004Y492D02*
X2004Y486D01*
X2008Y486D01*
X2008Y484D01*
X2012Y484D01*
X2012Y482D01*
X2014Y482D01*
X2014Y480D01*
X2016Y480D01*
X2016Y478D01*
X2018Y478D01*
X2018Y476D01*
X2020Y476D01*
X2020Y474D01*
X2022Y474D01*
X2022Y472D01*
X2024Y472D01*
X2024Y470D01*
X2044Y470D01*
X2044Y474D01*
X2046Y474D01*
X2046Y476D01*
X2048Y476D01*
X2048Y478D01*
X2050Y478D01*
X2050Y480D01*
X2052Y480D01*
X2052Y482D01*
X2056Y482D01*
X2056Y484D01*
X2058Y484D01*
X2058Y486D01*
X2062Y486D01*
X2062Y488D01*
X2066Y488D01*
X2066Y490D01*
X2074Y490D01*
X2074Y492D01*
X2004Y492D01*
G37*
D02*
G36*
X2092Y492D02*
X2092Y490D01*
X2100Y490D01*
X2100Y488D01*
X2104Y488D01*
X2104Y486D01*
X2108Y486D01*
X2108Y484D01*
X2112Y484D01*
X2112Y482D01*
X2114Y482D01*
X2114Y480D01*
X2116Y480D01*
X2116Y478D01*
X2118Y478D01*
X2118Y476D01*
X2120Y476D01*
X2120Y474D01*
X2122Y474D01*
X2122Y472D01*
X2124Y472D01*
X2124Y470D01*
X2144Y470D01*
X2144Y474D01*
X2146Y474D01*
X2146Y476D01*
X2148Y476D01*
X2148Y478D01*
X2150Y478D01*
X2150Y480D01*
X2152Y480D01*
X2152Y482D01*
X2156Y482D01*
X2156Y484D01*
X2158Y484D01*
X2158Y486D01*
X2162Y486D01*
X2162Y488D01*
X2166Y488D01*
X2166Y490D01*
X2174Y490D01*
X2174Y492D01*
X2092Y492D01*
G37*
D02*
G36*
X2192Y492D02*
X2192Y490D01*
X2200Y490D01*
X2200Y488D01*
X2204Y488D01*
X2204Y486D01*
X2208Y486D01*
X2208Y484D01*
X2212Y484D01*
X2212Y482D01*
X2214Y482D01*
X2214Y480D01*
X2216Y480D01*
X2216Y478D01*
X2218Y478D01*
X2218Y476D01*
X2220Y476D01*
X2220Y474D01*
X2222Y474D01*
X2222Y472D01*
X2224Y472D01*
X2224Y470D01*
X2244Y470D01*
X2244Y474D01*
X2246Y474D01*
X2246Y476D01*
X2248Y476D01*
X2248Y478D01*
X2250Y478D01*
X2250Y480D01*
X2252Y480D01*
X2252Y482D01*
X2256Y482D01*
X2256Y484D01*
X2258Y484D01*
X2258Y486D01*
X2262Y486D01*
X2262Y488D01*
X2266Y488D01*
X2266Y490D01*
X2274Y490D01*
X2274Y492D01*
X2192Y492D01*
G37*
D02*
G36*
X2292Y492D02*
X2292Y490D01*
X2300Y490D01*
X2300Y488D01*
X2304Y488D01*
X2304Y486D01*
X2308Y486D01*
X2308Y484D01*
X2312Y484D01*
X2312Y482D01*
X2314Y482D01*
X2314Y480D01*
X2316Y480D01*
X2316Y478D01*
X2318Y478D01*
X2318Y476D01*
X2320Y476D01*
X2320Y474D01*
X2322Y474D01*
X2322Y472D01*
X2324Y472D01*
X2324Y470D01*
X2344Y470D01*
X2344Y474D01*
X2346Y474D01*
X2346Y476D01*
X2348Y476D01*
X2348Y478D01*
X2350Y478D01*
X2350Y480D01*
X2352Y480D01*
X2352Y482D01*
X2356Y482D01*
X2356Y484D01*
X2358Y484D01*
X2358Y486D01*
X2362Y486D01*
X2362Y488D01*
X2366Y488D01*
X2366Y490D01*
X2374Y490D01*
X2374Y492D01*
X2292Y492D01*
G37*
D02*
G36*
X2392Y492D02*
X2392Y490D01*
X2400Y490D01*
X2400Y488D01*
X2404Y488D01*
X2404Y486D01*
X2408Y486D01*
X2408Y484D01*
X2412Y484D01*
X2412Y482D01*
X2414Y482D01*
X2414Y480D01*
X2416Y480D01*
X2416Y478D01*
X2418Y478D01*
X2418Y476D01*
X2420Y476D01*
X2420Y474D01*
X2422Y474D01*
X2422Y472D01*
X2424Y472D01*
X2424Y470D01*
X2444Y470D01*
X2444Y474D01*
X2446Y474D01*
X2446Y476D01*
X2448Y476D01*
X2448Y478D01*
X2450Y478D01*
X2450Y480D01*
X2452Y480D01*
X2452Y482D01*
X2456Y482D01*
X2456Y484D01*
X2458Y484D01*
X2458Y486D01*
X2462Y486D01*
X2462Y488D01*
X2466Y488D01*
X2466Y490D01*
X2474Y490D01*
X2474Y492D01*
X2392Y492D01*
G37*
D02*
G36*
X514Y924D02*
X514Y922D01*
X512Y922D01*
X512Y920D01*
X510Y920D01*
X510Y918D01*
X508Y918D01*
X508Y916D01*
X506Y916D01*
X506Y914D01*
X504Y914D01*
X504Y912D01*
X502Y912D01*
X502Y910D01*
X500Y910D01*
X500Y908D01*
X498Y908D01*
X498Y906D01*
X494Y906D01*
X494Y904D01*
X492Y904D01*
X492Y902D01*
X490Y902D01*
X490Y900D01*
X488Y900D01*
X488Y898D01*
X486Y898D01*
X486Y896D01*
X484Y896D01*
X484Y894D01*
X482Y894D01*
X482Y892D01*
X480Y892D01*
X480Y890D01*
X478Y890D01*
X478Y888D01*
X476Y888D01*
X476Y886D01*
X472Y886D01*
X472Y884D01*
X470Y884D01*
X470Y882D01*
X468Y882D01*
X468Y880D01*
X466Y880D01*
X466Y878D01*
X464Y878D01*
X464Y876D01*
X462Y876D01*
X462Y874D01*
X460Y874D01*
X460Y872D01*
X458Y872D01*
X458Y870D01*
X456Y870D01*
X456Y868D01*
X454Y868D01*
X454Y866D01*
X450Y866D01*
X450Y864D01*
X448Y864D01*
X448Y862D01*
X446Y862D01*
X446Y860D01*
X444Y860D01*
X444Y858D01*
X442Y858D01*
X442Y856D01*
X440Y856D01*
X440Y854D01*
X438Y854D01*
X438Y852D01*
X436Y852D01*
X436Y850D01*
X434Y850D01*
X434Y848D01*
X430Y848D01*
X430Y846D01*
X428Y846D01*
X428Y844D01*
X534Y844D01*
X534Y924D01*
X514Y924D01*
G37*
D02*
G36*
X722Y864D02*
X722Y860D01*
X720Y860D01*
X720Y858D01*
X718Y858D01*
X718Y856D01*
X716Y856D01*
X716Y854D01*
X712Y854D01*
X712Y852D01*
X710Y852D01*
X710Y850D01*
X706Y850D01*
X706Y848D01*
X702Y848D01*
X702Y846D01*
X696Y846D01*
X696Y844D01*
X770Y844D01*
X770Y846D01*
X764Y846D01*
X764Y848D01*
X760Y848D01*
X760Y850D01*
X756Y850D01*
X756Y852D01*
X754Y852D01*
X754Y854D01*
X752Y854D01*
X752Y856D01*
X750Y856D01*
X750Y858D01*
X748Y858D01*
X748Y860D01*
X746Y860D01*
X746Y862D01*
X744Y862D01*
X744Y864D01*
X722Y864D01*
G37*
D02*
G36*
X822Y864D02*
X822Y860D01*
X820Y860D01*
X820Y858D01*
X818Y858D01*
X818Y856D01*
X816Y856D01*
X816Y854D01*
X812Y854D01*
X812Y852D01*
X810Y852D01*
X810Y850D01*
X806Y850D01*
X806Y848D01*
X802Y848D01*
X802Y846D01*
X796Y846D01*
X796Y844D01*
X870Y844D01*
X870Y846D01*
X864Y846D01*
X864Y848D01*
X860Y848D01*
X860Y850D01*
X856Y850D01*
X856Y852D01*
X854Y852D01*
X854Y854D01*
X852Y854D01*
X852Y856D01*
X850Y856D01*
X850Y858D01*
X848Y858D01*
X848Y860D01*
X846Y860D01*
X846Y862D01*
X844Y862D01*
X844Y864D01*
X822Y864D01*
G37*
D02*
G36*
X922Y864D02*
X922Y860D01*
X920Y860D01*
X920Y858D01*
X918Y858D01*
X918Y856D01*
X916Y856D01*
X916Y854D01*
X912Y854D01*
X912Y852D01*
X910Y852D01*
X910Y850D01*
X906Y850D01*
X906Y848D01*
X902Y848D01*
X902Y846D01*
X896Y846D01*
X896Y844D01*
X970Y844D01*
X970Y846D01*
X964Y846D01*
X964Y848D01*
X960Y848D01*
X960Y850D01*
X956Y850D01*
X956Y852D01*
X954Y852D01*
X954Y854D01*
X952Y854D01*
X952Y856D01*
X950Y856D01*
X950Y858D01*
X948Y858D01*
X948Y860D01*
X946Y860D01*
X946Y862D01*
X944Y862D01*
X944Y864D01*
X922Y864D01*
G37*
D02*
G36*
X1022Y864D02*
X1022Y860D01*
X1020Y860D01*
X1020Y858D01*
X1018Y858D01*
X1018Y856D01*
X1016Y856D01*
X1016Y854D01*
X1012Y854D01*
X1012Y852D01*
X1010Y852D01*
X1010Y850D01*
X1006Y850D01*
X1006Y848D01*
X1002Y848D01*
X1002Y846D01*
X996Y846D01*
X996Y844D01*
X1064Y844D01*
X1064Y848D01*
X1060Y848D01*
X1060Y850D01*
X1056Y850D01*
X1056Y852D01*
X1054Y852D01*
X1054Y854D01*
X1052Y854D01*
X1052Y856D01*
X1050Y856D01*
X1050Y858D01*
X1048Y858D01*
X1048Y860D01*
X1046Y860D01*
X1046Y862D01*
X1044Y862D01*
X1044Y864D01*
X1022Y864D01*
G37*
D02*
G36*
X632Y856D02*
X632Y844D01*
X670Y844D01*
X670Y846D01*
X664Y846D01*
X664Y848D01*
X660Y848D01*
X660Y850D01*
X656Y850D01*
X656Y852D01*
X654Y852D01*
X654Y854D01*
X652Y854D01*
X652Y856D01*
X632Y856D01*
G37*
D02*
G36*
X426Y844D02*
X426Y842D01*
X1064Y842D01*
X1064Y844D01*
X426Y844D01*
G37*
D02*
G36*
X426Y844D02*
X426Y842D01*
X1064Y842D01*
X1064Y844D01*
X426Y844D01*
G37*
D02*
G36*
X426Y844D02*
X426Y842D01*
X1064Y842D01*
X1064Y844D01*
X426Y844D01*
G37*
D02*
G36*
X426Y844D02*
X426Y842D01*
X1064Y842D01*
X1064Y844D01*
X426Y844D01*
G37*
D02*
G36*
X426Y844D02*
X426Y842D01*
X1064Y842D01*
X1064Y844D01*
X426Y844D01*
G37*
D02*
G36*
X426Y844D02*
X426Y842D01*
X1064Y842D01*
X1064Y844D01*
X426Y844D01*
G37*
D02*
G36*
X424Y842D02*
X424Y840D01*
X422Y840D01*
X422Y838D01*
X420Y838D01*
X420Y836D01*
X418Y836D01*
X418Y834D01*
X416Y834D01*
X416Y832D01*
X414Y832D01*
X414Y830D01*
X412Y830D01*
X412Y828D01*
X408Y828D01*
X408Y826D01*
X406Y826D01*
X406Y824D01*
X404Y824D01*
X404Y822D01*
X402Y822D01*
X402Y820D01*
X400Y820D01*
X400Y818D01*
X398Y818D01*
X398Y816D01*
X396Y816D01*
X396Y814D01*
X394Y814D01*
X394Y812D01*
X392Y812D01*
X392Y810D01*
X390Y810D01*
X390Y808D01*
X386Y808D01*
X386Y806D01*
X384Y806D01*
X384Y804D01*
X382Y804D01*
X382Y802D01*
X380Y802D01*
X380Y800D01*
X378Y800D01*
X378Y798D01*
X376Y798D01*
X376Y796D01*
X374Y796D01*
X374Y794D01*
X372Y794D01*
X372Y792D01*
X370Y792D01*
X370Y790D01*
X368Y790D01*
X368Y788D01*
X364Y788D01*
X364Y786D01*
X362Y786D01*
X362Y784D01*
X360Y784D01*
X360Y782D01*
X358Y782D01*
X358Y780D01*
X356Y780D01*
X356Y778D01*
X354Y778D01*
X354Y776D01*
X352Y776D01*
X352Y774D01*
X350Y774D01*
X350Y772D01*
X348Y772D01*
X348Y770D01*
X344Y770D01*
X344Y768D01*
X342Y768D01*
X342Y766D01*
X340Y766D01*
X340Y764D01*
X338Y764D01*
X338Y762D01*
X336Y762D01*
X336Y760D01*
X334Y760D01*
X334Y758D01*
X332Y758D01*
X332Y756D01*
X330Y756D01*
X330Y754D01*
X328Y754D01*
X328Y752D01*
X326Y752D01*
X326Y750D01*
X322Y750D01*
X322Y748D01*
X320Y748D01*
X320Y746D01*
X318Y746D01*
X318Y744D01*
X316Y744D01*
X316Y742D01*
X314Y742D01*
X314Y740D01*
X312Y740D01*
X312Y738D01*
X310Y738D01*
X310Y736D01*
X308Y736D01*
X308Y734D01*
X306Y734D01*
X306Y732D01*
X304Y732D01*
X304Y730D01*
X300Y730D01*
X300Y728D01*
X298Y728D01*
X298Y726D01*
X296Y726D01*
X296Y724D01*
X294Y724D01*
X294Y722D01*
X292Y722D01*
X292Y720D01*
X290Y720D01*
X290Y718D01*
X288Y718D01*
X288Y716D01*
X286Y716D01*
X286Y714D01*
X284Y714D01*
X284Y712D01*
X280Y712D01*
X280Y396D01*
X282Y396D01*
X282Y394D01*
X394Y394D01*
X394Y392D01*
X402Y392D01*
X402Y390D01*
X406Y390D01*
X406Y388D01*
X410Y388D01*
X410Y386D01*
X414Y386D01*
X414Y384D01*
X416Y384D01*
X416Y382D01*
X418Y382D01*
X418Y380D01*
X420Y380D01*
X420Y378D01*
X422Y378D01*
X422Y376D01*
X424Y376D01*
X424Y374D01*
X992Y374D01*
X992Y372D01*
X998Y372D01*
X998Y370D01*
X1000Y370D01*
X1000Y368D01*
X1004Y368D01*
X1004Y366D01*
X1006Y366D01*
X1006Y364D01*
X1008Y364D01*
X1008Y360D01*
X1010Y360D01*
X1010Y358D01*
X1012Y358D01*
X1012Y354D01*
X1014Y354D01*
X1014Y332D01*
X1012Y332D01*
X1012Y328D01*
X1010Y328D01*
X1010Y324D01*
X1008Y324D01*
X1008Y322D01*
X1006Y322D01*
X1006Y320D01*
X1004Y320D01*
X1004Y318D01*
X1002Y318D01*
X1002Y316D01*
X998Y316D01*
X998Y314D01*
X994Y314D01*
X994Y312D01*
X984Y312D01*
X984Y310D01*
X1064Y310D01*
X1064Y842D01*
X424Y842D01*
G37*
D02*
G36*
X294Y394D02*
X294Y392D01*
X302Y392D01*
X302Y390D01*
X306Y390D01*
X306Y388D01*
X310Y388D01*
X310Y386D01*
X314Y386D01*
X314Y384D01*
X316Y384D01*
X316Y382D01*
X318Y382D01*
X318Y380D01*
X320Y380D01*
X320Y378D01*
X322Y378D01*
X322Y376D01*
X324Y376D01*
X324Y374D01*
X344Y374D01*
X344Y376D01*
X346Y376D01*
X346Y378D01*
X348Y378D01*
X348Y380D01*
X350Y380D01*
X350Y382D01*
X352Y382D01*
X352Y384D01*
X356Y384D01*
X356Y386D01*
X358Y386D01*
X358Y388D01*
X362Y388D01*
X362Y390D01*
X366Y390D01*
X366Y392D01*
X374Y392D01*
X374Y394D01*
X294Y394D01*
G37*
D02*
G36*
X426Y374D02*
X426Y370D01*
X428Y370D01*
X428Y366D01*
X430Y366D01*
X430Y364D01*
X562Y364D01*
X562Y362D01*
X960Y362D01*
X960Y364D01*
X962Y364D01*
X962Y366D01*
X964Y366D01*
X964Y368D01*
X966Y368D01*
X966Y370D01*
X970Y370D01*
X970Y372D01*
X976Y372D01*
X976Y374D01*
X426Y374D01*
G37*
D02*
G36*
X430Y324D02*
X430Y320D01*
X428Y320D01*
X428Y316D01*
X426Y316D01*
X426Y314D01*
X424Y314D01*
X424Y310D01*
X982Y310D01*
X982Y312D01*
X972Y312D01*
X972Y314D01*
X968Y314D01*
X968Y316D01*
X964Y316D01*
X964Y318D01*
X962Y318D01*
X962Y320D01*
X960Y320D01*
X960Y322D01*
X552Y322D01*
X552Y324D01*
X430Y324D01*
G37*
D02*
G36*
X422Y310D02*
X422Y308D01*
X1064Y308D01*
X1064Y310D01*
X422Y310D01*
G37*
D02*
G36*
X422Y310D02*
X422Y308D01*
X1064Y308D01*
X1064Y310D01*
X422Y310D01*
G37*
D02*
G36*
X420Y308D02*
X420Y306D01*
X418Y306D01*
X418Y304D01*
X416Y304D01*
X416Y282D01*
X418Y282D01*
X418Y280D01*
X420Y280D01*
X420Y278D01*
X422Y278D01*
X422Y276D01*
X424Y276D01*
X424Y274D01*
X426Y274D01*
X426Y270D01*
X428Y270D01*
X428Y266D01*
X430Y266D01*
X430Y264D01*
X432Y264D01*
X432Y258D01*
X434Y258D01*
X434Y248D01*
X436Y248D01*
X436Y246D01*
X442Y246D01*
X442Y244D01*
X450Y244D01*
X450Y242D01*
X456Y242D01*
X456Y240D01*
X462Y240D01*
X462Y238D01*
X1052Y238D01*
X1052Y240D01*
X1054Y240D01*
X1054Y242D01*
X1056Y242D01*
X1056Y244D01*
X1058Y244D01*
X1058Y246D01*
X1060Y246D01*
X1060Y248D01*
X1062Y248D01*
X1062Y250D01*
X1064Y250D01*
X1064Y308D01*
X420Y308D01*
G37*
D02*
G36*
X1104Y300D02*
X1104Y238D01*
X1166Y238D01*
X1166Y258D01*
X1164Y258D01*
X1164Y260D01*
X1162Y260D01*
X1162Y262D01*
X1160Y262D01*
X1160Y264D01*
X1158Y264D01*
X1158Y266D01*
X1156Y266D01*
X1156Y268D01*
X1154Y268D01*
X1154Y270D01*
X1152Y270D01*
X1152Y272D01*
X1150Y272D01*
X1150Y274D01*
X1148Y274D01*
X1148Y276D01*
X1146Y276D01*
X1146Y278D01*
X1144Y278D01*
X1144Y280D01*
X1142Y280D01*
X1142Y282D01*
X1140Y282D01*
X1140Y284D01*
X1138Y284D01*
X1138Y286D01*
X1136Y286D01*
X1136Y288D01*
X1134Y288D01*
X1134Y290D01*
X1132Y290D01*
X1132Y292D01*
X1130Y292D01*
X1130Y294D01*
X1128Y294D01*
X1128Y296D01*
X1126Y296D01*
X1126Y298D01*
X1124Y298D01*
X1124Y300D01*
X1104Y300D01*
G37*
D02*
G36*
X1550Y298D02*
X1550Y278D01*
X1552Y278D01*
X1552Y276D01*
X1554Y276D01*
X1554Y274D01*
X1556Y274D01*
X1556Y272D01*
X1558Y272D01*
X1558Y270D01*
X1560Y270D01*
X1560Y268D01*
X1562Y268D01*
X1562Y266D01*
X1564Y266D01*
X1564Y264D01*
X1566Y264D01*
X1566Y262D01*
X1568Y262D01*
X1568Y260D01*
X1570Y260D01*
X1570Y258D01*
X1572Y258D01*
X1572Y256D01*
X1574Y256D01*
X1574Y254D01*
X1576Y254D01*
X1576Y252D01*
X1578Y252D01*
X1578Y250D01*
X1580Y250D01*
X1580Y248D01*
X1582Y248D01*
X1582Y246D01*
X1584Y246D01*
X1584Y244D01*
X1586Y244D01*
X1586Y242D01*
X1588Y242D01*
X1588Y240D01*
X1590Y240D01*
X1590Y238D01*
X1592Y238D01*
X1592Y236D01*
X1594Y236D01*
X1594Y234D01*
X1596Y234D01*
X1596Y232D01*
X1598Y232D01*
X1598Y230D01*
X1600Y230D01*
X1600Y226D01*
X1602Y226D01*
X1602Y220D01*
X1604Y220D01*
X1604Y186D01*
X1608Y186D01*
X1608Y184D01*
X1612Y184D01*
X1612Y182D01*
X1614Y182D01*
X1614Y180D01*
X1616Y180D01*
X1616Y178D01*
X1618Y178D01*
X1618Y176D01*
X1620Y176D01*
X1620Y174D01*
X1622Y174D01*
X1622Y172D01*
X1624Y172D01*
X1624Y170D01*
X1644Y170D01*
X1644Y174D01*
X1646Y174D01*
X1646Y176D01*
X1648Y176D01*
X1648Y178D01*
X1650Y178D01*
X1650Y180D01*
X1652Y180D01*
X1652Y182D01*
X1656Y182D01*
X1656Y184D01*
X1658Y184D01*
X1658Y186D01*
X1662Y186D01*
X1662Y188D01*
X1664Y188D01*
X1664Y236D01*
X1662Y236D01*
X1662Y238D01*
X1660Y238D01*
X1660Y240D01*
X1658Y240D01*
X1658Y242D01*
X1656Y242D01*
X1656Y244D01*
X1654Y244D01*
X1654Y246D01*
X1652Y246D01*
X1652Y248D01*
X1650Y248D01*
X1650Y250D01*
X1648Y250D01*
X1648Y252D01*
X1646Y252D01*
X1646Y254D01*
X1644Y254D01*
X1644Y256D01*
X1642Y256D01*
X1642Y258D01*
X1640Y258D01*
X1640Y260D01*
X1638Y260D01*
X1638Y262D01*
X1636Y262D01*
X1636Y264D01*
X1634Y264D01*
X1634Y266D01*
X1632Y266D01*
X1632Y268D01*
X1630Y268D01*
X1630Y270D01*
X1628Y270D01*
X1628Y272D01*
X1626Y272D01*
X1626Y274D01*
X1624Y274D01*
X1624Y276D01*
X1622Y276D01*
X1622Y278D01*
X1620Y278D01*
X1620Y280D01*
X1618Y280D01*
X1618Y282D01*
X1616Y282D01*
X1616Y284D01*
X1614Y284D01*
X1614Y286D01*
X1612Y286D01*
X1612Y288D01*
X1610Y288D01*
X1610Y290D01*
X1608Y290D01*
X1608Y292D01*
X1606Y292D01*
X1606Y294D01*
X1604Y294D01*
X1604Y296D01*
X1602Y296D01*
X1602Y298D01*
X1550Y298D01*
G37*
D02*
G36*
X1404Y246D02*
X1404Y226D01*
X1406Y226D01*
X1406Y224D01*
X1408Y224D01*
X1408Y222D01*
X1410Y222D01*
X1410Y220D01*
X1412Y220D01*
X1412Y218D01*
X1414Y218D01*
X1414Y216D01*
X1416Y216D01*
X1416Y212D01*
X1418Y212D01*
X1418Y210D01*
X1420Y210D01*
X1420Y208D01*
X1422Y208D01*
X1422Y206D01*
X1426Y206D01*
X1426Y204D01*
X1428Y204D01*
X1428Y202D01*
X1432Y202D01*
X1432Y200D01*
X1434Y200D01*
X1434Y198D01*
X1438Y198D01*
X1438Y196D01*
X1440Y196D01*
X1440Y194D01*
X1444Y194D01*
X1444Y192D01*
X1492Y192D01*
X1492Y190D01*
X1500Y190D01*
X1500Y188D01*
X1504Y188D01*
X1504Y186D01*
X1508Y186D01*
X1508Y184D01*
X1512Y184D01*
X1512Y182D01*
X1514Y182D01*
X1514Y180D01*
X1516Y180D01*
X1516Y178D01*
X1518Y178D01*
X1518Y176D01*
X1520Y176D01*
X1520Y174D01*
X1522Y174D01*
X1522Y172D01*
X1524Y172D01*
X1524Y170D01*
X1544Y170D01*
X1544Y174D01*
X1546Y174D01*
X1546Y176D01*
X1548Y176D01*
X1548Y178D01*
X1550Y178D01*
X1550Y180D01*
X1552Y180D01*
X1552Y182D01*
X1556Y182D01*
X1556Y184D01*
X1558Y184D01*
X1558Y186D01*
X1562Y186D01*
X1562Y188D01*
X1564Y188D01*
X1564Y210D01*
X1562Y210D01*
X1562Y212D01*
X1560Y212D01*
X1560Y214D01*
X1558Y214D01*
X1558Y216D01*
X1556Y216D01*
X1556Y218D01*
X1554Y218D01*
X1554Y220D01*
X1552Y220D01*
X1552Y222D01*
X1550Y222D01*
X1550Y224D01*
X1548Y224D01*
X1548Y226D01*
X1546Y226D01*
X1546Y228D01*
X1544Y228D01*
X1544Y230D01*
X1540Y230D01*
X1540Y232D01*
X1538Y232D01*
X1538Y234D01*
X1536Y234D01*
X1536Y236D01*
X1534Y236D01*
X1534Y238D01*
X1532Y238D01*
X1532Y240D01*
X1530Y240D01*
X1530Y242D01*
X1528Y242D01*
X1528Y244D01*
X1526Y244D01*
X1526Y246D01*
X1404Y246D01*
G37*
D02*
G36*
X1446Y192D02*
X1446Y190D01*
X1474Y190D01*
X1474Y192D01*
X1446Y192D01*
G37*
D02*
G36*
X40Y1626D02*
X40Y1594D01*
X344Y1594D01*
X344Y1592D01*
X352Y1592D01*
X352Y1590D01*
X356Y1590D01*
X356Y1588D01*
X360Y1588D01*
X360Y1586D01*
X364Y1586D01*
X364Y1584D01*
X366Y1584D01*
X366Y1582D01*
X368Y1582D01*
X368Y1580D01*
X370Y1580D01*
X370Y1578D01*
X372Y1578D01*
X372Y1576D01*
X374Y1576D01*
X374Y1574D01*
X376Y1574D01*
X376Y1570D01*
X378Y1570D01*
X378Y1566D01*
X380Y1566D01*
X380Y1564D01*
X382Y1564D01*
X382Y1558D01*
X384Y1558D01*
X384Y1546D01*
X386Y1546D01*
X386Y1542D01*
X2492Y1542D01*
X2492Y1540D01*
X2500Y1540D01*
X2500Y1538D01*
X2504Y1538D01*
X2504Y1536D01*
X2508Y1536D01*
X2508Y1534D01*
X2512Y1534D01*
X2512Y1532D01*
X2514Y1532D01*
X2514Y1530D01*
X2516Y1530D01*
X2516Y1528D01*
X2518Y1528D01*
X2518Y1526D01*
X2520Y1526D01*
X2520Y1524D01*
X2522Y1524D01*
X2522Y1522D01*
X2524Y1522D01*
X2524Y1518D01*
X2526Y1518D01*
X2526Y1516D01*
X2528Y1516D01*
X2528Y1512D01*
X2530Y1512D01*
X2530Y1506D01*
X2532Y1506D01*
X2532Y1480D01*
X2530Y1480D01*
X2530Y1474D01*
X2528Y1474D01*
X2528Y1470D01*
X2526Y1470D01*
X2526Y1466D01*
X2524Y1466D01*
X2524Y1464D01*
X2522Y1464D01*
X2522Y1460D01*
X2520Y1460D01*
X2520Y1458D01*
X2518Y1458D01*
X2518Y1456D01*
X2516Y1456D01*
X2516Y1454D01*
X2512Y1454D01*
X2512Y1452D01*
X2510Y1452D01*
X2510Y1450D01*
X2506Y1450D01*
X2506Y1448D01*
X2502Y1448D01*
X2502Y1446D01*
X2496Y1446D01*
X2496Y1444D01*
X2732Y1444D01*
X2732Y1626D01*
X40Y1626D01*
G37*
D02*
G36*
X40Y1594D02*
X40Y1306D01*
X124Y1306D01*
X124Y1308D01*
X118Y1308D01*
X118Y1310D01*
X114Y1310D01*
X114Y1312D01*
X112Y1312D01*
X112Y1314D01*
X108Y1314D01*
X108Y1316D01*
X106Y1316D01*
X106Y1320D01*
X104Y1320D01*
X104Y1322D01*
X102Y1322D01*
X102Y1326D01*
X100Y1326D01*
X100Y1328D01*
X98Y1328D01*
X98Y1336D01*
X96Y1336D01*
X96Y1350D01*
X98Y1350D01*
X98Y1358D01*
X100Y1358D01*
X100Y1362D01*
X102Y1362D01*
X102Y1364D01*
X104Y1364D01*
X104Y1368D01*
X106Y1368D01*
X106Y1370D01*
X108Y1370D01*
X108Y1372D01*
X110Y1372D01*
X110Y1374D01*
X114Y1374D01*
X114Y1496D01*
X112Y1496D01*
X112Y1498D01*
X110Y1498D01*
X110Y1500D01*
X106Y1500D01*
X106Y1502D01*
X104Y1502D01*
X104Y1504D01*
X100Y1504D01*
X100Y1506D01*
X98Y1506D01*
X98Y1508D01*
X96Y1508D01*
X96Y1510D01*
X94Y1510D01*
X94Y1514D01*
X92Y1514D01*
X92Y1516D01*
X90Y1516D01*
X90Y1520D01*
X88Y1520D01*
X88Y1524D01*
X86Y1524D01*
X86Y1530D01*
X84Y1530D01*
X84Y1556D01*
X86Y1556D01*
X86Y1562D01*
X88Y1562D01*
X88Y1566D01*
X90Y1566D01*
X90Y1570D01*
X92Y1570D01*
X92Y1572D01*
X94Y1572D01*
X94Y1576D01*
X96Y1576D01*
X96Y1578D01*
X98Y1578D01*
X98Y1580D01*
X100Y1580D01*
X100Y1582D01*
X102Y1582D01*
X102Y1584D01*
X106Y1584D01*
X106Y1586D01*
X108Y1586D01*
X108Y1588D01*
X112Y1588D01*
X112Y1590D01*
X116Y1590D01*
X116Y1592D01*
X124Y1592D01*
X124Y1594D01*
X40Y1594D01*
G37*
D02*
G36*
X144Y1594D02*
X144Y1592D01*
X152Y1592D01*
X152Y1590D01*
X156Y1590D01*
X156Y1588D01*
X160Y1588D01*
X160Y1586D01*
X164Y1586D01*
X164Y1584D01*
X166Y1584D01*
X166Y1582D01*
X168Y1582D01*
X168Y1580D01*
X170Y1580D01*
X170Y1578D01*
X172Y1578D01*
X172Y1576D01*
X174Y1576D01*
X174Y1574D01*
X194Y1574D01*
X194Y1576D01*
X196Y1576D01*
X196Y1578D01*
X198Y1578D01*
X198Y1580D01*
X200Y1580D01*
X200Y1582D01*
X202Y1582D01*
X202Y1584D01*
X206Y1584D01*
X206Y1586D01*
X208Y1586D01*
X208Y1588D01*
X212Y1588D01*
X212Y1590D01*
X216Y1590D01*
X216Y1592D01*
X224Y1592D01*
X224Y1594D01*
X144Y1594D01*
G37*
D02*
G36*
X244Y1594D02*
X244Y1592D01*
X252Y1592D01*
X252Y1590D01*
X256Y1590D01*
X256Y1588D01*
X260Y1588D01*
X260Y1586D01*
X264Y1586D01*
X264Y1584D01*
X266Y1584D01*
X266Y1582D01*
X268Y1582D01*
X268Y1580D01*
X270Y1580D01*
X270Y1578D01*
X272Y1578D01*
X272Y1576D01*
X274Y1576D01*
X274Y1574D01*
X294Y1574D01*
X294Y1576D01*
X296Y1576D01*
X296Y1578D01*
X298Y1578D01*
X298Y1580D01*
X300Y1580D01*
X300Y1582D01*
X302Y1582D01*
X302Y1584D01*
X306Y1584D01*
X306Y1586D01*
X308Y1586D01*
X308Y1588D01*
X312Y1588D01*
X312Y1590D01*
X316Y1590D01*
X316Y1592D01*
X324Y1592D01*
X324Y1594D01*
X244Y1594D01*
G37*
D02*
G36*
X386Y1542D02*
X386Y1540D01*
X384Y1540D01*
X384Y1528D01*
X382Y1528D01*
X382Y1524D01*
X380Y1524D01*
X380Y1520D01*
X378Y1520D01*
X378Y1516D01*
X376Y1516D01*
X376Y1514D01*
X374Y1514D01*
X374Y1510D01*
X372Y1510D01*
X372Y1508D01*
X370Y1508D01*
X370Y1506D01*
X368Y1506D01*
X368Y1504D01*
X366Y1504D01*
X366Y1502D01*
X362Y1502D01*
X362Y1500D01*
X360Y1500D01*
X360Y1498D01*
X356Y1498D01*
X356Y1496D01*
X354Y1496D01*
X354Y1444D01*
X570Y1444D01*
X570Y1446D01*
X564Y1446D01*
X564Y1448D01*
X560Y1448D01*
X560Y1450D01*
X556Y1450D01*
X556Y1452D01*
X554Y1452D01*
X554Y1454D01*
X552Y1454D01*
X552Y1456D01*
X550Y1456D01*
X550Y1458D01*
X548Y1458D01*
X548Y1460D01*
X546Y1460D01*
X546Y1462D01*
X544Y1462D01*
X544Y1464D01*
X542Y1464D01*
X542Y1468D01*
X540Y1468D01*
X540Y1472D01*
X538Y1472D01*
X538Y1476D01*
X536Y1476D01*
X536Y1482D01*
X534Y1482D01*
X534Y1502D01*
X536Y1502D01*
X536Y1510D01*
X538Y1510D01*
X538Y1514D01*
X540Y1514D01*
X540Y1518D01*
X542Y1518D01*
X542Y1520D01*
X544Y1520D01*
X544Y1524D01*
X546Y1524D01*
X546Y1526D01*
X548Y1526D01*
X548Y1528D01*
X550Y1528D01*
X550Y1530D01*
X552Y1530D01*
X552Y1532D01*
X556Y1532D01*
X556Y1534D01*
X558Y1534D01*
X558Y1536D01*
X562Y1536D01*
X562Y1538D01*
X566Y1538D01*
X566Y1540D01*
X574Y1540D01*
X574Y1542D01*
X386Y1542D01*
G37*
D02*
G36*
X592Y1542D02*
X592Y1540D01*
X600Y1540D01*
X600Y1538D01*
X604Y1538D01*
X604Y1536D01*
X608Y1536D01*
X608Y1534D01*
X612Y1534D01*
X612Y1532D01*
X614Y1532D01*
X614Y1530D01*
X616Y1530D01*
X616Y1528D01*
X618Y1528D01*
X618Y1526D01*
X620Y1526D01*
X620Y1524D01*
X622Y1524D01*
X622Y1522D01*
X624Y1522D01*
X624Y1520D01*
X644Y1520D01*
X644Y1524D01*
X646Y1524D01*
X646Y1526D01*
X648Y1526D01*
X648Y1528D01*
X650Y1528D01*
X650Y1530D01*
X652Y1530D01*
X652Y1532D01*
X656Y1532D01*
X656Y1534D01*
X658Y1534D01*
X658Y1536D01*
X662Y1536D01*
X662Y1538D01*
X666Y1538D01*
X666Y1540D01*
X674Y1540D01*
X674Y1542D01*
X592Y1542D01*
G37*
D02*
G36*
X692Y1542D02*
X692Y1540D01*
X700Y1540D01*
X700Y1538D01*
X704Y1538D01*
X704Y1536D01*
X708Y1536D01*
X708Y1534D01*
X712Y1534D01*
X712Y1532D01*
X714Y1532D01*
X714Y1530D01*
X716Y1530D01*
X716Y1528D01*
X718Y1528D01*
X718Y1526D01*
X720Y1526D01*
X720Y1524D01*
X722Y1524D01*
X722Y1522D01*
X724Y1522D01*
X724Y1520D01*
X744Y1520D01*
X744Y1524D01*
X746Y1524D01*
X746Y1526D01*
X748Y1526D01*
X748Y1528D01*
X750Y1528D01*
X750Y1530D01*
X752Y1530D01*
X752Y1532D01*
X756Y1532D01*
X756Y1534D01*
X758Y1534D01*
X758Y1536D01*
X762Y1536D01*
X762Y1538D01*
X766Y1538D01*
X766Y1540D01*
X774Y1540D01*
X774Y1542D01*
X692Y1542D01*
G37*
D02*
G36*
X792Y1542D02*
X792Y1540D01*
X800Y1540D01*
X800Y1538D01*
X804Y1538D01*
X804Y1536D01*
X808Y1536D01*
X808Y1534D01*
X812Y1534D01*
X812Y1532D01*
X814Y1532D01*
X814Y1530D01*
X816Y1530D01*
X816Y1528D01*
X818Y1528D01*
X818Y1526D01*
X820Y1526D01*
X820Y1524D01*
X822Y1524D01*
X822Y1522D01*
X824Y1522D01*
X824Y1520D01*
X844Y1520D01*
X844Y1524D01*
X846Y1524D01*
X846Y1526D01*
X848Y1526D01*
X848Y1528D01*
X850Y1528D01*
X850Y1530D01*
X852Y1530D01*
X852Y1532D01*
X856Y1532D01*
X856Y1534D01*
X858Y1534D01*
X858Y1536D01*
X862Y1536D01*
X862Y1538D01*
X866Y1538D01*
X866Y1540D01*
X874Y1540D01*
X874Y1542D01*
X792Y1542D01*
G37*
D02*
G36*
X892Y1542D02*
X892Y1540D01*
X900Y1540D01*
X900Y1538D01*
X904Y1538D01*
X904Y1536D01*
X908Y1536D01*
X908Y1534D01*
X912Y1534D01*
X912Y1532D01*
X914Y1532D01*
X914Y1530D01*
X916Y1530D01*
X916Y1528D01*
X918Y1528D01*
X918Y1526D01*
X920Y1526D01*
X920Y1524D01*
X922Y1524D01*
X922Y1522D01*
X924Y1522D01*
X924Y1520D01*
X944Y1520D01*
X944Y1524D01*
X946Y1524D01*
X946Y1526D01*
X948Y1526D01*
X948Y1528D01*
X950Y1528D01*
X950Y1530D01*
X952Y1530D01*
X952Y1532D01*
X956Y1532D01*
X956Y1534D01*
X958Y1534D01*
X958Y1536D01*
X962Y1536D01*
X962Y1538D01*
X966Y1538D01*
X966Y1540D01*
X974Y1540D01*
X974Y1542D01*
X892Y1542D01*
G37*
D02*
G36*
X992Y1542D02*
X992Y1540D01*
X1000Y1540D01*
X1000Y1538D01*
X1004Y1538D01*
X1004Y1536D01*
X1008Y1536D01*
X1008Y1534D01*
X1012Y1534D01*
X1012Y1532D01*
X1014Y1532D01*
X1014Y1530D01*
X1016Y1530D01*
X1016Y1528D01*
X1018Y1528D01*
X1018Y1526D01*
X1020Y1526D01*
X1020Y1524D01*
X1022Y1524D01*
X1022Y1522D01*
X1024Y1522D01*
X1024Y1520D01*
X1044Y1520D01*
X1044Y1524D01*
X1046Y1524D01*
X1046Y1526D01*
X1048Y1526D01*
X1048Y1528D01*
X1050Y1528D01*
X1050Y1530D01*
X1052Y1530D01*
X1052Y1532D01*
X1056Y1532D01*
X1056Y1534D01*
X1058Y1534D01*
X1058Y1536D01*
X1062Y1536D01*
X1062Y1538D01*
X1066Y1538D01*
X1066Y1540D01*
X1074Y1540D01*
X1074Y1542D01*
X992Y1542D01*
G37*
D02*
G36*
X1092Y1542D02*
X1092Y1540D01*
X1100Y1540D01*
X1100Y1538D01*
X1104Y1538D01*
X1104Y1536D01*
X1108Y1536D01*
X1108Y1534D01*
X1112Y1534D01*
X1112Y1532D01*
X1114Y1532D01*
X1114Y1530D01*
X1116Y1530D01*
X1116Y1528D01*
X1118Y1528D01*
X1118Y1526D01*
X1120Y1526D01*
X1120Y1524D01*
X1122Y1524D01*
X1122Y1522D01*
X1124Y1522D01*
X1124Y1520D01*
X1144Y1520D01*
X1144Y1524D01*
X1146Y1524D01*
X1146Y1526D01*
X1148Y1526D01*
X1148Y1528D01*
X1150Y1528D01*
X1150Y1530D01*
X1152Y1530D01*
X1152Y1532D01*
X1156Y1532D01*
X1156Y1534D01*
X1158Y1534D01*
X1158Y1536D01*
X1162Y1536D01*
X1162Y1538D01*
X1166Y1538D01*
X1166Y1540D01*
X1174Y1540D01*
X1174Y1542D01*
X1092Y1542D01*
G37*
D02*
G36*
X1192Y1542D02*
X1192Y1540D01*
X1200Y1540D01*
X1200Y1538D01*
X1204Y1538D01*
X1204Y1536D01*
X1208Y1536D01*
X1208Y1534D01*
X1212Y1534D01*
X1212Y1532D01*
X1214Y1532D01*
X1214Y1530D01*
X1216Y1530D01*
X1216Y1528D01*
X1218Y1528D01*
X1218Y1526D01*
X1220Y1526D01*
X1220Y1524D01*
X1222Y1524D01*
X1222Y1522D01*
X1224Y1522D01*
X1224Y1520D01*
X1244Y1520D01*
X1244Y1524D01*
X1246Y1524D01*
X1246Y1526D01*
X1248Y1526D01*
X1248Y1528D01*
X1250Y1528D01*
X1250Y1530D01*
X1252Y1530D01*
X1252Y1532D01*
X1256Y1532D01*
X1256Y1534D01*
X1258Y1534D01*
X1258Y1536D01*
X1262Y1536D01*
X1262Y1538D01*
X1266Y1538D01*
X1266Y1540D01*
X1274Y1540D01*
X1274Y1542D01*
X1192Y1542D01*
G37*
D02*
G36*
X1292Y1542D02*
X1292Y1540D01*
X1300Y1540D01*
X1300Y1538D01*
X1304Y1538D01*
X1304Y1536D01*
X1308Y1536D01*
X1308Y1534D01*
X1312Y1534D01*
X1312Y1532D01*
X1314Y1532D01*
X1314Y1530D01*
X1316Y1530D01*
X1316Y1528D01*
X1318Y1528D01*
X1318Y1526D01*
X1320Y1526D01*
X1320Y1524D01*
X1322Y1524D01*
X1322Y1522D01*
X1324Y1522D01*
X1324Y1520D01*
X1344Y1520D01*
X1344Y1524D01*
X1346Y1524D01*
X1346Y1526D01*
X1348Y1526D01*
X1348Y1528D01*
X1350Y1528D01*
X1350Y1530D01*
X1352Y1530D01*
X1352Y1532D01*
X1356Y1532D01*
X1356Y1534D01*
X1358Y1534D01*
X1358Y1536D01*
X1362Y1536D01*
X1362Y1538D01*
X1366Y1538D01*
X1366Y1540D01*
X1374Y1540D01*
X1374Y1542D01*
X1292Y1542D01*
G37*
D02*
G36*
X1392Y1542D02*
X1392Y1540D01*
X1400Y1540D01*
X1400Y1538D01*
X1404Y1538D01*
X1404Y1536D01*
X1408Y1536D01*
X1408Y1534D01*
X1412Y1534D01*
X1412Y1532D01*
X1414Y1532D01*
X1414Y1530D01*
X1416Y1530D01*
X1416Y1528D01*
X1418Y1528D01*
X1418Y1526D01*
X1420Y1526D01*
X1420Y1524D01*
X1422Y1524D01*
X1422Y1522D01*
X1424Y1522D01*
X1424Y1520D01*
X1444Y1520D01*
X1444Y1524D01*
X1446Y1524D01*
X1446Y1526D01*
X1448Y1526D01*
X1448Y1528D01*
X1450Y1528D01*
X1450Y1530D01*
X1452Y1530D01*
X1452Y1532D01*
X1456Y1532D01*
X1456Y1534D01*
X1458Y1534D01*
X1458Y1536D01*
X1462Y1536D01*
X1462Y1538D01*
X1466Y1538D01*
X1466Y1540D01*
X1474Y1540D01*
X1474Y1542D01*
X1392Y1542D01*
G37*
D02*
G36*
X1492Y1542D02*
X1492Y1540D01*
X1500Y1540D01*
X1500Y1538D01*
X1504Y1538D01*
X1504Y1536D01*
X1508Y1536D01*
X1508Y1534D01*
X1512Y1534D01*
X1512Y1532D01*
X1514Y1532D01*
X1514Y1530D01*
X1516Y1530D01*
X1516Y1528D01*
X1518Y1528D01*
X1518Y1526D01*
X1520Y1526D01*
X1520Y1524D01*
X1522Y1524D01*
X1522Y1522D01*
X1524Y1522D01*
X1524Y1520D01*
X1544Y1520D01*
X1544Y1524D01*
X1546Y1524D01*
X1546Y1526D01*
X1548Y1526D01*
X1548Y1528D01*
X1550Y1528D01*
X1550Y1530D01*
X1552Y1530D01*
X1552Y1532D01*
X1556Y1532D01*
X1556Y1534D01*
X1558Y1534D01*
X1558Y1536D01*
X1562Y1536D01*
X1562Y1538D01*
X1566Y1538D01*
X1566Y1540D01*
X1574Y1540D01*
X1574Y1542D01*
X1492Y1542D01*
G37*
D02*
G36*
X1592Y1542D02*
X1592Y1540D01*
X1600Y1540D01*
X1600Y1538D01*
X1604Y1538D01*
X1604Y1536D01*
X1608Y1536D01*
X1608Y1534D01*
X1612Y1534D01*
X1612Y1532D01*
X1614Y1532D01*
X1614Y1530D01*
X1616Y1530D01*
X1616Y1528D01*
X1618Y1528D01*
X1618Y1526D01*
X1620Y1526D01*
X1620Y1524D01*
X1622Y1524D01*
X1622Y1522D01*
X1624Y1522D01*
X1624Y1520D01*
X1644Y1520D01*
X1644Y1524D01*
X1646Y1524D01*
X1646Y1526D01*
X1648Y1526D01*
X1648Y1528D01*
X1650Y1528D01*
X1650Y1530D01*
X1652Y1530D01*
X1652Y1532D01*
X1656Y1532D01*
X1656Y1534D01*
X1658Y1534D01*
X1658Y1536D01*
X1662Y1536D01*
X1662Y1538D01*
X1666Y1538D01*
X1666Y1540D01*
X1674Y1540D01*
X1674Y1542D01*
X1592Y1542D01*
G37*
D02*
G36*
X1692Y1542D02*
X1692Y1540D01*
X1700Y1540D01*
X1700Y1538D01*
X1704Y1538D01*
X1704Y1536D01*
X1708Y1536D01*
X1708Y1534D01*
X1712Y1534D01*
X1712Y1532D01*
X1714Y1532D01*
X1714Y1530D01*
X1716Y1530D01*
X1716Y1528D01*
X1718Y1528D01*
X1718Y1526D01*
X1720Y1526D01*
X1720Y1524D01*
X1722Y1524D01*
X1722Y1522D01*
X1724Y1522D01*
X1724Y1520D01*
X1744Y1520D01*
X1744Y1524D01*
X1746Y1524D01*
X1746Y1526D01*
X1748Y1526D01*
X1748Y1528D01*
X1750Y1528D01*
X1750Y1530D01*
X1752Y1530D01*
X1752Y1532D01*
X1756Y1532D01*
X1756Y1534D01*
X1758Y1534D01*
X1758Y1536D01*
X1762Y1536D01*
X1762Y1538D01*
X1766Y1538D01*
X1766Y1540D01*
X1774Y1540D01*
X1774Y1542D01*
X1692Y1542D01*
G37*
D02*
G36*
X1792Y1542D02*
X1792Y1540D01*
X1800Y1540D01*
X1800Y1538D01*
X1804Y1538D01*
X1804Y1536D01*
X1808Y1536D01*
X1808Y1534D01*
X1812Y1534D01*
X1812Y1532D01*
X1814Y1532D01*
X1814Y1530D01*
X1816Y1530D01*
X1816Y1528D01*
X1818Y1528D01*
X1818Y1526D01*
X1820Y1526D01*
X1820Y1524D01*
X1822Y1524D01*
X1822Y1522D01*
X1824Y1522D01*
X1824Y1520D01*
X1844Y1520D01*
X1844Y1524D01*
X1846Y1524D01*
X1846Y1526D01*
X1848Y1526D01*
X1848Y1528D01*
X1850Y1528D01*
X1850Y1530D01*
X1852Y1530D01*
X1852Y1532D01*
X1856Y1532D01*
X1856Y1534D01*
X1858Y1534D01*
X1858Y1536D01*
X1862Y1536D01*
X1862Y1538D01*
X1866Y1538D01*
X1866Y1540D01*
X1874Y1540D01*
X1874Y1542D01*
X1792Y1542D01*
G37*
D02*
G36*
X1892Y1542D02*
X1892Y1540D01*
X1900Y1540D01*
X1900Y1538D01*
X1904Y1538D01*
X1904Y1536D01*
X1908Y1536D01*
X1908Y1534D01*
X1912Y1534D01*
X1912Y1532D01*
X1914Y1532D01*
X1914Y1530D01*
X1916Y1530D01*
X1916Y1528D01*
X1918Y1528D01*
X1918Y1526D01*
X1920Y1526D01*
X1920Y1524D01*
X1922Y1524D01*
X1922Y1522D01*
X1924Y1522D01*
X1924Y1520D01*
X1944Y1520D01*
X1944Y1524D01*
X1946Y1524D01*
X1946Y1526D01*
X1948Y1526D01*
X1948Y1528D01*
X1950Y1528D01*
X1950Y1530D01*
X1952Y1530D01*
X1952Y1532D01*
X1956Y1532D01*
X1956Y1534D01*
X1958Y1534D01*
X1958Y1536D01*
X1962Y1536D01*
X1962Y1538D01*
X1966Y1538D01*
X1966Y1540D01*
X1974Y1540D01*
X1974Y1542D01*
X1892Y1542D01*
G37*
D02*
G36*
X1992Y1542D02*
X1992Y1540D01*
X2000Y1540D01*
X2000Y1538D01*
X2004Y1538D01*
X2004Y1536D01*
X2008Y1536D01*
X2008Y1534D01*
X2012Y1534D01*
X2012Y1532D01*
X2014Y1532D01*
X2014Y1530D01*
X2016Y1530D01*
X2016Y1528D01*
X2018Y1528D01*
X2018Y1526D01*
X2020Y1526D01*
X2020Y1524D01*
X2022Y1524D01*
X2022Y1522D01*
X2024Y1522D01*
X2024Y1520D01*
X2044Y1520D01*
X2044Y1524D01*
X2046Y1524D01*
X2046Y1526D01*
X2048Y1526D01*
X2048Y1528D01*
X2050Y1528D01*
X2050Y1530D01*
X2052Y1530D01*
X2052Y1532D01*
X2056Y1532D01*
X2056Y1534D01*
X2058Y1534D01*
X2058Y1536D01*
X2062Y1536D01*
X2062Y1538D01*
X2066Y1538D01*
X2066Y1540D01*
X2074Y1540D01*
X2074Y1542D01*
X1992Y1542D01*
G37*
D02*
G36*
X2092Y1542D02*
X2092Y1540D01*
X2100Y1540D01*
X2100Y1538D01*
X2104Y1538D01*
X2104Y1536D01*
X2108Y1536D01*
X2108Y1534D01*
X2112Y1534D01*
X2112Y1532D01*
X2114Y1532D01*
X2114Y1530D01*
X2116Y1530D01*
X2116Y1528D01*
X2118Y1528D01*
X2118Y1526D01*
X2120Y1526D01*
X2120Y1524D01*
X2122Y1524D01*
X2122Y1522D01*
X2124Y1522D01*
X2124Y1520D01*
X2144Y1520D01*
X2144Y1524D01*
X2146Y1524D01*
X2146Y1526D01*
X2148Y1526D01*
X2148Y1528D01*
X2150Y1528D01*
X2150Y1530D01*
X2152Y1530D01*
X2152Y1532D01*
X2156Y1532D01*
X2156Y1534D01*
X2158Y1534D01*
X2158Y1536D01*
X2162Y1536D01*
X2162Y1538D01*
X2166Y1538D01*
X2166Y1540D01*
X2174Y1540D01*
X2174Y1542D01*
X2092Y1542D01*
G37*
D02*
G36*
X2192Y1542D02*
X2192Y1540D01*
X2200Y1540D01*
X2200Y1538D01*
X2204Y1538D01*
X2204Y1536D01*
X2208Y1536D01*
X2208Y1534D01*
X2212Y1534D01*
X2212Y1532D01*
X2214Y1532D01*
X2214Y1530D01*
X2216Y1530D01*
X2216Y1528D01*
X2218Y1528D01*
X2218Y1526D01*
X2220Y1526D01*
X2220Y1524D01*
X2222Y1524D01*
X2222Y1522D01*
X2224Y1522D01*
X2224Y1520D01*
X2244Y1520D01*
X2244Y1524D01*
X2246Y1524D01*
X2246Y1526D01*
X2248Y1526D01*
X2248Y1528D01*
X2250Y1528D01*
X2250Y1530D01*
X2252Y1530D01*
X2252Y1532D01*
X2256Y1532D01*
X2256Y1534D01*
X2258Y1534D01*
X2258Y1536D01*
X2262Y1536D01*
X2262Y1538D01*
X2266Y1538D01*
X2266Y1540D01*
X2274Y1540D01*
X2274Y1542D01*
X2192Y1542D01*
G37*
D02*
G36*
X2292Y1542D02*
X2292Y1540D01*
X2300Y1540D01*
X2300Y1538D01*
X2304Y1538D01*
X2304Y1536D01*
X2308Y1536D01*
X2308Y1534D01*
X2312Y1534D01*
X2312Y1532D01*
X2314Y1532D01*
X2314Y1530D01*
X2316Y1530D01*
X2316Y1528D01*
X2318Y1528D01*
X2318Y1526D01*
X2320Y1526D01*
X2320Y1524D01*
X2322Y1524D01*
X2322Y1522D01*
X2324Y1522D01*
X2324Y1520D01*
X2344Y1520D01*
X2344Y1524D01*
X2346Y1524D01*
X2346Y1526D01*
X2348Y1526D01*
X2348Y1528D01*
X2350Y1528D01*
X2350Y1530D01*
X2352Y1530D01*
X2352Y1532D01*
X2356Y1532D01*
X2356Y1534D01*
X2358Y1534D01*
X2358Y1536D01*
X2362Y1536D01*
X2362Y1538D01*
X2366Y1538D01*
X2366Y1540D01*
X2374Y1540D01*
X2374Y1542D01*
X2292Y1542D01*
G37*
D02*
G36*
X2392Y1542D02*
X2392Y1540D01*
X2400Y1540D01*
X2400Y1538D01*
X2404Y1538D01*
X2404Y1536D01*
X2408Y1536D01*
X2408Y1534D01*
X2412Y1534D01*
X2412Y1532D01*
X2414Y1532D01*
X2414Y1530D01*
X2416Y1530D01*
X2416Y1528D01*
X2418Y1528D01*
X2418Y1526D01*
X2420Y1526D01*
X2420Y1524D01*
X2422Y1524D01*
X2422Y1522D01*
X2424Y1522D01*
X2424Y1520D01*
X2444Y1520D01*
X2444Y1524D01*
X2446Y1524D01*
X2446Y1526D01*
X2448Y1526D01*
X2448Y1528D01*
X2450Y1528D01*
X2450Y1530D01*
X2452Y1530D01*
X2452Y1532D01*
X2456Y1532D01*
X2456Y1534D01*
X2458Y1534D01*
X2458Y1536D01*
X2462Y1536D01*
X2462Y1538D01*
X2466Y1538D01*
X2466Y1540D01*
X2474Y1540D01*
X2474Y1542D01*
X2392Y1542D01*
G37*
D02*
G36*
X174Y1514D02*
X174Y1510D01*
X172Y1510D01*
X172Y1508D01*
X170Y1508D01*
X170Y1506D01*
X168Y1506D01*
X168Y1504D01*
X166Y1504D01*
X166Y1502D01*
X162Y1502D01*
X162Y1500D01*
X160Y1500D01*
X160Y1498D01*
X156Y1498D01*
X156Y1496D01*
X154Y1496D01*
X154Y1374D01*
X158Y1374D01*
X158Y1372D01*
X160Y1372D01*
X160Y1370D01*
X162Y1370D01*
X162Y1368D01*
X164Y1368D01*
X164Y1366D01*
X166Y1366D01*
X166Y1362D01*
X168Y1362D01*
X168Y1358D01*
X170Y1358D01*
X170Y1352D01*
X172Y1352D01*
X172Y1334D01*
X170Y1334D01*
X170Y1328D01*
X168Y1328D01*
X168Y1324D01*
X166Y1324D01*
X166Y1322D01*
X164Y1322D01*
X164Y1318D01*
X162Y1318D01*
X162Y1316D01*
X160Y1316D01*
X160Y1314D01*
X156Y1314D01*
X156Y1312D01*
X154Y1312D01*
X154Y1310D01*
X150Y1310D01*
X150Y1308D01*
X144Y1308D01*
X144Y1306D01*
X218Y1306D01*
X218Y1308D01*
X216Y1308D01*
X216Y1314D01*
X214Y1314D01*
X214Y1496D01*
X212Y1496D01*
X212Y1498D01*
X210Y1498D01*
X210Y1500D01*
X206Y1500D01*
X206Y1502D01*
X204Y1502D01*
X204Y1504D01*
X200Y1504D01*
X200Y1506D01*
X198Y1506D01*
X198Y1508D01*
X196Y1508D01*
X196Y1510D01*
X194Y1510D01*
X194Y1514D01*
X174Y1514D01*
G37*
D02*
G36*
X622Y1464D02*
X622Y1460D01*
X620Y1460D01*
X620Y1458D01*
X618Y1458D01*
X618Y1456D01*
X616Y1456D01*
X616Y1454D01*
X612Y1454D01*
X612Y1452D01*
X610Y1452D01*
X610Y1450D01*
X606Y1450D01*
X606Y1448D01*
X602Y1448D01*
X602Y1446D01*
X596Y1446D01*
X596Y1444D01*
X670Y1444D01*
X670Y1446D01*
X664Y1446D01*
X664Y1448D01*
X660Y1448D01*
X660Y1450D01*
X656Y1450D01*
X656Y1452D01*
X654Y1452D01*
X654Y1454D01*
X652Y1454D01*
X652Y1456D01*
X650Y1456D01*
X650Y1458D01*
X648Y1458D01*
X648Y1460D01*
X646Y1460D01*
X646Y1462D01*
X644Y1462D01*
X644Y1464D01*
X622Y1464D01*
G37*
D02*
G36*
X722Y1464D02*
X722Y1460D01*
X720Y1460D01*
X720Y1458D01*
X718Y1458D01*
X718Y1456D01*
X716Y1456D01*
X716Y1454D01*
X712Y1454D01*
X712Y1452D01*
X710Y1452D01*
X710Y1450D01*
X706Y1450D01*
X706Y1448D01*
X702Y1448D01*
X702Y1446D01*
X696Y1446D01*
X696Y1444D01*
X770Y1444D01*
X770Y1446D01*
X764Y1446D01*
X764Y1448D01*
X760Y1448D01*
X760Y1450D01*
X756Y1450D01*
X756Y1452D01*
X754Y1452D01*
X754Y1454D01*
X752Y1454D01*
X752Y1456D01*
X750Y1456D01*
X750Y1458D01*
X748Y1458D01*
X748Y1460D01*
X746Y1460D01*
X746Y1462D01*
X744Y1462D01*
X744Y1464D01*
X722Y1464D01*
G37*
D02*
G36*
X822Y1464D02*
X822Y1460D01*
X820Y1460D01*
X820Y1458D01*
X818Y1458D01*
X818Y1456D01*
X816Y1456D01*
X816Y1454D01*
X812Y1454D01*
X812Y1452D01*
X810Y1452D01*
X810Y1450D01*
X806Y1450D01*
X806Y1448D01*
X802Y1448D01*
X802Y1446D01*
X796Y1446D01*
X796Y1444D01*
X870Y1444D01*
X870Y1446D01*
X864Y1446D01*
X864Y1448D01*
X860Y1448D01*
X860Y1450D01*
X856Y1450D01*
X856Y1452D01*
X854Y1452D01*
X854Y1454D01*
X852Y1454D01*
X852Y1456D01*
X850Y1456D01*
X850Y1458D01*
X848Y1458D01*
X848Y1460D01*
X846Y1460D01*
X846Y1462D01*
X844Y1462D01*
X844Y1464D01*
X822Y1464D01*
G37*
D02*
G36*
X922Y1464D02*
X922Y1460D01*
X920Y1460D01*
X920Y1458D01*
X918Y1458D01*
X918Y1456D01*
X916Y1456D01*
X916Y1454D01*
X912Y1454D01*
X912Y1452D01*
X910Y1452D01*
X910Y1450D01*
X906Y1450D01*
X906Y1448D01*
X902Y1448D01*
X902Y1446D01*
X896Y1446D01*
X896Y1444D01*
X970Y1444D01*
X970Y1446D01*
X964Y1446D01*
X964Y1448D01*
X960Y1448D01*
X960Y1450D01*
X956Y1450D01*
X956Y1452D01*
X954Y1452D01*
X954Y1454D01*
X952Y1454D01*
X952Y1456D01*
X950Y1456D01*
X950Y1458D01*
X948Y1458D01*
X948Y1460D01*
X946Y1460D01*
X946Y1462D01*
X944Y1462D01*
X944Y1464D01*
X922Y1464D01*
G37*
D02*
G36*
X1022Y1464D02*
X1022Y1460D01*
X1020Y1460D01*
X1020Y1458D01*
X1018Y1458D01*
X1018Y1456D01*
X1016Y1456D01*
X1016Y1454D01*
X1012Y1454D01*
X1012Y1452D01*
X1010Y1452D01*
X1010Y1450D01*
X1006Y1450D01*
X1006Y1448D01*
X1002Y1448D01*
X1002Y1446D01*
X996Y1446D01*
X996Y1444D01*
X1070Y1444D01*
X1070Y1446D01*
X1064Y1446D01*
X1064Y1448D01*
X1060Y1448D01*
X1060Y1450D01*
X1056Y1450D01*
X1056Y1452D01*
X1054Y1452D01*
X1054Y1454D01*
X1052Y1454D01*
X1052Y1456D01*
X1050Y1456D01*
X1050Y1458D01*
X1048Y1458D01*
X1048Y1460D01*
X1046Y1460D01*
X1046Y1462D01*
X1044Y1462D01*
X1044Y1464D01*
X1022Y1464D01*
G37*
D02*
G36*
X1122Y1464D02*
X1122Y1460D01*
X1120Y1460D01*
X1120Y1458D01*
X1118Y1458D01*
X1118Y1456D01*
X1116Y1456D01*
X1116Y1454D01*
X1112Y1454D01*
X1112Y1452D01*
X1110Y1452D01*
X1110Y1450D01*
X1106Y1450D01*
X1106Y1448D01*
X1102Y1448D01*
X1102Y1446D01*
X1096Y1446D01*
X1096Y1444D01*
X1170Y1444D01*
X1170Y1446D01*
X1164Y1446D01*
X1164Y1448D01*
X1160Y1448D01*
X1160Y1450D01*
X1156Y1450D01*
X1156Y1452D01*
X1154Y1452D01*
X1154Y1454D01*
X1152Y1454D01*
X1152Y1456D01*
X1150Y1456D01*
X1150Y1458D01*
X1148Y1458D01*
X1148Y1460D01*
X1146Y1460D01*
X1146Y1462D01*
X1144Y1462D01*
X1144Y1464D01*
X1122Y1464D01*
G37*
D02*
G36*
X1222Y1464D02*
X1222Y1460D01*
X1220Y1460D01*
X1220Y1458D01*
X1218Y1458D01*
X1218Y1456D01*
X1216Y1456D01*
X1216Y1454D01*
X1212Y1454D01*
X1212Y1452D01*
X1210Y1452D01*
X1210Y1450D01*
X1206Y1450D01*
X1206Y1448D01*
X1202Y1448D01*
X1202Y1446D01*
X1196Y1446D01*
X1196Y1444D01*
X1270Y1444D01*
X1270Y1446D01*
X1264Y1446D01*
X1264Y1448D01*
X1260Y1448D01*
X1260Y1450D01*
X1256Y1450D01*
X1256Y1452D01*
X1254Y1452D01*
X1254Y1454D01*
X1252Y1454D01*
X1252Y1456D01*
X1250Y1456D01*
X1250Y1458D01*
X1248Y1458D01*
X1248Y1460D01*
X1246Y1460D01*
X1246Y1462D01*
X1244Y1462D01*
X1244Y1464D01*
X1222Y1464D01*
G37*
D02*
G36*
X1322Y1464D02*
X1322Y1460D01*
X1320Y1460D01*
X1320Y1458D01*
X1318Y1458D01*
X1318Y1456D01*
X1316Y1456D01*
X1316Y1454D01*
X1312Y1454D01*
X1312Y1452D01*
X1310Y1452D01*
X1310Y1450D01*
X1306Y1450D01*
X1306Y1448D01*
X1302Y1448D01*
X1302Y1446D01*
X1296Y1446D01*
X1296Y1444D01*
X1370Y1444D01*
X1370Y1446D01*
X1364Y1446D01*
X1364Y1448D01*
X1360Y1448D01*
X1360Y1450D01*
X1356Y1450D01*
X1356Y1452D01*
X1354Y1452D01*
X1354Y1454D01*
X1352Y1454D01*
X1352Y1456D01*
X1350Y1456D01*
X1350Y1458D01*
X1348Y1458D01*
X1348Y1460D01*
X1346Y1460D01*
X1346Y1462D01*
X1344Y1462D01*
X1344Y1464D01*
X1322Y1464D01*
G37*
D02*
G36*
X1422Y1464D02*
X1422Y1460D01*
X1420Y1460D01*
X1420Y1458D01*
X1418Y1458D01*
X1418Y1456D01*
X1416Y1456D01*
X1416Y1454D01*
X1412Y1454D01*
X1412Y1452D01*
X1410Y1452D01*
X1410Y1450D01*
X1406Y1450D01*
X1406Y1448D01*
X1402Y1448D01*
X1402Y1446D01*
X1396Y1446D01*
X1396Y1444D01*
X1470Y1444D01*
X1470Y1446D01*
X1464Y1446D01*
X1464Y1448D01*
X1460Y1448D01*
X1460Y1450D01*
X1456Y1450D01*
X1456Y1452D01*
X1454Y1452D01*
X1454Y1454D01*
X1452Y1454D01*
X1452Y1456D01*
X1450Y1456D01*
X1450Y1458D01*
X1448Y1458D01*
X1448Y1460D01*
X1446Y1460D01*
X1446Y1462D01*
X1444Y1462D01*
X1444Y1464D01*
X1422Y1464D01*
G37*
D02*
G36*
X1522Y1464D02*
X1522Y1460D01*
X1520Y1460D01*
X1520Y1458D01*
X1518Y1458D01*
X1518Y1456D01*
X1516Y1456D01*
X1516Y1454D01*
X1512Y1454D01*
X1512Y1452D01*
X1510Y1452D01*
X1510Y1450D01*
X1506Y1450D01*
X1506Y1448D01*
X1502Y1448D01*
X1502Y1446D01*
X1496Y1446D01*
X1496Y1444D01*
X1570Y1444D01*
X1570Y1446D01*
X1564Y1446D01*
X1564Y1448D01*
X1560Y1448D01*
X1560Y1450D01*
X1556Y1450D01*
X1556Y1452D01*
X1554Y1452D01*
X1554Y1454D01*
X1552Y1454D01*
X1552Y1456D01*
X1550Y1456D01*
X1550Y1458D01*
X1548Y1458D01*
X1548Y1460D01*
X1546Y1460D01*
X1546Y1462D01*
X1544Y1462D01*
X1544Y1464D01*
X1522Y1464D01*
G37*
D02*
G36*
X1622Y1464D02*
X1622Y1460D01*
X1620Y1460D01*
X1620Y1458D01*
X1618Y1458D01*
X1618Y1456D01*
X1616Y1456D01*
X1616Y1454D01*
X1612Y1454D01*
X1612Y1452D01*
X1610Y1452D01*
X1610Y1450D01*
X1606Y1450D01*
X1606Y1448D01*
X1602Y1448D01*
X1602Y1446D01*
X1596Y1446D01*
X1596Y1444D01*
X1670Y1444D01*
X1670Y1446D01*
X1664Y1446D01*
X1664Y1448D01*
X1660Y1448D01*
X1660Y1450D01*
X1656Y1450D01*
X1656Y1452D01*
X1654Y1452D01*
X1654Y1454D01*
X1652Y1454D01*
X1652Y1456D01*
X1650Y1456D01*
X1650Y1458D01*
X1648Y1458D01*
X1648Y1460D01*
X1646Y1460D01*
X1646Y1462D01*
X1644Y1462D01*
X1644Y1464D01*
X1622Y1464D01*
G37*
D02*
G36*
X1722Y1464D02*
X1722Y1460D01*
X1720Y1460D01*
X1720Y1458D01*
X1718Y1458D01*
X1718Y1456D01*
X1716Y1456D01*
X1716Y1454D01*
X1712Y1454D01*
X1712Y1452D01*
X1710Y1452D01*
X1710Y1450D01*
X1706Y1450D01*
X1706Y1448D01*
X1702Y1448D01*
X1702Y1446D01*
X1696Y1446D01*
X1696Y1444D01*
X1770Y1444D01*
X1770Y1446D01*
X1764Y1446D01*
X1764Y1448D01*
X1760Y1448D01*
X1760Y1450D01*
X1756Y1450D01*
X1756Y1452D01*
X1754Y1452D01*
X1754Y1454D01*
X1752Y1454D01*
X1752Y1456D01*
X1750Y1456D01*
X1750Y1458D01*
X1748Y1458D01*
X1748Y1460D01*
X1746Y1460D01*
X1746Y1462D01*
X1744Y1462D01*
X1744Y1464D01*
X1722Y1464D01*
G37*
D02*
G36*
X1822Y1464D02*
X1822Y1460D01*
X1820Y1460D01*
X1820Y1458D01*
X1818Y1458D01*
X1818Y1456D01*
X1816Y1456D01*
X1816Y1454D01*
X1812Y1454D01*
X1812Y1452D01*
X1810Y1452D01*
X1810Y1450D01*
X1806Y1450D01*
X1806Y1448D01*
X1802Y1448D01*
X1802Y1446D01*
X1796Y1446D01*
X1796Y1444D01*
X1870Y1444D01*
X1870Y1446D01*
X1864Y1446D01*
X1864Y1448D01*
X1860Y1448D01*
X1860Y1450D01*
X1856Y1450D01*
X1856Y1452D01*
X1854Y1452D01*
X1854Y1454D01*
X1852Y1454D01*
X1852Y1456D01*
X1850Y1456D01*
X1850Y1458D01*
X1848Y1458D01*
X1848Y1460D01*
X1846Y1460D01*
X1846Y1462D01*
X1844Y1462D01*
X1844Y1464D01*
X1822Y1464D01*
G37*
D02*
G36*
X1922Y1464D02*
X1922Y1460D01*
X1920Y1460D01*
X1920Y1458D01*
X1918Y1458D01*
X1918Y1456D01*
X1916Y1456D01*
X1916Y1454D01*
X1912Y1454D01*
X1912Y1452D01*
X1910Y1452D01*
X1910Y1450D01*
X1906Y1450D01*
X1906Y1448D01*
X1902Y1448D01*
X1902Y1446D01*
X1896Y1446D01*
X1896Y1444D01*
X1970Y1444D01*
X1970Y1446D01*
X1964Y1446D01*
X1964Y1448D01*
X1960Y1448D01*
X1960Y1450D01*
X1956Y1450D01*
X1956Y1452D01*
X1954Y1452D01*
X1954Y1454D01*
X1952Y1454D01*
X1952Y1456D01*
X1950Y1456D01*
X1950Y1458D01*
X1948Y1458D01*
X1948Y1460D01*
X1946Y1460D01*
X1946Y1462D01*
X1944Y1462D01*
X1944Y1464D01*
X1922Y1464D01*
G37*
D02*
G36*
X2022Y1464D02*
X2022Y1460D01*
X2020Y1460D01*
X2020Y1458D01*
X2018Y1458D01*
X2018Y1456D01*
X2016Y1456D01*
X2016Y1454D01*
X2012Y1454D01*
X2012Y1452D01*
X2010Y1452D01*
X2010Y1450D01*
X2006Y1450D01*
X2006Y1448D01*
X2002Y1448D01*
X2002Y1446D01*
X1996Y1446D01*
X1996Y1444D01*
X2070Y1444D01*
X2070Y1446D01*
X2064Y1446D01*
X2064Y1448D01*
X2060Y1448D01*
X2060Y1450D01*
X2056Y1450D01*
X2056Y1452D01*
X2054Y1452D01*
X2054Y1454D01*
X2052Y1454D01*
X2052Y1456D01*
X2050Y1456D01*
X2050Y1458D01*
X2048Y1458D01*
X2048Y1460D01*
X2046Y1460D01*
X2046Y1462D01*
X2044Y1462D01*
X2044Y1464D01*
X2022Y1464D01*
G37*
D02*
G36*
X2122Y1464D02*
X2122Y1460D01*
X2120Y1460D01*
X2120Y1458D01*
X2118Y1458D01*
X2118Y1456D01*
X2116Y1456D01*
X2116Y1454D01*
X2112Y1454D01*
X2112Y1452D01*
X2110Y1452D01*
X2110Y1450D01*
X2106Y1450D01*
X2106Y1448D01*
X2102Y1448D01*
X2102Y1446D01*
X2096Y1446D01*
X2096Y1444D01*
X2170Y1444D01*
X2170Y1446D01*
X2164Y1446D01*
X2164Y1448D01*
X2160Y1448D01*
X2160Y1450D01*
X2156Y1450D01*
X2156Y1452D01*
X2154Y1452D01*
X2154Y1454D01*
X2152Y1454D01*
X2152Y1456D01*
X2150Y1456D01*
X2150Y1458D01*
X2148Y1458D01*
X2148Y1460D01*
X2146Y1460D01*
X2146Y1462D01*
X2144Y1462D01*
X2144Y1464D01*
X2122Y1464D01*
G37*
D02*
G36*
X2222Y1464D02*
X2222Y1460D01*
X2220Y1460D01*
X2220Y1458D01*
X2218Y1458D01*
X2218Y1456D01*
X2216Y1456D01*
X2216Y1454D01*
X2212Y1454D01*
X2212Y1452D01*
X2210Y1452D01*
X2210Y1450D01*
X2206Y1450D01*
X2206Y1448D01*
X2202Y1448D01*
X2202Y1446D01*
X2196Y1446D01*
X2196Y1444D01*
X2270Y1444D01*
X2270Y1446D01*
X2264Y1446D01*
X2264Y1448D01*
X2260Y1448D01*
X2260Y1450D01*
X2256Y1450D01*
X2256Y1452D01*
X2254Y1452D01*
X2254Y1454D01*
X2252Y1454D01*
X2252Y1456D01*
X2250Y1456D01*
X2250Y1458D01*
X2248Y1458D01*
X2248Y1460D01*
X2246Y1460D01*
X2246Y1462D01*
X2244Y1462D01*
X2244Y1464D01*
X2222Y1464D01*
G37*
D02*
G36*
X2322Y1464D02*
X2322Y1460D01*
X2320Y1460D01*
X2320Y1458D01*
X2318Y1458D01*
X2318Y1456D01*
X2316Y1456D01*
X2316Y1454D01*
X2312Y1454D01*
X2312Y1452D01*
X2310Y1452D01*
X2310Y1450D01*
X2306Y1450D01*
X2306Y1448D01*
X2302Y1448D01*
X2302Y1446D01*
X2296Y1446D01*
X2296Y1444D01*
X2370Y1444D01*
X2370Y1446D01*
X2364Y1446D01*
X2364Y1448D01*
X2360Y1448D01*
X2360Y1450D01*
X2356Y1450D01*
X2356Y1452D01*
X2354Y1452D01*
X2354Y1454D01*
X2352Y1454D01*
X2352Y1456D01*
X2350Y1456D01*
X2350Y1458D01*
X2348Y1458D01*
X2348Y1460D01*
X2346Y1460D01*
X2346Y1462D01*
X2344Y1462D01*
X2344Y1464D01*
X2322Y1464D01*
G37*
D02*
G36*
X2422Y1464D02*
X2422Y1460D01*
X2420Y1460D01*
X2420Y1458D01*
X2418Y1458D01*
X2418Y1456D01*
X2416Y1456D01*
X2416Y1454D01*
X2412Y1454D01*
X2412Y1452D01*
X2410Y1452D01*
X2410Y1450D01*
X2406Y1450D01*
X2406Y1448D01*
X2402Y1448D01*
X2402Y1446D01*
X2396Y1446D01*
X2396Y1444D01*
X2470Y1444D01*
X2470Y1446D01*
X2464Y1446D01*
X2464Y1448D01*
X2460Y1448D01*
X2460Y1450D01*
X2456Y1450D01*
X2456Y1452D01*
X2454Y1452D01*
X2454Y1454D01*
X2452Y1454D01*
X2452Y1456D01*
X2450Y1456D01*
X2450Y1458D01*
X2448Y1458D01*
X2448Y1460D01*
X2446Y1460D01*
X2446Y1462D01*
X2444Y1462D01*
X2444Y1464D01*
X2422Y1464D01*
G37*
D02*
G36*
X354Y1444D02*
X354Y1442D01*
X2732Y1442D01*
X2732Y1444D01*
X354Y1444D01*
G37*
D02*
G36*
X354Y1444D02*
X354Y1442D01*
X2732Y1442D01*
X2732Y1444D01*
X354Y1444D01*
G37*
D02*
G36*
X354Y1444D02*
X354Y1442D01*
X2732Y1442D01*
X2732Y1444D01*
X354Y1444D01*
G37*
D02*
G36*
X354Y1444D02*
X354Y1442D01*
X2732Y1442D01*
X2732Y1444D01*
X354Y1444D01*
G37*
D02*
G36*
X354Y1444D02*
X354Y1442D01*
X2732Y1442D01*
X2732Y1444D01*
X354Y1444D01*
G37*
D02*
G36*
X354Y1444D02*
X354Y1442D01*
X2732Y1442D01*
X2732Y1444D01*
X354Y1444D01*
G37*
D02*
G36*
X354Y1444D02*
X354Y1442D01*
X2732Y1442D01*
X2732Y1444D01*
X354Y1444D01*
G37*
D02*
G36*
X354Y1444D02*
X354Y1442D01*
X2732Y1442D01*
X2732Y1444D01*
X354Y1444D01*
G37*
D02*
G36*
X354Y1444D02*
X354Y1442D01*
X2732Y1442D01*
X2732Y1444D01*
X354Y1444D01*
G37*
D02*
G36*
X354Y1444D02*
X354Y1442D01*
X2732Y1442D01*
X2732Y1444D01*
X354Y1444D01*
G37*
D02*
G36*
X354Y1444D02*
X354Y1442D01*
X2732Y1442D01*
X2732Y1444D01*
X354Y1444D01*
G37*
D02*
G36*
X354Y1444D02*
X354Y1442D01*
X2732Y1442D01*
X2732Y1444D01*
X354Y1444D01*
G37*
D02*
G36*
X354Y1444D02*
X354Y1442D01*
X2732Y1442D01*
X2732Y1444D01*
X354Y1444D01*
G37*
D02*
G36*
X354Y1444D02*
X354Y1442D01*
X2732Y1442D01*
X2732Y1444D01*
X354Y1444D01*
G37*
D02*
G36*
X354Y1444D02*
X354Y1442D01*
X2732Y1442D01*
X2732Y1444D01*
X354Y1444D01*
G37*
D02*
G36*
X354Y1444D02*
X354Y1442D01*
X2732Y1442D01*
X2732Y1444D01*
X354Y1444D01*
G37*
D02*
G36*
X354Y1444D02*
X354Y1442D01*
X2732Y1442D01*
X2732Y1444D01*
X354Y1444D01*
G37*
D02*
G36*
X354Y1444D02*
X354Y1442D01*
X2732Y1442D01*
X2732Y1444D01*
X354Y1444D01*
G37*
D02*
G36*
X354Y1444D02*
X354Y1442D01*
X2732Y1442D01*
X2732Y1444D01*
X354Y1444D01*
G37*
D02*
G36*
X354Y1444D02*
X354Y1442D01*
X2732Y1442D01*
X2732Y1444D01*
X354Y1444D01*
G37*
D02*
G36*
X354Y1444D02*
X354Y1442D01*
X2732Y1442D01*
X2732Y1444D01*
X354Y1444D01*
G37*
D02*
G36*
X354Y1442D02*
X354Y1374D01*
X358Y1374D01*
X358Y1372D01*
X360Y1372D01*
X360Y1370D01*
X362Y1370D01*
X362Y1368D01*
X364Y1368D01*
X364Y1366D01*
X366Y1366D01*
X366Y1362D01*
X368Y1362D01*
X368Y1358D01*
X370Y1358D01*
X370Y1352D01*
X372Y1352D01*
X372Y1334D01*
X370Y1334D01*
X370Y1328D01*
X368Y1328D01*
X368Y1324D01*
X366Y1324D01*
X366Y1322D01*
X364Y1322D01*
X364Y1318D01*
X362Y1318D01*
X362Y1316D01*
X360Y1316D01*
X360Y1314D01*
X356Y1314D01*
X356Y1312D01*
X354Y1312D01*
X354Y1310D01*
X350Y1310D01*
X350Y1308D01*
X344Y1308D01*
X344Y1300D01*
X1666Y1300D01*
X1666Y1298D01*
X1672Y1298D01*
X1672Y1296D01*
X1676Y1296D01*
X1676Y1294D01*
X1678Y1294D01*
X1678Y1292D01*
X1680Y1292D01*
X1680Y1290D01*
X1682Y1290D01*
X1682Y1288D01*
X1684Y1288D01*
X1684Y1286D01*
X1686Y1286D01*
X1686Y1282D01*
X1688Y1282D01*
X1688Y1278D01*
X1690Y1278D01*
X1690Y1260D01*
X1688Y1260D01*
X1688Y1254D01*
X1686Y1254D01*
X1686Y1250D01*
X1684Y1250D01*
X1684Y1248D01*
X1682Y1248D01*
X1682Y1246D01*
X1680Y1246D01*
X1680Y1244D01*
X1678Y1244D01*
X1678Y1242D01*
X1674Y1242D01*
X1674Y1240D01*
X1670Y1240D01*
X1670Y1238D01*
X1662Y1238D01*
X1662Y1236D01*
X1642Y1236D01*
X1642Y1216D01*
X1640Y1216D01*
X1640Y1208D01*
X1638Y1208D01*
X1638Y1204D01*
X1636Y1204D01*
X1636Y1200D01*
X1634Y1200D01*
X1634Y1198D01*
X1632Y1198D01*
X1632Y1196D01*
X1630Y1196D01*
X1630Y1194D01*
X1628Y1194D01*
X1628Y1192D01*
X1624Y1192D01*
X1624Y1190D01*
X1618Y1190D01*
X1618Y1188D01*
X2732Y1188D01*
X2732Y1442D01*
X354Y1442D01*
G37*
D02*
G36*
X40Y1306D02*
X40Y1304D01*
X220Y1304D01*
X220Y1306D01*
X40Y1306D01*
G37*
D02*
G36*
X40Y1306D02*
X40Y1304D01*
X220Y1304D01*
X220Y1306D01*
X40Y1306D01*
G37*
D02*
G36*
X40Y1304D02*
X40Y1192D01*
X136Y1192D01*
X136Y1190D01*
X146Y1190D01*
X146Y1188D01*
X152Y1188D01*
X152Y1186D01*
X154Y1186D01*
X154Y1184D01*
X158Y1184D01*
X158Y1182D01*
X160Y1182D01*
X160Y1180D01*
X162Y1180D01*
X162Y1178D01*
X164Y1178D01*
X164Y1176D01*
X166Y1176D01*
X166Y1172D01*
X168Y1172D01*
X168Y1168D01*
X170Y1168D01*
X170Y1162D01*
X172Y1162D01*
X172Y1144D01*
X170Y1144D01*
X170Y1138D01*
X168Y1138D01*
X168Y1134D01*
X166Y1134D01*
X166Y1132D01*
X164Y1132D01*
X164Y1128D01*
X162Y1128D01*
X162Y1126D01*
X160Y1126D01*
X160Y1124D01*
X156Y1124D01*
X156Y1122D01*
X154Y1122D01*
X154Y1014D01*
X158Y1014D01*
X158Y1012D01*
X162Y1012D01*
X162Y1010D01*
X164Y1010D01*
X164Y1008D01*
X166Y1008D01*
X166Y1006D01*
X170Y1006D01*
X170Y1004D01*
X172Y1004D01*
X172Y1000D01*
X174Y1000D01*
X174Y998D01*
X194Y998D01*
X194Y1000D01*
X196Y1000D01*
X196Y1002D01*
X198Y1002D01*
X198Y1004D01*
X200Y1004D01*
X200Y1006D01*
X202Y1006D01*
X202Y1008D01*
X204Y1008D01*
X204Y1010D01*
X206Y1010D01*
X206Y1012D01*
X210Y1012D01*
X210Y1014D01*
X214Y1014D01*
X214Y1170D01*
X216Y1170D01*
X216Y1176D01*
X218Y1176D01*
X218Y1180D01*
X220Y1180D01*
X220Y1182D01*
X222Y1182D01*
X222Y1184D01*
X224Y1184D01*
X224Y1186D01*
X226Y1186D01*
X226Y1188D01*
X228Y1188D01*
X228Y1190D01*
X230Y1190D01*
X230Y1192D01*
X232Y1192D01*
X232Y1196D01*
X234Y1196D01*
X234Y1198D01*
X236Y1198D01*
X236Y1200D01*
X238Y1200D01*
X238Y1202D01*
X240Y1202D01*
X240Y1204D01*
X242Y1204D01*
X242Y1206D01*
X244Y1206D01*
X244Y1208D01*
X246Y1208D01*
X246Y1210D01*
X248Y1210D01*
X248Y1212D01*
X250Y1212D01*
X250Y1214D01*
X252Y1214D01*
X252Y1216D01*
X254Y1216D01*
X254Y1218D01*
X256Y1218D01*
X256Y1220D01*
X258Y1220D01*
X258Y1222D01*
X260Y1222D01*
X260Y1224D01*
X262Y1224D01*
X262Y1226D01*
X264Y1226D01*
X264Y1228D01*
X266Y1228D01*
X266Y1230D01*
X268Y1230D01*
X268Y1232D01*
X270Y1232D01*
X270Y1234D01*
X272Y1234D01*
X272Y1254D01*
X268Y1254D01*
X268Y1256D01*
X266Y1256D01*
X266Y1258D01*
X264Y1258D01*
X264Y1260D01*
X262Y1260D01*
X262Y1262D01*
X260Y1262D01*
X260Y1264D01*
X258Y1264D01*
X258Y1266D01*
X256Y1266D01*
X256Y1268D01*
X254Y1268D01*
X254Y1270D01*
X252Y1270D01*
X252Y1272D01*
X250Y1272D01*
X250Y1274D01*
X248Y1274D01*
X248Y1276D01*
X246Y1276D01*
X246Y1278D01*
X244Y1278D01*
X244Y1280D01*
X242Y1280D01*
X242Y1282D01*
X240Y1282D01*
X240Y1284D01*
X238Y1284D01*
X238Y1286D01*
X236Y1286D01*
X236Y1288D01*
X234Y1288D01*
X234Y1290D01*
X232Y1290D01*
X232Y1292D01*
X230Y1292D01*
X230Y1294D01*
X228Y1294D01*
X228Y1296D01*
X226Y1296D01*
X226Y1298D01*
X224Y1298D01*
X224Y1300D01*
X222Y1300D01*
X222Y1302D01*
X220Y1302D01*
X220Y1304D01*
X40Y1304D01*
G37*
D02*
G36*
X344Y1300D02*
X344Y1288D01*
X1636Y1288D01*
X1636Y1292D01*
X1640Y1292D01*
X1640Y1294D01*
X1642Y1294D01*
X1642Y1296D01*
X1646Y1296D01*
X1646Y1298D01*
X1652Y1298D01*
X1652Y1300D01*
X344Y1300D01*
G37*
D02*
G36*
X360Y1200D02*
X360Y1188D01*
X1602Y1188D01*
X1602Y1190D01*
X1596Y1190D01*
X1596Y1192D01*
X1592Y1192D01*
X1592Y1194D01*
X1590Y1194D01*
X1590Y1196D01*
X1588Y1196D01*
X1588Y1198D01*
X1586Y1198D01*
X1586Y1200D01*
X360Y1200D01*
G37*
D02*
G36*
X40Y1192D02*
X40Y918D01*
X122Y918D01*
X122Y920D01*
X114Y920D01*
X114Y922D01*
X112Y922D01*
X112Y924D01*
X108Y924D01*
X108Y926D01*
X104Y926D01*
X104Y928D01*
X102Y928D01*
X102Y930D01*
X100Y930D01*
X100Y932D01*
X98Y932D01*
X98Y934D01*
X96Y934D01*
X96Y936D01*
X94Y936D01*
X94Y938D01*
X92Y938D01*
X92Y942D01*
X90Y942D01*
X90Y946D01*
X88Y946D01*
X88Y948D01*
X86Y948D01*
X86Y956D01*
X84Y956D01*
X84Y982D01*
X86Y982D01*
X86Y988D01*
X88Y988D01*
X88Y992D01*
X90Y992D01*
X90Y994D01*
X92Y994D01*
X92Y998D01*
X94Y998D01*
X94Y1000D01*
X96Y1000D01*
X96Y1002D01*
X98Y1002D01*
X98Y1004D01*
X100Y1004D01*
X100Y1006D01*
X102Y1006D01*
X102Y1008D01*
X104Y1008D01*
X104Y1010D01*
X106Y1010D01*
X106Y1012D01*
X110Y1012D01*
X110Y1014D01*
X114Y1014D01*
X114Y1122D01*
X112Y1122D01*
X112Y1124D01*
X108Y1124D01*
X108Y1126D01*
X106Y1126D01*
X106Y1130D01*
X104Y1130D01*
X104Y1132D01*
X102Y1132D01*
X102Y1136D01*
X100Y1136D01*
X100Y1138D01*
X98Y1138D01*
X98Y1146D01*
X96Y1146D01*
X96Y1160D01*
X98Y1160D01*
X98Y1168D01*
X100Y1168D01*
X100Y1172D01*
X102Y1172D01*
X102Y1174D01*
X104Y1174D01*
X104Y1178D01*
X106Y1178D01*
X106Y1180D01*
X108Y1180D01*
X108Y1182D01*
X110Y1182D01*
X110Y1184D01*
X114Y1184D01*
X114Y1186D01*
X118Y1186D01*
X118Y1188D01*
X122Y1188D01*
X122Y1190D01*
X132Y1190D01*
X132Y1192D01*
X40Y1192D01*
G37*
D02*
G36*
X360Y1188D02*
X360Y1186D01*
X2732Y1186D01*
X2732Y1188D01*
X360Y1188D01*
G37*
D02*
G36*
X360Y1188D02*
X360Y1186D01*
X2732Y1186D01*
X2732Y1188D01*
X360Y1188D01*
G37*
D02*
G36*
X360Y1186D02*
X360Y1180D01*
X362Y1180D01*
X362Y1178D01*
X364Y1178D01*
X364Y1176D01*
X366Y1176D01*
X366Y1172D01*
X368Y1172D01*
X368Y1168D01*
X370Y1168D01*
X370Y1162D01*
X372Y1162D01*
X372Y1144D01*
X370Y1144D01*
X370Y1138D01*
X368Y1138D01*
X368Y1134D01*
X366Y1134D01*
X366Y1132D01*
X364Y1132D01*
X364Y1128D01*
X362Y1128D01*
X362Y1126D01*
X360Y1126D01*
X360Y1124D01*
X358Y1124D01*
X358Y1038D01*
X2564Y1038D01*
X2564Y1036D01*
X2568Y1036D01*
X2568Y1034D01*
X2572Y1034D01*
X2572Y1032D01*
X2574Y1032D01*
X2574Y1030D01*
X2576Y1030D01*
X2576Y1028D01*
X2578Y1028D01*
X2578Y1026D01*
X2580Y1026D01*
X2580Y1024D01*
X2582Y1024D01*
X2582Y1022D01*
X2584Y1022D01*
X2584Y1020D01*
X2586Y1020D01*
X2586Y1016D01*
X2588Y1016D01*
X2588Y1014D01*
X2590Y1014D01*
X2590Y1012D01*
X2592Y1012D01*
X2592Y1010D01*
X2594Y1010D01*
X2594Y1008D01*
X2596Y1008D01*
X2596Y1006D01*
X2598Y1006D01*
X2598Y1004D01*
X2600Y1004D01*
X2600Y1000D01*
X2602Y1000D01*
X2602Y852D01*
X2604Y852D01*
X2604Y492D01*
X2632Y492D01*
X2632Y394D01*
X2732Y394D01*
X2732Y1186D01*
X360Y1186D01*
G37*
D02*
G36*
X358Y1038D02*
X358Y1012D01*
X362Y1012D01*
X362Y1010D01*
X364Y1010D01*
X364Y1008D01*
X366Y1008D01*
X366Y1006D01*
X370Y1006D01*
X370Y1004D01*
X372Y1004D01*
X372Y1000D01*
X374Y1000D01*
X374Y998D01*
X376Y998D01*
X376Y996D01*
X378Y996D01*
X378Y992D01*
X380Y992D01*
X380Y988D01*
X382Y988D01*
X382Y982D01*
X384Y982D01*
X384Y970D01*
X386Y970D01*
X386Y966D01*
X384Y966D01*
X384Y954D01*
X382Y954D01*
X382Y948D01*
X380Y948D01*
X380Y944D01*
X400Y944D01*
X400Y946D01*
X402Y946D01*
X402Y948D01*
X406Y948D01*
X406Y950D01*
X408Y950D01*
X408Y952D01*
X410Y952D01*
X410Y954D01*
X412Y954D01*
X412Y956D01*
X414Y956D01*
X414Y958D01*
X416Y958D01*
X416Y960D01*
X418Y960D01*
X418Y962D01*
X420Y962D01*
X420Y964D01*
X422Y964D01*
X422Y966D01*
X424Y966D01*
X424Y968D01*
X426Y968D01*
X426Y970D01*
X430Y970D01*
X430Y972D01*
X432Y972D01*
X432Y974D01*
X434Y974D01*
X434Y976D01*
X436Y976D01*
X436Y978D01*
X438Y978D01*
X438Y980D01*
X440Y980D01*
X440Y982D01*
X442Y982D01*
X442Y984D01*
X444Y984D01*
X444Y986D01*
X446Y986D01*
X446Y988D01*
X448Y988D01*
X448Y990D01*
X450Y990D01*
X450Y992D01*
X454Y992D01*
X454Y994D01*
X456Y994D01*
X456Y996D01*
X458Y996D01*
X458Y998D01*
X460Y998D01*
X460Y1000D01*
X462Y1000D01*
X462Y1002D01*
X464Y1002D01*
X464Y1004D01*
X466Y1004D01*
X466Y1006D01*
X468Y1006D01*
X468Y1008D01*
X470Y1008D01*
X470Y1010D01*
X472Y1010D01*
X472Y1012D01*
X474Y1012D01*
X474Y1014D01*
X476Y1014D01*
X476Y1016D01*
X480Y1016D01*
X480Y1018D01*
X482Y1018D01*
X482Y1020D01*
X484Y1020D01*
X484Y1022D01*
X486Y1022D01*
X486Y1024D01*
X488Y1024D01*
X488Y1026D01*
X490Y1026D01*
X490Y1028D01*
X492Y1028D01*
X492Y1030D01*
X494Y1030D01*
X494Y1032D01*
X496Y1032D01*
X496Y1034D01*
X500Y1034D01*
X500Y1036D01*
X504Y1036D01*
X504Y1038D01*
X358Y1038D01*
G37*
D02*
G36*
X1266Y1038D02*
X1266Y1036D01*
X1270Y1036D01*
X1270Y1034D01*
X1272Y1034D01*
X1272Y1032D01*
X1274Y1032D01*
X1274Y1030D01*
X1276Y1030D01*
X1276Y1028D01*
X1278Y1028D01*
X1278Y1026D01*
X1280Y1026D01*
X1280Y1024D01*
X1282Y1024D01*
X1282Y1022D01*
X1284Y1022D01*
X1284Y1020D01*
X1286Y1020D01*
X1286Y1018D01*
X1288Y1018D01*
X1288Y1016D01*
X1290Y1016D01*
X1290Y1014D01*
X1292Y1014D01*
X1292Y1012D01*
X1294Y1012D01*
X1294Y1010D01*
X1296Y1010D01*
X1296Y1008D01*
X1298Y1008D01*
X1298Y1006D01*
X1300Y1006D01*
X1300Y1004D01*
X1302Y1004D01*
X1302Y998D01*
X1304Y998D01*
X1304Y936D01*
X1308Y936D01*
X1308Y934D01*
X1312Y934D01*
X1312Y932D01*
X1314Y932D01*
X1314Y930D01*
X1316Y930D01*
X1316Y928D01*
X1318Y928D01*
X1318Y926D01*
X1320Y926D01*
X1320Y924D01*
X1322Y924D01*
X1322Y922D01*
X1324Y922D01*
X1324Y920D01*
X1344Y920D01*
X1344Y924D01*
X1346Y924D01*
X1346Y926D01*
X1348Y926D01*
X1348Y928D01*
X1350Y928D01*
X1350Y930D01*
X1352Y930D01*
X1352Y932D01*
X1356Y932D01*
X1356Y934D01*
X1358Y934D01*
X1358Y936D01*
X1362Y936D01*
X1362Y938D01*
X1364Y938D01*
X1364Y1000D01*
X1366Y1000D01*
X1366Y1004D01*
X1368Y1004D01*
X1368Y1006D01*
X1370Y1006D01*
X1370Y1008D01*
X1372Y1008D01*
X1372Y1010D01*
X1374Y1010D01*
X1374Y1012D01*
X1376Y1012D01*
X1376Y1014D01*
X1378Y1014D01*
X1378Y1016D01*
X1380Y1016D01*
X1380Y1018D01*
X1382Y1018D01*
X1382Y1020D01*
X1384Y1020D01*
X1384Y1022D01*
X1386Y1022D01*
X1386Y1024D01*
X1388Y1024D01*
X1388Y1026D01*
X1390Y1026D01*
X1390Y1028D01*
X1392Y1028D01*
X1392Y1030D01*
X1394Y1030D01*
X1394Y1032D01*
X1396Y1032D01*
X1396Y1034D01*
X1400Y1034D01*
X1400Y1036D01*
X1404Y1036D01*
X1404Y1038D01*
X1266Y1038D01*
G37*
D02*
G36*
X174Y938D02*
X174Y936D01*
X172Y936D01*
X172Y934D01*
X170Y934D01*
X170Y932D01*
X168Y932D01*
X168Y930D01*
X166Y930D01*
X166Y928D01*
X164Y928D01*
X164Y926D01*
X160Y926D01*
X160Y924D01*
X158Y924D01*
X158Y922D01*
X154Y922D01*
X154Y920D01*
X148Y920D01*
X148Y918D01*
X222Y918D01*
X222Y920D01*
X214Y920D01*
X214Y922D01*
X212Y922D01*
X212Y924D01*
X208Y924D01*
X208Y926D01*
X204Y926D01*
X204Y928D01*
X202Y928D01*
X202Y930D01*
X200Y930D01*
X200Y932D01*
X198Y932D01*
X198Y934D01*
X196Y934D01*
X196Y936D01*
X194Y936D01*
X194Y938D01*
X174Y938D01*
G37*
D02*
G36*
X274Y938D02*
X274Y936D01*
X272Y936D01*
X272Y934D01*
X270Y934D01*
X270Y932D01*
X268Y932D01*
X268Y930D01*
X266Y930D01*
X266Y928D01*
X264Y928D01*
X264Y926D01*
X260Y926D01*
X260Y924D01*
X258Y924D01*
X258Y922D01*
X254Y922D01*
X254Y920D01*
X248Y920D01*
X248Y918D01*
X322Y918D01*
X322Y920D01*
X314Y920D01*
X314Y922D01*
X312Y922D01*
X312Y924D01*
X308Y924D01*
X308Y926D01*
X304Y926D01*
X304Y928D01*
X302Y928D01*
X302Y930D01*
X300Y930D01*
X300Y932D01*
X298Y932D01*
X298Y934D01*
X296Y934D01*
X296Y936D01*
X294Y936D01*
X294Y938D01*
X274Y938D01*
G37*
D02*
G36*
X40Y918D02*
X40Y916D01*
X352Y916D01*
X352Y918D01*
X40Y918D01*
G37*
D02*
G36*
X40Y918D02*
X40Y916D01*
X352Y916D01*
X352Y918D01*
X40Y918D01*
G37*
D02*
G36*
X40Y918D02*
X40Y916D01*
X352Y916D01*
X352Y918D01*
X40Y918D01*
G37*
D02*
G36*
X40Y916D02*
X40Y40D01*
X278Y40D01*
X278Y72D01*
X276Y72D01*
X276Y74D01*
X274Y74D01*
X274Y76D01*
X272Y76D01*
X272Y78D01*
X270Y78D01*
X270Y82D01*
X268Y82D01*
X268Y84D01*
X266Y84D01*
X266Y88D01*
X264Y88D01*
X264Y96D01*
X262Y96D01*
X262Y98D01*
X260Y98D01*
X260Y100D01*
X256Y100D01*
X256Y102D01*
X254Y102D01*
X254Y104D01*
X250Y104D01*
X250Y106D01*
X248Y106D01*
X248Y108D01*
X246Y108D01*
X246Y110D01*
X244Y110D01*
X244Y114D01*
X242Y114D01*
X242Y116D01*
X240Y116D01*
X240Y120D01*
X238Y120D01*
X238Y124D01*
X236Y124D01*
X236Y130D01*
X234Y130D01*
X234Y156D01*
X236Y156D01*
X236Y162D01*
X238Y162D01*
X238Y166D01*
X240Y166D01*
X240Y170D01*
X242Y170D01*
X242Y172D01*
X244Y172D01*
X244Y176D01*
X246Y176D01*
X246Y178D01*
X248Y178D01*
X248Y180D01*
X250Y180D01*
X250Y182D01*
X252Y182D01*
X252Y184D01*
X254Y184D01*
X254Y204D01*
X250Y204D01*
X250Y206D01*
X248Y206D01*
X248Y208D01*
X246Y208D01*
X246Y210D01*
X244Y210D01*
X244Y214D01*
X242Y214D01*
X242Y216D01*
X240Y216D01*
X240Y220D01*
X238Y220D01*
X238Y222D01*
X234Y222D01*
X234Y224D01*
X226Y224D01*
X226Y226D01*
X222Y226D01*
X222Y228D01*
X218Y228D01*
X218Y230D01*
X214Y230D01*
X214Y232D01*
X210Y232D01*
X210Y234D01*
X206Y234D01*
X206Y236D01*
X202Y236D01*
X202Y238D01*
X198Y238D01*
X198Y240D01*
X194Y240D01*
X194Y242D01*
X188Y242D01*
X188Y244D01*
X184Y244D01*
X184Y246D01*
X180Y246D01*
X180Y248D01*
X176Y248D01*
X176Y250D01*
X172Y250D01*
X172Y252D01*
X170Y252D01*
X170Y254D01*
X168Y254D01*
X168Y258D01*
X166Y258D01*
X166Y262D01*
X164Y262D01*
X164Y724D01*
X166Y724D01*
X166Y730D01*
X168Y730D01*
X168Y732D01*
X170Y732D01*
X170Y734D01*
X172Y734D01*
X172Y736D01*
X174Y736D01*
X174Y738D01*
X176Y738D01*
X176Y740D01*
X178Y740D01*
X178Y742D01*
X180Y742D01*
X180Y744D01*
X182Y744D01*
X182Y746D01*
X186Y746D01*
X186Y748D01*
X188Y748D01*
X188Y750D01*
X190Y750D01*
X190Y752D01*
X192Y752D01*
X192Y754D01*
X194Y754D01*
X194Y756D01*
X196Y756D01*
X196Y758D01*
X198Y758D01*
X198Y760D01*
X200Y760D01*
X200Y762D01*
X202Y762D01*
X202Y764D01*
X204Y764D01*
X204Y766D01*
X206Y766D01*
X206Y768D01*
X210Y768D01*
X210Y770D01*
X212Y770D01*
X212Y772D01*
X214Y772D01*
X214Y774D01*
X216Y774D01*
X216Y776D01*
X218Y776D01*
X218Y778D01*
X220Y778D01*
X220Y780D01*
X222Y780D01*
X222Y782D01*
X224Y782D01*
X224Y784D01*
X226Y784D01*
X226Y786D01*
X228Y786D01*
X228Y788D01*
X230Y788D01*
X230Y790D01*
X234Y790D01*
X234Y792D01*
X236Y792D01*
X236Y794D01*
X238Y794D01*
X238Y796D01*
X240Y796D01*
X240Y798D01*
X242Y798D01*
X242Y800D01*
X244Y800D01*
X244Y802D01*
X246Y802D01*
X246Y804D01*
X248Y804D01*
X248Y806D01*
X250Y806D01*
X250Y808D01*
X252Y808D01*
X252Y810D01*
X254Y810D01*
X254Y812D01*
X256Y812D01*
X256Y814D01*
X260Y814D01*
X260Y816D01*
X262Y816D01*
X262Y818D01*
X264Y818D01*
X264Y820D01*
X266Y820D01*
X266Y822D01*
X268Y822D01*
X268Y824D01*
X270Y824D01*
X270Y826D01*
X272Y826D01*
X272Y828D01*
X274Y828D01*
X274Y830D01*
X276Y830D01*
X276Y832D01*
X278Y832D01*
X278Y834D01*
X280Y834D01*
X280Y836D01*
X284Y836D01*
X284Y838D01*
X286Y838D01*
X286Y840D01*
X288Y840D01*
X288Y842D01*
X290Y842D01*
X290Y844D01*
X292Y844D01*
X292Y846D01*
X294Y846D01*
X294Y848D01*
X296Y848D01*
X296Y850D01*
X298Y850D01*
X298Y852D01*
X300Y852D01*
X300Y854D01*
X302Y854D01*
X302Y856D01*
X304Y856D01*
X304Y858D01*
X308Y858D01*
X308Y860D01*
X310Y860D01*
X310Y862D01*
X312Y862D01*
X312Y864D01*
X314Y864D01*
X314Y866D01*
X316Y866D01*
X316Y868D01*
X318Y868D01*
X318Y870D01*
X320Y870D01*
X320Y872D01*
X322Y872D01*
X322Y874D01*
X324Y874D01*
X324Y876D01*
X326Y876D01*
X326Y878D01*
X328Y878D01*
X328Y880D01*
X332Y880D01*
X332Y882D01*
X334Y882D01*
X334Y884D01*
X336Y884D01*
X336Y886D01*
X338Y886D01*
X338Y888D01*
X340Y888D01*
X340Y890D01*
X342Y890D01*
X342Y892D01*
X344Y892D01*
X344Y894D01*
X346Y894D01*
X346Y896D01*
X348Y896D01*
X348Y898D01*
X350Y898D01*
X350Y900D01*
X352Y900D01*
X352Y916D01*
X40Y916D01*
G37*
D02*
G36*
X1322Y414D02*
X1322Y410D01*
X1320Y410D01*
X1320Y408D01*
X1318Y408D01*
X1318Y406D01*
X1316Y406D01*
X1316Y404D01*
X1312Y404D01*
X1312Y402D01*
X1310Y402D01*
X1310Y400D01*
X1306Y400D01*
X1306Y398D01*
X1302Y398D01*
X1302Y396D01*
X1296Y396D01*
X1296Y394D01*
X1370Y394D01*
X1370Y396D01*
X1364Y396D01*
X1364Y398D01*
X1360Y398D01*
X1360Y400D01*
X1356Y400D01*
X1356Y402D01*
X1354Y402D01*
X1354Y404D01*
X1352Y404D01*
X1352Y406D01*
X1350Y406D01*
X1350Y408D01*
X1348Y408D01*
X1348Y410D01*
X1346Y410D01*
X1346Y412D01*
X1344Y412D01*
X1344Y414D01*
X1322Y414D01*
G37*
D02*
G36*
X1422Y414D02*
X1422Y410D01*
X1420Y410D01*
X1420Y408D01*
X1418Y408D01*
X1418Y406D01*
X1416Y406D01*
X1416Y404D01*
X1412Y404D01*
X1412Y402D01*
X1410Y402D01*
X1410Y400D01*
X1406Y400D01*
X1406Y398D01*
X1402Y398D01*
X1402Y396D01*
X1396Y396D01*
X1396Y394D01*
X1470Y394D01*
X1470Y396D01*
X1464Y396D01*
X1464Y398D01*
X1460Y398D01*
X1460Y400D01*
X1456Y400D01*
X1456Y402D01*
X1454Y402D01*
X1454Y404D01*
X1452Y404D01*
X1452Y406D01*
X1450Y406D01*
X1450Y408D01*
X1448Y408D01*
X1448Y410D01*
X1446Y410D01*
X1446Y412D01*
X1444Y412D01*
X1444Y414D01*
X1422Y414D01*
G37*
D02*
G36*
X1522Y414D02*
X1522Y410D01*
X1520Y410D01*
X1520Y408D01*
X1518Y408D01*
X1518Y406D01*
X1516Y406D01*
X1516Y404D01*
X1512Y404D01*
X1512Y402D01*
X1510Y402D01*
X1510Y400D01*
X1506Y400D01*
X1506Y398D01*
X1502Y398D01*
X1502Y396D01*
X1496Y396D01*
X1496Y394D01*
X1570Y394D01*
X1570Y396D01*
X1564Y396D01*
X1564Y398D01*
X1560Y398D01*
X1560Y400D01*
X1556Y400D01*
X1556Y402D01*
X1554Y402D01*
X1554Y404D01*
X1552Y404D01*
X1552Y406D01*
X1550Y406D01*
X1550Y408D01*
X1548Y408D01*
X1548Y410D01*
X1546Y410D01*
X1546Y412D01*
X1544Y412D01*
X1544Y414D01*
X1522Y414D01*
G37*
D02*
G36*
X1622Y414D02*
X1622Y410D01*
X1620Y410D01*
X1620Y408D01*
X1618Y408D01*
X1618Y406D01*
X1616Y406D01*
X1616Y404D01*
X1612Y404D01*
X1612Y402D01*
X1610Y402D01*
X1610Y400D01*
X1606Y400D01*
X1606Y398D01*
X1602Y398D01*
X1602Y396D01*
X1596Y396D01*
X1596Y394D01*
X1670Y394D01*
X1670Y396D01*
X1664Y396D01*
X1664Y398D01*
X1660Y398D01*
X1660Y400D01*
X1656Y400D01*
X1656Y402D01*
X1654Y402D01*
X1654Y404D01*
X1652Y404D01*
X1652Y406D01*
X1650Y406D01*
X1650Y408D01*
X1648Y408D01*
X1648Y410D01*
X1646Y410D01*
X1646Y412D01*
X1644Y412D01*
X1644Y414D01*
X1622Y414D01*
G37*
D02*
G36*
X1722Y414D02*
X1722Y410D01*
X1720Y410D01*
X1720Y408D01*
X1718Y408D01*
X1718Y406D01*
X1716Y406D01*
X1716Y404D01*
X1712Y404D01*
X1712Y402D01*
X1710Y402D01*
X1710Y400D01*
X1706Y400D01*
X1706Y398D01*
X1702Y398D01*
X1702Y396D01*
X1696Y396D01*
X1696Y394D01*
X1770Y394D01*
X1770Y396D01*
X1764Y396D01*
X1764Y398D01*
X1760Y398D01*
X1760Y400D01*
X1756Y400D01*
X1756Y402D01*
X1754Y402D01*
X1754Y404D01*
X1752Y404D01*
X1752Y406D01*
X1750Y406D01*
X1750Y408D01*
X1748Y408D01*
X1748Y410D01*
X1746Y410D01*
X1746Y412D01*
X1744Y412D01*
X1744Y414D01*
X1722Y414D01*
G37*
D02*
G36*
X1822Y414D02*
X1822Y410D01*
X1820Y410D01*
X1820Y408D01*
X1818Y408D01*
X1818Y406D01*
X1816Y406D01*
X1816Y404D01*
X1812Y404D01*
X1812Y402D01*
X1810Y402D01*
X1810Y400D01*
X1806Y400D01*
X1806Y398D01*
X1802Y398D01*
X1802Y396D01*
X1796Y396D01*
X1796Y394D01*
X1870Y394D01*
X1870Y396D01*
X1864Y396D01*
X1864Y398D01*
X1860Y398D01*
X1860Y400D01*
X1856Y400D01*
X1856Y402D01*
X1854Y402D01*
X1854Y404D01*
X1852Y404D01*
X1852Y406D01*
X1850Y406D01*
X1850Y408D01*
X1848Y408D01*
X1848Y410D01*
X1846Y410D01*
X1846Y412D01*
X1844Y412D01*
X1844Y414D01*
X1822Y414D01*
G37*
D02*
G36*
X1922Y414D02*
X1922Y410D01*
X1920Y410D01*
X1920Y408D01*
X1918Y408D01*
X1918Y406D01*
X1916Y406D01*
X1916Y404D01*
X1912Y404D01*
X1912Y402D01*
X1910Y402D01*
X1910Y400D01*
X1906Y400D01*
X1906Y398D01*
X1902Y398D01*
X1902Y396D01*
X1896Y396D01*
X1896Y394D01*
X1970Y394D01*
X1970Y396D01*
X1964Y396D01*
X1964Y398D01*
X1960Y398D01*
X1960Y400D01*
X1956Y400D01*
X1956Y402D01*
X1954Y402D01*
X1954Y404D01*
X1952Y404D01*
X1952Y406D01*
X1950Y406D01*
X1950Y408D01*
X1948Y408D01*
X1948Y410D01*
X1946Y410D01*
X1946Y412D01*
X1944Y412D01*
X1944Y414D01*
X1922Y414D01*
G37*
D02*
G36*
X2022Y414D02*
X2022Y410D01*
X2020Y410D01*
X2020Y408D01*
X2018Y408D01*
X2018Y406D01*
X2016Y406D01*
X2016Y404D01*
X2012Y404D01*
X2012Y402D01*
X2010Y402D01*
X2010Y400D01*
X2006Y400D01*
X2006Y398D01*
X2002Y398D01*
X2002Y396D01*
X1996Y396D01*
X1996Y394D01*
X2070Y394D01*
X2070Y396D01*
X2064Y396D01*
X2064Y398D01*
X2060Y398D01*
X2060Y400D01*
X2056Y400D01*
X2056Y402D01*
X2054Y402D01*
X2054Y404D01*
X2052Y404D01*
X2052Y406D01*
X2050Y406D01*
X2050Y408D01*
X2048Y408D01*
X2048Y410D01*
X2046Y410D01*
X2046Y412D01*
X2044Y412D01*
X2044Y414D01*
X2022Y414D01*
G37*
D02*
G36*
X2122Y414D02*
X2122Y410D01*
X2120Y410D01*
X2120Y408D01*
X2118Y408D01*
X2118Y406D01*
X2116Y406D01*
X2116Y404D01*
X2112Y404D01*
X2112Y402D01*
X2110Y402D01*
X2110Y400D01*
X2106Y400D01*
X2106Y398D01*
X2102Y398D01*
X2102Y396D01*
X2096Y396D01*
X2096Y394D01*
X2170Y394D01*
X2170Y396D01*
X2164Y396D01*
X2164Y398D01*
X2160Y398D01*
X2160Y400D01*
X2156Y400D01*
X2156Y402D01*
X2154Y402D01*
X2154Y404D01*
X2152Y404D01*
X2152Y406D01*
X2150Y406D01*
X2150Y408D01*
X2148Y408D01*
X2148Y410D01*
X2146Y410D01*
X2146Y412D01*
X2144Y412D01*
X2144Y414D01*
X2122Y414D01*
G37*
D02*
G36*
X2222Y414D02*
X2222Y410D01*
X2220Y410D01*
X2220Y408D01*
X2218Y408D01*
X2218Y406D01*
X2216Y406D01*
X2216Y404D01*
X2212Y404D01*
X2212Y402D01*
X2210Y402D01*
X2210Y400D01*
X2206Y400D01*
X2206Y398D01*
X2202Y398D01*
X2202Y396D01*
X2196Y396D01*
X2196Y394D01*
X2270Y394D01*
X2270Y396D01*
X2264Y396D01*
X2264Y398D01*
X2260Y398D01*
X2260Y400D01*
X2256Y400D01*
X2256Y402D01*
X2254Y402D01*
X2254Y404D01*
X2252Y404D01*
X2252Y406D01*
X2250Y406D01*
X2250Y408D01*
X2248Y408D01*
X2248Y410D01*
X2246Y410D01*
X2246Y412D01*
X2244Y412D01*
X2244Y414D01*
X2222Y414D01*
G37*
D02*
G36*
X2322Y414D02*
X2322Y410D01*
X2320Y410D01*
X2320Y408D01*
X2318Y408D01*
X2318Y406D01*
X2316Y406D01*
X2316Y404D01*
X2312Y404D01*
X2312Y402D01*
X2310Y402D01*
X2310Y400D01*
X2306Y400D01*
X2306Y398D01*
X2302Y398D01*
X2302Y396D01*
X2296Y396D01*
X2296Y394D01*
X2370Y394D01*
X2370Y396D01*
X2364Y396D01*
X2364Y398D01*
X2360Y398D01*
X2360Y400D01*
X2356Y400D01*
X2356Y402D01*
X2354Y402D01*
X2354Y404D01*
X2352Y404D01*
X2352Y406D01*
X2350Y406D01*
X2350Y408D01*
X2348Y408D01*
X2348Y410D01*
X2346Y410D01*
X2346Y412D01*
X2344Y412D01*
X2344Y414D01*
X2322Y414D01*
G37*
D02*
G36*
X2422Y414D02*
X2422Y410D01*
X2420Y410D01*
X2420Y408D01*
X2418Y408D01*
X2418Y406D01*
X2416Y406D01*
X2416Y404D01*
X2412Y404D01*
X2412Y402D01*
X2410Y402D01*
X2410Y400D01*
X2406Y400D01*
X2406Y398D01*
X2402Y398D01*
X2402Y396D01*
X2396Y396D01*
X2396Y394D01*
X2470Y394D01*
X2470Y396D01*
X2464Y396D01*
X2464Y398D01*
X2460Y398D01*
X2460Y400D01*
X2456Y400D01*
X2456Y402D01*
X2454Y402D01*
X2454Y404D01*
X2452Y404D01*
X2452Y406D01*
X2450Y406D01*
X2450Y408D01*
X2448Y408D01*
X2448Y410D01*
X2446Y410D01*
X2446Y412D01*
X2444Y412D01*
X2444Y414D01*
X2422Y414D01*
G37*
D02*
G36*
X1228Y410D02*
X1228Y394D01*
X1270Y394D01*
X1270Y396D01*
X1264Y396D01*
X1264Y398D01*
X1260Y398D01*
X1260Y400D01*
X1256Y400D01*
X1256Y402D01*
X1254Y402D01*
X1254Y404D01*
X1252Y404D01*
X1252Y406D01*
X1250Y406D01*
X1250Y408D01*
X1248Y408D01*
X1248Y410D01*
X1228Y410D01*
G37*
D02*
G36*
X2512Y404D02*
X2512Y402D01*
X2510Y402D01*
X2510Y400D01*
X2506Y400D01*
X2506Y398D01*
X2502Y398D01*
X2502Y396D01*
X2496Y396D01*
X2496Y394D01*
X2534Y394D01*
X2534Y404D01*
X2512Y404D01*
G37*
D02*
G36*
X1228Y394D02*
X1228Y392D01*
X2732Y392D01*
X2732Y394D01*
X1228Y394D01*
G37*
D02*
G36*
X1228Y394D02*
X1228Y392D01*
X2732Y392D01*
X2732Y394D01*
X1228Y394D01*
G37*
D02*
G36*
X1228Y394D02*
X1228Y392D01*
X2732Y392D01*
X2732Y394D01*
X1228Y394D01*
G37*
D02*
G36*
X1228Y394D02*
X1228Y392D01*
X2732Y392D01*
X2732Y394D01*
X1228Y394D01*
G37*
D02*
G36*
X1228Y394D02*
X1228Y392D01*
X2732Y392D01*
X2732Y394D01*
X1228Y394D01*
G37*
D02*
G36*
X1228Y394D02*
X1228Y392D01*
X2732Y392D01*
X2732Y394D01*
X1228Y394D01*
G37*
D02*
G36*
X1228Y394D02*
X1228Y392D01*
X2732Y392D01*
X2732Y394D01*
X1228Y394D01*
G37*
D02*
G36*
X1228Y394D02*
X1228Y392D01*
X2732Y392D01*
X2732Y394D01*
X1228Y394D01*
G37*
D02*
G36*
X1228Y394D02*
X1228Y392D01*
X2732Y392D01*
X2732Y394D01*
X1228Y394D01*
G37*
D02*
G36*
X1228Y394D02*
X1228Y392D01*
X2732Y392D01*
X2732Y394D01*
X1228Y394D01*
G37*
D02*
G36*
X1228Y394D02*
X1228Y392D01*
X2732Y392D01*
X2732Y394D01*
X1228Y394D01*
G37*
D02*
G36*
X1228Y394D02*
X1228Y392D01*
X2732Y392D01*
X2732Y394D01*
X1228Y394D01*
G37*
D02*
G36*
X1228Y394D02*
X1228Y392D01*
X2732Y392D01*
X2732Y394D01*
X1228Y394D01*
G37*
D02*
G36*
X1228Y394D02*
X1228Y392D01*
X2732Y392D01*
X2732Y394D01*
X1228Y394D01*
G37*
D02*
G36*
X1228Y394D02*
X1228Y392D01*
X2732Y392D01*
X2732Y394D01*
X1228Y394D01*
G37*
D02*
G36*
X1228Y392D02*
X1228Y374D01*
X1892Y374D01*
X1892Y372D01*
X1898Y372D01*
X1898Y370D01*
X1900Y370D01*
X1900Y368D01*
X1904Y368D01*
X1904Y366D01*
X1906Y366D01*
X1906Y364D01*
X1908Y364D01*
X1908Y360D01*
X1910Y360D01*
X1910Y358D01*
X1912Y358D01*
X1912Y354D01*
X1914Y354D01*
X1914Y332D01*
X1912Y332D01*
X1912Y328D01*
X1910Y328D01*
X1910Y324D01*
X1908Y324D01*
X1908Y322D01*
X1906Y322D01*
X1906Y320D01*
X1904Y320D01*
X1904Y318D01*
X1902Y318D01*
X1902Y316D01*
X1898Y316D01*
X1898Y314D01*
X1894Y314D01*
X1894Y312D01*
X1884Y312D01*
X1884Y310D01*
X2732Y310D01*
X2732Y392D01*
X1228Y392D01*
G37*
D02*
G36*
X1228Y374D02*
X1228Y350D01*
X1230Y350D01*
X1230Y348D01*
X1232Y348D01*
X1232Y346D01*
X1234Y346D01*
X1234Y344D01*
X1236Y344D01*
X1236Y342D01*
X1238Y342D01*
X1238Y340D01*
X1240Y340D01*
X1240Y338D01*
X1614Y338D01*
X1614Y336D01*
X1618Y336D01*
X1618Y334D01*
X1622Y334D01*
X1622Y332D01*
X1624Y332D01*
X1624Y330D01*
X1626Y330D01*
X1626Y328D01*
X1628Y328D01*
X1628Y326D01*
X1630Y326D01*
X1630Y324D01*
X1632Y324D01*
X1632Y322D01*
X1634Y322D01*
X1634Y320D01*
X1636Y320D01*
X1636Y318D01*
X1638Y318D01*
X1638Y316D01*
X1640Y316D01*
X1640Y314D01*
X1642Y314D01*
X1642Y312D01*
X1644Y312D01*
X1644Y310D01*
X1882Y310D01*
X1882Y312D01*
X1872Y312D01*
X1872Y314D01*
X1868Y314D01*
X1868Y316D01*
X1864Y316D01*
X1864Y318D01*
X1862Y318D01*
X1862Y320D01*
X1860Y320D01*
X1860Y322D01*
X1858Y322D01*
X1858Y326D01*
X1856Y326D01*
X1856Y328D01*
X1854Y328D01*
X1854Y334D01*
X1852Y334D01*
X1852Y352D01*
X1854Y352D01*
X1854Y356D01*
X1856Y356D01*
X1856Y360D01*
X1858Y360D01*
X1858Y362D01*
X1860Y362D01*
X1860Y364D01*
X1862Y364D01*
X1862Y366D01*
X1864Y366D01*
X1864Y368D01*
X1866Y368D01*
X1866Y370D01*
X1870Y370D01*
X1870Y372D01*
X1876Y372D01*
X1876Y374D01*
X1228Y374D01*
G37*
D02*
G36*
X1646Y310D02*
X1646Y308D01*
X2732Y308D01*
X2732Y310D01*
X1646Y310D01*
G37*
D02*
G36*
X1646Y310D02*
X1646Y308D01*
X2732Y308D01*
X2732Y310D01*
X1646Y310D01*
G37*
D02*
G36*
X1648Y308D02*
X1648Y306D01*
X1650Y306D01*
X1650Y304D01*
X1652Y304D01*
X1652Y302D01*
X1654Y302D01*
X1654Y300D01*
X1656Y300D01*
X1656Y298D01*
X1658Y298D01*
X1658Y296D01*
X1660Y296D01*
X1660Y294D01*
X1662Y294D01*
X1662Y292D01*
X1664Y292D01*
X1664Y290D01*
X1666Y290D01*
X1666Y288D01*
X1668Y288D01*
X1668Y286D01*
X1670Y286D01*
X1670Y284D01*
X1672Y284D01*
X1672Y282D01*
X1674Y282D01*
X1674Y280D01*
X1676Y280D01*
X1676Y278D01*
X1678Y278D01*
X1678Y276D01*
X1680Y276D01*
X1680Y274D01*
X1682Y274D01*
X1682Y272D01*
X1684Y272D01*
X1684Y270D01*
X1686Y270D01*
X1686Y268D01*
X1688Y268D01*
X1688Y266D01*
X1690Y266D01*
X1690Y264D01*
X1692Y264D01*
X1692Y262D01*
X1694Y262D01*
X1694Y260D01*
X1696Y260D01*
X1696Y258D01*
X1698Y258D01*
X1698Y256D01*
X1700Y256D01*
X1700Y254D01*
X1702Y254D01*
X1702Y248D01*
X1704Y248D01*
X1704Y192D01*
X2592Y192D01*
X2592Y190D01*
X2600Y190D01*
X2600Y188D01*
X2604Y188D01*
X2604Y186D01*
X2608Y186D01*
X2608Y184D01*
X2612Y184D01*
X2612Y182D01*
X2614Y182D01*
X2614Y180D01*
X2616Y180D01*
X2616Y178D01*
X2618Y178D01*
X2618Y176D01*
X2620Y176D01*
X2620Y174D01*
X2622Y174D01*
X2622Y172D01*
X2624Y172D01*
X2624Y168D01*
X2626Y168D01*
X2626Y166D01*
X2628Y166D01*
X2628Y162D01*
X2630Y162D01*
X2630Y156D01*
X2632Y156D01*
X2632Y130D01*
X2630Y130D01*
X2630Y124D01*
X2628Y124D01*
X2628Y120D01*
X2626Y120D01*
X2626Y116D01*
X2624Y116D01*
X2624Y114D01*
X2622Y114D01*
X2622Y110D01*
X2620Y110D01*
X2620Y108D01*
X2618Y108D01*
X2618Y106D01*
X2616Y106D01*
X2616Y104D01*
X2612Y104D01*
X2612Y102D01*
X2610Y102D01*
X2610Y100D01*
X2606Y100D01*
X2606Y98D01*
X2602Y98D01*
X2602Y96D01*
X2596Y96D01*
X2596Y94D01*
X2732Y94D01*
X2732Y308D01*
X1648Y308D01*
G37*
D02*
G36*
X416Y204D02*
X416Y182D01*
X418Y182D01*
X418Y180D01*
X420Y180D01*
X420Y178D01*
X422Y178D01*
X422Y176D01*
X424Y176D01*
X424Y174D01*
X692Y174D01*
X692Y172D01*
X698Y172D01*
X698Y170D01*
X700Y170D01*
X700Y168D01*
X704Y168D01*
X704Y166D01*
X706Y166D01*
X706Y164D01*
X708Y164D01*
X708Y160D01*
X710Y160D01*
X710Y158D01*
X712Y158D01*
X712Y154D01*
X714Y154D01*
X714Y132D01*
X712Y132D01*
X712Y128D01*
X710Y128D01*
X710Y124D01*
X708Y124D01*
X708Y122D01*
X706Y122D01*
X706Y120D01*
X704Y120D01*
X704Y118D01*
X702Y118D01*
X702Y116D01*
X698Y116D01*
X698Y114D01*
X694Y114D01*
X694Y112D01*
X684Y112D01*
X684Y110D01*
X1246Y110D01*
X1246Y112D01*
X1244Y112D01*
X1244Y114D01*
X1242Y114D01*
X1242Y118D01*
X1240Y118D01*
X1240Y122D01*
X1238Y122D01*
X1238Y126D01*
X1236Y126D01*
X1236Y132D01*
X1234Y132D01*
X1234Y152D01*
X1236Y152D01*
X1236Y160D01*
X1238Y160D01*
X1238Y164D01*
X1240Y164D01*
X1240Y168D01*
X1242Y168D01*
X1242Y170D01*
X1244Y170D01*
X1244Y174D01*
X1246Y174D01*
X1246Y176D01*
X1248Y176D01*
X1248Y178D01*
X1250Y178D01*
X1250Y198D01*
X456Y198D01*
X456Y200D01*
X448Y200D01*
X448Y202D01*
X442Y202D01*
X442Y204D01*
X416Y204D01*
G37*
D02*
G36*
X1704Y192D02*
X1704Y186D01*
X1708Y186D01*
X1708Y184D01*
X1712Y184D01*
X1712Y182D01*
X1714Y182D01*
X1714Y180D01*
X1716Y180D01*
X1716Y178D01*
X1718Y178D01*
X1718Y176D01*
X1720Y176D01*
X1720Y174D01*
X1722Y174D01*
X1722Y172D01*
X1724Y172D01*
X1724Y170D01*
X1744Y170D01*
X1744Y174D01*
X1746Y174D01*
X1746Y176D01*
X1748Y176D01*
X1748Y178D01*
X1750Y178D01*
X1750Y180D01*
X1752Y180D01*
X1752Y182D01*
X1756Y182D01*
X1756Y184D01*
X1758Y184D01*
X1758Y186D01*
X1762Y186D01*
X1762Y188D01*
X1766Y188D01*
X1766Y190D01*
X1774Y190D01*
X1774Y192D01*
X1704Y192D01*
G37*
D02*
G36*
X1792Y192D02*
X1792Y190D01*
X1800Y190D01*
X1800Y188D01*
X1804Y188D01*
X1804Y186D01*
X1808Y186D01*
X1808Y184D01*
X1812Y184D01*
X1812Y182D01*
X1814Y182D01*
X1814Y180D01*
X1816Y180D01*
X1816Y178D01*
X1818Y178D01*
X1818Y176D01*
X1820Y176D01*
X1820Y174D01*
X1822Y174D01*
X1822Y172D01*
X1824Y172D01*
X1824Y170D01*
X1844Y170D01*
X1844Y174D01*
X1846Y174D01*
X1846Y176D01*
X1848Y176D01*
X1848Y178D01*
X1850Y178D01*
X1850Y180D01*
X1852Y180D01*
X1852Y182D01*
X1856Y182D01*
X1856Y184D01*
X1858Y184D01*
X1858Y186D01*
X1862Y186D01*
X1862Y188D01*
X1866Y188D01*
X1866Y190D01*
X1874Y190D01*
X1874Y192D01*
X1792Y192D01*
G37*
D02*
G36*
X1892Y192D02*
X1892Y190D01*
X1900Y190D01*
X1900Y188D01*
X1904Y188D01*
X1904Y186D01*
X1908Y186D01*
X1908Y184D01*
X1912Y184D01*
X1912Y182D01*
X1914Y182D01*
X1914Y180D01*
X1916Y180D01*
X1916Y178D01*
X1918Y178D01*
X1918Y176D01*
X1920Y176D01*
X1920Y174D01*
X1922Y174D01*
X1922Y172D01*
X1924Y172D01*
X1924Y170D01*
X1944Y170D01*
X1944Y174D01*
X1946Y174D01*
X1946Y176D01*
X1948Y176D01*
X1948Y178D01*
X1950Y178D01*
X1950Y180D01*
X1952Y180D01*
X1952Y182D01*
X1956Y182D01*
X1956Y184D01*
X1958Y184D01*
X1958Y186D01*
X1962Y186D01*
X1962Y188D01*
X1966Y188D01*
X1966Y190D01*
X1974Y190D01*
X1974Y192D01*
X1892Y192D01*
G37*
D02*
G36*
X1992Y192D02*
X1992Y190D01*
X2000Y190D01*
X2000Y188D01*
X2004Y188D01*
X2004Y186D01*
X2008Y186D01*
X2008Y184D01*
X2012Y184D01*
X2012Y182D01*
X2014Y182D01*
X2014Y180D01*
X2016Y180D01*
X2016Y178D01*
X2018Y178D01*
X2018Y176D01*
X2020Y176D01*
X2020Y174D01*
X2022Y174D01*
X2022Y172D01*
X2024Y172D01*
X2024Y170D01*
X2044Y170D01*
X2044Y174D01*
X2046Y174D01*
X2046Y176D01*
X2048Y176D01*
X2048Y178D01*
X2050Y178D01*
X2050Y180D01*
X2052Y180D01*
X2052Y182D01*
X2056Y182D01*
X2056Y184D01*
X2058Y184D01*
X2058Y186D01*
X2062Y186D01*
X2062Y188D01*
X2066Y188D01*
X2066Y190D01*
X2074Y190D01*
X2074Y192D01*
X1992Y192D01*
G37*
D02*
G36*
X2092Y192D02*
X2092Y190D01*
X2100Y190D01*
X2100Y188D01*
X2104Y188D01*
X2104Y186D01*
X2108Y186D01*
X2108Y184D01*
X2112Y184D01*
X2112Y182D01*
X2114Y182D01*
X2114Y180D01*
X2116Y180D01*
X2116Y178D01*
X2118Y178D01*
X2118Y176D01*
X2120Y176D01*
X2120Y174D01*
X2122Y174D01*
X2122Y172D01*
X2124Y172D01*
X2124Y170D01*
X2144Y170D01*
X2144Y174D01*
X2146Y174D01*
X2146Y176D01*
X2148Y176D01*
X2148Y178D01*
X2150Y178D01*
X2150Y180D01*
X2152Y180D01*
X2152Y182D01*
X2156Y182D01*
X2156Y184D01*
X2158Y184D01*
X2158Y186D01*
X2162Y186D01*
X2162Y188D01*
X2166Y188D01*
X2166Y190D01*
X2174Y190D01*
X2174Y192D01*
X2092Y192D01*
G37*
D02*
G36*
X2192Y192D02*
X2192Y190D01*
X2200Y190D01*
X2200Y188D01*
X2204Y188D01*
X2204Y186D01*
X2208Y186D01*
X2208Y184D01*
X2212Y184D01*
X2212Y182D01*
X2214Y182D01*
X2214Y180D01*
X2216Y180D01*
X2216Y178D01*
X2218Y178D01*
X2218Y176D01*
X2220Y176D01*
X2220Y174D01*
X2222Y174D01*
X2222Y172D01*
X2224Y172D01*
X2224Y170D01*
X2244Y170D01*
X2244Y174D01*
X2246Y174D01*
X2246Y176D01*
X2248Y176D01*
X2248Y178D01*
X2250Y178D01*
X2250Y180D01*
X2252Y180D01*
X2252Y182D01*
X2256Y182D01*
X2256Y184D01*
X2258Y184D01*
X2258Y186D01*
X2262Y186D01*
X2262Y188D01*
X2266Y188D01*
X2266Y190D01*
X2274Y190D01*
X2274Y192D01*
X2192Y192D01*
G37*
D02*
G36*
X2292Y192D02*
X2292Y190D01*
X2300Y190D01*
X2300Y188D01*
X2304Y188D01*
X2304Y186D01*
X2308Y186D01*
X2308Y184D01*
X2312Y184D01*
X2312Y182D01*
X2314Y182D01*
X2314Y180D01*
X2316Y180D01*
X2316Y178D01*
X2318Y178D01*
X2318Y176D01*
X2320Y176D01*
X2320Y174D01*
X2322Y174D01*
X2322Y172D01*
X2324Y172D01*
X2324Y170D01*
X2344Y170D01*
X2344Y174D01*
X2346Y174D01*
X2346Y176D01*
X2348Y176D01*
X2348Y178D01*
X2350Y178D01*
X2350Y180D01*
X2352Y180D01*
X2352Y182D01*
X2356Y182D01*
X2356Y184D01*
X2358Y184D01*
X2358Y186D01*
X2362Y186D01*
X2362Y188D01*
X2366Y188D01*
X2366Y190D01*
X2374Y190D01*
X2374Y192D01*
X2292Y192D01*
G37*
D02*
G36*
X2392Y192D02*
X2392Y190D01*
X2400Y190D01*
X2400Y188D01*
X2404Y188D01*
X2404Y186D01*
X2408Y186D01*
X2408Y184D01*
X2412Y184D01*
X2412Y182D01*
X2414Y182D01*
X2414Y180D01*
X2416Y180D01*
X2416Y178D01*
X2418Y178D01*
X2418Y176D01*
X2420Y176D01*
X2420Y174D01*
X2422Y174D01*
X2422Y172D01*
X2424Y172D01*
X2424Y170D01*
X2444Y170D01*
X2444Y174D01*
X2446Y174D01*
X2446Y176D01*
X2448Y176D01*
X2448Y178D01*
X2450Y178D01*
X2450Y180D01*
X2452Y180D01*
X2452Y182D01*
X2456Y182D01*
X2456Y184D01*
X2458Y184D01*
X2458Y186D01*
X2462Y186D01*
X2462Y188D01*
X2466Y188D01*
X2466Y190D01*
X2474Y190D01*
X2474Y192D01*
X2392Y192D01*
G37*
D02*
G36*
X2492Y192D02*
X2492Y190D01*
X2500Y190D01*
X2500Y188D01*
X2504Y188D01*
X2504Y186D01*
X2508Y186D01*
X2508Y184D01*
X2512Y184D01*
X2512Y182D01*
X2514Y182D01*
X2514Y180D01*
X2516Y180D01*
X2516Y178D01*
X2518Y178D01*
X2518Y176D01*
X2520Y176D01*
X2520Y174D01*
X2522Y174D01*
X2522Y172D01*
X2524Y172D01*
X2524Y170D01*
X2544Y170D01*
X2544Y174D01*
X2546Y174D01*
X2546Y176D01*
X2548Y176D01*
X2548Y178D01*
X2550Y178D01*
X2550Y180D01*
X2552Y180D01*
X2552Y182D01*
X2556Y182D01*
X2556Y184D01*
X2558Y184D01*
X2558Y186D01*
X2562Y186D01*
X2562Y188D01*
X2566Y188D01*
X2566Y190D01*
X2574Y190D01*
X2574Y192D01*
X2492Y192D01*
G37*
D02*
G36*
X426Y174D02*
X426Y170D01*
X428Y170D01*
X428Y166D01*
X430Y166D01*
X430Y164D01*
X432Y164D01*
X432Y158D01*
X434Y158D01*
X434Y146D01*
X436Y146D01*
X436Y140D01*
X434Y140D01*
X434Y128D01*
X432Y128D01*
X432Y124D01*
X430Y124D01*
X430Y120D01*
X428Y120D01*
X428Y116D01*
X426Y116D01*
X426Y114D01*
X424Y114D01*
X424Y110D01*
X682Y110D01*
X682Y112D01*
X672Y112D01*
X672Y114D01*
X668Y114D01*
X668Y116D01*
X664Y116D01*
X664Y118D01*
X662Y118D01*
X662Y120D01*
X660Y120D01*
X660Y122D01*
X658Y122D01*
X658Y126D01*
X656Y126D01*
X656Y128D01*
X654Y128D01*
X654Y134D01*
X652Y134D01*
X652Y150D01*
X654Y150D01*
X654Y156D01*
X656Y156D01*
X656Y160D01*
X658Y160D01*
X658Y162D01*
X660Y162D01*
X660Y164D01*
X662Y164D01*
X662Y166D01*
X664Y166D01*
X664Y168D01*
X666Y168D01*
X666Y170D01*
X670Y170D01*
X670Y172D01*
X676Y172D01*
X676Y174D01*
X426Y174D01*
G37*
D02*
G36*
X1322Y114D02*
X1322Y110D01*
X1320Y110D01*
X1320Y108D01*
X1318Y108D01*
X1318Y106D01*
X1316Y106D01*
X1316Y104D01*
X1312Y104D01*
X1312Y102D01*
X1310Y102D01*
X1310Y100D01*
X1306Y100D01*
X1306Y98D01*
X1302Y98D01*
X1302Y96D01*
X1296Y96D01*
X1296Y94D01*
X1370Y94D01*
X1370Y96D01*
X1364Y96D01*
X1364Y98D01*
X1360Y98D01*
X1360Y100D01*
X1356Y100D01*
X1356Y102D01*
X1354Y102D01*
X1354Y104D01*
X1352Y104D01*
X1352Y106D01*
X1350Y106D01*
X1350Y108D01*
X1348Y108D01*
X1348Y110D01*
X1346Y110D01*
X1346Y112D01*
X1344Y112D01*
X1344Y114D01*
X1322Y114D01*
G37*
D02*
G36*
X1422Y114D02*
X1422Y110D01*
X1420Y110D01*
X1420Y108D01*
X1418Y108D01*
X1418Y106D01*
X1416Y106D01*
X1416Y104D01*
X1412Y104D01*
X1412Y102D01*
X1410Y102D01*
X1410Y100D01*
X1406Y100D01*
X1406Y98D01*
X1402Y98D01*
X1402Y96D01*
X1396Y96D01*
X1396Y94D01*
X1470Y94D01*
X1470Y96D01*
X1464Y96D01*
X1464Y98D01*
X1460Y98D01*
X1460Y100D01*
X1456Y100D01*
X1456Y102D01*
X1454Y102D01*
X1454Y104D01*
X1452Y104D01*
X1452Y106D01*
X1450Y106D01*
X1450Y108D01*
X1448Y108D01*
X1448Y110D01*
X1446Y110D01*
X1446Y112D01*
X1444Y112D01*
X1444Y114D01*
X1422Y114D01*
G37*
D02*
G36*
X1522Y114D02*
X1522Y110D01*
X1520Y110D01*
X1520Y108D01*
X1518Y108D01*
X1518Y106D01*
X1516Y106D01*
X1516Y104D01*
X1512Y104D01*
X1512Y102D01*
X1510Y102D01*
X1510Y100D01*
X1506Y100D01*
X1506Y98D01*
X1502Y98D01*
X1502Y96D01*
X1496Y96D01*
X1496Y94D01*
X1570Y94D01*
X1570Y96D01*
X1564Y96D01*
X1564Y98D01*
X1560Y98D01*
X1560Y100D01*
X1556Y100D01*
X1556Y102D01*
X1554Y102D01*
X1554Y104D01*
X1552Y104D01*
X1552Y106D01*
X1550Y106D01*
X1550Y108D01*
X1548Y108D01*
X1548Y110D01*
X1546Y110D01*
X1546Y112D01*
X1544Y112D01*
X1544Y114D01*
X1522Y114D01*
G37*
D02*
G36*
X1622Y114D02*
X1622Y110D01*
X1620Y110D01*
X1620Y108D01*
X1618Y108D01*
X1618Y106D01*
X1616Y106D01*
X1616Y104D01*
X1612Y104D01*
X1612Y102D01*
X1610Y102D01*
X1610Y100D01*
X1606Y100D01*
X1606Y98D01*
X1602Y98D01*
X1602Y96D01*
X1596Y96D01*
X1596Y94D01*
X1670Y94D01*
X1670Y96D01*
X1664Y96D01*
X1664Y98D01*
X1660Y98D01*
X1660Y100D01*
X1656Y100D01*
X1656Y102D01*
X1654Y102D01*
X1654Y104D01*
X1652Y104D01*
X1652Y106D01*
X1650Y106D01*
X1650Y108D01*
X1648Y108D01*
X1648Y110D01*
X1646Y110D01*
X1646Y112D01*
X1644Y112D01*
X1644Y114D01*
X1622Y114D01*
G37*
D02*
G36*
X1722Y114D02*
X1722Y110D01*
X1720Y110D01*
X1720Y108D01*
X1718Y108D01*
X1718Y106D01*
X1716Y106D01*
X1716Y104D01*
X1712Y104D01*
X1712Y102D01*
X1710Y102D01*
X1710Y100D01*
X1706Y100D01*
X1706Y98D01*
X1702Y98D01*
X1702Y96D01*
X1696Y96D01*
X1696Y94D01*
X1770Y94D01*
X1770Y96D01*
X1764Y96D01*
X1764Y98D01*
X1760Y98D01*
X1760Y100D01*
X1756Y100D01*
X1756Y102D01*
X1754Y102D01*
X1754Y104D01*
X1752Y104D01*
X1752Y106D01*
X1750Y106D01*
X1750Y108D01*
X1748Y108D01*
X1748Y110D01*
X1746Y110D01*
X1746Y112D01*
X1744Y112D01*
X1744Y114D01*
X1722Y114D01*
G37*
D02*
G36*
X1822Y114D02*
X1822Y110D01*
X1820Y110D01*
X1820Y108D01*
X1818Y108D01*
X1818Y106D01*
X1816Y106D01*
X1816Y104D01*
X1812Y104D01*
X1812Y102D01*
X1810Y102D01*
X1810Y100D01*
X1806Y100D01*
X1806Y98D01*
X1802Y98D01*
X1802Y96D01*
X1796Y96D01*
X1796Y94D01*
X1870Y94D01*
X1870Y96D01*
X1864Y96D01*
X1864Y98D01*
X1860Y98D01*
X1860Y100D01*
X1856Y100D01*
X1856Y102D01*
X1854Y102D01*
X1854Y104D01*
X1852Y104D01*
X1852Y106D01*
X1850Y106D01*
X1850Y108D01*
X1848Y108D01*
X1848Y110D01*
X1846Y110D01*
X1846Y112D01*
X1844Y112D01*
X1844Y114D01*
X1822Y114D01*
G37*
D02*
G36*
X1922Y114D02*
X1922Y110D01*
X1920Y110D01*
X1920Y108D01*
X1918Y108D01*
X1918Y106D01*
X1916Y106D01*
X1916Y104D01*
X1912Y104D01*
X1912Y102D01*
X1910Y102D01*
X1910Y100D01*
X1906Y100D01*
X1906Y98D01*
X1902Y98D01*
X1902Y96D01*
X1896Y96D01*
X1896Y94D01*
X1970Y94D01*
X1970Y96D01*
X1964Y96D01*
X1964Y98D01*
X1960Y98D01*
X1960Y100D01*
X1956Y100D01*
X1956Y102D01*
X1954Y102D01*
X1954Y104D01*
X1952Y104D01*
X1952Y106D01*
X1950Y106D01*
X1950Y108D01*
X1948Y108D01*
X1948Y110D01*
X1946Y110D01*
X1946Y112D01*
X1944Y112D01*
X1944Y114D01*
X1922Y114D01*
G37*
D02*
G36*
X2022Y114D02*
X2022Y110D01*
X2020Y110D01*
X2020Y108D01*
X2018Y108D01*
X2018Y106D01*
X2016Y106D01*
X2016Y104D01*
X2012Y104D01*
X2012Y102D01*
X2010Y102D01*
X2010Y100D01*
X2006Y100D01*
X2006Y98D01*
X2002Y98D01*
X2002Y96D01*
X1996Y96D01*
X1996Y94D01*
X2070Y94D01*
X2070Y96D01*
X2064Y96D01*
X2064Y98D01*
X2060Y98D01*
X2060Y100D01*
X2056Y100D01*
X2056Y102D01*
X2054Y102D01*
X2054Y104D01*
X2052Y104D01*
X2052Y106D01*
X2050Y106D01*
X2050Y108D01*
X2048Y108D01*
X2048Y110D01*
X2046Y110D01*
X2046Y112D01*
X2044Y112D01*
X2044Y114D01*
X2022Y114D01*
G37*
D02*
G36*
X2122Y114D02*
X2122Y110D01*
X2120Y110D01*
X2120Y108D01*
X2118Y108D01*
X2118Y106D01*
X2116Y106D01*
X2116Y104D01*
X2112Y104D01*
X2112Y102D01*
X2110Y102D01*
X2110Y100D01*
X2106Y100D01*
X2106Y98D01*
X2102Y98D01*
X2102Y96D01*
X2096Y96D01*
X2096Y94D01*
X2170Y94D01*
X2170Y96D01*
X2164Y96D01*
X2164Y98D01*
X2160Y98D01*
X2160Y100D01*
X2156Y100D01*
X2156Y102D01*
X2154Y102D01*
X2154Y104D01*
X2152Y104D01*
X2152Y106D01*
X2150Y106D01*
X2150Y108D01*
X2148Y108D01*
X2148Y110D01*
X2146Y110D01*
X2146Y112D01*
X2144Y112D01*
X2144Y114D01*
X2122Y114D01*
G37*
D02*
G36*
X2222Y114D02*
X2222Y110D01*
X2220Y110D01*
X2220Y108D01*
X2218Y108D01*
X2218Y106D01*
X2216Y106D01*
X2216Y104D01*
X2212Y104D01*
X2212Y102D01*
X2210Y102D01*
X2210Y100D01*
X2206Y100D01*
X2206Y98D01*
X2202Y98D01*
X2202Y96D01*
X2196Y96D01*
X2196Y94D01*
X2270Y94D01*
X2270Y96D01*
X2264Y96D01*
X2264Y98D01*
X2260Y98D01*
X2260Y100D01*
X2256Y100D01*
X2256Y102D01*
X2254Y102D01*
X2254Y104D01*
X2252Y104D01*
X2252Y106D01*
X2250Y106D01*
X2250Y108D01*
X2248Y108D01*
X2248Y110D01*
X2246Y110D01*
X2246Y112D01*
X2244Y112D01*
X2244Y114D01*
X2222Y114D01*
G37*
D02*
G36*
X2322Y114D02*
X2322Y110D01*
X2320Y110D01*
X2320Y108D01*
X2318Y108D01*
X2318Y106D01*
X2316Y106D01*
X2316Y104D01*
X2312Y104D01*
X2312Y102D01*
X2310Y102D01*
X2310Y100D01*
X2306Y100D01*
X2306Y98D01*
X2302Y98D01*
X2302Y96D01*
X2296Y96D01*
X2296Y94D01*
X2370Y94D01*
X2370Y96D01*
X2364Y96D01*
X2364Y98D01*
X2360Y98D01*
X2360Y100D01*
X2356Y100D01*
X2356Y102D01*
X2354Y102D01*
X2354Y104D01*
X2352Y104D01*
X2352Y106D01*
X2350Y106D01*
X2350Y108D01*
X2348Y108D01*
X2348Y110D01*
X2346Y110D01*
X2346Y112D01*
X2344Y112D01*
X2344Y114D01*
X2322Y114D01*
G37*
D02*
G36*
X2422Y114D02*
X2422Y110D01*
X2420Y110D01*
X2420Y108D01*
X2418Y108D01*
X2418Y106D01*
X2416Y106D01*
X2416Y104D01*
X2412Y104D01*
X2412Y102D01*
X2410Y102D01*
X2410Y100D01*
X2406Y100D01*
X2406Y98D01*
X2402Y98D01*
X2402Y96D01*
X2396Y96D01*
X2396Y94D01*
X2470Y94D01*
X2470Y96D01*
X2464Y96D01*
X2464Y98D01*
X2460Y98D01*
X2460Y100D01*
X2456Y100D01*
X2456Y102D01*
X2454Y102D01*
X2454Y104D01*
X2452Y104D01*
X2452Y106D01*
X2450Y106D01*
X2450Y108D01*
X2448Y108D01*
X2448Y110D01*
X2446Y110D01*
X2446Y112D01*
X2444Y112D01*
X2444Y114D01*
X2422Y114D01*
G37*
D02*
G36*
X2522Y114D02*
X2522Y110D01*
X2520Y110D01*
X2520Y108D01*
X2518Y108D01*
X2518Y106D01*
X2516Y106D01*
X2516Y104D01*
X2512Y104D01*
X2512Y102D01*
X2510Y102D01*
X2510Y100D01*
X2506Y100D01*
X2506Y98D01*
X2502Y98D01*
X2502Y96D01*
X2496Y96D01*
X2496Y94D01*
X2570Y94D01*
X2570Y96D01*
X2564Y96D01*
X2564Y98D01*
X2560Y98D01*
X2560Y100D01*
X2556Y100D01*
X2556Y102D01*
X2554Y102D01*
X2554Y104D01*
X2552Y104D01*
X2552Y106D01*
X2550Y106D01*
X2550Y108D01*
X2548Y108D01*
X2548Y110D01*
X2546Y110D01*
X2546Y112D01*
X2544Y112D01*
X2544Y114D01*
X2522Y114D01*
G37*
D02*
G36*
X326Y110D02*
X326Y94D01*
X328Y94D01*
X328Y92D01*
X376Y92D01*
X376Y94D01*
X368Y94D01*
X368Y96D01*
X362Y96D01*
X362Y98D01*
X360Y98D01*
X360Y100D01*
X356Y100D01*
X356Y102D01*
X354Y102D01*
X354Y104D01*
X350Y104D01*
X350Y106D01*
X348Y106D01*
X348Y108D01*
X346Y108D01*
X346Y110D01*
X326Y110D01*
G37*
D02*
G36*
X422Y110D02*
X422Y108D01*
X1248Y108D01*
X1248Y110D01*
X422Y110D01*
G37*
D02*
G36*
X422Y110D02*
X422Y108D01*
X1248Y108D01*
X1248Y110D01*
X422Y110D01*
G37*
D02*
G36*
X420Y108D02*
X420Y106D01*
X418Y106D01*
X418Y104D01*
X416Y104D01*
X416Y102D01*
X412Y102D01*
X412Y100D01*
X410Y100D01*
X410Y98D01*
X406Y98D01*
X406Y96D01*
X400Y96D01*
X400Y94D01*
X1270Y94D01*
X1270Y96D01*
X1264Y96D01*
X1264Y98D01*
X1260Y98D01*
X1260Y100D01*
X1256Y100D01*
X1256Y102D01*
X1254Y102D01*
X1254Y104D01*
X1252Y104D01*
X1252Y106D01*
X1250Y106D01*
X1250Y108D01*
X420Y108D01*
G37*
D02*
G36*
X392Y94D02*
X392Y92D01*
X2732Y92D01*
X2732Y94D01*
X392Y94D01*
G37*
D02*
G36*
X392Y94D02*
X392Y92D01*
X2732Y92D01*
X2732Y94D01*
X392Y94D01*
G37*
D02*
G36*
X392Y94D02*
X392Y92D01*
X2732Y92D01*
X2732Y94D01*
X392Y94D01*
G37*
D02*
G36*
X392Y94D02*
X392Y92D01*
X2732Y92D01*
X2732Y94D01*
X392Y94D01*
G37*
D02*
G36*
X392Y94D02*
X392Y92D01*
X2732Y92D01*
X2732Y94D01*
X392Y94D01*
G37*
D02*
G36*
X392Y94D02*
X392Y92D01*
X2732Y92D01*
X2732Y94D01*
X392Y94D01*
G37*
D02*
G36*
X392Y94D02*
X392Y92D01*
X2732Y92D01*
X2732Y94D01*
X392Y94D01*
G37*
D02*
G36*
X392Y94D02*
X392Y92D01*
X2732Y92D01*
X2732Y94D01*
X392Y94D01*
G37*
D02*
G36*
X392Y94D02*
X392Y92D01*
X2732Y92D01*
X2732Y94D01*
X392Y94D01*
G37*
D02*
G36*
X392Y94D02*
X392Y92D01*
X2732Y92D01*
X2732Y94D01*
X392Y94D01*
G37*
D02*
G36*
X392Y94D02*
X392Y92D01*
X2732Y92D01*
X2732Y94D01*
X392Y94D01*
G37*
D02*
G36*
X392Y94D02*
X392Y92D01*
X2732Y92D01*
X2732Y94D01*
X392Y94D01*
G37*
D02*
G36*
X392Y94D02*
X392Y92D01*
X2732Y92D01*
X2732Y94D01*
X392Y94D01*
G37*
D02*
G36*
X392Y94D02*
X392Y92D01*
X2732Y92D01*
X2732Y94D01*
X392Y94D01*
G37*
D02*
G36*
X392Y94D02*
X392Y92D01*
X2732Y92D01*
X2732Y94D01*
X392Y94D01*
G37*
D02*
G36*
X330Y92D02*
X330Y90D01*
X2732Y90D01*
X2732Y92D01*
X330Y92D01*
G37*
D02*
G36*
X330Y92D02*
X330Y90D01*
X2732Y90D01*
X2732Y92D01*
X330Y92D01*
G37*
D02*
G36*
X332Y90D02*
X332Y88D01*
X334Y88D01*
X334Y86D01*
X336Y86D01*
X336Y82D01*
X338Y82D01*
X338Y78D01*
X340Y78D01*
X340Y60D01*
X338Y60D01*
X338Y40D01*
X2732Y40D01*
X2732Y90D01*
X332Y90D01*
G37*
D02*
G36*
X1863Y720D02*
X1904Y720D01*
X1904Y685D01*
X1863Y685D01*
X1863Y720D01*
G37*
D02*
G36*
X1863Y655D02*
X1904Y655D01*
X1904Y622D01*
X1863Y622D01*
X1863Y655D01*
G37*
D02*
G36*
X1897Y689D02*
X1932Y689D01*
X1932Y648D01*
X1897Y648D01*
X1897Y689D01*
G37*
D02*
G36*
X1563Y720D02*
X1604Y720D01*
X1604Y685D01*
X1563Y685D01*
X1563Y720D01*
G37*
D02*
G36*
X1563Y655D02*
X1604Y655D01*
X1604Y622D01*
X1563Y622D01*
X1563Y655D01*
G37*
D02*
G36*
X1534Y689D02*
X1567Y689D01*
X1567Y648D01*
X1534Y648D01*
X1534Y689D01*
G37*
D02*
G04 End of Copper0*
M02*