; NON-PLATED HOLES START AT T1
; THROUGH (PLATED) HOLES START AT T100
M48
INCH
T100C0.032000
T101C0.035000
T102C0.015748
T103C0.030000
T104C0.038000
%
T100
X003341Y011532
X001341Y011532
X001341Y013432
X003341Y013432
T101
X013833Y014926
X023833Y001426
X021833Y004426
X021833Y008926
X009833Y014926
X014833Y001426
X005833Y014926
X025833Y001426
X020833Y001426
X021833Y001426
X020833Y004426
X019833Y004426
X024833Y008926
X024833Y014926
X014833Y014926
X021833Y014926
X011833Y014926
X007833Y014926
X006833Y014926
X022833Y001426
X015833Y001426
X023833Y008926
X024833Y004426
X014833Y004426
X023833Y004426
X011833Y008926
X014833Y008926
X020833Y008926
X007833Y008926
X013833Y001426
X018833Y014926
X016833Y014926
X025833Y004426
X010833Y014926
X010833Y008926
X016833Y008926
X016833Y004426
X016833Y001426
X006833Y008926
X017833Y001426
X018833Y008926
X022833Y014926
X009833Y008926
X012833Y001426
X012833Y004426
X019833Y008926
X017833Y008926
X005833Y008926
X013833Y004426
X012833Y008926
X015833Y004426
X018833Y001426
X024833Y001426
X008833Y008926
X022833Y008926
X012833Y014926
X020833Y014926
X019833Y001426
X018833Y004426
X023833Y014926
X017833Y014926
X013833Y008926
X017833Y004426
X019833Y014926
X015833Y008926
X008833Y014926
X022833Y004426
X015833Y014926
T102
X014583Y007426
X013833Y006676
X019583Y005676
X016588Y012683
X017841Y009682
X016841Y009682
X016098Y012193
X018833Y003426
X003088Y000683
X006833Y001426
X009833Y003426
X015833Y009676
T103
X017839Y006682
X018841Y006682
X015839Y006682
X016841Y006682
T104
X003841Y001432
X002841Y002432
X001341Y015432
X003841Y003432
X003841Y002432
X002841Y003432
X002341Y015432
X003341Y015432
X002841Y001432
X002341Y009682
X003341Y009682
X001341Y009682
T00
M30
