G04 MADE WITH FRITZING*
G04 WWW.FRITZING.ORG*
G04 DOUBLE SIDED*
G04 HOLES PLATED*
G04 CONTOUR ON CENTER OF CONTOUR VECTOR*
%ASAXBY*%
%FSLAX23Y23*%
%MOIN*%
%OFA0B0*%
%SFA1.0B1.0*%
%ADD10C,0.010000*%
%ADD11C,0.016000*%
%ADD12C,0.006000*%
%ADD13C,0.005000*%
%ADD14R,0.001000X0.001000*%
%LNSILK1*%
G90*
G70*
G54D10*
X2633Y493D02*
X1233Y493D01*
D02*
X1233Y493D02*
X1233Y93D01*
D02*
X1233Y93D02*
X2633Y93D01*
D02*
X2633Y493D02*
X2633Y343D01*
D02*
X2633Y243D02*
X2633Y93D01*
D02*
X533Y843D02*
X2533Y843D01*
D02*
X2533Y843D02*
X2533Y1543D01*
D02*
X2533Y1543D02*
X533Y1543D01*
D02*
X533Y843D02*
X533Y1143D01*
D02*
X533Y1243D02*
X533Y1543D01*
G54D11*
D02*
X424Y1133D02*
X424Y1363D01*
D02*
X244Y1133D02*
X244Y1363D01*
G54D12*
D02*
X404Y1133D02*
X404Y1363D01*
D02*
X264Y1363D02*
X264Y1133D01*
D02*
X299Y1238D02*
X299Y1258D01*
D02*
X299Y1258D02*
X369Y1258D01*
D02*
X369Y1258D02*
X369Y1238D01*
D02*
X369Y1238D02*
X299Y1238D01*
D02*
X299Y1273D02*
X334Y1273D01*
D02*
X334Y1273D02*
X369Y1273D01*
D02*
X299Y1223D02*
X334Y1223D01*
D02*
X334Y1223D02*
X369Y1223D01*
D02*
X334Y1273D02*
X334Y1298D01*
D02*
X334Y1223D02*
X334Y1198D01*
G54D11*
D02*
X224Y1133D02*
X224Y1363D01*
D02*
X44Y1133D02*
X44Y1363D01*
G54D12*
D02*
X204Y1133D02*
X204Y1363D01*
D02*
X64Y1363D02*
X64Y1133D01*
D02*
X99Y1238D02*
X99Y1258D01*
D02*
X99Y1258D02*
X169Y1258D01*
D02*
X169Y1258D02*
X169Y1238D01*
D02*
X169Y1238D02*
X99Y1238D01*
D02*
X99Y1273D02*
X134Y1273D01*
D02*
X134Y1273D02*
X169Y1273D01*
D02*
X99Y1223D02*
X134Y1223D01*
D02*
X134Y1223D02*
X169Y1223D01*
D02*
X134Y1273D02*
X134Y1298D01*
D02*
X134Y1223D02*
X134Y1198D01*
G54D10*
D02*
X234Y393D02*
X234Y93D01*
D02*
X434Y93D02*
X434Y393D01*
D02*
X434Y393D02*
X234Y393D01*
D02*
X84Y1493D02*
X384Y1493D01*
D02*
X384Y1493D02*
X384Y1593D01*
D02*
X384Y1593D02*
X84Y1593D01*
D02*
X84Y1593D02*
X84Y1493D01*
G54D13*
D02*
X119Y1493D02*
X84Y1528D01*
G54D10*
D02*
X84Y918D02*
X384Y918D01*
D02*
X384Y918D02*
X384Y1018D01*
D02*
X384Y1018D02*
X84Y1018D01*
D02*
X84Y1018D02*
X84Y918D01*
G54D13*
D02*
X119Y918D02*
X84Y953D01*
G54D14*
X1Y1666D02*
X2772Y1666D01*
X1Y1665D02*
X2772Y1665D01*
X1Y1664D02*
X2772Y1664D01*
X1Y1663D02*
X2772Y1663D01*
X1Y1662D02*
X2772Y1662D01*
X1Y1661D02*
X2772Y1661D01*
X1Y1660D02*
X2772Y1660D01*
X1Y1659D02*
X2772Y1659D01*
X1Y1658D02*
X8Y1658D01*
X2765Y1658D02*
X2772Y1658D01*
X1Y1657D02*
X8Y1657D01*
X2765Y1657D02*
X2772Y1657D01*
X1Y1656D02*
X8Y1656D01*
X2765Y1656D02*
X2772Y1656D01*
X1Y1655D02*
X8Y1655D01*
X2765Y1655D02*
X2772Y1655D01*
X1Y1654D02*
X8Y1654D01*
X2765Y1654D02*
X2772Y1654D01*
X1Y1653D02*
X8Y1653D01*
X2765Y1653D02*
X2772Y1653D01*
X1Y1652D02*
X8Y1652D01*
X2765Y1652D02*
X2772Y1652D01*
X1Y1651D02*
X8Y1651D01*
X2765Y1651D02*
X2772Y1651D01*
X1Y1650D02*
X8Y1650D01*
X2765Y1650D02*
X2772Y1650D01*
X1Y1649D02*
X8Y1649D01*
X2765Y1649D02*
X2772Y1649D01*
X1Y1648D02*
X8Y1648D01*
X2765Y1648D02*
X2772Y1648D01*
X1Y1647D02*
X8Y1647D01*
X2765Y1647D02*
X2772Y1647D01*
X1Y1646D02*
X8Y1646D01*
X2765Y1646D02*
X2772Y1646D01*
X1Y1645D02*
X8Y1645D01*
X2765Y1645D02*
X2772Y1645D01*
X1Y1644D02*
X8Y1644D01*
X2765Y1644D02*
X2772Y1644D01*
X1Y1643D02*
X8Y1643D01*
X2765Y1643D02*
X2772Y1643D01*
X1Y1642D02*
X8Y1642D01*
X2765Y1642D02*
X2772Y1642D01*
X1Y1641D02*
X8Y1641D01*
X2765Y1641D02*
X2772Y1641D01*
X1Y1640D02*
X8Y1640D01*
X2765Y1640D02*
X2772Y1640D01*
X1Y1639D02*
X8Y1639D01*
X2765Y1639D02*
X2772Y1639D01*
X1Y1638D02*
X8Y1638D01*
X2765Y1638D02*
X2772Y1638D01*
X1Y1637D02*
X8Y1637D01*
X2765Y1637D02*
X2772Y1637D01*
X1Y1636D02*
X8Y1636D01*
X2765Y1636D02*
X2772Y1636D01*
X1Y1635D02*
X8Y1635D01*
X2765Y1635D02*
X2772Y1635D01*
X1Y1634D02*
X8Y1634D01*
X2765Y1634D02*
X2772Y1634D01*
X1Y1633D02*
X8Y1633D01*
X2765Y1633D02*
X2772Y1633D01*
X1Y1632D02*
X8Y1632D01*
X2765Y1632D02*
X2772Y1632D01*
X1Y1631D02*
X8Y1631D01*
X2765Y1631D02*
X2772Y1631D01*
X1Y1630D02*
X8Y1630D01*
X2765Y1630D02*
X2772Y1630D01*
X1Y1629D02*
X8Y1629D01*
X2765Y1629D02*
X2772Y1629D01*
X1Y1628D02*
X8Y1628D01*
X2765Y1628D02*
X2772Y1628D01*
X1Y1627D02*
X8Y1627D01*
X2765Y1627D02*
X2772Y1627D01*
X1Y1626D02*
X8Y1626D01*
X2765Y1626D02*
X2772Y1626D01*
X1Y1625D02*
X8Y1625D01*
X2765Y1625D02*
X2772Y1625D01*
X1Y1624D02*
X8Y1624D01*
X2765Y1624D02*
X2772Y1624D01*
X1Y1623D02*
X8Y1623D01*
X2765Y1623D02*
X2772Y1623D01*
X1Y1622D02*
X8Y1622D01*
X2765Y1622D02*
X2772Y1622D01*
X1Y1621D02*
X8Y1621D01*
X2765Y1621D02*
X2772Y1621D01*
X1Y1620D02*
X8Y1620D01*
X2765Y1620D02*
X2772Y1620D01*
X1Y1619D02*
X8Y1619D01*
X2765Y1619D02*
X2772Y1619D01*
X1Y1618D02*
X8Y1618D01*
X2765Y1618D02*
X2772Y1618D01*
X1Y1617D02*
X8Y1617D01*
X2765Y1617D02*
X2772Y1617D01*
X1Y1616D02*
X8Y1616D01*
X2765Y1616D02*
X2772Y1616D01*
X1Y1615D02*
X8Y1615D01*
X2765Y1615D02*
X2772Y1615D01*
X1Y1614D02*
X8Y1614D01*
X2765Y1614D02*
X2772Y1614D01*
X1Y1613D02*
X8Y1613D01*
X2765Y1613D02*
X2772Y1613D01*
X1Y1612D02*
X8Y1612D01*
X2765Y1612D02*
X2772Y1612D01*
X1Y1611D02*
X8Y1611D01*
X2765Y1611D02*
X2772Y1611D01*
X1Y1610D02*
X8Y1610D01*
X2765Y1610D02*
X2772Y1610D01*
X1Y1609D02*
X8Y1609D01*
X2765Y1609D02*
X2772Y1609D01*
X1Y1608D02*
X8Y1608D01*
X2765Y1608D02*
X2772Y1608D01*
X1Y1607D02*
X8Y1607D01*
X2765Y1607D02*
X2772Y1607D01*
X1Y1606D02*
X8Y1606D01*
X2765Y1606D02*
X2772Y1606D01*
X1Y1605D02*
X8Y1605D01*
X2765Y1605D02*
X2772Y1605D01*
X1Y1604D02*
X8Y1604D01*
X2765Y1604D02*
X2772Y1604D01*
X1Y1603D02*
X8Y1603D01*
X2765Y1603D02*
X2772Y1603D01*
X1Y1602D02*
X8Y1602D01*
X2765Y1602D02*
X2772Y1602D01*
X1Y1601D02*
X8Y1601D01*
X2765Y1601D02*
X2772Y1601D01*
X1Y1600D02*
X8Y1600D01*
X2765Y1600D02*
X2772Y1600D01*
X1Y1599D02*
X8Y1599D01*
X2765Y1599D02*
X2772Y1599D01*
X1Y1598D02*
X8Y1598D01*
X2765Y1598D02*
X2772Y1598D01*
X1Y1597D02*
X8Y1597D01*
X2765Y1597D02*
X2772Y1597D01*
X1Y1596D02*
X8Y1596D01*
X2765Y1596D02*
X2772Y1596D01*
X1Y1595D02*
X8Y1595D01*
X2765Y1595D02*
X2772Y1595D01*
X1Y1594D02*
X8Y1594D01*
X2765Y1594D02*
X2772Y1594D01*
X1Y1593D02*
X8Y1593D01*
X2765Y1593D02*
X2772Y1593D01*
X1Y1592D02*
X8Y1592D01*
X2765Y1592D02*
X2772Y1592D01*
X1Y1591D02*
X8Y1591D01*
X2765Y1591D02*
X2772Y1591D01*
X1Y1590D02*
X8Y1590D01*
X2765Y1590D02*
X2772Y1590D01*
X1Y1589D02*
X8Y1589D01*
X2765Y1589D02*
X2772Y1589D01*
X1Y1588D02*
X8Y1588D01*
X2765Y1588D02*
X2772Y1588D01*
X1Y1587D02*
X8Y1587D01*
X2765Y1587D02*
X2772Y1587D01*
X1Y1586D02*
X8Y1586D01*
X21Y1586D02*
X38Y1586D01*
X47Y1586D02*
X65Y1586D01*
X2765Y1586D02*
X2772Y1586D01*
X1Y1585D02*
X8Y1585D01*
X19Y1585D02*
X41Y1585D01*
X45Y1585D02*
X67Y1585D01*
X2765Y1585D02*
X2772Y1585D01*
X1Y1584D02*
X8Y1584D01*
X18Y1584D02*
X42Y1584D01*
X44Y1584D02*
X68Y1584D01*
X2765Y1584D02*
X2772Y1584D01*
X1Y1583D02*
X8Y1583D01*
X17Y1583D02*
X68Y1583D01*
X2765Y1583D02*
X2772Y1583D01*
X1Y1582D02*
X8Y1582D01*
X17Y1582D02*
X69Y1582D01*
X2765Y1582D02*
X2772Y1582D01*
X1Y1581D02*
X8Y1581D01*
X16Y1581D02*
X69Y1581D01*
X2765Y1581D02*
X2772Y1581D01*
X1Y1580D02*
X8Y1580D01*
X16Y1580D02*
X69Y1580D01*
X2765Y1580D02*
X2772Y1580D01*
X1Y1579D02*
X8Y1579D01*
X16Y1579D02*
X22Y1579D01*
X38Y1579D02*
X48Y1579D01*
X63Y1579D02*
X69Y1579D01*
X2765Y1579D02*
X2772Y1579D01*
X1Y1578D02*
X8Y1578D01*
X16Y1578D02*
X22Y1578D01*
X39Y1578D02*
X47Y1578D01*
X63Y1578D02*
X69Y1578D01*
X2765Y1578D02*
X2772Y1578D01*
X1Y1577D02*
X8Y1577D01*
X16Y1577D02*
X22Y1577D01*
X40Y1577D02*
X46Y1577D01*
X63Y1577D02*
X69Y1577D01*
X2765Y1577D02*
X2772Y1577D01*
X1Y1576D02*
X8Y1576D01*
X16Y1576D02*
X22Y1576D01*
X40Y1576D02*
X46Y1576D01*
X63Y1576D02*
X69Y1576D01*
X2765Y1576D02*
X2772Y1576D01*
X1Y1575D02*
X8Y1575D01*
X16Y1575D02*
X22Y1575D01*
X40Y1575D02*
X46Y1575D01*
X63Y1575D02*
X69Y1575D01*
X2765Y1575D02*
X2772Y1575D01*
X1Y1574D02*
X8Y1574D01*
X16Y1574D02*
X22Y1574D01*
X40Y1574D02*
X46Y1574D01*
X63Y1574D02*
X69Y1574D01*
X2765Y1574D02*
X2772Y1574D01*
X1Y1573D02*
X8Y1573D01*
X16Y1573D02*
X22Y1573D01*
X40Y1573D02*
X46Y1573D01*
X63Y1573D02*
X69Y1573D01*
X2765Y1573D02*
X2772Y1573D01*
X1Y1572D02*
X8Y1572D01*
X16Y1572D02*
X22Y1572D01*
X40Y1572D02*
X46Y1572D01*
X63Y1572D02*
X69Y1572D01*
X2765Y1572D02*
X2772Y1572D01*
X1Y1571D02*
X8Y1571D01*
X16Y1571D02*
X22Y1571D01*
X40Y1571D02*
X46Y1571D01*
X63Y1571D02*
X69Y1571D01*
X2765Y1571D02*
X2772Y1571D01*
X1Y1570D02*
X8Y1570D01*
X16Y1570D02*
X22Y1570D01*
X40Y1570D02*
X46Y1570D01*
X63Y1570D02*
X69Y1570D01*
X2765Y1570D02*
X2772Y1570D01*
X1Y1569D02*
X8Y1569D01*
X16Y1569D02*
X22Y1569D01*
X40Y1569D02*
X46Y1569D01*
X63Y1569D02*
X69Y1569D01*
X2765Y1569D02*
X2772Y1569D01*
X1Y1568D02*
X8Y1568D01*
X16Y1568D02*
X22Y1568D01*
X40Y1568D02*
X46Y1568D01*
X63Y1568D02*
X69Y1568D01*
X2765Y1568D02*
X2772Y1568D01*
X1Y1567D02*
X8Y1567D01*
X16Y1567D02*
X22Y1567D01*
X40Y1567D02*
X46Y1567D01*
X63Y1567D02*
X69Y1567D01*
X2765Y1567D02*
X2772Y1567D01*
X1Y1566D02*
X8Y1566D01*
X16Y1566D02*
X22Y1566D01*
X40Y1566D02*
X46Y1566D01*
X63Y1566D02*
X69Y1566D01*
X2765Y1566D02*
X2772Y1566D01*
X1Y1565D02*
X8Y1565D01*
X16Y1565D02*
X22Y1565D01*
X40Y1565D02*
X46Y1565D01*
X63Y1565D02*
X69Y1565D01*
X2765Y1565D02*
X2772Y1565D01*
X1Y1564D02*
X8Y1564D01*
X16Y1564D02*
X22Y1564D01*
X40Y1564D02*
X46Y1564D01*
X63Y1564D02*
X69Y1564D01*
X2765Y1564D02*
X2772Y1564D01*
X1Y1563D02*
X8Y1563D01*
X16Y1563D02*
X22Y1563D01*
X40Y1563D02*
X46Y1563D01*
X63Y1563D02*
X69Y1563D01*
X2765Y1563D02*
X2772Y1563D01*
X1Y1562D02*
X8Y1562D01*
X16Y1562D02*
X22Y1562D01*
X40Y1562D02*
X46Y1562D01*
X63Y1562D02*
X69Y1562D01*
X2765Y1562D02*
X2772Y1562D01*
X1Y1561D02*
X8Y1561D01*
X16Y1561D02*
X22Y1561D01*
X40Y1561D02*
X46Y1561D01*
X63Y1561D02*
X69Y1561D01*
X2765Y1561D02*
X2772Y1561D01*
X1Y1560D02*
X8Y1560D01*
X16Y1560D02*
X22Y1560D01*
X41Y1560D02*
X45Y1560D01*
X63Y1560D02*
X69Y1560D01*
X2765Y1560D02*
X2772Y1560D01*
X1Y1559D02*
X8Y1559D01*
X16Y1559D02*
X22Y1559D01*
X42Y1559D02*
X44Y1559D01*
X63Y1559D02*
X69Y1559D01*
X2765Y1559D02*
X2772Y1559D01*
X1Y1558D02*
X8Y1558D01*
X16Y1558D02*
X22Y1558D01*
X63Y1558D02*
X69Y1558D01*
X2765Y1558D02*
X2772Y1558D01*
X1Y1557D02*
X8Y1557D01*
X16Y1557D02*
X22Y1557D01*
X63Y1557D02*
X69Y1557D01*
X2765Y1557D02*
X2772Y1557D01*
X1Y1556D02*
X8Y1556D01*
X16Y1556D02*
X22Y1556D01*
X63Y1556D02*
X69Y1556D01*
X2765Y1556D02*
X2772Y1556D01*
X1Y1555D02*
X8Y1555D01*
X16Y1555D02*
X22Y1555D01*
X63Y1555D02*
X69Y1555D01*
X2765Y1555D02*
X2772Y1555D01*
X1Y1554D02*
X8Y1554D01*
X17Y1554D02*
X22Y1554D01*
X64Y1554D02*
X69Y1554D01*
X2765Y1554D02*
X2772Y1554D01*
X1Y1553D02*
X8Y1553D01*
X17Y1553D02*
X21Y1553D01*
X64Y1553D02*
X68Y1553D01*
X2765Y1553D02*
X2772Y1553D01*
X1Y1552D02*
X8Y1552D01*
X19Y1552D02*
X19Y1552D01*
X66Y1552D02*
X67Y1552D01*
X2765Y1552D02*
X2772Y1552D01*
X1Y1551D02*
X8Y1551D01*
X2765Y1551D02*
X2772Y1551D01*
X1Y1550D02*
X8Y1550D01*
X2765Y1550D02*
X2772Y1550D01*
X1Y1549D02*
X8Y1549D01*
X2765Y1549D02*
X2772Y1549D01*
X1Y1548D02*
X8Y1548D01*
X2765Y1548D02*
X2772Y1548D01*
X1Y1547D02*
X8Y1547D01*
X2765Y1547D02*
X2772Y1547D01*
X1Y1546D02*
X8Y1546D01*
X2765Y1546D02*
X2772Y1546D01*
X1Y1545D02*
X8Y1545D01*
X2765Y1545D02*
X2772Y1545D01*
X1Y1544D02*
X8Y1544D01*
X2765Y1544D02*
X2772Y1544D01*
X1Y1543D02*
X8Y1543D01*
X2765Y1543D02*
X2772Y1543D01*
X1Y1542D02*
X8Y1542D01*
X2765Y1542D02*
X2772Y1542D01*
X1Y1541D02*
X8Y1541D01*
X2765Y1541D02*
X2772Y1541D01*
X1Y1540D02*
X8Y1540D01*
X2765Y1540D02*
X2772Y1540D01*
X1Y1539D02*
X8Y1539D01*
X2765Y1539D02*
X2772Y1539D01*
X1Y1538D02*
X8Y1538D01*
X2765Y1538D02*
X2772Y1538D01*
X1Y1537D02*
X8Y1537D01*
X2765Y1537D02*
X2772Y1537D01*
X1Y1536D02*
X8Y1536D01*
X2765Y1536D02*
X2772Y1536D01*
X1Y1535D02*
X8Y1535D01*
X2765Y1535D02*
X2772Y1535D01*
X1Y1534D02*
X8Y1534D01*
X2765Y1534D02*
X2772Y1534D01*
X1Y1533D02*
X8Y1533D01*
X2765Y1533D02*
X2772Y1533D01*
X1Y1532D02*
X8Y1532D01*
X17Y1532D02*
X63Y1532D01*
X2765Y1532D02*
X2772Y1532D01*
X1Y1531D02*
X8Y1531D01*
X17Y1531D02*
X65Y1531D01*
X2765Y1531D02*
X2772Y1531D01*
X1Y1530D02*
X8Y1530D01*
X16Y1530D02*
X66Y1530D01*
X2765Y1530D02*
X2772Y1530D01*
X1Y1529D02*
X8Y1529D01*
X16Y1529D02*
X67Y1529D01*
X2765Y1529D02*
X2772Y1529D01*
X1Y1528D02*
X8Y1528D01*
X17Y1528D02*
X68Y1528D01*
X2765Y1528D02*
X2772Y1528D01*
X1Y1527D02*
X8Y1527D01*
X17Y1527D02*
X68Y1527D01*
X2765Y1527D02*
X2772Y1527D01*
X1Y1526D02*
X8Y1526D01*
X19Y1526D02*
X69Y1526D01*
X2765Y1526D02*
X2772Y1526D01*
X1Y1525D02*
X8Y1525D01*
X62Y1525D02*
X69Y1525D01*
X2765Y1525D02*
X2772Y1525D01*
X1Y1524D02*
X8Y1524D01*
X63Y1524D02*
X69Y1524D01*
X2765Y1524D02*
X2772Y1524D01*
X1Y1523D02*
X8Y1523D01*
X63Y1523D02*
X69Y1523D01*
X2765Y1523D02*
X2772Y1523D01*
X1Y1522D02*
X8Y1522D01*
X63Y1522D02*
X69Y1522D01*
X2765Y1522D02*
X2772Y1522D01*
X1Y1521D02*
X8Y1521D01*
X63Y1521D02*
X69Y1521D01*
X2765Y1521D02*
X2772Y1521D01*
X1Y1520D02*
X8Y1520D01*
X63Y1520D02*
X69Y1520D01*
X2765Y1520D02*
X2772Y1520D01*
X1Y1519D02*
X8Y1519D01*
X63Y1519D02*
X69Y1519D01*
X2765Y1519D02*
X2772Y1519D01*
X1Y1518D02*
X8Y1518D01*
X63Y1518D02*
X69Y1518D01*
X2765Y1518D02*
X2772Y1518D01*
X1Y1517D02*
X8Y1517D01*
X63Y1517D02*
X69Y1517D01*
X2765Y1517D02*
X2772Y1517D01*
X1Y1516D02*
X8Y1516D01*
X63Y1516D02*
X69Y1516D01*
X2765Y1516D02*
X2772Y1516D01*
X1Y1515D02*
X8Y1515D01*
X63Y1515D02*
X69Y1515D01*
X2765Y1515D02*
X2772Y1515D01*
X1Y1514D02*
X8Y1514D01*
X63Y1514D02*
X69Y1514D01*
X2765Y1514D02*
X2772Y1514D01*
X1Y1513D02*
X8Y1513D01*
X62Y1513D02*
X69Y1513D01*
X2765Y1513D02*
X2772Y1513D01*
X1Y1512D02*
X8Y1512D01*
X48Y1512D02*
X69Y1512D01*
X2765Y1512D02*
X2772Y1512D01*
X1Y1511D02*
X8Y1511D01*
X47Y1511D02*
X68Y1511D01*
X2765Y1511D02*
X2772Y1511D01*
X1Y1510D02*
X8Y1510D01*
X46Y1510D02*
X68Y1510D01*
X2765Y1510D02*
X2772Y1510D01*
X1Y1509D02*
X8Y1509D01*
X46Y1509D02*
X67Y1509D01*
X2765Y1509D02*
X2772Y1509D01*
X1Y1508D02*
X8Y1508D01*
X46Y1508D02*
X66Y1508D01*
X2765Y1508D02*
X2772Y1508D01*
X1Y1507D02*
X8Y1507D01*
X46Y1507D02*
X65Y1507D01*
X2765Y1507D02*
X2772Y1507D01*
X1Y1506D02*
X8Y1506D01*
X47Y1506D02*
X63Y1506D01*
X2765Y1506D02*
X2772Y1506D01*
X1Y1505D02*
X8Y1505D01*
X2765Y1505D02*
X2772Y1505D01*
X1Y1504D02*
X8Y1504D01*
X2765Y1504D02*
X2772Y1504D01*
X1Y1503D02*
X8Y1503D01*
X2765Y1503D02*
X2772Y1503D01*
X1Y1502D02*
X8Y1502D01*
X2765Y1502D02*
X2772Y1502D01*
X1Y1501D02*
X8Y1501D01*
X2765Y1501D02*
X2772Y1501D01*
X1Y1500D02*
X8Y1500D01*
X2765Y1500D02*
X2772Y1500D01*
X1Y1499D02*
X8Y1499D01*
X2765Y1499D02*
X2772Y1499D01*
X1Y1498D02*
X8Y1498D01*
X2765Y1498D02*
X2772Y1498D01*
X1Y1497D02*
X8Y1497D01*
X2765Y1497D02*
X2772Y1497D01*
X1Y1496D02*
X8Y1496D01*
X2765Y1496D02*
X2772Y1496D01*
X1Y1495D02*
X8Y1495D01*
X2765Y1495D02*
X2772Y1495D01*
X1Y1494D02*
X8Y1494D01*
X2765Y1494D02*
X2772Y1494D01*
X1Y1493D02*
X8Y1493D01*
X2765Y1493D02*
X2772Y1493D01*
X1Y1492D02*
X8Y1492D01*
X2765Y1492D02*
X2772Y1492D01*
X1Y1491D02*
X8Y1491D01*
X2765Y1491D02*
X2772Y1491D01*
X1Y1490D02*
X8Y1490D01*
X2765Y1490D02*
X2772Y1490D01*
X1Y1489D02*
X8Y1489D01*
X2765Y1489D02*
X2772Y1489D01*
X1Y1488D02*
X8Y1488D01*
X2765Y1488D02*
X2772Y1488D01*
X1Y1487D02*
X8Y1487D01*
X2765Y1487D02*
X2772Y1487D01*
X1Y1486D02*
X8Y1486D01*
X2765Y1486D02*
X2772Y1486D01*
X1Y1485D02*
X8Y1485D01*
X2765Y1485D02*
X2772Y1485D01*
X1Y1484D02*
X8Y1484D01*
X473Y1484D02*
X494Y1484D01*
X517Y1484D02*
X520Y1484D01*
X2765Y1484D02*
X2772Y1484D01*
X1Y1483D02*
X8Y1483D01*
X471Y1483D02*
X496Y1483D01*
X516Y1483D02*
X521Y1483D01*
X2765Y1483D02*
X2772Y1483D01*
X1Y1482D02*
X8Y1482D01*
X470Y1482D02*
X497Y1482D01*
X516Y1482D02*
X522Y1482D01*
X2765Y1482D02*
X2772Y1482D01*
X1Y1481D02*
X8Y1481D01*
X470Y1481D02*
X497Y1481D01*
X516Y1481D02*
X522Y1481D01*
X2765Y1481D02*
X2772Y1481D01*
X1Y1480D02*
X8Y1480D01*
X469Y1480D02*
X498Y1480D01*
X516Y1480D02*
X522Y1480D01*
X2765Y1480D02*
X2772Y1480D01*
X1Y1479D02*
X8Y1479D01*
X469Y1479D02*
X498Y1479D01*
X516Y1479D02*
X522Y1479D01*
X2765Y1479D02*
X2772Y1479D01*
X1Y1478D02*
X8Y1478D01*
X469Y1478D02*
X498Y1478D01*
X516Y1478D02*
X522Y1478D01*
X2765Y1478D02*
X2772Y1478D01*
X1Y1477D02*
X8Y1477D01*
X469Y1477D02*
X475Y1477D01*
X492Y1477D02*
X498Y1477D01*
X516Y1477D02*
X522Y1477D01*
X2765Y1477D02*
X2772Y1477D01*
X1Y1476D02*
X8Y1476D01*
X469Y1476D02*
X475Y1476D01*
X492Y1476D02*
X498Y1476D01*
X516Y1476D02*
X522Y1476D01*
X2765Y1476D02*
X2772Y1476D01*
X1Y1475D02*
X8Y1475D01*
X469Y1475D02*
X475Y1475D01*
X492Y1475D02*
X498Y1475D01*
X516Y1475D02*
X522Y1475D01*
X2765Y1475D02*
X2772Y1475D01*
X1Y1474D02*
X8Y1474D01*
X469Y1474D02*
X475Y1474D01*
X492Y1474D02*
X498Y1474D01*
X516Y1474D02*
X522Y1474D01*
X2765Y1474D02*
X2772Y1474D01*
X1Y1473D02*
X8Y1473D01*
X469Y1473D02*
X475Y1473D01*
X492Y1473D02*
X498Y1473D01*
X516Y1473D02*
X522Y1473D01*
X2765Y1473D02*
X2772Y1473D01*
X1Y1472D02*
X8Y1472D01*
X469Y1472D02*
X475Y1472D01*
X492Y1472D02*
X498Y1472D01*
X516Y1472D02*
X522Y1472D01*
X2765Y1472D02*
X2772Y1472D01*
X1Y1471D02*
X8Y1471D01*
X469Y1471D02*
X475Y1471D01*
X492Y1471D02*
X498Y1471D01*
X516Y1471D02*
X522Y1471D01*
X2765Y1471D02*
X2772Y1471D01*
X1Y1470D02*
X8Y1470D01*
X469Y1470D02*
X475Y1470D01*
X492Y1470D02*
X498Y1470D01*
X516Y1470D02*
X522Y1470D01*
X2765Y1470D02*
X2772Y1470D01*
X1Y1469D02*
X8Y1469D01*
X469Y1469D02*
X475Y1469D01*
X492Y1469D02*
X498Y1469D01*
X516Y1469D02*
X522Y1469D01*
X2765Y1469D02*
X2772Y1469D01*
X1Y1468D02*
X8Y1468D01*
X469Y1468D02*
X475Y1468D01*
X492Y1468D02*
X498Y1468D01*
X516Y1468D02*
X522Y1468D01*
X2765Y1468D02*
X2772Y1468D01*
X1Y1467D02*
X8Y1467D01*
X469Y1467D02*
X475Y1467D01*
X492Y1467D02*
X498Y1467D01*
X516Y1467D02*
X522Y1467D01*
X2765Y1467D02*
X2772Y1467D01*
X1Y1466D02*
X8Y1466D01*
X469Y1466D02*
X475Y1466D01*
X492Y1466D02*
X498Y1466D01*
X516Y1466D02*
X522Y1466D01*
X2765Y1466D02*
X2772Y1466D01*
X1Y1465D02*
X8Y1465D01*
X469Y1465D02*
X475Y1465D01*
X492Y1465D02*
X498Y1465D01*
X516Y1465D02*
X522Y1465D01*
X2765Y1465D02*
X2772Y1465D01*
X1Y1464D02*
X8Y1464D01*
X469Y1464D02*
X475Y1464D01*
X492Y1464D02*
X498Y1464D01*
X516Y1464D02*
X522Y1464D01*
X2765Y1464D02*
X2772Y1464D01*
X1Y1463D02*
X8Y1463D01*
X469Y1463D02*
X475Y1463D01*
X492Y1463D02*
X498Y1463D01*
X516Y1463D02*
X522Y1463D01*
X2765Y1463D02*
X2772Y1463D01*
X1Y1462D02*
X8Y1462D01*
X469Y1462D02*
X475Y1462D01*
X492Y1462D02*
X498Y1462D01*
X516Y1462D02*
X522Y1462D01*
X2765Y1462D02*
X2772Y1462D01*
X1Y1461D02*
X8Y1461D01*
X124Y1461D02*
X145Y1461D01*
X324Y1461D02*
X345Y1461D01*
X469Y1461D02*
X475Y1461D01*
X492Y1461D02*
X498Y1461D01*
X516Y1461D02*
X522Y1461D01*
X2765Y1461D02*
X2772Y1461D01*
X1Y1460D02*
X8Y1460D01*
X117Y1460D02*
X152Y1460D01*
X317Y1460D02*
X352Y1460D01*
X469Y1460D02*
X475Y1460D01*
X492Y1460D02*
X498Y1460D01*
X516Y1460D02*
X522Y1460D01*
X2765Y1460D02*
X2772Y1460D01*
X1Y1459D02*
X8Y1459D01*
X113Y1459D02*
X157Y1459D01*
X313Y1459D02*
X357Y1459D01*
X469Y1459D02*
X475Y1459D01*
X492Y1459D02*
X498Y1459D01*
X516Y1459D02*
X522Y1459D01*
X2765Y1459D02*
X2772Y1459D01*
X1Y1458D02*
X8Y1458D01*
X109Y1458D02*
X160Y1458D01*
X309Y1458D02*
X360Y1458D01*
X469Y1458D02*
X475Y1458D01*
X492Y1458D02*
X498Y1458D01*
X516Y1458D02*
X522Y1458D01*
X2765Y1458D02*
X2772Y1458D01*
X1Y1457D02*
X8Y1457D01*
X106Y1457D02*
X164Y1457D01*
X306Y1457D02*
X364Y1457D01*
X469Y1457D02*
X475Y1457D01*
X492Y1457D02*
X522Y1457D01*
X2765Y1457D02*
X2772Y1457D01*
X1Y1456D02*
X8Y1456D01*
X103Y1456D02*
X166Y1456D01*
X303Y1456D02*
X366Y1456D01*
X469Y1456D02*
X475Y1456D01*
X492Y1456D02*
X522Y1456D01*
X2765Y1456D02*
X2772Y1456D01*
X1Y1455D02*
X8Y1455D01*
X100Y1455D02*
X169Y1455D01*
X300Y1455D02*
X369Y1455D01*
X469Y1455D02*
X475Y1455D01*
X493Y1455D02*
X522Y1455D01*
X2765Y1455D02*
X2772Y1455D01*
X1Y1454D02*
X8Y1454D01*
X97Y1454D02*
X172Y1454D01*
X297Y1454D02*
X372Y1454D01*
X469Y1454D02*
X475Y1454D01*
X493Y1454D02*
X522Y1454D01*
X2765Y1454D02*
X2772Y1454D01*
X1Y1453D02*
X8Y1453D01*
X95Y1453D02*
X174Y1453D01*
X295Y1453D02*
X374Y1453D01*
X469Y1453D02*
X475Y1453D01*
X494Y1453D02*
X522Y1453D01*
X2765Y1453D02*
X2772Y1453D01*
X1Y1452D02*
X8Y1452D01*
X93Y1452D02*
X176Y1452D01*
X293Y1452D02*
X376Y1452D01*
X469Y1452D02*
X474Y1452D01*
X494Y1452D02*
X522Y1452D01*
X2765Y1452D02*
X2772Y1452D01*
X1Y1451D02*
X8Y1451D01*
X91Y1451D02*
X178Y1451D01*
X291Y1451D02*
X378Y1451D01*
X470Y1451D02*
X473Y1451D01*
X496Y1451D02*
X522Y1451D01*
X2765Y1451D02*
X2772Y1451D01*
X1Y1450D02*
X8Y1450D01*
X89Y1450D02*
X180Y1450D01*
X289Y1450D02*
X380Y1450D01*
X2765Y1450D02*
X2772Y1450D01*
X1Y1449D02*
X8Y1449D01*
X87Y1449D02*
X182Y1449D01*
X287Y1449D02*
X382Y1449D01*
X2765Y1449D02*
X2772Y1449D01*
X1Y1448D02*
X8Y1448D01*
X86Y1448D02*
X184Y1448D01*
X286Y1448D02*
X384Y1448D01*
X2765Y1448D02*
X2772Y1448D01*
X1Y1447D02*
X8Y1447D01*
X84Y1447D02*
X185Y1447D01*
X284Y1447D02*
X385Y1447D01*
X2765Y1447D02*
X2772Y1447D01*
X1Y1446D02*
X8Y1446D01*
X82Y1446D02*
X187Y1446D01*
X282Y1446D02*
X387Y1446D01*
X2765Y1446D02*
X2772Y1446D01*
X1Y1445D02*
X8Y1445D01*
X81Y1445D02*
X124Y1445D01*
X146Y1445D02*
X189Y1445D01*
X281Y1445D02*
X324Y1445D01*
X346Y1445D02*
X389Y1445D01*
X2765Y1445D02*
X2772Y1445D01*
X1Y1444D02*
X8Y1444D01*
X79Y1444D02*
X117Y1444D01*
X152Y1444D02*
X190Y1444D01*
X279Y1444D02*
X317Y1444D01*
X352Y1444D02*
X390Y1444D01*
X2765Y1444D02*
X2772Y1444D01*
X1Y1443D02*
X8Y1443D01*
X78Y1443D02*
X113Y1443D01*
X156Y1443D02*
X191Y1443D01*
X278Y1443D02*
X313Y1443D01*
X356Y1443D02*
X391Y1443D01*
X2765Y1443D02*
X2772Y1443D01*
X1Y1442D02*
X8Y1442D01*
X76Y1442D02*
X109Y1442D01*
X160Y1442D02*
X193Y1442D01*
X276Y1442D02*
X309Y1442D01*
X360Y1442D02*
X393Y1442D01*
X2765Y1442D02*
X2772Y1442D01*
X1Y1441D02*
X8Y1441D01*
X75Y1441D02*
X107Y1441D01*
X163Y1441D02*
X194Y1441D01*
X275Y1441D02*
X307Y1441D01*
X363Y1441D02*
X394Y1441D01*
X2765Y1441D02*
X2772Y1441D01*
X1Y1440D02*
X8Y1440D01*
X74Y1440D02*
X104Y1440D01*
X165Y1440D02*
X196Y1440D01*
X274Y1440D02*
X304Y1440D01*
X365Y1440D02*
X395Y1440D01*
X2765Y1440D02*
X2772Y1440D01*
X1Y1439D02*
X8Y1439D01*
X72Y1439D02*
X101Y1439D01*
X168Y1439D02*
X197Y1439D01*
X272Y1439D02*
X301Y1439D01*
X368Y1439D02*
X397Y1439D01*
X2765Y1439D02*
X2772Y1439D01*
X1Y1438D02*
X8Y1438D01*
X71Y1438D02*
X99Y1438D01*
X170Y1438D02*
X198Y1438D01*
X271Y1438D02*
X299Y1438D01*
X370Y1438D02*
X398Y1438D01*
X2765Y1438D02*
X2772Y1438D01*
X1Y1437D02*
X8Y1437D01*
X70Y1437D02*
X97Y1437D01*
X172Y1437D02*
X199Y1437D01*
X270Y1437D02*
X297Y1437D01*
X372Y1437D02*
X399Y1437D01*
X2765Y1437D02*
X2772Y1437D01*
X1Y1436D02*
X8Y1436D01*
X69Y1436D02*
X95Y1436D01*
X126Y1436D02*
X144Y1436D01*
X174Y1436D02*
X200Y1436D01*
X269Y1436D02*
X295Y1436D01*
X326Y1436D02*
X344Y1436D01*
X374Y1436D02*
X400Y1436D01*
X2765Y1436D02*
X2772Y1436D01*
X1Y1435D02*
X8Y1435D01*
X68Y1435D02*
X94Y1435D01*
X120Y1435D02*
X150Y1435D01*
X176Y1435D02*
X201Y1435D01*
X268Y1435D02*
X293Y1435D01*
X320Y1435D02*
X350Y1435D01*
X376Y1435D02*
X401Y1435D01*
X2765Y1435D02*
X2772Y1435D01*
X1Y1434D02*
X8Y1434D01*
X67Y1434D02*
X92Y1434D01*
X116Y1434D02*
X153Y1434D01*
X177Y1434D02*
X202Y1434D01*
X267Y1434D02*
X292Y1434D01*
X316Y1434D02*
X353Y1434D01*
X377Y1434D02*
X402Y1434D01*
X473Y1434D02*
X491Y1434D01*
X499Y1434D02*
X518Y1434D01*
X2765Y1434D02*
X2772Y1434D01*
X1Y1433D02*
X8Y1433D01*
X66Y1433D02*
X90Y1433D01*
X113Y1433D02*
X157Y1433D01*
X179Y1433D02*
X203Y1433D01*
X266Y1433D02*
X290Y1433D01*
X313Y1433D02*
X357Y1433D01*
X379Y1433D02*
X403Y1433D01*
X471Y1433D02*
X493Y1433D01*
X497Y1433D02*
X519Y1433D01*
X2765Y1433D02*
X2772Y1433D01*
X1Y1432D02*
X8Y1432D01*
X65Y1432D02*
X89Y1432D01*
X110Y1432D02*
X159Y1432D01*
X181Y1432D02*
X204Y1432D01*
X265Y1432D02*
X289Y1432D01*
X310Y1432D02*
X359Y1432D01*
X381Y1432D02*
X404Y1432D01*
X470Y1432D02*
X520Y1432D01*
X2765Y1432D02*
X2772Y1432D01*
X1Y1431D02*
X8Y1431D01*
X64Y1431D02*
X87Y1431D01*
X107Y1431D02*
X162Y1431D01*
X182Y1431D02*
X205Y1431D01*
X264Y1431D02*
X287Y1431D01*
X307Y1431D02*
X362Y1431D01*
X382Y1431D02*
X405Y1431D01*
X470Y1431D02*
X521Y1431D01*
X2765Y1431D02*
X2772Y1431D01*
X1Y1430D02*
X8Y1430D01*
X63Y1430D02*
X86Y1430D01*
X105Y1430D02*
X125Y1430D01*
X144Y1430D02*
X164Y1430D01*
X183Y1430D02*
X206Y1430D01*
X263Y1430D02*
X286Y1430D01*
X305Y1430D02*
X325Y1430D01*
X344Y1430D02*
X364Y1430D01*
X383Y1430D02*
X406Y1430D01*
X469Y1430D02*
X521Y1430D01*
X2765Y1430D02*
X2772Y1430D01*
X1Y1429D02*
X8Y1429D01*
X62Y1429D02*
X85Y1429D01*
X103Y1429D02*
X119Y1429D01*
X150Y1429D02*
X166Y1429D01*
X185Y1429D02*
X207Y1429D01*
X262Y1429D02*
X285Y1429D01*
X303Y1429D02*
X319Y1429D01*
X350Y1429D02*
X366Y1429D01*
X385Y1429D02*
X407Y1429D01*
X469Y1429D02*
X522Y1429D01*
X2765Y1429D02*
X2772Y1429D01*
X1Y1428D02*
X8Y1428D01*
X61Y1428D02*
X83Y1428D01*
X101Y1428D02*
X115Y1428D01*
X154Y1428D02*
X168Y1428D01*
X186Y1428D02*
X208Y1428D01*
X261Y1428D02*
X283Y1428D01*
X301Y1428D02*
X315Y1428D01*
X354Y1428D02*
X368Y1428D01*
X386Y1428D02*
X408Y1428D01*
X469Y1428D02*
X522Y1428D01*
X2765Y1428D02*
X2772Y1428D01*
X1Y1427D02*
X8Y1427D01*
X60Y1427D02*
X82Y1427D01*
X99Y1427D02*
X112Y1427D01*
X157Y1427D02*
X170Y1427D01*
X187Y1427D02*
X209Y1427D01*
X260Y1427D02*
X282Y1427D01*
X299Y1427D02*
X312Y1427D01*
X357Y1427D02*
X370Y1427D01*
X387Y1427D02*
X409Y1427D01*
X469Y1427D02*
X475Y1427D01*
X490Y1427D02*
X500Y1427D01*
X516Y1427D02*
X522Y1427D01*
X2765Y1427D02*
X2772Y1427D01*
X1Y1426D02*
X8Y1426D01*
X60Y1426D02*
X81Y1426D01*
X98Y1426D02*
X109Y1426D01*
X160Y1426D02*
X172Y1426D01*
X188Y1426D02*
X210Y1426D01*
X260Y1426D02*
X281Y1426D01*
X298Y1426D02*
X309Y1426D01*
X360Y1426D02*
X372Y1426D01*
X388Y1426D02*
X410Y1426D01*
X469Y1426D02*
X475Y1426D01*
X491Y1426D02*
X499Y1426D01*
X516Y1426D02*
X522Y1426D01*
X2765Y1426D02*
X2772Y1426D01*
X1Y1425D02*
X8Y1425D01*
X59Y1425D02*
X80Y1425D01*
X96Y1425D02*
X107Y1425D01*
X162Y1425D02*
X173Y1425D01*
X189Y1425D02*
X210Y1425D01*
X259Y1425D02*
X280Y1425D01*
X296Y1425D02*
X307Y1425D01*
X362Y1425D02*
X373Y1425D01*
X389Y1425D02*
X410Y1425D01*
X469Y1425D02*
X475Y1425D01*
X492Y1425D02*
X498Y1425D01*
X516Y1425D02*
X522Y1425D01*
X2765Y1425D02*
X2772Y1425D01*
X1Y1424D02*
X8Y1424D01*
X58Y1424D02*
X79Y1424D01*
X94Y1424D02*
X105Y1424D01*
X165Y1424D02*
X175Y1424D01*
X191Y1424D02*
X211Y1424D01*
X258Y1424D02*
X279Y1424D01*
X294Y1424D02*
X305Y1424D01*
X365Y1424D02*
X375Y1424D01*
X391Y1424D02*
X411Y1424D01*
X469Y1424D02*
X475Y1424D01*
X492Y1424D02*
X498Y1424D01*
X516Y1424D02*
X522Y1424D01*
X2765Y1424D02*
X2772Y1424D01*
X1Y1423D02*
X8Y1423D01*
X57Y1423D02*
X78Y1423D01*
X93Y1423D02*
X103Y1423D01*
X167Y1423D02*
X176Y1423D01*
X192Y1423D02*
X212Y1423D01*
X257Y1423D02*
X278Y1423D01*
X293Y1423D02*
X303Y1423D01*
X367Y1423D02*
X376Y1423D01*
X392Y1423D02*
X412Y1423D01*
X469Y1423D02*
X475Y1423D01*
X492Y1423D02*
X498Y1423D01*
X516Y1423D02*
X522Y1423D01*
X2765Y1423D02*
X2772Y1423D01*
X1Y1422D02*
X8Y1422D01*
X57Y1422D02*
X77Y1422D01*
X92Y1422D02*
X101Y1422D01*
X168Y1422D02*
X178Y1422D01*
X193Y1422D02*
X213Y1422D01*
X257Y1422D02*
X277Y1422D01*
X292Y1422D02*
X301Y1422D01*
X368Y1422D02*
X378Y1422D01*
X393Y1422D02*
X413Y1422D01*
X469Y1422D02*
X475Y1422D01*
X492Y1422D02*
X498Y1422D01*
X516Y1422D02*
X522Y1422D01*
X2765Y1422D02*
X2772Y1422D01*
X1Y1421D02*
X8Y1421D01*
X56Y1421D02*
X76Y1421D01*
X90Y1421D02*
X99Y1421D01*
X170Y1421D02*
X179Y1421D01*
X194Y1421D02*
X213Y1421D01*
X256Y1421D02*
X276Y1421D01*
X290Y1421D02*
X299Y1421D01*
X370Y1421D02*
X379Y1421D01*
X394Y1421D02*
X413Y1421D01*
X469Y1421D02*
X475Y1421D01*
X492Y1421D02*
X498Y1421D01*
X516Y1421D02*
X522Y1421D01*
X2765Y1421D02*
X2772Y1421D01*
X1Y1420D02*
X8Y1420D01*
X55Y1420D02*
X75Y1420D01*
X89Y1420D02*
X98Y1420D01*
X172Y1420D02*
X180Y1420D01*
X195Y1420D02*
X214Y1420D01*
X255Y1420D02*
X275Y1420D01*
X289Y1420D02*
X298Y1420D01*
X372Y1420D02*
X380Y1420D01*
X395Y1420D02*
X414Y1420D01*
X469Y1420D02*
X475Y1420D01*
X492Y1420D02*
X498Y1420D01*
X516Y1420D02*
X522Y1420D01*
X2765Y1420D02*
X2772Y1420D01*
X1Y1419D02*
X8Y1419D01*
X54Y1419D02*
X74Y1419D01*
X88Y1419D02*
X96Y1419D01*
X173Y1419D02*
X181Y1419D01*
X196Y1419D02*
X215Y1419D01*
X254Y1419D02*
X274Y1419D01*
X288Y1419D02*
X296Y1419D01*
X373Y1419D02*
X381Y1419D01*
X396Y1419D02*
X415Y1419D01*
X469Y1419D02*
X475Y1419D01*
X492Y1419D02*
X498Y1419D01*
X516Y1419D02*
X522Y1419D01*
X2765Y1419D02*
X2772Y1419D01*
X1Y1418D02*
X8Y1418D01*
X54Y1418D02*
X73Y1418D01*
X87Y1418D02*
X95Y1418D01*
X175Y1418D02*
X183Y1418D01*
X196Y1418D02*
X216Y1418D01*
X254Y1418D02*
X273Y1418D01*
X287Y1418D02*
X295Y1418D01*
X375Y1418D02*
X382Y1418D01*
X396Y1418D02*
X416Y1418D01*
X469Y1418D02*
X475Y1418D01*
X492Y1418D02*
X498Y1418D01*
X516Y1418D02*
X522Y1418D01*
X2765Y1418D02*
X2772Y1418D01*
X1Y1417D02*
X8Y1417D01*
X53Y1417D02*
X72Y1417D01*
X86Y1417D02*
X93Y1417D01*
X176Y1417D02*
X184Y1417D01*
X197Y1417D02*
X216Y1417D01*
X253Y1417D02*
X272Y1417D01*
X286Y1417D02*
X293Y1417D01*
X376Y1417D02*
X384Y1417D01*
X397Y1417D02*
X416Y1417D01*
X469Y1417D02*
X475Y1417D01*
X492Y1417D02*
X498Y1417D01*
X516Y1417D02*
X522Y1417D01*
X2765Y1417D02*
X2772Y1417D01*
X1Y1416D02*
X8Y1416D01*
X52Y1416D02*
X71Y1416D01*
X85Y1416D02*
X92Y1416D01*
X177Y1416D02*
X185Y1416D01*
X198Y1416D02*
X217Y1416D01*
X252Y1416D02*
X271Y1416D01*
X285Y1416D02*
X292Y1416D01*
X377Y1416D02*
X385Y1416D01*
X398Y1416D02*
X417Y1416D01*
X469Y1416D02*
X475Y1416D01*
X492Y1416D02*
X498Y1416D01*
X516Y1416D02*
X522Y1416D01*
X2765Y1416D02*
X2772Y1416D01*
X1Y1415D02*
X8Y1415D01*
X52Y1415D02*
X70Y1415D01*
X84Y1415D02*
X91Y1415D01*
X179Y1415D02*
X186Y1415D01*
X199Y1415D02*
X217Y1415D01*
X252Y1415D02*
X270Y1415D01*
X284Y1415D02*
X291Y1415D01*
X378Y1415D02*
X386Y1415D01*
X399Y1415D02*
X417Y1415D01*
X469Y1415D02*
X475Y1415D01*
X492Y1415D02*
X498Y1415D01*
X516Y1415D02*
X522Y1415D01*
X2765Y1415D02*
X2772Y1415D01*
X1Y1414D02*
X8Y1414D01*
X51Y1414D02*
X69Y1414D01*
X83Y1414D02*
X90Y1414D01*
X180Y1414D02*
X187Y1414D01*
X200Y1414D02*
X218Y1414D01*
X251Y1414D02*
X269Y1414D01*
X283Y1414D02*
X290Y1414D01*
X380Y1414D02*
X387Y1414D01*
X400Y1414D02*
X418Y1414D01*
X469Y1414D02*
X475Y1414D01*
X492Y1414D02*
X498Y1414D01*
X516Y1414D02*
X522Y1414D01*
X2765Y1414D02*
X2772Y1414D01*
X1Y1413D02*
X8Y1413D01*
X51Y1413D02*
X69Y1413D01*
X82Y1413D02*
X89Y1413D01*
X181Y1413D02*
X188Y1413D01*
X201Y1413D02*
X219Y1413D01*
X251Y1413D02*
X269Y1413D01*
X282Y1413D02*
X289Y1413D01*
X381Y1413D02*
X388Y1413D01*
X401Y1413D02*
X419Y1413D01*
X469Y1413D02*
X475Y1413D01*
X492Y1413D02*
X498Y1413D01*
X516Y1413D02*
X522Y1413D01*
X2765Y1413D02*
X2772Y1413D01*
X1Y1412D02*
X8Y1412D01*
X50Y1412D02*
X68Y1412D01*
X81Y1412D02*
X87Y1412D01*
X182Y1412D02*
X188Y1412D01*
X201Y1412D02*
X219Y1412D01*
X250Y1412D02*
X268Y1412D01*
X281Y1412D02*
X287Y1412D01*
X382Y1412D02*
X388Y1412D01*
X401Y1412D02*
X419Y1412D01*
X469Y1412D02*
X475Y1412D01*
X492Y1412D02*
X498Y1412D01*
X516Y1412D02*
X522Y1412D01*
X2765Y1412D02*
X2772Y1412D01*
X1Y1411D02*
X8Y1411D01*
X49Y1411D02*
X67Y1411D01*
X80Y1411D02*
X86Y1411D01*
X183Y1411D02*
X189Y1411D01*
X202Y1411D02*
X220Y1411D01*
X249Y1411D02*
X267Y1411D01*
X280Y1411D02*
X286Y1411D01*
X383Y1411D02*
X389Y1411D01*
X402Y1411D02*
X420Y1411D01*
X469Y1411D02*
X475Y1411D01*
X492Y1411D02*
X498Y1411D01*
X516Y1411D02*
X522Y1411D01*
X2765Y1411D02*
X2772Y1411D01*
X1Y1410D02*
X8Y1410D01*
X49Y1410D02*
X66Y1410D01*
X79Y1410D02*
X85Y1410D01*
X184Y1410D02*
X190Y1410D01*
X203Y1410D02*
X220Y1410D01*
X249Y1410D02*
X266Y1410D01*
X279Y1410D02*
X285Y1410D01*
X384Y1410D02*
X390Y1410D01*
X403Y1410D02*
X420Y1410D01*
X469Y1410D02*
X475Y1410D01*
X492Y1410D02*
X498Y1410D01*
X516Y1410D02*
X522Y1410D01*
X2765Y1410D02*
X2772Y1410D01*
X1Y1409D02*
X8Y1409D01*
X48Y1409D02*
X66Y1409D01*
X78Y1409D02*
X85Y1409D01*
X185Y1409D02*
X191Y1409D01*
X204Y1409D02*
X221Y1409D01*
X248Y1409D02*
X266Y1409D01*
X278Y1409D02*
X285Y1409D01*
X385Y1409D02*
X391Y1409D01*
X404Y1409D02*
X421Y1409D01*
X469Y1409D02*
X475Y1409D01*
X492Y1409D02*
X498Y1409D01*
X516Y1409D02*
X522Y1409D01*
X2765Y1409D02*
X2772Y1409D01*
X1Y1408D02*
X8Y1408D01*
X48Y1408D02*
X65Y1408D01*
X77Y1408D02*
X84Y1408D01*
X186Y1408D02*
X192Y1408D01*
X204Y1408D02*
X221Y1408D01*
X248Y1408D02*
X265Y1408D01*
X277Y1408D02*
X284Y1408D01*
X386Y1408D02*
X392Y1408D01*
X404Y1408D02*
X421Y1408D01*
X469Y1408D02*
X475Y1408D01*
X493Y1408D02*
X497Y1408D01*
X516Y1408D02*
X522Y1408D01*
X2765Y1408D02*
X2772Y1408D01*
X1Y1407D02*
X8Y1407D01*
X47Y1407D02*
X64Y1407D01*
X77Y1407D02*
X83Y1407D01*
X187Y1407D02*
X193Y1407D01*
X205Y1407D02*
X222Y1407D01*
X247Y1407D02*
X264Y1407D01*
X277Y1407D02*
X283Y1407D01*
X386Y1407D02*
X393Y1407D01*
X405Y1407D02*
X422Y1407D01*
X469Y1407D02*
X475Y1407D01*
X495Y1407D02*
X495Y1407D01*
X516Y1407D02*
X522Y1407D01*
X2765Y1407D02*
X2772Y1407D01*
X1Y1406D02*
X8Y1406D01*
X47Y1406D02*
X64Y1406D01*
X76Y1406D02*
X82Y1406D01*
X187Y1406D02*
X193Y1406D01*
X205Y1406D02*
X222Y1406D01*
X247Y1406D02*
X264Y1406D01*
X276Y1406D02*
X282Y1406D01*
X387Y1406D02*
X393Y1406D01*
X405Y1406D02*
X422Y1406D01*
X469Y1406D02*
X475Y1406D01*
X516Y1406D02*
X522Y1406D01*
X2765Y1406D02*
X2772Y1406D01*
X1Y1405D02*
X8Y1405D01*
X47Y1405D02*
X63Y1405D01*
X75Y1405D02*
X81Y1405D01*
X188Y1405D02*
X194Y1405D01*
X206Y1405D02*
X223Y1405D01*
X247Y1405D02*
X263Y1405D01*
X275Y1405D02*
X281Y1405D01*
X388Y1405D02*
X394Y1405D01*
X406Y1405D02*
X423Y1405D01*
X469Y1405D02*
X475Y1405D01*
X516Y1405D02*
X522Y1405D01*
X2765Y1405D02*
X2772Y1405D01*
X1Y1404D02*
X8Y1404D01*
X46Y1404D02*
X63Y1404D01*
X75Y1404D02*
X80Y1404D01*
X189Y1404D02*
X195Y1404D01*
X207Y1404D02*
X223Y1404D01*
X246Y1404D02*
X263Y1404D01*
X274Y1404D02*
X280Y1404D01*
X389Y1404D02*
X395Y1404D01*
X407Y1404D02*
X423Y1404D01*
X469Y1404D02*
X475Y1404D01*
X516Y1404D02*
X522Y1404D01*
X2765Y1404D02*
X2772Y1404D01*
X1Y1403D02*
X8Y1403D01*
X46Y1403D02*
X62Y1403D01*
X74Y1403D02*
X80Y1403D01*
X190Y1403D02*
X195Y1403D01*
X207Y1403D02*
X224Y1403D01*
X246Y1403D02*
X262Y1403D01*
X274Y1403D02*
X280Y1403D01*
X390Y1403D02*
X395Y1403D01*
X407Y1403D02*
X424Y1403D01*
X469Y1403D02*
X475Y1403D01*
X516Y1403D02*
X522Y1403D01*
X2765Y1403D02*
X2772Y1403D01*
X1Y1402D02*
X8Y1402D01*
X45Y1402D02*
X62Y1402D01*
X73Y1402D02*
X79Y1402D01*
X190Y1402D02*
X196Y1402D01*
X208Y1402D02*
X224Y1402D01*
X245Y1402D02*
X261Y1402D01*
X273Y1402D02*
X279Y1402D01*
X390Y1402D02*
X396Y1402D01*
X408Y1402D02*
X424Y1402D01*
X469Y1402D02*
X474Y1402D01*
X516Y1402D02*
X521Y1402D01*
X2765Y1402D02*
X2772Y1402D01*
X1Y1401D02*
X8Y1401D01*
X45Y1401D02*
X61Y1401D01*
X73Y1401D02*
X78Y1401D01*
X191Y1401D02*
X197Y1401D01*
X208Y1401D02*
X225Y1401D01*
X245Y1401D02*
X261Y1401D01*
X273Y1401D02*
X278Y1401D01*
X391Y1401D02*
X397Y1401D01*
X408Y1401D02*
X425Y1401D01*
X470Y1401D02*
X473Y1401D01*
X517Y1401D02*
X521Y1401D01*
X2765Y1401D02*
X2772Y1401D01*
X1Y1400D02*
X8Y1400D01*
X44Y1400D02*
X61Y1400D01*
X72Y1400D02*
X78Y1400D01*
X192Y1400D02*
X197Y1400D01*
X209Y1400D02*
X225Y1400D01*
X244Y1400D02*
X261Y1400D01*
X272Y1400D02*
X278Y1400D01*
X392Y1400D02*
X397Y1400D01*
X409Y1400D02*
X425Y1400D01*
X2765Y1400D02*
X2772Y1400D01*
X1Y1399D02*
X8Y1399D01*
X44Y1399D02*
X60Y1399D01*
X71Y1399D02*
X77Y1399D01*
X192Y1399D02*
X198Y1399D01*
X209Y1399D02*
X225Y1399D01*
X244Y1399D02*
X260Y1399D01*
X271Y1399D02*
X277Y1399D01*
X392Y1399D02*
X398Y1399D01*
X409Y1399D02*
X425Y1399D01*
X2765Y1399D02*
X2772Y1399D01*
X1Y1398D02*
X8Y1398D01*
X44Y1398D02*
X60Y1398D01*
X71Y1398D02*
X76Y1398D01*
X193Y1398D02*
X198Y1398D01*
X210Y1398D02*
X226Y1398D01*
X244Y1398D02*
X260Y1398D01*
X271Y1398D02*
X276Y1398D01*
X393Y1398D02*
X398Y1398D01*
X410Y1398D02*
X426Y1398D01*
X2765Y1398D02*
X2772Y1398D01*
X1Y1397D02*
X8Y1397D01*
X43Y1397D02*
X59Y1397D01*
X70Y1397D02*
X76Y1397D01*
X193Y1397D02*
X199Y1397D01*
X210Y1397D02*
X226Y1397D01*
X243Y1397D02*
X259Y1397D01*
X270Y1397D02*
X276Y1397D01*
X393Y1397D02*
X399Y1397D01*
X410Y1397D02*
X426Y1397D01*
X2765Y1397D02*
X2772Y1397D01*
X1Y1396D02*
X8Y1396D01*
X43Y1396D02*
X59Y1396D01*
X70Y1396D02*
X75Y1396D01*
X194Y1396D02*
X199Y1396D01*
X211Y1396D02*
X226Y1396D01*
X243Y1396D02*
X259Y1396D01*
X270Y1396D02*
X275Y1396D01*
X394Y1396D02*
X399Y1396D01*
X411Y1396D02*
X426Y1396D01*
X2765Y1396D02*
X2772Y1396D01*
X1Y1395D02*
X8Y1395D01*
X42Y1395D02*
X58Y1395D01*
X69Y1395D02*
X75Y1395D01*
X195Y1395D02*
X200Y1395D01*
X211Y1395D02*
X227Y1395D01*
X242Y1395D02*
X258Y1395D01*
X269Y1395D02*
X275Y1395D01*
X395Y1395D02*
X400Y1395D01*
X411Y1395D02*
X427Y1395D01*
X2765Y1395D02*
X2772Y1395D01*
X1Y1394D02*
X8Y1394D01*
X42Y1394D02*
X58Y1394D01*
X69Y1394D02*
X74Y1394D01*
X195Y1394D02*
X200Y1394D01*
X211Y1394D02*
X227Y1394D01*
X242Y1394D02*
X258Y1394D01*
X269Y1394D02*
X274Y1394D01*
X395Y1394D02*
X400Y1394D01*
X411Y1394D02*
X427Y1394D01*
X2765Y1394D02*
X2772Y1394D01*
X1Y1393D02*
X8Y1393D01*
X42Y1393D02*
X57Y1393D01*
X68Y1393D02*
X74Y1393D01*
X195Y1393D02*
X201Y1393D01*
X212Y1393D02*
X228Y1393D01*
X242Y1393D02*
X257Y1393D01*
X268Y1393D02*
X274Y1393D01*
X395Y1393D02*
X401Y1393D01*
X412Y1393D02*
X428Y1393D01*
X2765Y1393D02*
X2772Y1393D01*
X1Y1392D02*
X8Y1392D01*
X41Y1392D02*
X57Y1392D01*
X68Y1392D02*
X73Y1392D01*
X196Y1392D02*
X201Y1392D01*
X212Y1392D02*
X228Y1392D01*
X241Y1392D02*
X257Y1392D01*
X268Y1392D02*
X273Y1392D01*
X396Y1392D02*
X401Y1392D01*
X412Y1392D02*
X428Y1392D01*
X2765Y1392D02*
X2772Y1392D01*
X1Y1391D02*
X8Y1391D01*
X41Y1391D02*
X57Y1391D01*
X68Y1391D02*
X73Y1391D01*
X196Y1391D02*
X202Y1391D01*
X213Y1391D02*
X228Y1391D01*
X241Y1391D02*
X257Y1391D01*
X268Y1391D02*
X273Y1391D01*
X396Y1391D02*
X402Y1391D01*
X413Y1391D02*
X428Y1391D01*
X2765Y1391D02*
X2772Y1391D01*
X1Y1390D02*
X8Y1390D01*
X41Y1390D02*
X56Y1390D01*
X67Y1390D02*
X72Y1390D01*
X197Y1390D02*
X202Y1390D01*
X213Y1390D02*
X228Y1390D01*
X241Y1390D02*
X256Y1390D01*
X267Y1390D02*
X272Y1390D01*
X397Y1390D02*
X402Y1390D01*
X413Y1390D02*
X428Y1390D01*
X2765Y1390D02*
X2772Y1390D01*
X1Y1389D02*
X8Y1389D01*
X41Y1389D02*
X56Y1389D01*
X67Y1389D02*
X72Y1389D01*
X197Y1389D02*
X202Y1389D01*
X213Y1389D02*
X229Y1389D01*
X241Y1389D02*
X256Y1389D01*
X267Y1389D02*
X272Y1389D01*
X397Y1389D02*
X402Y1389D01*
X413Y1389D02*
X429Y1389D01*
X2765Y1389D02*
X2772Y1389D01*
X1Y1388D02*
X8Y1388D01*
X40Y1388D02*
X56Y1388D01*
X66Y1388D02*
X72Y1388D01*
X198Y1388D02*
X203Y1388D01*
X214Y1388D02*
X229Y1388D01*
X240Y1388D02*
X256Y1388D01*
X266Y1388D02*
X272Y1388D01*
X398Y1388D02*
X403Y1388D01*
X414Y1388D02*
X429Y1388D01*
X2765Y1388D02*
X2772Y1388D01*
X1Y1387D02*
X8Y1387D01*
X40Y1387D02*
X55Y1387D01*
X66Y1387D02*
X71Y1387D01*
X198Y1387D02*
X203Y1387D01*
X214Y1387D02*
X229Y1387D01*
X240Y1387D02*
X255Y1387D01*
X266Y1387D02*
X271Y1387D01*
X398Y1387D02*
X403Y1387D01*
X414Y1387D02*
X429Y1387D01*
X2765Y1387D02*
X2772Y1387D01*
X1Y1386D02*
X8Y1386D01*
X40Y1386D02*
X55Y1386D01*
X66Y1386D02*
X71Y1386D01*
X198Y1386D02*
X204Y1386D01*
X214Y1386D02*
X229Y1386D01*
X240Y1386D02*
X255Y1386D01*
X266Y1386D02*
X271Y1386D01*
X398Y1386D02*
X404Y1386D01*
X414Y1386D02*
X429Y1386D01*
X2765Y1386D02*
X2772Y1386D01*
X1Y1385D02*
X8Y1385D01*
X40Y1385D02*
X55Y1385D01*
X65Y1385D02*
X71Y1385D01*
X199Y1385D02*
X204Y1385D01*
X214Y1385D02*
X230Y1385D01*
X240Y1385D02*
X255Y1385D01*
X265Y1385D02*
X271Y1385D01*
X399Y1385D02*
X404Y1385D01*
X414Y1385D02*
X430Y1385D01*
X2765Y1385D02*
X2772Y1385D01*
X1Y1384D02*
X8Y1384D01*
X39Y1384D02*
X55Y1384D01*
X65Y1384D02*
X70Y1384D01*
X199Y1384D02*
X204Y1384D01*
X215Y1384D02*
X230Y1384D01*
X239Y1384D02*
X255Y1384D01*
X265Y1384D02*
X270Y1384D01*
X399Y1384D02*
X404Y1384D01*
X415Y1384D02*
X430Y1384D01*
X470Y1384D02*
X473Y1384D01*
X2765Y1384D02*
X2772Y1384D01*
X1Y1383D02*
X8Y1383D01*
X39Y1383D02*
X54Y1383D01*
X65Y1383D02*
X70Y1383D01*
X199Y1383D02*
X204Y1383D01*
X215Y1383D02*
X230Y1383D01*
X239Y1383D02*
X254Y1383D01*
X265Y1383D02*
X270Y1383D01*
X399Y1383D02*
X404Y1383D01*
X415Y1383D02*
X430Y1383D01*
X469Y1383D02*
X475Y1383D01*
X2765Y1383D02*
X2772Y1383D01*
X1Y1382D02*
X8Y1382D01*
X39Y1382D02*
X54Y1382D01*
X65Y1382D02*
X70Y1382D01*
X200Y1382D02*
X205Y1382D01*
X215Y1382D02*
X230Y1382D01*
X239Y1382D02*
X254Y1382D01*
X265Y1382D02*
X270Y1382D01*
X400Y1382D02*
X405Y1382D01*
X415Y1382D02*
X430Y1382D01*
X469Y1382D02*
X477Y1382D01*
X2765Y1382D02*
X2772Y1382D01*
X1Y1381D02*
X8Y1381D01*
X39Y1381D02*
X54Y1381D01*
X64Y1381D02*
X69Y1381D01*
X200Y1381D02*
X205Y1381D01*
X215Y1381D02*
X231Y1381D01*
X239Y1381D02*
X254Y1381D01*
X264Y1381D02*
X269Y1381D01*
X400Y1381D02*
X405Y1381D01*
X415Y1381D02*
X430Y1381D01*
X469Y1381D02*
X478Y1381D01*
X2765Y1381D02*
X2772Y1381D01*
X1Y1380D02*
X8Y1380D01*
X39Y1380D02*
X54Y1380D01*
X64Y1380D02*
X69Y1380D01*
X200Y1380D02*
X205Y1380D01*
X216Y1380D02*
X231Y1380D01*
X239Y1380D02*
X254Y1380D01*
X264Y1380D02*
X269Y1380D01*
X400Y1380D02*
X405Y1380D01*
X416Y1380D02*
X431Y1380D01*
X469Y1380D02*
X480Y1380D01*
X2765Y1380D02*
X2772Y1380D01*
X1Y1379D02*
X8Y1379D01*
X38Y1379D02*
X54Y1379D01*
X64Y1379D02*
X69Y1379D01*
X200Y1379D02*
X205Y1379D01*
X216Y1379D02*
X231Y1379D01*
X238Y1379D02*
X254Y1379D01*
X264Y1379D02*
X269Y1379D01*
X400Y1379D02*
X405Y1379D01*
X416Y1379D02*
X431Y1379D01*
X469Y1379D02*
X482Y1379D01*
X2765Y1379D02*
X2772Y1379D01*
X1Y1378D02*
X8Y1378D01*
X38Y1378D02*
X53Y1378D01*
X64Y1378D02*
X69Y1378D01*
X201Y1378D02*
X206Y1378D01*
X216Y1378D02*
X231Y1378D01*
X238Y1378D02*
X253Y1378D01*
X264Y1378D02*
X269Y1378D01*
X401Y1378D02*
X406Y1378D01*
X416Y1378D02*
X431Y1378D01*
X470Y1378D02*
X483Y1378D01*
X2765Y1378D02*
X2772Y1378D01*
X1Y1377D02*
X8Y1377D01*
X38Y1377D02*
X53Y1377D01*
X63Y1377D02*
X68Y1377D01*
X201Y1377D02*
X206Y1377D01*
X216Y1377D02*
X231Y1377D01*
X238Y1377D02*
X253Y1377D01*
X263Y1377D02*
X268Y1377D01*
X401Y1377D02*
X406Y1377D01*
X416Y1377D02*
X431Y1377D01*
X472Y1377D02*
X485Y1377D01*
X2765Y1377D02*
X2772Y1377D01*
X1Y1376D02*
X8Y1376D01*
X38Y1376D02*
X53Y1376D01*
X63Y1376D02*
X68Y1376D01*
X201Y1376D02*
X206Y1376D01*
X216Y1376D02*
X231Y1376D01*
X238Y1376D02*
X253Y1376D01*
X263Y1376D02*
X268Y1376D01*
X401Y1376D02*
X406Y1376D01*
X416Y1376D02*
X431Y1376D01*
X474Y1376D02*
X487Y1376D01*
X2765Y1376D02*
X2772Y1376D01*
X1Y1375D02*
X8Y1375D01*
X38Y1375D02*
X53Y1375D01*
X63Y1375D02*
X68Y1375D01*
X201Y1375D02*
X206Y1375D01*
X216Y1375D02*
X231Y1375D01*
X238Y1375D02*
X253Y1375D01*
X263Y1375D02*
X268Y1375D01*
X401Y1375D02*
X406Y1375D01*
X416Y1375D02*
X431Y1375D01*
X476Y1375D02*
X489Y1375D01*
X2765Y1375D02*
X2772Y1375D01*
X1Y1374D02*
X8Y1374D01*
X38Y1374D02*
X53Y1374D01*
X63Y1374D02*
X68Y1374D01*
X201Y1374D02*
X206Y1374D01*
X216Y1374D02*
X232Y1374D01*
X238Y1374D02*
X253Y1374D01*
X263Y1374D02*
X268Y1374D01*
X401Y1374D02*
X406Y1374D01*
X416Y1374D02*
X432Y1374D01*
X477Y1374D02*
X490Y1374D01*
X2765Y1374D02*
X2772Y1374D01*
X1Y1373D02*
X8Y1373D01*
X38Y1373D02*
X53Y1373D01*
X63Y1373D02*
X68Y1373D01*
X201Y1373D02*
X206Y1373D01*
X217Y1373D02*
X232Y1373D01*
X238Y1373D02*
X253Y1373D01*
X263Y1373D02*
X268Y1373D01*
X401Y1373D02*
X406Y1373D01*
X417Y1373D02*
X432Y1373D01*
X479Y1373D02*
X492Y1373D01*
X2765Y1373D02*
X2772Y1373D01*
X1Y1372D02*
X8Y1372D01*
X38Y1372D02*
X53Y1372D01*
X63Y1372D02*
X68Y1372D01*
X202Y1372D02*
X207Y1372D01*
X217Y1372D02*
X232Y1372D01*
X238Y1372D02*
X253Y1372D01*
X263Y1372D02*
X268Y1372D01*
X402Y1372D02*
X407Y1372D01*
X417Y1372D02*
X432Y1372D01*
X481Y1372D02*
X494Y1372D01*
X2765Y1372D02*
X2772Y1372D01*
X1Y1371D02*
X8Y1371D01*
X37Y1371D02*
X52Y1371D01*
X63Y1371D02*
X68Y1371D01*
X202Y1371D02*
X207Y1371D01*
X217Y1371D02*
X232Y1371D01*
X237Y1371D02*
X252Y1371D01*
X263Y1371D02*
X268Y1371D01*
X402Y1371D02*
X407Y1371D01*
X417Y1371D02*
X432Y1371D01*
X482Y1371D02*
X495Y1371D01*
X2765Y1371D02*
X2772Y1371D01*
X1Y1370D02*
X8Y1370D01*
X37Y1370D02*
X52Y1370D01*
X62Y1370D02*
X67Y1370D01*
X202Y1370D02*
X207Y1370D01*
X217Y1370D02*
X232Y1370D01*
X237Y1370D02*
X252Y1370D01*
X262Y1370D02*
X267Y1370D01*
X402Y1370D02*
X407Y1370D01*
X417Y1370D02*
X432Y1370D01*
X484Y1370D02*
X497Y1370D01*
X2765Y1370D02*
X2772Y1370D01*
X1Y1369D02*
X8Y1369D01*
X37Y1369D02*
X52Y1369D01*
X62Y1369D02*
X67Y1369D01*
X202Y1369D02*
X207Y1369D01*
X217Y1369D02*
X232Y1369D01*
X237Y1369D02*
X252Y1369D01*
X262Y1369D02*
X267Y1369D01*
X402Y1369D02*
X407Y1369D01*
X417Y1369D02*
X432Y1369D01*
X486Y1369D02*
X499Y1369D01*
X2765Y1369D02*
X2772Y1369D01*
X1Y1368D02*
X8Y1368D01*
X37Y1368D02*
X52Y1368D01*
X62Y1368D02*
X67Y1368D01*
X202Y1368D02*
X207Y1368D01*
X217Y1368D02*
X232Y1368D01*
X237Y1368D02*
X252Y1368D01*
X262Y1368D02*
X267Y1368D01*
X402Y1368D02*
X407Y1368D01*
X417Y1368D02*
X432Y1368D01*
X487Y1368D02*
X500Y1368D01*
X2765Y1368D02*
X2772Y1368D01*
X1Y1367D02*
X8Y1367D01*
X37Y1367D02*
X52Y1367D01*
X62Y1367D02*
X67Y1367D01*
X202Y1367D02*
X207Y1367D01*
X217Y1367D02*
X232Y1367D01*
X237Y1367D02*
X252Y1367D01*
X262Y1367D02*
X267Y1367D01*
X402Y1367D02*
X407Y1367D01*
X417Y1367D02*
X432Y1367D01*
X489Y1367D02*
X502Y1367D01*
X2765Y1367D02*
X2772Y1367D01*
X1Y1366D02*
X8Y1366D01*
X37Y1366D02*
X52Y1366D01*
X62Y1366D02*
X67Y1366D01*
X202Y1366D02*
X207Y1366D01*
X217Y1366D02*
X232Y1366D01*
X237Y1366D02*
X252Y1366D01*
X262Y1366D02*
X267Y1366D01*
X402Y1366D02*
X407Y1366D01*
X417Y1366D02*
X432Y1366D01*
X491Y1366D02*
X504Y1366D01*
X2765Y1366D02*
X2772Y1366D01*
X1Y1365D02*
X8Y1365D01*
X37Y1365D02*
X52Y1365D01*
X62Y1365D02*
X67Y1365D01*
X202Y1365D02*
X207Y1365D01*
X217Y1365D02*
X232Y1365D01*
X237Y1365D02*
X252Y1365D01*
X262Y1365D02*
X267Y1365D01*
X402Y1365D02*
X407Y1365D01*
X417Y1365D02*
X432Y1365D01*
X493Y1365D02*
X506Y1365D01*
X2765Y1365D02*
X2772Y1365D01*
X1Y1364D02*
X8Y1364D01*
X37Y1364D02*
X52Y1364D01*
X62Y1364D02*
X67Y1364D01*
X202Y1364D02*
X207Y1364D01*
X217Y1364D02*
X232Y1364D01*
X237Y1364D02*
X252Y1364D01*
X262Y1364D02*
X267Y1364D01*
X402Y1364D02*
X407Y1364D01*
X417Y1364D02*
X432Y1364D01*
X494Y1364D02*
X507Y1364D01*
X2765Y1364D02*
X2772Y1364D01*
X1Y1363D02*
X8Y1363D01*
X496Y1363D02*
X509Y1363D01*
X2765Y1363D02*
X2772Y1363D01*
X1Y1362D02*
X8Y1362D01*
X498Y1362D02*
X511Y1362D01*
X2765Y1362D02*
X2772Y1362D01*
X1Y1361D02*
X8Y1361D01*
X499Y1361D02*
X512Y1361D01*
X2765Y1361D02*
X2772Y1361D01*
X1Y1360D02*
X8Y1360D01*
X501Y1360D02*
X514Y1360D01*
X2765Y1360D02*
X2772Y1360D01*
X1Y1359D02*
X8Y1359D01*
X503Y1359D02*
X516Y1359D01*
X2765Y1359D02*
X2772Y1359D01*
X1Y1358D02*
X8Y1358D01*
X505Y1358D02*
X518Y1358D01*
X2765Y1358D02*
X2772Y1358D01*
X1Y1357D02*
X8Y1357D01*
X506Y1357D02*
X519Y1357D01*
X2765Y1357D02*
X2772Y1357D01*
X1Y1356D02*
X8Y1356D01*
X508Y1356D02*
X521Y1356D01*
X2765Y1356D02*
X2772Y1356D01*
X1Y1355D02*
X8Y1355D01*
X510Y1355D02*
X521Y1355D01*
X2765Y1355D02*
X2772Y1355D01*
X1Y1354D02*
X8Y1354D01*
X511Y1354D02*
X522Y1354D01*
X2765Y1354D02*
X2772Y1354D01*
X1Y1353D02*
X8Y1353D01*
X513Y1353D02*
X522Y1353D01*
X2765Y1353D02*
X2772Y1353D01*
X1Y1352D02*
X8Y1352D01*
X515Y1352D02*
X521Y1352D01*
X2765Y1352D02*
X2772Y1352D01*
X1Y1351D02*
X8Y1351D01*
X517Y1351D02*
X521Y1351D01*
X2765Y1351D02*
X2772Y1351D01*
X1Y1350D02*
X8Y1350D01*
X2765Y1350D02*
X2772Y1350D01*
X1Y1349D02*
X8Y1349D01*
X2765Y1349D02*
X2772Y1349D01*
X1Y1348D02*
X8Y1348D01*
X2765Y1348D02*
X2772Y1348D01*
X1Y1347D02*
X8Y1347D01*
X2765Y1347D02*
X2772Y1347D01*
X1Y1346D02*
X8Y1346D01*
X2765Y1346D02*
X2772Y1346D01*
X1Y1345D02*
X8Y1345D01*
X2765Y1345D02*
X2772Y1345D01*
X1Y1344D02*
X8Y1344D01*
X2765Y1344D02*
X2772Y1344D01*
X1Y1343D02*
X8Y1343D01*
X2765Y1343D02*
X2772Y1343D01*
X1Y1342D02*
X8Y1342D01*
X2765Y1342D02*
X2772Y1342D01*
X1Y1341D02*
X8Y1341D01*
X2765Y1341D02*
X2772Y1341D01*
X1Y1340D02*
X8Y1340D01*
X2765Y1340D02*
X2772Y1340D01*
X1Y1339D02*
X8Y1339D01*
X2765Y1339D02*
X2772Y1339D01*
X1Y1338D02*
X8Y1338D01*
X2765Y1338D02*
X2772Y1338D01*
X1Y1337D02*
X8Y1337D01*
X2765Y1337D02*
X2772Y1337D01*
X1Y1336D02*
X8Y1336D01*
X2765Y1336D02*
X2772Y1336D01*
X1Y1335D02*
X8Y1335D01*
X2765Y1335D02*
X2772Y1335D01*
X1Y1334D02*
X8Y1334D01*
X500Y1334D02*
X520Y1334D01*
X2765Y1334D02*
X2772Y1334D01*
X1Y1333D02*
X8Y1333D01*
X499Y1333D02*
X521Y1333D01*
X2765Y1333D02*
X2772Y1333D01*
X1Y1332D02*
X8Y1332D01*
X498Y1332D02*
X522Y1332D01*
X2765Y1332D02*
X2772Y1332D01*
X1Y1331D02*
X8Y1331D01*
X498Y1331D02*
X522Y1331D01*
X2765Y1331D02*
X2772Y1331D01*
X1Y1330D02*
X8Y1330D01*
X498Y1330D02*
X522Y1330D01*
X2765Y1330D02*
X2772Y1330D01*
X1Y1329D02*
X8Y1329D01*
X498Y1329D02*
X522Y1329D01*
X2765Y1329D02*
X2772Y1329D01*
X1Y1328D02*
X8Y1328D01*
X498Y1328D02*
X522Y1328D01*
X2765Y1328D02*
X2772Y1328D01*
X1Y1327D02*
X8Y1327D01*
X498Y1327D02*
X504Y1327D01*
X516Y1327D02*
X522Y1327D01*
X2765Y1327D02*
X2772Y1327D01*
X1Y1326D02*
X8Y1326D01*
X498Y1326D02*
X504Y1326D01*
X516Y1326D02*
X522Y1326D01*
X2765Y1326D02*
X2772Y1326D01*
X1Y1325D02*
X8Y1325D01*
X498Y1325D02*
X504Y1325D01*
X516Y1325D02*
X522Y1325D01*
X2765Y1325D02*
X2772Y1325D01*
X1Y1324D02*
X8Y1324D01*
X498Y1324D02*
X504Y1324D01*
X516Y1324D02*
X522Y1324D01*
X2765Y1324D02*
X2772Y1324D01*
X1Y1323D02*
X8Y1323D01*
X498Y1323D02*
X504Y1323D01*
X516Y1323D02*
X522Y1323D01*
X2765Y1323D02*
X2772Y1323D01*
X1Y1322D02*
X8Y1322D01*
X498Y1322D02*
X504Y1322D01*
X516Y1322D02*
X522Y1322D01*
X2765Y1322D02*
X2772Y1322D01*
X1Y1321D02*
X8Y1321D01*
X498Y1321D02*
X504Y1321D01*
X516Y1321D02*
X522Y1321D01*
X2765Y1321D02*
X2772Y1321D01*
X1Y1320D02*
X8Y1320D01*
X498Y1320D02*
X504Y1320D01*
X516Y1320D02*
X522Y1320D01*
X2765Y1320D02*
X2772Y1320D01*
X1Y1319D02*
X8Y1319D01*
X498Y1319D02*
X504Y1319D01*
X516Y1319D02*
X522Y1319D01*
X2765Y1319D02*
X2772Y1319D01*
X1Y1318D02*
X8Y1318D01*
X498Y1318D02*
X504Y1318D01*
X516Y1318D02*
X522Y1318D01*
X2765Y1318D02*
X2772Y1318D01*
X1Y1317D02*
X8Y1317D01*
X498Y1317D02*
X504Y1317D01*
X516Y1317D02*
X522Y1317D01*
X2765Y1317D02*
X2772Y1317D01*
X1Y1316D02*
X8Y1316D01*
X498Y1316D02*
X504Y1316D01*
X516Y1316D02*
X522Y1316D01*
X2765Y1316D02*
X2772Y1316D01*
X1Y1315D02*
X8Y1315D01*
X498Y1315D02*
X504Y1315D01*
X516Y1315D02*
X522Y1315D01*
X2765Y1315D02*
X2772Y1315D01*
X1Y1314D02*
X8Y1314D01*
X498Y1314D02*
X504Y1314D01*
X516Y1314D02*
X522Y1314D01*
X2765Y1314D02*
X2772Y1314D01*
X1Y1313D02*
X8Y1313D01*
X498Y1313D02*
X504Y1313D01*
X516Y1313D02*
X522Y1313D01*
X2765Y1313D02*
X2772Y1313D01*
X1Y1312D02*
X8Y1312D01*
X498Y1312D02*
X504Y1312D01*
X516Y1312D02*
X522Y1312D01*
X2765Y1312D02*
X2772Y1312D01*
X1Y1311D02*
X8Y1311D01*
X498Y1311D02*
X504Y1311D01*
X516Y1311D02*
X522Y1311D01*
X2765Y1311D02*
X2772Y1311D01*
X1Y1310D02*
X8Y1310D01*
X471Y1310D02*
X473Y1310D01*
X498Y1310D02*
X504Y1310D01*
X516Y1310D02*
X522Y1310D01*
X2765Y1310D02*
X2772Y1310D01*
X1Y1309D02*
X8Y1309D01*
X469Y1309D02*
X474Y1309D01*
X498Y1309D02*
X504Y1309D01*
X516Y1309D02*
X522Y1309D01*
X2765Y1309D02*
X2772Y1309D01*
X1Y1308D02*
X8Y1308D01*
X469Y1308D02*
X474Y1308D01*
X498Y1308D02*
X504Y1308D01*
X516Y1308D02*
X522Y1308D01*
X2765Y1308D02*
X2772Y1308D01*
X1Y1307D02*
X8Y1307D01*
X469Y1307D02*
X475Y1307D01*
X498Y1307D02*
X505Y1307D01*
X515Y1307D02*
X522Y1307D01*
X2765Y1307D02*
X2772Y1307D01*
X1Y1306D02*
X8Y1306D01*
X469Y1306D02*
X522Y1306D01*
X2765Y1306D02*
X2772Y1306D01*
X1Y1305D02*
X8Y1305D01*
X469Y1305D02*
X522Y1305D01*
X2765Y1305D02*
X2772Y1305D01*
X1Y1304D02*
X8Y1304D01*
X469Y1304D02*
X522Y1304D01*
X2765Y1304D02*
X2772Y1304D01*
X1Y1303D02*
X8Y1303D01*
X469Y1303D02*
X522Y1303D01*
X2765Y1303D02*
X2772Y1303D01*
X1Y1302D02*
X8Y1302D01*
X469Y1302D02*
X521Y1302D01*
X2765Y1302D02*
X2772Y1302D01*
X1Y1301D02*
X8Y1301D01*
X470Y1301D02*
X521Y1301D01*
X2765Y1301D02*
X2772Y1301D01*
X1Y1300D02*
X8Y1300D01*
X2765Y1300D02*
X2772Y1300D01*
X1Y1299D02*
X8Y1299D01*
X2765Y1299D02*
X2772Y1299D01*
X1Y1298D02*
X8Y1298D01*
X2765Y1298D02*
X2772Y1298D01*
X1Y1297D02*
X8Y1297D01*
X2765Y1297D02*
X2772Y1297D01*
X1Y1296D02*
X8Y1296D01*
X2765Y1296D02*
X2772Y1296D01*
X1Y1295D02*
X8Y1295D01*
X2765Y1295D02*
X2772Y1295D01*
X1Y1294D02*
X8Y1294D01*
X2765Y1294D02*
X2772Y1294D01*
X1Y1293D02*
X8Y1293D01*
X2765Y1293D02*
X2772Y1293D01*
X1Y1292D02*
X8Y1292D01*
X2765Y1292D02*
X2772Y1292D01*
X1Y1291D02*
X8Y1291D01*
X2765Y1291D02*
X2772Y1291D01*
X1Y1290D02*
X8Y1290D01*
X2765Y1290D02*
X2772Y1290D01*
X1Y1289D02*
X8Y1289D01*
X2765Y1289D02*
X2772Y1289D01*
X1Y1288D02*
X8Y1288D01*
X2765Y1288D02*
X2772Y1288D01*
X1Y1287D02*
X8Y1287D01*
X2765Y1287D02*
X2772Y1287D01*
X1Y1286D02*
X8Y1286D01*
X2765Y1286D02*
X2772Y1286D01*
X1Y1285D02*
X8Y1285D01*
X2765Y1285D02*
X2772Y1285D01*
X1Y1284D02*
X8Y1284D01*
X500Y1284D02*
X520Y1284D01*
X2765Y1284D02*
X2772Y1284D01*
X1Y1283D02*
X8Y1283D01*
X499Y1283D02*
X521Y1283D01*
X2765Y1283D02*
X2772Y1283D01*
X1Y1282D02*
X8Y1282D01*
X498Y1282D02*
X522Y1282D01*
X2765Y1282D02*
X2772Y1282D01*
X1Y1281D02*
X8Y1281D01*
X498Y1281D02*
X522Y1281D01*
X2765Y1281D02*
X2772Y1281D01*
X1Y1280D02*
X8Y1280D01*
X498Y1280D02*
X522Y1280D01*
X2765Y1280D02*
X2772Y1280D01*
X1Y1279D02*
X8Y1279D01*
X499Y1279D02*
X522Y1279D01*
X2765Y1279D02*
X2772Y1279D01*
X1Y1278D02*
X8Y1278D01*
X500Y1278D02*
X522Y1278D01*
X2765Y1278D02*
X2772Y1278D01*
X1Y1277D02*
X8Y1277D01*
X516Y1277D02*
X522Y1277D01*
X2765Y1277D02*
X2772Y1277D01*
X1Y1276D02*
X8Y1276D01*
X516Y1276D02*
X522Y1276D01*
X2765Y1276D02*
X2772Y1276D01*
X1Y1275D02*
X8Y1275D01*
X516Y1275D02*
X522Y1275D01*
X2765Y1275D02*
X2772Y1275D01*
X1Y1274D02*
X8Y1274D01*
X516Y1274D02*
X522Y1274D01*
X2765Y1274D02*
X2772Y1274D01*
X1Y1273D02*
X8Y1273D01*
X516Y1273D02*
X522Y1273D01*
X2765Y1273D02*
X2772Y1273D01*
X1Y1272D02*
X8Y1272D01*
X516Y1272D02*
X522Y1272D01*
X2765Y1272D02*
X2772Y1272D01*
X1Y1271D02*
X8Y1271D01*
X516Y1271D02*
X522Y1271D01*
X2765Y1271D02*
X2772Y1271D01*
X1Y1270D02*
X8Y1270D01*
X469Y1270D02*
X522Y1270D01*
X2765Y1270D02*
X2772Y1270D01*
X1Y1269D02*
X8Y1269D01*
X469Y1269D02*
X522Y1269D01*
X2765Y1269D02*
X2772Y1269D01*
X1Y1268D02*
X8Y1268D01*
X469Y1268D02*
X522Y1268D01*
X2765Y1268D02*
X2772Y1268D01*
X1Y1267D02*
X8Y1267D01*
X469Y1267D02*
X522Y1267D01*
X2765Y1267D02*
X2772Y1267D01*
X1Y1266D02*
X8Y1266D01*
X469Y1266D02*
X522Y1266D01*
X2765Y1266D02*
X2772Y1266D01*
X1Y1265D02*
X8Y1265D01*
X469Y1265D02*
X522Y1265D01*
X2765Y1265D02*
X2772Y1265D01*
X1Y1264D02*
X8Y1264D01*
X469Y1264D02*
X522Y1264D01*
X2765Y1264D02*
X2772Y1264D01*
X1Y1263D02*
X8Y1263D01*
X469Y1263D02*
X475Y1263D01*
X516Y1263D02*
X522Y1263D01*
X2765Y1263D02*
X2772Y1263D01*
X1Y1262D02*
X8Y1262D01*
X469Y1262D02*
X475Y1262D01*
X516Y1262D02*
X522Y1262D01*
X2765Y1262D02*
X2772Y1262D01*
X1Y1261D02*
X8Y1261D01*
X469Y1261D02*
X475Y1261D01*
X516Y1261D02*
X522Y1261D01*
X2765Y1261D02*
X2772Y1261D01*
X1Y1260D02*
X8Y1260D01*
X469Y1260D02*
X475Y1260D01*
X516Y1260D02*
X522Y1260D01*
X2765Y1260D02*
X2772Y1260D01*
X1Y1259D02*
X8Y1259D01*
X469Y1259D02*
X475Y1259D01*
X516Y1259D02*
X522Y1259D01*
X2765Y1259D02*
X2772Y1259D01*
X1Y1258D02*
X8Y1258D01*
X469Y1258D02*
X475Y1258D01*
X516Y1258D02*
X522Y1258D01*
X2765Y1258D02*
X2772Y1258D01*
X1Y1257D02*
X8Y1257D01*
X469Y1257D02*
X475Y1257D01*
X516Y1257D02*
X522Y1257D01*
X2765Y1257D02*
X2772Y1257D01*
X1Y1256D02*
X8Y1256D01*
X469Y1256D02*
X475Y1256D01*
X516Y1256D02*
X522Y1256D01*
X2765Y1256D02*
X2772Y1256D01*
X1Y1255D02*
X8Y1255D01*
X469Y1255D02*
X475Y1255D01*
X516Y1255D02*
X522Y1255D01*
X2765Y1255D02*
X2772Y1255D01*
X1Y1254D02*
X8Y1254D01*
X469Y1254D02*
X475Y1254D01*
X516Y1254D02*
X522Y1254D01*
X2765Y1254D02*
X2772Y1254D01*
X1Y1253D02*
X8Y1253D01*
X469Y1253D02*
X475Y1253D01*
X516Y1253D02*
X522Y1253D01*
X2765Y1253D02*
X2772Y1253D01*
X1Y1252D02*
X8Y1252D01*
X469Y1252D02*
X474Y1252D01*
X516Y1252D02*
X521Y1252D01*
X2765Y1252D02*
X2772Y1252D01*
X1Y1251D02*
X8Y1251D01*
X470Y1251D02*
X473Y1251D01*
X517Y1251D02*
X521Y1251D01*
X2765Y1251D02*
X2772Y1251D01*
X1Y1250D02*
X8Y1250D01*
X2765Y1250D02*
X2772Y1250D01*
X1Y1249D02*
X8Y1249D01*
X2765Y1249D02*
X2772Y1249D01*
X1Y1248D02*
X8Y1248D01*
X2765Y1248D02*
X2772Y1248D01*
X1Y1247D02*
X8Y1247D01*
X2765Y1247D02*
X2772Y1247D01*
X1Y1246D02*
X8Y1246D01*
X2765Y1246D02*
X2772Y1246D01*
X1Y1245D02*
X8Y1245D01*
X2765Y1245D02*
X2772Y1245D01*
X1Y1244D02*
X8Y1244D01*
X2765Y1244D02*
X2772Y1244D01*
X1Y1243D02*
X8Y1243D01*
X2765Y1243D02*
X2772Y1243D01*
X1Y1242D02*
X8Y1242D01*
X2765Y1242D02*
X2772Y1242D01*
X1Y1241D02*
X8Y1241D01*
X2765Y1241D02*
X2772Y1241D01*
X1Y1240D02*
X8Y1240D01*
X2765Y1240D02*
X2772Y1240D01*
X1Y1239D02*
X8Y1239D01*
X2765Y1239D02*
X2772Y1239D01*
X1Y1238D02*
X8Y1238D01*
X2765Y1238D02*
X2772Y1238D01*
X1Y1237D02*
X8Y1237D01*
X2765Y1237D02*
X2772Y1237D01*
X1Y1236D02*
X8Y1236D01*
X2765Y1236D02*
X2772Y1236D01*
X1Y1235D02*
X8Y1235D01*
X2765Y1235D02*
X2772Y1235D01*
X1Y1234D02*
X8Y1234D01*
X2765Y1234D02*
X2772Y1234D01*
X1Y1233D02*
X8Y1233D01*
X2765Y1233D02*
X2772Y1233D01*
X1Y1232D02*
X8Y1232D01*
X2765Y1232D02*
X2772Y1232D01*
X1Y1231D02*
X8Y1231D01*
X2765Y1231D02*
X2772Y1231D01*
X1Y1230D02*
X8Y1230D01*
X2765Y1230D02*
X2772Y1230D01*
X1Y1229D02*
X8Y1229D01*
X2765Y1229D02*
X2772Y1229D01*
X1Y1228D02*
X8Y1228D01*
X2765Y1228D02*
X2772Y1228D01*
X1Y1227D02*
X8Y1227D01*
X2765Y1227D02*
X2772Y1227D01*
X1Y1226D02*
X8Y1226D01*
X2765Y1226D02*
X2772Y1226D01*
X1Y1225D02*
X8Y1225D01*
X2765Y1225D02*
X2772Y1225D01*
X1Y1224D02*
X8Y1224D01*
X2765Y1224D02*
X2772Y1224D01*
X1Y1223D02*
X8Y1223D01*
X2765Y1223D02*
X2772Y1223D01*
X1Y1222D02*
X8Y1222D01*
X2765Y1222D02*
X2772Y1222D01*
X1Y1221D02*
X8Y1221D01*
X2765Y1221D02*
X2772Y1221D01*
X1Y1220D02*
X8Y1220D01*
X2765Y1220D02*
X2772Y1220D01*
X1Y1219D02*
X8Y1219D01*
X2765Y1219D02*
X2772Y1219D01*
X1Y1218D02*
X8Y1218D01*
X2765Y1218D02*
X2772Y1218D01*
X1Y1217D02*
X8Y1217D01*
X2765Y1217D02*
X2772Y1217D01*
X1Y1216D02*
X8Y1216D01*
X2765Y1216D02*
X2772Y1216D01*
X1Y1215D02*
X8Y1215D01*
X2765Y1215D02*
X2772Y1215D01*
X1Y1214D02*
X8Y1214D01*
X2765Y1214D02*
X2772Y1214D01*
X1Y1213D02*
X8Y1213D01*
X2765Y1213D02*
X2772Y1213D01*
X1Y1212D02*
X8Y1212D01*
X2765Y1212D02*
X2772Y1212D01*
X1Y1211D02*
X8Y1211D01*
X2765Y1211D02*
X2772Y1211D01*
X1Y1210D02*
X8Y1210D01*
X2765Y1210D02*
X2772Y1210D01*
X1Y1209D02*
X8Y1209D01*
X2765Y1209D02*
X2772Y1209D01*
X1Y1208D02*
X8Y1208D01*
X2765Y1208D02*
X2772Y1208D01*
X1Y1207D02*
X8Y1207D01*
X2765Y1207D02*
X2772Y1207D01*
X1Y1206D02*
X8Y1206D01*
X2765Y1206D02*
X2772Y1206D01*
X1Y1205D02*
X8Y1205D01*
X2765Y1205D02*
X2772Y1205D01*
X1Y1204D02*
X8Y1204D01*
X2765Y1204D02*
X2772Y1204D01*
X1Y1203D02*
X8Y1203D01*
X2765Y1203D02*
X2772Y1203D01*
X1Y1202D02*
X8Y1202D01*
X2765Y1202D02*
X2772Y1202D01*
X1Y1201D02*
X8Y1201D01*
X2765Y1201D02*
X2772Y1201D01*
X1Y1200D02*
X8Y1200D01*
X2765Y1200D02*
X2772Y1200D01*
X1Y1199D02*
X8Y1199D01*
X2765Y1199D02*
X2772Y1199D01*
X1Y1198D02*
X8Y1198D01*
X2765Y1198D02*
X2772Y1198D01*
X1Y1197D02*
X8Y1197D01*
X2765Y1197D02*
X2772Y1197D01*
X1Y1196D02*
X8Y1196D01*
X2765Y1196D02*
X2772Y1196D01*
X1Y1195D02*
X8Y1195D01*
X2765Y1195D02*
X2772Y1195D01*
X1Y1194D02*
X8Y1194D01*
X2765Y1194D02*
X2772Y1194D01*
X1Y1193D02*
X8Y1193D01*
X2765Y1193D02*
X2772Y1193D01*
X1Y1192D02*
X8Y1192D01*
X2765Y1192D02*
X2772Y1192D01*
X1Y1191D02*
X8Y1191D01*
X2765Y1191D02*
X2772Y1191D01*
X1Y1190D02*
X8Y1190D01*
X2765Y1190D02*
X2772Y1190D01*
X1Y1189D02*
X8Y1189D01*
X2765Y1189D02*
X2772Y1189D01*
X1Y1188D02*
X8Y1188D01*
X2765Y1188D02*
X2772Y1188D01*
X1Y1187D02*
X8Y1187D01*
X2765Y1187D02*
X2772Y1187D01*
X1Y1186D02*
X8Y1186D01*
X2765Y1186D02*
X2772Y1186D01*
X1Y1185D02*
X8Y1185D01*
X2765Y1185D02*
X2772Y1185D01*
X1Y1184D02*
X8Y1184D01*
X501Y1184D02*
X520Y1184D01*
X2765Y1184D02*
X2772Y1184D01*
X1Y1183D02*
X8Y1183D01*
X490Y1183D02*
X521Y1183D01*
X2765Y1183D02*
X2772Y1183D01*
X1Y1182D02*
X8Y1182D01*
X488Y1182D02*
X522Y1182D01*
X2765Y1182D02*
X2772Y1182D01*
X1Y1181D02*
X8Y1181D01*
X487Y1181D02*
X522Y1181D01*
X2765Y1181D02*
X2772Y1181D01*
X1Y1180D02*
X8Y1180D01*
X486Y1180D02*
X522Y1180D01*
X2765Y1180D02*
X2772Y1180D01*
X1Y1179D02*
X8Y1179D01*
X485Y1179D02*
X521Y1179D01*
X2765Y1179D02*
X2772Y1179D01*
X1Y1178D02*
X8Y1178D01*
X484Y1178D02*
X520Y1178D01*
X2765Y1178D02*
X2772Y1178D01*
X1Y1177D02*
X8Y1177D01*
X484Y1177D02*
X507Y1177D01*
X511Y1177D02*
X519Y1177D01*
X2765Y1177D02*
X2772Y1177D01*
X1Y1176D02*
X8Y1176D01*
X484Y1176D02*
X491Y1176D01*
X498Y1176D02*
X505Y1176D01*
X512Y1176D02*
X519Y1176D01*
X2765Y1176D02*
X2772Y1176D01*
X1Y1175D02*
X8Y1175D01*
X483Y1175D02*
X490Y1175D01*
X498Y1175D02*
X504Y1175D01*
X513Y1175D02*
X520Y1175D01*
X2765Y1175D02*
X2772Y1175D01*
X1Y1174D02*
X8Y1174D01*
X483Y1174D02*
X489Y1174D01*
X498Y1174D02*
X504Y1174D01*
X513Y1174D02*
X520Y1174D01*
X2765Y1174D02*
X2772Y1174D01*
X1Y1173D02*
X8Y1173D01*
X483Y1173D02*
X489Y1173D01*
X498Y1173D02*
X504Y1173D01*
X514Y1173D02*
X521Y1173D01*
X2765Y1173D02*
X2772Y1173D01*
X1Y1172D02*
X8Y1172D01*
X483Y1172D02*
X489Y1172D01*
X498Y1172D02*
X504Y1172D01*
X514Y1172D02*
X522Y1172D01*
X2765Y1172D02*
X2772Y1172D01*
X1Y1171D02*
X8Y1171D01*
X483Y1171D02*
X489Y1171D01*
X498Y1171D02*
X504Y1171D01*
X515Y1171D02*
X522Y1171D01*
X2765Y1171D02*
X2772Y1171D01*
X1Y1170D02*
X8Y1170D01*
X483Y1170D02*
X489Y1170D01*
X498Y1170D02*
X504Y1170D01*
X516Y1170D02*
X522Y1170D01*
X2765Y1170D02*
X2772Y1170D01*
X1Y1169D02*
X8Y1169D01*
X483Y1169D02*
X489Y1169D01*
X498Y1169D02*
X504Y1169D01*
X516Y1169D02*
X522Y1169D01*
X2765Y1169D02*
X2772Y1169D01*
X1Y1168D02*
X8Y1168D01*
X483Y1168D02*
X489Y1168D01*
X498Y1168D02*
X504Y1168D01*
X516Y1168D02*
X522Y1168D01*
X2765Y1168D02*
X2772Y1168D01*
X1Y1167D02*
X8Y1167D01*
X483Y1167D02*
X489Y1167D01*
X498Y1167D02*
X504Y1167D01*
X516Y1167D02*
X522Y1167D01*
X2765Y1167D02*
X2772Y1167D01*
X1Y1166D02*
X8Y1166D01*
X483Y1166D02*
X489Y1166D01*
X498Y1166D02*
X504Y1166D01*
X516Y1166D02*
X522Y1166D01*
X2765Y1166D02*
X2772Y1166D01*
X1Y1165D02*
X8Y1165D01*
X483Y1165D02*
X489Y1165D01*
X498Y1165D02*
X504Y1165D01*
X516Y1165D02*
X522Y1165D01*
X2765Y1165D02*
X2772Y1165D01*
X1Y1164D02*
X8Y1164D01*
X483Y1164D02*
X489Y1164D01*
X498Y1164D02*
X504Y1164D01*
X516Y1164D02*
X522Y1164D01*
X2765Y1164D02*
X2772Y1164D01*
X1Y1163D02*
X8Y1163D01*
X483Y1163D02*
X489Y1163D01*
X498Y1163D02*
X504Y1163D01*
X516Y1163D02*
X522Y1163D01*
X2765Y1163D02*
X2772Y1163D01*
X1Y1162D02*
X8Y1162D01*
X483Y1162D02*
X489Y1162D01*
X498Y1162D02*
X504Y1162D01*
X516Y1162D02*
X522Y1162D01*
X2765Y1162D02*
X2772Y1162D01*
X1Y1161D02*
X8Y1161D01*
X483Y1161D02*
X489Y1161D01*
X498Y1161D02*
X504Y1161D01*
X516Y1161D02*
X522Y1161D01*
X2765Y1161D02*
X2772Y1161D01*
X1Y1160D02*
X8Y1160D01*
X483Y1160D02*
X489Y1160D01*
X498Y1160D02*
X504Y1160D01*
X516Y1160D02*
X522Y1160D01*
X2765Y1160D02*
X2772Y1160D01*
X1Y1159D02*
X8Y1159D01*
X484Y1159D02*
X489Y1159D01*
X498Y1159D02*
X504Y1159D01*
X515Y1159D02*
X522Y1159D01*
X2765Y1159D02*
X2772Y1159D01*
X1Y1158D02*
X8Y1158D01*
X484Y1158D02*
X488Y1158D01*
X498Y1158D02*
X505Y1158D01*
X515Y1158D02*
X521Y1158D01*
X2765Y1158D02*
X2772Y1158D01*
X1Y1157D02*
X8Y1157D01*
X486Y1157D02*
X486Y1157D01*
X499Y1157D02*
X521Y1157D01*
X2765Y1157D02*
X2772Y1157D01*
X1Y1156D02*
X8Y1156D01*
X499Y1156D02*
X521Y1156D01*
X2765Y1156D02*
X2772Y1156D01*
X1Y1155D02*
X8Y1155D01*
X500Y1155D02*
X520Y1155D01*
X2765Y1155D02*
X2772Y1155D01*
X1Y1154D02*
X8Y1154D01*
X500Y1154D02*
X519Y1154D01*
X2765Y1154D02*
X2772Y1154D01*
X1Y1153D02*
X8Y1153D01*
X501Y1153D02*
X519Y1153D01*
X2765Y1153D02*
X2772Y1153D01*
X1Y1152D02*
X8Y1152D01*
X502Y1152D02*
X517Y1152D01*
X2765Y1152D02*
X2772Y1152D01*
X1Y1151D02*
X8Y1151D01*
X504Y1151D02*
X516Y1151D01*
X2765Y1151D02*
X2772Y1151D01*
X1Y1150D02*
X8Y1150D01*
X2765Y1150D02*
X2772Y1150D01*
X1Y1149D02*
X8Y1149D01*
X2765Y1149D02*
X2772Y1149D01*
X1Y1148D02*
X8Y1148D01*
X2765Y1148D02*
X2772Y1148D01*
X1Y1147D02*
X8Y1147D01*
X2765Y1147D02*
X2772Y1147D01*
X1Y1146D02*
X8Y1146D01*
X2765Y1146D02*
X2772Y1146D01*
X1Y1145D02*
X8Y1145D01*
X2765Y1145D02*
X2772Y1145D01*
X1Y1144D02*
X8Y1144D01*
X2765Y1144D02*
X2772Y1144D01*
X1Y1143D02*
X8Y1143D01*
X2765Y1143D02*
X2772Y1143D01*
X1Y1142D02*
X8Y1142D01*
X2765Y1142D02*
X2772Y1142D01*
X1Y1141D02*
X8Y1141D01*
X2765Y1141D02*
X2772Y1141D01*
X1Y1140D02*
X8Y1140D01*
X2765Y1140D02*
X2772Y1140D01*
X1Y1139D02*
X8Y1139D01*
X2765Y1139D02*
X2772Y1139D01*
X1Y1138D02*
X8Y1138D01*
X2765Y1138D02*
X2772Y1138D01*
X1Y1137D02*
X8Y1137D01*
X2765Y1137D02*
X2772Y1137D01*
X1Y1136D02*
X8Y1136D01*
X2765Y1136D02*
X2772Y1136D01*
X1Y1135D02*
X8Y1135D01*
X2765Y1135D02*
X2772Y1135D01*
X1Y1134D02*
X8Y1134D01*
X485Y1134D02*
X527Y1134D01*
X2765Y1134D02*
X2772Y1134D01*
X1Y1133D02*
X8Y1133D01*
X37Y1133D02*
X52Y1133D01*
X62Y1133D02*
X67Y1133D01*
X202Y1133D02*
X207Y1133D01*
X217Y1133D02*
X232Y1133D01*
X237Y1133D02*
X252Y1133D01*
X262Y1133D02*
X267Y1133D01*
X402Y1133D02*
X407Y1133D01*
X417Y1133D02*
X432Y1133D01*
X484Y1133D02*
X529Y1133D01*
X2765Y1133D02*
X2772Y1133D01*
X1Y1132D02*
X8Y1132D01*
X37Y1132D02*
X52Y1132D01*
X62Y1132D02*
X67Y1132D01*
X202Y1132D02*
X207Y1132D01*
X217Y1132D02*
X232Y1132D01*
X237Y1132D02*
X252Y1132D01*
X262Y1132D02*
X267Y1132D01*
X402Y1132D02*
X407Y1132D01*
X417Y1132D02*
X432Y1132D01*
X484Y1132D02*
X531Y1132D01*
X2765Y1132D02*
X2772Y1132D01*
X1Y1131D02*
X8Y1131D01*
X37Y1131D02*
X52Y1131D01*
X62Y1131D02*
X67Y1131D01*
X202Y1131D02*
X207Y1131D01*
X217Y1131D02*
X232Y1131D01*
X237Y1131D02*
X252Y1131D01*
X262Y1131D02*
X267Y1131D01*
X402Y1131D02*
X407Y1131D01*
X417Y1131D02*
X432Y1131D01*
X483Y1131D02*
X532Y1131D01*
X2765Y1131D02*
X2772Y1131D01*
X1Y1130D02*
X8Y1130D01*
X37Y1130D02*
X52Y1130D01*
X62Y1130D02*
X67Y1130D01*
X202Y1130D02*
X207Y1130D01*
X217Y1130D02*
X232Y1130D01*
X237Y1130D02*
X252Y1130D01*
X262Y1130D02*
X267Y1130D01*
X402Y1130D02*
X407Y1130D01*
X417Y1130D02*
X432Y1130D01*
X484Y1130D02*
X533Y1130D01*
X2765Y1130D02*
X2772Y1130D01*
X1Y1129D02*
X8Y1129D01*
X37Y1129D02*
X52Y1129D01*
X62Y1129D02*
X67Y1129D01*
X202Y1129D02*
X207Y1129D01*
X217Y1129D02*
X232Y1129D01*
X237Y1129D02*
X252Y1129D01*
X262Y1129D02*
X267Y1129D01*
X402Y1129D02*
X407Y1129D01*
X417Y1129D02*
X432Y1129D01*
X484Y1129D02*
X533Y1129D01*
X2765Y1129D02*
X2772Y1129D01*
X1Y1128D02*
X8Y1128D01*
X37Y1128D02*
X52Y1128D01*
X62Y1128D02*
X67Y1128D01*
X202Y1128D02*
X207Y1128D01*
X217Y1128D02*
X232Y1128D01*
X237Y1128D02*
X252Y1128D01*
X262Y1128D02*
X267Y1128D01*
X402Y1128D02*
X407Y1128D01*
X417Y1128D02*
X432Y1128D01*
X485Y1128D02*
X534Y1128D01*
X2765Y1128D02*
X2772Y1128D01*
X1Y1127D02*
X8Y1127D01*
X37Y1127D02*
X52Y1127D01*
X62Y1127D02*
X67Y1127D01*
X202Y1127D02*
X207Y1127D01*
X217Y1127D02*
X232Y1127D01*
X237Y1127D02*
X252Y1127D01*
X262Y1127D02*
X267Y1127D01*
X402Y1127D02*
X407Y1127D01*
X417Y1127D02*
X432Y1127D01*
X488Y1127D02*
X496Y1127D01*
X506Y1127D02*
X515Y1127D01*
X527Y1127D02*
X535Y1127D01*
X2765Y1127D02*
X2772Y1127D01*
X1Y1126D02*
X8Y1126D01*
X37Y1126D02*
X53Y1126D01*
X63Y1126D02*
X68Y1126D01*
X202Y1126D02*
X207Y1126D01*
X217Y1126D02*
X232Y1126D01*
X237Y1126D02*
X252Y1126D01*
X263Y1126D02*
X268Y1126D01*
X402Y1126D02*
X407Y1126D01*
X417Y1126D02*
X432Y1126D01*
X487Y1126D02*
X495Y1126D01*
X507Y1126D02*
X516Y1126D01*
X528Y1126D02*
X536Y1126D01*
X2765Y1126D02*
X2772Y1126D01*
X1Y1125D02*
X8Y1125D01*
X38Y1125D02*
X53Y1125D01*
X63Y1125D02*
X68Y1125D01*
X202Y1125D02*
X207Y1125D01*
X217Y1125D02*
X232Y1125D01*
X238Y1125D02*
X253Y1125D01*
X263Y1125D02*
X268Y1125D01*
X402Y1125D02*
X407Y1125D01*
X417Y1125D02*
X432Y1125D01*
X486Y1125D02*
X494Y1125D01*
X508Y1125D02*
X516Y1125D01*
X529Y1125D02*
X536Y1125D01*
X2765Y1125D02*
X2772Y1125D01*
X1Y1124D02*
X8Y1124D01*
X38Y1124D02*
X53Y1124D01*
X63Y1124D02*
X68Y1124D01*
X201Y1124D02*
X206Y1124D01*
X217Y1124D02*
X232Y1124D01*
X238Y1124D02*
X253Y1124D01*
X263Y1124D02*
X268Y1124D01*
X401Y1124D02*
X406Y1124D01*
X417Y1124D02*
X432Y1124D01*
X485Y1124D02*
X493Y1124D01*
X509Y1124D02*
X517Y1124D01*
X530Y1124D02*
X536Y1124D01*
X2765Y1124D02*
X2772Y1124D01*
X1Y1123D02*
X8Y1123D01*
X38Y1123D02*
X53Y1123D01*
X63Y1123D02*
X68Y1123D01*
X201Y1123D02*
X206Y1123D01*
X216Y1123D02*
X232Y1123D01*
X238Y1123D02*
X253Y1123D01*
X263Y1123D02*
X268Y1123D01*
X401Y1123D02*
X406Y1123D01*
X416Y1123D02*
X431Y1123D01*
X485Y1123D02*
X492Y1123D01*
X510Y1123D02*
X518Y1123D01*
X530Y1123D02*
X536Y1123D01*
X2765Y1123D02*
X2772Y1123D01*
X1Y1122D02*
X8Y1122D01*
X38Y1122D02*
X53Y1122D01*
X63Y1122D02*
X68Y1122D01*
X201Y1122D02*
X206Y1122D01*
X216Y1122D02*
X231Y1122D01*
X238Y1122D02*
X253Y1122D01*
X263Y1122D02*
X268Y1122D01*
X401Y1122D02*
X406Y1122D01*
X416Y1122D02*
X431Y1122D01*
X484Y1122D02*
X492Y1122D01*
X511Y1122D02*
X518Y1122D01*
X530Y1122D02*
X536Y1122D01*
X2765Y1122D02*
X2772Y1122D01*
X1Y1121D02*
X8Y1121D01*
X38Y1121D02*
X53Y1121D01*
X63Y1121D02*
X68Y1121D01*
X201Y1121D02*
X206Y1121D01*
X216Y1121D02*
X231Y1121D01*
X238Y1121D02*
X253Y1121D01*
X263Y1121D02*
X268Y1121D01*
X401Y1121D02*
X406Y1121D01*
X416Y1121D02*
X431Y1121D01*
X484Y1121D02*
X491Y1121D01*
X511Y1121D02*
X518Y1121D01*
X530Y1121D02*
X537Y1121D01*
X2765Y1121D02*
X2772Y1121D01*
X1Y1120D02*
X8Y1120D01*
X38Y1120D02*
X53Y1120D01*
X64Y1120D02*
X69Y1120D01*
X201Y1120D02*
X206Y1120D01*
X216Y1120D02*
X231Y1120D01*
X238Y1120D02*
X253Y1120D01*
X263Y1120D02*
X269Y1120D01*
X401Y1120D02*
X406Y1120D01*
X416Y1120D02*
X431Y1120D01*
X484Y1120D02*
X490Y1120D01*
X512Y1120D02*
X519Y1120D01*
X530Y1120D02*
X537Y1120D01*
X2765Y1120D02*
X2772Y1120D01*
X1Y1119D02*
X8Y1119D01*
X38Y1119D02*
X53Y1119D01*
X64Y1119D02*
X69Y1119D01*
X201Y1119D02*
X206Y1119D01*
X216Y1119D02*
X231Y1119D01*
X238Y1119D02*
X253Y1119D01*
X264Y1119D02*
X269Y1119D01*
X400Y1119D02*
X406Y1119D01*
X416Y1119D02*
X431Y1119D01*
X483Y1119D02*
X489Y1119D01*
X513Y1119D02*
X519Y1119D01*
X530Y1119D02*
X537Y1119D01*
X2765Y1119D02*
X2772Y1119D01*
X1Y1118D02*
X8Y1118D01*
X38Y1118D02*
X54Y1118D01*
X64Y1118D02*
X69Y1118D01*
X200Y1118D02*
X205Y1118D01*
X216Y1118D02*
X231Y1118D01*
X238Y1118D02*
X254Y1118D01*
X264Y1118D02*
X269Y1118D01*
X400Y1118D02*
X405Y1118D01*
X416Y1118D02*
X431Y1118D01*
X483Y1118D02*
X489Y1118D01*
X513Y1118D02*
X519Y1118D01*
X530Y1118D02*
X537Y1118D01*
X2765Y1118D02*
X2772Y1118D01*
X1Y1117D02*
X8Y1117D01*
X39Y1117D02*
X54Y1117D01*
X64Y1117D02*
X69Y1117D01*
X200Y1117D02*
X205Y1117D01*
X216Y1117D02*
X231Y1117D01*
X239Y1117D02*
X254Y1117D01*
X264Y1117D02*
X269Y1117D01*
X400Y1117D02*
X405Y1117D01*
X415Y1117D02*
X431Y1117D01*
X483Y1117D02*
X489Y1117D01*
X513Y1117D02*
X519Y1117D01*
X530Y1117D02*
X537Y1117D01*
X2765Y1117D02*
X2772Y1117D01*
X1Y1116D02*
X8Y1116D01*
X39Y1116D02*
X54Y1116D01*
X64Y1116D02*
X70Y1116D01*
X200Y1116D02*
X205Y1116D01*
X215Y1116D02*
X230Y1116D01*
X239Y1116D02*
X254Y1116D01*
X264Y1116D02*
X270Y1116D01*
X400Y1116D02*
X405Y1116D01*
X415Y1116D02*
X430Y1116D01*
X483Y1116D02*
X489Y1116D01*
X513Y1116D02*
X519Y1116D01*
X530Y1116D02*
X537Y1116D01*
X2765Y1116D02*
X2772Y1116D01*
X1Y1115D02*
X8Y1115D01*
X39Y1115D02*
X54Y1115D01*
X65Y1115D02*
X70Y1115D01*
X199Y1115D02*
X205Y1115D01*
X215Y1115D02*
X230Y1115D01*
X239Y1115D02*
X254Y1115D01*
X265Y1115D02*
X270Y1115D01*
X399Y1115D02*
X405Y1115D01*
X415Y1115D02*
X430Y1115D01*
X483Y1115D02*
X489Y1115D01*
X513Y1115D02*
X519Y1115D01*
X530Y1115D02*
X537Y1115D01*
X2765Y1115D02*
X2772Y1115D01*
X1Y1114D02*
X8Y1114D01*
X39Y1114D02*
X55Y1114D01*
X65Y1114D02*
X70Y1114D01*
X199Y1114D02*
X204Y1114D01*
X215Y1114D02*
X230Y1114D01*
X239Y1114D02*
X255Y1114D01*
X265Y1114D02*
X270Y1114D01*
X399Y1114D02*
X404Y1114D01*
X415Y1114D02*
X430Y1114D01*
X483Y1114D02*
X489Y1114D01*
X513Y1114D02*
X519Y1114D01*
X530Y1114D02*
X537Y1114D01*
X2765Y1114D02*
X2772Y1114D01*
X1Y1113D02*
X8Y1113D01*
X39Y1113D02*
X55Y1113D01*
X65Y1113D02*
X70Y1113D01*
X199Y1113D02*
X204Y1113D01*
X215Y1113D02*
X230Y1113D01*
X239Y1113D02*
X255Y1113D01*
X265Y1113D02*
X270Y1113D01*
X399Y1113D02*
X404Y1113D01*
X414Y1113D02*
X430Y1113D01*
X483Y1113D02*
X489Y1113D01*
X513Y1113D02*
X519Y1113D01*
X530Y1113D02*
X537Y1113D01*
X2765Y1113D02*
X2772Y1113D01*
X1Y1112D02*
X8Y1112D01*
X40Y1112D02*
X55Y1112D01*
X66Y1112D02*
X71Y1112D01*
X199Y1112D02*
X204Y1112D01*
X214Y1112D02*
X230Y1112D01*
X240Y1112D02*
X255Y1112D01*
X266Y1112D02*
X271Y1112D01*
X399Y1112D02*
X404Y1112D01*
X414Y1112D02*
X430Y1112D01*
X483Y1112D02*
X490Y1112D01*
X513Y1112D02*
X519Y1112D01*
X530Y1112D02*
X537Y1112D01*
X2765Y1112D02*
X2772Y1112D01*
X1Y1111D02*
X8Y1111D01*
X40Y1111D02*
X55Y1111D01*
X66Y1111D02*
X71Y1111D01*
X198Y1111D02*
X203Y1111D01*
X214Y1111D02*
X229Y1111D01*
X240Y1111D02*
X255Y1111D01*
X266Y1111D02*
X271Y1111D01*
X398Y1111D02*
X403Y1111D01*
X414Y1111D02*
X429Y1111D01*
X484Y1111D02*
X490Y1111D01*
X512Y1111D02*
X519Y1111D01*
X530Y1111D02*
X537Y1111D01*
X2765Y1111D02*
X2772Y1111D01*
X1Y1110D02*
X8Y1110D01*
X40Y1110D02*
X56Y1110D01*
X66Y1110D02*
X71Y1110D01*
X198Y1110D02*
X203Y1110D01*
X214Y1110D02*
X229Y1110D01*
X240Y1110D02*
X256Y1110D01*
X266Y1110D02*
X271Y1110D01*
X398Y1110D02*
X403Y1110D01*
X414Y1110D02*
X429Y1110D01*
X484Y1110D02*
X491Y1110D01*
X512Y1110D02*
X518Y1110D01*
X530Y1110D02*
X537Y1110D01*
X2765Y1110D02*
X2772Y1110D01*
X1Y1109D02*
X8Y1109D01*
X40Y1109D02*
X56Y1109D01*
X67Y1109D02*
X72Y1109D01*
X197Y1109D02*
X203Y1109D01*
X213Y1109D02*
X229Y1109D01*
X240Y1109D02*
X256Y1109D01*
X267Y1109D02*
X272Y1109D01*
X397Y1109D02*
X403Y1109D01*
X413Y1109D02*
X429Y1109D01*
X484Y1109D02*
X492Y1109D01*
X511Y1109D02*
X518Y1109D01*
X530Y1109D02*
X537Y1109D01*
X2765Y1109D02*
X2772Y1109D01*
X1Y1108D02*
X8Y1108D01*
X41Y1108D02*
X56Y1108D01*
X67Y1108D02*
X72Y1108D01*
X197Y1108D02*
X202Y1108D01*
X213Y1108D02*
X229Y1108D01*
X241Y1108D02*
X256Y1108D01*
X267Y1108D02*
X272Y1108D01*
X397Y1108D02*
X402Y1108D01*
X413Y1108D02*
X429Y1108D01*
X485Y1108D02*
X493Y1108D01*
X510Y1108D02*
X518Y1108D01*
X530Y1108D02*
X537Y1108D01*
X2765Y1108D02*
X2772Y1108D01*
X1Y1107D02*
X8Y1107D01*
X41Y1107D02*
X57Y1107D01*
X67Y1107D02*
X73Y1107D01*
X197Y1107D02*
X202Y1107D01*
X213Y1107D02*
X228Y1107D01*
X241Y1107D02*
X257Y1107D01*
X267Y1107D02*
X273Y1107D01*
X397Y1107D02*
X402Y1107D01*
X413Y1107D02*
X428Y1107D01*
X485Y1107D02*
X495Y1107D01*
X507Y1107D02*
X517Y1107D01*
X531Y1107D02*
X536Y1107D01*
X2765Y1107D02*
X2772Y1107D01*
X1Y1106D02*
X8Y1106D01*
X41Y1106D02*
X57Y1106D01*
X68Y1106D02*
X73Y1106D01*
X196Y1106D02*
X202Y1106D01*
X212Y1106D02*
X228Y1106D01*
X241Y1106D02*
X257Y1106D01*
X268Y1106D02*
X273Y1106D01*
X396Y1106D02*
X402Y1106D01*
X412Y1106D02*
X428Y1106D01*
X486Y1106D02*
X516Y1106D01*
X531Y1106D02*
X536Y1106D01*
X2765Y1106D02*
X2772Y1106D01*
X1Y1105D02*
X8Y1105D01*
X42Y1105D02*
X57Y1105D01*
X68Y1105D02*
X74Y1105D01*
X196Y1105D02*
X201Y1105D01*
X212Y1105D02*
X228Y1105D01*
X242Y1105D02*
X257Y1105D01*
X268Y1105D02*
X274Y1105D01*
X396Y1105D02*
X401Y1105D01*
X412Y1105D02*
X428Y1105D01*
X487Y1105D02*
X515Y1105D01*
X531Y1105D02*
X536Y1105D01*
X2765Y1105D02*
X2772Y1105D01*
X1Y1104D02*
X8Y1104D01*
X42Y1104D02*
X58Y1104D01*
X69Y1104D02*
X74Y1104D01*
X195Y1104D02*
X201Y1104D01*
X212Y1104D02*
X227Y1104D01*
X242Y1104D02*
X258Y1104D01*
X269Y1104D02*
X274Y1104D01*
X395Y1104D02*
X401Y1104D01*
X412Y1104D02*
X427Y1104D01*
X488Y1104D02*
X514Y1104D01*
X532Y1104D02*
X535Y1104D01*
X2765Y1104D02*
X2772Y1104D01*
X1Y1103D02*
X8Y1103D01*
X42Y1103D02*
X58Y1103D01*
X69Y1103D02*
X74Y1103D01*
X195Y1103D02*
X200Y1103D01*
X211Y1103D02*
X227Y1103D01*
X242Y1103D02*
X258Y1103D01*
X269Y1103D02*
X274Y1103D01*
X395Y1103D02*
X400Y1103D01*
X411Y1103D02*
X427Y1103D01*
X489Y1103D02*
X513Y1103D01*
X2765Y1103D02*
X2772Y1103D01*
X1Y1102D02*
X8Y1102D01*
X43Y1102D02*
X58Y1102D01*
X70Y1102D02*
X75Y1102D01*
X194Y1102D02*
X200Y1102D01*
X211Y1102D02*
X227Y1102D01*
X243Y1102D02*
X258Y1102D01*
X270Y1102D02*
X275Y1102D01*
X394Y1102D02*
X400Y1102D01*
X411Y1102D02*
X427Y1102D01*
X490Y1102D02*
X512Y1102D01*
X2765Y1102D02*
X2772Y1102D01*
X1Y1101D02*
X8Y1101D01*
X43Y1101D02*
X59Y1101D01*
X70Y1101D02*
X76Y1101D01*
X194Y1101D02*
X199Y1101D01*
X210Y1101D02*
X226Y1101D01*
X243Y1101D02*
X259Y1101D01*
X270Y1101D02*
X275Y1101D01*
X394Y1101D02*
X399Y1101D01*
X410Y1101D02*
X426Y1101D01*
X491Y1101D02*
X511Y1101D01*
X2765Y1101D02*
X2772Y1101D01*
X1Y1100D02*
X8Y1100D01*
X43Y1100D02*
X59Y1100D01*
X71Y1100D02*
X76Y1100D01*
X193Y1100D02*
X199Y1100D01*
X210Y1100D02*
X226Y1100D01*
X243Y1100D02*
X259Y1100D01*
X271Y1100D02*
X276Y1100D01*
X393Y1100D02*
X399Y1100D01*
X410Y1100D02*
X426Y1100D01*
X2765Y1100D02*
X2772Y1100D01*
X1Y1099D02*
X8Y1099D01*
X44Y1099D02*
X60Y1099D01*
X71Y1099D02*
X77Y1099D01*
X193Y1099D02*
X198Y1099D01*
X210Y1099D02*
X226Y1099D01*
X244Y1099D02*
X260Y1099D01*
X271Y1099D02*
X277Y1099D01*
X393Y1099D02*
X398Y1099D01*
X409Y1099D02*
X426Y1099D01*
X2765Y1099D02*
X2772Y1099D01*
X1Y1098D02*
X8Y1098D01*
X44Y1098D02*
X60Y1098D01*
X72Y1098D02*
X77Y1098D01*
X192Y1098D02*
X198Y1098D01*
X209Y1098D02*
X225Y1098D01*
X244Y1098D02*
X260Y1098D01*
X272Y1098D02*
X277Y1098D01*
X392Y1098D02*
X398Y1098D01*
X409Y1098D02*
X425Y1098D01*
X2765Y1098D02*
X2772Y1098D01*
X1Y1097D02*
X8Y1097D01*
X44Y1097D02*
X61Y1097D01*
X72Y1097D02*
X78Y1097D01*
X191Y1097D02*
X197Y1097D01*
X209Y1097D02*
X225Y1097D01*
X244Y1097D02*
X261Y1097D01*
X272Y1097D02*
X278Y1097D01*
X391Y1097D02*
X397Y1097D01*
X409Y1097D02*
X425Y1097D01*
X2765Y1097D02*
X2772Y1097D01*
X1Y1096D02*
X8Y1096D01*
X45Y1096D02*
X61Y1096D01*
X73Y1096D02*
X79Y1096D01*
X191Y1096D02*
X196Y1096D01*
X208Y1096D02*
X224Y1096D01*
X245Y1096D02*
X261Y1096D01*
X273Y1096D02*
X279Y1096D01*
X391Y1096D02*
X396Y1096D01*
X408Y1096D02*
X424Y1096D01*
X2765Y1096D02*
X2772Y1096D01*
X1Y1095D02*
X8Y1095D01*
X45Y1095D02*
X62Y1095D01*
X74Y1095D02*
X79Y1095D01*
X190Y1095D02*
X196Y1095D01*
X208Y1095D02*
X224Y1095D01*
X245Y1095D02*
X262Y1095D01*
X274Y1095D02*
X279Y1095D01*
X390Y1095D02*
X396Y1095D01*
X408Y1095D02*
X424Y1095D01*
X2765Y1095D02*
X2772Y1095D01*
X1Y1094D02*
X8Y1094D01*
X46Y1094D02*
X62Y1094D01*
X74Y1094D02*
X80Y1094D01*
X189Y1094D02*
X195Y1094D01*
X207Y1094D02*
X224Y1094D01*
X246Y1094D02*
X262Y1094D01*
X274Y1094D02*
X280Y1094D01*
X389Y1094D02*
X395Y1094D01*
X407Y1094D02*
X423Y1094D01*
X2765Y1094D02*
X2772Y1094D01*
X1Y1093D02*
X8Y1093D01*
X46Y1093D02*
X63Y1093D01*
X75Y1093D02*
X81Y1093D01*
X189Y1093D02*
X194Y1093D01*
X206Y1093D02*
X223Y1093D01*
X246Y1093D02*
X263Y1093D01*
X275Y1093D02*
X281Y1093D01*
X388Y1093D02*
X394Y1093D01*
X406Y1093D02*
X423Y1093D01*
X2765Y1093D02*
X2772Y1093D01*
X1Y1092D02*
X8Y1092D01*
X47Y1092D02*
X64Y1092D01*
X76Y1092D02*
X82Y1092D01*
X188Y1092D02*
X194Y1092D01*
X206Y1092D02*
X223Y1092D01*
X247Y1092D02*
X263Y1092D01*
X276Y1092D02*
X281Y1092D01*
X388Y1092D02*
X394Y1092D01*
X406Y1092D02*
X423Y1092D01*
X2765Y1092D02*
X2772Y1092D01*
X1Y1091D02*
X8Y1091D01*
X47Y1091D02*
X64Y1091D01*
X76Y1091D02*
X82Y1091D01*
X187Y1091D02*
X193Y1091D01*
X205Y1091D02*
X222Y1091D01*
X247Y1091D02*
X264Y1091D01*
X276Y1091D02*
X282Y1091D01*
X387Y1091D02*
X393Y1091D01*
X405Y1091D02*
X422Y1091D01*
X2765Y1091D02*
X2772Y1091D01*
X1Y1090D02*
X8Y1090D01*
X48Y1090D02*
X65Y1090D01*
X77Y1090D02*
X83Y1090D01*
X186Y1090D02*
X192Y1090D01*
X205Y1090D02*
X222Y1090D01*
X248Y1090D02*
X265Y1090D01*
X277Y1090D02*
X283Y1090D01*
X386Y1090D02*
X392Y1090D01*
X405Y1090D02*
X422Y1090D01*
X2765Y1090D02*
X2772Y1090D01*
X1Y1089D02*
X8Y1089D01*
X48Y1089D02*
X65Y1089D01*
X78Y1089D02*
X84Y1089D01*
X185Y1089D02*
X191Y1089D01*
X204Y1089D02*
X221Y1089D01*
X248Y1089D02*
X265Y1089D01*
X278Y1089D02*
X284Y1089D01*
X385Y1089D02*
X391Y1089D01*
X404Y1089D02*
X421Y1089D01*
X2765Y1089D02*
X2772Y1089D01*
X1Y1088D02*
X8Y1088D01*
X49Y1088D02*
X66Y1088D01*
X79Y1088D02*
X85Y1088D01*
X184Y1088D02*
X191Y1088D01*
X203Y1088D02*
X221Y1088D01*
X249Y1088D02*
X266Y1088D01*
X279Y1088D02*
X285Y1088D01*
X384Y1088D02*
X391Y1088D01*
X403Y1088D02*
X421Y1088D01*
X2765Y1088D02*
X2772Y1088D01*
X1Y1087D02*
X8Y1087D01*
X49Y1087D02*
X67Y1087D01*
X79Y1087D02*
X86Y1087D01*
X183Y1087D02*
X190Y1087D01*
X203Y1087D02*
X220Y1087D01*
X249Y1087D02*
X267Y1087D01*
X279Y1087D02*
X286Y1087D01*
X383Y1087D02*
X390Y1087D01*
X403Y1087D02*
X420Y1087D01*
X2765Y1087D02*
X2772Y1087D01*
X1Y1086D02*
X8Y1086D01*
X50Y1086D02*
X67Y1086D01*
X80Y1086D02*
X87Y1086D01*
X182Y1086D02*
X189Y1086D01*
X202Y1086D02*
X220Y1086D01*
X250Y1086D02*
X267Y1086D01*
X280Y1086D02*
X287Y1086D01*
X382Y1086D02*
X389Y1086D01*
X402Y1086D02*
X420Y1086D01*
X2765Y1086D02*
X2772Y1086D01*
X1Y1085D02*
X8Y1085D01*
X50Y1085D02*
X68Y1085D01*
X81Y1085D02*
X88Y1085D01*
X181Y1085D02*
X188Y1085D01*
X201Y1085D02*
X219Y1085D01*
X250Y1085D02*
X268Y1085D01*
X281Y1085D02*
X288Y1085D01*
X381Y1085D02*
X388Y1085D01*
X401Y1085D02*
X419Y1085D01*
X2765Y1085D02*
X2772Y1085D01*
X1Y1084D02*
X8Y1084D01*
X51Y1084D02*
X69Y1084D01*
X82Y1084D02*
X89Y1084D01*
X180Y1084D02*
X187Y1084D01*
X200Y1084D02*
X218Y1084D01*
X251Y1084D02*
X269Y1084D01*
X282Y1084D02*
X289Y1084D01*
X380Y1084D02*
X387Y1084D01*
X400Y1084D02*
X418Y1084D01*
X492Y1084D02*
X505Y1084D01*
X517Y1084D02*
X520Y1084D01*
X2765Y1084D02*
X2772Y1084D01*
X1Y1083D02*
X8Y1083D01*
X52Y1083D02*
X70Y1083D01*
X83Y1083D02*
X90Y1083D01*
X179Y1083D02*
X186Y1083D01*
X200Y1083D02*
X218Y1083D01*
X252Y1083D02*
X270Y1083D01*
X283Y1083D02*
X290Y1083D01*
X379Y1083D02*
X386Y1083D01*
X400Y1083D02*
X418Y1083D01*
X490Y1083D02*
X506Y1083D01*
X516Y1083D02*
X521Y1083D01*
X2765Y1083D02*
X2772Y1083D01*
X1Y1082D02*
X8Y1082D01*
X52Y1082D02*
X71Y1082D01*
X84Y1082D02*
X91Y1082D01*
X178Y1082D02*
X185Y1082D01*
X199Y1082D02*
X217Y1082D01*
X252Y1082D02*
X270Y1082D01*
X284Y1082D02*
X291Y1082D01*
X378Y1082D02*
X385Y1082D01*
X399Y1082D02*
X417Y1082D01*
X489Y1082D02*
X507Y1082D01*
X516Y1082D02*
X522Y1082D01*
X2765Y1082D02*
X2772Y1082D01*
X1Y1081D02*
X8Y1081D01*
X53Y1081D02*
X71Y1081D01*
X85Y1081D02*
X93Y1081D01*
X177Y1081D02*
X184Y1081D01*
X198Y1081D02*
X217Y1081D01*
X253Y1081D02*
X271Y1081D01*
X285Y1081D02*
X293Y1081D01*
X377Y1081D02*
X384Y1081D01*
X398Y1081D02*
X417Y1081D01*
X488Y1081D02*
X507Y1081D01*
X516Y1081D02*
X522Y1081D01*
X2765Y1081D02*
X2772Y1081D01*
X1Y1080D02*
X8Y1080D01*
X53Y1080D02*
X72Y1080D01*
X86Y1080D02*
X94Y1080D01*
X175Y1080D02*
X183Y1080D01*
X197Y1080D02*
X216Y1080D01*
X253Y1080D02*
X272Y1080D01*
X286Y1080D02*
X294Y1080D01*
X375Y1080D02*
X383Y1080D01*
X397Y1080D02*
X416Y1080D01*
X487Y1080D02*
X507Y1080D01*
X516Y1080D02*
X522Y1080D01*
X2765Y1080D02*
X2772Y1080D01*
X1Y1079D02*
X8Y1079D01*
X54Y1079D02*
X73Y1079D01*
X87Y1079D02*
X95Y1079D01*
X174Y1079D02*
X182Y1079D01*
X196Y1079D02*
X215Y1079D01*
X254Y1079D02*
X273Y1079D01*
X287Y1079D02*
X295Y1079D01*
X374Y1079D02*
X382Y1079D01*
X396Y1079D02*
X415Y1079D01*
X486Y1079D02*
X507Y1079D01*
X516Y1079D02*
X522Y1079D01*
X2765Y1079D02*
X2772Y1079D01*
X1Y1078D02*
X8Y1078D01*
X55Y1078D02*
X74Y1078D01*
X88Y1078D02*
X97Y1078D01*
X173Y1078D02*
X181Y1078D01*
X195Y1078D02*
X215Y1078D01*
X255Y1078D02*
X274Y1078D01*
X288Y1078D02*
X297Y1078D01*
X373Y1078D02*
X381Y1078D01*
X395Y1078D02*
X415Y1078D01*
X486Y1078D02*
X507Y1078D01*
X516Y1078D02*
X522Y1078D01*
X2765Y1078D02*
X2772Y1078D01*
X1Y1077D02*
X8Y1077D01*
X55Y1077D02*
X75Y1077D01*
X90Y1077D02*
X98Y1077D01*
X171Y1077D02*
X180Y1077D01*
X194Y1077D02*
X214Y1077D01*
X255Y1077D02*
X275Y1077D01*
X290Y1077D02*
X298Y1077D01*
X371Y1077D02*
X380Y1077D01*
X394Y1077D02*
X414Y1077D01*
X485Y1077D02*
X493Y1077D01*
X501Y1077D02*
X507Y1077D01*
X516Y1077D02*
X522Y1077D01*
X2765Y1077D02*
X2772Y1077D01*
X1Y1076D02*
X8Y1076D01*
X56Y1076D02*
X76Y1076D01*
X91Y1076D02*
X100Y1076D01*
X169Y1076D02*
X178Y1076D01*
X193Y1076D02*
X213Y1076D01*
X256Y1076D02*
X276Y1076D01*
X291Y1076D02*
X300Y1076D01*
X369Y1076D02*
X378Y1076D01*
X393Y1076D02*
X413Y1076D01*
X484Y1076D02*
X492Y1076D01*
X501Y1076D02*
X507Y1076D01*
X516Y1076D02*
X522Y1076D01*
X2765Y1076D02*
X2772Y1076D01*
X1Y1075D02*
X8Y1075D01*
X57Y1075D02*
X77Y1075D01*
X92Y1075D02*
X102Y1075D01*
X168Y1075D02*
X177Y1075D01*
X192Y1075D02*
X212Y1075D01*
X257Y1075D02*
X277Y1075D01*
X292Y1075D02*
X302Y1075D01*
X368Y1075D02*
X377Y1075D01*
X392Y1075D02*
X412Y1075D01*
X484Y1075D02*
X491Y1075D01*
X501Y1075D02*
X507Y1075D01*
X516Y1075D02*
X522Y1075D01*
X2765Y1075D02*
X2772Y1075D01*
X1Y1074D02*
X8Y1074D01*
X58Y1074D02*
X78Y1074D01*
X94Y1074D02*
X104Y1074D01*
X166Y1074D02*
X176Y1074D01*
X191Y1074D02*
X212Y1074D01*
X258Y1074D02*
X278Y1074D01*
X294Y1074D02*
X304Y1074D01*
X366Y1074D02*
X376Y1074D01*
X391Y1074D02*
X412Y1074D01*
X484Y1074D02*
X490Y1074D01*
X501Y1074D02*
X507Y1074D01*
X516Y1074D02*
X522Y1074D01*
X2765Y1074D02*
X2772Y1074D01*
X1Y1073D02*
X8Y1073D01*
X58Y1073D02*
X79Y1073D01*
X95Y1073D02*
X106Y1073D01*
X164Y1073D02*
X174Y1073D01*
X190Y1073D02*
X211Y1073D01*
X258Y1073D02*
X279Y1073D01*
X295Y1073D02*
X306Y1073D01*
X364Y1073D02*
X374Y1073D01*
X390Y1073D02*
X411Y1073D01*
X483Y1073D02*
X490Y1073D01*
X501Y1073D02*
X507Y1073D01*
X516Y1073D02*
X522Y1073D01*
X2765Y1073D02*
X2772Y1073D01*
X1Y1072D02*
X8Y1072D01*
X59Y1072D02*
X80Y1072D01*
X97Y1072D02*
X108Y1072D01*
X162Y1072D02*
X173Y1072D01*
X189Y1072D02*
X210Y1072D01*
X259Y1072D02*
X280Y1072D01*
X297Y1072D02*
X308Y1072D01*
X362Y1072D02*
X373Y1072D01*
X389Y1072D02*
X410Y1072D01*
X483Y1072D02*
X489Y1072D01*
X501Y1072D02*
X507Y1072D01*
X516Y1072D02*
X522Y1072D01*
X2765Y1072D02*
X2772Y1072D01*
X1Y1071D02*
X8Y1071D01*
X60Y1071D02*
X81Y1071D01*
X98Y1071D02*
X110Y1071D01*
X159Y1071D02*
X171Y1071D01*
X188Y1071D02*
X209Y1071D01*
X260Y1071D02*
X281Y1071D01*
X298Y1071D02*
X310Y1071D01*
X359Y1071D02*
X371Y1071D01*
X388Y1071D02*
X409Y1071D01*
X483Y1071D02*
X489Y1071D01*
X501Y1071D02*
X507Y1071D01*
X516Y1071D02*
X522Y1071D01*
X2765Y1071D02*
X2772Y1071D01*
X1Y1070D02*
X8Y1070D01*
X61Y1070D02*
X83Y1070D01*
X100Y1070D02*
X113Y1070D01*
X156Y1070D02*
X169Y1070D01*
X187Y1070D02*
X208Y1070D01*
X261Y1070D02*
X283Y1070D01*
X300Y1070D02*
X313Y1070D01*
X356Y1070D02*
X369Y1070D01*
X387Y1070D02*
X408Y1070D01*
X483Y1070D02*
X489Y1070D01*
X501Y1070D02*
X507Y1070D01*
X516Y1070D02*
X522Y1070D01*
X2765Y1070D02*
X2772Y1070D01*
X1Y1069D02*
X8Y1069D01*
X62Y1069D02*
X84Y1069D01*
X102Y1069D02*
X117Y1069D01*
X152Y1069D02*
X167Y1069D01*
X185Y1069D02*
X208Y1069D01*
X262Y1069D02*
X284Y1069D01*
X302Y1069D02*
X317Y1069D01*
X352Y1069D02*
X367Y1069D01*
X385Y1069D02*
X408Y1069D01*
X483Y1069D02*
X489Y1069D01*
X501Y1069D02*
X507Y1069D01*
X516Y1069D02*
X522Y1069D01*
X2765Y1069D02*
X2772Y1069D01*
X1Y1068D02*
X8Y1068D01*
X63Y1068D02*
X85Y1068D01*
X104Y1068D02*
X121Y1068D01*
X148Y1068D02*
X165Y1068D01*
X184Y1068D02*
X207Y1068D01*
X263Y1068D02*
X285Y1068D01*
X304Y1068D02*
X321Y1068D01*
X348Y1068D02*
X365Y1068D01*
X384Y1068D02*
X407Y1068D01*
X483Y1068D02*
X489Y1068D01*
X501Y1068D02*
X507Y1068D01*
X516Y1068D02*
X522Y1068D01*
X2765Y1068D02*
X2772Y1068D01*
X1Y1067D02*
X8Y1067D01*
X64Y1067D02*
X86Y1067D01*
X106Y1067D02*
X129Y1067D01*
X141Y1067D02*
X163Y1067D01*
X183Y1067D02*
X206Y1067D01*
X264Y1067D02*
X286Y1067D01*
X306Y1067D02*
X329Y1067D01*
X341Y1067D02*
X363Y1067D01*
X383Y1067D02*
X406Y1067D01*
X483Y1067D02*
X489Y1067D01*
X501Y1067D02*
X507Y1067D01*
X516Y1067D02*
X522Y1067D01*
X2765Y1067D02*
X2772Y1067D01*
X1Y1066D02*
X8Y1066D01*
X64Y1066D02*
X88Y1066D01*
X108Y1066D02*
X161Y1066D01*
X181Y1066D02*
X205Y1066D01*
X264Y1066D02*
X288Y1066D01*
X308Y1066D02*
X361Y1066D01*
X381Y1066D02*
X405Y1066D01*
X483Y1066D02*
X489Y1066D01*
X501Y1066D02*
X507Y1066D01*
X516Y1066D02*
X522Y1066D01*
X2765Y1066D02*
X2772Y1066D01*
X1Y1065D02*
X8Y1065D01*
X65Y1065D02*
X89Y1065D01*
X111Y1065D02*
X158Y1065D01*
X180Y1065D02*
X204Y1065D01*
X265Y1065D02*
X289Y1065D01*
X311Y1065D02*
X358Y1065D01*
X380Y1065D02*
X404Y1065D01*
X483Y1065D02*
X489Y1065D01*
X501Y1065D02*
X507Y1065D01*
X516Y1065D02*
X522Y1065D01*
X2765Y1065D02*
X2772Y1065D01*
X1Y1064D02*
X8Y1064D01*
X66Y1064D02*
X91Y1064D01*
X114Y1064D02*
X156Y1064D01*
X178Y1064D02*
X203Y1064D01*
X266Y1064D02*
X291Y1064D01*
X314Y1064D02*
X356Y1064D01*
X378Y1064D02*
X403Y1064D01*
X483Y1064D02*
X489Y1064D01*
X501Y1064D02*
X507Y1064D01*
X516Y1064D02*
X522Y1064D01*
X2765Y1064D02*
X2772Y1064D01*
X1Y1063D02*
X8Y1063D01*
X67Y1063D02*
X93Y1063D01*
X118Y1063D02*
X152Y1063D01*
X177Y1063D02*
X202Y1063D01*
X267Y1063D02*
X293Y1063D01*
X318Y1063D02*
X352Y1063D01*
X377Y1063D02*
X402Y1063D01*
X483Y1063D02*
X489Y1063D01*
X501Y1063D02*
X507Y1063D01*
X516Y1063D02*
X522Y1063D01*
X2765Y1063D02*
X2772Y1063D01*
X1Y1062D02*
X8Y1062D01*
X69Y1062D02*
X94Y1062D01*
X122Y1062D02*
X147Y1062D01*
X175Y1062D02*
X201Y1062D01*
X269Y1062D02*
X294Y1062D01*
X322Y1062D02*
X347Y1062D01*
X375Y1062D02*
X401Y1062D01*
X483Y1062D02*
X490Y1062D01*
X501Y1062D02*
X507Y1062D01*
X516Y1062D02*
X522Y1062D01*
X2765Y1062D02*
X2772Y1062D01*
X1Y1061D02*
X8Y1061D01*
X70Y1061D02*
X96Y1061D01*
X130Y1061D02*
X140Y1061D01*
X173Y1061D02*
X200Y1061D01*
X270Y1061D02*
X296Y1061D01*
X330Y1061D02*
X340Y1061D01*
X373Y1061D02*
X400Y1061D01*
X484Y1061D02*
X490Y1061D01*
X501Y1061D02*
X507Y1061D01*
X515Y1061D02*
X522Y1061D01*
X2765Y1061D02*
X2772Y1061D01*
X1Y1060D02*
X8Y1060D01*
X71Y1060D02*
X98Y1060D01*
X171Y1060D02*
X199Y1060D01*
X271Y1060D02*
X298Y1060D01*
X371Y1060D02*
X399Y1060D01*
X484Y1060D02*
X491Y1060D01*
X501Y1060D02*
X507Y1060D01*
X514Y1060D02*
X521Y1060D01*
X2765Y1060D02*
X2772Y1060D01*
X1Y1059D02*
X8Y1059D01*
X72Y1059D02*
X100Y1059D01*
X169Y1059D02*
X197Y1059D01*
X272Y1059D02*
X300Y1059D01*
X369Y1059D02*
X397Y1059D01*
X484Y1059D02*
X492Y1059D01*
X501Y1059D02*
X507Y1059D01*
X514Y1059D02*
X521Y1059D01*
X2765Y1059D02*
X2772Y1059D01*
X1Y1058D02*
X8Y1058D01*
X73Y1058D02*
X102Y1058D01*
X167Y1058D02*
X196Y1058D01*
X273Y1058D02*
X302Y1058D01*
X367Y1058D02*
X396Y1058D01*
X485Y1058D02*
X493Y1058D01*
X501Y1058D02*
X507Y1058D01*
X513Y1058D02*
X521Y1058D01*
X2765Y1058D02*
X2772Y1058D01*
X1Y1057D02*
X8Y1057D01*
X74Y1057D02*
X105Y1057D01*
X164Y1057D02*
X195Y1057D01*
X274Y1057D02*
X305Y1057D01*
X364Y1057D02*
X395Y1057D01*
X485Y1057D02*
X520Y1057D01*
X2765Y1057D02*
X2772Y1057D01*
X1Y1056D02*
X8Y1056D01*
X76Y1056D02*
X108Y1056D01*
X162Y1056D02*
X194Y1056D01*
X276Y1056D02*
X308Y1056D01*
X362Y1056D02*
X394Y1056D01*
X486Y1056D02*
X519Y1056D01*
X2765Y1056D02*
X2772Y1056D01*
X1Y1055D02*
X8Y1055D01*
X77Y1055D02*
X111Y1055D01*
X158Y1055D02*
X192Y1055D01*
X277Y1055D02*
X311Y1055D01*
X358Y1055D02*
X392Y1055D01*
X487Y1055D02*
X518Y1055D01*
X2765Y1055D02*
X2772Y1055D01*
X1Y1054D02*
X8Y1054D01*
X78Y1054D02*
X115Y1054D01*
X154Y1054D02*
X191Y1054D01*
X278Y1054D02*
X315Y1054D01*
X354Y1054D02*
X391Y1054D01*
X488Y1054D02*
X517Y1054D01*
X2765Y1054D02*
X2772Y1054D01*
X1Y1053D02*
X8Y1053D01*
X80Y1053D02*
X120Y1053D01*
X150Y1053D02*
X190Y1053D01*
X280Y1053D02*
X320Y1053D01*
X350Y1053D02*
X390Y1053D01*
X489Y1053D02*
X516Y1053D01*
X2765Y1053D02*
X2772Y1053D01*
X1Y1052D02*
X8Y1052D01*
X81Y1052D02*
X127Y1052D01*
X142Y1052D02*
X188Y1052D01*
X281Y1052D02*
X327Y1052D01*
X342Y1052D02*
X388Y1052D01*
X490Y1052D02*
X515Y1052D01*
X2765Y1052D02*
X2772Y1052D01*
X1Y1051D02*
X8Y1051D01*
X83Y1051D02*
X186Y1051D01*
X283Y1051D02*
X386Y1051D01*
X492Y1051D02*
X514Y1051D01*
X2765Y1051D02*
X2772Y1051D01*
X1Y1050D02*
X8Y1050D01*
X85Y1050D02*
X185Y1050D01*
X285Y1050D02*
X385Y1050D01*
X2765Y1050D02*
X2772Y1050D01*
X1Y1049D02*
X8Y1049D01*
X86Y1049D02*
X183Y1049D01*
X286Y1049D02*
X383Y1049D01*
X2765Y1049D02*
X2772Y1049D01*
X1Y1048D02*
X8Y1048D01*
X88Y1048D02*
X181Y1048D01*
X288Y1048D02*
X381Y1048D01*
X2765Y1048D02*
X2772Y1048D01*
X1Y1047D02*
X8Y1047D01*
X90Y1047D02*
X179Y1047D01*
X290Y1047D02*
X379Y1047D01*
X2765Y1047D02*
X2772Y1047D01*
X1Y1046D02*
X8Y1046D01*
X92Y1046D02*
X177Y1046D01*
X292Y1046D02*
X377Y1046D01*
X2765Y1046D02*
X2772Y1046D01*
X1Y1045D02*
X8Y1045D01*
X94Y1045D02*
X175Y1045D01*
X294Y1045D02*
X375Y1045D01*
X2765Y1045D02*
X2772Y1045D01*
X1Y1044D02*
X8Y1044D01*
X96Y1044D02*
X173Y1044D01*
X296Y1044D02*
X373Y1044D01*
X2765Y1044D02*
X2772Y1044D01*
X1Y1043D02*
X8Y1043D01*
X99Y1043D02*
X171Y1043D01*
X299Y1043D02*
X371Y1043D01*
X2765Y1043D02*
X2772Y1043D01*
X1Y1042D02*
X8Y1042D01*
X101Y1042D02*
X168Y1042D01*
X301Y1042D02*
X368Y1042D01*
X2765Y1042D02*
X2772Y1042D01*
X1Y1041D02*
X8Y1041D01*
X104Y1041D02*
X165Y1041D01*
X304Y1041D02*
X365Y1041D01*
X2765Y1041D02*
X2772Y1041D01*
X1Y1040D02*
X8Y1040D01*
X107Y1040D02*
X162Y1040D01*
X307Y1040D02*
X362Y1040D01*
X2765Y1040D02*
X2772Y1040D01*
X1Y1039D02*
X8Y1039D01*
X110Y1039D02*
X159Y1039D01*
X310Y1039D02*
X359Y1039D01*
X2765Y1039D02*
X2772Y1039D01*
X1Y1038D02*
X8Y1038D01*
X115Y1038D02*
X155Y1038D01*
X315Y1038D02*
X355Y1038D01*
X2765Y1038D02*
X2772Y1038D01*
X1Y1037D02*
X8Y1037D01*
X120Y1037D02*
X150Y1037D01*
X320Y1037D02*
X350Y1037D01*
X2765Y1037D02*
X2772Y1037D01*
X1Y1036D02*
X8Y1036D01*
X128Y1036D02*
X141Y1036D01*
X328Y1036D02*
X341Y1036D01*
X2765Y1036D02*
X2772Y1036D01*
X1Y1035D02*
X8Y1035D01*
X516Y1035D02*
X519Y1035D01*
X2765Y1035D02*
X2772Y1035D01*
X1Y1034D02*
X8Y1034D01*
X491Y1034D02*
X521Y1034D01*
X2765Y1034D02*
X2772Y1034D01*
X1Y1033D02*
X8Y1033D01*
X488Y1033D02*
X521Y1033D01*
X2765Y1033D02*
X2772Y1033D01*
X1Y1032D02*
X8Y1032D01*
X486Y1032D02*
X522Y1032D01*
X2765Y1032D02*
X2772Y1032D01*
X1Y1031D02*
X8Y1031D01*
X485Y1031D02*
X522Y1031D01*
X2765Y1031D02*
X2772Y1031D01*
X1Y1030D02*
X8Y1030D01*
X485Y1030D02*
X521Y1030D01*
X2765Y1030D02*
X2772Y1030D01*
X1Y1029D02*
X8Y1029D01*
X484Y1029D02*
X520Y1029D01*
X2765Y1029D02*
X2772Y1029D01*
X1Y1028D02*
X8Y1028D01*
X484Y1028D02*
X516Y1028D01*
X2765Y1028D02*
X2772Y1028D01*
X1Y1027D02*
X8Y1027D01*
X484Y1027D02*
X490Y1027D01*
X2765Y1027D02*
X2772Y1027D01*
X1Y1026D02*
X8Y1026D01*
X484Y1026D02*
X489Y1026D01*
X2765Y1026D02*
X2772Y1026D01*
X1Y1025D02*
X8Y1025D01*
X484Y1025D02*
X490Y1025D01*
X2765Y1025D02*
X2772Y1025D01*
X1Y1024D02*
X8Y1024D01*
X484Y1024D02*
X491Y1024D01*
X2765Y1024D02*
X2772Y1024D01*
X1Y1023D02*
X8Y1023D01*
X484Y1023D02*
X492Y1023D01*
X2765Y1023D02*
X2772Y1023D01*
X1Y1022D02*
X8Y1022D01*
X485Y1022D02*
X492Y1022D01*
X2765Y1022D02*
X2772Y1022D01*
X1Y1021D02*
X8Y1021D01*
X485Y1021D02*
X493Y1021D01*
X2765Y1021D02*
X2772Y1021D01*
X1Y1020D02*
X8Y1020D01*
X486Y1020D02*
X520Y1020D01*
X2765Y1020D02*
X2772Y1020D01*
X1Y1019D02*
X8Y1019D01*
X486Y1019D02*
X521Y1019D01*
X2765Y1019D02*
X2772Y1019D01*
X1Y1018D02*
X8Y1018D01*
X486Y1018D02*
X522Y1018D01*
X2765Y1018D02*
X2772Y1018D01*
X1Y1017D02*
X8Y1017D01*
X485Y1017D02*
X522Y1017D01*
X2765Y1017D02*
X2772Y1017D01*
X1Y1016D02*
X8Y1016D01*
X484Y1016D02*
X521Y1016D01*
X2765Y1016D02*
X2772Y1016D01*
X1Y1015D02*
X8Y1015D01*
X484Y1015D02*
X521Y1015D01*
X2765Y1015D02*
X2772Y1015D01*
X1Y1014D02*
X8Y1014D01*
X484Y1014D02*
X519Y1014D01*
X2765Y1014D02*
X2772Y1014D01*
X1Y1013D02*
X8Y1013D01*
X483Y1013D02*
X490Y1013D01*
X2765Y1013D02*
X2772Y1013D01*
X1Y1012D02*
X8Y1012D01*
X483Y1012D02*
X489Y1012D01*
X2765Y1012D02*
X2772Y1012D01*
X1Y1011D02*
X8Y1011D01*
X23Y1011D02*
X43Y1011D01*
X67Y1011D02*
X70Y1011D01*
X483Y1011D02*
X490Y1011D01*
X2765Y1011D02*
X2772Y1011D01*
X1Y1010D02*
X8Y1010D01*
X21Y1010D02*
X45Y1010D01*
X66Y1010D02*
X71Y1010D01*
X484Y1010D02*
X491Y1010D01*
X2765Y1010D02*
X2772Y1010D01*
X1Y1009D02*
X8Y1009D01*
X20Y1009D02*
X46Y1009D01*
X66Y1009D02*
X71Y1009D01*
X484Y1009D02*
X492Y1009D01*
X2765Y1009D02*
X2772Y1009D01*
X1Y1008D02*
X8Y1008D01*
X19Y1008D02*
X47Y1008D01*
X65Y1008D02*
X71Y1008D01*
X485Y1008D02*
X493Y1008D01*
X2765Y1008D02*
X2772Y1008D01*
X1Y1007D02*
X8Y1007D01*
X19Y1007D02*
X47Y1007D01*
X65Y1007D02*
X71Y1007D01*
X485Y1007D02*
X493Y1007D01*
X2765Y1007D02*
X2772Y1007D01*
X1Y1006D02*
X8Y1006D01*
X19Y1006D02*
X48Y1006D01*
X65Y1006D02*
X71Y1006D01*
X485Y1006D02*
X520Y1006D01*
X2765Y1006D02*
X2772Y1006D01*
X1Y1005D02*
X8Y1005D01*
X18Y1005D02*
X48Y1005D01*
X65Y1005D02*
X71Y1005D01*
X484Y1005D02*
X521Y1005D01*
X2765Y1005D02*
X2772Y1005D01*
X1Y1004D02*
X8Y1004D01*
X18Y1004D02*
X24Y1004D01*
X42Y1004D02*
X48Y1004D01*
X65Y1004D02*
X71Y1004D01*
X484Y1004D02*
X522Y1004D01*
X2765Y1004D02*
X2772Y1004D01*
X1Y1003D02*
X8Y1003D01*
X18Y1003D02*
X24Y1003D01*
X42Y1003D02*
X48Y1003D01*
X65Y1003D02*
X71Y1003D01*
X483Y1003D02*
X522Y1003D01*
X2765Y1003D02*
X2772Y1003D01*
X1Y1002D02*
X8Y1002D01*
X18Y1002D02*
X24Y1002D01*
X42Y1002D02*
X48Y1002D01*
X65Y1002D02*
X71Y1002D01*
X484Y1002D02*
X522Y1002D01*
X2765Y1002D02*
X2772Y1002D01*
X1Y1001D02*
X8Y1001D01*
X18Y1001D02*
X24Y1001D01*
X42Y1001D02*
X48Y1001D01*
X65Y1001D02*
X71Y1001D01*
X484Y1001D02*
X521Y1001D01*
X2765Y1001D02*
X2772Y1001D01*
X1Y1000D02*
X8Y1000D01*
X18Y1000D02*
X24Y1000D01*
X42Y1000D02*
X48Y1000D01*
X65Y1000D02*
X71Y1000D01*
X485Y1000D02*
X520Y1000D01*
X2765Y1000D02*
X2772Y1000D01*
X1Y999D02*
X8Y999D01*
X18Y999D02*
X24Y999D01*
X42Y999D02*
X48Y999D01*
X65Y999D02*
X71Y999D01*
X2765Y999D02*
X2772Y999D01*
X1Y998D02*
X8Y998D01*
X18Y998D02*
X24Y998D01*
X42Y998D02*
X48Y998D01*
X65Y998D02*
X71Y998D01*
X2765Y998D02*
X2772Y998D01*
X1Y997D02*
X8Y997D01*
X18Y997D02*
X24Y997D01*
X42Y997D02*
X48Y997D01*
X65Y997D02*
X71Y997D01*
X2765Y997D02*
X2772Y997D01*
X1Y996D02*
X8Y996D01*
X18Y996D02*
X24Y996D01*
X42Y996D02*
X48Y996D01*
X65Y996D02*
X71Y996D01*
X2765Y996D02*
X2772Y996D01*
X1Y995D02*
X8Y995D01*
X18Y995D02*
X24Y995D01*
X42Y995D02*
X48Y995D01*
X65Y995D02*
X71Y995D01*
X2765Y995D02*
X2772Y995D01*
X1Y994D02*
X8Y994D01*
X18Y994D02*
X24Y994D01*
X42Y994D02*
X48Y994D01*
X65Y994D02*
X71Y994D01*
X2765Y994D02*
X2772Y994D01*
X1Y993D02*
X8Y993D01*
X18Y993D02*
X24Y993D01*
X42Y993D02*
X48Y993D01*
X65Y993D02*
X71Y993D01*
X2765Y993D02*
X2772Y993D01*
X1Y992D02*
X8Y992D01*
X18Y992D02*
X24Y992D01*
X42Y992D02*
X48Y992D01*
X65Y992D02*
X71Y992D01*
X2765Y992D02*
X2772Y992D01*
X1Y991D02*
X8Y991D01*
X18Y991D02*
X24Y991D01*
X42Y991D02*
X48Y991D01*
X65Y991D02*
X71Y991D01*
X2765Y991D02*
X2772Y991D01*
X1Y990D02*
X8Y990D01*
X18Y990D02*
X24Y990D01*
X42Y990D02*
X48Y990D01*
X65Y990D02*
X71Y990D01*
X2765Y990D02*
X2772Y990D01*
X1Y989D02*
X8Y989D01*
X18Y989D02*
X24Y989D01*
X42Y989D02*
X48Y989D01*
X65Y989D02*
X71Y989D01*
X2765Y989D02*
X2772Y989D01*
X1Y988D02*
X8Y988D01*
X18Y988D02*
X24Y988D01*
X42Y988D02*
X48Y988D01*
X65Y988D02*
X71Y988D01*
X2765Y988D02*
X2772Y988D01*
X1Y987D02*
X8Y987D01*
X18Y987D02*
X24Y987D01*
X42Y987D02*
X48Y987D01*
X65Y987D02*
X71Y987D01*
X2765Y987D02*
X2772Y987D01*
X1Y986D02*
X8Y986D01*
X18Y986D02*
X24Y986D01*
X42Y986D02*
X48Y986D01*
X65Y986D02*
X71Y986D01*
X2765Y986D02*
X2772Y986D01*
X1Y985D02*
X8Y985D01*
X18Y985D02*
X24Y985D01*
X42Y985D02*
X48Y985D01*
X65Y985D02*
X71Y985D01*
X2765Y985D02*
X2772Y985D01*
X1Y984D02*
X8Y984D01*
X18Y984D02*
X24Y984D01*
X42Y984D02*
X48Y984D01*
X65Y984D02*
X71Y984D01*
X469Y984D02*
X479Y984D01*
X2765Y984D02*
X2772Y984D01*
X1Y983D02*
X8Y983D01*
X18Y983D02*
X24Y983D01*
X42Y983D02*
X71Y983D01*
X469Y983D02*
X480Y983D01*
X2765Y983D02*
X2772Y983D01*
X1Y982D02*
X8Y982D01*
X18Y982D02*
X24Y982D01*
X42Y982D02*
X71Y982D01*
X469Y982D02*
X480Y982D01*
X2765Y982D02*
X2772Y982D01*
X1Y981D02*
X8Y981D01*
X18Y981D02*
X24Y981D01*
X43Y981D02*
X71Y981D01*
X469Y981D02*
X480Y981D01*
X2765Y981D02*
X2772Y981D01*
X1Y980D02*
X8Y980D01*
X18Y980D02*
X24Y980D01*
X43Y980D02*
X71Y980D01*
X469Y980D02*
X480Y980D01*
X2765Y980D02*
X2772Y980D01*
X1Y979D02*
X8Y979D01*
X19Y979D02*
X24Y979D01*
X44Y979D02*
X71Y979D01*
X469Y979D02*
X480Y979D01*
X2765Y979D02*
X2772Y979D01*
X1Y978D02*
X8Y978D01*
X19Y978D02*
X23Y978D01*
X45Y978D02*
X71Y978D01*
X469Y978D02*
X478Y978D01*
X2765Y978D02*
X2772Y978D01*
X1Y977D02*
X8Y977D01*
X21Y977D02*
X21Y977D01*
X48Y977D02*
X71Y977D01*
X469Y977D02*
X475Y977D01*
X2765Y977D02*
X2772Y977D01*
X1Y976D02*
X8Y976D01*
X469Y976D02*
X475Y976D01*
X2765Y976D02*
X2772Y976D01*
X1Y975D02*
X8Y975D01*
X469Y975D02*
X475Y975D01*
X2765Y975D02*
X2772Y975D01*
X1Y974D02*
X8Y974D01*
X469Y974D02*
X475Y974D01*
X2765Y974D02*
X2772Y974D01*
X1Y973D02*
X8Y973D01*
X469Y973D02*
X475Y973D01*
X2765Y973D02*
X2772Y973D01*
X1Y972D02*
X8Y972D01*
X469Y972D02*
X475Y972D01*
X2765Y972D02*
X2772Y972D01*
X1Y971D02*
X8Y971D01*
X469Y971D02*
X475Y971D01*
X2765Y971D02*
X2772Y971D01*
X1Y970D02*
X8Y970D01*
X469Y970D02*
X520Y970D01*
X2765Y970D02*
X2772Y970D01*
X1Y969D02*
X8Y969D01*
X469Y969D02*
X521Y969D01*
X2765Y969D02*
X2772Y969D01*
X1Y968D02*
X8Y968D01*
X469Y968D02*
X522Y968D01*
X2765Y968D02*
X2772Y968D01*
X1Y967D02*
X8Y967D01*
X469Y967D02*
X522Y967D01*
X2765Y967D02*
X2772Y967D01*
X1Y966D02*
X8Y966D01*
X469Y966D02*
X521Y966D01*
X2765Y966D02*
X2772Y966D01*
X1Y965D02*
X8Y965D01*
X469Y965D02*
X521Y965D01*
X2765Y965D02*
X2772Y965D01*
X1Y964D02*
X8Y964D01*
X469Y964D02*
X519Y964D01*
X2765Y964D02*
X2772Y964D01*
X1Y963D02*
X8Y963D01*
X469Y963D02*
X475Y963D01*
X2765Y963D02*
X2772Y963D01*
X1Y962D02*
X8Y962D01*
X469Y962D02*
X475Y962D01*
X2765Y962D02*
X2772Y962D01*
X1Y961D02*
X8Y961D01*
X469Y961D02*
X475Y961D01*
X2765Y961D02*
X2772Y961D01*
X1Y960D02*
X8Y960D01*
X469Y960D02*
X475Y960D01*
X2765Y960D02*
X2772Y960D01*
X1Y959D02*
X8Y959D01*
X469Y959D02*
X475Y959D01*
X2765Y959D02*
X2772Y959D01*
X1Y958D02*
X8Y958D01*
X22Y958D02*
X61Y958D01*
X469Y958D02*
X475Y958D01*
X2765Y958D02*
X2772Y958D01*
X1Y957D02*
X8Y957D01*
X19Y957D02*
X65Y957D01*
X469Y957D02*
X477Y957D01*
X2765Y957D02*
X2772Y957D01*
X1Y956D02*
X8Y956D01*
X19Y956D02*
X67Y956D01*
X469Y956D02*
X479Y956D01*
X2765Y956D02*
X2772Y956D01*
X1Y955D02*
X8Y955D01*
X18Y955D02*
X68Y955D01*
X469Y955D02*
X480Y955D01*
X2765Y955D02*
X2772Y955D01*
X1Y954D02*
X8Y954D01*
X18Y954D02*
X69Y954D01*
X469Y954D02*
X480Y954D01*
X2765Y954D02*
X2772Y954D01*
X1Y953D02*
X8Y953D01*
X19Y953D02*
X70Y953D01*
X469Y953D02*
X480Y953D01*
X2765Y953D02*
X2772Y953D01*
X1Y952D02*
X8Y952D01*
X19Y952D02*
X70Y952D01*
X469Y952D02*
X480Y952D01*
X2765Y952D02*
X2772Y952D01*
X1Y951D02*
X8Y951D01*
X22Y951D02*
X71Y951D01*
X469Y951D02*
X479Y951D01*
X2765Y951D02*
X2772Y951D01*
X1Y950D02*
X8Y950D01*
X64Y950D02*
X71Y950D01*
X2765Y950D02*
X2772Y950D01*
X1Y949D02*
X8Y949D01*
X65Y949D02*
X71Y949D01*
X2765Y949D02*
X2772Y949D01*
X1Y948D02*
X8Y948D01*
X65Y948D02*
X71Y948D01*
X2765Y948D02*
X2772Y948D01*
X1Y947D02*
X8Y947D01*
X65Y947D02*
X71Y947D01*
X2765Y947D02*
X2772Y947D01*
X1Y946D02*
X8Y946D01*
X65Y946D02*
X71Y946D01*
X2765Y946D02*
X2772Y946D01*
X1Y945D02*
X8Y945D01*
X65Y945D02*
X71Y945D01*
X2765Y945D02*
X2772Y945D01*
X1Y944D02*
X8Y944D01*
X65Y944D02*
X71Y944D01*
X2765Y944D02*
X2772Y944D01*
X1Y943D02*
X8Y943D01*
X65Y943D02*
X71Y943D01*
X2765Y943D02*
X2772Y943D01*
X1Y942D02*
X8Y942D01*
X65Y942D02*
X71Y942D01*
X2765Y942D02*
X2772Y942D01*
X1Y941D02*
X8Y941D01*
X65Y941D02*
X71Y941D01*
X2765Y941D02*
X2772Y941D01*
X1Y940D02*
X8Y940D01*
X65Y940D02*
X71Y940D01*
X2765Y940D02*
X2772Y940D01*
X1Y939D02*
X8Y939D01*
X65Y939D02*
X71Y939D01*
X2765Y939D02*
X2772Y939D01*
X1Y938D02*
X8Y938D01*
X64Y938D02*
X71Y938D01*
X2765Y938D02*
X2772Y938D01*
X1Y937D02*
X8Y937D01*
X50Y937D02*
X71Y937D01*
X2765Y937D02*
X2772Y937D01*
X1Y936D02*
X8Y936D01*
X49Y936D02*
X70Y936D01*
X2765Y936D02*
X2772Y936D01*
X1Y935D02*
X8Y935D01*
X48Y935D02*
X70Y935D01*
X2765Y935D02*
X2772Y935D01*
X1Y934D02*
X8Y934D01*
X48Y934D02*
X69Y934D01*
X517Y934D02*
X520Y934D01*
X2765Y934D02*
X2772Y934D01*
X1Y933D02*
X8Y933D01*
X48Y933D02*
X68Y933D01*
X513Y933D02*
X521Y933D01*
X2765Y933D02*
X2772Y933D01*
X1Y932D02*
X8Y932D01*
X48Y932D02*
X67Y932D01*
X510Y932D02*
X522Y932D01*
X2765Y932D02*
X2772Y932D01*
X1Y931D02*
X8Y931D01*
X49Y931D02*
X65Y931D01*
X507Y931D02*
X522Y931D01*
X2765Y931D02*
X2772Y931D01*
X1Y930D02*
X8Y930D01*
X503Y930D02*
X522Y930D01*
X2765Y930D02*
X2772Y930D01*
X1Y929D02*
X8Y929D01*
X500Y929D02*
X521Y929D01*
X2765Y929D02*
X2772Y929D01*
X1Y928D02*
X8Y928D01*
X496Y928D02*
X520Y928D01*
X2765Y928D02*
X2772Y928D01*
X1Y927D02*
X8Y927D01*
X493Y927D02*
X517Y927D01*
X2765Y927D02*
X2772Y927D01*
X1Y926D02*
X8Y926D01*
X489Y926D02*
X513Y926D01*
X2765Y926D02*
X2772Y926D01*
X1Y925D02*
X8Y925D01*
X486Y925D02*
X510Y925D01*
X2765Y925D02*
X2772Y925D01*
X1Y924D02*
X8Y924D01*
X483Y924D02*
X510Y924D01*
X2765Y924D02*
X2772Y924D01*
X1Y923D02*
X8Y923D01*
X479Y923D02*
X510Y923D01*
X2765Y923D02*
X2772Y923D01*
X1Y922D02*
X8Y922D01*
X476Y922D02*
X500Y922D01*
X504Y922D02*
X510Y922D01*
X2765Y922D02*
X2772Y922D01*
X1Y921D02*
X8Y921D01*
X472Y921D02*
X496Y921D01*
X504Y921D02*
X510Y921D01*
X2765Y921D02*
X2772Y921D01*
X1Y920D02*
X8Y920D01*
X470Y920D02*
X493Y920D01*
X504Y920D02*
X510Y920D01*
X2765Y920D02*
X2772Y920D01*
X1Y919D02*
X8Y919D01*
X469Y919D02*
X490Y919D01*
X504Y919D02*
X510Y919D01*
X2765Y919D02*
X2772Y919D01*
X1Y918D02*
X8Y918D01*
X469Y918D02*
X486Y918D01*
X504Y918D02*
X510Y918D01*
X2765Y918D02*
X2772Y918D01*
X1Y917D02*
X8Y917D01*
X469Y917D02*
X485Y917D01*
X504Y917D02*
X510Y917D01*
X2765Y917D02*
X2772Y917D01*
X1Y916D02*
X8Y916D01*
X469Y916D02*
X488Y916D01*
X504Y916D02*
X510Y916D01*
X2765Y916D02*
X2772Y916D01*
X1Y915D02*
X8Y915D01*
X470Y915D02*
X491Y915D01*
X504Y915D02*
X510Y915D01*
X2765Y915D02*
X2772Y915D01*
X1Y914D02*
X8Y914D01*
X471Y914D02*
X495Y914D01*
X504Y914D02*
X510Y914D01*
X2765Y914D02*
X2772Y914D01*
X1Y913D02*
X8Y913D01*
X474Y913D02*
X498Y913D01*
X504Y913D02*
X510Y913D01*
X2765Y913D02*
X2772Y913D01*
X1Y912D02*
X8Y912D01*
X478Y912D02*
X502Y912D01*
X504Y912D02*
X510Y912D01*
X2765Y912D02*
X2772Y912D01*
X1Y911D02*
X8Y911D01*
X481Y911D02*
X510Y911D01*
X2765Y911D02*
X2772Y911D01*
X1Y910D02*
X8Y910D01*
X485Y910D02*
X510Y910D01*
X2765Y910D02*
X2772Y910D01*
X1Y909D02*
X8Y909D01*
X488Y909D02*
X512Y909D01*
X2765Y909D02*
X2772Y909D01*
X1Y908D02*
X8Y908D01*
X491Y908D02*
X515Y908D01*
X2765Y908D02*
X2772Y908D01*
X1Y907D02*
X8Y907D01*
X495Y907D02*
X519Y907D01*
X2765Y907D02*
X2772Y907D01*
X1Y906D02*
X8Y906D01*
X498Y906D02*
X521Y906D01*
X2765Y906D02*
X2772Y906D01*
X1Y905D02*
X8Y905D01*
X502Y905D02*
X521Y905D01*
X2765Y905D02*
X2772Y905D01*
X1Y904D02*
X8Y904D01*
X505Y904D02*
X522Y904D01*
X2765Y904D02*
X2772Y904D01*
X1Y903D02*
X8Y903D01*
X508Y903D02*
X522Y903D01*
X2765Y903D02*
X2772Y903D01*
X1Y902D02*
X8Y902D01*
X512Y902D02*
X521Y902D01*
X2765Y902D02*
X2772Y902D01*
X1Y901D02*
X8Y901D01*
X515Y901D02*
X521Y901D01*
X2765Y901D02*
X2772Y901D01*
X1Y900D02*
X8Y900D01*
X519Y900D02*
X519Y900D01*
X2765Y900D02*
X2772Y900D01*
X1Y899D02*
X8Y899D01*
X2765Y899D02*
X2772Y899D01*
X1Y898D02*
X8Y898D01*
X2765Y898D02*
X2772Y898D01*
X1Y897D02*
X8Y897D01*
X2765Y897D02*
X2772Y897D01*
X1Y896D02*
X8Y896D01*
X2765Y896D02*
X2772Y896D01*
X1Y895D02*
X8Y895D01*
X2765Y895D02*
X2772Y895D01*
X1Y894D02*
X8Y894D01*
X2765Y894D02*
X2772Y894D01*
X1Y893D02*
X8Y893D01*
X2765Y893D02*
X2772Y893D01*
X1Y892D02*
X8Y892D01*
X2765Y892D02*
X2772Y892D01*
X1Y891D02*
X8Y891D01*
X2765Y891D02*
X2772Y891D01*
X1Y890D02*
X8Y890D01*
X2765Y890D02*
X2772Y890D01*
X1Y889D02*
X8Y889D01*
X2765Y889D02*
X2772Y889D01*
X1Y888D02*
X8Y888D01*
X2765Y888D02*
X2772Y888D01*
X1Y887D02*
X8Y887D01*
X2765Y887D02*
X2772Y887D01*
X1Y886D02*
X8Y886D01*
X2765Y886D02*
X2772Y886D01*
X1Y885D02*
X8Y885D01*
X2765Y885D02*
X2772Y885D01*
X1Y884D02*
X8Y884D01*
X2765Y884D02*
X2772Y884D01*
X1Y883D02*
X8Y883D01*
X256Y883D02*
X262Y883D01*
X289Y883D02*
X292Y883D01*
X2765Y883D02*
X2772Y883D01*
X1Y882D02*
X8Y882D01*
X255Y882D02*
X264Y882D01*
X288Y882D02*
X293Y882D01*
X2765Y882D02*
X2772Y882D01*
X1Y881D02*
X8Y881D01*
X255Y881D02*
X264Y881D01*
X287Y881D02*
X293Y881D01*
X2765Y881D02*
X2772Y881D01*
X1Y880D02*
X8Y880D01*
X255Y880D02*
X265Y880D01*
X287Y880D02*
X293Y880D01*
X2765Y880D02*
X2772Y880D01*
X1Y879D02*
X8Y879D01*
X255Y879D02*
X266Y879D01*
X287Y879D02*
X293Y879D01*
X2765Y879D02*
X2772Y879D01*
X1Y878D02*
X8Y878D01*
X255Y878D02*
X267Y878D01*
X287Y878D02*
X293Y878D01*
X2765Y878D02*
X2772Y878D01*
X1Y877D02*
X8Y877D01*
X79Y877D02*
X83Y877D01*
X112Y877D02*
X112Y877D01*
X255Y877D02*
X268Y877D01*
X287Y877D02*
X293Y877D01*
X2765Y877D02*
X2772Y877D01*
X1Y876D02*
X8Y876D01*
X78Y876D02*
X85Y876D01*
X110Y876D02*
X114Y876D01*
X255Y876D02*
X269Y876D01*
X287Y876D02*
X293Y876D01*
X2765Y876D02*
X2772Y876D01*
X1Y875D02*
X8Y875D01*
X77Y875D02*
X86Y875D01*
X109Y875D02*
X115Y875D01*
X255Y875D02*
X270Y875D01*
X287Y875D02*
X293Y875D01*
X2765Y875D02*
X2772Y875D01*
X1Y874D02*
X8Y874D01*
X77Y874D02*
X87Y874D01*
X109Y874D02*
X115Y874D01*
X255Y874D02*
X271Y874D01*
X287Y874D02*
X293Y874D01*
X2765Y874D02*
X2772Y874D01*
X1Y873D02*
X8Y873D01*
X77Y873D02*
X88Y873D01*
X109Y873D02*
X115Y873D01*
X255Y873D02*
X261Y873D01*
X263Y873D02*
X272Y873D01*
X287Y873D02*
X293Y873D01*
X2765Y873D02*
X2772Y873D01*
X1Y872D02*
X8Y872D01*
X77Y872D02*
X88Y872D01*
X109Y872D02*
X115Y872D01*
X255Y872D02*
X261Y872D01*
X264Y872D02*
X273Y872D01*
X287Y872D02*
X293Y872D01*
X2765Y872D02*
X2772Y872D01*
X1Y871D02*
X8Y871D01*
X77Y871D02*
X89Y871D01*
X109Y871D02*
X115Y871D01*
X255Y871D02*
X261Y871D01*
X265Y871D02*
X274Y871D01*
X287Y871D02*
X293Y871D01*
X2765Y871D02*
X2772Y871D01*
X1Y870D02*
X8Y870D01*
X77Y870D02*
X90Y870D01*
X109Y870D02*
X115Y870D01*
X255Y870D02*
X261Y870D01*
X266Y870D02*
X275Y870D01*
X287Y870D02*
X293Y870D01*
X2765Y870D02*
X2772Y870D01*
X1Y869D02*
X8Y869D01*
X77Y869D02*
X91Y869D01*
X109Y869D02*
X115Y869D01*
X255Y869D02*
X261Y869D01*
X267Y869D02*
X276Y869D01*
X287Y869D02*
X293Y869D01*
X2765Y869D02*
X2772Y869D01*
X1Y868D02*
X8Y868D01*
X77Y868D02*
X92Y868D01*
X109Y868D02*
X115Y868D01*
X255Y868D02*
X261Y868D01*
X268Y868D02*
X277Y868D01*
X287Y868D02*
X293Y868D01*
X2765Y868D02*
X2772Y868D01*
X1Y867D02*
X8Y867D01*
X77Y867D02*
X83Y867D01*
X85Y867D02*
X93Y867D01*
X109Y867D02*
X115Y867D01*
X255Y867D02*
X261Y867D01*
X269Y867D02*
X278Y867D01*
X287Y867D02*
X293Y867D01*
X2765Y867D02*
X2772Y867D01*
X1Y866D02*
X8Y866D01*
X77Y866D02*
X83Y866D01*
X86Y866D02*
X94Y866D01*
X109Y866D02*
X115Y866D01*
X255Y866D02*
X261Y866D01*
X270Y866D02*
X279Y866D01*
X287Y866D02*
X293Y866D01*
X2765Y866D02*
X2772Y866D01*
X1Y865D02*
X8Y865D01*
X77Y865D02*
X83Y865D01*
X86Y865D02*
X95Y865D01*
X109Y865D02*
X115Y865D01*
X255Y865D02*
X261Y865D01*
X271Y865D02*
X280Y865D01*
X287Y865D02*
X293Y865D01*
X2765Y865D02*
X2772Y865D01*
X1Y864D02*
X8Y864D01*
X77Y864D02*
X83Y864D01*
X87Y864D02*
X96Y864D01*
X109Y864D02*
X115Y864D01*
X255Y864D02*
X261Y864D01*
X272Y864D02*
X281Y864D01*
X287Y864D02*
X293Y864D01*
X2765Y864D02*
X2772Y864D01*
X1Y863D02*
X8Y863D01*
X77Y863D02*
X83Y863D01*
X88Y863D02*
X97Y863D01*
X109Y863D02*
X115Y863D01*
X255Y863D02*
X261Y863D01*
X273Y863D02*
X282Y863D01*
X287Y863D02*
X293Y863D01*
X2765Y863D02*
X2772Y863D01*
X1Y862D02*
X8Y862D01*
X77Y862D02*
X83Y862D01*
X89Y862D02*
X98Y862D01*
X109Y862D02*
X115Y862D01*
X255Y862D02*
X261Y862D01*
X274Y862D02*
X283Y862D01*
X287Y862D02*
X293Y862D01*
X2765Y862D02*
X2772Y862D01*
X1Y861D02*
X8Y861D01*
X77Y861D02*
X83Y861D01*
X90Y861D02*
X99Y861D01*
X109Y861D02*
X115Y861D01*
X255Y861D02*
X261Y861D01*
X275Y861D02*
X284Y861D01*
X287Y861D02*
X293Y861D01*
X2765Y861D02*
X2772Y861D01*
X1Y860D02*
X8Y860D01*
X77Y860D02*
X83Y860D01*
X91Y860D02*
X100Y860D01*
X109Y860D02*
X115Y860D01*
X255Y860D02*
X261Y860D01*
X276Y860D02*
X285Y860D01*
X287Y860D02*
X293Y860D01*
X2765Y860D02*
X2772Y860D01*
X1Y859D02*
X8Y859D01*
X77Y859D02*
X83Y859D01*
X92Y859D02*
X101Y859D01*
X109Y859D02*
X115Y859D01*
X255Y859D02*
X261Y859D01*
X277Y859D02*
X293Y859D01*
X2765Y859D02*
X2772Y859D01*
X1Y858D02*
X8Y858D01*
X77Y858D02*
X83Y858D01*
X93Y858D02*
X102Y858D01*
X109Y858D02*
X115Y858D01*
X255Y858D02*
X261Y858D01*
X278Y858D02*
X293Y858D01*
X2765Y858D02*
X2772Y858D01*
X1Y857D02*
X8Y857D01*
X77Y857D02*
X83Y857D01*
X94Y857D02*
X103Y857D01*
X109Y857D02*
X115Y857D01*
X255Y857D02*
X261Y857D01*
X279Y857D02*
X293Y857D01*
X2765Y857D02*
X2772Y857D01*
X1Y856D02*
X8Y856D01*
X77Y856D02*
X83Y856D01*
X95Y856D02*
X104Y856D01*
X109Y856D02*
X115Y856D01*
X255Y856D02*
X261Y856D01*
X280Y856D02*
X293Y856D01*
X2765Y856D02*
X2772Y856D01*
X1Y855D02*
X8Y855D01*
X77Y855D02*
X83Y855D01*
X96Y855D02*
X105Y855D01*
X109Y855D02*
X115Y855D01*
X255Y855D02*
X261Y855D01*
X281Y855D02*
X293Y855D01*
X2765Y855D02*
X2772Y855D01*
X1Y854D02*
X8Y854D01*
X77Y854D02*
X83Y854D01*
X97Y854D02*
X106Y854D01*
X109Y854D02*
X115Y854D01*
X255Y854D02*
X261Y854D01*
X282Y854D02*
X293Y854D01*
X2765Y854D02*
X2772Y854D01*
X1Y853D02*
X8Y853D01*
X77Y853D02*
X83Y853D01*
X98Y853D02*
X107Y853D01*
X109Y853D02*
X115Y853D01*
X255Y853D02*
X261Y853D01*
X283Y853D02*
X293Y853D01*
X2765Y853D02*
X2772Y853D01*
X1Y852D02*
X8Y852D01*
X77Y852D02*
X83Y852D01*
X99Y852D02*
X115Y852D01*
X256Y852D02*
X260Y852D01*
X284Y852D02*
X293Y852D01*
X2765Y852D02*
X2772Y852D01*
X1Y851D02*
X8Y851D01*
X77Y851D02*
X83Y851D01*
X100Y851D02*
X115Y851D01*
X258Y851D02*
X258Y851D01*
X285Y851D02*
X293Y851D01*
X2765Y851D02*
X2772Y851D01*
X1Y850D02*
X8Y850D01*
X77Y850D02*
X83Y850D01*
X101Y850D02*
X115Y850D01*
X286Y850D02*
X292Y850D01*
X2765Y850D02*
X2772Y850D01*
X1Y849D02*
X8Y849D01*
X77Y849D02*
X83Y849D01*
X102Y849D02*
X115Y849D01*
X2765Y849D02*
X2772Y849D01*
X1Y848D02*
X8Y848D01*
X77Y848D02*
X83Y848D01*
X103Y848D02*
X115Y848D01*
X2765Y848D02*
X2772Y848D01*
X1Y847D02*
X8Y847D01*
X77Y847D02*
X82Y847D01*
X104Y847D02*
X115Y847D01*
X2765Y847D02*
X2772Y847D01*
X1Y846D02*
X8Y846D01*
X77Y846D02*
X82Y846D01*
X105Y846D02*
X115Y846D01*
X2765Y846D02*
X2772Y846D01*
X1Y845D02*
X8Y845D01*
X78Y845D02*
X81Y845D01*
X106Y845D02*
X115Y845D01*
X2765Y845D02*
X2772Y845D01*
X1Y844D02*
X8Y844D01*
X107Y844D02*
X114Y844D01*
X2765Y844D02*
X2772Y844D01*
X1Y843D02*
X8Y843D01*
X108Y843D02*
X113Y843D01*
X2765Y843D02*
X2772Y843D01*
X1Y842D02*
X8Y842D01*
X2765Y842D02*
X2772Y842D01*
X1Y841D02*
X8Y841D01*
X2765Y841D02*
X2772Y841D01*
X1Y840D02*
X8Y840D01*
X2765Y840D02*
X2772Y840D01*
X1Y839D02*
X8Y839D01*
X2765Y839D02*
X2772Y839D01*
X1Y838D02*
X8Y838D01*
X2765Y838D02*
X2772Y838D01*
X1Y837D02*
X8Y837D01*
X2765Y837D02*
X2772Y837D01*
X1Y836D02*
X8Y836D01*
X2765Y836D02*
X2772Y836D01*
X1Y835D02*
X8Y835D01*
X2765Y835D02*
X2772Y835D01*
X1Y834D02*
X8Y834D01*
X2765Y834D02*
X2772Y834D01*
X1Y833D02*
X8Y833D01*
X241Y833D02*
X292Y833D01*
X2765Y833D02*
X2772Y833D01*
X1Y832D02*
X8Y832D01*
X241Y832D02*
X293Y832D01*
X2765Y832D02*
X2772Y832D01*
X1Y831D02*
X8Y831D01*
X240Y831D02*
X293Y831D01*
X2765Y831D02*
X2772Y831D01*
X1Y830D02*
X8Y830D01*
X240Y830D02*
X293Y830D01*
X2765Y830D02*
X2772Y830D01*
X1Y829D02*
X8Y829D01*
X240Y829D02*
X293Y829D01*
X2765Y829D02*
X2772Y829D01*
X1Y828D02*
X8Y828D01*
X241Y828D02*
X292Y828D01*
X2765Y828D02*
X2772Y828D01*
X1Y827D02*
X8Y827D01*
X64Y827D02*
X112Y827D01*
X243Y827D02*
X291Y827D01*
X2765Y827D02*
X2772Y827D01*
X1Y826D02*
X8Y826D01*
X63Y826D02*
X114Y826D01*
X264Y826D02*
X270Y826D01*
X2765Y826D02*
X2772Y826D01*
X1Y825D02*
X8Y825D01*
X62Y825D02*
X115Y825D01*
X264Y825D02*
X270Y825D01*
X2765Y825D02*
X2772Y825D01*
X1Y824D02*
X8Y824D01*
X62Y824D02*
X115Y824D01*
X264Y824D02*
X270Y824D01*
X2765Y824D02*
X2772Y824D01*
X1Y823D02*
X8Y823D01*
X62Y823D02*
X115Y823D01*
X264Y823D02*
X270Y823D01*
X2765Y823D02*
X2772Y823D01*
X1Y822D02*
X8Y822D01*
X62Y822D02*
X114Y822D01*
X264Y822D02*
X270Y822D01*
X2765Y822D02*
X2772Y822D01*
X1Y821D02*
X8Y821D01*
X63Y821D02*
X114Y821D01*
X264Y821D02*
X270Y821D01*
X2765Y821D02*
X2772Y821D01*
X1Y820D02*
X8Y820D01*
X85Y820D02*
X92Y820D01*
X264Y820D02*
X270Y820D01*
X2765Y820D02*
X2772Y820D01*
X1Y819D02*
X8Y819D01*
X85Y819D02*
X91Y819D01*
X264Y819D02*
X270Y819D01*
X2765Y819D02*
X2772Y819D01*
X1Y818D02*
X8Y818D01*
X85Y818D02*
X91Y818D01*
X264Y818D02*
X270Y818D01*
X2765Y818D02*
X2772Y818D01*
X1Y817D02*
X8Y817D01*
X85Y817D02*
X91Y817D01*
X264Y817D02*
X270Y817D01*
X2765Y817D02*
X2772Y817D01*
X1Y816D02*
X8Y816D01*
X85Y816D02*
X91Y816D01*
X264Y816D02*
X270Y816D01*
X2765Y816D02*
X2772Y816D01*
X1Y815D02*
X8Y815D01*
X85Y815D02*
X91Y815D01*
X264Y815D02*
X270Y815D01*
X2765Y815D02*
X2772Y815D01*
X1Y814D02*
X8Y814D01*
X85Y814D02*
X91Y814D01*
X264Y814D02*
X270Y814D01*
X2765Y814D02*
X2772Y814D01*
X1Y813D02*
X8Y813D01*
X85Y813D02*
X91Y813D01*
X264Y813D02*
X270Y813D01*
X2765Y813D02*
X2772Y813D01*
X1Y812D02*
X8Y812D01*
X85Y812D02*
X91Y812D01*
X264Y812D02*
X270Y812D01*
X2765Y812D02*
X2772Y812D01*
X1Y811D02*
X8Y811D01*
X85Y811D02*
X91Y811D01*
X264Y811D02*
X270Y811D01*
X2765Y811D02*
X2772Y811D01*
X1Y810D02*
X8Y810D01*
X85Y810D02*
X91Y810D01*
X264Y810D02*
X270Y810D01*
X2765Y810D02*
X2772Y810D01*
X1Y809D02*
X8Y809D01*
X85Y809D02*
X91Y809D01*
X264Y809D02*
X270Y809D01*
X2765Y809D02*
X2772Y809D01*
X1Y808D02*
X8Y808D01*
X85Y808D02*
X91Y808D01*
X264Y808D02*
X270Y808D01*
X2765Y808D02*
X2772Y808D01*
X1Y807D02*
X8Y807D01*
X85Y807D02*
X91Y807D01*
X264Y807D02*
X270Y807D01*
X2765Y807D02*
X2772Y807D01*
X1Y806D02*
X8Y806D01*
X85Y806D02*
X91Y806D01*
X242Y806D02*
X291Y806D01*
X2765Y806D02*
X2772Y806D01*
X1Y805D02*
X8Y805D01*
X85Y805D02*
X91Y805D01*
X241Y805D02*
X292Y805D01*
X2765Y805D02*
X2772Y805D01*
X1Y804D02*
X8Y804D01*
X85Y804D02*
X91Y804D01*
X240Y804D02*
X293Y804D01*
X2765Y804D02*
X2772Y804D01*
X1Y803D02*
X8Y803D01*
X85Y803D02*
X91Y803D01*
X240Y803D02*
X293Y803D01*
X2765Y803D02*
X2772Y803D01*
X1Y802D02*
X8Y802D01*
X85Y802D02*
X91Y802D01*
X240Y802D02*
X293Y802D01*
X2765Y802D02*
X2772Y802D01*
X1Y801D02*
X8Y801D01*
X85Y801D02*
X91Y801D01*
X241Y801D02*
X293Y801D01*
X2765Y801D02*
X2772Y801D01*
X1Y800D02*
X8Y800D01*
X85Y800D02*
X91Y800D01*
X241Y800D02*
X292Y800D01*
X2765Y800D02*
X2772Y800D01*
X1Y799D02*
X8Y799D01*
X63Y799D02*
X113Y799D01*
X2765Y799D02*
X2772Y799D01*
X1Y798D02*
X8Y798D01*
X62Y798D02*
X114Y798D01*
X2765Y798D02*
X2772Y798D01*
X1Y797D02*
X8Y797D01*
X62Y797D02*
X115Y797D01*
X2765Y797D02*
X2772Y797D01*
X1Y796D02*
X8Y796D01*
X62Y796D02*
X115Y796D01*
X2765Y796D02*
X2772Y796D01*
X1Y795D02*
X8Y795D01*
X62Y795D02*
X115Y795D01*
X2765Y795D02*
X2772Y795D01*
X1Y794D02*
X8Y794D01*
X63Y794D02*
X114Y794D01*
X2765Y794D02*
X2772Y794D01*
X1Y793D02*
X8Y793D01*
X64Y793D02*
X113Y793D01*
X2765Y793D02*
X2772Y793D01*
X1Y792D02*
X8Y792D01*
X2765Y792D02*
X2772Y792D01*
X1Y791D02*
X8Y791D01*
X2765Y791D02*
X2772Y791D01*
X1Y790D02*
X8Y790D01*
X2765Y790D02*
X2772Y790D01*
X1Y789D02*
X8Y789D01*
X2765Y789D02*
X2772Y789D01*
X1Y788D02*
X8Y788D01*
X2765Y788D02*
X2772Y788D01*
X1Y787D02*
X8Y787D01*
X2765Y787D02*
X2772Y787D01*
X1Y786D02*
X8Y786D01*
X2765Y786D02*
X2772Y786D01*
X1Y785D02*
X8Y785D01*
X2765Y785D02*
X2772Y785D01*
X1Y784D02*
X8Y784D01*
X2765Y784D02*
X2772Y784D01*
X1Y783D02*
X8Y783D01*
X240Y783D02*
X292Y783D01*
X2765Y783D02*
X2772Y783D01*
X1Y782D02*
X8Y782D01*
X240Y782D02*
X293Y782D01*
X2765Y782D02*
X2772Y782D01*
X1Y781D02*
X8Y781D01*
X240Y781D02*
X293Y781D01*
X1838Y781D02*
X1855Y781D01*
X1875Y781D02*
X1902Y781D01*
X2765Y781D02*
X2772Y781D01*
X1Y780D02*
X8Y780D01*
X240Y780D02*
X293Y780D01*
X1835Y780D02*
X1856Y780D01*
X1874Y780D02*
X1904Y780D01*
X2765Y780D02*
X2772Y780D01*
X1Y779D02*
X8Y779D01*
X240Y779D02*
X293Y779D01*
X1581Y779D02*
X1596Y779D01*
X1617Y779D02*
X1634Y779D01*
X1834Y779D02*
X1856Y779D01*
X1873Y779D02*
X1905Y779D01*
X2765Y779D02*
X2772Y779D01*
X1Y778D02*
X8Y778D01*
X240Y778D02*
X292Y778D01*
X1578Y778D02*
X1597Y778D01*
X1615Y778D02*
X1634Y778D01*
X1833Y778D02*
X1856Y778D01*
X1873Y778D02*
X1906Y778D01*
X2765Y778D02*
X2772Y778D01*
X1Y777D02*
X8Y777D01*
X62Y777D02*
X112Y777D01*
X240Y777D02*
X291Y777D01*
X1576Y777D02*
X1598Y777D01*
X1615Y777D02*
X1634Y777D01*
X1832Y777D02*
X1856Y777D01*
X1873Y777D02*
X1906Y777D01*
X2765Y777D02*
X2772Y777D01*
X1Y776D02*
X8Y776D01*
X62Y776D02*
X114Y776D01*
X240Y776D02*
X250Y776D01*
X1575Y776D02*
X1598Y776D01*
X1615Y776D02*
X1634Y776D01*
X1832Y776D02*
X1856Y776D01*
X1874Y776D02*
X1906Y776D01*
X2765Y776D02*
X2772Y776D01*
X1Y775D02*
X8Y775D01*
X62Y775D02*
X115Y775D01*
X240Y775D02*
X251Y775D01*
X1574Y775D02*
X1598Y775D01*
X1615Y775D02*
X1634Y775D01*
X1831Y775D02*
X1855Y775D01*
X1875Y775D02*
X1906Y775D01*
X2765Y775D02*
X2772Y775D01*
X1Y774D02*
X8Y774D01*
X62Y774D02*
X115Y774D01*
X242Y774D02*
X253Y774D01*
X1574Y774D02*
X1598Y774D01*
X1615Y774D02*
X1634Y774D01*
X1831Y774D02*
X1838Y774D01*
X1900Y774D02*
X1907Y774D01*
X2765Y774D02*
X2772Y774D01*
X1Y773D02*
X8Y773D01*
X62Y773D02*
X115Y773D01*
X243Y773D02*
X254Y773D01*
X1573Y773D02*
X1597Y773D01*
X1616Y773D02*
X1634Y773D01*
X1830Y773D02*
X1837Y773D01*
X1900Y773D02*
X1907Y773D01*
X2765Y773D02*
X2772Y773D01*
X1Y772D02*
X8Y772D01*
X62Y772D02*
X114Y772D01*
X244Y772D02*
X256Y772D01*
X1573Y772D02*
X1580Y772D01*
X1628Y772D02*
X1634Y772D01*
X1830Y772D02*
X1837Y772D01*
X1900Y772D02*
X1907Y772D01*
X2765Y772D02*
X2772Y772D01*
X1Y771D02*
X8Y771D01*
X62Y771D02*
X114Y771D01*
X246Y771D02*
X257Y771D01*
X1572Y771D02*
X1579Y771D01*
X1628Y771D02*
X1634Y771D01*
X1829Y771D02*
X1836Y771D01*
X1900Y771D02*
X1907Y771D01*
X2765Y771D02*
X2772Y771D01*
X1Y770D02*
X8Y770D01*
X62Y770D02*
X71Y770D01*
X247Y770D02*
X259Y770D01*
X1572Y770D02*
X1579Y770D01*
X1628Y770D02*
X1634Y770D01*
X1829Y770D02*
X1836Y770D01*
X1900Y770D02*
X1907Y770D01*
X2765Y770D02*
X2772Y770D01*
X1Y769D02*
X8Y769D01*
X62Y769D02*
X72Y769D01*
X249Y769D02*
X263Y769D01*
X1571Y769D02*
X1578Y769D01*
X1628Y769D02*
X1634Y769D01*
X1828Y769D02*
X1835Y769D01*
X1900Y769D02*
X1907Y769D01*
X2765Y769D02*
X2772Y769D01*
X1Y768D02*
X8Y768D01*
X62Y768D02*
X74Y768D01*
X250Y768D02*
X263Y768D01*
X1571Y768D02*
X1577Y768D01*
X1628Y768D02*
X1634Y768D01*
X1828Y768D02*
X1835Y768D01*
X1900Y768D02*
X1907Y768D01*
X2765Y768D02*
X2772Y768D01*
X1Y767D02*
X8Y767D01*
X64Y767D02*
X75Y767D01*
X252Y767D02*
X264Y767D01*
X1570Y767D02*
X1577Y767D01*
X1628Y767D02*
X1634Y767D01*
X1827Y767D02*
X1834Y767D01*
X1900Y767D02*
X1907Y767D01*
X2765Y767D02*
X2772Y767D01*
X1Y766D02*
X8Y766D01*
X65Y766D02*
X76Y766D01*
X252Y766D02*
X264Y766D01*
X1570Y766D02*
X1576Y766D01*
X1628Y766D02*
X1634Y766D01*
X1827Y766D02*
X1834Y766D01*
X1900Y766D02*
X1907Y766D01*
X2765Y766D02*
X2772Y766D01*
X1Y765D02*
X8Y765D01*
X67Y765D02*
X78Y765D01*
X250Y765D02*
X263Y765D01*
X1569Y765D02*
X1576Y765D01*
X1628Y765D02*
X1634Y765D01*
X1826Y765D02*
X1833Y765D01*
X1900Y765D02*
X1907Y765D01*
X2765Y765D02*
X2772Y765D01*
X1Y764D02*
X8Y764D01*
X68Y764D02*
X79Y764D01*
X249Y764D02*
X263Y764D01*
X1569Y764D02*
X1575Y764D01*
X1628Y764D02*
X1634Y764D01*
X1826Y764D02*
X1833Y764D01*
X1900Y764D02*
X1907Y764D01*
X2765Y764D02*
X2772Y764D01*
X1Y763D02*
X8Y763D01*
X70Y763D02*
X83Y763D01*
X247Y763D02*
X260Y763D01*
X1568Y763D02*
X1575Y763D01*
X1628Y763D02*
X1634Y763D01*
X1825Y763D02*
X1832Y763D01*
X1900Y763D02*
X1907Y763D01*
X2765Y763D02*
X2772Y763D01*
X1Y762D02*
X8Y762D01*
X71Y762D02*
X85Y762D01*
X246Y762D02*
X257Y762D01*
X1568Y762D02*
X1574Y762D01*
X1628Y762D02*
X1634Y762D01*
X1825Y762D02*
X1832Y762D01*
X1900Y762D02*
X1907Y762D01*
X2765Y762D02*
X2772Y762D01*
X1Y761D02*
X8Y761D01*
X72Y761D02*
X85Y761D01*
X244Y761D02*
X256Y761D01*
X1567Y761D02*
X1574Y761D01*
X1628Y761D02*
X1634Y761D01*
X1824Y761D02*
X1831Y761D01*
X1900Y761D02*
X1907Y761D01*
X2765Y761D02*
X2772Y761D01*
X1Y760D02*
X8Y760D01*
X74Y760D02*
X85Y760D01*
X243Y760D02*
X254Y760D01*
X1567Y760D02*
X1573Y760D01*
X1628Y760D02*
X1634Y760D01*
X1824Y760D02*
X1831Y760D01*
X1900Y760D02*
X1907Y760D01*
X2765Y760D02*
X2772Y760D01*
X1Y759D02*
X8Y759D01*
X73Y759D02*
X85Y759D01*
X242Y759D02*
X253Y759D01*
X1566Y759D02*
X1573Y759D01*
X1628Y759D02*
X1634Y759D01*
X1824Y759D02*
X1830Y759D01*
X1900Y759D02*
X1907Y759D01*
X2765Y759D02*
X2772Y759D01*
X1Y758D02*
X8Y758D01*
X71Y758D02*
X85Y758D01*
X240Y758D02*
X251Y758D01*
X1566Y758D02*
X1572Y758D01*
X1628Y758D02*
X1634Y758D01*
X1823Y758D02*
X1830Y758D01*
X1900Y758D02*
X1906Y758D01*
X2765Y758D02*
X2772Y758D01*
X1Y757D02*
X8Y757D01*
X70Y757D02*
X84Y757D01*
X240Y757D02*
X250Y757D01*
X1565Y757D02*
X1572Y757D01*
X1628Y757D02*
X1634Y757D01*
X1823Y757D02*
X1829Y757D01*
X1876Y757D02*
X1906Y757D01*
X2765Y757D02*
X2772Y757D01*
X1Y756D02*
X8Y756D01*
X68Y756D02*
X80Y756D01*
X240Y756D02*
X291Y756D01*
X1565Y756D02*
X1571Y756D01*
X1628Y756D02*
X1634Y756D01*
X1823Y756D02*
X1829Y756D01*
X1875Y756D02*
X1906Y756D01*
X2765Y756D02*
X2772Y756D01*
X1Y755D02*
X8Y755D01*
X67Y755D02*
X78Y755D01*
X240Y755D02*
X292Y755D01*
X1565Y755D02*
X1571Y755D01*
X1628Y755D02*
X1634Y755D01*
X1823Y755D02*
X1829Y755D01*
X1874Y755D02*
X1906Y755D01*
X2765Y755D02*
X2772Y755D01*
X1Y754D02*
X8Y754D01*
X66Y754D02*
X77Y754D01*
X240Y754D02*
X293Y754D01*
X1565Y754D02*
X1571Y754D01*
X1628Y754D02*
X1634Y754D01*
X1823Y754D02*
X1829Y754D01*
X1874Y754D02*
X1905Y754D01*
X2765Y754D02*
X2772Y754D01*
X1Y753D02*
X8Y753D01*
X64Y753D02*
X75Y753D01*
X240Y753D02*
X293Y753D01*
X1565Y753D02*
X1571Y753D01*
X1628Y753D02*
X1634Y753D01*
X1823Y753D02*
X1829Y753D01*
X1873Y753D02*
X1904Y753D01*
X2765Y753D02*
X2772Y753D01*
X1Y752D02*
X8Y752D01*
X63Y752D02*
X74Y752D01*
X240Y752D02*
X293Y752D01*
X1565Y752D02*
X1571Y752D01*
X1628Y752D02*
X1634Y752D01*
X1823Y752D02*
X1829Y752D01*
X1873Y752D02*
X1903Y752D01*
X2765Y752D02*
X2772Y752D01*
X1Y751D02*
X8Y751D01*
X62Y751D02*
X73Y751D01*
X240Y751D02*
X293Y751D01*
X1565Y751D02*
X1571Y751D01*
X1628Y751D02*
X1634Y751D01*
X1823Y751D02*
X1830Y751D01*
X1873Y751D02*
X1879Y751D01*
X2765Y751D02*
X2772Y751D01*
X1Y750D02*
X8Y750D01*
X62Y750D02*
X71Y750D01*
X240Y750D02*
X292Y750D01*
X1565Y750D02*
X1571Y750D01*
X1628Y750D02*
X1634Y750D01*
X1824Y750D02*
X1830Y750D01*
X1873Y750D02*
X1879Y750D01*
X2765Y750D02*
X2772Y750D01*
X1Y749D02*
X8Y749D01*
X62Y749D02*
X113Y749D01*
X1565Y749D02*
X1571Y749D01*
X1628Y749D02*
X1634Y749D01*
X1643Y749D02*
X1647Y749D01*
X1824Y749D02*
X1831Y749D01*
X1873Y749D02*
X1879Y749D01*
X2765Y749D02*
X2772Y749D01*
X1Y748D02*
X8Y748D01*
X62Y748D02*
X114Y748D01*
X1565Y748D02*
X1572Y748D01*
X1628Y748D02*
X1634Y748D01*
X1643Y748D02*
X1648Y748D01*
X1824Y748D02*
X1831Y748D01*
X1873Y748D02*
X1879Y748D01*
X2765Y748D02*
X2772Y748D01*
X1Y747D02*
X8Y747D01*
X62Y747D02*
X115Y747D01*
X1566Y747D02*
X1572Y747D01*
X1628Y747D02*
X1634Y747D01*
X1642Y747D02*
X1648Y747D01*
X1825Y747D02*
X1832Y747D01*
X1873Y747D02*
X1879Y747D01*
X2765Y747D02*
X2772Y747D01*
X1Y746D02*
X8Y746D01*
X62Y746D02*
X115Y746D01*
X1566Y746D02*
X1573Y746D01*
X1628Y746D02*
X1634Y746D01*
X1642Y746D02*
X1648Y746D01*
X1825Y746D02*
X1832Y746D01*
X1873Y746D02*
X1879Y746D01*
X2765Y746D02*
X2772Y746D01*
X1Y745D02*
X8Y745D01*
X62Y745D02*
X115Y745D01*
X1566Y745D02*
X1573Y745D01*
X1628Y745D02*
X1634Y745D01*
X1642Y745D02*
X1648Y745D01*
X1826Y745D02*
X1833Y745D01*
X1873Y745D02*
X1879Y745D01*
X2765Y745D02*
X2772Y745D01*
X1Y744D02*
X8Y744D01*
X62Y744D02*
X114Y744D01*
X1567Y744D02*
X1574Y744D01*
X1628Y744D02*
X1634Y744D01*
X1642Y744D02*
X1648Y744D01*
X1826Y744D02*
X1833Y744D01*
X1873Y744D02*
X1879Y744D01*
X2765Y744D02*
X2772Y744D01*
X1Y743D02*
X8Y743D01*
X62Y743D02*
X113Y743D01*
X1567Y743D02*
X1574Y743D01*
X1628Y743D02*
X1634Y743D01*
X1642Y743D02*
X1648Y743D01*
X1827Y743D02*
X1834Y743D01*
X1873Y743D02*
X1879Y743D01*
X2765Y743D02*
X2772Y743D01*
X1Y742D02*
X8Y742D01*
X1568Y742D02*
X1575Y742D01*
X1628Y742D02*
X1634Y742D01*
X1642Y742D02*
X1648Y742D01*
X1827Y742D02*
X1834Y742D01*
X1873Y742D02*
X1879Y742D01*
X2765Y742D02*
X2772Y742D01*
X1Y741D02*
X8Y741D01*
X1568Y741D02*
X1575Y741D01*
X1628Y741D02*
X1634Y741D01*
X1642Y741D02*
X1648Y741D01*
X1828Y741D02*
X1835Y741D01*
X1873Y741D02*
X1879Y741D01*
X2765Y741D02*
X2772Y741D01*
X1Y740D02*
X8Y740D01*
X1569Y740D02*
X1576Y740D01*
X1628Y740D02*
X1634Y740D01*
X1642Y740D02*
X1648Y740D01*
X1828Y740D02*
X1835Y740D01*
X1873Y740D02*
X1879Y740D01*
X2765Y740D02*
X2772Y740D01*
X1Y739D02*
X8Y739D01*
X1569Y739D02*
X1576Y739D01*
X1628Y739D02*
X1634Y739D01*
X1642Y739D02*
X1648Y739D01*
X1829Y739D02*
X1836Y739D01*
X1873Y739D02*
X1879Y739D01*
X2765Y739D02*
X2772Y739D01*
X1Y738D02*
X8Y738D01*
X1570Y738D02*
X1577Y738D01*
X1628Y738D02*
X1634Y738D01*
X1642Y738D02*
X1648Y738D01*
X1829Y738D02*
X1836Y738D01*
X1873Y738D02*
X1879Y738D01*
X2765Y738D02*
X2772Y738D01*
X1Y737D02*
X8Y737D01*
X1570Y737D02*
X1577Y737D01*
X1628Y737D02*
X1634Y737D01*
X1642Y737D02*
X1648Y737D01*
X1830Y737D02*
X1837Y737D01*
X1873Y737D02*
X1879Y737D01*
X2765Y737D02*
X2772Y737D01*
X1Y736D02*
X8Y736D01*
X1571Y736D02*
X1578Y736D01*
X1628Y736D02*
X1634Y736D01*
X1642Y736D02*
X1648Y736D01*
X1830Y736D02*
X1837Y736D01*
X1873Y736D02*
X1879Y736D01*
X2765Y736D02*
X2772Y736D01*
X1Y735D02*
X8Y735D01*
X1571Y735D02*
X1578Y735D01*
X1628Y735D02*
X1634Y735D01*
X1642Y735D02*
X1648Y735D01*
X1831Y735D02*
X1838Y735D01*
X1873Y735D02*
X1879Y735D01*
X2765Y735D02*
X2772Y735D01*
X1Y734D02*
X8Y734D01*
X1572Y734D02*
X1579Y734D01*
X1628Y734D02*
X1634Y734D01*
X1642Y734D02*
X1648Y734D01*
X1831Y734D02*
X1855Y734D01*
X1873Y734D02*
X1905Y734D01*
X2765Y734D02*
X2772Y734D01*
X1Y733D02*
X8Y733D01*
X271Y733D02*
X292Y733D01*
X1572Y733D02*
X1579Y733D01*
X1628Y733D02*
X1634Y733D01*
X1642Y733D02*
X1648Y733D01*
X1832Y733D02*
X1856Y733D01*
X1873Y733D02*
X1906Y733D01*
X2765Y733D02*
X2772Y733D01*
X1Y732D02*
X8Y732D01*
X270Y732D02*
X293Y732D01*
X1573Y732D02*
X1595Y732D01*
X1617Y732D02*
X1648Y732D01*
X1833Y732D02*
X1856Y732D01*
X1873Y732D02*
X1906Y732D01*
X2765Y732D02*
X2772Y732D01*
X1Y731D02*
X8Y731D01*
X270Y731D02*
X293Y731D01*
X1573Y731D02*
X1597Y731D01*
X1616Y731D02*
X1648Y731D01*
X1833Y731D02*
X1856Y731D01*
X1873Y731D02*
X1906Y731D01*
X2765Y731D02*
X2772Y731D01*
X1Y730D02*
X8Y730D01*
X270Y730D02*
X293Y730D01*
X1574Y730D02*
X1598Y730D01*
X1615Y730D02*
X1648Y730D01*
X1834Y730D02*
X1856Y730D01*
X1873Y730D02*
X1906Y730D01*
X2765Y730D02*
X2772Y730D01*
X1Y729D02*
X8Y729D01*
X270Y729D02*
X293Y729D01*
X1575Y729D02*
X1598Y729D01*
X1615Y729D02*
X1648Y729D01*
X1836Y729D02*
X1856Y729D01*
X1873Y729D02*
X1906Y729D01*
X2765Y729D02*
X2772Y729D01*
X1Y728D02*
X8Y728D01*
X270Y728D02*
X293Y728D01*
X1576Y728D02*
X1598Y728D01*
X1615Y728D02*
X1648Y728D01*
X1838Y728D02*
X1855Y728D01*
X1873Y728D02*
X1905Y728D01*
X2765Y728D02*
X2772Y728D01*
X1Y727D02*
X8Y727D01*
X91Y727D02*
X110Y727D01*
X270Y727D02*
X293Y727D01*
X1577Y727D02*
X1598Y727D01*
X1615Y727D02*
X1648Y727D01*
X2765Y727D02*
X2772Y727D01*
X1Y726D02*
X8Y726D01*
X89Y726D02*
X112Y726D01*
X270Y726D02*
X276Y726D01*
X287Y726D02*
X293Y726D01*
X1579Y726D02*
X1597Y726D01*
X1616Y726D02*
X1647Y726D01*
X2765Y726D02*
X2772Y726D01*
X1Y725D02*
X8Y725D01*
X87Y725D02*
X113Y725D01*
X270Y725D02*
X276Y725D01*
X287Y725D02*
X293Y725D01*
X2765Y725D02*
X2772Y725D01*
X1Y724D02*
X8Y724D01*
X87Y724D02*
X114Y724D01*
X270Y724D02*
X276Y724D01*
X287Y724D02*
X293Y724D01*
X2765Y724D02*
X2772Y724D01*
X1Y723D02*
X8Y723D01*
X86Y723D02*
X114Y723D01*
X270Y723D02*
X276Y723D01*
X287Y723D02*
X293Y723D01*
X2765Y723D02*
X2772Y723D01*
X1Y722D02*
X8Y722D01*
X86Y722D02*
X115Y722D01*
X270Y722D02*
X276Y722D01*
X287Y722D02*
X293Y722D01*
X2765Y722D02*
X2772Y722D01*
X1Y721D02*
X8Y721D01*
X85Y721D02*
X115Y721D01*
X270Y721D02*
X276Y721D01*
X287Y721D02*
X293Y721D01*
X2765Y721D02*
X2772Y721D01*
X1Y720D02*
X8Y720D01*
X64Y720D02*
X92Y720D01*
X109Y720D02*
X115Y720D01*
X270Y720D02*
X276Y720D01*
X287Y720D02*
X293Y720D01*
X2765Y720D02*
X2772Y720D01*
X1Y719D02*
X8Y719D01*
X63Y719D02*
X91Y719D01*
X109Y719D02*
X115Y719D01*
X270Y719D02*
X276Y719D01*
X287Y719D02*
X293Y719D01*
X2765Y719D02*
X2772Y719D01*
X1Y718D02*
X8Y718D01*
X62Y718D02*
X91Y718D01*
X109Y718D02*
X115Y718D01*
X270Y718D02*
X276Y718D01*
X287Y718D02*
X293Y718D01*
X2765Y718D02*
X2772Y718D01*
X1Y717D02*
X8Y717D01*
X62Y717D02*
X91Y717D01*
X109Y717D02*
X115Y717D01*
X270Y717D02*
X276Y717D01*
X287Y717D02*
X293Y717D01*
X2765Y717D02*
X2772Y717D01*
X1Y716D02*
X8Y716D01*
X62Y716D02*
X91Y716D01*
X109Y716D02*
X115Y716D01*
X270Y716D02*
X276Y716D01*
X287Y716D02*
X293Y716D01*
X2765Y716D02*
X2772Y716D01*
X1Y715D02*
X8Y715D01*
X62Y715D02*
X91Y715D01*
X109Y715D02*
X115Y715D01*
X270Y715D02*
X276Y715D01*
X287Y715D02*
X293Y715D01*
X2765Y715D02*
X2772Y715D01*
X1Y714D02*
X8Y714D01*
X62Y714D02*
X91Y714D01*
X109Y714D02*
X115Y714D01*
X270Y714D02*
X276Y714D01*
X287Y714D02*
X293Y714D01*
X2765Y714D02*
X2772Y714D01*
X1Y713D02*
X8Y713D01*
X62Y713D02*
X68Y713D01*
X85Y713D02*
X91Y713D01*
X109Y713D02*
X115Y713D01*
X270Y713D02*
X276Y713D01*
X287Y713D02*
X293Y713D01*
X2765Y713D02*
X2772Y713D01*
X1Y712D02*
X8Y712D01*
X62Y712D02*
X68Y712D01*
X85Y712D02*
X91Y712D01*
X109Y712D02*
X115Y712D01*
X270Y712D02*
X276Y712D01*
X287Y712D02*
X293Y712D01*
X2765Y712D02*
X2772Y712D01*
X1Y711D02*
X8Y711D01*
X62Y711D02*
X68Y711D01*
X85Y711D02*
X91Y711D01*
X109Y711D02*
X115Y711D01*
X270Y711D02*
X276Y711D01*
X287Y711D02*
X293Y711D01*
X2765Y711D02*
X2772Y711D01*
X1Y710D02*
X8Y710D01*
X62Y710D02*
X68Y710D01*
X85Y710D02*
X91Y710D01*
X109Y710D02*
X115Y710D01*
X270Y710D02*
X276Y710D01*
X287Y710D02*
X293Y710D01*
X2765Y710D02*
X2772Y710D01*
X1Y709D02*
X8Y709D01*
X62Y709D02*
X68Y709D01*
X85Y709D02*
X91Y709D01*
X109Y709D02*
X115Y709D01*
X242Y709D02*
X245Y709D01*
X270Y709D02*
X276Y709D01*
X287Y709D02*
X293Y709D01*
X2765Y709D02*
X2772Y709D01*
X1Y708D02*
X8Y708D01*
X62Y708D02*
X68Y708D01*
X85Y708D02*
X91Y708D01*
X109Y708D02*
X115Y708D01*
X241Y708D02*
X246Y708D01*
X270Y708D02*
X276Y708D01*
X287Y708D02*
X293Y708D01*
X2765Y708D02*
X2772Y708D01*
X1Y707D02*
X8Y707D01*
X62Y707D02*
X68Y707D01*
X85Y707D02*
X91Y707D01*
X109Y707D02*
X115Y707D01*
X240Y707D02*
X246Y707D01*
X270Y707D02*
X276Y707D01*
X287Y707D02*
X293Y707D01*
X2765Y707D02*
X2772Y707D01*
X1Y706D02*
X8Y706D01*
X62Y706D02*
X91Y706D01*
X109Y706D02*
X115Y706D01*
X240Y706D02*
X293Y706D01*
X2765Y706D02*
X2772Y706D01*
X1Y705D02*
X8Y705D01*
X62Y705D02*
X91Y705D01*
X109Y705D02*
X115Y705D01*
X240Y705D02*
X293Y705D01*
X2765Y705D02*
X2772Y705D01*
X1Y704D02*
X8Y704D01*
X62Y704D02*
X91Y704D01*
X109Y704D02*
X115Y704D01*
X240Y704D02*
X293Y704D01*
X2765Y704D02*
X2772Y704D01*
X1Y703D02*
X8Y703D01*
X62Y703D02*
X91Y703D01*
X109Y703D02*
X115Y703D01*
X240Y703D02*
X293Y703D01*
X2765Y703D02*
X2772Y703D01*
X1Y702D02*
X8Y702D01*
X62Y702D02*
X91Y702D01*
X109Y702D02*
X115Y702D01*
X240Y702D02*
X293Y702D01*
X1629Y702D02*
X1640Y702D01*
X1829Y702D02*
X1840Y702D01*
X2765Y702D02*
X2772Y702D01*
X1Y701D02*
X8Y701D01*
X62Y701D02*
X91Y701D01*
X109Y701D02*
X115Y701D01*
X241Y701D02*
X293Y701D01*
X1625Y701D02*
X1644Y701D01*
X1825Y701D02*
X1844Y701D01*
X2765Y701D02*
X2772Y701D01*
X1Y700D02*
X8Y700D01*
X64Y700D02*
X91Y700D01*
X109Y700D02*
X115Y700D01*
X241Y700D02*
X292Y700D01*
X1622Y700D02*
X1647Y700D01*
X1822Y700D02*
X1847Y700D01*
X2765Y700D02*
X2772Y700D01*
X1Y699D02*
X8Y699D01*
X85Y699D02*
X115Y699D01*
X1620Y699D02*
X1649Y699D01*
X1820Y699D02*
X1849Y699D01*
X2765Y699D02*
X2772Y699D01*
X1Y698D02*
X8Y698D01*
X86Y698D02*
X115Y698D01*
X1618Y698D02*
X1651Y698D01*
X1818Y698D02*
X1851Y698D01*
X2765Y698D02*
X2772Y698D01*
X1Y697D02*
X8Y697D01*
X86Y697D02*
X114Y697D01*
X1616Y697D02*
X1652Y697D01*
X1816Y697D02*
X1852Y697D01*
X2765Y697D02*
X2772Y697D01*
X1Y696D02*
X8Y696D01*
X86Y696D02*
X114Y696D01*
X1615Y696D02*
X1654Y696D01*
X1815Y696D02*
X1854Y696D01*
X2765Y696D02*
X2772Y696D01*
X1Y695D02*
X8Y695D01*
X87Y695D02*
X113Y695D01*
X1615Y695D02*
X1654Y695D01*
X1815Y695D02*
X1854Y695D01*
X2765Y695D02*
X2772Y695D01*
X1Y694D02*
X8Y694D01*
X88Y694D02*
X112Y694D01*
X1616Y694D02*
X1627Y694D01*
X1641Y694D02*
X1653Y694D01*
X1816Y694D02*
X1827Y694D01*
X1841Y694D02*
X1853Y694D01*
X2765Y694D02*
X2772Y694D01*
X1Y693D02*
X8Y693D01*
X90Y693D02*
X110Y693D01*
X1617Y693D02*
X1625Y693D01*
X1644Y693D02*
X1652Y693D01*
X1816Y693D02*
X1825Y693D01*
X1844Y693D02*
X1852Y693D01*
X2765Y693D02*
X2772Y693D01*
X1Y692D02*
X8Y692D01*
X1617Y692D02*
X1622Y692D01*
X1646Y692D02*
X1652Y692D01*
X1817Y692D02*
X1822Y692D01*
X1846Y692D02*
X1852Y692D01*
X2765Y692D02*
X2772Y692D01*
X1Y691D02*
X8Y691D01*
X1618Y691D02*
X1621Y691D01*
X1648Y691D02*
X1651Y691D01*
X1818Y691D02*
X1821Y691D01*
X1848Y691D02*
X1851Y691D01*
X2765Y691D02*
X2772Y691D01*
X1Y690D02*
X8Y690D01*
X1619Y690D02*
X1619Y690D01*
X1649Y690D02*
X1650Y690D01*
X1819Y690D02*
X1819Y690D01*
X1849Y690D02*
X1850Y690D01*
X2765Y690D02*
X2772Y690D01*
X1Y689D02*
X8Y689D01*
X2765Y689D02*
X2772Y689D01*
X1Y688D02*
X8Y688D01*
X2765Y688D02*
X2772Y688D01*
X1Y687D02*
X8Y687D01*
X2765Y687D02*
X2772Y687D01*
X1Y686D02*
X8Y686D01*
X2765Y686D02*
X2772Y686D01*
X1Y685D02*
X8Y685D01*
X2765Y685D02*
X2772Y685D01*
X1Y684D02*
X8Y684D01*
X2765Y684D02*
X2772Y684D01*
X1Y683D02*
X8Y683D01*
X271Y683D02*
X292Y683D01*
X2765Y683D02*
X2772Y683D01*
X1Y682D02*
X8Y682D01*
X270Y682D02*
X293Y682D01*
X2765Y682D02*
X2772Y682D01*
X1Y681D02*
X8Y681D01*
X270Y681D02*
X293Y681D01*
X2765Y681D02*
X2772Y681D01*
X1Y680D02*
X8Y680D01*
X270Y680D02*
X293Y680D01*
X2765Y680D02*
X2772Y680D01*
X1Y679D02*
X8Y679D01*
X270Y679D02*
X293Y679D01*
X2765Y679D02*
X2772Y679D01*
X1Y678D02*
X8Y678D01*
X270Y678D02*
X293Y678D01*
X2765Y678D02*
X2772Y678D01*
X1Y677D02*
X8Y677D01*
X272Y677D02*
X293Y677D01*
X2765Y677D02*
X2772Y677D01*
X1Y676D02*
X8Y676D01*
X287Y676D02*
X293Y676D01*
X2765Y676D02*
X2772Y676D01*
X1Y675D02*
X8Y675D01*
X287Y675D02*
X293Y675D01*
X2765Y675D02*
X2772Y675D01*
X1Y674D02*
X8Y674D01*
X287Y674D02*
X293Y674D01*
X2765Y674D02*
X2772Y674D01*
X1Y673D02*
X8Y673D01*
X287Y673D02*
X293Y673D01*
X2765Y673D02*
X2772Y673D01*
X1Y672D02*
X8Y672D01*
X287Y672D02*
X293Y672D01*
X2765Y672D02*
X2772Y672D01*
X1Y671D02*
X8Y671D01*
X287Y671D02*
X293Y671D01*
X2765Y671D02*
X2772Y671D01*
X1Y670D02*
X8Y670D01*
X241Y670D02*
X293Y670D01*
X2765Y670D02*
X2772Y670D01*
X1Y669D02*
X8Y669D01*
X240Y669D02*
X293Y669D01*
X2765Y669D02*
X2772Y669D01*
X1Y668D02*
X8Y668D01*
X240Y668D02*
X293Y668D01*
X2765Y668D02*
X2772Y668D01*
X1Y667D02*
X8Y667D01*
X240Y667D02*
X293Y667D01*
X2765Y667D02*
X2772Y667D01*
X1Y666D02*
X8Y666D01*
X240Y666D02*
X293Y666D01*
X2765Y666D02*
X2772Y666D01*
X1Y665D02*
X8Y665D01*
X240Y665D02*
X293Y665D01*
X2765Y665D02*
X2772Y665D01*
X1Y664D02*
X8Y664D01*
X240Y664D02*
X293Y664D01*
X2765Y664D02*
X2772Y664D01*
X1Y663D02*
X8Y663D01*
X240Y663D02*
X293Y663D01*
X2765Y663D02*
X2772Y663D01*
X1Y662D02*
X8Y662D01*
X240Y662D02*
X246Y662D01*
X287Y662D02*
X293Y662D01*
X2765Y662D02*
X2772Y662D01*
X1Y661D02*
X8Y661D01*
X240Y661D02*
X246Y661D01*
X287Y661D02*
X293Y661D01*
X2765Y661D02*
X2772Y661D01*
X1Y660D02*
X8Y660D01*
X240Y660D02*
X246Y660D01*
X287Y660D02*
X293Y660D01*
X2765Y660D02*
X2772Y660D01*
X1Y659D02*
X8Y659D01*
X240Y659D02*
X246Y659D01*
X287Y659D02*
X293Y659D01*
X2765Y659D02*
X2772Y659D01*
X1Y658D02*
X8Y658D01*
X240Y658D02*
X246Y658D01*
X287Y658D02*
X293Y658D01*
X2765Y658D02*
X2772Y658D01*
X1Y657D02*
X8Y657D01*
X240Y657D02*
X246Y657D01*
X287Y657D02*
X293Y657D01*
X2765Y657D02*
X2772Y657D01*
X1Y656D02*
X8Y656D01*
X240Y656D02*
X246Y656D01*
X287Y656D02*
X293Y656D01*
X2765Y656D02*
X2772Y656D01*
X1Y655D02*
X8Y655D01*
X240Y655D02*
X246Y655D01*
X287Y655D02*
X293Y655D01*
X2765Y655D02*
X2772Y655D01*
X1Y654D02*
X8Y654D01*
X240Y654D02*
X246Y654D01*
X287Y654D02*
X293Y654D01*
X2765Y654D02*
X2772Y654D01*
X1Y653D02*
X8Y653D01*
X240Y653D02*
X246Y653D01*
X287Y653D02*
X293Y653D01*
X2765Y653D02*
X2772Y653D01*
X1Y652D02*
X8Y652D01*
X240Y652D02*
X246Y652D01*
X287Y652D02*
X293Y652D01*
X2765Y652D02*
X2772Y652D01*
X1Y651D02*
X8Y651D01*
X241Y651D02*
X246Y651D01*
X288Y651D02*
X293Y651D01*
X2765Y651D02*
X2772Y651D01*
X1Y650D02*
X8Y650D01*
X241Y650D02*
X245Y650D01*
X289Y650D02*
X292Y650D01*
X2765Y650D02*
X2772Y650D01*
X1Y649D02*
X8Y649D01*
X2765Y649D02*
X2772Y649D01*
X1Y648D02*
X8Y648D01*
X1650Y648D02*
X1650Y648D01*
X1850Y648D02*
X1850Y648D01*
X2765Y648D02*
X2772Y648D01*
X1Y647D02*
X8Y647D01*
X1618Y647D02*
X1620Y647D01*
X1649Y647D02*
X1651Y647D01*
X1818Y647D02*
X1820Y647D01*
X1849Y647D02*
X1851Y647D01*
X2765Y647D02*
X2772Y647D01*
X1Y646D02*
X8Y646D01*
X1618Y646D02*
X1622Y646D01*
X1647Y646D02*
X1651Y646D01*
X1818Y646D02*
X1821Y646D01*
X1847Y646D02*
X1851Y646D01*
X2765Y646D02*
X2772Y646D01*
X1Y645D02*
X8Y645D01*
X1617Y645D02*
X1623Y645D01*
X1645Y645D02*
X1652Y645D01*
X1817Y645D02*
X1823Y645D01*
X1845Y645D02*
X1852Y645D01*
X2765Y645D02*
X2772Y645D01*
X1Y644D02*
X8Y644D01*
X1616Y644D02*
X1626Y644D01*
X1643Y644D02*
X1653Y644D01*
X1816Y644D02*
X1826Y644D01*
X1843Y644D02*
X1853Y644D01*
X2765Y644D02*
X2772Y644D01*
X1Y643D02*
X8Y643D01*
X1615Y643D02*
X1629Y643D01*
X1639Y643D02*
X1653Y643D01*
X1815Y643D02*
X1829Y643D01*
X1839Y643D02*
X1853Y643D01*
X2765Y643D02*
X2772Y643D01*
X1Y642D02*
X8Y642D01*
X1614Y642D02*
X1654Y642D01*
X1814Y642D02*
X1854Y642D01*
X2765Y642D02*
X2772Y642D01*
X1Y641D02*
X8Y641D01*
X1616Y641D02*
X1653Y641D01*
X1816Y641D02*
X1853Y641D01*
X2765Y641D02*
X2772Y641D01*
X1Y640D02*
X8Y640D01*
X1617Y640D02*
X1652Y640D01*
X1817Y640D02*
X1852Y640D01*
X2765Y640D02*
X2772Y640D01*
X1Y639D02*
X8Y639D01*
X1619Y639D02*
X1650Y639D01*
X1819Y639D02*
X1850Y639D01*
X2765Y639D02*
X2772Y639D01*
X1Y638D02*
X8Y638D01*
X1621Y638D02*
X1648Y638D01*
X1821Y638D02*
X1848Y638D01*
X2765Y638D02*
X2772Y638D01*
X1Y637D02*
X8Y637D01*
X1623Y637D02*
X1645Y637D01*
X1823Y637D02*
X1845Y637D01*
X2765Y637D02*
X2772Y637D01*
X1Y636D02*
X8Y636D01*
X1627Y636D02*
X1642Y636D01*
X1827Y636D02*
X1842Y636D01*
X2765Y636D02*
X2772Y636D01*
X1Y635D02*
X8Y635D01*
X1634Y635D02*
X1635Y635D01*
X1834Y635D02*
X1835Y635D01*
X2765Y635D02*
X2772Y635D01*
X1Y634D02*
X8Y634D01*
X2765Y634D02*
X2772Y634D01*
X1Y633D02*
X8Y633D01*
X2765Y633D02*
X2772Y633D01*
X1Y632D02*
X8Y632D01*
X2678Y632D02*
X2683Y632D01*
X2765Y632D02*
X2772Y632D01*
X1Y631D02*
X8Y631D01*
X2678Y631D02*
X2686Y631D01*
X2765Y631D02*
X2772Y631D01*
X1Y630D02*
X8Y630D01*
X2677Y630D02*
X2690Y630D01*
X2765Y630D02*
X2772Y630D01*
X1Y629D02*
X8Y629D01*
X2677Y629D02*
X2693Y629D01*
X2765Y629D02*
X2772Y629D01*
X1Y628D02*
X8Y628D01*
X2678Y628D02*
X2697Y628D01*
X2765Y628D02*
X2772Y628D01*
X1Y627D02*
X8Y627D01*
X2678Y627D02*
X2700Y627D01*
X2765Y627D02*
X2772Y627D01*
X1Y626D02*
X8Y626D01*
X2680Y626D02*
X2704Y626D01*
X2765Y626D02*
X2772Y626D01*
X1Y625D02*
X8Y625D01*
X2683Y625D02*
X2707Y625D01*
X2765Y625D02*
X2772Y625D01*
X1Y624D02*
X8Y624D01*
X2686Y624D02*
X2710Y624D01*
X2765Y624D02*
X2772Y624D01*
X1Y623D02*
X8Y623D01*
X2689Y623D02*
X2714Y623D01*
X2765Y623D02*
X2772Y623D01*
X1Y622D02*
X8Y622D01*
X2689Y622D02*
X2717Y622D01*
X2765Y622D02*
X2772Y622D01*
X1Y621D02*
X8Y621D01*
X2689Y621D02*
X2695Y621D01*
X2697Y621D02*
X2721Y621D01*
X2765Y621D02*
X2772Y621D01*
X1Y620D02*
X8Y620D01*
X2689Y620D02*
X2695Y620D01*
X2700Y620D02*
X2724Y620D01*
X2765Y620D02*
X2772Y620D01*
X1Y619D02*
X8Y619D01*
X2689Y619D02*
X2695Y619D01*
X2703Y619D02*
X2727Y619D01*
X2765Y619D02*
X2772Y619D01*
X1Y618D02*
X8Y618D01*
X2689Y618D02*
X2695Y618D01*
X2707Y618D02*
X2729Y618D01*
X2765Y618D02*
X2772Y618D01*
X1Y617D02*
X8Y617D01*
X2689Y617D02*
X2695Y617D01*
X2710Y617D02*
X2730Y617D01*
X2765Y617D02*
X2772Y617D01*
X1Y616D02*
X8Y616D01*
X2689Y616D02*
X2695Y616D01*
X2714Y616D02*
X2730Y616D01*
X2765Y616D02*
X2772Y616D01*
X1Y615D02*
X8Y615D01*
X2689Y615D02*
X2695Y615D01*
X2714Y615D02*
X2730Y615D01*
X2765Y615D02*
X2772Y615D01*
X1Y614D02*
X8Y614D01*
X2689Y614D02*
X2695Y614D01*
X2710Y614D02*
X2730Y614D01*
X2765Y614D02*
X2772Y614D01*
X1Y613D02*
X8Y613D01*
X2689Y613D02*
X2695Y613D01*
X2707Y613D02*
X2729Y613D01*
X2765Y613D02*
X2772Y613D01*
X1Y612D02*
X8Y612D01*
X2689Y612D02*
X2695Y612D01*
X2703Y612D02*
X2727Y612D01*
X2765Y612D02*
X2772Y612D01*
X1Y611D02*
X8Y611D01*
X2689Y611D02*
X2695Y611D01*
X2700Y611D02*
X2724Y611D01*
X2765Y611D02*
X2772Y611D01*
X1Y610D02*
X8Y610D01*
X2689Y610D02*
X2721Y610D01*
X2765Y610D02*
X2772Y610D01*
X1Y609D02*
X8Y609D01*
X2689Y609D02*
X2717Y609D01*
X2765Y609D02*
X2772Y609D01*
X1Y608D02*
X8Y608D01*
X2689Y608D02*
X2714Y608D01*
X2765Y608D02*
X2772Y608D01*
X1Y607D02*
X8Y607D01*
X2686Y607D02*
X2710Y607D01*
X2765Y607D02*
X2772Y607D01*
X1Y606D02*
X8Y606D01*
X2683Y606D02*
X2707Y606D01*
X2765Y606D02*
X2772Y606D01*
X1Y605D02*
X8Y605D01*
X2680Y605D02*
X2703Y605D01*
X2765Y605D02*
X2772Y605D01*
X1Y604D02*
X8Y604D01*
X2678Y604D02*
X2700Y604D01*
X2765Y604D02*
X2772Y604D01*
X1Y603D02*
X8Y603D01*
X2677Y603D02*
X2697Y603D01*
X2765Y603D02*
X2772Y603D01*
X1Y602D02*
X8Y602D01*
X2677Y602D02*
X2693Y602D01*
X2765Y602D02*
X2772Y602D01*
X1Y601D02*
X8Y601D01*
X2677Y601D02*
X2690Y601D01*
X2765Y601D02*
X2772Y601D01*
X1Y600D02*
X8Y600D01*
X2678Y600D02*
X2686Y600D01*
X2765Y600D02*
X2772Y600D01*
X1Y599D02*
X8Y599D01*
X2679Y599D02*
X2683Y599D01*
X2765Y599D02*
X2772Y599D01*
X1Y598D02*
X8Y598D01*
X2765Y598D02*
X2772Y598D01*
X1Y597D02*
X8Y597D01*
X2765Y597D02*
X2772Y597D01*
X1Y596D02*
X8Y596D01*
X2765Y596D02*
X2772Y596D01*
X1Y595D02*
X8Y595D01*
X2765Y595D02*
X2772Y595D01*
X1Y594D02*
X8Y594D01*
X2765Y594D02*
X2772Y594D01*
X1Y593D02*
X8Y593D01*
X2765Y593D02*
X2772Y593D01*
X1Y592D02*
X8Y592D01*
X2765Y592D02*
X2772Y592D01*
X1Y591D02*
X8Y591D01*
X2765Y591D02*
X2772Y591D01*
X1Y590D02*
X8Y590D01*
X2765Y590D02*
X2772Y590D01*
X1Y589D02*
X8Y589D01*
X2765Y589D02*
X2772Y589D01*
X1Y588D02*
X8Y588D01*
X2765Y588D02*
X2772Y588D01*
X1Y587D02*
X8Y587D01*
X2765Y587D02*
X2772Y587D01*
X1Y586D02*
X8Y586D01*
X2765Y586D02*
X2772Y586D01*
X1Y585D02*
X8Y585D01*
X2765Y585D02*
X2772Y585D01*
X1Y584D02*
X8Y584D01*
X2765Y584D02*
X2772Y584D01*
X1Y583D02*
X8Y583D01*
X2765Y583D02*
X2772Y583D01*
X1Y582D02*
X8Y582D01*
X2720Y582D02*
X2730Y582D01*
X2765Y582D02*
X2772Y582D01*
X1Y581D02*
X8Y581D01*
X2719Y581D02*
X2730Y581D01*
X2765Y581D02*
X2772Y581D01*
X1Y580D02*
X8Y580D01*
X2719Y580D02*
X2730Y580D01*
X2765Y580D02*
X2772Y580D01*
X1Y579D02*
X8Y579D01*
X2719Y579D02*
X2730Y579D01*
X2765Y579D02*
X2772Y579D01*
X1Y578D02*
X8Y578D01*
X2719Y578D02*
X2730Y578D01*
X2765Y578D02*
X2772Y578D01*
X1Y577D02*
X8Y577D01*
X2719Y577D02*
X2730Y577D01*
X2765Y577D02*
X2772Y577D01*
X1Y576D02*
X8Y576D01*
X2721Y576D02*
X2730Y576D01*
X2765Y576D02*
X2772Y576D01*
X1Y575D02*
X8Y575D01*
X2724Y575D02*
X2730Y575D01*
X2765Y575D02*
X2772Y575D01*
X1Y574D02*
X8Y574D01*
X2724Y574D02*
X2730Y574D01*
X2765Y574D02*
X2772Y574D01*
X1Y573D02*
X8Y573D01*
X2724Y573D02*
X2730Y573D01*
X2765Y573D02*
X2772Y573D01*
X1Y572D02*
X8Y572D01*
X2724Y572D02*
X2730Y572D01*
X2765Y572D02*
X2772Y572D01*
X1Y571D02*
X8Y571D01*
X2724Y571D02*
X2730Y571D01*
X2765Y571D02*
X2772Y571D01*
X1Y570D02*
X8Y570D01*
X2724Y570D02*
X2730Y570D01*
X2765Y570D02*
X2772Y570D01*
X1Y569D02*
X8Y569D01*
X2681Y569D02*
X2730Y569D01*
X2765Y569D02*
X2772Y569D01*
X1Y568D02*
X8Y568D01*
X2678Y568D02*
X2730Y568D01*
X2765Y568D02*
X2772Y568D01*
X1Y567D02*
X8Y567D01*
X2678Y567D02*
X2730Y567D01*
X2765Y567D02*
X2772Y567D01*
X1Y566D02*
X8Y566D01*
X2677Y566D02*
X2730Y566D01*
X2765Y566D02*
X2772Y566D01*
X1Y565D02*
X8Y565D01*
X2677Y565D02*
X2730Y565D01*
X2765Y565D02*
X2772Y565D01*
X1Y564D02*
X8Y564D01*
X2678Y564D02*
X2730Y564D01*
X2765Y564D02*
X2772Y564D01*
X1Y563D02*
X8Y563D01*
X2678Y563D02*
X2730Y563D01*
X2765Y563D02*
X2772Y563D01*
X1Y562D02*
X8Y562D01*
X2681Y562D02*
X2730Y562D01*
X2765Y562D02*
X2772Y562D01*
X1Y561D02*
X8Y561D01*
X2724Y561D02*
X2730Y561D01*
X2765Y561D02*
X2772Y561D01*
X1Y560D02*
X8Y560D01*
X2724Y560D02*
X2730Y560D01*
X2765Y560D02*
X2772Y560D01*
X1Y559D02*
X8Y559D01*
X2724Y559D02*
X2730Y559D01*
X2765Y559D02*
X2772Y559D01*
X1Y558D02*
X8Y558D01*
X2724Y558D02*
X2730Y558D01*
X2765Y558D02*
X2772Y558D01*
X1Y557D02*
X8Y557D01*
X2724Y557D02*
X2730Y557D01*
X2765Y557D02*
X2772Y557D01*
X1Y556D02*
X8Y556D01*
X2724Y556D02*
X2730Y556D01*
X2765Y556D02*
X2772Y556D01*
X1Y555D02*
X8Y555D01*
X2721Y555D02*
X2730Y555D01*
X2765Y555D02*
X2772Y555D01*
X1Y554D02*
X8Y554D01*
X2719Y554D02*
X2730Y554D01*
X2765Y554D02*
X2772Y554D01*
X1Y553D02*
X8Y553D01*
X2719Y553D02*
X2730Y553D01*
X2765Y553D02*
X2772Y553D01*
X1Y552D02*
X8Y552D01*
X2719Y552D02*
X2730Y552D01*
X2765Y552D02*
X2772Y552D01*
X1Y551D02*
X8Y551D01*
X2719Y551D02*
X2730Y551D01*
X2765Y551D02*
X2772Y551D01*
X1Y550D02*
X8Y550D01*
X2719Y550D02*
X2730Y550D01*
X2765Y550D02*
X2772Y550D01*
X1Y549D02*
X8Y549D01*
X2720Y549D02*
X2730Y549D01*
X2765Y549D02*
X2772Y549D01*
X1Y548D02*
X8Y548D01*
X2765Y548D02*
X2772Y548D01*
X1Y547D02*
X8Y547D01*
X2765Y547D02*
X2772Y547D01*
X1Y546D02*
X8Y546D01*
X2765Y546D02*
X2772Y546D01*
X1Y545D02*
X8Y545D01*
X2765Y545D02*
X2772Y545D01*
X1Y544D02*
X8Y544D01*
X2765Y544D02*
X2772Y544D01*
X1Y543D02*
X8Y543D01*
X2765Y543D02*
X2772Y543D01*
X1Y542D02*
X8Y542D01*
X2765Y542D02*
X2772Y542D01*
X1Y541D02*
X8Y541D01*
X2765Y541D02*
X2772Y541D01*
X1Y540D02*
X8Y540D01*
X2765Y540D02*
X2772Y540D01*
X1Y539D02*
X8Y539D01*
X2765Y539D02*
X2772Y539D01*
X1Y538D02*
X8Y538D01*
X2765Y538D02*
X2772Y538D01*
X1Y537D02*
X8Y537D01*
X2765Y537D02*
X2772Y537D01*
X1Y536D02*
X8Y536D01*
X2765Y536D02*
X2772Y536D01*
X1Y535D02*
X8Y535D01*
X2765Y535D02*
X2772Y535D01*
X1Y534D02*
X8Y534D01*
X2765Y534D02*
X2772Y534D01*
X1Y533D02*
X8Y533D01*
X2679Y533D02*
X2713Y533D01*
X2765Y533D02*
X2772Y533D01*
X1Y532D02*
X8Y532D01*
X2678Y532D02*
X2715Y532D01*
X2765Y532D02*
X2772Y532D01*
X1Y531D02*
X8Y531D01*
X2677Y531D02*
X2715Y531D01*
X2765Y531D02*
X2772Y531D01*
X1Y530D02*
X8Y530D01*
X2677Y530D02*
X2716Y530D01*
X2765Y530D02*
X2772Y530D01*
X1Y529D02*
X8Y529D01*
X2677Y529D02*
X2715Y529D01*
X2765Y529D02*
X2772Y529D01*
X1Y528D02*
X8Y528D01*
X2678Y528D02*
X2715Y528D01*
X2765Y528D02*
X2772Y528D01*
X1Y527D02*
X8Y527D01*
X2679Y527D02*
X2714Y527D01*
X2765Y527D02*
X2772Y527D01*
X1Y526D02*
X8Y526D01*
X2705Y526D02*
X2714Y526D01*
X2765Y526D02*
X2772Y526D01*
X1Y525D02*
X8Y525D01*
X2706Y525D02*
X2714Y525D01*
X2765Y525D02*
X2772Y525D01*
X1Y524D02*
X8Y524D01*
X2707Y524D02*
X2715Y524D01*
X2765Y524D02*
X2772Y524D01*
X1Y523D02*
X8Y523D01*
X2708Y523D02*
X2715Y523D01*
X2765Y523D02*
X2772Y523D01*
X1Y522D02*
X8Y522D01*
X2709Y522D02*
X2715Y522D01*
X2765Y522D02*
X2772Y522D01*
X1Y521D02*
X8Y521D01*
X2710Y521D02*
X2716Y521D01*
X2765Y521D02*
X2772Y521D01*
X1Y520D02*
X8Y520D01*
X2710Y520D02*
X2716Y520D01*
X2765Y520D02*
X2772Y520D01*
X1Y519D02*
X8Y519D01*
X2681Y519D02*
X2715Y519D01*
X2765Y519D02*
X2772Y519D01*
X1Y518D02*
X8Y518D01*
X2678Y518D02*
X2715Y518D01*
X2765Y518D02*
X2772Y518D01*
X1Y517D02*
X8Y517D01*
X2678Y517D02*
X2715Y517D01*
X2765Y517D02*
X2772Y517D01*
X1Y516D02*
X8Y516D01*
X2677Y516D02*
X2714Y516D01*
X2765Y516D02*
X2772Y516D01*
X1Y515D02*
X8Y515D01*
X2677Y515D02*
X2714Y515D01*
X2765Y515D02*
X2772Y515D01*
X1Y514D02*
X8Y514D01*
X2678Y514D02*
X2713Y514D01*
X2765Y514D02*
X2772Y514D01*
X1Y513D02*
X8Y513D01*
X2678Y513D02*
X2713Y513D01*
X2765Y513D02*
X2772Y513D01*
X1Y512D02*
X8Y512D01*
X2681Y512D02*
X2714Y512D01*
X2765Y512D02*
X2772Y512D01*
X1Y511D02*
X8Y511D01*
X2706Y511D02*
X2714Y511D01*
X2765Y511D02*
X2772Y511D01*
X1Y510D02*
X8Y510D01*
X2707Y510D02*
X2715Y510D01*
X2765Y510D02*
X2772Y510D01*
X1Y509D02*
X8Y509D01*
X2708Y509D02*
X2715Y509D01*
X2765Y509D02*
X2772Y509D01*
X1Y508D02*
X8Y508D01*
X2709Y508D02*
X2715Y508D01*
X2765Y508D02*
X2772Y508D01*
X1Y507D02*
X8Y507D01*
X2710Y507D02*
X2715Y507D01*
X2765Y507D02*
X2772Y507D01*
X1Y506D02*
X8Y506D01*
X2709Y506D02*
X2715Y506D01*
X2765Y506D02*
X2772Y506D01*
X1Y505D02*
X8Y505D01*
X2689Y505D02*
X2715Y505D01*
X2765Y505D02*
X2772Y505D01*
X1Y504D02*
X8Y504D01*
X2679Y504D02*
X2715Y504D01*
X2765Y504D02*
X2772Y504D01*
X1Y503D02*
X8Y503D01*
X2678Y503D02*
X2714Y503D01*
X2765Y503D02*
X2772Y503D01*
X1Y502D02*
X8Y502D01*
X2677Y502D02*
X2714Y502D01*
X2765Y502D02*
X2772Y502D01*
X1Y501D02*
X8Y501D01*
X2677Y501D02*
X2713Y501D01*
X2765Y501D02*
X2772Y501D01*
X1Y500D02*
X8Y500D01*
X2677Y500D02*
X2712Y500D01*
X2765Y500D02*
X2772Y500D01*
X1Y499D02*
X8Y499D01*
X2678Y499D02*
X2709Y499D01*
X2765Y499D02*
X2772Y499D01*
X1Y498D02*
X8Y498D01*
X2679Y498D02*
X2688Y498D01*
X2765Y498D02*
X2772Y498D01*
X1Y497D02*
X8Y497D01*
X2765Y497D02*
X2772Y497D01*
X1Y496D02*
X8Y496D01*
X2765Y496D02*
X2772Y496D01*
X1Y495D02*
X8Y495D01*
X2765Y495D02*
X2772Y495D01*
X1Y494D02*
X8Y494D01*
X2765Y494D02*
X2772Y494D01*
X1Y493D02*
X8Y493D01*
X2765Y493D02*
X2772Y493D01*
X1Y492D02*
X8Y492D01*
X2765Y492D02*
X2772Y492D01*
X1Y491D02*
X8Y491D01*
X2765Y491D02*
X2772Y491D01*
X1Y490D02*
X8Y490D01*
X2765Y490D02*
X2772Y490D01*
X1Y489D02*
X8Y489D01*
X2765Y489D02*
X2772Y489D01*
X1Y488D02*
X8Y488D01*
X2765Y488D02*
X2772Y488D01*
X1Y487D02*
X8Y487D01*
X2765Y487D02*
X2772Y487D01*
X1Y486D02*
X8Y486D01*
X2765Y486D02*
X2772Y486D01*
X1Y485D02*
X8Y485D01*
X2765Y485D02*
X2772Y485D01*
X1Y484D02*
X8Y484D01*
X2765Y484D02*
X2772Y484D01*
X1Y483D02*
X8Y483D01*
X2765Y483D02*
X2772Y483D01*
X1Y482D02*
X8Y482D01*
X2686Y482D02*
X2707Y482D01*
X2765Y482D02*
X2772Y482D01*
X1Y481D02*
X8Y481D01*
X2684Y481D02*
X2709Y481D01*
X2765Y481D02*
X2772Y481D01*
X1Y480D02*
X8Y480D01*
X2683Y480D02*
X2710Y480D01*
X2765Y480D02*
X2772Y480D01*
X1Y479D02*
X8Y479D01*
X2682Y479D02*
X2711Y479D01*
X2765Y479D02*
X2772Y479D01*
X1Y478D02*
X8Y478D01*
X2681Y478D02*
X2712Y478D01*
X2765Y478D02*
X2772Y478D01*
X1Y477D02*
X8Y477D01*
X2680Y477D02*
X2713Y477D01*
X2765Y477D02*
X2772Y477D01*
X1Y476D02*
X8Y476D01*
X2679Y476D02*
X2714Y476D01*
X2765Y476D02*
X2772Y476D01*
X1Y475D02*
X8Y475D01*
X2679Y475D02*
X2687Y475D01*
X2692Y475D02*
X2698Y475D01*
X2706Y475D02*
X2714Y475D01*
X2765Y475D02*
X2772Y475D01*
X1Y474D02*
X8Y474D01*
X2678Y474D02*
X2686Y474D01*
X2692Y474D02*
X2698Y474D01*
X2707Y474D02*
X2715Y474D01*
X2765Y474D02*
X2772Y474D01*
X1Y473D02*
X8Y473D01*
X2678Y473D02*
X2685Y473D01*
X2692Y473D02*
X2698Y473D01*
X2708Y473D02*
X2715Y473D01*
X2765Y473D02*
X2772Y473D01*
X1Y472D02*
X8Y472D01*
X2677Y472D02*
X2684Y472D01*
X2692Y472D02*
X2698Y472D01*
X2709Y472D02*
X2715Y472D01*
X2765Y472D02*
X2772Y472D01*
X1Y471D02*
X8Y471D01*
X2677Y471D02*
X2683Y471D01*
X2692Y471D02*
X2698Y471D01*
X2709Y471D02*
X2716Y471D01*
X2765Y471D02*
X2772Y471D01*
X1Y470D02*
X8Y470D01*
X2677Y470D02*
X2683Y470D01*
X2692Y470D02*
X2698Y470D01*
X2710Y470D02*
X2716Y470D01*
X2765Y470D02*
X2772Y470D01*
X1Y469D02*
X8Y469D01*
X2677Y469D02*
X2683Y469D01*
X2692Y469D02*
X2698Y469D01*
X2710Y469D02*
X2716Y469D01*
X2765Y469D02*
X2772Y469D01*
X1Y468D02*
X8Y468D01*
X2677Y468D02*
X2683Y468D01*
X2692Y468D02*
X2698Y468D01*
X2710Y468D02*
X2716Y468D01*
X2765Y468D02*
X2772Y468D01*
X1Y467D02*
X8Y467D01*
X249Y467D02*
X280Y467D01*
X312Y467D02*
X330Y467D01*
X352Y467D02*
X376Y467D01*
X398Y467D02*
X425Y467D01*
X2677Y467D02*
X2683Y467D01*
X2692Y467D02*
X2698Y467D01*
X2710Y467D02*
X2716Y467D01*
X2765Y467D02*
X2772Y467D01*
X1Y466D02*
X8Y466D01*
X248Y466D02*
X281Y466D01*
X310Y466D02*
X331Y466D01*
X351Y466D02*
X378Y466D01*
X398Y466D02*
X427Y466D01*
X2677Y466D02*
X2683Y466D01*
X2692Y466D02*
X2698Y466D01*
X2710Y466D02*
X2716Y466D01*
X2765Y466D02*
X2772Y466D01*
X1Y465D02*
X8Y465D01*
X248Y465D02*
X281Y465D01*
X309Y465D02*
X331Y465D01*
X350Y465D02*
X379Y465D01*
X398Y465D02*
X428Y465D01*
X2677Y465D02*
X2683Y465D01*
X2692Y465D02*
X2698Y465D01*
X2710Y465D02*
X2716Y465D01*
X2765Y465D02*
X2772Y465D01*
X1Y464D02*
X8Y464D01*
X248Y464D02*
X281Y464D01*
X308Y464D02*
X331Y464D01*
X349Y464D02*
X380Y464D01*
X398Y464D02*
X429Y464D01*
X2677Y464D02*
X2683Y464D01*
X2692Y464D02*
X2698Y464D01*
X2710Y464D02*
X2716Y464D01*
X2765Y464D02*
X2772Y464D01*
X1Y463D02*
X8Y463D01*
X248Y463D02*
X281Y463D01*
X307Y463D02*
X331Y463D01*
X348Y463D02*
X380Y463D01*
X398Y463D02*
X430Y463D01*
X2677Y463D02*
X2683Y463D01*
X2692Y463D02*
X2698Y463D01*
X2710Y463D02*
X2716Y463D01*
X2765Y463D02*
X2772Y463D01*
X1Y462D02*
X8Y462D01*
X249Y462D02*
X280Y462D01*
X306Y462D02*
X330Y462D01*
X348Y462D02*
X381Y462D01*
X398Y462D02*
X430Y462D01*
X2677Y462D02*
X2683Y462D01*
X2692Y462D02*
X2698Y462D01*
X2710Y462D02*
X2716Y462D01*
X2765Y462D02*
X2772Y462D01*
X1Y461D02*
X8Y461D01*
X251Y461D02*
X278Y461D01*
X306Y461D02*
X328Y461D01*
X348Y461D02*
X381Y461D01*
X398Y461D02*
X431Y461D01*
X2677Y461D02*
X2683Y461D01*
X2692Y461D02*
X2698Y461D01*
X2710Y461D02*
X2716Y461D01*
X2765Y461D02*
X2772Y461D01*
X1Y460D02*
X8Y460D01*
X262Y460D02*
X268Y460D01*
X305Y460D02*
X313Y460D01*
X348Y460D02*
X354Y460D01*
X375Y460D02*
X381Y460D01*
X398Y460D02*
X404Y460D01*
X424Y460D02*
X431Y460D01*
X2677Y460D02*
X2683Y460D01*
X2692Y460D02*
X2698Y460D01*
X2709Y460D02*
X2716Y460D01*
X2765Y460D02*
X2772Y460D01*
X1Y459D02*
X8Y459D01*
X262Y459D02*
X268Y459D01*
X305Y459D02*
X312Y459D01*
X348Y459D02*
X354Y459D01*
X375Y459D02*
X381Y459D01*
X398Y459D02*
X404Y459D01*
X425Y459D02*
X431Y459D01*
X2677Y459D02*
X2683Y459D01*
X2692Y459D02*
X2698Y459D01*
X2709Y459D02*
X2715Y459D01*
X2765Y459D02*
X2772Y459D01*
X1Y458D02*
X8Y458D01*
X262Y458D02*
X268Y458D01*
X304Y458D02*
X311Y458D01*
X348Y458D02*
X355Y458D01*
X375Y458D02*
X381Y458D01*
X398Y458D02*
X404Y458D01*
X425Y458D02*
X431Y458D01*
X2677Y458D02*
X2683Y458D01*
X2692Y458D02*
X2698Y458D01*
X2708Y458D02*
X2715Y458D01*
X2765Y458D02*
X2772Y458D01*
X1Y457D02*
X8Y457D01*
X262Y457D02*
X268Y457D01*
X304Y457D02*
X311Y457D01*
X348Y457D02*
X356Y457D01*
X376Y457D02*
X381Y457D01*
X398Y457D02*
X404Y457D01*
X425Y457D02*
X431Y457D01*
X2677Y457D02*
X2683Y457D01*
X2692Y457D02*
X2698Y457D01*
X2707Y457D02*
X2715Y457D01*
X2765Y457D02*
X2772Y457D01*
X1Y456D02*
X8Y456D01*
X262Y456D02*
X268Y456D01*
X303Y456D02*
X310Y456D01*
X349Y456D02*
X357Y456D01*
X377Y456D02*
X380Y456D01*
X398Y456D02*
X404Y456D01*
X425Y456D02*
X431Y456D01*
X2677Y456D02*
X2683Y456D01*
X2692Y456D02*
X2698Y456D01*
X2706Y456D02*
X2714Y456D01*
X2765Y456D02*
X2772Y456D01*
X1Y455D02*
X8Y455D01*
X262Y455D02*
X268Y455D01*
X303Y455D02*
X310Y455D01*
X350Y455D02*
X357Y455D01*
X398Y455D02*
X404Y455D01*
X425Y455D02*
X431Y455D01*
X2677Y455D02*
X2683Y455D01*
X2692Y455D02*
X2714Y455D01*
X2765Y455D02*
X2772Y455D01*
X1Y454D02*
X8Y454D01*
X262Y454D02*
X268Y454D01*
X302Y454D02*
X309Y454D01*
X350Y454D02*
X358Y454D01*
X398Y454D02*
X404Y454D01*
X425Y454D02*
X431Y454D01*
X2677Y454D02*
X2683Y454D01*
X2692Y454D02*
X2713Y454D01*
X2765Y454D02*
X2772Y454D01*
X1Y453D02*
X8Y453D01*
X262Y453D02*
X268Y453D01*
X302Y453D02*
X309Y453D01*
X351Y453D02*
X359Y453D01*
X398Y453D02*
X404Y453D01*
X425Y453D02*
X431Y453D01*
X2677Y453D02*
X2683Y453D01*
X2692Y453D02*
X2712Y453D01*
X2765Y453D02*
X2772Y453D01*
X1Y452D02*
X8Y452D01*
X262Y452D02*
X268Y452D01*
X301Y452D02*
X308Y452D01*
X352Y452D02*
X360Y452D01*
X398Y452D02*
X404Y452D01*
X425Y452D02*
X431Y452D01*
X2677Y452D02*
X2683Y452D01*
X2692Y452D02*
X2711Y452D01*
X2765Y452D02*
X2772Y452D01*
X1Y451D02*
X8Y451D01*
X262Y451D02*
X268Y451D01*
X301Y451D02*
X308Y451D01*
X353Y451D02*
X361Y451D01*
X398Y451D02*
X404Y451D01*
X425Y451D02*
X431Y451D01*
X2677Y451D02*
X2683Y451D01*
X2692Y451D02*
X2710Y451D01*
X2765Y451D02*
X2772Y451D01*
X1Y450D02*
X8Y450D01*
X262Y450D02*
X268Y450D01*
X300Y450D02*
X307Y450D01*
X353Y450D02*
X361Y450D01*
X398Y450D02*
X404Y450D01*
X425Y450D02*
X431Y450D01*
X2678Y450D02*
X2683Y450D01*
X2692Y450D02*
X2709Y450D01*
X2765Y450D02*
X2772Y450D01*
X1Y449D02*
X8Y449D01*
X262Y449D02*
X268Y449D01*
X300Y449D02*
X307Y449D01*
X354Y449D02*
X362Y449D01*
X398Y449D02*
X404Y449D01*
X425Y449D02*
X431Y449D01*
X2679Y449D02*
X2682Y449D01*
X2693Y449D02*
X2707Y449D01*
X2765Y449D02*
X2772Y449D01*
X1Y448D02*
X8Y448D01*
X262Y448D02*
X268Y448D01*
X299Y448D02*
X306Y448D01*
X355Y448D02*
X363Y448D01*
X398Y448D02*
X404Y448D01*
X425Y448D02*
X431Y448D01*
X2765Y448D02*
X2772Y448D01*
X1Y447D02*
X8Y447D01*
X262Y447D02*
X268Y447D01*
X299Y447D02*
X306Y447D01*
X356Y447D02*
X364Y447D01*
X398Y447D02*
X404Y447D01*
X425Y447D02*
X431Y447D01*
X2765Y447D02*
X2772Y447D01*
X1Y446D02*
X8Y446D01*
X262Y446D02*
X268Y446D01*
X299Y446D02*
X305Y446D01*
X356Y446D02*
X365Y446D01*
X398Y446D02*
X404Y446D01*
X425Y446D02*
X431Y446D01*
X2765Y446D02*
X2772Y446D01*
X1Y445D02*
X8Y445D01*
X262Y445D02*
X268Y445D01*
X298Y445D02*
X305Y445D01*
X357Y445D02*
X365Y445D01*
X398Y445D02*
X404Y445D01*
X425Y445D02*
X431Y445D01*
X2765Y445D02*
X2772Y445D01*
X1Y444D02*
X8Y444D01*
X262Y444D02*
X268Y444D01*
X298Y444D02*
X304Y444D01*
X358Y444D02*
X366Y444D01*
X398Y444D02*
X404Y444D01*
X425Y444D02*
X431Y444D01*
X2765Y444D02*
X2772Y444D01*
X1Y443D02*
X8Y443D01*
X262Y443D02*
X268Y443D01*
X298Y443D02*
X304Y443D01*
X359Y443D02*
X367Y443D01*
X398Y443D02*
X404Y443D01*
X425Y443D02*
X431Y443D01*
X2765Y443D02*
X2772Y443D01*
X1Y442D02*
X8Y442D01*
X262Y442D02*
X268Y442D01*
X298Y442D02*
X304Y442D01*
X360Y442D02*
X368Y442D01*
X398Y442D02*
X404Y442D01*
X424Y442D02*
X431Y442D01*
X2765Y442D02*
X2772Y442D01*
X1Y441D02*
X8Y441D01*
X262Y441D02*
X268Y441D01*
X298Y441D02*
X304Y441D01*
X360Y441D02*
X368Y441D01*
X398Y441D02*
X431Y441D01*
X2765Y441D02*
X2772Y441D01*
X1Y440D02*
X8Y440D01*
X262Y440D02*
X268Y440D01*
X298Y440D02*
X304Y440D01*
X361Y440D02*
X369Y440D01*
X398Y440D02*
X430Y440D01*
X2765Y440D02*
X2772Y440D01*
X1Y439D02*
X8Y439D01*
X262Y439D02*
X268Y439D01*
X298Y439D02*
X304Y439D01*
X362Y439D02*
X370Y439D01*
X398Y439D02*
X429Y439D01*
X2765Y439D02*
X2772Y439D01*
X1Y438D02*
X8Y438D01*
X262Y438D02*
X268Y438D01*
X298Y438D02*
X304Y438D01*
X363Y438D02*
X371Y438D01*
X398Y438D02*
X429Y438D01*
X2765Y438D02*
X2772Y438D01*
X1Y437D02*
X8Y437D01*
X262Y437D02*
X268Y437D01*
X298Y437D02*
X305Y437D01*
X363Y437D02*
X372Y437D01*
X398Y437D02*
X428Y437D01*
X2765Y437D02*
X2772Y437D01*
X1Y436D02*
X8Y436D01*
X262Y436D02*
X268Y436D01*
X299Y436D02*
X305Y436D01*
X364Y436D02*
X372Y436D01*
X398Y436D02*
X426Y436D01*
X2765Y436D02*
X2772Y436D01*
X1Y435D02*
X8Y435D01*
X160Y435D02*
X169Y435D01*
X262Y435D02*
X268Y435D01*
X299Y435D02*
X306Y435D01*
X365Y435D02*
X373Y435D01*
X398Y435D02*
X424Y435D01*
X2765Y435D02*
X2772Y435D01*
X1Y434D02*
X8Y434D01*
X159Y434D02*
X170Y434D01*
X262Y434D02*
X268Y434D01*
X299Y434D02*
X306Y434D01*
X366Y434D02*
X374Y434D01*
X398Y434D02*
X404Y434D01*
X2765Y434D02*
X2772Y434D01*
X1Y433D02*
X8Y433D01*
X158Y433D02*
X171Y433D01*
X262Y433D02*
X268Y433D01*
X300Y433D02*
X307Y433D01*
X367Y433D02*
X375Y433D01*
X398Y433D02*
X404Y433D01*
X2765Y433D02*
X2772Y433D01*
X1Y432D02*
X8Y432D01*
X158Y432D02*
X171Y432D01*
X262Y432D02*
X268Y432D01*
X300Y432D02*
X307Y432D01*
X367Y432D02*
X375Y432D01*
X398Y432D02*
X404Y432D01*
X2689Y432D02*
X2707Y432D01*
X2765Y432D02*
X2772Y432D01*
X1Y431D02*
X8Y431D01*
X158Y431D02*
X171Y431D01*
X262Y431D02*
X268Y431D01*
X301Y431D02*
X308Y431D01*
X368Y431D02*
X376Y431D01*
X398Y431D02*
X404Y431D01*
X2687Y431D02*
X2709Y431D01*
X2765Y431D02*
X2772Y431D01*
X1Y430D02*
X8Y430D01*
X158Y430D02*
X171Y430D01*
X262Y430D02*
X268Y430D01*
X301Y430D02*
X308Y430D01*
X369Y430D02*
X377Y430D01*
X398Y430D02*
X404Y430D01*
X2686Y430D02*
X2710Y430D01*
X2765Y430D02*
X2772Y430D01*
X1Y429D02*
X8Y429D01*
X158Y429D02*
X171Y429D01*
X262Y429D02*
X268Y429D01*
X302Y429D02*
X309Y429D01*
X370Y429D02*
X378Y429D01*
X398Y429D02*
X404Y429D01*
X2665Y429D02*
X2666Y429D01*
X2685Y429D02*
X2711Y429D01*
X2765Y429D02*
X2772Y429D01*
X1Y428D02*
X8Y428D01*
X158Y428D02*
X171Y428D01*
X262Y428D02*
X268Y428D01*
X302Y428D02*
X309Y428D01*
X370Y428D02*
X379Y428D01*
X398Y428D02*
X404Y428D01*
X2663Y428D02*
X2668Y428D01*
X2684Y428D02*
X2712Y428D01*
X2765Y428D02*
X2772Y428D01*
X1Y427D02*
X8Y427D01*
X158Y427D02*
X171Y427D01*
X262Y427D02*
X268Y427D01*
X303Y427D02*
X310Y427D01*
X371Y427D02*
X379Y427D01*
X398Y427D02*
X404Y427D01*
X2663Y427D02*
X2668Y427D01*
X2683Y427D02*
X2713Y427D01*
X2765Y427D02*
X2772Y427D01*
X1Y426D02*
X8Y426D01*
X158Y426D02*
X171Y426D01*
X262Y426D02*
X268Y426D01*
X303Y426D02*
X310Y426D01*
X349Y426D02*
X352Y426D01*
X372Y426D02*
X380Y426D01*
X398Y426D02*
X404Y426D01*
X2663Y426D02*
X2668Y426D01*
X2682Y426D02*
X2714Y426D01*
X2765Y426D02*
X2772Y426D01*
X1Y425D02*
X8Y425D01*
X158Y425D02*
X171Y425D01*
X262Y425D02*
X268Y425D01*
X304Y425D02*
X311Y425D01*
X348Y425D02*
X353Y425D01*
X373Y425D02*
X381Y425D01*
X398Y425D02*
X404Y425D01*
X2662Y425D02*
X2669Y425D01*
X2682Y425D02*
X2690Y425D01*
X2706Y425D02*
X2714Y425D01*
X2765Y425D02*
X2772Y425D01*
X1Y424D02*
X8Y424D01*
X159Y424D02*
X170Y424D01*
X262Y424D02*
X268Y424D01*
X304Y424D02*
X311Y424D01*
X348Y424D02*
X354Y424D01*
X374Y424D02*
X381Y424D01*
X398Y424D02*
X404Y424D01*
X2662Y424D02*
X2669Y424D01*
X2681Y424D02*
X2688Y424D01*
X2707Y424D02*
X2715Y424D01*
X2765Y424D02*
X2772Y424D01*
X1Y423D02*
X8Y423D01*
X160Y423D02*
X169Y423D01*
X262Y423D02*
X268Y423D01*
X305Y423D02*
X312Y423D01*
X348Y423D02*
X354Y423D01*
X374Y423D02*
X381Y423D01*
X398Y423D02*
X404Y423D01*
X2662Y423D02*
X2669Y423D01*
X2681Y423D02*
X2687Y423D01*
X2708Y423D02*
X2715Y423D01*
X2765Y423D02*
X2772Y423D01*
X1Y422D02*
X8Y422D01*
X262Y422D02*
X268Y422D01*
X305Y422D02*
X312Y422D01*
X348Y422D02*
X354Y422D01*
X375Y422D02*
X381Y422D01*
X398Y422D02*
X404Y422D01*
X2662Y422D02*
X2669Y422D01*
X2680Y422D02*
X2687Y422D01*
X2709Y422D02*
X2715Y422D01*
X2765Y422D02*
X2772Y422D01*
X1Y421D02*
X8Y421D01*
X261Y421D02*
X268Y421D01*
X306Y421D02*
X314Y421D01*
X348Y421D02*
X355Y421D01*
X375Y421D02*
X381Y421D01*
X398Y421D02*
X404Y421D01*
X2662Y421D02*
X2669Y421D01*
X2680Y421D02*
X2686Y421D01*
X2709Y421D02*
X2716Y421D01*
X2765Y421D02*
X2772Y421D01*
X1Y420D02*
X8Y420D01*
X249Y420D02*
X280Y420D01*
X306Y420D02*
X330Y420D01*
X348Y420D02*
X381Y420D01*
X398Y420D02*
X404Y420D01*
X2662Y420D02*
X2669Y420D01*
X2680Y420D02*
X2686Y420D01*
X2710Y420D02*
X2716Y420D01*
X2765Y420D02*
X2772Y420D01*
X1Y419D02*
X8Y419D01*
X248Y419D02*
X281Y419D01*
X307Y419D02*
X331Y419D01*
X349Y419D02*
X381Y419D01*
X398Y419D02*
X404Y419D01*
X2662Y419D02*
X2669Y419D01*
X2680Y419D02*
X2686Y419D01*
X2710Y419D02*
X2716Y419D01*
X2765Y419D02*
X2772Y419D01*
X1Y418D02*
X8Y418D01*
X248Y418D02*
X281Y418D01*
X308Y418D02*
X331Y418D01*
X349Y418D02*
X380Y418D01*
X398Y418D02*
X404Y418D01*
X2662Y418D02*
X2669Y418D01*
X2680Y418D02*
X2686Y418D01*
X2710Y418D02*
X2716Y418D01*
X2765Y418D02*
X2772Y418D01*
X1Y417D02*
X8Y417D01*
X248Y417D02*
X281Y417D01*
X308Y417D02*
X331Y417D01*
X350Y417D02*
X380Y417D01*
X398Y417D02*
X404Y417D01*
X2662Y417D02*
X2669Y417D01*
X2680Y417D02*
X2686Y417D01*
X2710Y417D02*
X2716Y417D01*
X2765Y417D02*
X2772Y417D01*
X1Y416D02*
X8Y416D01*
X248Y416D02*
X281Y416D01*
X310Y416D02*
X331Y416D01*
X351Y416D02*
X379Y416D01*
X398Y416D02*
X404Y416D01*
X2662Y416D02*
X2669Y416D01*
X2680Y416D02*
X2686Y416D01*
X2710Y416D02*
X2716Y416D01*
X2765Y416D02*
X2772Y416D01*
X1Y415D02*
X8Y415D01*
X249Y415D02*
X280Y415D01*
X311Y415D02*
X330Y415D01*
X353Y415D02*
X378Y415D01*
X399Y415D02*
X403Y415D01*
X2662Y415D02*
X2669Y415D01*
X2680Y415D02*
X2686Y415D01*
X2710Y415D02*
X2716Y415D01*
X2765Y415D02*
X2772Y415D01*
X1Y414D02*
X8Y414D01*
X250Y414D02*
X279Y414D01*
X314Y414D02*
X329Y414D01*
X355Y414D02*
X375Y414D01*
X400Y414D02*
X401Y414D01*
X2662Y414D02*
X2669Y414D01*
X2680Y414D02*
X2686Y414D01*
X2710Y414D02*
X2716Y414D01*
X2765Y414D02*
X2772Y414D01*
X1Y413D02*
X8Y413D01*
X2662Y413D02*
X2669Y413D01*
X2680Y413D02*
X2687Y413D01*
X2709Y413D02*
X2715Y413D01*
X2765Y413D02*
X2772Y413D01*
X1Y412D02*
X8Y412D01*
X2662Y412D02*
X2669Y412D01*
X2681Y412D02*
X2687Y412D01*
X2708Y412D02*
X2715Y412D01*
X2765Y412D02*
X2772Y412D01*
X1Y411D02*
X8Y411D01*
X2662Y411D02*
X2669Y411D01*
X2681Y411D02*
X2688Y411D01*
X2708Y411D02*
X2715Y411D01*
X2765Y411D02*
X2772Y411D01*
X1Y410D02*
X8Y410D01*
X2663Y410D02*
X2669Y410D01*
X2681Y410D02*
X2689Y410D01*
X2707Y410D02*
X2714Y410D01*
X2765Y410D02*
X2772Y410D01*
X1Y409D02*
X8Y409D01*
X2663Y409D02*
X2669Y409D01*
X2682Y409D02*
X2690Y409D01*
X2706Y409D02*
X2714Y409D01*
X2765Y409D02*
X2772Y409D01*
X1Y408D02*
X8Y408D01*
X2663Y408D02*
X2670Y408D01*
X2682Y408D02*
X2691Y408D01*
X2705Y408D02*
X2713Y408D01*
X2765Y408D02*
X2772Y408D01*
X1Y407D02*
X8Y407D01*
X2663Y407D02*
X2671Y407D01*
X2683Y407D02*
X2692Y407D01*
X2704Y407D02*
X2712Y407D01*
X2765Y407D02*
X2772Y407D01*
X1Y406D02*
X8Y406D01*
X2664Y406D02*
X2672Y406D01*
X2684Y406D02*
X2693Y406D01*
X2703Y406D02*
X2712Y406D01*
X2765Y406D02*
X2772Y406D01*
X1Y405D02*
X8Y405D01*
X2665Y405D02*
X2713Y405D01*
X2765Y405D02*
X2772Y405D01*
X1Y404D02*
X8Y404D01*
X2665Y404D02*
X2715Y404D01*
X2765Y404D02*
X2772Y404D01*
X1Y403D02*
X8Y403D01*
X2666Y403D02*
X2715Y403D01*
X2765Y403D02*
X2772Y403D01*
X1Y402D02*
X8Y402D01*
X2667Y402D02*
X2716Y402D01*
X2765Y402D02*
X2772Y402D01*
X1Y401D02*
X8Y401D01*
X2668Y401D02*
X2716Y401D01*
X2765Y401D02*
X2772Y401D01*
X1Y400D02*
X8Y400D01*
X2669Y400D02*
X2715Y400D01*
X2765Y400D02*
X2772Y400D01*
X1Y399D02*
X8Y399D01*
X2671Y399D02*
X2714Y399D01*
X2765Y399D02*
X2772Y399D01*
X1Y398D02*
X8Y398D01*
X2765Y398D02*
X2772Y398D01*
X1Y397D02*
X8Y397D01*
X2765Y397D02*
X2772Y397D01*
X1Y396D02*
X8Y396D01*
X2765Y396D02*
X2772Y396D01*
X1Y395D02*
X8Y395D01*
X268Y395D02*
X268Y395D01*
X2765Y395D02*
X2772Y395D01*
X1Y394D02*
X8Y394D01*
X267Y394D02*
X269Y394D01*
X2765Y394D02*
X2772Y394D01*
X1Y393D02*
X8Y393D01*
X266Y393D02*
X270Y393D01*
X2765Y393D02*
X2772Y393D01*
X1Y392D02*
X8Y392D01*
X265Y392D02*
X271Y392D01*
X2765Y392D02*
X2772Y392D01*
X1Y391D02*
X8Y391D01*
X264Y391D02*
X270Y391D01*
X2765Y391D02*
X2772Y391D01*
X1Y390D02*
X8Y390D01*
X263Y390D02*
X269Y390D01*
X2765Y390D02*
X2772Y390D01*
X1Y389D02*
X8Y389D01*
X262Y389D02*
X268Y389D01*
X2765Y389D02*
X2772Y389D01*
X1Y388D02*
X8Y388D01*
X261Y388D02*
X267Y388D01*
X2765Y388D02*
X2772Y388D01*
X1Y387D02*
X8Y387D01*
X260Y387D02*
X266Y387D01*
X2765Y387D02*
X2772Y387D01*
X1Y386D02*
X8Y386D01*
X259Y386D02*
X265Y386D01*
X2765Y386D02*
X2772Y386D01*
X1Y385D02*
X8Y385D01*
X258Y385D02*
X264Y385D01*
X2765Y385D02*
X2772Y385D01*
X1Y384D02*
X8Y384D01*
X257Y384D02*
X263Y384D01*
X2765Y384D02*
X2772Y384D01*
X1Y383D02*
X8Y383D01*
X256Y383D02*
X262Y383D01*
X2765Y383D02*
X2772Y383D01*
X1Y382D02*
X8Y382D01*
X255Y382D02*
X261Y382D01*
X2684Y382D02*
X2694Y382D01*
X2765Y382D02*
X2772Y382D01*
X1Y381D02*
X8Y381D01*
X254Y381D02*
X260Y381D01*
X2682Y381D02*
X2696Y381D01*
X2765Y381D02*
X2772Y381D01*
X1Y380D02*
X8Y380D01*
X253Y380D02*
X259Y380D01*
X2681Y380D02*
X2698Y380D01*
X2765Y380D02*
X2772Y380D01*
X1Y379D02*
X8Y379D01*
X252Y379D02*
X258Y379D01*
X2680Y379D02*
X2698Y379D01*
X2765Y379D02*
X2772Y379D01*
X1Y378D02*
X8Y378D01*
X251Y378D02*
X257Y378D01*
X2679Y378D02*
X2699Y378D01*
X2765Y378D02*
X2772Y378D01*
X1Y377D02*
X8Y377D01*
X250Y377D02*
X255Y377D01*
X2678Y377D02*
X2700Y377D01*
X2765Y377D02*
X2772Y377D01*
X1Y376D02*
X8Y376D01*
X249Y376D02*
X254Y376D01*
X2678Y376D02*
X2700Y376D01*
X2765Y376D02*
X2772Y376D01*
X1Y375D02*
X8Y375D01*
X248Y375D02*
X253Y375D01*
X2678Y375D02*
X2685Y375D01*
X2694Y375D02*
X2701Y375D01*
X2711Y375D02*
X2714Y375D01*
X2765Y375D02*
X2772Y375D01*
X1Y374D02*
X8Y374D01*
X247Y374D02*
X252Y374D01*
X2677Y374D02*
X2684Y374D01*
X2694Y374D02*
X2701Y374D01*
X2710Y374D02*
X2715Y374D01*
X2765Y374D02*
X2772Y374D01*
X1Y373D02*
X8Y373D01*
X246Y373D02*
X251Y373D01*
X2677Y373D02*
X2683Y373D01*
X2695Y373D02*
X2701Y373D01*
X2710Y373D02*
X2716Y373D01*
X2765Y373D02*
X2772Y373D01*
X1Y372D02*
X8Y372D01*
X245Y372D02*
X250Y372D01*
X2677Y372D02*
X2683Y372D01*
X2695Y372D02*
X2701Y372D01*
X2710Y372D02*
X2716Y372D01*
X2765Y372D02*
X2772Y372D01*
X1Y371D02*
X8Y371D01*
X244Y371D02*
X250Y371D01*
X2677Y371D02*
X2683Y371D01*
X2695Y371D02*
X2701Y371D01*
X2710Y371D02*
X2716Y371D01*
X2765Y371D02*
X2772Y371D01*
X1Y370D02*
X8Y370D01*
X243Y370D02*
X249Y370D01*
X2677Y370D02*
X2683Y370D01*
X2695Y370D02*
X2701Y370D01*
X2710Y370D02*
X2716Y370D01*
X2765Y370D02*
X2772Y370D01*
X1Y369D02*
X8Y369D01*
X242Y369D02*
X248Y369D01*
X2677Y369D02*
X2683Y369D01*
X2695Y369D02*
X2701Y369D01*
X2710Y369D02*
X2716Y369D01*
X2765Y369D02*
X2772Y369D01*
X1Y368D02*
X8Y368D01*
X241Y368D02*
X247Y368D01*
X2677Y368D02*
X2683Y368D01*
X2695Y368D02*
X2701Y368D01*
X2710Y368D02*
X2716Y368D01*
X2765Y368D02*
X2772Y368D01*
X1Y367D02*
X8Y367D01*
X240Y367D02*
X246Y367D01*
X2677Y367D02*
X2683Y367D01*
X2695Y367D02*
X2701Y367D01*
X2710Y367D02*
X2716Y367D01*
X2765Y367D02*
X2772Y367D01*
X1Y366D02*
X8Y366D01*
X239Y366D02*
X245Y366D01*
X2677Y366D02*
X2683Y366D01*
X2695Y366D02*
X2701Y366D01*
X2710Y366D02*
X2716Y366D01*
X2765Y366D02*
X2772Y366D01*
X1Y365D02*
X8Y365D01*
X238Y365D02*
X244Y365D01*
X2677Y365D02*
X2683Y365D01*
X2695Y365D02*
X2701Y365D01*
X2710Y365D02*
X2716Y365D01*
X2765Y365D02*
X2772Y365D01*
X1Y364D02*
X8Y364D01*
X237Y364D02*
X243Y364D01*
X2677Y364D02*
X2683Y364D01*
X2695Y364D02*
X2701Y364D01*
X2710Y364D02*
X2716Y364D01*
X2765Y364D02*
X2772Y364D01*
X1Y363D02*
X8Y363D01*
X236Y363D02*
X242Y363D01*
X2677Y363D02*
X2683Y363D01*
X2695Y363D02*
X2701Y363D01*
X2710Y363D02*
X2716Y363D01*
X2765Y363D02*
X2772Y363D01*
X1Y362D02*
X8Y362D01*
X235Y362D02*
X241Y362D01*
X2677Y362D02*
X2684Y362D01*
X2695Y362D02*
X2701Y362D01*
X2710Y362D02*
X2716Y362D01*
X2765Y362D02*
X2772Y362D01*
X1Y361D02*
X8Y361D01*
X234Y361D02*
X240Y361D01*
X2677Y361D02*
X2684Y361D01*
X2695Y361D02*
X2701Y361D01*
X2710Y361D02*
X2716Y361D01*
X2765Y361D02*
X2772Y361D01*
X1Y360D02*
X8Y360D01*
X234Y360D02*
X239Y360D01*
X2678Y360D02*
X2685Y360D01*
X2695Y360D02*
X2701Y360D01*
X2710Y360D02*
X2716Y360D01*
X2765Y360D02*
X2772Y360D01*
X1Y359D02*
X8Y359D01*
X235Y359D02*
X238Y359D01*
X2678Y359D02*
X2686Y359D01*
X2695Y359D02*
X2701Y359D01*
X2710Y359D02*
X2716Y359D01*
X2765Y359D02*
X2772Y359D01*
X1Y358D02*
X8Y358D01*
X236Y358D02*
X237Y358D01*
X2679Y358D02*
X2686Y358D01*
X2695Y358D02*
X2701Y358D01*
X2709Y358D02*
X2716Y358D01*
X2765Y358D02*
X2772Y358D01*
X1Y357D02*
X8Y357D01*
X2680Y357D02*
X2687Y357D01*
X2694Y357D02*
X2701Y357D01*
X2708Y357D02*
X2715Y357D01*
X2765Y357D02*
X2772Y357D01*
X1Y356D02*
X8Y356D01*
X2680Y356D02*
X2687Y356D01*
X2693Y356D02*
X2701Y356D01*
X2703Y356D02*
X2715Y356D01*
X2765Y356D02*
X2772Y356D01*
X1Y355D02*
X8Y355D01*
X2680Y355D02*
X2715Y355D01*
X2765Y355D02*
X2772Y355D01*
X1Y354D02*
X8Y354D01*
X2678Y354D02*
X2714Y354D01*
X2765Y354D02*
X2772Y354D01*
X1Y353D02*
X8Y353D01*
X2677Y353D02*
X2713Y353D01*
X2765Y353D02*
X2772Y353D01*
X1Y352D02*
X8Y352D01*
X2677Y352D02*
X2712Y352D01*
X2765Y352D02*
X2772Y352D01*
X1Y351D02*
X8Y351D01*
X2677Y351D02*
X2711Y351D01*
X2765Y351D02*
X2772Y351D01*
X1Y350D02*
X8Y350D01*
X2678Y350D02*
X2709Y350D01*
X2765Y350D02*
X2772Y350D01*
X1Y349D02*
X8Y349D01*
X2679Y349D02*
X2703Y349D01*
X2765Y349D02*
X2772Y349D01*
X1Y348D02*
X8Y348D01*
X2765Y348D02*
X2772Y348D01*
X1Y347D02*
X8Y347D01*
X2765Y347D02*
X2772Y347D01*
X1Y346D02*
X8Y346D01*
X2765Y346D02*
X2772Y346D01*
X1Y345D02*
X8Y345D01*
X2765Y345D02*
X2772Y345D01*
X1Y344D02*
X8Y344D01*
X2765Y344D02*
X2772Y344D01*
X1Y343D02*
X8Y343D01*
X2765Y343D02*
X2772Y343D01*
X1Y342D02*
X8Y342D01*
X2765Y342D02*
X2772Y342D01*
X1Y341D02*
X8Y341D01*
X2765Y341D02*
X2772Y341D01*
X1Y340D02*
X8Y340D01*
X2765Y340D02*
X2772Y340D01*
X1Y339D02*
X8Y339D01*
X2765Y339D02*
X2772Y339D01*
X1Y338D02*
X8Y338D01*
X2765Y338D02*
X2772Y338D01*
X1Y337D02*
X8Y337D01*
X2765Y337D02*
X2772Y337D01*
X1Y336D02*
X8Y336D01*
X2765Y336D02*
X2772Y336D01*
X1Y335D02*
X8Y335D01*
X2765Y335D02*
X2772Y335D01*
X1Y334D02*
X8Y334D01*
X2765Y334D02*
X2772Y334D01*
X1Y333D02*
X8Y333D01*
X2765Y333D02*
X2772Y333D01*
X1Y332D02*
X8Y332D01*
X2765Y332D02*
X2772Y332D01*
X1Y331D02*
X8Y331D01*
X2765Y331D02*
X2772Y331D01*
X1Y330D02*
X8Y330D01*
X2765Y330D02*
X2772Y330D01*
X1Y329D02*
X8Y329D01*
X2765Y329D02*
X2772Y329D01*
X1Y328D02*
X8Y328D01*
X2765Y328D02*
X2772Y328D01*
X1Y327D02*
X8Y327D01*
X2765Y327D02*
X2772Y327D01*
X1Y326D02*
X8Y326D01*
X2765Y326D02*
X2772Y326D01*
X1Y325D02*
X8Y325D01*
X2765Y325D02*
X2772Y325D01*
X1Y324D02*
X8Y324D01*
X2765Y324D02*
X2772Y324D01*
X1Y323D02*
X8Y323D01*
X2765Y323D02*
X2772Y323D01*
X1Y322D02*
X8Y322D01*
X2765Y322D02*
X2772Y322D01*
X1Y321D02*
X8Y321D01*
X2765Y321D02*
X2772Y321D01*
X1Y320D02*
X8Y320D01*
X2765Y320D02*
X2772Y320D01*
X1Y319D02*
X8Y319D01*
X2765Y319D02*
X2772Y319D01*
X1Y318D02*
X8Y318D01*
X2765Y318D02*
X2772Y318D01*
X1Y317D02*
X8Y317D01*
X2765Y317D02*
X2772Y317D01*
X1Y316D02*
X8Y316D01*
X2765Y316D02*
X2772Y316D01*
X1Y315D02*
X8Y315D01*
X2765Y315D02*
X2772Y315D01*
X1Y314D02*
X8Y314D01*
X2765Y314D02*
X2772Y314D01*
X1Y313D02*
X8Y313D01*
X2765Y313D02*
X2772Y313D01*
X1Y312D02*
X8Y312D01*
X2765Y312D02*
X2772Y312D01*
X1Y311D02*
X8Y311D01*
X2765Y311D02*
X2772Y311D01*
X1Y310D02*
X8Y310D01*
X2765Y310D02*
X2772Y310D01*
X1Y309D02*
X8Y309D01*
X2765Y309D02*
X2772Y309D01*
X1Y308D02*
X8Y308D01*
X2765Y308D02*
X2772Y308D01*
X1Y307D02*
X8Y307D01*
X2765Y307D02*
X2772Y307D01*
X1Y306D02*
X8Y306D01*
X2765Y306D02*
X2772Y306D01*
X1Y305D02*
X8Y305D01*
X2765Y305D02*
X2772Y305D01*
X1Y304D02*
X8Y304D01*
X2765Y304D02*
X2772Y304D01*
X1Y303D02*
X8Y303D01*
X2765Y303D02*
X2772Y303D01*
X1Y302D02*
X8Y302D01*
X2765Y302D02*
X2772Y302D01*
X1Y301D02*
X8Y301D01*
X2765Y301D02*
X2772Y301D01*
X1Y300D02*
X8Y300D01*
X2765Y300D02*
X2772Y300D01*
X1Y299D02*
X8Y299D01*
X2765Y299D02*
X2772Y299D01*
X1Y298D02*
X8Y298D01*
X2765Y298D02*
X2772Y298D01*
X1Y297D02*
X8Y297D01*
X2765Y297D02*
X2772Y297D01*
X1Y296D02*
X8Y296D01*
X2765Y296D02*
X2772Y296D01*
X1Y295D02*
X8Y295D01*
X2765Y295D02*
X2772Y295D01*
X1Y294D02*
X8Y294D01*
X2765Y294D02*
X2772Y294D01*
X1Y293D02*
X8Y293D01*
X2765Y293D02*
X2772Y293D01*
X1Y292D02*
X8Y292D01*
X2765Y292D02*
X2772Y292D01*
X1Y291D02*
X8Y291D01*
X2765Y291D02*
X2772Y291D01*
X1Y290D02*
X8Y290D01*
X2765Y290D02*
X2772Y290D01*
X1Y289D02*
X8Y289D01*
X2765Y289D02*
X2772Y289D01*
X1Y288D02*
X8Y288D01*
X2765Y288D02*
X2772Y288D01*
X1Y287D02*
X8Y287D01*
X2765Y287D02*
X2772Y287D01*
X1Y286D02*
X8Y286D01*
X2765Y286D02*
X2772Y286D01*
X1Y285D02*
X8Y285D01*
X2765Y285D02*
X2772Y285D01*
X1Y284D02*
X8Y284D01*
X2765Y284D02*
X2772Y284D01*
X1Y283D02*
X8Y283D01*
X2765Y283D02*
X2772Y283D01*
X1Y282D02*
X8Y282D01*
X2679Y282D02*
X2682Y282D01*
X2726Y282D02*
X2729Y282D01*
X2765Y282D02*
X2772Y282D01*
X1Y281D02*
X8Y281D01*
X2678Y281D02*
X2683Y281D01*
X2725Y281D02*
X2730Y281D01*
X2765Y281D02*
X2772Y281D01*
X1Y280D02*
X8Y280D01*
X2677Y280D02*
X2683Y280D01*
X2724Y280D02*
X2730Y280D01*
X2765Y280D02*
X2772Y280D01*
X1Y279D02*
X8Y279D01*
X2677Y279D02*
X2683Y279D01*
X2724Y279D02*
X2730Y279D01*
X2765Y279D02*
X2772Y279D01*
X1Y278D02*
X8Y278D01*
X2677Y278D02*
X2683Y278D01*
X2724Y278D02*
X2730Y278D01*
X2765Y278D02*
X2772Y278D01*
X1Y277D02*
X8Y277D01*
X2677Y277D02*
X2683Y277D01*
X2724Y277D02*
X2730Y277D01*
X2765Y277D02*
X2772Y277D01*
X1Y276D02*
X8Y276D01*
X2677Y276D02*
X2683Y276D01*
X2724Y276D02*
X2730Y276D01*
X2765Y276D02*
X2772Y276D01*
X1Y275D02*
X8Y275D01*
X2677Y275D02*
X2683Y275D01*
X2702Y275D02*
X2706Y275D01*
X2724Y275D02*
X2730Y275D01*
X2765Y275D02*
X2772Y275D01*
X1Y274D02*
X8Y274D01*
X2677Y274D02*
X2683Y274D01*
X2701Y274D02*
X2706Y274D01*
X2724Y274D02*
X2730Y274D01*
X2765Y274D02*
X2772Y274D01*
X1Y273D02*
X8Y273D01*
X2677Y273D02*
X2683Y273D01*
X2701Y273D02*
X2707Y273D01*
X2724Y273D02*
X2730Y273D01*
X2765Y273D02*
X2772Y273D01*
X1Y272D02*
X8Y272D01*
X2677Y272D02*
X2683Y272D01*
X2701Y272D02*
X2707Y272D01*
X2724Y272D02*
X2730Y272D01*
X2765Y272D02*
X2772Y272D01*
X1Y271D02*
X8Y271D01*
X2677Y271D02*
X2683Y271D01*
X2701Y271D02*
X2707Y271D01*
X2724Y271D02*
X2730Y271D01*
X2765Y271D02*
X2772Y271D01*
X1Y270D02*
X8Y270D01*
X2677Y270D02*
X2683Y270D01*
X2701Y270D02*
X2707Y270D01*
X2724Y270D02*
X2730Y270D01*
X2765Y270D02*
X2772Y270D01*
X1Y269D02*
X8Y269D01*
X2677Y269D02*
X2683Y269D01*
X2701Y269D02*
X2707Y269D01*
X2724Y269D02*
X2730Y269D01*
X2765Y269D02*
X2772Y269D01*
X1Y268D02*
X8Y268D01*
X2677Y268D02*
X2683Y268D01*
X2701Y268D02*
X2707Y268D01*
X2724Y268D02*
X2730Y268D01*
X2765Y268D02*
X2772Y268D01*
X1Y267D02*
X8Y267D01*
X2677Y267D02*
X2683Y267D01*
X2701Y267D02*
X2707Y267D01*
X2724Y267D02*
X2730Y267D01*
X2765Y267D02*
X2772Y267D01*
X1Y266D02*
X8Y266D01*
X2677Y266D02*
X2683Y266D01*
X2701Y266D02*
X2707Y266D01*
X2724Y266D02*
X2730Y266D01*
X2765Y266D02*
X2772Y266D01*
X1Y265D02*
X8Y265D01*
X2677Y265D02*
X2683Y265D01*
X2701Y265D02*
X2707Y265D01*
X2724Y265D02*
X2730Y265D01*
X2765Y265D02*
X2772Y265D01*
X1Y264D02*
X8Y264D01*
X2677Y264D02*
X2683Y264D01*
X2701Y264D02*
X2707Y264D01*
X2724Y264D02*
X2730Y264D01*
X2765Y264D02*
X2772Y264D01*
X1Y263D02*
X8Y263D01*
X2677Y263D02*
X2683Y263D01*
X2701Y263D02*
X2707Y263D01*
X2724Y263D02*
X2730Y263D01*
X2765Y263D02*
X2772Y263D01*
X1Y262D02*
X8Y262D01*
X2677Y262D02*
X2683Y262D01*
X2701Y262D02*
X2707Y262D01*
X2724Y262D02*
X2730Y262D01*
X2765Y262D02*
X2772Y262D01*
X1Y261D02*
X8Y261D01*
X2677Y261D02*
X2683Y261D01*
X2701Y261D02*
X2707Y261D01*
X2724Y261D02*
X2730Y261D01*
X2765Y261D02*
X2772Y261D01*
X1Y260D02*
X8Y260D01*
X2677Y260D02*
X2683Y260D01*
X2701Y260D02*
X2707Y260D01*
X2724Y260D02*
X2730Y260D01*
X2765Y260D02*
X2772Y260D01*
X1Y259D02*
X8Y259D01*
X2677Y259D02*
X2683Y259D01*
X2701Y259D02*
X2707Y259D01*
X2724Y259D02*
X2730Y259D01*
X2765Y259D02*
X2772Y259D01*
X1Y258D02*
X8Y258D01*
X2677Y258D02*
X2683Y258D01*
X2701Y258D02*
X2707Y258D01*
X2724Y258D02*
X2730Y258D01*
X2765Y258D02*
X2772Y258D01*
X1Y257D02*
X8Y257D01*
X2677Y257D02*
X2683Y257D01*
X2700Y257D02*
X2707Y257D01*
X2724Y257D02*
X2730Y257D01*
X2765Y257D02*
X2772Y257D01*
X1Y256D02*
X8Y256D01*
X2677Y256D02*
X2683Y256D01*
X2699Y256D02*
X2708Y256D01*
X2724Y256D02*
X2730Y256D01*
X2765Y256D02*
X2772Y256D01*
X1Y255D02*
X8Y255D01*
X2677Y255D02*
X2730Y255D01*
X2765Y255D02*
X2772Y255D01*
X1Y254D02*
X8Y254D01*
X2677Y254D02*
X2730Y254D01*
X2765Y254D02*
X2772Y254D01*
X1Y253D02*
X8Y253D01*
X2678Y253D02*
X2730Y253D01*
X2765Y253D02*
X2772Y253D01*
X1Y252D02*
X8Y252D01*
X2678Y252D02*
X2730Y252D01*
X2765Y252D02*
X2772Y252D01*
X1Y251D02*
X8Y251D01*
X2679Y251D02*
X2729Y251D01*
X2765Y251D02*
X2772Y251D01*
X1Y250D02*
X8Y250D01*
X2680Y250D02*
X2702Y250D01*
X2706Y250D02*
X2728Y250D01*
X2765Y250D02*
X2772Y250D01*
X1Y249D02*
X8Y249D01*
X2681Y249D02*
X2700Y249D01*
X2707Y249D02*
X2727Y249D01*
X2765Y249D02*
X2772Y249D01*
X1Y248D02*
X8Y248D01*
X2765Y248D02*
X2772Y248D01*
X1Y247D02*
X8Y247D01*
X2765Y247D02*
X2772Y247D01*
X1Y246D02*
X8Y246D01*
X2765Y246D02*
X2772Y246D01*
X1Y245D02*
X8Y245D01*
X2765Y245D02*
X2772Y245D01*
X1Y244D02*
X8Y244D01*
X2765Y244D02*
X2772Y244D01*
X1Y243D02*
X8Y243D01*
X2765Y243D02*
X2772Y243D01*
X1Y242D02*
X8Y242D01*
X2765Y242D02*
X2772Y242D01*
X1Y241D02*
X8Y241D01*
X2765Y241D02*
X2772Y241D01*
X1Y240D02*
X8Y240D01*
X2765Y240D02*
X2772Y240D01*
X1Y239D02*
X8Y239D01*
X2765Y239D02*
X2772Y239D01*
X1Y238D02*
X8Y238D01*
X2765Y238D02*
X2772Y238D01*
X1Y237D02*
X8Y237D01*
X2765Y237D02*
X2772Y237D01*
X1Y236D02*
X8Y236D01*
X2765Y236D02*
X2772Y236D01*
X1Y235D02*
X8Y235D01*
X2765Y235D02*
X2772Y235D01*
X1Y234D02*
X8Y234D01*
X2765Y234D02*
X2772Y234D01*
X1Y233D02*
X8Y233D01*
X2765Y233D02*
X2772Y233D01*
X1Y232D02*
X8Y232D01*
X2677Y232D02*
X2703Y232D01*
X2726Y232D02*
X2729Y232D01*
X2765Y232D02*
X2772Y232D01*
X1Y231D02*
X8Y231D01*
X2677Y231D02*
X2704Y231D01*
X2725Y231D02*
X2730Y231D01*
X2765Y231D02*
X2772Y231D01*
X1Y230D02*
X8Y230D01*
X2677Y230D02*
X2705Y230D01*
X2724Y230D02*
X2730Y230D01*
X2765Y230D02*
X2772Y230D01*
X1Y229D02*
X8Y229D01*
X2677Y229D02*
X2706Y229D01*
X2724Y229D02*
X2730Y229D01*
X2765Y229D02*
X2772Y229D01*
X1Y228D02*
X8Y228D01*
X2677Y228D02*
X2706Y228D01*
X2724Y228D02*
X2730Y228D01*
X2765Y228D02*
X2772Y228D01*
X1Y227D02*
X8Y227D01*
X2677Y227D02*
X2707Y227D01*
X2724Y227D02*
X2730Y227D01*
X2765Y227D02*
X2772Y227D01*
X1Y226D02*
X8Y226D01*
X2677Y226D02*
X2707Y226D01*
X2724Y226D02*
X2730Y226D01*
X2765Y226D02*
X2772Y226D01*
X1Y225D02*
X8Y225D01*
X2677Y225D02*
X2683Y225D01*
X2701Y225D02*
X2707Y225D01*
X2724Y225D02*
X2730Y225D01*
X2765Y225D02*
X2772Y225D01*
X1Y224D02*
X8Y224D01*
X2677Y224D02*
X2683Y224D01*
X2701Y224D02*
X2707Y224D01*
X2724Y224D02*
X2730Y224D01*
X2765Y224D02*
X2772Y224D01*
X1Y223D02*
X8Y223D01*
X2677Y223D02*
X2683Y223D01*
X2701Y223D02*
X2707Y223D01*
X2724Y223D02*
X2730Y223D01*
X2765Y223D02*
X2772Y223D01*
X1Y222D02*
X8Y222D01*
X2677Y222D02*
X2683Y222D01*
X2701Y222D02*
X2707Y222D01*
X2724Y222D02*
X2730Y222D01*
X2765Y222D02*
X2772Y222D01*
X1Y221D02*
X8Y221D01*
X2677Y221D02*
X2683Y221D01*
X2701Y221D02*
X2707Y221D01*
X2724Y221D02*
X2730Y221D01*
X2765Y221D02*
X2772Y221D01*
X1Y220D02*
X8Y220D01*
X2677Y220D02*
X2683Y220D01*
X2701Y220D02*
X2707Y220D01*
X2724Y220D02*
X2730Y220D01*
X2765Y220D02*
X2772Y220D01*
X1Y219D02*
X8Y219D01*
X2677Y219D02*
X2683Y219D01*
X2701Y219D02*
X2707Y219D01*
X2724Y219D02*
X2730Y219D01*
X2765Y219D02*
X2772Y219D01*
X1Y218D02*
X8Y218D01*
X2677Y218D02*
X2683Y218D01*
X2701Y218D02*
X2707Y218D01*
X2724Y218D02*
X2730Y218D01*
X2765Y218D02*
X2772Y218D01*
X1Y217D02*
X8Y217D01*
X2677Y217D02*
X2683Y217D01*
X2701Y217D02*
X2707Y217D01*
X2724Y217D02*
X2730Y217D01*
X2765Y217D02*
X2772Y217D01*
X1Y216D02*
X8Y216D01*
X2677Y216D02*
X2683Y216D01*
X2701Y216D02*
X2707Y216D01*
X2724Y216D02*
X2730Y216D01*
X2765Y216D02*
X2772Y216D01*
X1Y215D02*
X8Y215D01*
X2677Y215D02*
X2683Y215D01*
X2701Y215D02*
X2707Y215D01*
X2724Y215D02*
X2730Y215D01*
X2765Y215D02*
X2772Y215D01*
X1Y214D02*
X8Y214D01*
X2677Y214D02*
X2683Y214D01*
X2701Y214D02*
X2707Y214D01*
X2724Y214D02*
X2730Y214D01*
X2765Y214D02*
X2772Y214D01*
X1Y213D02*
X8Y213D01*
X2677Y213D02*
X2683Y213D01*
X2701Y213D02*
X2707Y213D01*
X2724Y213D02*
X2730Y213D01*
X2765Y213D02*
X2772Y213D01*
X1Y212D02*
X8Y212D01*
X2677Y212D02*
X2683Y212D01*
X2701Y212D02*
X2707Y212D01*
X2724Y212D02*
X2730Y212D01*
X2765Y212D02*
X2772Y212D01*
X1Y211D02*
X8Y211D01*
X2677Y211D02*
X2683Y211D01*
X2701Y211D02*
X2707Y211D01*
X2724Y211D02*
X2730Y211D01*
X2765Y211D02*
X2772Y211D01*
X1Y210D02*
X8Y210D01*
X2677Y210D02*
X2683Y210D01*
X2701Y210D02*
X2707Y210D01*
X2724Y210D02*
X2730Y210D01*
X2765Y210D02*
X2772Y210D01*
X1Y209D02*
X8Y209D01*
X2677Y209D02*
X2683Y209D01*
X2701Y209D02*
X2707Y209D01*
X2724Y209D02*
X2730Y209D01*
X2765Y209D02*
X2772Y209D01*
X1Y208D02*
X8Y208D01*
X2677Y208D02*
X2683Y208D01*
X2701Y208D02*
X2707Y208D01*
X2724Y208D02*
X2730Y208D01*
X2765Y208D02*
X2772Y208D01*
X1Y207D02*
X8Y207D01*
X2677Y207D02*
X2683Y207D01*
X2701Y207D02*
X2707Y207D01*
X2724Y207D02*
X2730Y207D01*
X2765Y207D02*
X2772Y207D01*
X1Y206D02*
X8Y206D01*
X2677Y206D02*
X2683Y206D01*
X2701Y206D02*
X2707Y206D01*
X2724Y206D02*
X2730Y206D01*
X2765Y206D02*
X2772Y206D01*
X1Y205D02*
X8Y205D01*
X2677Y205D02*
X2683Y205D01*
X2701Y205D02*
X2730Y205D01*
X2765Y205D02*
X2772Y205D01*
X1Y204D02*
X8Y204D01*
X2677Y204D02*
X2683Y204D01*
X2701Y204D02*
X2730Y204D01*
X2765Y204D02*
X2772Y204D01*
X1Y203D02*
X8Y203D01*
X2677Y203D02*
X2683Y203D01*
X2701Y203D02*
X2730Y203D01*
X2765Y203D02*
X2772Y203D01*
X1Y202D02*
X8Y202D01*
X2677Y202D02*
X2683Y202D01*
X2702Y202D02*
X2730Y202D01*
X2765Y202D02*
X2772Y202D01*
X1Y201D02*
X8Y201D01*
X2677Y201D02*
X2683Y201D01*
X2702Y201D02*
X2729Y201D01*
X2765Y201D02*
X2772Y201D01*
X1Y200D02*
X8Y200D01*
X2678Y200D02*
X2683Y200D01*
X2703Y200D02*
X2728Y200D01*
X2765Y200D02*
X2772Y200D01*
X1Y199D02*
X8Y199D01*
X2679Y199D02*
X2682Y199D01*
X2705Y199D02*
X2727Y199D01*
X2765Y199D02*
X2772Y199D01*
X1Y198D02*
X8Y198D01*
X2765Y198D02*
X2772Y198D01*
X1Y197D02*
X8Y197D01*
X2765Y197D02*
X2772Y197D01*
X1Y196D02*
X8Y196D01*
X2765Y196D02*
X2772Y196D01*
X1Y195D02*
X8Y195D01*
X2765Y195D02*
X2772Y195D01*
X1Y194D02*
X8Y194D01*
X2765Y194D02*
X2772Y194D01*
X1Y193D02*
X8Y193D01*
X2765Y193D02*
X2772Y193D01*
X1Y192D02*
X8Y192D01*
X2765Y192D02*
X2772Y192D01*
X1Y191D02*
X8Y191D01*
X2765Y191D02*
X2772Y191D01*
X1Y190D02*
X8Y190D01*
X2765Y190D02*
X2772Y190D01*
X1Y189D02*
X8Y189D01*
X2765Y189D02*
X2772Y189D01*
X1Y188D02*
X8Y188D01*
X2765Y188D02*
X2772Y188D01*
X1Y187D02*
X8Y187D01*
X2765Y187D02*
X2772Y187D01*
X1Y186D02*
X8Y186D01*
X2765Y186D02*
X2772Y186D01*
X1Y185D02*
X8Y185D01*
X2765Y185D02*
X2772Y185D01*
X1Y184D02*
X8Y184D01*
X2765Y184D02*
X2772Y184D01*
X1Y183D02*
X8Y183D01*
X2765Y183D02*
X2772Y183D01*
X1Y182D02*
X8Y182D01*
X2681Y182D02*
X2703Y182D01*
X2765Y182D02*
X2772Y182D01*
X1Y181D02*
X8Y181D01*
X2680Y181D02*
X2704Y181D01*
X2765Y181D02*
X2772Y181D01*
X1Y180D02*
X8Y180D01*
X2679Y180D02*
X2705Y180D01*
X2765Y180D02*
X2772Y180D01*
X1Y179D02*
X8Y179D01*
X2678Y179D02*
X2706Y179D01*
X2765Y179D02*
X2772Y179D01*
X1Y178D02*
X8Y178D01*
X2678Y178D02*
X2706Y178D01*
X2765Y178D02*
X2772Y178D01*
X1Y177D02*
X8Y177D01*
X2677Y177D02*
X2707Y177D01*
X2765Y177D02*
X2772Y177D01*
X1Y176D02*
X8Y176D01*
X2677Y176D02*
X2707Y176D01*
X2765Y176D02*
X2772Y176D01*
X1Y175D02*
X8Y175D01*
X2677Y175D02*
X2683Y175D01*
X2701Y175D02*
X2729Y175D01*
X2765Y175D02*
X2772Y175D01*
X1Y174D02*
X8Y174D01*
X2677Y174D02*
X2683Y174D01*
X2701Y174D02*
X2730Y174D01*
X2765Y174D02*
X2772Y174D01*
X1Y173D02*
X8Y173D01*
X2677Y173D02*
X2683Y173D01*
X2701Y173D02*
X2730Y173D01*
X2765Y173D02*
X2772Y173D01*
X1Y172D02*
X8Y172D01*
X2677Y172D02*
X2683Y172D01*
X2701Y172D02*
X2730Y172D01*
X2765Y172D02*
X2772Y172D01*
X1Y171D02*
X8Y171D01*
X2677Y171D02*
X2683Y171D01*
X2701Y171D02*
X2730Y171D01*
X2765Y171D02*
X2772Y171D01*
X1Y170D02*
X8Y170D01*
X2677Y170D02*
X2683Y170D01*
X2701Y170D02*
X2730Y170D01*
X2765Y170D02*
X2772Y170D01*
X1Y169D02*
X8Y169D01*
X2677Y169D02*
X2683Y169D01*
X2701Y169D02*
X2730Y169D01*
X2765Y169D02*
X2772Y169D01*
X1Y168D02*
X8Y168D01*
X2677Y168D02*
X2683Y168D01*
X2701Y168D02*
X2707Y168D01*
X2724Y168D02*
X2730Y168D01*
X2765Y168D02*
X2772Y168D01*
X1Y167D02*
X8Y167D01*
X2677Y167D02*
X2683Y167D01*
X2701Y167D02*
X2707Y167D01*
X2724Y167D02*
X2730Y167D01*
X2765Y167D02*
X2772Y167D01*
X1Y166D02*
X8Y166D01*
X2677Y166D02*
X2683Y166D01*
X2701Y166D02*
X2707Y166D01*
X2724Y166D02*
X2730Y166D01*
X2765Y166D02*
X2772Y166D01*
X1Y165D02*
X8Y165D01*
X2677Y165D02*
X2683Y165D01*
X2701Y165D02*
X2707Y165D01*
X2724Y165D02*
X2730Y165D01*
X2765Y165D02*
X2772Y165D01*
X1Y164D02*
X8Y164D01*
X2677Y164D02*
X2683Y164D01*
X2701Y164D02*
X2707Y164D01*
X2724Y164D02*
X2730Y164D01*
X2765Y164D02*
X2772Y164D01*
X1Y163D02*
X8Y163D01*
X2677Y163D02*
X2683Y163D01*
X2701Y163D02*
X2707Y163D01*
X2724Y163D02*
X2730Y163D01*
X2765Y163D02*
X2772Y163D01*
X1Y162D02*
X8Y162D01*
X2677Y162D02*
X2683Y162D01*
X2701Y162D02*
X2730Y162D01*
X2765Y162D02*
X2772Y162D01*
X1Y161D02*
X8Y161D01*
X2677Y161D02*
X2683Y161D01*
X2701Y161D02*
X2730Y161D01*
X2765Y161D02*
X2772Y161D01*
X1Y160D02*
X8Y160D01*
X2677Y160D02*
X2683Y160D01*
X2701Y160D02*
X2730Y160D01*
X2765Y160D02*
X2772Y160D01*
X1Y159D02*
X8Y159D01*
X2677Y159D02*
X2683Y159D01*
X2701Y159D02*
X2730Y159D01*
X2765Y159D02*
X2772Y159D01*
X1Y158D02*
X8Y158D01*
X2677Y158D02*
X2683Y158D01*
X2701Y158D02*
X2730Y158D01*
X2765Y158D02*
X2772Y158D01*
X1Y157D02*
X8Y157D01*
X2677Y157D02*
X2683Y157D01*
X2701Y157D02*
X2730Y157D01*
X2765Y157D02*
X2772Y157D01*
X1Y156D02*
X8Y156D01*
X2677Y156D02*
X2683Y156D01*
X2701Y156D02*
X2729Y156D01*
X2765Y156D02*
X2772Y156D01*
X1Y155D02*
X8Y155D01*
X2677Y155D02*
X2707Y155D01*
X2765Y155D02*
X2772Y155D01*
X1Y154D02*
X8Y154D01*
X2677Y154D02*
X2707Y154D01*
X2765Y154D02*
X2772Y154D01*
X1Y153D02*
X8Y153D01*
X2678Y153D02*
X2706Y153D01*
X2765Y153D02*
X2772Y153D01*
X1Y152D02*
X8Y152D01*
X2678Y152D02*
X2706Y152D01*
X2765Y152D02*
X2772Y152D01*
X1Y151D02*
X8Y151D01*
X2679Y151D02*
X2705Y151D01*
X2765Y151D02*
X2772Y151D01*
X1Y150D02*
X8Y150D01*
X2680Y150D02*
X2704Y150D01*
X2765Y150D02*
X2772Y150D01*
X1Y149D02*
X8Y149D01*
X2681Y149D02*
X2703Y149D01*
X2765Y149D02*
X2772Y149D01*
X1Y148D02*
X8Y148D01*
X2765Y148D02*
X2772Y148D01*
X1Y147D02*
X8Y147D01*
X2765Y147D02*
X2772Y147D01*
X1Y146D02*
X8Y146D01*
X2765Y146D02*
X2772Y146D01*
X1Y145D02*
X8Y145D01*
X2765Y145D02*
X2772Y145D01*
X1Y144D02*
X8Y144D01*
X2765Y144D02*
X2772Y144D01*
X1Y143D02*
X8Y143D01*
X2765Y143D02*
X2772Y143D01*
X1Y142D02*
X8Y142D01*
X2765Y142D02*
X2772Y142D01*
X1Y141D02*
X8Y141D01*
X2765Y141D02*
X2772Y141D01*
X1Y140D02*
X8Y140D01*
X2765Y140D02*
X2772Y140D01*
X1Y139D02*
X8Y139D01*
X2765Y139D02*
X2772Y139D01*
X1Y138D02*
X8Y138D01*
X2765Y138D02*
X2772Y138D01*
X1Y137D02*
X8Y137D01*
X2765Y137D02*
X2772Y137D01*
X1Y136D02*
X8Y136D01*
X2765Y136D02*
X2772Y136D01*
X1Y135D02*
X8Y135D01*
X2765Y135D02*
X2772Y135D01*
X1Y134D02*
X8Y134D01*
X2765Y134D02*
X2772Y134D01*
X1Y133D02*
X8Y133D01*
X2765Y133D02*
X2772Y133D01*
X1Y132D02*
X8Y132D01*
X2664Y132D02*
X2716Y132D01*
X2765Y132D02*
X2772Y132D01*
X1Y131D02*
X8Y131D01*
X2663Y131D02*
X2717Y131D01*
X2765Y131D02*
X2772Y131D01*
X1Y130D02*
X8Y130D01*
X2663Y130D02*
X2717Y130D01*
X2765Y130D02*
X2772Y130D01*
X1Y129D02*
X8Y129D01*
X2663Y129D02*
X2717Y129D01*
X2765Y129D02*
X2772Y129D01*
X1Y128D02*
X8Y128D01*
X2663Y128D02*
X2717Y128D01*
X2765Y128D02*
X2772Y128D01*
X1Y127D02*
X8Y127D01*
X2663Y127D02*
X2716Y127D01*
X2765Y127D02*
X2772Y127D01*
X1Y126D02*
X8Y126D01*
X2665Y126D02*
X2715Y126D01*
X2765Y126D02*
X2772Y126D01*
X1Y125D02*
X8Y125D01*
X2680Y125D02*
X2689Y125D01*
X2704Y125D02*
X2713Y125D01*
X2765Y125D02*
X2772Y125D01*
X1Y124D02*
X8Y124D01*
X2679Y124D02*
X2688Y124D01*
X2705Y124D02*
X2714Y124D01*
X2765Y124D02*
X2772Y124D01*
X1Y123D02*
X8Y123D01*
X2678Y123D02*
X2687Y123D01*
X2706Y123D02*
X2714Y123D01*
X2765Y123D02*
X2772Y123D01*
X1Y122D02*
X8Y122D01*
X2678Y122D02*
X2686Y122D01*
X2707Y122D02*
X2715Y122D01*
X2765Y122D02*
X2772Y122D01*
X1Y121D02*
X8Y121D01*
X2677Y121D02*
X2685Y121D01*
X2708Y121D02*
X2716Y121D01*
X2765Y121D02*
X2772Y121D01*
X1Y120D02*
X8Y120D01*
X2677Y120D02*
X2684Y120D01*
X2709Y120D02*
X2716Y120D01*
X2765Y120D02*
X2772Y120D01*
X1Y119D02*
X8Y119D01*
X2676Y119D02*
X2683Y119D01*
X2710Y119D02*
X2717Y119D01*
X2765Y119D02*
X2772Y119D01*
X1Y118D02*
X8Y118D01*
X2676Y118D02*
X2682Y118D01*
X2710Y118D02*
X2717Y118D01*
X2765Y118D02*
X2772Y118D01*
X1Y117D02*
X8Y117D01*
X2676Y117D02*
X2682Y117D01*
X2711Y117D02*
X2717Y117D01*
X2765Y117D02*
X2772Y117D01*
X1Y116D02*
X8Y116D01*
X2676Y116D02*
X2682Y116D01*
X2711Y116D02*
X2717Y116D01*
X2765Y116D02*
X2772Y116D01*
X1Y115D02*
X8Y115D01*
X2676Y115D02*
X2682Y115D01*
X2711Y115D02*
X2717Y115D01*
X2765Y115D02*
X2772Y115D01*
X1Y114D02*
X8Y114D01*
X2676Y114D02*
X2682Y114D01*
X2711Y114D02*
X2717Y114D01*
X2765Y114D02*
X2772Y114D01*
X1Y113D02*
X8Y113D01*
X2676Y113D02*
X2682Y113D01*
X2711Y113D02*
X2717Y113D01*
X2765Y113D02*
X2772Y113D01*
X1Y112D02*
X8Y112D01*
X2676Y112D02*
X2683Y112D01*
X2710Y112D02*
X2717Y112D01*
X2765Y112D02*
X2772Y112D01*
X1Y111D02*
X8Y111D01*
X2676Y111D02*
X2684Y111D01*
X2709Y111D02*
X2716Y111D01*
X2765Y111D02*
X2772Y111D01*
X1Y110D02*
X8Y110D01*
X2677Y110D02*
X2685Y110D01*
X2708Y110D02*
X2716Y110D01*
X2765Y110D02*
X2772Y110D01*
X1Y109D02*
X8Y109D01*
X2677Y109D02*
X2686Y109D01*
X2707Y109D02*
X2715Y109D01*
X2765Y109D02*
X2772Y109D01*
X1Y108D02*
X8Y108D01*
X2678Y108D02*
X2686Y108D01*
X2706Y108D02*
X2715Y108D01*
X2765Y108D02*
X2772Y108D01*
X1Y107D02*
X8Y107D01*
X2679Y107D02*
X2687Y107D01*
X2706Y107D02*
X2714Y107D01*
X2765Y107D02*
X2772Y107D01*
X1Y106D02*
X8Y106D01*
X2680Y106D02*
X2688Y106D01*
X2705Y106D02*
X2713Y106D01*
X2765Y106D02*
X2772Y106D01*
X1Y105D02*
X8Y105D01*
X2681Y105D02*
X2712Y105D01*
X2765Y105D02*
X2772Y105D01*
X1Y104D02*
X8Y104D01*
X2682Y104D02*
X2711Y104D01*
X2765Y104D02*
X2772Y104D01*
X1Y103D02*
X8Y103D01*
X2682Y103D02*
X2710Y103D01*
X2765Y103D02*
X2772Y103D01*
X1Y102D02*
X8Y102D01*
X2683Y102D02*
X2710Y102D01*
X2765Y102D02*
X2772Y102D01*
X1Y101D02*
X8Y101D01*
X2684Y101D02*
X2708Y101D01*
X2765Y101D02*
X2772Y101D01*
X1Y100D02*
X8Y100D01*
X2686Y100D02*
X2707Y100D01*
X2765Y100D02*
X2772Y100D01*
X1Y99D02*
X8Y99D01*
X2687Y99D02*
X2706Y99D01*
X2765Y99D02*
X2772Y99D01*
X1Y98D02*
X8Y98D01*
X235Y98D02*
X434Y98D01*
X2765Y98D02*
X2772Y98D01*
X1Y97D02*
X8Y97D01*
X235Y97D02*
X434Y97D01*
X2765Y97D02*
X2772Y97D01*
X1Y96D02*
X8Y96D01*
X235Y96D02*
X434Y96D01*
X2765Y96D02*
X2772Y96D01*
X1Y95D02*
X8Y95D01*
X235Y95D02*
X434Y95D01*
X2765Y95D02*
X2772Y95D01*
X1Y94D02*
X8Y94D01*
X235Y94D02*
X434Y94D01*
X2765Y94D02*
X2772Y94D01*
X1Y93D02*
X8Y93D01*
X235Y93D02*
X304Y93D01*
X315Y93D02*
X434Y93D01*
X2765Y93D02*
X2772Y93D01*
X1Y92D02*
X8Y92D01*
X235Y92D02*
X301Y92D01*
X318Y92D02*
X434Y92D01*
X2765Y92D02*
X2772Y92D01*
X1Y91D02*
X8Y91D01*
X235Y91D02*
X298Y91D01*
X320Y91D02*
X434Y91D01*
X2765Y91D02*
X2772Y91D01*
X1Y90D02*
X8Y90D01*
X235Y90D02*
X296Y90D01*
X322Y90D02*
X434Y90D01*
X2765Y90D02*
X2772Y90D01*
X1Y89D02*
X8Y89D01*
X235Y89D02*
X295Y89D01*
X324Y89D02*
X434Y89D01*
X2765Y89D02*
X2772Y89D01*
X1Y88D02*
X8Y88D01*
X2765Y88D02*
X2772Y88D01*
X1Y87D02*
X8Y87D01*
X2765Y87D02*
X2772Y87D01*
X1Y86D02*
X8Y86D01*
X2765Y86D02*
X2772Y86D01*
X1Y85D02*
X8Y85D01*
X2765Y85D02*
X2772Y85D01*
X1Y84D02*
X8Y84D01*
X2765Y84D02*
X2772Y84D01*
X1Y83D02*
X8Y83D01*
X2765Y83D02*
X2772Y83D01*
X1Y82D02*
X8Y82D01*
X2765Y82D02*
X2772Y82D01*
X1Y81D02*
X8Y81D01*
X2765Y81D02*
X2772Y81D01*
X1Y80D02*
X8Y80D01*
X2765Y80D02*
X2772Y80D01*
X1Y79D02*
X8Y79D01*
X2765Y79D02*
X2772Y79D01*
X1Y78D02*
X8Y78D01*
X2765Y78D02*
X2772Y78D01*
X1Y77D02*
X8Y77D01*
X2765Y77D02*
X2772Y77D01*
X1Y76D02*
X8Y76D01*
X2765Y76D02*
X2772Y76D01*
X1Y75D02*
X8Y75D01*
X2765Y75D02*
X2772Y75D01*
X1Y74D02*
X8Y74D01*
X2765Y74D02*
X2772Y74D01*
X1Y73D02*
X8Y73D01*
X2765Y73D02*
X2772Y73D01*
X1Y72D02*
X8Y72D01*
X2765Y72D02*
X2772Y72D01*
X1Y71D02*
X8Y71D01*
X2765Y71D02*
X2772Y71D01*
X1Y70D02*
X8Y70D01*
X2765Y70D02*
X2772Y70D01*
X1Y69D02*
X8Y69D01*
X2765Y69D02*
X2772Y69D01*
X1Y68D02*
X8Y68D01*
X2765Y68D02*
X2772Y68D01*
X1Y67D02*
X8Y67D01*
X2765Y67D02*
X2772Y67D01*
X1Y66D02*
X8Y66D01*
X2765Y66D02*
X2772Y66D01*
X1Y65D02*
X8Y65D01*
X2765Y65D02*
X2772Y65D01*
X1Y64D02*
X8Y64D01*
X2765Y64D02*
X2772Y64D01*
X1Y63D02*
X8Y63D01*
X2765Y63D02*
X2772Y63D01*
X1Y62D02*
X8Y62D01*
X2765Y62D02*
X2772Y62D01*
X1Y61D02*
X8Y61D01*
X2765Y61D02*
X2772Y61D01*
X1Y60D02*
X8Y60D01*
X2765Y60D02*
X2772Y60D01*
X1Y59D02*
X8Y59D01*
X2765Y59D02*
X2772Y59D01*
X1Y58D02*
X8Y58D01*
X2765Y58D02*
X2772Y58D01*
X1Y57D02*
X8Y57D01*
X2765Y57D02*
X2772Y57D01*
X1Y56D02*
X8Y56D01*
X2765Y56D02*
X2772Y56D01*
X1Y55D02*
X8Y55D01*
X2765Y55D02*
X2772Y55D01*
X1Y54D02*
X8Y54D01*
X2765Y54D02*
X2772Y54D01*
X1Y53D02*
X8Y53D01*
X2765Y53D02*
X2772Y53D01*
X1Y52D02*
X8Y52D01*
X2765Y52D02*
X2772Y52D01*
X1Y51D02*
X8Y51D01*
X2765Y51D02*
X2772Y51D01*
X1Y50D02*
X8Y50D01*
X2765Y50D02*
X2772Y50D01*
X1Y49D02*
X8Y49D01*
X2765Y49D02*
X2772Y49D01*
X1Y48D02*
X8Y48D01*
X2765Y48D02*
X2772Y48D01*
X1Y47D02*
X8Y47D01*
X2765Y47D02*
X2772Y47D01*
X1Y46D02*
X8Y46D01*
X2765Y46D02*
X2772Y46D01*
X1Y45D02*
X8Y45D01*
X2765Y45D02*
X2772Y45D01*
X1Y44D02*
X8Y44D01*
X2765Y44D02*
X2772Y44D01*
X1Y43D02*
X8Y43D01*
X2765Y43D02*
X2772Y43D01*
X1Y42D02*
X8Y42D01*
X2765Y42D02*
X2772Y42D01*
X1Y41D02*
X8Y41D01*
X2765Y41D02*
X2772Y41D01*
X1Y40D02*
X8Y40D01*
X2765Y40D02*
X2772Y40D01*
X1Y39D02*
X8Y39D01*
X2765Y39D02*
X2772Y39D01*
X1Y38D02*
X8Y38D01*
X2765Y38D02*
X2772Y38D01*
X1Y37D02*
X8Y37D01*
X2765Y37D02*
X2772Y37D01*
X1Y36D02*
X8Y36D01*
X2765Y36D02*
X2772Y36D01*
X1Y35D02*
X8Y35D01*
X2765Y35D02*
X2772Y35D01*
X1Y34D02*
X8Y34D01*
X2765Y34D02*
X2772Y34D01*
X1Y33D02*
X8Y33D01*
X2765Y33D02*
X2772Y33D01*
X1Y32D02*
X8Y32D01*
X2765Y32D02*
X2772Y32D01*
X1Y31D02*
X8Y31D01*
X2765Y31D02*
X2772Y31D01*
X1Y30D02*
X8Y30D01*
X2765Y30D02*
X2772Y30D01*
X1Y29D02*
X8Y29D01*
X2765Y29D02*
X2772Y29D01*
X1Y28D02*
X8Y28D01*
X2765Y28D02*
X2772Y28D01*
X1Y27D02*
X8Y27D01*
X2765Y27D02*
X2772Y27D01*
X1Y26D02*
X8Y26D01*
X2765Y26D02*
X2772Y26D01*
X1Y25D02*
X8Y25D01*
X2765Y25D02*
X2772Y25D01*
X1Y24D02*
X8Y24D01*
X2765Y24D02*
X2772Y24D01*
X1Y23D02*
X8Y23D01*
X2765Y23D02*
X2772Y23D01*
X1Y22D02*
X8Y22D01*
X2765Y22D02*
X2772Y22D01*
X1Y21D02*
X8Y21D01*
X2765Y21D02*
X2772Y21D01*
X1Y20D02*
X8Y20D01*
X2765Y20D02*
X2772Y20D01*
X1Y19D02*
X8Y19D01*
X2765Y19D02*
X2772Y19D01*
X1Y18D02*
X8Y18D01*
X2765Y18D02*
X2772Y18D01*
X1Y17D02*
X8Y17D01*
X2765Y17D02*
X2772Y17D01*
X1Y16D02*
X8Y16D01*
X2765Y16D02*
X2772Y16D01*
X1Y15D02*
X8Y15D01*
X2765Y15D02*
X2772Y15D01*
X1Y14D02*
X8Y14D01*
X2765Y14D02*
X2772Y14D01*
X1Y13D02*
X8Y13D01*
X2765Y13D02*
X2772Y13D01*
X1Y12D02*
X8Y12D01*
X2765Y12D02*
X2772Y12D01*
X1Y11D02*
X8Y11D01*
X2765Y11D02*
X2772Y11D01*
X1Y10D02*
X8Y10D01*
X2765Y10D02*
X2772Y10D01*
X1Y9D02*
X8Y9D01*
X2765Y9D02*
X2772Y9D01*
X1Y8D02*
X2772Y8D01*
X1Y7D02*
X2772Y7D01*
X1Y6D02*
X2772Y6D01*
X1Y5D02*
X2772Y5D01*
X1Y4D02*
X2772Y4D01*
X1Y3D02*
X2772Y3D01*
X1Y2D02*
X2772Y2D01*
X1Y1D02*
X2772Y1D01*
D02*
G04 End of Silk1*
M02*