G04 MADE WITH FRITZING*
G04 WWW.FRITZING.ORG*
G04 SINGLE SIDED*
G04 HOLES NOT PLATED*
G04 CONTOUR ON CENTER OF CONTOUR VECTOR*
%ASAXBY*%
%FSLAX23Y23*%
%MOIN*%
%OFA0B0*%
%SFA1.0B1.0*%
%ADD10C,0.088000*%
%ADD11R,0.084803X0.072992*%
%ADD12R,0.072992X0.084803*%
%ADD13R,0.088740X0.096615*%
%ADD14R,0.124240X0.135984*%
%ADD15R,0.124173X0.135984*%
%ADD16R,0.001000X0.001000*%
%LNMASK0*%
G90*
G70*
G54D10*
X350Y319D03*
X450Y319D03*
X550Y319D03*
G54D11*
X175Y69D03*
X175Y191D03*
G54D12*
X625Y219D03*
X503Y219D03*
G54D13*
X631Y107D03*
X513Y107D03*
X282Y107D03*
X400Y107D03*
G54D12*
X275Y219D03*
X397Y219D03*
G54D14*
X63Y69D03*
G54D15*
X63Y207D03*
X63Y344D03*
G54D16*
X700Y385D02*
X873Y385D01*
X700Y384D02*
X873Y384D01*
X700Y383D02*
X873Y383D01*
X700Y382D02*
X873Y382D01*
X700Y381D02*
X873Y381D01*
X700Y380D02*
X873Y380D01*
X700Y379D02*
X873Y379D01*
X700Y378D02*
X873Y378D01*
X700Y377D02*
X873Y377D01*
X700Y376D02*
X873Y376D01*
X700Y375D02*
X873Y375D01*
X700Y374D02*
X873Y374D01*
X700Y373D02*
X873Y373D01*
X700Y372D02*
X873Y372D01*
X700Y371D02*
X873Y371D01*
X700Y370D02*
X873Y370D01*
X700Y369D02*
X873Y369D01*
X700Y368D02*
X873Y368D01*
X700Y367D02*
X873Y367D01*
X700Y366D02*
X873Y366D01*
X700Y365D02*
X873Y365D01*
X700Y364D02*
X873Y364D01*
X700Y363D02*
X873Y363D01*
X700Y362D02*
X873Y362D01*
X700Y361D02*
X873Y361D01*
X700Y360D02*
X873Y360D01*
X700Y359D02*
X873Y359D01*
X700Y358D02*
X873Y358D01*
X700Y357D02*
X873Y357D01*
X700Y356D02*
X873Y356D01*
X700Y355D02*
X873Y355D01*
X700Y354D02*
X873Y354D01*
X700Y353D02*
X873Y353D01*
X700Y352D02*
X873Y352D01*
X700Y351D02*
X873Y351D01*
X700Y350D02*
X873Y350D01*
X700Y349D02*
X873Y349D01*
X700Y348D02*
X873Y348D01*
X700Y347D02*
X873Y347D01*
X700Y346D02*
X873Y346D01*
X700Y345D02*
X873Y345D01*
X700Y344D02*
X873Y344D01*
X700Y343D02*
X873Y343D01*
X700Y342D02*
X873Y342D01*
X700Y341D02*
X873Y341D01*
X700Y340D02*
X873Y340D01*
X700Y339D02*
X873Y339D01*
X700Y338D02*
X873Y338D01*
X700Y337D02*
X873Y337D01*
X700Y336D02*
X873Y336D01*
X700Y335D02*
X873Y335D01*
X700Y334D02*
X873Y334D01*
X700Y333D02*
X873Y333D01*
X700Y332D02*
X873Y332D01*
X700Y331D02*
X873Y331D01*
X700Y330D02*
X873Y330D01*
X700Y329D02*
X873Y329D01*
X700Y328D02*
X873Y328D01*
X700Y327D02*
X873Y327D01*
X700Y326D02*
X873Y326D01*
X700Y325D02*
X873Y325D01*
X700Y324D02*
X873Y324D01*
X700Y323D02*
X873Y323D01*
X700Y322D02*
X873Y322D01*
X700Y321D02*
X873Y321D01*
X700Y320D02*
X873Y320D01*
X700Y319D02*
X873Y319D01*
X700Y318D02*
X873Y318D01*
X700Y317D02*
X873Y317D01*
X700Y316D02*
X873Y316D01*
X700Y315D02*
X873Y315D01*
X700Y314D02*
X873Y314D01*
X700Y313D02*
X873Y313D01*
X700Y312D02*
X873Y312D01*
X700Y311D02*
X873Y311D01*
X700Y310D02*
X873Y310D01*
X700Y309D02*
X873Y309D01*
X700Y308D02*
X873Y308D01*
X700Y307D02*
X873Y307D01*
X700Y306D02*
X873Y306D01*
X700Y305D02*
X873Y305D01*
X700Y304D02*
X873Y304D01*
X700Y303D02*
X873Y303D01*
X700Y302D02*
X873Y302D01*
X700Y301D02*
X873Y301D01*
X700Y300D02*
X873Y300D01*
X700Y299D02*
X873Y299D01*
X700Y298D02*
X873Y298D01*
X700Y297D02*
X873Y297D01*
X700Y296D02*
X873Y296D01*
X700Y295D02*
X873Y295D01*
X700Y294D02*
X873Y294D01*
X700Y293D02*
X873Y293D01*
X700Y292D02*
X873Y292D01*
X700Y291D02*
X873Y291D01*
X700Y290D02*
X873Y290D01*
X700Y289D02*
X873Y289D01*
X700Y288D02*
X873Y288D01*
X700Y287D02*
X873Y287D01*
X700Y286D02*
X873Y286D01*
X700Y285D02*
X873Y285D01*
X700Y284D02*
X873Y284D01*
X700Y283D02*
X873Y283D01*
X700Y282D02*
X873Y282D01*
X700Y281D02*
X873Y281D01*
X700Y280D02*
X873Y280D01*
X700Y279D02*
X873Y279D01*
X700Y278D02*
X873Y278D01*
X700Y277D02*
X873Y277D01*
X700Y276D02*
X873Y276D01*
X700Y275D02*
X873Y275D01*
X700Y274D02*
X873Y274D01*
X700Y273D02*
X873Y273D01*
X700Y272D02*
X873Y272D01*
X700Y271D02*
X873Y271D01*
X700Y270D02*
X873Y270D01*
X700Y269D02*
X873Y269D01*
X700Y268D02*
X873Y268D01*
X700Y267D02*
X873Y267D01*
X700Y266D02*
X873Y266D01*
X700Y265D02*
X873Y265D01*
X700Y264D02*
X873Y264D01*
X700Y263D02*
X873Y263D01*
X700Y262D02*
X873Y262D01*
X700Y261D02*
X873Y261D01*
X700Y260D02*
X873Y260D01*
X700Y259D02*
X873Y259D01*
X700Y258D02*
X873Y258D01*
X700Y257D02*
X873Y257D01*
X700Y256D02*
X873Y256D01*
X700Y255D02*
X873Y255D01*
X700Y254D02*
X873Y254D01*
X700Y253D02*
X873Y253D01*
X700Y252D02*
X873Y252D01*
X700Y251D02*
X873Y251D01*
X700Y250D02*
X873Y250D01*
X700Y249D02*
X873Y249D01*
X700Y248D02*
X873Y248D01*
X700Y247D02*
X873Y247D01*
X700Y246D02*
X873Y246D01*
X700Y245D02*
X873Y245D01*
X700Y244D02*
X873Y244D01*
X700Y243D02*
X873Y243D01*
X700Y242D02*
X873Y242D01*
X700Y241D02*
X873Y241D01*
X700Y240D02*
X873Y240D01*
X700Y239D02*
X873Y239D01*
X700Y238D02*
X873Y238D01*
X700Y237D02*
X873Y237D01*
X700Y236D02*
X873Y236D01*
X700Y235D02*
X873Y235D01*
X700Y234D02*
X873Y234D01*
X700Y233D02*
X873Y233D01*
X700Y232D02*
X873Y232D01*
X700Y231D02*
X873Y231D01*
X700Y230D02*
X873Y230D01*
X700Y229D02*
X873Y229D01*
X700Y228D02*
X873Y228D01*
X700Y227D02*
X873Y227D01*
X700Y226D02*
X873Y226D01*
X700Y225D02*
X873Y225D01*
X700Y224D02*
X873Y224D01*
X700Y223D02*
X873Y223D01*
X700Y222D02*
X873Y222D01*
X700Y221D02*
X873Y221D01*
X700Y220D02*
X873Y220D01*
X700Y219D02*
X873Y219D01*
X700Y218D02*
X873Y218D01*
X700Y217D02*
X873Y217D01*
X700Y216D02*
X873Y216D01*
X700Y215D02*
X873Y215D01*
X700Y214D02*
X873Y214D01*
X700Y213D02*
X873Y213D01*
X700Y212D02*
X873Y212D01*
X700Y211D02*
X873Y211D01*
X700Y210D02*
X873Y210D01*
X700Y209D02*
X873Y209D01*
X700Y208D02*
X873Y208D01*
X700Y207D02*
X873Y207D01*
X700Y206D02*
X873Y206D01*
X700Y205D02*
X873Y205D01*
X700Y204D02*
X873Y204D01*
X701Y198D02*
X873Y198D01*
X700Y197D02*
X873Y197D01*
X700Y196D02*
X873Y196D01*
X700Y195D02*
X873Y195D01*
X700Y194D02*
X873Y194D01*
X700Y193D02*
X873Y193D01*
X700Y192D02*
X873Y192D01*
X700Y191D02*
X873Y191D01*
X700Y190D02*
X873Y190D01*
X700Y189D02*
X873Y189D01*
X700Y188D02*
X873Y188D01*
X700Y187D02*
X873Y187D01*
X700Y186D02*
X873Y186D01*
X700Y185D02*
X873Y185D01*
X700Y184D02*
X873Y184D01*
X700Y183D02*
X873Y183D01*
X700Y182D02*
X873Y182D01*
X700Y181D02*
X873Y181D01*
X700Y180D02*
X873Y180D01*
X700Y179D02*
X873Y179D01*
X700Y178D02*
X873Y178D01*
X700Y177D02*
X873Y177D01*
X700Y176D02*
X873Y176D01*
X700Y175D02*
X873Y175D01*
X700Y174D02*
X873Y174D01*
X700Y173D02*
X873Y173D01*
X700Y172D02*
X873Y172D01*
X700Y171D02*
X873Y171D01*
X700Y170D02*
X873Y170D01*
X700Y169D02*
X873Y169D01*
X700Y168D02*
X873Y168D01*
X700Y167D02*
X873Y167D01*
X700Y166D02*
X873Y166D01*
X700Y165D02*
X873Y165D01*
X700Y164D02*
X873Y164D01*
X700Y163D02*
X873Y163D01*
X700Y162D02*
X873Y162D01*
X700Y161D02*
X873Y161D01*
X700Y160D02*
X873Y160D01*
X700Y159D02*
X873Y159D01*
X700Y158D02*
X873Y158D01*
X700Y157D02*
X873Y157D01*
X700Y156D02*
X873Y156D01*
X700Y155D02*
X873Y155D01*
X700Y154D02*
X873Y154D01*
X700Y153D02*
X873Y153D01*
X700Y152D02*
X873Y152D01*
X700Y151D02*
X873Y151D01*
X700Y150D02*
X873Y150D01*
X700Y149D02*
X873Y149D01*
X700Y148D02*
X873Y148D01*
X700Y147D02*
X873Y147D01*
X700Y146D02*
X873Y146D01*
X700Y145D02*
X873Y145D01*
X700Y144D02*
X873Y144D01*
X700Y143D02*
X873Y143D01*
X700Y142D02*
X873Y142D01*
X700Y141D02*
X873Y141D01*
X700Y140D02*
X873Y140D01*
X700Y139D02*
X873Y139D01*
X700Y138D02*
X873Y138D01*
X700Y137D02*
X873Y137D01*
X700Y136D02*
X873Y136D01*
X700Y135D02*
X873Y135D01*
X700Y134D02*
X873Y134D01*
X700Y133D02*
X873Y133D01*
X700Y132D02*
X873Y132D01*
X700Y131D02*
X873Y131D01*
X700Y130D02*
X873Y130D01*
X700Y129D02*
X873Y129D01*
X700Y128D02*
X873Y128D01*
X700Y127D02*
X873Y127D01*
X700Y126D02*
X873Y126D01*
X700Y125D02*
X873Y125D01*
X700Y124D02*
X873Y124D01*
X700Y123D02*
X873Y123D01*
X700Y122D02*
X873Y122D01*
X700Y121D02*
X873Y121D01*
X700Y120D02*
X873Y120D01*
X700Y119D02*
X873Y119D01*
X700Y118D02*
X873Y118D01*
X700Y117D02*
X873Y117D01*
X700Y116D02*
X873Y116D01*
X700Y115D02*
X873Y115D01*
X700Y114D02*
X873Y114D01*
X700Y113D02*
X873Y113D01*
X700Y112D02*
X873Y112D01*
X700Y111D02*
X873Y111D01*
X700Y110D02*
X873Y110D01*
X700Y109D02*
X873Y109D01*
X700Y108D02*
X873Y108D01*
X700Y107D02*
X873Y107D01*
X700Y106D02*
X873Y106D01*
X700Y105D02*
X873Y105D01*
X700Y104D02*
X873Y104D01*
X700Y103D02*
X873Y103D01*
X700Y102D02*
X873Y102D01*
X700Y101D02*
X873Y101D01*
X700Y100D02*
X873Y100D01*
X700Y99D02*
X873Y99D01*
X700Y98D02*
X873Y98D01*
X700Y97D02*
X873Y97D01*
X700Y96D02*
X873Y96D01*
X700Y95D02*
X873Y95D01*
X700Y94D02*
X873Y94D01*
X700Y93D02*
X873Y93D01*
X700Y92D02*
X873Y92D01*
X700Y91D02*
X873Y91D01*
X700Y90D02*
X873Y90D01*
X700Y89D02*
X873Y89D01*
X700Y88D02*
X873Y88D01*
X700Y87D02*
X873Y87D01*
X700Y86D02*
X873Y86D01*
X700Y85D02*
X873Y85D01*
X700Y84D02*
X873Y84D01*
X700Y83D02*
X873Y83D01*
X700Y82D02*
X873Y82D01*
X700Y81D02*
X873Y81D01*
X700Y80D02*
X873Y80D01*
X700Y79D02*
X873Y79D01*
X700Y78D02*
X873Y78D01*
X700Y77D02*
X873Y77D01*
X700Y76D02*
X873Y76D01*
X700Y75D02*
X873Y75D01*
X700Y74D02*
X873Y74D01*
X700Y73D02*
X873Y73D01*
X700Y72D02*
X873Y72D01*
X700Y71D02*
X873Y71D01*
X700Y70D02*
X873Y70D01*
X700Y69D02*
X873Y69D01*
X700Y68D02*
X873Y68D01*
X700Y67D02*
X873Y67D01*
X700Y66D02*
X873Y66D01*
X700Y65D02*
X873Y65D01*
X700Y64D02*
X873Y64D01*
X700Y63D02*
X873Y63D01*
X700Y62D02*
X873Y62D01*
X700Y61D02*
X873Y61D01*
X700Y60D02*
X873Y60D01*
X700Y59D02*
X873Y59D01*
X700Y58D02*
X873Y58D01*
X700Y57D02*
X873Y57D01*
X700Y56D02*
X873Y56D01*
X700Y55D02*
X873Y55D01*
X700Y54D02*
X873Y54D01*
X700Y53D02*
X873Y53D01*
X700Y52D02*
X873Y52D01*
X700Y51D02*
X873Y51D01*
X700Y50D02*
X873Y50D01*
X700Y49D02*
X873Y49D01*
X700Y48D02*
X873Y48D01*
X700Y47D02*
X873Y47D01*
X700Y46D02*
X873Y46D01*
X700Y45D02*
X873Y45D01*
X700Y44D02*
X873Y44D01*
X700Y43D02*
X873Y43D01*
X700Y42D02*
X873Y42D01*
X700Y41D02*
X873Y41D01*
X700Y40D02*
X873Y40D01*
X700Y39D02*
X873Y39D01*
X700Y38D02*
X873Y38D01*
X700Y37D02*
X873Y37D01*
X700Y36D02*
X873Y36D01*
X700Y35D02*
X873Y35D01*
X700Y34D02*
X873Y34D01*
X700Y33D02*
X873Y33D01*
X700Y32D02*
X873Y32D01*
X700Y31D02*
X873Y31D01*
X700Y30D02*
X873Y30D01*
X700Y29D02*
X873Y29D01*
X700Y28D02*
X873Y28D01*
X700Y27D02*
X873Y27D01*
X700Y26D02*
X873Y26D01*
X700Y25D02*
X873Y25D01*
X700Y24D02*
X873Y24D01*
X700Y23D02*
X873Y23D01*
X700Y22D02*
X873Y22D01*
X700Y21D02*
X873Y21D01*
X700Y20D02*
X873Y20D01*
X700Y19D02*
X873Y19D01*
X700Y18D02*
X873Y18D01*
X700Y17D02*
X873Y17D01*
X701Y16D02*
X873Y16D01*
D02*
G04 End of Mask0*
M02*