G04 MADE WITH FRITZING*
G04 WWW.FRITZING.ORG*
G04 SINGLE SIDED*
G04 HOLES NOT PLATED*
G04 CONTOUR ON CENTER OF CONTOUR VECTOR*
%ASAXBY*%
%FSLAX23Y23*%
%MOIN*%
%OFA0B0*%
%SFA1.0B1.0*%
%ADD10C,0.078000*%
%ADD11R,0.074803X0.062992*%
%ADD12R,0.062992X0.074803*%
%ADD13R,0.078740X0.086615*%
%ADD14R,0.165378X0.172497*%
%ADD15R,0.114240X0.125984*%
%ADD16R,0.114173X0.125984*%
%ADD17C,0.048000*%
%ADD18R,0.001000X0.001000*%
%LNCOPPER0*%
G90*
G70*
G54D10*
X350Y319D03*
X450Y319D03*
X550Y319D03*
G54D11*
X175Y69D03*
X175Y191D03*
G54D12*
X625Y219D03*
X503Y219D03*
G54D13*
X631Y107D03*
X513Y107D03*
X282Y107D03*
X400Y107D03*
G54D12*
X275Y219D03*
X397Y219D03*
G54D14*
X788Y294D03*
X788Y107D03*
G54D15*
X63Y69D03*
G54D16*
X63Y207D03*
X63Y344D03*
G54D17*
X277Y187D02*
X280Y144D01*
D02*
X114Y199D02*
X143Y195D01*
D02*
X627Y187D02*
X629Y144D01*
D02*
X175Y69D02*
X176Y45D01*
D02*
X176Y45D02*
X114Y58D01*
D02*
X382Y251D02*
X358Y302D01*
D02*
X518Y251D02*
X542Y302D01*
D02*
X479Y107D02*
X434Y107D01*
G54D18*
X136Y413D02*
X715Y413D01*
X134Y412D02*
X716Y412D01*
X132Y411D02*
X717Y411D01*
X130Y410D02*
X718Y410D01*
X129Y409D02*
X719Y409D01*
X127Y408D02*
X720Y408D01*
X125Y407D02*
X720Y407D01*
X123Y406D02*
X721Y406D01*
X122Y405D02*
X722Y405D01*
X120Y404D02*
X723Y404D01*
X118Y403D02*
X724Y403D01*
X116Y402D02*
X725Y402D01*
X115Y401D02*
X726Y401D01*
X113Y400D02*
X727Y400D01*
X111Y399D02*
X727Y399D01*
X109Y398D02*
X728Y398D01*
X108Y397D02*
X729Y397D01*
X106Y396D02*
X730Y396D01*
X104Y395D02*
X731Y395D01*
X103Y394D02*
X732Y394D01*
X101Y393D02*
X733Y393D01*
X100Y392D02*
X734Y392D01*
X99Y391D02*
X734Y391D01*
X98Y390D02*
X735Y390D01*
X97Y389D02*
X736Y389D01*
X96Y388D02*
X737Y388D01*
X95Y387D02*
X737Y387D01*
X95Y386D02*
X738Y386D01*
X94Y385D02*
X738Y385D01*
X94Y384D02*
X739Y384D01*
X93Y383D02*
X739Y383D01*
X93Y382D02*
X740Y382D01*
X92Y381D02*
X740Y381D01*
X92Y380D02*
X740Y380D01*
X92Y379D02*
X740Y379D01*
X92Y378D02*
X740Y378D01*
X92Y377D02*
X740Y377D01*
X91Y376D02*
X741Y376D01*
X91Y375D02*
X741Y375D01*
X91Y374D02*
X741Y374D01*
X91Y373D02*
X740Y373D01*
X91Y372D02*
X740Y372D01*
X91Y371D02*
X740Y371D01*
X92Y370D02*
X156Y370D01*
X427Y370D02*
X474Y370D01*
X690Y370D02*
X740Y370D01*
X92Y369D02*
X154Y369D01*
X427Y369D02*
X474Y369D01*
X691Y369D02*
X740Y369D01*
X92Y368D02*
X153Y368D01*
X427Y368D02*
X474Y368D01*
X692Y368D02*
X739Y368D01*
X92Y367D02*
X151Y367D01*
X427Y367D02*
X474Y367D01*
X693Y367D02*
X739Y367D01*
X93Y366D02*
X149Y366D01*
X427Y366D02*
X474Y366D01*
X694Y366D02*
X739Y366D01*
X93Y365D02*
X147Y365D01*
X427Y365D02*
X474Y365D01*
X694Y365D02*
X738Y365D01*
X93Y364D02*
X146Y364D01*
X427Y364D02*
X474Y364D01*
X695Y364D02*
X738Y364D01*
X94Y363D02*
X144Y363D01*
X427Y363D02*
X474Y363D01*
X696Y363D02*
X737Y363D01*
X94Y362D02*
X142Y362D01*
X427Y362D02*
X474Y362D01*
X697Y362D02*
X737Y362D01*
X95Y361D02*
X140Y361D01*
X427Y361D02*
X474Y361D01*
X698Y361D02*
X736Y361D01*
X96Y360D02*
X139Y360D01*
X427Y360D02*
X474Y360D01*
X699Y360D02*
X735Y360D01*
X96Y359D02*
X137Y359D01*
X427Y359D02*
X474Y359D01*
X700Y359D02*
X734Y359D01*
X97Y358D02*
X135Y358D01*
X427Y358D02*
X474Y358D01*
X701Y358D02*
X733Y358D01*
X98Y357D02*
X133Y357D01*
X427Y357D02*
X474Y357D01*
X702Y357D02*
X732Y357D01*
X99Y356D02*
X132Y356D01*
X427Y356D02*
X474Y356D01*
X703Y356D02*
X731Y356D01*
X100Y355D02*
X130Y355D01*
X427Y355D02*
X474Y355D01*
X705Y355D02*
X730Y355D01*
X102Y354D02*
X128Y354D01*
X427Y354D02*
X474Y354D01*
X706Y354D02*
X728Y354D01*
X103Y353D02*
X126Y353D01*
X427Y353D02*
X474Y353D01*
X708Y353D02*
X726Y353D01*
X105Y352D02*
X124Y352D01*
X427Y352D02*
X474Y352D01*
X711Y352D02*
X723Y352D01*
X108Y351D02*
X122Y351D01*
X427Y351D02*
X474Y351D01*
X112Y350D02*
X118Y350D01*
X427Y350D02*
X474Y350D01*
X427Y349D02*
X474Y349D01*
X427Y348D02*
X474Y348D01*
X427Y347D02*
X474Y347D01*
X427Y346D02*
X474Y346D01*
X427Y345D02*
X474Y345D01*
X427Y344D02*
X474Y344D01*
X427Y343D02*
X474Y343D01*
X427Y342D02*
X474Y342D01*
X427Y341D02*
X474Y341D01*
X427Y340D02*
X474Y340D01*
X427Y339D02*
X474Y339D01*
X427Y338D02*
X474Y338D01*
X427Y337D02*
X474Y337D01*
X427Y336D02*
X474Y336D01*
X427Y335D02*
X474Y335D01*
X427Y334D02*
X474Y334D01*
X428Y333D02*
X473Y333D01*
X428Y332D02*
X473Y332D01*
X428Y331D02*
X473Y331D01*
X429Y330D02*
X472Y330D01*
X429Y329D02*
X472Y329D01*
X429Y328D02*
X472Y328D01*
X430Y327D02*
X471Y327D01*
X430Y326D02*
X470Y326D01*
X431Y325D02*
X470Y325D01*
X432Y324D02*
X469Y324D01*
X433Y323D02*
X468Y323D01*
X434Y322D02*
X467Y322D01*
X434Y321D02*
X466Y321D01*
X436Y320D02*
X465Y320D01*
X437Y319D02*
X464Y319D01*
X438Y318D02*
X463Y318D01*
X440Y317D02*
X461Y317D01*
X442Y316D02*
X459Y316D01*
X446Y315D02*
X455Y315D01*
X371Y93D02*
X377Y93D01*
X526Y93D02*
X532Y93D01*
X367Y92D02*
X380Y92D01*
X522Y92D02*
X536Y92D01*
X364Y91D02*
X383Y91D01*
X520Y91D02*
X538Y91D01*
X362Y90D02*
X385Y90D01*
X518Y90D02*
X540Y90D01*
X361Y89D02*
X387Y89D01*
X516Y89D02*
X542Y89D01*
X359Y88D02*
X388Y88D01*
X515Y88D02*
X543Y88D01*
X358Y87D02*
X389Y87D01*
X514Y87D02*
X545Y87D01*
X357Y86D02*
X390Y86D01*
X512Y86D02*
X546Y86D01*
X356Y85D02*
X391Y85D01*
X512Y85D02*
X546Y85D01*
X355Y84D02*
X392Y84D01*
X511Y84D02*
X547Y84D01*
X355Y83D02*
X393Y83D01*
X510Y83D02*
X548Y83D01*
X354Y82D02*
X393Y82D01*
X509Y82D02*
X549Y82D01*
X353Y81D02*
X394Y81D01*
X509Y81D02*
X549Y81D01*
X352Y80D02*
X394Y80D01*
X508Y80D02*
X550Y80D01*
X352Y79D02*
X395Y79D01*
X508Y79D02*
X550Y79D01*
X351Y78D02*
X395Y78D01*
X507Y78D02*
X551Y78D01*
X350Y77D02*
X396Y77D01*
X507Y77D02*
X551Y77D01*
X350Y76D02*
X396Y76D01*
X507Y76D02*
X552Y76D01*
X349Y75D02*
X396Y75D01*
X506Y75D02*
X552Y75D01*
X348Y74D02*
X397Y74D01*
X506Y74D02*
X553Y74D01*
X347Y73D02*
X397Y73D01*
X506Y73D02*
X553Y73D01*
X347Y72D02*
X397Y72D01*
X506Y72D02*
X553Y72D01*
X346Y71D02*
X397Y71D01*
X506Y71D02*
X554Y71D01*
X345Y70D02*
X397Y70D01*
X506Y70D02*
X554Y70D01*
X345Y69D02*
X397Y69D01*
X506Y69D02*
X555Y69D01*
X344Y68D02*
X397Y68D01*
X506Y68D02*
X555Y68D01*
X184Y67D02*
X193Y67D01*
X343Y67D02*
X397Y67D01*
X506Y67D02*
X556Y67D01*
X181Y66D02*
X197Y66D01*
X342Y66D02*
X397Y66D01*
X506Y66D02*
X556Y66D01*
X179Y65D02*
X199Y65D01*
X342Y65D02*
X397Y65D01*
X506Y65D02*
X556Y65D01*
X177Y64D02*
X201Y64D01*
X341Y64D02*
X397Y64D01*
X506Y64D02*
X557Y64D01*
X176Y63D02*
X202Y63D01*
X340Y63D02*
X396Y63D01*
X506Y63D02*
X557Y63D01*
X174Y62D02*
X204Y62D01*
X340Y62D02*
X396Y62D01*
X507Y62D02*
X558Y62D01*
X173Y61D02*
X205Y61D01*
X339Y61D02*
X396Y61D01*
X507Y61D02*
X558Y61D01*
X172Y60D02*
X206Y60D01*
X338Y60D02*
X395Y60D01*
X507Y60D02*
X559Y60D01*
X171Y59D02*
X207Y59D01*
X337Y59D02*
X395Y59D01*
X508Y59D02*
X559Y59D01*
X170Y58D02*
X208Y58D01*
X337Y58D02*
X394Y58D01*
X508Y58D02*
X559Y58D01*
X170Y57D02*
X208Y57D01*
X336Y57D02*
X394Y57D01*
X509Y57D02*
X560Y57D01*
X169Y56D02*
X209Y56D01*
X335Y56D02*
X393Y56D01*
X509Y56D02*
X560Y56D01*
X168Y55D02*
X209Y55D01*
X335Y55D02*
X392Y55D01*
X510Y55D02*
X561Y55D01*
X168Y54D02*
X210Y54D01*
X334Y54D02*
X392Y54D01*
X510Y54D02*
X561Y54D01*
X168Y53D02*
X211Y53D01*
X333Y53D02*
X391Y53D01*
X510Y53D02*
X562Y53D01*
X167Y52D02*
X211Y52D01*
X333Y52D02*
X390Y52D01*
X511Y52D02*
X562Y52D01*
X167Y51D02*
X212Y51D01*
X332Y51D02*
X390Y51D01*
X511Y51D02*
X562Y51D01*
X166Y50D02*
X212Y50D01*
X331Y50D02*
X389Y50D01*
X512Y50D02*
X563Y50D01*
X715Y50D02*
X722Y50D01*
X166Y49D02*
X213Y49D01*
X330Y49D02*
X388Y49D01*
X512Y49D02*
X563Y49D01*
X711Y49D02*
X726Y49D01*
X166Y48D02*
X213Y48D01*
X330Y48D02*
X387Y48D01*
X513Y48D02*
X564Y48D01*
X709Y48D02*
X728Y48D01*
X166Y47D02*
X214Y47D01*
X329Y47D02*
X387Y47D01*
X513Y47D02*
X564Y47D01*
X707Y47D02*
X730Y47D01*
X166Y46D02*
X214Y46D01*
X328Y46D02*
X386Y46D01*
X513Y46D02*
X565Y46D01*
X705Y46D02*
X732Y46D01*
X166Y45D02*
X215Y45D01*
X328Y45D02*
X385Y45D01*
X514Y45D02*
X565Y45D01*
X704Y45D02*
X733Y45D01*
X165Y44D02*
X215Y44D01*
X327Y44D02*
X385Y44D01*
X514Y44D02*
X565Y44D01*
X703Y44D02*
X734Y44D01*
X165Y43D02*
X384Y43D01*
X515Y43D02*
X735Y43D01*
X166Y42D02*
X383Y42D01*
X515Y42D02*
X736Y42D01*
X166Y41D02*
X383Y41D01*
X516Y41D02*
X737Y41D01*
X166Y40D02*
X382Y40D01*
X516Y40D02*
X738Y40D01*
X166Y39D02*
X381Y39D01*
X516Y39D02*
X738Y39D01*
X166Y38D02*
X380Y38D01*
X517Y38D02*
X739Y38D01*
X166Y37D02*
X380Y37D01*
X517Y37D02*
X739Y37D01*
X167Y36D02*
X379Y36D01*
X518Y36D02*
X740Y36D01*
X167Y35D02*
X378Y35D01*
X518Y35D02*
X740Y35D01*
X167Y34D02*
X378Y34D01*
X519Y34D02*
X741Y34D01*
X168Y33D02*
X377Y33D01*
X519Y33D02*
X741Y33D01*
X168Y32D02*
X376Y32D01*
X519Y32D02*
X741Y32D01*
X169Y31D02*
X375Y31D01*
X520Y31D02*
X742Y31D01*
X169Y30D02*
X375Y30D01*
X520Y30D02*
X742Y30D01*
X170Y29D02*
X374Y29D01*
X521Y29D02*
X742Y29D01*
X170Y28D02*
X373Y28D01*
X521Y28D02*
X742Y28D01*
X171Y27D02*
X373Y27D01*
X522Y27D02*
X742Y27D01*
X172Y26D02*
X372Y26D01*
X522Y26D02*
X742Y26D01*
X172Y25D02*
X371Y25D01*
X522Y25D02*
X742Y25D01*
X173Y24D02*
X370Y24D01*
X523Y24D02*
X742Y24D01*
X173Y23D02*
X370Y23D01*
X523Y23D02*
X742Y23D01*
X174Y22D02*
X369Y22D01*
X524Y22D02*
X742Y22D01*
X174Y21D02*
X368Y21D01*
X524Y21D02*
X741Y21D01*
X175Y20D02*
X368Y20D01*
X525Y20D02*
X741Y20D01*
X175Y19D02*
X367Y19D01*
X525Y19D02*
X741Y19D01*
X176Y18D02*
X366Y18D01*
X525Y18D02*
X740Y18D01*
X176Y17D02*
X365Y17D01*
X526Y17D02*
X740Y17D01*
X177Y16D02*
X365Y16D01*
X526Y16D02*
X740Y16D01*
X177Y15D02*
X364Y15D01*
X527Y15D02*
X739Y15D01*
X178Y14D02*
X363Y14D01*
X527Y14D02*
X738Y14D01*
X178Y13D02*
X363Y13D01*
X528Y13D02*
X738Y13D01*
X179Y12D02*
X362Y12D01*
X528Y12D02*
X737Y12D01*
X179Y11D02*
X361Y11D01*
X528Y11D02*
X736Y11D01*
X180Y10D02*
X361Y10D01*
X529Y10D02*
X736Y10D01*
X180Y9D02*
X360Y9D01*
X529Y9D02*
X735Y9D01*
X181Y8D02*
X359Y8D01*
X530Y8D02*
X734Y8D01*
X181Y7D02*
X358Y7D01*
X531Y7D02*
X733Y7D01*
X182Y6D02*
X358Y6D01*
X531Y6D02*
X732Y6D01*
X183Y5D02*
X357Y5D01*
X532Y5D02*
X731Y5D01*
X184Y4D02*
X356Y4D01*
X533Y4D02*
X730Y4D01*
X185Y3D02*
X355Y3D01*
X534Y3D02*
X729Y3D01*
X186Y2D02*
X354Y2D01*
X535Y2D02*
X728Y2D01*
X187Y1D02*
X353Y1D01*
X536Y1D02*
X727Y1D01*
X188Y0D02*
X352Y0D01*
X537Y0D02*
X726Y0D01*
X190Y-1D02*
X350Y-1D01*
X539Y-1D02*
X724Y-1D01*
D02*
G04 End of Copper0*
M02*