G04 MADE WITH FRITZING*
G04 WWW.FRITZING.ORG*
G04 SINGLE SIDED*
G04 HOLES NOT PLATED*
G04 CONTOUR ON CENTER OF CONTOUR VECTOR*
%ASAXBY*%
%FSLAX23Y23*%
%MOIN*%
%OFA0B0*%
%SFA1.0B1.0*%
%ADD10C,0.080000*%
%ADD11C,0.092000*%
%ADD12C,0.085000*%
%ADD13C,0.150000*%
%ADD14C,0.084000*%
%ADD15C,0.090000*%
%ADD16C,0.072992*%
%ADD17C,0.084472*%
%ADD18C,0.088000*%
%ADD19R,0.079972X0.080000*%
%ADD20R,0.092000X0.092000*%
%ADD21R,0.085000X0.085000*%
%ADD22R,0.090000X0.090000*%
%ADD23R,0.072992X0.072992*%
%ADD24R,0.084108X0.084472*%
%LNMASK0*%
G90*
G70*
G54D10*
X682Y934D03*
X682Y1034D03*
X682Y1134D03*
X682Y1234D03*
X682Y1334D03*
X682Y1434D03*
X682Y1534D03*
X682Y1634D03*
X682Y1734D03*
X682Y1834D03*
X682Y1934D03*
X682Y2034D03*
X682Y2134D03*
X682Y2234D03*
X682Y2334D03*
X82Y934D03*
X82Y1034D03*
X82Y1134D03*
X82Y1234D03*
X82Y1334D03*
X82Y1434D03*
X82Y1534D03*
X82Y1634D03*
X82Y1734D03*
X82Y1834D03*
X82Y1934D03*
X82Y2034D03*
X82Y2134D03*
X82Y2234D03*
X82Y2334D03*
G54D11*
X1332Y1909D03*
X1432Y1909D03*
X1532Y1909D03*
X1332Y1534D03*
X1432Y1534D03*
X1532Y1534D03*
X1194Y946D03*
X1094Y946D03*
X994Y946D03*
G54D12*
X1194Y1246D03*
X1194Y1146D03*
X907Y1246D03*
X907Y1146D03*
G54D13*
X1499Y994D03*
X1739Y994D03*
X1619Y1184D03*
G54D14*
X282Y84D03*
X282Y184D03*
X282Y284D03*
X282Y384D03*
X282Y484D03*
X282Y584D03*
G54D15*
X1819Y2046D03*
X1819Y1908D03*
X1819Y1684D03*
X1819Y1546D03*
G54D12*
X1532Y1396D03*
X1132Y1396D03*
X1519Y1784D03*
X1119Y1784D03*
G54D16*
X1082Y1994D03*
X1082Y1896D03*
X1082Y1619D03*
X1082Y1521D03*
G54D17*
X1594Y184D03*
X1694Y184D03*
X1594Y284D03*
X1694Y284D03*
X1594Y385D03*
X1694Y385D03*
X1594Y485D03*
X1694Y485D03*
G54D12*
X907Y584D03*
X1082Y584D03*
X907Y484D03*
X1082Y484D03*
X907Y384D03*
X1082Y384D03*
X909Y271D03*
X1169Y271D03*
X582Y834D03*
X282Y834D03*
X1169Y484D03*
X1469Y484D03*
X1169Y384D03*
X1469Y384D03*
G54D18*
X957Y2359D03*
X1057Y2359D03*
X1157Y2359D03*
X957Y2234D03*
X1057Y2234D03*
X1157Y2234D03*
G54D19*
X682Y934D03*
G54D20*
X1332Y1909D03*
X1332Y1534D03*
X1194Y946D03*
G54D21*
X1194Y1246D03*
X907Y1246D03*
G54D22*
X1819Y2046D03*
X1819Y1684D03*
G54D23*
X1082Y1994D03*
X1082Y1619D03*
G54D24*
X1594Y184D03*
X1594Y485D03*
G04 End of Mask0*
M02*