G04 MADE WITH FRITZING*
G04 WWW.FRITZING.ORG*
G04 SINGLE SIDED*
G04 HOLES NOT PLATED*
G04 CONTOUR ON CENTER OF CONTOUR VECTOR*
%ASAXBY*%
%FSLAX23Y23*%
%MOIN*%
%OFA0B0*%
%SFA1.0B1.0*%
%ADD10C,0.075000*%
%ADD11C,0.070000*%
%ADD12C,0.082000*%
%ADD13C,0.140000*%
%ADD14C,0.074000*%
%ADD15C,0.080000*%
%ADD16C,0.062992*%
%ADD17C,0.074472*%
%ADD18C,0.078000*%
%ADD19R,0.069972X0.070000*%
%ADD20R,0.082000X0.082000*%
%ADD21R,0.075000X0.075000*%
%ADD22R,0.080000X0.080000*%
%ADD23R,0.062992X0.062992*%
%ADD24R,0.074108X0.074472*%
%ADD25C,0.048000*%
%ADD26C,0.032000*%
%ADD27C,0.024000*%
%LNCOPPER0*%
G90*
G70*
G54D10*
X189Y2115D03*
X503Y1233D03*
X1269Y2374D03*
X387Y394D03*
X1280Y464D03*
X1110Y740D03*
X107Y104D03*
G54D11*
X682Y934D03*
X682Y1034D03*
X682Y1134D03*
X682Y1234D03*
X682Y1334D03*
X682Y1434D03*
X682Y1534D03*
X682Y1634D03*
X682Y1734D03*
X682Y1834D03*
X682Y1934D03*
X682Y2034D03*
X682Y2134D03*
X682Y2234D03*
X682Y2334D03*
X82Y934D03*
X82Y1034D03*
X82Y1134D03*
X82Y1234D03*
X82Y1334D03*
X82Y1434D03*
X82Y1534D03*
X82Y1634D03*
X82Y1734D03*
X82Y1834D03*
X82Y1934D03*
X82Y2034D03*
X82Y2134D03*
X82Y2234D03*
X82Y2334D03*
G54D12*
X1332Y1909D03*
X1432Y1909D03*
X1532Y1909D03*
X1332Y1534D03*
X1432Y1534D03*
X1532Y1534D03*
X1194Y946D03*
X1094Y946D03*
X994Y946D03*
G54D10*
X1194Y1246D03*
X1194Y1146D03*
X907Y1246D03*
X907Y1146D03*
G54D13*
X1499Y994D03*
X1739Y994D03*
X1619Y1184D03*
G54D14*
X282Y84D03*
X282Y184D03*
X282Y284D03*
X282Y384D03*
X282Y484D03*
X282Y584D03*
G54D15*
X1819Y2046D03*
X1819Y1908D03*
X1819Y1684D03*
X1819Y1546D03*
G54D10*
X1532Y1396D03*
X1132Y1396D03*
X1519Y1784D03*
X1119Y1784D03*
G54D16*
X1082Y1994D03*
X1082Y1896D03*
X1082Y1619D03*
X1082Y1521D03*
G54D17*
X1594Y184D03*
X1694Y184D03*
X1594Y284D03*
X1694Y284D03*
X1594Y385D03*
X1694Y385D03*
X1594Y485D03*
X1694Y485D03*
G54D10*
X907Y584D03*
X1082Y584D03*
X907Y484D03*
X1082Y484D03*
X907Y384D03*
X1082Y384D03*
X909Y271D03*
X1169Y271D03*
X582Y834D03*
X282Y834D03*
X1169Y484D03*
X1469Y484D03*
X1169Y384D03*
X1469Y384D03*
G54D18*
X957Y2234D03*
X1057Y2234D03*
X1157Y2234D03*
X957Y2359D03*
X1057Y2359D03*
X1157Y2359D03*
G54D19*
X682Y934D03*
G54D20*
X1332Y1909D03*
X1332Y1534D03*
X1194Y946D03*
G54D21*
X1194Y1246D03*
X907Y1246D03*
G54D22*
X1819Y2046D03*
X1819Y1684D03*
G54D23*
X1082Y1994D03*
X1082Y1619D03*
G54D24*
X1594Y184D03*
X1594Y485D03*
G54D25*
X907Y985D02*
X907Y1106D01*
D02*
X955Y964D02*
X907Y985D01*
D02*
X1631Y858D02*
X1542Y950D01*
D02*
X1869Y859D02*
X1631Y858D01*
D02*
X1932Y908D02*
X1869Y859D01*
D02*
X1931Y1597D02*
X1932Y908D01*
D02*
X1861Y1674D02*
X1932Y1658D01*
D02*
X1932Y1658D02*
X1931Y1597D01*
D02*
X1244Y997D02*
X1427Y994D01*
D02*
X1207Y1108D02*
X1244Y997D01*
D02*
X1932Y1696D02*
X1861Y1688D01*
D02*
X1931Y2046D02*
X1932Y1696D01*
D02*
X1862Y2046D02*
X1931Y2046D01*
D02*
X1194Y989D02*
X1194Y1106D01*
D02*
X1092Y1496D02*
X1121Y1423D01*
D02*
X1298Y1560D02*
X1219Y1621D01*
D02*
X1219Y1621D02*
X1120Y1620D01*
D02*
X1291Y1923D02*
X1118Y1982D01*
D02*
X1431Y1596D02*
X1431Y1577D01*
D02*
X1757Y1547D02*
X1645Y1660D01*
D02*
X1645Y1660D02*
X1482Y1660D01*
D02*
X1482Y1660D02*
X1431Y1596D01*
D02*
X1788Y1546D02*
X1757Y1547D01*
D02*
X1758Y1909D02*
X1656Y2032D01*
D02*
X1656Y2032D02*
X1482Y2032D01*
D02*
X1482Y2032D02*
X1431Y1984D01*
D02*
X1431Y1984D02*
X1431Y1941D01*
D02*
X1788Y1909D02*
X1758Y1909D01*
D02*
X1090Y1871D02*
X1110Y1811D01*
D02*
X995Y722D02*
X994Y903D01*
D02*
X995Y247D02*
X995Y722D01*
D02*
X946Y185D02*
X995Y247D01*
D02*
X324Y184D02*
X946Y185D01*
D02*
X82Y233D02*
X132Y184D01*
D02*
X132Y184D02*
X240Y184D01*
D02*
X82Y893D02*
X82Y233D01*
D02*
X806Y1620D02*
X722Y1629D01*
D02*
X1044Y1619D02*
X806Y1620D01*
D02*
X882Y1783D02*
X831Y1733D01*
D02*
X881Y1933D02*
X882Y1783D01*
D02*
X933Y1995D02*
X881Y1933D01*
D02*
X831Y1733D02*
X722Y1733D01*
D02*
X1044Y1995D02*
X933Y1995D01*
G54D26*
D02*
X320Y709D02*
X231Y709D01*
D02*
X231Y709D02*
X193Y671D01*
D02*
X420Y1434D02*
X357Y1371D01*
D02*
X193Y671D02*
X193Y432D01*
D02*
X357Y1371D02*
X357Y759D01*
D02*
X357Y759D02*
X320Y709D01*
D02*
X193Y432D02*
X219Y384D01*
D02*
X219Y384D02*
X251Y384D01*
D02*
X653Y1434D02*
X420Y1434D01*
D02*
X457Y1334D02*
X406Y1283D01*
D02*
X406Y1283D02*
X406Y533D01*
D02*
X653Y1334D02*
X457Y1334D01*
D02*
X406Y533D02*
X370Y483D01*
D02*
X370Y483D02*
X313Y483D01*
G54D25*
D02*
X1145Y96D02*
X1519Y96D01*
D02*
X1694Y134D02*
X1694Y141D01*
D02*
X1082Y158D02*
X1145Y96D01*
D02*
X1670Y96D02*
X1694Y134D01*
D02*
X1519Y96D02*
X1670Y96D01*
D02*
X1082Y344D02*
X1082Y158D01*
D02*
X1157Y597D02*
X1656Y597D01*
D02*
X1694Y559D02*
X1694Y517D01*
D02*
X1656Y597D02*
X1694Y559D01*
D02*
X1121Y590D02*
X1157Y597D01*
D02*
X632Y583D02*
X582Y621D01*
D02*
X878Y583D02*
X632Y583D01*
D02*
X582Y621D02*
X582Y805D01*
D02*
X1141Y484D02*
X1110Y484D01*
D02*
X1563Y485D02*
X1498Y484D01*
D02*
X1469Y455D02*
X1469Y412D01*
D02*
X1169Y300D02*
X1169Y355D01*
G54D26*
D02*
X508Y895D02*
X508Y533D01*
D02*
X544Y483D02*
X878Y483D01*
D02*
X558Y933D02*
X508Y895D01*
D02*
X508Y533D02*
X544Y483D01*
D02*
X653Y933D02*
X558Y933D01*
D02*
X508Y382D02*
X878Y383D01*
D02*
X458Y432D02*
X508Y382D01*
D02*
X458Y995D02*
X458Y432D01*
D02*
X494Y1033D02*
X458Y995D01*
D02*
X653Y1033D02*
X494Y1033D01*
G54D27*
D02*
X126Y1038D02*
X144Y1021D01*
D02*
X182Y282D02*
X251Y283D01*
D02*
X146Y322D02*
X182Y282D01*
D02*
X144Y1021D02*
X146Y322D01*
D02*
X111Y1036D02*
X126Y1038D01*
G54D25*
D02*
X231Y2232D02*
X122Y2233D01*
D02*
X281Y2182D02*
X231Y2232D01*
D02*
X282Y873D02*
X281Y2182D01*
D02*
X711Y2234D02*
X927Y2234D01*
D02*
X722Y2333D02*
X844Y2333D01*
D02*
X844Y2333D02*
X917Y2349D01*
G36*
X110Y2196D02*
X110Y2194D01*
X106Y2194D01*
X106Y2172D01*
X110Y2172D01*
X110Y2170D01*
X112Y2170D01*
X112Y2168D01*
X114Y2168D01*
X114Y2166D01*
X116Y2166D01*
X116Y2164D01*
X118Y2164D01*
X118Y2162D01*
X120Y2162D01*
X120Y2158D01*
X122Y2158D01*
X122Y2156D01*
X124Y2156D01*
X124Y2152D01*
X126Y2152D01*
X126Y2146D01*
X128Y2146D01*
X128Y2122D01*
X126Y2122D01*
X126Y2114D01*
X124Y2114D01*
X124Y2110D01*
X122Y2110D01*
X122Y2108D01*
X120Y2108D01*
X120Y2104D01*
X118Y2104D01*
X118Y2102D01*
X116Y2102D01*
X116Y2100D01*
X114Y2100D01*
X114Y2098D01*
X112Y2098D01*
X112Y2096D01*
X110Y2096D01*
X110Y2094D01*
X106Y2094D01*
X106Y2072D01*
X110Y2072D01*
X110Y2070D01*
X112Y2070D01*
X112Y2068D01*
X114Y2068D01*
X114Y2066D01*
X116Y2066D01*
X116Y2064D01*
X118Y2064D01*
X118Y2062D01*
X120Y2062D01*
X120Y2058D01*
X122Y2058D01*
X122Y2056D01*
X124Y2056D01*
X124Y2052D01*
X126Y2052D01*
X126Y2046D01*
X128Y2046D01*
X128Y2022D01*
X126Y2022D01*
X126Y2014D01*
X124Y2014D01*
X124Y2010D01*
X122Y2010D01*
X122Y2008D01*
X120Y2008D01*
X120Y2004D01*
X118Y2004D01*
X118Y2002D01*
X116Y2002D01*
X116Y2000D01*
X114Y2000D01*
X114Y1998D01*
X112Y1998D01*
X112Y1996D01*
X110Y1996D01*
X110Y1994D01*
X106Y1994D01*
X106Y1972D01*
X110Y1972D01*
X110Y1970D01*
X112Y1970D01*
X112Y1968D01*
X114Y1968D01*
X114Y1966D01*
X116Y1966D01*
X116Y1964D01*
X118Y1964D01*
X118Y1962D01*
X120Y1962D01*
X120Y1958D01*
X122Y1958D01*
X122Y1956D01*
X124Y1956D01*
X124Y1952D01*
X126Y1952D01*
X126Y1946D01*
X128Y1946D01*
X128Y1922D01*
X126Y1922D01*
X126Y1914D01*
X124Y1914D01*
X124Y1910D01*
X122Y1910D01*
X122Y1908D01*
X120Y1908D01*
X120Y1904D01*
X118Y1904D01*
X118Y1902D01*
X116Y1902D01*
X116Y1900D01*
X114Y1900D01*
X114Y1898D01*
X112Y1898D01*
X112Y1896D01*
X110Y1896D01*
X110Y1894D01*
X106Y1894D01*
X106Y1872D01*
X110Y1872D01*
X110Y1870D01*
X112Y1870D01*
X112Y1868D01*
X114Y1868D01*
X114Y1866D01*
X116Y1866D01*
X116Y1864D01*
X118Y1864D01*
X118Y1862D01*
X120Y1862D01*
X120Y1858D01*
X122Y1858D01*
X122Y1856D01*
X124Y1856D01*
X124Y1852D01*
X126Y1852D01*
X126Y1846D01*
X128Y1846D01*
X128Y1822D01*
X126Y1822D01*
X126Y1814D01*
X124Y1814D01*
X124Y1810D01*
X122Y1810D01*
X122Y1808D01*
X120Y1808D01*
X120Y1804D01*
X118Y1804D01*
X118Y1802D01*
X116Y1802D01*
X116Y1800D01*
X114Y1800D01*
X114Y1798D01*
X112Y1798D01*
X112Y1796D01*
X110Y1796D01*
X110Y1794D01*
X106Y1794D01*
X106Y1772D01*
X110Y1772D01*
X110Y1770D01*
X112Y1770D01*
X112Y1768D01*
X114Y1768D01*
X114Y1766D01*
X116Y1766D01*
X116Y1764D01*
X118Y1764D01*
X118Y1762D01*
X120Y1762D01*
X120Y1758D01*
X122Y1758D01*
X122Y1756D01*
X124Y1756D01*
X124Y1752D01*
X126Y1752D01*
X126Y1746D01*
X128Y1746D01*
X128Y1722D01*
X126Y1722D01*
X126Y1714D01*
X124Y1714D01*
X124Y1710D01*
X122Y1710D01*
X122Y1708D01*
X120Y1708D01*
X120Y1704D01*
X118Y1704D01*
X118Y1702D01*
X116Y1702D01*
X116Y1700D01*
X114Y1700D01*
X114Y1698D01*
X112Y1698D01*
X112Y1696D01*
X110Y1696D01*
X110Y1694D01*
X106Y1694D01*
X106Y1672D01*
X110Y1672D01*
X110Y1670D01*
X112Y1670D01*
X112Y1668D01*
X114Y1668D01*
X114Y1666D01*
X116Y1666D01*
X116Y1664D01*
X118Y1664D01*
X118Y1662D01*
X120Y1662D01*
X120Y1658D01*
X122Y1658D01*
X122Y1656D01*
X124Y1656D01*
X124Y1652D01*
X126Y1652D01*
X126Y1646D01*
X128Y1646D01*
X128Y1622D01*
X126Y1622D01*
X126Y1614D01*
X124Y1614D01*
X124Y1610D01*
X122Y1610D01*
X122Y1608D01*
X120Y1608D01*
X120Y1604D01*
X118Y1604D01*
X118Y1602D01*
X116Y1602D01*
X116Y1600D01*
X114Y1600D01*
X114Y1598D01*
X112Y1598D01*
X112Y1596D01*
X110Y1596D01*
X110Y1594D01*
X106Y1594D01*
X106Y1572D01*
X110Y1572D01*
X110Y1570D01*
X112Y1570D01*
X112Y1568D01*
X114Y1568D01*
X114Y1566D01*
X116Y1566D01*
X116Y1564D01*
X118Y1564D01*
X118Y1562D01*
X120Y1562D01*
X120Y1558D01*
X122Y1558D01*
X122Y1556D01*
X124Y1556D01*
X124Y1552D01*
X126Y1552D01*
X126Y1546D01*
X128Y1546D01*
X128Y1522D01*
X126Y1522D01*
X126Y1514D01*
X124Y1514D01*
X124Y1510D01*
X122Y1510D01*
X122Y1508D01*
X120Y1508D01*
X120Y1504D01*
X118Y1504D01*
X118Y1502D01*
X116Y1502D01*
X116Y1500D01*
X114Y1500D01*
X114Y1498D01*
X112Y1498D01*
X112Y1496D01*
X110Y1496D01*
X110Y1494D01*
X106Y1494D01*
X106Y1472D01*
X110Y1472D01*
X110Y1470D01*
X112Y1470D01*
X112Y1468D01*
X114Y1468D01*
X114Y1466D01*
X116Y1466D01*
X116Y1464D01*
X118Y1464D01*
X118Y1462D01*
X120Y1462D01*
X120Y1458D01*
X122Y1458D01*
X122Y1456D01*
X124Y1456D01*
X124Y1452D01*
X126Y1452D01*
X126Y1446D01*
X128Y1446D01*
X128Y1422D01*
X126Y1422D01*
X126Y1414D01*
X124Y1414D01*
X124Y1410D01*
X122Y1410D01*
X122Y1408D01*
X120Y1408D01*
X120Y1404D01*
X118Y1404D01*
X118Y1402D01*
X116Y1402D01*
X116Y1400D01*
X114Y1400D01*
X114Y1398D01*
X112Y1398D01*
X112Y1396D01*
X110Y1396D01*
X110Y1394D01*
X106Y1394D01*
X106Y1372D01*
X110Y1372D01*
X110Y1370D01*
X112Y1370D01*
X112Y1368D01*
X114Y1368D01*
X114Y1366D01*
X116Y1366D01*
X116Y1364D01*
X118Y1364D01*
X118Y1362D01*
X120Y1362D01*
X120Y1358D01*
X122Y1358D01*
X122Y1356D01*
X124Y1356D01*
X124Y1352D01*
X126Y1352D01*
X126Y1346D01*
X128Y1346D01*
X128Y1322D01*
X126Y1322D01*
X126Y1314D01*
X124Y1314D01*
X124Y1310D01*
X122Y1310D01*
X122Y1308D01*
X120Y1308D01*
X120Y1304D01*
X118Y1304D01*
X118Y1302D01*
X116Y1302D01*
X116Y1300D01*
X114Y1300D01*
X114Y1298D01*
X112Y1298D01*
X112Y1296D01*
X110Y1296D01*
X110Y1294D01*
X106Y1294D01*
X106Y1272D01*
X110Y1272D01*
X110Y1270D01*
X112Y1270D01*
X112Y1268D01*
X114Y1268D01*
X114Y1266D01*
X116Y1266D01*
X116Y1264D01*
X118Y1264D01*
X118Y1262D01*
X120Y1262D01*
X120Y1258D01*
X122Y1258D01*
X122Y1256D01*
X124Y1256D01*
X124Y1252D01*
X126Y1252D01*
X126Y1246D01*
X128Y1246D01*
X128Y1222D01*
X126Y1222D01*
X126Y1214D01*
X124Y1214D01*
X124Y1210D01*
X122Y1210D01*
X122Y1208D01*
X120Y1208D01*
X120Y1204D01*
X118Y1204D01*
X118Y1202D01*
X116Y1202D01*
X116Y1200D01*
X114Y1200D01*
X114Y1198D01*
X112Y1198D01*
X112Y1196D01*
X110Y1196D01*
X110Y1194D01*
X106Y1194D01*
X106Y1172D01*
X110Y1172D01*
X110Y1170D01*
X112Y1170D01*
X112Y1168D01*
X114Y1168D01*
X114Y1166D01*
X116Y1166D01*
X116Y1164D01*
X118Y1164D01*
X118Y1162D01*
X120Y1162D01*
X120Y1158D01*
X122Y1158D01*
X122Y1156D01*
X124Y1156D01*
X124Y1152D01*
X126Y1152D01*
X126Y1146D01*
X128Y1146D01*
X128Y1122D01*
X126Y1122D01*
X126Y1114D01*
X124Y1114D01*
X124Y1110D01*
X122Y1110D01*
X122Y1108D01*
X120Y1108D01*
X120Y1104D01*
X118Y1104D01*
X118Y1102D01*
X116Y1102D01*
X116Y1100D01*
X114Y1100D01*
X114Y1098D01*
X112Y1098D01*
X112Y1096D01*
X110Y1096D01*
X110Y1094D01*
X106Y1094D01*
X106Y1072D01*
X110Y1072D01*
X110Y1070D01*
X112Y1070D01*
X112Y1068D01*
X114Y1068D01*
X114Y1066D01*
X116Y1066D01*
X116Y1064D01*
X118Y1064D01*
X118Y1062D01*
X120Y1062D01*
X120Y1058D01*
X122Y1058D01*
X122Y1056D01*
X124Y1056D01*
X124Y1052D01*
X126Y1052D01*
X126Y1046D01*
X128Y1046D01*
X128Y1022D01*
X126Y1022D01*
X126Y1014D01*
X124Y1014D01*
X124Y1010D01*
X122Y1010D01*
X122Y1008D01*
X120Y1008D01*
X120Y1004D01*
X118Y1004D01*
X118Y1002D01*
X116Y1002D01*
X116Y1000D01*
X114Y1000D01*
X114Y998D01*
X112Y998D01*
X112Y996D01*
X110Y996D01*
X110Y994D01*
X106Y994D01*
X106Y972D01*
X110Y972D01*
X110Y970D01*
X112Y970D01*
X112Y968D01*
X114Y968D01*
X114Y966D01*
X116Y966D01*
X116Y964D01*
X118Y964D01*
X118Y962D01*
X120Y962D01*
X120Y958D01*
X122Y958D01*
X122Y956D01*
X124Y956D01*
X124Y952D01*
X126Y952D01*
X126Y946D01*
X128Y946D01*
X128Y922D01*
X126Y922D01*
X126Y914D01*
X124Y914D01*
X124Y910D01*
X122Y910D01*
X122Y908D01*
X120Y908D01*
X120Y904D01*
X118Y904D01*
X118Y784D01*
X270Y784D01*
X270Y786D01*
X264Y786D01*
X264Y788D01*
X260Y788D01*
X260Y790D01*
X256Y790D01*
X256Y792D01*
X254Y792D01*
X254Y794D01*
X250Y794D01*
X250Y796D01*
X248Y796D01*
X248Y798D01*
X246Y798D01*
X246Y800D01*
X244Y800D01*
X244Y802D01*
X242Y802D01*
X242Y806D01*
X240Y806D01*
X240Y808D01*
X238Y808D01*
X238Y812D01*
X236Y812D01*
X236Y818D01*
X234Y818D01*
X234Y826D01*
X232Y826D01*
X232Y840D01*
X234Y840D01*
X234Y848D01*
X236Y848D01*
X236Y854D01*
X238Y854D01*
X238Y858D01*
X240Y858D01*
X240Y860D01*
X242Y860D01*
X242Y864D01*
X244Y864D01*
X244Y866D01*
X246Y866D01*
X246Y2168D01*
X244Y2168D01*
X244Y2170D01*
X242Y2170D01*
X242Y2172D01*
X240Y2172D01*
X240Y2174D01*
X238Y2174D01*
X238Y2176D01*
X236Y2176D01*
X236Y2178D01*
X234Y2178D01*
X234Y2180D01*
X232Y2180D01*
X232Y2182D01*
X230Y2182D01*
X230Y2184D01*
X228Y2184D01*
X228Y2186D01*
X226Y2186D01*
X226Y2188D01*
X224Y2188D01*
X224Y2190D01*
X222Y2190D01*
X222Y2192D01*
X220Y2192D01*
X220Y2194D01*
X218Y2194D01*
X218Y2196D01*
X110Y2196D01*
G37*
D02*
G36*
X308Y792D02*
X308Y790D01*
X304Y790D01*
X304Y788D01*
X300Y788D01*
X300Y786D01*
X292Y786D01*
X292Y784D01*
X328Y784D01*
X328Y792D01*
X308Y792D01*
G37*
D02*
G36*
X118Y784D02*
X118Y782D01*
X328Y782D01*
X328Y784D01*
X118Y784D01*
G37*
D02*
G36*
X118Y784D02*
X118Y782D01*
X328Y782D01*
X328Y784D01*
X118Y784D01*
G37*
D02*
G36*
X118Y782D02*
X118Y246D01*
X120Y246D01*
X120Y244D01*
X122Y244D01*
X122Y242D01*
X126Y242D01*
X126Y240D01*
X128Y240D01*
X128Y238D01*
X130Y238D01*
X130Y236D01*
X132Y236D01*
X132Y234D01*
X134Y234D01*
X134Y232D01*
X136Y232D01*
X136Y230D01*
X138Y230D01*
X138Y228D01*
X140Y228D01*
X140Y226D01*
X142Y226D01*
X142Y224D01*
X144Y224D01*
X144Y222D01*
X146Y222D01*
X146Y220D01*
X252Y220D01*
X252Y222D01*
X254Y222D01*
X254Y244D01*
X252Y244D01*
X252Y246D01*
X248Y246D01*
X248Y248D01*
X246Y248D01*
X246Y252D01*
X244Y252D01*
X244Y254D01*
X242Y254D01*
X242Y256D01*
X240Y256D01*
X240Y260D01*
X238Y260D01*
X238Y264D01*
X236Y264D01*
X236Y270D01*
X234Y270D01*
X234Y280D01*
X232Y280D01*
X232Y286D01*
X234Y286D01*
X234Y296D01*
X236Y296D01*
X236Y302D01*
X238Y302D01*
X238Y306D01*
X240Y306D01*
X240Y310D01*
X242Y310D01*
X242Y312D01*
X244Y312D01*
X244Y316D01*
X246Y316D01*
X246Y318D01*
X248Y318D01*
X248Y320D01*
X252Y320D01*
X252Y322D01*
X254Y322D01*
X254Y344D01*
X252Y344D01*
X252Y346D01*
X248Y346D01*
X248Y348D01*
X246Y348D01*
X246Y352D01*
X244Y352D01*
X244Y354D01*
X242Y354D01*
X242Y356D01*
X210Y356D01*
X210Y358D01*
X206Y358D01*
X206Y360D01*
X202Y360D01*
X202Y362D01*
X200Y362D01*
X200Y364D01*
X198Y364D01*
X198Y366D01*
X196Y366D01*
X196Y370D01*
X194Y370D01*
X194Y372D01*
X192Y372D01*
X192Y376D01*
X190Y376D01*
X190Y380D01*
X188Y380D01*
X188Y384D01*
X186Y384D01*
X186Y388D01*
X184Y388D01*
X184Y392D01*
X182Y392D01*
X182Y396D01*
X180Y396D01*
X180Y400D01*
X178Y400D01*
X178Y402D01*
X176Y402D01*
X176Y406D01*
X174Y406D01*
X174Y410D01*
X172Y410D01*
X172Y414D01*
X170Y414D01*
X170Y418D01*
X168Y418D01*
X168Y422D01*
X166Y422D01*
X166Y680D01*
X168Y680D01*
X168Y684D01*
X170Y684D01*
X170Y688D01*
X172Y688D01*
X172Y690D01*
X174Y690D01*
X174Y692D01*
X176Y692D01*
X176Y694D01*
X178Y694D01*
X178Y696D01*
X180Y696D01*
X180Y698D01*
X182Y698D01*
X182Y700D01*
X184Y700D01*
X184Y702D01*
X186Y702D01*
X186Y704D01*
X188Y704D01*
X188Y706D01*
X190Y706D01*
X190Y708D01*
X192Y708D01*
X192Y710D01*
X194Y710D01*
X194Y712D01*
X196Y712D01*
X196Y714D01*
X198Y714D01*
X198Y716D01*
X200Y716D01*
X200Y718D01*
X202Y718D01*
X202Y720D01*
X204Y720D01*
X204Y722D01*
X206Y722D01*
X206Y724D01*
X208Y724D01*
X208Y726D01*
X210Y726D01*
X210Y728D01*
X212Y728D01*
X212Y730D01*
X214Y730D01*
X214Y732D01*
X218Y732D01*
X218Y734D01*
X222Y734D01*
X222Y736D01*
X306Y736D01*
X306Y738D01*
X308Y738D01*
X308Y742D01*
X310Y742D01*
X310Y744D01*
X312Y744D01*
X312Y746D01*
X314Y746D01*
X314Y750D01*
X316Y750D01*
X316Y752D01*
X318Y752D01*
X318Y754D01*
X320Y754D01*
X320Y758D01*
X322Y758D01*
X322Y760D01*
X324Y760D01*
X324Y764D01*
X326Y764D01*
X326Y766D01*
X328Y766D01*
X328Y782D01*
X118Y782D01*
G37*
D02*
G36*
X430Y1406D02*
X430Y1404D01*
X428Y1404D01*
X428Y1402D01*
X426Y1402D01*
X426Y1400D01*
X424Y1400D01*
X424Y1398D01*
X422Y1398D01*
X422Y1396D01*
X420Y1396D01*
X420Y1394D01*
X418Y1394D01*
X418Y1392D01*
X416Y1392D01*
X416Y1390D01*
X414Y1390D01*
X414Y1388D01*
X412Y1388D01*
X412Y1386D01*
X410Y1386D01*
X410Y1384D01*
X408Y1384D01*
X408Y1382D01*
X406Y1382D01*
X406Y1380D01*
X404Y1380D01*
X404Y1378D01*
X402Y1378D01*
X402Y1376D01*
X400Y1376D01*
X400Y1374D01*
X398Y1374D01*
X398Y1372D01*
X396Y1372D01*
X396Y1370D01*
X394Y1370D01*
X394Y1368D01*
X392Y1368D01*
X392Y1366D01*
X390Y1366D01*
X390Y1364D01*
X388Y1364D01*
X388Y1362D01*
X386Y1362D01*
X386Y1360D01*
X384Y1360D01*
X384Y1318D01*
X404Y1318D01*
X404Y1320D01*
X406Y1320D01*
X406Y1322D01*
X408Y1322D01*
X408Y1324D01*
X410Y1324D01*
X410Y1326D01*
X412Y1326D01*
X412Y1328D01*
X414Y1328D01*
X414Y1330D01*
X416Y1330D01*
X416Y1332D01*
X418Y1332D01*
X418Y1334D01*
X420Y1334D01*
X420Y1336D01*
X422Y1336D01*
X422Y1338D01*
X424Y1338D01*
X424Y1340D01*
X426Y1340D01*
X426Y1342D01*
X428Y1342D01*
X428Y1344D01*
X430Y1344D01*
X430Y1346D01*
X432Y1346D01*
X432Y1348D01*
X434Y1348D01*
X434Y1350D01*
X436Y1350D01*
X436Y1352D01*
X438Y1352D01*
X438Y1354D01*
X440Y1354D01*
X440Y1356D01*
X442Y1356D01*
X442Y1358D01*
X446Y1358D01*
X446Y1360D01*
X456Y1360D01*
X456Y1362D01*
X646Y1362D01*
X646Y1364D01*
X648Y1364D01*
X648Y1366D01*
X650Y1366D01*
X650Y1368D01*
X652Y1368D01*
X652Y1370D01*
X654Y1370D01*
X654Y1372D01*
X658Y1372D01*
X658Y1394D01*
X654Y1394D01*
X654Y1396D01*
X652Y1396D01*
X652Y1398D01*
X650Y1398D01*
X650Y1400D01*
X648Y1400D01*
X648Y1402D01*
X646Y1402D01*
X646Y1404D01*
X644Y1404D01*
X644Y1406D01*
X430Y1406D01*
G37*
D02*
G36*
X468Y1306D02*
X468Y1304D01*
X466Y1304D01*
X466Y1302D01*
X464Y1302D01*
X464Y1300D01*
X462Y1300D01*
X462Y1298D01*
X460Y1298D01*
X460Y1296D01*
X458Y1296D01*
X458Y1294D01*
X456Y1294D01*
X456Y1292D01*
X454Y1292D01*
X454Y1290D01*
X452Y1290D01*
X452Y1288D01*
X450Y1288D01*
X450Y1286D01*
X448Y1286D01*
X448Y1284D01*
X446Y1284D01*
X446Y1282D01*
X444Y1282D01*
X444Y1280D01*
X442Y1280D01*
X442Y1278D01*
X440Y1278D01*
X440Y1276D01*
X438Y1276D01*
X438Y1274D01*
X436Y1274D01*
X436Y1272D01*
X434Y1272D01*
X434Y1030D01*
X454Y1030D01*
X454Y1032D01*
X456Y1032D01*
X456Y1034D01*
X458Y1034D01*
X458Y1036D01*
X460Y1036D01*
X460Y1040D01*
X462Y1040D01*
X462Y1042D01*
X464Y1042D01*
X464Y1044D01*
X466Y1044D01*
X466Y1046D01*
X468Y1046D01*
X468Y1048D01*
X470Y1048D01*
X470Y1050D01*
X472Y1050D01*
X472Y1052D01*
X474Y1052D01*
X474Y1054D01*
X476Y1054D01*
X476Y1056D01*
X480Y1056D01*
X480Y1058D01*
X484Y1058D01*
X484Y1060D01*
X600Y1060D01*
X600Y1062D01*
X646Y1062D01*
X646Y1064D01*
X648Y1064D01*
X648Y1066D01*
X650Y1066D01*
X650Y1068D01*
X652Y1068D01*
X652Y1070D01*
X654Y1070D01*
X654Y1072D01*
X658Y1072D01*
X658Y1094D01*
X654Y1094D01*
X654Y1096D01*
X652Y1096D01*
X652Y1098D01*
X650Y1098D01*
X650Y1100D01*
X648Y1100D01*
X648Y1102D01*
X646Y1102D01*
X646Y1104D01*
X644Y1104D01*
X644Y1106D01*
X642Y1106D01*
X642Y1110D01*
X640Y1110D01*
X640Y1114D01*
X638Y1114D01*
X638Y1120D01*
X636Y1120D01*
X636Y1130D01*
X634Y1130D01*
X634Y1136D01*
X636Y1136D01*
X636Y1146D01*
X638Y1146D01*
X638Y1152D01*
X640Y1152D01*
X640Y1156D01*
X642Y1156D01*
X642Y1160D01*
X644Y1160D01*
X644Y1162D01*
X646Y1162D01*
X646Y1164D01*
X648Y1164D01*
X648Y1166D01*
X650Y1166D01*
X650Y1168D01*
X652Y1168D01*
X652Y1170D01*
X654Y1170D01*
X654Y1172D01*
X658Y1172D01*
X658Y1194D01*
X654Y1194D01*
X654Y1196D01*
X652Y1196D01*
X652Y1198D01*
X650Y1198D01*
X650Y1200D01*
X648Y1200D01*
X648Y1202D01*
X646Y1202D01*
X646Y1204D01*
X644Y1204D01*
X644Y1206D01*
X642Y1206D01*
X642Y1210D01*
X640Y1210D01*
X640Y1214D01*
X638Y1214D01*
X638Y1220D01*
X636Y1220D01*
X636Y1230D01*
X634Y1230D01*
X634Y1236D01*
X636Y1236D01*
X636Y1246D01*
X638Y1246D01*
X638Y1252D01*
X640Y1252D01*
X640Y1256D01*
X642Y1256D01*
X642Y1260D01*
X644Y1260D01*
X644Y1262D01*
X646Y1262D01*
X646Y1264D01*
X648Y1264D01*
X648Y1266D01*
X650Y1266D01*
X650Y1268D01*
X652Y1268D01*
X652Y1270D01*
X654Y1270D01*
X654Y1272D01*
X658Y1272D01*
X658Y1294D01*
X654Y1294D01*
X654Y1296D01*
X652Y1296D01*
X652Y1298D01*
X650Y1298D01*
X650Y1300D01*
X648Y1300D01*
X648Y1302D01*
X646Y1302D01*
X646Y1304D01*
X644Y1304D01*
X644Y1306D01*
X468Y1306D01*
G37*
D02*
G36*
X608Y1006D02*
X608Y1004D01*
X504Y1004D01*
X504Y1002D01*
X502Y1002D01*
X502Y1000D01*
X500Y1000D01*
X500Y998D01*
X498Y998D01*
X498Y996D01*
X496Y996D01*
X496Y994D01*
X494Y994D01*
X494Y992D01*
X492Y992D01*
X492Y990D01*
X490Y990D01*
X490Y988D01*
X488Y988D01*
X488Y984D01*
X486Y984D01*
X486Y928D01*
X506Y928D01*
X506Y930D01*
X510Y930D01*
X510Y932D01*
X512Y932D01*
X512Y934D01*
X514Y934D01*
X514Y936D01*
X518Y936D01*
X518Y938D01*
X520Y938D01*
X520Y940D01*
X522Y940D01*
X522Y942D01*
X526Y942D01*
X526Y944D01*
X528Y944D01*
X528Y946D01*
X530Y946D01*
X530Y948D01*
X534Y948D01*
X534Y950D01*
X536Y950D01*
X536Y952D01*
X538Y952D01*
X538Y954D01*
X542Y954D01*
X542Y956D01*
X544Y956D01*
X544Y958D01*
X548Y958D01*
X548Y960D01*
X634Y960D01*
X634Y980D01*
X650Y980D01*
X650Y1000D01*
X648Y1000D01*
X648Y1002D01*
X646Y1002D01*
X646Y1004D01*
X644Y1004D01*
X644Y1006D01*
X608Y1006D01*
G37*
D02*
G36*
X40Y2430D02*
X40Y2410D01*
X1158Y2410D01*
X1158Y2408D01*
X1170Y2408D01*
X1170Y2406D01*
X1176Y2406D01*
X1176Y2404D01*
X1180Y2404D01*
X1180Y2402D01*
X1184Y2402D01*
X1184Y2400D01*
X1186Y2400D01*
X1186Y2398D01*
X1190Y2398D01*
X1190Y2396D01*
X1192Y2396D01*
X1192Y2394D01*
X1194Y2394D01*
X1194Y2392D01*
X1196Y2392D01*
X1196Y2390D01*
X1198Y2390D01*
X1198Y2386D01*
X1200Y2386D01*
X1200Y2382D01*
X1202Y2382D01*
X1202Y2380D01*
X1204Y2380D01*
X1204Y2374D01*
X1206Y2374D01*
X1206Y2366D01*
X1208Y2366D01*
X1208Y2350D01*
X1206Y2350D01*
X1206Y2342D01*
X1204Y2342D01*
X1204Y2336D01*
X1202Y2336D01*
X1202Y2334D01*
X1200Y2334D01*
X1200Y2330D01*
X1198Y2330D01*
X1198Y2328D01*
X1196Y2328D01*
X1196Y2324D01*
X1194Y2324D01*
X1194Y2322D01*
X1192Y2322D01*
X1192Y2320D01*
X1190Y2320D01*
X1190Y2318D01*
X1186Y2318D01*
X1186Y2316D01*
X1184Y2316D01*
X1184Y2314D01*
X1180Y2314D01*
X1180Y2312D01*
X1176Y2312D01*
X1176Y2310D01*
X1170Y2310D01*
X1170Y2308D01*
X1960Y2308D01*
X1960Y2430D01*
X40Y2430D01*
G37*
D02*
G36*
X40Y2410D02*
X40Y2380D01*
X692Y2380D01*
X692Y2378D01*
X698Y2378D01*
X698Y2376D01*
X702Y2376D01*
X702Y2374D01*
X706Y2374D01*
X706Y2372D01*
X710Y2372D01*
X710Y2370D01*
X712Y2370D01*
X712Y2368D01*
X842Y2368D01*
X842Y2370D01*
X850Y2370D01*
X850Y2372D01*
X860Y2372D01*
X860Y2374D01*
X868Y2374D01*
X868Y2376D01*
X878Y2376D01*
X878Y2378D01*
X886Y2378D01*
X886Y2380D01*
X894Y2380D01*
X894Y2382D01*
X904Y2382D01*
X904Y2384D01*
X914Y2384D01*
X914Y2388D01*
X916Y2388D01*
X916Y2390D01*
X918Y2390D01*
X918Y2392D01*
X920Y2392D01*
X920Y2394D01*
X922Y2394D01*
X922Y2396D01*
X924Y2396D01*
X924Y2398D01*
X926Y2398D01*
X926Y2400D01*
X930Y2400D01*
X930Y2402D01*
X934Y2402D01*
X934Y2404D01*
X936Y2404D01*
X936Y2406D01*
X942Y2406D01*
X942Y2408D01*
X956Y2408D01*
X956Y2410D01*
X40Y2410D01*
G37*
D02*
G36*
X958Y2410D02*
X958Y2408D01*
X970Y2408D01*
X970Y2406D01*
X976Y2406D01*
X976Y2404D01*
X980Y2404D01*
X980Y2402D01*
X984Y2402D01*
X984Y2400D01*
X986Y2400D01*
X986Y2398D01*
X990Y2398D01*
X990Y2396D01*
X992Y2396D01*
X992Y2394D01*
X994Y2394D01*
X994Y2392D01*
X996Y2392D01*
X996Y2390D01*
X1018Y2390D01*
X1018Y2392D01*
X1020Y2392D01*
X1020Y2394D01*
X1022Y2394D01*
X1022Y2396D01*
X1024Y2396D01*
X1024Y2398D01*
X1026Y2398D01*
X1026Y2400D01*
X1030Y2400D01*
X1030Y2402D01*
X1034Y2402D01*
X1034Y2404D01*
X1036Y2404D01*
X1036Y2406D01*
X1042Y2406D01*
X1042Y2408D01*
X1056Y2408D01*
X1056Y2410D01*
X958Y2410D01*
G37*
D02*
G36*
X1058Y2410D02*
X1058Y2408D01*
X1070Y2408D01*
X1070Y2406D01*
X1076Y2406D01*
X1076Y2404D01*
X1080Y2404D01*
X1080Y2402D01*
X1084Y2402D01*
X1084Y2400D01*
X1086Y2400D01*
X1086Y2398D01*
X1090Y2398D01*
X1090Y2396D01*
X1092Y2396D01*
X1092Y2394D01*
X1094Y2394D01*
X1094Y2392D01*
X1096Y2392D01*
X1096Y2390D01*
X1118Y2390D01*
X1118Y2392D01*
X1120Y2392D01*
X1120Y2394D01*
X1122Y2394D01*
X1122Y2396D01*
X1124Y2396D01*
X1124Y2398D01*
X1126Y2398D01*
X1126Y2400D01*
X1130Y2400D01*
X1130Y2402D01*
X1134Y2402D01*
X1134Y2404D01*
X1136Y2404D01*
X1136Y2406D01*
X1142Y2406D01*
X1142Y2408D01*
X1156Y2408D01*
X1156Y2410D01*
X1058Y2410D01*
G37*
D02*
G36*
X40Y2380D02*
X40Y2374D01*
X62Y2374D01*
X62Y2376D01*
X66Y2376D01*
X66Y2378D01*
X72Y2378D01*
X72Y2380D01*
X40Y2380D01*
G37*
D02*
G36*
X92Y2380D02*
X92Y2378D01*
X98Y2378D01*
X98Y2376D01*
X102Y2376D01*
X102Y2374D01*
X106Y2374D01*
X106Y2372D01*
X110Y2372D01*
X110Y2370D01*
X112Y2370D01*
X112Y2368D01*
X114Y2368D01*
X114Y2366D01*
X116Y2366D01*
X116Y2364D01*
X118Y2364D01*
X118Y2362D01*
X120Y2362D01*
X120Y2358D01*
X122Y2358D01*
X122Y2356D01*
X124Y2356D01*
X124Y2352D01*
X126Y2352D01*
X126Y2346D01*
X128Y2346D01*
X128Y2322D01*
X126Y2322D01*
X126Y2314D01*
X124Y2314D01*
X124Y2310D01*
X122Y2310D01*
X122Y2308D01*
X120Y2308D01*
X120Y2304D01*
X118Y2304D01*
X118Y2302D01*
X116Y2302D01*
X116Y2300D01*
X114Y2300D01*
X114Y2298D01*
X112Y2298D01*
X112Y2296D01*
X110Y2296D01*
X110Y2294D01*
X106Y2294D01*
X106Y2272D01*
X110Y2272D01*
X110Y2270D01*
X112Y2270D01*
X112Y2268D01*
X238Y2268D01*
X238Y2266D01*
X244Y2266D01*
X244Y2264D01*
X248Y2264D01*
X248Y2262D01*
X252Y2262D01*
X252Y2260D01*
X254Y2260D01*
X254Y2258D01*
X256Y2258D01*
X256Y2256D01*
X258Y2256D01*
X258Y2254D01*
X260Y2254D01*
X260Y2252D01*
X262Y2252D01*
X262Y2250D01*
X264Y2250D01*
X264Y2248D01*
X266Y2248D01*
X266Y2246D01*
X268Y2246D01*
X268Y2244D01*
X270Y2244D01*
X270Y2242D01*
X272Y2242D01*
X272Y2240D01*
X274Y2240D01*
X274Y2238D01*
X276Y2238D01*
X276Y2236D01*
X278Y2236D01*
X278Y2234D01*
X280Y2234D01*
X280Y2232D01*
X282Y2232D01*
X282Y2230D01*
X284Y2230D01*
X284Y2228D01*
X286Y2228D01*
X286Y2226D01*
X288Y2226D01*
X288Y2224D01*
X290Y2224D01*
X290Y2222D01*
X292Y2222D01*
X292Y2220D01*
X294Y2220D01*
X294Y2218D01*
X296Y2218D01*
X296Y2216D01*
X298Y2216D01*
X298Y2214D01*
X300Y2214D01*
X300Y2212D01*
X302Y2212D01*
X302Y2210D01*
X304Y2210D01*
X304Y2208D01*
X306Y2208D01*
X306Y2206D01*
X308Y2206D01*
X308Y2204D01*
X310Y2204D01*
X310Y2202D01*
X312Y2202D01*
X312Y2198D01*
X314Y2198D01*
X314Y2194D01*
X316Y2194D01*
X316Y2184D01*
X318Y2184D01*
X318Y1390D01*
X338Y1390D01*
X338Y1392D01*
X340Y1392D01*
X340Y1394D01*
X342Y1394D01*
X342Y1396D01*
X344Y1396D01*
X344Y1398D01*
X346Y1398D01*
X346Y1400D01*
X348Y1400D01*
X348Y1402D01*
X350Y1402D01*
X350Y1404D01*
X352Y1404D01*
X352Y1406D01*
X354Y1406D01*
X354Y1408D01*
X356Y1408D01*
X356Y1410D01*
X358Y1410D01*
X358Y1412D01*
X360Y1412D01*
X360Y1414D01*
X362Y1414D01*
X362Y1416D01*
X364Y1416D01*
X364Y1418D01*
X366Y1418D01*
X366Y1420D01*
X368Y1420D01*
X368Y1422D01*
X370Y1422D01*
X370Y1424D01*
X372Y1424D01*
X372Y1426D01*
X374Y1426D01*
X374Y1428D01*
X376Y1428D01*
X376Y1430D01*
X378Y1430D01*
X378Y1432D01*
X380Y1432D01*
X380Y1434D01*
X382Y1434D01*
X382Y1436D01*
X384Y1436D01*
X384Y1438D01*
X386Y1438D01*
X386Y1440D01*
X388Y1440D01*
X388Y1442D01*
X390Y1442D01*
X390Y1444D01*
X392Y1444D01*
X392Y1446D01*
X394Y1446D01*
X394Y1448D01*
X396Y1448D01*
X396Y1450D01*
X398Y1450D01*
X398Y1452D01*
X400Y1452D01*
X400Y1454D01*
X402Y1454D01*
X402Y1456D01*
X404Y1456D01*
X404Y1458D01*
X408Y1458D01*
X408Y1460D01*
X414Y1460D01*
X414Y1462D01*
X646Y1462D01*
X646Y1464D01*
X648Y1464D01*
X648Y1466D01*
X650Y1466D01*
X650Y1468D01*
X652Y1468D01*
X652Y1470D01*
X654Y1470D01*
X654Y1472D01*
X658Y1472D01*
X658Y1494D01*
X654Y1494D01*
X654Y1496D01*
X652Y1496D01*
X652Y1498D01*
X650Y1498D01*
X650Y1500D01*
X648Y1500D01*
X648Y1502D01*
X646Y1502D01*
X646Y1504D01*
X644Y1504D01*
X644Y1506D01*
X642Y1506D01*
X642Y1510D01*
X640Y1510D01*
X640Y1514D01*
X638Y1514D01*
X638Y1520D01*
X636Y1520D01*
X636Y1530D01*
X634Y1530D01*
X634Y1536D01*
X636Y1536D01*
X636Y1546D01*
X638Y1546D01*
X638Y1552D01*
X640Y1552D01*
X640Y1556D01*
X642Y1556D01*
X642Y1560D01*
X644Y1560D01*
X644Y1562D01*
X646Y1562D01*
X646Y1564D01*
X648Y1564D01*
X648Y1566D01*
X650Y1566D01*
X650Y1568D01*
X652Y1568D01*
X652Y1570D01*
X654Y1570D01*
X654Y1572D01*
X658Y1572D01*
X658Y1594D01*
X654Y1594D01*
X654Y1596D01*
X652Y1596D01*
X652Y1598D01*
X650Y1598D01*
X650Y1600D01*
X648Y1600D01*
X648Y1602D01*
X646Y1602D01*
X646Y1604D01*
X644Y1604D01*
X644Y1606D01*
X642Y1606D01*
X642Y1610D01*
X640Y1610D01*
X640Y1614D01*
X638Y1614D01*
X638Y1620D01*
X636Y1620D01*
X636Y1630D01*
X634Y1630D01*
X634Y1636D01*
X636Y1636D01*
X636Y1646D01*
X638Y1646D01*
X638Y1652D01*
X640Y1652D01*
X640Y1656D01*
X642Y1656D01*
X642Y1660D01*
X644Y1660D01*
X644Y1662D01*
X646Y1662D01*
X646Y1664D01*
X648Y1664D01*
X648Y1666D01*
X650Y1666D01*
X650Y1668D01*
X652Y1668D01*
X652Y1670D01*
X654Y1670D01*
X654Y1672D01*
X658Y1672D01*
X658Y1694D01*
X654Y1694D01*
X654Y1696D01*
X652Y1696D01*
X652Y1698D01*
X650Y1698D01*
X650Y1700D01*
X648Y1700D01*
X648Y1702D01*
X646Y1702D01*
X646Y1704D01*
X644Y1704D01*
X644Y1706D01*
X642Y1706D01*
X642Y1710D01*
X640Y1710D01*
X640Y1714D01*
X638Y1714D01*
X638Y1720D01*
X636Y1720D01*
X636Y1730D01*
X634Y1730D01*
X634Y1736D01*
X636Y1736D01*
X636Y1746D01*
X638Y1746D01*
X638Y1752D01*
X640Y1752D01*
X640Y1756D01*
X642Y1756D01*
X642Y1760D01*
X644Y1760D01*
X644Y1762D01*
X646Y1762D01*
X646Y1764D01*
X648Y1764D01*
X648Y1766D01*
X650Y1766D01*
X650Y1768D01*
X652Y1768D01*
X652Y1770D01*
X654Y1770D01*
X654Y1772D01*
X658Y1772D01*
X658Y1794D01*
X654Y1794D01*
X654Y1796D01*
X652Y1796D01*
X652Y1798D01*
X650Y1798D01*
X650Y1800D01*
X648Y1800D01*
X648Y1802D01*
X646Y1802D01*
X646Y1804D01*
X644Y1804D01*
X644Y1806D01*
X642Y1806D01*
X642Y1810D01*
X640Y1810D01*
X640Y1814D01*
X638Y1814D01*
X638Y1820D01*
X636Y1820D01*
X636Y1830D01*
X634Y1830D01*
X634Y1836D01*
X636Y1836D01*
X636Y1846D01*
X638Y1846D01*
X638Y1852D01*
X640Y1852D01*
X640Y1856D01*
X642Y1856D01*
X642Y1860D01*
X644Y1860D01*
X644Y1862D01*
X646Y1862D01*
X646Y1864D01*
X648Y1864D01*
X648Y1866D01*
X650Y1866D01*
X650Y1868D01*
X652Y1868D01*
X652Y1870D01*
X654Y1870D01*
X654Y1872D01*
X658Y1872D01*
X658Y1894D01*
X654Y1894D01*
X654Y1896D01*
X652Y1896D01*
X652Y1898D01*
X650Y1898D01*
X650Y1900D01*
X648Y1900D01*
X648Y1902D01*
X646Y1902D01*
X646Y1904D01*
X644Y1904D01*
X644Y1906D01*
X642Y1906D01*
X642Y1910D01*
X640Y1910D01*
X640Y1914D01*
X638Y1914D01*
X638Y1920D01*
X636Y1920D01*
X636Y1930D01*
X634Y1930D01*
X634Y1936D01*
X636Y1936D01*
X636Y1946D01*
X638Y1946D01*
X638Y1952D01*
X640Y1952D01*
X640Y1956D01*
X642Y1956D01*
X642Y1960D01*
X644Y1960D01*
X644Y1962D01*
X646Y1962D01*
X646Y1964D01*
X648Y1964D01*
X648Y1966D01*
X650Y1966D01*
X650Y1968D01*
X652Y1968D01*
X652Y1970D01*
X654Y1970D01*
X654Y1972D01*
X658Y1972D01*
X658Y1994D01*
X654Y1994D01*
X654Y1996D01*
X652Y1996D01*
X652Y1998D01*
X650Y1998D01*
X650Y2000D01*
X648Y2000D01*
X648Y2002D01*
X646Y2002D01*
X646Y2004D01*
X644Y2004D01*
X644Y2006D01*
X642Y2006D01*
X642Y2010D01*
X640Y2010D01*
X640Y2014D01*
X638Y2014D01*
X638Y2020D01*
X636Y2020D01*
X636Y2030D01*
X634Y2030D01*
X634Y2036D01*
X636Y2036D01*
X636Y2046D01*
X638Y2046D01*
X638Y2052D01*
X640Y2052D01*
X640Y2056D01*
X642Y2056D01*
X642Y2060D01*
X644Y2060D01*
X644Y2062D01*
X646Y2062D01*
X646Y2064D01*
X648Y2064D01*
X648Y2066D01*
X650Y2066D01*
X650Y2068D01*
X652Y2068D01*
X652Y2070D01*
X654Y2070D01*
X654Y2072D01*
X658Y2072D01*
X658Y2094D01*
X654Y2094D01*
X654Y2096D01*
X652Y2096D01*
X652Y2098D01*
X650Y2098D01*
X650Y2100D01*
X648Y2100D01*
X648Y2102D01*
X646Y2102D01*
X646Y2104D01*
X644Y2104D01*
X644Y2106D01*
X642Y2106D01*
X642Y2110D01*
X640Y2110D01*
X640Y2114D01*
X638Y2114D01*
X638Y2120D01*
X636Y2120D01*
X636Y2130D01*
X634Y2130D01*
X634Y2136D01*
X636Y2136D01*
X636Y2146D01*
X638Y2146D01*
X638Y2152D01*
X640Y2152D01*
X640Y2156D01*
X642Y2156D01*
X642Y2160D01*
X644Y2160D01*
X644Y2162D01*
X646Y2162D01*
X646Y2164D01*
X648Y2164D01*
X648Y2166D01*
X650Y2166D01*
X650Y2168D01*
X652Y2168D01*
X652Y2170D01*
X654Y2170D01*
X654Y2172D01*
X658Y2172D01*
X658Y2194D01*
X654Y2194D01*
X654Y2196D01*
X652Y2196D01*
X652Y2198D01*
X650Y2198D01*
X650Y2200D01*
X648Y2200D01*
X648Y2202D01*
X646Y2202D01*
X646Y2204D01*
X644Y2204D01*
X644Y2206D01*
X642Y2206D01*
X642Y2210D01*
X640Y2210D01*
X640Y2214D01*
X638Y2214D01*
X638Y2220D01*
X636Y2220D01*
X636Y2230D01*
X634Y2230D01*
X634Y2236D01*
X636Y2236D01*
X636Y2246D01*
X638Y2246D01*
X638Y2252D01*
X640Y2252D01*
X640Y2256D01*
X642Y2256D01*
X642Y2260D01*
X644Y2260D01*
X644Y2262D01*
X646Y2262D01*
X646Y2264D01*
X648Y2264D01*
X648Y2266D01*
X650Y2266D01*
X650Y2268D01*
X652Y2268D01*
X652Y2270D01*
X654Y2270D01*
X654Y2272D01*
X658Y2272D01*
X658Y2294D01*
X654Y2294D01*
X654Y2296D01*
X652Y2296D01*
X652Y2298D01*
X650Y2298D01*
X650Y2300D01*
X648Y2300D01*
X648Y2302D01*
X646Y2302D01*
X646Y2304D01*
X644Y2304D01*
X644Y2306D01*
X642Y2306D01*
X642Y2310D01*
X640Y2310D01*
X640Y2314D01*
X638Y2314D01*
X638Y2320D01*
X636Y2320D01*
X636Y2330D01*
X634Y2330D01*
X634Y2336D01*
X636Y2336D01*
X636Y2346D01*
X638Y2346D01*
X638Y2352D01*
X640Y2352D01*
X640Y2356D01*
X642Y2356D01*
X642Y2360D01*
X644Y2360D01*
X644Y2362D01*
X646Y2362D01*
X646Y2364D01*
X648Y2364D01*
X648Y2366D01*
X650Y2366D01*
X650Y2368D01*
X652Y2368D01*
X652Y2370D01*
X654Y2370D01*
X654Y2372D01*
X658Y2372D01*
X658Y2374D01*
X662Y2374D01*
X662Y2376D01*
X666Y2376D01*
X666Y2378D01*
X672Y2378D01*
X672Y2380D01*
X92Y2380D01*
G37*
D02*
G36*
X996Y2328D02*
X996Y2324D01*
X994Y2324D01*
X994Y2322D01*
X992Y2322D01*
X992Y2320D01*
X990Y2320D01*
X990Y2318D01*
X986Y2318D01*
X986Y2316D01*
X984Y2316D01*
X984Y2314D01*
X980Y2314D01*
X980Y2312D01*
X976Y2312D01*
X976Y2310D01*
X970Y2310D01*
X970Y2308D01*
X1044Y2308D01*
X1044Y2310D01*
X1038Y2310D01*
X1038Y2312D01*
X1034Y2312D01*
X1034Y2314D01*
X1030Y2314D01*
X1030Y2316D01*
X1026Y2316D01*
X1026Y2318D01*
X1024Y2318D01*
X1024Y2320D01*
X1022Y2320D01*
X1022Y2322D01*
X1020Y2322D01*
X1020Y2324D01*
X1018Y2324D01*
X1018Y2326D01*
X1016Y2326D01*
X1016Y2328D01*
X996Y2328D01*
G37*
D02*
G36*
X1096Y2328D02*
X1096Y2324D01*
X1094Y2324D01*
X1094Y2322D01*
X1092Y2322D01*
X1092Y2320D01*
X1090Y2320D01*
X1090Y2318D01*
X1086Y2318D01*
X1086Y2316D01*
X1084Y2316D01*
X1084Y2314D01*
X1080Y2314D01*
X1080Y2312D01*
X1076Y2312D01*
X1076Y2310D01*
X1070Y2310D01*
X1070Y2308D01*
X1144Y2308D01*
X1144Y2310D01*
X1138Y2310D01*
X1138Y2312D01*
X1134Y2312D01*
X1134Y2314D01*
X1130Y2314D01*
X1130Y2316D01*
X1126Y2316D01*
X1126Y2318D01*
X1124Y2318D01*
X1124Y2320D01*
X1122Y2320D01*
X1122Y2322D01*
X1120Y2322D01*
X1120Y2324D01*
X1118Y2324D01*
X1118Y2326D01*
X1116Y2326D01*
X1116Y2328D01*
X1096Y2328D01*
G37*
D02*
G36*
X912Y2312D02*
X912Y2310D01*
X902Y2310D01*
X902Y2308D01*
X944Y2308D01*
X944Y2310D01*
X938Y2310D01*
X938Y2312D01*
X912Y2312D01*
G37*
D02*
G36*
X894Y2308D02*
X894Y2306D01*
X1960Y2306D01*
X1960Y2308D01*
X894Y2308D01*
G37*
D02*
G36*
X894Y2308D02*
X894Y2306D01*
X1960Y2306D01*
X1960Y2308D01*
X894Y2308D01*
G37*
D02*
G36*
X894Y2308D02*
X894Y2306D01*
X1960Y2306D01*
X1960Y2308D01*
X894Y2308D01*
G37*
D02*
G36*
X894Y2308D02*
X894Y2306D01*
X1960Y2306D01*
X1960Y2308D01*
X894Y2308D01*
G37*
D02*
G36*
X886Y2306D02*
X886Y2304D01*
X876Y2304D01*
X876Y2302D01*
X868Y2302D01*
X868Y2300D01*
X858Y2300D01*
X858Y2298D01*
X848Y2298D01*
X848Y2296D01*
X710Y2296D01*
X710Y2294D01*
X706Y2294D01*
X706Y2284D01*
X1166Y2284D01*
X1166Y2282D01*
X1174Y2282D01*
X1174Y2280D01*
X1178Y2280D01*
X1178Y2278D01*
X1182Y2278D01*
X1182Y2276D01*
X1186Y2276D01*
X1186Y2274D01*
X1188Y2274D01*
X1188Y2272D01*
X1190Y2272D01*
X1190Y2270D01*
X1192Y2270D01*
X1192Y2268D01*
X1194Y2268D01*
X1194Y2266D01*
X1196Y2266D01*
X1196Y2264D01*
X1198Y2264D01*
X1198Y2262D01*
X1200Y2262D01*
X1200Y2258D01*
X1202Y2258D01*
X1202Y2254D01*
X1204Y2254D01*
X1204Y2250D01*
X1206Y2250D01*
X1206Y2242D01*
X1208Y2242D01*
X1208Y2224D01*
X1206Y2224D01*
X1206Y2216D01*
X1204Y2216D01*
X1204Y2212D01*
X1202Y2212D01*
X1202Y2208D01*
X1200Y2208D01*
X1200Y2204D01*
X1198Y2204D01*
X1198Y2202D01*
X1196Y2202D01*
X1196Y2200D01*
X1194Y2200D01*
X1194Y2198D01*
X1192Y2198D01*
X1192Y2196D01*
X1190Y2196D01*
X1190Y2194D01*
X1188Y2194D01*
X1188Y2192D01*
X1186Y2192D01*
X1186Y2190D01*
X1182Y2190D01*
X1182Y2188D01*
X1178Y2188D01*
X1178Y2186D01*
X1174Y2186D01*
X1174Y2184D01*
X1166Y2184D01*
X1166Y2182D01*
X1960Y2182D01*
X1960Y2306D01*
X886Y2306D01*
G37*
D02*
G36*
X706Y2284D02*
X706Y2272D01*
X710Y2272D01*
X710Y2270D01*
X924Y2270D01*
X924Y2272D01*
X926Y2272D01*
X926Y2274D01*
X928Y2274D01*
X928Y2276D01*
X932Y2276D01*
X932Y2278D01*
X936Y2278D01*
X936Y2280D01*
X940Y2280D01*
X940Y2282D01*
X946Y2282D01*
X946Y2284D01*
X706Y2284D01*
G37*
D02*
G36*
X966Y2284D02*
X966Y2282D01*
X974Y2282D01*
X974Y2280D01*
X978Y2280D01*
X978Y2278D01*
X982Y2278D01*
X982Y2276D01*
X986Y2276D01*
X986Y2274D01*
X988Y2274D01*
X988Y2272D01*
X990Y2272D01*
X990Y2270D01*
X992Y2270D01*
X992Y2268D01*
X994Y2268D01*
X994Y2266D01*
X996Y2266D01*
X996Y2264D01*
X1018Y2264D01*
X1018Y2266D01*
X1020Y2266D01*
X1020Y2270D01*
X1024Y2270D01*
X1024Y2272D01*
X1026Y2272D01*
X1026Y2274D01*
X1028Y2274D01*
X1028Y2276D01*
X1032Y2276D01*
X1032Y2278D01*
X1036Y2278D01*
X1036Y2280D01*
X1040Y2280D01*
X1040Y2282D01*
X1046Y2282D01*
X1046Y2284D01*
X966Y2284D01*
G37*
D02*
G36*
X1066Y2284D02*
X1066Y2282D01*
X1074Y2282D01*
X1074Y2280D01*
X1078Y2280D01*
X1078Y2278D01*
X1082Y2278D01*
X1082Y2276D01*
X1086Y2276D01*
X1086Y2274D01*
X1088Y2274D01*
X1088Y2272D01*
X1090Y2272D01*
X1090Y2270D01*
X1092Y2270D01*
X1092Y2268D01*
X1094Y2268D01*
X1094Y2266D01*
X1096Y2266D01*
X1096Y2264D01*
X1118Y2264D01*
X1118Y2266D01*
X1120Y2266D01*
X1120Y2270D01*
X1124Y2270D01*
X1124Y2272D01*
X1126Y2272D01*
X1126Y2274D01*
X1128Y2274D01*
X1128Y2276D01*
X1132Y2276D01*
X1132Y2278D01*
X1136Y2278D01*
X1136Y2280D01*
X1140Y2280D01*
X1140Y2282D01*
X1146Y2282D01*
X1146Y2284D01*
X1066Y2284D01*
G37*
D02*
G36*
X996Y2202D02*
X996Y2200D01*
X994Y2200D01*
X994Y2198D01*
X992Y2198D01*
X992Y2196D01*
X990Y2196D01*
X990Y2194D01*
X988Y2194D01*
X988Y2192D01*
X986Y2192D01*
X986Y2190D01*
X982Y2190D01*
X982Y2188D01*
X978Y2188D01*
X978Y2186D01*
X974Y2186D01*
X974Y2184D01*
X966Y2184D01*
X966Y2182D01*
X1048Y2182D01*
X1048Y2184D01*
X1040Y2184D01*
X1040Y2186D01*
X1036Y2186D01*
X1036Y2188D01*
X1032Y2188D01*
X1032Y2190D01*
X1028Y2190D01*
X1028Y2192D01*
X1026Y2192D01*
X1026Y2194D01*
X1024Y2194D01*
X1024Y2196D01*
X1020Y2196D01*
X1020Y2200D01*
X1018Y2200D01*
X1018Y2202D01*
X996Y2202D01*
G37*
D02*
G36*
X1096Y2202D02*
X1096Y2200D01*
X1094Y2200D01*
X1094Y2198D01*
X1092Y2198D01*
X1092Y2196D01*
X1090Y2196D01*
X1090Y2194D01*
X1088Y2194D01*
X1088Y2192D01*
X1086Y2192D01*
X1086Y2190D01*
X1082Y2190D01*
X1082Y2188D01*
X1078Y2188D01*
X1078Y2186D01*
X1074Y2186D01*
X1074Y2184D01*
X1066Y2184D01*
X1066Y2182D01*
X1148Y2182D01*
X1148Y2184D01*
X1140Y2184D01*
X1140Y2186D01*
X1136Y2186D01*
X1136Y2188D01*
X1132Y2188D01*
X1132Y2190D01*
X1128Y2190D01*
X1128Y2192D01*
X1126Y2192D01*
X1126Y2194D01*
X1124Y2194D01*
X1124Y2196D01*
X1120Y2196D01*
X1120Y2200D01*
X1118Y2200D01*
X1118Y2202D01*
X1096Y2202D01*
G37*
D02*
G36*
X712Y2198D02*
X712Y2196D01*
X710Y2196D01*
X710Y2194D01*
X706Y2194D01*
X706Y2182D01*
X948Y2182D01*
X948Y2184D01*
X940Y2184D01*
X940Y2186D01*
X936Y2186D01*
X936Y2188D01*
X932Y2188D01*
X932Y2190D01*
X928Y2190D01*
X928Y2192D01*
X926Y2192D01*
X926Y2194D01*
X924Y2194D01*
X924Y2196D01*
X920Y2196D01*
X920Y2198D01*
X712Y2198D01*
G37*
D02*
G36*
X706Y2182D02*
X706Y2180D01*
X1960Y2180D01*
X1960Y2182D01*
X706Y2182D01*
G37*
D02*
G36*
X706Y2182D02*
X706Y2180D01*
X1960Y2180D01*
X1960Y2182D01*
X706Y2182D01*
G37*
D02*
G36*
X706Y2182D02*
X706Y2180D01*
X1960Y2180D01*
X1960Y2182D01*
X706Y2182D01*
G37*
D02*
G36*
X706Y2182D02*
X706Y2180D01*
X1960Y2180D01*
X1960Y2182D01*
X706Y2182D01*
G37*
D02*
G36*
X706Y2180D02*
X706Y2172D01*
X710Y2172D01*
X710Y2170D01*
X712Y2170D01*
X712Y2168D01*
X714Y2168D01*
X714Y2166D01*
X716Y2166D01*
X716Y2164D01*
X718Y2164D01*
X718Y2162D01*
X720Y2162D01*
X720Y2158D01*
X722Y2158D01*
X722Y2156D01*
X724Y2156D01*
X724Y2152D01*
X726Y2152D01*
X726Y2146D01*
X728Y2146D01*
X728Y2122D01*
X726Y2122D01*
X726Y2114D01*
X724Y2114D01*
X724Y2110D01*
X722Y2110D01*
X722Y2108D01*
X720Y2108D01*
X720Y2104D01*
X718Y2104D01*
X718Y2102D01*
X716Y2102D01*
X716Y2100D01*
X714Y2100D01*
X714Y2098D01*
X1872Y2098D01*
X1872Y2082D01*
X1938Y2082D01*
X1938Y2080D01*
X1960Y2080D01*
X1960Y2180D01*
X706Y2180D01*
G37*
D02*
G36*
X712Y2098D02*
X712Y2096D01*
X710Y2096D01*
X710Y2094D01*
X706Y2094D01*
X706Y2072D01*
X710Y2072D01*
X710Y2070D01*
X712Y2070D01*
X712Y2068D01*
X1664Y2068D01*
X1664Y2066D01*
X1670Y2066D01*
X1670Y2064D01*
X1674Y2064D01*
X1674Y2062D01*
X1678Y2062D01*
X1678Y2060D01*
X1680Y2060D01*
X1680Y2058D01*
X1682Y2058D01*
X1682Y2056D01*
X1684Y2056D01*
X1684Y2054D01*
X1686Y2054D01*
X1686Y2052D01*
X1688Y2052D01*
X1688Y2048D01*
X1690Y2048D01*
X1690Y2046D01*
X1692Y2046D01*
X1692Y2044D01*
X1694Y2044D01*
X1694Y2042D01*
X1696Y2042D01*
X1696Y2040D01*
X1698Y2040D01*
X1698Y2036D01*
X1700Y2036D01*
X1700Y2034D01*
X1702Y2034D01*
X1702Y2032D01*
X1704Y2032D01*
X1704Y2030D01*
X1706Y2030D01*
X1706Y2026D01*
X1708Y2026D01*
X1708Y2024D01*
X1710Y2024D01*
X1710Y2022D01*
X1712Y2022D01*
X1712Y2020D01*
X1714Y2020D01*
X1714Y2018D01*
X1716Y2018D01*
X1716Y2014D01*
X1718Y2014D01*
X1718Y2012D01*
X1720Y2012D01*
X1720Y2010D01*
X1722Y2010D01*
X1722Y2008D01*
X1724Y2008D01*
X1724Y2004D01*
X1726Y2004D01*
X1726Y2002D01*
X1728Y2002D01*
X1728Y2000D01*
X1730Y2000D01*
X1730Y1998D01*
X1732Y1998D01*
X1732Y1996D01*
X1734Y1996D01*
X1734Y1994D01*
X1768Y1994D01*
X1768Y2098D01*
X712Y2098D01*
G37*
D02*
G36*
X714Y2068D02*
X714Y2066D01*
X716Y2066D01*
X716Y2064D01*
X718Y2064D01*
X718Y2062D01*
X720Y2062D01*
X720Y2058D01*
X722Y2058D01*
X722Y2056D01*
X724Y2056D01*
X724Y2052D01*
X726Y2052D01*
X726Y2046D01*
X728Y2046D01*
X728Y2038D01*
X1126Y2038D01*
X1126Y2016D01*
X1132Y2016D01*
X1132Y2014D01*
X1138Y2014D01*
X1138Y2012D01*
X1144Y2012D01*
X1144Y2010D01*
X1150Y2010D01*
X1150Y2008D01*
X1154Y2008D01*
X1154Y2006D01*
X1160Y2006D01*
X1160Y2004D01*
X1166Y2004D01*
X1166Y2002D01*
X1172Y2002D01*
X1172Y2000D01*
X1178Y2000D01*
X1178Y1998D01*
X1184Y1998D01*
X1184Y1996D01*
X1190Y1996D01*
X1190Y1994D01*
X1196Y1994D01*
X1196Y1992D01*
X1202Y1992D01*
X1202Y1990D01*
X1208Y1990D01*
X1208Y1988D01*
X1214Y1988D01*
X1214Y1986D01*
X1218Y1986D01*
X1218Y1984D01*
X1224Y1984D01*
X1224Y1982D01*
X1230Y1982D01*
X1230Y1980D01*
X1236Y1980D01*
X1236Y1978D01*
X1242Y1978D01*
X1242Y1976D01*
X1248Y1976D01*
X1248Y1974D01*
X1254Y1974D01*
X1254Y1972D01*
X1260Y1972D01*
X1260Y1970D01*
X1266Y1970D01*
X1266Y1968D01*
X1272Y1968D01*
X1272Y1966D01*
X1278Y1966D01*
X1278Y1964D01*
X1282Y1964D01*
X1282Y1962D01*
X1396Y1962D01*
X1396Y1994D01*
X1398Y1994D01*
X1398Y2000D01*
X1400Y2000D01*
X1400Y2004D01*
X1402Y2004D01*
X1402Y2006D01*
X1404Y2006D01*
X1404Y2008D01*
X1406Y2008D01*
X1406Y2010D01*
X1408Y2010D01*
X1408Y2012D01*
X1410Y2012D01*
X1410Y2014D01*
X1412Y2014D01*
X1412Y2016D01*
X1414Y2016D01*
X1414Y2018D01*
X1416Y2018D01*
X1416Y2020D01*
X1418Y2020D01*
X1418Y2022D01*
X1420Y2022D01*
X1420Y2024D01*
X1422Y2024D01*
X1422Y2026D01*
X1424Y2026D01*
X1424Y2028D01*
X1426Y2028D01*
X1426Y2030D01*
X1428Y2030D01*
X1428Y2032D01*
X1430Y2032D01*
X1430Y2034D01*
X1432Y2034D01*
X1432Y2036D01*
X1434Y2036D01*
X1434Y2038D01*
X1436Y2038D01*
X1436Y2040D01*
X1440Y2040D01*
X1440Y2042D01*
X1442Y2042D01*
X1442Y2044D01*
X1444Y2044D01*
X1444Y2046D01*
X1446Y2046D01*
X1446Y2048D01*
X1448Y2048D01*
X1448Y2050D01*
X1450Y2050D01*
X1450Y2052D01*
X1452Y2052D01*
X1452Y2054D01*
X1454Y2054D01*
X1454Y2056D01*
X1456Y2056D01*
X1456Y2058D01*
X1458Y2058D01*
X1458Y2060D01*
X1460Y2060D01*
X1460Y2062D01*
X1464Y2062D01*
X1464Y2064D01*
X1468Y2064D01*
X1468Y2066D01*
X1474Y2066D01*
X1474Y2068D01*
X714Y2068D01*
G37*
D02*
G36*
X728Y2038D02*
X728Y2022D01*
X726Y2022D01*
X726Y2014D01*
X724Y2014D01*
X724Y2010D01*
X722Y2010D01*
X722Y2008D01*
X720Y2008D01*
X720Y2004D01*
X718Y2004D01*
X718Y2002D01*
X716Y2002D01*
X716Y2000D01*
X714Y2000D01*
X714Y1998D01*
X712Y1998D01*
X712Y1996D01*
X710Y1996D01*
X710Y1994D01*
X706Y1994D01*
X706Y1972D01*
X710Y1972D01*
X710Y1970D01*
X712Y1970D01*
X712Y1968D01*
X714Y1968D01*
X714Y1966D01*
X716Y1966D01*
X716Y1964D01*
X718Y1964D01*
X718Y1962D01*
X720Y1962D01*
X720Y1958D01*
X722Y1958D01*
X722Y1956D01*
X724Y1956D01*
X724Y1952D01*
X726Y1952D01*
X726Y1946D01*
X728Y1946D01*
X728Y1922D01*
X726Y1922D01*
X726Y1914D01*
X724Y1914D01*
X724Y1910D01*
X722Y1910D01*
X722Y1908D01*
X720Y1908D01*
X720Y1904D01*
X718Y1904D01*
X718Y1902D01*
X716Y1902D01*
X716Y1900D01*
X714Y1900D01*
X714Y1898D01*
X712Y1898D01*
X712Y1896D01*
X710Y1896D01*
X710Y1894D01*
X706Y1894D01*
X706Y1872D01*
X710Y1872D01*
X710Y1870D01*
X712Y1870D01*
X712Y1868D01*
X714Y1868D01*
X714Y1866D01*
X716Y1866D01*
X716Y1864D01*
X718Y1864D01*
X718Y1862D01*
X720Y1862D01*
X720Y1858D01*
X722Y1858D01*
X722Y1856D01*
X724Y1856D01*
X724Y1852D01*
X726Y1852D01*
X726Y1846D01*
X728Y1846D01*
X728Y1822D01*
X726Y1822D01*
X726Y1814D01*
X724Y1814D01*
X724Y1810D01*
X722Y1810D01*
X722Y1808D01*
X720Y1808D01*
X720Y1804D01*
X718Y1804D01*
X718Y1802D01*
X716Y1802D01*
X716Y1800D01*
X714Y1800D01*
X714Y1798D01*
X712Y1798D01*
X712Y1796D01*
X710Y1796D01*
X710Y1794D01*
X706Y1794D01*
X706Y1772D01*
X710Y1772D01*
X710Y1770D01*
X712Y1770D01*
X712Y1768D01*
X818Y1768D01*
X818Y1770D01*
X820Y1770D01*
X820Y1772D01*
X822Y1772D01*
X822Y1774D01*
X824Y1774D01*
X824Y1776D01*
X826Y1776D01*
X826Y1778D01*
X828Y1778D01*
X828Y1780D01*
X830Y1780D01*
X830Y1782D01*
X832Y1782D01*
X832Y1784D01*
X834Y1784D01*
X834Y1786D01*
X836Y1786D01*
X836Y1788D01*
X838Y1788D01*
X838Y1790D01*
X840Y1790D01*
X840Y1792D01*
X842Y1792D01*
X842Y1794D01*
X844Y1794D01*
X844Y1796D01*
X846Y1796D01*
X846Y1942D01*
X848Y1942D01*
X848Y1948D01*
X850Y1948D01*
X850Y1952D01*
X852Y1952D01*
X852Y1954D01*
X854Y1954D01*
X854Y1958D01*
X856Y1958D01*
X856Y1960D01*
X858Y1960D01*
X858Y1962D01*
X860Y1962D01*
X860Y1964D01*
X862Y1964D01*
X862Y1966D01*
X864Y1966D01*
X864Y1970D01*
X866Y1970D01*
X866Y1972D01*
X868Y1972D01*
X868Y1974D01*
X870Y1974D01*
X870Y1976D01*
X872Y1976D01*
X872Y1978D01*
X874Y1978D01*
X874Y1982D01*
X876Y1982D01*
X876Y1984D01*
X878Y1984D01*
X878Y1986D01*
X880Y1986D01*
X880Y1988D01*
X882Y1988D01*
X882Y1992D01*
X884Y1992D01*
X884Y1994D01*
X886Y1994D01*
X886Y1996D01*
X888Y1996D01*
X888Y1998D01*
X890Y1998D01*
X890Y2000D01*
X892Y2000D01*
X892Y2004D01*
X894Y2004D01*
X894Y2006D01*
X896Y2006D01*
X896Y2008D01*
X898Y2008D01*
X898Y2010D01*
X900Y2010D01*
X900Y2012D01*
X902Y2012D01*
X902Y2016D01*
X904Y2016D01*
X904Y2018D01*
X906Y2018D01*
X906Y2020D01*
X908Y2020D01*
X908Y2022D01*
X910Y2022D01*
X910Y2024D01*
X914Y2024D01*
X914Y2026D01*
X916Y2026D01*
X916Y2028D01*
X922Y2028D01*
X922Y2030D01*
X1038Y2030D01*
X1038Y2038D01*
X728Y2038D01*
G37*
D02*
G36*
X1872Y2010D02*
X1872Y1994D01*
X1896Y1994D01*
X1896Y2010D01*
X1872Y2010D01*
G37*
D02*
G36*
X1496Y1996D02*
X1496Y1994D01*
X1494Y1994D01*
X1494Y1992D01*
X1490Y1992D01*
X1490Y1990D01*
X1488Y1990D01*
X1488Y1988D01*
X1486Y1988D01*
X1486Y1986D01*
X1484Y1986D01*
X1484Y1984D01*
X1482Y1984D01*
X1482Y1982D01*
X1480Y1982D01*
X1480Y1980D01*
X1478Y1980D01*
X1478Y1978D01*
X1476Y1978D01*
X1476Y1976D01*
X1474Y1976D01*
X1474Y1974D01*
X1472Y1974D01*
X1472Y1972D01*
X1470Y1972D01*
X1470Y1970D01*
X1468Y1970D01*
X1468Y1962D01*
X1534Y1962D01*
X1534Y1960D01*
X1546Y1960D01*
X1546Y1958D01*
X1552Y1958D01*
X1552Y1956D01*
X1556Y1956D01*
X1556Y1954D01*
X1560Y1954D01*
X1560Y1952D01*
X1562Y1952D01*
X1562Y1950D01*
X1566Y1950D01*
X1566Y1948D01*
X1568Y1948D01*
X1568Y1946D01*
X1570Y1946D01*
X1570Y1944D01*
X1572Y1944D01*
X1572Y1940D01*
X1574Y1940D01*
X1574Y1938D01*
X1576Y1938D01*
X1576Y1936D01*
X1578Y1936D01*
X1578Y1932D01*
X1580Y1932D01*
X1580Y1928D01*
X1582Y1928D01*
X1582Y1922D01*
X1584Y1922D01*
X1584Y1894D01*
X1582Y1894D01*
X1582Y1888D01*
X1580Y1888D01*
X1580Y1884D01*
X1578Y1884D01*
X1578Y1880D01*
X1576Y1880D01*
X1576Y1878D01*
X1574Y1878D01*
X1574Y1876D01*
X1572Y1876D01*
X1572Y1872D01*
X1570Y1872D01*
X1570Y1870D01*
X1568Y1870D01*
X1568Y1868D01*
X1564Y1868D01*
X1564Y1866D01*
X1562Y1866D01*
X1562Y1864D01*
X1560Y1864D01*
X1560Y1862D01*
X1556Y1862D01*
X1556Y1860D01*
X1552Y1860D01*
X1552Y1858D01*
X1546Y1858D01*
X1546Y1856D01*
X1808Y1856D01*
X1808Y1858D01*
X1802Y1858D01*
X1802Y1860D01*
X1798Y1860D01*
X1798Y1862D01*
X1794Y1862D01*
X1794Y1864D01*
X1790Y1864D01*
X1790Y1866D01*
X1788Y1866D01*
X1788Y1868D01*
X1786Y1868D01*
X1786Y1870D01*
X1782Y1870D01*
X1782Y1872D01*
X1752Y1872D01*
X1752Y1874D01*
X1744Y1874D01*
X1744Y1876D01*
X1740Y1876D01*
X1740Y1878D01*
X1738Y1878D01*
X1738Y1880D01*
X1734Y1880D01*
X1734Y1882D01*
X1732Y1882D01*
X1732Y1884D01*
X1730Y1884D01*
X1730Y1886D01*
X1728Y1886D01*
X1728Y1890D01*
X1726Y1890D01*
X1726Y1892D01*
X1724Y1892D01*
X1724Y1894D01*
X1722Y1894D01*
X1722Y1896D01*
X1720Y1896D01*
X1720Y1898D01*
X1718Y1898D01*
X1718Y1902D01*
X1716Y1902D01*
X1716Y1904D01*
X1714Y1904D01*
X1714Y1906D01*
X1712Y1906D01*
X1712Y1908D01*
X1710Y1908D01*
X1710Y1910D01*
X1708Y1910D01*
X1708Y1914D01*
X1706Y1914D01*
X1706Y1916D01*
X1704Y1916D01*
X1704Y1918D01*
X1702Y1918D01*
X1702Y1920D01*
X1700Y1920D01*
X1700Y1924D01*
X1698Y1924D01*
X1698Y1926D01*
X1696Y1926D01*
X1696Y1928D01*
X1694Y1928D01*
X1694Y1930D01*
X1692Y1930D01*
X1692Y1932D01*
X1690Y1932D01*
X1690Y1936D01*
X1688Y1936D01*
X1688Y1938D01*
X1686Y1938D01*
X1686Y1940D01*
X1684Y1940D01*
X1684Y1942D01*
X1682Y1942D01*
X1682Y1946D01*
X1680Y1946D01*
X1680Y1948D01*
X1678Y1948D01*
X1678Y1950D01*
X1676Y1950D01*
X1676Y1952D01*
X1674Y1952D01*
X1674Y1954D01*
X1672Y1954D01*
X1672Y1958D01*
X1670Y1958D01*
X1670Y1960D01*
X1668Y1960D01*
X1668Y1962D01*
X1666Y1962D01*
X1666Y1964D01*
X1664Y1964D01*
X1664Y1966D01*
X1662Y1966D01*
X1662Y1970D01*
X1660Y1970D01*
X1660Y1972D01*
X1658Y1972D01*
X1658Y1974D01*
X1656Y1974D01*
X1656Y1976D01*
X1654Y1976D01*
X1654Y1980D01*
X1652Y1980D01*
X1652Y1982D01*
X1650Y1982D01*
X1650Y1984D01*
X1648Y1984D01*
X1648Y1986D01*
X1646Y1986D01*
X1646Y1988D01*
X1644Y1988D01*
X1644Y1992D01*
X1642Y1992D01*
X1642Y1994D01*
X1640Y1994D01*
X1640Y1996D01*
X1496Y1996D01*
G37*
D02*
G36*
X1734Y1994D02*
X1734Y1992D01*
X1896Y1992D01*
X1896Y1994D01*
X1734Y1994D01*
G37*
D02*
G36*
X1734Y1994D02*
X1734Y1992D01*
X1896Y1992D01*
X1896Y1994D01*
X1734Y1994D01*
G37*
D02*
G36*
X1736Y1992D02*
X1736Y1990D01*
X1738Y1990D01*
X1738Y1988D01*
X1740Y1988D01*
X1740Y1986D01*
X1742Y1986D01*
X1742Y1982D01*
X1744Y1982D01*
X1744Y1980D01*
X1746Y1980D01*
X1746Y1978D01*
X1748Y1978D01*
X1748Y1976D01*
X1750Y1976D01*
X1750Y1974D01*
X1752Y1974D01*
X1752Y1970D01*
X1754Y1970D01*
X1754Y1968D01*
X1756Y1968D01*
X1756Y1966D01*
X1758Y1966D01*
X1758Y1964D01*
X1760Y1964D01*
X1760Y1962D01*
X1762Y1962D01*
X1762Y1960D01*
X1828Y1960D01*
X1828Y1958D01*
X1836Y1958D01*
X1836Y1956D01*
X1840Y1956D01*
X1840Y1954D01*
X1844Y1954D01*
X1844Y1952D01*
X1848Y1952D01*
X1848Y1950D01*
X1850Y1950D01*
X1850Y1948D01*
X1854Y1948D01*
X1854Y1946D01*
X1856Y1946D01*
X1856Y1944D01*
X1858Y1944D01*
X1858Y1940D01*
X1860Y1940D01*
X1860Y1938D01*
X1862Y1938D01*
X1862Y1936D01*
X1864Y1936D01*
X1864Y1932D01*
X1866Y1932D01*
X1866Y1928D01*
X1868Y1928D01*
X1868Y1922D01*
X1870Y1922D01*
X1870Y1912D01*
X1872Y1912D01*
X1872Y1902D01*
X1870Y1902D01*
X1870Y1892D01*
X1868Y1892D01*
X1868Y1888D01*
X1866Y1888D01*
X1866Y1884D01*
X1864Y1884D01*
X1864Y1880D01*
X1862Y1880D01*
X1862Y1878D01*
X1860Y1878D01*
X1860Y1874D01*
X1858Y1874D01*
X1858Y1872D01*
X1856Y1872D01*
X1856Y1870D01*
X1854Y1870D01*
X1854Y1868D01*
X1852Y1868D01*
X1852Y1866D01*
X1848Y1866D01*
X1848Y1864D01*
X1846Y1864D01*
X1846Y1862D01*
X1842Y1862D01*
X1842Y1860D01*
X1838Y1860D01*
X1838Y1858D01*
X1830Y1858D01*
X1830Y1856D01*
X1896Y1856D01*
X1896Y1992D01*
X1736Y1992D01*
G37*
D02*
G36*
X1468Y1962D02*
X1468Y1946D01*
X1470Y1946D01*
X1470Y1944D01*
X1472Y1944D01*
X1472Y1942D01*
X1492Y1942D01*
X1492Y1944D01*
X1494Y1944D01*
X1494Y1946D01*
X1496Y1946D01*
X1496Y1948D01*
X1498Y1948D01*
X1498Y1950D01*
X1502Y1950D01*
X1502Y1952D01*
X1504Y1952D01*
X1504Y1954D01*
X1508Y1954D01*
X1508Y1956D01*
X1512Y1956D01*
X1512Y1958D01*
X1518Y1958D01*
X1518Y1960D01*
X1530Y1960D01*
X1530Y1962D01*
X1468Y1962D01*
G37*
D02*
G36*
X1762Y1960D02*
X1762Y1958D01*
X1764Y1958D01*
X1764Y1956D01*
X1766Y1956D01*
X1766Y1954D01*
X1768Y1954D01*
X1768Y1952D01*
X1770Y1952D01*
X1770Y1950D01*
X1790Y1950D01*
X1790Y1952D01*
X1794Y1952D01*
X1794Y1954D01*
X1798Y1954D01*
X1798Y1956D01*
X1802Y1956D01*
X1802Y1958D01*
X1812Y1958D01*
X1812Y1960D01*
X1762Y1960D01*
G37*
D02*
G36*
X948Y1958D02*
X948Y1956D01*
X946Y1956D01*
X946Y1954D01*
X944Y1954D01*
X944Y1950D01*
X942Y1950D01*
X942Y1948D01*
X940Y1948D01*
X940Y1946D01*
X938Y1946D01*
X938Y1944D01*
X936Y1944D01*
X936Y1940D01*
X934Y1940D01*
X934Y1938D01*
X932Y1938D01*
X932Y1936D01*
X930Y1936D01*
X930Y1934D01*
X928Y1934D01*
X928Y1932D01*
X926Y1932D01*
X926Y1928D01*
X924Y1928D01*
X924Y1926D01*
X922Y1926D01*
X922Y1924D01*
X920Y1924D01*
X920Y1922D01*
X918Y1922D01*
X918Y1778D01*
X916Y1778D01*
X916Y1770D01*
X914Y1770D01*
X914Y1766D01*
X912Y1766D01*
X912Y1762D01*
X910Y1762D01*
X910Y1760D01*
X908Y1760D01*
X908Y1758D01*
X906Y1758D01*
X906Y1756D01*
X904Y1756D01*
X904Y1754D01*
X902Y1754D01*
X902Y1752D01*
X900Y1752D01*
X900Y1750D01*
X898Y1750D01*
X898Y1748D01*
X896Y1748D01*
X896Y1746D01*
X894Y1746D01*
X894Y1744D01*
X892Y1744D01*
X892Y1742D01*
X890Y1742D01*
X890Y1740D01*
X888Y1740D01*
X888Y1738D01*
X886Y1738D01*
X886Y1736D01*
X884Y1736D01*
X884Y1734D01*
X1108Y1734D01*
X1108Y1736D01*
X1102Y1736D01*
X1102Y1738D01*
X1098Y1738D01*
X1098Y1740D01*
X1094Y1740D01*
X1094Y1742D01*
X1090Y1742D01*
X1090Y1744D01*
X1088Y1744D01*
X1088Y1746D01*
X1086Y1746D01*
X1086Y1748D01*
X1084Y1748D01*
X1084Y1750D01*
X1082Y1750D01*
X1082Y1752D01*
X1080Y1752D01*
X1080Y1754D01*
X1078Y1754D01*
X1078Y1758D01*
X1076Y1758D01*
X1076Y1762D01*
X1074Y1762D01*
X1074Y1766D01*
X1072Y1766D01*
X1072Y1772D01*
X1070Y1772D01*
X1070Y1794D01*
X1072Y1794D01*
X1072Y1814D01*
X1070Y1814D01*
X1070Y1820D01*
X1068Y1820D01*
X1068Y1826D01*
X1066Y1826D01*
X1066Y1832D01*
X1064Y1832D01*
X1064Y1838D01*
X1062Y1838D01*
X1062Y1844D01*
X1060Y1844D01*
X1060Y1850D01*
X1058Y1850D01*
X1058Y1856D01*
X1056Y1856D01*
X1056Y1862D01*
X1054Y1862D01*
X1054Y1864D01*
X1052Y1864D01*
X1052Y1866D01*
X1050Y1866D01*
X1050Y1868D01*
X1048Y1868D01*
X1048Y1870D01*
X1046Y1870D01*
X1046Y1872D01*
X1044Y1872D01*
X1044Y1876D01*
X1042Y1876D01*
X1042Y1882D01*
X1040Y1882D01*
X1040Y1888D01*
X1038Y1888D01*
X1038Y1902D01*
X1040Y1902D01*
X1040Y1910D01*
X1042Y1910D01*
X1042Y1914D01*
X1044Y1914D01*
X1044Y1918D01*
X1046Y1918D01*
X1046Y1922D01*
X1048Y1922D01*
X1048Y1924D01*
X1050Y1924D01*
X1050Y1926D01*
X1052Y1926D01*
X1052Y1928D01*
X1054Y1928D01*
X1054Y1930D01*
X1056Y1930D01*
X1056Y1950D01*
X1038Y1950D01*
X1038Y1958D01*
X948Y1958D01*
G37*
D02*
G36*
X1112Y1940D02*
X1112Y1926D01*
X1114Y1926D01*
X1114Y1924D01*
X1116Y1924D01*
X1116Y1920D01*
X1118Y1920D01*
X1118Y1918D01*
X1120Y1918D01*
X1120Y1914D01*
X1122Y1914D01*
X1122Y1908D01*
X1124Y1908D01*
X1124Y1900D01*
X1126Y1900D01*
X1126Y1874D01*
X1128Y1874D01*
X1128Y1868D01*
X1130Y1868D01*
X1130Y1862D01*
X1132Y1862D01*
X1132Y1856D01*
X1278Y1856D01*
X1278Y1888D01*
X1276Y1888D01*
X1276Y1890D01*
X1270Y1890D01*
X1270Y1892D01*
X1264Y1892D01*
X1264Y1894D01*
X1260Y1894D01*
X1260Y1896D01*
X1254Y1896D01*
X1254Y1898D01*
X1248Y1898D01*
X1248Y1900D01*
X1242Y1900D01*
X1242Y1902D01*
X1236Y1902D01*
X1236Y1904D01*
X1230Y1904D01*
X1230Y1906D01*
X1224Y1906D01*
X1224Y1908D01*
X1218Y1908D01*
X1218Y1910D01*
X1212Y1910D01*
X1212Y1912D01*
X1206Y1912D01*
X1206Y1914D01*
X1200Y1914D01*
X1200Y1916D01*
X1196Y1916D01*
X1196Y1918D01*
X1190Y1918D01*
X1190Y1920D01*
X1184Y1920D01*
X1184Y1922D01*
X1178Y1922D01*
X1178Y1924D01*
X1172Y1924D01*
X1172Y1926D01*
X1166Y1926D01*
X1166Y1928D01*
X1160Y1928D01*
X1160Y1930D01*
X1154Y1930D01*
X1154Y1932D01*
X1148Y1932D01*
X1148Y1934D01*
X1142Y1934D01*
X1142Y1936D01*
X1136Y1936D01*
X1136Y1938D01*
X1132Y1938D01*
X1132Y1940D01*
X1112Y1940D01*
G37*
D02*
G36*
X1472Y1874D02*
X1472Y1872D01*
X1470Y1872D01*
X1470Y1870D01*
X1468Y1870D01*
X1468Y1868D01*
X1464Y1868D01*
X1464Y1866D01*
X1462Y1866D01*
X1462Y1864D01*
X1460Y1864D01*
X1460Y1862D01*
X1456Y1862D01*
X1456Y1860D01*
X1452Y1860D01*
X1452Y1858D01*
X1446Y1858D01*
X1446Y1856D01*
X1518Y1856D01*
X1518Y1858D01*
X1512Y1858D01*
X1512Y1860D01*
X1508Y1860D01*
X1508Y1862D01*
X1504Y1862D01*
X1504Y1864D01*
X1502Y1864D01*
X1502Y1866D01*
X1498Y1866D01*
X1498Y1868D01*
X1496Y1868D01*
X1496Y1870D01*
X1494Y1870D01*
X1494Y1872D01*
X1492Y1872D01*
X1492Y1874D01*
X1472Y1874D01*
G37*
D02*
G36*
X1384Y1864D02*
X1384Y1856D01*
X1418Y1856D01*
X1418Y1858D01*
X1412Y1858D01*
X1412Y1860D01*
X1408Y1860D01*
X1408Y1862D01*
X1404Y1862D01*
X1404Y1864D01*
X1384Y1864D01*
G37*
D02*
G36*
X1134Y1856D02*
X1134Y1854D01*
X1896Y1854D01*
X1896Y1856D01*
X1134Y1856D01*
G37*
D02*
G36*
X1134Y1856D02*
X1134Y1854D01*
X1896Y1854D01*
X1896Y1856D01*
X1134Y1856D01*
G37*
D02*
G36*
X1134Y1856D02*
X1134Y1854D01*
X1896Y1854D01*
X1896Y1856D01*
X1134Y1856D01*
G37*
D02*
G36*
X1134Y1856D02*
X1134Y1854D01*
X1896Y1854D01*
X1896Y1856D01*
X1134Y1856D01*
G37*
D02*
G36*
X1134Y1856D02*
X1134Y1854D01*
X1896Y1854D01*
X1896Y1856D01*
X1134Y1856D01*
G37*
D02*
G36*
X1134Y1854D02*
X1134Y1850D01*
X1136Y1850D01*
X1136Y1844D01*
X1138Y1844D01*
X1138Y1838D01*
X1140Y1838D01*
X1140Y1832D01*
X1530Y1832D01*
X1530Y1830D01*
X1538Y1830D01*
X1538Y1828D01*
X1542Y1828D01*
X1542Y1826D01*
X1546Y1826D01*
X1546Y1824D01*
X1548Y1824D01*
X1548Y1822D01*
X1550Y1822D01*
X1550Y1820D01*
X1554Y1820D01*
X1554Y1818D01*
X1556Y1818D01*
X1556Y1814D01*
X1558Y1814D01*
X1558Y1812D01*
X1560Y1812D01*
X1560Y1810D01*
X1562Y1810D01*
X1562Y1806D01*
X1564Y1806D01*
X1564Y1802D01*
X1566Y1802D01*
X1566Y1796D01*
X1568Y1796D01*
X1568Y1770D01*
X1566Y1770D01*
X1566Y1764D01*
X1564Y1764D01*
X1564Y1760D01*
X1562Y1760D01*
X1562Y1756D01*
X1560Y1756D01*
X1560Y1754D01*
X1558Y1754D01*
X1558Y1752D01*
X1556Y1752D01*
X1556Y1748D01*
X1552Y1748D01*
X1552Y1746D01*
X1550Y1746D01*
X1550Y1744D01*
X1548Y1744D01*
X1548Y1742D01*
X1544Y1742D01*
X1544Y1740D01*
X1542Y1740D01*
X1542Y1738D01*
X1536Y1738D01*
X1536Y1736D01*
X1870Y1736D01*
X1870Y1734D01*
X1872Y1734D01*
X1872Y1726D01*
X1892Y1726D01*
X1892Y1728D01*
X1896Y1728D01*
X1896Y1854D01*
X1134Y1854D01*
G37*
D02*
G36*
X1142Y1832D02*
X1142Y1826D01*
X1146Y1826D01*
X1146Y1824D01*
X1148Y1824D01*
X1148Y1822D01*
X1150Y1822D01*
X1150Y1820D01*
X1154Y1820D01*
X1154Y1818D01*
X1156Y1818D01*
X1156Y1814D01*
X1158Y1814D01*
X1158Y1812D01*
X1160Y1812D01*
X1160Y1810D01*
X1162Y1810D01*
X1162Y1806D01*
X1164Y1806D01*
X1164Y1802D01*
X1166Y1802D01*
X1166Y1796D01*
X1168Y1796D01*
X1168Y1770D01*
X1166Y1770D01*
X1166Y1764D01*
X1164Y1764D01*
X1164Y1760D01*
X1162Y1760D01*
X1162Y1756D01*
X1160Y1756D01*
X1160Y1754D01*
X1158Y1754D01*
X1158Y1752D01*
X1156Y1752D01*
X1156Y1748D01*
X1152Y1748D01*
X1152Y1746D01*
X1150Y1746D01*
X1150Y1744D01*
X1148Y1744D01*
X1148Y1742D01*
X1144Y1742D01*
X1144Y1740D01*
X1142Y1740D01*
X1142Y1738D01*
X1136Y1738D01*
X1136Y1736D01*
X1130Y1736D01*
X1130Y1734D01*
X1508Y1734D01*
X1508Y1736D01*
X1502Y1736D01*
X1502Y1738D01*
X1498Y1738D01*
X1498Y1740D01*
X1494Y1740D01*
X1494Y1742D01*
X1490Y1742D01*
X1490Y1744D01*
X1488Y1744D01*
X1488Y1746D01*
X1486Y1746D01*
X1486Y1748D01*
X1484Y1748D01*
X1484Y1750D01*
X1482Y1750D01*
X1482Y1752D01*
X1480Y1752D01*
X1480Y1754D01*
X1478Y1754D01*
X1478Y1758D01*
X1476Y1758D01*
X1476Y1762D01*
X1474Y1762D01*
X1474Y1766D01*
X1472Y1766D01*
X1472Y1772D01*
X1470Y1772D01*
X1470Y1794D01*
X1472Y1794D01*
X1472Y1800D01*
X1474Y1800D01*
X1474Y1804D01*
X1476Y1804D01*
X1476Y1808D01*
X1478Y1808D01*
X1478Y1812D01*
X1480Y1812D01*
X1480Y1814D01*
X1482Y1814D01*
X1482Y1816D01*
X1484Y1816D01*
X1484Y1818D01*
X1486Y1818D01*
X1486Y1820D01*
X1488Y1820D01*
X1488Y1822D01*
X1490Y1822D01*
X1490Y1824D01*
X1494Y1824D01*
X1494Y1826D01*
X1496Y1826D01*
X1496Y1828D01*
X1502Y1828D01*
X1502Y1830D01*
X1508Y1830D01*
X1508Y1832D01*
X1142Y1832D01*
G37*
D02*
G36*
X1530Y1736D02*
X1530Y1734D01*
X1768Y1734D01*
X1768Y1736D01*
X1530Y1736D01*
G37*
D02*
G36*
X882Y1734D02*
X882Y1732D01*
X1768Y1732D01*
X1768Y1734D01*
X882Y1734D01*
G37*
D02*
G36*
X882Y1734D02*
X882Y1732D01*
X1768Y1732D01*
X1768Y1734D01*
X882Y1734D01*
G37*
D02*
G36*
X882Y1734D02*
X882Y1732D01*
X1768Y1732D01*
X1768Y1734D01*
X882Y1734D01*
G37*
D02*
G36*
X880Y1732D02*
X880Y1730D01*
X878Y1730D01*
X878Y1728D01*
X876Y1728D01*
X876Y1726D01*
X874Y1726D01*
X874Y1724D01*
X872Y1724D01*
X872Y1722D01*
X870Y1722D01*
X870Y1720D01*
X868Y1720D01*
X868Y1718D01*
X866Y1718D01*
X866Y1716D01*
X864Y1716D01*
X864Y1714D01*
X862Y1714D01*
X862Y1712D01*
X860Y1712D01*
X860Y1710D01*
X858Y1710D01*
X858Y1708D01*
X856Y1708D01*
X856Y1706D01*
X854Y1706D01*
X854Y1704D01*
X852Y1704D01*
X852Y1702D01*
X848Y1702D01*
X848Y1700D01*
X844Y1700D01*
X844Y1698D01*
X838Y1698D01*
X838Y1696D01*
X1646Y1696D01*
X1646Y1694D01*
X1656Y1694D01*
X1656Y1692D01*
X1662Y1692D01*
X1662Y1690D01*
X1666Y1690D01*
X1666Y1688D01*
X1668Y1688D01*
X1668Y1686D01*
X1670Y1686D01*
X1670Y1684D01*
X1672Y1684D01*
X1672Y1682D01*
X1674Y1682D01*
X1674Y1680D01*
X1676Y1680D01*
X1676Y1678D01*
X1678Y1678D01*
X1678Y1676D01*
X1680Y1676D01*
X1680Y1674D01*
X1682Y1674D01*
X1682Y1672D01*
X1684Y1672D01*
X1684Y1670D01*
X1686Y1670D01*
X1686Y1668D01*
X1688Y1668D01*
X1688Y1666D01*
X1690Y1666D01*
X1690Y1664D01*
X1692Y1664D01*
X1692Y1662D01*
X1694Y1662D01*
X1694Y1660D01*
X1696Y1660D01*
X1696Y1658D01*
X1698Y1658D01*
X1698Y1656D01*
X1700Y1656D01*
X1700Y1654D01*
X1702Y1654D01*
X1702Y1652D01*
X1704Y1652D01*
X1704Y1650D01*
X1706Y1650D01*
X1706Y1648D01*
X1708Y1648D01*
X1708Y1646D01*
X1710Y1646D01*
X1710Y1644D01*
X1712Y1644D01*
X1712Y1642D01*
X1714Y1642D01*
X1714Y1640D01*
X1716Y1640D01*
X1716Y1638D01*
X1718Y1638D01*
X1718Y1636D01*
X1720Y1636D01*
X1720Y1634D01*
X1722Y1634D01*
X1722Y1632D01*
X1724Y1632D01*
X1724Y1630D01*
X1726Y1630D01*
X1726Y1628D01*
X1728Y1628D01*
X1728Y1626D01*
X1730Y1626D01*
X1730Y1624D01*
X1732Y1624D01*
X1732Y1622D01*
X1734Y1622D01*
X1734Y1620D01*
X1736Y1620D01*
X1736Y1618D01*
X1738Y1618D01*
X1738Y1616D01*
X1740Y1616D01*
X1740Y1614D01*
X1742Y1614D01*
X1742Y1612D01*
X1744Y1612D01*
X1744Y1610D01*
X1746Y1610D01*
X1746Y1608D01*
X1748Y1608D01*
X1748Y1606D01*
X1750Y1606D01*
X1750Y1604D01*
X1752Y1604D01*
X1752Y1602D01*
X1754Y1602D01*
X1754Y1600D01*
X1756Y1600D01*
X1756Y1598D01*
X1824Y1598D01*
X1824Y1596D01*
X1834Y1596D01*
X1834Y1594D01*
X1840Y1594D01*
X1840Y1592D01*
X1844Y1592D01*
X1844Y1590D01*
X1848Y1590D01*
X1848Y1588D01*
X1850Y1588D01*
X1850Y1586D01*
X1852Y1586D01*
X1852Y1584D01*
X1854Y1584D01*
X1854Y1582D01*
X1856Y1582D01*
X1856Y1580D01*
X1858Y1580D01*
X1858Y1578D01*
X1860Y1578D01*
X1860Y1576D01*
X1862Y1576D01*
X1862Y1574D01*
X1864Y1574D01*
X1864Y1570D01*
X1866Y1570D01*
X1866Y1566D01*
X1868Y1566D01*
X1868Y1560D01*
X1870Y1560D01*
X1870Y1550D01*
X1872Y1550D01*
X1872Y1540D01*
X1870Y1540D01*
X1870Y1530D01*
X1868Y1530D01*
X1868Y1524D01*
X1866Y1524D01*
X1866Y1522D01*
X1864Y1522D01*
X1864Y1518D01*
X1862Y1518D01*
X1862Y1514D01*
X1860Y1514D01*
X1860Y1512D01*
X1858Y1512D01*
X1858Y1510D01*
X1856Y1510D01*
X1856Y1508D01*
X1854Y1508D01*
X1854Y1506D01*
X1852Y1506D01*
X1852Y1504D01*
X1850Y1504D01*
X1850Y1502D01*
X1846Y1502D01*
X1846Y1500D01*
X1842Y1500D01*
X1842Y1498D01*
X1838Y1498D01*
X1838Y1496D01*
X1832Y1496D01*
X1832Y1494D01*
X1896Y1494D01*
X1896Y1630D01*
X1886Y1630D01*
X1886Y1632D01*
X1768Y1632D01*
X1768Y1732D01*
X880Y1732D01*
G37*
D02*
G36*
X710Y1696D02*
X710Y1694D01*
X706Y1694D01*
X706Y1672D01*
X710Y1672D01*
X710Y1670D01*
X712Y1670D01*
X712Y1668D01*
X714Y1668D01*
X714Y1666D01*
X716Y1666D01*
X716Y1664D01*
X738Y1664D01*
X738Y1662D01*
X1126Y1662D01*
X1126Y1656D01*
X1228Y1656D01*
X1228Y1654D01*
X1234Y1654D01*
X1234Y1652D01*
X1236Y1652D01*
X1236Y1650D01*
X1240Y1650D01*
X1240Y1648D01*
X1242Y1648D01*
X1242Y1646D01*
X1246Y1646D01*
X1246Y1644D01*
X1248Y1644D01*
X1248Y1642D01*
X1250Y1642D01*
X1250Y1640D01*
X1254Y1640D01*
X1254Y1638D01*
X1256Y1638D01*
X1256Y1636D01*
X1258Y1636D01*
X1258Y1634D01*
X1260Y1634D01*
X1260Y1632D01*
X1264Y1632D01*
X1264Y1630D01*
X1266Y1630D01*
X1266Y1628D01*
X1268Y1628D01*
X1268Y1626D01*
X1272Y1626D01*
X1272Y1624D01*
X1274Y1624D01*
X1274Y1622D01*
X1276Y1622D01*
X1276Y1620D01*
X1280Y1620D01*
X1280Y1618D01*
X1282Y1618D01*
X1282Y1616D01*
X1284Y1616D01*
X1284Y1614D01*
X1286Y1614D01*
X1286Y1612D01*
X1290Y1612D01*
X1290Y1610D01*
X1292Y1610D01*
X1292Y1608D01*
X1294Y1608D01*
X1294Y1606D01*
X1298Y1606D01*
X1298Y1604D01*
X1300Y1604D01*
X1300Y1602D01*
X1302Y1602D01*
X1302Y1600D01*
X1306Y1600D01*
X1306Y1598D01*
X1308Y1598D01*
X1308Y1596D01*
X1310Y1596D01*
X1310Y1594D01*
X1312Y1594D01*
X1312Y1592D01*
X1316Y1592D01*
X1316Y1590D01*
X1318Y1590D01*
X1318Y1588D01*
X1320Y1588D01*
X1320Y1586D01*
X1396Y1586D01*
X1396Y1606D01*
X1398Y1606D01*
X1398Y1612D01*
X1400Y1612D01*
X1400Y1614D01*
X1402Y1614D01*
X1402Y1618D01*
X1404Y1618D01*
X1404Y1620D01*
X1406Y1620D01*
X1406Y1622D01*
X1408Y1622D01*
X1408Y1626D01*
X1410Y1626D01*
X1410Y1628D01*
X1412Y1628D01*
X1412Y1630D01*
X1414Y1630D01*
X1414Y1632D01*
X1416Y1632D01*
X1416Y1636D01*
X1418Y1636D01*
X1418Y1638D01*
X1420Y1638D01*
X1420Y1640D01*
X1422Y1640D01*
X1422Y1642D01*
X1424Y1642D01*
X1424Y1646D01*
X1426Y1646D01*
X1426Y1648D01*
X1428Y1648D01*
X1428Y1650D01*
X1430Y1650D01*
X1430Y1654D01*
X1432Y1654D01*
X1432Y1656D01*
X1434Y1656D01*
X1434Y1658D01*
X1436Y1658D01*
X1436Y1660D01*
X1438Y1660D01*
X1438Y1664D01*
X1440Y1664D01*
X1440Y1666D01*
X1442Y1666D01*
X1442Y1668D01*
X1444Y1668D01*
X1444Y1670D01*
X1446Y1670D01*
X1446Y1674D01*
X1448Y1674D01*
X1448Y1676D01*
X1450Y1676D01*
X1450Y1678D01*
X1452Y1678D01*
X1452Y1680D01*
X1454Y1680D01*
X1454Y1682D01*
X1456Y1682D01*
X1456Y1686D01*
X1460Y1686D01*
X1460Y1688D01*
X1462Y1688D01*
X1462Y1690D01*
X1466Y1690D01*
X1466Y1692D01*
X1470Y1692D01*
X1470Y1694D01*
X1480Y1694D01*
X1480Y1696D01*
X710Y1696D01*
G37*
D02*
G36*
X756Y1662D02*
X756Y1660D01*
X774Y1660D01*
X774Y1658D01*
X792Y1658D01*
X792Y1656D01*
X1038Y1656D01*
X1038Y1662D01*
X756Y1662D01*
G37*
D02*
G36*
X1500Y1624D02*
X1500Y1622D01*
X1498Y1622D01*
X1498Y1620D01*
X1496Y1620D01*
X1496Y1618D01*
X1494Y1618D01*
X1494Y1616D01*
X1492Y1616D01*
X1492Y1612D01*
X1490Y1612D01*
X1490Y1610D01*
X1488Y1610D01*
X1488Y1608D01*
X1486Y1608D01*
X1486Y1606D01*
X1484Y1606D01*
X1484Y1602D01*
X1482Y1602D01*
X1482Y1600D01*
X1480Y1600D01*
X1480Y1598D01*
X1478Y1598D01*
X1478Y1596D01*
X1476Y1596D01*
X1476Y1592D01*
X1474Y1592D01*
X1474Y1590D01*
X1472Y1590D01*
X1472Y1588D01*
X1470Y1588D01*
X1470Y1586D01*
X1542Y1586D01*
X1542Y1584D01*
X1550Y1584D01*
X1550Y1582D01*
X1554Y1582D01*
X1554Y1580D01*
X1558Y1580D01*
X1558Y1578D01*
X1562Y1578D01*
X1562Y1576D01*
X1564Y1576D01*
X1564Y1574D01*
X1566Y1574D01*
X1566Y1572D01*
X1568Y1572D01*
X1568Y1570D01*
X1570Y1570D01*
X1570Y1568D01*
X1572Y1568D01*
X1572Y1566D01*
X1574Y1566D01*
X1574Y1564D01*
X1576Y1564D01*
X1576Y1560D01*
X1578Y1560D01*
X1578Y1556D01*
X1580Y1556D01*
X1580Y1552D01*
X1582Y1552D01*
X1582Y1546D01*
X1584Y1546D01*
X1584Y1520D01*
X1582Y1520D01*
X1582Y1514D01*
X1580Y1514D01*
X1580Y1510D01*
X1578Y1510D01*
X1578Y1506D01*
X1576Y1506D01*
X1576Y1502D01*
X1574Y1502D01*
X1574Y1500D01*
X1572Y1500D01*
X1572Y1498D01*
X1570Y1498D01*
X1570Y1496D01*
X1568Y1496D01*
X1568Y1494D01*
X1806Y1494D01*
X1806Y1496D01*
X1800Y1496D01*
X1800Y1498D01*
X1796Y1498D01*
X1796Y1500D01*
X1792Y1500D01*
X1792Y1502D01*
X1790Y1502D01*
X1790Y1504D01*
X1786Y1504D01*
X1786Y1506D01*
X1784Y1506D01*
X1784Y1508D01*
X1782Y1508D01*
X1782Y1510D01*
X1754Y1510D01*
X1754Y1512D01*
X1744Y1512D01*
X1744Y1514D01*
X1740Y1514D01*
X1740Y1516D01*
X1736Y1516D01*
X1736Y1518D01*
X1734Y1518D01*
X1734Y1520D01*
X1732Y1520D01*
X1732Y1522D01*
X1730Y1522D01*
X1730Y1524D01*
X1728Y1524D01*
X1728Y1526D01*
X1726Y1526D01*
X1726Y1528D01*
X1724Y1528D01*
X1724Y1530D01*
X1722Y1530D01*
X1722Y1532D01*
X1720Y1532D01*
X1720Y1534D01*
X1718Y1534D01*
X1718Y1536D01*
X1716Y1536D01*
X1716Y1538D01*
X1714Y1538D01*
X1714Y1540D01*
X1712Y1540D01*
X1712Y1542D01*
X1710Y1542D01*
X1710Y1544D01*
X1708Y1544D01*
X1708Y1546D01*
X1706Y1546D01*
X1706Y1548D01*
X1704Y1548D01*
X1704Y1550D01*
X1702Y1550D01*
X1702Y1552D01*
X1700Y1552D01*
X1700Y1554D01*
X1698Y1554D01*
X1698Y1556D01*
X1696Y1556D01*
X1696Y1558D01*
X1694Y1558D01*
X1694Y1560D01*
X1692Y1560D01*
X1692Y1562D01*
X1690Y1562D01*
X1690Y1564D01*
X1688Y1564D01*
X1688Y1566D01*
X1686Y1566D01*
X1686Y1568D01*
X1684Y1568D01*
X1684Y1570D01*
X1682Y1570D01*
X1682Y1572D01*
X1680Y1572D01*
X1680Y1574D01*
X1678Y1574D01*
X1678Y1576D01*
X1676Y1576D01*
X1676Y1578D01*
X1674Y1578D01*
X1674Y1580D01*
X1672Y1580D01*
X1672Y1582D01*
X1670Y1582D01*
X1670Y1584D01*
X1668Y1584D01*
X1668Y1586D01*
X1666Y1586D01*
X1666Y1588D01*
X1664Y1588D01*
X1664Y1590D01*
X1662Y1590D01*
X1662Y1592D01*
X1660Y1592D01*
X1660Y1594D01*
X1658Y1594D01*
X1658Y1596D01*
X1656Y1596D01*
X1656Y1598D01*
X1654Y1598D01*
X1654Y1600D01*
X1652Y1600D01*
X1652Y1602D01*
X1650Y1602D01*
X1650Y1604D01*
X1648Y1604D01*
X1648Y1606D01*
X1646Y1606D01*
X1646Y1608D01*
X1644Y1608D01*
X1644Y1610D01*
X1642Y1610D01*
X1642Y1612D01*
X1640Y1612D01*
X1640Y1614D01*
X1638Y1614D01*
X1638Y1616D01*
X1636Y1616D01*
X1636Y1618D01*
X1634Y1618D01*
X1634Y1620D01*
X1632Y1620D01*
X1632Y1622D01*
X1630Y1622D01*
X1630Y1624D01*
X1500Y1624D01*
G37*
D02*
G36*
X1758Y1598D02*
X1758Y1596D01*
X1760Y1596D01*
X1760Y1594D01*
X1762Y1594D01*
X1762Y1592D01*
X1764Y1592D01*
X1764Y1590D01*
X1766Y1590D01*
X1766Y1588D01*
X1768Y1588D01*
X1768Y1586D01*
X1788Y1586D01*
X1788Y1588D01*
X1792Y1588D01*
X1792Y1590D01*
X1796Y1590D01*
X1796Y1592D01*
X1798Y1592D01*
X1798Y1594D01*
X1804Y1594D01*
X1804Y1596D01*
X1814Y1596D01*
X1814Y1598D01*
X1758Y1598D01*
G37*
D02*
G36*
X706Y1592D02*
X706Y1572D01*
X710Y1572D01*
X710Y1570D01*
X712Y1570D01*
X712Y1568D01*
X714Y1568D01*
X714Y1566D01*
X716Y1566D01*
X716Y1564D01*
X718Y1564D01*
X718Y1562D01*
X720Y1562D01*
X720Y1558D01*
X722Y1558D01*
X722Y1556D01*
X724Y1556D01*
X724Y1552D01*
X726Y1552D01*
X726Y1546D01*
X728Y1546D01*
X728Y1522D01*
X726Y1522D01*
X726Y1514D01*
X724Y1514D01*
X724Y1510D01*
X722Y1510D01*
X722Y1508D01*
X720Y1508D01*
X720Y1504D01*
X718Y1504D01*
X718Y1502D01*
X716Y1502D01*
X716Y1500D01*
X714Y1500D01*
X714Y1498D01*
X712Y1498D01*
X712Y1496D01*
X710Y1496D01*
X710Y1494D01*
X706Y1494D01*
X706Y1472D01*
X710Y1472D01*
X710Y1470D01*
X712Y1470D01*
X712Y1468D01*
X714Y1468D01*
X714Y1466D01*
X716Y1466D01*
X716Y1464D01*
X718Y1464D01*
X718Y1462D01*
X720Y1462D01*
X720Y1458D01*
X722Y1458D01*
X722Y1456D01*
X724Y1456D01*
X724Y1452D01*
X726Y1452D01*
X726Y1446D01*
X728Y1446D01*
X728Y1422D01*
X726Y1422D01*
X726Y1414D01*
X724Y1414D01*
X724Y1410D01*
X722Y1410D01*
X722Y1408D01*
X720Y1408D01*
X720Y1404D01*
X718Y1404D01*
X718Y1402D01*
X716Y1402D01*
X716Y1400D01*
X714Y1400D01*
X714Y1398D01*
X712Y1398D01*
X712Y1396D01*
X710Y1396D01*
X710Y1394D01*
X706Y1394D01*
X706Y1372D01*
X710Y1372D01*
X710Y1370D01*
X712Y1370D01*
X712Y1368D01*
X714Y1368D01*
X714Y1366D01*
X716Y1366D01*
X716Y1364D01*
X718Y1364D01*
X718Y1362D01*
X720Y1362D01*
X720Y1358D01*
X722Y1358D01*
X722Y1356D01*
X724Y1356D01*
X724Y1352D01*
X726Y1352D01*
X726Y1346D01*
X1124Y1346D01*
X1124Y1348D01*
X1116Y1348D01*
X1116Y1350D01*
X1110Y1350D01*
X1110Y1352D01*
X1108Y1352D01*
X1108Y1354D01*
X1104Y1354D01*
X1104Y1356D01*
X1102Y1356D01*
X1102Y1358D01*
X1098Y1358D01*
X1098Y1360D01*
X1096Y1360D01*
X1096Y1362D01*
X1094Y1362D01*
X1094Y1366D01*
X1092Y1366D01*
X1092Y1368D01*
X1090Y1368D01*
X1090Y1372D01*
X1088Y1372D01*
X1088Y1374D01*
X1086Y1374D01*
X1086Y1380D01*
X1084Y1380D01*
X1084Y1388D01*
X1082Y1388D01*
X1082Y1426D01*
X1080Y1426D01*
X1080Y1430D01*
X1078Y1430D01*
X1078Y1436D01*
X1076Y1436D01*
X1076Y1440D01*
X1074Y1440D01*
X1074Y1446D01*
X1072Y1446D01*
X1072Y1450D01*
X1070Y1450D01*
X1070Y1456D01*
X1068Y1456D01*
X1068Y1460D01*
X1066Y1460D01*
X1066Y1466D01*
X1064Y1466D01*
X1064Y1470D01*
X1062Y1470D01*
X1062Y1476D01*
X1060Y1476D01*
X1060Y1480D01*
X1058Y1480D01*
X1058Y1486D01*
X1054Y1486D01*
X1054Y1488D01*
X1052Y1488D01*
X1052Y1490D01*
X1050Y1490D01*
X1050Y1492D01*
X1048Y1492D01*
X1048Y1494D01*
X1046Y1494D01*
X1046Y1498D01*
X1044Y1498D01*
X1044Y1502D01*
X1042Y1502D01*
X1042Y1506D01*
X1040Y1506D01*
X1040Y1514D01*
X1038Y1514D01*
X1038Y1528D01*
X1040Y1528D01*
X1040Y1536D01*
X1042Y1536D01*
X1042Y1540D01*
X1044Y1540D01*
X1044Y1544D01*
X1046Y1544D01*
X1046Y1546D01*
X1048Y1546D01*
X1048Y1548D01*
X1050Y1548D01*
X1050Y1552D01*
X1054Y1552D01*
X1054Y1554D01*
X1056Y1554D01*
X1056Y1556D01*
X1058Y1556D01*
X1058Y1576D01*
X1038Y1576D01*
X1038Y1584D01*
X788Y1584D01*
X788Y1586D01*
X770Y1586D01*
X770Y1588D01*
X752Y1588D01*
X752Y1590D01*
X734Y1590D01*
X734Y1592D01*
X706Y1592D01*
G37*
D02*
G36*
X1470Y1586D02*
X1470Y1568D01*
X1472Y1568D01*
X1472Y1566D01*
X1492Y1566D01*
X1492Y1568D01*
X1494Y1568D01*
X1494Y1572D01*
X1498Y1572D01*
X1498Y1574D01*
X1500Y1574D01*
X1500Y1576D01*
X1502Y1576D01*
X1502Y1578D01*
X1506Y1578D01*
X1506Y1580D01*
X1510Y1580D01*
X1510Y1582D01*
X1514Y1582D01*
X1514Y1584D01*
X1522Y1584D01*
X1522Y1586D01*
X1470Y1586D01*
G37*
D02*
G36*
X1126Y1584D02*
X1126Y1576D01*
X1106Y1576D01*
X1106Y1556D01*
X1108Y1556D01*
X1108Y1554D01*
X1110Y1554D01*
X1110Y1552D01*
X1112Y1552D01*
X1112Y1550D01*
X1114Y1550D01*
X1114Y1548D01*
X1116Y1548D01*
X1116Y1546D01*
X1118Y1546D01*
X1118Y1542D01*
X1120Y1542D01*
X1120Y1540D01*
X1122Y1540D01*
X1122Y1534D01*
X1124Y1534D01*
X1124Y1526D01*
X1126Y1526D01*
X1126Y1504D01*
X1128Y1504D01*
X1128Y1500D01*
X1130Y1500D01*
X1130Y1494D01*
X1132Y1494D01*
X1132Y1490D01*
X1134Y1490D01*
X1134Y1484D01*
X1136Y1484D01*
X1136Y1480D01*
X1278Y1480D01*
X1278Y1530D01*
X1276Y1530D01*
X1276Y1532D01*
X1272Y1532D01*
X1272Y1534D01*
X1270Y1534D01*
X1270Y1536D01*
X1268Y1536D01*
X1268Y1538D01*
X1266Y1538D01*
X1266Y1540D01*
X1262Y1540D01*
X1262Y1542D01*
X1260Y1542D01*
X1260Y1544D01*
X1258Y1544D01*
X1258Y1546D01*
X1254Y1546D01*
X1254Y1548D01*
X1252Y1548D01*
X1252Y1550D01*
X1250Y1550D01*
X1250Y1552D01*
X1246Y1552D01*
X1246Y1554D01*
X1244Y1554D01*
X1244Y1556D01*
X1242Y1556D01*
X1242Y1558D01*
X1240Y1558D01*
X1240Y1560D01*
X1236Y1560D01*
X1236Y1562D01*
X1234Y1562D01*
X1234Y1564D01*
X1232Y1564D01*
X1232Y1566D01*
X1228Y1566D01*
X1228Y1568D01*
X1226Y1568D01*
X1226Y1570D01*
X1224Y1570D01*
X1224Y1572D01*
X1220Y1572D01*
X1220Y1574D01*
X1218Y1574D01*
X1218Y1576D01*
X1216Y1576D01*
X1216Y1578D01*
X1212Y1578D01*
X1212Y1580D01*
X1210Y1580D01*
X1210Y1582D01*
X1208Y1582D01*
X1208Y1584D01*
X1126Y1584D01*
G37*
D02*
G36*
X1472Y1500D02*
X1472Y1498D01*
X1470Y1498D01*
X1470Y1496D01*
X1468Y1496D01*
X1468Y1494D01*
X1466Y1494D01*
X1466Y1492D01*
X1464Y1492D01*
X1464Y1490D01*
X1460Y1490D01*
X1460Y1488D01*
X1458Y1488D01*
X1458Y1486D01*
X1454Y1486D01*
X1454Y1484D01*
X1448Y1484D01*
X1448Y1482D01*
X1440Y1482D01*
X1440Y1480D01*
X1522Y1480D01*
X1522Y1482D01*
X1514Y1482D01*
X1514Y1484D01*
X1510Y1484D01*
X1510Y1486D01*
X1506Y1486D01*
X1506Y1488D01*
X1502Y1488D01*
X1502Y1490D01*
X1500Y1490D01*
X1500Y1492D01*
X1498Y1492D01*
X1498Y1494D01*
X1496Y1494D01*
X1496Y1496D01*
X1494Y1496D01*
X1494Y1498D01*
X1492Y1498D01*
X1492Y1500D01*
X1472Y1500D01*
G37*
D02*
G36*
X1566Y1494D02*
X1566Y1492D01*
X1896Y1492D01*
X1896Y1494D01*
X1566Y1494D01*
G37*
D02*
G36*
X1566Y1494D02*
X1566Y1492D01*
X1896Y1492D01*
X1896Y1494D01*
X1566Y1494D01*
G37*
D02*
G36*
X1564Y1492D02*
X1564Y1490D01*
X1560Y1490D01*
X1560Y1488D01*
X1558Y1488D01*
X1558Y1486D01*
X1554Y1486D01*
X1554Y1484D01*
X1548Y1484D01*
X1548Y1482D01*
X1540Y1482D01*
X1540Y1480D01*
X1896Y1480D01*
X1896Y1492D01*
X1564Y1492D01*
G37*
D02*
G36*
X1384Y1488D02*
X1384Y1480D01*
X1422Y1480D01*
X1422Y1482D01*
X1414Y1482D01*
X1414Y1484D01*
X1410Y1484D01*
X1410Y1486D01*
X1406Y1486D01*
X1406Y1488D01*
X1384Y1488D01*
G37*
D02*
G36*
X1138Y1480D02*
X1138Y1478D01*
X1896Y1478D01*
X1896Y1480D01*
X1138Y1480D01*
G37*
D02*
G36*
X1138Y1480D02*
X1138Y1478D01*
X1896Y1478D01*
X1896Y1480D01*
X1138Y1480D01*
G37*
D02*
G36*
X1138Y1480D02*
X1138Y1478D01*
X1896Y1478D01*
X1896Y1480D01*
X1138Y1480D01*
G37*
D02*
G36*
X1138Y1480D02*
X1138Y1478D01*
X1896Y1478D01*
X1896Y1480D01*
X1138Y1480D01*
G37*
D02*
G36*
X1138Y1478D02*
X1138Y1474D01*
X1140Y1474D01*
X1140Y1470D01*
X1142Y1470D01*
X1142Y1464D01*
X1144Y1464D01*
X1144Y1460D01*
X1146Y1460D01*
X1146Y1454D01*
X1148Y1454D01*
X1148Y1450D01*
X1150Y1450D01*
X1150Y1446D01*
X1534Y1446D01*
X1534Y1444D01*
X1546Y1444D01*
X1546Y1442D01*
X1552Y1442D01*
X1552Y1440D01*
X1556Y1440D01*
X1556Y1438D01*
X1558Y1438D01*
X1558Y1436D01*
X1562Y1436D01*
X1562Y1434D01*
X1564Y1434D01*
X1564Y1432D01*
X1566Y1432D01*
X1566Y1430D01*
X1568Y1430D01*
X1568Y1428D01*
X1570Y1428D01*
X1570Y1426D01*
X1572Y1426D01*
X1572Y1422D01*
X1574Y1422D01*
X1574Y1420D01*
X1576Y1420D01*
X1576Y1416D01*
X1578Y1416D01*
X1578Y1410D01*
X1580Y1410D01*
X1580Y1400D01*
X1582Y1400D01*
X1582Y1390D01*
X1580Y1390D01*
X1580Y1382D01*
X1578Y1382D01*
X1578Y1376D01*
X1576Y1376D01*
X1576Y1372D01*
X1574Y1372D01*
X1574Y1368D01*
X1572Y1368D01*
X1572Y1366D01*
X1570Y1366D01*
X1570Y1364D01*
X1568Y1364D01*
X1568Y1360D01*
X1564Y1360D01*
X1564Y1358D01*
X1562Y1358D01*
X1562Y1356D01*
X1560Y1356D01*
X1560Y1354D01*
X1556Y1354D01*
X1556Y1352D01*
X1552Y1352D01*
X1552Y1350D01*
X1548Y1350D01*
X1548Y1348D01*
X1540Y1348D01*
X1540Y1346D01*
X1896Y1346D01*
X1896Y1478D01*
X1138Y1478D01*
G37*
D02*
G36*
X1150Y1446D02*
X1150Y1444D01*
X1152Y1444D01*
X1152Y1440D01*
X1156Y1440D01*
X1156Y1438D01*
X1158Y1438D01*
X1158Y1436D01*
X1162Y1436D01*
X1162Y1434D01*
X1164Y1434D01*
X1164Y1432D01*
X1166Y1432D01*
X1166Y1430D01*
X1168Y1430D01*
X1168Y1428D01*
X1170Y1428D01*
X1170Y1426D01*
X1172Y1426D01*
X1172Y1422D01*
X1174Y1422D01*
X1174Y1420D01*
X1176Y1420D01*
X1176Y1416D01*
X1178Y1416D01*
X1178Y1410D01*
X1180Y1410D01*
X1180Y1400D01*
X1182Y1400D01*
X1182Y1390D01*
X1180Y1390D01*
X1180Y1382D01*
X1178Y1382D01*
X1178Y1376D01*
X1176Y1376D01*
X1176Y1372D01*
X1174Y1372D01*
X1174Y1368D01*
X1172Y1368D01*
X1172Y1366D01*
X1170Y1366D01*
X1170Y1364D01*
X1168Y1364D01*
X1168Y1360D01*
X1164Y1360D01*
X1164Y1358D01*
X1162Y1358D01*
X1162Y1356D01*
X1160Y1356D01*
X1160Y1354D01*
X1156Y1354D01*
X1156Y1352D01*
X1152Y1352D01*
X1152Y1350D01*
X1148Y1350D01*
X1148Y1348D01*
X1140Y1348D01*
X1140Y1346D01*
X1524Y1346D01*
X1524Y1348D01*
X1516Y1348D01*
X1516Y1350D01*
X1510Y1350D01*
X1510Y1352D01*
X1508Y1352D01*
X1508Y1354D01*
X1504Y1354D01*
X1504Y1356D01*
X1502Y1356D01*
X1502Y1358D01*
X1498Y1358D01*
X1498Y1360D01*
X1496Y1360D01*
X1496Y1362D01*
X1494Y1362D01*
X1494Y1366D01*
X1492Y1366D01*
X1492Y1368D01*
X1490Y1368D01*
X1490Y1372D01*
X1488Y1372D01*
X1488Y1374D01*
X1486Y1374D01*
X1486Y1380D01*
X1484Y1380D01*
X1484Y1388D01*
X1482Y1388D01*
X1482Y1402D01*
X1484Y1402D01*
X1484Y1410D01*
X1486Y1410D01*
X1486Y1416D01*
X1488Y1416D01*
X1488Y1420D01*
X1490Y1420D01*
X1490Y1424D01*
X1492Y1424D01*
X1492Y1426D01*
X1494Y1426D01*
X1494Y1428D01*
X1496Y1428D01*
X1496Y1430D01*
X1498Y1430D01*
X1498Y1432D01*
X1500Y1432D01*
X1500Y1434D01*
X1502Y1434D01*
X1502Y1436D01*
X1506Y1436D01*
X1506Y1438D01*
X1508Y1438D01*
X1508Y1440D01*
X1512Y1440D01*
X1512Y1442D01*
X1518Y1442D01*
X1518Y1444D01*
X1530Y1444D01*
X1530Y1446D01*
X1150Y1446D01*
G37*
D02*
G36*
X728Y1346D02*
X728Y1344D01*
X1896Y1344D01*
X1896Y1346D01*
X728Y1346D01*
G37*
D02*
G36*
X728Y1346D02*
X728Y1344D01*
X1896Y1344D01*
X1896Y1346D01*
X728Y1346D01*
G37*
D02*
G36*
X728Y1346D02*
X728Y1344D01*
X1896Y1344D01*
X1896Y1346D01*
X728Y1346D01*
G37*
D02*
G36*
X728Y1344D02*
X728Y1322D01*
X726Y1322D01*
X726Y1314D01*
X724Y1314D01*
X724Y1310D01*
X722Y1310D01*
X722Y1308D01*
X720Y1308D01*
X720Y1304D01*
X718Y1304D01*
X718Y1302D01*
X716Y1302D01*
X716Y1300D01*
X714Y1300D01*
X714Y1298D01*
X712Y1298D01*
X712Y1296D01*
X1242Y1296D01*
X1242Y1294D01*
X1244Y1294D01*
X1244Y1266D01*
X1622Y1266D01*
X1622Y1264D01*
X1638Y1264D01*
X1638Y1262D01*
X1644Y1262D01*
X1644Y1260D01*
X1650Y1260D01*
X1650Y1258D01*
X1654Y1258D01*
X1654Y1256D01*
X1658Y1256D01*
X1658Y1254D01*
X1662Y1254D01*
X1662Y1252D01*
X1666Y1252D01*
X1666Y1250D01*
X1668Y1250D01*
X1668Y1248D01*
X1670Y1248D01*
X1670Y1246D01*
X1672Y1246D01*
X1672Y1244D01*
X1676Y1244D01*
X1676Y1242D01*
X1678Y1242D01*
X1678Y1240D01*
X1680Y1240D01*
X1680Y1236D01*
X1682Y1236D01*
X1682Y1234D01*
X1684Y1234D01*
X1684Y1232D01*
X1686Y1232D01*
X1686Y1230D01*
X1688Y1230D01*
X1688Y1226D01*
X1690Y1226D01*
X1690Y1222D01*
X1692Y1222D01*
X1692Y1218D01*
X1694Y1218D01*
X1694Y1214D01*
X1696Y1214D01*
X1696Y1210D01*
X1698Y1210D01*
X1698Y1202D01*
X1700Y1202D01*
X1700Y1188D01*
X1702Y1188D01*
X1702Y1178D01*
X1700Y1178D01*
X1700Y1164D01*
X1698Y1164D01*
X1698Y1158D01*
X1696Y1158D01*
X1696Y1152D01*
X1694Y1152D01*
X1694Y1148D01*
X1692Y1148D01*
X1692Y1144D01*
X1690Y1144D01*
X1690Y1140D01*
X1688Y1140D01*
X1688Y1138D01*
X1686Y1138D01*
X1686Y1134D01*
X1684Y1134D01*
X1684Y1132D01*
X1682Y1132D01*
X1682Y1130D01*
X1680Y1130D01*
X1680Y1128D01*
X1678Y1128D01*
X1678Y1124D01*
X1674Y1124D01*
X1674Y1122D01*
X1672Y1122D01*
X1672Y1120D01*
X1670Y1120D01*
X1670Y1118D01*
X1668Y1118D01*
X1668Y1116D01*
X1664Y1116D01*
X1664Y1114D01*
X1662Y1114D01*
X1662Y1112D01*
X1658Y1112D01*
X1658Y1110D01*
X1654Y1110D01*
X1654Y1108D01*
X1650Y1108D01*
X1650Y1106D01*
X1644Y1106D01*
X1644Y1104D01*
X1636Y1104D01*
X1636Y1102D01*
X1896Y1102D01*
X1896Y1344D01*
X728Y1344D01*
G37*
D02*
G36*
X710Y1296D02*
X710Y1294D01*
X706Y1294D01*
X706Y1272D01*
X710Y1272D01*
X710Y1270D01*
X712Y1270D01*
X712Y1268D01*
X714Y1268D01*
X714Y1266D01*
X716Y1266D01*
X716Y1264D01*
X718Y1264D01*
X718Y1262D01*
X720Y1262D01*
X720Y1258D01*
X722Y1258D01*
X722Y1256D01*
X724Y1256D01*
X724Y1252D01*
X726Y1252D01*
X726Y1246D01*
X728Y1246D01*
X728Y1222D01*
X726Y1222D01*
X726Y1214D01*
X724Y1214D01*
X724Y1210D01*
X722Y1210D01*
X722Y1208D01*
X720Y1208D01*
X720Y1204D01*
X718Y1204D01*
X718Y1202D01*
X716Y1202D01*
X716Y1200D01*
X714Y1200D01*
X714Y1198D01*
X712Y1198D01*
X712Y1196D01*
X710Y1196D01*
X710Y1194D01*
X706Y1194D01*
X706Y1172D01*
X710Y1172D01*
X710Y1170D01*
X712Y1170D01*
X712Y1168D01*
X714Y1168D01*
X714Y1166D01*
X716Y1166D01*
X716Y1164D01*
X718Y1164D01*
X718Y1162D01*
X720Y1162D01*
X720Y1158D01*
X722Y1158D01*
X722Y1156D01*
X724Y1156D01*
X724Y1152D01*
X726Y1152D01*
X726Y1146D01*
X728Y1146D01*
X728Y1122D01*
X726Y1122D01*
X726Y1114D01*
X724Y1114D01*
X724Y1110D01*
X722Y1110D01*
X722Y1108D01*
X720Y1108D01*
X720Y1104D01*
X718Y1104D01*
X718Y1102D01*
X716Y1102D01*
X716Y1100D01*
X714Y1100D01*
X714Y1098D01*
X712Y1098D01*
X712Y1096D01*
X710Y1096D01*
X710Y1094D01*
X706Y1094D01*
X706Y1072D01*
X710Y1072D01*
X710Y1070D01*
X712Y1070D01*
X712Y1068D01*
X714Y1068D01*
X714Y1066D01*
X716Y1066D01*
X716Y1064D01*
X718Y1064D01*
X718Y1062D01*
X720Y1062D01*
X720Y1058D01*
X722Y1058D01*
X722Y1056D01*
X724Y1056D01*
X724Y1052D01*
X726Y1052D01*
X726Y1046D01*
X728Y1046D01*
X728Y1022D01*
X726Y1022D01*
X726Y1014D01*
X724Y1014D01*
X724Y1010D01*
X722Y1010D01*
X722Y1008D01*
X720Y1008D01*
X720Y1004D01*
X718Y1004D01*
X718Y1002D01*
X716Y1002D01*
X716Y1000D01*
X714Y1000D01*
X714Y980D01*
X728Y980D01*
X728Y886D01*
X958Y886D01*
X958Y908D01*
X956Y908D01*
X956Y910D01*
X954Y910D01*
X954Y912D01*
X952Y912D01*
X952Y916D01*
X950Y916D01*
X950Y918D01*
X948Y918D01*
X948Y922D01*
X946Y922D01*
X946Y926D01*
X944Y926D01*
X944Y930D01*
X938Y930D01*
X938Y932D01*
X934Y932D01*
X934Y934D01*
X930Y934D01*
X930Y936D01*
X926Y936D01*
X926Y938D01*
X920Y938D01*
X920Y940D01*
X916Y940D01*
X916Y942D01*
X912Y942D01*
X912Y944D01*
X908Y944D01*
X908Y946D01*
X904Y946D01*
X904Y948D01*
X898Y948D01*
X898Y950D01*
X894Y950D01*
X894Y952D01*
X890Y952D01*
X890Y954D01*
X886Y954D01*
X886Y956D01*
X884Y956D01*
X884Y958D01*
X882Y958D01*
X882Y960D01*
X880Y960D01*
X880Y962D01*
X878Y962D01*
X878Y966D01*
X876Y966D01*
X876Y968D01*
X874Y968D01*
X874Y974D01*
X872Y974D01*
X872Y1084D01*
X870Y1084D01*
X870Y1114D01*
X868Y1114D01*
X868Y1116D01*
X866Y1116D01*
X866Y1120D01*
X864Y1120D01*
X864Y1124D01*
X862Y1124D01*
X862Y1128D01*
X860Y1128D01*
X860Y1134D01*
X858Y1134D01*
X858Y1158D01*
X860Y1158D01*
X860Y1164D01*
X862Y1164D01*
X862Y1168D01*
X864Y1168D01*
X864Y1172D01*
X866Y1172D01*
X866Y1174D01*
X868Y1174D01*
X868Y1196D01*
X858Y1196D01*
X858Y1296D01*
X710Y1296D01*
G37*
D02*
G36*
X956Y1296D02*
X956Y1196D01*
X944Y1196D01*
X944Y1176D01*
X946Y1176D01*
X946Y1174D01*
X948Y1174D01*
X948Y1170D01*
X950Y1170D01*
X950Y1168D01*
X952Y1168D01*
X952Y1162D01*
X954Y1162D01*
X954Y1156D01*
X956Y1156D01*
X956Y1134D01*
X954Y1134D01*
X954Y1128D01*
X952Y1128D01*
X952Y1124D01*
X950Y1124D01*
X950Y1120D01*
X948Y1120D01*
X948Y1118D01*
X946Y1118D01*
X946Y1114D01*
X944Y1114D01*
X944Y1112D01*
X942Y1112D01*
X942Y1088D01*
X944Y1088D01*
X944Y1008D01*
X946Y1008D01*
X946Y1006D01*
X950Y1006D01*
X950Y1004D01*
X954Y1004D01*
X954Y1002D01*
X958Y1002D01*
X958Y1000D01*
X964Y1000D01*
X964Y998D01*
X1106Y998D01*
X1106Y996D01*
X1114Y996D01*
X1114Y994D01*
X1118Y994D01*
X1118Y992D01*
X1122Y992D01*
X1122Y990D01*
X1142Y990D01*
X1142Y998D01*
X1158Y998D01*
X1158Y1114D01*
X1156Y1114D01*
X1156Y1116D01*
X1154Y1116D01*
X1154Y1118D01*
X1152Y1118D01*
X1152Y1122D01*
X1150Y1122D01*
X1150Y1126D01*
X1148Y1126D01*
X1148Y1132D01*
X1146Y1132D01*
X1146Y1142D01*
X1144Y1142D01*
X1144Y1148D01*
X1146Y1148D01*
X1146Y1160D01*
X1148Y1160D01*
X1148Y1166D01*
X1150Y1166D01*
X1150Y1168D01*
X1152Y1168D01*
X1152Y1172D01*
X1154Y1172D01*
X1154Y1176D01*
X1156Y1176D01*
X1156Y1196D01*
X1144Y1196D01*
X1144Y1294D01*
X1146Y1294D01*
X1146Y1296D01*
X956Y1296D01*
G37*
D02*
G36*
X1244Y1266D02*
X1244Y1196D01*
X1232Y1196D01*
X1232Y1176D01*
X1234Y1176D01*
X1234Y1174D01*
X1236Y1174D01*
X1236Y1170D01*
X1238Y1170D01*
X1238Y1166D01*
X1240Y1166D01*
X1240Y1162D01*
X1242Y1162D01*
X1242Y1154D01*
X1244Y1154D01*
X1244Y1138D01*
X1242Y1138D01*
X1242Y1114D01*
X1244Y1114D01*
X1244Y1108D01*
X1246Y1108D01*
X1246Y1102D01*
X1602Y1102D01*
X1602Y1104D01*
X1594Y1104D01*
X1594Y1106D01*
X1588Y1106D01*
X1588Y1108D01*
X1584Y1108D01*
X1584Y1110D01*
X1580Y1110D01*
X1580Y1112D01*
X1578Y1112D01*
X1578Y1114D01*
X1574Y1114D01*
X1574Y1116D01*
X1572Y1116D01*
X1572Y1118D01*
X1568Y1118D01*
X1568Y1120D01*
X1566Y1120D01*
X1566Y1122D01*
X1564Y1122D01*
X1564Y1124D01*
X1562Y1124D01*
X1562Y1126D01*
X1560Y1126D01*
X1560Y1128D01*
X1558Y1128D01*
X1558Y1130D01*
X1556Y1130D01*
X1556Y1132D01*
X1554Y1132D01*
X1554Y1136D01*
X1552Y1136D01*
X1552Y1138D01*
X1550Y1138D01*
X1550Y1142D01*
X1548Y1142D01*
X1548Y1144D01*
X1546Y1144D01*
X1546Y1148D01*
X1544Y1148D01*
X1544Y1154D01*
X1542Y1154D01*
X1542Y1158D01*
X1540Y1158D01*
X1540Y1168D01*
X1538Y1168D01*
X1538Y1200D01*
X1540Y1200D01*
X1540Y1208D01*
X1542Y1208D01*
X1542Y1212D01*
X1544Y1212D01*
X1544Y1218D01*
X1546Y1218D01*
X1546Y1222D01*
X1548Y1222D01*
X1548Y1224D01*
X1550Y1224D01*
X1550Y1228D01*
X1552Y1228D01*
X1552Y1232D01*
X1554Y1232D01*
X1554Y1234D01*
X1556Y1234D01*
X1556Y1236D01*
X1558Y1236D01*
X1558Y1238D01*
X1560Y1238D01*
X1560Y1240D01*
X1562Y1240D01*
X1562Y1242D01*
X1564Y1242D01*
X1564Y1244D01*
X1566Y1244D01*
X1566Y1246D01*
X1568Y1246D01*
X1568Y1248D01*
X1570Y1248D01*
X1570Y1250D01*
X1574Y1250D01*
X1574Y1252D01*
X1576Y1252D01*
X1576Y1254D01*
X1580Y1254D01*
X1580Y1256D01*
X1584Y1256D01*
X1584Y1258D01*
X1588Y1258D01*
X1588Y1260D01*
X1594Y1260D01*
X1594Y1262D01*
X1602Y1262D01*
X1602Y1264D01*
X1618Y1264D01*
X1618Y1266D01*
X1244Y1266D01*
G37*
D02*
G36*
X1248Y1102D02*
X1248Y1100D01*
X1896Y1100D01*
X1896Y1102D01*
X1248Y1102D01*
G37*
D02*
G36*
X1248Y1102D02*
X1248Y1100D01*
X1896Y1100D01*
X1896Y1102D01*
X1248Y1102D01*
G37*
D02*
G36*
X1248Y1100D02*
X1248Y1096D01*
X1250Y1096D01*
X1250Y1090D01*
X1252Y1090D01*
X1252Y1084D01*
X1254Y1084D01*
X1254Y1078D01*
X1256Y1078D01*
X1256Y1076D01*
X1742Y1076D01*
X1742Y1074D01*
X1758Y1074D01*
X1758Y1072D01*
X1764Y1072D01*
X1764Y1070D01*
X1770Y1070D01*
X1770Y1068D01*
X1774Y1068D01*
X1774Y1066D01*
X1778Y1066D01*
X1778Y1064D01*
X1782Y1064D01*
X1782Y1062D01*
X1786Y1062D01*
X1786Y1060D01*
X1788Y1060D01*
X1788Y1058D01*
X1790Y1058D01*
X1790Y1056D01*
X1792Y1056D01*
X1792Y1054D01*
X1796Y1054D01*
X1796Y1052D01*
X1798Y1052D01*
X1798Y1050D01*
X1800Y1050D01*
X1800Y1046D01*
X1802Y1046D01*
X1802Y1044D01*
X1804Y1044D01*
X1804Y1042D01*
X1806Y1042D01*
X1806Y1040D01*
X1808Y1040D01*
X1808Y1036D01*
X1810Y1036D01*
X1810Y1032D01*
X1812Y1032D01*
X1812Y1028D01*
X1814Y1028D01*
X1814Y1024D01*
X1816Y1024D01*
X1816Y1020D01*
X1818Y1020D01*
X1818Y1012D01*
X1820Y1012D01*
X1820Y998D01*
X1822Y998D01*
X1822Y988D01*
X1820Y988D01*
X1820Y974D01*
X1818Y974D01*
X1818Y968D01*
X1816Y968D01*
X1816Y962D01*
X1814Y962D01*
X1814Y958D01*
X1812Y958D01*
X1812Y954D01*
X1810Y954D01*
X1810Y950D01*
X1808Y950D01*
X1808Y948D01*
X1806Y948D01*
X1806Y944D01*
X1804Y944D01*
X1804Y942D01*
X1802Y942D01*
X1802Y940D01*
X1800Y940D01*
X1800Y938D01*
X1798Y938D01*
X1798Y934D01*
X1794Y934D01*
X1794Y932D01*
X1792Y932D01*
X1792Y930D01*
X1790Y930D01*
X1790Y928D01*
X1788Y928D01*
X1788Y926D01*
X1784Y926D01*
X1784Y924D01*
X1782Y924D01*
X1782Y922D01*
X1778Y922D01*
X1778Y920D01*
X1774Y920D01*
X1774Y918D01*
X1770Y918D01*
X1770Y916D01*
X1764Y916D01*
X1764Y914D01*
X1756Y914D01*
X1756Y894D01*
X1858Y894D01*
X1858Y896D01*
X1860Y896D01*
X1860Y898D01*
X1862Y898D01*
X1862Y900D01*
X1866Y900D01*
X1866Y902D01*
X1868Y902D01*
X1868Y904D01*
X1870Y904D01*
X1870Y906D01*
X1872Y906D01*
X1872Y908D01*
X1876Y908D01*
X1876Y910D01*
X1878Y910D01*
X1878Y912D01*
X1880Y912D01*
X1880Y914D01*
X1884Y914D01*
X1884Y916D01*
X1886Y916D01*
X1886Y918D01*
X1888Y918D01*
X1888Y920D01*
X1890Y920D01*
X1890Y922D01*
X1894Y922D01*
X1894Y924D01*
X1896Y924D01*
X1896Y1100D01*
X1248Y1100D01*
G37*
D02*
G36*
X1256Y1076D02*
X1256Y1072D01*
X1258Y1072D01*
X1258Y1066D01*
X1260Y1066D01*
X1260Y1060D01*
X1262Y1060D01*
X1262Y1054D01*
X1264Y1054D01*
X1264Y1048D01*
X1266Y1048D01*
X1266Y1042D01*
X1268Y1042D01*
X1268Y1036D01*
X1270Y1036D01*
X1270Y1032D01*
X1346Y1032D01*
X1346Y1030D01*
X1426Y1030D01*
X1426Y1032D01*
X1428Y1032D01*
X1428Y1034D01*
X1430Y1034D01*
X1430Y1038D01*
X1432Y1038D01*
X1432Y1042D01*
X1434Y1042D01*
X1434Y1044D01*
X1436Y1044D01*
X1436Y1046D01*
X1438Y1046D01*
X1438Y1048D01*
X1440Y1048D01*
X1440Y1050D01*
X1442Y1050D01*
X1442Y1052D01*
X1444Y1052D01*
X1444Y1054D01*
X1446Y1054D01*
X1446Y1056D01*
X1448Y1056D01*
X1448Y1058D01*
X1450Y1058D01*
X1450Y1060D01*
X1454Y1060D01*
X1454Y1062D01*
X1456Y1062D01*
X1456Y1064D01*
X1460Y1064D01*
X1460Y1066D01*
X1464Y1066D01*
X1464Y1068D01*
X1468Y1068D01*
X1468Y1070D01*
X1474Y1070D01*
X1474Y1072D01*
X1482Y1072D01*
X1482Y1074D01*
X1498Y1074D01*
X1498Y1076D01*
X1256Y1076D01*
G37*
D02*
G36*
X1502Y1076D02*
X1502Y1074D01*
X1518Y1074D01*
X1518Y1072D01*
X1524Y1072D01*
X1524Y1070D01*
X1530Y1070D01*
X1530Y1068D01*
X1534Y1068D01*
X1534Y1066D01*
X1538Y1066D01*
X1538Y1064D01*
X1542Y1064D01*
X1542Y1062D01*
X1546Y1062D01*
X1546Y1060D01*
X1548Y1060D01*
X1548Y1058D01*
X1550Y1058D01*
X1550Y1056D01*
X1552Y1056D01*
X1552Y1054D01*
X1556Y1054D01*
X1556Y1052D01*
X1558Y1052D01*
X1558Y1050D01*
X1560Y1050D01*
X1560Y1046D01*
X1562Y1046D01*
X1562Y1044D01*
X1564Y1044D01*
X1564Y1042D01*
X1566Y1042D01*
X1566Y1040D01*
X1568Y1040D01*
X1568Y1036D01*
X1570Y1036D01*
X1570Y1032D01*
X1572Y1032D01*
X1572Y1028D01*
X1574Y1028D01*
X1574Y1024D01*
X1576Y1024D01*
X1576Y1020D01*
X1578Y1020D01*
X1578Y1012D01*
X1580Y1012D01*
X1580Y998D01*
X1582Y998D01*
X1582Y988D01*
X1580Y988D01*
X1580Y960D01*
X1582Y960D01*
X1582Y958D01*
X1584Y958D01*
X1584Y956D01*
X1586Y956D01*
X1586Y954D01*
X1588Y954D01*
X1588Y952D01*
X1590Y952D01*
X1590Y950D01*
X1592Y950D01*
X1592Y948D01*
X1594Y948D01*
X1594Y946D01*
X1596Y946D01*
X1596Y944D01*
X1598Y944D01*
X1598Y942D01*
X1600Y942D01*
X1600Y940D01*
X1602Y940D01*
X1602Y938D01*
X1604Y938D01*
X1604Y936D01*
X1606Y936D01*
X1606Y934D01*
X1608Y934D01*
X1608Y932D01*
X1610Y932D01*
X1610Y930D01*
X1612Y930D01*
X1612Y928D01*
X1614Y928D01*
X1614Y926D01*
X1616Y926D01*
X1616Y924D01*
X1618Y924D01*
X1618Y922D01*
X1620Y922D01*
X1620Y920D01*
X1622Y920D01*
X1622Y918D01*
X1624Y918D01*
X1624Y916D01*
X1626Y916D01*
X1626Y914D01*
X1628Y914D01*
X1628Y912D01*
X1630Y912D01*
X1630Y910D01*
X1632Y910D01*
X1632Y908D01*
X1634Y908D01*
X1634Y904D01*
X1636Y904D01*
X1636Y902D01*
X1638Y902D01*
X1638Y900D01*
X1640Y900D01*
X1640Y898D01*
X1642Y898D01*
X1642Y896D01*
X1644Y896D01*
X1644Y894D01*
X1722Y894D01*
X1722Y914D01*
X1714Y914D01*
X1714Y916D01*
X1708Y916D01*
X1708Y918D01*
X1704Y918D01*
X1704Y920D01*
X1700Y920D01*
X1700Y922D01*
X1698Y922D01*
X1698Y924D01*
X1694Y924D01*
X1694Y926D01*
X1692Y926D01*
X1692Y928D01*
X1688Y928D01*
X1688Y930D01*
X1686Y930D01*
X1686Y932D01*
X1684Y932D01*
X1684Y934D01*
X1682Y934D01*
X1682Y936D01*
X1680Y936D01*
X1680Y938D01*
X1678Y938D01*
X1678Y940D01*
X1676Y940D01*
X1676Y942D01*
X1674Y942D01*
X1674Y946D01*
X1672Y946D01*
X1672Y948D01*
X1670Y948D01*
X1670Y952D01*
X1668Y952D01*
X1668Y954D01*
X1666Y954D01*
X1666Y958D01*
X1664Y958D01*
X1664Y964D01*
X1662Y964D01*
X1662Y968D01*
X1660Y968D01*
X1660Y978D01*
X1658Y978D01*
X1658Y1010D01*
X1660Y1010D01*
X1660Y1018D01*
X1662Y1018D01*
X1662Y1022D01*
X1664Y1022D01*
X1664Y1028D01*
X1666Y1028D01*
X1666Y1032D01*
X1668Y1032D01*
X1668Y1034D01*
X1670Y1034D01*
X1670Y1038D01*
X1672Y1038D01*
X1672Y1042D01*
X1674Y1042D01*
X1674Y1044D01*
X1676Y1044D01*
X1676Y1046D01*
X1678Y1046D01*
X1678Y1048D01*
X1680Y1048D01*
X1680Y1050D01*
X1682Y1050D01*
X1682Y1052D01*
X1684Y1052D01*
X1684Y1054D01*
X1686Y1054D01*
X1686Y1056D01*
X1688Y1056D01*
X1688Y1058D01*
X1690Y1058D01*
X1690Y1060D01*
X1694Y1060D01*
X1694Y1062D01*
X1696Y1062D01*
X1696Y1064D01*
X1700Y1064D01*
X1700Y1066D01*
X1704Y1066D01*
X1704Y1068D01*
X1708Y1068D01*
X1708Y1070D01*
X1714Y1070D01*
X1714Y1072D01*
X1722Y1072D01*
X1722Y1074D01*
X1738Y1074D01*
X1738Y1076D01*
X1502Y1076D01*
G37*
D02*
G36*
X1006Y998D02*
X1006Y996D01*
X1014Y996D01*
X1014Y994D01*
X1018Y994D01*
X1018Y992D01*
X1022Y992D01*
X1022Y990D01*
X1024Y990D01*
X1024Y988D01*
X1026Y988D01*
X1026Y986D01*
X1030Y986D01*
X1030Y984D01*
X1032Y984D01*
X1032Y982D01*
X1034Y982D01*
X1034Y980D01*
X1056Y980D01*
X1056Y984D01*
X1060Y984D01*
X1060Y986D01*
X1062Y986D01*
X1062Y988D01*
X1064Y988D01*
X1064Y990D01*
X1068Y990D01*
X1068Y992D01*
X1072Y992D01*
X1072Y994D01*
X1076Y994D01*
X1076Y996D01*
X1082Y996D01*
X1082Y998D01*
X1006Y998D01*
G37*
D02*
G36*
X566Y904D02*
X566Y902D01*
X562Y902D01*
X562Y900D01*
X560Y900D01*
X560Y898D01*
X558Y898D01*
X558Y896D01*
X554Y896D01*
X554Y894D01*
X552Y894D01*
X552Y892D01*
X550Y892D01*
X550Y890D01*
X546Y890D01*
X546Y888D01*
X544Y888D01*
X544Y886D01*
X634Y886D01*
X634Y904D01*
X566Y904D01*
G37*
D02*
G36*
X542Y886D02*
X542Y884D01*
X958Y884D01*
X958Y886D01*
X542Y886D01*
G37*
D02*
G36*
X542Y886D02*
X542Y884D01*
X958Y884D01*
X958Y886D01*
X542Y886D01*
G37*
D02*
G36*
X538Y884D02*
X538Y882D01*
X594Y882D01*
X594Y880D01*
X600Y880D01*
X600Y878D01*
X604Y878D01*
X604Y876D01*
X608Y876D01*
X608Y874D01*
X610Y874D01*
X610Y872D01*
X614Y872D01*
X614Y870D01*
X616Y870D01*
X616Y868D01*
X618Y868D01*
X618Y866D01*
X620Y866D01*
X620Y862D01*
X622Y862D01*
X622Y860D01*
X624Y860D01*
X624Y856D01*
X626Y856D01*
X626Y854D01*
X628Y854D01*
X628Y848D01*
X630Y848D01*
X630Y838D01*
X632Y838D01*
X632Y828D01*
X630Y828D01*
X630Y820D01*
X628Y820D01*
X628Y814D01*
X626Y814D01*
X626Y810D01*
X624Y810D01*
X624Y806D01*
X622Y806D01*
X622Y804D01*
X620Y804D01*
X620Y800D01*
X618Y800D01*
X618Y638D01*
X620Y638D01*
X620Y636D01*
X622Y636D01*
X622Y634D01*
X624Y634D01*
X624Y632D01*
X918Y632D01*
X918Y630D01*
X926Y630D01*
X926Y628D01*
X930Y628D01*
X930Y626D01*
X932Y626D01*
X932Y624D01*
X936Y624D01*
X936Y622D01*
X938Y622D01*
X938Y620D01*
X958Y620D01*
X958Y884D01*
X538Y884D01*
G37*
D02*
G36*
X536Y882D02*
X536Y874D01*
X556Y874D01*
X556Y876D01*
X560Y876D01*
X560Y878D01*
X564Y878D01*
X564Y880D01*
X570Y880D01*
X570Y882D01*
X536Y882D01*
G37*
D02*
G36*
X628Y632D02*
X628Y630D01*
X630Y630D01*
X630Y628D01*
X632Y628D01*
X632Y626D01*
X636Y626D01*
X636Y624D01*
X638Y624D01*
X638Y622D01*
X640Y622D01*
X640Y620D01*
X644Y620D01*
X644Y618D01*
X872Y618D01*
X872Y620D01*
X876Y620D01*
X876Y622D01*
X878Y622D01*
X878Y624D01*
X880Y624D01*
X880Y626D01*
X884Y626D01*
X884Y628D01*
X888Y628D01*
X888Y630D01*
X896Y630D01*
X896Y632D01*
X628Y632D01*
G37*
D02*
G36*
X358Y714D02*
X358Y712D01*
X356Y712D01*
X356Y710D01*
X354Y710D01*
X354Y706D01*
X352Y706D01*
X352Y704D01*
X350Y704D01*
X350Y702D01*
X348Y702D01*
X348Y698D01*
X346Y698D01*
X346Y696D01*
X344Y696D01*
X344Y694D01*
X342Y694D01*
X342Y690D01*
X340Y690D01*
X340Y688D01*
X338Y688D01*
X338Y686D01*
X334Y686D01*
X334Y684D01*
X330Y684D01*
X330Y682D01*
X324Y682D01*
X324Y680D01*
X242Y680D01*
X242Y678D01*
X240Y678D01*
X240Y676D01*
X238Y676D01*
X238Y674D01*
X236Y674D01*
X236Y672D01*
X234Y672D01*
X234Y670D01*
X232Y670D01*
X232Y668D01*
X230Y668D01*
X230Y666D01*
X228Y666D01*
X228Y664D01*
X226Y664D01*
X226Y662D01*
X224Y662D01*
X224Y660D01*
X222Y660D01*
X222Y632D01*
X292Y632D01*
X292Y630D01*
X298Y630D01*
X298Y628D01*
X304Y628D01*
X304Y626D01*
X306Y626D01*
X306Y624D01*
X310Y624D01*
X310Y622D01*
X312Y622D01*
X312Y620D01*
X314Y620D01*
X314Y618D01*
X318Y618D01*
X318Y614D01*
X320Y614D01*
X320Y612D01*
X322Y612D01*
X322Y610D01*
X324Y610D01*
X324Y606D01*
X326Y606D01*
X326Y602D01*
X328Y602D01*
X328Y596D01*
X330Y596D01*
X330Y570D01*
X328Y570D01*
X328Y564D01*
X326Y564D01*
X326Y560D01*
X324Y560D01*
X324Y556D01*
X322Y556D01*
X322Y554D01*
X320Y554D01*
X320Y552D01*
X318Y552D01*
X318Y550D01*
X316Y550D01*
X316Y548D01*
X314Y548D01*
X314Y546D01*
X312Y546D01*
X312Y544D01*
X310Y544D01*
X310Y522D01*
X312Y522D01*
X312Y520D01*
X314Y520D01*
X314Y518D01*
X318Y518D01*
X318Y514D01*
X320Y514D01*
X320Y512D01*
X322Y512D01*
X322Y510D01*
X356Y510D01*
X356Y512D01*
X358Y512D01*
X358Y516D01*
X360Y516D01*
X360Y518D01*
X362Y518D01*
X362Y520D01*
X364Y520D01*
X364Y524D01*
X366Y524D01*
X366Y526D01*
X368Y526D01*
X368Y530D01*
X370Y530D01*
X370Y532D01*
X372Y532D01*
X372Y534D01*
X374Y534D01*
X374Y538D01*
X376Y538D01*
X376Y540D01*
X378Y540D01*
X378Y714D01*
X358Y714D01*
G37*
D02*
G36*
X222Y632D02*
X222Y610D01*
X242Y610D01*
X242Y612D01*
X244Y612D01*
X244Y616D01*
X246Y616D01*
X246Y618D01*
X248Y618D01*
X248Y620D01*
X252Y620D01*
X252Y622D01*
X254Y622D01*
X254Y624D01*
X256Y624D01*
X256Y626D01*
X260Y626D01*
X260Y628D01*
X266Y628D01*
X266Y630D01*
X272Y630D01*
X272Y632D01*
X222Y632D01*
G37*
D02*
G36*
X536Y596D02*
X536Y540D01*
X538Y540D01*
X538Y536D01*
X540Y536D01*
X540Y534D01*
X542Y534D01*
X542Y532D01*
X544Y532D01*
X544Y528D01*
X546Y528D01*
X546Y526D01*
X548Y526D01*
X548Y522D01*
X550Y522D01*
X550Y520D01*
X552Y520D01*
X552Y518D01*
X554Y518D01*
X554Y514D01*
X556Y514D01*
X556Y512D01*
X558Y512D01*
X558Y510D01*
X866Y510D01*
X866Y512D01*
X868Y512D01*
X868Y514D01*
X870Y514D01*
X870Y518D01*
X872Y518D01*
X872Y520D01*
X876Y520D01*
X876Y522D01*
X878Y522D01*
X878Y544D01*
X876Y544D01*
X876Y546D01*
X624Y546D01*
X624Y548D01*
X618Y548D01*
X618Y550D01*
X614Y550D01*
X614Y552D01*
X610Y552D01*
X610Y554D01*
X608Y554D01*
X608Y556D01*
X606Y556D01*
X606Y558D01*
X602Y558D01*
X602Y560D01*
X600Y560D01*
X600Y562D01*
X598Y562D01*
X598Y564D01*
X596Y564D01*
X596Y566D01*
X592Y566D01*
X592Y568D01*
X590Y568D01*
X590Y570D01*
X588Y570D01*
X588Y572D01*
X584Y572D01*
X584Y574D01*
X582Y574D01*
X582Y576D01*
X580Y576D01*
X580Y578D01*
X576Y578D01*
X576Y580D01*
X574Y580D01*
X574Y582D01*
X572Y582D01*
X572Y584D01*
X568Y584D01*
X568Y586D01*
X566Y586D01*
X566Y588D01*
X564Y588D01*
X564Y590D01*
X560Y590D01*
X560Y592D01*
X558Y592D01*
X558Y594D01*
X556Y594D01*
X556Y596D01*
X536Y596D01*
G37*
D02*
G36*
X410Y492D02*
X410Y488D01*
X408Y488D01*
X408Y486D01*
X406Y486D01*
X406Y484D01*
X404Y484D01*
X404Y480D01*
X402Y480D01*
X402Y478D01*
X400Y478D01*
X400Y476D01*
X398Y476D01*
X398Y472D01*
X396Y472D01*
X396Y470D01*
X394Y470D01*
X394Y466D01*
X392Y466D01*
X392Y464D01*
X390Y464D01*
X390Y462D01*
X388Y462D01*
X388Y460D01*
X386Y460D01*
X386Y458D01*
X382Y458D01*
X382Y456D01*
X376Y456D01*
X376Y454D01*
X320Y454D01*
X320Y452D01*
X318Y452D01*
X318Y450D01*
X316Y450D01*
X316Y448D01*
X314Y448D01*
X314Y446D01*
X312Y446D01*
X312Y444D01*
X310Y444D01*
X310Y422D01*
X312Y422D01*
X312Y420D01*
X314Y420D01*
X314Y418D01*
X318Y418D01*
X318Y414D01*
X320Y414D01*
X320Y412D01*
X322Y412D01*
X322Y410D01*
X324Y410D01*
X324Y406D01*
X326Y406D01*
X326Y402D01*
X328Y402D01*
X328Y396D01*
X330Y396D01*
X330Y370D01*
X328Y370D01*
X328Y364D01*
X326Y364D01*
X326Y360D01*
X324Y360D01*
X324Y356D01*
X322Y356D01*
X322Y354D01*
X320Y354D01*
X320Y352D01*
X318Y352D01*
X318Y350D01*
X316Y350D01*
X316Y348D01*
X314Y348D01*
X314Y346D01*
X312Y346D01*
X312Y344D01*
X310Y344D01*
X310Y322D01*
X312Y322D01*
X312Y320D01*
X314Y320D01*
X314Y318D01*
X318Y318D01*
X318Y314D01*
X320Y314D01*
X320Y312D01*
X322Y312D01*
X322Y310D01*
X324Y310D01*
X324Y306D01*
X326Y306D01*
X326Y302D01*
X328Y302D01*
X328Y296D01*
X330Y296D01*
X330Y270D01*
X328Y270D01*
X328Y264D01*
X326Y264D01*
X326Y260D01*
X324Y260D01*
X324Y256D01*
X322Y256D01*
X322Y254D01*
X320Y254D01*
X320Y252D01*
X318Y252D01*
X318Y250D01*
X316Y250D01*
X316Y248D01*
X314Y248D01*
X314Y246D01*
X312Y246D01*
X312Y244D01*
X310Y244D01*
X310Y222D01*
X312Y222D01*
X312Y220D01*
X870Y220D01*
X870Y242D01*
X868Y242D01*
X868Y244D01*
X866Y244D01*
X866Y248D01*
X864Y248D01*
X864Y252D01*
X862Y252D01*
X862Y258D01*
X860Y258D01*
X860Y284D01*
X862Y284D01*
X862Y290D01*
X864Y290D01*
X864Y294D01*
X866Y294D01*
X866Y298D01*
X868Y298D01*
X868Y300D01*
X870Y300D01*
X870Y302D01*
X872Y302D01*
X872Y304D01*
X874Y304D01*
X874Y306D01*
X876Y306D01*
X876Y308D01*
X878Y308D01*
X878Y310D01*
X880Y310D01*
X880Y312D01*
X884Y312D01*
X884Y314D01*
X888Y314D01*
X888Y316D01*
X892Y316D01*
X892Y336D01*
X890Y336D01*
X890Y338D01*
X884Y338D01*
X884Y340D01*
X882Y340D01*
X882Y342D01*
X878Y342D01*
X878Y344D01*
X876Y344D01*
X876Y346D01*
X874Y346D01*
X874Y348D01*
X872Y348D01*
X872Y350D01*
X870Y350D01*
X870Y352D01*
X868Y352D01*
X868Y354D01*
X500Y354D01*
X500Y356D01*
X496Y356D01*
X496Y358D01*
X492Y358D01*
X492Y360D01*
X490Y360D01*
X490Y362D01*
X488Y362D01*
X488Y364D01*
X486Y364D01*
X486Y366D01*
X484Y366D01*
X484Y368D01*
X482Y368D01*
X482Y370D01*
X480Y370D01*
X480Y372D01*
X478Y372D01*
X478Y374D01*
X476Y374D01*
X476Y376D01*
X474Y376D01*
X474Y378D01*
X472Y378D01*
X472Y380D01*
X470Y380D01*
X470Y382D01*
X468Y382D01*
X468Y384D01*
X466Y384D01*
X466Y386D01*
X464Y386D01*
X464Y388D01*
X462Y388D01*
X462Y390D01*
X460Y390D01*
X460Y392D01*
X458Y392D01*
X458Y394D01*
X456Y394D01*
X456Y396D01*
X454Y396D01*
X454Y398D01*
X452Y398D01*
X452Y400D01*
X450Y400D01*
X450Y402D01*
X448Y402D01*
X448Y404D01*
X446Y404D01*
X446Y406D01*
X444Y406D01*
X444Y408D01*
X442Y408D01*
X442Y410D01*
X440Y410D01*
X440Y412D01*
X438Y412D01*
X438Y414D01*
X436Y414D01*
X436Y416D01*
X434Y416D01*
X434Y420D01*
X432Y420D01*
X432Y424D01*
X430Y424D01*
X430Y492D01*
X410Y492D01*
G37*
D02*
G36*
X486Y488D02*
X486Y442D01*
X488Y442D01*
X488Y440D01*
X490Y440D01*
X490Y438D01*
X492Y438D01*
X492Y436D01*
X494Y436D01*
X494Y434D01*
X496Y434D01*
X496Y432D01*
X498Y432D01*
X498Y430D01*
X500Y430D01*
X500Y428D01*
X502Y428D01*
X502Y426D01*
X504Y426D01*
X504Y424D01*
X506Y424D01*
X506Y422D01*
X508Y422D01*
X508Y420D01*
X510Y420D01*
X510Y418D01*
X512Y418D01*
X512Y416D01*
X514Y416D01*
X514Y414D01*
X516Y414D01*
X516Y412D01*
X518Y412D01*
X518Y410D01*
X866Y410D01*
X866Y412D01*
X868Y412D01*
X868Y414D01*
X870Y414D01*
X870Y418D01*
X872Y418D01*
X872Y420D01*
X876Y420D01*
X876Y422D01*
X878Y422D01*
X878Y444D01*
X876Y444D01*
X876Y446D01*
X874Y446D01*
X874Y448D01*
X872Y448D01*
X872Y450D01*
X870Y450D01*
X870Y452D01*
X868Y452D01*
X868Y454D01*
X536Y454D01*
X536Y456D01*
X532Y456D01*
X532Y458D01*
X528Y458D01*
X528Y460D01*
X526Y460D01*
X526Y462D01*
X524Y462D01*
X524Y464D01*
X522Y464D01*
X522Y466D01*
X520Y466D01*
X520Y468D01*
X518Y468D01*
X518Y472D01*
X516Y472D01*
X516Y474D01*
X514Y474D01*
X514Y476D01*
X512Y476D01*
X512Y480D01*
X510Y480D01*
X510Y482D01*
X508Y482D01*
X508Y486D01*
X506Y486D01*
X506Y488D01*
X486Y488D01*
G37*
D02*
G36*
X1152Y560D02*
X1152Y558D01*
X1140Y558D01*
X1140Y556D01*
X1130Y556D01*
X1130Y554D01*
X1120Y554D01*
X1120Y550D01*
X1118Y550D01*
X1118Y548D01*
X1116Y548D01*
X1116Y546D01*
X1112Y546D01*
X1112Y544D01*
X1110Y544D01*
X1110Y532D01*
X1480Y532D01*
X1480Y530D01*
X1488Y530D01*
X1488Y528D01*
X1492Y528D01*
X1492Y526D01*
X1496Y526D01*
X1496Y524D01*
X1498Y524D01*
X1498Y522D01*
X1500Y522D01*
X1500Y520D01*
X1546Y520D01*
X1546Y534D01*
X1658Y534D01*
X1658Y544D01*
X1656Y544D01*
X1656Y546D01*
X1654Y546D01*
X1654Y548D01*
X1652Y548D01*
X1652Y550D01*
X1650Y550D01*
X1650Y552D01*
X1648Y552D01*
X1648Y554D01*
X1646Y554D01*
X1646Y556D01*
X1644Y556D01*
X1644Y558D01*
X1642Y558D01*
X1642Y560D01*
X1152Y560D01*
G37*
D02*
G36*
X1110Y532D02*
X1110Y522D01*
X1114Y522D01*
X1114Y520D01*
X1138Y520D01*
X1138Y522D01*
X1140Y522D01*
X1140Y524D01*
X1144Y524D01*
X1144Y526D01*
X1146Y526D01*
X1146Y528D01*
X1152Y528D01*
X1152Y530D01*
X1158Y530D01*
X1158Y532D01*
X1110Y532D01*
G37*
D02*
G36*
X1180Y532D02*
X1180Y530D01*
X1188Y530D01*
X1188Y528D01*
X1192Y528D01*
X1192Y526D01*
X1196Y526D01*
X1196Y524D01*
X1198Y524D01*
X1198Y522D01*
X1200Y522D01*
X1200Y520D01*
X1204Y520D01*
X1204Y518D01*
X1206Y518D01*
X1206Y514D01*
X1208Y514D01*
X1208Y512D01*
X1210Y512D01*
X1210Y510D01*
X1212Y510D01*
X1212Y506D01*
X1214Y506D01*
X1214Y502D01*
X1216Y502D01*
X1216Y496D01*
X1218Y496D01*
X1218Y470D01*
X1216Y470D01*
X1216Y464D01*
X1214Y464D01*
X1214Y460D01*
X1212Y460D01*
X1212Y456D01*
X1210Y456D01*
X1210Y454D01*
X1208Y454D01*
X1208Y452D01*
X1206Y452D01*
X1206Y448D01*
X1202Y448D01*
X1202Y446D01*
X1200Y446D01*
X1200Y444D01*
X1198Y444D01*
X1198Y422D01*
X1200Y422D01*
X1200Y420D01*
X1204Y420D01*
X1204Y418D01*
X1206Y418D01*
X1206Y414D01*
X1208Y414D01*
X1208Y412D01*
X1210Y412D01*
X1210Y410D01*
X1212Y410D01*
X1212Y406D01*
X1214Y406D01*
X1214Y402D01*
X1216Y402D01*
X1216Y396D01*
X1218Y396D01*
X1218Y370D01*
X1216Y370D01*
X1216Y364D01*
X1214Y364D01*
X1214Y360D01*
X1212Y360D01*
X1212Y356D01*
X1210Y356D01*
X1210Y354D01*
X1208Y354D01*
X1208Y352D01*
X1206Y352D01*
X1206Y348D01*
X1202Y348D01*
X1202Y346D01*
X1200Y346D01*
X1200Y344D01*
X1198Y344D01*
X1198Y342D01*
X1194Y342D01*
X1194Y340D01*
X1192Y340D01*
X1192Y338D01*
X1186Y338D01*
X1186Y334D01*
X1458Y334D01*
X1458Y336D01*
X1452Y336D01*
X1452Y338D01*
X1448Y338D01*
X1448Y340D01*
X1444Y340D01*
X1444Y342D01*
X1440Y342D01*
X1440Y344D01*
X1438Y344D01*
X1438Y346D01*
X1436Y346D01*
X1436Y348D01*
X1434Y348D01*
X1434Y350D01*
X1432Y350D01*
X1432Y352D01*
X1430Y352D01*
X1430Y354D01*
X1428Y354D01*
X1428Y358D01*
X1426Y358D01*
X1426Y362D01*
X1424Y362D01*
X1424Y366D01*
X1422Y366D01*
X1422Y372D01*
X1420Y372D01*
X1420Y394D01*
X1422Y394D01*
X1422Y400D01*
X1424Y400D01*
X1424Y404D01*
X1426Y404D01*
X1426Y408D01*
X1428Y408D01*
X1428Y412D01*
X1430Y412D01*
X1430Y414D01*
X1432Y414D01*
X1432Y416D01*
X1434Y416D01*
X1434Y450D01*
X1432Y450D01*
X1432Y452D01*
X1430Y452D01*
X1430Y454D01*
X1428Y454D01*
X1428Y458D01*
X1426Y458D01*
X1426Y462D01*
X1424Y462D01*
X1424Y466D01*
X1422Y466D01*
X1422Y472D01*
X1420Y472D01*
X1420Y494D01*
X1422Y494D01*
X1422Y500D01*
X1424Y500D01*
X1424Y504D01*
X1426Y504D01*
X1426Y508D01*
X1428Y508D01*
X1428Y512D01*
X1430Y512D01*
X1430Y514D01*
X1432Y514D01*
X1432Y516D01*
X1434Y516D01*
X1434Y518D01*
X1436Y518D01*
X1436Y520D01*
X1438Y520D01*
X1438Y522D01*
X1440Y522D01*
X1440Y524D01*
X1444Y524D01*
X1444Y526D01*
X1446Y526D01*
X1446Y528D01*
X1452Y528D01*
X1452Y530D01*
X1458Y530D01*
X1458Y532D01*
X1180Y532D01*
G37*
D02*
G36*
X1506Y448D02*
X1506Y414D01*
X1508Y414D01*
X1508Y412D01*
X1510Y412D01*
X1510Y410D01*
X1512Y410D01*
X1512Y406D01*
X1514Y406D01*
X1514Y402D01*
X1516Y402D01*
X1516Y396D01*
X1518Y396D01*
X1518Y370D01*
X1516Y370D01*
X1516Y364D01*
X1514Y364D01*
X1514Y360D01*
X1512Y360D01*
X1512Y356D01*
X1510Y356D01*
X1510Y354D01*
X1508Y354D01*
X1508Y352D01*
X1506Y352D01*
X1506Y348D01*
X1502Y348D01*
X1502Y346D01*
X1500Y346D01*
X1500Y344D01*
X1498Y344D01*
X1498Y342D01*
X1494Y342D01*
X1494Y340D01*
X1492Y340D01*
X1492Y338D01*
X1486Y338D01*
X1486Y336D01*
X1480Y336D01*
X1480Y334D01*
X1568Y334D01*
X1568Y344D01*
X1566Y344D01*
X1566Y346D01*
X1562Y346D01*
X1562Y348D01*
X1560Y348D01*
X1560Y350D01*
X1558Y350D01*
X1558Y352D01*
X1556Y352D01*
X1556Y356D01*
X1554Y356D01*
X1554Y358D01*
X1552Y358D01*
X1552Y362D01*
X1550Y362D01*
X1550Y366D01*
X1548Y366D01*
X1548Y372D01*
X1546Y372D01*
X1546Y398D01*
X1548Y398D01*
X1548Y404D01*
X1550Y404D01*
X1550Y408D01*
X1552Y408D01*
X1552Y410D01*
X1554Y410D01*
X1554Y414D01*
X1556Y414D01*
X1556Y416D01*
X1558Y416D01*
X1558Y436D01*
X1546Y436D01*
X1546Y448D01*
X1506Y448D01*
G37*
D02*
G36*
X1186Y334D02*
X1186Y332D01*
X1568Y332D01*
X1568Y334D01*
X1186Y334D01*
G37*
D02*
G36*
X1186Y334D02*
X1186Y332D01*
X1568Y332D01*
X1568Y334D01*
X1186Y334D01*
G37*
D02*
G36*
X1186Y332D02*
X1186Y316D01*
X1190Y316D01*
X1190Y314D01*
X1194Y314D01*
X1194Y312D01*
X1198Y312D01*
X1198Y310D01*
X1200Y310D01*
X1200Y308D01*
X1202Y308D01*
X1202Y306D01*
X1204Y306D01*
X1204Y304D01*
X1206Y304D01*
X1206Y302D01*
X1208Y302D01*
X1208Y300D01*
X1210Y300D01*
X1210Y296D01*
X1212Y296D01*
X1212Y294D01*
X1214Y294D01*
X1214Y290D01*
X1216Y290D01*
X1216Y282D01*
X1218Y282D01*
X1218Y258D01*
X1216Y258D01*
X1216Y252D01*
X1214Y252D01*
X1214Y248D01*
X1212Y248D01*
X1212Y244D01*
X1210Y244D01*
X1210Y242D01*
X1208Y242D01*
X1208Y238D01*
X1206Y238D01*
X1206Y236D01*
X1204Y236D01*
X1204Y234D01*
X1202Y234D01*
X1202Y232D01*
X1198Y232D01*
X1198Y230D01*
X1196Y230D01*
X1196Y228D01*
X1192Y228D01*
X1192Y226D01*
X1188Y226D01*
X1188Y224D01*
X1182Y224D01*
X1182Y222D01*
X1546Y222D01*
X1546Y232D01*
X1558Y232D01*
X1558Y252D01*
X1556Y252D01*
X1556Y254D01*
X1554Y254D01*
X1554Y258D01*
X1552Y258D01*
X1552Y260D01*
X1550Y260D01*
X1550Y264D01*
X1548Y264D01*
X1548Y272D01*
X1546Y272D01*
X1546Y296D01*
X1548Y296D01*
X1548Y302D01*
X1550Y302D01*
X1550Y306D01*
X1552Y306D01*
X1552Y310D01*
X1554Y310D01*
X1554Y312D01*
X1556Y312D01*
X1556Y316D01*
X1558Y316D01*
X1558Y318D01*
X1560Y318D01*
X1560Y320D01*
X1562Y320D01*
X1562Y322D01*
X1564Y322D01*
X1564Y324D01*
X1568Y324D01*
X1568Y332D01*
X1186Y332D01*
G37*
D02*
G36*
X1118Y234D02*
X1118Y222D01*
X1156Y222D01*
X1156Y224D01*
X1150Y224D01*
X1150Y226D01*
X1146Y226D01*
X1146Y228D01*
X1142Y228D01*
X1142Y230D01*
X1140Y230D01*
X1140Y232D01*
X1138Y232D01*
X1138Y234D01*
X1118Y234D01*
G37*
D02*
G36*
X1118Y222D02*
X1118Y220D01*
X1546Y220D01*
X1546Y222D01*
X1118Y222D01*
G37*
D02*
G36*
X1118Y222D02*
X1118Y220D01*
X1546Y220D01*
X1546Y222D01*
X1118Y222D01*
G37*
D02*
G36*
X1118Y220D02*
X1118Y172D01*
X1120Y172D01*
X1120Y170D01*
X1122Y170D01*
X1122Y168D01*
X1124Y168D01*
X1124Y166D01*
X1126Y166D01*
X1126Y164D01*
X1128Y164D01*
X1128Y162D01*
X1130Y162D01*
X1130Y160D01*
X1132Y160D01*
X1132Y158D01*
X1134Y158D01*
X1134Y156D01*
X1136Y156D01*
X1136Y154D01*
X1138Y154D01*
X1138Y152D01*
X1140Y152D01*
X1140Y150D01*
X1142Y150D01*
X1142Y148D01*
X1144Y148D01*
X1144Y146D01*
X1146Y146D01*
X1146Y144D01*
X1148Y144D01*
X1148Y142D01*
X1150Y142D01*
X1150Y140D01*
X1152Y140D01*
X1152Y138D01*
X1154Y138D01*
X1154Y136D01*
X1156Y136D01*
X1156Y134D01*
X1158Y134D01*
X1158Y132D01*
X1546Y132D01*
X1546Y220D01*
X1118Y220D01*
G37*
D02*
G36*
X1248Y960D02*
X1248Y894D01*
X1246Y894D01*
X1246Y892D01*
X1546Y892D01*
X1546Y894D01*
X1544Y894D01*
X1544Y896D01*
X1542Y896D01*
X1542Y898D01*
X1540Y898D01*
X1540Y900D01*
X1538Y900D01*
X1538Y902D01*
X1536Y902D01*
X1536Y904D01*
X1534Y904D01*
X1534Y906D01*
X1532Y906D01*
X1532Y908D01*
X1530Y908D01*
X1530Y910D01*
X1528Y910D01*
X1528Y912D01*
X1482Y912D01*
X1482Y914D01*
X1474Y914D01*
X1474Y916D01*
X1468Y916D01*
X1468Y918D01*
X1464Y918D01*
X1464Y920D01*
X1460Y920D01*
X1460Y922D01*
X1458Y922D01*
X1458Y924D01*
X1454Y924D01*
X1454Y926D01*
X1452Y926D01*
X1452Y928D01*
X1448Y928D01*
X1448Y930D01*
X1446Y930D01*
X1446Y932D01*
X1444Y932D01*
X1444Y934D01*
X1442Y934D01*
X1442Y936D01*
X1440Y936D01*
X1440Y938D01*
X1438Y938D01*
X1438Y940D01*
X1436Y940D01*
X1436Y942D01*
X1434Y942D01*
X1434Y946D01*
X1432Y946D01*
X1432Y948D01*
X1430Y948D01*
X1430Y952D01*
X1428Y952D01*
X1428Y954D01*
X1426Y954D01*
X1426Y958D01*
X1346Y958D01*
X1346Y960D01*
X1248Y960D01*
G37*
D02*
G36*
X1034Y912D02*
X1034Y910D01*
X1032Y910D01*
X1032Y908D01*
X1030Y908D01*
X1030Y892D01*
X1088Y892D01*
X1088Y894D01*
X1078Y894D01*
X1078Y896D01*
X1074Y896D01*
X1074Y898D01*
X1070Y898D01*
X1070Y900D01*
X1066Y900D01*
X1066Y902D01*
X1064Y902D01*
X1064Y904D01*
X1060Y904D01*
X1060Y906D01*
X1058Y906D01*
X1058Y908D01*
X1056Y908D01*
X1056Y910D01*
X1054Y910D01*
X1054Y912D01*
X1034Y912D01*
G37*
D02*
G36*
X1122Y902D02*
X1122Y900D01*
X1118Y900D01*
X1118Y898D01*
X1116Y898D01*
X1116Y896D01*
X1110Y896D01*
X1110Y894D01*
X1100Y894D01*
X1100Y892D01*
X1142Y892D01*
X1142Y902D01*
X1122Y902D01*
G37*
D02*
G36*
X1030Y892D02*
X1030Y890D01*
X1548Y890D01*
X1548Y892D01*
X1030Y892D01*
G37*
D02*
G36*
X1030Y892D02*
X1030Y890D01*
X1548Y890D01*
X1548Y892D01*
X1030Y892D01*
G37*
D02*
G36*
X1030Y892D02*
X1030Y890D01*
X1548Y890D01*
X1548Y892D01*
X1030Y892D01*
G37*
D02*
G36*
X1030Y890D02*
X1030Y822D01*
X1622Y822D01*
X1622Y824D01*
X1616Y824D01*
X1616Y826D01*
X1612Y826D01*
X1612Y828D01*
X1610Y828D01*
X1610Y830D01*
X1606Y830D01*
X1606Y832D01*
X1604Y832D01*
X1604Y834D01*
X1602Y834D01*
X1602Y836D01*
X1600Y836D01*
X1600Y838D01*
X1598Y838D01*
X1598Y840D01*
X1596Y840D01*
X1596Y842D01*
X1594Y842D01*
X1594Y844D01*
X1592Y844D01*
X1592Y846D01*
X1590Y846D01*
X1590Y848D01*
X1588Y848D01*
X1588Y852D01*
X1586Y852D01*
X1586Y854D01*
X1584Y854D01*
X1584Y856D01*
X1582Y856D01*
X1582Y858D01*
X1580Y858D01*
X1580Y860D01*
X1578Y860D01*
X1578Y862D01*
X1576Y862D01*
X1576Y864D01*
X1574Y864D01*
X1574Y866D01*
X1572Y866D01*
X1572Y868D01*
X1570Y868D01*
X1570Y870D01*
X1568Y870D01*
X1568Y872D01*
X1566Y872D01*
X1566Y874D01*
X1564Y874D01*
X1564Y876D01*
X1562Y876D01*
X1562Y878D01*
X1560Y878D01*
X1560Y880D01*
X1558Y880D01*
X1558Y882D01*
X1556Y882D01*
X1556Y884D01*
X1554Y884D01*
X1554Y886D01*
X1552Y886D01*
X1552Y888D01*
X1550Y888D01*
X1550Y890D01*
X1030Y890D01*
G37*
D02*
G36*
X1938Y868D02*
X1938Y866D01*
X1936Y866D01*
X1936Y864D01*
X1934Y864D01*
X1934Y862D01*
X1930Y862D01*
X1930Y860D01*
X1928Y860D01*
X1928Y858D01*
X1926Y858D01*
X1926Y856D01*
X1924Y856D01*
X1924Y854D01*
X1920Y854D01*
X1920Y852D01*
X1918Y852D01*
X1918Y850D01*
X1916Y850D01*
X1916Y848D01*
X1914Y848D01*
X1914Y846D01*
X1910Y846D01*
X1910Y844D01*
X1908Y844D01*
X1908Y842D01*
X1906Y842D01*
X1906Y840D01*
X1902Y840D01*
X1902Y838D01*
X1900Y838D01*
X1900Y836D01*
X1898Y836D01*
X1898Y834D01*
X1896Y834D01*
X1896Y832D01*
X1892Y832D01*
X1892Y830D01*
X1890Y830D01*
X1890Y828D01*
X1886Y828D01*
X1886Y826D01*
X1882Y826D01*
X1882Y824D01*
X1874Y824D01*
X1874Y822D01*
X1960Y822D01*
X1960Y868D01*
X1938Y868D01*
G37*
D02*
G36*
X1030Y822D02*
X1030Y820D01*
X1960Y820D01*
X1960Y822D01*
X1030Y822D01*
G37*
D02*
G36*
X1030Y822D02*
X1030Y820D01*
X1960Y820D01*
X1960Y822D01*
X1030Y822D01*
G37*
D02*
G36*
X1030Y820D02*
X1030Y632D01*
X1666Y632D01*
X1666Y630D01*
X1670Y630D01*
X1670Y628D01*
X1674Y628D01*
X1674Y626D01*
X1678Y626D01*
X1678Y624D01*
X1680Y624D01*
X1680Y622D01*
X1682Y622D01*
X1682Y620D01*
X1684Y620D01*
X1684Y618D01*
X1686Y618D01*
X1686Y616D01*
X1688Y616D01*
X1688Y614D01*
X1690Y614D01*
X1690Y612D01*
X1692Y612D01*
X1692Y610D01*
X1694Y610D01*
X1694Y608D01*
X1696Y608D01*
X1696Y606D01*
X1698Y606D01*
X1698Y604D01*
X1700Y604D01*
X1700Y602D01*
X1702Y602D01*
X1702Y600D01*
X1704Y600D01*
X1704Y598D01*
X1706Y598D01*
X1706Y596D01*
X1708Y596D01*
X1708Y594D01*
X1710Y594D01*
X1710Y592D01*
X1712Y592D01*
X1712Y590D01*
X1714Y590D01*
X1714Y588D01*
X1716Y588D01*
X1716Y586D01*
X1718Y586D01*
X1718Y584D01*
X1720Y584D01*
X1720Y582D01*
X1722Y582D01*
X1722Y580D01*
X1724Y580D01*
X1724Y576D01*
X1726Y576D01*
X1726Y572D01*
X1728Y572D01*
X1728Y566D01*
X1730Y566D01*
X1730Y518D01*
X1732Y518D01*
X1732Y516D01*
X1734Y516D01*
X1734Y512D01*
X1736Y512D01*
X1736Y510D01*
X1738Y510D01*
X1738Y506D01*
X1740Y506D01*
X1740Y500D01*
X1742Y500D01*
X1742Y492D01*
X1744Y492D01*
X1744Y478D01*
X1742Y478D01*
X1742Y470D01*
X1740Y470D01*
X1740Y464D01*
X1738Y464D01*
X1738Y462D01*
X1736Y462D01*
X1736Y458D01*
X1734Y458D01*
X1734Y454D01*
X1732Y454D01*
X1732Y452D01*
X1730Y452D01*
X1730Y450D01*
X1728Y450D01*
X1728Y448D01*
X1726Y448D01*
X1726Y446D01*
X1722Y446D01*
X1722Y424D01*
X1724Y424D01*
X1724Y422D01*
X1726Y422D01*
X1726Y420D01*
X1730Y420D01*
X1730Y416D01*
X1732Y416D01*
X1732Y414D01*
X1734Y414D01*
X1734Y412D01*
X1736Y412D01*
X1736Y408D01*
X1738Y408D01*
X1738Y404D01*
X1740Y404D01*
X1740Y400D01*
X1742Y400D01*
X1742Y390D01*
X1744Y390D01*
X1744Y378D01*
X1742Y378D01*
X1742Y370D01*
X1740Y370D01*
X1740Y364D01*
X1738Y364D01*
X1738Y360D01*
X1736Y360D01*
X1736Y356D01*
X1734Y356D01*
X1734Y354D01*
X1732Y354D01*
X1732Y352D01*
X1730Y352D01*
X1730Y350D01*
X1728Y350D01*
X1728Y348D01*
X1726Y348D01*
X1726Y346D01*
X1724Y346D01*
X1724Y344D01*
X1720Y344D01*
X1720Y324D01*
X1724Y324D01*
X1724Y322D01*
X1726Y322D01*
X1726Y320D01*
X1728Y320D01*
X1728Y318D01*
X1730Y318D01*
X1730Y316D01*
X1732Y316D01*
X1732Y314D01*
X1734Y314D01*
X1734Y312D01*
X1736Y312D01*
X1736Y308D01*
X1738Y308D01*
X1738Y304D01*
X1740Y304D01*
X1740Y298D01*
X1742Y298D01*
X1742Y290D01*
X1744Y290D01*
X1744Y278D01*
X1742Y278D01*
X1742Y268D01*
X1740Y268D01*
X1740Y264D01*
X1738Y264D01*
X1738Y260D01*
X1736Y260D01*
X1736Y256D01*
X1734Y256D01*
X1734Y254D01*
X1732Y254D01*
X1732Y252D01*
X1730Y252D01*
X1730Y248D01*
X1726Y248D01*
X1726Y246D01*
X1724Y246D01*
X1724Y244D01*
X1722Y244D01*
X1722Y222D01*
X1726Y222D01*
X1726Y220D01*
X1728Y220D01*
X1728Y218D01*
X1730Y218D01*
X1730Y216D01*
X1732Y216D01*
X1732Y214D01*
X1734Y214D01*
X1734Y210D01*
X1736Y210D01*
X1736Y208D01*
X1738Y208D01*
X1738Y204D01*
X1740Y204D01*
X1740Y198D01*
X1742Y198D01*
X1742Y190D01*
X1744Y190D01*
X1744Y176D01*
X1742Y176D01*
X1742Y168D01*
X1740Y168D01*
X1740Y162D01*
X1738Y162D01*
X1738Y160D01*
X1736Y160D01*
X1736Y156D01*
X1734Y156D01*
X1734Y154D01*
X1732Y154D01*
X1732Y150D01*
X1730Y150D01*
X1730Y124D01*
X1728Y124D01*
X1728Y118D01*
X1726Y118D01*
X1726Y116D01*
X1724Y116D01*
X1724Y112D01*
X1722Y112D01*
X1722Y108D01*
X1720Y108D01*
X1720Y106D01*
X1718Y106D01*
X1718Y102D01*
X1716Y102D01*
X1716Y100D01*
X1714Y100D01*
X1714Y96D01*
X1712Y96D01*
X1712Y94D01*
X1710Y94D01*
X1710Y90D01*
X1708Y90D01*
X1708Y86D01*
X1706Y86D01*
X1706Y84D01*
X1704Y84D01*
X1704Y80D01*
X1702Y80D01*
X1702Y78D01*
X1700Y78D01*
X1700Y74D01*
X1698Y74D01*
X1698Y72D01*
X1696Y72D01*
X1696Y70D01*
X1694Y70D01*
X1694Y68D01*
X1692Y68D01*
X1692Y66D01*
X1688Y66D01*
X1688Y64D01*
X1686Y64D01*
X1686Y62D01*
X1680Y62D01*
X1680Y60D01*
X1960Y60D01*
X1960Y820D01*
X1030Y820D01*
G37*
D02*
G36*
X1030Y632D02*
X1030Y620D01*
X1050Y620D01*
X1050Y622D01*
X1052Y622D01*
X1052Y624D01*
X1056Y624D01*
X1056Y626D01*
X1060Y626D01*
X1060Y628D01*
X1064Y628D01*
X1064Y630D01*
X1070Y630D01*
X1070Y632D01*
X1030Y632D01*
G37*
D02*
G36*
X1094Y632D02*
X1094Y630D01*
X1100Y630D01*
X1100Y628D01*
X1104Y628D01*
X1104Y626D01*
X1124Y626D01*
X1124Y628D01*
X1134Y628D01*
X1134Y630D01*
X1146Y630D01*
X1146Y632D01*
X1094Y632D01*
G37*
D02*
G36*
X1026Y230D02*
X1026Y228D01*
X1024Y228D01*
X1024Y224D01*
X1022Y224D01*
X1022Y222D01*
X1020Y222D01*
X1020Y220D01*
X1018Y220D01*
X1018Y216D01*
X1016Y216D01*
X1016Y214D01*
X1014Y214D01*
X1014Y212D01*
X1012Y212D01*
X1012Y208D01*
X1010Y208D01*
X1010Y206D01*
X1008Y206D01*
X1008Y204D01*
X1006Y204D01*
X1006Y202D01*
X1004Y202D01*
X1004Y198D01*
X1002Y198D01*
X1002Y196D01*
X1000Y196D01*
X1000Y194D01*
X998Y194D01*
X998Y192D01*
X996Y192D01*
X996Y188D01*
X994Y188D01*
X994Y186D01*
X992Y186D01*
X992Y184D01*
X990Y184D01*
X990Y182D01*
X988Y182D01*
X988Y178D01*
X986Y178D01*
X986Y176D01*
X984Y176D01*
X984Y174D01*
X982Y174D01*
X982Y170D01*
X980Y170D01*
X980Y168D01*
X978Y168D01*
X978Y166D01*
X976Y166D01*
X976Y164D01*
X974Y164D01*
X974Y162D01*
X972Y162D01*
X972Y158D01*
X970Y158D01*
X970Y156D01*
X966Y156D01*
X966Y154D01*
X964Y154D01*
X964Y152D01*
X958Y152D01*
X958Y150D01*
X952Y150D01*
X952Y148D01*
X314Y148D01*
X314Y146D01*
X312Y146D01*
X312Y144D01*
X310Y144D01*
X310Y122D01*
X312Y122D01*
X312Y120D01*
X314Y120D01*
X314Y118D01*
X318Y118D01*
X318Y114D01*
X320Y114D01*
X320Y112D01*
X322Y112D01*
X322Y110D01*
X324Y110D01*
X324Y106D01*
X326Y106D01*
X326Y102D01*
X328Y102D01*
X328Y96D01*
X330Y96D01*
X330Y70D01*
X328Y70D01*
X328Y64D01*
X326Y64D01*
X326Y60D01*
X1134Y60D01*
X1134Y62D01*
X1130Y62D01*
X1130Y64D01*
X1126Y64D01*
X1126Y66D01*
X1122Y66D01*
X1122Y68D01*
X1120Y68D01*
X1120Y70D01*
X1118Y70D01*
X1118Y72D01*
X1116Y72D01*
X1116Y74D01*
X1114Y74D01*
X1114Y76D01*
X1112Y76D01*
X1112Y78D01*
X1110Y78D01*
X1110Y80D01*
X1108Y80D01*
X1108Y82D01*
X1106Y82D01*
X1106Y84D01*
X1104Y84D01*
X1104Y86D01*
X1102Y86D01*
X1102Y88D01*
X1100Y88D01*
X1100Y90D01*
X1098Y90D01*
X1098Y92D01*
X1096Y92D01*
X1096Y94D01*
X1094Y94D01*
X1094Y96D01*
X1092Y96D01*
X1092Y98D01*
X1090Y98D01*
X1090Y100D01*
X1088Y100D01*
X1088Y102D01*
X1086Y102D01*
X1086Y104D01*
X1084Y104D01*
X1084Y106D01*
X1082Y106D01*
X1082Y108D01*
X1080Y108D01*
X1080Y110D01*
X1078Y110D01*
X1078Y112D01*
X1076Y112D01*
X1076Y114D01*
X1074Y114D01*
X1074Y116D01*
X1072Y116D01*
X1072Y118D01*
X1070Y118D01*
X1070Y120D01*
X1068Y120D01*
X1068Y122D01*
X1066Y122D01*
X1066Y124D01*
X1064Y124D01*
X1064Y126D01*
X1062Y126D01*
X1062Y128D01*
X1060Y128D01*
X1060Y130D01*
X1058Y130D01*
X1058Y132D01*
X1056Y132D01*
X1056Y134D01*
X1054Y134D01*
X1054Y136D01*
X1052Y136D01*
X1052Y140D01*
X1050Y140D01*
X1050Y144D01*
X1048Y144D01*
X1048Y150D01*
X1046Y150D01*
X1046Y230D01*
X1026Y230D01*
G37*
D02*
G36*
X324Y60D02*
X324Y58D01*
X1960Y58D01*
X1960Y60D01*
X324Y60D01*
G37*
D02*
G36*
X324Y60D02*
X324Y58D01*
X1960Y58D01*
X1960Y60D01*
X324Y60D01*
G37*
D02*
G36*
X324Y58D02*
X324Y40D01*
X1960Y40D01*
X1960Y58D01*
X324Y58D01*
G37*
D02*
G36*
X40Y204D02*
X40Y40D01*
X240Y40D01*
X240Y60D01*
X238Y60D01*
X238Y64D01*
X236Y64D01*
X236Y70D01*
X234Y70D01*
X234Y80D01*
X232Y80D01*
X232Y86D01*
X234Y86D01*
X234Y96D01*
X236Y96D01*
X236Y102D01*
X238Y102D01*
X238Y106D01*
X240Y106D01*
X240Y110D01*
X242Y110D01*
X242Y112D01*
X244Y112D01*
X244Y116D01*
X246Y116D01*
X246Y118D01*
X248Y118D01*
X248Y120D01*
X252Y120D01*
X252Y122D01*
X254Y122D01*
X254Y144D01*
X252Y144D01*
X252Y146D01*
X248Y146D01*
X248Y148D01*
X124Y148D01*
X124Y150D01*
X118Y150D01*
X118Y152D01*
X114Y152D01*
X114Y154D01*
X112Y154D01*
X112Y156D01*
X108Y156D01*
X108Y158D01*
X106Y158D01*
X106Y160D01*
X104Y160D01*
X104Y162D01*
X102Y162D01*
X102Y164D01*
X100Y164D01*
X100Y166D01*
X98Y166D01*
X98Y168D01*
X96Y168D01*
X96Y170D01*
X94Y170D01*
X94Y172D01*
X92Y172D01*
X92Y174D01*
X90Y174D01*
X90Y176D01*
X88Y176D01*
X88Y178D01*
X86Y178D01*
X86Y180D01*
X84Y180D01*
X84Y182D01*
X82Y182D01*
X82Y184D01*
X80Y184D01*
X80Y186D01*
X78Y186D01*
X78Y188D01*
X76Y188D01*
X76Y190D01*
X74Y190D01*
X74Y192D01*
X72Y192D01*
X72Y194D01*
X68Y194D01*
X68Y196D01*
X66Y196D01*
X66Y198D01*
X64Y198D01*
X64Y200D01*
X62Y200D01*
X62Y202D01*
X60Y202D01*
X60Y204D01*
X40Y204D01*
G37*
D02*
G36*
X1133Y2216D02*
X1178Y2216D01*
X1178Y2182D01*
X1133Y2182D01*
X1133Y2216D01*
G37*
D02*
G36*
X1174Y2257D02*
X1208Y2257D01*
X1208Y2212D01*
X1174Y2212D01*
X1174Y2257D01*
G37*
D02*
G36*
X1133Y2414D02*
X1178Y2414D01*
X1178Y2380D01*
X1133Y2380D01*
X1133Y2414D01*
G37*
D02*
G36*
X1174Y2383D02*
X1208Y2383D01*
X1208Y2338D01*
X1174Y2338D01*
X1174Y2383D01*
G37*
D02*
G36*
X1184Y406D02*
X1218Y406D01*
X1218Y363D01*
X1184Y363D01*
X1184Y406D01*
G37*
D02*
G36*
X1542Y206D02*
X1570Y206D01*
X1570Y163D01*
X1542Y163D01*
X1542Y206D01*
G37*
D02*
G36*
X1466Y1806D02*
X1500Y1806D01*
X1500Y1763D01*
X1466Y1763D01*
X1466Y1806D01*
G37*
D02*
G36*
X1534Y1806D02*
X1568Y1806D01*
X1568Y1763D01*
X1534Y1763D01*
X1534Y1806D01*
G37*
D02*
G36*
X1508Y1380D02*
X1551Y1380D01*
X1551Y1346D01*
X1508Y1346D01*
X1508Y1380D01*
G37*
D02*
G36*
X1478Y1418D02*
X1512Y1418D01*
X1512Y1375D01*
X1478Y1375D01*
X1478Y1418D01*
G37*
D02*
G36*
X1546Y1418D02*
X1582Y1418D01*
X1582Y1375D01*
X1546Y1375D01*
X1546Y1418D01*
G37*
D02*
G36*
X298Y306D02*
X330Y306D01*
X330Y263D01*
X298Y263D01*
X298Y306D01*
G37*
D02*
G36*
X884Y1300D02*
X927Y1300D01*
X927Y1264D01*
X884Y1264D01*
X884Y1300D01*
G37*
D02*
G36*
X854Y1268D02*
X888Y1268D01*
X888Y1225D01*
X854Y1225D01*
X854Y1268D01*
G37*
D02*
G36*
X922Y1268D02*
X956Y1268D01*
X956Y1225D01*
X922Y1225D01*
X922Y1268D01*
G37*
D02*
G36*
X1140Y1268D02*
X1174Y1268D01*
X1174Y1225D01*
X1140Y1225D01*
X1140Y1268D01*
G37*
D02*
G36*
X1208Y1268D02*
X1244Y1268D01*
X1244Y1225D01*
X1208Y1225D01*
X1208Y1268D01*
G37*
D02*
G36*
X1068Y1002D02*
X1115Y1002D01*
X1115Y968D01*
X1068Y968D01*
X1068Y1002D01*
G37*
D02*
G36*
X1068Y926D02*
X1115Y926D01*
X1115Y892D01*
X1068Y892D01*
X1068Y926D01*
G37*
D02*
G36*
X1550Y1558D02*
X1584Y1558D01*
X1584Y1511D01*
X1550Y1511D01*
X1550Y1558D01*
G37*
D02*
G36*
X1550Y1934D02*
X1584Y1934D01*
X1584Y1887D01*
X1550Y1887D01*
X1550Y1934D01*
G37*
D02*
G36*
X1534Y1222D02*
X1568Y1222D01*
X1568Y1147D01*
X1534Y1147D01*
X1534Y1222D01*
G37*
D02*
G36*
X1666Y1222D02*
X1702Y1222D01*
X1702Y1147D01*
X1666Y1147D01*
X1666Y1222D01*
G37*
D02*
G36*
X1184Y294D02*
X1218Y294D01*
X1218Y251D01*
X1184Y251D01*
X1184Y294D01*
G37*
D02*
G36*
X856Y294D02*
X888Y294D01*
X888Y251D01*
X856Y251D01*
X856Y294D01*
G37*
D02*
G36*
X36Y1055D02*
X62Y1055D01*
X62Y1014D01*
X36Y1014D01*
X36Y1055D01*
G37*
D02*
G36*
X630Y1255D02*
X662Y1255D01*
X662Y1214D01*
X630Y1214D01*
X630Y1255D01*
G37*
D02*
G36*
X696Y1255D02*
X728Y1255D01*
X728Y1214D01*
X696Y1214D01*
X696Y1255D01*
G37*
D02*
G04 End of Copper0*
M02*