; NON-PLATED HOLES START AT T1
; THROUGH (PLATED) HOLES START AT T100
M48
INCH
T100C0.038000
T101C0.031497
T102C0.100000
T103C0.036000
T104C0.040255
T105C0.035000
T106C0.042000
T107C0.040000
%
T100
X011568Y023585
X010568Y023585
X010568Y022335
X009568Y023585
X009568Y022335
X011568Y022335
T101
X010818Y018960
X010818Y019944
X010818Y015210
X010818Y016194
T102
X014993Y009935
X017393Y009935
X016193Y011835
T103
X000818Y021335
X000818Y020335
X000818Y022335
X000818Y019335
X000818Y014335
X000818Y013335
X006818Y022335
X000818Y017335
X006818Y016335
X006818Y013335
X006818Y011335
X006818Y010335
X000818Y015335
X006818Y012335
X006818Y018335
X006818Y009335
X006818Y023335
X000818Y011335
X006818Y020335
X006818Y019335
X000818Y023335
X000818Y010335
X000818Y012335
X000818Y018335
X006818Y017335
X006818Y021335
X000818Y016335
X006818Y015335
X000818Y009335
X006818Y014335
T104
X016943Y001835
X016943Y004854
X015943Y001835
X015943Y004854
X016943Y003847
X016943Y002841
X015943Y003847
X015943Y002841
T105
X014693Y004835
X009068Y003835
X010818Y004835
X009068Y005835
X005818Y008335
X010818Y005835
X011943Y011460
X011318Y013960
X009068Y012460
X011693Y004835
X015193Y017835
X015318Y013960
X014693Y003835
X009085Y002710
X011693Y002710
X009068Y011460
X002818Y008335
X010818Y003835
X009068Y004835
X011693Y003835
X011943Y012460
X011193Y017835
T106
X015318Y019085
X013318Y019085
X014318Y015335
X014318Y019085
X013318Y015335
X009943Y009460
X011943Y009460
X015318Y015335
X010943Y009460
T107
X002818Y003835
X002818Y000835
X018193Y019082
X018193Y020460
X018193Y015457
X018193Y016835
X002818Y005835
X002818Y004835
X002818Y002835
X002818Y001835
T00
M30
