G04 MADE WITH FRITZING*
G04 WWW.FRITZING.ORG*
G04 DOUBLE SIDED*
G04 HOLES PLATED*
G04 CONTOUR ON CENTER OF CONTOUR VECTOR*
%ASAXBY*%
%FSLAX23Y23*%
%MOIN*%
%OFA0B0*%
%SFA1.0B1.0*%
%ADD10C,0.075000*%
%ADD11C,0.078000*%
%ADD12C,0.070000*%
%ADD13C,0.099000*%
%ADD14C,0.039370*%
%ADD15R,0.075000X0.075000*%
%ADD16R,0.099000X0.099000*%
%ADD17R,0.074803X0.062992*%
%ADD18R,0.062992X0.074803*%
%ADD19R,0.024000X0.086900*%
%ADD20C,0.048000*%
%ADD21C,0.032000*%
%ADD22C,0.024000*%
%ADD23C,0.020000*%
%LNCOPPER1*%
G90*
G70*
G54D10*
X1295Y548D03*
X111Y516D03*
G54D11*
X1323Y239D03*
X1323Y339D03*
G54D12*
X1198Y439D03*
X1198Y239D03*
X898Y239D03*
X1098Y239D03*
X1098Y339D03*
X898Y339D03*
G54D10*
X1073Y1052D03*
X1073Y952D03*
X911Y1052D03*
X811Y1052D03*
G54D13*
X673Y514D03*
X473Y514D03*
X573Y714D03*
X673Y102D03*
X473Y102D03*
X573Y302D03*
X673Y852D03*
X473Y852D03*
X573Y1052D03*
G54D12*
X198Y1052D03*
X398Y1052D03*
X1136Y589D03*
X1136Y789D03*
X211Y714D03*
X411Y714D03*
X173Y352D03*
X373Y352D03*
X473Y414D03*
X673Y414D03*
X86Y164D03*
X286Y164D03*
G54D10*
X1252Y972D03*
X1323Y902D03*
G54D11*
X1248Y1102D03*
G54D14*
X1048Y827D03*
X773Y827D03*
X1036Y514D03*
X1323Y739D03*
G54D11*
X698Y1052D03*
G54D15*
X1073Y1052D03*
X911Y1052D03*
G54D16*
X473Y514D03*
X473Y102D03*
X473Y852D03*
G54D17*
X361Y455D03*
X361Y577D03*
X786Y155D03*
X786Y277D03*
X686Y736D03*
X686Y614D03*
G54D18*
X208Y627D03*
X86Y627D03*
G54D17*
X686Y324D03*
X686Y202D03*
G54D18*
X208Y802D03*
X86Y802D03*
G54D19*
X836Y564D03*
X886Y564D03*
X936Y564D03*
X986Y564D03*
X986Y829D03*
X936Y829D03*
X886Y829D03*
X836Y829D03*
G54D17*
X86Y1061D03*
X86Y939D03*
G54D18*
X76Y239D03*
X198Y239D03*
X1095Y439D03*
X973Y439D03*
G54D17*
X1223Y642D03*
X1223Y764D03*
X786Y355D03*
X786Y477D03*
G54D20*
X676Y122D02*
X682Y176D01*
D02*
X459Y419D02*
X393Y443D01*
D02*
X197Y589D02*
X199Y595D01*
D02*
X199Y414D02*
X197Y589D01*
D02*
X179Y366D02*
X199Y414D01*
D02*
X210Y729D02*
X209Y770D01*
D02*
X118Y1059D02*
X183Y1053D01*
G54D21*
D02*
X879Y564D02*
X842Y564D01*
D02*
X373Y851D02*
X453Y852D01*
D02*
X312Y803D02*
X373Y851D01*
D02*
X360Y640D02*
X312Y701D01*
D02*
X312Y701D02*
X312Y803D01*
D02*
X361Y603D02*
X360Y640D01*
D02*
X80Y207D02*
X84Y179D01*
D02*
X673Y577D02*
X677Y588D01*
D02*
X673Y535D02*
X673Y577D01*
D02*
X299Y577D02*
X273Y538D01*
D02*
X273Y538D02*
X273Y277D01*
D02*
X273Y277D02*
X249Y238D01*
D02*
X249Y238D02*
X224Y239D01*
D02*
X329Y577D02*
X299Y577D01*
D02*
X86Y770D02*
X86Y659D01*
D02*
X86Y834D02*
X86Y913D01*
D02*
X683Y762D02*
X675Y831D01*
G54D22*
D02*
X536Y850D02*
X494Y851D01*
D02*
X636Y927D02*
X536Y850D01*
D02*
X886Y901D02*
X860Y927D01*
D02*
X860Y927D02*
X636Y927D01*
D02*
X886Y867D02*
X886Y901D01*
D02*
X911Y965D02*
X935Y939D01*
D02*
X935Y939D02*
X935Y867D01*
D02*
X598Y964D02*
X911Y965D01*
D02*
X561Y939D02*
X598Y964D01*
D02*
X118Y939D02*
X561Y939D01*
G54D21*
D02*
X1040Y827D02*
X992Y829D01*
G54D22*
D02*
X781Y827D02*
X829Y829D01*
D02*
X998Y514D02*
X1028Y514D01*
D02*
X986Y527D02*
X998Y514D01*
D02*
X986Y564D02*
X986Y527D01*
G54D21*
D02*
X936Y777D02*
X936Y791D01*
D02*
X1086Y752D02*
X961Y752D01*
D02*
X961Y752D02*
X936Y777D01*
D02*
X1124Y780D02*
X1086Y752D01*
G54D22*
D02*
X1136Y627D02*
X1124Y639D01*
D02*
X886Y664D02*
X886Y791D01*
D02*
X1124Y639D02*
X911Y639D01*
D02*
X911Y639D02*
X886Y664D01*
D02*
X1136Y604D02*
X1136Y627D01*
D02*
X936Y501D02*
X954Y471D01*
D02*
X936Y526D02*
X936Y501D01*
G54D21*
D02*
X836Y701D02*
X836Y602D01*
D02*
X799Y738D02*
X836Y701D01*
D02*
X718Y737D02*
X799Y738D01*
D02*
X699Y298D02*
X710Y276D01*
D02*
X710Y276D02*
X754Y276D01*
D02*
X1096Y407D02*
X1098Y354D01*
D02*
X861Y215D02*
X818Y180D01*
D02*
X886Y231D02*
X861Y215D01*
G54D22*
D02*
X1224Y538D02*
X1223Y616D01*
D02*
X1122Y513D02*
X1199Y514D01*
D02*
X1098Y489D02*
X1122Y513D01*
D02*
X1199Y514D02*
X1224Y538D01*
D02*
X1097Y471D02*
X1098Y489D01*
G54D21*
D02*
X1236Y852D02*
X1227Y790D01*
D02*
X1211Y876D02*
X1236Y852D01*
D02*
X1073Y876D02*
X1211Y876D01*
D02*
X1048Y852D02*
X1073Y876D01*
D02*
X1048Y835D02*
X1048Y852D01*
D02*
X1048Y876D02*
X1073Y877D01*
D02*
X1073Y877D02*
X1073Y934D01*
D02*
X1048Y835D02*
X1048Y876D01*
G54D22*
D02*
X1323Y884D02*
X1323Y747D01*
G54D21*
D02*
X1056Y1052D02*
X928Y1052D01*
G54D22*
D02*
X786Y303D02*
X786Y329D01*
G36*
X1296Y1137D02*
X1296Y1115D01*
X1298Y1115D01*
X1298Y1105D01*
X1300Y1105D01*
X1300Y1099D01*
X1298Y1099D01*
X1298Y1087D01*
X1296Y1087D01*
X1296Y1081D01*
X1294Y1081D01*
X1294Y1077D01*
X1292Y1077D01*
X1292Y1073D01*
X1290Y1073D01*
X1290Y1071D01*
X1288Y1071D01*
X1288Y1069D01*
X1286Y1069D01*
X1286Y1067D01*
X1284Y1067D01*
X1284Y1065D01*
X1282Y1065D01*
X1282Y1063D01*
X1280Y1063D01*
X1280Y1061D01*
X1278Y1061D01*
X1278Y1059D01*
X1274Y1059D01*
X1274Y1057D01*
X1272Y1057D01*
X1272Y1055D01*
X1268Y1055D01*
X1268Y1053D01*
X1260Y1053D01*
X1260Y1033D01*
X1262Y1033D01*
X1262Y1031D01*
X1264Y1031D01*
X1264Y1029D01*
X1266Y1029D01*
X1266Y1027D01*
X1268Y1027D01*
X1268Y1025D01*
X1270Y1025D01*
X1270Y1023D01*
X1272Y1023D01*
X1272Y1021D01*
X1274Y1021D01*
X1274Y1019D01*
X1276Y1019D01*
X1276Y1017D01*
X1278Y1017D01*
X1278Y1015D01*
X1280Y1015D01*
X1280Y1013D01*
X1282Y1013D01*
X1282Y1011D01*
X1284Y1011D01*
X1284Y1009D01*
X1286Y1009D01*
X1286Y1007D01*
X1288Y1007D01*
X1288Y1005D01*
X1290Y1005D01*
X1290Y1003D01*
X1292Y1003D01*
X1292Y1001D01*
X1294Y1001D01*
X1294Y999D01*
X1296Y999D01*
X1296Y997D01*
X1298Y997D01*
X1298Y995D01*
X1300Y995D01*
X1300Y993D01*
X1302Y993D01*
X1302Y991D01*
X1304Y991D01*
X1304Y989D01*
X1306Y989D01*
X1306Y987D01*
X1308Y987D01*
X1308Y985D01*
X1310Y985D01*
X1310Y983D01*
X1312Y983D01*
X1312Y981D01*
X1314Y981D01*
X1314Y979D01*
X1316Y979D01*
X1316Y977D01*
X1318Y977D01*
X1318Y975D01*
X1320Y975D01*
X1320Y973D01*
X1322Y973D01*
X1322Y971D01*
X1320Y971D01*
X1320Y951D01*
X1330Y951D01*
X1330Y949D01*
X1338Y949D01*
X1338Y947D01*
X1344Y947D01*
X1344Y945D01*
X1348Y945D01*
X1348Y943D01*
X1352Y943D01*
X1352Y941D01*
X1372Y941D01*
X1372Y1137D01*
X1296Y1137D01*
G37*
D02*
G36*
X746Y1033D02*
X746Y1031D01*
X744Y1031D01*
X744Y1027D01*
X742Y1027D01*
X742Y1023D01*
X740Y1023D01*
X740Y1021D01*
X738Y1021D01*
X738Y1019D01*
X736Y1019D01*
X736Y1017D01*
X734Y1017D01*
X734Y1015D01*
X732Y1015D01*
X732Y1013D01*
X730Y1013D01*
X730Y1011D01*
X728Y1011D01*
X728Y1009D01*
X724Y1009D01*
X724Y1007D01*
X722Y1007D01*
X722Y987D01*
X760Y987D01*
X760Y989D01*
X788Y989D01*
X788Y1009D01*
X784Y1009D01*
X784Y1011D01*
X780Y1011D01*
X780Y1013D01*
X778Y1013D01*
X778Y1015D01*
X776Y1015D01*
X776Y1017D01*
X774Y1017D01*
X774Y1019D01*
X772Y1019D01*
X772Y1023D01*
X770Y1023D01*
X770Y1025D01*
X768Y1025D01*
X768Y1029D01*
X766Y1029D01*
X766Y1033D01*
X746Y1033D01*
G37*
D02*
G36*
X630Y1031D02*
X630Y1025D01*
X628Y1025D01*
X628Y1021D01*
X626Y1021D01*
X626Y1019D01*
X624Y1019D01*
X624Y1015D01*
X622Y1015D01*
X622Y1013D01*
X620Y1013D01*
X620Y1011D01*
X618Y1011D01*
X618Y1009D01*
X616Y1009D01*
X616Y1007D01*
X614Y1007D01*
X614Y987D01*
X676Y987D01*
X676Y1007D01*
X672Y1007D01*
X672Y1009D01*
X668Y1009D01*
X668Y1011D01*
X666Y1011D01*
X666Y1013D01*
X664Y1013D01*
X664Y1015D01*
X662Y1015D01*
X662Y1017D01*
X660Y1017D01*
X660Y1019D01*
X658Y1019D01*
X658Y1021D01*
X656Y1021D01*
X656Y1025D01*
X654Y1025D01*
X654Y1029D01*
X652Y1029D01*
X652Y1031D01*
X630Y1031D01*
G37*
D02*
G36*
X726Y903D02*
X726Y881D01*
X728Y881D01*
X728Y877D01*
X730Y877D01*
X730Y871D01*
X732Y871D01*
X732Y865D01*
X734Y865D01*
X734Y857D01*
X784Y857D01*
X784Y855D01*
X788Y855D01*
X788Y853D01*
X792Y853D01*
X792Y851D01*
X812Y851D01*
X812Y903D01*
X726Y903D01*
G37*
D02*
G36*
X734Y857D02*
X734Y851D01*
X754Y851D01*
X754Y853D01*
X758Y853D01*
X758Y855D01*
X762Y855D01*
X762Y857D01*
X734Y857D01*
G37*
D02*
G36*
X1350Y861D02*
X1350Y859D01*
X1348Y859D01*
X1348Y757D01*
X1350Y757D01*
X1350Y753D01*
X1352Y753D01*
X1352Y749D01*
X1372Y749D01*
X1372Y861D01*
X1350Y861D01*
G37*
D02*
G36*
X724Y817D02*
X724Y815D01*
X722Y815D01*
X722Y813D01*
X720Y813D01*
X720Y811D01*
X718Y811D01*
X718Y809D01*
X716Y809D01*
X716Y807D01*
X714Y807D01*
X714Y805D01*
X712Y805D01*
X712Y803D01*
X710Y803D01*
X710Y801D01*
X708Y801D01*
X708Y795D01*
X764Y795D01*
X764Y797D01*
X760Y797D01*
X760Y799D01*
X756Y799D01*
X756Y801D01*
X754Y801D01*
X754Y803D01*
X750Y803D01*
X750Y807D01*
X748Y807D01*
X748Y809D01*
X746Y809D01*
X746Y813D01*
X744Y813D01*
X744Y817D01*
X724Y817D01*
G37*
D02*
G36*
X790Y801D02*
X790Y799D01*
X788Y799D01*
X788Y797D01*
X782Y797D01*
X782Y795D01*
X812Y795D01*
X812Y801D01*
X790Y801D01*
G37*
D02*
G36*
X708Y795D02*
X708Y793D01*
X812Y793D01*
X812Y795D01*
X708Y795D01*
G37*
D02*
G36*
X708Y795D02*
X708Y793D01*
X812Y793D01*
X812Y795D01*
X708Y795D01*
G37*
D02*
G36*
X708Y793D02*
X708Y781D01*
X710Y781D01*
X710Y779D01*
X736Y779D01*
X736Y765D01*
X812Y765D01*
X812Y793D01*
X708Y793D01*
G37*
D02*
G36*
X1010Y615D02*
X1010Y545D01*
X1044Y545D01*
X1044Y543D01*
X1050Y543D01*
X1050Y541D01*
X1054Y541D01*
X1054Y539D01*
X1056Y539D01*
X1056Y537D01*
X1058Y537D01*
X1058Y535D01*
X1060Y535D01*
X1060Y533D01*
X1062Y533D01*
X1062Y529D01*
X1064Y529D01*
X1064Y525D01*
X1066Y525D01*
X1066Y517D01*
X1068Y517D01*
X1068Y511D01*
X1066Y511D01*
X1066Y509D01*
X1086Y509D01*
X1086Y511D01*
X1088Y511D01*
X1088Y513D01*
X1090Y513D01*
X1090Y515D01*
X1092Y515D01*
X1092Y517D01*
X1094Y517D01*
X1094Y519D01*
X1096Y519D01*
X1096Y521D01*
X1098Y521D01*
X1098Y523D01*
X1100Y523D01*
X1100Y525D01*
X1102Y525D01*
X1102Y527D01*
X1104Y527D01*
X1104Y529D01*
X1106Y529D01*
X1106Y531D01*
X1108Y531D01*
X1108Y551D01*
X1106Y551D01*
X1106Y553D01*
X1104Y553D01*
X1104Y555D01*
X1102Y555D01*
X1102Y557D01*
X1100Y557D01*
X1100Y559D01*
X1098Y559D01*
X1098Y563D01*
X1096Y563D01*
X1096Y565D01*
X1094Y565D01*
X1094Y569D01*
X1092Y569D01*
X1092Y575D01*
X1090Y575D01*
X1090Y585D01*
X1088Y585D01*
X1088Y593D01*
X1090Y593D01*
X1090Y615D01*
X1010Y615D01*
G37*
D02*
G36*
X302Y533D02*
X302Y529D01*
X300Y529D01*
X300Y497D01*
X412Y497D01*
X412Y533D01*
X302Y533D01*
G37*
D02*
G36*
X40Y1137D02*
X40Y1113D01*
X582Y1113D01*
X582Y1111D01*
X592Y1111D01*
X592Y1109D01*
X596Y1109D01*
X596Y1107D01*
X602Y1107D01*
X602Y1105D01*
X604Y1105D01*
X604Y1103D01*
X702Y1103D01*
X702Y1101D01*
X1122Y1101D01*
X1122Y1001D01*
X1112Y1001D01*
X1112Y981D01*
X1114Y981D01*
X1114Y977D01*
X1116Y977D01*
X1116Y973D01*
X1118Y973D01*
X1118Y969D01*
X1120Y969D01*
X1120Y963D01*
X1122Y963D01*
X1122Y939D01*
X1120Y939D01*
X1120Y933D01*
X1118Y933D01*
X1118Y929D01*
X1116Y929D01*
X1116Y925D01*
X1114Y925D01*
X1114Y923D01*
X1112Y923D01*
X1112Y903D01*
X1250Y903D01*
X1250Y905D01*
X1248Y905D01*
X1248Y907D01*
X1246Y907D01*
X1246Y909D01*
X1244Y909D01*
X1244Y911D01*
X1242Y911D01*
X1242Y913D01*
X1240Y913D01*
X1240Y915D01*
X1238Y915D01*
X1238Y917D01*
X1236Y917D01*
X1236Y919D01*
X1234Y919D01*
X1234Y921D01*
X1232Y921D01*
X1232Y923D01*
X1230Y923D01*
X1230Y925D01*
X1228Y925D01*
X1228Y927D01*
X1226Y927D01*
X1226Y929D01*
X1224Y929D01*
X1224Y931D01*
X1222Y931D01*
X1222Y933D01*
X1220Y933D01*
X1220Y935D01*
X1218Y935D01*
X1218Y937D01*
X1216Y937D01*
X1216Y939D01*
X1214Y939D01*
X1214Y941D01*
X1212Y941D01*
X1212Y943D01*
X1210Y943D01*
X1210Y945D01*
X1208Y945D01*
X1208Y947D01*
X1206Y947D01*
X1206Y949D01*
X1204Y949D01*
X1204Y951D01*
X1202Y951D01*
X1202Y953D01*
X1200Y953D01*
X1200Y955D01*
X1198Y955D01*
X1198Y957D01*
X1196Y957D01*
X1196Y959D01*
X1194Y959D01*
X1194Y961D01*
X1192Y961D01*
X1192Y963D01*
X1190Y963D01*
X1190Y965D01*
X1188Y965D01*
X1188Y967D01*
X1186Y967D01*
X1186Y969D01*
X1184Y969D01*
X1184Y971D01*
X1182Y971D01*
X1182Y973D01*
X1184Y973D01*
X1184Y975D01*
X1186Y975D01*
X1186Y977D01*
X1188Y977D01*
X1188Y979D01*
X1190Y979D01*
X1190Y981D01*
X1192Y981D01*
X1192Y983D01*
X1194Y983D01*
X1194Y985D01*
X1196Y985D01*
X1196Y987D01*
X1198Y987D01*
X1198Y989D01*
X1200Y989D01*
X1200Y991D01*
X1202Y991D01*
X1202Y993D01*
X1204Y993D01*
X1204Y995D01*
X1206Y995D01*
X1206Y997D01*
X1208Y997D01*
X1208Y999D01*
X1210Y999D01*
X1210Y1001D01*
X1212Y1001D01*
X1212Y1003D01*
X1214Y1003D01*
X1214Y1005D01*
X1216Y1005D01*
X1216Y1007D01*
X1218Y1007D01*
X1218Y1009D01*
X1220Y1009D01*
X1220Y1011D01*
X1222Y1011D01*
X1222Y1013D01*
X1224Y1013D01*
X1224Y1015D01*
X1226Y1015D01*
X1226Y1017D01*
X1228Y1017D01*
X1228Y1019D01*
X1230Y1019D01*
X1230Y1021D01*
X1232Y1021D01*
X1232Y1023D01*
X1234Y1023D01*
X1234Y1025D01*
X1236Y1025D01*
X1236Y1027D01*
X1238Y1027D01*
X1238Y1029D01*
X1240Y1029D01*
X1240Y1031D01*
X1242Y1031D01*
X1242Y1051D01*
X1236Y1051D01*
X1236Y1053D01*
X1230Y1053D01*
X1230Y1055D01*
X1226Y1055D01*
X1226Y1057D01*
X1222Y1057D01*
X1222Y1059D01*
X1218Y1059D01*
X1218Y1061D01*
X1216Y1061D01*
X1216Y1063D01*
X1214Y1063D01*
X1214Y1065D01*
X1212Y1065D01*
X1212Y1067D01*
X1210Y1067D01*
X1210Y1069D01*
X1208Y1069D01*
X1208Y1071D01*
X1206Y1071D01*
X1206Y1075D01*
X1204Y1075D01*
X1204Y1079D01*
X1202Y1079D01*
X1202Y1081D01*
X1200Y1081D01*
X1200Y1089D01*
X1198Y1089D01*
X1198Y1115D01*
X1200Y1115D01*
X1200Y1137D01*
X40Y1137D01*
G37*
D02*
G36*
X40Y1113D02*
X40Y1105D01*
X134Y1105D01*
X134Y1103D01*
X136Y1103D01*
X136Y1099D01*
X402Y1099D01*
X402Y1097D01*
X412Y1097D01*
X412Y1095D01*
X418Y1095D01*
X418Y1093D01*
X422Y1093D01*
X422Y1091D01*
X424Y1091D01*
X424Y1089D01*
X428Y1089D01*
X428Y1087D01*
X430Y1087D01*
X430Y1085D01*
X432Y1085D01*
X432Y1083D01*
X434Y1083D01*
X434Y1081D01*
X436Y1081D01*
X436Y1077D01*
X438Y1077D01*
X438Y1075D01*
X440Y1075D01*
X440Y1071D01*
X442Y1071D01*
X442Y1065D01*
X444Y1065D01*
X444Y1055D01*
X446Y1055D01*
X446Y1049D01*
X444Y1049D01*
X444Y1039D01*
X442Y1039D01*
X442Y1033D01*
X440Y1033D01*
X440Y1029D01*
X438Y1029D01*
X438Y1025D01*
X436Y1025D01*
X436Y1023D01*
X434Y1023D01*
X434Y1019D01*
X432Y1019D01*
X432Y1017D01*
X428Y1017D01*
X428Y1015D01*
X426Y1015D01*
X426Y1013D01*
X424Y1013D01*
X424Y1011D01*
X420Y1011D01*
X420Y1009D01*
X416Y1009D01*
X416Y1007D01*
X410Y1007D01*
X410Y1005D01*
X532Y1005D01*
X532Y1007D01*
X530Y1007D01*
X530Y1009D01*
X528Y1009D01*
X528Y1011D01*
X526Y1011D01*
X526Y1013D01*
X524Y1013D01*
X524Y1015D01*
X522Y1015D01*
X522Y1019D01*
X520Y1019D01*
X520Y1023D01*
X518Y1023D01*
X518Y1027D01*
X516Y1027D01*
X516Y1031D01*
X514Y1031D01*
X514Y1039D01*
X512Y1039D01*
X512Y1063D01*
X514Y1063D01*
X514Y1071D01*
X516Y1071D01*
X516Y1077D01*
X518Y1077D01*
X518Y1081D01*
X520Y1081D01*
X520Y1083D01*
X522Y1083D01*
X522Y1087D01*
X524Y1087D01*
X524Y1089D01*
X526Y1089D01*
X526Y1091D01*
X528Y1091D01*
X528Y1093D01*
X530Y1093D01*
X530Y1095D01*
X532Y1095D01*
X532Y1097D01*
X534Y1097D01*
X534Y1099D01*
X536Y1099D01*
X536Y1101D01*
X538Y1101D01*
X538Y1103D01*
X542Y1103D01*
X542Y1105D01*
X546Y1105D01*
X546Y1107D01*
X550Y1107D01*
X550Y1109D01*
X556Y1109D01*
X556Y1111D01*
X564Y1111D01*
X564Y1113D01*
X40Y1113D01*
G37*
D02*
G36*
X608Y1103D02*
X608Y1101D01*
X610Y1101D01*
X610Y1099D01*
X614Y1099D01*
X614Y1097D01*
X616Y1097D01*
X616Y1095D01*
X618Y1095D01*
X618Y1093D01*
X620Y1093D01*
X620Y1089D01*
X622Y1089D01*
X622Y1087D01*
X624Y1087D01*
X624Y1085D01*
X626Y1085D01*
X626Y1081D01*
X628Y1081D01*
X628Y1077D01*
X630Y1077D01*
X630Y1071D01*
X652Y1071D01*
X652Y1075D01*
X654Y1075D01*
X654Y1077D01*
X656Y1077D01*
X656Y1081D01*
X658Y1081D01*
X658Y1083D01*
X660Y1083D01*
X660Y1085D01*
X662Y1085D01*
X662Y1089D01*
X666Y1089D01*
X666Y1091D01*
X668Y1091D01*
X668Y1093D01*
X670Y1093D01*
X670Y1095D01*
X674Y1095D01*
X674Y1097D01*
X678Y1097D01*
X678Y1099D01*
X684Y1099D01*
X684Y1101D01*
X694Y1101D01*
X694Y1103D01*
X608Y1103D01*
G37*
D02*
G36*
X712Y1101D02*
X712Y1099D01*
X718Y1099D01*
X718Y1097D01*
X722Y1097D01*
X722Y1095D01*
X726Y1095D01*
X726Y1093D01*
X728Y1093D01*
X728Y1091D01*
X730Y1091D01*
X730Y1089D01*
X734Y1089D01*
X734Y1087D01*
X736Y1087D01*
X736Y1083D01*
X738Y1083D01*
X738Y1081D01*
X740Y1081D01*
X740Y1079D01*
X742Y1079D01*
X742Y1075D01*
X744Y1075D01*
X744Y1071D01*
X766Y1071D01*
X766Y1075D01*
X768Y1075D01*
X768Y1077D01*
X770Y1077D01*
X770Y1081D01*
X772Y1081D01*
X772Y1083D01*
X774Y1083D01*
X774Y1085D01*
X776Y1085D01*
X776Y1087D01*
X778Y1087D01*
X778Y1089D01*
X780Y1089D01*
X780Y1091D01*
X782Y1091D01*
X782Y1093D01*
X786Y1093D01*
X786Y1095D01*
X790Y1095D01*
X790Y1097D01*
X796Y1097D01*
X796Y1099D01*
X802Y1099D01*
X802Y1101D01*
X712Y1101D01*
G37*
D02*
G36*
X818Y1101D02*
X818Y1099D01*
X826Y1099D01*
X826Y1097D01*
X832Y1097D01*
X832Y1095D01*
X836Y1095D01*
X836Y1093D01*
X838Y1093D01*
X838Y1091D01*
X842Y1091D01*
X842Y1089D01*
X862Y1089D01*
X862Y1101D01*
X818Y1101D01*
G37*
D02*
G36*
X960Y1101D02*
X960Y1001D01*
X926Y1001D01*
X926Y981D01*
X928Y981D01*
X928Y979D01*
X930Y979D01*
X930Y977D01*
X932Y977D01*
X932Y975D01*
X934Y975D01*
X934Y973D01*
X936Y973D01*
X936Y971D01*
X938Y971D01*
X938Y969D01*
X940Y969D01*
X940Y967D01*
X942Y967D01*
X942Y965D01*
X944Y965D01*
X944Y963D01*
X946Y963D01*
X946Y961D01*
X948Y961D01*
X948Y959D01*
X950Y959D01*
X950Y957D01*
X952Y957D01*
X952Y955D01*
X954Y955D01*
X954Y951D01*
X956Y951D01*
X956Y949D01*
X958Y949D01*
X958Y939D01*
X960Y939D01*
X960Y885D01*
X1022Y885D01*
X1022Y889D01*
X1024Y889D01*
X1024Y893D01*
X1026Y893D01*
X1026Y895D01*
X1028Y895D01*
X1028Y897D01*
X1030Y897D01*
X1030Y899D01*
X1034Y899D01*
X1034Y901D01*
X1036Y901D01*
X1036Y921D01*
X1034Y921D01*
X1034Y923D01*
X1032Y923D01*
X1032Y925D01*
X1030Y925D01*
X1030Y929D01*
X1028Y929D01*
X1028Y933D01*
X1026Y933D01*
X1026Y941D01*
X1024Y941D01*
X1024Y961D01*
X1026Y961D01*
X1026Y969D01*
X1028Y969D01*
X1028Y973D01*
X1030Y973D01*
X1030Y977D01*
X1032Y977D01*
X1032Y979D01*
X1034Y979D01*
X1034Y1001D01*
X1024Y1001D01*
X1024Y1101D01*
X960Y1101D01*
G37*
D02*
G36*
X136Y1099D02*
X136Y1093D01*
X144Y1093D01*
X144Y1091D01*
X176Y1091D01*
X176Y1093D01*
X178Y1093D01*
X178Y1095D01*
X184Y1095D01*
X184Y1097D01*
X194Y1097D01*
X194Y1099D01*
X136Y1099D01*
G37*
D02*
G36*
X202Y1099D02*
X202Y1097D01*
X212Y1097D01*
X212Y1095D01*
X218Y1095D01*
X218Y1093D01*
X222Y1093D01*
X222Y1091D01*
X224Y1091D01*
X224Y1089D01*
X228Y1089D01*
X228Y1087D01*
X230Y1087D01*
X230Y1085D01*
X232Y1085D01*
X232Y1083D01*
X234Y1083D01*
X234Y1081D01*
X236Y1081D01*
X236Y1077D01*
X238Y1077D01*
X238Y1075D01*
X240Y1075D01*
X240Y1071D01*
X242Y1071D01*
X242Y1065D01*
X244Y1065D01*
X244Y1055D01*
X246Y1055D01*
X246Y1049D01*
X244Y1049D01*
X244Y1039D01*
X242Y1039D01*
X242Y1033D01*
X240Y1033D01*
X240Y1029D01*
X238Y1029D01*
X238Y1025D01*
X236Y1025D01*
X236Y1023D01*
X234Y1023D01*
X234Y1019D01*
X232Y1019D01*
X232Y1017D01*
X228Y1017D01*
X228Y1015D01*
X226Y1015D01*
X226Y1013D01*
X224Y1013D01*
X224Y1011D01*
X220Y1011D01*
X220Y1009D01*
X216Y1009D01*
X216Y1007D01*
X210Y1007D01*
X210Y1005D01*
X386Y1005D01*
X386Y1007D01*
X380Y1007D01*
X380Y1009D01*
X376Y1009D01*
X376Y1011D01*
X372Y1011D01*
X372Y1013D01*
X370Y1013D01*
X370Y1015D01*
X368Y1015D01*
X368Y1017D01*
X366Y1017D01*
X366Y1019D01*
X364Y1019D01*
X364Y1021D01*
X362Y1021D01*
X362Y1023D01*
X360Y1023D01*
X360Y1025D01*
X358Y1025D01*
X358Y1029D01*
X356Y1029D01*
X356Y1033D01*
X354Y1033D01*
X354Y1039D01*
X352Y1039D01*
X352Y1063D01*
X354Y1063D01*
X354Y1069D01*
X356Y1069D01*
X356Y1073D01*
X358Y1073D01*
X358Y1077D01*
X360Y1077D01*
X360Y1079D01*
X362Y1079D01*
X362Y1083D01*
X364Y1083D01*
X364Y1085D01*
X366Y1085D01*
X366Y1087D01*
X370Y1087D01*
X370Y1089D01*
X372Y1089D01*
X372Y1091D01*
X376Y1091D01*
X376Y1093D01*
X378Y1093D01*
X378Y1095D01*
X384Y1095D01*
X384Y1097D01*
X394Y1097D01*
X394Y1099D01*
X202Y1099D01*
G37*
D02*
G36*
X134Y1019D02*
X134Y1017D01*
X40Y1017D01*
X40Y1005D01*
X186Y1005D01*
X186Y1007D01*
X180Y1007D01*
X180Y1009D01*
X176Y1009D01*
X176Y1011D01*
X172Y1011D01*
X172Y1013D01*
X170Y1013D01*
X170Y1015D01*
X168Y1015D01*
X168Y1017D01*
X164Y1017D01*
X164Y1019D01*
X134Y1019D01*
G37*
D02*
G36*
X40Y1005D02*
X40Y1003D01*
X534Y1003D01*
X534Y1005D01*
X40Y1005D01*
G37*
D02*
G36*
X40Y1005D02*
X40Y1003D01*
X534Y1003D01*
X534Y1005D01*
X40Y1005D01*
G37*
D02*
G36*
X40Y1005D02*
X40Y1003D01*
X534Y1003D01*
X534Y1005D01*
X40Y1005D01*
G37*
D02*
G36*
X40Y1003D02*
X40Y983D01*
X134Y983D01*
X134Y981D01*
X136Y981D01*
X136Y963D01*
X556Y963D01*
X556Y965D01*
X558Y965D01*
X558Y967D01*
X562Y967D01*
X562Y969D01*
X564Y969D01*
X564Y971D01*
X568Y971D01*
X568Y991D01*
X558Y991D01*
X558Y993D01*
X550Y993D01*
X550Y995D01*
X546Y995D01*
X546Y997D01*
X542Y997D01*
X542Y999D01*
X540Y999D01*
X540Y1001D01*
X536Y1001D01*
X536Y1003D01*
X40Y1003D01*
G37*
D02*
G36*
X1254Y905D02*
X1254Y903D01*
X1274Y903D01*
X1274Y905D01*
X1254Y905D01*
G37*
D02*
G36*
X1220Y903D02*
X1220Y901D01*
X1274Y901D01*
X1274Y903D01*
X1220Y903D01*
G37*
D02*
G36*
X1220Y903D02*
X1220Y901D01*
X1274Y901D01*
X1274Y903D01*
X1220Y903D01*
G37*
D02*
G36*
X1224Y901D02*
X1224Y899D01*
X1228Y899D01*
X1228Y897D01*
X1230Y897D01*
X1230Y895D01*
X1232Y895D01*
X1232Y893D01*
X1234Y893D01*
X1234Y891D01*
X1236Y891D01*
X1236Y889D01*
X1238Y889D01*
X1238Y887D01*
X1240Y887D01*
X1240Y885D01*
X1242Y885D01*
X1242Y883D01*
X1244Y883D01*
X1244Y881D01*
X1248Y881D01*
X1248Y879D01*
X1250Y879D01*
X1250Y877D01*
X1252Y877D01*
X1252Y875D01*
X1254Y875D01*
X1254Y873D01*
X1256Y873D01*
X1256Y871D01*
X1258Y871D01*
X1258Y867D01*
X1260Y867D01*
X1260Y865D01*
X1262Y865D01*
X1262Y859D01*
X1264Y859D01*
X1264Y843D01*
X1262Y843D01*
X1262Y829D01*
X1260Y829D01*
X1260Y807D01*
X1272Y807D01*
X1272Y721D01*
X1296Y721D01*
X1296Y725D01*
X1294Y725D01*
X1294Y729D01*
X1292Y729D01*
X1292Y747D01*
X1294Y747D01*
X1294Y753D01*
X1296Y753D01*
X1296Y757D01*
X1298Y757D01*
X1298Y759D01*
X1300Y759D01*
X1300Y859D01*
X1296Y859D01*
X1296Y861D01*
X1294Y861D01*
X1294Y863D01*
X1290Y863D01*
X1290Y865D01*
X1288Y865D01*
X1288Y867D01*
X1286Y867D01*
X1286Y869D01*
X1284Y869D01*
X1284Y873D01*
X1282Y873D01*
X1282Y875D01*
X1280Y875D01*
X1280Y879D01*
X1278Y879D01*
X1278Y883D01*
X1276Y883D01*
X1276Y891D01*
X1274Y891D01*
X1274Y901D01*
X1224Y901D01*
G37*
D02*
G36*
X1154Y747D02*
X1154Y745D01*
X1150Y745D01*
X1150Y743D01*
X1140Y743D01*
X1140Y741D01*
X1118Y741D01*
X1118Y739D01*
X1114Y739D01*
X1114Y737D01*
X1112Y737D01*
X1112Y735D01*
X1110Y735D01*
X1110Y733D01*
X1106Y733D01*
X1106Y731D01*
X1104Y731D01*
X1104Y729D01*
X1102Y729D01*
X1102Y727D01*
X1098Y727D01*
X1098Y725D01*
X1092Y725D01*
X1092Y723D01*
X1174Y723D01*
X1174Y747D01*
X1154Y747D01*
G37*
D02*
G36*
X910Y743D02*
X910Y723D01*
X956Y723D01*
X956Y725D01*
X950Y725D01*
X950Y727D01*
X946Y727D01*
X946Y729D01*
X944Y729D01*
X944Y731D01*
X940Y731D01*
X940Y733D01*
X938Y733D01*
X938Y735D01*
X936Y735D01*
X936Y737D01*
X934Y737D01*
X934Y739D01*
X932Y739D01*
X932Y741D01*
X930Y741D01*
X930Y743D01*
X910Y743D01*
G37*
D02*
G36*
X1352Y729D02*
X1352Y723D01*
X1350Y723D01*
X1350Y721D01*
X1348Y721D01*
X1348Y719D01*
X1346Y719D01*
X1346Y715D01*
X1342Y715D01*
X1342Y713D01*
X1340Y713D01*
X1340Y711D01*
X1336Y711D01*
X1336Y709D01*
X1330Y709D01*
X1330Y707D01*
X1372Y707D01*
X1372Y729D01*
X1352Y729D01*
G37*
D02*
G36*
X910Y723D02*
X910Y721D01*
X1174Y721D01*
X1174Y723D01*
X910Y723D01*
G37*
D02*
G36*
X910Y723D02*
X910Y721D01*
X1174Y721D01*
X1174Y723D01*
X910Y723D01*
G37*
D02*
G36*
X910Y721D02*
X910Y719D01*
X1298Y719D01*
X1298Y721D01*
X910Y721D01*
G37*
D02*
G36*
X910Y721D02*
X910Y719D01*
X1298Y719D01*
X1298Y721D01*
X910Y721D01*
G37*
D02*
G36*
X910Y719D02*
X910Y707D01*
X1316Y707D01*
X1316Y709D01*
X1310Y709D01*
X1310Y711D01*
X1306Y711D01*
X1306Y713D01*
X1304Y713D01*
X1304Y715D01*
X1302Y715D01*
X1302Y717D01*
X1300Y717D01*
X1300Y719D01*
X910Y719D01*
G37*
D02*
G36*
X910Y707D02*
X910Y705D01*
X1372Y705D01*
X1372Y707D01*
X910Y707D01*
G37*
D02*
G36*
X910Y707D02*
X910Y705D01*
X1372Y705D01*
X1372Y707D01*
X910Y707D01*
G37*
D02*
G36*
X910Y705D02*
X910Y685D01*
X1272Y685D01*
X1272Y599D01*
X1248Y599D01*
X1248Y533D01*
X1246Y533D01*
X1246Y527D01*
X1244Y527D01*
X1244Y525D01*
X1242Y525D01*
X1242Y521D01*
X1240Y521D01*
X1240Y519D01*
X1238Y519D01*
X1238Y517D01*
X1236Y517D01*
X1236Y515D01*
X1234Y515D01*
X1234Y513D01*
X1232Y513D01*
X1232Y511D01*
X1230Y511D01*
X1230Y509D01*
X1228Y509D01*
X1228Y507D01*
X1226Y507D01*
X1226Y505D01*
X1224Y505D01*
X1224Y503D01*
X1222Y503D01*
X1222Y501D01*
X1220Y501D01*
X1220Y479D01*
X1224Y479D01*
X1224Y477D01*
X1226Y477D01*
X1226Y475D01*
X1228Y475D01*
X1228Y473D01*
X1232Y473D01*
X1232Y471D01*
X1234Y471D01*
X1234Y467D01*
X1236Y467D01*
X1236Y465D01*
X1238Y465D01*
X1238Y461D01*
X1240Y461D01*
X1240Y457D01*
X1242Y457D01*
X1242Y451D01*
X1244Y451D01*
X1244Y441D01*
X1246Y441D01*
X1246Y435D01*
X1244Y435D01*
X1244Y425D01*
X1242Y425D01*
X1242Y419D01*
X1240Y419D01*
X1240Y417D01*
X1238Y417D01*
X1238Y413D01*
X1236Y413D01*
X1236Y409D01*
X1234Y409D01*
X1234Y407D01*
X1232Y407D01*
X1232Y405D01*
X1230Y405D01*
X1230Y403D01*
X1228Y403D01*
X1228Y401D01*
X1224Y401D01*
X1224Y399D01*
X1222Y399D01*
X1222Y397D01*
X1218Y397D01*
X1218Y395D01*
X1212Y395D01*
X1212Y393D01*
X1202Y393D01*
X1202Y391D01*
X1372Y391D01*
X1372Y705D01*
X910Y705D01*
G37*
D02*
G36*
X910Y685D02*
X910Y673D01*
X912Y673D01*
X912Y671D01*
X914Y671D01*
X914Y669D01*
X916Y669D01*
X916Y667D01*
X918Y667D01*
X918Y665D01*
X920Y665D01*
X920Y663D01*
X1130Y663D01*
X1130Y661D01*
X1134Y661D01*
X1134Y659D01*
X1138Y659D01*
X1138Y657D01*
X1140Y657D01*
X1140Y655D01*
X1142Y655D01*
X1142Y653D01*
X1144Y653D01*
X1144Y651D01*
X1146Y651D01*
X1146Y649D01*
X1148Y649D01*
X1148Y647D01*
X1150Y647D01*
X1150Y645D01*
X1152Y645D01*
X1152Y643D01*
X1154Y643D01*
X1154Y641D01*
X1174Y641D01*
X1174Y685D01*
X910Y685D01*
G37*
D02*
G36*
X1016Y483D02*
X1016Y389D01*
X934Y389D01*
X934Y367D01*
X936Y367D01*
X936Y365D01*
X938Y365D01*
X938Y361D01*
X940Y361D01*
X940Y357D01*
X942Y357D01*
X942Y351D01*
X944Y351D01*
X944Y341D01*
X946Y341D01*
X946Y335D01*
X944Y335D01*
X944Y325D01*
X942Y325D01*
X942Y319D01*
X940Y319D01*
X940Y317D01*
X938Y317D01*
X938Y313D01*
X936Y313D01*
X936Y309D01*
X934Y309D01*
X934Y307D01*
X932Y307D01*
X932Y305D01*
X930Y305D01*
X930Y303D01*
X928Y303D01*
X928Y301D01*
X924Y301D01*
X924Y299D01*
X922Y299D01*
X922Y279D01*
X924Y279D01*
X924Y277D01*
X926Y277D01*
X926Y275D01*
X928Y275D01*
X928Y273D01*
X932Y273D01*
X932Y271D01*
X934Y271D01*
X934Y267D01*
X936Y267D01*
X936Y265D01*
X938Y265D01*
X938Y261D01*
X940Y261D01*
X940Y257D01*
X942Y257D01*
X942Y251D01*
X944Y251D01*
X944Y241D01*
X946Y241D01*
X946Y235D01*
X944Y235D01*
X944Y225D01*
X942Y225D01*
X942Y219D01*
X940Y219D01*
X940Y217D01*
X938Y217D01*
X938Y213D01*
X936Y213D01*
X936Y209D01*
X934Y209D01*
X934Y207D01*
X932Y207D01*
X932Y205D01*
X930Y205D01*
X930Y203D01*
X928Y203D01*
X928Y201D01*
X924Y201D01*
X924Y199D01*
X920Y199D01*
X920Y197D01*
X918Y197D01*
X918Y195D01*
X912Y195D01*
X912Y193D01*
X902Y193D01*
X902Y191D01*
X1094Y191D01*
X1094Y193D01*
X1084Y193D01*
X1084Y195D01*
X1078Y195D01*
X1078Y197D01*
X1076Y197D01*
X1076Y199D01*
X1072Y199D01*
X1072Y201D01*
X1070Y201D01*
X1070Y203D01*
X1066Y203D01*
X1066Y205D01*
X1064Y205D01*
X1064Y207D01*
X1062Y207D01*
X1062Y211D01*
X1060Y211D01*
X1060Y213D01*
X1058Y213D01*
X1058Y217D01*
X1056Y217D01*
X1056Y221D01*
X1054Y221D01*
X1054Y227D01*
X1052Y227D01*
X1052Y251D01*
X1054Y251D01*
X1054Y257D01*
X1056Y257D01*
X1056Y261D01*
X1058Y261D01*
X1058Y265D01*
X1060Y265D01*
X1060Y267D01*
X1062Y267D01*
X1062Y269D01*
X1064Y269D01*
X1064Y271D01*
X1066Y271D01*
X1066Y273D01*
X1068Y273D01*
X1068Y275D01*
X1070Y275D01*
X1070Y277D01*
X1072Y277D01*
X1072Y279D01*
X1076Y279D01*
X1076Y299D01*
X1072Y299D01*
X1072Y301D01*
X1070Y301D01*
X1070Y303D01*
X1066Y303D01*
X1066Y305D01*
X1064Y305D01*
X1064Y307D01*
X1062Y307D01*
X1062Y311D01*
X1060Y311D01*
X1060Y313D01*
X1058Y313D01*
X1058Y317D01*
X1056Y317D01*
X1056Y321D01*
X1054Y321D01*
X1054Y327D01*
X1052Y327D01*
X1052Y351D01*
X1054Y351D01*
X1054Y357D01*
X1056Y357D01*
X1056Y361D01*
X1058Y361D01*
X1058Y365D01*
X1060Y365D01*
X1060Y367D01*
X1062Y367D01*
X1062Y369D01*
X1064Y369D01*
X1064Y389D01*
X1052Y389D01*
X1052Y483D01*
X1016Y483D01*
G37*
D02*
G36*
X1138Y417D02*
X1138Y391D01*
X1194Y391D01*
X1194Y393D01*
X1184Y393D01*
X1184Y395D01*
X1178Y395D01*
X1178Y397D01*
X1176Y397D01*
X1176Y399D01*
X1172Y399D01*
X1172Y401D01*
X1170Y401D01*
X1170Y403D01*
X1166Y403D01*
X1166Y405D01*
X1164Y405D01*
X1164Y407D01*
X1162Y407D01*
X1162Y411D01*
X1160Y411D01*
X1160Y413D01*
X1158Y413D01*
X1158Y417D01*
X1138Y417D01*
G37*
D02*
G36*
X1138Y391D02*
X1138Y389D01*
X1372Y389D01*
X1372Y391D01*
X1138Y391D01*
G37*
D02*
G36*
X1138Y391D02*
X1138Y389D01*
X1372Y389D01*
X1372Y391D01*
X1138Y391D01*
G37*
D02*
G36*
X1134Y389D02*
X1134Y367D01*
X1136Y367D01*
X1136Y365D01*
X1138Y365D01*
X1138Y361D01*
X1140Y361D01*
X1140Y357D01*
X1142Y357D01*
X1142Y351D01*
X1144Y351D01*
X1144Y341D01*
X1146Y341D01*
X1146Y335D01*
X1144Y335D01*
X1144Y325D01*
X1142Y325D01*
X1142Y319D01*
X1140Y319D01*
X1140Y317D01*
X1138Y317D01*
X1138Y313D01*
X1136Y313D01*
X1136Y309D01*
X1134Y309D01*
X1134Y307D01*
X1132Y307D01*
X1132Y305D01*
X1130Y305D01*
X1130Y303D01*
X1128Y303D01*
X1128Y301D01*
X1124Y301D01*
X1124Y299D01*
X1122Y299D01*
X1122Y285D01*
X1210Y285D01*
X1210Y283D01*
X1216Y283D01*
X1216Y281D01*
X1220Y281D01*
X1220Y279D01*
X1224Y279D01*
X1224Y277D01*
X1226Y277D01*
X1226Y275D01*
X1228Y275D01*
X1228Y273D01*
X1232Y273D01*
X1232Y271D01*
X1234Y271D01*
X1234Y267D01*
X1236Y267D01*
X1236Y265D01*
X1238Y265D01*
X1238Y261D01*
X1240Y261D01*
X1240Y257D01*
X1242Y257D01*
X1242Y251D01*
X1244Y251D01*
X1244Y241D01*
X1246Y241D01*
X1246Y235D01*
X1244Y235D01*
X1244Y225D01*
X1242Y225D01*
X1242Y219D01*
X1240Y219D01*
X1240Y217D01*
X1238Y217D01*
X1238Y213D01*
X1236Y213D01*
X1236Y209D01*
X1234Y209D01*
X1234Y207D01*
X1232Y207D01*
X1232Y205D01*
X1230Y205D01*
X1230Y203D01*
X1228Y203D01*
X1228Y201D01*
X1224Y201D01*
X1224Y199D01*
X1222Y199D01*
X1222Y197D01*
X1218Y197D01*
X1218Y195D01*
X1212Y195D01*
X1212Y193D01*
X1202Y193D01*
X1202Y191D01*
X1302Y191D01*
X1302Y193D01*
X1300Y193D01*
X1300Y195D01*
X1296Y195D01*
X1296Y197D01*
X1292Y197D01*
X1292Y199D01*
X1290Y199D01*
X1290Y201D01*
X1288Y201D01*
X1288Y203D01*
X1286Y203D01*
X1286Y205D01*
X1284Y205D01*
X1284Y207D01*
X1282Y207D01*
X1282Y211D01*
X1280Y211D01*
X1280Y213D01*
X1278Y213D01*
X1278Y217D01*
X1276Y217D01*
X1276Y223D01*
X1274Y223D01*
X1274Y231D01*
X1272Y231D01*
X1272Y247D01*
X1274Y247D01*
X1274Y255D01*
X1276Y255D01*
X1276Y261D01*
X1278Y261D01*
X1278Y263D01*
X1280Y263D01*
X1280Y267D01*
X1282Y267D01*
X1282Y269D01*
X1284Y269D01*
X1284Y273D01*
X1286Y273D01*
X1286Y275D01*
X1288Y275D01*
X1288Y277D01*
X1292Y277D01*
X1292Y299D01*
X1290Y299D01*
X1290Y301D01*
X1288Y301D01*
X1288Y303D01*
X1286Y303D01*
X1286Y305D01*
X1284Y305D01*
X1284Y307D01*
X1282Y307D01*
X1282Y311D01*
X1280Y311D01*
X1280Y313D01*
X1278Y313D01*
X1278Y317D01*
X1276Y317D01*
X1276Y323D01*
X1274Y323D01*
X1274Y331D01*
X1272Y331D01*
X1272Y347D01*
X1274Y347D01*
X1274Y355D01*
X1276Y355D01*
X1276Y361D01*
X1278Y361D01*
X1278Y363D01*
X1280Y363D01*
X1280Y367D01*
X1282Y367D01*
X1282Y369D01*
X1284Y369D01*
X1284Y373D01*
X1286Y373D01*
X1286Y375D01*
X1288Y375D01*
X1288Y377D01*
X1292Y377D01*
X1292Y379D01*
X1294Y379D01*
X1294Y381D01*
X1296Y381D01*
X1296Y383D01*
X1300Y383D01*
X1300Y385D01*
X1304Y385D01*
X1304Y387D01*
X1310Y387D01*
X1310Y389D01*
X1134Y389D01*
G37*
D02*
G36*
X1336Y389D02*
X1336Y387D01*
X1342Y387D01*
X1342Y385D01*
X1346Y385D01*
X1346Y383D01*
X1350Y383D01*
X1350Y381D01*
X1352Y381D01*
X1352Y379D01*
X1372Y379D01*
X1372Y389D01*
X1336Y389D01*
G37*
D02*
G36*
X1122Y285D02*
X1122Y279D01*
X1124Y279D01*
X1124Y277D01*
X1126Y277D01*
X1126Y275D01*
X1128Y275D01*
X1128Y273D01*
X1132Y273D01*
X1132Y271D01*
X1134Y271D01*
X1134Y267D01*
X1136Y267D01*
X1136Y265D01*
X1138Y265D01*
X1138Y261D01*
X1158Y261D01*
X1158Y265D01*
X1160Y265D01*
X1160Y267D01*
X1162Y267D01*
X1162Y269D01*
X1164Y269D01*
X1164Y271D01*
X1166Y271D01*
X1166Y273D01*
X1168Y273D01*
X1168Y275D01*
X1170Y275D01*
X1170Y277D01*
X1172Y277D01*
X1172Y279D01*
X1176Y279D01*
X1176Y281D01*
X1180Y281D01*
X1180Y283D01*
X1186Y283D01*
X1186Y285D01*
X1122Y285D01*
G37*
D02*
G36*
X1138Y217D02*
X1138Y213D01*
X1136Y213D01*
X1136Y209D01*
X1134Y209D01*
X1134Y207D01*
X1132Y207D01*
X1132Y205D01*
X1130Y205D01*
X1130Y203D01*
X1128Y203D01*
X1128Y201D01*
X1124Y201D01*
X1124Y199D01*
X1120Y199D01*
X1120Y197D01*
X1118Y197D01*
X1118Y195D01*
X1112Y195D01*
X1112Y193D01*
X1102Y193D01*
X1102Y191D01*
X1194Y191D01*
X1194Y193D01*
X1184Y193D01*
X1184Y195D01*
X1178Y195D01*
X1178Y197D01*
X1176Y197D01*
X1176Y199D01*
X1172Y199D01*
X1172Y201D01*
X1170Y201D01*
X1170Y203D01*
X1166Y203D01*
X1166Y205D01*
X1164Y205D01*
X1164Y207D01*
X1162Y207D01*
X1162Y211D01*
X1160Y211D01*
X1160Y213D01*
X1158Y213D01*
X1158Y217D01*
X1138Y217D01*
G37*
D02*
G36*
X1350Y197D02*
X1350Y195D01*
X1348Y195D01*
X1348Y193D01*
X1344Y193D01*
X1344Y191D01*
X1338Y191D01*
X1338Y189D01*
X1326Y189D01*
X1326Y187D01*
X1372Y187D01*
X1372Y197D01*
X1350Y197D01*
G37*
D02*
G36*
X876Y191D02*
X876Y189D01*
X1308Y189D01*
X1308Y191D01*
X876Y191D01*
G37*
D02*
G36*
X876Y191D02*
X876Y189D01*
X1308Y189D01*
X1308Y191D01*
X876Y191D01*
G37*
D02*
G36*
X876Y191D02*
X876Y189D01*
X1308Y189D01*
X1308Y191D01*
X876Y191D01*
G37*
D02*
G36*
X872Y189D02*
X872Y187D01*
X1320Y187D01*
X1320Y189D01*
X872Y189D01*
G37*
D02*
G36*
X870Y187D02*
X870Y185D01*
X1372Y185D01*
X1372Y187D01*
X870Y187D01*
G37*
D02*
G36*
X870Y187D02*
X870Y185D01*
X1372Y185D01*
X1372Y187D01*
X870Y187D01*
G37*
D02*
G36*
X868Y185D02*
X868Y183D01*
X866Y183D01*
X866Y181D01*
X862Y181D01*
X862Y179D01*
X860Y179D01*
X860Y177D01*
X858Y177D01*
X858Y175D01*
X856Y175D01*
X856Y173D01*
X852Y173D01*
X852Y171D01*
X850Y171D01*
X850Y169D01*
X848Y169D01*
X848Y167D01*
X846Y167D01*
X846Y165D01*
X842Y165D01*
X842Y163D01*
X840Y163D01*
X840Y161D01*
X838Y161D01*
X838Y159D01*
X836Y159D01*
X836Y111D01*
X734Y111D01*
X734Y87D01*
X732Y87D01*
X732Y81D01*
X730Y81D01*
X730Y75D01*
X728Y75D01*
X728Y71D01*
X726Y71D01*
X726Y69D01*
X724Y69D01*
X724Y65D01*
X722Y65D01*
X722Y63D01*
X720Y63D01*
X720Y61D01*
X718Y61D01*
X718Y41D01*
X1372Y41D01*
X1372Y185D01*
X868Y185D01*
G37*
D02*
G36*
X836Y509D02*
X836Y433D01*
X930Y433D01*
X930Y465D01*
X928Y465D01*
X928Y469D01*
X926Y469D01*
X926Y473D01*
X924Y473D01*
X924Y477D01*
X922Y477D01*
X922Y479D01*
X920Y479D01*
X920Y483D01*
X918Y483D01*
X918Y487D01*
X916Y487D01*
X916Y489D01*
X914Y489D01*
X914Y495D01*
X912Y495D01*
X912Y509D01*
X836Y509D01*
G37*
D02*
G36*
X716Y471D02*
X716Y469D01*
X714Y469D01*
X714Y467D01*
X712Y467D01*
X712Y465D01*
X710Y465D01*
X710Y463D01*
X708Y463D01*
X708Y443D01*
X710Y443D01*
X710Y441D01*
X712Y441D01*
X712Y439D01*
X714Y439D01*
X714Y435D01*
X716Y435D01*
X716Y433D01*
X736Y433D01*
X736Y471D01*
X716Y471D01*
G37*
D02*
G36*
X716Y433D02*
X716Y431D01*
X930Y431D01*
X930Y433D01*
X716Y433D01*
G37*
D02*
G36*
X716Y433D02*
X716Y431D01*
X930Y431D01*
X930Y433D01*
X716Y433D01*
G37*
D02*
G36*
X718Y431D02*
X718Y423D01*
X720Y423D01*
X720Y405D01*
X718Y405D01*
X718Y397D01*
X836Y397D01*
X836Y385D01*
X910Y385D01*
X910Y383D01*
X930Y383D01*
X930Y431D01*
X718Y431D01*
G37*
D02*
G36*
X716Y397D02*
X716Y393D01*
X714Y393D01*
X714Y389D01*
X712Y389D01*
X712Y387D01*
X710Y387D01*
X710Y367D01*
X736Y367D01*
X736Y397D01*
X716Y397D01*
G37*
D02*
G36*
X836Y385D02*
X836Y357D01*
X856Y357D01*
X856Y361D01*
X858Y361D01*
X858Y365D01*
X860Y365D01*
X860Y367D01*
X862Y367D01*
X862Y369D01*
X864Y369D01*
X864Y371D01*
X866Y371D01*
X866Y373D01*
X868Y373D01*
X868Y375D01*
X870Y375D01*
X870Y377D01*
X872Y377D01*
X872Y379D01*
X876Y379D01*
X876Y381D01*
X880Y381D01*
X880Y383D01*
X886Y383D01*
X886Y385D01*
X836Y385D01*
G37*
D02*
G36*
X224Y383D02*
X224Y379D01*
X222Y379D01*
X222Y373D01*
X220Y373D01*
X220Y341D01*
X218Y341D01*
X218Y335D01*
X216Y335D01*
X216Y331D01*
X214Y331D01*
X214Y327D01*
X212Y327D01*
X212Y323D01*
X210Y323D01*
X210Y321D01*
X208Y321D01*
X208Y319D01*
X206Y319D01*
X206Y317D01*
X204Y317D01*
X204Y315D01*
X202Y315D01*
X202Y313D01*
X198Y313D01*
X198Y311D01*
X196Y311D01*
X196Y309D01*
X192Y309D01*
X192Y289D01*
X244Y289D01*
X244Y383D01*
X224Y383D01*
G37*
D02*
G36*
X836Y321D02*
X836Y257D01*
X856Y257D01*
X856Y261D01*
X858Y261D01*
X858Y265D01*
X860Y265D01*
X860Y267D01*
X862Y267D01*
X862Y269D01*
X864Y269D01*
X864Y271D01*
X866Y271D01*
X866Y273D01*
X868Y273D01*
X868Y275D01*
X870Y275D01*
X870Y277D01*
X872Y277D01*
X872Y279D01*
X876Y279D01*
X876Y299D01*
X872Y299D01*
X872Y301D01*
X870Y301D01*
X870Y303D01*
X866Y303D01*
X866Y305D01*
X864Y305D01*
X864Y307D01*
X862Y307D01*
X862Y311D01*
X860Y311D01*
X860Y313D01*
X858Y313D01*
X858Y317D01*
X856Y317D01*
X856Y321D01*
X836Y321D01*
G37*
D02*
G36*
X736Y233D02*
X736Y197D01*
X796Y197D01*
X796Y199D01*
X798Y199D01*
X798Y201D01*
X800Y201D01*
X800Y203D01*
X804Y203D01*
X804Y205D01*
X806Y205D01*
X806Y207D01*
X808Y207D01*
X808Y209D01*
X810Y209D01*
X810Y211D01*
X814Y211D01*
X814Y213D01*
X816Y213D01*
X816Y233D01*
X736Y233D01*
G37*
D02*
G36*
X136Y915D02*
X136Y897D01*
X134Y897D01*
X134Y895D01*
X114Y895D01*
X114Y851D01*
X252Y851D01*
X252Y733D01*
X254Y733D01*
X254Y729D01*
X256Y729D01*
X256Y721D01*
X258Y721D01*
X258Y707D01*
X256Y707D01*
X256Y699D01*
X254Y699D01*
X254Y693D01*
X252Y693D01*
X252Y585D01*
X272Y585D01*
X272Y589D01*
X274Y589D01*
X274Y591D01*
X276Y591D01*
X276Y595D01*
X278Y595D01*
X278Y597D01*
X280Y597D01*
X280Y599D01*
X284Y599D01*
X284Y601D01*
X286Y601D01*
X286Y603D01*
X292Y603D01*
X292Y605D01*
X312Y605D01*
X312Y619D01*
X326Y619D01*
X326Y639D01*
X324Y639D01*
X324Y641D01*
X322Y641D01*
X322Y643D01*
X320Y643D01*
X320Y647D01*
X318Y647D01*
X318Y649D01*
X316Y649D01*
X316Y651D01*
X314Y651D01*
X314Y653D01*
X312Y653D01*
X312Y657D01*
X310Y657D01*
X310Y659D01*
X308Y659D01*
X308Y661D01*
X306Y661D01*
X306Y663D01*
X304Y663D01*
X304Y667D01*
X302Y667D01*
X302Y669D01*
X300Y669D01*
X300Y671D01*
X298Y671D01*
X298Y673D01*
X296Y673D01*
X296Y677D01*
X294Y677D01*
X294Y679D01*
X292Y679D01*
X292Y681D01*
X290Y681D01*
X290Y685D01*
X288Y685D01*
X288Y687D01*
X286Y687D01*
X286Y693D01*
X284Y693D01*
X284Y811D01*
X286Y811D01*
X286Y815D01*
X288Y815D01*
X288Y819D01*
X290Y819D01*
X290Y821D01*
X292Y821D01*
X292Y823D01*
X294Y823D01*
X294Y825D01*
X296Y825D01*
X296Y827D01*
X300Y827D01*
X300Y829D01*
X302Y829D01*
X302Y831D01*
X304Y831D01*
X304Y833D01*
X306Y833D01*
X306Y835D01*
X310Y835D01*
X310Y837D01*
X312Y837D01*
X312Y839D01*
X314Y839D01*
X314Y841D01*
X316Y841D01*
X316Y843D01*
X320Y843D01*
X320Y845D01*
X322Y845D01*
X322Y847D01*
X324Y847D01*
X324Y849D01*
X326Y849D01*
X326Y851D01*
X330Y851D01*
X330Y853D01*
X332Y853D01*
X332Y855D01*
X334Y855D01*
X334Y857D01*
X336Y857D01*
X336Y859D01*
X340Y859D01*
X340Y861D01*
X342Y861D01*
X342Y863D01*
X344Y863D01*
X344Y865D01*
X348Y865D01*
X348Y867D01*
X350Y867D01*
X350Y869D01*
X352Y869D01*
X352Y871D01*
X354Y871D01*
X354Y873D01*
X358Y873D01*
X358Y875D01*
X360Y875D01*
X360Y877D01*
X366Y877D01*
X366Y879D01*
X412Y879D01*
X412Y915D01*
X136Y915D01*
G37*
D02*
G36*
X592Y863D02*
X592Y861D01*
X588Y861D01*
X588Y859D01*
X586Y859D01*
X586Y857D01*
X584Y857D01*
X584Y855D01*
X580Y855D01*
X580Y853D01*
X578Y853D01*
X578Y851D01*
X576Y851D01*
X576Y849D01*
X572Y849D01*
X572Y847D01*
X570Y847D01*
X570Y845D01*
X568Y845D01*
X568Y843D01*
X564Y843D01*
X564Y841D01*
X562Y841D01*
X562Y839D01*
X560Y839D01*
X560Y837D01*
X558Y837D01*
X558Y835D01*
X554Y835D01*
X554Y833D01*
X552Y833D01*
X552Y831D01*
X550Y831D01*
X550Y829D01*
X546Y829D01*
X546Y827D01*
X538Y827D01*
X538Y825D01*
X534Y825D01*
X534Y789D01*
X642Y789D01*
X642Y799D01*
X640Y799D01*
X640Y801D01*
X636Y801D01*
X636Y803D01*
X634Y803D01*
X634Y805D01*
X632Y805D01*
X632Y807D01*
X630Y807D01*
X630Y809D01*
X628Y809D01*
X628Y811D01*
X626Y811D01*
X626Y813D01*
X624Y813D01*
X624Y815D01*
X622Y815D01*
X622Y819D01*
X620Y819D01*
X620Y823D01*
X618Y823D01*
X618Y827D01*
X616Y827D01*
X616Y831D01*
X614Y831D01*
X614Y839D01*
X612Y839D01*
X612Y863D01*
X592Y863D01*
G37*
D02*
G36*
X130Y851D02*
X130Y753D01*
X128Y753D01*
X128Y751D01*
X114Y751D01*
X114Y675D01*
X130Y675D01*
X130Y577D01*
X40Y577D01*
X40Y289D01*
X118Y289D01*
X118Y287D01*
X120Y287D01*
X120Y195D01*
X122Y195D01*
X122Y191D01*
X124Y191D01*
X124Y189D01*
X126Y189D01*
X126Y185D01*
X128Y185D01*
X128Y181D01*
X130Y181D01*
X130Y175D01*
X132Y175D01*
X132Y153D01*
X130Y153D01*
X130Y145D01*
X128Y145D01*
X128Y141D01*
X126Y141D01*
X126Y139D01*
X124Y139D01*
X124Y135D01*
X122Y135D01*
X122Y133D01*
X120Y133D01*
X120Y131D01*
X118Y131D01*
X118Y129D01*
X116Y129D01*
X116Y127D01*
X114Y127D01*
X114Y125D01*
X110Y125D01*
X110Y123D01*
X106Y123D01*
X106Y121D01*
X102Y121D01*
X102Y119D01*
X96Y119D01*
X96Y117D01*
X276Y117D01*
X276Y119D01*
X268Y119D01*
X268Y121D01*
X264Y121D01*
X264Y123D01*
X262Y123D01*
X262Y125D01*
X258Y125D01*
X258Y127D01*
X256Y127D01*
X256Y129D01*
X254Y129D01*
X254Y131D01*
X252Y131D01*
X252Y133D01*
X250Y133D01*
X250Y135D01*
X248Y135D01*
X248Y137D01*
X246Y137D01*
X246Y141D01*
X244Y141D01*
X244Y145D01*
X242Y145D01*
X242Y151D01*
X240Y151D01*
X240Y159D01*
X238Y159D01*
X238Y169D01*
X240Y169D01*
X240Y189D01*
X154Y189D01*
X154Y287D01*
X156Y287D01*
X156Y307D01*
X154Y307D01*
X154Y309D01*
X152Y309D01*
X152Y311D01*
X148Y311D01*
X148Y313D01*
X144Y313D01*
X144Y315D01*
X142Y315D01*
X142Y317D01*
X140Y317D01*
X140Y319D01*
X138Y319D01*
X138Y321D01*
X136Y321D01*
X136Y325D01*
X134Y325D01*
X134Y327D01*
X132Y327D01*
X132Y331D01*
X130Y331D01*
X130Y335D01*
X128Y335D01*
X128Y343D01*
X126Y343D01*
X126Y359D01*
X128Y359D01*
X128Y367D01*
X130Y367D01*
X130Y371D01*
X132Y371D01*
X132Y375D01*
X134Y375D01*
X134Y379D01*
X136Y379D01*
X136Y381D01*
X138Y381D01*
X138Y383D01*
X140Y383D01*
X140Y385D01*
X142Y385D01*
X142Y387D01*
X144Y387D01*
X144Y389D01*
X146Y389D01*
X146Y391D01*
X150Y391D01*
X150Y393D01*
X152Y393D01*
X152Y397D01*
X154Y397D01*
X154Y403D01*
X156Y403D01*
X156Y407D01*
X158Y407D01*
X158Y411D01*
X160Y411D01*
X160Y417D01*
X162Y417D01*
X162Y599D01*
X164Y599D01*
X164Y675D01*
X168Y675D01*
X168Y697D01*
X166Y697D01*
X166Y703D01*
X164Y703D01*
X164Y725D01*
X166Y725D01*
X166Y731D01*
X168Y731D01*
X168Y751D01*
X164Y751D01*
X164Y851D01*
X130Y851D01*
G37*
D02*
G36*
X382Y823D02*
X382Y821D01*
X380Y821D01*
X380Y819D01*
X376Y819D01*
X376Y817D01*
X374Y817D01*
X374Y815D01*
X372Y815D01*
X372Y813D01*
X370Y813D01*
X370Y811D01*
X366Y811D01*
X366Y809D01*
X364Y809D01*
X364Y807D01*
X362Y807D01*
X362Y805D01*
X360Y805D01*
X360Y803D01*
X356Y803D01*
X356Y801D01*
X354Y801D01*
X354Y799D01*
X352Y799D01*
X352Y797D01*
X348Y797D01*
X348Y795D01*
X346Y795D01*
X346Y793D01*
X344Y793D01*
X344Y791D01*
X342Y791D01*
X342Y789D01*
X412Y789D01*
X412Y823D01*
X382Y823D01*
G37*
D02*
G36*
X340Y789D02*
X340Y787D01*
X642Y787D01*
X642Y789D01*
X340Y789D01*
G37*
D02*
G36*
X340Y789D02*
X340Y787D01*
X642Y787D01*
X642Y789D01*
X340Y789D01*
G37*
D02*
G36*
X340Y787D02*
X340Y775D01*
X584Y775D01*
X584Y773D01*
X592Y773D01*
X592Y771D01*
X598Y771D01*
X598Y769D01*
X602Y769D01*
X602Y767D01*
X606Y767D01*
X606Y765D01*
X608Y765D01*
X608Y763D01*
X612Y763D01*
X612Y761D01*
X614Y761D01*
X614Y759D01*
X616Y759D01*
X616Y757D01*
X636Y757D01*
X636Y779D01*
X642Y779D01*
X642Y787D01*
X340Y787D01*
G37*
D02*
G36*
X340Y775D02*
X340Y761D01*
X418Y761D01*
X418Y759D01*
X426Y759D01*
X426Y757D01*
X430Y757D01*
X430Y755D01*
X434Y755D01*
X434Y753D01*
X438Y753D01*
X438Y751D01*
X440Y751D01*
X440Y749D01*
X442Y749D01*
X442Y747D01*
X444Y747D01*
X444Y745D01*
X446Y745D01*
X446Y743D01*
X448Y743D01*
X448Y741D01*
X450Y741D01*
X450Y737D01*
X452Y737D01*
X452Y733D01*
X454Y733D01*
X454Y729D01*
X456Y729D01*
X456Y721D01*
X458Y721D01*
X458Y707D01*
X456Y707D01*
X456Y699D01*
X454Y699D01*
X454Y693D01*
X452Y693D01*
X452Y691D01*
X450Y691D01*
X450Y687D01*
X448Y687D01*
X448Y685D01*
X446Y685D01*
X446Y681D01*
X444Y681D01*
X444Y679D01*
X440Y679D01*
X440Y677D01*
X438Y677D01*
X438Y675D01*
X436Y675D01*
X436Y673D01*
X432Y673D01*
X432Y671D01*
X428Y671D01*
X428Y669D01*
X420Y669D01*
X420Y667D01*
X382Y667D01*
X382Y655D01*
X384Y655D01*
X384Y653D01*
X560Y653D01*
X560Y655D01*
X552Y655D01*
X552Y657D01*
X548Y657D01*
X548Y659D01*
X544Y659D01*
X544Y661D01*
X540Y661D01*
X540Y663D01*
X538Y663D01*
X538Y665D01*
X534Y665D01*
X534Y667D01*
X532Y667D01*
X532Y669D01*
X530Y669D01*
X530Y671D01*
X528Y671D01*
X528Y673D01*
X526Y673D01*
X526Y675D01*
X524Y675D01*
X524Y679D01*
X522Y679D01*
X522Y681D01*
X520Y681D01*
X520Y685D01*
X518Y685D01*
X518Y689D01*
X516Y689D01*
X516Y695D01*
X514Y695D01*
X514Y701D01*
X512Y701D01*
X512Y725D01*
X514Y725D01*
X514Y733D01*
X516Y733D01*
X516Y739D01*
X518Y739D01*
X518Y743D01*
X520Y743D01*
X520Y747D01*
X522Y747D01*
X522Y749D01*
X524Y749D01*
X524Y751D01*
X526Y751D01*
X526Y755D01*
X528Y755D01*
X528Y757D01*
X530Y757D01*
X530Y759D01*
X532Y759D01*
X532Y761D01*
X536Y761D01*
X536Y763D01*
X538Y763D01*
X538Y765D01*
X542Y765D01*
X542Y767D01*
X544Y767D01*
X544Y769D01*
X548Y769D01*
X548Y771D01*
X554Y771D01*
X554Y773D01*
X562Y773D01*
X562Y775D01*
X340Y775D01*
G37*
D02*
G36*
X340Y761D02*
X340Y709D01*
X342Y709D01*
X342Y707D01*
X344Y707D01*
X344Y703D01*
X346Y703D01*
X346Y701D01*
X366Y701D01*
X366Y703D01*
X364Y703D01*
X364Y725D01*
X366Y725D01*
X366Y731D01*
X368Y731D01*
X368Y735D01*
X370Y735D01*
X370Y739D01*
X372Y739D01*
X372Y741D01*
X374Y741D01*
X374Y743D01*
X376Y743D01*
X376Y747D01*
X378Y747D01*
X378Y749D01*
X382Y749D01*
X382Y751D01*
X384Y751D01*
X384Y753D01*
X386Y753D01*
X386Y755D01*
X390Y755D01*
X390Y757D01*
X396Y757D01*
X396Y759D01*
X402Y759D01*
X402Y761D01*
X340Y761D01*
G37*
D02*
G36*
X736Y709D02*
X736Y693D01*
X630Y693D01*
X630Y689D01*
X628Y689D01*
X628Y685D01*
X626Y685D01*
X626Y681D01*
X624Y681D01*
X624Y679D01*
X622Y679D01*
X622Y675D01*
X620Y675D01*
X620Y673D01*
X618Y673D01*
X618Y671D01*
X616Y671D01*
X616Y669D01*
X614Y669D01*
X614Y667D01*
X612Y667D01*
X612Y665D01*
X610Y665D01*
X610Y663D01*
X606Y663D01*
X606Y661D01*
X602Y661D01*
X602Y659D01*
X598Y659D01*
X598Y657D01*
X736Y657D01*
X736Y571D01*
X722Y571D01*
X722Y549D01*
X724Y549D01*
X724Y547D01*
X726Y547D01*
X726Y543D01*
X728Y543D01*
X728Y539D01*
X730Y539D01*
X730Y535D01*
X732Y535D01*
X732Y527D01*
X734Y527D01*
X734Y519D01*
X812Y519D01*
X812Y589D01*
X810Y589D01*
X810Y593D01*
X808Y593D01*
X808Y689D01*
X806Y689D01*
X806Y691D01*
X804Y691D01*
X804Y693D01*
X802Y693D01*
X802Y695D01*
X800Y695D01*
X800Y697D01*
X798Y697D01*
X798Y699D01*
X796Y699D01*
X796Y701D01*
X794Y701D01*
X794Y703D01*
X792Y703D01*
X792Y705D01*
X790Y705D01*
X790Y707D01*
X788Y707D01*
X788Y709D01*
X736Y709D01*
G37*
D02*
G36*
X594Y657D02*
X594Y655D01*
X586Y655D01*
X586Y653D01*
X636Y653D01*
X636Y657D01*
X594Y657D01*
G37*
D02*
G36*
X386Y653D02*
X386Y651D01*
X636Y651D01*
X636Y653D01*
X386Y653D01*
G37*
D02*
G36*
X386Y653D02*
X386Y651D01*
X636Y651D01*
X636Y653D01*
X386Y653D01*
G37*
D02*
G36*
X386Y651D02*
X386Y647D01*
X388Y647D01*
X388Y619D01*
X410Y619D01*
X410Y575D01*
X534Y575D01*
X534Y453D01*
X516Y453D01*
X516Y431D01*
X518Y431D01*
X518Y423D01*
X520Y423D01*
X520Y405D01*
X518Y405D01*
X518Y397D01*
X516Y397D01*
X516Y393D01*
X514Y393D01*
X514Y389D01*
X512Y389D01*
X512Y387D01*
X510Y387D01*
X510Y383D01*
X508Y383D01*
X508Y381D01*
X506Y381D01*
X506Y379D01*
X504Y379D01*
X504Y377D01*
X500Y377D01*
X500Y375D01*
X498Y375D01*
X498Y373D01*
X494Y373D01*
X494Y371D01*
X490Y371D01*
X490Y369D01*
X484Y369D01*
X484Y367D01*
X636Y367D01*
X636Y387D01*
X634Y387D01*
X634Y389D01*
X632Y389D01*
X632Y393D01*
X630Y393D01*
X630Y399D01*
X628Y399D01*
X628Y405D01*
X626Y405D01*
X626Y421D01*
X628Y421D01*
X628Y429D01*
X630Y429D01*
X630Y435D01*
X632Y435D01*
X632Y437D01*
X634Y437D01*
X634Y441D01*
X636Y441D01*
X636Y443D01*
X638Y443D01*
X638Y465D01*
X634Y465D01*
X634Y467D01*
X632Y467D01*
X632Y469D01*
X630Y469D01*
X630Y471D01*
X628Y471D01*
X628Y473D01*
X626Y473D01*
X626Y475D01*
X624Y475D01*
X624Y479D01*
X622Y479D01*
X622Y481D01*
X620Y481D01*
X620Y485D01*
X618Y485D01*
X618Y489D01*
X616Y489D01*
X616Y495D01*
X614Y495D01*
X614Y501D01*
X612Y501D01*
X612Y525D01*
X614Y525D01*
X614Y533D01*
X616Y533D01*
X616Y539D01*
X618Y539D01*
X618Y543D01*
X620Y543D01*
X620Y547D01*
X622Y547D01*
X622Y549D01*
X624Y549D01*
X624Y551D01*
X626Y551D01*
X626Y555D01*
X628Y555D01*
X628Y557D01*
X630Y557D01*
X630Y559D01*
X632Y559D01*
X632Y561D01*
X636Y561D01*
X636Y651D01*
X386Y651D01*
G37*
D02*
G36*
X300Y411D02*
X300Y305D01*
X362Y305D01*
X362Y307D01*
X354Y307D01*
X354Y309D01*
X352Y309D01*
X352Y311D01*
X348Y311D01*
X348Y313D01*
X344Y313D01*
X344Y315D01*
X342Y315D01*
X342Y317D01*
X340Y317D01*
X340Y319D01*
X338Y319D01*
X338Y321D01*
X336Y321D01*
X336Y325D01*
X334Y325D01*
X334Y327D01*
X332Y327D01*
X332Y331D01*
X330Y331D01*
X330Y335D01*
X328Y335D01*
X328Y343D01*
X326Y343D01*
X326Y359D01*
X328Y359D01*
X328Y367D01*
X330Y367D01*
X330Y371D01*
X332Y371D01*
X332Y375D01*
X334Y375D01*
X334Y379D01*
X336Y379D01*
X336Y381D01*
X338Y381D01*
X338Y383D01*
X340Y383D01*
X340Y385D01*
X342Y385D01*
X342Y387D01*
X344Y387D01*
X344Y389D01*
X346Y389D01*
X346Y391D01*
X350Y391D01*
X350Y411D01*
X300Y411D01*
G37*
D02*
G36*
X412Y391D02*
X412Y375D01*
X414Y375D01*
X414Y373D01*
X416Y373D01*
X416Y367D01*
X464Y367D01*
X464Y369D01*
X456Y369D01*
X456Y371D01*
X452Y371D01*
X452Y373D01*
X448Y373D01*
X448Y375D01*
X446Y375D01*
X446Y377D01*
X444Y377D01*
X444Y379D01*
X440Y379D01*
X440Y381D01*
X438Y381D01*
X438Y385D01*
X436Y385D01*
X436Y387D01*
X434Y387D01*
X434Y389D01*
X432Y389D01*
X432Y391D01*
X412Y391D01*
G37*
D02*
G36*
X418Y367D02*
X418Y365D01*
X636Y365D01*
X636Y367D01*
X418Y367D01*
G37*
D02*
G36*
X418Y367D02*
X418Y365D01*
X636Y365D01*
X636Y367D01*
X418Y367D01*
G37*
D02*
G36*
X418Y365D02*
X418Y363D01*
X582Y363D01*
X582Y361D01*
X592Y361D01*
X592Y359D01*
X596Y359D01*
X596Y357D01*
X602Y357D01*
X602Y355D01*
X604Y355D01*
X604Y353D01*
X608Y353D01*
X608Y351D01*
X610Y351D01*
X610Y349D01*
X614Y349D01*
X614Y347D01*
X616Y347D01*
X616Y345D01*
X636Y345D01*
X636Y365D01*
X418Y365D01*
G37*
D02*
G36*
X418Y363D02*
X418Y361D01*
X420Y361D01*
X420Y341D01*
X418Y341D01*
X418Y335D01*
X416Y335D01*
X416Y331D01*
X414Y331D01*
X414Y327D01*
X412Y327D01*
X412Y323D01*
X410Y323D01*
X410Y321D01*
X408Y321D01*
X408Y319D01*
X406Y319D01*
X406Y317D01*
X404Y317D01*
X404Y315D01*
X402Y315D01*
X402Y313D01*
X398Y313D01*
X398Y311D01*
X396Y311D01*
X396Y309D01*
X392Y309D01*
X392Y307D01*
X384Y307D01*
X384Y305D01*
X512Y305D01*
X512Y313D01*
X514Y313D01*
X514Y321D01*
X516Y321D01*
X516Y327D01*
X518Y327D01*
X518Y331D01*
X520Y331D01*
X520Y333D01*
X522Y333D01*
X522Y337D01*
X524Y337D01*
X524Y339D01*
X526Y339D01*
X526Y341D01*
X528Y341D01*
X528Y343D01*
X530Y343D01*
X530Y345D01*
X532Y345D01*
X532Y347D01*
X534Y347D01*
X534Y349D01*
X536Y349D01*
X536Y351D01*
X538Y351D01*
X538Y353D01*
X542Y353D01*
X542Y355D01*
X546Y355D01*
X546Y357D01*
X550Y357D01*
X550Y359D01*
X556Y359D01*
X556Y361D01*
X564Y361D01*
X564Y363D01*
X418Y363D01*
G37*
D02*
G36*
X300Y305D02*
X300Y303D01*
X512Y303D01*
X512Y305D01*
X300Y305D01*
G37*
D02*
G36*
X300Y305D02*
X300Y303D01*
X512Y303D01*
X512Y305D01*
X300Y305D01*
G37*
D02*
G36*
X300Y303D02*
X300Y267D01*
X298Y267D01*
X298Y263D01*
X296Y263D01*
X296Y259D01*
X294Y259D01*
X294Y257D01*
X292Y257D01*
X292Y253D01*
X290Y253D01*
X290Y249D01*
X288Y249D01*
X288Y247D01*
X286Y247D01*
X286Y243D01*
X284Y243D01*
X284Y241D01*
X282Y241D01*
X282Y239D01*
X570Y239D01*
X570Y241D01*
X558Y241D01*
X558Y243D01*
X550Y243D01*
X550Y245D01*
X546Y245D01*
X546Y247D01*
X542Y247D01*
X542Y249D01*
X540Y249D01*
X540Y251D01*
X536Y251D01*
X536Y253D01*
X534Y253D01*
X534Y255D01*
X532Y255D01*
X532Y257D01*
X530Y257D01*
X530Y259D01*
X528Y259D01*
X528Y261D01*
X526Y261D01*
X526Y263D01*
X524Y263D01*
X524Y265D01*
X522Y265D01*
X522Y269D01*
X520Y269D01*
X520Y273D01*
X518Y273D01*
X518Y277D01*
X516Y277D01*
X516Y281D01*
X514Y281D01*
X514Y289D01*
X512Y289D01*
X512Y303D01*
X300Y303D01*
G37*
D02*
G36*
X630Y279D02*
X630Y275D01*
X628Y275D01*
X628Y271D01*
X626Y271D01*
X626Y269D01*
X624Y269D01*
X624Y265D01*
X622Y265D01*
X622Y263D01*
X620Y263D01*
X620Y261D01*
X618Y261D01*
X618Y259D01*
X616Y259D01*
X616Y257D01*
X614Y257D01*
X614Y255D01*
X612Y255D01*
X612Y253D01*
X610Y253D01*
X610Y251D01*
X606Y251D01*
X606Y249D01*
X604Y249D01*
X604Y247D01*
X600Y247D01*
X600Y245D01*
X596Y245D01*
X596Y243D01*
X588Y243D01*
X588Y241D01*
X576Y241D01*
X576Y239D01*
X636Y239D01*
X636Y245D01*
X684Y245D01*
X684Y267D01*
X682Y267D01*
X682Y271D01*
X680Y271D01*
X680Y275D01*
X678Y275D01*
X678Y279D01*
X630Y279D01*
G37*
D02*
G36*
X282Y239D02*
X282Y237D01*
X636Y237D01*
X636Y239D01*
X282Y239D01*
G37*
D02*
G36*
X282Y239D02*
X282Y237D01*
X636Y237D01*
X636Y239D01*
X282Y239D01*
G37*
D02*
G36*
X280Y237D02*
X280Y233D01*
X278Y233D01*
X278Y231D01*
X276Y231D01*
X276Y211D01*
X294Y211D01*
X294Y209D01*
X300Y209D01*
X300Y207D01*
X306Y207D01*
X306Y205D01*
X310Y205D01*
X310Y203D01*
X312Y203D01*
X312Y201D01*
X316Y201D01*
X316Y199D01*
X318Y199D01*
X318Y197D01*
X320Y197D01*
X320Y195D01*
X322Y195D01*
X322Y191D01*
X324Y191D01*
X324Y189D01*
X326Y189D01*
X326Y185D01*
X328Y185D01*
X328Y181D01*
X330Y181D01*
X330Y175D01*
X332Y175D01*
X332Y163D01*
X534Y163D01*
X534Y41D01*
X628Y41D01*
X628Y61D01*
X626Y61D01*
X626Y63D01*
X624Y63D01*
X624Y65D01*
X622Y65D01*
X622Y69D01*
X620Y69D01*
X620Y73D01*
X618Y73D01*
X618Y77D01*
X616Y77D01*
X616Y81D01*
X614Y81D01*
X614Y89D01*
X612Y89D01*
X612Y113D01*
X614Y113D01*
X614Y121D01*
X616Y121D01*
X616Y127D01*
X618Y127D01*
X618Y131D01*
X620Y131D01*
X620Y133D01*
X622Y133D01*
X622Y137D01*
X624Y137D01*
X624Y139D01*
X626Y139D01*
X626Y141D01*
X628Y141D01*
X628Y143D01*
X630Y143D01*
X630Y145D01*
X632Y145D01*
X632Y147D01*
X634Y147D01*
X634Y149D01*
X636Y149D01*
X636Y237D01*
X280Y237D01*
G37*
D02*
G36*
X332Y163D02*
X332Y153D01*
X330Y153D01*
X330Y145D01*
X328Y145D01*
X328Y141D01*
X326Y141D01*
X326Y139D01*
X324Y139D01*
X324Y135D01*
X322Y135D01*
X322Y133D01*
X320Y133D01*
X320Y131D01*
X318Y131D01*
X318Y129D01*
X316Y129D01*
X316Y127D01*
X314Y127D01*
X314Y125D01*
X310Y125D01*
X310Y123D01*
X306Y123D01*
X306Y121D01*
X302Y121D01*
X302Y119D01*
X296Y119D01*
X296Y117D01*
X412Y117D01*
X412Y163D01*
X332Y163D01*
G37*
D02*
G36*
X40Y125D02*
X40Y117D01*
X76Y117D01*
X76Y119D01*
X68Y119D01*
X68Y121D01*
X64Y121D01*
X64Y123D01*
X62Y123D01*
X62Y125D01*
X40Y125D01*
G37*
D02*
G36*
X40Y117D02*
X40Y115D01*
X412Y115D01*
X412Y117D01*
X40Y117D01*
G37*
D02*
G36*
X40Y117D02*
X40Y115D01*
X412Y115D01*
X412Y117D01*
X40Y117D01*
G37*
D02*
G36*
X40Y117D02*
X40Y115D01*
X412Y115D01*
X412Y117D01*
X40Y117D01*
G37*
D02*
G36*
X40Y115D02*
X40Y41D01*
X412Y41D01*
X412Y115D01*
X40Y115D01*
G37*
D02*
G36*
X1176Y426D02*
X1216Y426D01*
X1216Y391D01*
X1176Y391D01*
X1176Y426D01*
G37*
D02*
G36*
X1210Y460D02*
X1246Y460D01*
X1246Y420D01*
X1210Y420D01*
X1210Y460D01*
G37*
D02*
G36*
X1299Y393D02*
X1343Y393D01*
X1343Y360D01*
X1299Y360D01*
X1299Y393D01*
G37*
D02*
G54D23*
X1291Y972D02*
X1252Y934D01*
X1214Y972D01*
X1252Y1011D01*
X1291Y972D01*
D02*
G04 End of Copper1*
M02*