G04 MADE WITH FRITZING*
G04 WWW.FRITZING.ORG*
G04 DOUBLE SIDED*
G04 HOLES PLATED*
G04 CONTOUR ON CENTER OF CONTOUR VECTOR*
%ASAXBY*%
%FSLAX23Y23*%
%MOIN*%
%OFA0B0*%
%SFA1.0B1.0*%
%ADD10C,0.088000*%
%ADD11C,0.080000*%
%ADD12C,0.085000*%
%ADD13C,0.109000*%
%ADD14C,0.049370*%
%ADD15R,0.085000X0.085000*%
%ADD16R,0.109000X0.109000*%
%ADD17R,0.084803X0.072992*%
%ADD18R,0.072992X0.084803*%
%ADD19R,0.034000X0.096900*%
%ADD20C,0.030000*%
%LNMASK1*%
G90*
G70*
G54D10*
X1323Y239D03*
X1323Y339D03*
G54D11*
X1198Y439D03*
X1198Y239D03*
X898Y239D03*
X1098Y239D03*
X1098Y339D03*
X898Y339D03*
G54D12*
X1073Y1052D03*
X1073Y952D03*
X911Y1052D03*
X811Y1052D03*
G54D13*
X673Y514D03*
X473Y514D03*
X573Y714D03*
X673Y102D03*
X473Y102D03*
X573Y302D03*
X673Y852D03*
X473Y852D03*
X573Y1052D03*
G54D11*
X198Y1052D03*
X398Y1052D03*
X1136Y589D03*
X1136Y789D03*
X211Y714D03*
X411Y714D03*
X173Y352D03*
X373Y352D03*
X473Y414D03*
X673Y414D03*
X86Y164D03*
X286Y164D03*
G54D12*
X1252Y972D03*
X1323Y902D03*
G54D10*
X1248Y1102D03*
G54D14*
X1048Y827D03*
X773Y827D03*
X1036Y514D03*
X1323Y739D03*
G54D10*
X698Y1052D03*
G54D15*
X1073Y1052D03*
X911Y1052D03*
G54D16*
X473Y514D03*
X473Y102D03*
X473Y852D03*
G54D17*
X361Y455D03*
X361Y577D03*
X786Y155D03*
X786Y277D03*
X686Y736D03*
X686Y614D03*
G54D18*
X208Y627D03*
X86Y627D03*
G54D17*
X686Y324D03*
X686Y202D03*
G54D18*
X208Y802D03*
X86Y802D03*
G54D19*
X836Y564D03*
X886Y564D03*
X936Y564D03*
X986Y564D03*
X986Y829D03*
X936Y829D03*
X886Y829D03*
X836Y829D03*
G54D17*
X86Y1061D03*
X86Y939D03*
G54D18*
X76Y239D03*
X198Y239D03*
X1095Y439D03*
X973Y439D03*
G54D17*
X1223Y642D03*
X1223Y764D03*
X786Y355D03*
X786Y477D03*
G54D20*
G36*
X1291Y972D02*
X1252Y934D01*
X1214Y972D01*
X1252Y1011D01*
X1291Y972D01*
G37*
D02*
G04 End of Mask1*
M02*