G04 MADE WITH FRITZING*
G04 WWW.FRITZING.ORG*
G04 DOUBLE SIDED*
G04 HOLES PLATED*
G04 CONTOUR ON CENTER OF CONTOUR VECTOR*
%ASAXBY*%
%FSLAX23Y23*%
%MOIN*%
%OFA0B0*%
%SFA1.0B1.0*%
%ADD10C,0.075000*%
%ADD11C,0.078000*%
%ADD12C,0.070000*%
%ADD13C,0.099000*%
%ADD14C,0.039370*%
%ADD15R,0.075000X0.075000*%
%ADD16R,0.099000X0.099000*%
%ADD17R,0.074803X0.062992*%
%ADD18R,0.062992X0.074803*%
%ADD19C,0.048000*%
%ADD20C,0.032000*%
%ADD21C,0.024000*%
%ADD22C,0.020000*%
%LNCOPPER0*%
G90*
G70*
G54D10*
X874Y951D03*
G54D11*
X1323Y239D03*
X1323Y339D03*
G54D12*
X1198Y439D03*
X1198Y239D03*
X898Y239D03*
X1098Y239D03*
X1098Y339D03*
X898Y339D03*
G54D10*
X1073Y1052D03*
X1073Y952D03*
X911Y1052D03*
X811Y1052D03*
G54D13*
X673Y514D03*
X473Y514D03*
X573Y714D03*
X673Y102D03*
X473Y102D03*
X573Y302D03*
X673Y852D03*
X473Y852D03*
X573Y1052D03*
G54D12*
X198Y1052D03*
X398Y1052D03*
X1136Y589D03*
X1136Y789D03*
X211Y714D03*
X411Y714D03*
X173Y352D03*
X373Y352D03*
X473Y414D03*
X673Y414D03*
X86Y164D03*
X286Y164D03*
G54D10*
X1252Y972D03*
X1323Y902D03*
G54D11*
X1248Y1102D03*
G54D14*
X1048Y827D03*
X773Y827D03*
X1036Y514D03*
X1323Y739D03*
G54D11*
X698Y1052D03*
G54D15*
X1073Y1052D03*
X911Y1052D03*
G54D16*
X473Y514D03*
X473Y102D03*
X473Y852D03*
G54D17*
X1048Y630D03*
X1048Y752D03*
G54D18*
X970Y827D03*
X848Y827D03*
G54D17*
X1323Y542D03*
X1323Y664D03*
G54D19*
X349Y64D02*
X454Y96D01*
D02*
X86Y114D02*
X136Y77D01*
D02*
X136Y77D02*
X349Y64D01*
D02*
X86Y149D02*
X86Y114D01*
D02*
X349Y201D02*
X635Y202D01*
D02*
X673Y163D02*
X673Y122D01*
D02*
X635Y202D02*
X673Y163D01*
D02*
X299Y172D02*
X349Y201D01*
D02*
X473Y429D02*
X473Y494D01*
D02*
X673Y429D02*
X673Y494D01*
D02*
X449Y301D02*
X553Y302D01*
D02*
X386Y343D02*
X449Y301D01*
D02*
X426Y714D02*
X553Y714D01*
D02*
X1252Y990D02*
X1249Y1083D01*
G54D20*
D02*
X413Y1052D02*
X553Y1052D01*
G54D21*
D02*
X781Y827D02*
X822Y827D01*
D02*
X1040Y827D02*
X996Y827D01*
G54D20*
D02*
X1036Y602D02*
X1037Y604D01*
D02*
X1036Y522D02*
X1036Y602D01*
D02*
X1048Y819D02*
X1048Y778D01*
D02*
X898Y254D02*
X898Y324D01*
D02*
X1173Y515D02*
X1044Y514D01*
D02*
X1198Y489D02*
X1173Y515D01*
D02*
X1198Y454D02*
X1198Y489D01*
D02*
X1183Y239D02*
X1113Y239D01*
D02*
X1235Y590D02*
X1291Y559D01*
D02*
X1151Y589D02*
X1235Y590D01*
D02*
X773Y988D02*
X802Y1037D01*
D02*
X773Y835D02*
X773Y988D01*
G54D21*
D02*
X1323Y731D02*
X1323Y690D01*
G54D20*
D02*
X793Y1052D02*
X717Y1052D01*
G54D21*
D02*
X1056Y1052D02*
X928Y1052D01*
G54D20*
D02*
X1110Y677D02*
X1080Y654D01*
D02*
X1224Y727D02*
X1185Y677D01*
D02*
X1185Y677D02*
X1110Y677D01*
D02*
X1124Y1039D02*
X1223Y764D01*
D02*
X1223Y764D02*
X1224Y727D01*
D02*
X1090Y1048D02*
X1124Y1039D01*
D02*
X1273Y440D02*
X1213Y439D01*
D02*
X1324Y402D02*
X1273Y440D01*
D02*
X1323Y358D02*
X1324Y402D01*
D02*
X1213Y239D02*
X1304Y239D01*
G36*
X1296Y1137D02*
X1296Y1115D01*
X1298Y1115D01*
X1298Y1105D01*
X1300Y1105D01*
X1300Y1099D01*
X1298Y1099D01*
X1298Y1087D01*
X1296Y1087D01*
X1296Y1081D01*
X1294Y1081D01*
X1294Y1077D01*
X1292Y1077D01*
X1292Y1073D01*
X1290Y1073D01*
X1290Y1071D01*
X1288Y1071D01*
X1288Y1069D01*
X1286Y1069D01*
X1286Y1017D01*
X1288Y1017D01*
X1288Y1005D01*
X1290Y1005D01*
X1290Y1003D01*
X1292Y1003D01*
X1292Y1001D01*
X1294Y1001D01*
X1294Y999D01*
X1296Y999D01*
X1296Y997D01*
X1298Y997D01*
X1298Y995D01*
X1300Y995D01*
X1300Y993D01*
X1302Y993D01*
X1302Y991D01*
X1304Y991D01*
X1304Y989D01*
X1306Y989D01*
X1306Y987D01*
X1308Y987D01*
X1308Y985D01*
X1310Y985D01*
X1310Y983D01*
X1312Y983D01*
X1312Y981D01*
X1314Y981D01*
X1314Y979D01*
X1316Y979D01*
X1316Y977D01*
X1318Y977D01*
X1318Y975D01*
X1320Y975D01*
X1320Y973D01*
X1322Y973D01*
X1322Y971D01*
X1320Y971D01*
X1320Y951D01*
X1330Y951D01*
X1330Y949D01*
X1338Y949D01*
X1338Y947D01*
X1344Y947D01*
X1344Y945D01*
X1348Y945D01*
X1348Y943D01*
X1352Y943D01*
X1352Y941D01*
X1372Y941D01*
X1372Y1137D01*
X1296Y1137D01*
G37*
D02*
G36*
X40Y1137D02*
X40Y1113D01*
X582Y1113D01*
X582Y1111D01*
X592Y1111D01*
X592Y1109D01*
X596Y1109D01*
X596Y1107D01*
X602Y1107D01*
X602Y1105D01*
X604Y1105D01*
X604Y1103D01*
X702Y1103D01*
X702Y1101D01*
X1122Y1101D01*
X1122Y1001D01*
X1112Y1001D01*
X1112Y981D01*
X1114Y981D01*
X1114Y977D01*
X1116Y977D01*
X1116Y973D01*
X1118Y973D01*
X1118Y969D01*
X1120Y969D01*
X1120Y963D01*
X1122Y963D01*
X1122Y939D01*
X1120Y939D01*
X1120Y933D01*
X1118Y933D01*
X1118Y929D01*
X1116Y929D01*
X1116Y925D01*
X1114Y925D01*
X1114Y923D01*
X1112Y923D01*
X1112Y919D01*
X1110Y919D01*
X1110Y917D01*
X1108Y917D01*
X1108Y915D01*
X1106Y915D01*
X1106Y913D01*
X1102Y913D01*
X1102Y911D01*
X1100Y911D01*
X1100Y909D01*
X1096Y909D01*
X1096Y907D01*
X1094Y907D01*
X1094Y905D01*
X1086Y905D01*
X1086Y903D01*
X1250Y903D01*
X1250Y905D01*
X1248Y905D01*
X1248Y907D01*
X1246Y907D01*
X1246Y909D01*
X1244Y909D01*
X1244Y911D01*
X1242Y911D01*
X1242Y913D01*
X1240Y913D01*
X1240Y915D01*
X1238Y915D01*
X1238Y917D01*
X1236Y917D01*
X1236Y919D01*
X1234Y919D01*
X1234Y921D01*
X1232Y921D01*
X1232Y923D01*
X1230Y923D01*
X1230Y925D01*
X1228Y925D01*
X1228Y927D01*
X1226Y927D01*
X1226Y929D01*
X1224Y929D01*
X1224Y931D01*
X1222Y931D01*
X1222Y933D01*
X1220Y933D01*
X1220Y935D01*
X1218Y935D01*
X1218Y937D01*
X1216Y937D01*
X1216Y939D01*
X1214Y939D01*
X1214Y941D01*
X1212Y941D01*
X1212Y943D01*
X1210Y943D01*
X1210Y945D01*
X1208Y945D01*
X1208Y947D01*
X1206Y947D01*
X1206Y949D01*
X1204Y949D01*
X1204Y951D01*
X1202Y951D01*
X1202Y953D01*
X1200Y953D01*
X1200Y955D01*
X1198Y955D01*
X1198Y957D01*
X1196Y957D01*
X1196Y959D01*
X1194Y959D01*
X1194Y961D01*
X1192Y961D01*
X1192Y963D01*
X1190Y963D01*
X1190Y965D01*
X1188Y965D01*
X1188Y967D01*
X1186Y967D01*
X1186Y969D01*
X1184Y969D01*
X1184Y971D01*
X1182Y971D01*
X1182Y973D01*
X1184Y973D01*
X1184Y975D01*
X1186Y975D01*
X1186Y977D01*
X1188Y977D01*
X1188Y979D01*
X1190Y979D01*
X1190Y981D01*
X1192Y981D01*
X1192Y983D01*
X1194Y983D01*
X1194Y985D01*
X1196Y985D01*
X1196Y987D01*
X1198Y987D01*
X1198Y989D01*
X1200Y989D01*
X1200Y991D01*
X1202Y991D01*
X1202Y993D01*
X1204Y993D01*
X1204Y995D01*
X1206Y995D01*
X1206Y997D01*
X1208Y997D01*
X1208Y999D01*
X1210Y999D01*
X1210Y1001D01*
X1212Y1001D01*
X1212Y1003D01*
X1214Y1003D01*
X1214Y1065D01*
X1212Y1065D01*
X1212Y1067D01*
X1210Y1067D01*
X1210Y1069D01*
X1208Y1069D01*
X1208Y1071D01*
X1206Y1071D01*
X1206Y1075D01*
X1204Y1075D01*
X1204Y1079D01*
X1202Y1079D01*
X1202Y1081D01*
X1200Y1081D01*
X1200Y1089D01*
X1198Y1089D01*
X1198Y1115D01*
X1200Y1115D01*
X1200Y1137D01*
X40Y1137D01*
G37*
D02*
G36*
X40Y1113D02*
X40Y1099D01*
X402Y1099D01*
X402Y1097D01*
X412Y1097D01*
X412Y1095D01*
X418Y1095D01*
X418Y1093D01*
X422Y1093D01*
X422Y1091D01*
X424Y1091D01*
X424Y1089D01*
X428Y1089D01*
X428Y1087D01*
X430Y1087D01*
X430Y1085D01*
X432Y1085D01*
X432Y1083D01*
X434Y1083D01*
X434Y1081D01*
X436Y1081D01*
X436Y1079D01*
X518Y1079D01*
X518Y1081D01*
X520Y1081D01*
X520Y1083D01*
X522Y1083D01*
X522Y1087D01*
X524Y1087D01*
X524Y1089D01*
X526Y1089D01*
X526Y1091D01*
X528Y1091D01*
X528Y1093D01*
X530Y1093D01*
X530Y1095D01*
X532Y1095D01*
X532Y1097D01*
X534Y1097D01*
X534Y1099D01*
X536Y1099D01*
X536Y1101D01*
X538Y1101D01*
X538Y1103D01*
X542Y1103D01*
X542Y1105D01*
X546Y1105D01*
X546Y1107D01*
X550Y1107D01*
X550Y1109D01*
X556Y1109D01*
X556Y1111D01*
X564Y1111D01*
X564Y1113D01*
X40Y1113D01*
G37*
D02*
G36*
X608Y1103D02*
X608Y1101D01*
X610Y1101D01*
X610Y1099D01*
X614Y1099D01*
X614Y1097D01*
X616Y1097D01*
X616Y1095D01*
X618Y1095D01*
X618Y1093D01*
X620Y1093D01*
X620Y1089D01*
X622Y1089D01*
X622Y1087D01*
X624Y1087D01*
X624Y1085D01*
X626Y1085D01*
X626Y1081D01*
X628Y1081D01*
X628Y1077D01*
X630Y1077D01*
X630Y1071D01*
X652Y1071D01*
X652Y1075D01*
X654Y1075D01*
X654Y1077D01*
X656Y1077D01*
X656Y1081D01*
X658Y1081D01*
X658Y1083D01*
X660Y1083D01*
X660Y1085D01*
X662Y1085D01*
X662Y1089D01*
X666Y1089D01*
X666Y1091D01*
X668Y1091D01*
X668Y1093D01*
X670Y1093D01*
X670Y1095D01*
X674Y1095D01*
X674Y1097D01*
X678Y1097D01*
X678Y1099D01*
X684Y1099D01*
X684Y1101D01*
X694Y1101D01*
X694Y1103D01*
X608Y1103D01*
G37*
D02*
G36*
X712Y1101D02*
X712Y1099D01*
X718Y1099D01*
X718Y1097D01*
X722Y1097D01*
X722Y1095D01*
X726Y1095D01*
X726Y1093D01*
X728Y1093D01*
X728Y1091D01*
X730Y1091D01*
X730Y1089D01*
X734Y1089D01*
X734Y1087D01*
X736Y1087D01*
X736Y1083D01*
X738Y1083D01*
X738Y1081D01*
X740Y1081D01*
X740Y1079D01*
X770Y1079D01*
X770Y1081D01*
X772Y1081D01*
X772Y1083D01*
X774Y1083D01*
X774Y1085D01*
X776Y1085D01*
X776Y1087D01*
X778Y1087D01*
X778Y1089D01*
X780Y1089D01*
X780Y1091D01*
X782Y1091D01*
X782Y1093D01*
X786Y1093D01*
X786Y1095D01*
X790Y1095D01*
X790Y1097D01*
X796Y1097D01*
X796Y1099D01*
X802Y1099D01*
X802Y1101D01*
X712Y1101D01*
G37*
D02*
G36*
X818Y1101D02*
X818Y1099D01*
X826Y1099D01*
X826Y1097D01*
X832Y1097D01*
X832Y1095D01*
X836Y1095D01*
X836Y1093D01*
X838Y1093D01*
X838Y1091D01*
X842Y1091D01*
X842Y1089D01*
X862Y1089D01*
X862Y1101D01*
X818Y1101D01*
G37*
D02*
G36*
X960Y1101D02*
X960Y1001D01*
X1024Y1001D01*
X1024Y1101D01*
X960Y1101D01*
G37*
D02*
G36*
X40Y1099D02*
X40Y1005D01*
X186Y1005D01*
X186Y1007D01*
X180Y1007D01*
X180Y1009D01*
X176Y1009D01*
X176Y1011D01*
X172Y1011D01*
X172Y1013D01*
X170Y1013D01*
X170Y1015D01*
X168Y1015D01*
X168Y1017D01*
X166Y1017D01*
X166Y1019D01*
X164Y1019D01*
X164Y1021D01*
X162Y1021D01*
X162Y1023D01*
X160Y1023D01*
X160Y1025D01*
X158Y1025D01*
X158Y1029D01*
X156Y1029D01*
X156Y1033D01*
X154Y1033D01*
X154Y1039D01*
X152Y1039D01*
X152Y1063D01*
X154Y1063D01*
X154Y1069D01*
X156Y1069D01*
X156Y1073D01*
X158Y1073D01*
X158Y1077D01*
X160Y1077D01*
X160Y1079D01*
X162Y1079D01*
X162Y1083D01*
X164Y1083D01*
X164Y1085D01*
X166Y1085D01*
X166Y1087D01*
X170Y1087D01*
X170Y1089D01*
X172Y1089D01*
X172Y1091D01*
X176Y1091D01*
X176Y1093D01*
X178Y1093D01*
X178Y1095D01*
X184Y1095D01*
X184Y1097D01*
X194Y1097D01*
X194Y1099D01*
X40Y1099D01*
G37*
D02*
G36*
X202Y1099D02*
X202Y1097D01*
X212Y1097D01*
X212Y1095D01*
X218Y1095D01*
X218Y1093D01*
X222Y1093D01*
X222Y1091D01*
X224Y1091D01*
X224Y1089D01*
X228Y1089D01*
X228Y1087D01*
X230Y1087D01*
X230Y1085D01*
X232Y1085D01*
X232Y1083D01*
X234Y1083D01*
X234Y1081D01*
X236Y1081D01*
X236Y1077D01*
X238Y1077D01*
X238Y1075D01*
X240Y1075D01*
X240Y1071D01*
X242Y1071D01*
X242Y1065D01*
X244Y1065D01*
X244Y1055D01*
X246Y1055D01*
X246Y1049D01*
X244Y1049D01*
X244Y1039D01*
X242Y1039D01*
X242Y1033D01*
X240Y1033D01*
X240Y1029D01*
X238Y1029D01*
X238Y1025D01*
X236Y1025D01*
X236Y1023D01*
X234Y1023D01*
X234Y1019D01*
X232Y1019D01*
X232Y1017D01*
X228Y1017D01*
X228Y1015D01*
X226Y1015D01*
X226Y1013D01*
X224Y1013D01*
X224Y1011D01*
X220Y1011D01*
X220Y1009D01*
X216Y1009D01*
X216Y1007D01*
X210Y1007D01*
X210Y1005D01*
X386Y1005D01*
X386Y1007D01*
X380Y1007D01*
X380Y1009D01*
X376Y1009D01*
X376Y1011D01*
X372Y1011D01*
X372Y1013D01*
X370Y1013D01*
X370Y1015D01*
X368Y1015D01*
X368Y1017D01*
X366Y1017D01*
X366Y1019D01*
X364Y1019D01*
X364Y1021D01*
X362Y1021D01*
X362Y1023D01*
X360Y1023D01*
X360Y1025D01*
X358Y1025D01*
X358Y1029D01*
X356Y1029D01*
X356Y1033D01*
X354Y1033D01*
X354Y1039D01*
X352Y1039D01*
X352Y1063D01*
X354Y1063D01*
X354Y1069D01*
X356Y1069D01*
X356Y1073D01*
X358Y1073D01*
X358Y1077D01*
X360Y1077D01*
X360Y1079D01*
X362Y1079D01*
X362Y1083D01*
X364Y1083D01*
X364Y1085D01*
X366Y1085D01*
X366Y1087D01*
X370Y1087D01*
X370Y1089D01*
X372Y1089D01*
X372Y1091D01*
X376Y1091D01*
X376Y1093D01*
X378Y1093D01*
X378Y1095D01*
X384Y1095D01*
X384Y1097D01*
X394Y1097D01*
X394Y1099D01*
X202Y1099D01*
G37*
D02*
G36*
X630Y1031D02*
X630Y1025D01*
X628Y1025D01*
X628Y1021D01*
X626Y1021D01*
X626Y1019D01*
X624Y1019D01*
X624Y1015D01*
X622Y1015D01*
X622Y1013D01*
X620Y1013D01*
X620Y1011D01*
X618Y1011D01*
X618Y1009D01*
X616Y1009D01*
X616Y1007D01*
X614Y1007D01*
X614Y1005D01*
X612Y1005D01*
X612Y1003D01*
X610Y1003D01*
X610Y1001D01*
X686Y1001D01*
X686Y1003D01*
X680Y1003D01*
X680Y1005D01*
X676Y1005D01*
X676Y1007D01*
X672Y1007D01*
X672Y1009D01*
X668Y1009D01*
X668Y1011D01*
X666Y1011D01*
X666Y1013D01*
X664Y1013D01*
X664Y1015D01*
X662Y1015D01*
X662Y1017D01*
X660Y1017D01*
X660Y1019D01*
X658Y1019D01*
X658Y1021D01*
X656Y1021D01*
X656Y1025D01*
X654Y1025D01*
X654Y1029D01*
X652Y1029D01*
X652Y1031D01*
X630Y1031D01*
G37*
D02*
G36*
X434Y1023D02*
X434Y1019D01*
X432Y1019D01*
X432Y1017D01*
X428Y1017D01*
X428Y1015D01*
X426Y1015D01*
X426Y1013D01*
X424Y1013D01*
X424Y1011D01*
X420Y1011D01*
X420Y1009D01*
X416Y1009D01*
X416Y1007D01*
X410Y1007D01*
X410Y1005D01*
X532Y1005D01*
X532Y1007D01*
X530Y1007D01*
X530Y1009D01*
X528Y1009D01*
X528Y1011D01*
X526Y1011D01*
X526Y1013D01*
X524Y1013D01*
X524Y1015D01*
X522Y1015D01*
X522Y1019D01*
X520Y1019D01*
X520Y1023D01*
X434Y1023D01*
G37*
D02*
G36*
X842Y1015D02*
X842Y1013D01*
X840Y1013D01*
X840Y1011D01*
X838Y1011D01*
X838Y1009D01*
X834Y1009D01*
X834Y1007D01*
X830Y1007D01*
X830Y1005D01*
X824Y1005D01*
X824Y1003D01*
X814Y1003D01*
X814Y1001D01*
X862Y1001D01*
X862Y1015D01*
X842Y1015D01*
G37*
D02*
G36*
X730Y1013D02*
X730Y1011D01*
X728Y1011D01*
X728Y1009D01*
X724Y1009D01*
X724Y1007D01*
X722Y1007D01*
X722Y1005D01*
X718Y1005D01*
X718Y1003D01*
X710Y1003D01*
X710Y1001D01*
X750Y1001D01*
X750Y1013D01*
X730Y1013D01*
G37*
D02*
G36*
X40Y1005D02*
X40Y1003D01*
X534Y1003D01*
X534Y1005D01*
X40Y1005D01*
G37*
D02*
G36*
X40Y1005D02*
X40Y1003D01*
X534Y1003D01*
X534Y1005D01*
X40Y1005D01*
G37*
D02*
G36*
X40Y1005D02*
X40Y1003D01*
X534Y1003D01*
X534Y1005D01*
X40Y1005D01*
G37*
D02*
G36*
X40Y1003D02*
X40Y989D01*
X570Y989D01*
X570Y991D01*
X558Y991D01*
X558Y993D01*
X550Y993D01*
X550Y995D01*
X546Y995D01*
X546Y997D01*
X542Y997D01*
X542Y999D01*
X540Y999D01*
X540Y1001D01*
X536Y1001D01*
X536Y1003D01*
X40Y1003D01*
G37*
D02*
G36*
X606Y1001D02*
X606Y999D01*
X748Y999D01*
X748Y1001D01*
X606Y1001D01*
G37*
D02*
G36*
X606Y1001D02*
X606Y999D01*
X748Y999D01*
X748Y1001D01*
X606Y1001D01*
G37*
D02*
G36*
X812Y1001D02*
X812Y999D01*
X1034Y999D01*
X1034Y1001D01*
X812Y1001D01*
G37*
D02*
G36*
X812Y1001D02*
X812Y999D01*
X1034Y999D01*
X1034Y1001D01*
X812Y1001D01*
G37*
D02*
G36*
X604Y999D02*
X604Y997D01*
X600Y997D01*
X600Y995D01*
X596Y995D01*
X596Y993D01*
X588Y993D01*
X588Y991D01*
X576Y991D01*
X576Y989D01*
X746Y989D01*
X746Y997D01*
X748Y997D01*
X748Y999D01*
X604Y999D01*
G37*
D02*
G36*
X812Y999D02*
X812Y997D01*
X810Y997D01*
X810Y993D01*
X808Y993D01*
X808Y989D01*
X806Y989D01*
X806Y987D01*
X804Y987D01*
X804Y983D01*
X802Y983D01*
X802Y901D01*
X1070Y901D01*
X1070Y903D01*
X1060Y903D01*
X1060Y905D01*
X1054Y905D01*
X1054Y907D01*
X1050Y907D01*
X1050Y909D01*
X1046Y909D01*
X1046Y911D01*
X1044Y911D01*
X1044Y913D01*
X1040Y913D01*
X1040Y915D01*
X1038Y915D01*
X1038Y917D01*
X1036Y917D01*
X1036Y921D01*
X1034Y921D01*
X1034Y923D01*
X1032Y923D01*
X1032Y925D01*
X1030Y925D01*
X1030Y929D01*
X1028Y929D01*
X1028Y933D01*
X1026Y933D01*
X1026Y941D01*
X1024Y941D01*
X1024Y961D01*
X1026Y961D01*
X1026Y969D01*
X1028Y969D01*
X1028Y973D01*
X1030Y973D01*
X1030Y977D01*
X1032Y977D01*
X1032Y979D01*
X1034Y979D01*
X1034Y999D01*
X812Y999D01*
G37*
D02*
G36*
X40Y989D02*
X40Y987D01*
X746Y987D01*
X746Y989D01*
X40Y989D01*
G37*
D02*
G36*
X40Y989D02*
X40Y987D01*
X746Y987D01*
X746Y989D01*
X40Y989D01*
G37*
D02*
G36*
X40Y987D02*
X40Y913D01*
X682Y913D01*
X682Y911D01*
X692Y911D01*
X692Y909D01*
X696Y909D01*
X696Y907D01*
X702Y907D01*
X702Y905D01*
X704Y905D01*
X704Y903D01*
X708Y903D01*
X708Y901D01*
X710Y901D01*
X710Y899D01*
X714Y899D01*
X714Y897D01*
X716Y897D01*
X716Y895D01*
X718Y895D01*
X718Y893D01*
X720Y893D01*
X720Y889D01*
X722Y889D01*
X722Y887D01*
X724Y887D01*
X724Y885D01*
X726Y885D01*
X726Y881D01*
X746Y881D01*
X746Y987D01*
X40Y987D01*
G37*
D02*
G36*
X40Y913D02*
X40Y789D01*
X412Y789D01*
X412Y913D01*
X40Y913D01*
G37*
D02*
G36*
X534Y913D02*
X534Y789D01*
X670Y789D01*
X670Y791D01*
X658Y791D01*
X658Y793D01*
X650Y793D01*
X650Y795D01*
X646Y795D01*
X646Y797D01*
X642Y797D01*
X642Y799D01*
X640Y799D01*
X640Y801D01*
X636Y801D01*
X636Y803D01*
X634Y803D01*
X634Y805D01*
X632Y805D01*
X632Y807D01*
X630Y807D01*
X630Y809D01*
X628Y809D01*
X628Y811D01*
X626Y811D01*
X626Y813D01*
X624Y813D01*
X624Y815D01*
X622Y815D01*
X622Y819D01*
X620Y819D01*
X620Y823D01*
X618Y823D01*
X618Y827D01*
X616Y827D01*
X616Y831D01*
X614Y831D01*
X614Y839D01*
X612Y839D01*
X612Y863D01*
X614Y863D01*
X614Y871D01*
X616Y871D01*
X616Y877D01*
X618Y877D01*
X618Y881D01*
X620Y881D01*
X620Y883D01*
X622Y883D01*
X622Y887D01*
X624Y887D01*
X624Y889D01*
X626Y889D01*
X626Y891D01*
X628Y891D01*
X628Y893D01*
X630Y893D01*
X630Y895D01*
X632Y895D01*
X632Y897D01*
X634Y897D01*
X634Y899D01*
X636Y899D01*
X636Y901D01*
X638Y901D01*
X638Y903D01*
X642Y903D01*
X642Y905D01*
X646Y905D01*
X646Y907D01*
X650Y907D01*
X650Y909D01*
X656Y909D01*
X656Y911D01*
X664Y911D01*
X664Y913D01*
X534Y913D01*
G37*
D02*
G36*
X1254Y905D02*
X1254Y903D01*
X1274Y903D01*
X1274Y905D01*
X1254Y905D01*
G37*
D02*
G36*
X1078Y903D02*
X1078Y901D01*
X1274Y901D01*
X1274Y903D01*
X1078Y903D01*
G37*
D02*
G36*
X1078Y903D02*
X1078Y901D01*
X1274Y901D01*
X1274Y903D01*
X1078Y903D01*
G37*
D02*
G36*
X802Y901D02*
X802Y899D01*
X1274Y899D01*
X1274Y901D01*
X802Y901D01*
G37*
D02*
G36*
X802Y901D02*
X802Y899D01*
X1274Y899D01*
X1274Y901D01*
X802Y901D01*
G37*
D02*
G36*
X802Y899D02*
X802Y875D01*
X1014Y875D01*
X1014Y857D01*
X1058Y857D01*
X1058Y855D01*
X1064Y855D01*
X1064Y853D01*
X1066Y853D01*
X1066Y851D01*
X1322Y851D01*
X1322Y853D01*
X1310Y853D01*
X1310Y855D01*
X1304Y855D01*
X1304Y857D01*
X1300Y857D01*
X1300Y859D01*
X1296Y859D01*
X1296Y861D01*
X1294Y861D01*
X1294Y863D01*
X1290Y863D01*
X1290Y865D01*
X1288Y865D01*
X1288Y867D01*
X1286Y867D01*
X1286Y869D01*
X1284Y869D01*
X1284Y873D01*
X1282Y873D01*
X1282Y875D01*
X1280Y875D01*
X1280Y879D01*
X1278Y879D01*
X1278Y883D01*
X1276Y883D01*
X1276Y891D01*
X1274Y891D01*
X1274Y899D01*
X802Y899D01*
G37*
D02*
G36*
X892Y875D02*
X892Y777D01*
X926Y777D01*
X926Y875D01*
X892Y875D01*
G37*
D02*
G36*
X1350Y861D02*
X1350Y859D01*
X1346Y859D01*
X1346Y857D01*
X1342Y857D01*
X1342Y855D01*
X1336Y855D01*
X1336Y853D01*
X1326Y853D01*
X1326Y851D01*
X1372Y851D01*
X1372Y861D01*
X1350Y861D01*
G37*
D02*
G36*
X1014Y857D02*
X1014Y853D01*
X1034Y853D01*
X1034Y855D01*
X1038Y855D01*
X1038Y857D01*
X1014Y857D01*
G37*
D02*
G36*
X1068Y851D02*
X1068Y849D01*
X1372Y849D01*
X1372Y851D01*
X1068Y851D01*
G37*
D02*
G36*
X1068Y851D02*
X1068Y849D01*
X1372Y849D01*
X1372Y851D01*
X1068Y851D01*
G37*
D02*
G36*
X1072Y849D02*
X1072Y845D01*
X1074Y845D01*
X1074Y843D01*
X1076Y843D01*
X1076Y839D01*
X1078Y839D01*
X1078Y835D01*
X1148Y835D01*
X1148Y833D01*
X1154Y833D01*
X1154Y831D01*
X1158Y831D01*
X1158Y829D01*
X1162Y829D01*
X1162Y827D01*
X1164Y827D01*
X1164Y825D01*
X1166Y825D01*
X1166Y823D01*
X1168Y823D01*
X1168Y821D01*
X1170Y821D01*
X1170Y819D01*
X1172Y819D01*
X1172Y817D01*
X1174Y817D01*
X1174Y815D01*
X1176Y815D01*
X1176Y811D01*
X1178Y811D01*
X1178Y807D01*
X1180Y807D01*
X1180Y801D01*
X1182Y801D01*
X1182Y777D01*
X1180Y777D01*
X1180Y771D01*
X1328Y771D01*
X1328Y769D01*
X1336Y769D01*
X1336Y767D01*
X1340Y767D01*
X1340Y765D01*
X1342Y765D01*
X1342Y763D01*
X1344Y763D01*
X1344Y761D01*
X1346Y761D01*
X1346Y759D01*
X1348Y759D01*
X1348Y757D01*
X1350Y757D01*
X1350Y753D01*
X1352Y753D01*
X1352Y749D01*
X1372Y749D01*
X1372Y849D01*
X1072Y849D01*
G37*
D02*
G36*
X1078Y835D02*
X1078Y833D01*
X1080Y833D01*
X1080Y819D01*
X1078Y819D01*
X1078Y815D01*
X1098Y815D01*
X1098Y817D01*
X1100Y817D01*
X1100Y821D01*
X1102Y821D01*
X1102Y823D01*
X1104Y823D01*
X1104Y825D01*
X1108Y825D01*
X1108Y827D01*
X1110Y827D01*
X1110Y829D01*
X1114Y829D01*
X1114Y831D01*
X1118Y831D01*
X1118Y833D01*
X1124Y833D01*
X1124Y835D01*
X1078Y835D01*
G37*
D02*
G36*
X724Y817D02*
X724Y815D01*
X722Y815D01*
X722Y813D01*
X720Y813D01*
X720Y811D01*
X718Y811D01*
X718Y809D01*
X716Y809D01*
X716Y807D01*
X714Y807D01*
X714Y805D01*
X712Y805D01*
X712Y803D01*
X710Y803D01*
X710Y801D01*
X706Y801D01*
X706Y799D01*
X704Y799D01*
X704Y797D01*
X700Y797D01*
X700Y795D01*
X764Y795D01*
X764Y797D01*
X760Y797D01*
X760Y799D01*
X756Y799D01*
X756Y801D01*
X754Y801D01*
X754Y803D01*
X750Y803D01*
X750Y807D01*
X748Y807D01*
X748Y809D01*
X746Y809D01*
X746Y813D01*
X744Y813D01*
X744Y817D01*
X724Y817D01*
G37*
D02*
G36*
X782Y797D02*
X782Y795D01*
X804Y795D01*
X804Y797D01*
X782Y797D01*
G37*
D02*
G36*
X696Y795D02*
X696Y793D01*
X804Y793D01*
X804Y795D01*
X696Y795D01*
G37*
D02*
G36*
X696Y795D02*
X696Y793D01*
X804Y793D01*
X804Y795D01*
X696Y795D01*
G37*
D02*
G36*
X688Y793D02*
X688Y791D01*
X676Y791D01*
X676Y789D01*
X804Y789D01*
X804Y793D01*
X688Y793D01*
G37*
D02*
G36*
X40Y789D02*
X40Y787D01*
X804Y787D01*
X804Y789D01*
X40Y789D01*
G37*
D02*
G36*
X40Y789D02*
X40Y787D01*
X804Y787D01*
X804Y789D01*
X40Y789D01*
G37*
D02*
G36*
X40Y789D02*
X40Y787D01*
X804Y787D01*
X804Y789D01*
X40Y789D01*
G37*
D02*
G36*
X40Y787D02*
X40Y777D01*
X804Y777D01*
X804Y787D01*
X40Y787D01*
G37*
D02*
G36*
X40Y777D02*
X40Y775D01*
X998Y775D01*
X998Y777D01*
X40Y777D01*
G37*
D02*
G36*
X40Y777D02*
X40Y775D01*
X998Y775D01*
X998Y777D01*
X40Y777D01*
G37*
D02*
G36*
X40Y775D02*
X40Y761D01*
X418Y761D01*
X418Y759D01*
X426Y759D01*
X426Y757D01*
X430Y757D01*
X430Y755D01*
X434Y755D01*
X434Y753D01*
X438Y753D01*
X438Y751D01*
X440Y751D01*
X440Y749D01*
X524Y749D01*
X524Y751D01*
X526Y751D01*
X526Y755D01*
X528Y755D01*
X528Y757D01*
X530Y757D01*
X530Y759D01*
X532Y759D01*
X532Y761D01*
X536Y761D01*
X536Y763D01*
X538Y763D01*
X538Y765D01*
X542Y765D01*
X542Y767D01*
X544Y767D01*
X544Y769D01*
X548Y769D01*
X548Y771D01*
X554Y771D01*
X554Y773D01*
X562Y773D01*
X562Y775D01*
X40Y775D01*
G37*
D02*
G36*
X584Y775D02*
X584Y773D01*
X592Y773D01*
X592Y771D01*
X598Y771D01*
X598Y769D01*
X602Y769D01*
X602Y767D01*
X606Y767D01*
X606Y765D01*
X608Y765D01*
X608Y763D01*
X612Y763D01*
X612Y761D01*
X614Y761D01*
X614Y759D01*
X616Y759D01*
X616Y757D01*
X618Y757D01*
X618Y755D01*
X620Y755D01*
X620Y753D01*
X622Y753D01*
X622Y749D01*
X624Y749D01*
X624Y747D01*
X626Y747D01*
X626Y743D01*
X628Y743D01*
X628Y739D01*
X630Y739D01*
X630Y735D01*
X632Y735D01*
X632Y727D01*
X634Y727D01*
X634Y707D01*
X1000Y707D01*
X1000Y709D01*
X998Y709D01*
X998Y775D01*
X584Y775D01*
G37*
D02*
G36*
X1178Y771D02*
X1178Y767D01*
X1176Y767D01*
X1176Y763D01*
X1174Y763D01*
X1174Y761D01*
X1172Y761D01*
X1172Y759D01*
X1170Y759D01*
X1170Y755D01*
X1168Y755D01*
X1168Y753D01*
X1164Y753D01*
X1164Y751D01*
X1162Y751D01*
X1162Y749D01*
X1158Y749D01*
X1158Y747D01*
X1154Y747D01*
X1154Y745D01*
X1150Y745D01*
X1150Y743D01*
X1140Y743D01*
X1140Y741D01*
X1292Y741D01*
X1292Y747D01*
X1294Y747D01*
X1294Y753D01*
X1296Y753D01*
X1296Y757D01*
X1298Y757D01*
X1298Y759D01*
X1300Y759D01*
X1300Y761D01*
X1302Y761D01*
X1302Y763D01*
X1304Y763D01*
X1304Y765D01*
X1308Y765D01*
X1308Y767D01*
X1312Y767D01*
X1312Y769D01*
X1320Y769D01*
X1320Y771D01*
X1178Y771D01*
G37*
D02*
G36*
X40Y761D02*
X40Y667D01*
X200Y667D01*
X200Y669D01*
X194Y669D01*
X194Y671D01*
X190Y671D01*
X190Y673D01*
X186Y673D01*
X186Y675D01*
X184Y675D01*
X184Y677D01*
X180Y677D01*
X180Y679D01*
X178Y679D01*
X178Y681D01*
X176Y681D01*
X176Y683D01*
X174Y683D01*
X174Y687D01*
X172Y687D01*
X172Y689D01*
X170Y689D01*
X170Y693D01*
X168Y693D01*
X168Y697D01*
X166Y697D01*
X166Y703D01*
X164Y703D01*
X164Y725D01*
X166Y725D01*
X166Y731D01*
X168Y731D01*
X168Y735D01*
X170Y735D01*
X170Y739D01*
X172Y739D01*
X172Y741D01*
X174Y741D01*
X174Y743D01*
X176Y743D01*
X176Y747D01*
X178Y747D01*
X178Y749D01*
X182Y749D01*
X182Y751D01*
X184Y751D01*
X184Y753D01*
X186Y753D01*
X186Y755D01*
X190Y755D01*
X190Y757D01*
X196Y757D01*
X196Y759D01*
X202Y759D01*
X202Y761D01*
X40Y761D01*
G37*
D02*
G36*
X218Y761D02*
X218Y759D01*
X226Y759D01*
X226Y757D01*
X230Y757D01*
X230Y755D01*
X234Y755D01*
X234Y753D01*
X238Y753D01*
X238Y751D01*
X240Y751D01*
X240Y749D01*
X242Y749D01*
X242Y747D01*
X244Y747D01*
X244Y745D01*
X246Y745D01*
X246Y743D01*
X248Y743D01*
X248Y741D01*
X250Y741D01*
X250Y737D01*
X252Y737D01*
X252Y733D01*
X254Y733D01*
X254Y729D01*
X256Y729D01*
X256Y721D01*
X258Y721D01*
X258Y707D01*
X256Y707D01*
X256Y699D01*
X254Y699D01*
X254Y693D01*
X252Y693D01*
X252Y691D01*
X250Y691D01*
X250Y687D01*
X248Y687D01*
X248Y685D01*
X246Y685D01*
X246Y681D01*
X244Y681D01*
X244Y679D01*
X240Y679D01*
X240Y677D01*
X238Y677D01*
X238Y675D01*
X236Y675D01*
X236Y673D01*
X232Y673D01*
X232Y671D01*
X228Y671D01*
X228Y669D01*
X220Y669D01*
X220Y667D01*
X400Y667D01*
X400Y669D01*
X394Y669D01*
X394Y671D01*
X390Y671D01*
X390Y673D01*
X386Y673D01*
X386Y675D01*
X384Y675D01*
X384Y677D01*
X380Y677D01*
X380Y679D01*
X378Y679D01*
X378Y681D01*
X376Y681D01*
X376Y683D01*
X374Y683D01*
X374Y687D01*
X372Y687D01*
X372Y689D01*
X370Y689D01*
X370Y693D01*
X368Y693D01*
X368Y697D01*
X366Y697D01*
X366Y703D01*
X364Y703D01*
X364Y725D01*
X366Y725D01*
X366Y731D01*
X368Y731D01*
X368Y735D01*
X370Y735D01*
X370Y739D01*
X372Y739D01*
X372Y741D01*
X374Y741D01*
X374Y743D01*
X376Y743D01*
X376Y747D01*
X378Y747D01*
X378Y749D01*
X382Y749D01*
X382Y751D01*
X384Y751D01*
X384Y753D01*
X386Y753D01*
X386Y755D01*
X390Y755D01*
X390Y757D01*
X396Y757D01*
X396Y759D01*
X402Y759D01*
X402Y761D01*
X218Y761D01*
G37*
D02*
G36*
X1098Y745D02*
X1098Y741D01*
X1132Y741D01*
X1132Y743D01*
X1122Y743D01*
X1122Y745D01*
X1098Y745D01*
G37*
D02*
G36*
X1098Y741D02*
X1098Y739D01*
X1292Y739D01*
X1292Y741D01*
X1098Y741D01*
G37*
D02*
G36*
X1098Y741D02*
X1098Y739D01*
X1292Y739D01*
X1292Y741D01*
X1098Y741D01*
G37*
D02*
G36*
X1098Y739D02*
X1098Y709D01*
X1096Y709D01*
X1096Y707D01*
X1294Y707D01*
X1294Y729D01*
X1292Y729D01*
X1292Y739D01*
X1098Y739D01*
G37*
D02*
G36*
X634Y707D02*
X634Y705D01*
X1274Y705D01*
X1274Y707D01*
X634Y707D01*
G37*
D02*
G36*
X634Y707D02*
X634Y705D01*
X1274Y705D01*
X1274Y707D01*
X634Y707D01*
G37*
D02*
G36*
X634Y705D02*
X634Y701D01*
X632Y701D01*
X632Y693D01*
X630Y693D01*
X630Y689D01*
X628Y689D01*
X628Y685D01*
X626Y685D01*
X626Y681D01*
X624Y681D01*
X624Y679D01*
X622Y679D01*
X622Y675D01*
X620Y675D01*
X620Y673D01*
X1098Y673D01*
X1098Y635D01*
X1148Y635D01*
X1148Y633D01*
X1154Y633D01*
X1154Y631D01*
X1158Y631D01*
X1158Y629D01*
X1162Y629D01*
X1162Y627D01*
X1164Y627D01*
X1164Y625D01*
X1166Y625D01*
X1166Y623D01*
X1168Y623D01*
X1168Y621D01*
X1170Y621D01*
X1170Y619D01*
X1172Y619D01*
X1172Y617D01*
X1244Y617D01*
X1244Y615D01*
X1248Y615D01*
X1248Y613D01*
X1252Y613D01*
X1252Y611D01*
X1256Y611D01*
X1256Y609D01*
X1260Y609D01*
X1260Y607D01*
X1264Y607D01*
X1264Y605D01*
X1268Y605D01*
X1268Y603D01*
X1270Y603D01*
X1270Y601D01*
X1274Y601D01*
X1274Y599D01*
X1278Y599D01*
X1278Y597D01*
X1282Y597D01*
X1282Y595D01*
X1286Y595D01*
X1286Y593D01*
X1290Y593D01*
X1290Y591D01*
X1292Y591D01*
X1292Y589D01*
X1296Y589D01*
X1296Y587D01*
X1300Y587D01*
X1300Y585D01*
X1372Y585D01*
X1372Y621D01*
X1274Y621D01*
X1274Y705D01*
X634Y705D01*
G37*
D02*
G36*
X438Y677D02*
X438Y675D01*
X436Y675D01*
X436Y673D01*
X432Y673D01*
X432Y671D01*
X428Y671D01*
X428Y669D01*
X420Y669D01*
X420Y667D01*
X532Y667D01*
X532Y669D01*
X530Y669D01*
X530Y671D01*
X528Y671D01*
X528Y673D01*
X526Y673D01*
X526Y675D01*
X524Y675D01*
X524Y677D01*
X438Y677D01*
G37*
D02*
G36*
X618Y673D02*
X618Y671D01*
X616Y671D01*
X616Y669D01*
X614Y669D01*
X614Y667D01*
X612Y667D01*
X612Y665D01*
X610Y665D01*
X610Y663D01*
X606Y663D01*
X606Y661D01*
X602Y661D01*
X602Y659D01*
X598Y659D01*
X598Y657D01*
X594Y657D01*
X594Y655D01*
X586Y655D01*
X586Y653D01*
X998Y653D01*
X998Y673D01*
X618Y673D01*
G37*
D02*
G36*
X40Y667D02*
X40Y665D01*
X534Y665D01*
X534Y667D01*
X40Y667D01*
G37*
D02*
G36*
X40Y667D02*
X40Y665D01*
X534Y665D01*
X534Y667D01*
X40Y667D01*
G37*
D02*
G36*
X40Y667D02*
X40Y665D01*
X534Y665D01*
X534Y667D01*
X40Y667D01*
G37*
D02*
G36*
X40Y665D02*
X40Y653D01*
X560Y653D01*
X560Y655D01*
X552Y655D01*
X552Y657D01*
X548Y657D01*
X548Y659D01*
X544Y659D01*
X544Y661D01*
X540Y661D01*
X540Y663D01*
X538Y663D01*
X538Y665D01*
X40Y665D01*
G37*
D02*
G36*
X40Y653D02*
X40Y651D01*
X998Y651D01*
X998Y653D01*
X40Y653D01*
G37*
D02*
G36*
X40Y653D02*
X40Y651D01*
X998Y651D01*
X998Y653D01*
X40Y653D01*
G37*
D02*
G36*
X40Y651D02*
X40Y575D01*
X684Y575D01*
X684Y573D01*
X692Y573D01*
X692Y571D01*
X698Y571D01*
X698Y569D01*
X702Y569D01*
X702Y567D01*
X706Y567D01*
X706Y565D01*
X708Y565D01*
X708Y563D01*
X712Y563D01*
X712Y561D01*
X714Y561D01*
X714Y559D01*
X716Y559D01*
X716Y557D01*
X718Y557D01*
X718Y555D01*
X720Y555D01*
X720Y553D01*
X722Y553D01*
X722Y549D01*
X724Y549D01*
X724Y547D01*
X726Y547D01*
X726Y545D01*
X1044Y545D01*
X1044Y543D01*
X1050Y543D01*
X1050Y541D01*
X1132Y541D01*
X1132Y543D01*
X1122Y543D01*
X1122Y545D01*
X1116Y545D01*
X1116Y547D01*
X1112Y547D01*
X1112Y549D01*
X1110Y549D01*
X1110Y551D01*
X1106Y551D01*
X1106Y553D01*
X1104Y553D01*
X1104Y555D01*
X1102Y555D01*
X1102Y557D01*
X1100Y557D01*
X1100Y559D01*
X1098Y559D01*
X1098Y563D01*
X1096Y563D01*
X1096Y565D01*
X1094Y565D01*
X1094Y569D01*
X1092Y569D01*
X1092Y575D01*
X1090Y575D01*
X1090Y585D01*
X1000Y585D01*
X1000Y587D01*
X998Y587D01*
X998Y651D01*
X40Y651D01*
G37*
D02*
G36*
X1098Y635D02*
X1098Y631D01*
X1118Y631D01*
X1118Y633D01*
X1124Y633D01*
X1124Y635D01*
X1098Y635D01*
G37*
D02*
G36*
X40Y575D02*
X40Y399D01*
X378Y399D01*
X378Y397D01*
X386Y397D01*
X386Y395D01*
X392Y395D01*
X392Y393D01*
X396Y393D01*
X396Y391D01*
X400Y391D01*
X400Y389D01*
X402Y389D01*
X402Y387D01*
X404Y387D01*
X404Y385D01*
X406Y385D01*
X406Y383D01*
X408Y383D01*
X408Y381D01*
X410Y381D01*
X410Y379D01*
X412Y379D01*
X412Y375D01*
X414Y375D01*
X414Y373D01*
X416Y373D01*
X416Y367D01*
X464Y367D01*
X464Y369D01*
X456Y369D01*
X456Y371D01*
X452Y371D01*
X452Y373D01*
X448Y373D01*
X448Y375D01*
X446Y375D01*
X446Y377D01*
X444Y377D01*
X444Y379D01*
X440Y379D01*
X440Y381D01*
X438Y381D01*
X438Y385D01*
X436Y385D01*
X436Y387D01*
X434Y387D01*
X434Y389D01*
X432Y389D01*
X432Y393D01*
X430Y393D01*
X430Y399D01*
X428Y399D01*
X428Y405D01*
X426Y405D01*
X426Y421D01*
X428Y421D01*
X428Y429D01*
X430Y429D01*
X430Y453D01*
X412Y453D01*
X412Y575D01*
X40Y575D01*
G37*
D02*
G36*
X534Y575D02*
X534Y453D01*
X516Y453D01*
X516Y431D01*
X518Y431D01*
X518Y423D01*
X520Y423D01*
X520Y405D01*
X518Y405D01*
X518Y397D01*
X516Y397D01*
X516Y393D01*
X514Y393D01*
X514Y389D01*
X512Y389D01*
X512Y387D01*
X510Y387D01*
X510Y383D01*
X508Y383D01*
X508Y381D01*
X506Y381D01*
X506Y379D01*
X504Y379D01*
X504Y377D01*
X500Y377D01*
X500Y375D01*
X498Y375D01*
X498Y373D01*
X494Y373D01*
X494Y371D01*
X490Y371D01*
X490Y369D01*
X484Y369D01*
X484Y367D01*
X664Y367D01*
X664Y369D01*
X656Y369D01*
X656Y371D01*
X652Y371D01*
X652Y373D01*
X648Y373D01*
X648Y375D01*
X646Y375D01*
X646Y377D01*
X644Y377D01*
X644Y379D01*
X640Y379D01*
X640Y381D01*
X638Y381D01*
X638Y385D01*
X636Y385D01*
X636Y387D01*
X634Y387D01*
X634Y389D01*
X632Y389D01*
X632Y393D01*
X630Y393D01*
X630Y399D01*
X628Y399D01*
X628Y405D01*
X626Y405D01*
X626Y421D01*
X628Y421D01*
X628Y429D01*
X630Y429D01*
X630Y435D01*
X632Y435D01*
X632Y437D01*
X634Y437D01*
X634Y441D01*
X636Y441D01*
X636Y443D01*
X638Y443D01*
X638Y465D01*
X634Y465D01*
X634Y467D01*
X632Y467D01*
X632Y469D01*
X630Y469D01*
X630Y471D01*
X628Y471D01*
X628Y473D01*
X626Y473D01*
X626Y475D01*
X624Y475D01*
X624Y479D01*
X622Y479D01*
X622Y481D01*
X620Y481D01*
X620Y485D01*
X618Y485D01*
X618Y489D01*
X616Y489D01*
X616Y495D01*
X614Y495D01*
X614Y501D01*
X612Y501D01*
X612Y525D01*
X614Y525D01*
X614Y533D01*
X616Y533D01*
X616Y539D01*
X618Y539D01*
X618Y543D01*
X620Y543D01*
X620Y547D01*
X622Y547D01*
X622Y549D01*
X624Y549D01*
X624Y551D01*
X626Y551D01*
X626Y555D01*
X628Y555D01*
X628Y557D01*
X630Y557D01*
X630Y559D01*
X632Y559D01*
X632Y561D01*
X636Y561D01*
X636Y563D01*
X638Y563D01*
X638Y565D01*
X642Y565D01*
X642Y567D01*
X644Y567D01*
X644Y569D01*
X648Y569D01*
X648Y571D01*
X654Y571D01*
X654Y573D01*
X662Y573D01*
X662Y575D01*
X534Y575D01*
G37*
D02*
G36*
X1172Y561D02*
X1172Y559D01*
X1170Y559D01*
X1170Y555D01*
X1168Y555D01*
X1168Y553D01*
X1164Y553D01*
X1164Y551D01*
X1162Y551D01*
X1162Y549D01*
X1158Y549D01*
X1158Y547D01*
X1154Y547D01*
X1154Y545D01*
X1150Y545D01*
X1150Y543D01*
X1140Y543D01*
X1140Y541D01*
X1264Y541D01*
X1264Y543D01*
X1260Y543D01*
X1260Y545D01*
X1256Y545D01*
X1256Y547D01*
X1252Y547D01*
X1252Y549D01*
X1250Y549D01*
X1250Y551D01*
X1246Y551D01*
X1246Y553D01*
X1242Y553D01*
X1242Y555D01*
X1238Y555D01*
X1238Y557D01*
X1234Y557D01*
X1234Y559D01*
X1230Y559D01*
X1230Y561D01*
X1172Y561D01*
G37*
D02*
G36*
X726Y545D02*
X726Y543D01*
X728Y543D01*
X728Y539D01*
X730Y539D01*
X730Y535D01*
X732Y535D01*
X732Y527D01*
X734Y527D01*
X734Y501D01*
X732Y501D01*
X732Y493D01*
X730Y493D01*
X730Y489D01*
X728Y489D01*
X728Y485D01*
X726Y485D01*
X726Y483D01*
X1026Y483D01*
X1026Y485D01*
X1020Y485D01*
X1020Y487D01*
X1018Y487D01*
X1018Y489D01*
X1014Y489D01*
X1014Y491D01*
X1012Y491D01*
X1012Y495D01*
X1010Y495D01*
X1010Y497D01*
X1008Y497D01*
X1008Y501D01*
X1006Y501D01*
X1006Y507D01*
X1004Y507D01*
X1004Y521D01*
X1006Y521D01*
X1006Y527D01*
X1008Y527D01*
X1008Y531D01*
X1010Y531D01*
X1010Y533D01*
X1012Y533D01*
X1012Y535D01*
X1014Y535D01*
X1014Y537D01*
X1016Y537D01*
X1016Y539D01*
X1018Y539D01*
X1018Y541D01*
X1022Y541D01*
X1022Y543D01*
X1026Y543D01*
X1026Y545D01*
X726Y545D01*
G37*
D02*
G36*
X1054Y541D02*
X1054Y539D01*
X1268Y539D01*
X1268Y541D01*
X1054Y541D01*
G37*
D02*
G36*
X1054Y541D02*
X1054Y539D01*
X1268Y539D01*
X1268Y541D01*
X1054Y541D01*
G37*
D02*
G36*
X1056Y539D02*
X1056Y537D01*
X1058Y537D01*
X1058Y535D01*
X1060Y535D01*
X1060Y533D01*
X1062Y533D01*
X1062Y529D01*
X1064Y529D01*
X1064Y525D01*
X1066Y525D01*
X1066Y517D01*
X1068Y517D01*
X1068Y511D01*
X1066Y511D01*
X1066Y501D01*
X1064Y501D01*
X1064Y499D01*
X1062Y499D01*
X1062Y495D01*
X1060Y495D01*
X1060Y493D01*
X1058Y493D01*
X1058Y491D01*
X1056Y491D01*
X1056Y489D01*
X1054Y489D01*
X1054Y487D01*
X1050Y487D01*
X1050Y485D01*
X1210Y485D01*
X1210Y483D01*
X1216Y483D01*
X1216Y481D01*
X1220Y481D01*
X1220Y479D01*
X1224Y479D01*
X1224Y477D01*
X1226Y477D01*
X1226Y475D01*
X1228Y475D01*
X1228Y473D01*
X1232Y473D01*
X1232Y471D01*
X1234Y471D01*
X1234Y467D01*
X1236Y467D01*
X1236Y465D01*
X1238Y465D01*
X1238Y461D01*
X1240Y461D01*
X1240Y457D01*
X1242Y457D01*
X1242Y451D01*
X1244Y451D01*
X1244Y441D01*
X1246Y441D01*
X1246Y435D01*
X1244Y435D01*
X1244Y425D01*
X1242Y425D01*
X1242Y419D01*
X1240Y419D01*
X1240Y417D01*
X1238Y417D01*
X1238Y413D01*
X1236Y413D01*
X1236Y409D01*
X1234Y409D01*
X1234Y407D01*
X1232Y407D01*
X1232Y405D01*
X1230Y405D01*
X1230Y403D01*
X1228Y403D01*
X1228Y401D01*
X1224Y401D01*
X1224Y399D01*
X1222Y399D01*
X1222Y397D01*
X1218Y397D01*
X1218Y395D01*
X1212Y395D01*
X1212Y393D01*
X1202Y393D01*
X1202Y391D01*
X1372Y391D01*
X1372Y499D01*
X1274Y499D01*
X1274Y537D01*
X1272Y537D01*
X1272Y539D01*
X1056Y539D01*
G37*
D02*
G36*
X1046Y485D02*
X1046Y483D01*
X1186Y483D01*
X1186Y485D01*
X1046Y485D01*
G37*
D02*
G36*
X726Y483D02*
X726Y481D01*
X1180Y481D01*
X1180Y483D01*
X726Y483D01*
G37*
D02*
G36*
X726Y483D02*
X726Y481D01*
X1180Y481D01*
X1180Y483D01*
X726Y483D01*
G37*
D02*
G36*
X724Y481D02*
X724Y479D01*
X722Y479D01*
X722Y475D01*
X720Y475D01*
X720Y473D01*
X718Y473D01*
X718Y471D01*
X716Y471D01*
X716Y469D01*
X714Y469D01*
X714Y467D01*
X712Y467D01*
X712Y465D01*
X710Y465D01*
X710Y441D01*
X712Y441D01*
X712Y439D01*
X714Y439D01*
X714Y435D01*
X716Y435D01*
X716Y431D01*
X718Y431D01*
X718Y423D01*
X720Y423D01*
X720Y405D01*
X718Y405D01*
X718Y397D01*
X716Y397D01*
X716Y393D01*
X714Y393D01*
X714Y391D01*
X1194Y391D01*
X1194Y393D01*
X1184Y393D01*
X1184Y395D01*
X1178Y395D01*
X1178Y397D01*
X1176Y397D01*
X1176Y399D01*
X1172Y399D01*
X1172Y401D01*
X1170Y401D01*
X1170Y403D01*
X1166Y403D01*
X1166Y405D01*
X1164Y405D01*
X1164Y407D01*
X1162Y407D01*
X1162Y411D01*
X1160Y411D01*
X1160Y413D01*
X1158Y413D01*
X1158Y417D01*
X1156Y417D01*
X1156Y421D01*
X1154Y421D01*
X1154Y427D01*
X1152Y427D01*
X1152Y451D01*
X1154Y451D01*
X1154Y457D01*
X1156Y457D01*
X1156Y461D01*
X1158Y461D01*
X1158Y465D01*
X1160Y465D01*
X1160Y467D01*
X1162Y467D01*
X1162Y469D01*
X1164Y469D01*
X1164Y471D01*
X1166Y471D01*
X1166Y473D01*
X1168Y473D01*
X1168Y475D01*
X1170Y475D01*
X1170Y477D01*
X1172Y477D01*
X1172Y479D01*
X1176Y479D01*
X1176Y481D01*
X724Y481D01*
G37*
D02*
G36*
X40Y399D02*
X40Y305D01*
X162Y305D01*
X162Y307D01*
X154Y307D01*
X154Y309D01*
X152Y309D01*
X152Y311D01*
X148Y311D01*
X148Y313D01*
X144Y313D01*
X144Y315D01*
X142Y315D01*
X142Y317D01*
X140Y317D01*
X140Y319D01*
X138Y319D01*
X138Y321D01*
X136Y321D01*
X136Y325D01*
X134Y325D01*
X134Y327D01*
X132Y327D01*
X132Y331D01*
X130Y331D01*
X130Y335D01*
X128Y335D01*
X128Y343D01*
X126Y343D01*
X126Y359D01*
X128Y359D01*
X128Y367D01*
X130Y367D01*
X130Y371D01*
X132Y371D01*
X132Y375D01*
X134Y375D01*
X134Y379D01*
X136Y379D01*
X136Y381D01*
X138Y381D01*
X138Y383D01*
X140Y383D01*
X140Y385D01*
X142Y385D01*
X142Y387D01*
X144Y387D01*
X144Y389D01*
X146Y389D01*
X146Y391D01*
X150Y391D01*
X150Y393D01*
X154Y393D01*
X154Y395D01*
X160Y395D01*
X160Y397D01*
X168Y397D01*
X168Y399D01*
X40Y399D01*
G37*
D02*
G36*
X178Y399D02*
X178Y397D01*
X186Y397D01*
X186Y395D01*
X192Y395D01*
X192Y393D01*
X196Y393D01*
X196Y391D01*
X200Y391D01*
X200Y389D01*
X202Y389D01*
X202Y387D01*
X204Y387D01*
X204Y385D01*
X206Y385D01*
X206Y383D01*
X208Y383D01*
X208Y381D01*
X210Y381D01*
X210Y379D01*
X212Y379D01*
X212Y375D01*
X214Y375D01*
X214Y373D01*
X216Y373D01*
X216Y367D01*
X218Y367D01*
X218Y361D01*
X220Y361D01*
X220Y341D01*
X218Y341D01*
X218Y335D01*
X216Y335D01*
X216Y331D01*
X214Y331D01*
X214Y327D01*
X212Y327D01*
X212Y323D01*
X210Y323D01*
X210Y321D01*
X208Y321D01*
X208Y319D01*
X206Y319D01*
X206Y317D01*
X204Y317D01*
X204Y315D01*
X202Y315D01*
X202Y313D01*
X198Y313D01*
X198Y311D01*
X196Y311D01*
X196Y309D01*
X192Y309D01*
X192Y307D01*
X184Y307D01*
X184Y305D01*
X362Y305D01*
X362Y307D01*
X354Y307D01*
X354Y309D01*
X352Y309D01*
X352Y311D01*
X348Y311D01*
X348Y313D01*
X344Y313D01*
X344Y315D01*
X342Y315D01*
X342Y317D01*
X340Y317D01*
X340Y319D01*
X338Y319D01*
X338Y321D01*
X336Y321D01*
X336Y325D01*
X334Y325D01*
X334Y327D01*
X332Y327D01*
X332Y331D01*
X330Y331D01*
X330Y335D01*
X328Y335D01*
X328Y343D01*
X326Y343D01*
X326Y359D01*
X328Y359D01*
X328Y367D01*
X330Y367D01*
X330Y371D01*
X332Y371D01*
X332Y375D01*
X334Y375D01*
X334Y379D01*
X336Y379D01*
X336Y381D01*
X338Y381D01*
X338Y383D01*
X340Y383D01*
X340Y385D01*
X342Y385D01*
X342Y387D01*
X344Y387D01*
X344Y389D01*
X346Y389D01*
X346Y391D01*
X350Y391D01*
X350Y393D01*
X354Y393D01*
X354Y395D01*
X360Y395D01*
X360Y397D01*
X368Y397D01*
X368Y399D01*
X178Y399D01*
G37*
D02*
G36*
X714Y391D02*
X714Y389D01*
X1372Y389D01*
X1372Y391D01*
X714Y391D01*
G37*
D02*
G36*
X714Y391D02*
X714Y389D01*
X1372Y389D01*
X1372Y391D01*
X714Y391D01*
G37*
D02*
G36*
X712Y389D02*
X712Y387D01*
X710Y387D01*
X710Y385D01*
X1110Y385D01*
X1110Y383D01*
X1116Y383D01*
X1116Y381D01*
X1120Y381D01*
X1120Y379D01*
X1124Y379D01*
X1124Y377D01*
X1126Y377D01*
X1126Y375D01*
X1128Y375D01*
X1128Y373D01*
X1132Y373D01*
X1132Y371D01*
X1134Y371D01*
X1134Y367D01*
X1136Y367D01*
X1136Y365D01*
X1138Y365D01*
X1138Y361D01*
X1140Y361D01*
X1140Y357D01*
X1142Y357D01*
X1142Y351D01*
X1144Y351D01*
X1144Y341D01*
X1146Y341D01*
X1146Y335D01*
X1144Y335D01*
X1144Y325D01*
X1142Y325D01*
X1142Y319D01*
X1140Y319D01*
X1140Y317D01*
X1138Y317D01*
X1138Y313D01*
X1136Y313D01*
X1136Y309D01*
X1134Y309D01*
X1134Y307D01*
X1132Y307D01*
X1132Y305D01*
X1130Y305D01*
X1130Y303D01*
X1128Y303D01*
X1128Y301D01*
X1124Y301D01*
X1124Y299D01*
X1122Y299D01*
X1122Y285D01*
X1210Y285D01*
X1210Y283D01*
X1216Y283D01*
X1216Y281D01*
X1220Y281D01*
X1220Y279D01*
X1224Y279D01*
X1224Y277D01*
X1226Y277D01*
X1226Y275D01*
X1228Y275D01*
X1228Y273D01*
X1232Y273D01*
X1232Y271D01*
X1234Y271D01*
X1234Y267D01*
X1282Y267D01*
X1282Y269D01*
X1284Y269D01*
X1284Y273D01*
X1286Y273D01*
X1286Y275D01*
X1288Y275D01*
X1288Y277D01*
X1292Y277D01*
X1292Y299D01*
X1290Y299D01*
X1290Y301D01*
X1288Y301D01*
X1288Y303D01*
X1286Y303D01*
X1286Y305D01*
X1284Y305D01*
X1284Y307D01*
X1282Y307D01*
X1282Y311D01*
X1280Y311D01*
X1280Y313D01*
X1278Y313D01*
X1278Y317D01*
X1276Y317D01*
X1276Y323D01*
X1274Y323D01*
X1274Y331D01*
X1272Y331D01*
X1272Y347D01*
X1274Y347D01*
X1274Y355D01*
X1276Y355D01*
X1276Y361D01*
X1278Y361D01*
X1278Y363D01*
X1280Y363D01*
X1280Y367D01*
X1282Y367D01*
X1282Y369D01*
X1284Y369D01*
X1284Y373D01*
X1286Y373D01*
X1286Y375D01*
X1288Y375D01*
X1288Y377D01*
X1292Y377D01*
X1292Y379D01*
X1294Y379D01*
X1294Y381D01*
X1296Y381D01*
X1296Y383D01*
X1300Y383D01*
X1300Y385D01*
X1304Y385D01*
X1304Y387D01*
X1310Y387D01*
X1310Y389D01*
X712Y389D01*
G37*
D02*
G36*
X1336Y389D02*
X1336Y387D01*
X1342Y387D01*
X1342Y385D01*
X1346Y385D01*
X1346Y383D01*
X1350Y383D01*
X1350Y381D01*
X1352Y381D01*
X1352Y379D01*
X1372Y379D01*
X1372Y389D01*
X1336Y389D01*
G37*
D02*
G36*
X710Y385D02*
X710Y383D01*
X708Y383D01*
X708Y381D01*
X706Y381D01*
X706Y379D01*
X704Y379D01*
X704Y377D01*
X700Y377D01*
X700Y375D01*
X698Y375D01*
X698Y373D01*
X694Y373D01*
X694Y371D01*
X690Y371D01*
X690Y369D01*
X684Y369D01*
X684Y367D01*
X862Y367D01*
X862Y369D01*
X864Y369D01*
X864Y371D01*
X866Y371D01*
X866Y373D01*
X868Y373D01*
X868Y375D01*
X870Y375D01*
X870Y377D01*
X872Y377D01*
X872Y379D01*
X876Y379D01*
X876Y381D01*
X880Y381D01*
X880Y383D01*
X886Y383D01*
X886Y385D01*
X710Y385D01*
G37*
D02*
G36*
X910Y385D02*
X910Y383D01*
X916Y383D01*
X916Y381D01*
X920Y381D01*
X920Y379D01*
X924Y379D01*
X924Y377D01*
X926Y377D01*
X926Y375D01*
X928Y375D01*
X928Y373D01*
X932Y373D01*
X932Y371D01*
X934Y371D01*
X934Y367D01*
X936Y367D01*
X936Y365D01*
X938Y365D01*
X938Y361D01*
X940Y361D01*
X940Y357D01*
X942Y357D01*
X942Y351D01*
X944Y351D01*
X944Y341D01*
X946Y341D01*
X946Y335D01*
X944Y335D01*
X944Y325D01*
X942Y325D01*
X942Y319D01*
X940Y319D01*
X940Y317D01*
X938Y317D01*
X938Y313D01*
X936Y313D01*
X936Y309D01*
X934Y309D01*
X934Y307D01*
X932Y307D01*
X932Y305D01*
X930Y305D01*
X930Y303D01*
X928Y303D01*
X928Y301D01*
X926Y301D01*
X926Y275D01*
X928Y275D01*
X928Y273D01*
X932Y273D01*
X932Y271D01*
X934Y271D01*
X934Y267D01*
X936Y267D01*
X936Y265D01*
X938Y265D01*
X938Y261D01*
X940Y261D01*
X940Y257D01*
X942Y257D01*
X942Y251D01*
X944Y251D01*
X944Y241D01*
X946Y241D01*
X946Y235D01*
X944Y235D01*
X944Y225D01*
X942Y225D01*
X942Y219D01*
X940Y219D01*
X940Y217D01*
X938Y217D01*
X938Y213D01*
X936Y213D01*
X936Y209D01*
X934Y209D01*
X934Y207D01*
X932Y207D01*
X932Y205D01*
X930Y205D01*
X930Y203D01*
X928Y203D01*
X928Y201D01*
X924Y201D01*
X924Y199D01*
X920Y199D01*
X920Y197D01*
X918Y197D01*
X918Y195D01*
X912Y195D01*
X912Y193D01*
X902Y193D01*
X902Y191D01*
X1094Y191D01*
X1094Y193D01*
X1084Y193D01*
X1084Y195D01*
X1078Y195D01*
X1078Y197D01*
X1076Y197D01*
X1076Y199D01*
X1072Y199D01*
X1072Y201D01*
X1070Y201D01*
X1070Y203D01*
X1066Y203D01*
X1066Y205D01*
X1064Y205D01*
X1064Y207D01*
X1062Y207D01*
X1062Y211D01*
X1060Y211D01*
X1060Y213D01*
X1058Y213D01*
X1058Y217D01*
X1056Y217D01*
X1056Y221D01*
X1054Y221D01*
X1054Y227D01*
X1052Y227D01*
X1052Y251D01*
X1054Y251D01*
X1054Y257D01*
X1056Y257D01*
X1056Y261D01*
X1058Y261D01*
X1058Y265D01*
X1060Y265D01*
X1060Y267D01*
X1062Y267D01*
X1062Y269D01*
X1064Y269D01*
X1064Y271D01*
X1066Y271D01*
X1066Y273D01*
X1068Y273D01*
X1068Y275D01*
X1070Y275D01*
X1070Y277D01*
X1072Y277D01*
X1072Y279D01*
X1076Y279D01*
X1076Y299D01*
X1072Y299D01*
X1072Y301D01*
X1070Y301D01*
X1070Y303D01*
X1066Y303D01*
X1066Y305D01*
X1064Y305D01*
X1064Y307D01*
X1062Y307D01*
X1062Y311D01*
X1060Y311D01*
X1060Y313D01*
X1058Y313D01*
X1058Y317D01*
X1056Y317D01*
X1056Y321D01*
X1054Y321D01*
X1054Y327D01*
X1052Y327D01*
X1052Y351D01*
X1054Y351D01*
X1054Y357D01*
X1056Y357D01*
X1056Y361D01*
X1058Y361D01*
X1058Y365D01*
X1060Y365D01*
X1060Y367D01*
X1062Y367D01*
X1062Y369D01*
X1064Y369D01*
X1064Y371D01*
X1066Y371D01*
X1066Y373D01*
X1068Y373D01*
X1068Y375D01*
X1070Y375D01*
X1070Y377D01*
X1072Y377D01*
X1072Y379D01*
X1076Y379D01*
X1076Y381D01*
X1080Y381D01*
X1080Y383D01*
X1086Y383D01*
X1086Y385D01*
X910Y385D01*
G37*
D02*
G36*
X418Y367D02*
X418Y365D01*
X860Y365D01*
X860Y367D01*
X418Y367D01*
G37*
D02*
G36*
X418Y367D02*
X418Y365D01*
X860Y365D01*
X860Y367D01*
X418Y367D01*
G37*
D02*
G36*
X418Y367D02*
X418Y365D01*
X860Y365D01*
X860Y367D01*
X418Y367D01*
G37*
D02*
G36*
X418Y365D02*
X418Y363D01*
X582Y363D01*
X582Y361D01*
X592Y361D01*
X592Y359D01*
X596Y359D01*
X596Y357D01*
X602Y357D01*
X602Y355D01*
X604Y355D01*
X604Y353D01*
X608Y353D01*
X608Y351D01*
X610Y351D01*
X610Y349D01*
X614Y349D01*
X614Y347D01*
X616Y347D01*
X616Y345D01*
X618Y345D01*
X618Y343D01*
X620Y343D01*
X620Y339D01*
X622Y339D01*
X622Y337D01*
X624Y337D01*
X624Y335D01*
X626Y335D01*
X626Y331D01*
X628Y331D01*
X628Y327D01*
X630Y327D01*
X630Y321D01*
X632Y321D01*
X632Y315D01*
X634Y315D01*
X634Y287D01*
X632Y287D01*
X632Y281D01*
X630Y281D01*
X630Y275D01*
X628Y275D01*
X628Y271D01*
X626Y271D01*
X626Y269D01*
X624Y269D01*
X624Y265D01*
X622Y265D01*
X622Y263D01*
X620Y263D01*
X620Y261D01*
X618Y261D01*
X618Y259D01*
X616Y259D01*
X616Y257D01*
X614Y257D01*
X614Y237D01*
X644Y237D01*
X644Y235D01*
X650Y235D01*
X650Y233D01*
X654Y233D01*
X654Y231D01*
X656Y231D01*
X656Y229D01*
X660Y229D01*
X660Y227D01*
X662Y227D01*
X662Y225D01*
X664Y225D01*
X664Y223D01*
X666Y223D01*
X666Y221D01*
X668Y221D01*
X668Y219D01*
X670Y219D01*
X670Y217D01*
X672Y217D01*
X672Y215D01*
X674Y215D01*
X674Y213D01*
X676Y213D01*
X676Y211D01*
X678Y211D01*
X678Y209D01*
X680Y209D01*
X680Y207D01*
X682Y207D01*
X682Y205D01*
X684Y205D01*
X684Y201D01*
X686Y201D01*
X686Y199D01*
X688Y199D01*
X688Y197D01*
X690Y197D01*
X690Y195D01*
X692Y195D01*
X692Y193D01*
X694Y193D01*
X694Y191D01*
X894Y191D01*
X894Y193D01*
X884Y193D01*
X884Y195D01*
X878Y195D01*
X878Y197D01*
X876Y197D01*
X876Y199D01*
X872Y199D01*
X872Y201D01*
X870Y201D01*
X870Y203D01*
X866Y203D01*
X866Y205D01*
X864Y205D01*
X864Y207D01*
X862Y207D01*
X862Y211D01*
X860Y211D01*
X860Y213D01*
X858Y213D01*
X858Y217D01*
X856Y217D01*
X856Y221D01*
X854Y221D01*
X854Y227D01*
X852Y227D01*
X852Y251D01*
X854Y251D01*
X854Y257D01*
X856Y257D01*
X856Y261D01*
X858Y261D01*
X858Y265D01*
X860Y265D01*
X860Y267D01*
X862Y267D01*
X862Y269D01*
X864Y269D01*
X864Y271D01*
X866Y271D01*
X866Y273D01*
X868Y273D01*
X868Y275D01*
X870Y275D01*
X870Y303D01*
X866Y303D01*
X866Y305D01*
X864Y305D01*
X864Y307D01*
X862Y307D01*
X862Y311D01*
X860Y311D01*
X860Y313D01*
X858Y313D01*
X858Y317D01*
X856Y317D01*
X856Y321D01*
X854Y321D01*
X854Y327D01*
X852Y327D01*
X852Y351D01*
X854Y351D01*
X854Y357D01*
X856Y357D01*
X856Y361D01*
X858Y361D01*
X858Y365D01*
X418Y365D01*
G37*
D02*
G36*
X422Y363D02*
X422Y361D01*
X424Y361D01*
X424Y359D01*
X428Y359D01*
X428Y357D01*
X430Y357D01*
X430Y355D01*
X434Y355D01*
X434Y353D01*
X436Y353D01*
X436Y351D01*
X440Y351D01*
X440Y349D01*
X442Y349D01*
X442Y347D01*
X446Y347D01*
X446Y345D01*
X448Y345D01*
X448Y343D01*
X452Y343D01*
X452Y341D01*
X454Y341D01*
X454Y339D01*
X458Y339D01*
X458Y337D01*
X524Y337D01*
X524Y339D01*
X526Y339D01*
X526Y341D01*
X528Y341D01*
X528Y343D01*
X530Y343D01*
X530Y345D01*
X532Y345D01*
X532Y347D01*
X534Y347D01*
X534Y349D01*
X536Y349D01*
X536Y351D01*
X538Y351D01*
X538Y353D01*
X542Y353D01*
X542Y355D01*
X546Y355D01*
X546Y357D01*
X550Y357D01*
X550Y359D01*
X556Y359D01*
X556Y361D01*
X564Y361D01*
X564Y363D01*
X422Y363D01*
G37*
D02*
G36*
X40Y305D02*
X40Y303D01*
X380Y303D01*
X380Y305D01*
X40Y305D01*
G37*
D02*
G36*
X40Y305D02*
X40Y303D01*
X380Y303D01*
X380Y305D01*
X40Y305D01*
G37*
D02*
G36*
X40Y303D02*
X40Y211D01*
X94Y211D01*
X94Y209D01*
X100Y209D01*
X100Y207D01*
X106Y207D01*
X106Y205D01*
X110Y205D01*
X110Y203D01*
X112Y203D01*
X112Y201D01*
X116Y201D01*
X116Y199D01*
X118Y199D01*
X118Y197D01*
X120Y197D01*
X120Y195D01*
X122Y195D01*
X122Y191D01*
X124Y191D01*
X124Y189D01*
X126Y189D01*
X126Y185D01*
X128Y185D01*
X128Y181D01*
X130Y181D01*
X130Y175D01*
X132Y175D01*
X132Y153D01*
X130Y153D01*
X130Y125D01*
X132Y125D01*
X132Y123D01*
X136Y123D01*
X136Y121D01*
X138Y121D01*
X138Y119D01*
X140Y119D01*
X140Y117D01*
X144Y117D01*
X144Y115D01*
X146Y115D01*
X146Y113D01*
X150Y113D01*
X150Y111D01*
X182Y111D01*
X182Y109D01*
X214Y109D01*
X214Y107D01*
X262Y107D01*
X262Y125D01*
X258Y125D01*
X258Y127D01*
X256Y127D01*
X256Y129D01*
X254Y129D01*
X254Y131D01*
X252Y131D01*
X252Y133D01*
X250Y133D01*
X250Y135D01*
X248Y135D01*
X248Y137D01*
X246Y137D01*
X246Y141D01*
X244Y141D01*
X244Y145D01*
X242Y145D01*
X242Y151D01*
X240Y151D01*
X240Y159D01*
X238Y159D01*
X238Y169D01*
X240Y169D01*
X240Y177D01*
X242Y177D01*
X242Y183D01*
X244Y183D01*
X244Y187D01*
X246Y187D01*
X246Y191D01*
X248Y191D01*
X248Y193D01*
X250Y193D01*
X250Y195D01*
X252Y195D01*
X252Y197D01*
X254Y197D01*
X254Y199D01*
X256Y199D01*
X256Y201D01*
X258Y201D01*
X258Y203D01*
X262Y203D01*
X262Y205D01*
X266Y205D01*
X266Y207D01*
X270Y207D01*
X270Y209D01*
X278Y209D01*
X278Y211D01*
X296Y211D01*
X296Y213D01*
X300Y213D01*
X300Y215D01*
X304Y215D01*
X304Y217D01*
X306Y217D01*
X306Y219D01*
X310Y219D01*
X310Y221D01*
X314Y221D01*
X314Y223D01*
X318Y223D01*
X318Y225D01*
X320Y225D01*
X320Y227D01*
X324Y227D01*
X324Y229D01*
X328Y229D01*
X328Y231D01*
X330Y231D01*
X330Y233D01*
X334Y233D01*
X334Y235D01*
X342Y235D01*
X342Y237D01*
X532Y237D01*
X532Y257D01*
X530Y257D01*
X530Y259D01*
X528Y259D01*
X528Y261D01*
X526Y261D01*
X526Y263D01*
X524Y263D01*
X524Y265D01*
X440Y265D01*
X440Y267D01*
X434Y267D01*
X434Y269D01*
X430Y269D01*
X430Y271D01*
X426Y271D01*
X426Y273D01*
X424Y273D01*
X424Y275D01*
X420Y275D01*
X420Y277D01*
X418Y277D01*
X418Y279D01*
X414Y279D01*
X414Y281D01*
X412Y281D01*
X412Y283D01*
X408Y283D01*
X408Y285D01*
X406Y285D01*
X406Y287D01*
X404Y287D01*
X404Y289D01*
X400Y289D01*
X400Y291D01*
X398Y291D01*
X398Y293D01*
X394Y293D01*
X394Y295D01*
X392Y295D01*
X392Y297D01*
X388Y297D01*
X388Y299D01*
X386Y299D01*
X386Y301D01*
X382Y301D01*
X382Y303D01*
X40Y303D01*
G37*
D02*
G36*
X1122Y285D02*
X1122Y279D01*
X1124Y279D01*
X1124Y277D01*
X1126Y277D01*
X1126Y275D01*
X1128Y275D01*
X1128Y273D01*
X1132Y273D01*
X1132Y271D01*
X1134Y271D01*
X1134Y267D01*
X1162Y267D01*
X1162Y269D01*
X1164Y269D01*
X1164Y271D01*
X1166Y271D01*
X1166Y273D01*
X1168Y273D01*
X1168Y275D01*
X1170Y275D01*
X1170Y277D01*
X1172Y277D01*
X1172Y279D01*
X1176Y279D01*
X1176Y281D01*
X1180Y281D01*
X1180Y283D01*
X1186Y283D01*
X1186Y285D01*
X1122Y285D01*
G37*
D02*
G36*
X40Y211D02*
X40Y203D01*
X62Y203D01*
X62Y205D01*
X66Y205D01*
X66Y207D01*
X70Y207D01*
X70Y209D01*
X78Y209D01*
X78Y211D01*
X40Y211D01*
G37*
D02*
G36*
X1136Y211D02*
X1136Y209D01*
X1134Y209D01*
X1134Y207D01*
X1132Y207D01*
X1132Y205D01*
X1130Y205D01*
X1130Y203D01*
X1128Y203D01*
X1128Y201D01*
X1124Y201D01*
X1124Y199D01*
X1120Y199D01*
X1120Y197D01*
X1118Y197D01*
X1118Y195D01*
X1112Y195D01*
X1112Y193D01*
X1102Y193D01*
X1102Y191D01*
X1194Y191D01*
X1194Y193D01*
X1184Y193D01*
X1184Y195D01*
X1178Y195D01*
X1178Y197D01*
X1176Y197D01*
X1176Y199D01*
X1172Y199D01*
X1172Y201D01*
X1170Y201D01*
X1170Y203D01*
X1166Y203D01*
X1166Y205D01*
X1164Y205D01*
X1164Y207D01*
X1162Y207D01*
X1162Y211D01*
X1136Y211D01*
G37*
D02*
G36*
X1236Y211D02*
X1236Y209D01*
X1234Y209D01*
X1234Y207D01*
X1232Y207D01*
X1232Y205D01*
X1230Y205D01*
X1230Y203D01*
X1228Y203D01*
X1228Y201D01*
X1224Y201D01*
X1224Y199D01*
X1222Y199D01*
X1222Y197D01*
X1218Y197D01*
X1218Y195D01*
X1212Y195D01*
X1212Y193D01*
X1202Y193D01*
X1202Y191D01*
X1302Y191D01*
X1302Y193D01*
X1300Y193D01*
X1300Y195D01*
X1296Y195D01*
X1296Y197D01*
X1292Y197D01*
X1292Y199D01*
X1290Y199D01*
X1290Y201D01*
X1288Y201D01*
X1288Y203D01*
X1286Y203D01*
X1286Y205D01*
X1284Y205D01*
X1284Y207D01*
X1282Y207D01*
X1282Y211D01*
X1236Y211D01*
G37*
D02*
G36*
X1350Y197D02*
X1350Y195D01*
X1348Y195D01*
X1348Y193D01*
X1344Y193D01*
X1344Y191D01*
X1338Y191D01*
X1338Y189D01*
X1326Y189D01*
X1326Y187D01*
X1372Y187D01*
X1372Y197D01*
X1350Y197D01*
G37*
D02*
G36*
X696Y191D02*
X696Y189D01*
X1308Y189D01*
X1308Y191D01*
X696Y191D01*
G37*
D02*
G36*
X696Y191D02*
X696Y189D01*
X1308Y189D01*
X1308Y191D01*
X696Y191D01*
G37*
D02*
G36*
X696Y191D02*
X696Y189D01*
X1308Y189D01*
X1308Y191D01*
X696Y191D01*
G37*
D02*
G36*
X696Y191D02*
X696Y189D01*
X1308Y189D01*
X1308Y191D01*
X696Y191D01*
G37*
D02*
G36*
X698Y189D02*
X698Y187D01*
X1320Y187D01*
X1320Y189D01*
X698Y189D01*
G37*
D02*
G36*
X700Y187D02*
X700Y185D01*
X1372Y185D01*
X1372Y187D01*
X700Y187D01*
G37*
D02*
G36*
X700Y187D02*
X700Y185D01*
X1372Y185D01*
X1372Y187D01*
X700Y187D01*
G37*
D02*
G36*
X702Y185D02*
X702Y183D01*
X704Y183D01*
X704Y179D01*
X706Y179D01*
X706Y175D01*
X708Y175D01*
X708Y151D01*
X710Y151D01*
X710Y149D01*
X714Y149D01*
X714Y147D01*
X716Y147D01*
X716Y145D01*
X718Y145D01*
X718Y143D01*
X720Y143D01*
X720Y139D01*
X722Y139D01*
X722Y137D01*
X724Y137D01*
X724Y135D01*
X726Y135D01*
X726Y131D01*
X728Y131D01*
X728Y127D01*
X730Y127D01*
X730Y121D01*
X732Y121D01*
X732Y115D01*
X734Y115D01*
X734Y87D01*
X732Y87D01*
X732Y81D01*
X730Y81D01*
X730Y75D01*
X728Y75D01*
X728Y71D01*
X726Y71D01*
X726Y69D01*
X724Y69D01*
X724Y65D01*
X722Y65D01*
X722Y63D01*
X720Y63D01*
X720Y61D01*
X718Y61D01*
X718Y41D01*
X1372Y41D01*
X1372Y185D01*
X702Y185D01*
G37*
D02*
G36*
X358Y165D02*
X358Y163D01*
X354Y163D01*
X354Y161D01*
X350Y161D01*
X350Y159D01*
X346Y159D01*
X346Y157D01*
X344Y157D01*
X344Y155D01*
X340Y155D01*
X340Y153D01*
X336Y153D01*
X336Y151D01*
X334Y151D01*
X334Y149D01*
X330Y149D01*
X330Y145D01*
X328Y145D01*
X328Y141D01*
X326Y141D01*
X326Y139D01*
X324Y139D01*
X324Y135D01*
X322Y135D01*
X322Y133D01*
X320Y133D01*
X320Y131D01*
X318Y131D01*
X318Y129D01*
X316Y129D01*
X316Y127D01*
X314Y127D01*
X314Y125D01*
X310Y125D01*
X310Y123D01*
X306Y123D01*
X306Y103D01*
X314Y103D01*
X314Y101D01*
X350Y101D01*
X350Y103D01*
X358Y103D01*
X358Y105D01*
X364Y105D01*
X364Y107D01*
X370Y107D01*
X370Y109D01*
X378Y109D01*
X378Y111D01*
X384Y111D01*
X384Y113D01*
X390Y113D01*
X390Y115D01*
X398Y115D01*
X398Y117D01*
X404Y117D01*
X404Y119D01*
X410Y119D01*
X410Y121D01*
X412Y121D01*
X412Y165D01*
X358Y165D01*
G37*
D02*
G36*
X534Y165D02*
X534Y41D01*
X628Y41D01*
X628Y61D01*
X626Y61D01*
X626Y63D01*
X624Y63D01*
X624Y65D01*
X622Y65D01*
X622Y69D01*
X620Y69D01*
X620Y73D01*
X618Y73D01*
X618Y77D01*
X616Y77D01*
X616Y81D01*
X614Y81D01*
X614Y89D01*
X612Y89D01*
X612Y113D01*
X614Y113D01*
X614Y121D01*
X616Y121D01*
X616Y127D01*
X618Y127D01*
X618Y131D01*
X620Y131D01*
X620Y133D01*
X622Y133D01*
X622Y137D01*
X624Y137D01*
X624Y139D01*
X626Y139D01*
X626Y161D01*
X624Y161D01*
X624Y163D01*
X622Y163D01*
X622Y165D01*
X534Y165D01*
G37*
D02*
G36*
X40Y89D02*
X40Y41D01*
X98Y41D01*
X98Y61D01*
X96Y61D01*
X96Y63D01*
X92Y63D01*
X92Y65D01*
X90Y65D01*
X90Y67D01*
X86Y67D01*
X86Y69D01*
X84Y69D01*
X84Y71D01*
X82Y71D01*
X82Y73D01*
X78Y73D01*
X78Y75D01*
X76Y75D01*
X76Y77D01*
X74Y77D01*
X74Y79D01*
X70Y79D01*
X70Y81D01*
X68Y81D01*
X68Y83D01*
X66Y83D01*
X66Y85D01*
X62Y85D01*
X62Y87D01*
X60Y87D01*
X60Y89D01*
X40Y89D01*
G37*
D02*
G54D22*
X1291Y972D02*
X1252Y934D01*
X1214Y972D01*
X1252Y1011D01*
X1291Y972D01*
D02*
G04 End of Copper0*
M02*