G04 MADE WITH FRITZING*
G04 WWW.FRITZING.ORG*
G04 DOUBLE SIDED*
G04 HOLES PLATED*
G04 CONTOUR ON CENTER OF CONTOUR VECTOR*
%ASAXBY*%
%FSLAX23Y23*%
%MOIN*%
%OFA0B0*%
%SFA1.0B1.0*%
%ADD10R,0.001000X0.001000*%
%LNSILK0*%
G90*
G70*
G54D10*
X1Y1177D02*
X1413Y1177D01*
X1Y1176D02*
X1413Y1176D01*
X1Y1175D02*
X1413Y1175D01*
X1Y1174D02*
X1413Y1174D01*
X1Y1173D02*
X1413Y1173D01*
X1Y1172D02*
X1413Y1172D01*
X1Y1171D02*
X1413Y1171D01*
X1Y1170D02*
X1413Y1170D01*
X1Y1169D02*
X8Y1169D01*
X1406Y1169D02*
X1413Y1169D01*
X1Y1168D02*
X8Y1168D01*
X1406Y1168D02*
X1413Y1168D01*
X1Y1167D02*
X8Y1167D01*
X1406Y1167D02*
X1413Y1167D01*
X1Y1166D02*
X8Y1166D01*
X1406Y1166D02*
X1413Y1166D01*
X1Y1165D02*
X8Y1165D01*
X1406Y1165D02*
X1413Y1165D01*
X1Y1164D02*
X8Y1164D01*
X1406Y1164D02*
X1413Y1164D01*
X1Y1163D02*
X8Y1163D01*
X1406Y1163D02*
X1413Y1163D01*
X1Y1162D02*
X8Y1162D01*
X1406Y1162D02*
X1413Y1162D01*
X1Y1161D02*
X8Y1161D01*
X1406Y1161D02*
X1413Y1161D01*
X1Y1160D02*
X8Y1160D01*
X1406Y1160D02*
X1413Y1160D01*
X1Y1159D02*
X8Y1159D01*
X1406Y1159D02*
X1413Y1159D01*
X1Y1158D02*
X8Y1158D01*
X1406Y1158D02*
X1413Y1158D01*
X1Y1157D02*
X8Y1157D01*
X1406Y1157D02*
X1413Y1157D01*
X1Y1156D02*
X8Y1156D01*
X1406Y1156D02*
X1413Y1156D01*
X1Y1155D02*
X8Y1155D01*
X1406Y1155D02*
X1413Y1155D01*
X1Y1154D02*
X8Y1154D01*
X1406Y1154D02*
X1413Y1154D01*
X1Y1153D02*
X8Y1153D01*
X1406Y1153D02*
X1413Y1153D01*
X1Y1152D02*
X8Y1152D01*
X1406Y1152D02*
X1413Y1152D01*
X1Y1151D02*
X8Y1151D01*
X1406Y1151D02*
X1413Y1151D01*
X1Y1150D02*
X8Y1150D01*
X1406Y1150D02*
X1413Y1150D01*
X1Y1149D02*
X8Y1149D01*
X1406Y1149D02*
X1413Y1149D01*
X1Y1148D02*
X8Y1148D01*
X1406Y1148D02*
X1413Y1148D01*
X1Y1147D02*
X8Y1147D01*
X1406Y1147D02*
X1413Y1147D01*
X1Y1146D02*
X8Y1146D01*
X1406Y1146D02*
X1413Y1146D01*
X1Y1145D02*
X8Y1145D01*
X1406Y1145D02*
X1413Y1145D01*
X1Y1144D02*
X8Y1144D01*
X1406Y1144D02*
X1413Y1144D01*
X1Y1143D02*
X8Y1143D01*
X1406Y1143D02*
X1413Y1143D01*
X1Y1142D02*
X8Y1142D01*
X1406Y1142D02*
X1413Y1142D01*
X1Y1141D02*
X8Y1141D01*
X1406Y1141D02*
X1413Y1141D01*
X1Y1140D02*
X8Y1140D01*
X1406Y1140D02*
X1413Y1140D01*
X1Y1139D02*
X8Y1139D01*
X1406Y1139D02*
X1413Y1139D01*
X1Y1138D02*
X8Y1138D01*
X1406Y1138D02*
X1413Y1138D01*
X1Y1137D02*
X8Y1137D01*
X1406Y1137D02*
X1413Y1137D01*
X1Y1136D02*
X8Y1136D01*
X1406Y1136D02*
X1413Y1136D01*
X1Y1135D02*
X8Y1135D01*
X1406Y1135D02*
X1413Y1135D01*
X1Y1134D02*
X8Y1134D01*
X1406Y1134D02*
X1413Y1134D01*
X1Y1133D02*
X8Y1133D01*
X1406Y1133D02*
X1413Y1133D01*
X1Y1132D02*
X8Y1132D01*
X1406Y1132D02*
X1413Y1132D01*
X1Y1131D02*
X8Y1131D01*
X1406Y1131D02*
X1413Y1131D01*
X1Y1130D02*
X8Y1130D01*
X1406Y1130D02*
X1413Y1130D01*
X1Y1129D02*
X8Y1129D01*
X1406Y1129D02*
X1413Y1129D01*
X1Y1128D02*
X8Y1128D01*
X1406Y1128D02*
X1413Y1128D01*
X1Y1127D02*
X8Y1127D01*
X1406Y1127D02*
X1413Y1127D01*
X1Y1126D02*
X8Y1126D01*
X1406Y1126D02*
X1413Y1126D01*
X1Y1125D02*
X8Y1125D01*
X1406Y1125D02*
X1413Y1125D01*
X1Y1124D02*
X8Y1124D01*
X1406Y1124D02*
X1413Y1124D01*
X1Y1123D02*
X8Y1123D01*
X1406Y1123D02*
X1413Y1123D01*
X1Y1122D02*
X8Y1122D01*
X1406Y1122D02*
X1413Y1122D01*
X1Y1121D02*
X8Y1121D01*
X1406Y1121D02*
X1413Y1121D01*
X1Y1120D02*
X8Y1120D01*
X1406Y1120D02*
X1413Y1120D01*
X1Y1119D02*
X8Y1119D01*
X1406Y1119D02*
X1413Y1119D01*
X1Y1118D02*
X8Y1118D01*
X1406Y1118D02*
X1413Y1118D01*
X1Y1117D02*
X8Y1117D01*
X1406Y1117D02*
X1413Y1117D01*
X1Y1116D02*
X8Y1116D01*
X1406Y1116D02*
X1413Y1116D01*
X1Y1115D02*
X8Y1115D01*
X1406Y1115D02*
X1413Y1115D01*
X1Y1114D02*
X8Y1114D01*
X1406Y1114D02*
X1413Y1114D01*
X1Y1113D02*
X8Y1113D01*
X1406Y1113D02*
X1413Y1113D01*
X1Y1112D02*
X8Y1112D01*
X1406Y1112D02*
X1413Y1112D01*
X1Y1111D02*
X8Y1111D01*
X1406Y1111D02*
X1413Y1111D01*
X1Y1110D02*
X8Y1110D01*
X1406Y1110D02*
X1413Y1110D01*
X1Y1109D02*
X8Y1109D01*
X1406Y1109D02*
X1413Y1109D01*
X1Y1108D02*
X8Y1108D01*
X1406Y1108D02*
X1413Y1108D01*
X1Y1107D02*
X8Y1107D01*
X1406Y1107D02*
X1413Y1107D01*
X1Y1106D02*
X8Y1106D01*
X1406Y1106D02*
X1413Y1106D01*
X1Y1105D02*
X8Y1105D01*
X1406Y1105D02*
X1413Y1105D01*
X1Y1104D02*
X8Y1104D01*
X1406Y1104D02*
X1413Y1104D01*
X1Y1103D02*
X8Y1103D01*
X1406Y1103D02*
X1413Y1103D01*
X1Y1102D02*
X8Y1102D01*
X1406Y1102D02*
X1413Y1102D01*
X1Y1101D02*
X8Y1101D01*
X1406Y1101D02*
X1413Y1101D01*
X1Y1100D02*
X8Y1100D01*
X1406Y1100D02*
X1413Y1100D01*
X1Y1099D02*
X8Y1099D01*
X1406Y1099D02*
X1413Y1099D01*
X1Y1098D02*
X8Y1098D01*
X1406Y1098D02*
X1413Y1098D01*
X1Y1097D02*
X8Y1097D01*
X1406Y1097D02*
X1413Y1097D01*
X1Y1096D02*
X8Y1096D01*
X1406Y1096D02*
X1413Y1096D01*
X1Y1095D02*
X8Y1095D01*
X1406Y1095D02*
X1413Y1095D01*
X1Y1094D02*
X8Y1094D01*
X1406Y1094D02*
X1413Y1094D01*
X1Y1093D02*
X8Y1093D01*
X1406Y1093D02*
X1413Y1093D01*
X1Y1092D02*
X8Y1092D01*
X1406Y1092D02*
X1413Y1092D01*
X1Y1091D02*
X8Y1091D01*
X1406Y1091D02*
X1413Y1091D01*
X1Y1090D02*
X8Y1090D01*
X1406Y1090D02*
X1413Y1090D01*
X1Y1089D02*
X8Y1089D01*
X1406Y1089D02*
X1413Y1089D01*
X1Y1088D02*
X8Y1088D01*
X1406Y1088D02*
X1413Y1088D01*
X1Y1087D02*
X8Y1087D01*
X1406Y1087D02*
X1413Y1087D01*
X1Y1086D02*
X8Y1086D01*
X1406Y1086D02*
X1413Y1086D01*
X1Y1085D02*
X8Y1085D01*
X1406Y1085D02*
X1413Y1085D01*
X1Y1084D02*
X8Y1084D01*
X1406Y1084D02*
X1413Y1084D01*
X1Y1083D02*
X8Y1083D01*
X1406Y1083D02*
X1413Y1083D01*
X1Y1082D02*
X8Y1082D01*
X1406Y1082D02*
X1413Y1082D01*
X1Y1081D02*
X8Y1081D01*
X1406Y1081D02*
X1413Y1081D01*
X1Y1080D02*
X8Y1080D01*
X1406Y1080D02*
X1413Y1080D01*
X1Y1079D02*
X8Y1079D01*
X1406Y1079D02*
X1413Y1079D01*
X1Y1078D02*
X8Y1078D01*
X1406Y1078D02*
X1413Y1078D01*
X1Y1077D02*
X8Y1077D01*
X1406Y1077D02*
X1413Y1077D01*
X1Y1076D02*
X8Y1076D01*
X1406Y1076D02*
X1413Y1076D01*
X1Y1075D02*
X8Y1075D01*
X1406Y1075D02*
X1413Y1075D01*
X1Y1074D02*
X8Y1074D01*
X1406Y1074D02*
X1413Y1074D01*
X1Y1073D02*
X8Y1073D01*
X1406Y1073D02*
X1413Y1073D01*
X1Y1072D02*
X8Y1072D01*
X1406Y1072D02*
X1413Y1072D01*
X1Y1071D02*
X8Y1071D01*
X1406Y1071D02*
X1413Y1071D01*
X1Y1070D02*
X8Y1070D01*
X1406Y1070D02*
X1413Y1070D01*
X1Y1069D02*
X8Y1069D01*
X1406Y1069D02*
X1413Y1069D01*
X1Y1068D02*
X8Y1068D01*
X1406Y1068D02*
X1413Y1068D01*
X1Y1067D02*
X8Y1067D01*
X1406Y1067D02*
X1413Y1067D01*
X1Y1066D02*
X8Y1066D01*
X1406Y1066D02*
X1413Y1066D01*
X1Y1065D02*
X8Y1065D01*
X1406Y1065D02*
X1413Y1065D01*
X1Y1064D02*
X8Y1064D01*
X1406Y1064D02*
X1413Y1064D01*
X1Y1063D02*
X8Y1063D01*
X1406Y1063D02*
X1413Y1063D01*
X1Y1062D02*
X8Y1062D01*
X1406Y1062D02*
X1413Y1062D01*
X1Y1061D02*
X8Y1061D01*
X1406Y1061D02*
X1413Y1061D01*
X1Y1060D02*
X8Y1060D01*
X1406Y1060D02*
X1413Y1060D01*
X1Y1059D02*
X8Y1059D01*
X1406Y1059D02*
X1413Y1059D01*
X1Y1058D02*
X8Y1058D01*
X1406Y1058D02*
X1413Y1058D01*
X1Y1057D02*
X8Y1057D01*
X1406Y1057D02*
X1413Y1057D01*
X1Y1056D02*
X8Y1056D01*
X1406Y1056D02*
X1413Y1056D01*
X1Y1055D02*
X8Y1055D01*
X1406Y1055D02*
X1413Y1055D01*
X1Y1054D02*
X8Y1054D01*
X1406Y1054D02*
X1413Y1054D01*
X1Y1053D02*
X8Y1053D01*
X1406Y1053D02*
X1413Y1053D01*
X1Y1052D02*
X8Y1052D01*
X1406Y1052D02*
X1413Y1052D01*
X1Y1051D02*
X8Y1051D01*
X1406Y1051D02*
X1413Y1051D01*
X1Y1050D02*
X8Y1050D01*
X1406Y1050D02*
X1413Y1050D01*
X1Y1049D02*
X8Y1049D01*
X1406Y1049D02*
X1413Y1049D01*
X1Y1048D02*
X8Y1048D01*
X1406Y1048D02*
X1413Y1048D01*
X1Y1047D02*
X8Y1047D01*
X1406Y1047D02*
X1413Y1047D01*
X1Y1046D02*
X8Y1046D01*
X1406Y1046D02*
X1413Y1046D01*
X1Y1045D02*
X8Y1045D01*
X1406Y1045D02*
X1413Y1045D01*
X1Y1044D02*
X8Y1044D01*
X1406Y1044D02*
X1413Y1044D01*
X1Y1043D02*
X8Y1043D01*
X1406Y1043D02*
X1413Y1043D01*
X1Y1042D02*
X8Y1042D01*
X1406Y1042D02*
X1413Y1042D01*
X1Y1041D02*
X8Y1041D01*
X1406Y1041D02*
X1413Y1041D01*
X1Y1040D02*
X8Y1040D01*
X1406Y1040D02*
X1413Y1040D01*
X1Y1039D02*
X8Y1039D01*
X1406Y1039D02*
X1413Y1039D01*
X1Y1038D02*
X8Y1038D01*
X1406Y1038D02*
X1413Y1038D01*
X1Y1037D02*
X8Y1037D01*
X1406Y1037D02*
X1413Y1037D01*
X1Y1036D02*
X8Y1036D01*
X1406Y1036D02*
X1413Y1036D01*
X1Y1035D02*
X8Y1035D01*
X1406Y1035D02*
X1413Y1035D01*
X1Y1034D02*
X8Y1034D01*
X1406Y1034D02*
X1413Y1034D01*
X1Y1033D02*
X8Y1033D01*
X1406Y1033D02*
X1413Y1033D01*
X1Y1032D02*
X8Y1032D01*
X1406Y1032D02*
X1413Y1032D01*
X1Y1031D02*
X8Y1031D01*
X1406Y1031D02*
X1413Y1031D01*
X1Y1030D02*
X8Y1030D01*
X1406Y1030D02*
X1413Y1030D01*
X1Y1029D02*
X8Y1029D01*
X1406Y1029D02*
X1413Y1029D01*
X1Y1028D02*
X8Y1028D01*
X1406Y1028D02*
X1413Y1028D01*
X1Y1027D02*
X8Y1027D01*
X1406Y1027D02*
X1413Y1027D01*
X1Y1026D02*
X8Y1026D01*
X1406Y1026D02*
X1413Y1026D01*
X1Y1025D02*
X8Y1025D01*
X1406Y1025D02*
X1413Y1025D01*
X1Y1024D02*
X8Y1024D01*
X1406Y1024D02*
X1413Y1024D01*
X1Y1023D02*
X8Y1023D01*
X1406Y1023D02*
X1413Y1023D01*
X1Y1022D02*
X8Y1022D01*
X1406Y1022D02*
X1413Y1022D01*
X1Y1021D02*
X8Y1021D01*
X1406Y1021D02*
X1413Y1021D01*
X1Y1020D02*
X8Y1020D01*
X1406Y1020D02*
X1413Y1020D01*
X1Y1019D02*
X8Y1019D01*
X1406Y1019D02*
X1413Y1019D01*
X1Y1018D02*
X8Y1018D01*
X1406Y1018D02*
X1413Y1018D01*
X1Y1017D02*
X8Y1017D01*
X1000Y1017D02*
X1003Y1017D01*
X1406Y1017D02*
X1413Y1017D01*
X1Y1016D02*
X8Y1016D01*
X999Y1016D02*
X1004Y1016D01*
X1406Y1016D02*
X1413Y1016D01*
X1Y1015D02*
X8Y1015D01*
X998Y1015D02*
X1004Y1015D01*
X1406Y1015D02*
X1413Y1015D01*
X1Y1014D02*
X8Y1014D01*
X983Y1014D02*
X1026Y1014D01*
X1406Y1014D02*
X1413Y1014D01*
X1Y1013D02*
X8Y1013D01*
X981Y1013D02*
X1027Y1013D01*
X1406Y1013D02*
X1413Y1013D01*
X1Y1012D02*
X8Y1012D01*
X981Y1012D02*
X1028Y1012D01*
X1406Y1012D02*
X1413Y1012D01*
X1Y1011D02*
X8Y1011D01*
X981Y1011D02*
X1028Y1011D01*
X1406Y1011D02*
X1413Y1011D01*
X1Y1010D02*
X8Y1010D01*
X981Y1010D02*
X1028Y1010D01*
X1406Y1010D02*
X1413Y1010D01*
X1Y1009D02*
X8Y1009D01*
X981Y1009D02*
X1027Y1009D01*
X1406Y1009D02*
X1413Y1009D01*
X1Y1008D02*
X8Y1008D01*
X982Y1008D02*
X1026Y1008D01*
X1406Y1008D02*
X1413Y1008D01*
X1Y1007D02*
X8Y1007D01*
X998Y1007D02*
X1004Y1007D01*
X1406Y1007D02*
X1413Y1007D01*
X1Y1006D02*
X8Y1006D01*
X998Y1006D02*
X1004Y1006D01*
X1406Y1006D02*
X1413Y1006D01*
X1Y1005D02*
X8Y1005D01*
X998Y1005D02*
X1004Y1005D01*
X1406Y1005D02*
X1413Y1005D01*
X1Y1004D02*
X8Y1004D01*
X998Y1004D02*
X1004Y1004D01*
X1406Y1004D02*
X1413Y1004D01*
X1Y1003D02*
X8Y1003D01*
X998Y1003D02*
X1004Y1003D01*
X1406Y1003D02*
X1413Y1003D01*
X1Y1002D02*
X8Y1002D01*
X998Y1002D02*
X1004Y1002D01*
X1406Y1002D02*
X1413Y1002D01*
X1Y1001D02*
X8Y1001D01*
X998Y1001D02*
X1004Y1001D01*
X1406Y1001D02*
X1413Y1001D01*
X1Y1000D02*
X8Y1000D01*
X998Y1000D02*
X1004Y1000D01*
X1406Y1000D02*
X1413Y1000D01*
X1Y999D02*
X8Y999D01*
X998Y999D02*
X1004Y999D01*
X1406Y999D02*
X1413Y999D01*
X1Y998D02*
X8Y998D01*
X998Y998D02*
X1004Y998D01*
X1406Y998D02*
X1413Y998D01*
X1Y997D02*
X8Y997D01*
X998Y997D02*
X1004Y997D01*
X1406Y997D02*
X1413Y997D01*
X1Y996D02*
X8Y996D01*
X998Y996D02*
X1004Y996D01*
X1406Y996D02*
X1413Y996D01*
X1Y995D02*
X8Y995D01*
X998Y995D02*
X1004Y995D01*
X1406Y995D02*
X1413Y995D01*
X1Y994D02*
X8Y994D01*
X998Y994D02*
X1004Y994D01*
X1406Y994D02*
X1413Y994D01*
X1Y993D02*
X8Y993D01*
X998Y993D02*
X1032Y993D01*
X1406Y993D02*
X1413Y993D01*
X1Y992D02*
X8Y992D01*
X998Y992D02*
X1033Y992D01*
X1406Y992D02*
X1413Y992D01*
X1Y991D02*
X8Y991D01*
X998Y991D02*
X1034Y991D01*
X1406Y991D02*
X1413Y991D01*
X1Y990D02*
X8Y990D01*
X998Y990D02*
X1034Y990D01*
X1406Y990D02*
X1413Y990D01*
X1Y989D02*
X8Y989D01*
X998Y989D02*
X1033Y989D01*
X1406Y989D02*
X1413Y989D01*
X1Y988D02*
X8Y988D01*
X998Y988D02*
X1033Y988D01*
X1406Y988D02*
X1413Y988D01*
X1Y987D02*
X8Y987D01*
X998Y987D02*
X1031Y987D01*
X1406Y987D02*
X1413Y987D01*
X1Y986D02*
X8Y986D01*
X1406Y986D02*
X1413Y986D01*
X1Y985D02*
X8Y985D01*
X1406Y985D02*
X1413Y985D01*
X1Y984D02*
X8Y984D01*
X1406Y984D02*
X1413Y984D01*
X1Y983D02*
X8Y983D01*
X1406Y983D02*
X1413Y983D01*
X1Y982D02*
X8Y982D01*
X1406Y982D02*
X1413Y982D01*
X1Y981D02*
X8Y981D01*
X1406Y981D02*
X1413Y981D01*
X1Y980D02*
X8Y980D01*
X1406Y980D02*
X1413Y980D01*
X1Y979D02*
X8Y979D01*
X1406Y979D02*
X1413Y979D01*
X1Y978D02*
X8Y978D01*
X1406Y978D02*
X1413Y978D01*
X1Y977D02*
X8Y977D01*
X1406Y977D02*
X1413Y977D01*
X1Y976D02*
X8Y976D01*
X1406Y976D02*
X1413Y976D01*
X1Y975D02*
X8Y975D01*
X1406Y975D02*
X1413Y975D01*
X1Y974D02*
X8Y974D01*
X1406Y974D02*
X1413Y974D01*
X1Y973D02*
X8Y973D01*
X1406Y973D02*
X1413Y973D01*
X1Y972D02*
X8Y972D01*
X1406Y972D02*
X1413Y972D01*
X1Y971D02*
X8Y971D01*
X1406Y971D02*
X1413Y971D01*
X1Y970D02*
X8Y970D01*
X1406Y970D02*
X1413Y970D01*
X1Y969D02*
X8Y969D01*
X982Y969D02*
X985Y969D01*
X1017Y969D02*
X1027Y969D01*
X1406Y969D02*
X1413Y969D01*
X1Y968D02*
X8Y968D01*
X981Y968D02*
X987Y968D01*
X1015Y968D02*
X1029Y968D01*
X1406Y968D02*
X1413Y968D01*
X1Y967D02*
X8Y967D01*
X981Y967D02*
X989Y967D01*
X1014Y967D02*
X1030Y967D01*
X1406Y967D02*
X1413Y967D01*
X1Y966D02*
X8Y966D01*
X981Y966D02*
X990Y966D01*
X1013Y966D02*
X1031Y966D01*
X1406Y966D02*
X1413Y966D01*
X1Y965D02*
X8Y965D01*
X981Y965D02*
X992Y965D01*
X1012Y965D02*
X1032Y965D01*
X1406Y965D02*
X1413Y965D01*
X1Y964D02*
X8Y964D01*
X981Y964D02*
X994Y964D01*
X1011Y964D02*
X1032Y964D01*
X1406Y964D02*
X1413Y964D01*
X1Y963D02*
X8Y963D01*
X982Y963D02*
X995Y963D01*
X1011Y963D02*
X1032Y963D01*
X1406Y963D02*
X1413Y963D01*
X1Y962D02*
X8Y962D01*
X984Y962D02*
X997Y962D01*
X1010Y962D02*
X1018Y962D01*
X1026Y962D02*
X1031Y962D01*
X1406Y962D02*
X1413Y962D01*
X1Y961D02*
X8Y961D01*
X986Y961D02*
X999Y961D01*
X1010Y961D02*
X1017Y961D01*
X1027Y961D02*
X1031Y961D01*
X1406Y961D02*
X1413Y961D01*
X1Y960D02*
X8Y960D01*
X988Y960D02*
X1001Y960D01*
X1010Y960D02*
X1016Y960D01*
X1028Y960D02*
X1031Y960D01*
X1406Y960D02*
X1413Y960D01*
X1Y959D02*
X8Y959D01*
X989Y959D02*
X1002Y959D01*
X1010Y959D02*
X1016Y959D01*
X1028Y959D02*
X1031Y959D01*
X1406Y959D02*
X1413Y959D01*
X1Y958D02*
X8Y958D01*
X991Y958D02*
X1004Y958D01*
X1010Y958D02*
X1016Y958D01*
X1028Y958D02*
X1031Y958D01*
X1406Y958D02*
X1413Y958D01*
X1Y957D02*
X8Y957D01*
X993Y957D02*
X1006Y957D01*
X1010Y957D02*
X1016Y957D01*
X1028Y957D02*
X1030Y957D01*
X1406Y957D02*
X1413Y957D01*
X1Y956D02*
X8Y956D01*
X994Y956D02*
X1007Y956D01*
X1010Y956D02*
X1016Y956D01*
X1028Y956D02*
X1030Y956D01*
X1406Y956D02*
X1413Y956D01*
X1Y955D02*
X8Y955D01*
X996Y955D02*
X1016Y955D01*
X1028Y955D02*
X1030Y955D01*
X1406Y955D02*
X1413Y955D01*
X1Y954D02*
X8Y954D01*
X998Y954D02*
X1016Y954D01*
X1028Y954D02*
X1030Y954D01*
X1406Y954D02*
X1413Y954D01*
X1Y953D02*
X8Y953D01*
X1000Y953D02*
X1016Y953D01*
X1028Y953D02*
X1030Y953D01*
X1406Y953D02*
X1413Y953D01*
X1Y952D02*
X8Y952D01*
X1001Y952D02*
X1016Y952D01*
X1028Y952D02*
X1030Y952D01*
X1406Y952D02*
X1413Y952D01*
X1Y951D02*
X8Y951D01*
X1003Y951D02*
X1016Y951D01*
X1028Y951D02*
X1030Y951D01*
X1406Y951D02*
X1413Y951D01*
X1Y950D02*
X8Y950D01*
X1005Y950D02*
X1016Y950D01*
X1028Y950D02*
X1030Y950D01*
X1406Y950D02*
X1413Y950D01*
X1Y949D02*
X8Y949D01*
X1006Y949D02*
X1016Y949D01*
X1028Y949D02*
X1030Y949D01*
X1406Y949D02*
X1413Y949D01*
X1Y948D02*
X8Y948D01*
X1008Y948D02*
X1016Y948D01*
X1028Y948D02*
X1030Y948D01*
X1406Y948D02*
X1413Y948D01*
X1Y947D02*
X8Y947D01*
X1010Y947D02*
X1016Y947D01*
X1028Y947D02*
X1030Y947D01*
X1406Y947D02*
X1413Y947D01*
X1Y946D02*
X8Y946D01*
X1010Y946D02*
X1016Y946D01*
X1028Y946D02*
X1031Y946D01*
X1406Y946D02*
X1413Y946D01*
X1Y945D02*
X8Y945D01*
X1010Y945D02*
X1016Y945D01*
X1028Y945D02*
X1031Y945D01*
X1406Y945D02*
X1413Y945D01*
X1Y944D02*
X8Y944D01*
X1010Y944D02*
X1016Y944D01*
X1028Y944D02*
X1031Y944D01*
X1406Y944D02*
X1413Y944D01*
X1Y943D02*
X8Y943D01*
X1010Y943D02*
X1016Y943D01*
X1028Y943D02*
X1031Y943D01*
X1406Y943D02*
X1413Y943D01*
X1Y942D02*
X8Y942D01*
X984Y942D02*
X1031Y942D01*
X1406Y942D02*
X1413Y942D01*
X1Y941D02*
X8Y941D01*
X982Y941D02*
X1032Y941D01*
X1406Y941D02*
X1413Y941D01*
X1Y940D02*
X8Y940D01*
X981Y940D02*
X1032Y940D01*
X1406Y940D02*
X1413Y940D01*
X1Y939D02*
X8Y939D01*
X981Y939D02*
X1032Y939D01*
X1406Y939D02*
X1413Y939D01*
X1Y938D02*
X8Y938D01*
X981Y938D02*
X1032Y938D01*
X1406Y938D02*
X1413Y938D01*
X1Y937D02*
X8Y937D01*
X981Y937D02*
X1033Y937D01*
X1406Y937D02*
X1413Y937D01*
X1Y936D02*
X8Y936D01*
X982Y936D02*
X1033Y936D01*
X1406Y936D02*
X1413Y936D01*
X1Y935D02*
X8Y935D01*
X1406Y935D02*
X1413Y935D01*
X1Y934D02*
X8Y934D01*
X1406Y934D02*
X1413Y934D01*
X1Y933D02*
X8Y933D01*
X1406Y933D02*
X1413Y933D01*
X1Y932D02*
X8Y932D01*
X1406Y932D02*
X1413Y932D01*
X1Y931D02*
X8Y931D01*
X1406Y931D02*
X1413Y931D01*
X1Y930D02*
X8Y930D01*
X1406Y930D02*
X1413Y930D01*
X1Y929D02*
X8Y929D01*
X1406Y929D02*
X1413Y929D01*
X1Y928D02*
X8Y928D01*
X1406Y928D02*
X1413Y928D01*
X1Y927D02*
X8Y927D01*
X1406Y927D02*
X1413Y927D01*
X1Y926D02*
X8Y926D01*
X1406Y926D02*
X1413Y926D01*
X1Y925D02*
X8Y925D01*
X1406Y925D02*
X1413Y925D01*
X1Y924D02*
X8Y924D01*
X1406Y924D02*
X1413Y924D01*
X1Y923D02*
X8Y923D01*
X1406Y923D02*
X1413Y923D01*
X1Y922D02*
X8Y922D01*
X1406Y922D02*
X1413Y922D01*
X1Y921D02*
X8Y921D01*
X1406Y921D02*
X1413Y921D01*
X1Y920D02*
X8Y920D01*
X1406Y920D02*
X1413Y920D01*
X1Y919D02*
X8Y919D01*
X1406Y919D02*
X1413Y919D01*
X1Y918D02*
X8Y918D01*
X1406Y918D02*
X1413Y918D01*
X1Y917D02*
X8Y917D01*
X1406Y917D02*
X1413Y917D01*
X1Y916D02*
X8Y916D01*
X1406Y916D02*
X1413Y916D01*
X1Y915D02*
X8Y915D01*
X1406Y915D02*
X1413Y915D01*
X1Y914D02*
X8Y914D01*
X1406Y914D02*
X1413Y914D01*
X1Y913D02*
X8Y913D01*
X1406Y913D02*
X1413Y913D01*
X1Y912D02*
X8Y912D01*
X1406Y912D02*
X1413Y912D01*
X1Y911D02*
X8Y911D01*
X1406Y911D02*
X1413Y911D01*
X1Y910D02*
X8Y910D01*
X1406Y910D02*
X1413Y910D01*
X1Y909D02*
X8Y909D01*
X1406Y909D02*
X1413Y909D01*
X1Y908D02*
X8Y908D01*
X1406Y908D02*
X1413Y908D01*
X1Y907D02*
X8Y907D01*
X1406Y907D02*
X1413Y907D01*
X1Y906D02*
X8Y906D01*
X1406Y906D02*
X1413Y906D01*
X1Y905D02*
X8Y905D01*
X1406Y905D02*
X1413Y905D01*
X1Y904D02*
X8Y904D01*
X1406Y904D02*
X1413Y904D01*
X1Y903D02*
X8Y903D01*
X1406Y903D02*
X1413Y903D01*
X1Y902D02*
X8Y902D01*
X1406Y902D02*
X1413Y902D01*
X1Y901D02*
X8Y901D01*
X1406Y901D02*
X1413Y901D01*
X1Y900D02*
X8Y900D01*
X1406Y900D02*
X1413Y900D01*
X1Y899D02*
X8Y899D01*
X1406Y899D02*
X1413Y899D01*
X1Y898D02*
X8Y898D01*
X1406Y898D02*
X1413Y898D01*
X1Y897D02*
X8Y897D01*
X1406Y897D02*
X1413Y897D01*
X1Y896D02*
X8Y896D01*
X1406Y896D02*
X1413Y896D01*
X1Y895D02*
X8Y895D01*
X1406Y895D02*
X1413Y895D01*
X1Y894D02*
X8Y894D01*
X1406Y894D02*
X1413Y894D01*
X1Y893D02*
X8Y893D01*
X1406Y893D02*
X1413Y893D01*
X1Y892D02*
X8Y892D01*
X1406Y892D02*
X1413Y892D01*
X1Y891D02*
X8Y891D01*
X1406Y891D02*
X1413Y891D01*
X1Y890D02*
X8Y890D01*
X1406Y890D02*
X1413Y890D01*
X1Y889D02*
X8Y889D01*
X1406Y889D02*
X1413Y889D01*
X1Y888D02*
X8Y888D01*
X1406Y888D02*
X1413Y888D01*
X1Y887D02*
X8Y887D01*
X1406Y887D02*
X1413Y887D01*
X1Y886D02*
X8Y886D01*
X1406Y886D02*
X1413Y886D01*
X1Y885D02*
X8Y885D01*
X1406Y885D02*
X1413Y885D01*
X1Y884D02*
X8Y884D01*
X1406Y884D02*
X1413Y884D01*
X1Y883D02*
X8Y883D01*
X1406Y883D02*
X1413Y883D01*
X1Y882D02*
X8Y882D01*
X1406Y882D02*
X1413Y882D01*
X1Y881D02*
X8Y881D01*
X1406Y881D02*
X1413Y881D01*
X1Y880D02*
X8Y880D01*
X1406Y880D02*
X1413Y880D01*
X1Y879D02*
X8Y879D01*
X1406Y879D02*
X1413Y879D01*
X1Y878D02*
X8Y878D01*
X1406Y878D02*
X1413Y878D01*
X1Y877D02*
X8Y877D01*
X1406Y877D02*
X1413Y877D01*
X1Y876D02*
X8Y876D01*
X1406Y876D02*
X1413Y876D01*
X1Y875D02*
X8Y875D01*
X1406Y875D02*
X1413Y875D01*
X1Y874D02*
X8Y874D01*
X1406Y874D02*
X1413Y874D01*
X1Y873D02*
X8Y873D01*
X1406Y873D02*
X1413Y873D01*
X1Y872D02*
X8Y872D01*
X810Y872D02*
X1009Y872D01*
X1406Y872D02*
X1413Y872D01*
X1Y871D02*
X8Y871D01*
X809Y871D02*
X1009Y871D01*
X1406Y871D02*
X1413Y871D01*
X1Y870D02*
X8Y870D01*
X809Y870D02*
X1009Y870D01*
X1406Y870D02*
X1413Y870D01*
X1Y869D02*
X8Y869D01*
X809Y869D02*
X811Y869D01*
X885Y869D02*
X933Y869D01*
X1007Y869D02*
X1009Y869D01*
X1406Y869D02*
X1413Y869D01*
X1Y868D02*
X8Y868D01*
X809Y868D02*
X811Y868D01*
X1007Y868D02*
X1009Y868D01*
X1406Y868D02*
X1413Y868D01*
X1Y867D02*
X8Y867D01*
X809Y867D02*
X811Y867D01*
X1007Y867D02*
X1009Y867D01*
X1406Y867D02*
X1413Y867D01*
X1Y866D02*
X8Y866D01*
X809Y866D02*
X811Y866D01*
X1007Y866D02*
X1009Y866D01*
X1406Y866D02*
X1413Y866D01*
X1Y865D02*
X8Y865D01*
X809Y865D02*
X811Y865D01*
X1007Y865D02*
X1009Y865D01*
X1406Y865D02*
X1413Y865D01*
X1Y864D02*
X8Y864D01*
X809Y864D02*
X811Y864D01*
X1007Y864D02*
X1009Y864D01*
X1406Y864D02*
X1413Y864D01*
X1Y863D02*
X8Y863D01*
X809Y863D02*
X811Y863D01*
X1007Y863D02*
X1009Y863D01*
X1406Y863D02*
X1413Y863D01*
X1Y862D02*
X8Y862D01*
X809Y862D02*
X811Y862D01*
X1007Y862D02*
X1009Y862D01*
X1406Y862D02*
X1413Y862D01*
X1Y861D02*
X8Y861D01*
X809Y861D02*
X811Y861D01*
X1007Y861D02*
X1009Y861D01*
X1406Y861D02*
X1413Y861D01*
X1Y860D02*
X8Y860D01*
X809Y860D02*
X811Y860D01*
X1007Y860D02*
X1009Y860D01*
X1406Y860D02*
X1413Y860D01*
X1Y859D02*
X8Y859D01*
X809Y859D02*
X811Y859D01*
X1007Y859D02*
X1009Y859D01*
X1406Y859D02*
X1413Y859D01*
X1Y858D02*
X8Y858D01*
X809Y858D02*
X811Y858D01*
X1007Y858D02*
X1009Y858D01*
X1406Y858D02*
X1413Y858D01*
X1Y857D02*
X8Y857D01*
X809Y857D02*
X811Y857D01*
X1007Y857D02*
X1009Y857D01*
X1406Y857D02*
X1413Y857D01*
X1Y856D02*
X8Y856D01*
X809Y856D02*
X811Y856D01*
X1007Y856D02*
X1009Y856D01*
X1406Y856D02*
X1413Y856D01*
X1Y855D02*
X8Y855D01*
X809Y855D02*
X811Y855D01*
X1007Y855D02*
X1009Y855D01*
X1406Y855D02*
X1413Y855D01*
X1Y854D02*
X8Y854D01*
X809Y854D02*
X811Y854D01*
X1007Y854D02*
X1009Y854D01*
X1406Y854D02*
X1413Y854D01*
X1Y853D02*
X8Y853D01*
X809Y853D02*
X811Y853D01*
X1007Y853D02*
X1009Y853D01*
X1406Y853D02*
X1413Y853D01*
X1Y852D02*
X8Y852D01*
X809Y852D02*
X811Y852D01*
X1007Y852D02*
X1009Y852D01*
X1406Y852D02*
X1413Y852D01*
X1Y851D02*
X8Y851D01*
X809Y851D02*
X811Y851D01*
X1007Y851D02*
X1009Y851D01*
X1406Y851D02*
X1413Y851D01*
X1Y850D02*
X8Y850D01*
X809Y850D02*
X811Y850D01*
X1007Y850D02*
X1009Y850D01*
X1406Y850D02*
X1413Y850D01*
X1Y849D02*
X8Y849D01*
X809Y849D02*
X811Y849D01*
X1007Y849D02*
X1009Y849D01*
X1406Y849D02*
X1413Y849D01*
X1Y848D02*
X8Y848D01*
X809Y848D02*
X811Y848D01*
X1007Y848D02*
X1009Y848D01*
X1406Y848D02*
X1413Y848D01*
X1Y847D02*
X8Y847D01*
X809Y847D02*
X811Y847D01*
X1007Y847D02*
X1009Y847D01*
X1406Y847D02*
X1413Y847D01*
X1Y846D02*
X8Y846D01*
X809Y846D02*
X811Y846D01*
X1007Y846D02*
X1009Y846D01*
X1406Y846D02*
X1413Y846D01*
X1Y845D02*
X8Y845D01*
X809Y845D02*
X811Y845D01*
X1007Y845D02*
X1009Y845D01*
X1406Y845D02*
X1413Y845D01*
X1Y844D02*
X8Y844D01*
X809Y844D02*
X811Y844D01*
X1007Y844D02*
X1009Y844D01*
X1406Y844D02*
X1413Y844D01*
X1Y843D02*
X8Y843D01*
X809Y843D02*
X811Y843D01*
X1007Y843D02*
X1009Y843D01*
X1406Y843D02*
X1413Y843D01*
X1Y842D02*
X8Y842D01*
X809Y842D02*
X811Y842D01*
X1007Y842D02*
X1009Y842D01*
X1406Y842D02*
X1413Y842D01*
X1Y841D02*
X8Y841D01*
X809Y841D02*
X811Y841D01*
X1007Y841D02*
X1009Y841D01*
X1406Y841D02*
X1413Y841D01*
X1Y840D02*
X8Y840D01*
X809Y840D02*
X811Y840D01*
X1007Y840D02*
X1009Y840D01*
X1406Y840D02*
X1413Y840D01*
X1Y839D02*
X8Y839D01*
X809Y839D02*
X811Y839D01*
X1007Y839D02*
X1009Y839D01*
X1406Y839D02*
X1413Y839D01*
X1Y838D02*
X8Y838D01*
X809Y838D02*
X811Y838D01*
X1007Y838D02*
X1009Y838D01*
X1406Y838D02*
X1413Y838D01*
X1Y837D02*
X8Y837D01*
X809Y837D02*
X811Y837D01*
X1007Y837D02*
X1009Y837D01*
X1406Y837D02*
X1413Y837D01*
X1Y836D02*
X8Y836D01*
X809Y836D02*
X811Y836D01*
X1007Y836D02*
X1009Y836D01*
X1406Y836D02*
X1413Y836D01*
X1Y835D02*
X8Y835D01*
X809Y835D02*
X811Y835D01*
X1007Y835D02*
X1009Y835D01*
X1406Y835D02*
X1413Y835D01*
X1Y834D02*
X8Y834D01*
X809Y834D02*
X811Y834D01*
X1007Y834D02*
X1009Y834D01*
X1406Y834D02*
X1413Y834D01*
X1Y833D02*
X8Y833D01*
X809Y833D02*
X811Y833D01*
X1007Y833D02*
X1009Y833D01*
X1406Y833D02*
X1413Y833D01*
X1Y832D02*
X8Y832D01*
X809Y832D02*
X811Y832D01*
X1007Y832D02*
X1009Y832D01*
X1406Y832D02*
X1413Y832D01*
X1Y831D02*
X8Y831D01*
X809Y831D02*
X811Y831D01*
X1007Y831D02*
X1009Y831D01*
X1406Y831D02*
X1413Y831D01*
X1Y830D02*
X8Y830D01*
X809Y830D02*
X811Y830D01*
X1007Y830D02*
X1009Y830D01*
X1406Y830D02*
X1413Y830D01*
X1Y829D02*
X8Y829D01*
X809Y829D02*
X811Y829D01*
X1007Y829D02*
X1009Y829D01*
X1406Y829D02*
X1413Y829D01*
X1Y828D02*
X8Y828D01*
X809Y828D02*
X811Y828D01*
X1007Y828D02*
X1009Y828D01*
X1406Y828D02*
X1413Y828D01*
X1Y827D02*
X8Y827D01*
X809Y827D02*
X811Y827D01*
X1007Y827D02*
X1009Y827D01*
X1406Y827D02*
X1413Y827D01*
X1Y826D02*
X8Y826D01*
X809Y826D02*
X811Y826D01*
X1007Y826D02*
X1009Y826D01*
X1406Y826D02*
X1413Y826D01*
X1Y825D02*
X8Y825D01*
X809Y825D02*
X811Y825D01*
X1007Y825D02*
X1009Y825D01*
X1406Y825D02*
X1413Y825D01*
X1Y824D02*
X8Y824D01*
X809Y824D02*
X811Y824D01*
X1007Y824D02*
X1009Y824D01*
X1406Y824D02*
X1413Y824D01*
X1Y823D02*
X8Y823D01*
X809Y823D02*
X811Y823D01*
X1007Y823D02*
X1009Y823D01*
X1406Y823D02*
X1413Y823D01*
X1Y822D02*
X8Y822D01*
X809Y822D02*
X811Y822D01*
X1007Y822D02*
X1009Y822D01*
X1406Y822D02*
X1413Y822D01*
X1Y821D02*
X8Y821D01*
X809Y821D02*
X811Y821D01*
X1007Y821D02*
X1009Y821D01*
X1406Y821D02*
X1413Y821D01*
X1Y820D02*
X8Y820D01*
X809Y820D02*
X811Y820D01*
X1007Y820D02*
X1009Y820D01*
X1406Y820D02*
X1413Y820D01*
X1Y819D02*
X8Y819D01*
X809Y819D02*
X811Y819D01*
X1007Y819D02*
X1009Y819D01*
X1406Y819D02*
X1413Y819D01*
X1Y818D02*
X8Y818D01*
X809Y818D02*
X811Y818D01*
X1007Y818D02*
X1009Y818D01*
X1406Y818D02*
X1413Y818D01*
X1Y817D02*
X8Y817D01*
X809Y817D02*
X811Y817D01*
X1007Y817D02*
X1009Y817D01*
X1406Y817D02*
X1413Y817D01*
X1Y816D02*
X8Y816D01*
X809Y816D02*
X811Y816D01*
X916Y816D02*
X933Y816D01*
X1007Y816D02*
X1009Y816D01*
X1406Y816D02*
X1413Y816D01*
X1Y815D02*
X8Y815D01*
X809Y815D02*
X811Y815D01*
X912Y815D02*
X933Y815D01*
X1007Y815D02*
X1009Y815D01*
X1406Y815D02*
X1413Y815D01*
X1Y814D02*
X8Y814D01*
X809Y814D02*
X811Y814D01*
X910Y814D02*
X933Y814D01*
X1007Y814D02*
X1009Y814D01*
X1406Y814D02*
X1413Y814D01*
X1Y813D02*
X8Y813D01*
X809Y813D02*
X811Y813D01*
X909Y813D02*
X933Y813D01*
X1007Y813D02*
X1009Y813D01*
X1406Y813D02*
X1413Y813D01*
X1Y812D02*
X8Y812D01*
X809Y812D02*
X811Y812D01*
X908Y812D02*
X933Y812D01*
X1007Y812D02*
X1009Y812D01*
X1406Y812D02*
X1413Y812D01*
X1Y811D02*
X8Y811D01*
X809Y811D02*
X811Y811D01*
X907Y811D02*
X933Y811D01*
X1007Y811D02*
X1009Y811D01*
X1406Y811D02*
X1413Y811D01*
X1Y810D02*
X8Y810D01*
X809Y810D02*
X811Y810D01*
X907Y810D02*
X933Y810D01*
X1007Y810D02*
X1009Y810D01*
X1406Y810D02*
X1413Y810D01*
X1Y809D02*
X8Y809D01*
X809Y809D02*
X811Y809D01*
X906Y809D02*
X933Y809D01*
X1007Y809D02*
X1009Y809D01*
X1406Y809D02*
X1413Y809D01*
X1Y808D02*
X8Y808D01*
X809Y808D02*
X811Y808D01*
X906Y808D02*
X913Y808D01*
X933Y808D02*
X933Y808D01*
X1007Y808D02*
X1009Y808D01*
X1406Y808D02*
X1413Y808D01*
X1Y807D02*
X8Y807D01*
X809Y807D02*
X811Y807D01*
X906Y807D02*
X912Y807D01*
X933Y807D02*
X933Y807D01*
X1007Y807D02*
X1009Y807D01*
X1406Y807D02*
X1413Y807D01*
X1Y806D02*
X8Y806D01*
X809Y806D02*
X811Y806D01*
X906Y806D02*
X912Y806D01*
X933Y806D02*
X933Y806D01*
X1007Y806D02*
X1009Y806D01*
X1406Y806D02*
X1413Y806D01*
X1Y805D02*
X8Y805D01*
X809Y805D02*
X811Y805D01*
X906Y805D02*
X912Y805D01*
X933Y805D02*
X933Y805D01*
X1007Y805D02*
X1009Y805D01*
X1406Y805D02*
X1413Y805D01*
X1Y804D02*
X8Y804D01*
X809Y804D02*
X811Y804D01*
X906Y804D02*
X912Y804D01*
X933Y804D02*
X933Y804D01*
X1007Y804D02*
X1009Y804D01*
X1406Y804D02*
X1413Y804D01*
X1Y803D02*
X8Y803D01*
X809Y803D02*
X811Y803D01*
X906Y803D02*
X912Y803D01*
X933Y803D02*
X933Y803D01*
X1007Y803D02*
X1009Y803D01*
X1406Y803D02*
X1413Y803D01*
X1Y802D02*
X8Y802D01*
X809Y802D02*
X811Y802D01*
X906Y802D02*
X912Y802D01*
X933Y802D02*
X933Y802D01*
X1007Y802D02*
X1009Y802D01*
X1406Y802D02*
X1413Y802D01*
X1Y801D02*
X8Y801D01*
X809Y801D02*
X811Y801D01*
X906Y801D02*
X912Y801D01*
X933Y801D02*
X933Y801D01*
X1007Y801D02*
X1009Y801D01*
X1406Y801D02*
X1413Y801D01*
X1Y800D02*
X8Y800D01*
X809Y800D02*
X811Y800D01*
X906Y800D02*
X912Y800D01*
X933Y800D02*
X933Y800D01*
X1007Y800D02*
X1009Y800D01*
X1406Y800D02*
X1413Y800D01*
X1Y799D02*
X8Y799D01*
X809Y799D02*
X811Y799D01*
X906Y799D02*
X913Y799D01*
X933Y799D02*
X933Y799D01*
X1007Y799D02*
X1009Y799D01*
X1406Y799D02*
X1413Y799D01*
X1Y798D02*
X8Y798D01*
X809Y798D02*
X811Y798D01*
X907Y798D02*
X933Y798D01*
X1007Y798D02*
X1009Y798D01*
X1406Y798D02*
X1413Y798D01*
X1Y797D02*
X8Y797D01*
X809Y797D02*
X811Y797D01*
X907Y797D02*
X933Y797D01*
X1007Y797D02*
X1009Y797D01*
X1406Y797D02*
X1413Y797D01*
X1Y796D02*
X8Y796D01*
X809Y796D02*
X811Y796D01*
X908Y796D02*
X933Y796D01*
X1007Y796D02*
X1009Y796D01*
X1406Y796D02*
X1413Y796D01*
X1Y795D02*
X8Y795D01*
X809Y795D02*
X811Y795D01*
X909Y795D02*
X933Y795D01*
X1007Y795D02*
X1009Y795D01*
X1406Y795D02*
X1413Y795D01*
X1Y794D02*
X8Y794D01*
X809Y794D02*
X811Y794D01*
X910Y794D02*
X933Y794D01*
X1007Y794D02*
X1009Y794D01*
X1406Y794D02*
X1413Y794D01*
X1Y793D02*
X8Y793D01*
X809Y793D02*
X811Y793D01*
X911Y793D02*
X933Y793D01*
X1007Y793D02*
X1009Y793D01*
X1406Y793D02*
X1413Y793D01*
X1Y792D02*
X8Y792D01*
X809Y792D02*
X811Y792D01*
X913Y792D02*
X933Y792D01*
X1007Y792D02*
X1009Y792D01*
X1406Y792D02*
X1413Y792D01*
X1Y791D02*
X8Y791D01*
X809Y791D02*
X811Y791D01*
X920Y791D02*
X928Y791D01*
X933Y791D02*
X933Y791D01*
X1007Y791D02*
X1093Y791D01*
X1406Y791D02*
X1413Y791D01*
X1Y790D02*
X8Y790D01*
X809Y790D02*
X811Y790D01*
X920Y790D02*
X927Y790D01*
X933Y790D02*
X933Y790D01*
X1007Y790D02*
X1093Y790D01*
X1406Y790D02*
X1413Y790D01*
X1Y789D02*
X8Y789D01*
X809Y789D02*
X811Y789D01*
X919Y789D02*
X926Y789D01*
X933Y789D02*
X933Y789D01*
X1007Y789D02*
X1093Y789D01*
X1406Y789D02*
X1413Y789D01*
X1Y788D02*
X8Y788D01*
X809Y788D02*
X811Y788D01*
X918Y788D02*
X926Y788D01*
X933Y788D02*
X933Y788D01*
X1091Y788D02*
X1093Y788D01*
X1406Y788D02*
X1413Y788D01*
X1Y787D02*
X8Y787D01*
X809Y787D02*
X811Y787D01*
X918Y787D02*
X925Y787D01*
X933Y787D02*
X933Y787D01*
X1091Y787D02*
X1093Y787D01*
X1406Y787D02*
X1413Y787D01*
X1Y786D02*
X8Y786D01*
X809Y786D02*
X811Y786D01*
X917Y786D02*
X925Y786D01*
X933Y786D02*
X933Y786D01*
X1091Y786D02*
X1093Y786D01*
X1406Y786D02*
X1413Y786D01*
X1Y785D02*
X8Y785D01*
X809Y785D02*
X811Y785D01*
X885Y785D02*
X933Y785D01*
X1091Y785D02*
X1093Y785D01*
X1406Y785D02*
X1413Y785D01*
X1Y784D02*
X8Y784D01*
X809Y784D02*
X1005Y784D01*
X1091Y784D02*
X1093Y784D01*
X1406Y784D02*
X1413Y784D01*
X1Y783D02*
X8Y783D01*
X809Y783D02*
X1005Y783D01*
X1091Y783D02*
X1093Y783D01*
X1406Y783D02*
X1413Y783D01*
X1Y782D02*
X8Y782D01*
X809Y782D02*
X1005Y782D01*
X1091Y782D02*
X1093Y782D01*
X1406Y782D02*
X1413Y782D01*
X1Y781D02*
X8Y781D01*
X856Y781D02*
X862Y781D01*
X914Y781D02*
X922Y781D01*
X933Y781D02*
X939Y781D01*
X1003Y781D02*
X1005Y781D01*
X1091Y781D02*
X1093Y781D01*
X1406Y781D02*
X1413Y781D01*
X1Y780D02*
X8Y780D01*
X856Y780D02*
X862Y780D01*
X914Y780D02*
X921Y780D01*
X933Y780D02*
X939Y780D01*
X1003Y780D02*
X1005Y780D01*
X1091Y780D02*
X1093Y780D01*
X1406Y780D02*
X1413Y780D01*
X1Y779D02*
X8Y779D01*
X856Y779D02*
X862Y779D01*
X913Y779D02*
X920Y779D01*
X933Y779D02*
X939Y779D01*
X1003Y779D02*
X1005Y779D01*
X1091Y779D02*
X1093Y779D01*
X1406Y779D02*
X1413Y779D01*
X1Y778D02*
X8Y778D01*
X856Y778D02*
X862Y778D01*
X913Y778D02*
X920Y778D01*
X933Y778D02*
X939Y778D01*
X1003Y778D02*
X1005Y778D01*
X1091Y778D02*
X1093Y778D01*
X1406Y778D02*
X1413Y778D01*
X1Y777D02*
X8Y777D01*
X856Y777D02*
X862Y777D01*
X912Y777D02*
X919Y777D01*
X933Y777D02*
X939Y777D01*
X1003Y777D02*
X1005Y777D01*
X1091Y777D02*
X1093Y777D01*
X1406Y777D02*
X1413Y777D01*
X1Y776D02*
X8Y776D01*
X856Y776D02*
X862Y776D01*
X911Y776D02*
X919Y776D01*
X933Y776D02*
X939Y776D01*
X1003Y776D02*
X1005Y776D01*
X1091Y776D02*
X1093Y776D01*
X1406Y776D02*
X1413Y776D01*
X1Y775D02*
X8Y775D01*
X856Y775D02*
X862Y775D01*
X911Y775D02*
X918Y775D01*
X933Y775D02*
X939Y775D01*
X1003Y775D02*
X1005Y775D01*
X1091Y775D02*
X1093Y775D01*
X1406Y775D02*
X1413Y775D01*
X1Y774D02*
X8Y774D01*
X856Y774D02*
X862Y774D01*
X910Y774D02*
X918Y774D01*
X933Y774D02*
X939Y774D01*
X1003Y774D02*
X1005Y774D01*
X1091Y774D02*
X1093Y774D01*
X1406Y774D02*
X1413Y774D01*
X1Y773D02*
X8Y773D01*
X856Y773D02*
X862Y773D01*
X910Y773D02*
X917Y773D01*
X933Y773D02*
X939Y773D01*
X1003Y773D02*
X1005Y773D01*
X1091Y773D02*
X1093Y773D01*
X1406Y773D02*
X1413Y773D01*
X1Y772D02*
X8Y772D01*
X856Y772D02*
X862Y772D01*
X909Y772D02*
X916Y772D01*
X933Y772D02*
X939Y772D01*
X1003Y772D02*
X1005Y772D01*
X1091Y772D02*
X1093Y772D01*
X1406Y772D02*
X1413Y772D01*
X1Y771D02*
X8Y771D01*
X856Y771D02*
X862Y771D01*
X884Y771D02*
X888Y771D01*
X909Y771D02*
X916Y771D01*
X933Y771D02*
X939Y771D01*
X1003Y771D02*
X1005Y771D01*
X1091Y771D02*
X1093Y771D01*
X1406Y771D02*
X1413Y771D01*
X1Y770D02*
X8Y770D01*
X856Y770D02*
X862Y770D01*
X882Y770D02*
X889Y770D01*
X908Y770D02*
X915Y770D01*
X933Y770D02*
X939Y770D01*
X1003Y770D02*
X1005Y770D01*
X1091Y770D02*
X1093Y770D01*
X1406Y770D02*
X1413Y770D01*
X1Y769D02*
X8Y769D01*
X856Y769D02*
X862Y769D01*
X880Y769D02*
X889Y769D01*
X907Y769D02*
X915Y769D01*
X933Y769D02*
X939Y769D01*
X1003Y769D02*
X1005Y769D01*
X1091Y769D02*
X1093Y769D01*
X1406Y769D02*
X1413Y769D01*
X1Y768D02*
X8Y768D01*
X856Y768D02*
X889Y768D01*
X907Y768D02*
X914Y768D01*
X933Y768D02*
X939Y768D01*
X1003Y768D02*
X1005Y768D01*
X1091Y768D02*
X1093Y768D01*
X1406Y768D02*
X1413Y768D01*
X1Y767D02*
X8Y767D01*
X856Y767D02*
X889Y767D01*
X906Y767D02*
X913Y767D01*
X933Y767D02*
X939Y767D01*
X1003Y767D02*
X1005Y767D01*
X1091Y767D02*
X1093Y767D01*
X1406Y767D02*
X1413Y767D01*
X1Y766D02*
X8Y766D01*
X857Y766D02*
X889Y766D01*
X906Y766D02*
X913Y766D01*
X933Y766D02*
X939Y766D01*
X1003Y766D02*
X1005Y766D01*
X1091Y766D02*
X1093Y766D01*
X1406Y766D02*
X1413Y766D01*
X1Y765D02*
X8Y765D01*
X857Y765D02*
X887Y765D01*
X906Y765D02*
X912Y765D01*
X933Y765D02*
X939Y765D01*
X1003Y765D02*
X1005Y765D01*
X1091Y765D02*
X1093Y765D01*
X1406Y765D02*
X1413Y765D01*
X1Y764D02*
X8Y764D01*
X858Y764D02*
X885Y764D01*
X906Y764D02*
X912Y764D01*
X934Y764D02*
X939Y764D01*
X1003Y764D02*
X1005Y764D01*
X1091Y764D02*
X1093Y764D01*
X1406Y764D02*
X1413Y764D01*
X1Y763D02*
X8Y763D01*
X859Y763D02*
X883Y763D01*
X907Y763D02*
X911Y763D01*
X934Y763D02*
X938Y763D01*
X1003Y763D02*
X1005Y763D01*
X1091Y763D02*
X1093Y763D01*
X1406Y763D02*
X1413Y763D01*
X1Y762D02*
X8Y762D01*
X862Y762D02*
X879Y762D01*
X909Y762D02*
X909Y762D01*
X936Y762D02*
X937Y762D01*
X1003Y762D02*
X1005Y762D01*
X1091Y762D02*
X1093Y762D01*
X1406Y762D02*
X1413Y762D01*
X1Y761D02*
X8Y761D01*
X1003Y761D02*
X1005Y761D01*
X1091Y761D02*
X1093Y761D01*
X1406Y761D02*
X1413Y761D01*
X1Y760D02*
X8Y760D01*
X1003Y760D02*
X1005Y760D01*
X1091Y760D02*
X1093Y760D01*
X1406Y760D02*
X1413Y760D01*
X1Y759D02*
X8Y759D01*
X1003Y759D02*
X1005Y759D01*
X1091Y759D02*
X1093Y759D01*
X1406Y759D02*
X1413Y759D01*
X1Y758D02*
X8Y758D01*
X1003Y758D02*
X1005Y758D01*
X1091Y758D02*
X1093Y758D01*
X1406Y758D02*
X1413Y758D01*
X1Y757D02*
X8Y757D01*
X1003Y757D02*
X1005Y757D01*
X1091Y757D02*
X1093Y757D01*
X1406Y757D02*
X1413Y757D01*
X1Y756D02*
X8Y756D01*
X1003Y756D02*
X1005Y756D01*
X1091Y756D02*
X1093Y756D01*
X1406Y756D02*
X1413Y756D01*
X1Y755D02*
X8Y755D01*
X1003Y755D02*
X1005Y755D01*
X1091Y755D02*
X1093Y755D01*
X1406Y755D02*
X1413Y755D01*
X1Y754D02*
X8Y754D01*
X1003Y754D02*
X1005Y754D01*
X1091Y754D02*
X1093Y754D01*
X1406Y754D02*
X1413Y754D01*
X1Y753D02*
X8Y753D01*
X1003Y753D02*
X1005Y753D01*
X1091Y753D02*
X1093Y753D01*
X1406Y753D02*
X1413Y753D01*
X1Y752D02*
X8Y752D01*
X1003Y752D02*
X1005Y752D01*
X1091Y752D02*
X1093Y752D01*
X1406Y752D02*
X1413Y752D01*
X1Y751D02*
X8Y751D01*
X1003Y751D02*
X1005Y751D01*
X1091Y751D02*
X1093Y751D01*
X1406Y751D02*
X1413Y751D01*
X1Y750D02*
X8Y750D01*
X1003Y750D02*
X1005Y750D01*
X1091Y750D02*
X1093Y750D01*
X1406Y750D02*
X1413Y750D01*
X1Y749D02*
X8Y749D01*
X1003Y749D02*
X1005Y749D01*
X1091Y749D02*
X1093Y749D01*
X1406Y749D02*
X1413Y749D01*
X1Y748D02*
X8Y748D01*
X1003Y748D02*
X1005Y748D01*
X1091Y748D02*
X1093Y748D01*
X1406Y748D02*
X1413Y748D01*
X1Y747D02*
X8Y747D01*
X1003Y747D02*
X1005Y747D01*
X1091Y747D02*
X1093Y747D01*
X1406Y747D02*
X1413Y747D01*
X1Y746D02*
X8Y746D01*
X1003Y746D02*
X1005Y746D01*
X1091Y746D02*
X1093Y746D01*
X1406Y746D02*
X1413Y746D01*
X1Y745D02*
X8Y745D01*
X1003Y745D02*
X1005Y745D01*
X1091Y745D02*
X1093Y745D01*
X1406Y745D02*
X1413Y745D01*
X1Y744D02*
X8Y744D01*
X1003Y744D02*
X1005Y744D01*
X1091Y744D02*
X1093Y744D01*
X1406Y744D02*
X1413Y744D01*
X1Y743D02*
X8Y743D01*
X1003Y743D02*
X1005Y743D01*
X1091Y743D02*
X1093Y743D01*
X1406Y743D02*
X1413Y743D01*
X1Y742D02*
X8Y742D01*
X1003Y742D02*
X1005Y742D01*
X1091Y742D02*
X1093Y742D01*
X1406Y742D02*
X1413Y742D01*
X1Y741D02*
X8Y741D01*
X1003Y741D02*
X1005Y741D01*
X1091Y741D02*
X1093Y741D01*
X1406Y741D02*
X1413Y741D01*
X1Y740D02*
X8Y740D01*
X1003Y740D02*
X1005Y740D01*
X1091Y740D02*
X1093Y740D01*
X1406Y740D02*
X1413Y740D01*
X1Y739D02*
X8Y739D01*
X1003Y739D02*
X1005Y739D01*
X1091Y739D02*
X1093Y739D01*
X1406Y739D02*
X1413Y739D01*
X1Y738D02*
X8Y738D01*
X1003Y738D02*
X1005Y738D01*
X1091Y738D02*
X1093Y738D01*
X1406Y738D02*
X1413Y738D01*
X1Y737D02*
X8Y737D01*
X1003Y737D02*
X1005Y737D01*
X1091Y737D02*
X1093Y737D01*
X1406Y737D02*
X1413Y737D01*
X1Y736D02*
X8Y736D01*
X1003Y736D02*
X1005Y736D01*
X1091Y736D02*
X1093Y736D01*
X1406Y736D02*
X1413Y736D01*
X1Y735D02*
X8Y735D01*
X1003Y735D02*
X1005Y735D01*
X1091Y735D02*
X1093Y735D01*
X1406Y735D02*
X1413Y735D01*
X1Y734D02*
X8Y734D01*
X1003Y734D02*
X1005Y734D01*
X1091Y734D02*
X1093Y734D01*
X1406Y734D02*
X1413Y734D01*
X1Y733D02*
X8Y733D01*
X1003Y733D02*
X1005Y733D01*
X1091Y733D02*
X1093Y733D01*
X1406Y733D02*
X1413Y733D01*
X1Y732D02*
X8Y732D01*
X1003Y732D02*
X1005Y732D01*
X1091Y732D02*
X1093Y732D01*
X1406Y732D02*
X1413Y732D01*
X1Y731D02*
X8Y731D01*
X1003Y731D02*
X1005Y731D01*
X1091Y731D02*
X1093Y731D01*
X1406Y731D02*
X1413Y731D01*
X1Y730D02*
X8Y730D01*
X1003Y730D02*
X1005Y730D01*
X1091Y730D02*
X1093Y730D01*
X1406Y730D02*
X1413Y730D01*
X1Y729D02*
X8Y729D01*
X1003Y729D02*
X1005Y729D01*
X1091Y729D02*
X1093Y729D01*
X1406Y729D02*
X1413Y729D01*
X1Y728D02*
X8Y728D01*
X1003Y728D02*
X1005Y728D01*
X1091Y728D02*
X1093Y728D01*
X1107Y728D02*
X1113Y728D01*
X1145Y728D02*
X1163Y728D01*
X1188Y728D02*
X1214Y728D01*
X1406Y728D02*
X1413Y728D01*
X1Y727D02*
X8Y727D01*
X1003Y727D02*
X1005Y727D01*
X1091Y727D02*
X1093Y727D01*
X1106Y727D02*
X1114Y727D01*
X1145Y727D02*
X1164Y727D01*
X1186Y727D02*
X1214Y727D01*
X1406Y727D02*
X1413Y727D01*
X1Y726D02*
X8Y726D01*
X1003Y726D02*
X1005Y726D01*
X1091Y726D02*
X1093Y726D01*
X1105Y726D02*
X1114Y726D01*
X1145Y726D02*
X1164Y726D01*
X1184Y726D02*
X1214Y726D01*
X1406Y726D02*
X1413Y726D01*
X1Y725D02*
X8Y725D01*
X1003Y725D02*
X1005Y725D01*
X1091Y725D02*
X1093Y725D01*
X1105Y725D02*
X1114Y725D01*
X1145Y725D02*
X1164Y725D01*
X1183Y725D02*
X1214Y725D01*
X1406Y725D02*
X1413Y725D01*
X1Y724D02*
X8Y724D01*
X1003Y724D02*
X1005Y724D01*
X1091Y724D02*
X1093Y724D01*
X1105Y724D02*
X1114Y724D01*
X1145Y724D02*
X1164Y724D01*
X1183Y724D02*
X1214Y724D01*
X1406Y724D02*
X1413Y724D01*
X1Y723D02*
X8Y723D01*
X1003Y723D02*
X1005Y723D01*
X1091Y723D02*
X1093Y723D01*
X1106Y723D02*
X1114Y723D01*
X1145Y723D02*
X1164Y723D01*
X1182Y723D02*
X1214Y723D01*
X1406Y723D02*
X1413Y723D01*
X1Y722D02*
X8Y722D01*
X1003Y722D02*
X1005Y722D01*
X1091Y722D02*
X1093Y722D01*
X1107Y722D02*
X1114Y722D01*
X1145Y722D02*
X1162Y722D01*
X1181Y722D02*
X1214Y722D01*
X1406Y722D02*
X1413Y722D01*
X1Y721D02*
X8Y721D01*
X1003Y721D02*
X1005Y721D01*
X1091Y721D02*
X1093Y721D01*
X1108Y721D02*
X1114Y721D01*
X1145Y721D02*
X1151Y721D01*
X1181Y721D02*
X1189Y721D01*
X1208Y721D02*
X1214Y721D01*
X1406Y721D02*
X1413Y721D01*
X1Y720D02*
X8Y720D01*
X1003Y720D02*
X1005Y720D01*
X1091Y720D02*
X1093Y720D01*
X1108Y720D02*
X1114Y720D01*
X1145Y720D02*
X1151Y720D01*
X1181Y720D02*
X1187Y720D01*
X1208Y720D02*
X1214Y720D01*
X1406Y720D02*
X1413Y720D01*
X1Y719D02*
X8Y719D01*
X1003Y719D02*
X1005Y719D01*
X1091Y719D02*
X1093Y719D01*
X1108Y719D02*
X1114Y719D01*
X1145Y719D02*
X1151Y719D01*
X1181Y719D02*
X1187Y719D01*
X1208Y719D02*
X1214Y719D01*
X1406Y719D02*
X1413Y719D01*
X1Y718D02*
X8Y718D01*
X1003Y718D02*
X1005Y718D01*
X1091Y718D02*
X1093Y718D01*
X1108Y718D02*
X1114Y718D01*
X1145Y718D02*
X1151Y718D01*
X1181Y718D02*
X1187Y718D01*
X1208Y718D02*
X1214Y718D01*
X1406Y718D02*
X1413Y718D01*
X1Y717D02*
X8Y717D01*
X1003Y717D02*
X1005Y717D01*
X1091Y717D02*
X1093Y717D01*
X1108Y717D02*
X1114Y717D01*
X1145Y717D02*
X1151Y717D01*
X1181Y717D02*
X1187Y717D01*
X1208Y717D02*
X1214Y717D01*
X1406Y717D02*
X1413Y717D01*
X1Y716D02*
X8Y716D01*
X1003Y716D02*
X1005Y716D01*
X1091Y716D02*
X1093Y716D01*
X1108Y716D02*
X1114Y716D01*
X1145Y716D02*
X1151Y716D01*
X1181Y716D02*
X1187Y716D01*
X1208Y716D02*
X1214Y716D01*
X1406Y716D02*
X1413Y716D01*
X1Y715D02*
X8Y715D01*
X1003Y715D02*
X1006Y715D01*
X1090Y715D02*
X1093Y715D01*
X1108Y715D02*
X1114Y715D01*
X1145Y715D02*
X1151Y715D01*
X1181Y715D02*
X1187Y715D01*
X1208Y715D02*
X1214Y715D01*
X1406Y715D02*
X1413Y715D01*
X1Y714D02*
X8Y714D01*
X1003Y714D02*
X1006Y714D01*
X1090Y714D02*
X1093Y714D01*
X1108Y714D02*
X1114Y714D01*
X1145Y714D02*
X1151Y714D01*
X1181Y714D02*
X1187Y714D01*
X1208Y714D02*
X1214Y714D01*
X1406Y714D02*
X1413Y714D01*
X1Y713D02*
X8Y713D01*
X1003Y713D02*
X1006Y713D01*
X1090Y713D02*
X1093Y713D01*
X1108Y713D02*
X1114Y713D01*
X1145Y713D02*
X1151Y713D01*
X1181Y713D02*
X1187Y713D01*
X1208Y713D02*
X1214Y713D01*
X1406Y713D02*
X1413Y713D01*
X1Y712D02*
X8Y712D01*
X1003Y712D02*
X1006Y712D01*
X1090Y712D02*
X1093Y712D01*
X1108Y712D02*
X1114Y712D01*
X1145Y712D02*
X1151Y712D01*
X1181Y712D02*
X1188Y712D01*
X1208Y712D02*
X1214Y712D01*
X1406Y712D02*
X1413Y712D01*
X1Y711D02*
X8Y711D01*
X1003Y711D02*
X1006Y711D01*
X1090Y711D02*
X1093Y711D01*
X1108Y711D02*
X1114Y711D01*
X1145Y711D02*
X1151Y711D01*
X1181Y711D02*
X1189Y711D01*
X1208Y711D02*
X1214Y711D01*
X1406Y711D02*
X1413Y711D01*
X1Y710D02*
X8Y710D01*
X1003Y710D02*
X1006Y710D01*
X1090Y710D02*
X1093Y710D01*
X1108Y710D02*
X1114Y710D01*
X1145Y710D02*
X1151Y710D01*
X1182Y710D02*
X1214Y710D01*
X1406Y710D02*
X1413Y710D01*
X1Y709D02*
X8Y709D01*
X1003Y709D02*
X1006Y709D01*
X1090Y709D02*
X1093Y709D01*
X1108Y709D02*
X1114Y709D01*
X1145Y709D02*
X1151Y709D01*
X1182Y709D02*
X1214Y709D01*
X1406Y709D02*
X1413Y709D01*
X1Y708D02*
X8Y708D01*
X1003Y708D02*
X1006Y708D01*
X1090Y708D02*
X1093Y708D01*
X1108Y708D02*
X1114Y708D01*
X1145Y708D02*
X1151Y708D01*
X1183Y708D02*
X1214Y708D01*
X1406Y708D02*
X1413Y708D01*
X1Y707D02*
X8Y707D01*
X1003Y707D02*
X1006Y707D01*
X1090Y707D02*
X1093Y707D01*
X1108Y707D02*
X1114Y707D01*
X1145Y707D02*
X1151Y707D01*
X1184Y707D02*
X1214Y707D01*
X1406Y707D02*
X1413Y707D01*
X1Y706D02*
X8Y706D01*
X1003Y706D02*
X1006Y706D01*
X1090Y706D02*
X1093Y706D01*
X1108Y706D02*
X1114Y706D01*
X1145Y706D02*
X1151Y706D01*
X1185Y706D02*
X1214Y706D01*
X1406Y706D02*
X1413Y706D01*
X1Y705D02*
X8Y705D01*
X1003Y705D02*
X1006Y705D01*
X1090Y705D02*
X1093Y705D01*
X1108Y705D02*
X1114Y705D01*
X1145Y705D02*
X1151Y705D01*
X1187Y705D02*
X1214Y705D01*
X1406Y705D02*
X1413Y705D01*
X1Y704D02*
X8Y704D01*
X1003Y704D02*
X1006Y704D01*
X1090Y704D02*
X1093Y704D01*
X1108Y704D02*
X1114Y704D01*
X1145Y704D02*
X1151Y704D01*
X1190Y704D02*
X1214Y704D01*
X1406Y704D02*
X1413Y704D01*
X1Y703D02*
X8Y703D01*
X1003Y703D02*
X1006Y703D01*
X1090Y703D02*
X1093Y703D01*
X1108Y703D02*
X1114Y703D01*
X1145Y703D02*
X1151Y703D01*
X1195Y703D02*
X1202Y703D01*
X1208Y703D02*
X1214Y703D01*
X1278Y703D02*
X1368Y703D01*
X1406Y703D02*
X1413Y703D01*
X1Y702D02*
X8Y702D01*
X1003Y702D02*
X1006Y702D01*
X1090Y702D02*
X1093Y702D01*
X1108Y702D02*
X1114Y702D01*
X1145Y702D02*
X1151Y702D01*
X1194Y702D02*
X1201Y702D01*
X1208Y702D02*
X1214Y702D01*
X1278Y702D02*
X1368Y702D01*
X1406Y702D02*
X1413Y702D01*
X1Y701D02*
X8Y701D01*
X1003Y701D02*
X1006Y701D01*
X1090Y701D02*
X1093Y701D01*
X1108Y701D02*
X1114Y701D01*
X1145Y701D02*
X1151Y701D01*
X1194Y701D02*
X1201Y701D01*
X1208Y701D02*
X1214Y701D01*
X1278Y701D02*
X1368Y701D01*
X1406Y701D02*
X1413Y701D01*
X1Y700D02*
X8Y700D01*
X1003Y700D02*
X1006Y700D01*
X1090Y700D02*
X1093Y700D01*
X1108Y700D02*
X1114Y700D01*
X1145Y700D02*
X1151Y700D01*
X1193Y700D02*
X1200Y700D01*
X1208Y700D02*
X1214Y700D01*
X1278Y700D02*
X1280Y700D01*
X1366Y700D02*
X1368Y700D01*
X1406Y700D02*
X1413Y700D01*
X1Y699D02*
X8Y699D01*
X1003Y699D02*
X1006Y699D01*
X1084Y699D02*
X1114Y699D01*
X1134Y699D02*
X1134Y699D01*
X1145Y699D02*
X1151Y699D01*
X1192Y699D02*
X1200Y699D01*
X1208Y699D02*
X1214Y699D01*
X1278Y699D02*
X1280Y699D01*
X1366Y699D02*
X1368Y699D01*
X1406Y699D02*
X1413Y699D01*
X1Y698D02*
X8Y698D01*
X1003Y698D02*
X1006Y698D01*
X1082Y698D02*
X1114Y698D01*
X1132Y698D02*
X1136Y698D01*
X1145Y698D02*
X1151Y698D01*
X1192Y698D02*
X1199Y698D01*
X1208Y698D02*
X1214Y698D01*
X1278Y698D02*
X1280Y698D01*
X1366Y698D02*
X1368Y698D01*
X1406Y698D02*
X1413Y698D01*
X1Y697D02*
X8Y697D01*
X1003Y697D02*
X1006Y697D01*
X1081Y697D02*
X1114Y697D01*
X1131Y697D02*
X1136Y697D01*
X1145Y697D02*
X1151Y697D01*
X1191Y697D02*
X1198Y697D01*
X1208Y697D02*
X1214Y697D01*
X1278Y697D02*
X1280Y697D01*
X1366Y697D02*
X1368Y697D01*
X1406Y697D02*
X1413Y697D01*
X1Y696D02*
X8Y696D01*
X1003Y696D02*
X1006Y696D01*
X1081Y696D02*
X1114Y696D01*
X1131Y696D02*
X1137Y696D01*
X1145Y696D02*
X1151Y696D01*
X1191Y696D02*
X1198Y696D01*
X1208Y696D02*
X1214Y696D01*
X1278Y696D02*
X1280Y696D01*
X1366Y696D02*
X1368Y696D01*
X1406Y696D02*
X1413Y696D01*
X1Y695D02*
X8Y695D01*
X1003Y695D02*
X1006Y695D01*
X1081Y695D02*
X1114Y695D01*
X1131Y695D02*
X1137Y695D01*
X1145Y695D02*
X1151Y695D01*
X1190Y695D02*
X1197Y695D01*
X1208Y695D02*
X1214Y695D01*
X1278Y695D02*
X1280Y695D01*
X1366Y695D02*
X1368Y695D01*
X1406Y695D02*
X1413Y695D01*
X1Y694D02*
X8Y694D01*
X1003Y694D02*
X1006Y694D01*
X1081Y694D02*
X1114Y694D01*
X1131Y694D02*
X1137Y694D01*
X1145Y694D02*
X1151Y694D01*
X1190Y694D02*
X1197Y694D01*
X1208Y694D02*
X1214Y694D01*
X1278Y694D02*
X1280Y694D01*
X1366Y694D02*
X1368Y694D01*
X1406Y694D02*
X1413Y694D01*
X1Y693D02*
X8Y693D01*
X1003Y693D02*
X1006Y693D01*
X1081Y693D02*
X1114Y693D01*
X1131Y693D02*
X1137Y693D01*
X1145Y693D02*
X1151Y693D01*
X1189Y693D02*
X1196Y693D01*
X1208Y693D02*
X1214Y693D01*
X1278Y693D02*
X1280Y693D01*
X1366Y693D02*
X1368Y693D01*
X1406Y693D02*
X1413Y693D01*
X1Y692D02*
X8Y692D01*
X1003Y692D02*
X1006Y692D01*
X1081Y692D02*
X1087Y692D01*
X1090Y692D02*
X1093Y692D01*
X1108Y692D02*
X1114Y692D01*
X1131Y692D02*
X1137Y692D01*
X1145Y692D02*
X1151Y692D01*
X1188Y692D02*
X1196Y692D01*
X1208Y692D02*
X1214Y692D01*
X1278Y692D02*
X1280Y692D01*
X1366Y692D02*
X1368Y692D01*
X1406Y692D02*
X1413Y692D01*
X1Y691D02*
X8Y691D01*
X1003Y691D02*
X1006Y691D01*
X1081Y691D02*
X1087Y691D01*
X1090Y691D02*
X1093Y691D01*
X1108Y691D02*
X1114Y691D01*
X1131Y691D02*
X1137Y691D01*
X1145Y691D02*
X1151Y691D01*
X1188Y691D02*
X1195Y691D01*
X1208Y691D02*
X1214Y691D01*
X1278Y691D02*
X1280Y691D01*
X1366Y691D02*
X1368Y691D01*
X1406Y691D02*
X1413Y691D01*
X1Y690D02*
X8Y690D01*
X1003Y690D02*
X1006Y690D01*
X1081Y690D02*
X1087Y690D01*
X1090Y690D02*
X1093Y690D01*
X1108Y690D02*
X1114Y690D01*
X1131Y690D02*
X1137Y690D01*
X1145Y690D02*
X1151Y690D01*
X1187Y690D02*
X1194Y690D01*
X1208Y690D02*
X1214Y690D01*
X1278Y690D02*
X1280Y690D01*
X1366Y690D02*
X1368Y690D01*
X1406Y690D02*
X1413Y690D01*
X1Y689D02*
X8Y689D01*
X1003Y689D02*
X1006Y689D01*
X1081Y689D02*
X1087Y689D01*
X1090Y689D02*
X1093Y689D01*
X1108Y689D02*
X1114Y689D01*
X1131Y689D02*
X1137Y689D01*
X1145Y689D02*
X1151Y689D01*
X1187Y689D02*
X1194Y689D01*
X1208Y689D02*
X1214Y689D01*
X1278Y689D02*
X1280Y689D01*
X1366Y689D02*
X1368Y689D01*
X1406Y689D02*
X1413Y689D01*
X1Y688D02*
X8Y688D01*
X1003Y688D02*
X1006Y688D01*
X1081Y688D02*
X1087Y688D01*
X1090Y688D02*
X1093Y688D01*
X1108Y688D02*
X1114Y688D01*
X1131Y688D02*
X1137Y688D01*
X1145Y688D02*
X1151Y688D01*
X1186Y688D02*
X1193Y688D01*
X1208Y688D02*
X1214Y688D01*
X1278Y688D02*
X1280Y688D01*
X1366Y688D02*
X1368Y688D01*
X1406Y688D02*
X1413Y688D01*
X1Y687D02*
X8Y687D01*
X1003Y687D02*
X1006Y687D01*
X1081Y687D02*
X1087Y687D01*
X1090Y687D02*
X1093Y687D01*
X1108Y687D02*
X1114Y687D01*
X1131Y687D02*
X1137Y687D01*
X1145Y687D02*
X1151Y687D01*
X1185Y687D02*
X1193Y687D01*
X1208Y687D02*
X1214Y687D01*
X1278Y687D02*
X1280Y687D01*
X1366Y687D02*
X1368Y687D01*
X1406Y687D02*
X1413Y687D01*
X1Y686D02*
X8Y686D01*
X1003Y686D02*
X1006Y686D01*
X1081Y686D02*
X1087Y686D01*
X1090Y686D02*
X1093Y686D01*
X1108Y686D02*
X1114Y686D01*
X1131Y686D02*
X1137Y686D01*
X1145Y686D02*
X1151Y686D01*
X1185Y686D02*
X1192Y686D01*
X1208Y686D02*
X1214Y686D01*
X1278Y686D02*
X1280Y686D01*
X1366Y686D02*
X1368Y686D01*
X1406Y686D02*
X1413Y686D01*
X1Y685D02*
X8Y685D01*
X1003Y685D02*
X1006Y685D01*
X1081Y685D02*
X1087Y685D01*
X1090Y685D02*
X1093Y685D01*
X1108Y685D02*
X1114Y685D01*
X1131Y685D02*
X1137Y685D01*
X1145Y685D02*
X1151Y685D01*
X1184Y685D02*
X1191Y685D01*
X1208Y685D02*
X1214Y685D01*
X1278Y685D02*
X1280Y685D01*
X1366Y685D02*
X1368Y685D01*
X1406Y685D02*
X1413Y685D01*
X1Y684D02*
X8Y684D01*
X1003Y684D02*
X1006Y684D01*
X1081Y684D02*
X1087Y684D01*
X1090Y684D02*
X1093Y684D01*
X1108Y684D02*
X1114Y684D01*
X1131Y684D02*
X1137Y684D01*
X1145Y684D02*
X1151Y684D01*
X1184Y684D02*
X1191Y684D01*
X1208Y684D02*
X1214Y684D01*
X1278Y684D02*
X1280Y684D01*
X1366Y684D02*
X1368Y684D01*
X1406Y684D02*
X1413Y684D01*
X1Y683D02*
X8Y683D01*
X1003Y683D02*
X1006Y683D01*
X1081Y683D02*
X1087Y683D01*
X1090Y683D02*
X1093Y683D01*
X1108Y683D02*
X1114Y683D01*
X1131Y683D02*
X1137Y683D01*
X1145Y683D02*
X1151Y683D01*
X1183Y683D02*
X1190Y683D01*
X1208Y683D02*
X1214Y683D01*
X1278Y683D02*
X1280Y683D01*
X1366Y683D02*
X1368Y683D01*
X1406Y683D02*
X1413Y683D01*
X1Y682D02*
X8Y682D01*
X1003Y682D02*
X1006Y682D01*
X1081Y682D02*
X1087Y682D01*
X1090Y682D02*
X1093Y682D01*
X1108Y682D02*
X1114Y682D01*
X1131Y682D02*
X1137Y682D01*
X1145Y682D02*
X1151Y682D01*
X1183Y682D02*
X1190Y682D01*
X1208Y682D02*
X1214Y682D01*
X1278Y682D02*
X1280Y682D01*
X1366Y682D02*
X1368Y682D01*
X1406Y682D02*
X1413Y682D01*
X1Y681D02*
X8Y681D01*
X1003Y681D02*
X1006Y681D01*
X1081Y681D02*
X1114Y681D01*
X1131Y681D02*
X1162Y681D01*
X1182Y681D02*
X1189Y681D01*
X1208Y681D02*
X1214Y681D01*
X1278Y681D02*
X1280Y681D01*
X1366Y681D02*
X1368Y681D01*
X1406Y681D02*
X1413Y681D01*
X1Y680D02*
X8Y680D01*
X1003Y680D02*
X1006Y680D01*
X1081Y680D02*
X1114Y680D01*
X1131Y680D02*
X1164Y680D01*
X1181Y680D02*
X1189Y680D01*
X1208Y680D02*
X1214Y680D01*
X1278Y680D02*
X1280Y680D01*
X1366Y680D02*
X1368Y680D01*
X1406Y680D02*
X1413Y680D01*
X1Y679D02*
X8Y679D01*
X1003Y679D02*
X1006Y679D01*
X1081Y679D02*
X1114Y679D01*
X1131Y679D02*
X1164Y679D01*
X1181Y679D02*
X1188Y679D01*
X1208Y679D02*
X1214Y679D01*
X1278Y679D02*
X1280Y679D01*
X1366Y679D02*
X1368Y679D01*
X1406Y679D02*
X1413Y679D01*
X1Y678D02*
X8Y678D01*
X1003Y678D02*
X1006Y678D01*
X1081Y678D02*
X1114Y678D01*
X1131Y678D02*
X1164Y678D01*
X1181Y678D02*
X1187Y678D01*
X1208Y678D02*
X1214Y678D01*
X1278Y678D02*
X1280Y678D01*
X1366Y678D02*
X1368Y678D01*
X1406Y678D02*
X1413Y678D01*
X1Y677D02*
X8Y677D01*
X1003Y677D02*
X1006Y677D01*
X1081Y677D02*
X1114Y677D01*
X1131Y677D02*
X1164Y677D01*
X1181Y677D02*
X1187Y677D01*
X1208Y677D02*
X1214Y677D01*
X1278Y677D02*
X1280Y677D01*
X1366Y677D02*
X1368Y677D01*
X1406Y677D02*
X1413Y677D01*
X1Y676D02*
X8Y676D01*
X1003Y676D02*
X1006Y676D01*
X1081Y676D02*
X1114Y676D01*
X1131Y676D02*
X1164Y676D01*
X1181Y676D02*
X1186Y676D01*
X1209Y676D02*
X1214Y676D01*
X1278Y676D02*
X1280Y676D01*
X1366Y676D02*
X1368Y676D01*
X1406Y676D02*
X1413Y676D01*
X1Y675D02*
X8Y675D01*
X1003Y675D02*
X1006Y675D01*
X1082Y675D02*
X1113Y675D01*
X1132Y675D02*
X1163Y675D01*
X1182Y675D02*
X1185Y675D01*
X1210Y675D02*
X1213Y675D01*
X1278Y675D02*
X1280Y675D01*
X1366Y675D02*
X1368Y675D01*
X1406Y675D02*
X1413Y675D01*
X1Y674D02*
X8Y674D01*
X1003Y674D02*
X1006Y674D01*
X1090Y674D02*
X1093Y674D01*
X1278Y674D02*
X1280Y674D01*
X1366Y674D02*
X1368Y674D01*
X1406Y674D02*
X1413Y674D01*
X1Y673D02*
X8Y673D01*
X1003Y673D02*
X1006Y673D01*
X1090Y673D02*
X1093Y673D01*
X1278Y673D02*
X1280Y673D01*
X1366Y673D02*
X1368Y673D01*
X1406Y673D02*
X1413Y673D01*
X1Y672D02*
X8Y672D01*
X1003Y672D02*
X1006Y672D01*
X1090Y672D02*
X1093Y672D01*
X1278Y672D02*
X1280Y672D01*
X1366Y672D02*
X1368Y672D01*
X1406Y672D02*
X1413Y672D01*
X1Y671D02*
X8Y671D01*
X1003Y671D02*
X1006Y671D01*
X1090Y671D02*
X1093Y671D01*
X1278Y671D02*
X1280Y671D01*
X1366Y671D02*
X1368Y671D01*
X1406Y671D02*
X1413Y671D01*
X1Y670D02*
X8Y670D01*
X1003Y670D02*
X1006Y670D01*
X1090Y670D02*
X1093Y670D01*
X1278Y670D02*
X1280Y670D01*
X1366Y670D02*
X1368Y670D01*
X1406Y670D02*
X1413Y670D01*
X1Y669D02*
X8Y669D01*
X1003Y669D02*
X1006Y669D01*
X1090Y669D02*
X1093Y669D01*
X1278Y669D02*
X1280Y669D01*
X1366Y669D02*
X1368Y669D01*
X1406Y669D02*
X1413Y669D01*
X1Y668D02*
X8Y668D01*
X1003Y668D02*
X1006Y668D01*
X1090Y668D02*
X1093Y668D01*
X1278Y668D02*
X1280Y668D01*
X1366Y668D02*
X1368Y668D01*
X1406Y668D02*
X1413Y668D01*
X1Y667D02*
X8Y667D01*
X1003Y667D02*
X1006Y667D01*
X1090Y667D02*
X1093Y667D01*
X1278Y667D02*
X1280Y667D01*
X1366Y667D02*
X1368Y667D01*
X1406Y667D02*
X1413Y667D01*
X1Y666D02*
X8Y666D01*
X1003Y666D02*
X1005Y666D01*
X1091Y666D02*
X1093Y666D01*
X1278Y666D02*
X1280Y666D01*
X1366Y666D02*
X1368Y666D01*
X1406Y666D02*
X1413Y666D01*
X1Y665D02*
X8Y665D01*
X1003Y665D02*
X1005Y665D01*
X1091Y665D02*
X1093Y665D01*
X1278Y665D02*
X1280Y665D01*
X1366Y665D02*
X1368Y665D01*
X1406Y665D02*
X1413Y665D01*
X1Y664D02*
X8Y664D01*
X1003Y664D02*
X1005Y664D01*
X1091Y664D02*
X1093Y664D01*
X1278Y664D02*
X1280Y664D01*
X1366Y664D02*
X1368Y664D01*
X1406Y664D02*
X1413Y664D01*
X1Y663D02*
X8Y663D01*
X1003Y663D02*
X1005Y663D01*
X1091Y663D02*
X1093Y663D01*
X1278Y663D02*
X1280Y663D01*
X1366Y663D02*
X1368Y663D01*
X1406Y663D02*
X1413Y663D01*
X1Y662D02*
X8Y662D01*
X1003Y662D02*
X1005Y662D01*
X1091Y662D02*
X1093Y662D01*
X1278Y662D02*
X1280Y662D01*
X1366Y662D02*
X1368Y662D01*
X1406Y662D02*
X1413Y662D01*
X1Y661D02*
X8Y661D01*
X1003Y661D02*
X1005Y661D01*
X1091Y661D02*
X1093Y661D01*
X1278Y661D02*
X1280Y661D01*
X1366Y661D02*
X1368Y661D01*
X1406Y661D02*
X1413Y661D01*
X1Y660D02*
X8Y660D01*
X1003Y660D02*
X1005Y660D01*
X1091Y660D02*
X1093Y660D01*
X1278Y660D02*
X1280Y660D01*
X1366Y660D02*
X1368Y660D01*
X1406Y660D02*
X1413Y660D01*
X1Y659D02*
X8Y659D01*
X1003Y659D02*
X1005Y659D01*
X1091Y659D02*
X1093Y659D01*
X1278Y659D02*
X1280Y659D01*
X1366Y659D02*
X1368Y659D01*
X1406Y659D02*
X1413Y659D01*
X1Y658D02*
X8Y658D01*
X1003Y658D02*
X1005Y658D01*
X1091Y658D02*
X1093Y658D01*
X1278Y658D02*
X1280Y658D01*
X1366Y658D02*
X1368Y658D01*
X1406Y658D02*
X1413Y658D01*
X1Y657D02*
X8Y657D01*
X1003Y657D02*
X1005Y657D01*
X1091Y657D02*
X1093Y657D01*
X1278Y657D02*
X1280Y657D01*
X1366Y657D02*
X1368Y657D01*
X1406Y657D02*
X1413Y657D01*
X1Y656D02*
X8Y656D01*
X1003Y656D02*
X1005Y656D01*
X1091Y656D02*
X1093Y656D01*
X1278Y656D02*
X1280Y656D01*
X1366Y656D02*
X1368Y656D01*
X1406Y656D02*
X1413Y656D01*
X1Y655D02*
X8Y655D01*
X1003Y655D02*
X1005Y655D01*
X1091Y655D02*
X1093Y655D01*
X1278Y655D02*
X1280Y655D01*
X1366Y655D02*
X1368Y655D01*
X1406Y655D02*
X1413Y655D01*
X1Y654D02*
X8Y654D01*
X1003Y654D02*
X1005Y654D01*
X1091Y654D02*
X1093Y654D01*
X1278Y654D02*
X1280Y654D01*
X1366Y654D02*
X1368Y654D01*
X1406Y654D02*
X1413Y654D01*
X1Y653D02*
X8Y653D01*
X1003Y653D02*
X1005Y653D01*
X1091Y653D02*
X1093Y653D01*
X1278Y653D02*
X1280Y653D01*
X1366Y653D02*
X1368Y653D01*
X1406Y653D02*
X1413Y653D01*
X1Y652D02*
X8Y652D01*
X1003Y652D02*
X1005Y652D01*
X1091Y652D02*
X1093Y652D01*
X1278Y652D02*
X1280Y652D01*
X1366Y652D02*
X1368Y652D01*
X1406Y652D02*
X1413Y652D01*
X1Y651D02*
X8Y651D01*
X1003Y651D02*
X1005Y651D01*
X1091Y651D02*
X1093Y651D01*
X1278Y651D02*
X1280Y651D01*
X1366Y651D02*
X1368Y651D01*
X1406Y651D02*
X1413Y651D01*
X1Y650D02*
X8Y650D01*
X1003Y650D02*
X1005Y650D01*
X1091Y650D02*
X1093Y650D01*
X1278Y650D02*
X1280Y650D01*
X1366Y650D02*
X1368Y650D01*
X1406Y650D02*
X1413Y650D01*
X1Y649D02*
X8Y649D01*
X1003Y649D02*
X1005Y649D01*
X1091Y649D02*
X1093Y649D01*
X1278Y649D02*
X1280Y649D01*
X1366Y649D02*
X1368Y649D01*
X1406Y649D02*
X1413Y649D01*
X1Y648D02*
X8Y648D01*
X1003Y648D02*
X1005Y648D01*
X1091Y648D02*
X1093Y648D01*
X1278Y648D02*
X1280Y648D01*
X1366Y648D02*
X1368Y648D01*
X1406Y648D02*
X1413Y648D01*
X1Y647D02*
X8Y647D01*
X1003Y647D02*
X1005Y647D01*
X1091Y647D02*
X1093Y647D01*
X1278Y647D02*
X1280Y647D01*
X1366Y647D02*
X1368Y647D01*
X1406Y647D02*
X1413Y647D01*
X1Y646D02*
X8Y646D01*
X1003Y646D02*
X1005Y646D01*
X1091Y646D02*
X1093Y646D01*
X1278Y646D02*
X1280Y646D01*
X1366Y646D02*
X1368Y646D01*
X1406Y646D02*
X1413Y646D01*
X1Y645D02*
X8Y645D01*
X1003Y645D02*
X1005Y645D01*
X1091Y645D02*
X1093Y645D01*
X1278Y645D02*
X1280Y645D01*
X1366Y645D02*
X1368Y645D01*
X1406Y645D02*
X1413Y645D01*
X1Y644D02*
X8Y644D01*
X1003Y644D02*
X1005Y644D01*
X1091Y644D02*
X1093Y644D01*
X1278Y644D02*
X1280Y644D01*
X1366Y644D02*
X1368Y644D01*
X1406Y644D02*
X1413Y644D01*
X1Y643D02*
X8Y643D01*
X1003Y643D02*
X1005Y643D01*
X1091Y643D02*
X1093Y643D01*
X1278Y643D02*
X1280Y643D01*
X1366Y643D02*
X1368Y643D01*
X1406Y643D02*
X1413Y643D01*
X1Y642D02*
X8Y642D01*
X1003Y642D02*
X1005Y642D01*
X1091Y642D02*
X1093Y642D01*
X1278Y642D02*
X1280Y642D01*
X1366Y642D02*
X1368Y642D01*
X1406Y642D02*
X1413Y642D01*
X1Y641D02*
X8Y641D01*
X1003Y641D02*
X1005Y641D01*
X1091Y641D02*
X1093Y641D01*
X1278Y641D02*
X1280Y641D01*
X1366Y641D02*
X1368Y641D01*
X1406Y641D02*
X1413Y641D01*
X1Y640D02*
X8Y640D01*
X1003Y640D02*
X1005Y640D01*
X1091Y640D02*
X1093Y640D01*
X1278Y640D02*
X1280Y640D01*
X1366Y640D02*
X1368Y640D01*
X1406Y640D02*
X1413Y640D01*
X1Y639D02*
X8Y639D01*
X1003Y639D02*
X1005Y639D01*
X1091Y639D02*
X1093Y639D01*
X1278Y639D02*
X1280Y639D01*
X1366Y639D02*
X1368Y639D01*
X1406Y639D02*
X1413Y639D01*
X1Y638D02*
X8Y638D01*
X1003Y638D02*
X1005Y638D01*
X1091Y638D02*
X1093Y638D01*
X1278Y638D02*
X1280Y638D01*
X1366Y638D02*
X1368Y638D01*
X1406Y638D02*
X1413Y638D01*
X1Y637D02*
X8Y637D01*
X1003Y637D02*
X1005Y637D01*
X1091Y637D02*
X1093Y637D01*
X1278Y637D02*
X1280Y637D01*
X1366Y637D02*
X1368Y637D01*
X1406Y637D02*
X1413Y637D01*
X1Y636D02*
X8Y636D01*
X1003Y636D02*
X1005Y636D01*
X1091Y636D02*
X1093Y636D01*
X1278Y636D02*
X1280Y636D01*
X1366Y636D02*
X1368Y636D01*
X1406Y636D02*
X1413Y636D01*
X1Y635D02*
X8Y635D01*
X1003Y635D02*
X1005Y635D01*
X1091Y635D02*
X1093Y635D01*
X1278Y635D02*
X1280Y635D01*
X1366Y635D02*
X1368Y635D01*
X1406Y635D02*
X1413Y635D01*
X1Y634D02*
X8Y634D01*
X1003Y634D02*
X1005Y634D01*
X1091Y634D02*
X1093Y634D01*
X1278Y634D02*
X1280Y634D01*
X1366Y634D02*
X1368Y634D01*
X1406Y634D02*
X1413Y634D01*
X1Y633D02*
X8Y633D01*
X1003Y633D02*
X1005Y633D01*
X1091Y633D02*
X1093Y633D01*
X1278Y633D02*
X1280Y633D01*
X1366Y633D02*
X1368Y633D01*
X1406Y633D02*
X1413Y633D01*
X1Y632D02*
X8Y632D01*
X1003Y632D02*
X1005Y632D01*
X1091Y632D02*
X1093Y632D01*
X1278Y632D02*
X1280Y632D01*
X1366Y632D02*
X1368Y632D01*
X1406Y632D02*
X1413Y632D01*
X1Y631D02*
X8Y631D01*
X1003Y631D02*
X1005Y631D01*
X1091Y631D02*
X1093Y631D01*
X1278Y631D02*
X1280Y631D01*
X1366Y631D02*
X1368Y631D01*
X1406Y631D02*
X1413Y631D01*
X1Y630D02*
X8Y630D01*
X1003Y630D02*
X1005Y630D01*
X1091Y630D02*
X1093Y630D01*
X1278Y630D02*
X1280Y630D01*
X1366Y630D02*
X1368Y630D01*
X1406Y630D02*
X1413Y630D01*
X1Y629D02*
X8Y629D01*
X1003Y629D02*
X1005Y629D01*
X1091Y629D02*
X1093Y629D01*
X1278Y629D02*
X1280Y629D01*
X1366Y629D02*
X1368Y629D01*
X1406Y629D02*
X1413Y629D01*
X1Y628D02*
X8Y628D01*
X1003Y628D02*
X1005Y628D01*
X1091Y628D02*
X1093Y628D01*
X1278Y628D02*
X1280Y628D01*
X1365Y628D02*
X1368Y628D01*
X1406Y628D02*
X1413Y628D01*
X1Y627D02*
X8Y627D01*
X1003Y627D02*
X1005Y627D01*
X1091Y627D02*
X1093Y627D01*
X1278Y627D02*
X1281Y627D01*
X1365Y627D02*
X1368Y627D01*
X1406Y627D02*
X1413Y627D01*
X1Y626D02*
X8Y626D01*
X1003Y626D02*
X1005Y626D01*
X1091Y626D02*
X1093Y626D01*
X1278Y626D02*
X1281Y626D01*
X1365Y626D02*
X1368Y626D01*
X1406Y626D02*
X1413Y626D01*
X1Y625D02*
X8Y625D01*
X1003Y625D02*
X1005Y625D01*
X1091Y625D02*
X1093Y625D01*
X1278Y625D02*
X1281Y625D01*
X1365Y625D02*
X1368Y625D01*
X1406Y625D02*
X1413Y625D01*
X1Y624D02*
X8Y624D01*
X1003Y624D02*
X1005Y624D01*
X1091Y624D02*
X1093Y624D01*
X1278Y624D02*
X1281Y624D01*
X1365Y624D02*
X1368Y624D01*
X1406Y624D02*
X1413Y624D01*
X1Y623D02*
X8Y623D01*
X1003Y623D02*
X1005Y623D01*
X1091Y623D02*
X1093Y623D01*
X1278Y623D02*
X1281Y623D01*
X1365Y623D02*
X1368Y623D01*
X1406Y623D02*
X1413Y623D01*
X1Y622D02*
X8Y622D01*
X1003Y622D02*
X1005Y622D01*
X1091Y622D02*
X1093Y622D01*
X1278Y622D02*
X1281Y622D01*
X1365Y622D02*
X1368Y622D01*
X1406Y622D02*
X1413Y622D01*
X1Y621D02*
X8Y621D01*
X1003Y621D02*
X1005Y621D01*
X1091Y621D02*
X1093Y621D01*
X1278Y621D02*
X1281Y621D01*
X1365Y621D02*
X1368Y621D01*
X1406Y621D02*
X1413Y621D01*
X1Y620D02*
X8Y620D01*
X1003Y620D02*
X1005Y620D01*
X1091Y620D02*
X1093Y620D01*
X1278Y620D02*
X1281Y620D01*
X1365Y620D02*
X1368Y620D01*
X1406Y620D02*
X1413Y620D01*
X1Y619D02*
X8Y619D01*
X1003Y619D02*
X1005Y619D01*
X1091Y619D02*
X1093Y619D01*
X1278Y619D02*
X1281Y619D01*
X1365Y619D02*
X1368Y619D01*
X1406Y619D02*
X1413Y619D01*
X1Y618D02*
X8Y618D01*
X1003Y618D02*
X1005Y618D01*
X1091Y618D02*
X1093Y618D01*
X1278Y618D02*
X1281Y618D01*
X1365Y618D02*
X1368Y618D01*
X1406Y618D02*
X1413Y618D01*
X1Y617D02*
X8Y617D01*
X1003Y617D02*
X1005Y617D01*
X1091Y617D02*
X1093Y617D01*
X1278Y617D02*
X1281Y617D01*
X1365Y617D02*
X1368Y617D01*
X1406Y617D02*
X1413Y617D01*
X1Y616D02*
X8Y616D01*
X1003Y616D02*
X1005Y616D01*
X1091Y616D02*
X1093Y616D01*
X1278Y616D02*
X1281Y616D01*
X1365Y616D02*
X1368Y616D01*
X1406Y616D02*
X1413Y616D01*
X1Y615D02*
X8Y615D01*
X1003Y615D02*
X1005Y615D01*
X1091Y615D02*
X1093Y615D01*
X1278Y615D02*
X1281Y615D01*
X1365Y615D02*
X1368Y615D01*
X1406Y615D02*
X1413Y615D01*
X1Y614D02*
X8Y614D01*
X1003Y614D02*
X1005Y614D01*
X1091Y614D02*
X1093Y614D01*
X1278Y614D02*
X1281Y614D01*
X1365Y614D02*
X1368Y614D01*
X1406Y614D02*
X1413Y614D01*
X1Y613D02*
X8Y613D01*
X1003Y613D02*
X1005Y613D01*
X1091Y613D02*
X1093Y613D01*
X1278Y613D02*
X1281Y613D01*
X1365Y613D02*
X1368Y613D01*
X1406Y613D02*
X1413Y613D01*
X1Y612D02*
X8Y612D01*
X1003Y612D02*
X1005Y612D01*
X1091Y612D02*
X1093Y612D01*
X1278Y612D02*
X1281Y612D01*
X1365Y612D02*
X1368Y612D01*
X1406Y612D02*
X1413Y612D01*
X1Y611D02*
X8Y611D01*
X1003Y611D02*
X1005Y611D01*
X1091Y611D02*
X1093Y611D01*
X1278Y611D02*
X1281Y611D01*
X1365Y611D02*
X1368Y611D01*
X1406Y611D02*
X1413Y611D01*
X1Y610D02*
X8Y610D01*
X1003Y610D02*
X1005Y610D01*
X1091Y610D02*
X1093Y610D01*
X1278Y610D02*
X1281Y610D01*
X1365Y610D02*
X1368Y610D01*
X1406Y610D02*
X1413Y610D01*
X1Y609D02*
X8Y609D01*
X1003Y609D02*
X1005Y609D01*
X1091Y609D02*
X1093Y609D01*
X1278Y609D02*
X1281Y609D01*
X1365Y609D02*
X1368Y609D01*
X1406Y609D02*
X1413Y609D01*
X1Y608D02*
X8Y608D01*
X1003Y608D02*
X1005Y608D01*
X1091Y608D02*
X1093Y608D01*
X1278Y608D02*
X1281Y608D01*
X1365Y608D02*
X1368Y608D01*
X1406Y608D02*
X1413Y608D01*
X1Y607D02*
X8Y607D01*
X1003Y607D02*
X1005Y607D01*
X1091Y607D02*
X1093Y607D01*
X1278Y607D02*
X1281Y607D01*
X1365Y607D02*
X1368Y607D01*
X1406Y607D02*
X1413Y607D01*
X1Y606D02*
X8Y606D01*
X1003Y606D02*
X1005Y606D01*
X1091Y606D02*
X1093Y606D01*
X1278Y606D02*
X1281Y606D01*
X1365Y606D02*
X1368Y606D01*
X1406Y606D02*
X1413Y606D01*
X1Y605D02*
X8Y605D01*
X1003Y605D02*
X1005Y605D01*
X1091Y605D02*
X1093Y605D01*
X1278Y605D02*
X1281Y605D01*
X1365Y605D02*
X1368Y605D01*
X1406Y605D02*
X1413Y605D01*
X1Y604D02*
X8Y604D01*
X1003Y604D02*
X1005Y604D01*
X1091Y604D02*
X1093Y604D01*
X1278Y604D02*
X1281Y604D01*
X1365Y604D02*
X1368Y604D01*
X1406Y604D02*
X1413Y604D01*
X1Y603D02*
X8Y603D01*
X1003Y603D02*
X1005Y603D01*
X1091Y603D02*
X1093Y603D01*
X1278Y603D02*
X1281Y603D01*
X1365Y603D02*
X1368Y603D01*
X1406Y603D02*
X1413Y603D01*
X1Y602D02*
X8Y602D01*
X1003Y602D02*
X1005Y602D01*
X1091Y602D02*
X1093Y602D01*
X1278Y602D02*
X1281Y602D01*
X1365Y602D02*
X1368Y602D01*
X1406Y602D02*
X1413Y602D01*
X1Y601D02*
X8Y601D01*
X1003Y601D02*
X1005Y601D01*
X1091Y601D02*
X1093Y601D01*
X1278Y601D02*
X1281Y601D01*
X1365Y601D02*
X1368Y601D01*
X1406Y601D02*
X1413Y601D01*
X1Y600D02*
X8Y600D01*
X1003Y600D02*
X1005Y600D01*
X1091Y600D02*
X1093Y600D01*
X1278Y600D02*
X1281Y600D01*
X1365Y600D02*
X1368Y600D01*
X1406Y600D02*
X1413Y600D01*
X1Y599D02*
X8Y599D01*
X1003Y599D02*
X1005Y599D01*
X1091Y599D02*
X1093Y599D01*
X1278Y599D02*
X1281Y599D01*
X1365Y599D02*
X1368Y599D01*
X1406Y599D02*
X1413Y599D01*
X1Y598D02*
X8Y598D01*
X1003Y598D02*
X1005Y598D01*
X1091Y598D02*
X1093Y598D01*
X1278Y598D02*
X1281Y598D01*
X1365Y598D02*
X1368Y598D01*
X1406Y598D02*
X1413Y598D01*
X1Y597D02*
X8Y597D01*
X1003Y597D02*
X1005Y597D01*
X1091Y597D02*
X1093Y597D01*
X1278Y597D02*
X1281Y597D01*
X1365Y597D02*
X1368Y597D01*
X1406Y597D02*
X1413Y597D01*
X1Y596D02*
X8Y596D01*
X1003Y596D02*
X1005Y596D01*
X1091Y596D02*
X1093Y596D01*
X1278Y596D02*
X1281Y596D01*
X1365Y596D02*
X1368Y596D01*
X1406Y596D02*
X1413Y596D01*
X1Y595D02*
X8Y595D01*
X1003Y595D02*
X1005Y595D01*
X1091Y595D02*
X1093Y595D01*
X1278Y595D02*
X1281Y595D01*
X1365Y595D02*
X1368Y595D01*
X1406Y595D02*
X1413Y595D01*
X1Y594D02*
X8Y594D01*
X1003Y594D02*
X1005Y594D01*
X1091Y594D02*
X1093Y594D01*
X1278Y594D02*
X1281Y594D01*
X1365Y594D02*
X1368Y594D01*
X1406Y594D02*
X1413Y594D01*
X1Y593D02*
X8Y593D01*
X1003Y593D02*
X1093Y593D01*
X1278Y593D02*
X1281Y593D01*
X1365Y593D02*
X1368Y593D01*
X1406Y593D02*
X1413Y593D01*
X1Y592D02*
X8Y592D01*
X1003Y592D02*
X1093Y592D01*
X1278Y592D02*
X1281Y592D01*
X1365Y592D02*
X1368Y592D01*
X1406Y592D02*
X1413Y592D01*
X1Y591D02*
X8Y591D01*
X1003Y591D02*
X1093Y591D01*
X1278Y591D02*
X1281Y591D01*
X1365Y591D02*
X1368Y591D01*
X1406Y591D02*
X1413Y591D01*
X1Y590D02*
X8Y590D01*
X1278Y590D02*
X1281Y590D01*
X1365Y590D02*
X1368Y590D01*
X1406Y590D02*
X1413Y590D01*
X1Y589D02*
X8Y589D01*
X1278Y589D02*
X1281Y589D01*
X1365Y589D02*
X1368Y589D01*
X1406Y589D02*
X1413Y589D01*
X1Y588D02*
X8Y588D01*
X1278Y588D02*
X1281Y588D01*
X1365Y588D02*
X1368Y588D01*
X1406Y588D02*
X1413Y588D01*
X1Y587D02*
X8Y587D01*
X1278Y587D02*
X1281Y587D01*
X1365Y587D02*
X1368Y587D01*
X1406Y587D02*
X1413Y587D01*
X1Y586D02*
X8Y586D01*
X1278Y586D02*
X1281Y586D01*
X1365Y586D02*
X1368Y586D01*
X1406Y586D02*
X1413Y586D01*
X1Y585D02*
X8Y585D01*
X1278Y585D02*
X1281Y585D01*
X1365Y585D02*
X1368Y585D01*
X1406Y585D02*
X1413Y585D01*
X1Y584D02*
X8Y584D01*
X1278Y584D02*
X1281Y584D01*
X1365Y584D02*
X1368Y584D01*
X1406Y584D02*
X1413Y584D01*
X1Y583D02*
X8Y583D01*
X1278Y583D02*
X1281Y583D01*
X1365Y583D02*
X1368Y583D01*
X1406Y583D02*
X1413Y583D01*
X1Y582D02*
X8Y582D01*
X1278Y582D02*
X1281Y582D01*
X1365Y582D02*
X1368Y582D01*
X1406Y582D02*
X1413Y582D01*
X1Y581D02*
X8Y581D01*
X1278Y581D02*
X1281Y581D01*
X1365Y581D02*
X1368Y581D01*
X1406Y581D02*
X1413Y581D01*
X1Y580D02*
X8Y580D01*
X1278Y580D02*
X1281Y580D01*
X1365Y580D02*
X1368Y580D01*
X1406Y580D02*
X1413Y580D01*
X1Y579D02*
X8Y579D01*
X1278Y579D02*
X1281Y579D01*
X1365Y579D02*
X1368Y579D01*
X1406Y579D02*
X1413Y579D01*
X1Y578D02*
X8Y578D01*
X1278Y578D02*
X1280Y578D01*
X1366Y578D02*
X1368Y578D01*
X1406Y578D02*
X1413Y578D01*
X1Y577D02*
X8Y577D01*
X1278Y577D02*
X1280Y577D01*
X1366Y577D02*
X1368Y577D01*
X1406Y577D02*
X1413Y577D01*
X1Y576D02*
X8Y576D01*
X1278Y576D02*
X1280Y576D01*
X1366Y576D02*
X1368Y576D01*
X1406Y576D02*
X1413Y576D01*
X1Y575D02*
X8Y575D01*
X1278Y575D02*
X1280Y575D01*
X1366Y575D02*
X1368Y575D01*
X1406Y575D02*
X1413Y575D01*
X1Y574D02*
X8Y574D01*
X1278Y574D02*
X1280Y574D01*
X1366Y574D02*
X1368Y574D01*
X1406Y574D02*
X1413Y574D01*
X1Y573D02*
X8Y573D01*
X1278Y573D02*
X1280Y573D01*
X1366Y573D02*
X1368Y573D01*
X1406Y573D02*
X1413Y573D01*
X1Y572D02*
X8Y572D01*
X1278Y572D02*
X1280Y572D01*
X1366Y572D02*
X1368Y572D01*
X1406Y572D02*
X1413Y572D01*
X1Y571D02*
X8Y571D01*
X1278Y571D02*
X1280Y571D01*
X1366Y571D02*
X1368Y571D01*
X1406Y571D02*
X1413Y571D01*
X1Y570D02*
X8Y570D01*
X1278Y570D02*
X1280Y570D01*
X1366Y570D02*
X1368Y570D01*
X1406Y570D02*
X1413Y570D01*
X1Y569D02*
X8Y569D01*
X1278Y569D02*
X1280Y569D01*
X1366Y569D02*
X1368Y569D01*
X1406Y569D02*
X1413Y569D01*
X1Y568D02*
X8Y568D01*
X1278Y568D02*
X1280Y568D01*
X1366Y568D02*
X1368Y568D01*
X1406Y568D02*
X1413Y568D01*
X1Y567D02*
X8Y567D01*
X1278Y567D02*
X1280Y567D01*
X1366Y567D02*
X1368Y567D01*
X1406Y567D02*
X1413Y567D01*
X1Y566D02*
X8Y566D01*
X1278Y566D02*
X1280Y566D01*
X1366Y566D02*
X1368Y566D01*
X1406Y566D02*
X1413Y566D01*
X1Y565D02*
X8Y565D01*
X1278Y565D02*
X1280Y565D01*
X1366Y565D02*
X1368Y565D01*
X1406Y565D02*
X1413Y565D01*
X1Y564D02*
X8Y564D01*
X1278Y564D02*
X1280Y564D01*
X1366Y564D02*
X1368Y564D01*
X1406Y564D02*
X1413Y564D01*
X1Y563D02*
X8Y563D01*
X1278Y563D02*
X1280Y563D01*
X1366Y563D02*
X1368Y563D01*
X1406Y563D02*
X1413Y563D01*
X1Y562D02*
X8Y562D01*
X1278Y562D02*
X1280Y562D01*
X1366Y562D02*
X1368Y562D01*
X1406Y562D02*
X1413Y562D01*
X1Y561D02*
X8Y561D01*
X1278Y561D02*
X1280Y561D01*
X1366Y561D02*
X1368Y561D01*
X1406Y561D02*
X1413Y561D01*
X1Y560D02*
X8Y560D01*
X1278Y560D02*
X1280Y560D01*
X1366Y560D02*
X1368Y560D01*
X1406Y560D02*
X1413Y560D01*
X1Y559D02*
X8Y559D01*
X1278Y559D02*
X1280Y559D01*
X1366Y559D02*
X1368Y559D01*
X1406Y559D02*
X1413Y559D01*
X1Y558D02*
X8Y558D01*
X1278Y558D02*
X1280Y558D01*
X1366Y558D02*
X1368Y558D01*
X1406Y558D02*
X1413Y558D01*
X1Y557D02*
X8Y557D01*
X1278Y557D02*
X1280Y557D01*
X1366Y557D02*
X1368Y557D01*
X1406Y557D02*
X1413Y557D01*
X1Y556D02*
X8Y556D01*
X1278Y556D02*
X1280Y556D01*
X1366Y556D02*
X1368Y556D01*
X1406Y556D02*
X1413Y556D01*
X1Y555D02*
X8Y555D01*
X1278Y555D02*
X1280Y555D01*
X1366Y555D02*
X1368Y555D01*
X1406Y555D02*
X1413Y555D01*
X1Y554D02*
X8Y554D01*
X1278Y554D02*
X1280Y554D01*
X1366Y554D02*
X1368Y554D01*
X1406Y554D02*
X1413Y554D01*
X1Y553D02*
X8Y553D01*
X1278Y553D02*
X1280Y553D01*
X1366Y553D02*
X1368Y553D01*
X1406Y553D02*
X1413Y553D01*
X1Y552D02*
X8Y552D01*
X1278Y552D02*
X1280Y552D01*
X1366Y552D02*
X1368Y552D01*
X1406Y552D02*
X1413Y552D01*
X1Y551D02*
X8Y551D01*
X1278Y551D02*
X1280Y551D01*
X1366Y551D02*
X1368Y551D01*
X1406Y551D02*
X1413Y551D01*
X1Y550D02*
X8Y550D01*
X1278Y550D02*
X1280Y550D01*
X1366Y550D02*
X1368Y550D01*
X1406Y550D02*
X1413Y550D01*
X1Y549D02*
X8Y549D01*
X1278Y549D02*
X1280Y549D01*
X1366Y549D02*
X1368Y549D01*
X1406Y549D02*
X1413Y549D01*
X1Y548D02*
X8Y548D01*
X1278Y548D02*
X1280Y548D01*
X1366Y548D02*
X1368Y548D01*
X1406Y548D02*
X1413Y548D01*
X1Y547D02*
X8Y547D01*
X1278Y547D02*
X1280Y547D01*
X1366Y547D02*
X1368Y547D01*
X1406Y547D02*
X1413Y547D01*
X1Y546D02*
X8Y546D01*
X1278Y546D02*
X1280Y546D01*
X1366Y546D02*
X1368Y546D01*
X1406Y546D02*
X1413Y546D01*
X1Y545D02*
X8Y545D01*
X1278Y545D02*
X1280Y545D01*
X1366Y545D02*
X1368Y545D01*
X1406Y545D02*
X1413Y545D01*
X1Y544D02*
X8Y544D01*
X1278Y544D02*
X1280Y544D01*
X1366Y544D02*
X1368Y544D01*
X1406Y544D02*
X1413Y544D01*
X1Y543D02*
X8Y543D01*
X1278Y543D02*
X1280Y543D01*
X1366Y543D02*
X1368Y543D01*
X1406Y543D02*
X1413Y543D01*
X1Y542D02*
X8Y542D01*
X1278Y542D02*
X1280Y542D01*
X1366Y542D02*
X1368Y542D01*
X1406Y542D02*
X1413Y542D01*
X1Y541D02*
X8Y541D01*
X1278Y541D02*
X1280Y541D01*
X1366Y541D02*
X1368Y541D01*
X1406Y541D02*
X1413Y541D01*
X1Y540D02*
X8Y540D01*
X1278Y540D02*
X1280Y540D01*
X1366Y540D02*
X1368Y540D01*
X1406Y540D02*
X1413Y540D01*
X1Y539D02*
X8Y539D01*
X1278Y539D02*
X1280Y539D01*
X1366Y539D02*
X1368Y539D01*
X1406Y539D02*
X1413Y539D01*
X1Y538D02*
X8Y538D01*
X1278Y538D02*
X1280Y538D01*
X1366Y538D02*
X1368Y538D01*
X1406Y538D02*
X1413Y538D01*
X1Y537D02*
X8Y537D01*
X1278Y537D02*
X1280Y537D01*
X1366Y537D02*
X1368Y537D01*
X1406Y537D02*
X1413Y537D01*
X1Y536D02*
X8Y536D01*
X1278Y536D02*
X1280Y536D01*
X1366Y536D02*
X1368Y536D01*
X1406Y536D02*
X1413Y536D01*
X1Y535D02*
X8Y535D01*
X1278Y535D02*
X1280Y535D01*
X1366Y535D02*
X1368Y535D01*
X1406Y535D02*
X1413Y535D01*
X1Y534D02*
X8Y534D01*
X1278Y534D02*
X1280Y534D01*
X1366Y534D02*
X1368Y534D01*
X1406Y534D02*
X1413Y534D01*
X1Y533D02*
X8Y533D01*
X1278Y533D02*
X1280Y533D01*
X1366Y533D02*
X1368Y533D01*
X1406Y533D02*
X1413Y533D01*
X1Y532D02*
X8Y532D01*
X1278Y532D02*
X1280Y532D01*
X1366Y532D02*
X1368Y532D01*
X1406Y532D02*
X1413Y532D01*
X1Y531D02*
X8Y531D01*
X1278Y531D02*
X1280Y531D01*
X1366Y531D02*
X1368Y531D01*
X1406Y531D02*
X1413Y531D01*
X1Y530D02*
X8Y530D01*
X1278Y530D02*
X1280Y530D01*
X1366Y530D02*
X1368Y530D01*
X1406Y530D02*
X1413Y530D01*
X1Y529D02*
X8Y529D01*
X1278Y529D02*
X1280Y529D01*
X1366Y529D02*
X1368Y529D01*
X1406Y529D02*
X1413Y529D01*
X1Y528D02*
X8Y528D01*
X1278Y528D02*
X1280Y528D01*
X1366Y528D02*
X1368Y528D01*
X1406Y528D02*
X1413Y528D01*
X1Y527D02*
X8Y527D01*
X1278Y527D02*
X1280Y527D01*
X1366Y527D02*
X1368Y527D01*
X1406Y527D02*
X1413Y527D01*
X1Y526D02*
X8Y526D01*
X1278Y526D02*
X1280Y526D01*
X1366Y526D02*
X1368Y526D01*
X1406Y526D02*
X1413Y526D01*
X1Y525D02*
X8Y525D01*
X1278Y525D02*
X1280Y525D01*
X1366Y525D02*
X1368Y525D01*
X1406Y525D02*
X1413Y525D01*
X1Y524D02*
X8Y524D01*
X1278Y524D02*
X1280Y524D01*
X1366Y524D02*
X1368Y524D01*
X1406Y524D02*
X1413Y524D01*
X1Y523D02*
X8Y523D01*
X1278Y523D02*
X1280Y523D01*
X1366Y523D02*
X1368Y523D01*
X1406Y523D02*
X1413Y523D01*
X1Y522D02*
X8Y522D01*
X1278Y522D02*
X1280Y522D01*
X1366Y522D02*
X1368Y522D01*
X1406Y522D02*
X1413Y522D01*
X1Y521D02*
X8Y521D01*
X1278Y521D02*
X1280Y521D01*
X1366Y521D02*
X1368Y521D01*
X1406Y521D02*
X1413Y521D01*
X1Y520D02*
X8Y520D01*
X1278Y520D02*
X1280Y520D01*
X1366Y520D02*
X1368Y520D01*
X1406Y520D02*
X1413Y520D01*
X1Y519D02*
X8Y519D01*
X1278Y519D02*
X1280Y519D01*
X1366Y519D02*
X1368Y519D01*
X1406Y519D02*
X1413Y519D01*
X1Y518D02*
X8Y518D01*
X1278Y518D02*
X1280Y518D01*
X1366Y518D02*
X1368Y518D01*
X1406Y518D02*
X1413Y518D01*
X1Y517D02*
X8Y517D01*
X1278Y517D02*
X1280Y517D01*
X1366Y517D02*
X1368Y517D01*
X1406Y517D02*
X1413Y517D01*
X1Y516D02*
X8Y516D01*
X1278Y516D02*
X1280Y516D01*
X1366Y516D02*
X1368Y516D01*
X1406Y516D02*
X1413Y516D01*
X1Y515D02*
X8Y515D01*
X1278Y515D02*
X1280Y515D01*
X1366Y515D02*
X1368Y515D01*
X1406Y515D02*
X1413Y515D01*
X1Y514D02*
X8Y514D01*
X1278Y514D02*
X1280Y514D01*
X1366Y514D02*
X1368Y514D01*
X1406Y514D02*
X1413Y514D01*
X1Y513D02*
X8Y513D01*
X1278Y513D02*
X1280Y513D01*
X1366Y513D02*
X1368Y513D01*
X1406Y513D02*
X1413Y513D01*
X1Y512D02*
X8Y512D01*
X1278Y512D02*
X1280Y512D01*
X1366Y512D02*
X1368Y512D01*
X1406Y512D02*
X1413Y512D01*
X1Y511D02*
X8Y511D01*
X1278Y511D02*
X1280Y511D01*
X1366Y511D02*
X1368Y511D01*
X1406Y511D02*
X1413Y511D01*
X1Y510D02*
X8Y510D01*
X1278Y510D02*
X1280Y510D01*
X1366Y510D02*
X1368Y510D01*
X1406Y510D02*
X1413Y510D01*
X1Y509D02*
X8Y509D01*
X1278Y509D02*
X1280Y509D01*
X1366Y509D02*
X1368Y509D01*
X1406Y509D02*
X1413Y509D01*
X1Y508D02*
X8Y508D01*
X1278Y508D02*
X1280Y508D01*
X1366Y508D02*
X1368Y508D01*
X1406Y508D02*
X1413Y508D01*
X1Y507D02*
X8Y507D01*
X1278Y507D02*
X1280Y507D01*
X1366Y507D02*
X1368Y507D01*
X1406Y507D02*
X1413Y507D01*
X1Y506D02*
X8Y506D01*
X1278Y506D02*
X1280Y506D01*
X1365Y506D02*
X1368Y506D01*
X1406Y506D02*
X1413Y506D01*
X1Y505D02*
X8Y505D01*
X1278Y505D02*
X1368Y505D01*
X1406Y505D02*
X1413Y505D01*
X1Y504D02*
X8Y504D01*
X1278Y504D02*
X1368Y504D01*
X1406Y504D02*
X1413Y504D01*
X1Y503D02*
X8Y503D01*
X1406Y503D02*
X1413Y503D01*
X1Y502D02*
X8Y502D01*
X1406Y502D02*
X1413Y502D01*
X1Y501D02*
X8Y501D01*
X1406Y501D02*
X1413Y501D01*
X1Y500D02*
X8Y500D01*
X1406Y500D02*
X1413Y500D01*
X1Y499D02*
X8Y499D01*
X1406Y499D02*
X1413Y499D01*
X1Y498D02*
X8Y498D01*
X1406Y498D02*
X1413Y498D01*
X1Y497D02*
X8Y497D01*
X1406Y497D02*
X1413Y497D01*
X1Y496D02*
X8Y496D01*
X1406Y496D02*
X1413Y496D01*
X1Y495D02*
X8Y495D01*
X1406Y495D02*
X1413Y495D01*
X1Y494D02*
X8Y494D01*
X1406Y494D02*
X1413Y494D01*
X1Y493D02*
X8Y493D01*
X1406Y493D02*
X1413Y493D01*
X1Y492D02*
X8Y492D01*
X1406Y492D02*
X1413Y492D01*
X1Y491D02*
X8Y491D01*
X1406Y491D02*
X1413Y491D01*
X1Y490D02*
X8Y490D01*
X1406Y490D02*
X1413Y490D01*
X1Y489D02*
X8Y489D01*
X1406Y489D02*
X1413Y489D01*
X1Y488D02*
X8Y488D01*
X1406Y488D02*
X1413Y488D01*
X1Y487D02*
X8Y487D01*
X1406Y487D02*
X1413Y487D01*
X1Y486D02*
X8Y486D01*
X1406Y486D02*
X1413Y486D01*
X1Y485D02*
X8Y485D01*
X1406Y485D02*
X1413Y485D01*
X1Y484D02*
X8Y484D01*
X1406Y484D02*
X1413Y484D01*
X1Y483D02*
X8Y483D01*
X1406Y483D02*
X1413Y483D01*
X1Y482D02*
X8Y482D01*
X1406Y482D02*
X1413Y482D01*
X1Y481D02*
X8Y481D01*
X1406Y481D02*
X1413Y481D01*
X1Y480D02*
X8Y480D01*
X1406Y480D02*
X1413Y480D01*
X1Y479D02*
X8Y479D01*
X1406Y479D02*
X1413Y479D01*
X1Y478D02*
X8Y478D01*
X1406Y478D02*
X1413Y478D01*
X1Y477D02*
X8Y477D01*
X1406Y477D02*
X1413Y477D01*
X1Y476D02*
X8Y476D01*
X1406Y476D02*
X1413Y476D01*
X1Y475D02*
X8Y475D01*
X1406Y475D02*
X1413Y475D01*
X1Y474D02*
X8Y474D01*
X1406Y474D02*
X1413Y474D01*
X1Y473D02*
X8Y473D01*
X1406Y473D02*
X1413Y473D01*
X1Y472D02*
X8Y472D01*
X1406Y472D02*
X1413Y472D01*
X1Y471D02*
X8Y471D01*
X1406Y471D02*
X1413Y471D01*
X1Y470D02*
X8Y470D01*
X1406Y470D02*
X1413Y470D01*
X1Y469D02*
X8Y469D01*
X1406Y469D02*
X1413Y469D01*
X1Y468D02*
X8Y468D01*
X1406Y468D02*
X1413Y468D01*
X1Y467D02*
X8Y467D01*
X1406Y467D02*
X1413Y467D01*
X1Y466D02*
X8Y466D01*
X1406Y466D02*
X1413Y466D01*
X1Y465D02*
X8Y465D01*
X1406Y465D02*
X1413Y465D01*
X1Y464D02*
X8Y464D01*
X1406Y464D02*
X1413Y464D01*
X1Y463D02*
X8Y463D01*
X1406Y463D02*
X1413Y463D01*
X1Y462D02*
X8Y462D01*
X1406Y462D02*
X1413Y462D01*
X1Y461D02*
X8Y461D01*
X1406Y461D02*
X1413Y461D01*
X1Y460D02*
X8Y460D01*
X1406Y460D02*
X1413Y460D01*
X1Y459D02*
X8Y459D01*
X1406Y459D02*
X1413Y459D01*
X1Y458D02*
X8Y458D01*
X1406Y458D02*
X1413Y458D01*
X1Y457D02*
X8Y457D01*
X1406Y457D02*
X1413Y457D01*
X1Y456D02*
X8Y456D01*
X1406Y456D02*
X1413Y456D01*
X1Y455D02*
X8Y455D01*
X1406Y455D02*
X1413Y455D01*
X1Y454D02*
X8Y454D01*
X1406Y454D02*
X1413Y454D01*
X1Y453D02*
X8Y453D01*
X1406Y453D02*
X1413Y453D01*
X1Y452D02*
X8Y452D01*
X1406Y452D02*
X1413Y452D01*
X1Y451D02*
X8Y451D01*
X1406Y451D02*
X1413Y451D01*
X1Y450D02*
X8Y450D01*
X1406Y450D02*
X1413Y450D01*
X1Y449D02*
X8Y449D01*
X1406Y449D02*
X1413Y449D01*
X1Y448D02*
X8Y448D01*
X1406Y448D02*
X1413Y448D01*
X1Y447D02*
X8Y447D01*
X1406Y447D02*
X1413Y447D01*
X1Y446D02*
X8Y446D01*
X1406Y446D02*
X1413Y446D01*
X1Y445D02*
X8Y445D01*
X1406Y445D02*
X1413Y445D01*
X1Y444D02*
X8Y444D01*
X1406Y444D02*
X1413Y444D01*
X1Y443D02*
X8Y443D01*
X1406Y443D02*
X1413Y443D01*
X1Y442D02*
X8Y442D01*
X1406Y442D02*
X1413Y442D01*
X1Y441D02*
X8Y441D01*
X1406Y441D02*
X1413Y441D01*
X1Y440D02*
X8Y440D01*
X1406Y440D02*
X1413Y440D01*
X1Y439D02*
X8Y439D01*
X1406Y439D02*
X1413Y439D01*
X1Y438D02*
X8Y438D01*
X1406Y438D02*
X1413Y438D01*
X1Y437D02*
X8Y437D01*
X1406Y437D02*
X1413Y437D01*
X1Y436D02*
X8Y436D01*
X1406Y436D02*
X1413Y436D01*
X1Y435D02*
X8Y435D01*
X1406Y435D02*
X1413Y435D01*
X1Y434D02*
X8Y434D01*
X1406Y434D02*
X1413Y434D01*
X1Y433D02*
X8Y433D01*
X1406Y433D02*
X1413Y433D01*
X1Y432D02*
X8Y432D01*
X1406Y432D02*
X1413Y432D01*
X1Y431D02*
X8Y431D01*
X1406Y431D02*
X1413Y431D01*
X1Y430D02*
X8Y430D01*
X1406Y430D02*
X1413Y430D01*
X1Y429D02*
X8Y429D01*
X1406Y429D02*
X1413Y429D01*
X1Y428D02*
X8Y428D01*
X1406Y428D02*
X1413Y428D01*
X1Y427D02*
X8Y427D01*
X1406Y427D02*
X1413Y427D01*
X1Y426D02*
X8Y426D01*
X1406Y426D02*
X1413Y426D01*
X1Y425D02*
X8Y425D01*
X1406Y425D02*
X1413Y425D01*
X1Y424D02*
X8Y424D01*
X1406Y424D02*
X1413Y424D01*
X1Y423D02*
X8Y423D01*
X1406Y423D02*
X1413Y423D01*
X1Y422D02*
X8Y422D01*
X1406Y422D02*
X1413Y422D01*
X1Y421D02*
X8Y421D01*
X1406Y421D02*
X1413Y421D01*
X1Y420D02*
X8Y420D01*
X1406Y420D02*
X1413Y420D01*
X1Y419D02*
X8Y419D01*
X1406Y419D02*
X1413Y419D01*
X1Y418D02*
X8Y418D01*
X1406Y418D02*
X1413Y418D01*
X1Y417D02*
X8Y417D01*
X1406Y417D02*
X1413Y417D01*
X1Y416D02*
X8Y416D01*
X1406Y416D02*
X1413Y416D01*
X1Y415D02*
X8Y415D01*
X1406Y415D02*
X1413Y415D01*
X1Y414D02*
X8Y414D01*
X1406Y414D02*
X1413Y414D01*
X1Y413D02*
X8Y413D01*
X1406Y413D02*
X1413Y413D01*
X1Y412D02*
X8Y412D01*
X1406Y412D02*
X1413Y412D01*
X1Y411D02*
X8Y411D01*
X1406Y411D02*
X1413Y411D01*
X1Y410D02*
X8Y410D01*
X1406Y410D02*
X1413Y410D01*
X1Y409D02*
X8Y409D01*
X1406Y409D02*
X1413Y409D01*
X1Y408D02*
X8Y408D01*
X1406Y408D02*
X1413Y408D01*
X1Y407D02*
X8Y407D01*
X1406Y407D02*
X1413Y407D01*
X1Y406D02*
X8Y406D01*
X1406Y406D02*
X1413Y406D01*
X1Y405D02*
X8Y405D01*
X1406Y405D02*
X1413Y405D01*
X1Y404D02*
X8Y404D01*
X1406Y404D02*
X1413Y404D01*
X1Y403D02*
X8Y403D01*
X1406Y403D02*
X1413Y403D01*
X1Y402D02*
X8Y402D01*
X1406Y402D02*
X1413Y402D01*
X1Y401D02*
X8Y401D01*
X1406Y401D02*
X1413Y401D01*
X1Y400D02*
X8Y400D01*
X1406Y400D02*
X1413Y400D01*
X1Y399D02*
X8Y399D01*
X1406Y399D02*
X1413Y399D01*
X1Y398D02*
X8Y398D01*
X1406Y398D02*
X1413Y398D01*
X1Y397D02*
X8Y397D01*
X1406Y397D02*
X1413Y397D01*
X1Y396D02*
X8Y396D01*
X1406Y396D02*
X1413Y396D01*
X1Y395D02*
X8Y395D01*
X1406Y395D02*
X1413Y395D01*
X1Y394D02*
X8Y394D01*
X1406Y394D02*
X1413Y394D01*
X1Y393D02*
X8Y393D01*
X1406Y393D02*
X1413Y393D01*
X1Y392D02*
X8Y392D01*
X1406Y392D02*
X1413Y392D01*
X1Y391D02*
X8Y391D01*
X1406Y391D02*
X1413Y391D01*
X1Y390D02*
X8Y390D01*
X1406Y390D02*
X1413Y390D01*
X1Y389D02*
X8Y389D01*
X1406Y389D02*
X1413Y389D01*
X1Y388D02*
X8Y388D01*
X1406Y388D02*
X1413Y388D01*
X1Y387D02*
X8Y387D01*
X1406Y387D02*
X1413Y387D01*
X1Y386D02*
X8Y386D01*
X1406Y386D02*
X1413Y386D01*
X1Y385D02*
X8Y385D01*
X1406Y385D02*
X1413Y385D01*
X1Y384D02*
X8Y384D01*
X1406Y384D02*
X1413Y384D01*
X1Y383D02*
X8Y383D01*
X1406Y383D02*
X1413Y383D01*
X1Y382D02*
X8Y382D01*
X1406Y382D02*
X1413Y382D01*
X1Y381D02*
X8Y381D01*
X1406Y381D02*
X1413Y381D01*
X1Y380D02*
X8Y380D01*
X1406Y380D02*
X1413Y380D01*
X1Y379D02*
X8Y379D01*
X1406Y379D02*
X1413Y379D01*
X1Y378D02*
X8Y378D01*
X1406Y378D02*
X1413Y378D01*
X1Y377D02*
X8Y377D01*
X1406Y377D02*
X1413Y377D01*
X1Y376D02*
X8Y376D01*
X1406Y376D02*
X1413Y376D01*
X1Y375D02*
X8Y375D01*
X1406Y375D02*
X1413Y375D01*
X1Y374D02*
X8Y374D01*
X1406Y374D02*
X1413Y374D01*
X1Y373D02*
X8Y373D01*
X1406Y373D02*
X1413Y373D01*
X1Y372D02*
X8Y372D01*
X1406Y372D02*
X1413Y372D01*
X1Y371D02*
X8Y371D01*
X1406Y371D02*
X1413Y371D01*
X1Y370D02*
X8Y370D01*
X1406Y370D02*
X1413Y370D01*
X1Y369D02*
X8Y369D01*
X1406Y369D02*
X1413Y369D01*
X1Y368D02*
X8Y368D01*
X1406Y368D02*
X1413Y368D01*
X1Y367D02*
X8Y367D01*
X1406Y367D02*
X1413Y367D01*
X1Y366D02*
X8Y366D01*
X1406Y366D02*
X1413Y366D01*
X1Y365D02*
X8Y365D01*
X1406Y365D02*
X1413Y365D01*
X1Y364D02*
X8Y364D01*
X1406Y364D02*
X1413Y364D01*
X1Y363D02*
X8Y363D01*
X1406Y363D02*
X1413Y363D01*
X1Y362D02*
X8Y362D01*
X1406Y362D02*
X1413Y362D01*
X1Y361D02*
X8Y361D01*
X1406Y361D02*
X1413Y361D01*
X1Y360D02*
X8Y360D01*
X1406Y360D02*
X1413Y360D01*
X1Y359D02*
X8Y359D01*
X1406Y359D02*
X1413Y359D01*
X1Y358D02*
X8Y358D01*
X1406Y358D02*
X1413Y358D01*
X1Y357D02*
X8Y357D01*
X1406Y357D02*
X1413Y357D01*
X1Y356D02*
X8Y356D01*
X1406Y356D02*
X1413Y356D01*
X1Y355D02*
X8Y355D01*
X1406Y355D02*
X1413Y355D01*
X1Y354D02*
X8Y354D01*
X1406Y354D02*
X1413Y354D01*
X1Y353D02*
X8Y353D01*
X1406Y353D02*
X1413Y353D01*
X1Y352D02*
X8Y352D01*
X1406Y352D02*
X1413Y352D01*
X1Y351D02*
X8Y351D01*
X1406Y351D02*
X1413Y351D01*
X1Y350D02*
X8Y350D01*
X1406Y350D02*
X1413Y350D01*
X1Y349D02*
X8Y349D01*
X1406Y349D02*
X1413Y349D01*
X1Y348D02*
X8Y348D01*
X1406Y348D02*
X1413Y348D01*
X1Y347D02*
X8Y347D01*
X1406Y347D02*
X1413Y347D01*
X1Y346D02*
X8Y346D01*
X1406Y346D02*
X1413Y346D01*
X1Y345D02*
X8Y345D01*
X1406Y345D02*
X1413Y345D01*
X1Y344D02*
X8Y344D01*
X1406Y344D02*
X1413Y344D01*
X1Y343D02*
X8Y343D01*
X1406Y343D02*
X1413Y343D01*
X1Y342D02*
X8Y342D01*
X1406Y342D02*
X1413Y342D01*
X1Y341D02*
X8Y341D01*
X1406Y341D02*
X1413Y341D01*
X1Y340D02*
X8Y340D01*
X1406Y340D02*
X1413Y340D01*
X1Y339D02*
X8Y339D01*
X1406Y339D02*
X1413Y339D01*
X1Y338D02*
X8Y338D01*
X1406Y338D02*
X1413Y338D01*
X1Y337D02*
X8Y337D01*
X1406Y337D02*
X1413Y337D01*
X1Y336D02*
X8Y336D01*
X1406Y336D02*
X1413Y336D01*
X1Y335D02*
X8Y335D01*
X1406Y335D02*
X1413Y335D01*
X1Y334D02*
X8Y334D01*
X1406Y334D02*
X1413Y334D01*
X1Y333D02*
X8Y333D01*
X1406Y333D02*
X1413Y333D01*
X1Y332D02*
X8Y332D01*
X1406Y332D02*
X1413Y332D01*
X1Y331D02*
X8Y331D01*
X1406Y331D02*
X1413Y331D01*
X1Y330D02*
X8Y330D01*
X1406Y330D02*
X1413Y330D01*
X1Y329D02*
X8Y329D01*
X1406Y329D02*
X1413Y329D01*
X1Y328D02*
X8Y328D01*
X1406Y328D02*
X1413Y328D01*
X1Y327D02*
X8Y327D01*
X1406Y327D02*
X1413Y327D01*
X1Y326D02*
X8Y326D01*
X1406Y326D02*
X1413Y326D01*
X1Y325D02*
X8Y325D01*
X1406Y325D02*
X1413Y325D01*
X1Y324D02*
X8Y324D01*
X1406Y324D02*
X1413Y324D01*
X1Y323D02*
X8Y323D01*
X1406Y323D02*
X1413Y323D01*
X1Y322D02*
X8Y322D01*
X1406Y322D02*
X1413Y322D01*
X1Y321D02*
X8Y321D01*
X1406Y321D02*
X1413Y321D01*
X1Y320D02*
X8Y320D01*
X1406Y320D02*
X1413Y320D01*
X1Y319D02*
X8Y319D01*
X1406Y319D02*
X1413Y319D01*
X1Y318D02*
X8Y318D01*
X1406Y318D02*
X1413Y318D01*
X1Y317D02*
X8Y317D01*
X1406Y317D02*
X1413Y317D01*
X1Y316D02*
X8Y316D01*
X1406Y316D02*
X1413Y316D01*
X1Y315D02*
X8Y315D01*
X1406Y315D02*
X1413Y315D01*
X1Y314D02*
X8Y314D01*
X1406Y314D02*
X1413Y314D01*
X1Y313D02*
X8Y313D01*
X1406Y313D02*
X1413Y313D01*
X1Y312D02*
X8Y312D01*
X1406Y312D02*
X1413Y312D01*
X1Y311D02*
X8Y311D01*
X1406Y311D02*
X1413Y311D01*
X1Y310D02*
X8Y310D01*
X1406Y310D02*
X1413Y310D01*
X1Y309D02*
X8Y309D01*
X1406Y309D02*
X1413Y309D01*
X1Y308D02*
X8Y308D01*
X1406Y308D02*
X1413Y308D01*
X1Y307D02*
X8Y307D01*
X1406Y307D02*
X1413Y307D01*
X1Y306D02*
X8Y306D01*
X1406Y306D02*
X1413Y306D01*
X1Y305D02*
X8Y305D01*
X1406Y305D02*
X1413Y305D01*
X1Y304D02*
X8Y304D01*
X1406Y304D02*
X1413Y304D01*
X1Y303D02*
X8Y303D01*
X1406Y303D02*
X1413Y303D01*
X1Y302D02*
X8Y302D01*
X1406Y302D02*
X1413Y302D01*
X1Y301D02*
X8Y301D01*
X1406Y301D02*
X1413Y301D01*
X1Y300D02*
X8Y300D01*
X1406Y300D02*
X1413Y300D01*
X1Y299D02*
X8Y299D01*
X1406Y299D02*
X1413Y299D01*
X1Y298D02*
X8Y298D01*
X1406Y298D02*
X1413Y298D01*
X1Y297D02*
X8Y297D01*
X1406Y297D02*
X1413Y297D01*
X1Y296D02*
X8Y296D01*
X1406Y296D02*
X1413Y296D01*
X1Y295D02*
X8Y295D01*
X1406Y295D02*
X1413Y295D01*
X1Y294D02*
X8Y294D01*
X1406Y294D02*
X1413Y294D01*
X1Y293D02*
X8Y293D01*
X1406Y293D02*
X1413Y293D01*
X1Y292D02*
X8Y292D01*
X1406Y292D02*
X1413Y292D01*
X1Y291D02*
X8Y291D01*
X1406Y291D02*
X1413Y291D01*
X1Y290D02*
X8Y290D01*
X1406Y290D02*
X1413Y290D01*
X1Y289D02*
X8Y289D01*
X1406Y289D02*
X1413Y289D01*
X1Y288D02*
X8Y288D01*
X1406Y288D02*
X1413Y288D01*
X1Y287D02*
X8Y287D01*
X1406Y287D02*
X1413Y287D01*
X1Y286D02*
X8Y286D01*
X1406Y286D02*
X1413Y286D01*
X1Y285D02*
X8Y285D01*
X1406Y285D02*
X1413Y285D01*
X1Y284D02*
X8Y284D01*
X1406Y284D02*
X1413Y284D01*
X1Y283D02*
X8Y283D01*
X1406Y283D02*
X1413Y283D01*
X1Y282D02*
X8Y282D01*
X1406Y282D02*
X1413Y282D01*
X1Y281D02*
X8Y281D01*
X1406Y281D02*
X1413Y281D01*
X1Y280D02*
X8Y280D01*
X1406Y280D02*
X1413Y280D01*
X1Y279D02*
X8Y279D01*
X1406Y279D02*
X1413Y279D01*
X1Y278D02*
X8Y278D01*
X1406Y278D02*
X1413Y278D01*
X1Y277D02*
X8Y277D01*
X1406Y277D02*
X1413Y277D01*
X1Y276D02*
X8Y276D01*
X1406Y276D02*
X1413Y276D01*
X1Y275D02*
X8Y275D01*
X1406Y275D02*
X1413Y275D01*
X1Y274D02*
X8Y274D01*
X1406Y274D02*
X1413Y274D01*
X1Y273D02*
X8Y273D01*
X1406Y273D02*
X1413Y273D01*
X1Y272D02*
X8Y272D01*
X1406Y272D02*
X1413Y272D01*
X1Y271D02*
X8Y271D01*
X1406Y271D02*
X1413Y271D01*
X1Y270D02*
X8Y270D01*
X1406Y270D02*
X1413Y270D01*
X1Y269D02*
X8Y269D01*
X1406Y269D02*
X1413Y269D01*
X1Y268D02*
X8Y268D01*
X1406Y268D02*
X1413Y268D01*
X1Y267D02*
X8Y267D01*
X1406Y267D02*
X1413Y267D01*
X1Y266D02*
X8Y266D01*
X1406Y266D02*
X1413Y266D01*
X1Y265D02*
X8Y265D01*
X1406Y265D02*
X1413Y265D01*
X1Y264D02*
X8Y264D01*
X1406Y264D02*
X1413Y264D01*
X1Y263D02*
X8Y263D01*
X1406Y263D02*
X1413Y263D01*
X1Y262D02*
X8Y262D01*
X1406Y262D02*
X1413Y262D01*
X1Y261D02*
X8Y261D01*
X1406Y261D02*
X1413Y261D01*
X1Y260D02*
X8Y260D01*
X1406Y260D02*
X1413Y260D01*
X1Y259D02*
X8Y259D01*
X1406Y259D02*
X1413Y259D01*
X1Y258D02*
X8Y258D01*
X1406Y258D02*
X1413Y258D01*
X1Y257D02*
X8Y257D01*
X1406Y257D02*
X1413Y257D01*
X1Y256D02*
X8Y256D01*
X1406Y256D02*
X1413Y256D01*
X1Y255D02*
X8Y255D01*
X1406Y255D02*
X1413Y255D01*
X1Y254D02*
X8Y254D01*
X1406Y254D02*
X1413Y254D01*
X1Y253D02*
X8Y253D01*
X1406Y253D02*
X1413Y253D01*
X1Y252D02*
X8Y252D01*
X1406Y252D02*
X1413Y252D01*
X1Y251D02*
X8Y251D01*
X1406Y251D02*
X1413Y251D01*
X1Y250D02*
X8Y250D01*
X1406Y250D02*
X1413Y250D01*
X1Y249D02*
X8Y249D01*
X1406Y249D02*
X1413Y249D01*
X1Y248D02*
X8Y248D01*
X1406Y248D02*
X1413Y248D01*
X1Y247D02*
X8Y247D01*
X1406Y247D02*
X1413Y247D01*
X1Y246D02*
X8Y246D01*
X1406Y246D02*
X1413Y246D01*
X1Y245D02*
X8Y245D01*
X1406Y245D02*
X1413Y245D01*
X1Y244D02*
X8Y244D01*
X1406Y244D02*
X1413Y244D01*
X1Y243D02*
X8Y243D01*
X1406Y243D02*
X1413Y243D01*
X1Y242D02*
X8Y242D01*
X1406Y242D02*
X1413Y242D01*
X1Y241D02*
X8Y241D01*
X1406Y241D02*
X1413Y241D01*
X1Y240D02*
X8Y240D01*
X1406Y240D02*
X1413Y240D01*
X1Y239D02*
X8Y239D01*
X1406Y239D02*
X1413Y239D01*
X1Y238D02*
X8Y238D01*
X1406Y238D02*
X1413Y238D01*
X1Y237D02*
X8Y237D01*
X1406Y237D02*
X1413Y237D01*
X1Y236D02*
X8Y236D01*
X1406Y236D02*
X1413Y236D01*
X1Y235D02*
X8Y235D01*
X1406Y235D02*
X1413Y235D01*
X1Y234D02*
X8Y234D01*
X1406Y234D02*
X1413Y234D01*
X1Y233D02*
X8Y233D01*
X1406Y233D02*
X1413Y233D01*
X1Y232D02*
X8Y232D01*
X1406Y232D02*
X1413Y232D01*
X1Y231D02*
X8Y231D01*
X1406Y231D02*
X1413Y231D01*
X1Y230D02*
X8Y230D01*
X1406Y230D02*
X1413Y230D01*
X1Y229D02*
X8Y229D01*
X1406Y229D02*
X1413Y229D01*
X1Y228D02*
X8Y228D01*
X1406Y228D02*
X1413Y228D01*
X1Y227D02*
X8Y227D01*
X1406Y227D02*
X1413Y227D01*
X1Y226D02*
X8Y226D01*
X1406Y226D02*
X1413Y226D01*
X1Y225D02*
X8Y225D01*
X1406Y225D02*
X1413Y225D01*
X1Y224D02*
X8Y224D01*
X1406Y224D02*
X1413Y224D01*
X1Y223D02*
X8Y223D01*
X1406Y223D02*
X1413Y223D01*
X1Y222D02*
X8Y222D01*
X1406Y222D02*
X1413Y222D01*
X1Y221D02*
X8Y221D01*
X1406Y221D02*
X1413Y221D01*
X1Y220D02*
X8Y220D01*
X1406Y220D02*
X1413Y220D01*
X1Y219D02*
X8Y219D01*
X1406Y219D02*
X1413Y219D01*
X1Y218D02*
X8Y218D01*
X1406Y218D02*
X1413Y218D01*
X1Y217D02*
X8Y217D01*
X1406Y217D02*
X1413Y217D01*
X1Y216D02*
X8Y216D01*
X1406Y216D02*
X1413Y216D01*
X1Y215D02*
X8Y215D01*
X1406Y215D02*
X1413Y215D01*
X1Y214D02*
X8Y214D01*
X1406Y214D02*
X1413Y214D01*
X1Y213D02*
X8Y213D01*
X1406Y213D02*
X1413Y213D01*
X1Y212D02*
X8Y212D01*
X1406Y212D02*
X1413Y212D01*
X1Y211D02*
X8Y211D01*
X1406Y211D02*
X1413Y211D01*
X1Y210D02*
X8Y210D01*
X1406Y210D02*
X1413Y210D01*
X1Y209D02*
X8Y209D01*
X1406Y209D02*
X1413Y209D01*
X1Y208D02*
X8Y208D01*
X1406Y208D02*
X1413Y208D01*
X1Y207D02*
X8Y207D01*
X1406Y207D02*
X1413Y207D01*
X1Y206D02*
X8Y206D01*
X1406Y206D02*
X1413Y206D01*
X1Y205D02*
X8Y205D01*
X1406Y205D02*
X1413Y205D01*
X1Y204D02*
X8Y204D01*
X1406Y204D02*
X1413Y204D01*
X1Y203D02*
X8Y203D01*
X1406Y203D02*
X1413Y203D01*
X1Y202D02*
X8Y202D01*
X1406Y202D02*
X1413Y202D01*
X1Y201D02*
X8Y201D01*
X1406Y201D02*
X1413Y201D01*
X1Y200D02*
X8Y200D01*
X1406Y200D02*
X1413Y200D01*
X1Y199D02*
X8Y199D01*
X1406Y199D02*
X1413Y199D01*
X1Y198D02*
X8Y198D01*
X1406Y198D02*
X1413Y198D01*
X1Y197D02*
X8Y197D01*
X1406Y197D02*
X1413Y197D01*
X1Y196D02*
X8Y196D01*
X1406Y196D02*
X1413Y196D01*
X1Y195D02*
X8Y195D01*
X1406Y195D02*
X1413Y195D01*
X1Y194D02*
X8Y194D01*
X1406Y194D02*
X1413Y194D01*
X1Y193D02*
X8Y193D01*
X1406Y193D02*
X1413Y193D01*
X1Y192D02*
X8Y192D01*
X1406Y192D02*
X1413Y192D01*
X1Y191D02*
X8Y191D01*
X1406Y191D02*
X1413Y191D01*
X1Y190D02*
X8Y190D01*
X1406Y190D02*
X1413Y190D01*
X1Y189D02*
X8Y189D01*
X1406Y189D02*
X1413Y189D01*
X1Y188D02*
X8Y188D01*
X1406Y188D02*
X1413Y188D01*
X1Y187D02*
X8Y187D01*
X1406Y187D02*
X1413Y187D01*
X1Y186D02*
X8Y186D01*
X1406Y186D02*
X1413Y186D01*
X1Y185D02*
X8Y185D01*
X1406Y185D02*
X1413Y185D01*
X1Y184D02*
X8Y184D01*
X1406Y184D02*
X1413Y184D01*
X1Y183D02*
X8Y183D01*
X1406Y183D02*
X1413Y183D01*
X1Y182D02*
X8Y182D01*
X1406Y182D02*
X1413Y182D01*
X1Y181D02*
X8Y181D01*
X1406Y181D02*
X1413Y181D01*
X1Y180D02*
X8Y180D01*
X1406Y180D02*
X1413Y180D01*
X1Y179D02*
X8Y179D01*
X1406Y179D02*
X1413Y179D01*
X1Y178D02*
X8Y178D01*
X1406Y178D02*
X1413Y178D01*
X1Y177D02*
X8Y177D01*
X1406Y177D02*
X1413Y177D01*
X1Y176D02*
X8Y176D01*
X1406Y176D02*
X1413Y176D01*
X1Y175D02*
X8Y175D01*
X1406Y175D02*
X1413Y175D01*
X1Y174D02*
X8Y174D01*
X1406Y174D02*
X1413Y174D01*
X1Y173D02*
X8Y173D01*
X1406Y173D02*
X1413Y173D01*
X1Y172D02*
X8Y172D01*
X1406Y172D02*
X1413Y172D01*
X1Y171D02*
X8Y171D01*
X1406Y171D02*
X1413Y171D01*
X1Y170D02*
X8Y170D01*
X1406Y170D02*
X1413Y170D01*
X1Y169D02*
X8Y169D01*
X1406Y169D02*
X1413Y169D01*
X1Y168D02*
X8Y168D01*
X1406Y168D02*
X1413Y168D01*
X1Y167D02*
X8Y167D01*
X1406Y167D02*
X1413Y167D01*
X1Y166D02*
X8Y166D01*
X1406Y166D02*
X1413Y166D01*
X1Y165D02*
X8Y165D01*
X1406Y165D02*
X1413Y165D01*
X1Y164D02*
X8Y164D01*
X1406Y164D02*
X1413Y164D01*
X1Y163D02*
X8Y163D01*
X1406Y163D02*
X1413Y163D01*
X1Y162D02*
X8Y162D01*
X1406Y162D02*
X1413Y162D01*
X1Y161D02*
X8Y161D01*
X1406Y161D02*
X1413Y161D01*
X1Y160D02*
X8Y160D01*
X1406Y160D02*
X1413Y160D01*
X1Y159D02*
X8Y159D01*
X1406Y159D02*
X1413Y159D01*
X1Y158D02*
X8Y158D01*
X1406Y158D02*
X1413Y158D01*
X1Y157D02*
X8Y157D01*
X1406Y157D02*
X1413Y157D01*
X1Y156D02*
X8Y156D01*
X1406Y156D02*
X1413Y156D01*
X1Y155D02*
X8Y155D01*
X1406Y155D02*
X1413Y155D01*
X1Y154D02*
X8Y154D01*
X1406Y154D02*
X1413Y154D01*
X1Y153D02*
X8Y153D01*
X1406Y153D02*
X1413Y153D01*
X1Y152D02*
X8Y152D01*
X1406Y152D02*
X1413Y152D01*
X1Y151D02*
X8Y151D01*
X1406Y151D02*
X1413Y151D01*
X1Y150D02*
X8Y150D01*
X1406Y150D02*
X1413Y150D01*
X1Y149D02*
X8Y149D01*
X1406Y149D02*
X1413Y149D01*
X1Y148D02*
X8Y148D01*
X1406Y148D02*
X1413Y148D01*
X1Y147D02*
X8Y147D01*
X1406Y147D02*
X1413Y147D01*
X1Y146D02*
X8Y146D01*
X1406Y146D02*
X1413Y146D01*
X1Y145D02*
X8Y145D01*
X1406Y145D02*
X1413Y145D01*
X1Y144D02*
X8Y144D01*
X1406Y144D02*
X1413Y144D01*
X1Y143D02*
X8Y143D01*
X1406Y143D02*
X1413Y143D01*
X1Y142D02*
X8Y142D01*
X1406Y142D02*
X1413Y142D01*
X1Y141D02*
X8Y141D01*
X1406Y141D02*
X1413Y141D01*
X1Y140D02*
X8Y140D01*
X1406Y140D02*
X1413Y140D01*
X1Y139D02*
X8Y139D01*
X1406Y139D02*
X1413Y139D01*
X1Y138D02*
X8Y138D01*
X1406Y138D02*
X1413Y138D01*
X1Y137D02*
X8Y137D01*
X1406Y137D02*
X1413Y137D01*
X1Y136D02*
X8Y136D01*
X1406Y136D02*
X1413Y136D01*
X1Y135D02*
X8Y135D01*
X1406Y135D02*
X1413Y135D01*
X1Y134D02*
X8Y134D01*
X1406Y134D02*
X1413Y134D01*
X1Y133D02*
X8Y133D01*
X1406Y133D02*
X1413Y133D01*
X1Y132D02*
X8Y132D01*
X1406Y132D02*
X1413Y132D01*
X1Y131D02*
X8Y131D01*
X1406Y131D02*
X1413Y131D01*
X1Y130D02*
X8Y130D01*
X1406Y130D02*
X1413Y130D01*
X1Y129D02*
X8Y129D01*
X1406Y129D02*
X1413Y129D01*
X1Y128D02*
X8Y128D01*
X1406Y128D02*
X1413Y128D01*
X1Y127D02*
X8Y127D01*
X1406Y127D02*
X1413Y127D01*
X1Y126D02*
X8Y126D01*
X1406Y126D02*
X1413Y126D01*
X1Y125D02*
X8Y125D01*
X1406Y125D02*
X1413Y125D01*
X1Y124D02*
X8Y124D01*
X1406Y124D02*
X1413Y124D01*
X1Y123D02*
X8Y123D01*
X1406Y123D02*
X1413Y123D01*
X1Y122D02*
X8Y122D01*
X1406Y122D02*
X1413Y122D01*
X1Y121D02*
X8Y121D01*
X1406Y121D02*
X1413Y121D01*
X1Y120D02*
X8Y120D01*
X1406Y120D02*
X1413Y120D01*
X1Y119D02*
X8Y119D01*
X1406Y119D02*
X1413Y119D01*
X1Y118D02*
X8Y118D01*
X1406Y118D02*
X1413Y118D01*
X1Y117D02*
X8Y117D01*
X1406Y117D02*
X1413Y117D01*
X1Y116D02*
X8Y116D01*
X1406Y116D02*
X1413Y116D01*
X1Y115D02*
X8Y115D01*
X1406Y115D02*
X1413Y115D01*
X1Y114D02*
X8Y114D01*
X1406Y114D02*
X1413Y114D01*
X1Y113D02*
X8Y113D01*
X1406Y113D02*
X1413Y113D01*
X1Y112D02*
X8Y112D01*
X1406Y112D02*
X1413Y112D01*
X1Y111D02*
X8Y111D01*
X1406Y111D02*
X1413Y111D01*
X1Y110D02*
X8Y110D01*
X1406Y110D02*
X1413Y110D01*
X1Y109D02*
X8Y109D01*
X1406Y109D02*
X1413Y109D01*
X1Y108D02*
X8Y108D01*
X1406Y108D02*
X1413Y108D01*
X1Y107D02*
X8Y107D01*
X1406Y107D02*
X1413Y107D01*
X1Y106D02*
X8Y106D01*
X1406Y106D02*
X1413Y106D01*
X1Y105D02*
X8Y105D01*
X1406Y105D02*
X1413Y105D01*
X1Y104D02*
X8Y104D01*
X1406Y104D02*
X1413Y104D01*
X1Y103D02*
X8Y103D01*
X1406Y103D02*
X1413Y103D01*
X1Y102D02*
X8Y102D01*
X1406Y102D02*
X1413Y102D01*
X1Y101D02*
X8Y101D01*
X1406Y101D02*
X1413Y101D01*
X1Y100D02*
X8Y100D01*
X1406Y100D02*
X1413Y100D01*
X1Y99D02*
X8Y99D01*
X1406Y99D02*
X1413Y99D01*
X1Y98D02*
X8Y98D01*
X1406Y98D02*
X1413Y98D01*
X1Y97D02*
X8Y97D01*
X1406Y97D02*
X1413Y97D01*
X1Y96D02*
X8Y96D01*
X1406Y96D02*
X1413Y96D01*
X1Y95D02*
X8Y95D01*
X1406Y95D02*
X1413Y95D01*
X1Y94D02*
X8Y94D01*
X1406Y94D02*
X1413Y94D01*
X1Y93D02*
X8Y93D01*
X1406Y93D02*
X1413Y93D01*
X1Y92D02*
X8Y92D01*
X1406Y92D02*
X1413Y92D01*
X1Y91D02*
X8Y91D01*
X1406Y91D02*
X1413Y91D01*
X1Y90D02*
X8Y90D01*
X1406Y90D02*
X1413Y90D01*
X1Y89D02*
X8Y89D01*
X1406Y89D02*
X1413Y89D01*
X1Y88D02*
X8Y88D01*
X1406Y88D02*
X1413Y88D01*
X1Y87D02*
X8Y87D01*
X1406Y87D02*
X1413Y87D01*
X1Y86D02*
X8Y86D01*
X1406Y86D02*
X1413Y86D01*
X1Y85D02*
X8Y85D01*
X1406Y85D02*
X1413Y85D01*
X1Y84D02*
X8Y84D01*
X1406Y84D02*
X1413Y84D01*
X1Y83D02*
X8Y83D01*
X1406Y83D02*
X1413Y83D01*
X1Y82D02*
X8Y82D01*
X1406Y82D02*
X1413Y82D01*
X1Y81D02*
X8Y81D01*
X1406Y81D02*
X1413Y81D01*
X1Y80D02*
X8Y80D01*
X1406Y80D02*
X1413Y80D01*
X1Y79D02*
X8Y79D01*
X1406Y79D02*
X1413Y79D01*
X1Y78D02*
X8Y78D01*
X1406Y78D02*
X1413Y78D01*
X1Y77D02*
X8Y77D01*
X1406Y77D02*
X1413Y77D01*
X1Y76D02*
X8Y76D01*
X1406Y76D02*
X1413Y76D01*
X1Y75D02*
X8Y75D01*
X1406Y75D02*
X1413Y75D01*
X1Y74D02*
X8Y74D01*
X1406Y74D02*
X1413Y74D01*
X1Y73D02*
X8Y73D01*
X1406Y73D02*
X1413Y73D01*
X1Y72D02*
X8Y72D01*
X1406Y72D02*
X1413Y72D01*
X1Y71D02*
X8Y71D01*
X1406Y71D02*
X1413Y71D01*
X1Y70D02*
X8Y70D01*
X1406Y70D02*
X1413Y70D01*
X1Y69D02*
X8Y69D01*
X1406Y69D02*
X1413Y69D01*
X1Y68D02*
X8Y68D01*
X1406Y68D02*
X1413Y68D01*
X1Y67D02*
X8Y67D01*
X1406Y67D02*
X1413Y67D01*
X1Y66D02*
X8Y66D01*
X1406Y66D02*
X1413Y66D01*
X1Y65D02*
X8Y65D01*
X1406Y65D02*
X1413Y65D01*
X1Y64D02*
X8Y64D01*
X1406Y64D02*
X1413Y64D01*
X1Y63D02*
X8Y63D01*
X1406Y63D02*
X1413Y63D01*
X1Y62D02*
X8Y62D01*
X1406Y62D02*
X1413Y62D01*
X1Y61D02*
X8Y61D01*
X1406Y61D02*
X1413Y61D01*
X1Y60D02*
X8Y60D01*
X1406Y60D02*
X1413Y60D01*
X1Y59D02*
X8Y59D01*
X1406Y59D02*
X1413Y59D01*
X1Y58D02*
X8Y58D01*
X1406Y58D02*
X1413Y58D01*
X1Y57D02*
X8Y57D01*
X1406Y57D02*
X1413Y57D01*
X1Y56D02*
X8Y56D01*
X1406Y56D02*
X1413Y56D01*
X1Y55D02*
X8Y55D01*
X1406Y55D02*
X1413Y55D01*
X1Y54D02*
X8Y54D01*
X1406Y54D02*
X1413Y54D01*
X1Y53D02*
X8Y53D01*
X1406Y53D02*
X1413Y53D01*
X1Y52D02*
X8Y52D01*
X1406Y52D02*
X1413Y52D01*
X1Y51D02*
X8Y51D01*
X1406Y51D02*
X1413Y51D01*
X1Y50D02*
X8Y50D01*
X1406Y50D02*
X1413Y50D01*
X1Y49D02*
X8Y49D01*
X1406Y49D02*
X1413Y49D01*
X1Y48D02*
X8Y48D01*
X1406Y48D02*
X1413Y48D01*
X1Y47D02*
X8Y47D01*
X1406Y47D02*
X1413Y47D01*
X1Y46D02*
X8Y46D01*
X1406Y46D02*
X1413Y46D01*
X1Y45D02*
X8Y45D01*
X1406Y45D02*
X1413Y45D01*
X1Y44D02*
X8Y44D01*
X1406Y44D02*
X1413Y44D01*
X1Y43D02*
X8Y43D01*
X1406Y43D02*
X1413Y43D01*
X1Y42D02*
X8Y42D01*
X1406Y42D02*
X1413Y42D01*
X1Y41D02*
X8Y41D01*
X1406Y41D02*
X1413Y41D01*
X1Y40D02*
X8Y40D01*
X1406Y40D02*
X1413Y40D01*
X1Y39D02*
X8Y39D01*
X1406Y39D02*
X1413Y39D01*
X1Y38D02*
X8Y38D01*
X1406Y38D02*
X1413Y38D01*
X1Y37D02*
X8Y37D01*
X1406Y37D02*
X1413Y37D01*
X1Y36D02*
X8Y36D01*
X1406Y36D02*
X1413Y36D01*
X1Y35D02*
X8Y35D01*
X1406Y35D02*
X1413Y35D01*
X1Y34D02*
X8Y34D01*
X1406Y34D02*
X1413Y34D01*
X1Y33D02*
X8Y33D01*
X1406Y33D02*
X1413Y33D01*
X1Y32D02*
X8Y32D01*
X1406Y32D02*
X1413Y32D01*
X1Y31D02*
X8Y31D01*
X1406Y31D02*
X1413Y31D01*
X1Y30D02*
X8Y30D01*
X1406Y30D02*
X1413Y30D01*
X1Y29D02*
X8Y29D01*
X1406Y29D02*
X1413Y29D01*
X1Y28D02*
X8Y28D01*
X1406Y28D02*
X1413Y28D01*
X1Y27D02*
X8Y27D01*
X1406Y27D02*
X1413Y27D01*
X1Y26D02*
X8Y26D01*
X1406Y26D02*
X1413Y26D01*
X1Y25D02*
X8Y25D01*
X1406Y25D02*
X1413Y25D01*
X1Y24D02*
X8Y24D01*
X1406Y24D02*
X1413Y24D01*
X1Y23D02*
X8Y23D01*
X1406Y23D02*
X1413Y23D01*
X1Y22D02*
X8Y22D01*
X1406Y22D02*
X1413Y22D01*
X1Y21D02*
X8Y21D01*
X1406Y21D02*
X1413Y21D01*
X1Y20D02*
X8Y20D01*
X1406Y20D02*
X1413Y20D01*
X1Y19D02*
X8Y19D01*
X1406Y19D02*
X1413Y19D01*
X1Y18D02*
X8Y18D01*
X1406Y18D02*
X1413Y18D01*
X1Y17D02*
X8Y17D01*
X1406Y17D02*
X1413Y17D01*
X1Y16D02*
X8Y16D01*
X1406Y16D02*
X1413Y16D01*
X1Y15D02*
X8Y15D01*
X1406Y15D02*
X1413Y15D01*
X1Y14D02*
X8Y14D01*
X1406Y14D02*
X1413Y14D01*
X1Y13D02*
X8Y13D01*
X1406Y13D02*
X1413Y13D01*
X1Y12D02*
X8Y12D01*
X1406Y12D02*
X1413Y12D01*
X1Y11D02*
X8Y11D01*
X1406Y11D02*
X1413Y11D01*
X1Y10D02*
X8Y10D01*
X1406Y10D02*
X1413Y10D01*
X1Y9D02*
X8Y9D01*
X1406Y9D02*
X1413Y9D01*
X1Y8D02*
X1413Y8D01*
X1Y7D02*
X1413Y7D01*
X1Y6D02*
X1413Y6D01*
X1Y5D02*
X1413Y5D01*
X1Y4D02*
X1413Y4D01*
X1Y3D02*
X1413Y3D01*
X1Y2D02*
X1413Y2D01*
X1Y1D02*
X1413Y1D01*
D02*
G04 End of Silk0*
M02*