G04 MADE WITH FRITZING*
G04 WWW.FRITZING.ORG*
G04 DOUBLE SIDED*
G04 HOLES PLATED*
G04 CONTOUR ON CENTER OF CONTOUR VECTOR*
%ASAXBY*%
%FSLAX23Y23*%
%MOIN*%
%OFA0B0*%
%SFA1.0B1.0*%
%ADD10C,0.088000*%
%ADD11C,0.080000*%
%ADD12C,0.085000*%
%ADD13C,0.109000*%
%ADD14C,0.049370*%
%ADD15R,0.085000X0.085000*%
%ADD16R,0.109000X0.109000*%
%ADD17R,0.084803X0.072992*%
%ADD18R,0.072992X0.084803*%
%ADD19C,0.030000*%
%LNMASK0*%
G90*
G70*
G54D10*
X1323Y239D03*
X1323Y339D03*
G54D11*
X1198Y439D03*
X1198Y239D03*
X898Y239D03*
X1098Y239D03*
X1098Y339D03*
X898Y339D03*
G54D12*
X1073Y1052D03*
X1073Y952D03*
X911Y1052D03*
X811Y1052D03*
G54D13*
X673Y514D03*
X473Y514D03*
X573Y714D03*
X673Y102D03*
X473Y102D03*
X573Y302D03*
X673Y852D03*
X473Y852D03*
X573Y1052D03*
G54D11*
X198Y1052D03*
X398Y1052D03*
X1136Y589D03*
X1136Y789D03*
X211Y714D03*
X411Y714D03*
X173Y352D03*
X373Y352D03*
X473Y414D03*
X673Y414D03*
X86Y164D03*
X286Y164D03*
G54D12*
X1252Y972D03*
X1323Y902D03*
G54D10*
X1248Y1102D03*
G54D14*
X1048Y827D03*
X773Y827D03*
X1036Y514D03*
X1323Y739D03*
G54D10*
X698Y1052D03*
G54D15*
X1073Y1052D03*
X911Y1052D03*
G54D16*
X473Y514D03*
X473Y102D03*
X473Y852D03*
G54D17*
X1048Y630D03*
X1048Y752D03*
G54D18*
X970Y827D03*
X848Y827D03*
G54D17*
X1323Y542D03*
X1323Y664D03*
G54D19*
G36*
X1291Y972D02*
X1252Y934D01*
X1214Y972D01*
X1252Y1011D01*
X1291Y972D01*
G37*
D02*
G04 End of Mask0*
M02*