; NON-PLATED HOLES START AT T1
; THROUGH (PLATED) HOLES START AT T100
M48
INCH
T100C0.030000
T101C0.041000
T102C0.035000
T103C0.038000
T104C0.015748
%
T100
X000856Y001641
X004731Y004141
X006731Y004141
X001731Y003516
X011981Y002391
X010981Y002391
X002856Y001641
X003981Y010516
X008981Y003391
X002106Y007141
X011356Y007891
X010981Y003391
X008981Y002391
X003731Y003516
X004106Y007141
X011981Y004391
X011356Y005891
X001981Y010516
T101
X005731Y010516
X006731Y001016
X004731Y008516
X006731Y008516
X006731Y005141
X004731Y001016
X005731Y007141
X004731Y005141
X005731Y003016
T102
X013231Y009016
X009106Y010516
X010731Y009516
X012524Y009723
X010731Y010516
X008106Y010516
T103
X012481Y011016
X013231Y002391
X006981Y010516
X013231Y003391
T104
X010356Y005141
X013231Y007391
X007731Y008266
X010481Y008266
T00
M30
