<?xml version='1.0' encoding='UTF-8' standalone='no'?>
<!-- Created with Fritzing (https://fritzing.org/) -->
<svg xmlns="http://www.w3.org/2000/svg" x="0in" width="1.41381in" viewBox="0 0 101.795 84.7732" y="0in" version="1.2" baseProfile="tiny" xmlns:svg="http://www.w3.org/2000/svg"  height="1.17741in">
 <g partID="57470">
  <g id="board" >
   <rect x="0.288" id="boardoutline" width="101.219" y="0.288" stroke-width="0.5" stroke="black" fill="none"  height="84.1972" fill-opacity="0.5"/>
  </g>
 </g>
 <g partID="854476020">
  <g transform="translate(92.592,2.88)">
   <g id="groundplane" >
    <g id="connector0pad" >
     <polygon stroke-width="0" stroke="none" fill="black"  points="0.72,0,0.72,1.584,0.864,1.584,0.864,2.304,1.008,2.304,1.008,2.736,0.864,2.736,0.864,3.6,0.72,3.6,0.72,4.032,0.576,4.032,0.576,4.32,0.432,4.32,0.432,4.608,0.288,4.608,0.288,4.752,0.144,4.752,0.144,4.896,0,4.896,0,8.64,0.144,8.64,0.144,9.504,0.288,9.504,0.288,9.648,0.432,9.648,0.432,9.792,0.576,9.792,0.576,9.936,0.72,9.936,0.72,10.08,0.864,10.08,0.864,10.224,1.008,10.224,1.008,10.368,1.152,10.368,1.152,10.512,1.296,10.512,1.296,10.656,1.44,10.656,1.44,10.8,1.584,10.8,1.584,10.944,1.728,10.944,1.728,11.088,1.872,11.088,1.872,11.232,2.016,11.232,2.016,11.376,2.16,11.376,2.16,11.52,2.304,11.52,2.304,11.664,2.448,11.664,2.448,11.808,2.592,11.808,2.592,11.952,2.448,11.952,2.448,13.392,3.168,13.392,3.168,13.536,3.744,13.536,3.744,13.68,4.176,13.68,4.176,13.824,4.464,13.824,4.464,13.968,4.752,13.968,4.752,14.112,6.192,14.112,6.192,0"/>
    </g>
   </g>
  </g>
 </g>
 <g partID="854476030">
  <g transform="translate(2.88,2.88)">
   <g id="groundplane" >
    <polygon stroke-width="0" stroke="none" fill="black"  points="0,0,0,1.728,39.024,1.728,39.024,1.872,39.744,1.872,39.744,2.016,40.032,2.016,40.032,2.16,40.464,2.16,40.464,2.304,40.608,2.304,40.608,2.448,47.664,2.448,47.664,2.592,77.904,2.592,77.904,9.792,77.184,9.792,77.184,11.232,77.328,11.232,77.328,11.52,77.472,11.52,77.472,11.808,77.616,11.808,77.616,12.096,77.76,12.096,77.76,12.528,77.904,12.528,77.904,14.256,77.76,14.256,77.76,14.688,77.616,14.688,77.616,14.976,77.472,14.976,77.472,15.264,77.328,15.264,77.328,15.408,77.184,15.408,77.184,15.696,77.04,15.696,77.04,15.84,76.896,15.84,76.896,15.984,76.752,15.984,76.752,16.128,76.464,16.128,76.464,16.272,76.32,16.272,76.32,16.416,76.032,16.416,76.032,16.56,75.888,16.56,75.888,16.704,75.312,16.704,75.312,16.848,87.12,16.848,87.12,16.704,86.976,16.704,86.976,16.56,86.832,16.56,86.832,16.416,86.688,16.416,86.688,16.272,86.544,16.272,86.544,16.128,86.4,16.128,86.4,15.984,86.256,15.984,86.256,15.84,86.112,15.84,86.112,15.696,85.968,15.696,85.968,15.552,85.824,15.552,85.824,15.408,85.68,15.408,85.68,15.264,85.536,15.264,85.536,15.12,85.392,15.12,85.392,14.976,85.248,14.976,85.248,14.832,85.104,14.832,85.104,14.688,84.96,14.688,84.96,14.544,84.816,14.544,84.816,14.4,84.672,14.4,84.672,14.256,84.528,14.256,84.528,14.112,84.384,14.112,84.384,13.968,84.24,13.968,84.24,13.824,84.096,13.824,84.096,13.68,83.952,13.68,83.952,13.536,83.808,13.536,83.808,13.392,83.664,13.392,83.664,13.248,83.52,13.248,83.52,13.104,83.376,13.104,83.376,12.96,83.232,12.96,83.232,12.816,83.088,12.816,83.088,12.672,82.944,12.672,82.944,12.528,82.8,12.528,82.8,12.384,82.656,12.384,82.656,12.24,82.512,12.24,82.512,12.096,82.368,12.096,82.368,11.952,82.224,11.952,82.224,11.808,82.368,11.808,82.368,11.664,82.512,11.664,82.512,11.52,82.656,11.52,82.656,11.376,82.8,11.376,82.8,11.232,82.944,11.232,82.944,11.088,83.088,11.088,83.088,10.944,83.232,10.944,83.232,10.8,83.376,10.8,83.376,10.656,83.52,10.656,83.52,10.512,83.664,10.512,83.664,10.368,83.808,10.368,83.808,10.224,83.952,10.224,83.952,10.08,84.096,10.08,84.096,9.936,84.24,9.936,84.24,9.792,84.384,9.792,84.384,9.648,84.528,9.648,84.528,5.184,84.384,5.184,84.384,5.04,84.24,5.04,84.24,4.896,84.096,4.896,84.096,4.752,83.952,4.752,83.952,4.464,83.808,4.464,83.808,4.176,83.664,4.176,83.664,4.032,83.52,4.032,83.52,3.456,83.376,3.456,83.376,1.584,83.52,1.584,83.52,0"/>
    <polygon stroke-width="0" stroke="none" fill="black"  points="0,1.728,0,2.736,26.064,2.736,26.064,2.88,26.784,2.88,26.784,3.024,27.216,3.024,27.216,3.168,27.504,3.168,27.504,3.312,27.648,3.312,27.648,3.456,27.936,3.456,27.936,3.6,28.08,3.6,28.08,3.744,28.224,3.744,28.224,3.888,28.368,3.888,28.368,4.032,28.512,4.032,28.512,4.176,34.416,4.176,34.416,4.032,34.56,4.032,34.56,3.888,34.704,3.888,34.704,3.6,34.848,3.6,34.848,3.456,34.992,3.456,34.992,3.312,35.136,3.312,35.136,3.168,35.28,3.168,35.28,3.024,35.424,3.024,35.424,2.88,35.568,2.88,35.568,2.736,35.712,2.736,35.712,2.592,35.856,2.592,35.856,2.448,36.144,2.448,36.144,2.304,36.432,2.304,36.432,2.16,36.72,2.16,36.72,2.016,37.152,2.016,37.152,1.872,37.728,1.872,37.728,1.728"/>
    <polygon stroke-width="0" stroke="none" fill="black"  points="40.896,2.448,40.896,2.592,41.04,2.592,41.04,2.736,41.328,2.736,41.328,2.88,41.472,2.88,41.472,3.024,41.616,3.024,41.616,3.168,41.76,3.168,41.76,3.456,41.904,3.456,41.904,3.6,42.048,3.6,42.048,3.744,42.192,3.744,42.192,4.032,42.336,4.032,42.336,4.32,42.48,4.32,42.48,4.752,44.064,4.752,44.064,4.464,44.208,4.464,44.208,4.32,44.352,4.32,44.352,4.032,44.496,4.032,44.496,3.888,44.64,3.888,44.64,3.744,44.784,3.744,44.784,3.456,45.072,3.456,45.072,3.312,45.216,3.312,45.216,3.168,45.36,3.168,45.36,3.024,45.648,3.024,45.648,2.88,45.936,2.88,45.936,2.736,46.368,2.736,46.368,2.592,47.088,2.592,47.088,2.448"/>
    <polygon stroke-width="0" stroke="none" fill="black"  points="48.384,2.592,48.384,2.736,48.816,2.736,48.816,2.88,49.104,2.88,49.104,3.024,49.392,3.024,49.392,3.168,49.536,3.168,49.536,3.312,49.68,3.312,49.68,3.456,49.968,3.456,49.968,3.6,50.112,3.6,50.112,3.888,50.256,3.888,50.256,4.032,50.4,4.032,50.4,4.176,52.56,4.176,52.56,4.032,52.704,4.032,52.704,3.888,52.848,3.888,52.848,3.744,52.992,3.744,52.992,3.6,53.136,3.6,53.136,3.456,53.28,3.456,53.28,3.312,53.424,3.312,53.424,3.168,53.712,3.168,53.712,3.024,54,3.024,54,2.88,54.432,2.88,54.432,2.736,54.864,2.736,54.864,2.592"/>
    <polygon stroke-width="0" stroke="none" fill="black"  points="56.016,2.592,56.016,2.736,56.592,2.736,56.592,2.88,57.024,2.88,57.024,3.024,57.312,3.024,57.312,3.168,57.456,3.168,57.456,3.312,57.744,3.312,57.744,3.456,59.184,3.456,59.184,2.592"/>
    <polygon stroke-width="0" stroke="none" fill="black"  points="66.24,2.592,66.24,9.792,70.848,9.792,70.848,2.592"/>
    <polygon stroke-width="0" stroke="none" fill="black"  points="0,2.736,0,9.504,10.512,9.504,10.512,9.36,10.08,9.36,10.08,9.216,9.792,9.216,9.792,9.072,9.504,9.072,9.504,8.928,9.36,8.928,9.36,8.784,9.216,8.784,9.216,8.64,9.072,8.64,9.072,8.496,8.928,8.496,8.928,8.352,8.784,8.352,8.784,8.208,8.64,8.208,8.64,8.064,8.496,8.064,8.496,7.776,8.352,7.776,8.352,7.488,8.208,7.488,8.208,7.056,8.064,7.056,8.064,5.328,8.208,5.328,8.208,4.896,8.352,4.896,8.352,4.608,8.496,4.608,8.496,4.32,8.64,4.32,8.64,4.176,8.784,4.176,8.784,3.888,8.928,3.888,8.928,3.744,9.072,3.744,9.072,3.6,9.36,3.6,9.36,3.456,9.504,3.456,9.504,3.312,9.792,3.312,9.792,3.168,9.936,3.168,9.936,3.024,10.368,3.024,10.368,2.88,11.088,2.88,11.088,2.736"/>
    <polygon stroke-width="0" stroke="none" fill="black"  points="11.664,2.736,11.664,2.88,12.384,2.88,12.384,3.024,12.816,3.024,12.816,3.168,13.104,3.168,13.104,3.312,13.248,3.312,13.248,3.456,13.536,3.456,13.536,3.6,13.68,3.6,13.68,3.744,13.824,3.744,13.824,3.888,13.968,3.888,13.968,4.032,14.112,4.032,14.112,4.32,14.256,4.32,14.256,4.464,14.4,4.464,14.4,4.752,14.544,4.752,14.544,5.184,14.688,5.184,14.688,5.904,14.832,5.904,14.832,6.336,14.688,6.336,14.688,7.056,14.544,7.056,14.544,7.488,14.4,7.488,14.4,7.776,14.256,7.776,14.256,8.064,14.112,8.064,14.112,8.208,13.968,8.208,13.968,8.496,13.824,8.496,13.824,8.64,13.536,8.64,13.536,8.784,13.392,8.784,13.392,8.928,13.248,8.928,13.248,9.072,12.96,9.072,12.96,9.216,12.672,9.216,12.672,9.36,12.24,9.36,12.24,9.504,24.912,9.504,24.912,9.36,24.48,9.36,24.48,9.216,24.192,9.216,24.192,9.072,23.904,9.072,23.904,8.928,23.76,8.928,23.76,8.784,23.616,8.784,23.616,8.64,23.472,8.64,23.472,8.496,23.328,8.496,23.328,8.352,23.184,8.352,23.184,8.208,23.04,8.208,23.04,8.064,22.896,8.064,22.896,7.776,22.752,7.776,22.752,7.488,22.608,7.488,22.608,7.056,22.464,7.056,22.464,5.328,22.608,5.328,22.608,4.896,22.752,4.896,22.752,4.608,22.896,4.608,22.896,4.32,23.04,4.32,23.04,4.176,23.184,4.176,23.184,3.888,23.328,3.888,23.328,3.744,23.472,3.744,23.472,3.6,23.76,3.6,23.76,3.456,23.904,3.456,23.904,3.312,24.192,3.312,24.192,3.168,24.336,3.168,24.336,3.024,24.768,3.024,24.768,2.88,25.488,2.88,25.488,2.736"/>
    <polygon stroke-width="0" stroke="none" fill="black"  points="42.48,7.632,42.48,8.064,42.336,8.064,42.336,8.352,42.192,8.352,42.192,8.496,42.048,8.496,42.048,8.784,41.904,8.784,41.904,8.928,41.76,8.928,41.76,9.072,41.616,9.072,41.616,9.216,41.472,9.216,41.472,9.36,41.328,9.36,41.328,9.504,41.184,9.504,41.184,9.648,41.04,9.648,41.04,9.792,46.512,9.792,46.512,9.648,46.08,9.648,46.08,9.504,45.792,9.504,45.792,9.36,45.504,9.36,45.504,9.216,45.216,9.216,45.216,9.072,45.072,9.072,45.072,8.928,44.928,8.928,44.928,8.784,44.784,8.784,44.784,8.64,44.64,8.64,44.64,8.496,44.496,8.496,44.496,8.352,44.352,8.352,44.352,8.064,44.208,8.064,44.208,7.776,44.064,7.776,44.064,7.632"/>
    <polygon stroke-width="0" stroke="none" fill="black"  points="28.368,8.208,28.368,8.496,28.224,8.496,28.224,8.64,27.936,8.64,27.936,8.784,27.792,8.784,27.792,8.928,27.648,8.928,27.648,9.072,27.36,9.072,27.36,9.216,27.072,9.216,27.072,9.36,26.64,9.36,26.64,9.504,35.424,9.504,35.424,9.36,35.28,9.36,35.28,9.216,35.136,9.216,35.136,9.072,34.992,9.072,34.992,8.928,34.848,8.928,34.848,8.784,34.704,8.784,34.704,8.496,34.56,8.496,34.56,8.208"/>
    <polygon stroke-width="0" stroke="none" fill="black"  points="57.744,8.784,57.744,8.928,57.6,8.928,57.6,9.072,57.456,9.072,57.456,9.216,57.168,9.216,57.168,9.36,56.88,9.36,56.88,9.504,56.448,9.504,56.448,9.648,55.728,9.648,55.728,9.792,59.184,9.792,59.184,8.784"/>
    <polygon stroke-width="0" stroke="none" fill="black"  points="49.68,8.928,49.68,9.072,49.536,9.072,49.536,9.216,49.248,9.216,49.248,9.36,49.104,9.36,49.104,9.504,48.816,9.504,48.816,9.648,48.24,9.648,48.24,9.792,51.12,9.792,51.12,8.928"/>
    <polygon stroke-width="0" stroke="none" fill="black"  points="0,9.504,0,9.648,35.568,9.648,35.568,9.504"/>
    <polygon stroke-width="0" stroke="none" fill="black"  points="0,9.504,0,9.648,35.568,9.648,35.568,9.504"/>
    <polygon stroke-width="0" stroke="none" fill="black"  points="0,9.504,0,9.648,35.568,9.648,35.568,9.504"/>
    <polygon stroke-width="0" stroke="none" fill="black"  points="0,9.648,0,10.656,38.16,10.656,38.16,10.512,37.296,10.512,37.296,10.368,36.72,10.368,36.72,10.224,36.432,10.224,36.432,10.08,36.144,10.08,36.144,9.936,36,9.936,36,9.792,35.712,9.792,35.712,9.648"/>
    <polygon stroke-width="0" stroke="none" fill="black"  points="40.752,9.792,40.752,9.936,50.976,9.936,50.976,9.792"/>
    <polygon stroke-width="0" stroke="none" fill="black"  points="40.752,9.792,40.752,9.936,50.976,9.936,50.976,9.792"/>
    <polygon stroke-width="0" stroke="none" fill="black"  points="55.584,9.792,55.584,9.936,71.568,9.936,71.568,9.792"/>
    <polygon stroke-width="0" stroke="none" fill="black"  points="55.584,9.792,55.584,9.936,71.568,9.936,71.568,9.792"/>
    <polygon stroke-width="0" stroke="none" fill="black"  points="40.608,9.936,40.608,10.08,40.32,10.08,40.32,10.224,40.032,10.224,40.032,10.368,39.456,10.368,39.456,10.512,38.592,10.512,38.592,10.656,50.832,10.656,50.832,10.08,50.976,10.08,50.976,9.936"/>
    <polygon stroke-width="0" stroke="none" fill="black"  points="55.584,9.936,55.584,10.08,55.44,10.08,55.44,10.368,55.296,10.368,55.296,10.656,55.152,10.656,55.152,10.8,55.008,10.8,55.008,11.088,54.864,11.088,54.864,16.992,74.16,16.992,74.16,16.848,73.44,16.848,73.44,16.704,73.008,16.704,73.008,16.56,72.72,16.56,72.72,16.416,72.432,16.416,72.432,16.272,72.288,16.272,72.288,16.128,72,16.128,72,15.984,71.856,15.984,71.856,15.84,71.712,15.84,71.712,15.552,71.568,15.552,71.568,15.408,71.424,15.408,71.424,15.264,71.28,15.264,71.28,14.976,71.136,14.976,71.136,14.688,70.992,14.688,70.992,14.112,70.848,14.112,70.848,12.672,70.992,12.672,70.992,12.096,71.136,12.096,71.136,11.808,71.28,11.808,71.28,11.52,71.424,11.52,71.424,11.376,71.568,11.376,71.568,9.936"/>
    <polygon stroke-width="0" stroke="none" fill="black"  points="0,10.656,0,10.8,50.832,10.8,50.832,10.656"/>
    <polygon stroke-width="0" stroke="none" fill="black"  points="0,10.656,0,10.8,50.832,10.8,50.832,10.656"/>
    <polygon stroke-width="0" stroke="none" fill="black"  points="0,10.8,0,16.128,46.224,16.128,46.224,16.272,46.944,16.272,46.944,16.416,47.232,16.416,47.232,16.56,47.664,16.56,47.664,16.704,47.808,16.704,47.808,16.848,48.096,16.848,48.096,16.992,48.24,16.992,48.24,17.136,48.528,17.136,48.528,17.28,48.672,17.28,48.672,17.424,48.816,17.424,48.816,17.568,48.96,17.568,48.96,17.856,49.104,17.856,49.104,18,49.248,18,49.248,18.144,49.392,18.144,49.392,18.432,50.832,18.432,50.832,10.8"/>
    <polygon stroke-width="0" stroke="none" fill="black"  points="0,16.128,0,25.056,26.784,25.056,26.784,16.128"/>
    <polygon stroke-width="0" stroke="none" fill="black"  points="35.568,16.128,35.568,25.056,45.36,25.056,45.36,24.912,44.496,24.912,44.496,24.768,43.92,24.768,43.92,24.624,43.632,24.624,43.632,24.48,43.344,24.48,43.344,24.336,43.2,24.336,43.2,24.192,42.912,24.192,42.912,24.048,42.768,24.048,42.768,23.904,42.624,23.904,42.624,23.76,42.48,23.76,42.48,23.616,42.336,23.616,42.336,23.472,42.192,23.472,42.192,23.328,42.048,23.328,42.048,23.184,41.904,23.184,41.904,22.896,41.76,22.896,41.76,22.608,41.616,22.608,41.616,22.32,41.472,22.32,41.472,22.032,41.328,22.032,41.328,21.456,41.184,21.456,41.184,19.728,41.328,19.728,41.328,19.152,41.472,19.152,41.472,18.72,41.616,18.72,41.616,18.432,41.76,18.432,41.76,18.288,41.904,18.288,41.904,18,42.048,18,42.048,17.856,42.192,17.856,42.192,17.712,42.336,17.712,42.336,17.568,42.48,17.568,42.48,17.424,42.624,17.424,42.624,17.28,42.768,17.28,42.768,17.136,42.912,17.136,42.912,16.992,43.056,16.992,43.056,16.848,43.344,16.848,43.344,16.704,43.632,16.704,43.632,16.56,43.92,16.56,43.92,16.416,44.352,16.416,44.352,16.272,44.928,16.272,44.928,16.128"/>
    <polygon stroke-width="0" stroke="none" fill="black"  points="87.408,16.704,87.408,16.848,88.848,16.848,88.848,16.704"/>
    <polygon stroke-width="0" stroke="none" fill="black"  points="74.736,16.848,74.736,16.992,88.848,16.992,88.848,16.848"/>
    <polygon stroke-width="0" stroke="none" fill="black"  points="74.736,16.848,74.736,16.992,88.848,16.992,88.848,16.848"/>
    <polygon stroke-width="0" stroke="none" fill="black"  points="54.864,16.992,54.864,17.136,88.848,17.136,88.848,16.992"/>
    <polygon stroke-width="0" stroke="none" fill="black"  points="54.864,16.992,54.864,17.136,88.848,17.136,88.848,16.992"/>
    <polygon stroke-width="0" stroke="none" fill="black"  points="54.864,17.136,54.864,18.864,70.128,18.864,70.128,20.16,73.296,20.16,73.296,20.304,73.728,20.304,73.728,20.448,73.872,20.448,73.872,20.592,92.304,20.592,92.304,20.448,91.44,20.448,91.44,20.304,91.008,20.304,91.008,20.16,90.72,20.16,90.72,20.016,90.432,20.016,90.432,19.872,90.288,19.872,90.288,19.728,90,19.728,90,19.584,89.856,19.584,89.856,19.44,89.712,19.44,89.712,19.296,89.568,19.296,89.568,19.008,89.424,19.008,89.424,18.864,89.28,18.864,89.28,18.576,89.136,18.576,89.136,18.288,88.992,18.288,88.992,17.712,88.848,17.712,88.848,17.136"/>
    <polygon stroke-width="0" stroke="none" fill="black"  points="61.344,18.864,61.344,25.92,63.792,25.92,63.792,18.864"/>
    <polygon stroke-width="0" stroke="none" fill="black"  points="94.32,19.872,94.32,20.016,94.032,20.016,94.032,20.16,93.744,20.16,93.744,20.304,93.312,20.304,93.312,20.448,92.592,20.448,92.592,20.592,95.904,20.592,95.904,19.872"/>
    <polygon stroke-width="0" stroke="none" fill="black"  points="70.128,20.16,70.128,20.448,71.568,20.448,71.568,20.304,71.856,20.304,71.856,20.16"/>
    <polygon stroke-width="0" stroke="none" fill="black"  points="74.016,20.592,74.016,20.736,95.904,20.736,95.904,20.592"/>
    <polygon stroke-width="0" stroke="none" fill="black"  points="74.016,20.592,74.016,20.736,95.904,20.736,95.904,20.592"/>
    <polygon stroke-width="0" stroke="none" fill="black"  points="74.304,20.736,74.304,21.024,74.448,21.024,74.448,21.168,74.592,21.168,74.592,21.456,74.736,21.456,74.736,21.744,79.776,21.744,79.776,21.888,80.208,21.888,80.208,22.032,80.496,22.032,80.496,22.176,80.784,22.176,80.784,22.32,80.928,22.32,80.928,22.464,81.072,22.464,81.072,22.608,81.216,22.608,81.216,22.752,81.36,22.752,81.36,22.896,81.504,22.896,81.504,23.04,81.648,23.04,81.648,23.184,81.792,23.184,81.792,23.472,81.936,23.472,81.936,23.76,82.08,23.76,82.08,24.192,82.224,24.192,82.224,25.92,82.08,25.92,82.08,26.352,92.736,26.352,92.736,26.496,93.312,26.496,93.312,26.64,93.6,26.64,93.6,26.784,93.744,26.784,93.744,26.928,93.888,26.928,93.888,27.072,94.032,27.072,94.032,27.216,94.176,27.216,94.176,27.36,94.32,27.36,94.32,27.648,94.464,27.648,94.464,27.936,95.904,27.936,95.904,20.736"/>
    <polygon stroke-width="0" stroke="none" fill="black"  points="74.736,21.744,74.736,21.888,74.88,21.888,74.88,22.896,74.736,22.896,74.736,23.184,76.176,23.184,76.176,23.04,76.32,23.04,76.32,22.752,76.464,22.752,76.464,22.608,76.608,22.608,76.608,22.464,76.896,22.464,76.896,22.32,77.04,22.32,77.04,22.176,77.328,22.176,77.328,22.032,77.616,22.032,77.616,21.888,78.048,21.888,78.048,21.744"/>
    <polygon stroke-width="0" stroke="none" fill="black"  points="49.248,23.04,49.248,23.184,49.104,23.184,49.104,23.328,48.96,23.328,48.96,23.472,48.816,23.472,48.816,23.616,48.672,23.616,48.672,23.76,48.528,23.76,48.528,23.904,48.384,23.904,48.384,24.048,48.24,24.048,48.24,24.192,47.952,24.192,47.952,24.336,47.808,24.336,47.808,24.48,47.52,24.48,47.52,24.624,52.128,24.624,52.128,24.48,51.84,24.48,51.84,24.336,51.552,24.336,51.552,24.192,51.408,24.192,51.408,24.048,51.12,24.048,51.12,23.76,50.976,23.76,50.976,23.616,50.832,23.616,50.832,23.328,50.688,23.328,50.688,23.04"/>
    <polygon stroke-width="0" stroke="none" fill="black"  points="53.424,24.48,53.424,24.624,55.008,24.624,55.008,24.48"/>
    <polygon stroke-width="0" stroke="none" fill="black"  points="47.232,24.624,47.232,24.768,55.008,24.768,55.008,24.624"/>
    <polygon stroke-width="0" stroke="none" fill="black"  points="47.232,24.624,47.232,24.768,55.008,24.768,55.008,24.624"/>
    <polygon stroke-width="0" stroke="none" fill="black"  points="46.656,24.768,46.656,24.912,45.792,24.912,45.792,25.056,55.008,25.056,55.008,24.768"/>
    <polygon stroke-width="0" stroke="none" fill="black"  points="0,25.056,0,25.2,55.008,25.2,55.008,25.056"/>
    <polygon stroke-width="0" stroke="none" fill="black"  points="0,25.056,0,25.2,55.008,25.2,55.008,25.056"/>
    <polygon stroke-width="0" stroke="none" fill="black"  points="0,25.056,0,25.2,55.008,25.2,55.008,25.056"/>
    <polygon stroke-width="0" stroke="none" fill="black"  points="0,25.2,0,25.92,55.008,25.92,55.008,25.2"/>
    <polygon stroke-width="0" stroke="none" fill="black"  points="0,25.92,0,26.064,68.976,26.064,68.976,25.92"/>
    <polygon stroke-width="0" stroke="none" fill="black"  points="0,25.92,0,26.064,68.976,26.064,68.976,25.92"/>
    <polygon stroke-width="0" stroke="none" fill="black"  points="0,26.064,0,27.072,27.216,27.072,27.216,27.216,27.792,27.216,27.792,27.36,28.08,27.36,28.08,27.504,28.368,27.504,28.368,27.648,28.656,27.648,28.656,27.792,28.8,27.792,28.8,27.936,34.848,27.936,34.848,27.792,34.992,27.792,34.992,27.504,35.136,27.504,35.136,27.36,35.28,27.36,35.28,27.216,35.424,27.216,35.424,27.072,35.712,27.072,35.712,26.928,35.856,26.928,35.856,26.784,36.144,26.784,36.144,26.64,36.288,26.64,36.288,26.496,36.576,26.496,36.576,26.352,37.008,26.352,37.008,26.208,37.584,26.208,37.584,26.064"/>
    <polygon stroke-width="0" stroke="none" fill="black"  points="39.168,26.064,39.168,26.208,39.744,26.208,39.744,26.352,40.176,26.352,40.176,26.496,40.464,26.496,40.464,26.64,40.752,26.64,40.752,26.784,40.896,26.784,40.896,26.928,41.184,26.928,41.184,27.072,41.328,27.072,41.328,27.216,41.472,27.216,41.472,27.36,41.616,27.36,41.616,27.504,41.76,27.504,41.76,27.648,41.904,27.648,41.904,27.936,42.048,27.936,42.048,28.08,42.192,28.08,42.192,28.368,42.336,28.368,42.336,28.656,42.48,28.656,42.48,28.944,42.624,28.944,42.624,29.52,42.768,29.52,42.768,30.96,69.12,30.96,69.12,30.816,68.976,30.816,68.976,26.064"/>
    <polygon stroke-width="0" stroke="none" fill="black"  points="81.936,26.352,81.936,26.64,81.792,26.64,81.792,26.928,81.648,26.928,81.648,27.072,81.504,27.072,81.504,27.216,81.36,27.216,81.36,27.504,81.216,27.504,81.216,27.648,80.928,27.648,80.928,27.792,80.784,27.792,80.784,27.936,80.496,27.936,80.496,28.08,80.208,28.08,80.208,28.224,79.92,28.224,79.92,28.368,79.2,28.368,79.2,28.512,90.144,28.512,90.144,28.08,90.288,28.08,90.288,27.648,90.432,27.648,90.432,27.36,90.576,27.36,90.576,27.216,90.72,27.216,90.72,27.072,90.864,27.072,90.864,26.928,91.008,26.928,91.008,26.784,91.296,26.784,91.296,26.64,91.584,26.64,91.584,26.496,92.16,26.496,92.16,26.352"/>
    <polygon stroke-width="0" stroke="none" fill="black"  points="0,27.072,0,33.84,11.52,33.84,11.52,33.696,11.088,33.696,11.088,33.552,10.8,33.552,10.8,33.408,10.512,33.408,10.512,33.264,10.368,33.264,10.368,33.12,10.08,33.12,10.08,32.976,9.936,32.976,9.936,32.832,9.792,32.832,9.792,32.688,9.648,32.688,9.648,32.4,9.504,32.4,9.504,32.256,9.36,32.256,9.36,31.968,9.216,31.968,9.216,31.68,9.072,31.68,9.072,31.248,8.928,31.248,8.928,29.664,9.072,29.664,9.072,29.232,9.216,29.232,9.216,28.944,9.36,28.944,9.36,28.656,9.504,28.656,9.504,28.512,9.648,28.512,9.648,28.368,9.792,28.368,9.792,28.08,9.936,28.08,9.936,27.936,10.224,27.936,10.224,27.792,10.368,27.792,10.368,27.648,10.512,27.648,10.512,27.504,10.8,27.504,10.8,27.36,11.232,27.36,11.232,27.216,11.664,27.216,11.664,27.072"/>
    <polygon stroke-width="0" stroke="none" fill="black"  points="12.816,27.072,12.816,27.216,13.392,27.216,13.392,27.36,13.68,27.36,13.68,27.504,13.968,27.504,13.968,27.648,14.256,27.648,14.256,27.792,14.4,27.792,14.4,27.936,14.544,27.936,14.544,28.08,14.688,28.08,14.688,28.224,14.832,28.224,14.832,28.368,14.976,28.368,14.976,28.512,15.12,28.512,15.12,28.8,15.264,28.8,15.264,29.088,15.408,29.088,15.408,29.376,15.552,29.376,15.552,29.952,15.696,29.952,15.696,30.96,15.552,30.96,15.552,31.536,15.408,31.536,15.408,31.968,15.264,31.968,15.264,32.112,15.12,32.112,15.12,32.4,14.976,32.4,14.976,32.544,14.832,32.544,14.832,32.832,14.688,32.832,14.688,32.976,14.4,32.976,14.4,33.12,14.256,33.12,14.256,33.264,14.112,33.264,14.112,33.408,13.824,33.408,13.824,33.552,13.536,33.552,13.536,33.696,12.96,33.696,12.96,33.84,25.92,33.84,25.92,33.696,25.488,33.696,25.488,33.552,25.2,33.552,25.2,33.408,24.912,33.408,24.912,33.264,24.768,33.264,24.768,33.12,24.48,33.12,24.48,32.976,24.336,32.976,24.336,32.832,24.192,32.832,24.192,32.688,24.048,32.688,24.048,32.4,23.904,32.4,23.904,32.256,23.76,32.256,23.76,31.968,23.616,31.968,23.616,31.68,23.472,31.68,23.472,31.248,23.328,31.248,23.328,29.664,23.472,29.664,23.472,29.232,23.616,29.232,23.616,28.944,23.76,28.944,23.76,28.656,23.904,28.656,23.904,28.512,24.048,28.512,24.048,28.368,24.192,28.368,24.192,28.08,24.336,28.08,24.336,27.936,24.624,27.936,24.624,27.792,24.768,27.792,24.768,27.648,24.912,27.648,24.912,27.504,25.2,27.504,25.2,27.36,25.632,27.36,25.632,27.216,26.064,27.216,26.064,27.072"/>
    <polygon stroke-width="0" stroke="none" fill="black"  points="76.176,28.224,76.176,28.512,78.624,28.512,78.624,28.368,77.904,28.368,77.904,28.224"/>
    <polygon stroke-width="0" stroke="none" fill="black"  points="76.176,28.512,76.176,28.656,90.144,28.656,90.144,28.512"/>
    <polygon stroke-width="0" stroke="none" fill="black"  points="76.176,28.512,76.176,28.656,90.144,28.656,90.144,28.512"/>
    <polygon stroke-width="0" stroke="none" fill="black"  points="76.176,28.656,76.176,30.816,76.032,30.816,76.032,30.96,90.288,30.96,90.288,29.376,90.144,29.376,90.144,28.656"/>
    <polygon stroke-width="0" stroke="none" fill="black"  points="42.768,30.96,42.768,31.104,88.848,31.104,88.848,30.96"/>
    <polygon stroke-width="0" stroke="none" fill="black"  points="42.768,30.96,42.768,31.104,88.848,31.104,88.848,30.96"/>
    <polygon stroke-width="0" stroke="none" fill="black"  points="42.768,31.104,42.768,31.392,42.624,31.392,42.624,31.968,42.48,31.968,42.48,32.256,42.336,32.256,42.336,32.544,42.192,32.544,42.192,32.832,42.048,32.832,42.048,32.976,41.904,32.976,41.904,33.264,41.76,33.264,41.76,33.408,76.176,33.408,76.176,36.144,79.776,36.144,79.776,36.288,80.208,36.288,80.208,36.432,80.496,36.432,80.496,36.576,80.784,36.576,80.784,36.72,80.928,36.72,80.928,36.864,81.072,36.864,81.072,37.008,81.216,37.008,81.216,37.152,81.36,37.152,81.36,37.296,81.504,37.296,81.504,37.44,86.688,37.44,86.688,37.584,86.976,37.584,86.976,37.728,87.264,37.728,87.264,37.872,87.552,37.872,87.552,38.016,87.84,38.016,87.84,38.16,88.128,38.16,88.128,38.304,88.416,38.304,88.416,38.448,88.56,38.448,88.56,38.592,88.848,38.592,88.848,38.736,89.136,38.736,89.136,38.88,89.424,38.88,89.424,39.024,89.712,39.024,89.712,39.168,90,39.168,90,39.312,90.144,39.312,90.144,39.456,90.432,39.456,90.432,39.6,90.72,39.6,90.72,39.744,95.904,39.744,95.904,37.152,88.848,37.152,88.848,31.104"/>
    <polygon stroke-width="0" stroke="none" fill="black"  points="28.656,33.12,28.656,33.264,28.512,33.264,28.512,33.408,28.224,33.408,28.224,33.552,27.936,33.552,27.936,33.696,27.36,33.696,27.36,33.84,35.424,33.84,35.424,33.696,35.28,33.696,35.28,33.552,35.136,33.552,35.136,33.408,34.992,33.408,34.992,33.264,34.848,33.264,34.848,33.12"/>
    <polygon stroke-width="0" stroke="none" fill="black"  points="41.616,33.408,41.616,33.552,41.472,33.552,41.472,33.696,41.328,33.696,41.328,33.84,41.184,33.84,41.184,33.984,41.04,33.984,41.04,34.128,40.752,34.128,40.752,34.272,40.464,34.272,40.464,34.416,40.176,34.416,40.176,34.56,39.888,34.56,39.888,34.704,39.312,34.704,39.312,34.848,68.976,34.848,68.976,33.408"/>
    <polygon stroke-width="0" stroke="none" fill="black"  points="0,33.84,0,33.984,35.568,33.984,35.568,33.84"/>
    <polygon stroke-width="0" stroke="none" fill="black"  points="0,33.84,0,33.984,35.568,33.984,35.568,33.84"/>
    <polygon stroke-width="0" stroke="none" fill="black"  points="0,33.84,0,33.984,35.568,33.984,35.568,33.84"/>
    <polygon stroke-width="0" stroke="none" fill="black"  points="0,33.984,0,34.848,37.44,34.848,37.44,34.704,36.864,34.704,36.864,34.56,36.576,34.56,36.576,34.416,36.288,34.416,36.288,34.272,36,34.272,36,34.128,35.856,34.128,35.856,33.984"/>
    <polygon stroke-width="0" stroke="none" fill="black"  points="0,34.848,0,34.992,68.976,34.992,68.976,34.848"/>
    <polygon stroke-width="0" stroke="none" fill="black"  points="0,34.848,0,34.992,68.976,34.992,68.976,34.848"/>
    <polygon stroke-width="0" stroke="none" fill="black"  points="0,34.992,0,40.464,46.368,40.464,46.368,40.608,46.944,40.608,46.944,40.752,47.376,40.752,47.376,40.896,47.664,40.896,47.664,41.04,47.952,41.04,47.952,41.184,48.096,41.184,48.096,41.328,48.384,41.328,48.384,41.472,48.528,41.472,48.528,41.616,48.672,41.616,48.672,41.76,48.816,41.76,48.816,41.904,48.96,41.904,48.96,42.048,49.104,42.048,49.104,42.336,49.248,42.336,49.248,42.48,49.392,42.48,49.392,42.624,72.288,42.624,72.288,42.768,72.72,42.768,72.72,42.912,78.624,42.912,78.624,42.768,77.904,42.768,77.904,42.624,77.472,42.624,77.472,42.48,77.184,42.48,77.184,42.336,77.04,42.336,77.04,42.192,76.752,42.192,76.752,42.048,76.608,42.048,76.608,41.904,76.464,41.904,76.464,41.76,76.32,41.76,76.32,41.616,76.176,41.616,76.176,41.328,76.032,41.328,76.032,41.184,75.888,41.184,75.888,40.896,75.744,40.896,75.744,40.464,75.6,40.464,75.6,39.744,69.12,39.744,69.12,39.6,68.976,39.6,68.976,34.992"/>
    <polygon stroke-width="0" stroke="none" fill="black"  points="76.176,36.144,76.176,36.432,77.616,36.432,77.616,36.288,78.048,36.288,78.048,36.144"/>
    <polygon stroke-width="0" stroke="none" fill="black"  points="0,40.464,0,53.136,24.336,53.136,24.336,53.28,24.912,53.28,24.912,53.424,25.344,53.424,25.344,53.568,25.632,53.568,25.632,53.712,25.92,53.712,25.92,53.856,26.064,53.856,26.064,54,26.208,54,26.208,54.144,26.352,54.144,26.352,54.288,26.496,54.288,26.496,54.432,26.64,54.432,26.64,54.576,26.784,54.576,26.784,54.864,26.928,54.864,26.928,55.008,27.072,55.008,27.072,55.44,30.528,55.44,30.528,55.296,29.952,55.296,29.952,55.152,29.664,55.152,29.664,55.008,29.376,55.008,29.376,54.864,29.232,54.864,29.232,54.72,29.088,54.72,29.088,54.576,28.8,54.576,28.8,54.432,28.656,54.432,28.656,54.144,28.512,54.144,28.512,54,28.368,54,28.368,53.856,28.224,53.856,28.224,53.568,28.08,53.568,28.08,53.136,27.936,53.136,27.936,52.704,27.792,52.704,27.792,51.552,27.936,51.552,27.936,50.976,28.08,50.976,28.08,49.248,26.784,49.248,26.784,40.464"/>
    <polygon stroke-width="0" stroke="none" fill="black"  points="35.568,40.464,35.568,49.248,34.272,49.248,34.272,50.832,34.416,50.832,34.416,51.408,34.56,51.408,34.56,52.704,34.416,52.704,34.416,53.28,34.272,53.28,34.272,53.568,34.128,53.568,34.128,53.856,33.984,53.856,33.984,54,33.84,54,33.84,54.288,33.696,54.288,33.696,54.432,33.552,54.432,33.552,54.576,33.408,54.576,33.408,54.72,33.12,54.72,33.12,54.864,32.976,54.864,32.976,55.008,32.688,55.008,32.688,55.152,32.4,55.152,32.4,55.296,31.968,55.296,31.968,55.44,44.928,55.44,44.928,55.296,44.352,55.296,44.352,55.152,44.064,55.152,44.064,55.008,43.776,55.008,43.776,54.864,43.632,54.864,43.632,54.72,43.488,54.72,43.488,54.576,43.2,54.576,43.2,54.432,43.056,54.432,43.056,54.144,42.912,54.144,42.912,54,42.768,54,42.768,53.856,42.624,53.856,42.624,53.568,42.48,53.568,42.48,53.136,42.336,53.136,42.336,52.704,42.192,52.704,42.192,51.552,42.336,51.552,42.336,50.976,42.48,50.976,42.48,50.544,42.624,50.544,42.624,50.4,42.768,50.4,42.768,50.112,42.912,50.112,42.912,49.968,43.056,49.968,43.056,48.384,42.768,48.384,42.768,48.24,42.624,48.24,42.624,48.096,42.48,48.096,42.48,47.952,42.336,47.952,42.336,47.808,42.192,47.808,42.192,47.664,42.048,47.664,42.048,47.376,41.904,47.376,41.904,47.232,41.76,47.232,41.76,46.944,41.616,46.944,41.616,46.656,41.472,46.656,41.472,46.224,41.328,46.224,41.328,45.792,41.184,45.792,41.184,44.064,41.328,44.064,41.328,43.488,41.472,43.488,41.472,43.056,41.616,43.056,41.616,42.768,41.76,42.768,41.76,42.48,41.904,42.48,41.904,42.336,42.048,42.336,42.048,42.192,42.192,42.192,42.192,41.904,42.336,41.904,42.336,41.76,42.48,41.76,42.48,41.616,42.624,41.616,42.624,41.472,42.912,41.472,42.912,41.328,43.056,41.328,43.056,41.184,43.344,41.184,43.344,41.04,43.488,41.04,43.488,40.896,43.776,40.896,43.776,40.752,44.208,40.752,44.208,40.608,44.784,40.608,44.784,40.464"/>
    <polygon stroke-width="0" stroke="none" fill="black"  points="81.504,41.472,81.504,41.616,81.36,41.616,81.36,41.904,81.216,41.904,81.216,42.048,80.928,42.048,80.928,42.192,80.784,42.192,80.784,42.336,80.496,42.336,80.496,42.48,80.208,42.48,80.208,42.624,79.92,42.624,79.92,42.768,79.2,42.768,79.2,42.912,88.128,42.912,88.128,42.768,87.84,42.768,87.84,42.624,87.552,42.624,87.552,42.48,87.264,42.48,87.264,42.336,87.12,42.336,87.12,42.192,86.832,42.192,86.832,42.048,86.544,42.048,86.544,41.904,86.256,41.904,86.256,41.76,85.968,41.76,85.968,41.616,85.68,41.616,85.68,41.472"/>
    <polygon stroke-width="0" stroke="none" fill="black"  points="49.392,42.624,49.392,42.768,49.536,42.768,49.536,43.056,49.68,43.056,49.68,43.344,49.824,43.344,49.824,43.92,49.968,43.92,49.968,45.792,49.824,45.792,49.824,46.368,49.68,46.368,49.68,46.656,49.536,46.656,49.536,46.944,49.392,46.944,49.392,47.088,70.992,47.088,70.992,46.944,70.56,46.944,70.56,46.8,70.416,46.8,70.416,46.656,70.128,46.656,70.128,46.512,69.984,46.512,69.984,46.224,69.84,46.224,69.84,46.08,69.696,46.08,69.696,45.792,69.552,45.792,69.552,45.36,69.408,45.36,69.408,44.352,69.552,44.352,69.552,43.92,69.696,43.92,69.696,43.632,69.84,43.632,69.84,43.488,69.984,43.488,69.984,43.344,70.128,43.344,70.128,43.2,70.272,43.2,70.272,43.056,70.416,43.056,70.416,42.912,70.704,42.912,70.704,42.768,70.992,42.768,70.992,42.624"/>
    <polygon stroke-width="0" stroke="none" fill="black"  points="73.008,42.912,73.008,43.056,88.416,43.056,88.416,42.912"/>
    <polygon stroke-width="0" stroke="none" fill="black"  points="73.008,42.912,73.008,43.056,88.416,43.056,88.416,42.912"/>
    <polygon stroke-width="0" stroke="none" fill="black"  points="73.152,43.056,73.152,43.2,73.296,43.2,73.296,43.344,73.44,43.344,73.44,43.488,73.584,43.488,73.584,43.776,73.728,43.776,73.728,44.064,73.872,44.064,73.872,44.64,74.016,44.64,74.016,45.072,73.872,45.072,73.872,45.792,73.728,45.792,73.728,45.936,73.584,45.936,73.584,46.224,73.44,46.224,73.44,46.368,73.296,46.368,73.296,46.512,73.152,46.512,73.152,46.656,73.008,46.656,73.008,46.8,72.72,46.8,72.72,46.944,84.24,46.944,84.24,47.088,84.672,47.088,84.672,47.232,84.96,47.232,84.96,47.376,85.248,47.376,85.248,47.52,85.392,47.52,85.392,47.664,85.536,47.664,85.536,47.808,85.824,47.808,85.824,47.952,85.968,47.952,85.968,48.24,86.112,48.24,86.112,48.384,86.256,48.384,86.256,48.672,86.4,48.672,86.4,48.96,86.544,48.96,86.544,49.392,86.688,49.392,86.688,50.112,86.832,50.112,86.832,50.544,86.688,50.544,86.688,51.264,86.544,51.264,86.544,51.696,86.4,51.696,86.4,51.84,86.256,51.84,86.256,52.128,86.112,52.128,86.112,52.416,85.968,52.416,85.968,52.56,85.824,52.56,85.824,52.704,85.68,52.704,85.68,52.848,85.536,52.848,85.536,52.992,85.248,52.992,85.248,53.136,85.104,53.136,85.104,53.28,84.816,53.28,84.816,53.424,84.384,53.424,84.384,53.568,83.664,53.568,83.664,53.712,95.904,53.712,95.904,45.936,88.848,45.936,88.848,43.2,88.704,43.2,88.704,43.056"/>
    <polygon stroke-width="0" stroke="none" fill="black"  points="72.432,46.944,72.432,47.088,82.512,47.088,82.512,46.944"/>
    <polygon stroke-width="0" stroke="none" fill="black"  points="49.392,47.088,49.392,47.232,82.08,47.232,82.08,47.088"/>
    <polygon stroke-width="0" stroke="none" fill="black"  points="49.392,47.088,49.392,47.232,82.08,47.232,82.08,47.088"/>
    <polygon stroke-width="0" stroke="none" fill="black"  points="49.248,47.232,49.248,47.376,49.104,47.376,49.104,47.664,48.96,47.664,48.96,47.808,48.816,47.808,48.816,47.952,48.672,47.952,48.672,48.096,48.528,48.096,48.528,48.24,48.384,48.24,48.384,48.384,48.24,48.384,48.24,50.112,48.384,50.112,48.384,50.256,48.528,50.256,48.528,50.544,48.672,50.544,48.672,50.832,48.816,50.832,48.816,51.408,48.96,51.408,48.96,52.704,48.816,52.704,48.816,53.28,48.672,53.28,48.672,53.568,48.528,53.568,48.528,53.712,83.088,53.712,83.088,53.568,82.368,53.568,82.368,53.424,81.936,53.424,81.936,53.28,81.792,53.28,81.792,53.136,81.504,53.136,81.504,52.992,81.36,52.992,81.36,52.848,81.072,52.848,81.072,52.704,80.928,52.704,80.928,52.56,80.784,52.56,80.784,52.272,80.64,52.272,80.64,52.128,80.496,52.128,80.496,51.84,80.352,51.84,80.352,51.552,80.208,51.552,80.208,51.12,80.064,51.12,80.064,49.392,80.208,49.392,80.208,48.96,80.352,48.96,80.352,48.672,80.496,48.672,80.496,48.384,80.64,48.384,80.64,48.24,80.784,48.24,80.784,48.096,80.928,48.096,80.928,47.952,81.072,47.952,81.072,47.808,81.216,47.808,81.216,47.664,81.36,47.664,81.36,47.52,81.504,47.52,81.504,47.376,81.792,47.376,81.792,47.232"/>
    <polygon stroke-width="0" stroke="none" fill="black"  points="0,53.136,0,59.904,8.784,59.904,8.784,59.76,8.208,59.76,8.208,59.616,8.064,59.616,8.064,59.472,7.776,59.472,7.776,59.328,7.488,59.328,7.488,59.184,7.344,59.184,7.344,59.04,7.2,59.04,7.2,58.896,7.056,58.896,7.056,58.752,6.912,58.752,6.912,58.464,6.768,58.464,6.768,58.32,6.624,58.32,6.624,58.032,6.48,58.032,6.48,57.744,6.336,57.744,6.336,57.168,6.192,57.168,6.192,56.016,6.336,56.016,6.336,55.44,6.48,55.44,6.48,55.152,6.624,55.152,6.624,54.864,6.768,54.864,6.768,54.576,6.912,54.576,6.912,54.432,7.056,54.432,7.056,54.288,7.2,54.288,7.2,54.144,7.344,54.144,7.344,54,7.488,54,7.488,53.856,7.632,53.856,7.632,53.712,7.92,53.712,7.92,53.568,8.208,53.568,8.208,53.424,8.64,53.424,8.64,53.28,9.216,53.28,9.216,53.136"/>
    <polygon stroke-width="0" stroke="none" fill="black"  points="9.936,53.136,9.936,53.28,10.512,53.28,10.512,53.424,10.944,53.424,10.944,53.568,11.232,53.568,11.232,53.712,11.52,53.712,11.52,53.856,11.664,53.856,11.664,54,11.808,54,11.808,54.144,11.952,54.144,11.952,54.288,12.096,54.288,12.096,54.432,12.24,54.432,12.24,54.576,12.384,54.576,12.384,54.864,12.528,54.864,12.528,55.008,12.672,55.008,12.672,55.44,12.816,55.44,12.816,55.872,12.96,55.872,12.96,57.312,12.816,57.312,12.816,57.744,12.672,57.744,12.672,58.032,12.528,58.032,12.528,58.32,12.384,58.32,12.384,58.608,12.24,58.608,12.24,58.752,12.096,58.752,12.096,58.896,11.952,58.896,11.952,59.04,11.808,59.04,11.808,59.184,11.664,59.184,11.664,59.328,11.376,59.328,11.376,59.472,11.232,59.472,11.232,59.616,10.944,59.616,10.944,59.76,10.368,59.76,10.368,59.904,23.184,59.904,23.184,59.76,22.608,59.76,22.608,59.616,22.464,59.616,22.464,59.472,22.176,59.472,22.176,59.328,21.888,59.328,21.888,59.184,21.744,59.184,21.744,59.04,21.6,59.04,21.6,58.896,21.456,58.896,21.456,58.752,21.312,58.752,21.312,58.464,21.168,58.464,21.168,58.32,21.024,58.32,21.024,58.032,20.88,58.032,20.88,57.744,20.736,57.744,20.736,57.168,20.592,57.168,20.592,56.016,20.736,56.016,20.736,55.44,20.88,55.44,20.88,55.152,21.024,55.152,21.024,54.864,21.168,54.864,21.168,54.576,21.312,54.576,21.312,54.432,21.456,54.432,21.456,54.288,21.6,54.288,21.6,54.144,21.744,54.144,21.744,54,21.888,54,21.888,53.856,22.032,53.856,22.032,53.712,22.32,53.712,22.32,53.568,22.608,53.568,22.608,53.424,23.04,53.424,23.04,53.28,23.616,53.28,23.616,53.136"/>
    <polygon stroke-width="0" stroke="none" fill="black"  points="48.528,53.712,48.528,53.856,95.904,53.856,95.904,53.712"/>
    <polygon stroke-width="0" stroke="none" fill="black"  points="48.528,53.712,48.528,53.856,95.904,53.856,95.904,53.712"/>
    <polygon stroke-width="0" stroke="none" fill="black"  points="48.384,53.856,48.384,54,48.24,54,48.24,54.144,77.04,54.144,77.04,54.288,77.472,54.288,77.472,54.432,77.76,54.432,77.76,54.576,78.048,54.576,78.048,54.72,78.192,54.72,78.192,54.864,78.336,54.864,78.336,55.008,78.624,55.008,78.624,55.152,78.768,55.152,78.768,55.44,78.912,55.44,78.912,55.584,79.056,55.584,79.056,55.872,79.2,55.872,79.2,56.16,79.344,56.16,79.344,56.592,79.488,56.592,79.488,57.312,79.632,57.312,79.632,57.744,79.488,57.744,79.488,58.464,79.344,58.464,79.344,58.896,79.2,58.896,79.2,59.04,79.056,59.04,79.056,59.328,78.912,59.328,78.912,59.616,78.768,59.616,78.768,59.76,78.624,59.76,78.624,59.904,78.48,59.904,78.48,60.048,78.336,60.048,78.336,60.192,78.048,60.192,78.048,60.336,77.904,60.336,77.904,61.344,84.24,61.344,84.24,61.488,84.672,61.488,84.672,61.632,84.96,61.632,84.96,61.776,85.248,61.776,85.248,61.92,85.392,61.92,85.392,62.064,85.536,62.064,85.536,62.208,85.824,62.208,85.824,62.352,85.968,62.352,85.968,62.64,89.424,62.64,89.424,62.496,89.568,62.496,89.568,62.208,89.712,62.208,89.712,62.064,89.856,62.064,89.856,61.92,90.144,61.92,90.144,60.336,90,60.336,90,60.192,89.856,60.192,89.856,60.048,89.712,60.048,89.712,59.904,89.568,59.904,89.568,59.76,89.424,59.76,89.424,59.472,89.28,59.472,89.28,59.328,89.136,59.328,89.136,59.04,88.992,59.04,88.992,58.608,88.848,58.608,88.848,58.032,88.704,58.032,88.704,56.88,88.848,56.88,88.848,56.304,88.992,56.304,88.992,55.872,89.136,55.872,89.136,55.728,89.28,55.728,89.28,55.44,89.424,55.44,89.424,55.296,89.568,55.296,89.568,55.008,89.712,55.008,89.712,54.864,89.856,54.864,89.856,54.72,90.144,54.72,90.144,54.576,90.288,54.576,90.288,54.432,90.432,54.432,90.432,54.288,90.72,54.288,90.72,54.144,91.008,54.144,91.008,54,91.44,54,91.44,53.856"/>
    <polygon stroke-width="0" stroke="none" fill="black"  points="93.312,53.856,93.312,54,93.744,54,93.744,54.144,94.032,54.144,94.032,54.288,94.32,54.288,94.32,54.432,94.464,54.432,94.464,54.576,95.904,54.576,95.904,53.856"/>
    <polygon stroke-width="0" stroke="none" fill="black"  points="48.24,54.144,48.24,54.288,48.096,54.288,48.096,54.432,47.952,54.432,47.952,54.576,47.808,54.576,47.808,54.72,47.52,54.72,47.52,54.864,47.376,54.864,47.376,55.008,47.088,55.008,47.088,55.152,46.8,55.152,46.8,55.296,46.368,55.296,46.368,55.44,59.184,55.44,59.184,55.296,59.328,55.296,59.328,55.152,59.472,55.152,59.472,55.008,59.616,55.008,59.616,54.864,59.76,54.864,59.76,54.72,59.904,54.72,59.904,54.576,60.192,54.576,60.192,54.432,60.48,54.432,60.48,54.288,60.912,54.288,60.912,54.144"/>
    <polygon stroke-width="0" stroke="none" fill="black"  points="62.64,54.144,62.64,54.288,63.072,54.288,63.072,54.432,63.36,54.432,63.36,54.576,63.648,54.576,63.648,54.72,63.792,54.72,63.792,54.864,63.936,54.864,63.936,55.008,64.224,55.008,64.224,55.152,64.368,55.152,64.368,55.44,64.512,55.44,64.512,55.584,64.656,55.584,64.656,55.872,64.8,55.872,64.8,56.16,64.944,56.16,64.944,56.592,65.088,56.592,65.088,57.312,65.232,57.312,65.232,57.744,65.088,57.744,65.088,58.464,64.944,58.464,64.944,58.896,64.8,58.896,64.8,59.04,64.656,59.04,64.656,59.328,64.512,59.328,64.512,59.616,64.368,59.616,64.368,59.76,64.224,59.76,64.224,59.904,64.08,59.904,64.08,60.048,63.936,60.048,63.936,60.192,63.792,60.192,63.792,62.064,63.936,62.064,63.936,62.208,64.224,62.208,64.224,62.352,64.368,62.352,64.368,62.64,64.512,62.64,64.512,62.784,64.656,62.784,64.656,63.072,64.8,63.072,64.8,63.36,64.944,63.36,64.944,63.792,65.088,63.792,65.088,64.512,65.232,64.512,65.232,64.944,65.088,64.944,65.088,65.664,64.944,65.664,64.944,66.096,64.8,66.096,64.8,66.24,64.656,66.24,64.656,66.528,64.512,66.528,64.512,66.816,64.368,66.816,64.368,66.96,64.224,66.96,64.224,67.104,64.08,67.104,64.08,67.248,63.936,67.248,63.936,67.392,63.648,67.392,63.648,67.536,63.36,67.536,63.36,67.68,63.216,67.68,63.216,67.824,62.784,67.824,62.784,67.968,62.064,67.968,62.064,68.112,75.888,68.112,75.888,67.968,75.168,67.968,75.168,67.824,74.736,67.824,74.736,67.68,74.592,67.68,74.592,67.536,74.304,67.536,74.304,67.392,74.16,67.392,74.16,67.248,73.872,67.248,73.872,67.104,73.728,67.104,73.728,66.96,73.584,66.96,73.584,66.672,73.44,66.672,73.44,66.528,73.296,66.528,73.296,66.24,73.152,66.24,73.152,65.952,73.008,65.952,73.008,65.52,72.864,65.52,72.864,63.792,73.008,63.792,73.008,63.36,73.152,63.36,73.152,63.072,73.296,63.072,73.296,62.784,73.44,62.784,73.44,62.64,73.584,62.64,73.584,62.496,73.728,62.496,73.728,62.352,73.872,62.352,73.872,62.208,74.016,62.208,74.016,62.064,74.16,62.064,74.16,61.92,74.304,61.92,74.304,61.776,74.592,61.776,74.592,60.336,74.304,60.336,74.304,60.192,74.16,60.192,74.16,60.048,73.872,60.048,73.872,59.904,73.728,59.904,73.728,59.76,73.584,59.76,73.584,59.472,73.44,59.472,73.44,59.328,73.296,59.328,73.296,59.04,73.152,59.04,73.152,58.752,73.008,58.752,73.008,58.32,72.864,58.32,72.864,56.592,73.008,56.592,73.008,56.16,73.152,56.16,73.152,55.872,73.296,55.872,73.296,55.584,73.44,55.584,73.44,55.44,73.584,55.44,73.584,55.296,73.728,55.296,73.728,55.152,73.872,55.152,73.872,55.008,74.016,55.008,74.016,54.864,74.16,54.864,74.16,54.72,74.304,54.72,74.304,54.576,74.592,54.576,74.592,54.432,74.88,54.432,74.88,54.288,75.312,54.288,75.312,54.144"/>
    <polygon stroke-width="0" stroke="none" fill="black"  points="27.216,55.44,27.216,55.584,59.04,55.584,59.04,55.44"/>
    <polygon stroke-width="0" stroke="none" fill="black"  points="27.216,55.44,27.216,55.584,59.04,55.584,59.04,55.44"/>
    <polygon stroke-width="0" stroke="none" fill="black"  points="27.216,55.44,27.216,55.584,59.04,55.584,59.04,55.44"/>
    <polygon stroke-width="0" stroke="none" fill="black"  points="27.216,55.584,27.216,55.728,39.024,55.728,39.024,55.872,39.744,55.872,39.744,56.016,40.032,56.016,40.032,56.16,40.464,56.16,40.464,56.304,40.608,56.304,40.608,56.448,40.896,56.448,40.896,56.592,41.04,56.592,41.04,56.736,41.328,56.736,41.328,56.88,41.472,56.88,41.472,57.024,41.616,57.024,41.616,57.168,41.76,57.168,41.76,57.456,41.904,57.456,41.904,57.6,42.048,57.6,42.048,57.744,42.192,57.744,42.192,58.032,42.336,58.032,42.336,58.32,42.48,58.32,42.48,58.752,42.624,58.752,42.624,59.184,42.768,59.184,42.768,61.2,42.624,61.2,42.624,61.632,42.48,61.632,42.48,62.064,42.336,62.064,42.336,62.352,42.192,62.352,42.192,62.496,42.048,62.496,42.048,62.784,41.904,62.784,41.904,62.928,41.76,62.928,41.76,63.072,41.616,63.072,41.616,63.216,41.472,63.216,41.472,63.36,41.328,63.36,41.328,64.8,43.488,64.8,43.488,64.944,43.92,64.944,43.92,65.088,44.208,65.088,44.208,65.232,44.352,65.232,44.352,65.376,44.64,65.376,44.64,65.52,44.784,65.52,44.784,65.664,44.928,65.664,44.928,65.808,45.072,65.808,45.072,65.952,45.216,65.952,45.216,66.096,45.36,66.096,45.36,66.24,45.504,66.24,45.504,66.384,45.648,66.384,45.648,66.528,45.792,66.528,45.792,66.672,45.936,66.672,45.936,66.816,46.08,66.816,46.08,66.96,46.224,66.96,46.224,67.104,46.368,67.104,46.368,67.392,46.512,67.392,46.512,67.536,46.656,67.536,46.656,67.68,46.8,67.68,46.8,67.824,46.944,67.824,46.944,67.968,47.088,67.968,47.088,68.112,61.488,68.112,61.488,67.968,60.768,67.968,60.768,67.824,60.336,67.824,60.336,67.68,60.192,67.68,60.192,67.536,59.904,67.536,59.904,67.392,59.76,67.392,59.76,67.248,59.472,67.248,59.472,67.104,59.328,67.104,59.328,66.96,59.184,66.96,59.184,66.672,59.04,66.672,59.04,66.528,58.896,66.528,58.896,66.24,58.752,66.24,58.752,65.952,58.608,65.952,58.608,65.52,58.464,65.52,58.464,63.792,58.608,63.792,58.608,63.36,58.752,63.36,58.752,63.072,58.896,63.072,58.896,62.784,59.04,62.784,59.04,62.64,59.184,62.64,59.184,62.496,59.328,62.496,59.328,62.352,59.472,62.352,59.472,62.208,59.616,62.208,59.616,62.064,59.76,62.064,59.76,60.048,59.472,60.048,59.472,59.904,59.328,59.904,59.328,59.76,59.184,59.76,59.184,59.472,59.04,59.472,59.04,59.328,58.896,59.328,58.896,59.04,58.752,59.04,58.752,58.752,58.608,58.752,58.608,58.32,58.464,58.32,58.464,56.592,58.608,56.592,58.608,56.16,58.752,56.16,58.752,55.872,58.896,55.872,58.896,55.584"/>
    <polygon stroke-width="0" stroke="none" fill="black"  points="27.504,55.728,27.504,55.872,27.648,55.872,27.648,56.016,27.936,56.016,27.936,56.16,28.08,56.16,28.08,56.304,28.368,56.304,28.368,56.448,28.512,56.448,28.512,56.592,28.8,56.592,28.8,56.736,28.944,56.736,28.944,56.88,29.232,56.88,29.232,57.024,29.376,57.024,29.376,57.168,29.664,57.168,29.664,57.312,29.808,57.312,29.808,57.456,30.096,57.456,30.096,57.6,34.848,57.6,34.848,57.456,34.992,57.456,34.992,57.312,35.136,57.312,35.136,57.168,35.28,57.168,35.28,57.024,35.424,57.024,35.424,56.88,35.568,56.88,35.568,56.736,35.712,56.736,35.712,56.592,35.856,56.592,35.856,56.448,36.144,56.448,36.144,56.304,36.432,56.304,36.432,56.16,36.72,56.16,36.72,56.016,37.152,56.016,37.152,55.872,37.728,55.872,37.728,55.728"/>
    <polygon stroke-width="0" stroke="none" fill="black"  points="0,59.904,0,60.048,24.48,60.048,24.48,59.904"/>
    <polygon stroke-width="0" stroke="none" fill="black"  points="0,59.904,0,60.048,24.48,60.048,24.48,59.904"/>
    <polygon stroke-width="0" stroke="none" fill="black"  points="0,60.048,0,66.672,3.888,66.672,3.888,66.816,4.32,66.816,4.32,66.96,4.752,66.96,4.752,67.104,5.04,67.104,5.04,67.248,5.184,67.248,5.184,67.392,5.472,67.392,5.472,67.536,5.616,67.536,5.616,67.68,5.76,67.68,5.76,67.824,5.904,67.824,5.904,68.112,6.048,68.112,6.048,68.256,6.192,68.256,6.192,68.544,6.336,68.544,6.336,68.832,6.48,68.832,6.48,69.264,6.624,69.264,6.624,70.848,6.48,70.848,6.48,72.864,6.624,72.864,6.624,73.008,6.912,73.008,6.912,73.152,7.056,73.152,7.056,73.296,7.2,73.296,7.2,73.44,7.488,73.44,7.488,73.584,7.632,73.584,7.632,73.728,7.92,73.728,7.92,73.872,10.224,73.872,10.224,74.016,12.528,74.016,12.528,74.16,15.984,74.16,15.984,72.864,15.696,72.864,15.696,72.72,15.552,72.72,15.552,72.576,15.408,72.576,15.408,72.432,15.264,72.432,15.264,72.288,15.12,72.288,15.12,72.144,14.976,72.144,14.976,72,14.832,72,14.832,71.712,14.688,71.712,14.688,71.424,14.544,71.424,14.544,70.992,14.4,70.992,14.4,70.416,14.256,70.416,14.256,69.696,14.4,69.696,14.4,69.12,14.544,69.12,14.544,68.688,14.688,68.688,14.688,68.4,14.832,68.4,14.832,68.112,14.976,68.112,14.976,67.968,15.12,67.968,15.12,67.824,15.264,67.824,15.264,67.68,15.408,67.68,15.408,67.536,15.552,67.536,15.552,67.392,15.696,67.392,15.696,67.248,15.984,67.248,15.984,67.104,16.272,67.104,16.272,66.96,16.56,66.96,16.56,66.816,17.136,66.816,17.136,66.672,18.432,66.672,18.432,66.528,18.72,66.528,18.72,66.384,19.008,66.384,19.008,66.24,19.152,66.24,19.152,66.096,19.44,66.096,19.44,65.952,19.728,65.952,19.728,65.808,20.016,65.808,20.016,65.664,20.16,65.664,20.16,65.52,20.448,65.52,20.448,65.376,20.736,65.376,20.736,65.232,20.88,65.232,20.88,65.088,21.168,65.088,21.168,64.944,21.744,64.944,21.744,64.8,35.424,64.8,35.424,63.36,35.28,63.36,35.28,63.216,35.136,63.216,35.136,63.072,34.992,63.072,34.992,62.928,34.848,62.928,34.848,62.784,28.8,62.784,28.8,62.64,28.368,62.64,28.368,62.496,28.08,62.496,28.08,62.352,27.792,62.352,27.792,62.208,27.648,62.208,27.648,62.064,27.36,62.064,27.36,61.92,27.216,61.92,27.216,61.776,26.928,61.776,26.928,61.632,26.784,61.632,26.784,61.488,26.496,61.488,26.496,61.344,26.352,61.344,26.352,61.2,26.208,61.2,26.208,61.056,25.92,61.056,25.92,60.912,25.776,60.912,25.776,60.768,25.488,60.768,25.488,60.624,25.344,60.624,25.344,60.48,25.056,60.48,25.056,60.336,24.912,60.336,24.912,60.192,24.624,60.192,24.624,60.048"/>
    <polygon stroke-width="0" stroke="none" fill="black"  points="77.904,61.344,77.904,61.776,78.048,61.776,78.048,61.92,78.192,61.92,78.192,62.064,78.336,62.064,78.336,62.208,78.624,62.208,78.624,62.352,78.768,62.352,78.768,62.64,80.784,62.64,80.784,62.496,80.928,62.496,80.928,62.352,81.072,62.352,81.072,62.208,81.216,62.208,81.216,62.064,81.36,62.064,81.36,61.92,81.504,61.92,81.504,61.776,81.792,61.776,81.792,61.632,82.08,61.632,82.08,61.488,82.512,61.488,82.512,61.344"/>
    <polygon stroke-width="0" stroke="none" fill="black"  points="0,66.672,0,67.248,1.584,67.248,1.584,67.104,1.872,67.104,1.872,66.96,2.16,66.96,2.16,66.816,2.736,66.816,2.736,66.672"/>
    <polygon stroke-width="0" stroke="none" fill="black"  points="78.912,66.672,78.912,66.816,78.768,66.816,78.768,66.96,78.624,66.96,78.624,67.104,78.48,67.104,78.48,67.248,78.336,67.248,78.336,67.392,78.048,67.392,78.048,67.536,77.76,67.536,77.76,67.68,77.616,67.68,77.616,67.824,77.184,67.824,77.184,67.968,76.464,67.968,76.464,68.112,83.088,68.112,83.088,67.968,82.368,67.968,82.368,67.824,81.936,67.824,81.936,67.68,81.792,67.68,81.792,67.536,81.504,67.536,81.504,67.392,81.36,67.392,81.36,67.248,81.072,67.248,81.072,67.104,80.928,67.104,80.928,66.96,80.784,66.96,80.784,66.672"/>
    <polygon stroke-width="0" stroke="none" fill="black"  points="86.112,66.672,86.112,66.816,85.968,66.816,85.968,66.96,85.824,66.96,85.824,67.104,85.68,67.104,85.68,67.248,85.536,67.248,85.536,67.392,85.248,67.392,85.248,67.536,85.104,67.536,85.104,67.68,84.816,67.68,84.816,67.824,84.384,67.824,84.384,67.968,83.664,67.968,83.664,68.112,90.864,68.112,90.864,67.968,90.72,67.968,90.72,67.824,90.432,67.824,90.432,67.68,90.144,67.68,90.144,67.536,90,67.536,90,67.392,89.856,67.392,89.856,67.248,89.712,67.248,89.712,67.104,89.568,67.104,89.568,66.96,89.424,66.96,89.424,66.672"/>
    <polygon stroke-width="0" stroke="none" fill="black"  points="94.32,67.68,94.32,67.824,94.176,67.824,94.176,67.968,93.888,67.968,93.888,68.112,93.456,68.112,93.456,68.256,92.592,68.256,92.592,68.4,95.904,68.4,95.904,67.68"/>
    <polygon stroke-width="0" stroke="none" fill="black"  points="47.232,68.112,47.232,68.256,91.296,68.256,91.296,68.112"/>
    <polygon stroke-width="0" stroke="none" fill="black"  points="47.232,68.112,47.232,68.256,91.296,68.256,91.296,68.112"/>
    <polygon stroke-width="0" stroke="none" fill="black"  points="47.232,68.112,47.232,68.256,91.296,68.256,91.296,68.112"/>
    <polygon stroke-width="0" stroke="none" fill="black"  points="47.232,68.112,47.232,68.256,91.296,68.256,91.296,68.112"/>
    <polygon stroke-width="0" stroke="none" fill="black"  points="47.376,68.256,47.376,68.4,92.16,68.4,92.16,68.256"/>
    <polygon stroke-width="0" stroke="none" fill="black"  points="47.52,68.4,47.52,68.544,95.904,68.544,95.904,68.4"/>
    <polygon stroke-width="0" stroke="none" fill="black"  points="47.52,68.4,47.52,68.544,95.904,68.544,95.904,68.4"/>
    <polygon stroke-width="0" stroke="none" fill="black"  points="47.664,68.544,47.664,68.688,47.808,68.688,47.808,68.976,47.952,68.976,47.952,69.264,48.096,69.264,48.096,70.992,48.24,70.992,48.24,71.136,48.528,71.136,48.528,71.28,48.672,71.28,48.672,71.424,48.816,71.424,48.816,71.568,48.96,71.568,48.96,71.856,49.104,71.856,49.104,72,49.248,72,49.248,72.144,49.392,72.144,49.392,72.432,49.536,72.432,49.536,72.72,49.68,72.72,49.68,73.152,49.824,73.152,49.824,73.584,49.968,73.584,49.968,75.6,49.824,75.6,49.824,76.032,49.68,76.032,49.68,76.464,49.536,76.464,49.536,76.752,49.392,76.752,49.392,76.896,49.248,76.896,49.248,77.184,49.104,77.184,49.104,77.328,48.96,77.328,48.96,77.472,48.816,77.472,48.816,78.912,95.904,78.912,95.904,68.544"/>
    <g id="connector0pad" >
     <circle cx="60.0416" stroke-width="0" stroke="none" r="2.7" fill="black" cy="13.437" />
    </g>
   </g>
  </g>
 </g>
 <g partID="854476040">
  <g transform="translate(22.032,72.864)">
   <g id="groundplane" >
    <g id="connector0pad" >
     <polygon stroke-width="0" stroke="none" fill="black"  points="3.744,0,3.744,0.144,3.456,0.144,3.456,0.288,3.168,0.288,3.168,0.432,2.88,0.432,2.88,0.576,2.736,0.576,2.736,0.72,2.448,0.72,2.448,0.864,2.16,0.864,2.16,1.008,2.016,1.008,2.016,1.152,1.728,1.152,1.728,1.44,1.584,1.44,1.584,1.728,1.44,1.728,1.44,1.872,1.296,1.872,1.296,2.16,1.152,2.16,1.152,2.304,1.008,2.304,1.008,2.448,0.864,2.448,0.864,2.592,0.72,2.592,0.72,2.736,0.576,2.736,0.576,2.88,0.288,2.88,0.288,3.024,0,3.024,0,4.464,0.576,4.464,0.576,4.608,3.168,4.608,3.168,4.464,3.744,4.464,3.744,4.32,4.176,4.32,4.176,4.176,4.608,4.176,4.608,4.032,5.184,4.032,5.184,3.888,5.616,3.888,5.616,3.744,6.048,3.744,6.048,3.6,6.624,3.6,6.624,3.456,7.056,3.456,7.056,3.312,7.488,3.312,7.488,3.168,7.632,3.168,7.632,0"/>
    </g>
   </g>
  </g>
 </g>
 <g partID="854476050">
  <g transform="translate(38.448,72.864)">
   <g id="groundplane" >
    <g id="connector0pad" >
     <polygon stroke-width="0" stroke="none" fill="black"  points="0,0,0,8.928,6.768,8.928,6.768,7.488,6.624,7.488,6.624,7.344,6.48,7.344,6.48,7.2,6.336,7.2,6.336,6.912,6.192,6.912,6.192,6.624,6.048,6.624,6.048,6.336,5.904,6.336,5.904,6.048,5.76,6.048,5.76,5.472,5.616,5.472,5.616,3.744,5.76,3.744,5.76,3.168,5.904,3.168,5.904,2.736,6.048,2.736,6.048,2.448,6.192,2.448,6.192,2.304,6.336,2.304,6.336,2.016,6.48,2.016,6.48,1.872,6.624,1.872,6.624,0.288,6.48,0.288,6.48,0.144,6.336,0.144,6.336,0"/>
    </g>
   </g>
  </g>
 </g>
 <g partID="854476060">
  <g transform="translate(2.88,78.336)">
   <g id="groundplane" >
    <g id="connector0pad" >
     <polygon stroke-width="0" stroke="none" fill="black"  points="0,0,0,3.456,4.176,3.456,4.176,2.016,4.032,2.016,4.032,1.872,3.744,1.872,3.744,1.728,3.6,1.728,3.6,1.584,3.312,1.584,3.312,1.44,3.168,1.44,3.168,1.296,3.024,1.296,3.024,1.152,2.736,1.152,2.736,1.008,2.592,1.008,2.592,0.864,2.448,0.864,2.448,0.72,2.16,0.72,2.16,0.576,2.016,0.576,2.016,0.432,1.872,0.432,1.872,0.288,1.584,0.288,1.584,0.144,1.44,0.144,1.44,0"/>
    </g>
   </g>
  </g>
 </g>
 <g partID="57510">
  <g transform="translate(100.309,72.5924)">
   <g transform="matrix(-1,0,0,-1,0,0)">
    <g id="copper0" >
     <circle id="connector0pin" cx="5.04" stroke-width="1.44" stroke="black" fill="none" r="2.088" cy="5.04" />
     <circle id="connector1pin" cx="5.04" stroke-width="1.44" stroke="black" fill="none" r="2.088" cy="12.24" />
    </g>
   </g>
  </g>
 </g>
 <g partID="854455220">
  <g transform="translate(89.1486,50.2724)">
   <g transform="matrix(0,1,-1,0,0,0)">
    <g id="copper0" >
     <g id="copper1" >
      <circle id="connector0pin" cx="2.88" stroke-width="1.44" stroke="black" fill="none" r="1.8" cy="2.88" />
      <circle id="connector1pin" cx="17.28" stroke-width="1.44" stroke="black" fill="none" r="1.8" cy="2.88" />
     </g>
    </g>
   </g>
  </g>
 </g>
 <g partID="854454140">
  <g transform="translate(61.7886,64.6724)">
   <g id="copper0" >
    <g id="copper1" >
     <circle id="connector0pin" cx="2.88" stroke-width="1.44" stroke="black" fill="none" r="1.8" cy="2.88" />
     <circle id="connector1pin" cx="17.28" stroke-width="1.44" stroke="black" fill="none" r="1.8" cy="2.88" />
    </g>
   </g>
  </g>
 </g>
 <g partID="854398450">
  <g transform="translate(81.9486,63.2324)">
   <g transform="matrix(-1,0,0,-1,0,0)">
    <g id="copper0" >
     <g id="copper1" >
      <circle id="connector0pin" cx="2.88" stroke-width="1.44" stroke="black" fill="none" r="1.8" cy="2.88" />
      <circle id="connector1pin" cx="17.28" stroke-width="1.44" stroke="black" fill="none" r="1.8" cy="2.88" />
     </g>
    </g>
   </g>
  </g>
 </g>
 <g partID="854326610">
  <g transform="translate(84.8286,5.0924)">
   <g transform="matrix(0,1,-1,0,0,0)">
    <g id="copper0" >
     <rect x="1.98" id="rect11" width="3.96" y="5.58" stroke-width="1.44" stroke="black" fill="none"  height="3.96"/>
     <circle id="connector0pin" cx="3.96" stroke-width="1.44" stroke="black" r="1.98" fill="none" cy="7.56" />
     <circle id="connector1pin" cx="11.16" stroke-width="1.44" stroke="black" r="1.98" fill="none" cy="7.56" />
    </g>
   </g>
  </g>
 </g>
 <g partID="854461050">
  <g transform="translate(69.5286,16.6124)">
   <g transform="matrix(-1,0,0,-1,0,0)">
    <g id="copper0" >
     <rect x="1.98" id="rect11" width="3.96" y="5.58" stroke-width="1.44" stroke="black" fill="none"  height="3.96"/>
     <circle id="connector0pin" cx="3.96" stroke-width="1.44" stroke="black" r="1.98" fill="none" cy="7.56" />
     <circle id="connector1pin" cx="11.16" stroke-width="1.44" stroke="black" r="1.98" fill="none" cy="7.56" />
    </g>
   </g>
  </g>
 </g>
 <g partID="854360320">
  <g transform="translate(30.5406,51.2804)">
   <g transform="matrix(0,-1,1,0,0,0)">
    <g id="copper0" >
     <circle id="connector2pad" cx="3.528" stroke-width="2.088" stroke="black" fill="none" r="2.52" cy="17.928" />
     <rect x="1.008" width="5.04" y="1.008" stroke-width="2.088" stroke="black" fill="none"  height="5.04"/>
     <circle id="connector0pad" cx="3.528" stroke-width="2.088" stroke="black" fill="none" r="2.52" cy="3.528" />
     <circle id="connector1pad" cx="17.928" stroke-width="2.088" stroke="black" fill="none" r="2.52" cy="10.728" />
    </g>
   </g>
  </g>
 </g>
 <g partID="854360000">
  <g transform="translate(30.5406,80.9804)">
   <g transform="matrix(0,-1,1,0,0,0)">
    <g id="copper0" >
     <circle id="connector2pad" cx="3.528" stroke-width="2.088" stroke="black" fill="none" r="2.52" cy="17.928" />
     <rect x="1.008" width="5.04" y="1.008" stroke-width="2.088" stroke="black" fill="none"  height="5.04"/>
     <circle id="connector0pad" cx="3.528" stroke-width="2.088" stroke="black" fill="none" r="2.52" cy="3.528" />
     <circle id="connector1pad" cx="17.928" stroke-width="2.088" stroke="black" fill="none" r="2.52" cy="10.728" />
    </g>
   </g>
  </g>
 </g>
 <g partID="854359000">
  <g transform="translate(30.5406,26.9804)">
   <g transform="matrix(0,-1,1,0,0,0)">
    <g id="copper0" >
     <circle id="connector2pad" cx="3.528" stroke-width="2.088" stroke="black" fill="none" r="2.52" cy="17.928" />
     <rect x="1.008" width="5.04" y="1.008" stroke-width="2.088" stroke="black" fill="none"  height="5.04"/>
     <circle id="connector0pad" cx="3.528" stroke-width="2.088" stroke="black" fill="none" r="2.52" cy="3.528" />
     <circle id="connector1pad" cx="17.928" stroke-width="2.088" stroke="black" fill="none" r="2.52" cy="10.728" />
    </g>
   </g>
  </g>
 </g>
 <g partID="854383930">
  <g transform="translate(11.3886,6.1724)">
   <g id="copper0" >
    <g id="copper1" >
     <circle id="connector0pin" cx="2.88" stroke-width="1.44" stroke="black" fill="none" r="1.8" cy="2.88" />
     <circle id="connector1pin" cx="17.28" stroke-width="1.44" stroke="black" fill="none" r="1.8" cy="2.88" />
    </g>
   </g>
  </g>
 </g>
 <g partID="854364780">
  <g transform="translate(78.8886,45.2324)">
   <g transform="matrix(0,-1,1,0,0,0)">
    <g id="copper0" >
     <g id="copper1" >
      <circle id="connector0pin" cx="2.88" stroke-width="1.44" stroke="black" fill="none" r="1.8" cy="2.88" />
      <circle id="connector1pin" cx="17.28" stroke-width="1.44" stroke="black" fill="none" r="1.8" cy="2.88" />
     </g>
    </g>
   </g>
  </g>
 </g>
 <g partID="854367060">
  <g transform="translate(12.2886,30.4724)">
   <g id="copper0" >
    <g id="copper1" >
     <circle id="connector0pin" cx="2.88" stroke-width="1.44" stroke="black" fill="none" r="1.8" cy="2.88" />
     <circle id="connector1pin" cx="17.28" stroke-width="1.44" stroke="black" fill="none" r="1.8" cy="2.88" />
    </g>
   </g>
  </g>
 </g>
 <g partID="854375810">
  <g transform="translate(9.58864,56.5724)">
   <g id="copper0" >
    <g id="copper1" >
     <circle id="connector0pin" cx="2.88" stroke-width="1.44" stroke="black" fill="none" r="1.8" cy="2.88" />
     <circle id="connector1pin" cx="17.28" stroke-width="1.44" stroke="black" fill="none" r="1.8" cy="2.88" />
    </g>
   </g>
  </g>
 </g>
 <g partID="854364220">
  <g transform="translate(31.1886,52.0724)">
   <g id="copper0" >
    <g id="copper1" >
     <circle id="connector0pin" cx="2.88" stroke-width="1.44" stroke="black" fill="none" r="1.8" cy="2.88" />
     <circle id="connector1pin" cx="17.28" stroke-width="1.44" stroke="black" fill="none" r="1.8" cy="2.88" />
    </g>
   </g>
  </g>
 </g>
 <g partID="854363480">
  <g transform="translate(3.28864,70.0724)">
   <g id="copper0" >
    <g id="copper1" >
     <circle id="connector0pin" cx="2.88" stroke-width="1.44" stroke="black" fill="none" r="1.8" cy="2.88" />
     <circle id="connector1pin" cx="17.28" stroke-width="1.44" stroke="black" fill="none" r="1.8" cy="2.88" />
    </g>
   </g>
  </g>
 </g>
 <g partID="854333820">
  <g transform="translate(92.723,6.61534)">
   <g transform="matrix(0.707107,0.707107,-0.707107,0.707107,0,0)">
    <g id="copper0" >
     <rect x="1.98" id="rect11" width="3.96" y="5.58" stroke-width="1.44" stroke="black" fill="none"  height="3.96"/>
     <circle id="connector0pin" cx="3.96" stroke-width="1.44" stroke="black" r="1.98" fill="none" cy="7.56" />
     <circle id="connector1pin" cx="11.16" stroke-width="1.44" stroke="black" r="1.98" fill="none" cy="7.56" />
    </g>
   </g>
  </g>
 </g>
 <g partID="854334180">
  <g transform="translate(84.8286,0.4124)">
   <g id="copper0" >
    <circle id="connector0pin" cx="5.04" stroke-width="1.44" stroke="black" fill="none" r="2.088" cy="5.04" />
   </g>
  </g>
 </g>
 <g partID="854427910">
  <g transform="translate(72.451,22.2348)">
   <g id="copper0" >
    <circle id="connector0pin" cx="3.01733" stroke-width="0.850392" stroke="black" fill="none" r="0.992124" cy="3.01733" />
   </g>
  </g>
 </g>
 <g partID="854430550">
  <g transform="translate(52.651,22.2348)">
   <g id="copper0" >
    <circle id="connector0pin" cx="3.01733" stroke-width="0.850392" stroke="black" fill="none" r="0.992124" cy="3.01733" />
   </g>
  </g>
 </g>
 <g partID="854432530">
  <g transform="translate(78.7288,27.8175)">
   <g transform="matrix(0,1,-1,0,0,0)">
    <g id="copper0" flipped="1">
     <g transform="matrix(-1, 0, 0, 1, 14.4567, 0)">
      <g>
       <g>
        <g>
         <rect x="0.566929" id="connector0pad" width="4.53543" y="0.566929" stroke-width="0" stroke="none" fill="black" height="5.38583" fill-opacity="1"/>
         <rect x="9.35433" id="connector1pad" width="4.53543" y="0.566929" stroke-width="0" stroke="none" fill="black" height="5.38583" fill-opacity="1"/>
        </g>
       </g>
      </g>
     </g>
    </g>
   </g>
  </g>
 </g>
 <g partID="854433610">
  <g transform="translate(58.2342,21.9924)">
   <g id="copper0" flipped="1">
    <g transform="matrix(-1, 0, 0, 1, 14.4567, 0)">
     <g>
      <g>
       <g>
        <rect x="0.566929" id="connector0pad" width="4.53543" y="0.566929" stroke-width="0" stroke="none" fill="black" height="5.38583" fill-opacity="1"/>
        <rect x="9.35433" id="connector1pad" width="4.53543" y="0.566929" stroke-width="0" stroke="none" fill="black" height="5.38583" fill-opacity="1"/>
       </g>
      </g>
     </g>
    </g>
   </g>
  </g>
 </g>
 <g partID="854436890">
  <g transform="translate(71.551,44.7348)">
   <g id="copper0" >
    <circle id="connector0pin" cx="3.01733" stroke-width="0.850392" stroke="black" fill="none" r="0.992124" cy="3.01733" />
   </g>
  </g>
 </g>
 <g partID="854458290">
  <g transform="translate(98.5288,34.1175)">
   <g transform="matrix(0,1,-1,0,0,0)">
    <g id="copper0" flipped="1">
     <g transform="matrix(-1, 0, 0, 1, 14.4567, 0)">
      <g>
       <g>
        <g>
         <rect x="0.566929" id="connector0pad" width="4.53543" y="0.566929" stroke-width="0" stroke="none" fill="black" height="5.38583" fill-opacity="1"/>
         <rect x="9.35433" id="connector1pad" width="4.53543" y="0.566929" stroke-width="0" stroke="none" fill="black" height="5.38583" fill-opacity="1"/>
        </g>
       </g>
      </g>
     </g>
    </g>
   </g>
  </g>
 </g>
 <g partID="854465900">
  <g transform="translate(92.251,28.5348)">
   <g id="copper0" >
    <circle id="connector0pin" cx="3.01733" stroke-width="0.850392" stroke="black" fill="none" r="0.992124" cy="3.01733" />
   </g>
  </g>
 </g>
 <g partID="854465990">
  <g transform="translate(45.2286,4.0124)">
   <g id="copper0" >
    <circle id="connector0pin" cx="5.04" stroke-width="1.44" stroke="black" fill="none" r="2.088" cy="5.04" />
   </g>
  </g>
 </g>
 <g partID="854463550">
  <line stroke-linecap="round" y2="77.878" y1="80.1524" stroke-width="3.456" x2="32.6556" stroke="black" x1="25.1022"/>
 </g>
 <g partID="854463480">
  <line stroke-linecap="round" y2="79.2191" y1="76.5524" stroke-width="3.456" x2="9.76864" stroke="black" x1="6.16864"/>
 </g>
 <g partID="854463410">
  <line stroke-linecap="round" y2="80.1521" y1="79.2188" stroke-width="3.456" x2="25.102" stroke="black" x1="9.76864"/>
 </g>
 <g partID="854363740">
  <line stroke-linecap="round" y2="76.5524" y1="74.0324" stroke-width="3.456" x2="6.16864" stroke="black" x1="6.16864"/>
 </g>
 <g partID="854463290">
  <line stroke-linecap="round" y2="70.2552" y1="70.286" stroke-width="3.456" x2="45.7382" stroke="black" x1="25.1022"/>
 </g>
 <g partID="854463170">
  <line stroke-linecap="round" y2="75.9761" y1="73.0204" stroke-width="3.456" x2="48.4632" stroke="black" x1="48.4518"/>
 </g>
 <g partID="854463100">
  <line stroke-linecap="round" y2="73.0205" y1="70.2548" stroke-width="3.456" x2="48.4519" stroke="black" x1="45.7382"/>
 </g>
 <g partID="854363820">
  <line stroke-linecap="round" y2="70.2857" y1="72.4048" stroke-width="3.456" x2="25.102" stroke="black" x1="21.4995"/>
 </g>
 <g partID="854364480">
  <line stroke-linecap="round" y2="49.2284" y1="53.8724" stroke-width="3.456" x2="34.0686" stroke="black" x1="34.0686"/>
 </g>
 <g partID="854364560">
  <line stroke-linecap="round" y2="49.2284" y1="53.8724" stroke-width="3.456" x2="48.4686" stroke="black" x1="48.4686"/>
 </g>
 <g partID="854463240">
  <line stroke-linecap="round" y2="63.0582" y1="63.086" stroke-width="3.456" x2="39.7929" stroke="black" x1="32.3022"/>
 </g>
 <g partID="854375950">
  <line stroke-linecap="round" y2="63.0857" y1="60.0527" stroke-width="3.456" x2="32.302" stroke="black" x1="27.7664"/>
 </g>
 <g partID="854375990">
  <line stroke-linecap="round" y2="33.3524" y1="33.3524" stroke-width="3.456" x2="39.7926" stroke="black" x1="30.6486"/>
 </g>
 <g partID="854382110">
  <line stroke-linecap="round" y2="6.81965" y1="13.5019" stroke-width="3.456" x2="89.914" stroke="black" x1="90.1357"/>
 </g>
 <g partID="854413130">
  <line stroke-linecap="round" y2="9.0524" y1="9.0524" stroke-width="2.304" x2="39.7926" stroke="black" x1="29.7486"/>
 </g>
 <g partID="854435100">
  <line stroke-linecap="round" y2="25.2524" y1="25.2524" stroke-width="1.728" x2="59.2012" stroke="black" x1="56.2356"/>
 </g>
 <g partID="854435290">
  <line stroke-linecap="round" y2="25.2524" y1="25.2524" stroke-width="1.728" x2="71.724" stroke="black" x1="74.9017"/>
 </g>
 <g partID="854453660">
  <line stroke-linecap="round" y2="41.3073" y1="41.4492" stroke-width="2.304" x2="74.6359" stroke="black" x1="74.5726"/>
 </g>
 <g partID="854437390">
  <line stroke-linecap="round" y2="41.4496" y1="47.1855" stroke-width="2.304" x2="74.5724" stroke="black" x1="74.569"/>
 </g>
 <g partID="854438510">
  <line stroke-linecap="round" y2="28.7844" y1="25.8193" stroke-width="2.304" x2="75.4686" stroke="black" x1="75.4686"/>
 </g>
 <g partID="854454580">
  <line stroke-linecap="round" y2="61.4324" y1="66.4724" stroke-width="2.304" x2="64.6686" stroke="black" x1="64.6686"/>
 </g>
 <g partID="854456340">
  <line stroke-linecap="round" y2="47.7499" y1="47.714" stroke-width="2.304" x2="75.1355" stroke="black" x1="84.4542"/>
 </g>
 <g partID="854456000">
  <line stroke-linecap="round" y2="47.7142" y1="49.5428" stroke-width="2.304" x2="84.4545" stroke="black" x1="86.283"/>
 </g>
 <g partID="854456010">
  <line stroke-linecap="round" y2="49.5429" y1="52.0724" stroke-width="2.304" x2="86.2829" stroke="black" x1="86.2729"/>
 </g>
 <g partID="854456530">
  <line stroke-linecap="round" y2="67.5524" y1="67.5524" stroke-width="2.304" x2="80.1486" stroke="black" x1="85.1886"/>
 </g>
 <g partID="854467840">
  <line stroke-linecap="round" y2="44.4958" y1="42.3092" stroke-width="2.304" x2="92.976" stroke="black" x1="88.9454"/>
 </g>
 <g partID="854458470">
  <line stroke-linecap="round" y2="42.3093" y1="42.3459" stroke-width="2.304" x2="88.9451" stroke="black" x1="82.8486"/>
 </g>
 <g partID="854466070">
  <line stroke-linecap="round" y2="10.1377" y1="13.6132" stroke-width="2.304" x2="57.7282" stroke="black" x1="55.6758"/>
 </g>
 <g partID="854462560">
  <line stroke-linecap="round" y2="13.6129" y1="24.6855" stroke-width="2.304" x2="55.6756" stroke="black" x1="55.669"/>
 </g>
 <g partID="854465850">
  <line stroke-linecap="round" y2="35.0844" y1="32.1193" stroke-width="1.728" x2="95.2686" stroke="black" x1="95.2686"/>
 </g>
 <g partID="854466160">
  <line stroke-linecap="round" y2="9.0524" y1="9.0524" stroke-width="2.304" x2="51.6366" stroke="black" x1="57.1086"/>
 </g>
 <g partID="854467370">
  <line stroke-linecap="round" y2="9.0524" y1="9.0524" stroke-width="1.728" x2="66.8286" stroke="black" x1="76.0086"/>
 </g>
 <g partID="854468790">
  <line stroke-linecap="round" y2="37.6813" y1="36.0348" stroke-width="2.304" x2="77.7619" stroke="black" x1="79.9094"/>
 </g>
 <g partID="854468580">
  <line stroke-linecap="round" y2="36.0351" y1="32.4156" stroke-width="2.304" x2="85.3062" stroke="black" x1="88.1118"/>
 </g>
 <g partID="854468410">
  <line stroke-linecap="round" y2="36.0348" y1="36.0348" stroke-width="2.304" x2="79.9102" stroke="black" x1="85.3062"/>
 </g>
 <g partID="854468260">
  <line stroke-linecap="round" y2="29.7598" y1="9.9324" stroke-width="2.304" x2="88.0664" stroke="black" x1="80.9134"/>
 </g>
 <g partID="854468110">
  <line stroke-linecap="round" y2="32.4154" y1="29.7604" stroke-width="2.304" x2="88.1119" stroke="black" x1="88.067"/>
 </g>
 <g partID="854467970">
  <line stroke-linecap="round" y2="9.93279" y1="9.34822" stroke-width="2.304" x2="80.9137" stroke="black" x1="78.4934"/>
 </g>
 <g partID="854469070">
  <line stroke-linecap="round" y2="53.1452" y1="53.1156" stroke-width="2.304" x2="87.3487" stroke="black" x1="91.6502"/>
 </g>
 <g partID="854469490">
  <line stroke-linecap="round" y2="53.1153" y1="55.8412" stroke-width="2.304" x2="91.6498" stroke="black" x1="95.3238"/>
 </g>
 <g partID="854469080">
  <line stroke-linecap="round" y2="55.8413" y1="58.9845" stroke-width="2.304" x2="95.3242" stroke="black" x1="95.2855"/>
 </g>
 <g partID="854469430">
  <line stroke-linecap="round" y2="67.5524" y1="67.5524" stroke-width="2.304" x2="93.9006" stroke="black" x1="87.3486"/>
 </g>
</svg>
