<?xml version='1.0' encoding='UTF-8' standalone='no'?>
<!-- Created with Fritzing (https://fritzing.org/) -->
<svg xmlns="http://www.w3.org/2000/svg" x="0in" width="1.41381in" viewBox="0 0 101.795 84.7732" y="0in" version="1.2" baseProfile="tiny" xmlns:svg="http://www.w3.org/2000/svg"  height="1.17741in">
 <g transform="matrix(-1, 0, 0, 1, 101.795, 0)">
  <g partID="57470">
   <g id="board" >
    <rect x="0.288" id="boardoutline" width="101.219" y="0.288" stroke-width="0.5" stroke="black" fill="none"  height="84.1972" fill-opacity="0.5"/>
   </g>
  </g>
  <g partID="57511">
   <g transform="translate(100.309,72.5924)">
    <g transform="matrix(-1,0,0,-1,0,0)">
     <g id="copper1" >
      <g id="copper0" >
       <g id="0" cx="5.04" stroke-width="1.44" stroke="black" fill="none" r="2.088" cy="5.04" />
       <g id="1" cx="5.04" stroke-width="1.44" stroke="black" fill="none" r="2.088" cy="12.24" />
      </g>
     </g>
    </g>
   </g>
  </g>
  <g partID="854455221">
   <g transform="translate(89.1486,50.2724)">
    <g transform="matrix(0,1,-1,0,0,0)">
     <g id="copper1" >
      <g id="2" cx="2.88" stroke-width="1.44" stroke="black" fill="none" r="1.8" cy="2.88" />
      <g id="3" cx="17.28" stroke-width="1.44" stroke="black" fill="none" r="1.8" cy="2.88" />
     </g>
    </g>
   </g>
  </g>
  <g partID="854454141">
   <g transform="translate(61.7886,64.6724)">
    <g id="copper1" >
     <g id="4" cx="2.88" stroke-width="1.44" stroke="black" fill="none" r="1.8" cy="2.88" />
     <g id="5" cx="17.28" stroke-width="1.44" stroke="black" fill="none" r="1.8" cy="2.88" />
    </g>
   </g>
  </g>
  <g partID="854398451">
   <g transform="translate(81.9486,63.2324)">
    <g transform="matrix(-1,0,0,-1,0,0)">
     <g id="copper1" >
      <g id="6" cx="2.88" stroke-width="1.44" stroke="black" fill="none" r="1.8" cy="2.88" />
      <g id="7" cx="17.28" stroke-width="1.44" stroke="black" fill="none" r="1.8" cy="2.88" />
     </g>
    </g>
   </g>
  </g>
  <g partID="854326611">
   <g transform="translate(84.8286,5.0924)">
    <g transform="matrix(0,1,-1,0,0,0)">
     <g id="copper1" >
      <g id="copper0" >
       <g x="1.98" id="8" width="3.96" y="5.58" stroke-width="1.44" stroke="black" fill="none"  height="3.96"/>
       <g id="9" cx="3.96" stroke-width="1.44" stroke="black" r="1.98" fill="none" cy="7.56" />
       <g id="10" cx="11.16" stroke-width="1.44" stroke="black" r="1.98" fill="none" cy="7.56" />
      </g>
     </g>
    </g>
   </g>
  </g>
  <g partID="854461051">
   <g transform="translate(69.5286,16.6124)">
    <g transform="matrix(-1,0,0,-1,0,0)">
     <g id="copper1" >
      <g id="copper0" >
       <g x="1.98" id="11" width="3.96" y="5.58" stroke-width="1.44" stroke="black" fill="none"  height="3.96"/>
       <g id="12" cx="3.96" stroke-width="1.44" stroke="black" r="1.98" fill="none" cy="7.56" />
       <g id="13" cx="11.16" stroke-width="1.44" stroke="black" r="1.98" fill="none" cy="7.56" />
      </g>
     </g>
    </g>
   </g>
  </g>
  <g partID="854360321">
   <g transform="translate(30.5406,51.2804)">
    <g transform="matrix(0,-1,1,0,0,0)">
     <g id="copper1" >
      <g id="copper0" >
       <g id="14" cx="3.528" stroke-width="2.088" stroke="black" fill="none" r="2.52" cy="17.928" />
       <g x="1.008" id="15" width="5.04" y="1.008" stroke-width="2.088" stroke="black" fill="none"  height="5.04"/>
       <g id="16" cx="3.528" stroke-width="2.088" stroke="black" fill="none" r="2.52" cy="3.528" />
       <g id="17" cx="17.928" stroke-width="2.088" stroke="black" fill="none" r="2.52" cy="10.728" />
      </g>
     </g>
    </g>
   </g>
  </g>
  <g partID="854360001">
   <g transform="translate(30.5406,80.9804)">
    <g transform="matrix(0,-1,1,0,0,0)">
     <g id="copper1" >
      <g id="copper0" >
       <g id="18" cx="3.528" stroke-width="2.088" stroke="black" fill="none" r="2.52" cy="17.928" />
       <g x="1.008" id="19" width="5.04" y="1.008" stroke-width="2.088" stroke="black" fill="none"  height="5.04"/>
       <g id="20" cx="3.528" stroke-width="2.088" stroke="black" fill="none" r="2.52" cy="3.528" />
       <g id="21" cx="17.928" stroke-width="2.088" stroke="black" fill="none" r="2.52" cy="10.728" />
      </g>
     </g>
    </g>
   </g>
  </g>
  <g partID="854359001">
   <g transform="translate(30.5406,26.9804)">
    <g transform="matrix(0,-1,1,0,0,0)">
     <g id="copper1" >
      <g id="copper0" >
       <g id="22" cx="3.528" stroke-width="2.088" stroke="black" fill="none" r="2.52" cy="17.928" />
       <g x="1.008" id="23" width="5.04" y="1.008" stroke-width="2.088" stroke="black" fill="none"  height="5.04"/>
       <g id="24" cx="3.528" stroke-width="2.088" stroke="black" fill="none" r="2.52" cy="3.528" />
       <g id="25" cx="17.928" stroke-width="2.088" stroke="black" fill="none" r="2.52" cy="10.728" />
      </g>
     </g>
    </g>
   </g>
  </g>
  <g partID="854383931">
   <g transform="translate(11.3886,6.1724)">
    <g id="copper1" >
     <g id="26" cx="2.88" stroke-width="1.44" stroke="black" fill="none" r="1.8" cy="2.88" />
     <g id="27" cx="17.28" stroke-width="1.44" stroke="black" fill="none" r="1.8" cy="2.88" />
    </g>
   </g>
  </g>
  <g partID="854364781">
   <g transform="translate(78.8886,45.2324)">
    <g transform="matrix(0,-1,1,0,0,0)">
     <g id="copper1" >
      <g id="28" cx="2.88" stroke-width="1.44" stroke="black" fill="none" r="1.8" cy="2.88" />
      <g id="29" cx="17.28" stroke-width="1.44" stroke="black" fill="none" r="1.8" cy="2.88" />
     </g>
    </g>
   </g>
  </g>
  <g partID="854367061">
   <g transform="translate(12.2886,30.4724)">
    <g id="copper1" >
     <g id="30" cx="2.88" stroke-width="1.44" stroke="black" fill="none" r="1.8" cy="2.88" />
     <g id="31" cx="17.28" stroke-width="1.44" stroke="black" fill="none" r="1.8" cy="2.88" />
    </g>
   </g>
  </g>
  <g partID="854375811">
   <g transform="translate(9.58864,56.5724)">
    <g id="copper1" >
     <g id="32" cx="2.88" stroke-width="1.44" stroke="black" fill="none" r="1.8" cy="2.88" />
     <g id="33" cx="17.28" stroke-width="1.44" stroke="black" fill="none" r="1.8" cy="2.88" />
    </g>
   </g>
  </g>
  <g partID="854364221">
   <g transform="translate(31.1886,52.0724)">
    <g id="copper1" >
     <g id="34" cx="2.88" stroke-width="1.44" stroke="black" fill="none" r="1.8" cy="2.88" />
     <g id="35" cx="17.28" stroke-width="1.44" stroke="black" fill="none" r="1.8" cy="2.88" />
    </g>
   </g>
  </g>
  <g partID="854363481">
   <g transform="translate(3.28864,70.0724)">
    <g id="copper1" >
     <g id="36" cx="2.88" stroke-width="1.44" stroke="black" fill="none" r="1.8" cy="2.88" />
     <g id="37" cx="17.28" stroke-width="1.44" stroke="black" fill="none" r="1.8" cy="2.88" />
    </g>
   </g>
  </g>
  <g partID="854333821">
   <g transform="translate(92.723,6.61534)">
    <g transform="matrix(0.707107,0.707107,-0.707107,0.707107,0,0)">
     <g id="copper1" >
      <g id="copper0" >
       <g x="1.98" id="38" width="3.96" y="5.58" stroke-width="1.44" stroke="black" fill="none"  height="3.96"/>
       <g id="39" cx="3.96" stroke-width="1.44" stroke="black" r="1.98" fill="none" cy="7.56" />
       <g id="40" cx="11.16" stroke-width="1.44" stroke="black" r="1.98" fill="none" cy="7.56" />
      </g>
     </g>
    </g>
   </g>
  </g>
  <g partID="854334181">
   <g transform="translate(84.8286,0.4124)">
    <g id="copper1" >
     <g id="copper0" >
      <g id="41" cx="5.04" stroke-width="1.44" stroke="black" fill="none" r="2.088" cy="5.04" />
     </g>
    </g>
   </g>
  </g>
  <g partID="854335330">
   <g transform="translate(22.7088,54.8742)">
    <g transform="matrix(0,-1,1,0,0,0)">
     <g id="copper1" >
      <rect x="0.566929" id="42" width="4.53543" y="0.566929" stroke-width="0" stroke="none" fill="black"  height="5.38583" fill-opacity="1"/>
      <rect x="9.35433" id="43" width="4.53543" y="0.566929" stroke-width="0" stroke="none" fill="black"  height="5.38583" fill-opacity="1"/>
     </g>
    </g>
   </g>
  </g>
  <g partID="854337150">
   <g transform="translate(53.3088,76.4744)">
    <g transform="matrix(0,-1,1,0,0,0)">
     <g id="copper1" >
      <rect x="0.566929" id="44" width="4.53543" y="0.566929" stroke-width="0" stroke="none" fill="black"  height="5.38583" fill-opacity="1"/>
      <rect x="9.35433" id="45" width="4.53543" y="0.566929" stroke-width="0" stroke="none" fill="black"  height="5.38583" fill-opacity="1"/>
     </g>
    </g>
   </g>
  </g>
  <g partID="854337730">
   <g transform="translate(52.6288,28.9303)">
    <g transform="matrix(0,1,-1,0,0,0)">
     <g id="copper1" >
      <rect x="0.566929" id="46" width="4.53543" y="0.566929" stroke-width="0" stroke="none" fill="black"  height="5.38583" fill-opacity="1"/>
      <rect x="9.35433" id="47" width="4.53543" y="0.566929" stroke-width="0" stroke="none" fill="black"  height="5.38583" fill-opacity="1"/>
     </g>
    </g>
   </g>
  </g>
  <g partID="854427911">
   <g transform="translate(72.451,22.2348)">
    <g id="copper1" >
     <g id="48" cx="3.01733" stroke-width="0.850392" stroke="black" fill="none" r="0.992124" cy="3.01733" />
    </g>
   </g>
  </g>
  <g partID="854338010">
   <g transform="translate(17.7907,42.9121)">
    <g transform="matrix(-1,0,0,-1,0,0)">
     <g id="copper1" >
      <rect x="0.566929" id="49" width="4.53543" y="0.566929" stroke-width="0" stroke="none" fill="black"  height="5.38583" fill-opacity="1"/>
      <rect x="9.35433" id="50" width="4.53543" y="0.566929" stroke-width="0" stroke="none" fill="black"  height="5.38583" fill-opacity="1"/>
     </g>
    </g>
   </g>
  </g>
  <g partID="854338230">
   <g transform="translate(52.6288,58.6303)">
    <g transform="matrix(0,1,-1,0,0,0)">
     <g id="copper1" >
      <rect x="0.566929" id="51" width="4.53543" y="0.566929" stroke-width="0" stroke="none" fill="black"  height="5.38583" fill-opacity="1"/>
      <rect x="9.35433" id="52" width="4.53543" y="0.566929" stroke-width="0" stroke="none" fill="black"  height="5.38583" fill-opacity="1"/>
     </g>
    </g>
   </g>
  </g>
  <g partID="854430551">
   <g transform="translate(52.651,22.2348)">
    <g id="copper1" >
     <g id="53" cx="3.01733" stroke-width="0.850392" stroke="black" fill="none" r="0.992124" cy="3.01733" />
    </g>
   </g>
  </g>
  <g partID="854338610">
   <g transform="translate(17.7907,30.3121)">
    <g transform="matrix(-1,0,0,-1,0,0)">
     <g id="copper1" >
      <rect x="0.566929" id="54" width="4.53543" y="0.566929" stroke-width="0" stroke="none" fill="black"  height="5.38583" fill-opacity="1"/>
      <rect x="9.35433" id="55" width="4.53543" y="0.566929" stroke-width="0" stroke="none" fill="black"  height="5.38583" fill-opacity="1"/>
     </g>
    </g>
   </g>
  </g>
  <g partID="854436891">
   <g transform="translate(71.551,44.7348)">
    <g id="copper1" >
     <g id="56" cx="3.01733" stroke-width="0.850392" stroke="black" fill="none" r="0.992124" cy="3.01733" />
    </g>
   </g>
  </g>
  <g partID="854465901">
   <g transform="translate(92.251,28.5348)">
    <g id="copper1" >
     <g id="57" cx="3.01733" stroke-width="0.850392" stroke="black" fill="none" r="0.992124" cy="3.01733" />
    </g>
   </g>
  </g>
  <g partID="854465991">
   <g transform="translate(45.2286,4.0124)">
    <g id="copper1" >
     <g id="copper0" >
      <g id="58" cx="5.04" stroke-width="1.44" stroke="black" fill="none" r="2.088" cy="5.04" />
     </g>
    </g>
   </g>
  </g>
  <g partID="854339880">
   <g transform="translate(58.8798,21.9436)">
    <g id="copper1" >
     <rect x="0.4248" id="59" connectorname="1" width="1.728" y="19.08" stroke-width="0" fill="black"  height="6.2568"/>
     <rect x="4.0248" id="60" connectorname="2" width="1.728" y="19.08" stroke-width="0" fill="black"  height="6.2568"/>
     <rect x="7.6248" id="61" connectorname="3" width="1.728" y="19.08" stroke-width="0" fill="black"  height="6.2568"/>
     <rect x="11.2248" id="62" connectorname="4" width="1.728" y="19.08" stroke-width="0" fill="black"  height="6.2568"/>
     <rect x="11.2248" id="63" connectorname="5" width="1.728" y="0" stroke-width="0" fill="black"  height="6.2568"/>
     <rect x="7.6248" id="64" connectorname="6" width="1.728" y="0" stroke-width="0" fill="black"  height="6.2568"/>
     <rect x="4.0248" id="65" connectorname="7" width="1.728" y="0" stroke-width="0" fill="black"  height="6.2568"/>
     <rect x="0.4248" id="66" connectorname="8" width="1.728" y="0" stroke-width="0" fill="black"  height="6.2568"/>
    </g>
   </g>
  </g>
  <g partID="854354170">
   <g transform="translate(9.42848,5.5303)">
    <g transform="matrix(0,1,-1,0,0,0)">
     <g id="copper1" >
      <rect x="0.566929" id="67" width="4.53543" y="0.566929" stroke-width="0" stroke="none" fill="black"  height="5.38583" fill-opacity="1"/>
      <rect x="9.35433" id="68" width="4.53543" y="0.566929" stroke-width="0" stroke="none" fill="black"  height="5.38583" fill-opacity="1"/>
     </g>
    </g>
   </g>
  </g>
  <g partID="854419550">
   <g transform="translate(2.64656,64.2924)">
    <g id="copper1" >
     <rect x="0.566929" id="69" width="4.53543" y="0.566929" stroke-width="0" stroke="none" fill="black"  height="5.38583" fill-opacity="1"/>
     <rect x="9.35433" id="70" width="4.53543" y="0.566929" stroke-width="0" stroke="none" fill="black"  height="5.38583" fill-opacity="1"/>
    </g>
   </g>
  </g>
  <g partID="854428630">
   <g transform="translate(81.691,56.4121)">
    <g transform="matrix(-1,0,0,-1,0,0)">
     <g id="copper1" >
      <rect x="0.566929" id="71" width="4.53543" y="0.566929" stroke-width="0" stroke="none" fill="black"  height="5.38583" fill-opacity="1"/>
      <rect x="9.35433" id="72" width="4.53543" y="0.566929" stroke-width="0" stroke="none" fill="black"  height="5.38583" fill-opacity="1"/>
     </g>
    </g>
   </g>
  </g>
  <g partID="854457250">
   <g transform="translate(84.8091,41.3742)">
    <g transform="matrix(0,-1,1,0,0,0)">
     <g id="copper1" >
      <rect x="0.566929" id="73" width="4.53543" y="0.566929" stroke-width="0" stroke="none" fill="black"  height="5.38583" fill-opacity="1"/>
      <rect x="9.35433" id="74" width="4.53543" y="0.566929" stroke-width="0" stroke="none" fill="black"  height="5.38583" fill-opacity="1"/>
     </g>
    </g>
   </g>
  </g>
  <g partID="854471790">
   <g transform="translate(53.3088,62.0744)">
    <g transform="matrix(0,-1,1,0,0,0)">
     <g id="copper1" >
      <rect x="0.566929" id="75" width="4.53543" y="0.566929" stroke-width="0" stroke="none" fill="black"  height="5.38583" fill-opacity="1"/>
      <rect x="9.35433" id="76" width="4.53543" y="0.566929" stroke-width="0" stroke="none" fill="black"  height="5.38583" fill-opacity="1"/>
     </g>
    </g>
   </g>
  </g>
 </g>
</svg>
