<?xml version='1.0' encoding='UTF-8' standalone='no'?>
<!-- Created with Fritzing (https://fritzing.org/) -->
<svg xmlns="http://www.w3.org/2000/svg" x="0in" width="1.41381in" viewBox="0 0 101.795 84.7732" y="0in" version="1.2" baseProfile="tiny" xmlns:svg="http://www.w3.org/2000/svg"  height="1.17741in">
 <g partID="57470">
  <g id="board" >
   <rect x="0.288" id="boardoutline" width="101.219" y="0.288" stroke-width="0.5" stroke="black" fill="none"  height="84.1972" fill-opacity="0.5"/>
  </g>
 </g>
 <g partID="854476070">
  <g transform="translate(90.72,2.88)">
   <g id="groundplane1" >
    <g id="connector0pad" >
     <polygon stroke-width="0" stroke="none" fill="black"  points="2.592,0,2.592,1.584,2.736,1.584,2.736,2.304,2.88,2.304,2.88,2.736,2.736,2.736,2.736,3.6,2.592,3.6,2.592,4.032,2.448,4.032,2.448,4.32,2.304,4.32,2.304,4.608,2.16,4.608,2.16,4.752,2.016,4.752,2.016,4.896,1.872,4.896,1.872,5.04,1.728,5.04,1.728,5.184,1.584,5.184,1.584,5.328,1.44,5.328,1.44,5.472,1.296,5.472,1.296,5.616,1.008,5.616,1.008,5.76,0.864,5.76,0.864,5.904,0.576,5.904,0.576,6.048,0,6.048,0,7.488,0.144,7.488,0.144,7.632,0.288,7.632,0.288,7.776,0.432,7.776,0.432,7.92,0.576,7.92,0.576,8.064,0.72,8.064,0.72,8.208,0.864,8.208,0.864,8.352,1.008,8.352,1.008,8.496,1.152,8.496,1.152,8.64,1.296,8.64,1.296,8.784,1.44,8.784,1.44,8.928,1.584,8.928,1.584,9.072,1.728,9.072,1.728,9.216,1.872,9.216,1.872,9.36,2.016,9.36,2.016,9.504,2.16,9.504,2.16,9.648,2.304,9.648,2.304,9.792,2.448,9.792,2.448,9.936,2.592,9.936,2.592,10.08,2.736,10.08,2.736,10.224,2.88,10.224,2.88,10.368,3.024,10.368,3.024,10.512,3.168,10.512,3.168,10.656,3.312,10.656,3.312,10.8,3.456,10.8,3.456,10.944,3.6,10.944,3.6,11.088,3.744,11.088,3.744,11.232,3.888,11.232,3.888,11.376,4.032,11.376,4.032,11.52,4.176,11.52,4.176,11.664,4.32,11.664,4.32,11.808,4.464,11.808,4.464,11.952,4.32,11.952,4.32,13.392,5.04,13.392,5.04,13.536,5.616,13.536,5.616,13.68,6.048,13.68,6.048,13.824,6.336,13.824,6.336,13.968,6.624,13.968,6.624,14.112,8.064,14.112,8.064,0"/>
    </g>
   </g>
  </g>
 </g>
 <g partID="854476080">
  <g transform="translate(51.984,10.368)">
   <g id="groundplane1" >
    <g id="connector0pad" >
     <polygon stroke-width="0" stroke="none" fill="black"  points="1.728,0,1.728,0.144,1.584,0.144,1.584,0.432,1.44,0.432,1.44,0.72,1.296,0.72,1.296,0.864,1.152,0.864,1.152,1.008,1.008,1.008,1.008,1.152,0.864,1.152,0.864,1.296,0.72,1.296,0.72,1.44,0.576,1.44,0.576,1.584,0.432,1.584,0.432,1.728,0.144,1.728,0.144,1.872,0,1.872,0,3.312,2.736,3.312,2.736,3.168,4.752,3.168,4.752,1.728,4.464,1.728,4.464,1.584,4.176,1.584,4.176,1.44,4.032,1.44,4.032,1.296,3.888,1.296,3.888,1.152,3.744,1.152,3.744,1.008,3.6,1.008,3.6,0.72,3.456,0.72,3.456,0.576,3.312,0.576,3.312,0.288,3.168,0.288,3.168,0"/>
    </g>
   </g>
  </g>
 </g>
 <g partID="854476090">
  <g transform="translate(44.208,10.512)">
   <g id="groundplane1" >
    <g id="connector0pad" >
     <polygon stroke-width="0" stroke="none" fill="black"  points="1.152,0,1.152,0.432,1.008,0.432,1.008,0.72,0.864,0.72,0.864,0.864,0.72,0.864,0.72,1.152,0.576,1.152,0.576,1.296,0.432,1.296,0.432,1.44,0.288,1.44,0.288,1.584,0.144,1.584,0.144,1.728,0,1.728,0,3.168,4.464,3.168,4.464,1.728,4.176,1.728,4.176,1.584,3.888,1.584,3.888,1.44,3.744,1.44,3.744,1.296,3.6,1.296,3.6,1.152,3.456,1.152,3.456,1.008,3.312,1.008,3.312,0.864,3.168,0.864,3.168,0.72,3.024,0.72,3.024,0.432,2.88,0.432,2.88,0.144,2.736,0.144,2.736,0"/>
    </g>
   </g>
  </g>
 </g>
 <g partID="854476100">
  <g transform="translate(52.272,19.728)">
   <g id="groundplane1" >
    <g id="connector0pad" >
     <polygon stroke-width="0" stroke="none" fill="black"  points="0,0,0,1.584,0.144,1.584,0.144,1.872,0.288,1.872,0.288,2.304,0.432,2.304,0.432,2.736,0.576,2.736,0.576,3.312,4.176,3.312,4.176,3.456,4.464,3.456,4.464,3.6,4.752,3.6,4.752,3.744,6.192,3.744,6.192,0"/>
     <polygon stroke-width="0" stroke="none" fill="black"  points="0.576,3.312,0.576,3.744,2.016,3.744,2.016,3.6,2.304,3.6,2.304,3.456,2.592,3.456,2.592,3.312"/>
    </g>
   </g>
  </g>
 </g>
 <g partID="854476110">
  <g transform="translate(97.056,22.752)">
   <g id="groundplane1" >
    <g id="connector0pad" >
     <polygon stroke-width="0" stroke="none" fill="black"  points="0.144,0,0.144,0.144,0,0.144,0,7.488,0.144,7.488,0.144,7.776,0.288,7.776,0.288,8.064,1.728,8.064,1.728,0"/>
    </g>
   </g>
  </g>
 </g>
 <g partID="854476120">
  <g transform="translate(50.976,25.92)">
   <g id="groundplane1" >
    <g id="connector0pad" >
     <polygon stroke-width="0" stroke="none" fill="black"  points="1.152,0,1.152,0.144,1.008,0.144,1.008,0.288,0.864,0.288,0.864,0.432,0.72,0.432,0.72,0.576,0.576,0.576,0.576,0.72,0.432,0.72,0.432,0.864,0.288,0.864,0.288,1.008,0.144,1.008,0.144,1.152,0,1.152,0,1.584,4.032,1.584,4.032,1.44,3.744,1.44,3.744,1.296,3.456,1.296,3.456,1.152,3.312,1.152,3.312,1.008,3.024,1.008,3.024,0.72,2.88,0.72,2.88,0.576,2.736,0.576,2.736,0.288,2.592,0.288,2.592,0"/>
     <polygon stroke-width="0" stroke="none" fill="black"  points="5.904,1.152,5.904,1.296,5.76,1.296,5.76,1.44,5.328,1.44,5.328,1.584,7.488,1.584,7.488,1.152"/>
     <polygon stroke-width="0" stroke="none" fill="black"  points="0,1.584,0,1.728,7.488,1.728,7.488,1.584"/>
     <polygon stroke-width="0" stroke="none" fill="black"  points="0,1.584,0,1.728,7.488,1.728,7.488,1.584"/>
     <polygon stroke-width="0" stroke="none" fill="black"  points="0,1.728,0,2.592,0.144,2.592,0.144,2.736,2.016,2.736,2.016,3.744,7.488,3.744,7.488,1.728"/>
    </g>
   </g>
  </g>
 </g>
 <g partID="854476130">
  <g transform="translate(72.72,40.464)">
   <g id="groundplane1" >
    <g id="connector0pad" >
     <polygon stroke-width="0" stroke="none" fill="black"  points="0,0,0,5.04,2.448,5.04,2.448,5.184,2.88,5.184,2.88,5.328,3.168,5.328,3.168,5.472,3.312,5.472,3.312,5.616,3.456,5.616,3.456,5.76,3.6,5.76,3.6,5.904,3.744,5.904,3.744,6.192,3.888,6.192,3.888,6.48,4.032,6.48,4.032,7.056,4.176,7.056,4.176,7.488,4.032,7.488,4.032,7.632,5.472,7.632,5.472,7.488,5.616,7.488,5.616,7.344,5.76,7.344,5.76,7.2,5.904,7.2,5.904,7.056,6.048,7.056,6.048,6.912,6.192,6.912,6.192,6.768,6.336,6.768,6.336,6.624,6.48,6.624,6.48,6.48,6.624,6.48,6.624,6.336,6.768,6.336,6.768,6.192,6.912,6.192,6.912,6.048,7.056,6.048,7.056,4.608,6.912,4.608,6.912,4.464,6.768,4.464,6.768,4.32,6.624,4.32,6.624,4.176,6.48,4.176,6.48,4.032,6.336,4.032,6.336,3.744,6.192,3.744,6.192,3.6,6.048,3.6,6.048,3.312,5.904,3.312,5.904,2.88,5.76,2.88,5.76,2.16,5.616,2.16,5.616,1.584,5.76,1.584,5.76,0"/>
    </g>
   </g>
  </g>
 </g>
 <g partID="854476140">
  <g transform="translate(21.6,46.368)">
   <g id="groundplane1" >
    <g id="connector0pad" >
     <polygon stroke-width="0" stroke="none" fill="black"  points="0.144,0,0.144,0.288,0,0.288,0,2.592,8.064,2.592,8.064,0"/>
    </g>
   </g>
  </g>
 </g>
 <g partID="854476150">
  <g transform="translate(2.88,2.88)">
   <g id="groundplane1" >
    <polygon stroke-width="0" stroke="none" fill="black"  points="0,0,0,1.728,39.024,1.728,39.024,1.872,39.744,1.872,39.744,2.016,40.032,2.016,40.032,2.16,40.464,2.16,40.464,2.304,40.608,2.304,40.608,2.448,47.664,2.448,47.664,2.592,77.904,2.592,77.904,9.792,77.184,9.792,77.184,11.232,77.328,11.232,77.328,11.52,77.472,11.52,77.472,11.808,77.616,11.808,77.616,12.096,77.76,12.096,77.76,12.528,77.904,12.528,77.904,14.256,77.76,14.256,77.76,14.688,77.616,14.688,77.616,14.976,77.472,14.976,77.472,15.264,77.328,15.264,77.328,15.408,77.184,15.408,77.184,16.848,87.12,16.848,87.12,16.704,86.976,16.704,86.976,16.56,86.832,16.56,86.832,16.416,86.688,16.416,86.688,16.272,86.544,16.272,86.544,16.128,86.4,16.128,86.4,15.984,86.256,15.984,86.256,15.84,86.112,15.84,86.112,15.696,85.968,15.696,85.968,15.552,85.824,15.552,85.824,15.408,85.68,15.408,85.68,15.264,85.536,15.264,85.536,15.12,85.392,15.12,85.392,14.976,85.248,14.976,85.248,14.832,85.104,14.832,85.104,14.688,84.96,14.688,84.96,14.544,84.816,14.544,84.816,14.4,84.672,14.4,84.672,14.256,84.528,14.256,84.528,14.112,84.384,14.112,84.384,13.968,84.24,13.968,84.24,13.824,84.096,13.824,84.096,13.68,83.952,13.68,83.952,13.536,83.808,13.536,83.808,13.392,83.664,13.392,83.664,13.248,83.52,13.248,83.52,13.104,83.376,13.104,83.376,12.96,83.232,12.96,83.232,12.816,83.088,12.816,83.088,12.672,82.944,12.672,82.944,12.528,82.8,12.528,82.8,12.384,82.656,12.384,82.656,12.24,82.512,12.24,82.512,12.096,82.368,12.096,82.368,11.952,82.224,11.952,82.224,11.808,82.368,11.808,82.368,11.664,82.512,11.664,82.512,11.52,82.656,11.52,82.656,11.376,82.8,11.376,82.8,11.232,82.944,11.232,82.944,11.088,83.088,11.088,83.088,10.944,83.232,10.944,83.232,10.8,83.376,10.8,83.376,10.656,83.52,10.656,83.52,10.512,83.664,10.512,83.664,10.368,83.808,10.368,83.808,10.224,83.952,10.224,83.952,10.08,84.096,10.08,84.096,9.936,84.24,9.936,84.24,9.792,84.384,9.792,84.384,9.648,84.528,9.648,84.528,9.504,84.672,9.504,84.672,9.36,84.816,9.36,84.816,9.216,84.96,9.216,84.96,9.072,85.104,9.072,85.104,8.928,85.248,8.928,85.248,8.784,85.392,8.784,85.392,8.64,85.536,8.64,85.536,8.496,85.68,8.496,85.68,8.352,85.824,8.352,85.824,8.208,85.968,8.208,85.968,8.064,86.112,8.064,86.112,7.92,86.256,7.92,86.256,7.776,86.4,7.776,86.4,7.632,86.544,7.632,86.544,6.192,86.112,6.192,86.112,6.048,85.68,6.048,85.68,5.904,85.392,5.904,85.392,5.76,85.104,5.76,85.104,5.616,84.816,5.616,84.816,5.472,84.672,5.472,84.672,5.328,84.528,5.328,84.528,5.184,84.384,5.184,84.384,5.04,84.24,5.04,84.24,4.896,84.096,4.896,84.096,4.752,83.952,4.752,83.952,4.464,83.808,4.464,83.808,4.176,83.664,4.176,83.664,4.032,83.52,4.032,83.52,3.456,83.376,3.456,83.376,1.584,83.52,1.584,83.52,0"/>
    <polygon stroke-width="0" stroke="none" fill="black"  points="0,1.728,0,2.304,6.768,2.304,6.768,2.448,6.912,2.448,6.912,2.736,26.064,2.736,26.064,2.88,26.784,2.88,26.784,3.024,27.216,3.024,27.216,3.168,27.504,3.168,27.504,3.312,27.648,3.312,27.648,3.456,27.936,3.456,27.936,3.6,28.08,3.6,28.08,3.744,28.224,3.744,28.224,3.888,28.368,3.888,28.368,4.032,28.512,4.032,28.512,4.32,28.656,4.32,28.656,4.464,28.8,4.464,28.8,4.752,28.944,4.752,28.944,5.184,29.088,5.184,29.088,5.904,29.232,5.904,29.232,6.336,29.088,6.336,29.088,7.056,28.944,7.056,28.944,7.488,28.8,7.488,28.8,7.776,28.656,7.776,28.656,8.064,28.512,8.064,28.512,8.208,28.368,8.208,28.368,8.496,28.224,8.496,28.224,8.64,27.936,8.64,27.936,8.784,27.792,8.784,27.792,8.928,27.648,8.928,27.648,9.072,27.36,9.072,27.36,9.216,27.072,9.216,27.072,9.36,26.64,9.36,26.64,9.504,35.424,9.504,35.424,9.36,35.28,9.36,35.28,9.216,35.136,9.216,35.136,9.072,34.992,9.072,34.992,8.928,34.848,8.928,34.848,8.784,34.704,8.784,34.704,8.496,34.56,8.496,34.56,8.208,34.416,8.208,34.416,7.92,34.272,7.92,34.272,7.632,34.128,7.632,34.128,7.056,33.984,7.056,33.984,5.328,34.128,5.328,34.128,4.752,34.272,4.752,34.272,4.32,34.416,4.32,34.416,4.032,34.56,4.032,34.56,3.888,34.704,3.888,34.704,3.6,34.848,3.6,34.848,3.456,34.992,3.456,34.992,3.312,35.136,3.312,35.136,3.168,35.28,3.168,35.28,3.024,35.424,3.024,35.424,2.88,35.568,2.88,35.568,2.736,35.712,2.736,35.712,2.592,35.856,2.592,35.856,2.448,36.144,2.448,36.144,2.304,36.432,2.304,36.432,2.16,36.72,2.16,36.72,2.016,37.152,2.016,37.152,1.872,37.728,1.872,37.728,1.728"/>
    <polygon stroke-width="0" stroke="none" fill="black"  points="40.896,2.448,40.896,2.592,41.04,2.592,41.04,2.736,41.328,2.736,41.328,2.88,41.472,2.88,41.472,3.024,41.616,3.024,41.616,3.168,41.76,3.168,41.76,3.456,41.904,3.456,41.904,3.6,42.048,3.6,42.048,3.744,42.192,3.744,42.192,4.032,42.336,4.032,42.336,4.32,42.48,4.32,42.48,4.752,44.064,4.752,44.064,4.464,44.208,4.464,44.208,4.32,44.352,4.32,44.352,4.032,44.496,4.032,44.496,3.888,44.64,3.888,44.64,3.744,44.784,3.744,44.784,3.456,45.072,3.456,45.072,3.312,45.216,3.312,45.216,3.168,45.36,3.168,45.36,3.024,45.648,3.024,45.648,2.88,45.936,2.88,45.936,2.736,46.368,2.736,46.368,2.592,47.088,2.592,47.088,2.448"/>
    <polygon stroke-width="0" stroke="none" fill="black"  points="48.384,2.592,48.384,2.736,48.816,2.736,48.816,2.88,49.104,2.88,49.104,3.024,49.392,3.024,49.392,3.168,49.536,3.168,49.536,3.312,49.68,3.312,49.68,3.456,49.968,3.456,49.968,3.6,50.112,3.6,50.112,3.888,50.256,3.888,50.256,4.032,50.4,4.032,50.4,4.176,50.544,4.176,50.544,4.464,50.688,4.464,50.688,4.752,52.272,4.752,52.272,4.464,52.416,4.464,52.416,4.32,52.56,4.32,52.56,4.032,52.704,4.032,52.704,3.888,52.848,3.888,52.848,3.744,52.992,3.744,52.992,3.6,53.136,3.6,53.136,3.456,53.28,3.456,53.28,3.312,53.424,3.312,53.424,3.168,53.712,3.168,53.712,3.024,54,3.024,54,2.88,54.432,2.88,54.432,2.736,54.864,2.736,54.864,2.592"/>
    <polygon stroke-width="0" stroke="none" fill="black"  points="56.016,2.592,56.016,2.736,56.592,2.736,56.592,2.88,57.024,2.88,57.024,3.024,57.312,3.024,57.312,3.168,57.456,3.168,57.456,3.312,57.744,3.312,57.744,3.456,59.184,3.456,59.184,2.592"/>
    <polygon stroke-width="0" stroke="none" fill="black"  points="66.24,2.592,66.24,9.792,63.792,9.792,63.792,11.232,63.936,11.232,63.936,11.376,64.08,11.376,64.08,11.52,64.224,11.52,64.224,11.664,64.368,11.664,64.368,11.808,64.512,11.808,64.512,11.952,64.656,11.952,64.656,12.096,64.8,12.096,64.8,12.24,64.944,12.24,64.944,12.384,65.088,12.384,65.088,12.528,65.232,12.528,65.232,12.672,65.376,12.672,65.376,12.816,65.52,12.816,65.52,12.96,65.664,12.96,65.664,13.104,65.808,13.104,65.808,13.392,65.952,13.392,65.952,13.536,66.096,13.536,66.096,14.256,66.24,14.256,66.24,18.144,70.704,18.144,70.704,17.856,70.848,17.856,70.848,17.568,70.992,17.568,70.992,17.424,71.136,17.424,71.136,17.28,71.28,17.28,71.28,17.136,71.568,17.136,71.568,16.992,71.712,16.992,71.712,15.552,71.568,15.552,71.568,15.408,71.424,15.408,71.424,15.264,71.28,15.264,71.28,14.976,71.136,14.976,71.136,14.688,70.992,14.688,70.992,14.112,70.848,14.112,70.848,12.672,70.992,12.672,70.992,12.096,71.136,12.096,71.136,11.808,71.28,11.808,71.28,11.52,71.424,11.52,71.424,11.376,71.568,11.376,71.568,9.792,70.848,9.792,70.848,2.592"/>
    <polygon stroke-width="0" stroke="none" fill="black"  points="6.912,2.736,6.912,3.168,7.488,3.168,7.488,3.312,9.792,3.312,9.792,3.168,9.936,3.168,9.936,3.024,10.368,3.024,10.368,2.88,11.088,2.88,11.088,2.736"/>
    <polygon stroke-width="0" stroke="none" fill="black"  points="11.664,2.736,11.664,2.88,12.384,2.88,12.384,3.024,12.816,3.024,12.816,3.168,13.104,3.168,13.104,3.312,13.248,3.312,13.248,3.456,13.536,3.456,13.536,3.6,13.68,3.6,13.68,3.744,13.824,3.744,13.824,3.888,13.968,3.888,13.968,4.032,14.112,4.032,14.112,4.32,14.256,4.32,14.256,4.464,14.4,4.464,14.4,4.752,14.544,4.752,14.544,5.184,14.688,5.184,14.688,5.904,14.832,5.904,14.832,6.336,14.688,6.336,14.688,7.056,14.544,7.056,14.544,7.488,14.4,7.488,14.4,7.776,14.256,7.776,14.256,8.064,14.112,8.064,14.112,8.208,13.968,8.208,13.968,8.496,13.824,8.496,13.824,8.64,13.536,8.64,13.536,8.784,13.392,8.784,13.392,8.928,13.248,8.928,13.248,9.072,12.96,9.072,12.96,9.216,12.672,9.216,12.672,9.36,12.24,9.36,12.24,9.504,24.912,9.504,24.912,9.36,24.48,9.36,24.48,9.216,24.192,9.216,24.192,9.072,23.904,9.072,23.904,8.928,23.76,8.928,23.76,8.784,23.616,8.784,23.616,8.64,23.472,8.64,23.472,8.496,23.328,8.496,23.328,8.352,23.184,8.352,23.184,8.208,23.04,8.208,23.04,8.064,22.896,8.064,22.896,7.776,22.752,7.776,22.752,7.488,22.608,7.488,22.608,7.056,22.464,7.056,22.464,5.328,22.608,5.328,22.608,4.896,22.752,4.896,22.752,4.608,22.896,4.608,22.896,4.32,23.04,4.32,23.04,4.176,23.184,4.176,23.184,3.888,23.328,3.888,23.328,3.744,23.472,3.744,23.472,3.6,23.76,3.6,23.76,3.456,23.904,3.456,23.904,3.312,24.192,3.312,24.192,3.168,24.336,3.168,24.336,3.024,24.768,3.024,24.768,2.88,25.488,2.88,25.488,2.736"/>
    <polygon stroke-width="0" stroke="none" fill="black"  points="6.768,8.496,6.768,8.64,0,8.64,0,9.504,10.512,9.504,10.512,9.36,10.08,9.36,10.08,9.216,9.792,9.216,9.792,9.072,9.504,9.072,9.504,8.928,9.36,8.928,9.36,8.784,9.216,8.784,9.216,8.64,8.928,8.64,8.928,8.496"/>
    <polygon stroke-width="0" stroke="none" fill="black"  points="0,9.504,0,9.648,35.568,9.648,35.568,9.504"/>
    <polygon stroke-width="0" stroke="none" fill="black"  points="0,9.504,0,9.648,35.568,9.648,35.568,9.504"/>
    <polygon stroke-width="0" stroke="none" fill="black"  points="0,9.504,0,9.648,35.568,9.648,35.568,9.504"/>
    <polygon stroke-width="0" stroke="none" fill="black"  points="0,9.648,0,11.088,6.768,11.088,6.768,11.232,6.912,11.232,6.912,12.528,37.152,12.528,37.152,12.384,37.296,12.384,37.296,12.24,37.584,12.24,37.584,12.096,37.728,12.096,37.728,11.952,38.016,11.952,38.016,10.512,37.296,10.512,37.296,10.368,36.72,10.368,36.72,10.224,36.432,10.224,36.432,10.08,36.144,10.08,36.144,9.936,36,9.936,36,9.792,35.712,9.792,35.712,9.648"/>
    <polygon stroke-width="0" stroke="none" fill="black"  points="87.408,16.704,87.408,16.848,88.848,16.848,88.848,16.704"/>
    <polygon stroke-width="0" stroke="none" fill="black"  points="84.96,16.848,84.96,16.992,88.848,16.992,88.848,16.848"/>
    <polygon stroke-width="0" stroke="none" fill="black"  points="84.96,16.848,84.96,16.992,88.848,16.992,88.848,16.848"/>
    <polygon stroke-width="0" stroke="none" fill="black"  points="85.248,16.992,85.248,17.136,85.536,17.136,85.536,17.28,85.68,17.28,85.68,17.424,85.824,17.424,85.824,17.568,85.968,17.568,85.968,17.712,86.112,17.712,86.112,17.856,86.256,17.856,86.256,18,86.4,18,86.4,18.144,86.544,18.144,86.544,18.288,86.688,18.288,86.688,18.432,86.976,18.432,86.976,18.576,87.12,18.576,87.12,18.72,87.264,18.72,87.264,18.864,87.408,18.864,87.408,19.008,87.552,19.008,87.552,19.152,87.696,19.152,87.696,19.44,87.84,19.44,87.84,19.584,87.984,19.584,87.984,20.016,88.128,20.016,88.128,21.168,87.984,21.168,87.984,22.176,87.84,22.176,87.84,23.76,88.704,23.76,88.704,29.952,90.432,29.952,90.432,29.664,90.288,29.664,90.288,29.376,90.144,29.376,90.144,28.08,90.288,28.08,90.288,27.648,90.432,27.648,90.432,27.36,90.576,27.36,90.576,27.216,90.72,27.216,90.72,20.016,90.432,20.016,90.432,19.872,90.288,19.872,90.288,19.728,90,19.728,90,19.584,89.856,19.584,89.856,19.44,89.712,19.44,89.712,19.296,89.568,19.296,89.568,19.008,89.424,19.008,89.424,18.864,89.28,18.864,89.28,18.576,89.136,18.576,89.136,18.288,88.992,18.288,88.992,17.712,88.848,17.712,88.848,16.992"/>
    <polygon stroke-width="0" stroke="none" fill="black"  points="80.208,28.08,80.208,28.224,79.92,28.224,79.92,28.368,79.2,28.368,79.2,28.512,77.616,28.512,77.616,28.656,77.328,28.656,77.328,28.8,77.184,28.8,77.184,28.944,77.04,28.944,77.04,29.088,76.752,29.088,76.752,29.232,76.608,29.232,76.608,29.376,76.464,29.376,76.464,29.52,76.176,29.52,76.176,29.664,75.744,29.664,75.744,29.808,81.648,29.808,81.648,28.08"/>
    <polygon stroke-width="0" stroke="none" fill="black"  points="62.64,28.368,62.64,29.808,65.952,29.808,65.952,29.664,65.52,29.664,65.52,29.52,65.232,29.52,65.232,29.376,65.088,29.376,65.088,29.232,64.8,29.232,64.8,29.088,64.656,29.088,64.656,28.944,64.512,28.944,64.512,28.8,64.368,28.8,64.368,28.656,64.224,28.656,64.224,28.512,64.08,28.512,64.08,28.368"/>
    <polygon stroke-width="0" stroke="none" fill="black"  points="94.464,29.376,94.464,29.808,94.32,29.808,94.32,29.952,94.176,29.952,94.176,30.096,94.032,30.096,94.032,30.384,93.744,30.384,93.744,30.528,93.6,30.528,93.6,30.672,93.312,30.672,93.312,30.816,92.88,30.816,92.88,30.96,95.904,30.96,95.904,29.376"/>
    <polygon stroke-width="0" stroke="none" fill="black"  points="62.64,29.808,62.64,29.952,81.648,29.952,81.648,29.808"/>
    <polygon stroke-width="0" stroke="none" fill="black"  points="62.64,29.808,62.64,29.952,81.648,29.952,81.648,29.808"/>
    <polygon stroke-width="0" stroke="none" fill="black"  points="62.64,29.952,62.64,30.096,90.576,30.096,90.576,29.952"/>
    <polygon stroke-width="0" stroke="none" fill="black"  points="62.64,29.952,62.64,30.096,90.576,30.096,90.576,29.952"/>
    <polygon stroke-width="0" stroke="none" fill="black"  points="62.64,30.096,62.64,30.96,91.872,30.96,91.872,30.816,91.44,30.816,91.44,30.672,91.152,30.672,91.152,30.528,91.008,30.528,91.008,30.384,90.864,30.384,90.864,30.24,90.72,30.24,90.72,30.096"/>
    <polygon stroke-width="0" stroke="none" fill="black"  points="62.64,30.96,62.64,31.104,95.904,31.104,95.904,30.96"/>
    <polygon stroke-width="0" stroke="none" fill="black"  points="62.64,30.96,62.64,31.104,95.904,31.104,95.904,30.96"/>
    <polygon stroke-width="0" stroke="none" fill="black"  points="62.64,31.104,62.64,32.544,88.704,32.544,88.704,38.736,86.976,38.736,86.976,43.488,86.832,43.488,86.832,43.92,86.688,43.92,86.688,44.064,86.544,44.064,86.544,44.352,86.4,44.352,86.4,44.496,86.256,44.496,86.256,44.64,86.112,44.64,86.112,44.784,85.968,44.784,85.968,44.928,85.824,44.928,85.824,45.072,85.68,45.072,85.68,45.216,85.536,45.216,85.536,45.36,85.392,45.36,85.392,45.504,85.248,45.504,85.248,45.648,85.104,45.648,85.104,45.792,84.96,45.792,84.96,47.376,85.248,47.376,85.248,47.52,85.392,47.52,85.392,47.664,85.536,47.664,85.536,47.808,85.824,47.808,85.824,47.952,85.968,47.952,85.968,48.24,86.112,48.24,86.112,48.384,86.256,48.384,86.256,48.672,86.4,48.672,86.4,48.96,86.544,48.96,86.544,49.392,86.688,49.392,86.688,50.112,86.832,50.112,86.832,50.544,86.688,50.544,86.688,51.264,86.544,51.264,86.544,51.696,86.4,51.696,86.4,51.84,86.256,51.84,86.256,52.128,86.112,52.128,86.112,52.416,85.968,52.416,85.968,52.56,85.824,52.56,85.824,52.704,85.68,52.704,85.68,52.848,85.536,52.848,85.536,52.992,85.248,52.992,85.248,53.136,85.104,53.136,85.104,53.28,84.816,53.28,84.816,53.424,84.384,53.424,84.384,53.568,83.664,53.568,83.664,53.712,95.904,53.712,95.904,31.104"/>
    <polygon stroke-width="0" stroke="none" fill="black"  points="62.64,32.544,62.64,33.408,62.784,33.408,62.784,33.552,62.928,33.552,62.928,33.696,63.072,33.696,63.072,33.84,63.216,33.84,63.216,33.984,63.36,33.984,63.36,34.128,78.48,34.128,78.48,34.272,78.768,34.272,78.768,34.416,79.056,34.416,79.056,34.56,79.2,34.56,79.2,34.704,79.344,34.704,79.344,34.848,79.488,34.848,79.488,34.992,79.632,34.992,79.632,35.136,79.776,35.136,79.776,35.28,79.92,35.28,79.92,35.424,80.064,35.424,80.064,35.568,80.208,35.568,80.208,35.712,81.648,35.712,81.648,32.544"/>
    <polygon stroke-width="0" stroke="none" fill="black"  points="70.272,47.088,70.272,53.856,64.368,53.856,64.368,55.44,64.512,55.44,64.512,55.584,64.656,55.584,64.656,55.872,64.8,55.872,64.8,56.16,64.944,56.16,64.944,56.592,65.088,56.592,65.088,57.312,65.232,57.312,65.232,57.744,65.088,57.744,65.088,58.464,64.944,58.464,64.944,58.896,64.8,58.896,64.8,59.04,64.656,59.04,64.656,59.328,64.512,59.328,64.512,59.616,64.368,59.616,64.368,59.76,64.224,59.76,64.224,59.904,64.08,59.904,64.08,60.048,63.936,60.048,63.936,60.192,63.648,60.192,63.648,60.336,63.504,60.336,63.504,61.776,63.648,61.776,63.648,61.92,63.792,61.92,63.792,62.064,63.936,62.064,63.936,62.208,64.224,62.208,64.224,62.352,64.368,62.352,64.368,62.64,64.512,62.64,64.512,62.784,64.656,62.784,64.656,63.072,64.8,63.072,64.8,63.36,64.944,63.36,64.944,63.792,65.088,63.792,65.088,64.512,65.232,64.512,65.232,64.944,65.088,64.944,65.088,65.664,64.944,65.664,64.944,66.096,64.8,66.096,64.8,66.24,64.656,66.24,64.656,66.528,64.512,66.528,64.512,66.816,64.368,66.816,64.368,66.96,64.224,66.96,64.224,67.104,64.08,67.104,64.08,67.248,63.936,67.248,63.936,67.392,63.648,67.392,63.648,67.536,63.36,67.536,63.36,67.68,63.216,67.68,63.216,67.824,62.784,67.824,62.784,67.968,62.064,67.968,62.064,68.112,75.888,68.112,75.888,67.968,75.168,67.968,75.168,67.824,74.736,67.824,74.736,67.68,74.592,67.68,74.592,67.536,74.304,67.536,74.304,67.392,74.16,67.392,74.16,67.248,73.872,67.248,73.872,67.104,73.728,67.104,73.728,66.96,73.584,66.96,73.584,66.672,73.44,66.672,73.44,66.528,73.296,66.528,73.296,66.24,73.152,66.24,73.152,65.952,73.008,65.952,73.008,65.52,72.864,65.52,72.864,63.792,73.008,63.792,73.008,63.36,73.152,63.36,73.152,63.072,73.296,63.072,73.296,62.784,73.44,62.784,73.44,62.64,73.584,62.64,73.584,62.496,73.728,62.496,73.728,62.352,73.872,62.352,73.872,62.208,74.016,62.208,74.016,62.064,74.16,62.064,74.16,61.92,74.304,61.92,74.304,61.776,74.592,61.776,74.592,60.336,74.304,60.336,74.304,60.192,74.16,60.192,74.16,60.048,73.872,60.048,73.872,59.904,73.728,59.904,73.728,59.76,73.584,59.76,73.584,59.472,73.44,59.472,73.44,59.328,73.296,59.328,73.296,59.04,73.152,59.04,73.152,58.752,73.008,58.752,73.008,58.32,72.864,58.32,72.864,56.592,73.008,56.592,73.008,56.16,73.152,56.16,73.152,55.872,73.296,55.872,73.296,55.584,73.44,55.584,73.44,55.44,73.584,55.44,73.584,55.296,73.728,55.296,73.728,53.856,72.864,53.856,72.864,47.088"/>
    <polygon stroke-width="0" stroke="none" fill="black"  points="79.056,51.84,79.056,53.712,83.088,53.712,83.088,53.568,82.368,53.568,82.368,53.424,81.936,53.424,81.936,53.28,81.792,53.28,81.792,53.136,81.504,53.136,81.504,52.992,81.36,52.992,81.36,52.848,81.072,52.848,81.072,52.704,80.928,52.704,80.928,52.56,80.784,52.56,80.784,52.272,80.64,52.272,80.64,52.128,80.496,52.128,80.496,51.84"/>
    <polygon stroke-width="0" stroke="none" fill="black"  points="79.056,53.712,79.056,53.856,95.904,53.856,95.904,53.712"/>
    <polygon stroke-width="0" stroke="none" fill="black"  points="79.056,53.712,79.056,53.856,95.904,53.856,95.904,53.712"/>
    <polygon stroke-width="0" stroke="none" fill="black"  points="78.768,53.856,78.768,55.44,78.912,55.44,78.912,55.584,79.056,55.584,79.056,55.872,79.2,55.872,79.2,56.16,79.344,56.16,79.344,56.592,79.488,56.592,79.488,57.312,79.632,57.312,79.632,57.744,79.488,57.744,79.488,58.464,79.344,58.464,79.344,58.896,79.2,58.896,79.2,59.04,79.056,59.04,79.056,59.328,78.912,59.328,78.912,59.616,78.768,59.616,78.768,59.76,78.624,59.76,78.624,59.904,78.48,59.904,78.48,60.048,78.336,60.048,78.336,60.192,78.048,60.192,78.048,60.336,77.904,60.336,77.904,61.344,84.24,61.344,84.24,61.488,84.672,61.488,84.672,61.632,84.96,61.632,84.96,61.776,85.248,61.776,85.248,61.92,85.392,61.92,85.392,62.064,85.536,62.064,85.536,62.208,85.824,62.208,85.824,62.352,85.968,62.352,85.968,62.64,86.112,62.64,86.112,62.784,86.256,62.784,86.256,63.072,86.4,63.072,86.4,63.36,86.544,63.36,86.544,63.792,86.688,63.792,86.688,64.512,86.832,64.512,86.832,64.944,86.688,64.944,86.688,65.664,86.544,65.664,86.544,66.096,86.4,66.096,86.4,66.24,86.256,66.24,86.256,66.528,86.112,66.528,86.112,66.816,85.968,66.816,85.968,66.96,85.824,66.96,85.824,67.104,85.68,67.104,85.68,67.248,85.536,67.248,85.536,67.392,85.248,67.392,85.248,67.536,85.104,67.536,85.104,67.68,84.816,67.68,84.816,67.824,84.384,67.824,84.384,67.968,83.664,67.968,83.664,68.112,90.864,68.112,90.864,67.968,90.72,67.968,90.72,67.824,90.432,67.824,90.432,67.68,90.144,67.68,90.144,67.536,90,67.536,90,67.392,89.856,67.392,89.856,67.248,89.712,67.248,89.712,67.104,89.568,67.104,89.568,66.96,89.424,66.96,89.424,66.672,89.28,66.672,89.28,66.528,89.136,66.528,89.136,66.24,88.992,66.24,88.992,65.808,88.848,65.808,88.848,65.232,88.704,65.232,88.704,64.08,88.848,64.08,88.848,63.504,88.992,63.504,88.992,63.072,89.136,63.072,89.136,62.928,89.28,62.928,89.28,62.64,89.424,62.64,89.424,62.496,89.568,62.496,89.568,62.208,89.712,62.208,89.712,62.064,89.856,62.064,89.856,61.92,90.144,61.92,90.144,60.336,90,60.336,90,60.192,89.856,60.192,89.856,60.048,89.712,60.048,89.712,59.904,89.568,59.904,89.568,59.76,89.424,59.76,89.424,59.472,89.28,59.472,89.28,59.328,89.136,59.328,89.136,59.04,88.992,59.04,88.992,58.608,88.848,58.608,88.848,58.032,88.704,58.032,88.704,56.88,88.848,56.88,88.848,56.304,88.992,56.304,88.992,55.872,89.136,55.872,89.136,55.728,89.28,55.728,89.28,55.44,89.424,55.44,89.424,55.296,89.568,55.296,89.568,55.008,89.712,55.008,89.712,54.864,89.856,54.864,89.856,54.72,90.144,54.72,90.144,54.576,90.288,54.576,90.288,54.432,90.432,54.432,90.432,54.288,90.72,54.288,90.72,54.144,91.008,54.144,91.008,54,91.44,54,91.44,53.856"/>
    <polygon stroke-width="0" stroke="none" fill="black"  points="93.312,53.856,93.312,54,93.744,54,93.744,54.144,94.032,54.144,94.032,54.288,94.32,54.288,94.32,54.432,94.464,54.432,94.464,54.576,95.904,54.576,95.904,53.856"/>
    <polygon stroke-width="0" stroke="none" fill="black"  points="77.904,61.344,77.904,61.776,78.048,61.776,78.048,61.92,78.192,61.92,78.192,62.064,78.336,62.064,78.336,62.208,78.624,62.208,78.624,62.352,78.768,62.352,78.768,62.64,78.912,62.64,78.912,62.784,79.056,62.784,79.056,63.072,80.496,63.072,80.496,62.784,80.64,62.784,80.64,62.64,80.784,62.64,80.784,62.496,80.928,62.496,80.928,62.352,81.072,62.352,81.072,62.208,81.216,62.208,81.216,62.064,81.36,62.064,81.36,61.92,81.504,61.92,81.504,61.776,81.792,61.776,81.792,61.632,82.08,61.632,82.08,61.488,82.512,61.488,82.512,61.344"/>
    <polygon stroke-width="0" stroke="none" fill="black"  points="79.056,66.24,79.056,66.528,78.912,66.528,78.912,66.816,78.768,66.816,78.768,66.96,78.624,66.96,78.624,67.104,78.48,67.104,78.48,67.248,78.336,67.248,78.336,67.392,78.048,67.392,78.048,67.536,77.76,67.536,77.76,67.68,77.616,67.68,77.616,67.824,77.184,67.824,77.184,67.968,76.464,67.968,76.464,68.112,83.088,68.112,83.088,67.968,82.368,67.968,82.368,67.824,81.936,67.824,81.936,67.68,81.792,67.68,81.792,67.536,81.504,67.536,81.504,67.392,81.36,67.392,81.36,67.248,81.072,67.248,81.072,67.104,80.928,67.104,80.928,66.96,80.784,66.96,80.784,66.672,80.64,66.672,80.64,66.528,80.496,66.528,80.496,66.24"/>
    <polygon stroke-width="0" stroke="none" fill="black"  points="94.32,67.68,94.32,67.824,94.176,67.824,94.176,67.968,93.888,67.968,93.888,68.112,93.456,68.112,93.456,68.256,92.592,68.256,92.592,68.4,95.904,68.4,95.904,67.68"/>
    <polygon stroke-width="0" stroke="none" fill="black"  points="60.192,68.112,60.192,68.256,91.296,68.256,91.296,68.112"/>
    <polygon stroke-width="0" stroke="none" fill="black"  points="60.192,68.112,60.192,68.256,91.296,68.256,91.296,68.112"/>
    <polygon stroke-width="0" stroke="none" fill="black"  points="60.192,68.112,60.192,68.256,91.296,68.256,91.296,68.112"/>
    <polygon stroke-width="0" stroke="none" fill="black"  points="59.904,68.256,59.904,68.4,92.16,68.4,92.16,68.256"/>
    <polygon stroke-width="0" stroke="none" fill="black"  points="59.76,68.4,59.76,68.544,95.904,68.544,95.904,68.4"/>
    <polygon stroke-width="0" stroke="none" fill="black"  points="59.76,68.4,59.76,68.544,95.904,68.544,95.904,68.4"/>
    <polygon stroke-width="0" stroke="none" fill="black"  points="59.616,68.544,59.616,68.688,59.472,68.688,59.472,68.832,59.184,68.832,59.184,68.976,59.04,68.976,59.04,69.12,58.896,69.12,58.896,69.264,58.752,69.264,58.752,69.408,58.464,69.408,58.464,69.552,58.32,69.552,58.32,69.696,58.176,69.696,58.176,69.84,58.032,69.84,58.032,69.984,57.744,69.984,57.744,70.128,57.6,70.128,57.6,70.272,57.456,70.272,57.456,70.416,57.312,70.416,57.312,73.872,49.968,73.872,49.968,75.6,49.824,75.6,49.824,76.032,49.68,76.032,49.68,76.464,49.536,76.464,49.536,76.752,49.392,76.752,49.392,76.896,49.248,76.896,49.248,77.184,49.104,77.184,49.104,77.328,48.96,77.328,48.96,77.472,48.816,77.472,48.816,78.912,95.904,78.912,95.904,68.544"/>
    <g id="connector0pad" >
     <circle cx="90.3852" stroke-width="0" stroke="none" r="2.7" fill="black" cy="42.444" />
    </g>
   </g>
  </g>
 </g>
 <g partID="854476160">
  <g transform="translate(50.976,48.096)">
   <g id="groundplane1" >
    <g id="connector0pad" >
     <polygon stroke-width="0" stroke="none" fill="black"  points="9.216,0,9.216,5.472,15.984,5.472,15.984,3.168,15.84,3.168,15.84,2.88,15.696,2.88,15.696,2.592,15.552,2.592,15.552,2.304,15.408,2.304,15.408,2.16,15.264,2.16,15.264,1.872,15.12,1.872,15.12,1.584,14.976,1.584,14.976,1.44,14.832,1.44,14.832,1.008,14.688,1.008,14.688,0"/>
     <polygon stroke-width="0" stroke="none" fill="black"  points="0.576,2.736,0.576,2.88,0.432,2.88,0.432,3.024,0.288,3.024,0.288,3.168,0.144,3.168,0.144,3.312,0,3.312,0,4.752,0.144,4.752,0.144,4.896,0.288,4.896,0.288,5.04,0.432,5.04,0.432,5.328,0.576,5.328,0.576,5.472,2.016,5.472,2.016,2.736"/>
     <polygon stroke-width="0" stroke="none" fill="black"  points="0.576,5.472,0.576,5.616,15.984,5.616,15.984,5.472"/>
     <polygon stroke-width="0" stroke="none" fill="black"  points="0.576,5.472,0.576,5.616,15.984,5.616,15.984,5.472"/>
     <polygon stroke-width="0" stroke="none" fill="black"  points="0.72,5.616,0.72,6.192,0.864,6.192,0.864,7.488,0.72,7.488,0.72,8.064,9.216,8.064,9.216,8.928,14.544,8.928,14.544,9.072,15.984,9.072,15.984,5.616"/>
     <polygon stroke-width="0" stroke="none" fill="black"  points="0.576,8.064,0.576,8.352,0.432,8.352,0.432,8.64,0.288,8.64,0.288,8.784,0.144,8.784,0.144,10.224,2.016,10.224,2.016,8.064"/>
     <polygon stroke-width="0" stroke="none" fill="black"  points="9.216,8.928,9.216,10.944,10.656,10.944,10.656,10.656,10.8,10.656,10.8,10.368,10.944,10.368,10.944,10.224,11.088,10.224,11.088,10.08,11.232,10.08,11.232,9.936,11.376,9.936,11.376,9.792,11.52,9.792,11.52,9.648,11.664,9.648,11.664,9.504,11.808,9.504,11.808,9.36,12.096,9.36,12.096,9.216,12.384,9.216,12.384,9.072,12.816,9.072,12.816,8.928"/>
    </g>
   </g>
  </g>
 </g>
 <g partID="854476170">
  <g transform="translate(13.824,57.168)">
   <g id="groundplane1" >
    <g id="connector0pad" >
     <polygon stroke-width="0" stroke="none" fill="black"  points="2.304,0,2.304,0.288,2.16,0.288,2.16,0.72,2.016,0.72,2.016,3.024,1.872,3.024,1.872,3.456,1.728,3.456,1.728,3.744,1.584,3.744,1.584,4.032,1.44,4.032,1.44,4.32,1.296,4.32,1.296,4.464,1.152,4.464,1.152,4.608,1.008,4.608,1.008,4.752,0.864,4.752,0.864,4.896,0.72,4.896,0.72,5.04,0.432,5.04,0.432,5.184,0.288,5.184,0.288,5.328,0,5.328,0,6.768,3.744,6.768,3.744,0"/>
    </g>
   </g>
  </g>
 </g>
 <g partID="854476180">
  <g transform="translate(60.192,61.632)">
   <g id="groundplane1" >
    <g id="connector0pad" >
     <polygon stroke-width="0" stroke="none" fill="black"  points="0,0,0,4.608,1.44,4.608,1.44,4.32,1.584,4.32,1.584,4.032,1.728,4.032,1.728,3.888,1.872,3.888,1.872,3.744,2.016,3.744,2.016,3.6,2.16,3.6,2.16,3.456,2.304,3.456,2.304,3.312,2.448,3.312,2.448,3.168,2.592,3.168,2.592,3.024,2.88,3.024,2.88,1.584,2.592,1.584,2.592,1.44,2.448,1.44,2.448,1.296,2.16,1.296,2.16,1.152,2.016,1.152,2.016,1.008,1.872,1.008,1.872,0.72,1.728,0.72,1.728,0.576,1.584,0.576,1.584,0.288,1.44,0.288,1.44,0"/>
    </g>
   </g>
  </g>
 </g>
 <g partID="854476190">
  <g transform="translate(52.992,67.968)">
   <g id="groundplane1" >
    <g id="connector0pad" >
     <polygon stroke-width="0" stroke="none" fill="black"  points="0,0,0,2.592,4.32,2.592,4.32,2.448,4.464,2.448,4.464,2.304,4.608,2.304,4.608,2.16,4.896,2.16,4.896,2.016,5.04,2.016,5.04,1.872,5.184,1.872,5.184,1.728,5.328,1.728,5.328,1.584,5.616,1.584,5.616,1.44,5.76,1.44,5.76,0"/>
    </g>
   </g>
  </g>
 </g>
 <g partID="854476200">
  <g transform="translate(2.88,18.864)">
   <g id="groundplane1" >
    <polygon stroke-width="0" stroke="none" fill="black"  points="6.912,0,6.912,1.296,6.768,1.296,6.768,1.44,5.328,1.44,5.328,4.608,15.264,4.608,15.264,13.104,15.408,13.104,15.408,13.392,15.552,13.392,15.552,13.968,15.696,13.968,15.696,14.976,15.552,14.976,15.552,15.552,15.408,15.552,15.408,15.984,15.264,15.984,15.264,23.76,16.704,23.76,16.704,23.472,16.848,23.472,16.848,23.328,16.992,23.328,16.992,23.04,17.136,23.04,17.136,22.896,17.28,22.896,17.28,22.752,17.568,22.752,17.568,22.608,17.712,22.608,17.712,22.464,18.144,22.464,18.144,22.32,19.584,22.32,19.584,21.312,20.592,21.312,20.592,19.872,20.448,19.872,20.448,19.728,20.304,19.728,20.304,19.584,20.16,19.584,20.16,19.296,20.016,19.296,20.016,19.152,19.872,19.152,19.872,19.008,19.728,19.008,19.728,18.864,19.584,18.864,19.584,18.576,19.44,18.576,19.44,18.432,19.296,18.432,19.296,18.288,19.152,18.288,19.152,18.144,19.008,18.144,19.008,17.856,18.864,17.856,18.864,17.712,18.72,17.712,18.72,17.568,18.576,17.568,18.576,17.424,18.432,17.424,18.432,17.136,18.288,17.136,18.288,16.992,18.144,16.992,18.144,16.848,18,16.848,18,16.56,17.856,16.56,17.856,16.416,17.712,16.416,17.712,15.984,17.568,15.984,17.568,7.488,17.712,7.488,17.712,7.2,17.856,7.2,17.856,6.912,18,6.912,18,6.768,18.144,6.768,18.144,6.624,18.288,6.624,18.288,6.48,18.432,6.48,18.432,6.336,18.72,6.336,18.72,6.192,18.864,6.192,18.864,6.048,19.008,6.048,19.008,5.904,19.152,5.904,19.152,5.76,19.44,5.76,19.44,5.616,19.584,5.616,19.584,5.472,19.728,5.472,19.728,5.328,19.872,5.328,19.872,5.184,20.16,5.184,20.16,5.04,20.304,5.04,20.304,4.896,20.448,4.896,20.448,4.752,20.592,4.752,20.592,4.608,20.88,4.608,20.88,4.464,21.024,4.464,21.024,4.32,21.168,4.32,21.168,4.176,21.312,4.176,21.312,4.032,21.6,4.032,21.6,3.888,21.744,3.888,21.744,3.744,21.888,3.744,21.888,3.6,22.176,3.6,22.176,3.456,22.32,3.456,22.32,3.312,22.464,3.312,22.464,3.168,22.608,3.168,22.608,3.024,22.896,3.024,22.896,2.88,23.04,2.88,23.04,2.736,23.472,2.736,23.472,2.592,26.784,2.592,26.784,0"/>
    <polygon stroke-width="0" stroke="none" fill="black"  points="39.744,3.744,39.744,3.888,39.456,3.888,39.456,4.032,39.312,4.032,39.312,4.176,39.168,4.176,39.168,4.32,38.88,4.32,38.88,4.464,38.736,4.464,38.736,4.608,38.592,4.608,38.592,4.752,38.304,4.752,38.304,4.896,38.16,4.896,38.16,5.04,38.016,5.04,38.016,5.184,37.728,5.184,37.728,5.328,37.584,5.328,37.584,5.472,37.44,5.472,37.44,5.616,37.296,5.616,37.296,5.76,37.008,5.76,37.008,5.904,36.864,5.904,36.864,6.048,36.72,6.048,36.72,6.192,36.432,6.192,36.432,6.336,35.856,6.336,35.856,6.48,35.568,6.48,35.568,9.072,43.344,9.072,43.344,8.352,43.2,8.352,43.2,8.208,42.912,8.208,42.912,8.064,42.768,8.064,42.768,7.92,42.624,7.92,42.624,7.776,42.48,7.776,42.48,7.632,42.336,7.632,42.336,7.488,42.192,7.488,42.192,7.344,42.048,7.344,42.048,7.2,41.904,7.2,41.904,6.912,41.76,6.912,41.76,6.624,41.616,6.624,41.616,6.336,41.472,6.336,41.472,6.048,41.328,6.048,41.328,5.472,41.184,5.472,41.184,3.744"/>
    <polygon stroke-width="0" stroke="none" fill="black"  points="6.48,4.608,6.48,11.664,6.336,11.664,6.336,11.808,5.328,11.808,5.328,17.28,6.48,17.28,6.48,24.336,0,24.336,0,45.072,5.616,45.072,5.616,45.216,5.76,45.216,5.76,51.84,5.904,51.84,5.904,52.128,6.048,52.128,6.048,52.272,6.192,52.272,6.192,52.56,6.336,52.56,6.336,52.848,6.48,52.848,6.48,53.28,6.624,53.28,6.624,54.864,6.48,54.864,6.48,55.44,6.336,55.44,6.336,55.728,6.192,55.728,6.192,55.872,6.048,55.872,6.048,56.16,5.904,56.16,5.904,56.304,5.76,56.304,5.76,56.448,5.616,56.448,5.616,56.592,5.472,56.592,5.472,56.736,5.328,56.736,5.328,56.88,5.04,56.88,5.04,57.024,4.752,57.024,4.752,57.168,4.464,57.168,4.464,57.312,4.032,57.312,4.032,57.456,16.992,57.456,16.992,57.312,16.416,57.312,16.416,57.168,16.128,57.168,16.128,57.024,15.984,57.024,15.984,56.88,15.696,56.88,15.696,56.736,15.552,56.736,15.552,56.592,15.408,56.592,15.408,56.448,15.264,56.448,15.264,56.304,15.12,56.304,15.12,56.16,14.976,56.16,14.976,56.016,14.832,56.016,14.832,55.728,14.688,55.728,14.688,55.44,14.544,55.44,14.544,55.008,14.4,55.008,14.4,54.432,14.256,54.432,14.256,53.712,14.4,53.712,14.4,52.272,8.208,52.272,8.208,45.216,8.352,45.216,8.352,43.776,8.208,43.776,8.208,43.632,8.064,43.632,8.064,43.488,7.776,43.488,7.776,43.344,7.488,43.344,7.488,43.2,7.344,43.2,7.344,43.056,7.2,43.056,7.2,42.912,7.056,42.912,7.056,42.768,6.912,42.768,6.912,42.48,6.768,42.48,6.768,42.336,6.624,42.336,6.624,42.048,6.48,42.048,6.48,41.76,6.336,41.76,6.336,41.184,6.192,41.184,6.192,40.032,6.336,40.032,6.336,39.456,6.48,39.456,6.48,39.168,6.624,39.168,6.624,38.88,6.768,38.88,6.768,38.592,6.912,38.592,6.912,38.448,7.056,38.448,7.056,38.304,7.2,38.304,7.2,38.16,7.344,38.16,7.344,38.016,7.488,38.016,7.488,37.872,7.632,37.872,7.632,37.728,7.92,37.728,7.92,37.584,8.064,37.584,8.064,37.296,8.208,37.296,8.208,36.864,8.352,36.864,8.352,36.576,8.496,36.576,8.496,36.288,8.64,36.288,8.64,35.856,8.784,35.856,8.784,22.752,8.928,22.752,8.928,17.28,9.216,17.28,9.216,15.696,9.072,15.696,9.072,15.264,8.928,15.264,8.928,13.68,9.072,13.68,9.072,13.248,9.216,13.248,9.216,11.808,8.928,11.808,8.928,4.608"/>
    <polygon stroke-width="0" stroke="none" fill="black"  points="24.624,6.624,24.624,6.768,24.48,6.768,24.48,6.912,24.192,6.912,24.192,7.056,24.048,7.056,24.048,7.2,23.904,7.2,23.904,7.344,23.76,7.344,23.76,7.488,23.472,7.488,23.472,7.632,23.328,7.632,23.328,7.776,23.184,7.776,23.184,7.92,23.04,7.92,23.04,8.064,22.752,8.064,22.752,8.208,22.608,8.208,22.608,8.352,22.464,8.352,22.464,8.496,22.176,8.496,22.176,8.64,22.032,8.64,22.032,8.784,21.888,8.784,21.888,8.928,21.744,8.928,21.744,9.072,26.784,9.072,26.784,6.624"/>
    <polygon stroke-width="0" stroke="none" fill="black"  points="21.6,9.072,21.6,9.216,43.344,9.216,43.344,9.072"/>
    <polygon stroke-width="0" stroke="none" fill="black"  points="21.6,9.072,21.6,9.216,43.344,9.216,43.344,9.072"/>
    <polygon stroke-width="0" stroke="none" fill="black"  points="21.6,9.216,21.6,10.08,39.168,10.08,39.168,10.224,39.744,10.224,39.744,10.368,40.176,10.368,40.176,10.512,40.464,10.512,40.464,10.656,40.752,10.656,40.752,10.8,40.896,10.8,40.896,10.944,41.184,10.944,41.184,11.088,41.328,11.088,41.328,11.232,41.472,11.232,41.472,11.376,42.912,11.376,42.912,9.792,43.344,9.792,43.344,9.216"/>
    <polygon stroke-width="0" stroke="none" fill="black"  points="21.6,10.08,21.6,11.088,27.216,11.088,27.216,11.232,27.792,11.232,27.792,11.376,28.08,11.376,28.08,11.52,28.368,11.52,28.368,11.664,28.656,11.664,28.656,11.808,28.8,11.808,28.8,11.952,28.944,11.952,28.944,12.096,29.088,12.096,29.088,12.24,29.232,12.24,29.232,12.384,29.376,12.384,29.376,12.528,29.52,12.528,29.52,12.816,29.664,12.816,29.664,13.104,29.808,13.104,29.808,13.392,29.952,13.392,29.952,13.968,30.096,13.968,30.096,14.976,29.952,14.976,29.952,15.552,29.808,15.552,29.808,15.984,29.664,15.984,29.664,16.128,29.52,16.128,29.52,16.416,29.376,16.416,29.376,16.56,29.232,16.56,29.232,16.848,29.088,16.848,29.088,16.992,28.8,16.992,28.8,17.136,28.656,17.136,28.656,17.28,28.512,17.28,28.512,17.424,28.224,17.424,28.224,17.568,27.936,17.568,27.936,17.712,27.36,17.712,27.36,17.856,24.624,17.856,24.624,18.72,24.768,18.72,24.768,18.864,37.44,18.864,37.44,18.72,36.864,18.72,36.864,18.576,36.576,18.576,36.576,18.432,36.288,18.432,36.288,18.288,36,18.288,36,18.144,35.856,18.144,35.856,18,35.568,18,35.568,17.856,35.424,17.856,35.424,17.712,35.28,17.712,35.28,17.568,35.136,17.568,35.136,17.424,34.992,17.424,34.992,17.28,34.848,17.28,34.848,16.992,34.704,16.992,34.704,16.848,34.56,16.848,34.56,16.56,34.416,16.56,34.416,16.272,34.272,16.272,34.272,15.84,34.128,15.84,34.128,15.408,33.984,15.408,33.984,13.68,34.128,13.68,34.128,13.104,34.272,13.104,34.272,12.672,34.416,12.672,34.416,12.384,34.56,12.384,34.56,12.096,34.704,12.096,34.704,11.952,34.848,11.952,34.848,11.808,34.992,11.808,34.992,11.52,35.136,11.52,35.136,11.376,35.28,11.376,35.28,11.232,35.424,11.232,35.424,11.088,35.712,11.088,35.712,10.944,35.856,10.944,35.856,10.8,36.144,10.8,36.144,10.656,36.288,10.656,36.288,10.512,36.576,10.512,36.576,10.368,37.008,10.368,37.008,10.224,37.584,10.224,37.584,10.08"/>
    <polygon stroke-width="0" stroke="none" fill="black"  points="21.6,11.088,21.6,14.832,21.744,14.832,21.744,14.976,21.888,14.976,21.888,15.264,22.032,15.264,22.032,15.408,23.472,15.408,23.472,15.264,23.328,15.264,23.328,13.68,23.472,13.68,23.472,13.248,23.616,13.248,23.616,12.96,23.76,12.96,23.76,12.672,23.904,12.672,23.904,12.528,24.048,12.528,24.048,12.384,24.192,12.384,24.192,12.096,24.336,12.096,24.336,11.952,24.624,11.952,24.624,11.808,24.768,11.808,24.768,11.664,24.912,11.664,24.912,11.52,25.2,11.52,25.2,11.376,25.632,11.376,25.632,11.232,26.064,11.232,26.064,11.088"/>
    <polygon stroke-width="0" stroke="none" fill="black"  points="50.112,14.832,50.112,15.984,42.48,15.984,42.48,16.272,42.336,16.272,42.336,16.56,42.192,16.56,42.192,16.848,42.048,16.848,42.048,16.992,41.904,16.992,41.904,17.28,41.76,17.28,41.76,17.424,41.616,17.424,41.616,17.568,41.472,17.568,41.472,17.712,41.328,17.712,41.328,17.856,41.184,17.856,41.184,18,41.04,18,41.04,18.144,40.752,18.144,40.752,18.288,40.464,18.288,40.464,18.432,40.176,18.432,40.176,18.576,50.112,18.576,50.112,24.768,49.104,24.768,49.104,26.352,49.248,26.352,49.248,26.496,49.392,26.496,49.392,26.784,49.536,26.784,49.536,27.072,49.68,27.072,49.68,27.36,49.824,27.36,49.824,27.936,49.968,27.936,49.968,28.512,55.584,28.512,55.584,23.472,55.44,23.472,55.44,23.184,55.296,23.184,55.296,16.272,55.152,16.272,55.152,16.128,55.008,16.128,55.008,15.984,54.864,15.984,54.864,15.84,54.72,15.84,54.72,15.696,54.576,15.696,54.576,15.552,54.432,15.552,54.432,15.408,54.288,15.408,54.288,15.264,54.144,15.264,54.144,15.12,54,15.12,54,14.976,53.856,14.976,53.856,14.832"/>
    <polygon stroke-width="0" stroke="none" fill="black"  points="39.888,18.576,39.888,18.72,39.312,18.72,39.312,18.864,42.912,18.864,42.912,18.576"/>
    <polygon stroke-width="0" stroke="none" fill="black"  points="24.912,18.864,24.912,19.008,42.912,19.008,42.912,18.864"/>
    <polygon stroke-width="0" stroke="none" fill="black"  points="24.912,18.864,24.912,19.008,42.912,19.008,42.912,18.864"/>
    <polygon stroke-width="0" stroke="none" fill="black"  points="24.912,19.008,24.912,19.296,25.056,19.296,25.056,21.312,26.64,21.312,26.64,24.48,35.568,24.48,35.568,33.264,34.272,33.264,34.272,34.848,34.416,34.848,34.416,35.424,34.56,35.424,34.56,36.72,34.416,36.72,34.416,37.296,34.272,37.296,34.272,37.584,34.128,37.584,34.128,37.872,33.984,37.872,33.984,38.016,33.84,38.016,33.84,38.304,33.696,38.304,33.696,38.448,33.552,38.448,33.552,38.592,33.408,38.592,33.408,38.736,33.12,38.736,33.12,38.88,32.976,38.88,32.976,39.024,32.688,39.024,32.688,39.168,32.4,39.168,32.4,39.312,31.968,39.312,31.968,39.456,42.912,39.456,42.912,38.016,42.768,38.016,42.768,37.872,42.624,37.872,42.624,37.584,42.48,37.584,42.48,37.152,42.336,37.152,42.336,36.72,42.192,36.72,42.192,35.568,42.336,35.568,42.336,34.992,42.48,34.992,42.48,34.56,42.624,34.56,42.624,34.416,42.768,34.416,42.768,34.128,42.912,34.128,42.912,33.984,43.056,33.984,43.056,32.4,42.768,32.4,42.768,32.256,42.624,32.256,42.624,32.112,42.48,32.112,42.48,31.968,42.336,31.968,42.336,31.824,42.192,31.824,42.192,31.68,42.048,31.68,42.048,31.392,41.904,31.392,41.904,31.248,41.76,31.248,41.76,30.96,41.616,30.96,41.616,30.672,41.472,30.672,41.472,30.24,41.328,30.24,41.328,29.808,41.184,29.808,41.184,28.08,41.328,28.08,41.328,27.504,41.472,27.504,41.472,27.072,41.616,27.072,41.616,26.784,41.76,26.784,41.76,26.496,41.904,26.496,41.904,26.352,42.048,26.352,42.048,26.208,42.192,26.208,42.192,25.92,42.336,25.92,42.336,25.776,42.48,25.776,42.48,25.632,42.624,25.632,42.624,25.488,42.912,25.488,42.912,19.008"/>
    <polygon stroke-width="0" stroke="none" fill="black"  points="18.72,36.288,18.72,43.92,23.184,43.92,23.184,43.776,22.608,43.776,22.608,43.632,22.464,43.632,22.464,43.488,22.176,43.488,22.176,43.344,21.888,43.344,21.888,43.2,21.744,43.2,21.744,43.056,21.6,43.056,21.6,42.912,21.456,42.912,21.456,42.768,21.312,42.768,21.312,42.48,21.168,42.48,21.168,42.336,21.024,42.336,21.024,42.048,20.88,42.048,20.88,41.76,20.736,41.76,20.736,41.184,20.592,41.184,20.592,40.032,20.736,40.032,20.736,39.456,20.88,39.456,20.88,39.168,21.024,39.168,21.024,38.88,21.168,38.88,21.168,38.592,21.312,38.592,21.312,38.448,21.456,38.448,21.456,38.304,21.6,38.304,21.6,38.16,21.744,38.16,21.744,38.016,21.888,38.016,21.888,37.872,22.032,37.872,22.032,37.728,22.32,37.728,22.32,36.288"/>
    <polygon stroke-width="0" stroke="none" fill="black"  points="26.784,37.728,26.784,38.88,26.928,38.88,26.928,39.024,27.072,39.024,27.072,39.456,30.528,39.456,30.528,39.312,29.952,39.312,29.952,39.168,29.664,39.168,29.664,39.024,29.376,39.024,29.376,38.88,29.232,38.88,29.232,38.736,29.088,38.736,29.088,38.592,28.8,38.592,28.8,38.448,28.656,38.448,28.656,38.16,28.512,38.16,28.512,38.016,28.368,38.016,28.368,37.872,28.224,37.872,28.224,37.728"/>
    <polygon stroke-width="0" stroke="none" fill="black"  points="27.216,39.456,27.216,39.6,42.912,39.6,42.912,39.456"/>
    <polygon stroke-width="0" stroke="none" fill="black"  points="27.216,39.456,27.216,39.6,42.912,39.6,42.912,39.456"/>
    <polygon stroke-width="0" stroke="none" fill="black"  points="27.216,39.6,27.216,39.744,39.024,39.744,39.024,39.888,39.744,39.888,39.744,40.032,40.032,40.032,40.032,40.176,40.464,40.176,40.464,40.32,40.608,40.32,40.608,40.464,40.896,40.464,40.896,40.608,41.04,40.608,41.04,40.752,41.328,40.752,41.328,40.896,41.472,40.896,41.472,41.04,42.912,41.04,42.912,39.6"/>
    <polygon stroke-width="0" stroke="none" fill="black"  points="27.216,39.744,27.216,39.888,27.36,39.888,27.36,41.328,27.216,41.328,27.216,41.76,27.072,41.76,27.072,42.048,26.928,42.048,26.928,42.336,26.784,42.336,26.784,42.624,26.64,42.624,26.64,42.768,26.496,42.768,26.496,42.912,26.352,42.912,26.352,43.056,26.208,43.056,26.208,43.2,26.064,43.2,26.064,43.344,25.776,43.344,25.776,43.488,25.632,43.488,25.632,43.632,25.344,43.632,25.344,43.776,24.768,43.776,24.768,43.92,33.984,43.92,33.984,43.344,34.128,43.344,34.128,42.768,34.272,42.768,34.272,42.336,34.416,42.336,34.416,42.048,34.56,42.048,34.56,41.904,34.704,41.904,34.704,41.616,34.848,41.616,34.848,41.472,34.992,41.472,34.992,41.328,35.136,41.328,35.136,41.184,35.28,41.184,35.28,41.04,35.424,41.04,35.424,40.896,35.568,40.896,35.568,40.752,35.712,40.752,35.712,40.608,35.856,40.608,35.856,40.464,36.144,40.464,36.144,40.32,36.432,40.32,36.432,40.176,36.72,40.176,36.72,40.032,37.152,40.032,37.152,39.888,37.728,39.888,37.728,39.744"/>
    <polygon stroke-width="0" stroke="none" fill="black"  points="18.72,43.92,18.72,44.064,33.984,44.064,33.984,43.92"/>
    <polygon stroke-width="0" stroke="none" fill="black"  points="18.72,43.92,18.72,44.064,33.984,44.064,33.984,43.92"/>
    <polygon stroke-width="0" stroke="none" fill="black"  points="18.72,44.064,18.72,46.656,18.576,46.656,18.576,46.944,18.432,46.944,18.432,47.232,18.288,47.232,18.288,47.376,18.144,47.376,18.144,47.664,18,47.664,18,47.952,17.856,47.952,17.856,48.096,17.712,48.096,17.712,48.384,17.568,48.384,17.568,48.528,17.424,48.528,17.424,48.672,38.16,48.672,38.16,48.528,37.296,48.528,37.296,48.384,36.72,48.384,36.72,48.24,36.432,48.24,36.432,48.096,36.144,48.096,36.144,47.952,36,47.952,36,47.808,35.712,47.808,35.712,47.664,35.568,47.664,35.568,47.52,35.424,47.52,35.424,47.376,35.28,47.376,35.28,47.232,35.136,47.232,35.136,47.088,34.992,47.088,34.992,46.944,34.848,46.944,34.848,46.8,34.704,46.8,34.704,46.512,34.56,46.512,34.56,46.224,34.416,46.224,34.416,45.936,34.272,45.936,34.272,45.648,34.128,45.648,34.128,45.072,33.984,45.072,33.984,44.064"/>
    <polygon stroke-width="0" stroke="none" fill="black"  points="42.48,45.792,42.48,46.08,42.336,46.08,42.336,46.368,42.192,46.368,42.192,46.512,42.048,46.512,42.048,46.8,41.904,46.8,41.904,46.944,41.76,46.944,41.76,47.088,41.616,47.088,41.616,47.232,41.472,47.232,41.472,47.376,41.328,47.376,41.328,47.52,41.184,47.52,41.184,47.664,41.04,47.664,41.04,47.808,40.752,47.808,40.752,47.952,40.608,47.952,40.608,48.096,40.32,48.096,40.32,48.24,40.032,48.24,40.032,48.384,39.456,48.384,39.456,48.528,38.592,48.528,38.592,48.672,42.912,48.672,42.912,48.24,46.368,48.24,46.368,46.656,46.224,46.656,46.224,46.368,46.08,46.368,46.08,46.08,45.936,46.08,45.936,45.792"/>
    <polygon stroke-width="0" stroke="none" fill="black"  points="17.424,48.672,17.424,48.816,42.912,48.816,42.912,48.672"/>
    <polygon stroke-width="0" stroke="none" fill="black"  points="17.424,48.672,17.424,48.816,42.912,48.816,42.912,48.672"/>
    <polygon stroke-width="0" stroke="none" fill="black"  points="17.28,48.816,17.28,49.104,17.136,49.104,17.136,49.248,16.992,49.248,16.992,50.688,18.288,50.688,18.288,50.832,18.72,50.832,18.72,50.976,19.152,50.976,19.152,51.12,19.44,51.12,19.44,51.264,19.584,51.264,19.584,51.408,19.872,51.408,19.872,51.552,20.016,51.552,20.016,51.696,20.16,51.696,20.16,51.84,20.304,51.84,20.304,52.128,20.448,52.128,20.448,52.272,20.592,52.272,20.592,52.56,20.736,52.56,20.736,52.848,20.88,52.848,20.88,53.28,21.024,53.28,21.024,54.144,35.568,54.144,35.568,62.928,42.336,62.928,42.336,61.488,42.192,61.488,42.192,61.344,42.048,61.344,42.048,61.2,41.904,61.2,41.904,60.912,41.76,60.912,41.76,60.624,41.616,60.624,41.616,60.336,41.472,60.336,41.472,60.048,41.328,60.048,41.328,59.472,41.184,59.472,41.184,57.744,41.328,57.744,41.328,57.168,41.472,57.168,41.472,56.736,41.616,56.736,41.616,56.448,41.76,56.448,41.76,56.304,41.904,56.304,41.904,56.016,42.048,56.016,42.048,55.872,42.192,55.872,42.192,55.728,42.336,55.728,42.336,55.584,42.48,55.584,42.48,55.44,42.624,55.44,42.624,55.296,42.768,55.296,42.768,55.152,42.912,55.152,42.912,48.816"/>
    <polygon stroke-width="0" stroke="none" fill="black"  points="21.024,54.144,21.024,54.864,20.88,54.864,20.88,55.44,20.736,55.44,20.736,55.728,20.592,55.728,20.592,55.872,20.448,55.872,20.448,56.16,20.304,56.16,20.304,56.304,20.16,56.304,20.16,56.448,20.016,56.448,20.016,56.592,19.872,56.592,19.872,56.736,19.728,56.736,19.728,56.88,19.44,56.88,19.44,57.024,19.152,57.024,19.152,57.168,18.864,57.168,18.864,57.312,18.432,57.312,18.432,57.456,26.784,57.456,26.784,54.144"/>
    <polygon stroke-width="0" stroke="none" fill="black"  points="0,56.88,0,57.456,2.592,57.456,2.592,57.312,2.016,57.312,2.016,57.168,1.728,57.168,1.728,57.024,1.584,57.024,1.584,56.88"/>
    <polygon stroke-width="0" stroke="none" fill="black"  points="0,57.456,0,57.6,26.784,57.6,26.784,57.456"/>
    <polygon stroke-width="0" stroke="none" fill="black"  points="0,57.456,0,57.6,26.784,57.6,26.784,57.456"/>
    <polygon stroke-width="0" stroke="none" fill="black"  points="0,57.456,0,57.6,26.784,57.6,26.784,57.456"/>
    <polygon stroke-width="0" stroke="none" fill="black"  points="0,57.6,0,62.928,26.784,62.928,26.784,57.6"/>
    <g id="connector0pad" >
     <circle cx="5.094" stroke-width="0" stroke="none" r="2.7" fill="black" cy="28.7595" />
    </g>
   </g>
  </g>
 </g>
 <g partID="854476210">
  <g transform="translate(84.672,54.072)">
   <g id="groundplane1" >
    <polygon stroke-width="0" stroke="none" fill="black"  points="0,0,2.88,0,2.88,2.52,0,2.52"/>
   </g>
  </g>
 </g>
 <g partID="854476220">
  <g transform="translate(87.12,51.624)">
   <g id="groundplane1" >
    <polygon stroke-width="0" stroke="none" fill="black"  points="0,0,2.592,0,2.592,2.88,0,2.88"/>
   </g>
  </g>
 </g>
 <g partID="854476230">
  <g transform="translate(93.528,56.448)">
   <g id="groundplane1" >
    <polygon stroke-width="0" stroke="none" fill="black"  points="0,0,3.168,0,3.168,2.376,0,2.376"/>
   </g>
  </g>
 </g>
 <g partID="57511">
  <g transform="translate(100.309,72.5924)">
   <g transform="matrix(-1,0,0,-1,0,0)">
    <g id="copper1" >
     <g id="copper0" >
      <circle id="connector0pin" cx="5.04" stroke-width="1.44" stroke="black" fill="none" r="2.088" cy="5.04" />
      <circle id="connector1pin" cx="5.04" stroke-width="1.44" stroke="black" fill="none" r="2.088" cy="12.24" />
     </g>
    </g>
   </g>
  </g>
 </g>
 <g partID="854455221">
  <g transform="translate(89.1486,50.2724)">
   <g transform="matrix(0,1,-1,0,0,0)">
    <g id="copper1" >
     <circle id="connector0pin" cx="2.88" stroke-width="1.44" stroke="black" fill="none" r="1.8" cy="2.88" />
     <circle id="connector1pin" cx="17.28" stroke-width="1.44" stroke="black" fill="none" r="1.8" cy="2.88" />
    </g>
   </g>
  </g>
 </g>
 <g partID="854454141">
  <g transform="translate(61.7886,64.6724)">
   <g id="copper1" >
    <circle id="connector0pin" cx="2.88" stroke-width="1.44" stroke="black" fill="none" r="1.8" cy="2.88" />
    <circle id="connector1pin" cx="17.28" stroke-width="1.44" stroke="black" fill="none" r="1.8" cy="2.88" />
   </g>
  </g>
 </g>
 <g partID="854398451">
  <g transform="translate(81.9486,63.2324)">
   <g transform="matrix(-1,0,0,-1,0,0)">
    <g id="copper1" >
     <circle id="connector0pin" cx="2.88" stroke-width="1.44" stroke="black" fill="none" r="1.8" cy="2.88" />
     <circle id="connector1pin" cx="17.28" stroke-width="1.44" stroke="black" fill="none" r="1.8" cy="2.88" />
    </g>
   </g>
  </g>
 </g>
 <g partID="854326611">
  <g transform="translate(84.8286,5.0924)">
   <g transform="matrix(0,1,-1,0,0,0)">
    <g id="copper1" >
     <g id="copper0" >
      <rect x="1.98" id="rect11" width="3.96" y="5.58" stroke-width="1.44" stroke="black" fill="none"  height="3.96"/>
      <circle id="connector0pin" cx="3.96" stroke-width="1.44" stroke="black" r="1.98" fill="none" cy="7.56" />
      <circle id="connector1pin" cx="11.16" stroke-width="1.44" stroke="black" r="1.98" fill="none" cy="7.56" />
     </g>
    </g>
   </g>
  </g>
 </g>
 <g partID="854461051">
  <g transform="translate(69.5286,16.6124)">
   <g transform="matrix(-1,0,0,-1,0,0)">
    <g id="copper1" >
     <g id="copper0" >
      <rect x="1.98" id="rect11" width="3.96" y="5.58" stroke-width="1.44" stroke="black" fill="none"  height="3.96"/>
      <circle id="connector0pin" cx="3.96" stroke-width="1.44" stroke="black" r="1.98" fill="none" cy="7.56" />
      <circle id="connector1pin" cx="11.16" stroke-width="1.44" stroke="black" r="1.98" fill="none" cy="7.56" />
     </g>
    </g>
   </g>
  </g>
 </g>
 <g partID="854360321">
  <g transform="translate(30.5406,51.2804)">
   <g transform="matrix(0,-1,1,0,0,0)">
    <g id="copper1" >
     <g id="copper0" >
      <circle id="connector2pad" cx="3.528" stroke-width="2.088" stroke="black" fill="none" r="2.52" cy="17.928" />
      <rect x="1.008" width="5.04" y="1.008" stroke-width="2.088" stroke="black" fill="none"  height="5.04"/>
      <circle id="connector0pad" cx="3.528" stroke-width="2.088" stroke="black" fill="none" r="2.52" cy="3.528" />
      <circle id="connector1pad" cx="17.928" stroke-width="2.088" stroke="black" fill="none" r="2.52" cy="10.728" />
     </g>
    </g>
   </g>
  </g>
 </g>
 <g partID="854360001">
  <g transform="translate(30.5406,80.9804)">
   <g transform="matrix(0,-1,1,0,0,0)">
    <g id="copper1" >
     <g id="copper0" >
      <circle id="connector2pad" cx="3.528" stroke-width="2.088" stroke="black" fill="none" r="2.52" cy="17.928" />
      <rect x="1.008" width="5.04" y="1.008" stroke-width="2.088" stroke="black" fill="none"  height="5.04"/>
      <circle id="connector0pad" cx="3.528" stroke-width="2.088" stroke="black" fill="none" r="2.52" cy="3.528" />
      <circle id="connector1pad" cx="17.928" stroke-width="2.088" stroke="black" fill="none" r="2.52" cy="10.728" />
     </g>
    </g>
   </g>
  </g>
 </g>
 <g partID="854359001">
  <g transform="translate(30.5406,26.9804)">
   <g transform="matrix(0,-1,1,0,0,0)">
    <g id="copper1" >
     <g id="copper0" >
      <circle id="connector2pad" cx="3.528" stroke-width="2.088" stroke="black" fill="none" r="2.52" cy="17.928" />
      <rect x="1.008" width="5.04" y="1.008" stroke-width="2.088" stroke="black" fill="none"  height="5.04"/>
      <circle id="connector0pad" cx="3.528" stroke-width="2.088" stroke="black" fill="none" r="2.52" cy="3.528" />
      <circle id="connector1pad" cx="17.928" stroke-width="2.088" stroke="black" fill="none" r="2.52" cy="10.728" />
     </g>
    </g>
   </g>
  </g>
 </g>
 <g partID="854383931">
  <g transform="translate(11.3886,6.1724)">
   <g id="copper1" >
    <circle id="connector0pin" cx="2.88" stroke-width="1.44" stroke="black" fill="none" r="1.8" cy="2.88" />
    <circle id="connector1pin" cx="17.28" stroke-width="1.44" stroke="black" fill="none" r="1.8" cy="2.88" />
   </g>
  </g>
 </g>
 <g partID="854364781">
  <g transform="translate(78.8886,45.2324)">
   <g transform="matrix(0,-1,1,0,0,0)">
    <g id="copper1" >
     <circle id="connector0pin" cx="2.88" stroke-width="1.44" stroke="black" fill="none" r="1.8" cy="2.88" />
     <circle id="connector1pin" cx="17.28" stroke-width="1.44" stroke="black" fill="none" r="1.8" cy="2.88" />
    </g>
   </g>
  </g>
 </g>
 <g partID="854367061">
  <g transform="translate(12.2886,30.4724)">
   <g id="copper1" >
    <circle id="connector0pin" cx="2.88" stroke-width="1.44" stroke="black" fill="none" r="1.8" cy="2.88" />
    <circle id="connector1pin" cx="17.28" stroke-width="1.44" stroke="black" fill="none" r="1.8" cy="2.88" />
   </g>
  </g>
 </g>
 <g partID="854375811">
  <g transform="translate(9.58864,56.5724)">
   <g id="copper1" >
    <circle id="connector0pin" cx="2.88" stroke-width="1.44" stroke="black" fill="none" r="1.8" cy="2.88" />
    <circle id="connector1pin" cx="17.28" stroke-width="1.44" stroke="black" fill="none" r="1.8" cy="2.88" />
   </g>
  </g>
 </g>
 <g partID="854364221">
  <g transform="translate(31.1886,52.0724)">
   <g id="copper1" >
    <circle id="connector0pin" cx="2.88" stroke-width="1.44" stroke="black" fill="none" r="1.8" cy="2.88" />
    <circle id="connector1pin" cx="17.28" stroke-width="1.44" stroke="black" fill="none" r="1.8" cy="2.88" />
   </g>
  </g>
 </g>
 <g partID="854363481">
  <g transform="translate(3.28864,70.0724)">
   <g id="copper1" >
    <circle id="connector0pin" cx="2.88" stroke-width="1.44" stroke="black" fill="none" r="1.8" cy="2.88" />
    <circle id="connector1pin" cx="17.28" stroke-width="1.44" stroke="black" fill="none" r="1.8" cy="2.88" />
   </g>
  </g>
 </g>
 <g partID="854333821">
  <g transform="translate(92.723,6.61534)">
   <g transform="matrix(0.707107,0.707107,-0.707107,0.707107,0,0)">
    <g id="copper1" >
     <g id="copper0" >
      <rect x="1.98" id="rect11" width="3.96" y="5.58" stroke-width="1.44" stroke="black" fill="none"  height="3.96"/>
      <circle id="connector0pin" cx="3.96" stroke-width="1.44" stroke="black" r="1.98" fill="none" cy="7.56" />
      <circle id="connector1pin" cx="11.16" stroke-width="1.44" stroke="black" r="1.98" fill="none" cy="7.56" />
     </g>
    </g>
   </g>
  </g>
 </g>
 <g partID="854334181">
  <g transform="translate(84.8286,0.4124)">
   <g id="copper1" >
    <g id="copper0" >
     <circle id="connector0pin" cx="5.04" stroke-width="1.44" stroke="black" fill="none" r="2.088" cy="5.04" />
    </g>
   </g>
  </g>
 </g>
 <g partID="854335330">
  <g transform="translate(22.7088,54.8742)">
   <g transform="matrix(0,-1,1,0,0,0)">
    <g id="copper1" >
     <rect x="0.566929" id="connector0pad" width="4.53543" y="0.566929" stroke-width="0" stroke="none" fill="black"  height="5.38583" fill-opacity="1"/>
     <rect x="9.35433" id="connector1pad" width="4.53543" y="0.566929" stroke-width="0" stroke="none" fill="black"  height="5.38583" fill-opacity="1"/>
    </g>
   </g>
  </g>
 </g>
 <g partID="854337150">
  <g transform="translate(53.3088,76.4744)">
   <g transform="matrix(0,-1,1,0,0,0)">
    <g id="copper1" >
     <rect x="0.566929" id="connector0pad" width="4.53543" y="0.566929" stroke-width="0" stroke="none" fill="black"  height="5.38583" fill-opacity="1"/>
     <rect x="9.35433" id="connector1pad" width="4.53543" y="0.566929" stroke-width="0" stroke="none" fill="black"  height="5.38583" fill-opacity="1"/>
    </g>
   </g>
  </g>
 </g>
 <g partID="854337730">
  <g transform="translate(52.6288,28.9303)">
   <g transform="matrix(0,1,-1,0,0,0)">
    <g id="copper1" >
     <rect x="0.566929" id="connector0pad" width="4.53543" y="0.566929" stroke-width="0" stroke="none" fill="black"  height="5.38583" fill-opacity="1"/>
     <rect x="9.35433" id="connector1pad" width="4.53543" y="0.566929" stroke-width="0" stroke="none" fill="black"  height="5.38583" fill-opacity="1"/>
    </g>
   </g>
  </g>
 </g>
 <g partID="854427911">
  <g transform="translate(72.451,22.2348)">
   <g id="copper1" >
    <circle id="connector0pin" cx="3.01733" stroke-width="0.850392" stroke="black" fill="none" r="0.992124" cy="3.01733" />
   </g>
  </g>
 </g>
 <g partID="854338010">
  <g transform="translate(17.7907,42.9121)">
   <g transform="matrix(-1,0,0,-1,0,0)">
    <g id="copper1" >
     <rect x="0.566929" id="connector0pad" width="4.53543" y="0.566929" stroke-width="0" stroke="none" fill="black"  height="5.38583" fill-opacity="1"/>
     <rect x="9.35433" id="connector1pad" width="4.53543" y="0.566929" stroke-width="0" stroke="none" fill="black"  height="5.38583" fill-opacity="1"/>
    </g>
   </g>
  </g>
 </g>
 <g partID="854338230">
  <g transform="translate(52.6288,58.6303)">
   <g transform="matrix(0,1,-1,0,0,0)">
    <g id="copper1" >
     <rect x="0.566929" id="connector0pad" width="4.53543" y="0.566929" stroke-width="0" stroke="none" fill="black"  height="5.38583" fill-opacity="1"/>
     <rect x="9.35433" id="connector1pad" width="4.53543" y="0.566929" stroke-width="0" stroke="none" fill="black"  height="5.38583" fill-opacity="1"/>
    </g>
   </g>
  </g>
 </g>
 <g partID="854430551">
  <g transform="translate(52.651,22.2348)">
   <g id="copper1" >
    <circle id="connector0pin" cx="3.01733" stroke-width="0.850392" stroke="black" fill="none" r="0.992124" cy="3.01733" />
   </g>
  </g>
 </g>
 <g partID="854338610">
  <g transform="translate(17.7907,30.3121)">
   <g transform="matrix(-1,0,0,-1,0,0)">
    <g id="copper1" >
     <rect x="0.566929" id="connector0pad" width="4.53543" y="0.566929" stroke-width="0" stroke="none" fill="black"  height="5.38583" fill-opacity="1"/>
     <rect x="9.35433" id="connector1pad" width="4.53543" y="0.566929" stroke-width="0" stroke="none" fill="black"  height="5.38583" fill-opacity="1"/>
    </g>
   </g>
  </g>
 </g>
 <g partID="854436891">
  <g transform="translate(71.551,44.7348)">
   <g id="copper1" >
    <circle id="connector0pin" cx="3.01733" stroke-width="0.850392" stroke="black" fill="none" r="0.992124" cy="3.01733" />
   </g>
  </g>
 </g>
 <g partID="854465901">
  <g transform="translate(92.251,28.5348)">
   <g id="copper1" >
    <circle id="connector0pin" cx="3.01733" stroke-width="0.850392" stroke="black" fill="none" r="0.992124" cy="3.01733" />
   </g>
  </g>
 </g>
 <g partID="854465991">
  <g transform="translate(45.2286,4.0124)">
   <g id="copper1" >
    <g id="copper0" >
     <circle id="connector0pin" cx="5.04" stroke-width="1.44" stroke="black" fill="none" r="2.088" cy="5.04" />
    </g>
   </g>
  </g>
 </g>
 <g partID="854339880">
  <g transform="translate(58.8798,21.9436)">
   <g id="copper1" >
    <rect x="0.4248" id="connector0pad" connectorname="1" width="1.728" y="19.08" stroke-width="0" fill="black"  height="6.2568"/>
    <rect x="4.0248" id="connector1pad" connectorname="2" width="1.728" y="19.08" stroke-width="0" fill="black"  height="6.2568"/>
    <rect x="7.6248" id="connector2pad" connectorname="3" width="1.728" y="19.08" stroke-width="0" fill="black"  height="6.2568"/>
    <rect x="11.2248" id="connector3pad" connectorname="4" width="1.728" y="19.08" stroke-width="0" fill="black"  height="6.2568"/>
    <rect x="11.2248" id="connector4pad" connectorname="5" width="1.728" y="0" stroke-width="0" fill="black"  height="6.2568"/>
    <rect x="7.6248" id="connector5pad" connectorname="6" width="1.728" y="0" stroke-width="0" fill="black"  height="6.2568"/>
    <rect x="4.0248" id="connector6pad" connectorname="7" width="1.728" y="0" stroke-width="0" fill="black"  height="6.2568"/>
    <rect x="0.4248" id="connector7pad" connectorname="8" width="1.728" y="0" stroke-width="0" fill="black"  height="6.2568"/>
   </g>
  </g>
 </g>
 <g partID="854354170">
  <g transform="translate(9.42848,5.5303)">
   <g transform="matrix(0,1,-1,0,0,0)">
    <g id="copper1" >
     <rect x="0.566929" id="connector0pad" width="4.53543" y="0.566929" stroke-width="0" stroke="none" fill="black"  height="5.38583" fill-opacity="1"/>
     <rect x="9.35433" id="connector1pad" width="4.53543" y="0.566929" stroke-width="0" stroke="none" fill="black"  height="5.38583" fill-opacity="1"/>
    </g>
   </g>
  </g>
 </g>
 <g partID="854419550">
  <g transform="translate(2.64656,64.2924)">
   <g id="copper1" >
    <rect x="0.566929" id="connector0pad" width="4.53543" y="0.566929" stroke-width="0" stroke="none" fill="black"  height="5.38583" fill-opacity="1"/>
    <rect x="9.35433" id="connector1pad" width="4.53543" y="0.566929" stroke-width="0" stroke="none" fill="black"  height="5.38583" fill-opacity="1"/>
   </g>
  </g>
 </g>
 <g partID="854428630">
  <g transform="translate(81.691,56.4121)">
   <g transform="matrix(-1,0,0,-1,0,0)">
    <g id="copper1" >
     <rect x="0.566929" id="connector0pad" width="4.53543" y="0.566929" stroke-width="0" stroke="none" fill="black"  height="5.38583" fill-opacity="1"/>
     <rect x="9.35433" id="connector1pad" width="4.53543" y="0.566929" stroke-width="0" stroke="none" fill="black"  height="5.38583" fill-opacity="1"/>
    </g>
   </g>
  </g>
 </g>
 <g partID="854457250">
  <g transform="translate(84.8091,41.3742)">
   <g transform="matrix(0,-1,1,0,0,0)">
    <g id="copper1" >
     <rect x="0.566929" id="connector0pad" width="4.53543" y="0.566929" stroke-width="0" stroke="none" fill="black"  height="5.38583" fill-opacity="1"/>
     <rect x="9.35433" id="connector1pad" width="4.53543" y="0.566929" stroke-width="0" stroke="none" fill="black"  height="5.38583" fill-opacity="1"/>
    </g>
   </g>
  </g>
 </g>
 <g partID="854471790">
  <g transform="translate(53.3088,62.0744)">
   <g transform="matrix(0,-1,1,0,0,0)">
    <g id="copper1" >
     <rect x="0.566929" id="connector0pad" width="4.53543" y="0.566929" stroke-width="0" stroke="none" fill="black"  height="5.38583" fill-opacity="1"/>
     <rect x="9.35433" id="connector1pad" width="4.53543" y="0.566929" stroke-width="0" stroke="none" fill="black"  height="5.38583" fill-opacity="1"/>
    </g>
   </g>
  </g>
 </g>
 <g partID="854369000">
  <line stroke-linecap="round" y2="72.1201" y1="75.9878" stroke-width="3.456" x2="49.1352" stroke="black" x1="48.6517"/>
 </g>
 <g partID="854377140">
  <line stroke-linecap="round" y2="52.8643" y1="54.587" stroke-width="3.456" x2="28.2616" stroke="black" x1="33.0523"/>
 </g>
 <g partID="854463620">
  <line stroke-linecap="round" y2="41.9452" y1="42.3812" stroke-width="3.456" x2="14.3265" stroke="black" x1="14.2067"/>
 </g>
 <g partID="854463360">
  <line stroke-linecap="round" y2="42.381" y1="54.9524" stroke-width="3.456" x2="14.2068" stroke="black" x1="14.302"/>
 </g>
 <g partID="854381030">
  <line stroke-linecap="round" y2="54.9524" y1="58.4522" stroke-width="3.456" x2="14.302" stroke="black" x1="12.8761"/>
 </g>
 <g partID="854381490">
  <line stroke-linecap="round" y2="29.3452" y1="32.273" stroke-width="3.456" x2="15.0334" stroke="black" x1="15.1322"/>
 </g>
 <g partID="854384230">
  <line stroke-linecap="round" y2="8.96128" y1="8.55979" stroke-width="3.456" x2="13.1925" stroke="black" x1="8.46155"/>
 </g>
 <g partID="854387960">
  <line stroke-linecap="round" y2="44.152" y1="44.152" stroke-width="2.304" x2="60.6326" stroke="black" x1="63.3046"/>
 </g>
 <g partID="854417940">
  <line stroke-linecap="round" y2="23.4595" y1="23.486" stroke-width="2.304" x2="32.5925" stroke="black" x1="26.8542"/>
 </g>
 <g partID="854417720">
  <line stroke-linecap="round" y2="23.486" y1="26.9908" stroke-width="2.304" x2="26.8541" stroke="black" x1="22.435"/>
 </g>
 <g partID="854418640">
  <line stroke-linecap="round" y2="34.3046" y1="38.7236" stroke-width="2.304" x2="22.4351" stroke="black" x1="25.9398"/>
 </g>
 <g partID="854418430">
  <line stroke-linecap="round" y2="26.9901" y1="34.3044" stroke-width="2.304" x2="22.435" stroke="black" x1="22.435"/>
 </g>
 <g partID="854417730">
  <line stroke-linecap="round" y2="38.7238" y1="41.3844" stroke-width="2.304" x2="25.9401" stroke="black" x1="25.9569"/>
 </g>
 <g partID="854420870">
  <line stroke-linecap="round" y2="71.881" y1="69.8452" stroke-width="2.304" x2="6.03222" stroke="black" x1="5.77306"/>
 </g>
 <g partID="854459570">
  <line stroke-linecap="round" y2="42.4201" y1="43.2644" stroke-width="2.304" x2="48.7247" stroke="black" x1="48.4334"/>
 </g>
 <g partID="854422390">
  <line stroke-linecap="round" y2="43.2643" y1="46.2764" stroke-width="2.304" x2="48.433" stroke="black" x1="48.4569"/>
 </g>
 <g partID="854423200">
  <line stroke-linecap="round" y2="46.0188" y1="43.2188" stroke-width="2.304" x2="19.6356" stroke="black" x1="21.5022"/>
 </g>
 <g partID="854423010">
  <line stroke-linecap="round" y2="64.8188" y1="46.0188" stroke-width="2.304" x2="19.6353" stroke="black" x1="19.6353"/>
 </g>
 <g partID="854422820">
  <line stroke-linecap="round" y2="67.6188" y1="64.8188" stroke-width="2.304" x2="17.9019" stroke="black" x1="19.6353"/>
 </g>
 <g partID="854422630">
  <line stroke-linecap="round" y2="67.5864" y1="67.6188" stroke-width="2.304" x2="16.1363" stroke="black" x1="17.902"/>
 </g>
 <g partID="854422450">
  <line stroke-linecap="round" y2="43.2191" y1="43.2353" stroke-width="2.304" x2="21.502" stroke="black" x1="23.6758"/>
 </g>
 <g partID="854424470">
  <line stroke-linecap="round" y2="37.3593" y1="29.3452" stroke-width="2.304" x2="6.16864" stroke="black" x1="6.16864"/>
 </g>
 <g partID="854424710">
  <line stroke-linecap="round" y2="19.0201" y1="24.7593" stroke-width="2.304" x2="6.16864" stroke="black" x1="6.16864"/>
 </g>
 <g partID="854425150">
  <line stroke-linecap="round" y2="24.9198" y1="29.8972" stroke-width="2.304" x2="48.6276" stroke="black" x1="49.1667"/>
 </g>
 <g partID="854427620">
  <line stroke-linecap="round" y2="23.4852" y1="23.5524" stroke-width="1.728" x2="35.5443" stroke="black" x1="38.5686"/>
 </g>
 <g partID="854426460">
  <line stroke-linecap="round" y2="23.5523" y1="18.0132" stroke-width="1.728" x2="38.5689" stroke="black" x1="45.8094"/>
 </g>
 <g partID="854459770">
  <line stroke-linecap="round" y2="18.0133" y1="19.8684" stroke-width="1.728" x2="61.948" stroke="black" x1="63.803"/>
 </g>
 <g partID="854459640">
  <line stroke-linecap="round" y2="18.0132" y1="18.0132" stroke-width="1.728" x2="45.8095" stroke="black" x1="61.9486"/>
 </g>
 <g partID="854426470">
  <line stroke-linecap="round" y2="19.8683" y1="22.3436" stroke-width="1.728" x2="63.8034" stroke="black" x1="63.7869"/>
 </g>
 <g partID="854459900">
  <line stroke-linecap="round" y2="17.1787" y1="15.3236" stroke-width="1.728" x2="67.3278" stroke="black" x1="65.5654"/>
 </g>
 <g partID="854449310">
  <line stroke-linecap="round" y2="22.3436" y1="17.1788" stroke-width="1.728" x2="67.3544" stroke="black" x1="67.3278"/>
 </g>
 <g partID="854427130">
  <line stroke-linecap="round" y2="15.3234" y1="15.3524" stroke-width="1.728" x2="65.5658" stroke="black" x1="43.0686"/>
 </g>
 <g partID="854427000">
  <line stroke-linecap="round" y2="15.3524" y1="17.1524" stroke-width="1.728" x2="43.0686" stroke="black" x1="40.3686"/>
 </g>
 <g partID="854426880">
  <line stroke-linecap="round" y2="17.1524" y1="17.1524" stroke-width="1.728" x2="40.3686" stroke="black" x1="8.46155"/>
 </g>
 <g partID="854427940">
  <line stroke-linecap="round" y2="25.091" y1="25.2297" stroke-width="2.304" x2="71.4326" stroke="black" x1="74.9022"/>
 </g>
 <g partID="854434990">
  <line stroke-linecap="round" y2="25.091" y1="25.2297" stroke-width="1.728" x2="59.7046" stroke="black" x1="56.2351"/>
 </g>
 <g partID="854453030">
  <line stroke-linecap="round" y2="47.7477" y1="47.73" stroke-width="1.728" x2="74.0016" stroke="black" x1="71.8806"/>
 </g>
 <g partID="854452340">
  <line stroke-linecap="round" y2="47.7296" y1="46.8324" stroke-width="1.728" x2="71.881" stroke="black" x1="70.9838"/>
 </g>
 <g partID="854436920">
  <line stroke-linecap="round" y2="46.8328" y1="44.152" stroke-width="1.728" x2="70.9836" stroke="black" x1="70.9686"/>
 </g>
 <g partID="854450240">
  <line stroke-linecap="round" y2="27.8004" y1="28.834" stroke-width="2.304" x2="67.3808" stroke="black" x1="67.3854"/>
 </g>
 <g partID="854450130">
  <line stroke-linecap="round" y2="30.6372" y1="30.6372" stroke-width="2.304" x2="69.1882" stroke="black" x1="78.2022"/>
 </g>
 <g partID="854448300">
  <line stroke-linecap="round" y2="28.8344" y1="30.6372" stroke-width="2.304" x2="67.3858" stroke="black" x1="69.1886"/>
 </g>
 <g partID="854440000">
  <line stroke-linecap="round" y2="30.6369" y1="28.6019" stroke-width="2.304" x2="78.2024" stroke="black" x1="80.9058"/>
 </g>
 <g partID="854450880">
  <line stroke-linecap="round" y2="38.7494" y1="39.6508" stroke-width="1.728" x2="80.9064" stroke="black" x1="81.8078"/>
 </g>
 <g partID="854450490">
  <line stroke-linecap="round" y2="27.8004" y1="36.9468" stroke-width="1.728" x2="63.7712" stroke="black" x1="63.7798"/>
 </g>
 <g partID="854448150">
  <line stroke-linecap="round" y2="38.7492" y1="38.7492" stroke-width="1.728" x2="65.5831" stroke="black" x1="80.907"/>
 </g>
 <g partID="854448000">
  <line stroke-linecap="round" y2="36.9464" y1="38.7492" stroke-width="1.728" x2="63.7802" stroke="black" x1="65.583"/>
 </g>
 <g partID="854440570">
  <line stroke-linecap="round" y2="39.651" y1="41.2725" stroke-width="1.728" x2="81.8081" stroke="black" x1="81.7844"/>
 </g>
 <g partID="854453910">
  <line stroke-linecap="round" y2="50.8593" y1="48.6756" stroke-width="1.728" x2="68.701" stroke="black" x1="67.399"/>
 </g>
 <g partID="854450390">
  <line stroke-linecap="round" y2="48.6755" y1="46.8804" stroke-width="1.728" x2="67.3994" stroke="black" x1="67.3872"/>
 </g>
 <g partID="854451630">
  <line stroke-linecap="round" y2="41.4236" y1="34.2855" stroke-width="2.304" x2="60.1687" stroke="black" x1="60.1689"/>
 </g>
 <g partID="854451480">
  <line stroke-linecap="round" y2="34.2855" y1="31.6188" stroke-width="2.304" x2="60.1689" stroke="black" x1="57.5022"/>
 </g>
 <g partID="854451330">
  <line stroke-linecap="round" y2="31.6188" y1="31.7237" stroke-width="2.304" x2="57.5022" stroke="black" x1="51.6619"/>
 </g>
 <g partID="854451880">
  <line stroke-linecap="round" y2="64.9054" y1="63.3327" stroke-width="2.304" x2="51.1489" stroke="black" x1="50.3352"/>
 </g>
 <g partID="854474090">
  <line stroke-linecap="round" y2="64.8748" y1="64.9054" stroke-width="2.304" x2="54.2757" stroke="black" x1="51.1489"/>
 </g>
 <g partID="854453960">
  <line stroke-linecap="round" y2="59.2729" y1="55.4452" stroke-width="2.304" x2="79.0366" stroke="black" x1="78.9235"/>
 </g>
 <g partID="854454720">
  <line stroke-linecap="round" y2="71.8043" y1="69.2982" stroke-width="2.304" x2="58.8616" stroke="black" x1="61.9924"/>
 </g>
 <g partID="854454660">
  <line stroke-linecap="round" y2="69.2982" y1="68.1425" stroke-width="2.304" x2="61.9924" stroke="black" x1="63.7641"/>
 </g>
 <g partID="854468980">
  <line stroke-linecap="round" y2="40.4072" y1="46.0044" stroke-width="1.728" x2="88.0748" stroke="black" x1="88.0942"/>
 </g>
 <g partID="854457830">
  <line stroke-linecap="round" y2="47.782" y1="47.8172" stroke-width="1.728" x2="86.3166" stroke="black" x1="80.7846"/>
 </g>
 <g partID="854457760">
  <line stroke-linecap="round" y2="47.8171" y1="49.5468" stroke-width="1.728" x2="80.7848" stroke="black" x1="79.055"/>
 </g>
 <g partID="854457690">
  <line stroke-linecap="round" y2="46.0042" y1="47.782" stroke-width="1.728" x2="88.0944" stroke="black" x1="86.3166"/>
 </g>
 <g partID="854457630">
  <line stroke-linecap="round" y2="49.547" y1="50.8593" stroke-width="1.728" x2="79.0549" stroke="black" x1="78.9825"/>
 </g>
 <g partID="854459130">
  <line stroke-linecap="round" y2="27.8844" y1="23.4132" stroke-width="2.304" x2="88.3435" stroke="black" x1="89.0022"/>
 </g>
 <g partID="854459000">
  <line stroke-linecap="round" y2="23.4136" y1="21.678" stroke-width="2.304" x2="89.0023" stroke="black" x1="87.1582"/>
 </g>
 <g partID="854458870">
  <line stroke-linecap="round" y2="21.678" y1="21.678" stroke-width="2.304" x2="87.1582" stroke="black" x1="77.287"/>
 </g>
 <g partID="854458740">
  <line stroke-linecap="round" y2="21.6776" y1="23.4132" stroke-width="2.304" x2="77.2871" stroke="black" x1="75.443"/>
 </g>
 <g partID="854458610">
  <line stroke-linecap="round" y2="23.4134" y1="24.6855" stroke-width="2.304" x2="75.4432" stroke="black" x1="75.4608"/>
 </g>
 <g partID="854464500">
  <line stroke-linecap="round" y2="21.6504" y1="21.6956" stroke-width="2.304" x2="77.2567" stroke="black" x1="75.4254"/>
 </g>
 <g partID="854464390">
  <line stroke-linecap="round" y2="17.5123" y1="21.65" stroke-width="2.304" x2="77.2656" stroke="black" x1="77.2566"/>
 </g>
 <g partID="854464290">
  <line stroke-linecap="round" y2="21.6953" y1="24.6855" stroke-width="2.304" x2="75.4258" stroke="black" x1="75.4618"/>
 </g>
 <g partID="854465760">
  <line stroke-linecap="round" y2="30.9855" y1="21.1124" stroke-width="1.728" x2="95.2686" stroke="black" x1="95.2686"/>
 </g>
 <g partID="854467530">
  <line stroke-linecap="round" y2="9.0524" y1="9.0524" stroke-width="2.304" x2="66.8286" stroke="black" x1="76.0086"/>
 </g>
 <g partID="854473320">
  <line stroke-linecap="round" y2="61.1075" y1="62.9847" stroke-width="1.728" x2="56.5686" stroke="black" x1="56.5686"/>
 </g>
</svg>
