G04 MADE WITH FRITZING*
G04 WWW.FRITZING.ORG*
G04 DOUBLE SIDED*
G04 HOLES PLATED*
G04 CONTOUR ON CENTER OF CONTOUR VECTOR*
%ASAXBY*%
%FSLAX23Y23*%
%MOIN*%
%OFA0B0*%
%SFA1.0B1.0*%
%ADD10C,0.075000*%
%ADD11C,0.080000*%
%ADD12C,0.083307*%
%ADD13C,0.082000*%
%ADD14C,0.078000*%
%ADD15C,0.075433*%
%ADD16R,0.080000X0.080000*%
%ADD17R,0.083307X0.083307*%
%ADD18R,0.082000X0.082000*%
%ADD19R,0.075000X0.075000*%
%ADD20C,0.048000*%
%ADD21R,0.001000X0.001000*%
%LNCOPPER1*%
G90*
G70*
G54D10*
X337Y1380D03*
G54D11*
X231Y1286D03*
X231Y1089D03*
X231Y586D03*
X231Y389D03*
G54D12*
X1914Y912D03*
X1914Y715D03*
X1914Y465D03*
X1914Y268D03*
G54D13*
X1539Y1240D03*
X1439Y1240D03*
X1339Y1240D03*
X1089Y1240D03*
X989Y1240D03*
X889Y1240D03*
G54D10*
X2014Y1240D03*
X1814Y1240D03*
X639Y1140D03*
X639Y1240D03*
G54D13*
X389Y865D03*
X289Y865D03*
X189Y865D03*
X389Y165D03*
X289Y165D03*
X189Y165D03*
G54D14*
X564Y165D03*
X664Y165D03*
X764Y165D03*
G54D15*
X664Y490D03*
X664Y690D03*
G54D16*
X231Y1286D03*
X231Y586D03*
G54D17*
X1914Y912D03*
X1914Y465D03*
G54D18*
X1539Y1240D03*
X1089Y1240D03*
G54D19*
X2014Y1240D03*
X639Y1140D03*
G54D18*
X389Y865D03*
X389Y165D03*
G54D20*
X664Y650D02*
X664Y530D01*
G36*
X40Y1450D02*
X40Y1338D01*
X282Y1338D01*
X282Y1292D01*
X1592Y1292D01*
X1592Y1290D01*
X2062Y1290D01*
X2062Y1288D01*
X2064Y1288D01*
X2064Y1190D01*
X2276Y1190D01*
X2276Y1450D01*
X40Y1450D01*
G37*
D02*
G36*
X40Y1338D02*
X40Y1234D01*
X178Y1234D01*
X178Y1336D01*
X180Y1336D01*
X180Y1338D01*
X40Y1338D01*
G37*
D02*
G36*
X282Y1292D02*
X282Y1290D01*
X642Y1290D01*
X642Y1288D01*
X652Y1288D01*
X652Y1286D01*
X658Y1286D01*
X658Y1284D01*
X662Y1284D01*
X662Y1282D01*
X666Y1282D01*
X666Y1280D01*
X668Y1280D01*
X668Y1278D01*
X670Y1278D01*
X670Y1276D01*
X674Y1276D01*
X674Y1274D01*
X676Y1274D01*
X676Y1270D01*
X678Y1270D01*
X678Y1268D01*
X680Y1268D01*
X680Y1264D01*
X682Y1264D01*
X682Y1262D01*
X684Y1262D01*
X684Y1256D01*
X686Y1256D01*
X686Y1250D01*
X688Y1250D01*
X688Y1230D01*
X686Y1230D01*
X686Y1222D01*
X684Y1222D01*
X684Y1218D01*
X682Y1218D01*
X682Y1214D01*
X680Y1214D01*
X680Y1212D01*
X678Y1212D01*
X678Y1190D01*
X688Y1190D01*
X688Y1186D01*
X884Y1186D01*
X884Y1188D01*
X874Y1188D01*
X874Y1190D01*
X868Y1190D01*
X868Y1192D01*
X864Y1192D01*
X864Y1194D01*
X860Y1194D01*
X860Y1196D01*
X858Y1196D01*
X858Y1198D01*
X856Y1198D01*
X856Y1200D01*
X852Y1200D01*
X852Y1202D01*
X850Y1202D01*
X850Y1204D01*
X848Y1204D01*
X848Y1208D01*
X846Y1208D01*
X846Y1210D01*
X844Y1210D01*
X844Y1214D01*
X842Y1214D01*
X842Y1216D01*
X840Y1216D01*
X840Y1222D01*
X838Y1222D01*
X838Y1228D01*
X836Y1228D01*
X836Y1250D01*
X838Y1250D01*
X838Y1258D01*
X840Y1258D01*
X840Y1262D01*
X842Y1262D01*
X842Y1266D01*
X844Y1266D01*
X844Y1270D01*
X846Y1270D01*
X846Y1272D01*
X848Y1272D01*
X848Y1274D01*
X850Y1274D01*
X850Y1276D01*
X852Y1276D01*
X852Y1278D01*
X854Y1278D01*
X854Y1280D01*
X856Y1280D01*
X856Y1282D01*
X858Y1282D01*
X858Y1284D01*
X862Y1284D01*
X862Y1286D01*
X866Y1286D01*
X866Y1288D01*
X870Y1288D01*
X870Y1290D01*
X876Y1290D01*
X876Y1292D01*
X282Y1292D01*
G37*
D02*
G36*
X902Y1292D02*
X902Y1290D01*
X908Y1290D01*
X908Y1288D01*
X912Y1288D01*
X912Y1286D01*
X916Y1286D01*
X916Y1284D01*
X918Y1284D01*
X918Y1282D01*
X922Y1282D01*
X922Y1280D01*
X924Y1280D01*
X924Y1278D01*
X926Y1278D01*
X926Y1276D01*
X928Y1276D01*
X928Y1274D01*
X950Y1274D01*
X950Y1276D01*
X952Y1276D01*
X952Y1278D01*
X954Y1278D01*
X954Y1280D01*
X956Y1280D01*
X956Y1282D01*
X958Y1282D01*
X958Y1284D01*
X962Y1284D01*
X962Y1286D01*
X966Y1286D01*
X966Y1288D01*
X970Y1288D01*
X970Y1290D01*
X976Y1290D01*
X976Y1292D01*
X902Y1292D01*
G37*
D02*
G36*
X1002Y1292D02*
X1002Y1290D01*
X1008Y1290D01*
X1008Y1288D01*
X1012Y1288D01*
X1012Y1286D01*
X1016Y1286D01*
X1016Y1284D01*
X1036Y1284D01*
X1036Y1292D01*
X1002Y1292D01*
G37*
D02*
G36*
X1142Y1292D02*
X1142Y1186D01*
X1334Y1186D01*
X1334Y1188D01*
X1324Y1188D01*
X1324Y1190D01*
X1318Y1190D01*
X1318Y1192D01*
X1314Y1192D01*
X1314Y1194D01*
X1310Y1194D01*
X1310Y1196D01*
X1308Y1196D01*
X1308Y1198D01*
X1306Y1198D01*
X1306Y1200D01*
X1302Y1200D01*
X1302Y1202D01*
X1300Y1202D01*
X1300Y1204D01*
X1298Y1204D01*
X1298Y1208D01*
X1296Y1208D01*
X1296Y1210D01*
X1294Y1210D01*
X1294Y1214D01*
X1292Y1214D01*
X1292Y1216D01*
X1290Y1216D01*
X1290Y1222D01*
X1288Y1222D01*
X1288Y1228D01*
X1286Y1228D01*
X1286Y1250D01*
X1288Y1250D01*
X1288Y1258D01*
X1290Y1258D01*
X1290Y1262D01*
X1292Y1262D01*
X1292Y1266D01*
X1294Y1266D01*
X1294Y1270D01*
X1296Y1270D01*
X1296Y1272D01*
X1298Y1272D01*
X1298Y1274D01*
X1300Y1274D01*
X1300Y1276D01*
X1302Y1276D01*
X1302Y1278D01*
X1304Y1278D01*
X1304Y1280D01*
X1306Y1280D01*
X1306Y1282D01*
X1308Y1282D01*
X1308Y1284D01*
X1312Y1284D01*
X1312Y1286D01*
X1316Y1286D01*
X1316Y1288D01*
X1320Y1288D01*
X1320Y1290D01*
X1326Y1290D01*
X1326Y1292D01*
X1142Y1292D01*
G37*
D02*
G36*
X1352Y1292D02*
X1352Y1290D01*
X1358Y1290D01*
X1358Y1288D01*
X1362Y1288D01*
X1362Y1286D01*
X1366Y1286D01*
X1366Y1284D01*
X1368Y1284D01*
X1368Y1282D01*
X1372Y1282D01*
X1372Y1280D01*
X1374Y1280D01*
X1374Y1278D01*
X1376Y1278D01*
X1376Y1276D01*
X1378Y1276D01*
X1378Y1274D01*
X1400Y1274D01*
X1400Y1276D01*
X1402Y1276D01*
X1402Y1278D01*
X1404Y1278D01*
X1404Y1280D01*
X1406Y1280D01*
X1406Y1282D01*
X1408Y1282D01*
X1408Y1284D01*
X1412Y1284D01*
X1412Y1286D01*
X1416Y1286D01*
X1416Y1288D01*
X1420Y1288D01*
X1420Y1290D01*
X1426Y1290D01*
X1426Y1292D01*
X1352Y1292D01*
G37*
D02*
G36*
X1452Y1292D02*
X1452Y1290D01*
X1458Y1290D01*
X1458Y1288D01*
X1462Y1288D01*
X1462Y1286D01*
X1466Y1286D01*
X1466Y1284D01*
X1486Y1284D01*
X1486Y1292D01*
X1452Y1292D01*
G37*
D02*
G36*
X282Y1290D02*
X282Y1234D01*
X590Y1234D01*
X590Y1252D01*
X592Y1252D01*
X592Y1258D01*
X594Y1258D01*
X594Y1262D01*
X596Y1262D01*
X596Y1266D01*
X598Y1266D01*
X598Y1268D01*
X600Y1268D01*
X600Y1272D01*
X602Y1272D01*
X602Y1274D01*
X604Y1274D01*
X604Y1276D01*
X606Y1276D01*
X606Y1278D01*
X608Y1278D01*
X608Y1280D01*
X612Y1280D01*
X612Y1282D01*
X616Y1282D01*
X616Y1284D01*
X618Y1284D01*
X618Y1286D01*
X624Y1286D01*
X624Y1288D01*
X636Y1288D01*
X636Y1290D01*
X282Y1290D01*
G37*
D02*
G36*
X1592Y1290D02*
X1592Y1190D01*
X1806Y1190D01*
X1806Y1192D01*
X1798Y1192D01*
X1798Y1194D01*
X1792Y1194D01*
X1792Y1196D01*
X1790Y1196D01*
X1790Y1198D01*
X1786Y1198D01*
X1786Y1200D01*
X1784Y1200D01*
X1784Y1202D01*
X1780Y1202D01*
X1780Y1204D01*
X1778Y1204D01*
X1778Y1206D01*
X1776Y1206D01*
X1776Y1210D01*
X1774Y1210D01*
X1774Y1212D01*
X1772Y1212D01*
X1772Y1216D01*
X1770Y1216D01*
X1770Y1218D01*
X1768Y1218D01*
X1768Y1224D01*
X1766Y1224D01*
X1766Y1232D01*
X1764Y1232D01*
X1764Y1248D01*
X1766Y1248D01*
X1766Y1256D01*
X1768Y1256D01*
X1768Y1260D01*
X1770Y1260D01*
X1770Y1264D01*
X1772Y1264D01*
X1772Y1268D01*
X1774Y1268D01*
X1774Y1270D01*
X1776Y1270D01*
X1776Y1272D01*
X1778Y1272D01*
X1778Y1274D01*
X1780Y1274D01*
X1780Y1276D01*
X1782Y1276D01*
X1782Y1278D01*
X1784Y1278D01*
X1784Y1280D01*
X1786Y1280D01*
X1786Y1282D01*
X1790Y1282D01*
X1790Y1284D01*
X1794Y1284D01*
X1794Y1286D01*
X1800Y1286D01*
X1800Y1288D01*
X1810Y1288D01*
X1810Y1290D01*
X1592Y1290D01*
G37*
D02*
G36*
X1818Y1290D02*
X1818Y1288D01*
X1828Y1288D01*
X1828Y1286D01*
X1834Y1286D01*
X1834Y1284D01*
X1838Y1284D01*
X1838Y1282D01*
X1840Y1282D01*
X1840Y1280D01*
X1844Y1280D01*
X1844Y1278D01*
X1846Y1278D01*
X1846Y1276D01*
X1848Y1276D01*
X1848Y1274D01*
X1850Y1274D01*
X1850Y1272D01*
X1852Y1272D01*
X1852Y1270D01*
X1854Y1270D01*
X1854Y1266D01*
X1856Y1266D01*
X1856Y1264D01*
X1858Y1264D01*
X1858Y1260D01*
X1860Y1260D01*
X1860Y1254D01*
X1862Y1254D01*
X1862Y1242D01*
X1864Y1242D01*
X1864Y1236D01*
X1862Y1236D01*
X1862Y1226D01*
X1860Y1226D01*
X1860Y1220D01*
X1858Y1220D01*
X1858Y1216D01*
X1856Y1216D01*
X1856Y1212D01*
X1854Y1212D01*
X1854Y1210D01*
X1852Y1210D01*
X1852Y1208D01*
X1850Y1208D01*
X1850Y1206D01*
X1848Y1206D01*
X1848Y1204D01*
X1846Y1204D01*
X1846Y1202D01*
X1844Y1202D01*
X1844Y1200D01*
X1842Y1200D01*
X1842Y1198D01*
X1838Y1198D01*
X1838Y1196D01*
X1834Y1196D01*
X1834Y1194D01*
X1830Y1194D01*
X1830Y1192D01*
X1822Y1192D01*
X1822Y1190D01*
X1964Y1190D01*
X1964Y1290D01*
X1818Y1290D01*
G37*
D02*
G36*
X40Y1234D02*
X40Y1232D01*
X590Y1232D01*
X590Y1234D01*
X40Y1234D01*
G37*
D02*
G36*
X40Y1234D02*
X40Y1232D01*
X590Y1232D01*
X590Y1234D01*
X40Y1234D01*
G37*
D02*
G36*
X40Y1232D02*
X40Y1140D01*
X242Y1140D01*
X242Y1138D01*
X248Y1138D01*
X248Y1136D01*
X254Y1136D01*
X254Y1134D01*
X256Y1134D01*
X256Y1132D01*
X260Y1132D01*
X260Y1130D01*
X262Y1130D01*
X262Y1128D01*
X266Y1128D01*
X266Y1126D01*
X268Y1126D01*
X268Y1124D01*
X270Y1124D01*
X270Y1120D01*
X272Y1120D01*
X272Y1118D01*
X274Y1118D01*
X274Y1116D01*
X276Y1116D01*
X276Y1112D01*
X278Y1112D01*
X278Y1108D01*
X280Y1108D01*
X280Y1100D01*
X282Y1100D01*
X282Y1090D01*
X590Y1090D01*
X590Y1190D01*
X600Y1190D01*
X600Y1210D01*
X598Y1210D01*
X598Y1214D01*
X596Y1214D01*
X596Y1216D01*
X594Y1216D01*
X594Y1220D01*
X592Y1220D01*
X592Y1228D01*
X590Y1228D01*
X590Y1232D01*
X40Y1232D01*
G37*
D02*
G36*
X928Y1206D02*
X928Y1204D01*
X926Y1204D01*
X926Y1202D01*
X924Y1202D01*
X924Y1200D01*
X922Y1200D01*
X922Y1198D01*
X920Y1198D01*
X920Y1196D01*
X916Y1196D01*
X916Y1194D01*
X914Y1194D01*
X914Y1192D01*
X910Y1192D01*
X910Y1190D01*
X904Y1190D01*
X904Y1188D01*
X894Y1188D01*
X894Y1186D01*
X984Y1186D01*
X984Y1188D01*
X974Y1188D01*
X974Y1190D01*
X968Y1190D01*
X968Y1192D01*
X964Y1192D01*
X964Y1194D01*
X960Y1194D01*
X960Y1196D01*
X958Y1196D01*
X958Y1198D01*
X956Y1198D01*
X956Y1200D01*
X952Y1200D01*
X952Y1202D01*
X950Y1202D01*
X950Y1204D01*
X948Y1204D01*
X948Y1206D01*
X928Y1206D01*
G37*
D02*
G36*
X1378Y1206D02*
X1378Y1204D01*
X1376Y1204D01*
X1376Y1202D01*
X1374Y1202D01*
X1374Y1200D01*
X1372Y1200D01*
X1372Y1198D01*
X1370Y1198D01*
X1370Y1196D01*
X1366Y1196D01*
X1366Y1194D01*
X1364Y1194D01*
X1364Y1192D01*
X1360Y1192D01*
X1360Y1190D01*
X1354Y1190D01*
X1354Y1188D01*
X1344Y1188D01*
X1344Y1186D01*
X1434Y1186D01*
X1434Y1188D01*
X1424Y1188D01*
X1424Y1190D01*
X1418Y1190D01*
X1418Y1192D01*
X1414Y1192D01*
X1414Y1194D01*
X1410Y1194D01*
X1410Y1196D01*
X1408Y1196D01*
X1408Y1198D01*
X1406Y1198D01*
X1406Y1200D01*
X1402Y1200D01*
X1402Y1202D01*
X1400Y1202D01*
X1400Y1204D01*
X1398Y1204D01*
X1398Y1206D01*
X1378Y1206D01*
G37*
D02*
G36*
X1016Y1196D02*
X1016Y1194D01*
X1014Y1194D01*
X1014Y1192D01*
X1010Y1192D01*
X1010Y1190D01*
X1004Y1190D01*
X1004Y1188D01*
X994Y1188D01*
X994Y1186D01*
X1036Y1186D01*
X1036Y1196D01*
X1016Y1196D01*
G37*
D02*
G36*
X1466Y1196D02*
X1466Y1194D01*
X1464Y1194D01*
X1464Y1192D01*
X1460Y1192D01*
X1460Y1190D01*
X1454Y1190D01*
X1454Y1188D01*
X1444Y1188D01*
X1444Y1186D01*
X1486Y1186D01*
X1486Y1196D01*
X1466Y1196D01*
G37*
D02*
G36*
X1592Y1190D02*
X1592Y1188D01*
X2276Y1188D01*
X2276Y1190D01*
X1592Y1190D01*
G37*
D02*
G36*
X1592Y1190D02*
X1592Y1188D01*
X2276Y1188D01*
X2276Y1190D01*
X1592Y1190D01*
G37*
D02*
G36*
X1592Y1190D02*
X1592Y1188D01*
X2276Y1188D01*
X2276Y1190D01*
X1592Y1190D01*
G37*
D02*
G36*
X1592Y1188D02*
X1592Y1186D01*
X2276Y1186D01*
X2276Y1188D01*
X1592Y1188D01*
G37*
D02*
G36*
X688Y1186D02*
X688Y1184D01*
X2276Y1184D01*
X2276Y1186D01*
X688Y1186D01*
G37*
D02*
G36*
X688Y1186D02*
X688Y1184D01*
X2276Y1184D01*
X2276Y1186D01*
X688Y1186D01*
G37*
D02*
G36*
X688Y1186D02*
X688Y1184D01*
X2276Y1184D01*
X2276Y1186D01*
X688Y1186D01*
G37*
D02*
G36*
X688Y1186D02*
X688Y1184D01*
X2276Y1184D01*
X2276Y1186D01*
X688Y1186D01*
G37*
D02*
G36*
X688Y1186D02*
X688Y1184D01*
X2276Y1184D01*
X2276Y1186D01*
X688Y1186D01*
G37*
D02*
G36*
X688Y1186D02*
X688Y1184D01*
X2276Y1184D01*
X2276Y1186D01*
X688Y1186D01*
G37*
D02*
G36*
X688Y1186D02*
X688Y1184D01*
X2276Y1184D01*
X2276Y1186D01*
X688Y1186D01*
G37*
D02*
G36*
X688Y1184D02*
X688Y1090D01*
X2276Y1090D01*
X2276Y1184D01*
X688Y1184D01*
G37*
D02*
G36*
X40Y1140D02*
X40Y1036D01*
X224Y1036D01*
X224Y1038D01*
X214Y1038D01*
X214Y1040D01*
X210Y1040D01*
X210Y1042D01*
X206Y1042D01*
X206Y1044D01*
X202Y1044D01*
X202Y1046D01*
X200Y1046D01*
X200Y1048D01*
X198Y1048D01*
X198Y1050D01*
X194Y1050D01*
X194Y1052D01*
X192Y1052D01*
X192Y1056D01*
X190Y1056D01*
X190Y1058D01*
X188Y1058D01*
X188Y1060D01*
X186Y1060D01*
X186Y1064D01*
X184Y1064D01*
X184Y1068D01*
X182Y1068D01*
X182Y1074D01*
X180Y1074D01*
X180Y1084D01*
X178Y1084D01*
X178Y1094D01*
X180Y1094D01*
X180Y1104D01*
X182Y1104D01*
X182Y1108D01*
X184Y1108D01*
X184Y1112D01*
X186Y1112D01*
X186Y1116D01*
X188Y1116D01*
X188Y1120D01*
X190Y1120D01*
X190Y1122D01*
X192Y1122D01*
X192Y1124D01*
X194Y1124D01*
X194Y1126D01*
X196Y1126D01*
X196Y1128D01*
X198Y1128D01*
X198Y1130D01*
X202Y1130D01*
X202Y1132D01*
X204Y1132D01*
X204Y1134D01*
X208Y1134D01*
X208Y1136D01*
X212Y1136D01*
X212Y1138D01*
X220Y1138D01*
X220Y1140D01*
X40Y1140D01*
G37*
D02*
G36*
X282Y1090D02*
X282Y1088D01*
X2276Y1088D01*
X2276Y1090D01*
X282Y1090D01*
G37*
D02*
G36*
X282Y1090D02*
X282Y1088D01*
X2276Y1088D01*
X2276Y1090D01*
X282Y1090D01*
G37*
D02*
G36*
X282Y1088D02*
X282Y1076D01*
X280Y1076D01*
X280Y1070D01*
X278Y1070D01*
X278Y1066D01*
X276Y1066D01*
X276Y1062D01*
X274Y1062D01*
X274Y1058D01*
X272Y1058D01*
X272Y1056D01*
X270Y1056D01*
X270Y1054D01*
X268Y1054D01*
X268Y1052D01*
X266Y1052D01*
X266Y1050D01*
X264Y1050D01*
X264Y1048D01*
X262Y1048D01*
X262Y1046D01*
X260Y1046D01*
X260Y1044D01*
X256Y1044D01*
X256Y1042D01*
X252Y1042D01*
X252Y1040D01*
X246Y1040D01*
X246Y1038D01*
X238Y1038D01*
X238Y1036D01*
X2276Y1036D01*
X2276Y1088D01*
X282Y1088D01*
G37*
D02*
G36*
X40Y1036D02*
X40Y1034D01*
X2276Y1034D01*
X2276Y1036D01*
X40Y1036D01*
G37*
D02*
G36*
X40Y1036D02*
X40Y1034D01*
X2276Y1034D01*
X2276Y1036D01*
X40Y1036D01*
G37*
D02*
G36*
X40Y1034D02*
X40Y966D01*
X1966Y966D01*
X1966Y964D01*
X1968Y964D01*
X1968Y858D01*
X2276Y858D01*
X2276Y1034D01*
X40Y1034D01*
G37*
D02*
G36*
X40Y966D02*
X40Y918D01*
X442Y918D01*
X442Y858D01*
X1860Y858D01*
X1860Y966D01*
X40Y966D01*
G37*
D02*
G36*
X40Y918D02*
X40Y812D01*
X178Y812D01*
X178Y814D01*
X170Y814D01*
X170Y816D01*
X166Y816D01*
X166Y818D01*
X162Y818D01*
X162Y820D01*
X158Y820D01*
X158Y822D01*
X156Y822D01*
X156Y824D01*
X154Y824D01*
X154Y826D01*
X152Y826D01*
X152Y828D01*
X150Y828D01*
X150Y830D01*
X148Y830D01*
X148Y832D01*
X146Y832D01*
X146Y834D01*
X144Y834D01*
X144Y838D01*
X142Y838D01*
X142Y842D01*
X140Y842D01*
X140Y846D01*
X138Y846D01*
X138Y854D01*
X136Y854D01*
X136Y876D01*
X138Y876D01*
X138Y882D01*
X140Y882D01*
X140Y888D01*
X142Y888D01*
X142Y892D01*
X144Y892D01*
X144Y894D01*
X146Y894D01*
X146Y898D01*
X148Y898D01*
X148Y900D01*
X150Y900D01*
X150Y902D01*
X152Y902D01*
X152Y904D01*
X154Y904D01*
X154Y906D01*
X158Y906D01*
X158Y908D01*
X160Y908D01*
X160Y910D01*
X164Y910D01*
X164Y912D01*
X168Y912D01*
X168Y914D01*
X172Y914D01*
X172Y916D01*
X180Y916D01*
X180Y918D01*
X40Y918D01*
G37*
D02*
G36*
X196Y918D02*
X196Y916D01*
X206Y916D01*
X206Y914D01*
X210Y914D01*
X210Y912D01*
X214Y912D01*
X214Y910D01*
X218Y910D01*
X218Y908D01*
X220Y908D01*
X220Y906D01*
X222Y906D01*
X222Y904D01*
X226Y904D01*
X226Y902D01*
X228Y902D01*
X228Y898D01*
X248Y898D01*
X248Y900D01*
X250Y900D01*
X250Y902D01*
X252Y902D01*
X252Y904D01*
X254Y904D01*
X254Y906D01*
X258Y906D01*
X258Y908D01*
X260Y908D01*
X260Y910D01*
X264Y910D01*
X264Y912D01*
X268Y912D01*
X268Y914D01*
X272Y914D01*
X272Y916D01*
X280Y916D01*
X280Y918D01*
X196Y918D01*
G37*
D02*
G36*
X296Y918D02*
X296Y916D01*
X306Y916D01*
X306Y914D01*
X310Y914D01*
X310Y912D01*
X314Y912D01*
X314Y910D01*
X336Y910D01*
X336Y918D01*
X296Y918D01*
G37*
D02*
G36*
X442Y858D02*
X442Y856D01*
X2276Y856D01*
X2276Y858D01*
X442Y858D01*
G37*
D02*
G36*
X442Y858D02*
X442Y856D01*
X2276Y856D01*
X2276Y858D01*
X442Y858D01*
G37*
D02*
G36*
X442Y856D02*
X442Y812D01*
X2276Y812D01*
X2276Y856D01*
X442Y856D01*
G37*
D02*
G36*
X228Y830D02*
X228Y828D01*
X226Y828D01*
X226Y826D01*
X224Y826D01*
X224Y824D01*
X220Y824D01*
X220Y822D01*
X218Y822D01*
X218Y820D01*
X214Y820D01*
X214Y818D01*
X212Y818D01*
X212Y816D01*
X206Y816D01*
X206Y814D01*
X200Y814D01*
X200Y812D01*
X278Y812D01*
X278Y814D01*
X270Y814D01*
X270Y816D01*
X266Y816D01*
X266Y818D01*
X262Y818D01*
X262Y820D01*
X258Y820D01*
X258Y822D01*
X256Y822D01*
X256Y824D01*
X254Y824D01*
X254Y826D01*
X252Y826D01*
X252Y828D01*
X250Y828D01*
X250Y830D01*
X228Y830D01*
G37*
D02*
G36*
X314Y820D02*
X314Y818D01*
X312Y818D01*
X312Y816D01*
X306Y816D01*
X306Y814D01*
X300Y814D01*
X300Y812D01*
X336Y812D01*
X336Y820D01*
X314Y820D01*
G37*
D02*
G36*
X40Y812D02*
X40Y810D01*
X2276Y810D01*
X2276Y812D01*
X40Y812D01*
G37*
D02*
G36*
X40Y812D02*
X40Y810D01*
X2276Y810D01*
X2276Y812D01*
X40Y812D01*
G37*
D02*
G36*
X40Y812D02*
X40Y810D01*
X2276Y810D01*
X2276Y812D01*
X40Y812D01*
G37*
D02*
G36*
X40Y812D02*
X40Y810D01*
X2276Y810D01*
X2276Y812D01*
X40Y812D01*
G37*
D02*
G36*
X40Y810D02*
X40Y768D01*
X1926Y768D01*
X1926Y766D01*
X1932Y766D01*
X1932Y764D01*
X1936Y764D01*
X1936Y762D01*
X1940Y762D01*
X1940Y760D01*
X1944Y760D01*
X1944Y758D01*
X1946Y758D01*
X1946Y756D01*
X1948Y756D01*
X1948Y754D01*
X1952Y754D01*
X1952Y750D01*
X1954Y750D01*
X1954Y748D01*
X1956Y748D01*
X1956Y746D01*
X1958Y746D01*
X1958Y742D01*
X1960Y742D01*
X1960Y740D01*
X1962Y740D01*
X1962Y736D01*
X1964Y736D01*
X1964Y730D01*
X1966Y730D01*
X1966Y720D01*
X1968Y720D01*
X1968Y710D01*
X1966Y710D01*
X1966Y700D01*
X1964Y700D01*
X1964Y694D01*
X1962Y694D01*
X1962Y690D01*
X1960Y690D01*
X1960Y686D01*
X1958Y686D01*
X1958Y684D01*
X1956Y684D01*
X1956Y680D01*
X1954Y680D01*
X1954Y678D01*
X1952Y678D01*
X1952Y676D01*
X1950Y676D01*
X1950Y674D01*
X1946Y674D01*
X1946Y672D01*
X1944Y672D01*
X1944Y670D01*
X1942Y670D01*
X1942Y668D01*
X1938Y668D01*
X1938Y666D01*
X1934Y666D01*
X1934Y664D01*
X1928Y664D01*
X1928Y662D01*
X2276Y662D01*
X2276Y810D01*
X40Y810D01*
G37*
D02*
G36*
X40Y768D02*
X40Y740D01*
X670Y740D01*
X670Y738D01*
X678Y738D01*
X678Y736D01*
X684Y736D01*
X684Y734D01*
X688Y734D01*
X688Y732D01*
X692Y732D01*
X692Y730D01*
X694Y730D01*
X694Y728D01*
X696Y728D01*
X696Y726D01*
X698Y726D01*
X698Y724D01*
X700Y724D01*
X700Y722D01*
X702Y722D01*
X702Y720D01*
X704Y720D01*
X704Y718D01*
X706Y718D01*
X706Y714D01*
X708Y714D01*
X708Y710D01*
X710Y710D01*
X710Y704D01*
X712Y704D01*
X712Y696D01*
X714Y696D01*
X714Y684D01*
X712Y684D01*
X712Y676D01*
X710Y676D01*
X710Y670D01*
X708Y670D01*
X708Y666D01*
X706Y666D01*
X706Y662D01*
X1900Y662D01*
X1900Y664D01*
X1894Y664D01*
X1894Y666D01*
X1890Y666D01*
X1890Y668D01*
X1886Y668D01*
X1886Y670D01*
X1882Y670D01*
X1882Y672D01*
X1880Y672D01*
X1880Y674D01*
X1878Y674D01*
X1878Y676D01*
X1876Y676D01*
X1876Y678D01*
X1874Y678D01*
X1874Y680D01*
X1872Y680D01*
X1872Y682D01*
X1870Y682D01*
X1870Y686D01*
X1868Y686D01*
X1868Y688D01*
X1866Y688D01*
X1866Y692D01*
X1864Y692D01*
X1864Y698D01*
X1862Y698D01*
X1862Y706D01*
X1860Y706D01*
X1860Y724D01*
X1862Y724D01*
X1862Y732D01*
X1864Y732D01*
X1864Y736D01*
X1866Y736D01*
X1866Y740D01*
X1868Y740D01*
X1868Y744D01*
X1870Y744D01*
X1870Y746D01*
X1872Y746D01*
X1872Y750D01*
X1874Y750D01*
X1874Y752D01*
X1876Y752D01*
X1876Y754D01*
X1878Y754D01*
X1878Y756D01*
X1882Y756D01*
X1882Y758D01*
X1884Y758D01*
X1884Y760D01*
X1888Y760D01*
X1888Y762D01*
X1890Y762D01*
X1890Y764D01*
X1896Y764D01*
X1896Y766D01*
X1902Y766D01*
X1902Y768D01*
X40Y768D01*
G37*
D02*
G36*
X40Y740D02*
X40Y638D01*
X282Y638D01*
X282Y534D01*
X628Y534D01*
X628Y656D01*
X626Y656D01*
X626Y658D01*
X624Y658D01*
X624Y662D01*
X622Y662D01*
X622Y664D01*
X620Y664D01*
X620Y668D01*
X618Y668D01*
X618Y674D01*
X616Y674D01*
X616Y680D01*
X614Y680D01*
X614Y700D01*
X616Y700D01*
X616Y706D01*
X618Y706D01*
X618Y712D01*
X620Y712D01*
X620Y714D01*
X622Y714D01*
X622Y718D01*
X624Y718D01*
X624Y720D01*
X626Y720D01*
X626Y722D01*
X628Y722D01*
X628Y726D01*
X632Y726D01*
X632Y728D01*
X634Y728D01*
X634Y730D01*
X636Y730D01*
X636Y732D01*
X640Y732D01*
X640Y734D01*
X644Y734D01*
X644Y736D01*
X650Y736D01*
X650Y738D01*
X658Y738D01*
X658Y740D01*
X40Y740D01*
G37*
D02*
G36*
X704Y662D02*
X704Y660D01*
X2276Y660D01*
X2276Y662D01*
X704Y662D01*
G37*
D02*
G36*
X704Y662D02*
X704Y660D01*
X2276Y660D01*
X2276Y662D01*
X704Y662D01*
G37*
D02*
G36*
X702Y660D02*
X702Y658D01*
X700Y658D01*
X700Y522D01*
X702Y522D01*
X702Y520D01*
X704Y520D01*
X704Y518D01*
X1968Y518D01*
X1968Y412D01*
X2276Y412D01*
X2276Y660D01*
X702Y660D01*
G37*
D02*
G36*
X40Y638D02*
X40Y534D01*
X178Y534D01*
X178Y636D01*
X180Y636D01*
X180Y638D01*
X40Y638D01*
G37*
D02*
G36*
X40Y534D02*
X40Y532D01*
X628Y532D01*
X628Y534D01*
X40Y534D01*
G37*
D02*
G36*
X40Y534D02*
X40Y532D01*
X628Y532D01*
X628Y534D01*
X40Y534D01*
G37*
D02*
G36*
X40Y532D02*
X40Y336D01*
X224Y336D01*
X224Y338D01*
X214Y338D01*
X214Y340D01*
X210Y340D01*
X210Y342D01*
X206Y342D01*
X206Y344D01*
X202Y344D01*
X202Y346D01*
X200Y346D01*
X200Y348D01*
X198Y348D01*
X198Y350D01*
X194Y350D01*
X194Y352D01*
X192Y352D01*
X192Y356D01*
X190Y356D01*
X190Y358D01*
X188Y358D01*
X188Y360D01*
X186Y360D01*
X186Y364D01*
X184Y364D01*
X184Y368D01*
X182Y368D01*
X182Y374D01*
X180Y374D01*
X180Y384D01*
X178Y384D01*
X178Y394D01*
X180Y394D01*
X180Y404D01*
X182Y404D01*
X182Y410D01*
X184Y410D01*
X184Y412D01*
X186Y412D01*
X186Y416D01*
X188Y416D01*
X188Y420D01*
X190Y420D01*
X190Y422D01*
X192Y422D01*
X192Y424D01*
X194Y424D01*
X194Y426D01*
X196Y426D01*
X196Y428D01*
X198Y428D01*
X198Y430D01*
X202Y430D01*
X202Y432D01*
X204Y432D01*
X204Y434D01*
X208Y434D01*
X208Y436D01*
X212Y436D01*
X212Y438D01*
X220Y438D01*
X220Y440D01*
X654Y440D01*
X654Y442D01*
X648Y442D01*
X648Y444D01*
X642Y444D01*
X642Y446D01*
X638Y446D01*
X638Y448D01*
X636Y448D01*
X636Y450D01*
X632Y450D01*
X632Y452D01*
X630Y452D01*
X630Y454D01*
X628Y454D01*
X628Y456D01*
X626Y456D01*
X626Y458D01*
X624Y458D01*
X624Y462D01*
X622Y462D01*
X622Y464D01*
X620Y464D01*
X620Y468D01*
X618Y468D01*
X618Y474D01*
X616Y474D01*
X616Y480D01*
X614Y480D01*
X614Y500D01*
X616Y500D01*
X616Y506D01*
X618Y506D01*
X618Y512D01*
X620Y512D01*
X620Y514D01*
X622Y514D01*
X622Y518D01*
X624Y518D01*
X624Y520D01*
X626Y520D01*
X626Y522D01*
X628Y522D01*
X628Y532D01*
X40Y532D01*
G37*
D02*
G36*
X706Y518D02*
X706Y514D01*
X708Y514D01*
X708Y510D01*
X710Y510D01*
X710Y504D01*
X712Y504D01*
X712Y496D01*
X714Y496D01*
X714Y484D01*
X712Y484D01*
X712Y476D01*
X710Y476D01*
X710Y470D01*
X708Y470D01*
X708Y466D01*
X706Y466D01*
X706Y462D01*
X704Y462D01*
X704Y460D01*
X702Y460D01*
X702Y458D01*
X700Y458D01*
X700Y454D01*
X696Y454D01*
X696Y452D01*
X694Y452D01*
X694Y450D01*
X692Y450D01*
X692Y448D01*
X688Y448D01*
X688Y446D01*
X684Y446D01*
X684Y444D01*
X680Y444D01*
X680Y442D01*
X672Y442D01*
X672Y440D01*
X1860Y440D01*
X1860Y518D01*
X706Y518D01*
G37*
D02*
G36*
X242Y440D02*
X242Y438D01*
X1860Y438D01*
X1860Y440D01*
X242Y440D01*
G37*
D02*
G36*
X242Y440D02*
X242Y438D01*
X1860Y438D01*
X1860Y440D01*
X242Y440D01*
G37*
D02*
G36*
X248Y438D02*
X248Y436D01*
X254Y436D01*
X254Y434D01*
X256Y434D01*
X256Y432D01*
X260Y432D01*
X260Y430D01*
X262Y430D01*
X262Y428D01*
X266Y428D01*
X266Y426D01*
X268Y426D01*
X268Y424D01*
X270Y424D01*
X270Y420D01*
X272Y420D01*
X272Y418D01*
X274Y418D01*
X274Y416D01*
X276Y416D01*
X276Y414D01*
X1512Y414D01*
X1512Y412D01*
X1654Y412D01*
X1654Y410D01*
X1674Y410D01*
X1674Y412D01*
X1860Y412D01*
X1860Y438D01*
X248Y438D01*
G37*
D02*
G36*
X276Y414D02*
X276Y412D01*
X1338Y412D01*
X1338Y410D01*
X1340Y410D01*
X1340Y408D01*
X1344Y408D01*
X1344Y404D01*
X1346Y404D01*
X1346Y402D01*
X1348Y402D01*
X1348Y398D01*
X1350Y398D01*
X1350Y394D01*
X1352Y394D01*
X1352Y390D01*
X1354Y390D01*
X1354Y384D01*
X1356Y384D01*
X1356Y368D01*
X1354Y368D01*
X1354Y364D01*
X1352Y364D01*
X1352Y360D01*
X1350Y360D01*
X1350Y356D01*
X1348Y356D01*
X1348Y350D01*
X1346Y350D01*
X1346Y348D01*
X1344Y348D01*
X1344Y346D01*
X1342Y346D01*
X1342Y344D01*
X1340Y344D01*
X1340Y342D01*
X1334Y342D01*
X1334Y340D01*
X1420Y340D01*
X1420Y342D01*
X1416Y342D01*
X1416Y344D01*
X1412Y344D01*
X1412Y346D01*
X1410Y346D01*
X1410Y350D01*
X1408Y350D01*
X1408Y356D01*
X1406Y356D01*
X1406Y360D01*
X1408Y360D01*
X1408Y364D01*
X1410Y364D01*
X1410Y388D01*
X1408Y388D01*
X1408Y394D01*
X1406Y394D01*
X1406Y398D01*
X1408Y398D01*
X1408Y404D01*
X1410Y404D01*
X1410Y408D01*
X1412Y408D01*
X1412Y410D01*
X1416Y410D01*
X1416Y412D01*
X1508Y412D01*
X1508Y414D01*
X276Y414D01*
G37*
D02*
G36*
X278Y412D02*
X278Y408D01*
X280Y408D01*
X280Y400D01*
X282Y400D01*
X282Y376D01*
X280Y376D01*
X280Y370D01*
X278Y370D01*
X278Y366D01*
X276Y366D01*
X276Y362D01*
X274Y362D01*
X274Y358D01*
X272Y358D01*
X272Y356D01*
X270Y356D01*
X270Y354D01*
X268Y354D01*
X268Y352D01*
X266Y352D01*
X266Y350D01*
X264Y350D01*
X264Y348D01*
X262Y348D01*
X262Y346D01*
X260Y346D01*
X260Y344D01*
X256Y344D01*
X256Y342D01*
X252Y342D01*
X252Y340D01*
X760Y340D01*
X760Y342D01*
X758Y342D01*
X758Y344D01*
X756Y344D01*
X756Y346D01*
X754Y346D01*
X754Y350D01*
X752Y350D01*
X752Y354D01*
X750Y354D01*
X750Y360D01*
X748Y360D01*
X748Y366D01*
X746Y366D01*
X746Y370D01*
X744Y370D01*
X744Y376D01*
X742Y376D01*
X742Y380D01*
X740Y380D01*
X740Y386D01*
X738Y386D01*
X738Y402D01*
X740Y402D01*
X740Y408D01*
X742Y408D01*
X742Y410D01*
X744Y410D01*
X744Y412D01*
X278Y412D01*
G37*
D02*
G36*
X786Y412D02*
X786Y410D01*
X788Y410D01*
X788Y408D01*
X790Y408D01*
X790Y402D01*
X792Y402D01*
X792Y388D01*
X842Y388D01*
X842Y412D01*
X786Y412D01*
G37*
D02*
G36*
X940Y412D02*
X940Y410D01*
X942Y410D01*
X942Y408D01*
X962Y408D01*
X962Y410D01*
X966Y410D01*
X966Y412D01*
X940Y412D01*
G37*
D02*
G36*
X1038Y412D02*
X1038Y410D01*
X1042Y410D01*
X1042Y408D01*
X1044Y408D01*
X1044Y404D01*
X1046Y404D01*
X1046Y402D01*
X1048Y402D01*
X1048Y390D01*
X1046Y390D01*
X1046Y386D01*
X1044Y386D01*
X1044Y366D01*
X1046Y366D01*
X1046Y362D01*
X1048Y362D01*
X1048Y350D01*
X1046Y350D01*
X1046Y348D01*
X1044Y348D01*
X1044Y344D01*
X1040Y344D01*
X1040Y342D01*
X1036Y342D01*
X1036Y340D01*
X1106Y340D01*
X1106Y342D01*
X1104Y342D01*
X1104Y344D01*
X1102Y344D01*
X1102Y346D01*
X1100Y346D01*
X1100Y350D01*
X1098Y350D01*
X1098Y356D01*
X1100Y356D01*
X1100Y360D01*
X1102Y360D01*
X1102Y364D01*
X1104Y364D01*
X1104Y366D01*
X1106Y366D01*
X1106Y370D01*
X1108Y370D01*
X1108Y374D01*
X1110Y374D01*
X1110Y378D01*
X1112Y378D01*
X1112Y380D01*
X1114Y380D01*
X1114Y384D01*
X1116Y384D01*
X1116Y388D01*
X1118Y388D01*
X1118Y390D01*
X1120Y390D01*
X1120Y394D01*
X1122Y394D01*
X1122Y398D01*
X1124Y398D01*
X1124Y402D01*
X1126Y402D01*
X1126Y404D01*
X1128Y404D01*
X1128Y408D01*
X1130Y408D01*
X1130Y410D01*
X1132Y410D01*
X1132Y412D01*
X1038Y412D01*
G37*
D02*
G36*
X1144Y412D02*
X1144Y410D01*
X1148Y410D01*
X1148Y408D01*
X1150Y408D01*
X1150Y402D01*
X1152Y402D01*
X1152Y400D01*
X1150Y400D01*
X1150Y394D01*
X1148Y394D01*
X1148Y390D01*
X1146Y390D01*
X1146Y386D01*
X1144Y386D01*
X1144Y384D01*
X1142Y384D01*
X1142Y380D01*
X1140Y380D01*
X1140Y376D01*
X1138Y376D01*
X1138Y374D01*
X1136Y374D01*
X1136Y370D01*
X1134Y370D01*
X1134Y366D01*
X1132Y366D01*
X1132Y364D01*
X1130Y364D01*
X1130Y360D01*
X1128Y360D01*
X1128Y356D01*
X1126Y356D01*
X1126Y352D01*
X1124Y352D01*
X1124Y350D01*
X1122Y350D01*
X1122Y346D01*
X1120Y346D01*
X1120Y344D01*
X1118Y344D01*
X1118Y342D01*
X1114Y342D01*
X1114Y340D01*
X1202Y340D01*
X1202Y406D01*
X1204Y406D01*
X1204Y410D01*
X1208Y410D01*
X1208Y412D01*
X1144Y412D01*
G37*
D02*
G36*
X1220Y412D02*
X1220Y410D01*
X1222Y410D01*
X1222Y408D01*
X1224Y408D01*
X1224Y404D01*
X1226Y404D01*
X1226Y364D01*
X1252Y364D01*
X1252Y412D01*
X1220Y412D01*
G37*
D02*
G36*
X1706Y412D02*
X1706Y410D01*
X2276Y410D01*
X2276Y412D01*
X1706Y412D01*
G37*
D02*
G36*
X1706Y412D02*
X1706Y410D01*
X2276Y410D01*
X2276Y412D01*
X1706Y412D01*
G37*
D02*
G36*
X1710Y410D02*
X1710Y408D01*
X1712Y408D01*
X1712Y404D01*
X1714Y404D01*
X1714Y402D01*
X1716Y402D01*
X1716Y390D01*
X1714Y390D01*
X1714Y386D01*
X1712Y386D01*
X1712Y366D01*
X1714Y366D01*
X1714Y362D01*
X1716Y362D01*
X1716Y350D01*
X1714Y350D01*
X1714Y348D01*
X1712Y348D01*
X1712Y344D01*
X1708Y344D01*
X1708Y342D01*
X1704Y342D01*
X1704Y340D01*
X2276Y340D01*
X2276Y410D01*
X1710Y410D01*
G37*
D02*
G36*
X782Y362D02*
X782Y360D01*
X780Y360D01*
X780Y354D01*
X778Y354D01*
X778Y350D01*
X776Y350D01*
X776Y346D01*
X774Y346D01*
X774Y344D01*
X772Y344D01*
X772Y342D01*
X770Y342D01*
X770Y340D01*
X850Y340D01*
X850Y342D01*
X846Y342D01*
X846Y344D01*
X844Y344D01*
X844Y348D01*
X842Y348D01*
X842Y362D01*
X782Y362D01*
G37*
D02*
G36*
X1638Y362D02*
X1638Y360D01*
X1636Y360D01*
X1636Y346D01*
X1634Y346D01*
X1634Y344D01*
X1632Y344D01*
X1632Y342D01*
X1628Y342D01*
X1628Y340D01*
X1676Y340D01*
X1676Y342D01*
X1672Y342D01*
X1672Y344D01*
X1670Y344D01*
X1670Y346D01*
X1668Y346D01*
X1668Y348D01*
X1666Y348D01*
X1666Y352D01*
X1664Y352D01*
X1664Y362D01*
X1638Y362D01*
G37*
D02*
G36*
X1454Y346D02*
X1454Y344D01*
X1452Y344D01*
X1452Y342D01*
X1448Y342D01*
X1448Y340D01*
X1480Y340D01*
X1480Y342D01*
X1476Y342D01*
X1476Y346D01*
X1454Y346D01*
G37*
D02*
G36*
X1492Y344D02*
X1492Y342D01*
X1488Y342D01*
X1488Y340D01*
X1518Y340D01*
X1518Y342D01*
X1514Y342D01*
X1514Y344D01*
X1492Y344D01*
G37*
D02*
G36*
X858Y342D02*
X858Y340D01*
X878Y340D01*
X878Y342D01*
X858Y342D01*
G37*
D02*
G36*
X988Y342D02*
X988Y340D01*
X1008Y340D01*
X1008Y342D01*
X988Y342D01*
G37*
D02*
G36*
X1526Y342D02*
X1526Y340D01*
X1546Y340D01*
X1546Y342D01*
X1526Y342D01*
G37*
D02*
G36*
X246Y340D02*
X246Y338D01*
X934Y338D01*
X934Y340D01*
X246Y340D01*
G37*
D02*
G36*
X246Y340D02*
X246Y338D01*
X934Y338D01*
X934Y340D01*
X246Y340D01*
G37*
D02*
G36*
X246Y340D02*
X246Y338D01*
X934Y338D01*
X934Y340D01*
X246Y340D01*
G37*
D02*
G36*
X988Y340D02*
X988Y338D01*
X2276Y338D01*
X2276Y340D01*
X988Y340D01*
G37*
D02*
G36*
X988Y340D02*
X988Y338D01*
X2276Y338D01*
X2276Y340D01*
X988Y340D01*
G37*
D02*
G36*
X988Y340D02*
X988Y338D01*
X2276Y338D01*
X2276Y340D01*
X988Y340D01*
G37*
D02*
G36*
X988Y340D02*
X988Y338D01*
X2276Y338D01*
X2276Y340D01*
X988Y340D01*
G37*
D02*
G36*
X988Y340D02*
X988Y338D01*
X2276Y338D01*
X2276Y340D01*
X988Y340D01*
G37*
D02*
G36*
X988Y340D02*
X988Y338D01*
X2276Y338D01*
X2276Y340D01*
X988Y340D01*
G37*
D02*
G36*
X988Y340D02*
X988Y338D01*
X2276Y338D01*
X2276Y340D01*
X988Y340D01*
G37*
D02*
G36*
X988Y340D02*
X988Y338D01*
X2276Y338D01*
X2276Y340D01*
X988Y340D01*
G37*
D02*
G36*
X988Y340D02*
X988Y338D01*
X2276Y338D01*
X2276Y340D01*
X988Y340D01*
G37*
D02*
G36*
X238Y338D02*
X238Y336D01*
X934Y336D01*
X934Y338D01*
X238Y338D01*
G37*
D02*
G36*
X988Y338D02*
X988Y322D01*
X1920Y322D01*
X1920Y320D01*
X1930Y320D01*
X1930Y318D01*
X1936Y318D01*
X1936Y316D01*
X1938Y316D01*
X1938Y314D01*
X1942Y314D01*
X1942Y312D01*
X1946Y312D01*
X1946Y310D01*
X1948Y310D01*
X1948Y308D01*
X1950Y308D01*
X1950Y306D01*
X1952Y306D01*
X1952Y304D01*
X1954Y304D01*
X1954Y302D01*
X1956Y302D01*
X1956Y300D01*
X1958Y300D01*
X1958Y296D01*
X1960Y296D01*
X1960Y292D01*
X1962Y292D01*
X1962Y288D01*
X1964Y288D01*
X1964Y284D01*
X1966Y284D01*
X1966Y272D01*
X1968Y272D01*
X1968Y262D01*
X1966Y262D01*
X1966Y252D01*
X1964Y252D01*
X1964Y246D01*
X1962Y246D01*
X1962Y244D01*
X1960Y244D01*
X1960Y240D01*
X1958Y240D01*
X1958Y236D01*
X1956Y236D01*
X1956Y234D01*
X1954Y234D01*
X1954Y232D01*
X1952Y232D01*
X1952Y230D01*
X1950Y230D01*
X1950Y228D01*
X1948Y228D01*
X1948Y226D01*
X1946Y226D01*
X1946Y224D01*
X1942Y224D01*
X1942Y222D01*
X1940Y222D01*
X1940Y220D01*
X1936Y220D01*
X1936Y218D01*
X1930Y218D01*
X1930Y216D01*
X1922Y216D01*
X1922Y214D01*
X2276Y214D01*
X2276Y338D01*
X988Y338D01*
G37*
D02*
G36*
X40Y336D02*
X40Y334D01*
X934Y334D01*
X934Y336D01*
X40Y336D01*
G37*
D02*
G36*
X40Y336D02*
X40Y334D01*
X934Y334D01*
X934Y336D01*
X40Y336D01*
G37*
D02*
G36*
X40Y334D02*
X40Y218D01*
X442Y218D01*
X442Y216D01*
X772Y216D01*
X772Y214D01*
X936Y214D01*
X936Y216D01*
X932Y216D01*
X932Y218D01*
X930Y218D01*
X930Y220D01*
X928Y220D01*
X928Y222D01*
X926Y222D01*
X926Y228D01*
X924Y228D01*
X924Y316D01*
X934Y316D01*
X934Y334D01*
X40Y334D01*
G37*
D02*
G36*
X988Y322D02*
X988Y320D01*
X1630Y320D01*
X1630Y318D01*
X1632Y318D01*
X1632Y228D01*
X1714Y228D01*
X1714Y214D01*
X1906Y214D01*
X1906Y216D01*
X1896Y216D01*
X1896Y218D01*
X1892Y218D01*
X1892Y220D01*
X1888Y220D01*
X1888Y222D01*
X1884Y222D01*
X1884Y224D01*
X1882Y224D01*
X1882Y226D01*
X1880Y226D01*
X1880Y228D01*
X1876Y228D01*
X1876Y230D01*
X1874Y230D01*
X1874Y234D01*
X1872Y234D01*
X1872Y236D01*
X1870Y236D01*
X1870Y238D01*
X1868Y238D01*
X1868Y242D01*
X1866Y242D01*
X1866Y246D01*
X1864Y246D01*
X1864Y250D01*
X1862Y250D01*
X1862Y258D01*
X1860Y258D01*
X1860Y278D01*
X1862Y278D01*
X1862Y286D01*
X1864Y286D01*
X1864Y290D01*
X1866Y290D01*
X1866Y294D01*
X1868Y294D01*
X1868Y298D01*
X1870Y298D01*
X1870Y300D01*
X1872Y300D01*
X1872Y302D01*
X1874Y302D01*
X1874Y304D01*
X1876Y304D01*
X1876Y306D01*
X1878Y306D01*
X1878Y308D01*
X1880Y308D01*
X1880Y310D01*
X1882Y310D01*
X1882Y312D01*
X1886Y312D01*
X1886Y314D01*
X1888Y314D01*
X1888Y316D01*
X1892Y316D01*
X1892Y318D01*
X1898Y318D01*
X1898Y320D01*
X1908Y320D01*
X1908Y322D01*
X988Y322D01*
G37*
D02*
G36*
X988Y320D02*
X988Y316D01*
X1410Y316D01*
X1410Y314D01*
X1414Y314D01*
X1414Y312D01*
X1434Y312D01*
X1434Y320D01*
X988Y320D01*
G37*
D02*
G36*
X1058Y316D02*
X1058Y314D01*
X1080Y314D01*
X1080Y316D01*
X1058Y316D01*
G37*
D02*
G36*
X1110Y316D02*
X1110Y314D01*
X1116Y314D01*
X1116Y312D01*
X1120Y312D01*
X1120Y310D01*
X1122Y310D01*
X1122Y308D01*
X1144Y308D01*
X1144Y310D01*
X1146Y310D01*
X1146Y312D01*
X1148Y312D01*
X1148Y314D01*
X1152Y314D01*
X1152Y316D01*
X1110Y316D01*
G37*
D02*
G36*
X1274Y316D02*
X1274Y314D01*
X1296Y314D01*
X1296Y316D01*
X1274Y316D01*
G37*
D02*
G36*
X1306Y316D02*
X1306Y314D01*
X1310Y314D01*
X1310Y312D01*
X1332Y312D01*
X1332Y314D01*
X1336Y314D01*
X1336Y316D01*
X1306Y316D01*
G37*
D02*
G36*
X1410Y246D02*
X1410Y244D01*
X1390Y244D01*
X1390Y224D01*
X1388Y224D01*
X1388Y220D01*
X1386Y220D01*
X1386Y218D01*
X1384Y218D01*
X1384Y216D01*
X1378Y216D01*
X1378Y214D01*
X1434Y214D01*
X1434Y246D01*
X1410Y246D01*
G37*
D02*
G36*
X1122Y222D02*
X1122Y220D01*
X1120Y220D01*
X1120Y218D01*
X1116Y218D01*
X1116Y216D01*
X1112Y216D01*
X1112Y214D01*
X1152Y214D01*
X1152Y216D01*
X1148Y216D01*
X1148Y218D01*
X1146Y218D01*
X1146Y220D01*
X1144Y220D01*
X1144Y222D01*
X1122Y222D01*
G37*
D02*
G36*
X40Y218D02*
X40Y112D01*
X178Y112D01*
X178Y114D01*
X170Y114D01*
X170Y116D01*
X166Y116D01*
X166Y118D01*
X162Y118D01*
X162Y120D01*
X158Y120D01*
X158Y122D01*
X156Y122D01*
X156Y124D01*
X154Y124D01*
X154Y126D01*
X152Y126D01*
X152Y128D01*
X150Y128D01*
X150Y130D01*
X148Y130D01*
X148Y132D01*
X146Y132D01*
X146Y134D01*
X144Y134D01*
X144Y138D01*
X142Y138D01*
X142Y142D01*
X140Y142D01*
X140Y146D01*
X138Y146D01*
X138Y154D01*
X136Y154D01*
X136Y176D01*
X138Y176D01*
X138Y182D01*
X140Y182D01*
X140Y188D01*
X142Y188D01*
X142Y192D01*
X144Y192D01*
X144Y194D01*
X146Y194D01*
X146Y198D01*
X148Y198D01*
X148Y200D01*
X150Y200D01*
X150Y202D01*
X152Y202D01*
X152Y204D01*
X154Y204D01*
X154Y206D01*
X158Y206D01*
X158Y208D01*
X160Y208D01*
X160Y210D01*
X164Y210D01*
X164Y212D01*
X168Y212D01*
X168Y214D01*
X172Y214D01*
X172Y216D01*
X180Y216D01*
X180Y218D01*
X40Y218D01*
G37*
D02*
G36*
X196Y218D02*
X196Y216D01*
X206Y216D01*
X206Y214D01*
X210Y214D01*
X210Y212D01*
X214Y212D01*
X214Y210D01*
X218Y210D01*
X218Y208D01*
X220Y208D01*
X220Y206D01*
X222Y206D01*
X222Y204D01*
X226Y204D01*
X226Y202D01*
X228Y202D01*
X228Y198D01*
X248Y198D01*
X248Y200D01*
X250Y200D01*
X250Y202D01*
X252Y202D01*
X252Y204D01*
X254Y204D01*
X254Y206D01*
X258Y206D01*
X258Y208D01*
X260Y208D01*
X260Y210D01*
X264Y210D01*
X264Y212D01*
X268Y212D01*
X268Y214D01*
X272Y214D01*
X272Y216D01*
X280Y216D01*
X280Y218D01*
X196Y218D01*
G37*
D02*
G36*
X296Y218D02*
X296Y216D01*
X306Y216D01*
X306Y214D01*
X310Y214D01*
X310Y212D01*
X314Y212D01*
X314Y210D01*
X336Y210D01*
X336Y218D01*
X296Y218D01*
G37*
D02*
G36*
X952Y218D02*
X952Y216D01*
X946Y216D01*
X946Y214D01*
X976Y214D01*
X976Y216D01*
X972Y216D01*
X972Y218D01*
X952Y218D01*
G37*
D02*
G36*
X1312Y218D02*
X1312Y216D01*
X1308Y216D01*
X1308Y214D01*
X1336Y214D01*
X1336Y216D01*
X1332Y216D01*
X1332Y218D01*
X1312Y218D01*
G37*
D02*
G36*
X442Y216D02*
X442Y114D01*
X552Y114D01*
X552Y116D01*
X546Y116D01*
X546Y118D01*
X542Y118D01*
X542Y120D01*
X538Y120D01*
X538Y122D01*
X534Y122D01*
X534Y124D01*
X532Y124D01*
X532Y126D01*
X530Y126D01*
X530Y128D01*
X528Y128D01*
X528Y130D01*
X526Y130D01*
X526Y132D01*
X524Y132D01*
X524Y134D01*
X522Y134D01*
X522Y138D01*
X520Y138D01*
X520Y140D01*
X518Y140D01*
X518Y144D01*
X516Y144D01*
X516Y150D01*
X514Y150D01*
X514Y160D01*
X512Y160D01*
X512Y170D01*
X514Y170D01*
X514Y180D01*
X516Y180D01*
X516Y186D01*
X518Y186D01*
X518Y188D01*
X520Y188D01*
X520Y192D01*
X522Y192D01*
X522Y196D01*
X524Y196D01*
X524Y198D01*
X526Y198D01*
X526Y200D01*
X528Y200D01*
X528Y202D01*
X530Y202D01*
X530Y204D01*
X532Y204D01*
X532Y206D01*
X536Y206D01*
X536Y208D01*
X538Y208D01*
X538Y210D01*
X542Y210D01*
X542Y212D01*
X548Y212D01*
X548Y214D01*
X556Y214D01*
X556Y216D01*
X442Y216D01*
G37*
D02*
G36*
X572Y216D02*
X572Y214D01*
X580Y214D01*
X580Y212D01*
X584Y212D01*
X584Y210D01*
X588Y210D01*
X588Y208D01*
X592Y208D01*
X592Y206D01*
X594Y206D01*
X594Y204D01*
X596Y204D01*
X596Y202D01*
X600Y202D01*
X600Y200D01*
X602Y200D01*
X602Y196D01*
X624Y196D01*
X624Y198D01*
X626Y198D01*
X626Y200D01*
X628Y200D01*
X628Y202D01*
X630Y202D01*
X630Y204D01*
X632Y204D01*
X632Y206D01*
X636Y206D01*
X636Y208D01*
X638Y208D01*
X638Y210D01*
X642Y210D01*
X642Y212D01*
X648Y212D01*
X648Y214D01*
X656Y214D01*
X656Y216D01*
X572Y216D01*
G37*
D02*
G36*
X672Y216D02*
X672Y214D01*
X680Y214D01*
X680Y212D01*
X684Y212D01*
X684Y210D01*
X688Y210D01*
X688Y208D01*
X692Y208D01*
X692Y206D01*
X694Y206D01*
X694Y204D01*
X696Y204D01*
X696Y202D01*
X700Y202D01*
X700Y200D01*
X702Y200D01*
X702Y196D01*
X724Y196D01*
X724Y198D01*
X726Y198D01*
X726Y200D01*
X728Y200D01*
X728Y202D01*
X730Y202D01*
X730Y204D01*
X732Y204D01*
X732Y206D01*
X736Y206D01*
X736Y208D01*
X738Y208D01*
X738Y210D01*
X742Y210D01*
X742Y212D01*
X748Y212D01*
X748Y214D01*
X756Y214D01*
X756Y216D01*
X672Y216D01*
G37*
D02*
G36*
X986Y216D02*
X986Y214D01*
X1008Y214D01*
X1008Y216D01*
X986Y216D01*
G37*
D02*
G36*
X1058Y216D02*
X1058Y214D01*
X1080Y214D01*
X1080Y216D01*
X1058Y216D01*
G37*
D02*
G36*
X1274Y216D02*
X1274Y214D01*
X1296Y214D01*
X1296Y216D01*
X1274Y216D01*
G37*
D02*
G36*
X1346Y216D02*
X1346Y214D01*
X1368Y214D01*
X1368Y216D01*
X1346Y216D01*
G37*
D02*
G36*
X780Y214D02*
X780Y212D01*
X1434Y212D01*
X1434Y214D01*
X780Y214D01*
G37*
D02*
G36*
X780Y214D02*
X780Y212D01*
X1434Y212D01*
X1434Y214D01*
X780Y214D01*
G37*
D02*
G36*
X780Y214D02*
X780Y212D01*
X1434Y212D01*
X1434Y214D01*
X780Y214D01*
G37*
D02*
G36*
X780Y214D02*
X780Y212D01*
X1434Y212D01*
X1434Y214D01*
X780Y214D01*
G37*
D02*
G36*
X780Y214D02*
X780Y212D01*
X1434Y212D01*
X1434Y214D01*
X780Y214D01*
G37*
D02*
G36*
X780Y214D02*
X780Y212D01*
X1434Y212D01*
X1434Y214D01*
X780Y214D01*
G37*
D02*
G36*
X780Y214D02*
X780Y212D01*
X1434Y212D01*
X1434Y214D01*
X780Y214D01*
G37*
D02*
G36*
X780Y214D02*
X780Y212D01*
X1434Y212D01*
X1434Y214D01*
X780Y214D01*
G37*
D02*
G36*
X780Y214D02*
X780Y212D01*
X1434Y212D01*
X1434Y214D01*
X780Y214D01*
G37*
D02*
G36*
X1714Y214D02*
X1714Y212D01*
X2276Y212D01*
X2276Y214D01*
X1714Y214D01*
G37*
D02*
G36*
X1714Y214D02*
X1714Y212D01*
X2276Y212D01*
X2276Y214D01*
X1714Y214D01*
G37*
D02*
G36*
X784Y212D02*
X784Y210D01*
X788Y210D01*
X788Y208D01*
X792Y208D01*
X792Y206D01*
X794Y206D01*
X794Y204D01*
X796Y204D01*
X796Y202D01*
X800Y202D01*
X800Y200D01*
X802Y200D01*
X802Y196D01*
X804Y196D01*
X804Y194D01*
X806Y194D01*
X806Y192D01*
X808Y192D01*
X808Y188D01*
X810Y188D01*
X810Y184D01*
X812Y184D01*
X812Y178D01*
X814Y178D01*
X814Y152D01*
X812Y152D01*
X812Y146D01*
X810Y146D01*
X810Y142D01*
X808Y142D01*
X808Y138D01*
X806Y138D01*
X806Y136D01*
X804Y136D01*
X804Y132D01*
X802Y132D01*
X802Y130D01*
X800Y130D01*
X800Y128D01*
X798Y128D01*
X798Y126D01*
X796Y126D01*
X796Y124D01*
X792Y124D01*
X792Y122D01*
X790Y122D01*
X790Y120D01*
X786Y120D01*
X786Y118D01*
X782Y118D01*
X782Y116D01*
X774Y116D01*
X774Y114D01*
X1564Y114D01*
X1564Y116D01*
X1562Y116D01*
X1562Y120D01*
X1560Y120D01*
X1560Y122D01*
X1510Y122D01*
X1510Y124D01*
X1498Y124D01*
X1498Y126D01*
X1492Y126D01*
X1492Y128D01*
X1484Y128D01*
X1484Y130D01*
X1480Y130D01*
X1480Y132D01*
X1476Y132D01*
X1476Y134D01*
X1472Y134D01*
X1472Y136D01*
X1468Y136D01*
X1468Y138D01*
X1466Y138D01*
X1466Y140D01*
X1464Y140D01*
X1464Y142D01*
X1460Y142D01*
X1460Y144D01*
X1458Y144D01*
X1458Y146D01*
X1456Y146D01*
X1456Y148D01*
X1454Y148D01*
X1454Y150D01*
X1452Y150D01*
X1452Y154D01*
X1450Y154D01*
X1450Y156D01*
X1448Y156D01*
X1448Y158D01*
X1446Y158D01*
X1446Y162D01*
X1444Y162D01*
X1444Y164D01*
X1442Y164D01*
X1442Y168D01*
X1440Y168D01*
X1440Y174D01*
X1438Y174D01*
X1438Y178D01*
X1436Y178D01*
X1436Y186D01*
X1434Y186D01*
X1434Y212D01*
X784Y212D01*
G37*
D02*
G36*
X1714Y212D02*
X1714Y202D01*
X1712Y202D01*
X1712Y198D01*
X1710Y198D01*
X1710Y194D01*
X1708Y194D01*
X1708Y190D01*
X1706Y190D01*
X1706Y186D01*
X1704Y186D01*
X1704Y184D01*
X1702Y184D01*
X1702Y178D01*
X1700Y178D01*
X1700Y176D01*
X1698Y176D01*
X1698Y172D01*
X1696Y172D01*
X1696Y168D01*
X1694Y168D01*
X1694Y164D01*
X1692Y164D01*
X1692Y160D01*
X1690Y160D01*
X1690Y158D01*
X1688Y158D01*
X1688Y154D01*
X1686Y154D01*
X1686Y150D01*
X1684Y150D01*
X1684Y146D01*
X1682Y146D01*
X1682Y142D01*
X1680Y142D01*
X1680Y138D01*
X1678Y138D01*
X1678Y134D01*
X1676Y134D01*
X1676Y130D01*
X1674Y130D01*
X1674Y128D01*
X1672Y128D01*
X1672Y124D01*
X1670Y124D01*
X1670Y120D01*
X1668Y120D01*
X1668Y116D01*
X1666Y116D01*
X1666Y112D01*
X1664Y112D01*
X1664Y110D01*
X1662Y110D01*
X1662Y104D01*
X1660Y104D01*
X1660Y100D01*
X1658Y100D01*
X1658Y98D01*
X1656Y98D01*
X1656Y94D01*
X1654Y94D01*
X1654Y90D01*
X1652Y90D01*
X1652Y86D01*
X1650Y86D01*
X1650Y82D01*
X1648Y82D01*
X1648Y80D01*
X1646Y80D01*
X1646Y76D01*
X1644Y76D01*
X1644Y72D01*
X1642Y72D01*
X1642Y68D01*
X1640Y68D01*
X1640Y64D01*
X1638Y64D01*
X1638Y60D01*
X1636Y60D01*
X1636Y40D01*
X2276Y40D01*
X2276Y212D01*
X1714Y212D01*
G37*
D02*
G36*
X604Y134D02*
X604Y132D01*
X602Y132D01*
X602Y130D01*
X600Y130D01*
X600Y128D01*
X598Y128D01*
X598Y126D01*
X596Y126D01*
X596Y124D01*
X592Y124D01*
X592Y122D01*
X590Y122D01*
X590Y120D01*
X586Y120D01*
X586Y118D01*
X582Y118D01*
X582Y116D01*
X574Y116D01*
X574Y114D01*
X652Y114D01*
X652Y116D01*
X646Y116D01*
X646Y118D01*
X642Y118D01*
X642Y120D01*
X638Y120D01*
X638Y122D01*
X634Y122D01*
X634Y124D01*
X632Y124D01*
X632Y126D01*
X630Y126D01*
X630Y128D01*
X628Y128D01*
X628Y130D01*
X626Y130D01*
X626Y132D01*
X624Y132D01*
X624Y134D01*
X604Y134D01*
G37*
D02*
G36*
X704Y134D02*
X704Y132D01*
X702Y132D01*
X702Y130D01*
X700Y130D01*
X700Y128D01*
X698Y128D01*
X698Y126D01*
X696Y126D01*
X696Y124D01*
X692Y124D01*
X692Y122D01*
X690Y122D01*
X690Y120D01*
X686Y120D01*
X686Y118D01*
X682Y118D01*
X682Y116D01*
X674Y116D01*
X674Y114D01*
X752Y114D01*
X752Y116D01*
X746Y116D01*
X746Y118D01*
X742Y118D01*
X742Y120D01*
X738Y120D01*
X738Y122D01*
X734Y122D01*
X734Y124D01*
X732Y124D01*
X732Y126D01*
X730Y126D01*
X730Y128D01*
X728Y128D01*
X728Y130D01*
X726Y130D01*
X726Y132D01*
X724Y132D01*
X724Y134D01*
X704Y134D01*
G37*
D02*
G36*
X228Y130D02*
X228Y128D01*
X226Y128D01*
X226Y126D01*
X224Y126D01*
X224Y124D01*
X220Y124D01*
X220Y122D01*
X218Y122D01*
X218Y120D01*
X214Y120D01*
X214Y118D01*
X212Y118D01*
X212Y116D01*
X206Y116D01*
X206Y114D01*
X200Y114D01*
X200Y112D01*
X278Y112D01*
X278Y114D01*
X270Y114D01*
X270Y116D01*
X266Y116D01*
X266Y118D01*
X262Y118D01*
X262Y120D01*
X258Y120D01*
X258Y122D01*
X256Y122D01*
X256Y124D01*
X254Y124D01*
X254Y126D01*
X252Y126D01*
X252Y128D01*
X250Y128D01*
X250Y130D01*
X228Y130D01*
G37*
D02*
G36*
X314Y120D02*
X314Y118D01*
X312Y118D01*
X312Y116D01*
X306Y116D01*
X306Y114D01*
X300Y114D01*
X300Y112D01*
X336Y112D01*
X336Y120D01*
X314Y120D01*
G37*
D02*
G36*
X442Y114D02*
X442Y112D01*
X1564Y112D01*
X1564Y114D01*
X442Y114D01*
G37*
D02*
G36*
X442Y114D02*
X442Y112D01*
X1564Y112D01*
X1564Y114D01*
X442Y114D01*
G37*
D02*
G36*
X442Y114D02*
X442Y112D01*
X1564Y112D01*
X1564Y114D01*
X442Y114D01*
G37*
D02*
G36*
X442Y114D02*
X442Y112D01*
X1564Y112D01*
X1564Y114D01*
X442Y114D01*
G37*
D02*
G36*
X40Y112D02*
X40Y110D01*
X1566Y110D01*
X1566Y112D01*
X40Y112D01*
G37*
D02*
G36*
X40Y112D02*
X40Y110D01*
X1566Y110D01*
X1566Y112D01*
X40Y112D01*
G37*
D02*
G36*
X40Y112D02*
X40Y110D01*
X1566Y110D01*
X1566Y112D01*
X40Y112D01*
G37*
D02*
G36*
X40Y112D02*
X40Y110D01*
X1566Y110D01*
X1566Y112D01*
X40Y112D01*
G37*
D02*
G36*
X40Y110D02*
X40Y40D01*
X1594Y40D01*
X1594Y60D01*
X1592Y60D01*
X1592Y64D01*
X1590Y64D01*
X1590Y68D01*
X1588Y68D01*
X1588Y72D01*
X1586Y72D01*
X1586Y74D01*
X1584Y74D01*
X1584Y78D01*
X1582Y78D01*
X1582Y82D01*
X1580Y82D01*
X1580Y86D01*
X1578Y86D01*
X1578Y90D01*
X1576Y90D01*
X1576Y94D01*
X1574Y94D01*
X1574Y96D01*
X1572Y96D01*
X1572Y100D01*
X1570Y100D01*
X1570Y104D01*
X1568Y104D01*
X1568Y108D01*
X1566Y108D01*
X1566Y110D01*
X40Y110D01*
G37*
D02*
G36*
X739Y220D02*
X784Y220D01*
X784Y186D01*
X739Y186D01*
X739Y220D01*
G37*
D02*
G36*
X739Y148D02*
X784Y148D01*
X784Y114D01*
X739Y114D01*
X739Y148D01*
G37*
D02*
G36*
X780Y189D02*
X814Y189D01*
X814Y144D01*
X780Y144D01*
X780Y189D01*
G37*
D02*
G36*
X164Y222D02*
X211Y222D01*
X211Y188D01*
X164Y188D01*
X164Y222D01*
G37*
D02*
G36*
X164Y146D02*
X211Y146D01*
X211Y112D01*
X164Y112D01*
X164Y146D01*
G37*
D02*
G36*
X132Y190D02*
X166Y190D01*
X166Y143D01*
X132Y143D01*
X132Y190D01*
G37*
D02*
G36*
X164Y922D02*
X211Y922D01*
X211Y888D01*
X164Y888D01*
X164Y922D01*
G37*
D02*
G36*
X164Y846D02*
X211Y846D01*
X211Y812D01*
X164Y812D01*
X164Y846D01*
G37*
D02*
G36*
X132Y890D02*
X166Y890D01*
X166Y843D01*
X132Y843D01*
X132Y890D01*
G37*
D02*
G36*
X616Y1124D02*
X659Y1124D01*
X659Y1090D01*
X616Y1090D01*
X616Y1124D01*
G37*
D02*
G36*
X586Y1162D02*
X620Y1162D01*
X620Y1119D01*
X586Y1119D01*
X586Y1162D01*
G37*
D02*
G36*
X654Y1162D02*
X688Y1162D01*
X688Y1119D01*
X654Y1119D01*
X654Y1162D01*
G37*
D02*
G36*
X1990Y1294D02*
X2033Y1294D01*
X2033Y1258D01*
X1990Y1258D01*
X1990Y1294D01*
G37*
D02*
G36*
X1990Y1224D02*
X2033Y1224D01*
X2033Y1190D01*
X1990Y1190D01*
X1990Y1224D01*
G37*
D02*
G36*
X1960Y1262D02*
X1994Y1262D01*
X1994Y1219D01*
X1960Y1219D01*
X1960Y1262D01*
G37*
D02*
G36*
X2028Y1262D02*
X2064Y1262D01*
X2064Y1219D01*
X2028Y1219D01*
X2028Y1262D01*
G37*
D02*
G36*
X964Y1296D02*
X1011Y1296D01*
X1011Y1262D01*
X964Y1262D01*
X964Y1296D01*
G37*
D02*
G36*
X964Y1220D02*
X1011Y1220D01*
X1011Y1186D01*
X964Y1186D01*
X964Y1220D01*
G37*
D02*
G36*
X1414Y1296D02*
X1461Y1296D01*
X1461Y1262D01*
X1414Y1262D01*
X1414Y1296D01*
G37*
D02*
G36*
X1414Y1220D02*
X1461Y1220D01*
X1461Y1186D01*
X1414Y1186D01*
X1414Y1220D01*
G37*
D02*
G36*
X1888Y326D02*
X1935Y326D01*
X1935Y292D01*
X1888Y292D01*
X1888Y326D01*
G37*
D02*
G36*
X1888Y250D02*
X1935Y250D01*
X1935Y214D01*
X1888Y214D01*
X1888Y250D01*
G37*
D02*
G36*
X1856Y294D02*
X1890Y294D01*
X1890Y247D01*
X1856Y247D01*
X1856Y294D01*
G37*
D02*
G36*
X1932Y294D02*
X1968Y294D01*
X1968Y247D01*
X1932Y247D01*
X1932Y294D01*
G37*
D02*
G36*
X1888Y772D02*
X1935Y772D01*
X1935Y738D01*
X1888Y738D01*
X1888Y772D01*
G37*
D02*
G36*
X1888Y696D02*
X1935Y696D01*
X1935Y662D01*
X1888Y662D01*
X1888Y696D01*
G37*
D02*
G36*
X1856Y740D02*
X1890Y740D01*
X1890Y693D01*
X1856Y693D01*
X1856Y740D01*
G37*
D02*
G36*
X1932Y740D02*
X1968Y740D01*
X1968Y693D01*
X1932Y693D01*
X1932Y740D01*
G37*
D02*
G36*
X1445Y308D02*
X1445Y206D01*
X1447Y206D01*
X1447Y199D01*
X1448Y199D01*
X1448Y194D01*
X1449Y194D01*
X1449Y190D01*
X1450Y190D01*
X1450Y187D01*
X1451Y187D01*
X1451Y183D01*
X1453Y183D01*
X1453Y181D01*
X1454Y181D01*
X1454Y178D01*
X1455Y178D01*
X1455Y176D01*
X1456Y176D01*
X1456Y175D01*
X1457Y175D01*
X1457Y172D01*
X1459Y172D01*
X1459Y171D01*
X1460Y171D01*
X1460Y168D01*
X1461Y168D01*
X1461Y167D01*
X1462Y167D01*
X1462Y166D01*
X1464Y166D01*
X1464Y164D01*
X1465Y164D01*
X1465Y162D01*
X1466Y162D01*
X1466Y161D01*
X1467Y161D01*
X1467Y160D01*
X1468Y160D01*
X1468Y159D01*
X1470Y159D01*
X1470Y158D01*
X1471Y158D01*
X1471Y156D01*
X1472Y156D01*
X1472Y155D01*
X1474Y155D01*
X1474Y154D01*
X1476Y154D01*
X1476Y153D01*
X1477Y153D01*
X1477Y152D01*
X1479Y152D01*
X1479Y150D01*
X1480Y150D01*
X1480Y149D01*
X1483Y149D01*
X1483Y148D01*
X1485Y148D01*
X1485Y147D01*
X1486Y147D01*
X1486Y146D01*
X1489Y146D01*
X1489Y144D01*
X1491Y144D01*
X1491Y143D01*
X1495Y143D01*
X1495Y142D01*
X1497Y142D01*
X1497Y141D01*
X1501Y141D01*
X1501Y139D01*
X1505Y139D01*
X1505Y138D01*
X1509Y138D01*
X1509Y137D01*
X1514Y137D01*
X1514Y136D01*
X1523Y136D01*
X1523Y135D01*
X1543Y135D01*
X1543Y136D01*
X1552Y136D01*
X1552Y137D01*
X1558Y137D01*
X1558Y138D01*
X1563Y138D01*
X1563Y141D01*
X1561Y141D01*
X1561Y143D01*
X1560Y143D01*
X1560Y146D01*
X1559Y146D01*
X1559Y147D01*
X1558Y147D01*
X1558Y149D01*
X1557Y149D01*
X1557Y152D01*
X1555Y152D01*
X1555Y154D01*
X1554Y154D01*
X1554Y156D01*
X1553Y156D01*
X1553Y159D01*
X1552Y159D01*
X1552Y161D01*
X1551Y161D01*
X1551Y164D01*
X1549Y164D01*
X1549Y166D01*
X1548Y166D01*
X1548Y167D01*
X1547Y167D01*
X1547Y170D01*
X1546Y170D01*
X1546Y172D01*
X1545Y172D01*
X1545Y175D01*
X1543Y175D01*
X1543Y177D01*
X1542Y177D01*
X1542Y179D01*
X1541Y179D01*
X1541Y182D01*
X1540Y182D01*
X1540Y184D01*
X1538Y184D01*
X1538Y187D01*
X1537Y187D01*
X1537Y189D01*
X1536Y189D01*
X1536Y190D01*
X1535Y190D01*
X1535Y193D01*
X1534Y193D01*
X1534Y195D01*
X1532Y195D01*
X1532Y198D01*
X1531Y198D01*
X1531Y200D01*
X1530Y200D01*
X1530Y202D01*
X1529Y202D01*
X1529Y205D01*
X1528Y205D01*
X1528Y207D01*
X1526Y207D01*
X1526Y210D01*
X1525Y210D01*
X1525Y211D01*
X1524Y211D01*
X1524Y213D01*
X1523Y213D01*
X1523Y216D01*
X1522Y216D01*
X1522Y218D01*
X1520Y218D01*
X1520Y222D01*
X1619Y222D01*
X1619Y308D01*
X1445Y308D01*
G37*
D02*
G36*
X1529Y216D02*
X1529Y214D01*
X1530Y214D01*
X1530Y213D01*
X1531Y213D01*
X1531Y211D01*
X1532Y211D01*
X1532Y208D01*
X1534Y208D01*
X1534Y206D01*
X1535Y206D01*
X1535Y204D01*
X1536Y204D01*
X1536Y201D01*
X1537Y201D01*
X1537Y199D01*
X1538Y199D01*
X1538Y196D01*
X1540Y196D01*
X1540Y194D01*
X1541Y194D01*
X1541Y193D01*
X1542Y193D01*
X1542Y190D01*
X1543Y190D01*
X1543Y188D01*
X1545Y188D01*
X1545Y185D01*
X1546Y185D01*
X1546Y183D01*
X1547Y183D01*
X1547Y181D01*
X1548Y181D01*
X1548Y178D01*
X1549Y178D01*
X1549Y176D01*
X1551Y176D01*
X1551Y173D01*
X1552Y173D01*
X1552Y171D01*
X1553Y171D01*
X1553Y170D01*
X1554Y170D01*
X1554Y167D01*
X1555Y167D01*
X1555Y165D01*
X1557Y165D01*
X1557Y162D01*
X1558Y162D01*
X1558Y160D01*
X1559Y160D01*
X1559Y158D01*
X1560Y158D01*
X1560Y155D01*
X1561Y155D01*
X1561Y153D01*
X1563Y153D01*
X1563Y150D01*
X1564Y150D01*
X1564Y149D01*
X1565Y149D01*
X1565Y147D01*
X1566Y147D01*
X1566Y144D01*
X1567Y144D01*
X1567Y142D01*
X1569Y142D01*
X1569Y139D01*
X1570Y139D01*
X1570Y137D01*
X1571Y137D01*
X1571Y135D01*
X1572Y135D01*
X1572Y132D01*
X1574Y132D01*
X1574Y130D01*
X1575Y130D01*
X1575Y129D01*
X1576Y129D01*
X1576Y126D01*
X1577Y126D01*
X1577Y124D01*
X1578Y124D01*
X1578Y121D01*
X1580Y121D01*
X1580Y119D01*
X1581Y119D01*
X1581Y116D01*
X1582Y116D01*
X1582Y114D01*
X1583Y114D01*
X1583Y112D01*
X1584Y112D01*
X1584Y109D01*
X1586Y109D01*
X1586Y107D01*
X1587Y107D01*
X1587Y106D01*
X1588Y106D01*
X1588Y103D01*
X1589Y103D01*
X1589Y101D01*
X1590Y101D01*
X1590Y98D01*
X1592Y98D01*
X1592Y96D01*
X1593Y96D01*
X1593Y94D01*
X1594Y94D01*
X1594Y91D01*
X1595Y91D01*
X1595Y89D01*
X1597Y89D01*
X1597Y86D01*
X1598Y86D01*
X1598Y85D01*
X1599Y85D01*
X1599Y83D01*
X1600Y83D01*
X1600Y80D01*
X1601Y80D01*
X1601Y78D01*
X1603Y78D01*
X1603Y75D01*
X1604Y75D01*
X1604Y73D01*
X1605Y73D01*
X1605Y71D01*
X1606Y71D01*
X1606Y68D01*
X1607Y68D01*
X1607Y66D01*
X1609Y66D01*
X1609Y65D01*
X1610Y65D01*
X1610Y62D01*
X1611Y62D01*
X1611Y60D01*
X1612Y60D01*
X1612Y57D01*
X1613Y57D01*
X1613Y55D01*
X1616Y55D01*
X1616Y57D01*
X1617Y57D01*
X1617Y60D01*
X1618Y60D01*
X1618Y62D01*
X1619Y62D01*
X1619Y63D01*
X1621Y63D01*
X1621Y66D01*
X1622Y66D01*
X1622Y68D01*
X1623Y68D01*
X1623Y71D01*
X1624Y71D01*
X1624Y73D01*
X1626Y73D01*
X1626Y75D01*
X1627Y75D01*
X1627Y78D01*
X1628Y78D01*
X1628Y79D01*
X1629Y79D01*
X1629Y81D01*
X1630Y81D01*
X1630Y84D01*
X1632Y84D01*
X1632Y86D01*
X1633Y86D01*
X1633Y89D01*
X1634Y89D01*
X1634Y91D01*
X1635Y91D01*
X1635Y94D01*
X1636Y94D01*
X1636Y95D01*
X1638Y95D01*
X1638Y97D01*
X1639Y97D01*
X1639Y100D01*
X1640Y100D01*
X1640Y102D01*
X1641Y102D01*
X1641Y104D01*
X1642Y104D01*
X1642Y107D01*
X1644Y107D01*
X1644Y109D01*
X1645Y109D01*
X1645Y110D01*
X1646Y110D01*
X1646Y113D01*
X1647Y113D01*
X1647Y115D01*
X1649Y115D01*
X1649Y118D01*
X1650Y118D01*
X1650Y120D01*
X1651Y120D01*
X1651Y123D01*
X1652Y123D01*
X1652Y125D01*
X1653Y125D01*
X1653Y126D01*
X1655Y126D01*
X1655Y129D01*
X1656Y129D01*
X1656Y131D01*
X1657Y131D01*
X1657Y133D01*
X1658Y133D01*
X1658Y136D01*
X1659Y136D01*
X1659Y138D01*
X1661Y138D01*
X1661Y141D01*
X1662Y141D01*
X1662Y142D01*
X1663Y142D01*
X1663Y144D01*
X1664Y144D01*
X1664Y147D01*
X1665Y147D01*
X1665Y149D01*
X1667Y149D01*
X1667Y152D01*
X1668Y152D01*
X1668Y154D01*
X1669Y154D01*
X1669Y156D01*
X1670Y156D01*
X1670Y158D01*
X1671Y158D01*
X1671Y160D01*
X1673Y160D01*
X1673Y162D01*
X1674Y162D01*
X1674Y165D01*
X1675Y165D01*
X1675Y167D01*
X1676Y167D01*
X1676Y170D01*
X1678Y170D01*
X1678Y172D01*
X1679Y172D01*
X1679Y173D01*
X1680Y173D01*
X1680Y176D01*
X1681Y176D01*
X1681Y178D01*
X1682Y178D01*
X1682Y181D01*
X1684Y181D01*
X1684Y183D01*
X1685Y183D01*
X1685Y185D01*
X1686Y185D01*
X1686Y188D01*
X1687Y188D01*
X1687Y189D01*
X1688Y189D01*
X1688Y191D01*
X1690Y191D01*
X1690Y194D01*
X1691Y194D01*
X1691Y196D01*
X1692Y196D01*
X1692Y199D01*
X1693Y199D01*
X1693Y201D01*
X1694Y201D01*
X1694Y204D01*
X1696Y204D01*
X1696Y205D01*
X1697Y205D01*
X1697Y207D01*
X1698Y207D01*
X1698Y210D01*
X1699Y210D01*
X1699Y212D01*
X1700Y212D01*
X1700Y214D01*
X1702Y214D01*
X1702Y216D01*
X1529Y216D01*
G37*
D02*
G54D21*
X750Y405D02*
X751Y405D01*
X778Y405D02*
X779Y405D01*
X850Y405D02*
X875Y405D01*
X902Y405D02*
X933Y405D01*
X973Y405D02*
X984Y405D01*
X1011Y405D02*
X1031Y405D01*
X1138Y405D02*
X1139Y405D01*
X1212Y405D02*
X1213Y405D01*
X1261Y405D02*
X1293Y405D01*
X1315Y405D02*
X1330Y405D01*
X1422Y405D02*
X1442Y405D01*
X1467Y405D02*
X1501Y405D01*
X1518Y405D02*
X1543Y405D01*
X1572Y405D02*
X1601Y405D01*
X1621Y405D02*
X1646Y405D01*
X1679Y405D02*
X1698Y405D01*
X748Y404D02*
X752Y404D01*
X777Y404D02*
X781Y404D01*
X850Y404D02*
X878Y404D01*
X901Y404D02*
X935Y404D01*
X969Y404D02*
X986Y404D01*
X1008Y404D02*
X1033Y404D01*
X1136Y404D02*
X1140Y404D01*
X1211Y404D02*
X1215Y404D01*
X1261Y404D02*
X1295Y404D01*
X1313Y404D02*
X1333Y404D01*
X1419Y404D02*
X1444Y404D01*
X1467Y404D02*
X1501Y404D01*
X1518Y404D02*
X1546Y404D01*
X1570Y404D02*
X1603Y404D01*
X1621Y404D02*
X1649Y404D01*
X1676Y404D02*
X1701Y404D01*
X748Y403D02*
X753Y403D01*
X776Y403D02*
X781Y403D01*
X850Y403D02*
X880Y403D01*
X901Y403D02*
X936Y403D01*
X967Y403D02*
X987Y403D01*
X1007Y403D02*
X1035Y403D01*
X1135Y403D02*
X1141Y403D01*
X1210Y403D02*
X1216Y403D01*
X1261Y403D02*
X1295Y403D01*
X1313Y403D02*
X1335Y403D01*
X1418Y403D02*
X1446Y403D01*
X1467Y403D02*
X1501Y403D01*
X1518Y403D02*
X1548Y403D01*
X1570Y403D02*
X1603Y403D01*
X1621Y403D02*
X1651Y403D01*
X1675Y403D02*
X1703Y403D01*
X747Y402D02*
X753Y402D01*
X776Y402D02*
X782Y402D01*
X850Y402D02*
X881Y402D01*
X901Y402D02*
X936Y402D01*
X966Y402D02*
X987Y402D01*
X1006Y402D02*
X1036Y402D01*
X1135Y402D02*
X1141Y402D01*
X1210Y402D02*
X1216Y402D01*
X1261Y402D02*
X1295Y402D01*
X1313Y402D02*
X1336Y402D01*
X1417Y402D02*
X1447Y402D01*
X1467Y402D02*
X1501Y402D01*
X1518Y402D02*
X1549Y402D01*
X1569Y402D02*
X1604Y402D01*
X1621Y402D02*
X1652Y402D01*
X1674Y402D02*
X1704Y402D01*
X747Y401D02*
X753Y401D01*
X776Y401D02*
X782Y401D01*
X850Y401D02*
X882Y401D01*
X901Y401D02*
X936Y401D01*
X965Y401D02*
X987Y401D01*
X1005Y401D02*
X1037Y401D01*
X1134Y401D02*
X1141Y401D01*
X1210Y401D02*
X1216Y401D01*
X1261Y401D02*
X1295Y401D01*
X1313Y401D02*
X1337Y401D01*
X1416Y401D02*
X1448Y401D01*
X1467Y401D02*
X1501Y401D01*
X1518Y401D02*
X1550Y401D01*
X1569Y401D02*
X1604Y401D01*
X1621Y401D02*
X1653Y401D01*
X1673Y401D02*
X1705Y401D01*
X747Y400D02*
X753Y400D01*
X776Y400D02*
X782Y400D01*
X850Y400D02*
X883Y400D01*
X901Y400D02*
X936Y400D01*
X965Y400D02*
X987Y400D01*
X1005Y400D02*
X1038Y400D01*
X1134Y400D02*
X1141Y400D01*
X1210Y400D02*
X1216Y400D01*
X1261Y400D02*
X1295Y400D01*
X1313Y400D02*
X1337Y400D01*
X1416Y400D02*
X1449Y400D01*
X1467Y400D02*
X1501Y400D01*
X1518Y400D02*
X1551Y400D01*
X1570Y400D02*
X1603Y400D01*
X1621Y400D02*
X1654Y400D01*
X1673Y400D02*
X1705Y400D01*
X747Y399D02*
X753Y399D01*
X776Y399D02*
X782Y399D01*
X850Y399D02*
X883Y399D01*
X901Y399D02*
X935Y399D01*
X964Y399D02*
X986Y399D01*
X1004Y399D02*
X1038Y399D01*
X1133Y399D02*
X1141Y399D01*
X1210Y399D02*
X1216Y399D01*
X1261Y399D02*
X1294Y399D01*
X1314Y399D02*
X1338Y399D01*
X1415Y399D02*
X1449Y399D01*
X1467Y399D02*
X1501Y399D01*
X1518Y399D02*
X1551Y399D01*
X1570Y399D02*
X1603Y399D01*
X1621Y399D02*
X1654Y399D01*
X1672Y399D02*
X1706Y399D01*
X747Y398D02*
X753Y398D01*
X776Y398D02*
X782Y398D01*
X850Y398D02*
X884Y398D01*
X901Y398D02*
X933Y398D01*
X963Y398D02*
X984Y398D01*
X1004Y398D02*
X1038Y398D01*
X1133Y398D02*
X1140Y398D01*
X1210Y398D02*
X1216Y398D01*
X1261Y398D02*
X1292Y398D01*
X1316Y398D02*
X1338Y398D01*
X1415Y398D02*
X1449Y398D01*
X1467Y398D02*
X1501Y398D01*
X1518Y398D02*
X1552Y398D01*
X1573Y398D02*
X1601Y398D01*
X1621Y398D02*
X1655Y398D01*
X1672Y398D02*
X1706Y398D01*
X747Y397D02*
X753Y397D01*
X776Y397D02*
X782Y397D01*
X850Y397D02*
X856Y397D01*
X877Y397D02*
X884Y397D01*
X901Y397D02*
X908Y397D01*
X962Y397D02*
X971Y397D01*
X1004Y397D02*
X1010Y397D01*
X1032Y397D02*
X1039Y397D01*
X1132Y397D02*
X1139Y397D01*
X1210Y397D02*
X1216Y397D01*
X1261Y397D02*
X1267Y397D01*
X1319Y397D02*
X1326Y397D01*
X1332Y397D02*
X1339Y397D01*
X1415Y397D02*
X1421Y397D01*
X1443Y397D02*
X1450Y397D01*
X1467Y397D02*
X1473Y397D01*
X1481Y397D02*
X1487Y397D01*
X1495Y397D02*
X1501Y397D01*
X1518Y397D02*
X1524Y397D01*
X1545Y397D02*
X1552Y397D01*
X1583Y397D02*
X1590Y397D01*
X1621Y397D02*
X1627Y397D01*
X1648Y397D02*
X1655Y397D01*
X1672Y397D02*
X1678Y397D01*
X1700Y397D02*
X1706Y397D01*
X747Y396D02*
X753Y396D01*
X776Y396D02*
X782Y396D01*
X850Y396D02*
X856Y396D01*
X878Y396D02*
X884Y396D01*
X901Y396D02*
X908Y396D01*
X962Y396D02*
X970Y396D01*
X1004Y396D02*
X1011Y396D01*
X1032Y396D02*
X1039Y396D01*
X1131Y396D02*
X1139Y396D01*
X1210Y396D02*
X1216Y396D01*
X1261Y396D02*
X1267Y396D01*
X1319Y396D02*
X1326Y396D01*
X1332Y396D02*
X1339Y396D01*
X1415Y396D02*
X1422Y396D01*
X1443Y396D02*
X1450Y396D01*
X1467Y396D02*
X1473Y396D01*
X1481Y396D02*
X1487Y396D01*
X1495Y396D02*
X1501Y396D01*
X1518Y396D02*
X1524Y396D01*
X1546Y396D02*
X1552Y396D01*
X1583Y396D02*
X1590Y396D01*
X1621Y396D02*
X1627Y396D01*
X1649Y396D02*
X1655Y396D01*
X1672Y396D02*
X1679Y396D01*
X1700Y396D02*
X1707Y396D01*
X747Y395D02*
X753Y395D01*
X776Y395D02*
X782Y395D01*
X850Y395D02*
X856Y395D01*
X878Y395D02*
X884Y395D01*
X901Y395D02*
X908Y395D01*
X961Y395D02*
X969Y395D01*
X1004Y395D02*
X1012Y395D01*
X1033Y395D02*
X1039Y395D01*
X1131Y395D02*
X1138Y395D01*
X1210Y395D02*
X1216Y395D01*
X1261Y395D02*
X1267Y395D01*
X1319Y395D02*
X1326Y395D01*
X1333Y395D02*
X1340Y395D01*
X1415Y395D02*
X1423Y395D01*
X1444Y395D02*
X1450Y395D01*
X1467Y395D02*
X1473Y395D01*
X1481Y395D02*
X1487Y395D01*
X1495Y395D02*
X1501Y395D01*
X1518Y395D02*
X1524Y395D01*
X1546Y395D02*
X1552Y395D01*
X1583Y395D02*
X1590Y395D01*
X1621Y395D02*
X1627Y395D01*
X1649Y395D02*
X1655Y395D01*
X1672Y395D02*
X1680Y395D01*
X1700Y395D02*
X1707Y395D01*
X747Y394D02*
X753Y394D01*
X776Y394D02*
X782Y394D01*
X850Y394D02*
X856Y394D01*
X878Y394D02*
X885Y394D01*
X901Y394D02*
X908Y394D01*
X960Y394D02*
X968Y394D01*
X1005Y394D02*
X1012Y394D01*
X1033Y394D02*
X1038Y394D01*
X1130Y394D02*
X1138Y394D01*
X1210Y394D02*
X1216Y394D01*
X1261Y394D02*
X1267Y394D01*
X1319Y394D02*
X1326Y394D01*
X1333Y394D02*
X1340Y394D01*
X1416Y394D02*
X1424Y394D01*
X1444Y394D02*
X1449Y394D01*
X1467Y394D02*
X1472Y394D01*
X1481Y394D02*
X1487Y394D01*
X1495Y394D02*
X1501Y394D01*
X1518Y394D02*
X1524Y394D01*
X1546Y394D02*
X1552Y394D01*
X1583Y394D02*
X1590Y394D01*
X1621Y394D02*
X1627Y394D01*
X1649Y394D02*
X1655Y394D01*
X1673Y394D02*
X1680Y394D01*
X1701Y394D02*
X1706Y394D01*
X747Y393D02*
X753Y393D01*
X776Y393D02*
X782Y393D01*
X850Y393D02*
X856Y393D01*
X878Y393D02*
X885Y393D01*
X901Y393D02*
X908Y393D01*
X959Y393D02*
X967Y393D01*
X1005Y393D02*
X1013Y393D01*
X1034Y393D02*
X1038Y393D01*
X1130Y393D02*
X1137Y393D01*
X1210Y393D02*
X1216Y393D01*
X1261Y393D02*
X1267Y393D01*
X1319Y393D02*
X1326Y393D01*
X1334Y393D02*
X1341Y393D01*
X1416Y393D02*
X1424Y393D01*
X1445Y393D02*
X1449Y393D01*
X1468Y393D02*
X1472Y393D01*
X1481Y393D02*
X1487Y393D01*
X1496Y393D02*
X1500Y393D01*
X1518Y393D02*
X1524Y393D01*
X1546Y393D02*
X1552Y393D01*
X1583Y393D02*
X1590Y393D01*
X1621Y393D02*
X1627Y393D01*
X1649Y393D02*
X1655Y393D01*
X1673Y393D02*
X1681Y393D01*
X1701Y393D02*
X1706Y393D01*
X747Y392D02*
X753Y392D01*
X776Y392D02*
X782Y392D01*
X850Y392D02*
X856Y392D01*
X878Y392D02*
X885Y392D01*
X901Y392D02*
X908Y392D01*
X959Y392D02*
X967Y392D01*
X1006Y392D02*
X1014Y392D01*
X1035Y392D02*
X1036Y392D01*
X1129Y392D02*
X1136Y392D01*
X1210Y392D02*
X1216Y392D01*
X1261Y392D02*
X1267Y392D01*
X1319Y392D02*
X1326Y392D01*
X1334Y392D02*
X1341Y392D01*
X1417Y392D02*
X1425Y392D01*
X1446Y392D02*
X1447Y392D01*
X1469Y392D02*
X1470Y392D01*
X1481Y392D02*
X1487Y392D01*
X1498Y392D02*
X1498Y392D01*
X1518Y392D02*
X1524Y392D01*
X1546Y392D02*
X1552Y392D01*
X1583Y392D02*
X1590Y392D01*
X1621Y392D02*
X1627Y392D01*
X1649Y392D02*
X1655Y392D01*
X1674Y392D02*
X1682Y392D01*
X1703Y392D02*
X1704Y392D01*
X747Y391D02*
X753Y391D01*
X776Y391D02*
X782Y391D01*
X850Y391D02*
X856Y391D01*
X878Y391D02*
X885Y391D01*
X901Y391D02*
X908Y391D01*
X958Y391D02*
X966Y391D01*
X1007Y391D02*
X1015Y391D01*
X1128Y391D02*
X1136Y391D01*
X1210Y391D02*
X1216Y391D01*
X1261Y391D02*
X1267Y391D01*
X1319Y391D02*
X1326Y391D01*
X1335Y391D02*
X1342Y391D01*
X1418Y391D02*
X1426Y391D01*
X1481Y391D02*
X1487Y391D01*
X1518Y391D02*
X1524Y391D01*
X1546Y391D02*
X1552Y391D01*
X1583Y391D02*
X1590Y391D01*
X1621Y391D02*
X1627Y391D01*
X1649Y391D02*
X1655Y391D01*
X1675Y391D02*
X1683Y391D01*
X747Y390D02*
X754Y390D01*
X776Y390D02*
X782Y390D01*
X850Y390D02*
X856Y390D01*
X878Y390D02*
X884Y390D01*
X901Y390D02*
X908Y390D01*
X957Y390D02*
X965Y390D01*
X1007Y390D02*
X1016Y390D01*
X1128Y390D02*
X1135Y390D01*
X1210Y390D02*
X1216Y390D01*
X1261Y390D02*
X1267Y390D01*
X1319Y390D02*
X1326Y390D01*
X1335Y390D02*
X1342Y390D01*
X1418Y390D02*
X1427Y390D01*
X1481Y390D02*
X1487Y390D01*
X1518Y390D02*
X1524Y390D01*
X1546Y390D02*
X1552Y390D01*
X1583Y390D02*
X1590Y390D01*
X1621Y390D02*
X1627Y390D01*
X1649Y390D02*
X1655Y390D01*
X1675Y390D02*
X1684Y390D01*
X747Y389D02*
X754Y389D01*
X775Y389D02*
X782Y389D01*
X850Y389D02*
X856Y389D01*
X878Y389D02*
X884Y389D01*
X901Y389D02*
X908Y389D01*
X956Y389D02*
X964Y389D01*
X1008Y389D02*
X1016Y389D01*
X1127Y389D02*
X1135Y389D01*
X1210Y389D02*
X1216Y389D01*
X1261Y389D02*
X1267Y389D01*
X1319Y389D02*
X1326Y389D01*
X1336Y389D02*
X1343Y389D01*
X1419Y389D02*
X1427Y389D01*
X1481Y389D02*
X1487Y389D01*
X1518Y389D02*
X1524Y389D01*
X1546Y389D02*
X1552Y389D01*
X1583Y389D02*
X1590Y389D01*
X1621Y389D02*
X1627Y389D01*
X1649Y389D02*
X1655Y389D01*
X1676Y389D02*
X1684Y389D01*
X748Y388D02*
X754Y388D01*
X775Y388D02*
X782Y388D01*
X850Y388D02*
X856Y388D01*
X877Y388D02*
X884Y388D01*
X901Y388D02*
X908Y388D01*
X955Y388D02*
X964Y388D01*
X1009Y388D02*
X1017Y388D01*
X1127Y388D02*
X1134Y388D01*
X1210Y388D02*
X1216Y388D01*
X1261Y388D02*
X1267Y388D01*
X1319Y388D02*
X1326Y388D01*
X1336Y388D02*
X1344Y388D01*
X1420Y388D02*
X1428Y388D01*
X1481Y388D02*
X1487Y388D01*
X1518Y388D02*
X1524Y388D01*
X1545Y388D02*
X1552Y388D01*
X1583Y388D02*
X1590Y388D01*
X1621Y388D02*
X1627Y388D01*
X1649Y388D02*
X1655Y388D01*
X1677Y388D02*
X1685Y388D01*
X748Y387D02*
X755Y387D01*
X774Y387D02*
X781Y387D01*
X850Y387D02*
X857Y387D01*
X875Y387D02*
X884Y387D01*
X901Y387D02*
X908Y387D01*
X955Y387D02*
X963Y387D01*
X1010Y387D02*
X1018Y387D01*
X1126Y387D02*
X1133Y387D01*
X1210Y387D02*
X1216Y387D01*
X1261Y387D02*
X1267Y387D01*
X1319Y387D02*
X1326Y387D01*
X1337Y387D02*
X1344Y387D01*
X1421Y387D02*
X1429Y387D01*
X1481Y387D02*
X1487Y387D01*
X1518Y387D02*
X1525Y387D01*
X1543Y387D02*
X1552Y387D01*
X1583Y387D02*
X1590Y387D01*
X1621Y387D02*
X1627Y387D01*
X1649Y387D02*
X1655Y387D01*
X1678Y387D02*
X1686Y387D01*
X748Y386D02*
X755Y386D01*
X774Y386D02*
X781Y386D01*
X850Y386D02*
X883Y386D01*
X901Y386D02*
X908Y386D01*
X954Y386D02*
X962Y386D01*
X1010Y386D02*
X1019Y386D01*
X1125Y386D02*
X1133Y386D01*
X1210Y386D02*
X1216Y386D01*
X1261Y386D02*
X1267Y386D01*
X1319Y386D02*
X1326Y386D01*
X1337Y386D02*
X1345Y386D01*
X1421Y386D02*
X1430Y386D01*
X1481Y386D02*
X1487Y386D01*
X1518Y386D02*
X1551Y386D01*
X1583Y386D02*
X1590Y386D01*
X1621Y386D02*
X1627Y386D01*
X1649Y386D02*
X1655Y386D01*
X1678Y386D02*
X1687Y386D01*
X749Y385D02*
X755Y385D01*
X774Y385D02*
X780Y385D01*
X850Y385D02*
X883Y385D01*
X901Y385D02*
X908Y385D01*
X954Y385D02*
X961Y385D01*
X1011Y385D02*
X1019Y385D01*
X1125Y385D02*
X1132Y385D01*
X1210Y385D02*
X1216Y385D01*
X1261Y385D02*
X1267Y385D01*
X1319Y385D02*
X1326Y385D01*
X1338Y385D02*
X1345Y385D01*
X1422Y385D02*
X1431Y385D01*
X1481Y385D02*
X1487Y385D01*
X1518Y385D02*
X1551Y385D01*
X1583Y385D02*
X1590Y385D01*
X1621Y385D02*
X1627Y385D01*
X1649Y385D02*
X1655Y385D01*
X1679Y385D02*
X1687Y385D01*
X749Y384D02*
X756Y384D01*
X773Y384D02*
X780Y384D01*
X850Y384D02*
X882Y384D01*
X901Y384D02*
X908Y384D01*
X953Y384D02*
X960Y384D01*
X1012Y384D02*
X1020Y384D01*
X1124Y384D02*
X1132Y384D01*
X1210Y384D02*
X1216Y384D01*
X1261Y384D02*
X1267Y384D01*
X1319Y384D02*
X1326Y384D01*
X1338Y384D02*
X1345Y384D01*
X1423Y384D02*
X1431Y384D01*
X1481Y384D02*
X1487Y384D01*
X1518Y384D02*
X1550Y384D01*
X1583Y384D02*
X1590Y384D01*
X1621Y384D02*
X1627Y384D01*
X1649Y384D02*
X1655Y384D01*
X1680Y384D02*
X1688Y384D01*
X749Y383D02*
X756Y383D01*
X773Y383D02*
X780Y383D01*
X850Y383D02*
X881Y383D01*
X901Y383D02*
X908Y383D01*
X953Y383D02*
X960Y383D01*
X1013Y383D02*
X1021Y383D01*
X1124Y383D02*
X1131Y383D01*
X1210Y383D02*
X1216Y383D01*
X1261Y383D02*
X1267Y383D01*
X1319Y383D02*
X1326Y383D01*
X1339Y383D02*
X1346Y383D01*
X1424Y383D02*
X1432Y383D01*
X1481Y383D02*
X1487Y383D01*
X1518Y383D02*
X1549Y383D01*
X1583Y383D02*
X1590Y383D01*
X1621Y383D02*
X1627Y383D01*
X1649Y383D02*
X1655Y383D01*
X1681Y383D02*
X1689Y383D01*
X750Y382D02*
X757Y382D01*
X772Y382D02*
X779Y382D01*
X850Y382D02*
X880Y382D01*
X901Y382D02*
X908Y382D01*
X953Y382D02*
X959Y382D01*
X1014Y382D02*
X1022Y382D01*
X1123Y382D02*
X1131Y382D01*
X1210Y382D02*
X1216Y382D01*
X1261Y382D02*
X1267Y382D01*
X1319Y382D02*
X1326Y382D01*
X1339Y382D02*
X1346Y382D01*
X1425Y382D02*
X1433Y382D01*
X1481Y382D02*
X1487Y382D01*
X1518Y382D02*
X1548Y382D01*
X1583Y382D02*
X1590Y382D01*
X1621Y382D02*
X1627Y382D01*
X1649Y382D02*
X1655Y382D01*
X1681Y382D02*
X1690Y382D01*
X750Y381D02*
X757Y381D01*
X772Y381D02*
X779Y381D01*
X850Y381D02*
X879Y381D01*
X901Y381D02*
X908Y381D01*
X953Y381D02*
X959Y381D01*
X1014Y381D02*
X1023Y381D01*
X1123Y381D02*
X1130Y381D01*
X1210Y381D02*
X1216Y381D01*
X1261Y381D02*
X1268Y381D01*
X1319Y381D02*
X1326Y381D01*
X1340Y381D02*
X1346Y381D01*
X1425Y381D02*
X1434Y381D01*
X1481Y381D02*
X1487Y381D01*
X1518Y381D02*
X1547Y381D01*
X1583Y381D02*
X1590Y381D01*
X1621Y381D02*
X1627Y381D01*
X1649Y381D02*
X1655Y381D01*
X1682Y381D02*
X1691Y381D01*
X751Y380D02*
X757Y380D01*
X772Y380D02*
X778Y380D01*
X800Y380D02*
X832Y380D01*
X850Y380D02*
X876Y380D01*
X901Y380D02*
X920Y380D01*
X953Y380D02*
X959Y380D01*
X1015Y380D02*
X1023Y380D01*
X1122Y380D02*
X1129Y380D01*
X1210Y380D02*
X1216Y380D01*
X1261Y380D02*
X1280Y380D01*
X1319Y380D02*
X1326Y380D01*
X1340Y380D02*
X1347Y380D01*
X1426Y380D02*
X1434Y380D01*
X1481Y380D02*
X1487Y380D01*
X1518Y380D02*
X1544Y380D01*
X1583Y380D02*
X1590Y380D01*
X1621Y380D02*
X1627Y380D01*
X1649Y380D02*
X1655Y380D01*
X1683Y380D02*
X1691Y380D01*
X751Y379D02*
X758Y379D01*
X771Y379D02*
X778Y379D01*
X799Y379D02*
X833Y379D01*
X850Y379D02*
X856Y379D01*
X863Y379D02*
X870Y379D01*
X901Y379D02*
X921Y379D01*
X953Y379D02*
X959Y379D01*
X1016Y379D02*
X1024Y379D01*
X1121Y379D02*
X1129Y379D01*
X1210Y379D02*
X1216Y379D01*
X1261Y379D02*
X1281Y379D01*
X1319Y379D02*
X1326Y379D01*
X1341Y379D02*
X1347Y379D01*
X1427Y379D02*
X1435Y379D01*
X1481Y379D02*
X1487Y379D01*
X1518Y379D02*
X1524Y379D01*
X1530Y379D02*
X1538Y379D01*
X1583Y379D02*
X1590Y379D01*
X1621Y379D02*
X1627Y379D01*
X1648Y379D02*
X1655Y379D01*
X1684Y379D02*
X1692Y379D01*
X751Y378D02*
X758Y378D01*
X771Y378D02*
X778Y378D01*
X799Y378D02*
X833Y378D01*
X850Y378D02*
X856Y378D01*
X863Y378D02*
X871Y378D01*
X901Y378D02*
X922Y378D01*
X953Y378D02*
X959Y378D01*
X1017Y378D02*
X1025Y378D01*
X1121Y378D02*
X1128Y378D01*
X1210Y378D02*
X1216Y378D01*
X1261Y378D02*
X1281Y378D01*
X1319Y378D02*
X1326Y378D01*
X1341Y378D02*
X1347Y378D01*
X1428Y378D02*
X1436Y378D01*
X1481Y378D02*
X1487Y378D01*
X1518Y378D02*
X1524Y378D01*
X1531Y378D02*
X1539Y378D01*
X1583Y378D02*
X1590Y378D01*
X1621Y378D02*
X1627Y378D01*
X1646Y378D02*
X1655Y378D01*
X1685Y378D02*
X1693Y378D01*
X752Y377D02*
X759Y377D01*
X770Y377D02*
X777Y377D01*
X799Y377D02*
X833Y377D01*
X850Y377D02*
X856Y377D01*
X864Y377D02*
X871Y377D01*
X901Y377D02*
X922Y377D01*
X953Y377D02*
X959Y377D01*
X1017Y377D02*
X1026Y377D01*
X1120Y377D02*
X1128Y377D01*
X1210Y377D02*
X1216Y377D01*
X1261Y377D02*
X1281Y377D01*
X1319Y377D02*
X1326Y377D01*
X1341Y377D02*
X1347Y377D01*
X1428Y377D02*
X1437Y377D01*
X1481Y377D02*
X1487Y377D01*
X1518Y377D02*
X1524Y377D01*
X1532Y377D02*
X1539Y377D01*
X1583Y377D02*
X1590Y377D01*
X1621Y377D02*
X1654Y377D01*
X1685Y377D02*
X1694Y377D01*
X752Y376D02*
X759Y376D01*
X770Y376D02*
X777Y376D01*
X799Y376D02*
X833Y376D01*
X850Y376D02*
X856Y376D01*
X864Y376D02*
X872Y376D01*
X901Y376D02*
X921Y376D01*
X953Y376D02*
X959Y376D01*
X1018Y376D02*
X1026Y376D01*
X1120Y376D02*
X1127Y376D01*
X1210Y376D02*
X1216Y376D01*
X1261Y376D02*
X1281Y376D01*
X1319Y376D02*
X1326Y376D01*
X1341Y376D02*
X1347Y376D01*
X1429Y376D02*
X1438Y376D01*
X1481Y376D02*
X1487Y376D01*
X1518Y376D02*
X1524Y376D01*
X1532Y376D02*
X1540Y376D01*
X1583Y376D02*
X1590Y376D01*
X1621Y376D02*
X1654Y376D01*
X1686Y376D02*
X1694Y376D01*
X753Y375D02*
X759Y375D01*
X770Y375D02*
X776Y375D01*
X799Y375D02*
X833Y375D01*
X850Y375D02*
X856Y375D01*
X865Y375D02*
X872Y375D01*
X901Y375D02*
X921Y375D01*
X953Y375D02*
X959Y375D01*
X1019Y375D02*
X1027Y375D01*
X1119Y375D02*
X1126Y375D01*
X1210Y375D02*
X1216Y375D01*
X1261Y375D02*
X1280Y375D01*
X1319Y375D02*
X1326Y375D01*
X1340Y375D02*
X1347Y375D01*
X1430Y375D02*
X1438Y375D01*
X1481Y375D02*
X1487Y375D01*
X1518Y375D02*
X1524Y375D01*
X1533Y375D02*
X1540Y375D01*
X1583Y375D02*
X1590Y375D01*
X1621Y375D02*
X1653Y375D01*
X1687Y375D02*
X1695Y375D01*
X753Y374D02*
X760Y374D01*
X769Y374D02*
X776Y374D01*
X799Y374D02*
X833Y374D01*
X850Y374D02*
X856Y374D01*
X865Y374D02*
X873Y374D01*
X901Y374D02*
X919Y374D01*
X953Y374D02*
X959Y374D01*
X972Y374D02*
X987Y374D01*
X1020Y374D02*
X1028Y374D01*
X1118Y374D02*
X1126Y374D01*
X1210Y374D02*
X1216Y374D01*
X1261Y374D02*
X1279Y374D01*
X1319Y374D02*
X1326Y374D01*
X1340Y374D02*
X1347Y374D01*
X1431Y374D02*
X1439Y374D01*
X1481Y374D02*
X1487Y374D01*
X1518Y374D02*
X1524Y374D01*
X1533Y374D02*
X1541Y374D01*
X1583Y374D02*
X1590Y374D01*
X1621Y374D02*
X1652Y374D01*
X1688Y374D02*
X1696Y374D01*
X753Y373D02*
X760Y373D01*
X769Y373D02*
X776Y373D01*
X799Y373D02*
X833Y373D01*
X850Y373D02*
X856Y373D01*
X866Y373D02*
X874Y373D01*
X901Y373D02*
X908Y373D01*
X953Y373D02*
X959Y373D01*
X971Y373D02*
X987Y373D01*
X1021Y373D02*
X1029Y373D01*
X1118Y373D02*
X1125Y373D01*
X1210Y373D02*
X1216Y373D01*
X1261Y373D02*
X1267Y373D01*
X1319Y373D02*
X1326Y373D01*
X1340Y373D02*
X1346Y373D01*
X1432Y373D02*
X1440Y373D01*
X1481Y373D02*
X1487Y373D01*
X1518Y373D02*
X1524Y373D01*
X1534Y373D02*
X1541Y373D01*
X1583Y373D02*
X1590Y373D01*
X1621Y373D02*
X1651Y373D01*
X1688Y373D02*
X1697Y373D01*
X754Y372D02*
X761Y372D01*
X768Y372D02*
X775Y372D01*
X800Y372D02*
X832Y372D01*
X850Y372D02*
X856Y372D01*
X867Y372D02*
X874Y372D01*
X901Y372D02*
X908Y372D01*
X953Y372D02*
X959Y372D01*
X971Y372D02*
X987Y372D01*
X1021Y372D02*
X1030Y372D01*
X1117Y372D02*
X1125Y372D01*
X1210Y372D02*
X1216Y372D01*
X1261Y372D02*
X1267Y372D01*
X1319Y372D02*
X1326Y372D01*
X1339Y372D02*
X1346Y372D01*
X1432Y372D02*
X1441Y372D01*
X1481Y372D02*
X1487Y372D01*
X1518Y372D02*
X1524Y372D01*
X1535Y372D02*
X1542Y372D01*
X1583Y372D02*
X1590Y372D01*
X1621Y372D02*
X1649Y372D01*
X1689Y372D02*
X1698Y372D01*
X754Y371D02*
X761Y371D01*
X768Y371D02*
X775Y371D01*
X801Y371D02*
X831Y371D01*
X850Y371D02*
X856Y371D01*
X867Y371D02*
X875Y371D01*
X901Y371D02*
X908Y371D01*
X953Y371D02*
X959Y371D01*
X971Y371D02*
X987Y371D01*
X1022Y371D02*
X1030Y371D01*
X1117Y371D02*
X1124Y371D01*
X1210Y371D02*
X1216Y371D01*
X1261Y371D02*
X1267Y371D01*
X1319Y371D02*
X1326Y371D01*
X1339Y371D02*
X1346Y371D01*
X1433Y371D02*
X1441Y371D01*
X1481Y371D02*
X1487Y371D01*
X1518Y371D02*
X1524Y371D01*
X1535Y371D02*
X1543Y371D01*
X1583Y371D02*
X1590Y371D01*
X1621Y371D02*
X1647Y371D01*
X1690Y371D02*
X1698Y371D01*
X755Y370D02*
X761Y370D01*
X768Y370D02*
X774Y370D01*
X850Y370D02*
X856Y370D01*
X868Y370D02*
X875Y370D01*
X901Y370D02*
X908Y370D01*
X953Y370D02*
X959Y370D01*
X971Y370D02*
X987Y370D01*
X1023Y370D02*
X1031Y370D01*
X1116Y370D02*
X1124Y370D01*
X1210Y370D02*
X1216Y370D01*
X1261Y370D02*
X1267Y370D01*
X1319Y370D02*
X1326Y370D01*
X1338Y370D02*
X1345Y370D01*
X1434Y370D02*
X1442Y370D01*
X1481Y370D02*
X1487Y370D01*
X1518Y370D02*
X1524Y370D01*
X1536Y370D02*
X1543Y370D01*
X1583Y370D02*
X1590Y370D01*
X1621Y370D02*
X1627Y370D01*
X1691Y370D02*
X1699Y370D01*
X755Y369D02*
X762Y369D01*
X767Y369D02*
X774Y369D01*
X850Y369D02*
X856Y369D01*
X868Y369D02*
X876Y369D01*
X901Y369D02*
X908Y369D01*
X953Y369D02*
X959Y369D01*
X971Y369D02*
X987Y369D01*
X1024Y369D02*
X1032Y369D01*
X1116Y369D02*
X1123Y369D01*
X1210Y369D02*
X1216Y369D01*
X1261Y369D02*
X1267Y369D01*
X1319Y369D02*
X1326Y369D01*
X1338Y369D02*
X1345Y369D01*
X1435Y369D02*
X1443Y369D01*
X1481Y369D02*
X1487Y369D01*
X1518Y369D02*
X1524Y369D01*
X1536Y369D02*
X1544Y369D01*
X1583Y369D02*
X1590Y369D01*
X1621Y369D02*
X1627Y369D01*
X1692Y369D02*
X1700Y369D01*
X755Y368D02*
X762Y368D01*
X767Y368D02*
X774Y368D01*
X850Y368D02*
X856Y368D01*
X869Y368D02*
X876Y368D01*
X901Y368D02*
X908Y368D01*
X953Y368D02*
X959Y368D01*
X973Y368D02*
X987Y368D01*
X1024Y368D02*
X1033Y368D01*
X1115Y368D02*
X1122Y368D01*
X1210Y368D02*
X1216Y368D01*
X1261Y368D02*
X1267Y368D01*
X1319Y368D02*
X1326Y368D01*
X1337Y368D02*
X1344Y368D01*
X1435Y368D02*
X1444Y368D01*
X1481Y368D02*
X1487Y368D01*
X1518Y368D02*
X1524Y368D01*
X1537Y368D02*
X1544Y368D01*
X1583Y368D02*
X1590Y368D01*
X1621Y368D02*
X1627Y368D01*
X1692Y368D02*
X1701Y368D01*
X756Y367D02*
X762Y367D01*
X767Y367D02*
X773Y367D01*
X850Y367D02*
X856Y367D01*
X870Y367D02*
X877Y367D01*
X901Y367D02*
X908Y367D01*
X953Y367D02*
X959Y367D01*
X981Y367D02*
X987Y367D01*
X1025Y367D02*
X1034Y367D01*
X1114Y367D02*
X1122Y367D01*
X1210Y367D02*
X1216Y367D01*
X1261Y367D02*
X1267Y367D01*
X1319Y367D02*
X1326Y367D01*
X1337Y367D02*
X1344Y367D01*
X1436Y367D02*
X1445Y367D01*
X1481Y367D02*
X1487Y367D01*
X1518Y367D02*
X1524Y367D01*
X1538Y367D02*
X1545Y367D01*
X1583Y367D02*
X1590Y367D01*
X1621Y367D02*
X1627Y367D01*
X1693Y367D02*
X1701Y367D01*
X756Y366D02*
X763Y366D01*
X766Y366D02*
X773Y366D01*
X850Y366D02*
X856Y366D01*
X870Y366D02*
X878Y366D01*
X901Y366D02*
X908Y366D01*
X953Y366D02*
X959Y366D01*
X981Y366D02*
X987Y366D01*
X1026Y366D02*
X1034Y366D01*
X1114Y366D02*
X1121Y366D01*
X1210Y366D02*
X1216Y366D01*
X1261Y366D02*
X1267Y366D01*
X1319Y366D02*
X1326Y366D01*
X1336Y366D02*
X1343Y366D01*
X1437Y366D02*
X1445Y366D01*
X1481Y366D02*
X1487Y366D01*
X1518Y366D02*
X1524Y366D01*
X1538Y366D02*
X1546Y366D01*
X1583Y366D02*
X1590Y366D01*
X1621Y366D02*
X1627Y366D01*
X1694Y366D02*
X1702Y366D01*
X756Y365D02*
X763Y365D01*
X766Y365D02*
X773Y365D01*
X850Y365D02*
X856Y365D01*
X871Y365D02*
X878Y365D01*
X901Y365D02*
X908Y365D01*
X953Y365D02*
X959Y365D01*
X981Y365D02*
X987Y365D01*
X1027Y365D02*
X1035Y365D01*
X1113Y365D02*
X1121Y365D01*
X1210Y365D02*
X1216Y365D01*
X1261Y365D02*
X1267Y365D01*
X1319Y365D02*
X1326Y365D01*
X1336Y365D02*
X1343Y365D01*
X1438Y365D02*
X1446Y365D01*
X1481Y365D02*
X1487Y365D01*
X1518Y365D02*
X1524Y365D01*
X1539Y365D02*
X1546Y365D01*
X1583Y365D02*
X1590Y365D01*
X1621Y365D02*
X1627Y365D01*
X1695Y365D02*
X1703Y365D01*
X757Y364D02*
X772Y364D01*
X850Y364D02*
X856Y364D01*
X871Y364D02*
X879Y364D01*
X901Y364D02*
X908Y364D01*
X953Y364D02*
X959Y364D01*
X981Y364D02*
X987Y364D01*
X1028Y364D02*
X1036Y364D01*
X1113Y364D02*
X1120Y364D01*
X1210Y364D02*
X1216Y364D01*
X1261Y364D02*
X1267Y364D01*
X1319Y364D02*
X1326Y364D01*
X1335Y364D02*
X1342Y364D01*
X1439Y364D02*
X1447Y364D01*
X1481Y364D02*
X1487Y364D01*
X1518Y364D02*
X1524Y364D01*
X1539Y364D02*
X1547Y364D01*
X1583Y364D02*
X1590Y364D01*
X1621Y364D02*
X1627Y364D01*
X1695Y364D02*
X1704Y364D01*
X757Y363D02*
X772Y363D01*
X850Y363D02*
X856Y363D01*
X872Y363D02*
X879Y363D01*
X901Y363D02*
X908Y363D01*
X953Y363D02*
X959Y363D01*
X981Y363D02*
X987Y363D01*
X1028Y363D02*
X1037Y363D01*
X1112Y363D02*
X1119Y363D01*
X1210Y363D02*
X1216Y363D01*
X1261Y363D02*
X1267Y363D01*
X1319Y363D02*
X1326Y363D01*
X1335Y363D02*
X1342Y363D01*
X1439Y363D02*
X1448Y363D01*
X1481Y363D02*
X1487Y363D01*
X1518Y363D02*
X1524Y363D01*
X1540Y363D02*
X1547Y363D01*
X1583Y363D02*
X1590Y363D01*
X1621Y363D02*
X1627Y363D01*
X1696Y363D02*
X1705Y363D01*
X758Y362D02*
X771Y362D01*
X850Y362D02*
X856Y362D01*
X873Y362D02*
X880Y362D01*
X901Y362D02*
X908Y362D01*
X953Y362D02*
X959Y362D01*
X981Y362D02*
X987Y362D01*
X1006Y362D02*
X1009Y362D01*
X1029Y362D02*
X1037Y362D01*
X1111Y362D02*
X1119Y362D01*
X1210Y362D02*
X1216Y362D01*
X1261Y362D02*
X1267Y362D01*
X1319Y362D02*
X1326Y362D01*
X1334Y362D02*
X1341Y362D01*
X1417Y362D02*
X1420Y362D01*
X1440Y362D02*
X1448Y362D01*
X1481Y362D02*
X1487Y362D01*
X1518Y362D02*
X1524Y362D01*
X1540Y362D02*
X1548Y362D01*
X1583Y362D02*
X1590Y362D01*
X1621Y362D02*
X1627Y362D01*
X1674Y362D02*
X1677Y362D01*
X1697Y362D02*
X1705Y362D01*
X758Y361D02*
X771Y361D01*
X850Y361D02*
X856Y361D01*
X873Y361D02*
X881Y361D01*
X901Y361D02*
X908Y361D01*
X953Y361D02*
X959Y361D01*
X981Y361D02*
X987Y361D01*
X1005Y361D02*
X1010Y361D01*
X1030Y361D02*
X1038Y361D01*
X1111Y361D02*
X1118Y361D01*
X1210Y361D02*
X1216Y361D01*
X1261Y361D02*
X1267Y361D01*
X1319Y361D02*
X1326Y361D01*
X1334Y361D02*
X1341Y361D01*
X1416Y361D02*
X1421Y361D01*
X1441Y361D02*
X1449Y361D01*
X1481Y361D02*
X1487Y361D01*
X1518Y361D02*
X1524Y361D01*
X1541Y361D02*
X1548Y361D01*
X1583Y361D02*
X1590Y361D01*
X1621Y361D02*
X1627Y361D01*
X1673Y361D02*
X1678Y361D01*
X1698Y361D02*
X1706Y361D01*
X758Y360D02*
X771Y360D01*
X850Y360D02*
X856Y360D01*
X874Y360D02*
X881Y360D01*
X901Y360D02*
X908Y360D01*
X953Y360D02*
X959Y360D01*
X981Y360D02*
X987Y360D01*
X1004Y360D02*
X1010Y360D01*
X1031Y360D02*
X1038Y360D01*
X1110Y360D02*
X1118Y360D01*
X1210Y360D02*
X1216Y360D01*
X1261Y360D02*
X1267Y360D01*
X1319Y360D02*
X1326Y360D01*
X1333Y360D02*
X1340Y360D01*
X1415Y360D02*
X1421Y360D01*
X1442Y360D02*
X1449Y360D01*
X1481Y360D02*
X1487Y360D01*
X1518Y360D02*
X1524Y360D01*
X1542Y360D02*
X1549Y360D01*
X1583Y360D02*
X1590Y360D01*
X1621Y360D02*
X1627Y360D01*
X1672Y360D02*
X1678Y360D01*
X1699Y360D02*
X1706Y360D01*
X759Y359D02*
X770Y359D01*
X850Y359D02*
X856Y359D01*
X874Y359D02*
X882Y359D01*
X901Y359D02*
X908Y359D01*
X953Y359D02*
X959Y359D01*
X981Y359D02*
X987Y359D01*
X1004Y359D02*
X1010Y359D01*
X1031Y359D02*
X1039Y359D01*
X1110Y359D02*
X1117Y359D01*
X1210Y359D02*
X1216Y359D01*
X1261Y359D02*
X1267Y359D01*
X1319Y359D02*
X1326Y359D01*
X1333Y359D02*
X1340Y359D01*
X1415Y359D02*
X1421Y359D01*
X1442Y359D02*
X1450Y359D01*
X1481Y359D02*
X1487Y359D01*
X1518Y359D02*
X1524Y359D01*
X1542Y359D02*
X1550Y359D01*
X1583Y359D02*
X1590Y359D01*
X1621Y359D02*
X1627Y359D01*
X1672Y359D02*
X1678Y359D01*
X1699Y359D02*
X1706Y359D01*
X759Y358D02*
X770Y358D01*
X850Y358D02*
X856Y358D01*
X875Y358D02*
X882Y358D01*
X901Y358D02*
X908Y358D01*
X953Y358D02*
X960Y358D01*
X980Y358D02*
X987Y358D01*
X1004Y358D02*
X1011Y358D01*
X1032Y358D02*
X1039Y358D01*
X1109Y358D02*
X1117Y358D01*
X1210Y358D02*
X1216Y358D01*
X1261Y358D02*
X1267Y358D01*
X1319Y358D02*
X1326Y358D01*
X1332Y358D02*
X1339Y358D01*
X1415Y358D02*
X1422Y358D01*
X1443Y358D02*
X1450Y358D01*
X1481Y358D02*
X1487Y358D01*
X1518Y358D02*
X1524Y358D01*
X1543Y358D02*
X1550Y358D01*
X1583Y358D02*
X1590Y358D01*
X1621Y358D02*
X1627Y358D01*
X1672Y358D02*
X1679Y358D01*
X1700Y358D02*
X1707Y358D01*
X760Y357D02*
X769Y357D01*
X850Y357D02*
X856Y357D01*
X875Y357D02*
X883Y357D01*
X901Y357D02*
X908Y357D01*
X953Y357D02*
X961Y357D01*
X979Y357D02*
X987Y357D01*
X1004Y357D02*
X1012Y357D01*
X1032Y357D02*
X1039Y357D01*
X1109Y357D02*
X1116Y357D01*
X1210Y357D02*
X1216Y357D01*
X1261Y357D02*
X1267Y357D01*
X1319Y357D02*
X1326Y357D01*
X1331Y357D02*
X1339Y357D01*
X1415Y357D02*
X1423Y357D01*
X1443Y357D02*
X1450Y357D01*
X1481Y357D02*
X1487Y357D01*
X1518Y357D02*
X1524Y357D01*
X1543Y357D02*
X1551Y357D01*
X1583Y357D02*
X1590Y357D01*
X1621Y357D02*
X1627Y357D01*
X1672Y357D02*
X1680Y357D01*
X1700Y357D02*
X1707Y357D01*
X760Y356D02*
X769Y356D01*
X850Y356D02*
X856Y356D01*
X876Y356D02*
X883Y356D01*
X901Y356D02*
X934Y356D01*
X954Y356D02*
X986Y356D01*
X1005Y356D02*
X1038Y356D01*
X1108Y356D02*
X1115Y356D01*
X1210Y356D02*
X1243Y356D01*
X1261Y356D02*
X1294Y356D01*
X1314Y356D02*
X1338Y356D01*
X1416Y356D02*
X1449Y356D01*
X1481Y356D02*
X1487Y356D01*
X1518Y356D02*
X1524Y356D01*
X1544Y356D02*
X1551Y356D01*
X1571Y356D02*
X1602Y356D01*
X1621Y356D02*
X1627Y356D01*
X1673Y356D02*
X1706Y356D01*
X760Y355D02*
X769Y355D01*
X850Y355D02*
X856Y355D01*
X877Y355D02*
X884Y355D01*
X901Y355D02*
X935Y355D01*
X954Y355D02*
X986Y355D01*
X1005Y355D02*
X1038Y355D01*
X1107Y355D02*
X1115Y355D01*
X1210Y355D02*
X1244Y355D01*
X1261Y355D02*
X1295Y355D01*
X1313Y355D02*
X1338Y355D01*
X1416Y355D02*
X1449Y355D01*
X1481Y355D02*
X1487Y355D01*
X1518Y355D02*
X1524Y355D01*
X1545Y355D02*
X1552Y355D01*
X1570Y355D02*
X1603Y355D01*
X1621Y355D02*
X1627Y355D01*
X1673Y355D02*
X1706Y355D01*
X761Y354D02*
X768Y354D01*
X850Y354D02*
X856Y354D01*
X877Y354D02*
X884Y354D01*
X901Y354D02*
X936Y354D01*
X955Y354D02*
X985Y354D01*
X1006Y354D02*
X1038Y354D01*
X1107Y354D02*
X1114Y354D01*
X1210Y354D02*
X1244Y354D01*
X1261Y354D02*
X1295Y354D01*
X1313Y354D02*
X1337Y354D01*
X1417Y354D02*
X1449Y354D01*
X1481Y354D02*
X1487Y354D01*
X1518Y354D02*
X1524Y354D01*
X1545Y354D02*
X1552Y354D01*
X1569Y354D02*
X1604Y354D01*
X1621Y354D02*
X1627Y354D01*
X1674Y354D02*
X1706Y354D01*
X761Y353D02*
X768Y353D01*
X850Y353D02*
X856Y353D01*
X878Y353D02*
X884Y353D01*
X901Y353D02*
X936Y353D01*
X956Y353D02*
X984Y353D01*
X1006Y353D02*
X1037Y353D01*
X1107Y353D02*
X1114Y353D01*
X1210Y353D02*
X1244Y353D01*
X1261Y353D02*
X1296Y353D01*
X1312Y353D02*
X1336Y353D01*
X1417Y353D02*
X1448Y353D01*
X1481Y353D02*
X1487Y353D01*
X1518Y353D02*
X1524Y353D01*
X1546Y353D02*
X1552Y353D01*
X1569Y353D02*
X1604Y353D01*
X1621Y353D02*
X1627Y353D01*
X1674Y353D02*
X1705Y353D01*
X762Y352D02*
X767Y352D01*
X850Y352D02*
X856Y352D01*
X878Y352D02*
X884Y352D01*
X901Y352D02*
X936Y352D01*
X957Y352D02*
X983Y352D01*
X1007Y352D02*
X1036Y352D01*
X1107Y352D02*
X1113Y352D01*
X1210Y352D02*
X1244Y352D01*
X1261Y352D02*
X1295Y352D01*
X1313Y352D02*
X1335Y352D01*
X1418Y352D02*
X1447Y352D01*
X1481Y352D02*
X1487Y352D01*
X1518Y352D02*
X1524Y352D01*
X1546Y352D02*
X1552Y352D01*
X1570Y352D02*
X1604Y352D01*
X1621Y352D02*
X1627Y352D01*
X1675Y352D02*
X1704Y352D01*
X762Y351D02*
X767Y351D01*
X851Y351D02*
X855Y351D01*
X879Y351D02*
X884Y351D01*
X901Y351D02*
X935Y351D01*
X958Y351D02*
X982Y351D01*
X1009Y351D02*
X1035Y351D01*
X1108Y351D02*
X1112Y351D01*
X1210Y351D02*
X1243Y351D01*
X1261Y351D02*
X1295Y351D01*
X1313Y351D02*
X1334Y351D01*
X1420Y351D02*
X1446Y351D01*
X1481Y351D02*
X1486Y351D01*
X1519Y351D02*
X1523Y351D01*
X1547Y351D02*
X1552Y351D01*
X1570Y351D02*
X1603Y351D01*
X1621Y351D02*
X1626Y351D01*
X1677Y351D02*
X1703Y351D01*
X763Y350D02*
X766Y350D01*
X852Y350D02*
X854Y350D01*
X880Y350D02*
X883Y350D01*
X901Y350D02*
X934Y350D01*
X960Y350D02*
X980Y350D01*
X1011Y350D02*
X1033Y350D01*
X1109Y350D02*
X1111Y350D01*
X1210Y350D02*
X1242Y350D01*
X1261Y350D02*
X1294Y350D01*
X1314Y350D02*
X1332Y350D01*
X1422Y350D02*
X1444Y350D01*
X1483Y350D02*
X1485Y350D01*
X1520Y350D02*
X1522Y350D01*
X1548Y350D02*
X1551Y350D01*
X1571Y350D02*
X1602Y350D01*
X1623Y350D02*
X1625Y350D01*
X1679Y350D02*
X1701Y350D01*
X936Y304D02*
X948Y304D01*
X973Y304D02*
X985Y304D01*
X1011Y304D02*
X1054Y304D01*
X1083Y304D02*
X1107Y304D01*
X1155Y304D02*
X1198Y304D01*
X1224Y304D02*
X1270Y304D01*
X1299Y304D02*
X1303Y304D01*
X1338Y304D02*
X1342Y304D01*
X1368Y304D02*
X1406Y304D01*
X936Y303D02*
X949Y303D01*
X972Y303D02*
X985Y303D01*
X1010Y303D02*
X1056Y303D01*
X1082Y303D02*
X1110Y303D01*
X1154Y303D02*
X1200Y303D01*
X1224Y303D02*
X1272Y303D01*
X1298Y303D02*
X1304Y303D01*
X1337Y303D02*
X1344Y303D01*
X1368Y303D02*
X1409Y303D01*
X936Y302D02*
X950Y302D01*
X972Y302D02*
X985Y302D01*
X1009Y302D02*
X1056Y302D01*
X1081Y302D02*
X1111Y302D01*
X1153Y302D02*
X1200Y302D01*
X1224Y302D02*
X1272Y302D01*
X1297Y302D02*
X1305Y302D01*
X1336Y302D02*
X1344Y302D01*
X1368Y302D02*
X1410Y302D01*
X936Y301D02*
X951Y301D01*
X971Y301D02*
X985Y301D01*
X1009Y301D02*
X1057Y301D01*
X1081Y301D02*
X1113Y301D01*
X1153Y301D02*
X1201Y301D01*
X1224Y301D02*
X1273Y301D01*
X1297Y301D02*
X1305Y301D01*
X1336Y301D02*
X1345Y301D01*
X1368Y301D02*
X1412Y301D01*
X936Y300D02*
X951Y300D01*
X970Y300D02*
X985Y300D01*
X1008Y300D02*
X1057Y300D01*
X1080Y300D02*
X1114Y300D01*
X1152Y300D02*
X1201Y300D01*
X1224Y300D02*
X1273Y300D01*
X1296Y300D02*
X1306Y300D01*
X1335Y300D02*
X1345Y300D01*
X1368Y300D02*
X1413Y300D01*
X936Y299D02*
X952Y299D01*
X969Y299D02*
X985Y299D01*
X1008Y299D02*
X1057Y299D01*
X1080Y299D02*
X1115Y299D01*
X1152Y299D02*
X1201Y299D01*
X1224Y299D02*
X1273Y299D01*
X1296Y299D02*
X1307Y299D01*
X1335Y299D02*
X1345Y299D01*
X1368Y299D02*
X1414Y299D01*
X936Y298D02*
X953Y298D01*
X969Y298D02*
X985Y298D01*
X1009Y298D02*
X1057Y298D01*
X1081Y298D02*
X1115Y298D01*
X1153Y298D02*
X1201Y298D01*
X1224Y298D02*
X1273Y298D01*
X1297Y298D02*
X1307Y298D01*
X1334Y298D02*
X1345Y298D01*
X1368Y298D02*
X1414Y298D01*
X936Y297D02*
X953Y297D01*
X968Y297D02*
X985Y297D01*
X1009Y297D02*
X1056Y297D01*
X1081Y297D02*
X1116Y297D01*
X1153Y297D02*
X1200Y297D01*
X1224Y297D02*
X1272Y297D01*
X1297Y297D02*
X1308Y297D01*
X1334Y297D02*
X1344Y297D01*
X1368Y297D02*
X1415Y297D01*
X936Y296D02*
X954Y296D01*
X967Y296D02*
X985Y296D01*
X1010Y296D02*
X1055Y296D01*
X1082Y296D02*
X1117Y296D01*
X1154Y296D02*
X1199Y296D01*
X1224Y296D02*
X1271Y296D01*
X1298Y296D02*
X1308Y296D01*
X1333Y296D02*
X1344Y296D01*
X1368Y296D02*
X1416Y296D01*
X936Y295D02*
X955Y295D01*
X967Y295D02*
X985Y295D01*
X1012Y295D02*
X1054Y295D01*
X1083Y295D02*
X1117Y295D01*
X1155Y295D02*
X1198Y295D01*
X1224Y295D02*
X1270Y295D01*
X1298Y295D02*
X1309Y295D01*
X1332Y295D02*
X1343Y295D01*
X1368Y295D02*
X1416Y295D01*
X936Y294D02*
X955Y294D01*
X966Y294D02*
X985Y294D01*
X1028Y294D02*
X1037Y294D01*
X1090Y294D02*
X1099Y294D01*
X1106Y294D02*
X1118Y294D01*
X1172Y294D02*
X1181Y294D01*
X1224Y294D02*
X1233Y294D01*
X1299Y294D02*
X1310Y294D01*
X1332Y294D02*
X1343Y294D01*
X1368Y294D02*
X1377Y294D01*
X1405Y294D02*
X1416Y294D01*
X936Y293D02*
X956Y293D01*
X965Y293D02*
X985Y293D01*
X1028Y293D02*
X1037Y293D01*
X1090Y293D02*
X1099Y293D01*
X1108Y293D02*
X1118Y293D01*
X1172Y293D02*
X1181Y293D01*
X1224Y293D02*
X1233Y293D01*
X1299Y293D02*
X1310Y293D01*
X1331Y293D02*
X1342Y293D01*
X1368Y293D02*
X1377Y293D01*
X1406Y293D02*
X1417Y293D01*
X936Y292D02*
X957Y292D01*
X965Y292D02*
X985Y292D01*
X1028Y292D02*
X1037Y292D01*
X1090Y292D02*
X1099Y292D01*
X1108Y292D02*
X1119Y292D01*
X1172Y292D02*
X1181Y292D01*
X1224Y292D02*
X1233Y292D01*
X1300Y292D02*
X1311Y292D01*
X1331Y292D02*
X1341Y292D01*
X1368Y292D02*
X1377Y292D01*
X1407Y292D02*
X1417Y292D01*
X936Y291D02*
X958Y291D01*
X964Y291D02*
X985Y291D01*
X1028Y291D02*
X1037Y291D01*
X1090Y291D02*
X1099Y291D01*
X1109Y291D02*
X1119Y291D01*
X1172Y291D02*
X1181Y291D01*
X1224Y291D02*
X1233Y291D01*
X1300Y291D02*
X1311Y291D01*
X1330Y291D02*
X1341Y291D01*
X1368Y291D02*
X1377Y291D01*
X1408Y291D02*
X1417Y291D01*
X936Y290D02*
X958Y290D01*
X963Y290D02*
X974Y290D01*
X976Y290D02*
X985Y290D01*
X1028Y290D02*
X1037Y290D01*
X1090Y290D02*
X1099Y290D01*
X1109Y290D02*
X1120Y290D01*
X1172Y290D02*
X1181Y290D01*
X1224Y290D02*
X1233Y290D01*
X1301Y290D02*
X1312Y290D01*
X1329Y290D02*
X1340Y290D01*
X1368Y290D02*
X1377Y290D01*
X1408Y290D02*
X1417Y290D01*
X936Y289D02*
X945Y289D01*
X948Y289D02*
X959Y289D01*
X962Y289D02*
X974Y289D01*
X976Y289D02*
X985Y289D01*
X1028Y289D02*
X1037Y289D01*
X1090Y289D02*
X1099Y289D01*
X1110Y289D02*
X1120Y289D01*
X1172Y289D02*
X1181Y289D01*
X1224Y289D02*
X1233Y289D01*
X1302Y289D02*
X1312Y289D01*
X1329Y289D02*
X1340Y289D01*
X1368Y289D02*
X1377Y289D01*
X1408Y289D02*
X1417Y289D01*
X936Y288D02*
X945Y288D01*
X948Y288D02*
X960Y288D01*
X962Y288D02*
X973Y288D01*
X976Y288D02*
X985Y288D01*
X1028Y288D02*
X1037Y288D01*
X1090Y288D02*
X1099Y288D01*
X1110Y288D02*
X1121Y288D01*
X1172Y288D02*
X1181Y288D01*
X1224Y288D02*
X1233Y288D01*
X1302Y288D02*
X1313Y288D01*
X1328Y288D02*
X1339Y288D01*
X1368Y288D02*
X1377Y288D01*
X1408Y288D02*
X1417Y288D01*
X936Y287D02*
X945Y287D01*
X949Y287D02*
X972Y287D01*
X976Y287D02*
X985Y287D01*
X1028Y287D02*
X1037Y287D01*
X1090Y287D02*
X1099Y287D01*
X1111Y287D02*
X1121Y287D01*
X1172Y287D02*
X1181Y287D01*
X1224Y287D02*
X1233Y287D01*
X1303Y287D02*
X1314Y287D01*
X1328Y287D02*
X1338Y287D01*
X1368Y287D02*
X1377Y287D01*
X1408Y287D02*
X1417Y287D01*
X936Y286D02*
X945Y286D01*
X950Y286D02*
X972Y286D01*
X976Y286D02*
X985Y286D01*
X1028Y286D02*
X1037Y286D01*
X1090Y286D02*
X1099Y286D01*
X1111Y286D02*
X1122Y286D01*
X1172Y286D02*
X1181Y286D01*
X1224Y286D02*
X1233Y286D01*
X1303Y286D02*
X1314Y286D01*
X1327Y286D02*
X1338Y286D01*
X1368Y286D02*
X1377Y286D01*
X1408Y286D02*
X1417Y286D01*
X936Y285D02*
X945Y285D01*
X950Y285D02*
X971Y285D01*
X976Y285D02*
X985Y285D01*
X1028Y285D02*
X1037Y285D01*
X1090Y285D02*
X1099Y285D01*
X1112Y285D02*
X1122Y285D01*
X1172Y285D02*
X1181Y285D01*
X1224Y285D02*
X1233Y285D01*
X1304Y285D02*
X1315Y285D01*
X1327Y285D02*
X1337Y285D01*
X1368Y285D02*
X1377Y285D01*
X1408Y285D02*
X1417Y285D01*
X936Y284D02*
X945Y284D01*
X951Y284D02*
X970Y284D01*
X976Y284D02*
X985Y284D01*
X1028Y284D02*
X1037Y284D01*
X1090Y284D02*
X1099Y284D01*
X1112Y284D02*
X1123Y284D01*
X1172Y284D02*
X1181Y284D01*
X1224Y284D02*
X1233Y284D01*
X1305Y284D02*
X1315Y284D01*
X1326Y284D02*
X1337Y284D01*
X1368Y284D02*
X1377Y284D01*
X1408Y284D02*
X1417Y284D01*
X936Y283D02*
X945Y283D01*
X952Y283D02*
X970Y283D01*
X976Y283D02*
X985Y283D01*
X1028Y283D02*
X1037Y283D01*
X1090Y283D02*
X1099Y283D01*
X1113Y283D02*
X1123Y283D01*
X1172Y283D02*
X1181Y283D01*
X1224Y283D02*
X1233Y283D01*
X1305Y283D02*
X1316Y283D01*
X1325Y283D02*
X1336Y283D01*
X1368Y283D02*
X1377Y283D01*
X1408Y283D02*
X1417Y283D01*
X936Y282D02*
X945Y282D01*
X953Y282D02*
X969Y282D01*
X976Y282D02*
X985Y282D01*
X1028Y282D02*
X1037Y282D01*
X1090Y282D02*
X1099Y282D01*
X1113Y282D02*
X1124Y282D01*
X1172Y282D02*
X1181Y282D01*
X1224Y282D02*
X1233Y282D01*
X1306Y282D02*
X1317Y282D01*
X1325Y282D02*
X1336Y282D01*
X1368Y282D02*
X1377Y282D01*
X1408Y282D02*
X1417Y282D01*
X936Y281D02*
X945Y281D01*
X953Y281D02*
X968Y281D01*
X976Y281D02*
X985Y281D01*
X1028Y281D02*
X1037Y281D01*
X1090Y281D02*
X1099Y281D01*
X1114Y281D02*
X1124Y281D01*
X1172Y281D02*
X1181Y281D01*
X1224Y281D02*
X1233Y281D01*
X1306Y281D02*
X1317Y281D01*
X1324Y281D02*
X1335Y281D01*
X1368Y281D02*
X1377Y281D01*
X1408Y281D02*
X1417Y281D01*
X936Y280D02*
X945Y280D01*
X954Y280D02*
X967Y280D01*
X976Y280D02*
X985Y280D01*
X1028Y280D02*
X1037Y280D01*
X1090Y280D02*
X1099Y280D01*
X1114Y280D02*
X1125Y280D01*
X1172Y280D02*
X1181Y280D01*
X1224Y280D02*
X1233Y280D01*
X1307Y280D02*
X1318Y280D01*
X1324Y280D02*
X1334Y280D01*
X1368Y280D02*
X1377Y280D01*
X1408Y280D02*
X1417Y280D01*
X936Y279D02*
X945Y279D01*
X955Y279D02*
X967Y279D01*
X976Y279D02*
X985Y279D01*
X1028Y279D02*
X1037Y279D01*
X1090Y279D02*
X1099Y279D01*
X1115Y279D02*
X1125Y279D01*
X1172Y279D02*
X1181Y279D01*
X1224Y279D02*
X1233Y279D01*
X1308Y279D02*
X1318Y279D01*
X1323Y279D02*
X1334Y279D01*
X1368Y279D02*
X1377Y279D01*
X1408Y279D02*
X1417Y279D01*
X936Y278D02*
X945Y278D01*
X955Y278D02*
X966Y278D01*
X976Y278D02*
X985Y278D01*
X1028Y278D02*
X1037Y278D01*
X1090Y278D02*
X1099Y278D01*
X1115Y278D02*
X1126Y278D01*
X1172Y278D02*
X1181Y278D01*
X1224Y278D02*
X1233Y278D01*
X1308Y278D02*
X1319Y278D01*
X1322Y278D02*
X1333Y278D01*
X1368Y278D02*
X1377Y278D01*
X1408Y278D02*
X1417Y278D01*
X936Y277D02*
X945Y277D01*
X956Y277D02*
X965Y277D01*
X976Y277D02*
X985Y277D01*
X1028Y277D02*
X1037Y277D01*
X1090Y277D02*
X1099Y277D01*
X1116Y277D02*
X1126Y277D01*
X1172Y277D02*
X1181Y277D01*
X1224Y277D02*
X1233Y277D01*
X1309Y277D02*
X1320Y277D01*
X1322Y277D02*
X1333Y277D01*
X1368Y277D02*
X1377Y277D01*
X1408Y277D02*
X1417Y277D01*
X936Y276D02*
X945Y276D01*
X956Y276D02*
X965Y276D01*
X976Y276D02*
X985Y276D01*
X1028Y276D02*
X1037Y276D01*
X1090Y276D02*
X1099Y276D01*
X1116Y276D02*
X1127Y276D01*
X1172Y276D02*
X1181Y276D01*
X1224Y276D02*
X1233Y276D01*
X1309Y276D02*
X1332Y276D01*
X1368Y276D02*
X1377Y276D01*
X1408Y276D02*
X1417Y276D01*
X936Y275D02*
X945Y275D01*
X956Y275D02*
X965Y275D01*
X976Y275D02*
X985Y275D01*
X1028Y275D02*
X1037Y275D01*
X1090Y275D02*
X1099Y275D01*
X1117Y275D02*
X1127Y275D01*
X1172Y275D02*
X1181Y275D01*
X1224Y275D02*
X1233Y275D01*
X1310Y275D02*
X1331Y275D01*
X1368Y275D02*
X1377Y275D01*
X1408Y275D02*
X1417Y275D01*
X936Y274D02*
X945Y274D01*
X956Y274D02*
X965Y274D01*
X976Y274D02*
X985Y274D01*
X1028Y274D02*
X1037Y274D01*
X1090Y274D02*
X1099Y274D01*
X1117Y274D02*
X1127Y274D01*
X1172Y274D02*
X1181Y274D01*
X1224Y274D02*
X1233Y274D01*
X1310Y274D02*
X1331Y274D01*
X1368Y274D02*
X1377Y274D01*
X1408Y274D02*
X1417Y274D01*
X936Y273D02*
X945Y273D01*
X956Y273D02*
X965Y273D01*
X976Y273D02*
X985Y273D01*
X1028Y273D02*
X1037Y273D01*
X1090Y273D02*
X1099Y273D01*
X1118Y273D02*
X1128Y273D01*
X1172Y273D02*
X1181Y273D01*
X1224Y273D02*
X1233Y273D01*
X1311Y273D02*
X1330Y273D01*
X1368Y273D02*
X1377Y273D01*
X1408Y273D02*
X1417Y273D01*
X936Y272D02*
X945Y272D01*
X957Y272D02*
X965Y272D01*
X976Y272D02*
X985Y272D01*
X1028Y272D02*
X1037Y272D01*
X1090Y272D02*
X1099Y272D01*
X1118Y272D02*
X1128Y272D01*
X1172Y272D02*
X1181Y272D01*
X1224Y272D02*
X1233Y272D01*
X1312Y272D02*
X1330Y272D01*
X1368Y272D02*
X1377Y272D01*
X1408Y272D02*
X1417Y272D01*
X936Y271D02*
X945Y271D01*
X957Y271D02*
X964Y271D01*
X976Y271D02*
X985Y271D01*
X1028Y271D02*
X1037Y271D01*
X1090Y271D02*
X1099Y271D01*
X1119Y271D02*
X1128Y271D01*
X1172Y271D02*
X1181Y271D01*
X1224Y271D02*
X1234Y271D01*
X1312Y271D02*
X1329Y271D01*
X1368Y271D02*
X1377Y271D01*
X1408Y271D02*
X1417Y271D01*
X936Y270D02*
X945Y270D01*
X959Y270D02*
X963Y270D01*
X976Y270D02*
X985Y270D01*
X1028Y270D02*
X1037Y270D01*
X1090Y270D02*
X1099Y270D01*
X1119Y270D02*
X1129Y270D01*
X1172Y270D02*
X1181Y270D01*
X1224Y270D02*
X1251Y270D01*
X1313Y270D02*
X1329Y270D01*
X1368Y270D02*
X1377Y270D01*
X1408Y270D02*
X1417Y270D01*
X936Y269D02*
X945Y269D01*
X976Y269D02*
X985Y269D01*
X1028Y269D02*
X1037Y269D01*
X1090Y269D02*
X1099Y269D01*
X1120Y269D02*
X1129Y269D01*
X1172Y269D02*
X1181Y269D01*
X1224Y269D02*
X1252Y269D01*
X1313Y269D02*
X1328Y269D01*
X1368Y269D02*
X1377Y269D01*
X1407Y269D02*
X1417Y269D01*
X936Y268D02*
X945Y268D01*
X976Y268D02*
X985Y268D01*
X1028Y268D02*
X1037Y268D01*
X1090Y268D02*
X1099Y268D01*
X1120Y268D02*
X1129Y268D01*
X1172Y268D02*
X1181Y268D01*
X1224Y268D02*
X1253Y268D01*
X1314Y268D02*
X1327Y268D01*
X1368Y268D02*
X1377Y268D01*
X1406Y268D02*
X1417Y268D01*
X936Y267D02*
X945Y267D01*
X976Y267D02*
X985Y267D01*
X1028Y267D02*
X1037Y267D01*
X1090Y267D02*
X1099Y267D01*
X1120Y267D02*
X1129Y267D01*
X1172Y267D02*
X1181Y267D01*
X1224Y267D02*
X1253Y267D01*
X1315Y267D02*
X1327Y267D01*
X1368Y267D02*
X1377Y267D01*
X1405Y267D02*
X1416Y267D01*
X936Y266D02*
X945Y266D01*
X976Y266D02*
X985Y266D01*
X1028Y266D02*
X1037Y266D01*
X1090Y266D02*
X1099Y266D01*
X1120Y266D02*
X1129Y266D01*
X1172Y266D02*
X1181Y266D01*
X1224Y266D02*
X1253Y266D01*
X1315Y266D02*
X1326Y266D01*
X1368Y266D02*
X1416Y266D01*
X936Y265D02*
X945Y265D01*
X976Y265D02*
X985Y265D01*
X1028Y265D02*
X1037Y265D01*
X1090Y265D02*
X1099Y265D01*
X1120Y265D02*
X1129Y265D01*
X1172Y265D02*
X1181Y265D01*
X1224Y265D02*
X1253Y265D01*
X1315Y265D02*
X1326Y265D01*
X1368Y265D02*
X1416Y265D01*
X936Y264D02*
X945Y264D01*
X976Y264D02*
X985Y264D01*
X1028Y264D02*
X1037Y264D01*
X1090Y264D02*
X1099Y264D01*
X1120Y264D02*
X1129Y264D01*
X1172Y264D02*
X1181Y264D01*
X1224Y264D02*
X1253Y264D01*
X1314Y264D02*
X1327Y264D01*
X1368Y264D02*
X1415Y264D01*
X936Y263D02*
X945Y263D01*
X976Y263D02*
X985Y263D01*
X1028Y263D02*
X1037Y263D01*
X1090Y263D02*
X1099Y263D01*
X1120Y263D02*
X1129Y263D01*
X1172Y263D02*
X1181Y263D01*
X1224Y263D02*
X1252Y263D01*
X1314Y263D02*
X1328Y263D01*
X1368Y263D02*
X1414Y263D01*
X936Y262D02*
X945Y262D01*
X976Y262D02*
X985Y262D01*
X1028Y262D02*
X1037Y262D01*
X1090Y262D02*
X1099Y262D01*
X1119Y262D02*
X1129Y262D01*
X1172Y262D02*
X1181Y262D01*
X1224Y262D02*
X1251Y262D01*
X1313Y262D02*
X1328Y262D01*
X1368Y262D02*
X1413Y262D01*
X936Y261D02*
X945Y261D01*
X976Y261D02*
X985Y261D01*
X1028Y261D02*
X1037Y261D01*
X1090Y261D02*
X1099Y261D01*
X1119Y261D02*
X1129Y261D01*
X1172Y261D02*
X1181Y261D01*
X1224Y261D02*
X1250Y261D01*
X1313Y261D02*
X1329Y261D01*
X1368Y261D02*
X1413Y261D01*
X936Y260D02*
X945Y260D01*
X976Y260D02*
X985Y260D01*
X1028Y260D02*
X1037Y260D01*
X1090Y260D02*
X1099Y260D01*
X1119Y260D02*
X1128Y260D01*
X1172Y260D02*
X1181Y260D01*
X1224Y260D02*
X1233Y260D01*
X1312Y260D02*
X1329Y260D01*
X1368Y260D02*
X1411Y260D01*
X936Y259D02*
X945Y259D01*
X976Y259D02*
X985Y259D01*
X1028Y259D02*
X1037Y259D01*
X1090Y259D02*
X1099Y259D01*
X1118Y259D02*
X1128Y259D01*
X1172Y259D02*
X1181Y259D01*
X1224Y259D02*
X1233Y259D01*
X1311Y259D02*
X1330Y259D01*
X1368Y259D02*
X1410Y259D01*
X936Y258D02*
X945Y258D01*
X976Y258D02*
X985Y258D01*
X1028Y258D02*
X1037Y258D01*
X1090Y258D02*
X1099Y258D01*
X1118Y258D02*
X1128Y258D01*
X1172Y258D02*
X1181Y258D01*
X1224Y258D02*
X1233Y258D01*
X1311Y258D02*
X1331Y258D01*
X1368Y258D02*
X1408Y258D01*
X936Y257D02*
X945Y257D01*
X976Y257D02*
X985Y257D01*
X1028Y257D02*
X1037Y257D01*
X1090Y257D02*
X1099Y257D01*
X1117Y257D02*
X1127Y257D01*
X1172Y257D02*
X1181Y257D01*
X1224Y257D02*
X1233Y257D01*
X1310Y257D02*
X1331Y257D01*
X1368Y257D02*
X1406Y257D01*
X936Y256D02*
X945Y256D01*
X976Y256D02*
X985Y256D01*
X1028Y256D02*
X1037Y256D01*
X1090Y256D02*
X1099Y256D01*
X1117Y256D02*
X1127Y256D01*
X1172Y256D02*
X1181Y256D01*
X1224Y256D02*
X1233Y256D01*
X1310Y256D02*
X1332Y256D01*
X1368Y256D02*
X1377Y256D01*
X936Y255D02*
X945Y255D01*
X976Y255D02*
X985Y255D01*
X1028Y255D02*
X1037Y255D01*
X1090Y255D02*
X1099Y255D01*
X1116Y255D02*
X1126Y255D01*
X1172Y255D02*
X1181Y255D01*
X1224Y255D02*
X1233Y255D01*
X1309Y255D02*
X1320Y255D01*
X1322Y255D02*
X1332Y255D01*
X1368Y255D02*
X1377Y255D01*
X936Y254D02*
X945Y254D01*
X976Y254D02*
X985Y254D01*
X1028Y254D02*
X1037Y254D01*
X1090Y254D02*
X1099Y254D01*
X1116Y254D02*
X1126Y254D01*
X1172Y254D02*
X1181Y254D01*
X1224Y254D02*
X1233Y254D01*
X1308Y254D02*
X1319Y254D01*
X1322Y254D02*
X1333Y254D01*
X1368Y254D02*
X1377Y254D01*
X936Y253D02*
X945Y253D01*
X976Y253D02*
X985Y253D01*
X1028Y253D02*
X1037Y253D01*
X1090Y253D02*
X1099Y253D01*
X1115Y253D02*
X1125Y253D01*
X1172Y253D02*
X1181Y253D01*
X1224Y253D02*
X1233Y253D01*
X1308Y253D02*
X1319Y253D01*
X1323Y253D02*
X1333Y253D01*
X1368Y253D02*
X1377Y253D01*
X936Y252D02*
X945Y252D01*
X976Y252D02*
X985Y252D01*
X1028Y252D02*
X1037Y252D01*
X1090Y252D02*
X1099Y252D01*
X1115Y252D02*
X1125Y252D01*
X1172Y252D02*
X1181Y252D01*
X1224Y252D02*
X1233Y252D01*
X1307Y252D02*
X1318Y252D01*
X1323Y252D02*
X1334Y252D01*
X1368Y252D02*
X1377Y252D01*
X936Y251D02*
X945Y251D01*
X976Y251D02*
X985Y251D01*
X1028Y251D02*
X1037Y251D01*
X1090Y251D02*
X1099Y251D01*
X1114Y251D02*
X1124Y251D01*
X1172Y251D02*
X1181Y251D01*
X1224Y251D02*
X1233Y251D01*
X1307Y251D02*
X1317Y251D01*
X1324Y251D02*
X1335Y251D01*
X1368Y251D02*
X1377Y251D01*
X936Y250D02*
X945Y250D01*
X976Y250D02*
X985Y250D01*
X1028Y250D02*
X1037Y250D01*
X1090Y250D02*
X1099Y250D01*
X1114Y250D02*
X1124Y250D01*
X1172Y250D02*
X1181Y250D01*
X1224Y250D02*
X1233Y250D01*
X1306Y250D02*
X1317Y250D01*
X1324Y250D02*
X1335Y250D01*
X1368Y250D02*
X1377Y250D01*
X936Y249D02*
X945Y249D01*
X976Y249D02*
X985Y249D01*
X1028Y249D02*
X1037Y249D01*
X1090Y249D02*
X1099Y249D01*
X1113Y249D02*
X1123Y249D01*
X1172Y249D02*
X1181Y249D01*
X1224Y249D02*
X1233Y249D01*
X1306Y249D02*
X1316Y249D01*
X1325Y249D02*
X1336Y249D01*
X1368Y249D02*
X1377Y249D01*
X936Y248D02*
X945Y248D01*
X976Y248D02*
X985Y248D01*
X1028Y248D02*
X1037Y248D01*
X1090Y248D02*
X1099Y248D01*
X1113Y248D02*
X1123Y248D01*
X1172Y248D02*
X1181Y248D01*
X1224Y248D02*
X1233Y248D01*
X1305Y248D02*
X1316Y248D01*
X1326Y248D02*
X1336Y248D01*
X1368Y248D02*
X1377Y248D01*
X936Y247D02*
X945Y247D01*
X976Y247D02*
X985Y247D01*
X1028Y247D02*
X1037Y247D01*
X1090Y247D02*
X1099Y247D01*
X1112Y247D02*
X1122Y247D01*
X1172Y247D02*
X1181Y247D01*
X1224Y247D02*
X1233Y247D01*
X1304Y247D02*
X1315Y247D01*
X1326Y247D02*
X1337Y247D01*
X1368Y247D02*
X1377Y247D01*
X936Y246D02*
X945Y246D01*
X976Y246D02*
X985Y246D01*
X1028Y246D02*
X1037Y246D01*
X1090Y246D02*
X1099Y246D01*
X1112Y246D02*
X1122Y246D01*
X1172Y246D02*
X1181Y246D01*
X1224Y246D02*
X1233Y246D01*
X1304Y246D02*
X1315Y246D01*
X1327Y246D02*
X1338Y246D01*
X1368Y246D02*
X1377Y246D01*
X936Y245D02*
X945Y245D01*
X976Y245D02*
X985Y245D01*
X1028Y245D02*
X1037Y245D01*
X1090Y245D02*
X1099Y245D01*
X1111Y245D02*
X1121Y245D01*
X1172Y245D02*
X1181Y245D01*
X1224Y245D02*
X1233Y245D01*
X1303Y245D02*
X1314Y245D01*
X1327Y245D02*
X1338Y245D01*
X1368Y245D02*
X1377Y245D01*
X936Y244D02*
X945Y244D01*
X976Y244D02*
X985Y244D01*
X1028Y244D02*
X1037Y244D01*
X1090Y244D02*
X1099Y244D01*
X1111Y244D02*
X1121Y244D01*
X1172Y244D02*
X1181Y244D01*
X1224Y244D02*
X1233Y244D01*
X1303Y244D02*
X1313Y244D01*
X1328Y244D02*
X1339Y244D01*
X1368Y244D02*
X1377Y244D01*
X936Y243D02*
X945Y243D01*
X976Y243D02*
X985Y243D01*
X1028Y243D02*
X1037Y243D01*
X1090Y243D02*
X1099Y243D01*
X1110Y243D02*
X1120Y243D01*
X1172Y243D02*
X1181Y243D01*
X1224Y243D02*
X1233Y243D01*
X1302Y243D02*
X1313Y243D01*
X1329Y243D02*
X1339Y243D01*
X1368Y243D02*
X1377Y243D01*
X936Y242D02*
X945Y242D01*
X976Y242D02*
X985Y242D01*
X1028Y242D02*
X1037Y242D01*
X1090Y242D02*
X1099Y242D01*
X1110Y242D02*
X1120Y242D01*
X1172Y242D02*
X1181Y242D01*
X1224Y242D02*
X1233Y242D01*
X1301Y242D02*
X1312Y242D01*
X1329Y242D02*
X1340Y242D01*
X1368Y242D02*
X1377Y242D01*
X936Y241D02*
X945Y241D01*
X976Y241D02*
X985Y241D01*
X1028Y241D02*
X1037Y241D01*
X1090Y241D02*
X1099Y241D01*
X1109Y241D02*
X1119Y241D01*
X1172Y241D02*
X1181Y241D01*
X1224Y241D02*
X1233Y241D01*
X1301Y241D02*
X1312Y241D01*
X1330Y241D02*
X1340Y241D01*
X1368Y241D02*
X1377Y241D01*
X936Y240D02*
X945Y240D01*
X976Y240D02*
X985Y240D01*
X1028Y240D02*
X1037Y240D01*
X1090Y240D02*
X1099Y240D01*
X1109Y240D02*
X1119Y240D01*
X1172Y240D02*
X1181Y240D01*
X1224Y240D02*
X1233Y240D01*
X1300Y240D02*
X1311Y240D01*
X1330Y240D02*
X1341Y240D01*
X1368Y240D02*
X1377Y240D01*
X936Y239D02*
X945Y239D01*
X976Y239D02*
X985Y239D01*
X1028Y239D02*
X1037Y239D01*
X1090Y239D02*
X1099Y239D01*
X1108Y239D02*
X1118Y239D01*
X1172Y239D02*
X1181Y239D01*
X1224Y239D02*
X1233Y239D01*
X1300Y239D02*
X1310Y239D01*
X1331Y239D02*
X1342Y239D01*
X1368Y239D02*
X1377Y239D01*
X936Y238D02*
X945Y238D01*
X976Y238D02*
X985Y238D01*
X1028Y238D02*
X1037Y238D01*
X1090Y238D02*
X1099Y238D01*
X1107Y238D02*
X1118Y238D01*
X1172Y238D02*
X1181Y238D01*
X1224Y238D02*
X1233Y238D01*
X1299Y238D02*
X1310Y238D01*
X1331Y238D02*
X1342Y238D01*
X1368Y238D02*
X1377Y238D01*
X936Y237D02*
X945Y237D01*
X976Y237D02*
X985Y237D01*
X1028Y237D02*
X1037Y237D01*
X1090Y237D02*
X1100Y237D01*
X1105Y237D02*
X1118Y237D01*
X1172Y237D02*
X1181Y237D01*
X1224Y237D02*
X1234Y237D01*
X1298Y237D02*
X1309Y237D01*
X1332Y237D02*
X1343Y237D01*
X1368Y237D02*
X1377Y237D01*
X936Y236D02*
X945Y236D01*
X976Y236D02*
X985Y236D01*
X1011Y236D02*
X1055Y236D01*
X1083Y236D02*
X1117Y236D01*
X1155Y236D02*
X1199Y236D01*
X1224Y236D02*
X1271Y236D01*
X1298Y236D02*
X1309Y236D01*
X1333Y236D02*
X1343Y236D01*
X1368Y236D02*
X1377Y236D01*
X936Y235D02*
X945Y235D01*
X976Y235D02*
X985Y235D01*
X1010Y235D02*
X1056Y235D01*
X1082Y235D02*
X1117Y235D01*
X1154Y235D02*
X1200Y235D01*
X1224Y235D02*
X1272Y235D01*
X1297Y235D02*
X1308Y235D01*
X1333Y235D02*
X1344Y235D01*
X1368Y235D02*
X1377Y235D01*
X936Y234D02*
X945Y234D01*
X976Y234D02*
X985Y234D01*
X1009Y234D02*
X1057Y234D01*
X1081Y234D02*
X1116Y234D01*
X1153Y234D02*
X1201Y234D01*
X1224Y234D02*
X1273Y234D01*
X1297Y234D02*
X1308Y234D01*
X1334Y234D02*
X1345Y234D01*
X1368Y234D02*
X1377Y234D01*
X936Y233D02*
X945Y233D01*
X976Y233D02*
X985Y233D01*
X1009Y233D02*
X1057Y233D01*
X1081Y233D02*
X1115Y233D01*
X1153Y233D02*
X1201Y233D01*
X1224Y233D02*
X1273Y233D01*
X1296Y233D02*
X1307Y233D01*
X1334Y233D02*
X1345Y233D01*
X1368Y233D02*
X1377Y233D01*
X936Y232D02*
X945Y232D01*
X976Y232D02*
X985Y232D01*
X1008Y232D02*
X1057Y232D01*
X1080Y232D02*
X1115Y232D01*
X1152Y232D02*
X1201Y232D01*
X1224Y232D02*
X1273Y232D01*
X1296Y232D02*
X1306Y232D01*
X1335Y232D02*
X1345Y232D01*
X1368Y232D02*
X1377Y232D01*
X936Y231D02*
X945Y231D01*
X976Y231D02*
X985Y231D01*
X1008Y231D02*
X1057Y231D01*
X1080Y231D02*
X1114Y231D01*
X1152Y231D02*
X1201Y231D01*
X1224Y231D02*
X1273Y231D01*
X1296Y231D02*
X1306Y231D01*
X1336Y231D02*
X1345Y231D01*
X1368Y231D02*
X1377Y231D01*
X937Y230D02*
X945Y230D01*
X976Y230D02*
X985Y230D01*
X1009Y230D02*
X1057Y230D01*
X1081Y230D02*
X1112Y230D01*
X1153Y230D02*
X1201Y230D01*
X1224Y230D02*
X1273Y230D01*
X1297Y230D02*
X1305Y230D01*
X1336Y230D02*
X1345Y230D01*
X1369Y230D02*
X1377Y230D01*
X937Y229D02*
X944Y229D01*
X977Y229D02*
X984Y229D01*
X1009Y229D02*
X1056Y229D01*
X1081Y229D02*
X1111Y229D01*
X1153Y229D02*
X1200Y229D01*
X1224Y229D02*
X1272Y229D01*
X1297Y229D02*
X1305Y229D01*
X1337Y229D02*
X1344Y229D01*
X1369Y229D02*
X1376Y229D01*
X938Y228D02*
X944Y228D01*
X978Y228D02*
X983Y228D01*
X1010Y228D02*
X1055Y228D01*
X1082Y228D02*
X1109Y228D01*
X1154Y228D02*
X1199Y228D01*
X1224Y228D02*
X1271Y228D01*
X1298Y228D02*
X1304Y228D01*
X1338Y228D02*
X1343Y228D01*
X1370Y228D02*
X1376Y228D01*
X940Y227D02*
X942Y227D01*
X980Y227D02*
X981Y227D01*
X1012Y227D02*
X1053Y227D01*
X1084Y227D02*
X1106Y227D01*
X1156Y227D02*
X1197Y227D01*
X1224Y227D02*
X1269Y227D01*
X1300Y227D02*
X1302Y227D01*
X1339Y227D02*
X1341Y227D01*
X1372Y227D02*
X1374Y227D01*
D02*
G04 End of Copper1*
M02*