G04 MADE WITH FRITZING*
G04 WWW.FRITZING.ORG*
G04 DOUBLE SIDED*
G04 HOLES PLATED*
G04 CONTOUR ON CENTER OF CONTOUR VECTOR*
%ASAXBY*%
%FSLAX23Y23*%
%MOIN*%
%OFA0B0*%
%SFA1.0B1.0*%
%ADD10C,0.410000X0.39*%
%ADD11C,0.010000*%
%ADD12C,0.005000*%
%ADD13R,0.001000X0.001000*%
%LNSILK1*%
G90*
G70*
G54D10*
X1914Y1240D03*
G54D11*
X51Y1389D02*
X51Y985D01*
D02*
X51Y985D02*
X491Y985D01*
D02*
X491Y985D02*
X491Y1389D01*
D02*
X491Y1389D02*
X51Y1389D01*
G54D12*
D02*
X411Y985D02*
X411Y1389D01*
G54D11*
D02*
X51Y689D02*
X51Y285D01*
D02*
X51Y285D02*
X491Y285D01*
D02*
X491Y285D02*
X491Y689D01*
D02*
X491Y689D02*
X51Y689D01*
G54D12*
D02*
X411Y285D02*
X411Y689D01*
G54D11*
D02*
X1734Y1015D02*
X1734Y612D01*
D02*
X1734Y612D02*
X2174Y612D01*
D02*
X2174Y612D02*
X2174Y1015D01*
D02*
X2174Y1015D02*
X1734Y1015D01*
G54D12*
D02*
X2094Y612D02*
X2094Y1015D01*
G54D11*
D02*
X1734Y569D02*
X1734Y165D01*
D02*
X1734Y165D02*
X2174Y165D01*
D02*
X2174Y165D02*
X2174Y569D01*
D02*
X2174Y569D02*
X1734Y569D01*
G54D12*
D02*
X2094Y165D02*
X2094Y569D01*
G54D11*
D02*
X1639Y1120D02*
X1239Y1120D01*
D02*
X1239Y1120D02*
X1239Y1300D01*
D02*
X1239Y1300D02*
X1639Y1300D01*
D02*
X1639Y1300D02*
X1639Y1120D01*
D02*
X1639Y1120D02*
X1239Y1120D01*
D02*
X1239Y1120D02*
X1239Y1180D01*
D02*
X1239Y1180D02*
X1639Y1180D01*
D02*
X1639Y1180D02*
X1639Y1120D01*
G54D12*
D02*
X1509Y1120D02*
X1509Y1180D01*
D02*
X1369Y1120D02*
X1369Y1180D01*
G54D11*
D02*
X1189Y1120D02*
X789Y1120D01*
D02*
X789Y1120D02*
X789Y1300D01*
D02*
X789Y1300D02*
X1189Y1300D01*
D02*
X1189Y1300D02*
X1189Y1120D01*
D02*
X1189Y1120D02*
X789Y1120D01*
D02*
X789Y1120D02*
X789Y1180D01*
D02*
X789Y1180D02*
X1189Y1180D01*
D02*
X1189Y1180D02*
X1189Y1120D01*
G54D12*
D02*
X1059Y1120D02*
X1059Y1180D01*
D02*
X919Y1120D02*
X919Y1180D01*
G54D11*
D02*
X489Y745D02*
X89Y745D01*
D02*
X89Y745D02*
X89Y925D01*
D02*
X89Y925D02*
X489Y925D01*
D02*
X489Y925D02*
X489Y745D01*
D02*
X489Y745D02*
X89Y745D01*
D02*
X89Y745D02*
X89Y805D01*
D02*
X89Y805D02*
X489Y805D01*
D02*
X489Y805D02*
X489Y745D01*
G54D12*
D02*
X359Y745D02*
X359Y805D01*
D02*
X219Y745D02*
X219Y805D01*
G54D11*
D02*
X489Y45D02*
X89Y45D01*
D02*
X89Y45D02*
X89Y225D01*
D02*
X89Y225D02*
X489Y225D01*
D02*
X489Y225D02*
X489Y45D01*
D02*
X489Y45D02*
X89Y45D01*
D02*
X89Y45D02*
X89Y105D01*
D02*
X89Y105D02*
X489Y105D01*
D02*
X489Y105D02*
X489Y45D01*
G54D12*
D02*
X359Y45D02*
X359Y105D01*
D02*
X219Y45D02*
X219Y105D01*
G54D11*
D02*
X514Y115D02*
X814Y115D01*
D02*
X814Y115D02*
X814Y215D01*
D02*
X814Y215D02*
X514Y215D01*
D02*
X514Y215D02*
X514Y115D01*
G54D13*
X0Y1490D02*
X2315Y1490D01*
X0Y1489D02*
X2315Y1489D01*
X0Y1488D02*
X2315Y1488D01*
X0Y1487D02*
X2315Y1487D01*
X0Y1486D02*
X2315Y1486D01*
X0Y1485D02*
X2315Y1485D01*
X0Y1484D02*
X2315Y1484D01*
X0Y1483D02*
X2315Y1483D01*
X0Y1482D02*
X7Y1482D01*
X543Y1482D02*
X549Y1482D01*
X572Y1482D02*
X588Y1482D01*
X2308Y1482D02*
X2315Y1482D01*
X0Y1481D02*
X7Y1481D01*
X543Y1481D02*
X549Y1481D01*
X582Y1481D02*
X588Y1481D01*
X2308Y1481D02*
X2315Y1481D01*
X0Y1480D02*
X7Y1480D01*
X543Y1480D02*
X549Y1480D01*
X582Y1480D02*
X588Y1480D01*
X2308Y1480D02*
X2315Y1480D01*
X0Y1479D02*
X7Y1479D01*
X543Y1479D02*
X549Y1479D01*
X582Y1479D02*
X588Y1479D01*
X2308Y1479D02*
X2315Y1479D01*
X0Y1478D02*
X7Y1478D01*
X543Y1478D02*
X549Y1478D01*
X582Y1478D02*
X588Y1478D01*
X2308Y1478D02*
X2315Y1478D01*
X0Y1477D02*
X7Y1477D01*
X543Y1477D02*
X549Y1477D01*
X582Y1477D02*
X588Y1477D01*
X2308Y1477D02*
X2315Y1477D01*
X0Y1476D02*
X7Y1476D01*
X543Y1476D02*
X549Y1476D01*
X582Y1476D02*
X588Y1476D01*
X2308Y1476D02*
X2315Y1476D01*
X0Y1475D02*
X7Y1475D01*
X543Y1475D02*
X549Y1475D01*
X582Y1475D02*
X588Y1475D01*
X2308Y1475D02*
X2315Y1475D01*
X0Y1474D02*
X7Y1474D01*
X543Y1474D02*
X549Y1474D01*
X582Y1474D02*
X588Y1474D01*
X2308Y1474D02*
X2315Y1474D01*
X0Y1473D02*
X7Y1473D01*
X543Y1473D02*
X549Y1473D01*
X582Y1473D02*
X588Y1473D01*
X2308Y1473D02*
X2315Y1473D01*
X0Y1472D02*
X7Y1472D01*
X543Y1472D02*
X549Y1472D01*
X582Y1472D02*
X588Y1472D01*
X2308Y1472D02*
X2315Y1472D01*
X0Y1471D02*
X7Y1471D01*
X543Y1471D02*
X549Y1471D01*
X582Y1471D02*
X588Y1471D01*
X2308Y1471D02*
X2315Y1471D01*
X0Y1470D02*
X7Y1470D01*
X543Y1470D02*
X549Y1470D01*
X582Y1470D02*
X588Y1470D01*
X2308Y1470D02*
X2315Y1470D01*
X0Y1469D02*
X7Y1469D01*
X543Y1469D02*
X549Y1469D01*
X582Y1469D02*
X588Y1469D01*
X2308Y1469D02*
X2315Y1469D01*
X0Y1468D02*
X7Y1468D01*
X543Y1468D02*
X549Y1468D01*
X582Y1468D02*
X588Y1468D01*
X2308Y1468D02*
X2315Y1468D01*
X0Y1467D02*
X7Y1467D01*
X543Y1467D02*
X549Y1467D01*
X582Y1467D02*
X588Y1467D01*
X2308Y1467D02*
X2315Y1467D01*
X0Y1466D02*
X7Y1466D01*
X543Y1466D02*
X549Y1466D01*
X582Y1466D02*
X588Y1466D01*
X2308Y1466D02*
X2315Y1466D01*
X0Y1465D02*
X7Y1465D01*
X543Y1465D02*
X549Y1465D01*
X582Y1465D02*
X588Y1465D01*
X2308Y1465D02*
X2315Y1465D01*
X0Y1464D02*
X7Y1464D01*
X543Y1464D02*
X549Y1464D01*
X582Y1464D02*
X588Y1464D01*
X2308Y1464D02*
X2315Y1464D01*
X0Y1463D02*
X7Y1463D01*
X543Y1463D02*
X549Y1463D01*
X582Y1463D02*
X588Y1463D01*
X2308Y1463D02*
X2315Y1463D01*
X0Y1462D02*
X7Y1462D01*
X543Y1462D02*
X549Y1462D01*
X582Y1462D02*
X588Y1462D01*
X2308Y1462D02*
X2315Y1462D01*
X0Y1461D02*
X7Y1461D01*
X543Y1461D02*
X549Y1461D01*
X582Y1461D02*
X588Y1461D01*
X2308Y1461D02*
X2315Y1461D01*
X0Y1460D02*
X7Y1460D01*
X543Y1460D02*
X549Y1460D01*
X582Y1460D02*
X588Y1460D01*
X2308Y1460D02*
X2315Y1460D01*
X0Y1459D02*
X7Y1459D01*
X524Y1459D02*
X526Y1459D01*
X543Y1459D02*
X549Y1459D01*
X582Y1459D02*
X588Y1459D01*
X598Y1459D02*
X600Y1459D01*
X2308Y1459D02*
X2315Y1459D01*
X0Y1458D02*
X7Y1458D01*
X523Y1458D02*
X527Y1458D01*
X543Y1458D02*
X549Y1458D01*
X582Y1458D02*
X588Y1458D01*
X597Y1458D02*
X601Y1458D01*
X2308Y1458D02*
X2315Y1458D01*
X0Y1457D02*
X7Y1457D01*
X522Y1457D02*
X528Y1457D01*
X543Y1457D02*
X549Y1457D01*
X582Y1457D02*
X588Y1457D01*
X596Y1457D02*
X602Y1457D01*
X2308Y1457D02*
X2315Y1457D01*
X0Y1456D02*
X7Y1456D01*
X522Y1456D02*
X528Y1456D01*
X543Y1456D02*
X549Y1456D01*
X582Y1456D02*
X588Y1456D01*
X596Y1456D02*
X602Y1456D01*
X2308Y1456D02*
X2315Y1456D01*
X0Y1455D02*
X7Y1455D01*
X522Y1455D02*
X528Y1455D01*
X543Y1455D02*
X549Y1455D01*
X582Y1455D02*
X588Y1455D01*
X596Y1455D02*
X602Y1455D01*
X2308Y1455D02*
X2315Y1455D01*
X0Y1454D02*
X7Y1454D01*
X522Y1454D02*
X528Y1454D01*
X543Y1454D02*
X549Y1454D01*
X582Y1454D02*
X588Y1454D01*
X596Y1454D02*
X602Y1454D01*
X2308Y1454D02*
X2315Y1454D01*
X0Y1453D02*
X7Y1453D01*
X522Y1453D02*
X528Y1453D01*
X543Y1453D02*
X549Y1453D01*
X582Y1453D02*
X588Y1453D01*
X596Y1453D02*
X602Y1453D01*
X2308Y1453D02*
X2315Y1453D01*
X0Y1452D02*
X7Y1452D01*
X522Y1452D02*
X528Y1452D01*
X543Y1452D02*
X549Y1452D01*
X582Y1452D02*
X588Y1452D01*
X596Y1452D02*
X602Y1452D01*
X2308Y1452D02*
X2315Y1452D01*
X0Y1451D02*
X7Y1451D01*
X522Y1451D02*
X528Y1451D01*
X543Y1451D02*
X549Y1451D01*
X582Y1451D02*
X588Y1451D01*
X596Y1451D02*
X602Y1451D01*
X2308Y1451D02*
X2315Y1451D01*
X0Y1450D02*
X7Y1450D01*
X522Y1450D02*
X528Y1450D01*
X543Y1450D02*
X549Y1450D01*
X582Y1450D02*
X588Y1450D01*
X596Y1450D02*
X602Y1450D01*
X2308Y1450D02*
X2315Y1450D01*
X0Y1449D02*
X7Y1449D01*
X522Y1449D02*
X528Y1449D01*
X543Y1449D02*
X549Y1449D01*
X582Y1449D02*
X588Y1449D01*
X596Y1449D02*
X602Y1449D01*
X2308Y1449D02*
X2315Y1449D01*
X0Y1448D02*
X7Y1448D01*
X522Y1448D02*
X528Y1448D01*
X543Y1448D02*
X549Y1448D01*
X582Y1448D02*
X588Y1448D01*
X596Y1448D02*
X602Y1448D01*
X2308Y1448D02*
X2315Y1448D01*
X0Y1447D02*
X7Y1447D01*
X522Y1447D02*
X528Y1447D01*
X543Y1447D02*
X549Y1447D01*
X582Y1447D02*
X588Y1447D01*
X596Y1447D02*
X602Y1447D01*
X2308Y1447D02*
X2315Y1447D01*
X0Y1446D02*
X7Y1446D01*
X522Y1446D02*
X528Y1446D01*
X543Y1446D02*
X549Y1446D01*
X582Y1446D02*
X588Y1446D01*
X596Y1446D02*
X602Y1446D01*
X2308Y1446D02*
X2315Y1446D01*
X0Y1445D02*
X7Y1445D01*
X522Y1445D02*
X528Y1445D01*
X542Y1445D02*
X549Y1445D01*
X582Y1445D02*
X588Y1445D01*
X596Y1445D02*
X602Y1445D01*
X2308Y1445D02*
X2315Y1445D01*
X0Y1444D02*
X7Y1444D01*
X522Y1444D02*
X528Y1444D01*
X542Y1444D02*
X548Y1444D01*
X582Y1444D02*
X588Y1444D01*
X596Y1444D02*
X602Y1444D01*
X2308Y1444D02*
X2315Y1444D01*
X0Y1443D02*
X7Y1443D01*
X522Y1443D02*
X529Y1443D01*
X542Y1443D02*
X548Y1443D01*
X582Y1443D02*
X588Y1443D01*
X596Y1443D02*
X602Y1443D01*
X2308Y1443D02*
X2315Y1443D01*
X0Y1442D02*
X7Y1442D01*
X522Y1442D02*
X531Y1442D01*
X540Y1442D02*
X548Y1442D01*
X582Y1442D02*
X588Y1442D01*
X596Y1442D02*
X602Y1442D01*
X2308Y1442D02*
X2315Y1442D01*
X0Y1441D02*
X7Y1441D01*
X523Y1441D02*
X548Y1441D01*
X570Y1441D02*
X602Y1441D01*
X2308Y1441D02*
X2315Y1441D01*
X0Y1440D02*
X7Y1440D01*
X523Y1440D02*
X547Y1440D01*
X569Y1440D02*
X602Y1440D01*
X2308Y1440D02*
X2315Y1440D01*
X0Y1439D02*
X7Y1439D01*
X524Y1439D02*
X546Y1439D01*
X569Y1439D02*
X602Y1439D01*
X2308Y1439D02*
X2315Y1439D01*
X0Y1438D02*
X7Y1438D01*
X525Y1438D02*
X545Y1438D01*
X569Y1438D02*
X602Y1438D01*
X2308Y1438D02*
X2315Y1438D01*
X0Y1437D02*
X7Y1437D01*
X526Y1437D02*
X544Y1437D01*
X569Y1437D02*
X602Y1437D01*
X2308Y1437D02*
X2315Y1437D01*
X0Y1436D02*
X7Y1436D01*
X528Y1436D02*
X543Y1436D01*
X569Y1436D02*
X601Y1436D01*
X2308Y1436D02*
X2315Y1436D01*
X0Y1435D02*
X7Y1435D01*
X531Y1435D02*
X540Y1435D01*
X571Y1435D02*
X599Y1435D01*
X2308Y1435D02*
X2315Y1435D01*
X0Y1434D02*
X7Y1434D01*
X2308Y1434D02*
X2315Y1434D01*
X0Y1433D02*
X7Y1433D01*
X2308Y1433D02*
X2315Y1433D01*
X0Y1432D02*
X7Y1432D01*
X2308Y1432D02*
X2315Y1432D01*
X0Y1431D02*
X7Y1431D01*
X2308Y1431D02*
X2315Y1431D01*
X0Y1430D02*
X7Y1430D01*
X2308Y1430D02*
X2315Y1430D01*
X0Y1429D02*
X7Y1429D01*
X2308Y1429D02*
X2315Y1429D01*
X0Y1428D02*
X7Y1428D01*
X2308Y1428D02*
X2315Y1428D01*
X0Y1427D02*
X7Y1427D01*
X2308Y1427D02*
X2315Y1427D01*
X0Y1426D02*
X7Y1426D01*
X2308Y1426D02*
X2315Y1426D01*
X0Y1425D02*
X7Y1425D01*
X2308Y1425D02*
X2315Y1425D01*
X0Y1424D02*
X7Y1424D01*
X2308Y1424D02*
X2315Y1424D01*
X0Y1423D02*
X7Y1423D01*
X2308Y1423D02*
X2315Y1423D01*
X0Y1422D02*
X7Y1422D01*
X2308Y1422D02*
X2315Y1422D01*
X0Y1421D02*
X7Y1421D01*
X2308Y1421D02*
X2315Y1421D01*
X0Y1420D02*
X7Y1420D01*
X2308Y1420D02*
X2315Y1420D01*
X0Y1419D02*
X7Y1419D01*
X2308Y1419D02*
X2315Y1419D01*
X0Y1418D02*
X7Y1418D01*
X2308Y1418D02*
X2315Y1418D01*
X0Y1417D02*
X7Y1417D01*
X2308Y1417D02*
X2315Y1417D01*
X0Y1416D02*
X7Y1416D01*
X2308Y1416D02*
X2315Y1416D01*
X0Y1415D02*
X7Y1415D01*
X2308Y1415D02*
X2315Y1415D01*
X0Y1414D02*
X7Y1414D01*
X2308Y1414D02*
X2315Y1414D01*
X0Y1413D02*
X7Y1413D01*
X2308Y1413D02*
X2315Y1413D01*
X0Y1412D02*
X7Y1412D01*
X2308Y1412D02*
X2315Y1412D01*
X0Y1411D02*
X7Y1411D01*
X2308Y1411D02*
X2315Y1411D01*
X0Y1410D02*
X7Y1410D01*
X2308Y1410D02*
X2315Y1410D01*
X0Y1409D02*
X7Y1409D01*
X2308Y1409D02*
X2315Y1409D01*
X0Y1408D02*
X7Y1408D01*
X2308Y1408D02*
X2315Y1408D01*
X0Y1407D02*
X7Y1407D01*
X2308Y1407D02*
X2315Y1407D01*
X0Y1406D02*
X7Y1406D01*
X2308Y1406D02*
X2315Y1406D01*
X0Y1405D02*
X7Y1405D01*
X2308Y1405D02*
X2315Y1405D01*
X0Y1404D02*
X7Y1404D01*
X2308Y1404D02*
X2315Y1404D01*
X0Y1403D02*
X7Y1403D01*
X2308Y1403D02*
X2315Y1403D01*
X0Y1402D02*
X7Y1402D01*
X2308Y1402D02*
X2315Y1402D01*
X0Y1401D02*
X7Y1401D01*
X2308Y1401D02*
X2315Y1401D01*
X0Y1400D02*
X7Y1400D01*
X2308Y1400D02*
X2315Y1400D01*
X0Y1399D02*
X7Y1399D01*
X2308Y1399D02*
X2315Y1399D01*
X0Y1398D02*
X7Y1398D01*
X2308Y1398D02*
X2315Y1398D01*
X0Y1397D02*
X7Y1397D01*
X2308Y1397D02*
X2315Y1397D01*
X0Y1396D02*
X7Y1396D01*
X2308Y1396D02*
X2315Y1396D01*
X0Y1395D02*
X7Y1395D01*
X2308Y1395D02*
X2315Y1395D01*
X0Y1394D02*
X7Y1394D01*
X2308Y1394D02*
X2315Y1394D01*
X0Y1393D02*
X7Y1393D01*
X2308Y1393D02*
X2315Y1393D01*
X0Y1392D02*
X7Y1392D01*
X2308Y1392D02*
X2315Y1392D01*
X0Y1391D02*
X7Y1391D01*
X2308Y1391D02*
X2315Y1391D01*
X0Y1390D02*
X7Y1390D01*
X2308Y1390D02*
X2315Y1390D01*
X0Y1389D02*
X7Y1389D01*
X2308Y1389D02*
X2315Y1389D01*
X0Y1388D02*
X7Y1388D01*
X2308Y1388D02*
X2315Y1388D01*
X0Y1387D02*
X7Y1387D01*
X458Y1387D02*
X479Y1387D01*
X502Y1387D02*
X505Y1387D01*
X2308Y1387D02*
X2315Y1387D01*
X0Y1386D02*
X7Y1386D01*
X456Y1386D02*
X481Y1386D01*
X502Y1386D02*
X506Y1386D01*
X2308Y1386D02*
X2315Y1386D01*
X0Y1385D02*
X7Y1385D01*
X455Y1385D02*
X482Y1385D01*
X501Y1385D02*
X507Y1385D01*
X2308Y1385D02*
X2315Y1385D01*
X0Y1384D02*
X7Y1384D01*
X455Y1384D02*
X482Y1384D01*
X501Y1384D02*
X507Y1384D01*
X2308Y1384D02*
X2315Y1384D01*
X0Y1383D02*
X7Y1383D01*
X454Y1383D02*
X483Y1383D01*
X501Y1383D02*
X507Y1383D01*
X2308Y1383D02*
X2315Y1383D01*
X0Y1382D02*
X7Y1382D01*
X454Y1382D02*
X483Y1382D01*
X501Y1382D02*
X507Y1382D01*
X2308Y1382D02*
X2315Y1382D01*
X0Y1381D02*
X7Y1381D01*
X454Y1381D02*
X483Y1381D01*
X501Y1381D02*
X507Y1381D01*
X2308Y1381D02*
X2315Y1381D01*
X0Y1380D02*
X7Y1380D01*
X454Y1380D02*
X460Y1380D01*
X477Y1380D02*
X483Y1380D01*
X501Y1380D02*
X507Y1380D01*
X2308Y1380D02*
X2315Y1380D01*
X0Y1379D02*
X7Y1379D01*
X454Y1379D02*
X460Y1379D01*
X477Y1379D02*
X483Y1379D01*
X501Y1379D02*
X507Y1379D01*
X2308Y1379D02*
X2315Y1379D01*
X0Y1378D02*
X7Y1378D01*
X454Y1378D02*
X460Y1378D01*
X477Y1378D02*
X483Y1378D01*
X501Y1378D02*
X507Y1378D01*
X2308Y1378D02*
X2315Y1378D01*
X0Y1377D02*
X7Y1377D01*
X454Y1377D02*
X460Y1377D01*
X477Y1377D02*
X483Y1377D01*
X501Y1377D02*
X507Y1377D01*
X2308Y1377D02*
X2315Y1377D01*
X0Y1376D02*
X7Y1376D01*
X454Y1376D02*
X460Y1376D01*
X477Y1376D02*
X483Y1376D01*
X501Y1376D02*
X507Y1376D01*
X2308Y1376D02*
X2315Y1376D01*
X0Y1375D02*
X7Y1375D01*
X454Y1375D02*
X460Y1375D01*
X477Y1375D02*
X483Y1375D01*
X501Y1375D02*
X507Y1375D01*
X2308Y1375D02*
X2315Y1375D01*
X0Y1374D02*
X7Y1374D01*
X454Y1374D02*
X460Y1374D01*
X477Y1374D02*
X483Y1374D01*
X501Y1374D02*
X507Y1374D01*
X2308Y1374D02*
X2315Y1374D01*
X0Y1373D02*
X7Y1373D01*
X454Y1373D02*
X460Y1373D01*
X477Y1373D02*
X483Y1373D01*
X501Y1373D02*
X507Y1373D01*
X2308Y1373D02*
X2315Y1373D01*
X0Y1372D02*
X7Y1372D01*
X454Y1372D02*
X460Y1372D01*
X477Y1372D02*
X483Y1372D01*
X501Y1372D02*
X507Y1372D01*
X2308Y1372D02*
X2315Y1372D01*
X0Y1371D02*
X7Y1371D01*
X454Y1371D02*
X460Y1371D01*
X477Y1371D02*
X483Y1371D01*
X501Y1371D02*
X507Y1371D01*
X2308Y1371D02*
X2315Y1371D01*
X0Y1370D02*
X7Y1370D01*
X454Y1370D02*
X460Y1370D01*
X477Y1370D02*
X483Y1370D01*
X501Y1370D02*
X507Y1370D01*
X2308Y1370D02*
X2315Y1370D01*
X0Y1369D02*
X7Y1369D01*
X454Y1369D02*
X460Y1369D01*
X477Y1369D02*
X483Y1369D01*
X501Y1369D02*
X507Y1369D01*
X2308Y1369D02*
X2315Y1369D01*
X0Y1368D02*
X7Y1368D01*
X454Y1368D02*
X460Y1368D01*
X477Y1368D02*
X483Y1368D01*
X501Y1368D02*
X507Y1368D01*
X2308Y1368D02*
X2315Y1368D01*
X0Y1367D02*
X7Y1367D01*
X454Y1367D02*
X460Y1367D01*
X477Y1367D02*
X483Y1367D01*
X501Y1367D02*
X507Y1367D01*
X2308Y1367D02*
X2315Y1367D01*
X0Y1366D02*
X7Y1366D01*
X454Y1366D02*
X460Y1366D01*
X477Y1366D02*
X483Y1366D01*
X501Y1366D02*
X507Y1366D01*
X2308Y1366D02*
X2315Y1366D01*
X0Y1365D02*
X7Y1365D01*
X454Y1365D02*
X460Y1365D01*
X477Y1365D02*
X483Y1365D01*
X501Y1365D02*
X507Y1365D01*
X2308Y1365D02*
X2315Y1365D01*
X0Y1364D02*
X7Y1364D01*
X454Y1364D02*
X460Y1364D01*
X477Y1364D02*
X483Y1364D01*
X501Y1364D02*
X507Y1364D01*
X2308Y1364D02*
X2315Y1364D01*
X0Y1363D02*
X7Y1363D01*
X454Y1363D02*
X460Y1363D01*
X477Y1363D02*
X483Y1363D01*
X501Y1363D02*
X507Y1363D01*
X2308Y1363D02*
X2315Y1363D01*
X0Y1362D02*
X7Y1362D01*
X454Y1362D02*
X460Y1362D01*
X477Y1362D02*
X483Y1362D01*
X501Y1362D02*
X507Y1362D01*
X2308Y1362D02*
X2315Y1362D01*
X0Y1361D02*
X7Y1361D01*
X454Y1361D02*
X460Y1361D01*
X477Y1361D02*
X483Y1361D01*
X501Y1361D02*
X507Y1361D01*
X2308Y1361D02*
X2315Y1361D01*
X0Y1360D02*
X7Y1360D01*
X454Y1360D02*
X460Y1360D01*
X477Y1360D02*
X507Y1360D01*
X2308Y1360D02*
X2315Y1360D01*
X0Y1359D02*
X7Y1359D01*
X454Y1359D02*
X460Y1359D01*
X477Y1359D02*
X507Y1359D01*
X2308Y1359D02*
X2315Y1359D01*
X0Y1358D02*
X7Y1358D01*
X454Y1358D02*
X460Y1358D01*
X478Y1358D02*
X507Y1358D01*
X2308Y1358D02*
X2315Y1358D01*
X0Y1357D02*
X7Y1357D01*
X454Y1357D02*
X460Y1357D01*
X478Y1357D02*
X507Y1357D01*
X2308Y1357D02*
X2315Y1357D01*
X0Y1356D02*
X7Y1356D01*
X454Y1356D02*
X460Y1356D01*
X479Y1356D02*
X507Y1356D01*
X2308Y1356D02*
X2315Y1356D01*
X0Y1355D02*
X7Y1355D01*
X454Y1355D02*
X459Y1355D01*
X480Y1355D02*
X507Y1355D01*
X2308Y1355D02*
X2315Y1355D01*
X0Y1354D02*
X7Y1354D01*
X455Y1354D02*
X459Y1354D01*
X481Y1354D02*
X507Y1354D01*
X2308Y1354D02*
X2315Y1354D01*
X0Y1353D02*
X7Y1353D01*
X2308Y1353D02*
X2315Y1353D01*
X0Y1352D02*
X7Y1352D01*
X2308Y1352D02*
X2315Y1352D01*
X0Y1351D02*
X7Y1351D01*
X2308Y1351D02*
X2315Y1351D01*
X0Y1350D02*
X7Y1350D01*
X2308Y1350D02*
X2315Y1350D01*
X0Y1349D02*
X7Y1349D01*
X2308Y1349D02*
X2315Y1349D01*
X0Y1348D02*
X7Y1348D01*
X2308Y1348D02*
X2315Y1348D01*
X0Y1347D02*
X7Y1347D01*
X2308Y1347D02*
X2315Y1347D01*
X0Y1346D02*
X7Y1346D01*
X2308Y1346D02*
X2315Y1346D01*
X0Y1345D02*
X7Y1345D01*
X2308Y1345D02*
X2315Y1345D01*
X0Y1344D02*
X7Y1344D01*
X2308Y1344D02*
X2315Y1344D01*
X0Y1343D02*
X7Y1343D01*
X2308Y1343D02*
X2315Y1343D01*
X0Y1342D02*
X7Y1342D01*
X2308Y1342D02*
X2315Y1342D01*
X0Y1341D02*
X7Y1341D01*
X2308Y1341D02*
X2315Y1341D01*
X0Y1340D02*
X7Y1340D01*
X1986Y1340D02*
X2040Y1340D01*
X2308Y1340D02*
X2315Y1340D01*
X0Y1339D02*
X7Y1339D01*
X1984Y1339D02*
X2042Y1339D01*
X2308Y1339D02*
X2315Y1339D01*
X0Y1338D02*
X7Y1338D01*
X1984Y1338D02*
X2042Y1338D01*
X2308Y1338D02*
X2315Y1338D01*
X0Y1337D02*
X7Y1337D01*
X455Y1337D02*
X458Y1337D01*
X502Y1337D02*
X505Y1337D01*
X1983Y1337D02*
X2043Y1337D01*
X2308Y1337D02*
X2315Y1337D01*
X0Y1336D02*
X7Y1336D01*
X454Y1336D02*
X459Y1336D01*
X501Y1336D02*
X506Y1336D01*
X1983Y1336D02*
X2043Y1336D01*
X2308Y1336D02*
X2315Y1336D01*
X0Y1335D02*
X7Y1335D01*
X454Y1335D02*
X460Y1335D01*
X501Y1335D02*
X507Y1335D01*
X1983Y1335D02*
X2043Y1335D01*
X2308Y1335D02*
X2315Y1335D01*
X0Y1334D02*
X7Y1334D01*
X454Y1334D02*
X460Y1334D01*
X501Y1334D02*
X507Y1334D01*
X1983Y1334D02*
X2043Y1334D01*
X2308Y1334D02*
X2315Y1334D01*
X0Y1333D02*
X7Y1333D01*
X454Y1333D02*
X460Y1333D01*
X501Y1333D02*
X507Y1333D01*
X1983Y1333D02*
X2043Y1333D01*
X2308Y1333D02*
X2315Y1333D01*
X0Y1332D02*
X7Y1332D01*
X454Y1332D02*
X460Y1332D01*
X501Y1332D02*
X507Y1332D01*
X1984Y1332D02*
X2042Y1332D01*
X2308Y1332D02*
X2315Y1332D01*
X0Y1331D02*
X7Y1331D01*
X454Y1331D02*
X460Y1331D01*
X501Y1331D02*
X507Y1331D01*
X1985Y1331D02*
X2041Y1331D01*
X2308Y1331D02*
X2315Y1331D01*
X0Y1330D02*
X7Y1330D01*
X454Y1330D02*
X460Y1330D01*
X501Y1330D02*
X507Y1330D01*
X1987Y1330D02*
X2039Y1330D01*
X2308Y1330D02*
X2315Y1330D01*
X0Y1329D02*
X7Y1329D01*
X454Y1329D02*
X460Y1329D01*
X501Y1329D02*
X507Y1329D01*
X2308Y1329D02*
X2315Y1329D01*
X0Y1328D02*
X7Y1328D01*
X454Y1328D02*
X460Y1328D01*
X501Y1328D02*
X507Y1328D01*
X2308Y1328D02*
X2315Y1328D01*
X0Y1327D02*
X7Y1327D01*
X454Y1327D02*
X460Y1327D01*
X501Y1327D02*
X507Y1327D01*
X2308Y1327D02*
X2315Y1327D01*
X0Y1326D02*
X7Y1326D01*
X454Y1326D02*
X460Y1326D01*
X501Y1326D02*
X507Y1326D01*
X2308Y1326D02*
X2315Y1326D01*
X0Y1325D02*
X7Y1325D01*
X454Y1325D02*
X460Y1325D01*
X501Y1325D02*
X507Y1325D01*
X2308Y1325D02*
X2315Y1325D01*
X0Y1324D02*
X7Y1324D01*
X454Y1324D02*
X460Y1324D01*
X501Y1324D02*
X507Y1324D01*
X2308Y1324D02*
X2315Y1324D01*
X0Y1323D02*
X7Y1323D01*
X454Y1323D02*
X460Y1323D01*
X501Y1323D02*
X507Y1323D01*
X2308Y1323D02*
X2315Y1323D01*
X0Y1322D02*
X7Y1322D01*
X454Y1322D02*
X460Y1322D01*
X501Y1322D02*
X507Y1322D01*
X2308Y1322D02*
X2315Y1322D01*
X0Y1321D02*
X7Y1321D01*
X454Y1321D02*
X460Y1321D01*
X501Y1321D02*
X507Y1321D01*
X2308Y1321D02*
X2315Y1321D01*
X0Y1320D02*
X7Y1320D01*
X454Y1320D02*
X460Y1320D01*
X501Y1320D02*
X507Y1320D01*
X2308Y1320D02*
X2315Y1320D01*
X0Y1319D02*
X7Y1319D01*
X454Y1319D02*
X461Y1319D01*
X500Y1319D02*
X507Y1319D01*
X2308Y1319D02*
X2315Y1319D01*
X0Y1318D02*
X7Y1318D01*
X454Y1318D02*
X462Y1318D01*
X499Y1318D02*
X506Y1318D01*
X2308Y1318D02*
X2315Y1318D01*
X0Y1317D02*
X7Y1317D01*
X455Y1317D02*
X464Y1317D01*
X497Y1317D02*
X506Y1317D01*
X2308Y1317D02*
X2315Y1317D01*
X0Y1316D02*
X7Y1316D01*
X455Y1316D02*
X466Y1316D01*
X495Y1316D02*
X505Y1316D01*
X2308Y1316D02*
X2315Y1316D01*
X0Y1315D02*
X7Y1315D01*
X456Y1315D02*
X468Y1315D01*
X493Y1315D02*
X505Y1315D01*
X2308Y1315D02*
X2315Y1315D01*
X0Y1314D02*
X7Y1314D01*
X457Y1314D02*
X470Y1314D01*
X491Y1314D02*
X504Y1314D01*
X2308Y1314D02*
X2315Y1314D01*
X0Y1313D02*
X7Y1313D01*
X458Y1313D02*
X472Y1313D01*
X489Y1313D02*
X503Y1313D01*
X2308Y1313D02*
X2315Y1313D01*
X0Y1312D02*
X7Y1312D01*
X459Y1312D02*
X474Y1312D01*
X487Y1312D02*
X501Y1312D01*
X2308Y1312D02*
X2315Y1312D01*
X0Y1311D02*
X7Y1311D01*
X461Y1311D02*
X476Y1311D01*
X485Y1311D02*
X499Y1311D01*
X2308Y1311D02*
X2315Y1311D01*
X0Y1310D02*
X7Y1310D01*
X463Y1310D02*
X497Y1310D01*
X2308Y1310D02*
X2315Y1310D01*
X0Y1309D02*
X7Y1309D01*
X465Y1309D02*
X495Y1309D01*
X2308Y1309D02*
X2315Y1309D01*
X0Y1308D02*
X7Y1308D01*
X467Y1308D02*
X493Y1308D01*
X2308Y1308D02*
X2315Y1308D01*
X0Y1307D02*
X7Y1307D01*
X469Y1307D02*
X491Y1307D01*
X2308Y1307D02*
X2315Y1307D01*
X0Y1306D02*
X7Y1306D01*
X471Y1306D02*
X489Y1306D01*
X2308Y1306D02*
X2315Y1306D01*
X0Y1305D02*
X7Y1305D01*
X473Y1305D02*
X487Y1305D01*
X2308Y1305D02*
X2315Y1305D01*
X0Y1304D02*
X7Y1304D01*
X476Y1304D02*
X485Y1304D01*
X2308Y1304D02*
X2315Y1304D01*
X0Y1303D02*
X7Y1303D01*
X2308Y1303D02*
X2315Y1303D01*
X0Y1302D02*
X7Y1302D01*
X2308Y1302D02*
X2315Y1302D01*
X0Y1301D02*
X7Y1301D01*
X2308Y1301D02*
X2315Y1301D01*
X0Y1300D02*
X7Y1300D01*
X2308Y1300D02*
X2315Y1300D01*
X0Y1299D02*
X7Y1299D01*
X2308Y1299D02*
X2315Y1299D01*
X0Y1298D02*
X7Y1298D01*
X2308Y1298D02*
X2315Y1298D01*
X0Y1297D02*
X7Y1297D01*
X2308Y1297D02*
X2315Y1297D01*
X0Y1296D02*
X7Y1296D01*
X2308Y1296D02*
X2315Y1296D01*
X0Y1295D02*
X7Y1295D01*
X632Y1295D02*
X645Y1295D01*
X2308Y1295D02*
X2315Y1295D01*
X0Y1294D02*
X7Y1294D01*
X623Y1294D02*
X654Y1294D01*
X2308Y1294D02*
X2315Y1294D01*
X0Y1293D02*
X7Y1293D01*
X617Y1293D02*
X659Y1293D01*
X2308Y1293D02*
X2315Y1293D01*
X0Y1292D02*
X7Y1292D01*
X613Y1292D02*
X663Y1292D01*
X2308Y1292D02*
X2315Y1292D01*
X0Y1291D02*
X7Y1291D01*
X609Y1291D02*
X667Y1291D01*
X2308Y1291D02*
X2315Y1291D01*
X0Y1290D02*
X7Y1290D01*
X606Y1290D02*
X670Y1290D01*
X2308Y1290D02*
X2315Y1290D01*
X0Y1289D02*
X7Y1289D01*
X603Y1289D02*
X673Y1289D01*
X2308Y1289D02*
X2315Y1289D01*
X0Y1288D02*
X7Y1288D01*
X600Y1288D02*
X676Y1288D01*
X2308Y1288D02*
X2315Y1288D01*
X0Y1287D02*
X7Y1287D01*
X598Y1287D02*
X678Y1287D01*
X2308Y1287D02*
X2315Y1287D01*
X0Y1286D02*
X7Y1286D01*
X596Y1286D02*
X680Y1286D01*
X2308Y1286D02*
X2315Y1286D01*
X0Y1285D02*
X7Y1285D01*
X594Y1285D02*
X631Y1285D01*
X645Y1285D02*
X682Y1285D01*
X2308Y1285D02*
X2315Y1285D01*
X0Y1284D02*
X7Y1284D01*
X592Y1284D02*
X622Y1284D01*
X654Y1284D02*
X685Y1284D01*
X2308Y1284D02*
X2315Y1284D01*
X0Y1283D02*
X7Y1283D01*
X590Y1283D02*
X617Y1283D01*
X659Y1283D02*
X687Y1283D01*
X2308Y1283D02*
X2315Y1283D01*
X0Y1282D02*
X7Y1282D01*
X588Y1282D02*
X613Y1282D01*
X664Y1282D02*
X688Y1282D01*
X2308Y1282D02*
X2315Y1282D01*
X0Y1281D02*
X7Y1281D01*
X586Y1281D02*
X609Y1281D01*
X667Y1281D02*
X690Y1281D01*
X2308Y1281D02*
X2315Y1281D01*
X0Y1280D02*
X7Y1280D01*
X584Y1280D02*
X606Y1280D01*
X670Y1280D02*
X692Y1280D01*
X2308Y1280D02*
X2315Y1280D01*
X0Y1279D02*
X7Y1279D01*
X583Y1279D02*
X604Y1279D01*
X673Y1279D02*
X693Y1279D01*
X2308Y1279D02*
X2315Y1279D01*
X0Y1278D02*
X7Y1278D01*
X581Y1278D02*
X601Y1278D01*
X675Y1278D02*
X695Y1278D01*
X2308Y1278D02*
X2315Y1278D01*
X0Y1277D02*
X7Y1277D01*
X580Y1277D02*
X599Y1277D01*
X677Y1277D02*
X697Y1277D01*
X2308Y1277D02*
X2315Y1277D01*
X0Y1276D02*
X7Y1276D01*
X578Y1276D02*
X597Y1276D01*
X680Y1276D02*
X698Y1276D01*
X2308Y1276D02*
X2315Y1276D01*
X0Y1275D02*
X7Y1275D01*
X577Y1275D02*
X595Y1275D01*
X682Y1275D02*
X699Y1275D01*
X2308Y1275D02*
X2315Y1275D01*
X0Y1274D02*
X7Y1274D01*
X575Y1274D02*
X593Y1274D01*
X684Y1274D02*
X701Y1274D01*
X2308Y1274D02*
X2315Y1274D01*
X0Y1273D02*
X7Y1273D01*
X574Y1273D02*
X591Y1273D01*
X685Y1273D02*
X702Y1273D01*
X2308Y1273D02*
X2315Y1273D01*
X0Y1272D02*
X7Y1272D01*
X573Y1272D02*
X589Y1272D01*
X687Y1272D02*
X703Y1272D01*
X2308Y1272D02*
X2315Y1272D01*
X0Y1271D02*
X7Y1271D01*
X572Y1271D02*
X588Y1271D01*
X689Y1271D02*
X705Y1271D01*
X2308Y1271D02*
X2315Y1271D01*
X0Y1270D02*
X7Y1270D01*
X570Y1270D02*
X586Y1270D01*
X690Y1270D02*
X706Y1270D01*
X2308Y1270D02*
X2315Y1270D01*
X0Y1269D02*
X7Y1269D01*
X569Y1269D02*
X584Y1269D01*
X692Y1269D02*
X707Y1269D01*
X2308Y1269D02*
X2315Y1269D01*
X0Y1268D02*
X7Y1268D01*
X568Y1268D02*
X583Y1268D01*
X693Y1268D02*
X708Y1268D01*
X2308Y1268D02*
X2315Y1268D01*
X0Y1267D02*
X7Y1267D01*
X567Y1267D02*
X582Y1267D01*
X695Y1267D02*
X709Y1267D01*
X2308Y1267D02*
X2315Y1267D01*
X0Y1266D02*
X7Y1266D01*
X566Y1266D02*
X580Y1266D01*
X696Y1266D02*
X710Y1266D01*
X2308Y1266D02*
X2315Y1266D01*
X0Y1265D02*
X7Y1265D01*
X565Y1265D02*
X579Y1265D01*
X697Y1265D02*
X711Y1265D01*
X2308Y1265D02*
X2315Y1265D01*
X0Y1264D02*
X7Y1264D01*
X564Y1264D02*
X578Y1264D01*
X698Y1264D02*
X712Y1264D01*
X2308Y1264D02*
X2315Y1264D01*
X0Y1263D02*
X7Y1263D01*
X563Y1263D02*
X577Y1263D01*
X700Y1263D02*
X713Y1263D01*
X2308Y1263D02*
X2315Y1263D01*
X0Y1262D02*
X7Y1262D01*
X562Y1262D02*
X575Y1262D01*
X701Y1262D02*
X714Y1262D01*
X2308Y1262D02*
X2315Y1262D01*
X0Y1261D02*
X7Y1261D01*
X561Y1261D02*
X574Y1261D01*
X702Y1261D02*
X715Y1261D01*
X2308Y1261D02*
X2315Y1261D01*
X0Y1260D02*
X7Y1260D01*
X560Y1260D02*
X573Y1260D01*
X703Y1260D02*
X716Y1260D01*
X2308Y1260D02*
X2315Y1260D01*
X0Y1259D02*
X7Y1259D01*
X559Y1259D02*
X572Y1259D01*
X704Y1259D02*
X717Y1259D01*
X2308Y1259D02*
X2315Y1259D01*
X0Y1258D02*
X7Y1258D01*
X558Y1258D02*
X571Y1258D01*
X705Y1258D02*
X718Y1258D01*
X2308Y1258D02*
X2315Y1258D01*
X0Y1257D02*
X7Y1257D01*
X558Y1257D02*
X570Y1257D01*
X706Y1257D02*
X719Y1257D01*
X2308Y1257D02*
X2315Y1257D01*
X0Y1256D02*
X7Y1256D01*
X557Y1256D02*
X569Y1256D01*
X707Y1256D02*
X719Y1256D01*
X2308Y1256D02*
X2315Y1256D01*
X0Y1255D02*
X7Y1255D01*
X556Y1255D02*
X568Y1255D01*
X708Y1255D02*
X720Y1255D01*
X2308Y1255D02*
X2315Y1255D01*
X0Y1254D02*
X7Y1254D01*
X555Y1254D02*
X567Y1254D01*
X709Y1254D02*
X721Y1254D01*
X2308Y1254D02*
X2315Y1254D01*
X0Y1253D02*
X7Y1253D01*
X555Y1253D02*
X566Y1253D01*
X710Y1253D02*
X722Y1253D01*
X2308Y1253D02*
X2315Y1253D01*
X0Y1252D02*
X7Y1252D01*
X554Y1252D02*
X565Y1252D01*
X711Y1252D02*
X722Y1252D01*
X2308Y1252D02*
X2315Y1252D01*
X0Y1251D02*
X7Y1251D01*
X553Y1251D02*
X565Y1251D01*
X712Y1251D02*
X723Y1251D01*
X2308Y1251D02*
X2315Y1251D01*
X0Y1250D02*
X7Y1250D01*
X552Y1250D02*
X564Y1250D01*
X712Y1250D02*
X724Y1250D01*
X2308Y1250D02*
X2315Y1250D01*
X0Y1249D02*
X7Y1249D01*
X552Y1249D02*
X563Y1249D01*
X713Y1249D02*
X725Y1249D01*
X2308Y1249D02*
X2315Y1249D01*
X0Y1248D02*
X7Y1248D01*
X551Y1248D02*
X562Y1248D01*
X714Y1248D02*
X725Y1248D01*
X2308Y1248D02*
X2315Y1248D01*
X0Y1247D02*
X7Y1247D01*
X550Y1247D02*
X561Y1247D01*
X715Y1247D02*
X726Y1247D01*
X2308Y1247D02*
X2315Y1247D01*
X0Y1246D02*
X7Y1246D01*
X550Y1246D02*
X561Y1246D01*
X715Y1246D02*
X726Y1246D01*
X2308Y1246D02*
X2315Y1246D01*
X0Y1245D02*
X7Y1245D01*
X549Y1245D02*
X560Y1245D01*
X716Y1245D02*
X727Y1245D01*
X2308Y1245D02*
X2315Y1245D01*
X0Y1244D02*
X7Y1244D01*
X549Y1244D02*
X559Y1244D01*
X717Y1244D02*
X728Y1244D01*
X2308Y1244D02*
X2315Y1244D01*
X0Y1243D02*
X7Y1243D01*
X548Y1243D02*
X559Y1243D01*
X718Y1243D02*
X728Y1243D01*
X2308Y1243D02*
X2315Y1243D01*
X0Y1242D02*
X7Y1242D01*
X547Y1242D02*
X558Y1242D01*
X718Y1242D02*
X729Y1242D01*
X2308Y1242D02*
X2315Y1242D01*
X0Y1241D02*
X7Y1241D01*
X547Y1241D02*
X557Y1241D01*
X719Y1241D02*
X729Y1241D01*
X2308Y1241D02*
X2315Y1241D01*
X0Y1240D02*
X7Y1240D01*
X546Y1240D02*
X557Y1240D01*
X719Y1240D02*
X730Y1240D01*
X2308Y1240D02*
X2315Y1240D01*
X0Y1239D02*
X7Y1239D01*
X546Y1239D02*
X556Y1239D01*
X720Y1239D02*
X730Y1239D01*
X2308Y1239D02*
X2315Y1239D01*
X0Y1238D02*
X7Y1238D01*
X545Y1238D02*
X555Y1238D01*
X721Y1238D02*
X731Y1238D01*
X2308Y1238D02*
X2315Y1238D01*
X0Y1237D02*
X7Y1237D01*
X545Y1237D02*
X555Y1237D01*
X721Y1237D02*
X731Y1237D01*
X2308Y1237D02*
X2315Y1237D01*
X0Y1236D02*
X7Y1236D01*
X544Y1236D02*
X554Y1236D01*
X722Y1236D02*
X732Y1236D01*
X2308Y1236D02*
X2315Y1236D01*
X0Y1235D02*
X7Y1235D01*
X544Y1235D02*
X554Y1235D01*
X722Y1235D02*
X732Y1235D01*
X2308Y1235D02*
X2315Y1235D01*
X0Y1234D02*
X7Y1234D01*
X543Y1234D02*
X553Y1234D01*
X723Y1234D02*
X733Y1234D01*
X2308Y1234D02*
X2315Y1234D01*
X0Y1233D02*
X7Y1233D01*
X543Y1233D02*
X553Y1233D01*
X723Y1233D02*
X733Y1233D01*
X2308Y1233D02*
X2315Y1233D01*
X0Y1232D02*
X7Y1232D01*
X542Y1232D02*
X552Y1232D01*
X724Y1232D02*
X734Y1232D01*
X2308Y1232D02*
X2315Y1232D01*
X0Y1231D02*
X7Y1231D01*
X542Y1231D02*
X552Y1231D01*
X724Y1231D02*
X734Y1231D01*
X2308Y1231D02*
X2315Y1231D01*
X0Y1230D02*
X7Y1230D01*
X542Y1230D02*
X551Y1230D01*
X725Y1230D02*
X735Y1230D01*
X2308Y1230D02*
X2315Y1230D01*
X0Y1229D02*
X7Y1229D01*
X541Y1229D02*
X551Y1229D01*
X725Y1229D02*
X735Y1229D01*
X2308Y1229D02*
X2315Y1229D01*
X0Y1228D02*
X7Y1228D01*
X541Y1228D02*
X550Y1228D01*
X726Y1228D02*
X735Y1228D01*
X2308Y1228D02*
X2315Y1228D01*
X0Y1227D02*
X7Y1227D01*
X540Y1227D02*
X550Y1227D01*
X726Y1227D02*
X736Y1227D01*
X2308Y1227D02*
X2315Y1227D01*
X0Y1226D02*
X7Y1226D01*
X540Y1226D02*
X550Y1226D01*
X727Y1226D02*
X736Y1226D01*
X2308Y1226D02*
X2315Y1226D01*
X0Y1225D02*
X7Y1225D01*
X540Y1225D02*
X549Y1225D01*
X727Y1225D02*
X737Y1225D01*
X2308Y1225D02*
X2315Y1225D01*
X0Y1224D02*
X7Y1224D01*
X539Y1224D02*
X549Y1224D01*
X727Y1224D02*
X737Y1224D01*
X2308Y1224D02*
X2315Y1224D01*
X0Y1223D02*
X7Y1223D01*
X539Y1223D02*
X548Y1223D01*
X728Y1223D02*
X737Y1223D01*
X2308Y1223D02*
X2315Y1223D01*
X0Y1222D02*
X7Y1222D01*
X539Y1222D02*
X548Y1222D01*
X728Y1222D02*
X738Y1222D01*
X2308Y1222D02*
X2315Y1222D01*
X0Y1221D02*
X7Y1221D01*
X538Y1221D02*
X548Y1221D01*
X728Y1221D02*
X738Y1221D01*
X2308Y1221D02*
X2315Y1221D01*
X0Y1220D02*
X7Y1220D01*
X538Y1220D02*
X547Y1220D01*
X729Y1220D02*
X738Y1220D01*
X2308Y1220D02*
X2315Y1220D01*
X0Y1219D02*
X7Y1219D01*
X538Y1219D02*
X547Y1219D01*
X729Y1219D02*
X738Y1219D01*
X2308Y1219D02*
X2315Y1219D01*
X0Y1218D02*
X7Y1218D01*
X537Y1218D02*
X547Y1218D01*
X730Y1218D02*
X739Y1218D01*
X2308Y1218D02*
X2315Y1218D01*
X0Y1217D02*
X7Y1217D01*
X537Y1217D02*
X546Y1217D01*
X730Y1217D02*
X739Y1217D01*
X2308Y1217D02*
X2315Y1217D01*
X0Y1216D02*
X7Y1216D01*
X537Y1216D02*
X546Y1216D01*
X730Y1216D02*
X739Y1216D01*
X2308Y1216D02*
X2315Y1216D01*
X0Y1215D02*
X7Y1215D01*
X537Y1215D02*
X546Y1215D01*
X730Y1215D02*
X740Y1215D01*
X2308Y1215D02*
X2315Y1215D01*
X0Y1214D02*
X7Y1214D01*
X536Y1214D02*
X546Y1214D01*
X731Y1214D02*
X740Y1214D01*
X2308Y1214D02*
X2315Y1214D01*
X0Y1213D02*
X7Y1213D01*
X536Y1213D02*
X545Y1213D01*
X731Y1213D02*
X740Y1213D01*
X2308Y1213D02*
X2315Y1213D01*
X0Y1212D02*
X7Y1212D01*
X536Y1212D02*
X545Y1212D01*
X731Y1212D02*
X740Y1212D01*
X2308Y1212D02*
X2315Y1212D01*
X0Y1211D02*
X7Y1211D01*
X536Y1211D02*
X545Y1211D01*
X731Y1211D02*
X740Y1211D01*
X2308Y1211D02*
X2315Y1211D01*
X0Y1210D02*
X7Y1210D01*
X536Y1210D02*
X545Y1210D01*
X732Y1210D02*
X741Y1210D01*
X2308Y1210D02*
X2315Y1210D01*
X0Y1209D02*
X7Y1209D01*
X535Y1209D02*
X544Y1209D01*
X732Y1209D02*
X741Y1209D01*
X2308Y1209D02*
X2315Y1209D01*
X0Y1208D02*
X7Y1208D01*
X535Y1208D02*
X544Y1208D01*
X732Y1208D02*
X741Y1208D01*
X2308Y1208D02*
X2315Y1208D01*
X0Y1207D02*
X7Y1207D01*
X535Y1207D02*
X544Y1207D01*
X732Y1207D02*
X741Y1207D01*
X2308Y1207D02*
X2315Y1207D01*
X0Y1206D02*
X7Y1206D01*
X535Y1206D02*
X544Y1206D01*
X732Y1206D02*
X741Y1206D01*
X2308Y1206D02*
X2315Y1206D01*
X0Y1205D02*
X7Y1205D01*
X535Y1205D02*
X544Y1205D01*
X732Y1205D02*
X742Y1205D01*
X2308Y1205D02*
X2315Y1205D01*
X0Y1204D02*
X7Y1204D01*
X535Y1204D02*
X544Y1204D01*
X733Y1204D02*
X742Y1204D01*
X2308Y1204D02*
X2315Y1204D01*
X0Y1203D02*
X7Y1203D01*
X534Y1203D02*
X543Y1203D01*
X733Y1203D02*
X742Y1203D01*
X2308Y1203D02*
X2315Y1203D01*
X0Y1202D02*
X7Y1202D01*
X534Y1202D02*
X543Y1202D01*
X733Y1202D02*
X742Y1202D01*
X2308Y1202D02*
X2315Y1202D01*
X0Y1201D02*
X7Y1201D01*
X534Y1201D02*
X543Y1201D01*
X733Y1201D02*
X742Y1201D01*
X2308Y1201D02*
X2315Y1201D01*
X0Y1200D02*
X7Y1200D01*
X534Y1200D02*
X543Y1200D01*
X733Y1200D02*
X742Y1200D01*
X2308Y1200D02*
X2315Y1200D01*
X0Y1199D02*
X7Y1199D01*
X534Y1199D02*
X543Y1199D01*
X733Y1199D02*
X742Y1199D01*
X2308Y1199D02*
X2315Y1199D01*
X0Y1198D02*
X7Y1198D01*
X534Y1198D02*
X543Y1198D01*
X733Y1198D02*
X742Y1198D01*
X2308Y1198D02*
X2315Y1198D01*
X0Y1197D02*
X7Y1197D01*
X534Y1197D02*
X543Y1197D01*
X733Y1197D02*
X742Y1197D01*
X2308Y1197D02*
X2315Y1197D01*
X0Y1196D02*
X7Y1196D01*
X534Y1196D02*
X543Y1196D01*
X733Y1196D02*
X742Y1196D01*
X2308Y1196D02*
X2315Y1196D01*
X0Y1195D02*
X7Y1195D01*
X534Y1195D02*
X543Y1195D01*
X733Y1195D02*
X742Y1195D01*
X2308Y1195D02*
X2315Y1195D01*
X0Y1194D02*
X7Y1194D01*
X534Y1194D02*
X543Y1194D01*
X733Y1194D02*
X742Y1194D01*
X2308Y1194D02*
X2315Y1194D01*
X0Y1193D02*
X7Y1193D01*
X534Y1193D02*
X543Y1193D01*
X734Y1193D02*
X743Y1193D01*
X2308Y1193D02*
X2315Y1193D01*
X0Y1192D02*
X7Y1192D01*
X534Y1192D02*
X543Y1192D01*
X734Y1192D02*
X743Y1192D01*
X2308Y1192D02*
X2315Y1192D01*
X0Y1191D02*
X7Y1191D01*
X534Y1191D02*
X543Y1191D01*
X734Y1191D02*
X743Y1191D01*
X2308Y1191D02*
X2315Y1191D01*
X0Y1190D02*
X7Y1190D01*
X534Y1190D02*
X543Y1190D01*
X734Y1190D02*
X743Y1190D01*
X2308Y1190D02*
X2315Y1190D01*
X0Y1189D02*
X7Y1189D01*
X534Y1189D02*
X543Y1189D01*
X734Y1189D02*
X743Y1189D01*
X2308Y1189D02*
X2315Y1189D01*
X0Y1188D02*
X7Y1188D01*
X534Y1188D02*
X543Y1188D01*
X734Y1188D02*
X743Y1188D01*
X2308Y1188D02*
X2315Y1188D01*
X0Y1187D02*
X7Y1187D01*
X534Y1187D02*
X543Y1187D01*
X734Y1187D02*
X742Y1187D01*
X2308Y1187D02*
X2315Y1187D01*
X0Y1186D02*
X7Y1186D01*
X534Y1186D02*
X543Y1186D01*
X733Y1186D02*
X742Y1186D01*
X2308Y1186D02*
X2315Y1186D01*
X0Y1185D02*
X7Y1185D01*
X534Y1185D02*
X543Y1185D01*
X733Y1185D02*
X742Y1185D01*
X2308Y1185D02*
X2315Y1185D01*
X0Y1184D02*
X7Y1184D01*
X534Y1184D02*
X543Y1184D01*
X733Y1184D02*
X742Y1184D01*
X2308Y1184D02*
X2315Y1184D01*
X0Y1183D02*
X7Y1183D01*
X534Y1183D02*
X543Y1183D01*
X733Y1183D02*
X742Y1183D01*
X2308Y1183D02*
X2315Y1183D01*
X0Y1182D02*
X7Y1182D01*
X534Y1182D02*
X543Y1182D01*
X733Y1182D02*
X742Y1182D01*
X2308Y1182D02*
X2315Y1182D01*
X0Y1181D02*
X7Y1181D01*
X534Y1181D02*
X543Y1181D01*
X733Y1181D02*
X742Y1181D01*
X2308Y1181D02*
X2315Y1181D01*
X0Y1180D02*
X7Y1180D01*
X534Y1180D02*
X543Y1180D01*
X733Y1180D02*
X742Y1180D01*
X2308Y1180D02*
X2315Y1180D01*
X0Y1179D02*
X7Y1179D01*
X534Y1179D02*
X543Y1179D01*
X733Y1179D02*
X742Y1179D01*
X2308Y1179D02*
X2315Y1179D01*
X0Y1178D02*
X7Y1178D01*
X534Y1178D02*
X543Y1178D01*
X733Y1178D02*
X742Y1178D01*
X2308Y1178D02*
X2315Y1178D01*
X0Y1177D02*
X7Y1177D01*
X534Y1177D02*
X544Y1177D01*
X733Y1177D02*
X742Y1177D01*
X2308Y1177D02*
X2315Y1177D01*
X0Y1176D02*
X7Y1176D01*
X535Y1176D02*
X544Y1176D01*
X733Y1176D02*
X742Y1176D01*
X2308Y1176D02*
X2315Y1176D01*
X0Y1175D02*
X7Y1175D01*
X535Y1175D02*
X544Y1175D01*
X732Y1175D02*
X741Y1175D01*
X2308Y1175D02*
X2315Y1175D01*
X0Y1174D02*
X7Y1174D01*
X535Y1174D02*
X544Y1174D01*
X732Y1174D02*
X741Y1174D01*
X2308Y1174D02*
X2315Y1174D01*
X0Y1173D02*
X7Y1173D01*
X535Y1173D02*
X544Y1173D01*
X732Y1173D02*
X741Y1173D01*
X2308Y1173D02*
X2315Y1173D01*
X0Y1172D02*
X7Y1172D01*
X535Y1172D02*
X544Y1172D01*
X732Y1172D02*
X741Y1172D01*
X2308Y1172D02*
X2315Y1172D01*
X0Y1171D02*
X7Y1171D01*
X535Y1171D02*
X545Y1171D01*
X732Y1171D02*
X741Y1171D01*
X2308Y1171D02*
X2315Y1171D01*
X0Y1170D02*
X7Y1170D01*
X536Y1170D02*
X545Y1170D01*
X731Y1170D02*
X741Y1170D01*
X2308Y1170D02*
X2315Y1170D01*
X0Y1169D02*
X7Y1169D01*
X536Y1169D02*
X545Y1169D01*
X731Y1169D02*
X740Y1169D01*
X2308Y1169D02*
X2315Y1169D01*
X0Y1168D02*
X7Y1168D01*
X536Y1168D02*
X545Y1168D01*
X731Y1168D02*
X740Y1168D01*
X2308Y1168D02*
X2315Y1168D01*
X0Y1167D02*
X7Y1167D01*
X536Y1167D02*
X545Y1167D01*
X731Y1167D02*
X740Y1167D01*
X2308Y1167D02*
X2315Y1167D01*
X0Y1166D02*
X7Y1166D01*
X537Y1166D02*
X546Y1166D01*
X731Y1166D02*
X740Y1166D01*
X2308Y1166D02*
X2315Y1166D01*
X0Y1165D02*
X7Y1165D01*
X537Y1165D02*
X546Y1165D01*
X730Y1165D02*
X739Y1165D01*
X2308Y1165D02*
X2315Y1165D01*
X0Y1164D02*
X7Y1164D01*
X537Y1164D02*
X546Y1164D01*
X730Y1164D02*
X739Y1164D01*
X2308Y1164D02*
X2315Y1164D01*
X0Y1163D02*
X7Y1163D01*
X537Y1163D02*
X547Y1163D01*
X730Y1163D02*
X739Y1163D01*
X2308Y1163D02*
X2315Y1163D01*
X0Y1162D02*
X7Y1162D01*
X538Y1162D02*
X547Y1162D01*
X729Y1162D02*
X739Y1162D01*
X2308Y1162D02*
X2315Y1162D01*
X0Y1161D02*
X7Y1161D01*
X538Y1161D02*
X547Y1161D01*
X729Y1161D02*
X738Y1161D01*
X2308Y1161D02*
X2315Y1161D01*
X0Y1160D02*
X7Y1160D01*
X538Y1160D02*
X548Y1160D01*
X581Y1160D02*
X585Y1160D01*
X691Y1160D02*
X695Y1160D01*
X729Y1160D02*
X738Y1160D01*
X2308Y1160D02*
X2315Y1160D01*
X0Y1159D02*
X7Y1159D01*
X538Y1159D02*
X548Y1159D01*
X580Y1159D02*
X587Y1159D01*
X690Y1159D02*
X697Y1159D01*
X728Y1159D02*
X738Y1159D01*
X2308Y1159D02*
X2315Y1159D01*
X0Y1158D02*
X7Y1158D01*
X539Y1158D02*
X548Y1158D01*
X579Y1158D02*
X587Y1158D01*
X689Y1158D02*
X697Y1158D01*
X728Y1158D02*
X737Y1158D01*
X2308Y1158D02*
X2315Y1158D01*
X0Y1157D02*
X7Y1157D01*
X539Y1157D02*
X549Y1157D01*
X578Y1157D02*
X588Y1157D01*
X688Y1157D02*
X698Y1157D01*
X728Y1157D02*
X737Y1157D01*
X2308Y1157D02*
X2315Y1157D01*
X0Y1156D02*
X7Y1156D01*
X539Y1156D02*
X549Y1156D01*
X578Y1156D02*
X588Y1156D01*
X688Y1156D02*
X698Y1156D01*
X727Y1156D02*
X737Y1156D01*
X2308Y1156D02*
X2315Y1156D01*
X0Y1155D02*
X7Y1155D01*
X540Y1155D02*
X549Y1155D01*
X578Y1155D02*
X588Y1155D01*
X688Y1155D02*
X698Y1155D01*
X727Y1155D02*
X736Y1155D01*
X2308Y1155D02*
X2315Y1155D01*
X0Y1154D02*
X7Y1154D01*
X540Y1154D02*
X550Y1154D01*
X578Y1154D02*
X588Y1154D01*
X688Y1154D02*
X698Y1154D01*
X726Y1154D02*
X736Y1154D01*
X2308Y1154D02*
X2315Y1154D01*
X0Y1153D02*
X7Y1153D01*
X541Y1153D02*
X550Y1153D01*
X578Y1153D02*
X588Y1153D01*
X688Y1153D02*
X698Y1153D01*
X726Y1153D02*
X736Y1153D01*
X2308Y1153D02*
X2315Y1153D01*
X0Y1152D02*
X7Y1152D01*
X541Y1152D02*
X551Y1152D01*
X578Y1152D02*
X588Y1152D01*
X688Y1152D02*
X698Y1152D01*
X726Y1152D02*
X735Y1152D01*
X2308Y1152D02*
X2315Y1152D01*
X0Y1151D02*
X7Y1151D01*
X541Y1151D02*
X551Y1151D01*
X578Y1151D02*
X588Y1151D01*
X688Y1151D02*
X698Y1151D01*
X725Y1151D02*
X735Y1151D01*
X2308Y1151D02*
X2315Y1151D01*
X0Y1150D02*
X7Y1150D01*
X542Y1150D02*
X552Y1150D01*
X578Y1150D02*
X588Y1150D01*
X688Y1150D02*
X698Y1150D01*
X725Y1150D02*
X734Y1150D01*
X1985Y1150D02*
X2040Y1150D01*
X2308Y1150D02*
X2315Y1150D01*
X0Y1149D02*
X7Y1149D01*
X542Y1149D02*
X552Y1149D01*
X578Y1149D02*
X588Y1149D01*
X688Y1149D02*
X698Y1149D01*
X724Y1149D02*
X734Y1149D01*
X1984Y1149D02*
X2042Y1149D01*
X2308Y1149D02*
X2315Y1149D01*
X0Y1148D02*
X7Y1148D01*
X543Y1148D02*
X553Y1148D01*
X578Y1148D02*
X588Y1148D01*
X688Y1148D02*
X698Y1148D01*
X724Y1148D02*
X734Y1148D01*
X1984Y1148D02*
X2042Y1148D01*
X2308Y1148D02*
X2315Y1148D01*
X0Y1147D02*
X7Y1147D01*
X543Y1147D02*
X553Y1147D01*
X578Y1147D02*
X588Y1147D01*
X688Y1147D02*
X698Y1147D01*
X723Y1147D02*
X733Y1147D01*
X1983Y1147D02*
X2043Y1147D01*
X2308Y1147D02*
X2315Y1147D01*
X0Y1146D02*
X7Y1146D01*
X544Y1146D02*
X553Y1146D01*
X578Y1146D02*
X588Y1146D01*
X688Y1146D02*
X698Y1146D01*
X723Y1146D02*
X733Y1146D01*
X1983Y1146D02*
X2043Y1146D01*
X2308Y1146D02*
X2315Y1146D01*
X0Y1145D02*
X7Y1145D01*
X544Y1145D02*
X554Y1145D01*
X578Y1145D02*
X588Y1145D01*
X688Y1145D02*
X698Y1145D01*
X722Y1145D02*
X732Y1145D01*
X1983Y1145D02*
X2043Y1145D01*
X2308Y1145D02*
X2315Y1145D01*
X0Y1144D02*
X7Y1144D01*
X545Y1144D02*
X555Y1144D01*
X578Y1144D02*
X588Y1144D01*
X688Y1144D02*
X698Y1144D01*
X722Y1144D02*
X732Y1144D01*
X1983Y1144D02*
X2043Y1144D01*
X2308Y1144D02*
X2315Y1144D01*
X0Y1143D02*
X7Y1143D01*
X545Y1143D02*
X555Y1143D01*
X578Y1143D02*
X588Y1143D01*
X688Y1143D02*
X698Y1143D01*
X721Y1143D02*
X731Y1143D01*
X1983Y1143D02*
X2042Y1143D01*
X2308Y1143D02*
X2315Y1143D01*
X0Y1142D02*
X7Y1142D01*
X546Y1142D02*
X556Y1142D01*
X578Y1142D02*
X588Y1142D01*
X688Y1142D02*
X698Y1142D01*
X720Y1142D02*
X731Y1142D01*
X1984Y1142D02*
X2042Y1142D01*
X2308Y1142D02*
X2315Y1142D01*
X0Y1141D02*
X7Y1141D01*
X546Y1141D02*
X556Y1141D01*
X578Y1141D02*
X588Y1141D01*
X688Y1141D02*
X698Y1141D01*
X720Y1141D02*
X730Y1141D01*
X1985Y1141D02*
X2041Y1141D01*
X2308Y1141D02*
X2315Y1141D01*
X0Y1140D02*
X7Y1140D01*
X547Y1140D02*
X557Y1140D01*
X578Y1140D02*
X588Y1140D01*
X688Y1140D02*
X698Y1140D01*
X719Y1140D02*
X730Y1140D01*
X1987Y1140D02*
X2039Y1140D01*
X2308Y1140D02*
X2315Y1140D01*
X0Y1139D02*
X7Y1139D01*
X547Y1139D02*
X558Y1139D01*
X578Y1139D02*
X588Y1139D01*
X688Y1139D02*
X698Y1139D01*
X719Y1139D02*
X729Y1139D01*
X2308Y1139D02*
X2315Y1139D01*
X0Y1138D02*
X7Y1138D01*
X548Y1138D02*
X558Y1138D01*
X578Y1138D02*
X588Y1138D01*
X688Y1138D02*
X698Y1138D01*
X718Y1138D02*
X728Y1138D01*
X2308Y1138D02*
X2315Y1138D01*
X0Y1137D02*
X7Y1137D01*
X548Y1137D02*
X559Y1137D01*
X578Y1137D02*
X588Y1137D01*
X688Y1137D02*
X698Y1137D01*
X717Y1137D02*
X728Y1137D01*
X2308Y1137D02*
X2315Y1137D01*
X0Y1136D02*
X7Y1136D01*
X549Y1136D02*
X560Y1136D01*
X578Y1136D02*
X588Y1136D01*
X688Y1136D02*
X698Y1136D01*
X717Y1136D02*
X727Y1136D01*
X2308Y1136D02*
X2315Y1136D01*
X0Y1135D02*
X7Y1135D01*
X550Y1135D02*
X560Y1135D01*
X578Y1135D02*
X588Y1135D01*
X688Y1135D02*
X698Y1135D01*
X716Y1135D02*
X727Y1135D01*
X2308Y1135D02*
X2315Y1135D01*
X0Y1134D02*
X7Y1134D01*
X550Y1134D02*
X561Y1134D01*
X578Y1134D02*
X588Y1134D01*
X688Y1134D02*
X698Y1134D01*
X715Y1134D02*
X726Y1134D01*
X2308Y1134D02*
X2315Y1134D01*
X0Y1133D02*
X7Y1133D01*
X551Y1133D02*
X562Y1133D01*
X578Y1133D02*
X588Y1133D01*
X688Y1133D02*
X698Y1133D01*
X714Y1133D02*
X725Y1133D01*
X2308Y1133D02*
X2315Y1133D01*
X0Y1132D02*
X7Y1132D01*
X551Y1132D02*
X563Y1132D01*
X578Y1132D02*
X588Y1132D01*
X688Y1132D02*
X698Y1132D01*
X714Y1132D02*
X725Y1132D01*
X2308Y1132D02*
X2315Y1132D01*
X0Y1131D02*
X7Y1131D01*
X552Y1131D02*
X563Y1131D01*
X578Y1131D02*
X588Y1131D01*
X688Y1131D02*
X698Y1131D01*
X713Y1131D02*
X724Y1131D01*
X2308Y1131D02*
X2315Y1131D01*
X0Y1130D02*
X7Y1130D01*
X553Y1130D02*
X564Y1130D01*
X578Y1130D02*
X588Y1130D01*
X688Y1130D02*
X698Y1130D01*
X712Y1130D02*
X723Y1130D01*
X2308Y1130D02*
X2315Y1130D01*
X0Y1129D02*
X7Y1129D01*
X554Y1129D02*
X565Y1129D01*
X578Y1129D02*
X588Y1129D01*
X688Y1129D02*
X698Y1129D01*
X711Y1129D02*
X723Y1129D01*
X2308Y1129D02*
X2315Y1129D01*
X0Y1128D02*
X7Y1128D01*
X554Y1128D02*
X566Y1128D01*
X578Y1128D02*
X588Y1128D01*
X688Y1128D02*
X698Y1128D01*
X710Y1128D02*
X722Y1128D01*
X2308Y1128D02*
X2315Y1128D01*
X0Y1127D02*
X7Y1127D01*
X555Y1127D02*
X567Y1127D01*
X578Y1127D02*
X588Y1127D01*
X688Y1127D02*
X698Y1127D01*
X709Y1127D02*
X721Y1127D01*
X2308Y1127D02*
X2315Y1127D01*
X0Y1126D02*
X7Y1126D01*
X556Y1126D02*
X568Y1126D01*
X578Y1126D02*
X588Y1126D01*
X688Y1126D02*
X698Y1126D01*
X708Y1126D02*
X720Y1126D01*
X2308Y1126D02*
X2315Y1126D01*
X0Y1125D02*
X7Y1125D01*
X557Y1125D02*
X569Y1125D01*
X578Y1125D02*
X588Y1125D01*
X688Y1125D02*
X698Y1125D01*
X707Y1125D02*
X720Y1125D01*
X2308Y1125D02*
X2315Y1125D01*
X0Y1124D02*
X7Y1124D01*
X557Y1124D02*
X570Y1124D01*
X578Y1124D02*
X588Y1124D01*
X688Y1124D02*
X698Y1124D01*
X707Y1124D02*
X719Y1124D01*
X2308Y1124D02*
X2315Y1124D01*
X0Y1123D02*
X7Y1123D01*
X558Y1123D02*
X571Y1123D01*
X579Y1123D02*
X588Y1123D01*
X689Y1123D02*
X698Y1123D01*
X706Y1123D02*
X718Y1123D01*
X2308Y1123D02*
X2315Y1123D01*
X0Y1122D02*
X7Y1122D01*
X559Y1122D02*
X572Y1122D01*
X579Y1122D02*
X587Y1122D01*
X689Y1122D02*
X697Y1122D01*
X705Y1122D02*
X717Y1122D01*
X2308Y1122D02*
X2315Y1122D01*
X0Y1121D02*
X7Y1121D01*
X560Y1121D02*
X573Y1121D01*
X580Y1121D02*
X586Y1121D01*
X690Y1121D02*
X696Y1121D01*
X703Y1121D02*
X716Y1121D01*
X2308Y1121D02*
X2315Y1121D01*
X0Y1120D02*
X7Y1120D01*
X561Y1120D02*
X574Y1120D01*
X583Y1120D02*
X584Y1120D01*
X693Y1120D02*
X694Y1120D01*
X702Y1120D02*
X715Y1120D01*
X2308Y1120D02*
X2315Y1120D01*
X0Y1119D02*
X7Y1119D01*
X562Y1119D02*
X575Y1119D01*
X701Y1119D02*
X714Y1119D01*
X2308Y1119D02*
X2315Y1119D01*
X0Y1118D02*
X7Y1118D01*
X563Y1118D02*
X576Y1118D01*
X700Y1118D02*
X714Y1118D01*
X2308Y1118D02*
X2315Y1118D01*
X0Y1117D02*
X7Y1117D01*
X564Y1117D02*
X577Y1117D01*
X699Y1117D02*
X713Y1117D01*
X2308Y1117D02*
X2315Y1117D01*
X0Y1116D02*
X7Y1116D01*
X564Y1116D02*
X578Y1116D01*
X698Y1116D02*
X712Y1116D01*
X2308Y1116D02*
X2315Y1116D01*
X0Y1115D02*
X7Y1115D01*
X566Y1115D02*
X580Y1115D01*
X696Y1115D02*
X711Y1115D01*
X2308Y1115D02*
X2315Y1115D01*
X0Y1114D02*
X7Y1114D01*
X567Y1114D02*
X581Y1114D01*
X695Y1114D02*
X710Y1114D01*
X2308Y1114D02*
X2315Y1114D01*
X0Y1113D02*
X7Y1113D01*
X568Y1113D02*
X582Y1113D01*
X694Y1113D02*
X708Y1113D01*
X2308Y1113D02*
X2315Y1113D01*
X0Y1112D02*
X7Y1112D01*
X569Y1112D02*
X584Y1112D01*
X692Y1112D02*
X707Y1112D01*
X2308Y1112D02*
X2315Y1112D01*
X0Y1111D02*
X7Y1111D01*
X570Y1111D02*
X585Y1111D01*
X691Y1111D02*
X706Y1111D01*
X2308Y1111D02*
X2315Y1111D01*
X0Y1110D02*
X7Y1110D01*
X571Y1110D02*
X587Y1110D01*
X689Y1110D02*
X705Y1110D01*
X2308Y1110D02*
X2315Y1110D01*
X0Y1109D02*
X7Y1109D01*
X572Y1109D02*
X589Y1109D01*
X688Y1109D02*
X704Y1109D01*
X2308Y1109D02*
X2315Y1109D01*
X0Y1108D02*
X7Y1108D01*
X574Y1108D02*
X590Y1108D01*
X686Y1108D02*
X703Y1108D01*
X2308Y1108D02*
X2315Y1108D01*
X0Y1107D02*
X7Y1107D01*
X575Y1107D02*
X592Y1107D01*
X684Y1107D02*
X701Y1107D01*
X2308Y1107D02*
X2315Y1107D01*
X0Y1106D02*
X7Y1106D01*
X576Y1106D02*
X594Y1106D01*
X682Y1106D02*
X700Y1106D01*
X2308Y1106D02*
X2315Y1106D01*
X0Y1105D02*
X7Y1105D01*
X578Y1105D02*
X595Y1105D01*
X681Y1105D02*
X699Y1105D01*
X2308Y1105D02*
X2315Y1105D01*
X0Y1104D02*
X7Y1104D01*
X579Y1104D02*
X595Y1104D01*
X681Y1104D02*
X697Y1104D01*
X2308Y1104D02*
X2315Y1104D01*
X0Y1103D02*
X7Y1103D01*
X580Y1103D02*
X595Y1103D01*
X681Y1103D02*
X696Y1103D01*
X2308Y1103D02*
X2315Y1103D01*
X0Y1102D02*
X7Y1102D01*
X582Y1102D02*
X595Y1102D01*
X681Y1102D02*
X694Y1102D01*
X2308Y1102D02*
X2315Y1102D01*
X0Y1101D02*
X7Y1101D01*
X584Y1101D02*
X595Y1101D01*
X681Y1101D02*
X692Y1101D01*
X2308Y1101D02*
X2315Y1101D01*
X0Y1100D02*
X7Y1100D01*
X585Y1100D02*
X595Y1100D01*
X681Y1100D02*
X691Y1100D01*
X2308Y1100D02*
X2315Y1100D01*
X0Y1099D02*
X7Y1099D01*
X587Y1099D02*
X595Y1099D01*
X681Y1099D02*
X689Y1099D01*
X2308Y1099D02*
X2315Y1099D01*
X0Y1098D02*
X7Y1098D01*
X589Y1098D02*
X595Y1098D01*
X681Y1098D02*
X687Y1098D01*
X2308Y1098D02*
X2315Y1098D01*
X0Y1097D02*
X7Y1097D01*
X591Y1097D02*
X620Y1097D01*
X657Y1097D02*
X685Y1097D01*
X2308Y1097D02*
X2315Y1097D01*
X0Y1096D02*
X7Y1096D01*
X593Y1096D02*
X626Y1096D01*
X650Y1096D02*
X683Y1096D01*
X2308Y1096D02*
X2315Y1096D01*
X0Y1095D02*
X7Y1095D01*
X595Y1095D02*
X681Y1095D01*
X2308Y1095D02*
X2315Y1095D01*
X0Y1094D02*
X7Y1094D01*
X597Y1094D02*
X679Y1094D01*
X2308Y1094D02*
X2315Y1094D01*
X0Y1093D02*
X7Y1093D01*
X599Y1093D02*
X677Y1093D01*
X2308Y1093D02*
X2315Y1093D01*
X0Y1092D02*
X7Y1092D01*
X602Y1092D02*
X674Y1092D01*
X2308Y1092D02*
X2315Y1092D01*
X0Y1091D02*
X7Y1091D01*
X605Y1091D02*
X671Y1091D01*
X2308Y1091D02*
X2315Y1091D01*
X0Y1090D02*
X7Y1090D01*
X608Y1090D02*
X668Y1090D01*
X2308Y1090D02*
X2315Y1090D01*
X0Y1089D02*
X7Y1089D01*
X611Y1089D02*
X665Y1089D01*
X2308Y1089D02*
X2315Y1089D01*
X0Y1088D02*
X7Y1088D01*
X615Y1088D02*
X661Y1088D01*
X2308Y1088D02*
X2315Y1088D01*
X0Y1087D02*
X7Y1087D01*
X620Y1087D02*
X656Y1087D01*
X2308Y1087D02*
X2315Y1087D01*
X0Y1086D02*
X7Y1086D01*
X627Y1086D02*
X649Y1086D01*
X2308Y1086D02*
X2315Y1086D01*
X0Y1085D02*
X7Y1085D01*
X2308Y1085D02*
X2315Y1085D01*
X0Y1084D02*
X7Y1084D01*
X2308Y1084D02*
X2315Y1084D01*
X0Y1083D02*
X7Y1083D01*
X2308Y1083D02*
X2315Y1083D01*
X0Y1082D02*
X7Y1082D01*
X2308Y1082D02*
X2315Y1082D01*
X0Y1081D02*
X7Y1081D01*
X2308Y1081D02*
X2315Y1081D01*
X0Y1080D02*
X7Y1080D01*
X2308Y1080D02*
X2315Y1080D01*
X0Y1079D02*
X7Y1079D01*
X2308Y1079D02*
X2315Y1079D01*
X0Y1078D02*
X7Y1078D01*
X2308Y1078D02*
X2315Y1078D01*
X0Y1077D02*
X7Y1077D01*
X2308Y1077D02*
X2315Y1077D01*
X0Y1076D02*
X7Y1076D01*
X2308Y1076D02*
X2315Y1076D01*
X0Y1075D02*
X7Y1075D01*
X2308Y1075D02*
X2315Y1075D01*
X0Y1074D02*
X7Y1074D01*
X2308Y1074D02*
X2315Y1074D01*
X0Y1073D02*
X7Y1073D01*
X2308Y1073D02*
X2315Y1073D01*
X0Y1072D02*
X7Y1072D01*
X2308Y1072D02*
X2315Y1072D01*
X0Y1071D02*
X7Y1071D01*
X2308Y1071D02*
X2315Y1071D01*
X0Y1070D02*
X7Y1070D01*
X2308Y1070D02*
X2315Y1070D01*
X0Y1069D02*
X7Y1069D01*
X2308Y1069D02*
X2315Y1069D01*
X0Y1068D02*
X7Y1068D01*
X2308Y1068D02*
X2315Y1068D01*
X0Y1067D02*
X7Y1067D01*
X2308Y1067D02*
X2315Y1067D01*
X0Y1066D02*
X7Y1066D01*
X2308Y1066D02*
X2315Y1066D01*
X0Y1065D02*
X7Y1065D01*
X2308Y1065D02*
X2315Y1065D01*
X0Y1064D02*
X7Y1064D01*
X2308Y1064D02*
X2315Y1064D01*
X0Y1063D02*
X7Y1063D01*
X2308Y1063D02*
X2315Y1063D01*
X0Y1062D02*
X7Y1062D01*
X2308Y1062D02*
X2315Y1062D01*
X0Y1061D02*
X7Y1061D01*
X2308Y1061D02*
X2315Y1061D01*
X0Y1060D02*
X7Y1060D01*
X2308Y1060D02*
X2315Y1060D01*
X0Y1059D02*
X7Y1059D01*
X2308Y1059D02*
X2315Y1059D01*
X0Y1058D02*
X7Y1058D01*
X2308Y1058D02*
X2315Y1058D01*
X0Y1057D02*
X7Y1057D01*
X2308Y1057D02*
X2315Y1057D01*
X0Y1056D02*
X7Y1056D01*
X2308Y1056D02*
X2315Y1056D01*
X0Y1055D02*
X7Y1055D01*
X2308Y1055D02*
X2315Y1055D01*
X0Y1054D02*
X7Y1054D01*
X2308Y1054D02*
X2315Y1054D01*
X0Y1053D02*
X7Y1053D01*
X2308Y1053D02*
X2315Y1053D01*
X0Y1052D02*
X7Y1052D01*
X2308Y1052D02*
X2315Y1052D01*
X0Y1051D02*
X7Y1051D01*
X2308Y1051D02*
X2315Y1051D01*
X0Y1050D02*
X7Y1050D01*
X2308Y1050D02*
X2315Y1050D01*
X0Y1049D02*
X7Y1049D01*
X2308Y1049D02*
X2315Y1049D01*
X0Y1048D02*
X7Y1048D01*
X2308Y1048D02*
X2315Y1048D01*
X0Y1047D02*
X7Y1047D01*
X2308Y1047D02*
X2315Y1047D01*
X0Y1046D02*
X7Y1046D01*
X2308Y1046D02*
X2315Y1046D01*
X0Y1045D02*
X7Y1045D01*
X2308Y1045D02*
X2315Y1045D01*
X0Y1044D02*
X7Y1044D01*
X2308Y1044D02*
X2315Y1044D01*
X0Y1043D02*
X7Y1043D01*
X2308Y1043D02*
X2315Y1043D01*
X0Y1042D02*
X7Y1042D01*
X2308Y1042D02*
X2315Y1042D01*
X0Y1041D02*
X7Y1041D01*
X2308Y1041D02*
X2315Y1041D01*
X0Y1040D02*
X7Y1040D01*
X2308Y1040D02*
X2315Y1040D01*
X0Y1039D02*
X7Y1039D01*
X2308Y1039D02*
X2315Y1039D01*
X0Y1038D02*
X7Y1038D01*
X2308Y1038D02*
X2315Y1038D01*
X0Y1037D02*
X7Y1037D01*
X2308Y1037D02*
X2315Y1037D01*
X0Y1036D02*
X7Y1036D01*
X2308Y1036D02*
X2315Y1036D01*
X0Y1035D02*
X7Y1035D01*
X2308Y1035D02*
X2315Y1035D01*
X0Y1034D02*
X7Y1034D01*
X2308Y1034D02*
X2315Y1034D01*
X0Y1033D02*
X7Y1033D01*
X2308Y1033D02*
X2315Y1033D01*
X0Y1032D02*
X7Y1032D01*
X2308Y1032D02*
X2315Y1032D01*
X0Y1031D02*
X7Y1031D01*
X2308Y1031D02*
X2315Y1031D01*
X0Y1030D02*
X7Y1030D01*
X2308Y1030D02*
X2315Y1030D01*
X0Y1029D02*
X7Y1029D01*
X2308Y1029D02*
X2315Y1029D01*
X0Y1028D02*
X7Y1028D01*
X2308Y1028D02*
X2315Y1028D01*
X0Y1027D02*
X7Y1027D01*
X2308Y1027D02*
X2315Y1027D01*
X0Y1026D02*
X7Y1026D01*
X2308Y1026D02*
X2315Y1026D01*
X0Y1025D02*
X7Y1025D01*
X2308Y1025D02*
X2315Y1025D01*
X0Y1024D02*
X7Y1024D01*
X2308Y1024D02*
X2315Y1024D01*
X0Y1023D02*
X7Y1023D01*
X2308Y1023D02*
X2315Y1023D01*
X0Y1022D02*
X7Y1022D01*
X2308Y1022D02*
X2315Y1022D01*
X0Y1021D02*
X7Y1021D01*
X2308Y1021D02*
X2315Y1021D01*
X0Y1020D02*
X7Y1020D01*
X2308Y1020D02*
X2315Y1020D01*
X0Y1019D02*
X7Y1019D01*
X2308Y1019D02*
X2315Y1019D01*
X0Y1018D02*
X7Y1018D01*
X2308Y1018D02*
X2315Y1018D01*
X0Y1017D02*
X7Y1017D01*
X2308Y1017D02*
X2315Y1017D01*
X0Y1016D02*
X7Y1016D01*
X2308Y1016D02*
X2315Y1016D01*
X0Y1015D02*
X7Y1015D01*
X2308Y1015D02*
X2315Y1015D01*
X0Y1014D02*
X7Y1014D01*
X1238Y1014D02*
X1259Y1014D01*
X1288Y1014D02*
X1313Y1014D01*
X1338Y1014D02*
X1363Y1014D01*
X1399Y1014D02*
X1402Y1014D01*
X1435Y1014D02*
X1438Y1014D01*
X1463Y1014D02*
X1466Y1014D01*
X1485Y1014D02*
X1517Y1014D01*
X2308Y1014D02*
X2315Y1014D01*
X0Y1013D02*
X7Y1013D01*
X1236Y1013D02*
X1262Y1013D01*
X1286Y1013D02*
X1315Y1013D01*
X1336Y1013D02*
X1365Y1013D01*
X1398Y1013D02*
X1403Y1013D01*
X1434Y1013D02*
X1439Y1013D01*
X1462Y1013D02*
X1467Y1013D01*
X1484Y1013D02*
X1517Y1013D01*
X2308Y1013D02*
X2315Y1013D01*
X0Y1012D02*
X7Y1012D01*
X1235Y1012D02*
X1264Y1012D01*
X1285Y1012D02*
X1316Y1012D01*
X1335Y1012D02*
X1366Y1012D01*
X1398Y1012D02*
X1403Y1012D01*
X1434Y1012D02*
X1440Y1012D01*
X1461Y1012D02*
X1467Y1012D01*
X1484Y1012D02*
X1517Y1012D01*
X2308Y1012D02*
X2315Y1012D01*
X0Y1011D02*
X7Y1011D01*
X1235Y1011D02*
X1266Y1011D01*
X1285Y1011D02*
X1316Y1011D01*
X1335Y1011D02*
X1366Y1011D01*
X1398Y1011D02*
X1404Y1011D01*
X1434Y1011D02*
X1440Y1011D01*
X1461Y1011D02*
X1467Y1011D01*
X1484Y1011D02*
X1517Y1011D01*
X2308Y1011D02*
X2315Y1011D01*
X0Y1010D02*
X7Y1010D01*
X1234Y1010D02*
X1267Y1010D01*
X1284Y1010D02*
X1317Y1010D01*
X1334Y1010D02*
X1367Y1010D01*
X1398Y1010D02*
X1404Y1010D01*
X1434Y1010D02*
X1440Y1010D01*
X1461Y1010D02*
X1467Y1010D01*
X1484Y1010D02*
X1517Y1010D01*
X2308Y1010D02*
X2315Y1010D01*
X0Y1009D02*
X7Y1009D01*
X1234Y1009D02*
X1267Y1009D01*
X1284Y1009D02*
X1317Y1009D01*
X1334Y1009D02*
X1367Y1009D01*
X1398Y1009D02*
X1404Y1009D01*
X1434Y1009D02*
X1440Y1009D01*
X1461Y1009D02*
X1467Y1009D01*
X1485Y1009D02*
X1517Y1009D01*
X1618Y1009D02*
X1648Y1009D01*
X1668Y1009D02*
X1685Y1009D01*
X2308Y1009D02*
X2315Y1009D01*
X0Y1008D02*
X7Y1008D01*
X1234Y1008D02*
X1267Y1008D01*
X1284Y1008D02*
X1317Y1008D01*
X1334Y1008D02*
X1367Y1008D01*
X1398Y1008D02*
X1404Y1008D01*
X1434Y1008D02*
X1440Y1008D01*
X1461Y1008D02*
X1467Y1008D01*
X1486Y1008D02*
X1517Y1008D01*
X1617Y1008D02*
X1649Y1008D01*
X1667Y1008D02*
X1687Y1008D01*
X2308Y1008D02*
X2315Y1008D01*
X0Y1007D02*
X7Y1007D01*
X1234Y1007D02*
X1240Y1007D01*
X1259Y1007D02*
X1267Y1007D01*
X1284Y1007D02*
X1290Y1007D01*
X1311Y1007D02*
X1317Y1007D01*
X1334Y1007D02*
X1340Y1007D01*
X1361Y1007D02*
X1367Y1007D01*
X1398Y1007D02*
X1404Y1007D01*
X1434Y1007D02*
X1440Y1007D01*
X1461Y1007D02*
X1467Y1007D01*
X1511Y1007D02*
X1517Y1007D01*
X1616Y1007D02*
X1649Y1007D01*
X1666Y1007D02*
X1688Y1007D01*
X2308Y1007D02*
X2315Y1007D01*
X0Y1006D02*
X7Y1006D01*
X794Y1006D02*
X826Y1006D01*
X844Y1006D02*
X874Y1006D01*
X897Y1006D02*
X921Y1006D01*
X958Y1006D02*
X960Y1006D01*
X994Y1006D02*
X996Y1006D01*
X1022Y1006D02*
X1024Y1006D01*
X1044Y1006D02*
X1076Y1006D01*
X1234Y1006D02*
X1240Y1006D01*
X1261Y1006D02*
X1266Y1006D01*
X1284Y1006D02*
X1290Y1006D01*
X1311Y1006D02*
X1317Y1006D01*
X1334Y1006D02*
X1340Y1006D01*
X1361Y1006D02*
X1367Y1006D01*
X1398Y1006D02*
X1404Y1006D01*
X1434Y1006D02*
X1440Y1006D01*
X1461Y1006D02*
X1467Y1006D01*
X1511Y1006D02*
X1517Y1006D01*
X1616Y1006D02*
X1650Y1006D01*
X1666Y1006D02*
X1689Y1006D01*
X2308Y1006D02*
X2315Y1006D01*
X0Y1005D02*
X7Y1005D01*
X793Y1005D02*
X826Y1005D01*
X843Y1005D02*
X875Y1005D01*
X895Y1005D02*
X923Y1005D01*
X957Y1005D02*
X961Y1005D01*
X993Y1005D02*
X997Y1005D01*
X1020Y1005D02*
X1025Y1005D01*
X1043Y1005D02*
X1076Y1005D01*
X1234Y1005D02*
X1240Y1005D01*
X1264Y1005D02*
X1265Y1005D01*
X1284Y1005D02*
X1290Y1005D01*
X1311Y1005D02*
X1317Y1005D01*
X1334Y1005D02*
X1340Y1005D01*
X1361Y1005D02*
X1367Y1005D01*
X1398Y1005D02*
X1404Y1005D01*
X1434Y1005D02*
X1440Y1005D01*
X1461Y1005D02*
X1467Y1005D01*
X1511Y1005D02*
X1517Y1005D01*
X1616Y1005D02*
X1649Y1005D01*
X1666Y1005D02*
X1690Y1005D01*
X2308Y1005D02*
X2315Y1005D01*
X0Y1004D02*
X7Y1004D01*
X792Y1004D02*
X826Y1004D01*
X842Y1004D02*
X875Y1004D01*
X894Y1004D02*
X924Y1004D01*
X956Y1004D02*
X962Y1004D01*
X992Y1004D02*
X998Y1004D01*
X1020Y1004D02*
X1025Y1004D01*
X1042Y1004D02*
X1076Y1004D01*
X1234Y1004D02*
X1240Y1004D01*
X1284Y1004D02*
X1290Y1004D01*
X1311Y1004D02*
X1317Y1004D01*
X1334Y1004D02*
X1340Y1004D01*
X1361Y1004D02*
X1367Y1004D01*
X1398Y1004D02*
X1404Y1004D01*
X1434Y1004D02*
X1440Y1004D01*
X1461Y1004D02*
X1467Y1004D01*
X1511Y1004D02*
X1517Y1004D01*
X1616Y1004D02*
X1649Y1004D01*
X1667Y1004D02*
X1691Y1004D01*
X2308Y1004D02*
X2315Y1004D01*
X0Y1003D02*
X7Y1003D01*
X792Y1003D02*
X826Y1003D01*
X842Y1003D02*
X876Y1003D01*
X893Y1003D02*
X925Y1003D01*
X956Y1003D02*
X962Y1003D01*
X992Y1003D02*
X998Y1003D01*
X1020Y1003D02*
X1026Y1003D01*
X1042Y1003D02*
X1076Y1003D01*
X1234Y1003D02*
X1240Y1003D01*
X1284Y1003D02*
X1290Y1003D01*
X1311Y1003D02*
X1317Y1003D01*
X1334Y1003D02*
X1340Y1003D01*
X1361Y1003D02*
X1367Y1003D01*
X1398Y1003D02*
X1404Y1003D01*
X1434Y1003D02*
X1440Y1003D01*
X1461Y1003D02*
X1467Y1003D01*
X1511Y1003D02*
X1517Y1003D01*
X1616Y1003D02*
X1648Y1003D01*
X1668Y1003D02*
X1691Y1003D01*
X2308Y1003D02*
X2315Y1003D01*
X0Y1002D02*
X7Y1002D01*
X792Y1002D02*
X826Y1002D01*
X842Y1002D02*
X875Y1002D01*
X893Y1002D02*
X925Y1002D01*
X956Y1002D02*
X962Y1002D01*
X992Y1002D02*
X998Y1002D01*
X1020Y1002D02*
X1026Y1002D01*
X1042Y1002D02*
X1076Y1002D01*
X1234Y1002D02*
X1240Y1002D01*
X1284Y1002D02*
X1290Y1002D01*
X1311Y1002D02*
X1317Y1002D01*
X1334Y1002D02*
X1340Y1002D01*
X1361Y1002D02*
X1367Y1002D01*
X1398Y1002D02*
X1404Y1002D01*
X1434Y1002D02*
X1440Y1002D01*
X1461Y1002D02*
X1467Y1002D01*
X1511Y1002D02*
X1517Y1002D01*
X1616Y1002D02*
X1622Y1002D01*
X1630Y1002D02*
X1636Y1002D01*
X1684Y1002D02*
X1692Y1002D01*
X2308Y1002D02*
X2315Y1002D01*
X0Y1001D02*
X7Y1001D01*
X793Y1001D02*
X826Y1001D01*
X842Y1001D02*
X875Y1001D01*
X892Y1001D02*
X925Y1001D01*
X956Y1001D02*
X962Y1001D01*
X992Y1001D02*
X998Y1001D01*
X1020Y1001D02*
X1026Y1001D01*
X1043Y1001D02*
X1076Y1001D01*
X1234Y1001D02*
X1240Y1001D01*
X1284Y1001D02*
X1290Y1001D01*
X1311Y1001D02*
X1317Y1001D01*
X1334Y1001D02*
X1340Y1001D01*
X1361Y1001D02*
X1367Y1001D01*
X1398Y1001D02*
X1404Y1001D01*
X1434Y1001D02*
X1440Y1001D01*
X1461Y1001D02*
X1467Y1001D01*
X1511Y1001D02*
X1517Y1001D01*
X1616Y1001D02*
X1622Y1001D01*
X1630Y1001D02*
X1636Y1001D01*
X1685Y1001D02*
X1692Y1001D01*
X2308Y1001D02*
X2315Y1001D01*
X0Y1000D02*
X7Y1000D01*
X794Y1000D02*
X826Y1000D01*
X842Y1000D02*
X874Y1000D01*
X892Y1000D02*
X926Y1000D01*
X956Y1000D02*
X962Y1000D01*
X992Y1000D02*
X998Y1000D01*
X1020Y1000D02*
X1026Y1000D01*
X1044Y1000D02*
X1076Y1000D01*
X1234Y1000D02*
X1240Y1000D01*
X1284Y1000D02*
X1290Y1000D01*
X1311Y1000D02*
X1317Y1000D01*
X1334Y1000D02*
X1340Y1000D01*
X1361Y1000D02*
X1367Y1000D01*
X1398Y1000D02*
X1404Y1000D01*
X1434Y1000D02*
X1440Y1000D01*
X1461Y1000D02*
X1467Y1000D01*
X1511Y1000D02*
X1517Y1000D01*
X1616Y1000D02*
X1622Y1000D01*
X1630Y1000D02*
X1636Y1000D01*
X1686Y1000D02*
X1693Y1000D01*
X2308Y1000D02*
X2315Y1000D01*
X0Y999D02*
X7Y999D01*
X820Y999D02*
X826Y999D01*
X842Y999D02*
X848Y999D01*
X856Y999D02*
X862Y999D01*
X892Y999D02*
X898Y999D01*
X920Y999D02*
X926Y999D01*
X956Y999D02*
X962Y999D01*
X992Y999D02*
X998Y999D01*
X1020Y999D02*
X1026Y999D01*
X1070Y999D02*
X1076Y999D01*
X1234Y999D02*
X1240Y999D01*
X1284Y999D02*
X1290Y999D01*
X1311Y999D02*
X1317Y999D01*
X1334Y999D02*
X1340Y999D01*
X1361Y999D02*
X1367Y999D01*
X1398Y999D02*
X1404Y999D01*
X1434Y999D02*
X1440Y999D01*
X1461Y999D02*
X1467Y999D01*
X1511Y999D02*
X1517Y999D01*
X1616Y999D02*
X1622Y999D01*
X1630Y999D02*
X1636Y999D01*
X1686Y999D02*
X1693Y999D01*
X2308Y999D02*
X2315Y999D01*
X0Y998D02*
X7Y998D01*
X820Y998D02*
X826Y998D01*
X842Y998D02*
X848Y998D01*
X856Y998D02*
X862Y998D01*
X892Y998D02*
X898Y998D01*
X920Y998D02*
X926Y998D01*
X956Y998D02*
X962Y998D01*
X992Y998D02*
X998Y998D01*
X1020Y998D02*
X1026Y998D01*
X1070Y998D02*
X1076Y998D01*
X1234Y998D02*
X1240Y998D01*
X1284Y998D02*
X1290Y998D01*
X1311Y998D02*
X1317Y998D01*
X1334Y998D02*
X1340Y998D01*
X1361Y998D02*
X1367Y998D01*
X1398Y998D02*
X1404Y998D01*
X1434Y998D02*
X1440Y998D01*
X1461Y998D02*
X1467Y998D01*
X1511Y998D02*
X1517Y998D01*
X1616Y998D02*
X1622Y998D01*
X1630Y998D02*
X1636Y998D01*
X1687Y998D02*
X1694Y998D01*
X2308Y998D02*
X2315Y998D01*
X0Y997D02*
X7Y997D01*
X820Y997D02*
X826Y997D01*
X842Y997D02*
X848Y997D01*
X856Y997D02*
X862Y997D01*
X892Y997D02*
X898Y997D01*
X920Y997D02*
X926Y997D01*
X956Y997D02*
X962Y997D01*
X992Y997D02*
X998Y997D01*
X1020Y997D02*
X1026Y997D01*
X1070Y997D02*
X1076Y997D01*
X1234Y997D02*
X1240Y997D01*
X1284Y997D02*
X1290Y997D01*
X1311Y997D02*
X1317Y997D01*
X1334Y997D02*
X1340Y997D01*
X1361Y997D02*
X1367Y997D01*
X1398Y997D02*
X1404Y997D01*
X1434Y997D02*
X1440Y997D01*
X1461Y997D02*
X1467Y997D01*
X1511Y997D02*
X1517Y997D01*
X1616Y997D02*
X1622Y997D01*
X1630Y997D02*
X1636Y997D01*
X1687Y997D02*
X1694Y997D01*
X2308Y997D02*
X2315Y997D01*
X0Y996D02*
X7Y996D01*
X820Y996D02*
X826Y996D01*
X842Y996D02*
X848Y996D01*
X856Y996D02*
X862Y996D01*
X892Y996D02*
X898Y996D01*
X920Y996D02*
X926Y996D01*
X956Y996D02*
X962Y996D01*
X992Y996D02*
X998Y996D01*
X1020Y996D02*
X1026Y996D01*
X1070Y996D02*
X1076Y996D01*
X1234Y996D02*
X1240Y996D01*
X1284Y996D02*
X1290Y996D01*
X1311Y996D02*
X1317Y996D01*
X1334Y996D02*
X1340Y996D01*
X1361Y996D02*
X1367Y996D01*
X1398Y996D02*
X1404Y996D01*
X1434Y996D02*
X1440Y996D01*
X1461Y996D02*
X1467Y996D01*
X1511Y996D02*
X1517Y996D01*
X1616Y996D02*
X1622Y996D01*
X1630Y996D02*
X1636Y996D01*
X1688Y996D02*
X1695Y996D01*
X2308Y996D02*
X2315Y996D01*
X0Y995D02*
X7Y995D01*
X820Y995D02*
X826Y995D01*
X842Y995D02*
X848Y995D01*
X856Y995D02*
X862Y995D01*
X892Y995D02*
X898Y995D01*
X920Y995D02*
X926Y995D01*
X956Y995D02*
X962Y995D01*
X992Y995D02*
X998Y995D01*
X1020Y995D02*
X1026Y995D01*
X1070Y995D02*
X1076Y995D01*
X1234Y995D02*
X1240Y995D01*
X1284Y995D02*
X1290Y995D01*
X1311Y995D02*
X1317Y995D01*
X1334Y995D02*
X1340Y995D01*
X1361Y995D02*
X1367Y995D01*
X1397Y995D02*
X1404Y995D01*
X1434Y995D02*
X1440Y995D01*
X1461Y995D02*
X1467Y995D01*
X1511Y995D02*
X1517Y995D01*
X1616Y995D02*
X1622Y995D01*
X1630Y995D02*
X1636Y995D01*
X1688Y995D02*
X1695Y995D01*
X2308Y995D02*
X2315Y995D01*
X0Y994D02*
X7Y994D01*
X820Y994D02*
X826Y994D01*
X842Y994D02*
X848Y994D01*
X856Y994D02*
X862Y994D01*
X892Y994D02*
X898Y994D01*
X920Y994D02*
X926Y994D01*
X956Y994D02*
X962Y994D01*
X992Y994D02*
X998Y994D01*
X1020Y994D02*
X1026Y994D01*
X1070Y994D02*
X1076Y994D01*
X1234Y994D02*
X1240Y994D01*
X1284Y994D02*
X1290Y994D01*
X1311Y994D02*
X1317Y994D01*
X1334Y994D02*
X1340Y994D01*
X1361Y994D02*
X1367Y994D01*
X1396Y994D02*
X1404Y994D01*
X1434Y994D02*
X1440Y994D01*
X1461Y994D02*
X1467Y994D01*
X1511Y994D02*
X1517Y994D01*
X1616Y994D02*
X1622Y994D01*
X1630Y994D02*
X1636Y994D01*
X1689Y994D02*
X1696Y994D01*
X2308Y994D02*
X2315Y994D01*
X0Y993D02*
X7Y993D01*
X820Y993D02*
X826Y993D01*
X842Y993D02*
X848Y993D01*
X856Y993D02*
X862Y993D01*
X892Y993D02*
X898Y993D01*
X920Y993D02*
X926Y993D01*
X956Y993D02*
X962Y993D01*
X992Y993D02*
X998Y993D01*
X1020Y993D02*
X1026Y993D01*
X1070Y993D02*
X1076Y993D01*
X1234Y993D02*
X1240Y993D01*
X1284Y993D02*
X1290Y993D01*
X1311Y993D02*
X1317Y993D01*
X1334Y993D02*
X1340Y993D01*
X1361Y993D02*
X1367Y993D01*
X1395Y993D02*
X1403Y993D01*
X1434Y993D02*
X1440Y993D01*
X1461Y993D02*
X1467Y993D01*
X1511Y993D02*
X1517Y993D01*
X1616Y993D02*
X1622Y993D01*
X1630Y993D02*
X1636Y993D01*
X1689Y993D02*
X1696Y993D01*
X2308Y993D02*
X2315Y993D01*
X0Y992D02*
X7Y992D01*
X820Y992D02*
X826Y992D01*
X842Y992D02*
X848Y992D01*
X856Y992D02*
X862Y992D01*
X892Y992D02*
X898Y992D01*
X920Y992D02*
X926Y992D01*
X956Y992D02*
X962Y992D01*
X992Y992D02*
X998Y992D01*
X1020Y992D02*
X1026Y992D01*
X1070Y992D02*
X1076Y992D01*
X1234Y992D02*
X1240Y992D01*
X1284Y992D02*
X1290Y992D01*
X1311Y992D02*
X1317Y992D01*
X1334Y992D02*
X1340Y992D01*
X1361Y992D02*
X1367Y992D01*
X1394Y992D02*
X1403Y992D01*
X1434Y992D02*
X1440Y992D01*
X1461Y992D02*
X1467Y992D01*
X1511Y992D02*
X1517Y992D01*
X1616Y992D02*
X1622Y992D01*
X1630Y992D02*
X1636Y992D01*
X1690Y992D02*
X1697Y992D01*
X2308Y992D02*
X2315Y992D01*
X0Y991D02*
X7Y991D01*
X820Y991D02*
X826Y991D01*
X842Y991D02*
X848Y991D01*
X856Y991D02*
X862Y991D01*
X892Y991D02*
X898Y991D01*
X920Y991D02*
X926Y991D01*
X956Y991D02*
X962Y991D01*
X992Y991D02*
X998Y991D01*
X1020Y991D02*
X1026Y991D01*
X1070Y991D02*
X1076Y991D01*
X1234Y991D02*
X1260Y991D01*
X1284Y991D02*
X1290Y991D01*
X1311Y991D02*
X1317Y991D01*
X1334Y991D02*
X1367Y991D01*
X1393Y991D02*
X1402Y991D01*
X1434Y991D02*
X1440Y991D01*
X1461Y991D02*
X1467Y991D01*
X1511Y991D02*
X1517Y991D01*
X1616Y991D02*
X1622Y991D01*
X1630Y991D02*
X1636Y991D01*
X1690Y991D02*
X1697Y991D01*
X2308Y991D02*
X2315Y991D01*
X0Y990D02*
X7Y990D01*
X820Y990D02*
X826Y990D01*
X842Y990D02*
X848Y990D01*
X856Y990D02*
X862Y990D01*
X892Y990D02*
X898Y990D01*
X920Y990D02*
X926Y990D01*
X956Y990D02*
X962Y990D01*
X992Y990D02*
X998Y990D01*
X1020Y990D02*
X1026Y990D01*
X1070Y990D02*
X1076Y990D01*
X1234Y990D02*
X1260Y990D01*
X1284Y990D02*
X1290Y990D01*
X1311Y990D02*
X1317Y990D01*
X1334Y990D02*
X1367Y990D01*
X1392Y990D02*
X1401Y990D01*
X1434Y990D02*
X1440Y990D01*
X1461Y990D02*
X1467Y990D01*
X1511Y990D02*
X1517Y990D01*
X1616Y990D02*
X1622Y990D01*
X1630Y990D02*
X1636Y990D01*
X1691Y990D02*
X1698Y990D01*
X2308Y990D02*
X2315Y990D01*
X0Y989D02*
X7Y989D01*
X820Y989D02*
X826Y989D01*
X842Y989D02*
X848Y989D01*
X856Y989D02*
X862Y989D01*
X892Y989D02*
X898Y989D01*
X920Y989D02*
X926Y989D01*
X956Y989D02*
X962Y989D01*
X992Y989D02*
X998Y989D01*
X1020Y989D02*
X1026Y989D01*
X1070Y989D02*
X1076Y989D01*
X1234Y989D02*
X1260Y989D01*
X1284Y989D02*
X1290Y989D01*
X1311Y989D02*
X1317Y989D01*
X1334Y989D02*
X1367Y989D01*
X1390Y989D02*
X1400Y989D01*
X1434Y989D02*
X1440Y989D01*
X1461Y989D02*
X1467Y989D01*
X1511Y989D02*
X1517Y989D01*
X1616Y989D02*
X1622Y989D01*
X1630Y989D02*
X1636Y989D01*
X1691Y989D02*
X1698Y989D01*
X2308Y989D02*
X2315Y989D01*
X0Y988D02*
X7Y988D01*
X820Y988D02*
X826Y988D01*
X842Y988D02*
X848Y988D01*
X856Y988D02*
X862Y988D01*
X892Y988D02*
X898Y988D01*
X920Y988D02*
X926Y988D01*
X956Y988D02*
X962Y988D01*
X992Y988D02*
X998Y988D01*
X1020Y988D02*
X1026Y988D01*
X1070Y988D02*
X1076Y988D01*
X1234Y988D02*
X1260Y988D01*
X1284Y988D02*
X1290Y988D01*
X1311Y988D02*
X1317Y988D01*
X1334Y988D02*
X1367Y988D01*
X1389Y988D02*
X1399Y988D01*
X1434Y988D02*
X1440Y988D01*
X1461Y988D02*
X1467Y988D01*
X1511Y988D02*
X1517Y988D01*
X1616Y988D02*
X1622Y988D01*
X1630Y988D02*
X1636Y988D01*
X1692Y988D02*
X1699Y988D01*
X2308Y988D02*
X2315Y988D01*
X0Y987D02*
X7Y987D01*
X820Y987D02*
X826Y987D01*
X842Y987D02*
X848Y987D01*
X856Y987D02*
X862Y987D01*
X892Y987D02*
X898Y987D01*
X920Y987D02*
X926Y987D01*
X956Y987D02*
X962Y987D01*
X992Y987D02*
X998Y987D01*
X1020Y987D02*
X1026Y987D01*
X1070Y987D02*
X1076Y987D01*
X1235Y987D02*
X1260Y987D01*
X1284Y987D02*
X1290Y987D01*
X1311Y987D02*
X1317Y987D01*
X1335Y987D02*
X1366Y987D01*
X1388Y987D02*
X1398Y987D01*
X1434Y987D02*
X1440Y987D01*
X1461Y987D02*
X1467Y987D01*
X1511Y987D02*
X1517Y987D01*
X1616Y987D02*
X1622Y987D01*
X1630Y987D02*
X1636Y987D01*
X1693Y987D02*
X1699Y987D01*
X2308Y987D02*
X2315Y987D01*
X0Y986D02*
X7Y986D01*
X820Y986D02*
X826Y986D01*
X842Y986D02*
X848Y986D01*
X856Y986D02*
X862Y986D01*
X892Y986D02*
X898Y986D01*
X920Y986D02*
X926Y986D01*
X955Y986D02*
X962Y986D01*
X992Y986D02*
X998Y986D01*
X1020Y986D02*
X1026Y986D01*
X1070Y986D02*
X1076Y986D01*
X1236Y986D02*
X1260Y986D01*
X1284Y986D02*
X1290Y986D01*
X1311Y986D02*
X1317Y986D01*
X1336Y986D02*
X1365Y986D01*
X1387Y986D02*
X1397Y986D01*
X1434Y986D02*
X1440Y986D01*
X1461Y986D02*
X1467Y986D01*
X1511Y986D02*
X1517Y986D01*
X1617Y986D02*
X1621Y986D01*
X1630Y986D02*
X1636Y986D01*
X1693Y986D02*
X1699Y986D01*
X2308Y986D02*
X2315Y986D01*
X0Y985D02*
X7Y985D01*
X820Y985D02*
X826Y985D01*
X842Y985D02*
X848Y985D01*
X856Y985D02*
X862Y985D01*
X892Y985D02*
X898Y985D01*
X920Y985D02*
X926Y985D01*
X954Y985D02*
X962Y985D01*
X992Y985D02*
X998Y985D01*
X1020Y985D02*
X1026Y985D01*
X1070Y985D02*
X1076Y985D01*
X1237Y985D02*
X1260Y985D01*
X1284Y985D02*
X1290Y985D01*
X1311Y985D02*
X1317Y985D01*
X1337Y985D02*
X1364Y985D01*
X1386Y985D02*
X1395Y985D01*
X1434Y985D02*
X1440Y985D01*
X1450Y985D02*
X1451Y985D01*
X1461Y985D02*
X1467Y985D01*
X1511Y985D02*
X1517Y985D01*
X1619Y985D02*
X1619Y985D01*
X1630Y985D02*
X1636Y985D01*
X1693Y985D02*
X1699Y985D01*
X2308Y985D02*
X2315Y985D01*
X0Y984D02*
X7Y984D01*
X820Y984D02*
X826Y984D01*
X842Y984D02*
X848Y984D01*
X856Y984D02*
X862Y984D01*
X892Y984D02*
X898Y984D01*
X920Y984D02*
X926Y984D01*
X953Y984D02*
X962Y984D01*
X992Y984D02*
X998Y984D01*
X1020Y984D02*
X1026Y984D01*
X1070Y984D02*
X1076Y984D01*
X1254Y984D02*
X1260Y984D01*
X1284Y984D02*
X1290Y984D01*
X1311Y984D02*
X1317Y984D01*
X1340Y984D02*
X1347Y984D01*
X1354Y984D02*
X1361Y984D01*
X1385Y984D02*
X1394Y984D01*
X1434Y984D02*
X1440Y984D01*
X1448Y984D02*
X1453Y984D01*
X1461Y984D02*
X1467Y984D01*
X1511Y984D02*
X1517Y984D01*
X1630Y984D02*
X1636Y984D01*
X1693Y984D02*
X1700Y984D01*
X2308Y984D02*
X2315Y984D01*
X0Y983D02*
X7Y983D01*
X819Y983D02*
X826Y983D01*
X843Y983D02*
X847Y983D01*
X856Y983D02*
X862Y983D01*
X892Y983D02*
X898Y983D01*
X920Y983D02*
X926Y983D01*
X951Y983D02*
X961Y983D01*
X992Y983D02*
X998Y983D01*
X1020Y983D02*
X1026Y983D01*
X1070Y983D02*
X1076Y983D01*
X1254Y983D02*
X1260Y983D01*
X1284Y983D02*
X1290Y983D01*
X1311Y983D02*
X1317Y983D01*
X1341Y983D02*
X1347Y983D01*
X1354Y983D02*
X1360Y983D01*
X1384Y983D02*
X1393Y983D01*
X1434Y983D02*
X1440Y983D01*
X1448Y983D02*
X1453Y983D01*
X1461Y983D02*
X1467Y983D01*
X1511Y983D02*
X1517Y983D01*
X1630Y983D02*
X1636Y983D01*
X1694Y983D02*
X1700Y983D01*
X2308Y983D02*
X2315Y983D01*
X0Y982D02*
X7Y982D01*
X796Y982D02*
X826Y982D01*
X844Y982D02*
X846Y982D01*
X856Y982D02*
X862Y982D01*
X892Y982D02*
X926Y982D01*
X950Y982D02*
X960Y982D01*
X992Y982D02*
X998Y982D01*
X1020Y982D02*
X1026Y982D01*
X1070Y982D02*
X1076Y982D01*
X1254Y982D02*
X1260Y982D01*
X1284Y982D02*
X1290Y982D01*
X1311Y982D02*
X1317Y982D01*
X1341Y982D02*
X1347Y982D01*
X1354Y982D02*
X1360Y982D01*
X1384Y982D02*
X1392Y982D01*
X1434Y982D02*
X1440Y982D01*
X1448Y982D02*
X1453Y982D01*
X1461Y982D02*
X1467Y982D01*
X1511Y982D02*
X1517Y982D01*
X1630Y982D02*
X1636Y982D01*
X1694Y982D02*
X1700Y982D01*
X2308Y982D02*
X2315Y982D01*
X0Y981D02*
X7Y981D01*
X795Y981D02*
X825Y981D01*
X856Y981D02*
X862Y981D01*
X892Y981D02*
X925Y981D01*
X949Y981D02*
X959Y981D01*
X992Y981D02*
X998Y981D01*
X1020Y981D02*
X1026Y981D01*
X1070Y981D02*
X1076Y981D01*
X1254Y981D02*
X1260Y981D01*
X1284Y981D02*
X1290Y981D01*
X1311Y981D02*
X1317Y981D01*
X1341Y981D02*
X1347Y981D01*
X1354Y981D02*
X1360Y981D01*
X1384Y981D02*
X1391Y981D01*
X1434Y981D02*
X1440Y981D01*
X1447Y981D02*
X1454Y981D01*
X1461Y981D02*
X1467Y981D01*
X1511Y981D02*
X1517Y981D01*
X1630Y981D02*
X1636Y981D01*
X1693Y981D02*
X1700Y981D01*
X2308Y981D02*
X2315Y981D01*
X0Y980D02*
X7Y980D01*
X794Y980D02*
X825Y980D01*
X856Y980D02*
X862Y980D01*
X893Y980D02*
X925Y980D01*
X948Y980D02*
X958Y980D01*
X992Y980D02*
X998Y980D01*
X1020Y980D02*
X1026Y980D01*
X1070Y980D02*
X1076Y980D01*
X1254Y980D02*
X1260Y980D01*
X1284Y980D02*
X1290Y980D01*
X1311Y980D02*
X1317Y980D01*
X1341Y980D02*
X1347Y980D01*
X1354Y980D02*
X1360Y980D01*
X1384Y980D02*
X1390Y980D01*
X1434Y980D02*
X1440Y980D01*
X1447Y980D02*
X1454Y980D01*
X1461Y980D02*
X1467Y980D01*
X1511Y980D02*
X1517Y980D01*
X1630Y980D02*
X1636Y980D01*
X1693Y980D02*
X1699Y980D01*
X2308Y980D02*
X2315Y980D01*
X0Y979D02*
X7Y979D01*
X793Y979D02*
X825Y979D01*
X856Y979D02*
X862Y979D01*
X893Y979D02*
X925Y979D01*
X947Y979D02*
X957Y979D01*
X992Y979D02*
X998Y979D01*
X1020Y979D02*
X1026Y979D01*
X1070Y979D02*
X1076Y979D01*
X1254Y979D02*
X1260Y979D01*
X1284Y979D02*
X1290Y979D01*
X1311Y979D02*
X1317Y979D01*
X1341Y979D02*
X1347Y979D01*
X1354Y979D02*
X1360Y979D01*
X1384Y979D02*
X1390Y979D01*
X1434Y979D02*
X1440Y979D01*
X1447Y979D02*
X1454Y979D01*
X1461Y979D02*
X1467Y979D01*
X1511Y979D02*
X1517Y979D01*
X1630Y979D02*
X1636Y979D01*
X1693Y979D02*
X1699Y979D01*
X2308Y979D02*
X2315Y979D01*
X0Y978D02*
X7Y978D01*
X792Y978D02*
X824Y978D01*
X856Y978D02*
X862Y978D01*
X894Y978D02*
X924Y978D01*
X946Y978D02*
X955Y978D01*
X992Y978D02*
X998Y978D01*
X1020Y978D02*
X1026Y978D01*
X1070Y978D02*
X1076Y978D01*
X1254Y978D02*
X1260Y978D01*
X1284Y978D02*
X1290Y978D01*
X1311Y978D02*
X1317Y978D01*
X1341Y978D02*
X1347Y978D01*
X1354Y978D02*
X1360Y978D01*
X1384Y978D02*
X1390Y978D01*
X1434Y978D02*
X1440Y978D01*
X1446Y978D02*
X1455Y978D01*
X1461Y978D02*
X1467Y978D01*
X1511Y978D02*
X1517Y978D01*
X1630Y978D02*
X1636Y978D01*
X1692Y978D02*
X1699Y978D01*
X2308Y978D02*
X2315Y978D01*
X0Y977D02*
X7Y977D01*
X792Y977D02*
X823Y977D01*
X856Y977D02*
X862Y977D01*
X895Y977D02*
X923Y977D01*
X944Y977D02*
X954Y977D01*
X992Y977D02*
X998Y977D01*
X1020Y977D02*
X1026Y977D01*
X1070Y977D02*
X1076Y977D01*
X1254Y977D02*
X1260Y977D01*
X1284Y977D02*
X1290Y977D01*
X1311Y977D02*
X1317Y977D01*
X1341Y977D02*
X1347Y977D01*
X1354Y977D02*
X1360Y977D01*
X1384Y977D02*
X1390Y977D01*
X1434Y977D02*
X1440Y977D01*
X1445Y977D02*
X1456Y977D01*
X1461Y977D02*
X1467Y977D01*
X1511Y977D02*
X1517Y977D01*
X1630Y977D02*
X1636Y977D01*
X1692Y977D02*
X1699Y977D01*
X2308Y977D02*
X2315Y977D01*
X0Y976D02*
X7Y976D01*
X792Y976D02*
X820Y976D01*
X856Y976D02*
X862Y976D01*
X897Y976D02*
X921Y976D01*
X943Y976D02*
X953Y976D01*
X992Y976D02*
X998Y976D01*
X1007Y976D02*
X1011Y976D01*
X1020Y976D02*
X1026Y976D01*
X1070Y976D02*
X1076Y976D01*
X1254Y976D02*
X1260Y976D01*
X1284Y976D02*
X1290Y976D01*
X1311Y976D02*
X1317Y976D01*
X1341Y976D02*
X1347Y976D01*
X1354Y976D02*
X1360Y976D01*
X1384Y976D02*
X1390Y976D01*
X1434Y976D02*
X1440Y976D01*
X1445Y976D02*
X1456Y976D01*
X1461Y976D02*
X1467Y976D01*
X1511Y976D02*
X1517Y976D01*
X1630Y976D02*
X1636Y976D01*
X1691Y976D02*
X1698Y976D01*
X2308Y976D02*
X2315Y976D01*
X0Y975D02*
X7Y975D01*
X792Y975D02*
X798Y975D01*
X856Y975D02*
X862Y975D01*
X899Y975D02*
X905Y975D01*
X913Y975D02*
X919Y975D01*
X943Y975D02*
X952Y975D01*
X992Y975D02*
X998Y975D01*
X1006Y975D02*
X1011Y975D01*
X1020Y975D02*
X1026Y975D01*
X1070Y975D02*
X1076Y975D01*
X1254Y975D02*
X1260Y975D01*
X1284Y975D02*
X1290Y975D01*
X1311Y975D02*
X1317Y975D01*
X1341Y975D02*
X1347Y975D01*
X1354Y975D02*
X1360Y975D01*
X1384Y975D02*
X1390Y975D01*
X1434Y975D02*
X1440Y975D01*
X1444Y975D02*
X1457Y975D01*
X1461Y975D02*
X1467Y975D01*
X1511Y975D02*
X1517Y975D01*
X1630Y975D02*
X1636Y975D01*
X1691Y975D02*
X1698Y975D01*
X2308Y975D02*
X2315Y975D01*
X0Y974D02*
X7Y974D01*
X792Y974D02*
X798Y974D01*
X856Y974D02*
X862Y974D01*
X899Y974D02*
X905Y974D01*
X913Y974D02*
X919Y974D01*
X942Y974D02*
X951Y974D01*
X992Y974D02*
X998Y974D01*
X1006Y974D02*
X1012Y974D01*
X1020Y974D02*
X1026Y974D01*
X1070Y974D02*
X1076Y974D01*
X1254Y974D02*
X1260Y974D01*
X1284Y974D02*
X1290Y974D01*
X1311Y974D02*
X1317Y974D01*
X1341Y974D02*
X1347Y974D01*
X1354Y974D02*
X1360Y974D01*
X1384Y974D02*
X1390Y974D01*
X1434Y974D02*
X1440Y974D01*
X1443Y974D02*
X1458Y974D01*
X1461Y974D02*
X1467Y974D01*
X1511Y974D02*
X1517Y974D01*
X1630Y974D02*
X1636Y974D01*
X1690Y974D02*
X1697Y974D01*
X2308Y974D02*
X2315Y974D01*
X0Y973D02*
X7Y973D01*
X792Y973D02*
X798Y973D01*
X856Y973D02*
X862Y973D01*
X899Y973D02*
X905Y973D01*
X913Y973D02*
X919Y973D01*
X942Y973D02*
X950Y973D01*
X992Y973D02*
X998Y973D01*
X1006Y973D02*
X1012Y973D01*
X1020Y973D02*
X1026Y973D01*
X1070Y973D02*
X1076Y973D01*
X1254Y973D02*
X1260Y973D01*
X1284Y973D02*
X1290Y973D01*
X1311Y973D02*
X1317Y973D01*
X1341Y973D02*
X1347Y973D01*
X1354Y973D02*
X1360Y973D01*
X1384Y973D02*
X1390Y973D01*
X1434Y973D02*
X1440Y973D01*
X1443Y973D02*
X1458Y973D01*
X1461Y973D02*
X1467Y973D01*
X1511Y973D02*
X1517Y973D01*
X1630Y973D02*
X1636Y973D01*
X1690Y973D02*
X1697Y973D01*
X2308Y973D02*
X2315Y973D01*
X0Y972D02*
X7Y972D01*
X792Y972D02*
X798Y972D01*
X856Y972D02*
X862Y972D01*
X899Y972D02*
X905Y972D01*
X913Y972D02*
X919Y972D01*
X942Y972D02*
X948Y972D01*
X992Y972D02*
X998Y972D01*
X1006Y972D02*
X1012Y972D01*
X1020Y972D02*
X1026Y972D01*
X1070Y972D02*
X1076Y972D01*
X1254Y972D02*
X1260Y972D01*
X1284Y972D02*
X1290Y972D01*
X1311Y972D02*
X1317Y972D01*
X1341Y972D02*
X1347Y972D01*
X1354Y972D02*
X1360Y972D01*
X1384Y972D02*
X1390Y972D01*
X1434Y972D02*
X1440Y972D01*
X1442Y972D02*
X1459Y972D01*
X1461Y972D02*
X1467Y972D01*
X1511Y972D02*
X1517Y972D01*
X1630Y972D02*
X1636Y972D01*
X1689Y972D02*
X1696Y972D01*
X2308Y972D02*
X2315Y972D01*
X0Y971D02*
X7Y971D01*
X792Y971D02*
X798Y971D01*
X856Y971D02*
X862Y971D01*
X899Y971D02*
X905Y971D01*
X913Y971D02*
X919Y971D01*
X942Y971D02*
X948Y971D01*
X992Y971D02*
X998Y971D01*
X1005Y971D02*
X1012Y971D01*
X1020Y971D02*
X1026Y971D01*
X1070Y971D02*
X1076Y971D01*
X1254Y971D02*
X1260Y971D01*
X1284Y971D02*
X1290Y971D01*
X1311Y971D02*
X1317Y971D01*
X1341Y971D02*
X1347Y971D01*
X1354Y971D02*
X1360Y971D01*
X1384Y971D02*
X1390Y971D01*
X1434Y971D02*
X1449Y971D01*
X1452Y971D02*
X1467Y971D01*
X1511Y971D02*
X1517Y971D01*
X1630Y971D02*
X1636Y971D01*
X1689Y971D02*
X1696Y971D01*
X2308Y971D02*
X2315Y971D01*
X0Y970D02*
X7Y970D01*
X792Y970D02*
X798Y970D01*
X856Y970D02*
X862Y970D01*
X899Y970D02*
X905Y970D01*
X913Y970D02*
X919Y970D01*
X942Y970D02*
X948Y970D01*
X992Y970D02*
X998Y970D01*
X1005Y970D02*
X1013Y970D01*
X1020Y970D02*
X1026Y970D01*
X1070Y970D02*
X1076Y970D01*
X1254Y970D02*
X1260Y970D01*
X1284Y970D02*
X1290Y970D01*
X1311Y970D02*
X1317Y970D01*
X1341Y970D02*
X1347Y970D01*
X1354Y970D02*
X1360Y970D01*
X1384Y970D02*
X1390Y970D01*
X1413Y970D02*
X1415Y970D01*
X1434Y970D02*
X1448Y970D01*
X1453Y970D02*
X1467Y970D01*
X1511Y970D02*
X1517Y970D01*
X1630Y970D02*
X1636Y970D01*
X1688Y970D02*
X1695Y970D01*
X2308Y970D02*
X2315Y970D01*
X0Y969D02*
X7Y969D01*
X792Y969D02*
X798Y969D01*
X856Y969D02*
X862Y969D01*
X899Y969D02*
X905Y969D01*
X913Y969D02*
X919Y969D01*
X942Y969D02*
X948Y969D01*
X992Y969D02*
X998Y969D01*
X1004Y969D02*
X1014Y969D01*
X1020Y969D02*
X1026Y969D01*
X1070Y969D02*
X1076Y969D01*
X1254Y969D02*
X1260Y969D01*
X1284Y969D02*
X1290Y969D01*
X1311Y969D02*
X1317Y969D01*
X1341Y969D02*
X1347Y969D01*
X1354Y969D02*
X1360Y969D01*
X1384Y969D02*
X1390Y969D01*
X1412Y969D02*
X1417Y969D01*
X1434Y969D02*
X1447Y969D01*
X1454Y969D02*
X1467Y969D01*
X1511Y969D02*
X1517Y969D01*
X1630Y969D02*
X1636Y969D01*
X1688Y969D02*
X1695Y969D01*
X2308Y969D02*
X2315Y969D01*
X0Y968D02*
X7Y968D01*
X792Y968D02*
X798Y968D01*
X856Y968D02*
X862Y968D01*
X899Y968D02*
X905Y968D01*
X913Y968D02*
X919Y968D01*
X942Y968D02*
X948Y968D01*
X992Y968D02*
X998Y968D01*
X1003Y968D02*
X1014Y968D01*
X1020Y968D02*
X1026Y968D01*
X1070Y968D02*
X1076Y968D01*
X1254Y968D02*
X1260Y968D01*
X1284Y968D02*
X1290Y968D01*
X1311Y968D02*
X1317Y968D01*
X1341Y968D02*
X1347Y968D01*
X1354Y968D02*
X1360Y968D01*
X1384Y968D02*
X1390Y968D01*
X1411Y968D02*
X1417Y968D01*
X1434Y968D02*
X1447Y968D01*
X1454Y968D02*
X1467Y968D01*
X1511Y968D02*
X1517Y968D01*
X1630Y968D02*
X1636Y968D01*
X1687Y968D02*
X1694Y968D01*
X2308Y968D02*
X2315Y968D01*
X0Y967D02*
X7Y967D01*
X792Y967D02*
X798Y967D01*
X856Y967D02*
X862Y967D01*
X899Y967D02*
X905Y967D01*
X913Y967D02*
X919Y967D01*
X942Y967D02*
X948Y967D01*
X992Y967D02*
X998Y967D01*
X1003Y967D02*
X1015Y967D01*
X1020Y967D02*
X1026Y967D01*
X1070Y967D02*
X1076Y967D01*
X1236Y967D02*
X1260Y967D01*
X1284Y967D02*
X1317Y967D01*
X1341Y967D02*
X1360Y967D01*
X1384Y967D02*
X1417Y967D01*
X1434Y967D02*
X1446Y967D01*
X1455Y967D02*
X1467Y967D01*
X1511Y967D02*
X1517Y967D01*
X1630Y967D02*
X1636Y967D01*
X1687Y967D02*
X1694Y967D01*
X2308Y967D02*
X2315Y967D01*
X0Y966D02*
X7Y966D01*
X792Y966D02*
X798Y966D01*
X856Y966D02*
X862Y966D01*
X899Y966D02*
X905Y966D01*
X913Y966D02*
X919Y966D01*
X942Y966D02*
X948Y966D01*
X992Y966D02*
X998Y966D01*
X1002Y966D02*
X1016Y966D01*
X1020Y966D02*
X1026Y966D01*
X1070Y966D02*
X1076Y966D01*
X1234Y966D02*
X1260Y966D01*
X1284Y966D02*
X1317Y966D01*
X1341Y966D02*
X1360Y966D01*
X1384Y966D02*
X1417Y966D01*
X1434Y966D02*
X1445Y966D01*
X1456Y966D02*
X1467Y966D01*
X1511Y966D02*
X1517Y966D01*
X1630Y966D02*
X1636Y966D01*
X1686Y966D02*
X1693Y966D01*
X2308Y966D02*
X2315Y966D01*
X0Y965D02*
X7Y965D01*
X792Y965D02*
X798Y965D01*
X856Y965D02*
X862Y965D01*
X899Y965D02*
X905Y965D01*
X913Y965D02*
X919Y965D01*
X942Y965D02*
X948Y965D01*
X992Y965D02*
X998Y965D01*
X1001Y965D02*
X1016Y965D01*
X1020Y965D02*
X1026Y965D01*
X1070Y965D02*
X1076Y965D01*
X1234Y965D02*
X1260Y965D01*
X1284Y965D02*
X1317Y965D01*
X1341Y965D02*
X1360Y965D01*
X1384Y965D02*
X1417Y965D01*
X1434Y965D02*
X1445Y965D01*
X1456Y965D02*
X1467Y965D01*
X1511Y965D02*
X1517Y965D01*
X1630Y965D02*
X1636Y965D01*
X1686Y965D02*
X1693Y965D01*
X2308Y965D02*
X2315Y965D01*
X0Y964D02*
X7Y964D01*
X792Y964D02*
X798Y964D01*
X856Y964D02*
X862Y964D01*
X899Y964D02*
X905Y964D01*
X913Y964D02*
X919Y964D01*
X942Y964D02*
X948Y964D01*
X992Y964D02*
X998Y964D01*
X1001Y964D02*
X1017Y964D01*
X1020Y964D02*
X1026Y964D01*
X1070Y964D02*
X1076Y964D01*
X1234Y964D02*
X1260Y964D01*
X1285Y964D02*
X1316Y964D01*
X1341Y964D02*
X1360Y964D01*
X1384Y964D02*
X1417Y964D01*
X1434Y964D02*
X1444Y964D01*
X1457Y964D02*
X1467Y964D01*
X1511Y964D02*
X1517Y964D01*
X1630Y964D02*
X1636Y964D01*
X1685Y964D02*
X1692Y964D01*
X2308Y964D02*
X2315Y964D01*
X0Y963D02*
X7Y963D01*
X792Y963D02*
X798Y963D01*
X856Y963D02*
X862Y963D01*
X899Y963D02*
X905Y963D01*
X913Y963D02*
X919Y963D01*
X942Y963D02*
X948Y963D01*
X992Y963D02*
X998Y963D01*
X1000Y963D02*
X1007Y963D01*
X1010Y963D02*
X1018Y963D01*
X1020Y963D02*
X1026Y963D01*
X1070Y963D02*
X1076Y963D01*
X1234Y963D02*
X1260Y963D01*
X1285Y963D02*
X1316Y963D01*
X1341Y963D02*
X1360Y963D01*
X1384Y963D02*
X1417Y963D01*
X1434Y963D02*
X1443Y963D01*
X1458Y963D02*
X1467Y963D01*
X1511Y963D02*
X1517Y963D01*
X1630Y963D02*
X1636Y963D01*
X1684Y963D02*
X1692Y963D01*
X2308Y963D02*
X2315Y963D01*
X0Y962D02*
X7Y962D01*
X792Y962D02*
X798Y962D01*
X856Y962D02*
X862Y962D01*
X899Y962D02*
X905Y962D01*
X913Y962D02*
X919Y962D01*
X942Y962D02*
X948Y962D01*
X972Y962D02*
X973Y962D01*
X992Y962D02*
X1007Y962D01*
X1011Y962D02*
X1026Y962D01*
X1070Y962D02*
X1076Y962D01*
X1234Y962D02*
X1260Y962D01*
X1287Y962D02*
X1315Y962D01*
X1341Y962D02*
X1360Y962D01*
X1384Y962D02*
X1417Y962D01*
X1434Y962D02*
X1443Y962D01*
X1458Y962D02*
X1467Y962D01*
X1512Y962D02*
X1517Y962D01*
X1630Y962D02*
X1648Y962D01*
X1668Y962D02*
X1691Y962D01*
X2308Y962D02*
X2315Y962D01*
X0Y961D02*
X7Y961D01*
X792Y961D02*
X798Y961D01*
X856Y961D02*
X862Y961D01*
X899Y961D02*
X905Y961D01*
X913Y961D02*
X919Y961D01*
X942Y961D02*
X948Y961D01*
X971Y961D02*
X975Y961D01*
X992Y961D02*
X1006Y961D01*
X1012Y961D02*
X1026Y961D01*
X1070Y961D02*
X1076Y961D01*
X1236Y961D02*
X1260Y961D01*
X1288Y961D02*
X1313Y961D01*
X1342Y961D02*
X1359Y961D01*
X1384Y961D02*
X1415Y961D01*
X1434Y961D02*
X1442Y961D01*
X1459Y961D02*
X1467Y961D01*
X1513Y961D02*
X1515Y961D01*
X1630Y961D02*
X1649Y961D01*
X1667Y961D02*
X1691Y961D01*
X2308Y961D02*
X2315Y961D01*
X0Y960D02*
X7Y960D01*
X792Y960D02*
X798Y960D01*
X856Y960D02*
X862Y960D01*
X899Y960D02*
X905Y960D01*
X913Y960D02*
X919Y960D01*
X942Y960D02*
X948Y960D01*
X970Y960D02*
X975Y960D01*
X992Y960D02*
X1005Y960D01*
X1012Y960D02*
X1026Y960D01*
X1070Y960D02*
X1076Y960D01*
X1630Y960D02*
X1649Y960D01*
X1666Y960D02*
X1690Y960D01*
X2308Y960D02*
X2315Y960D01*
X0Y959D02*
X7Y959D01*
X792Y959D02*
X823Y959D01*
X856Y959D02*
X873Y959D01*
X899Y959D02*
X919Y959D01*
X942Y959D02*
X976Y959D01*
X992Y959D02*
X1005Y959D01*
X1013Y959D02*
X1026Y959D01*
X1070Y959D02*
X1076Y959D01*
X1630Y959D02*
X1650Y959D01*
X1666Y959D02*
X1689Y959D01*
X2308Y959D02*
X2315Y959D01*
X0Y958D02*
X7Y958D01*
X792Y958D02*
X825Y958D01*
X856Y958D02*
X875Y958D01*
X899Y958D02*
X919Y958D01*
X942Y958D02*
X976Y958D01*
X992Y958D02*
X1004Y958D01*
X1014Y958D02*
X1026Y958D01*
X1070Y958D02*
X1076Y958D01*
X1630Y958D02*
X1649Y958D01*
X1666Y958D02*
X1688Y958D01*
X2308Y958D02*
X2315Y958D01*
X0Y957D02*
X7Y957D01*
X792Y957D02*
X825Y957D01*
X856Y957D02*
X875Y957D01*
X899Y957D02*
X919Y957D01*
X942Y957D02*
X976Y957D01*
X992Y957D02*
X1003Y957D01*
X1014Y957D02*
X1026Y957D01*
X1070Y957D02*
X1076Y957D01*
X1630Y957D02*
X1649Y957D01*
X1667Y957D02*
X1687Y957D01*
X2308Y957D02*
X2315Y957D01*
X0Y956D02*
X7Y956D01*
X793Y956D02*
X826Y956D01*
X856Y956D02*
X876Y956D01*
X899Y956D02*
X919Y956D01*
X942Y956D02*
X976Y956D01*
X992Y956D02*
X1003Y956D01*
X1015Y956D02*
X1026Y956D01*
X1070Y956D02*
X1076Y956D01*
X1630Y956D02*
X1648Y956D01*
X1668Y956D02*
X1685Y956D01*
X2308Y956D02*
X2315Y956D01*
X0Y955D02*
X7Y955D01*
X794Y955D02*
X826Y955D01*
X856Y955D02*
X876Y955D01*
X899Y955D02*
X919Y955D01*
X942Y955D02*
X976Y955D01*
X992Y955D02*
X1002Y955D01*
X1016Y955D02*
X1026Y955D01*
X1070Y955D02*
X1075Y955D01*
X2308Y955D02*
X2315Y955D01*
X0Y954D02*
X7Y954D01*
X795Y954D02*
X825Y954D01*
X856Y954D02*
X875Y954D01*
X900Y954D02*
X918Y954D01*
X942Y954D02*
X975Y954D01*
X992Y954D02*
X1001Y954D01*
X1017Y954D02*
X1026Y954D01*
X1070Y954D02*
X1075Y954D01*
X2308Y954D02*
X2315Y954D01*
X0Y953D02*
X7Y953D01*
X796Y953D02*
X824Y953D01*
X856Y953D02*
X874Y953D01*
X900Y953D02*
X917Y953D01*
X942Y953D02*
X974Y953D01*
X992Y953D02*
X1000Y953D01*
X1017Y953D02*
X1026Y953D01*
X1071Y953D02*
X1074Y953D01*
X2308Y953D02*
X2315Y953D01*
X0Y952D02*
X7Y952D01*
X2308Y952D02*
X2315Y952D01*
X0Y951D02*
X7Y951D01*
X2308Y951D02*
X2315Y951D01*
X0Y950D02*
X7Y950D01*
X2308Y950D02*
X2315Y950D01*
X0Y949D02*
X7Y949D01*
X2308Y949D02*
X2315Y949D01*
X0Y948D02*
X7Y948D01*
X2308Y948D02*
X2315Y948D01*
X0Y947D02*
X7Y947D01*
X2308Y947D02*
X2315Y947D01*
X0Y946D02*
X7Y946D01*
X2308Y946D02*
X2315Y946D01*
X0Y945D02*
X7Y945D01*
X2308Y945D02*
X2315Y945D01*
X0Y944D02*
X7Y944D01*
X2308Y944D02*
X2315Y944D01*
X0Y943D02*
X7Y943D01*
X2308Y943D02*
X2315Y943D01*
X0Y942D02*
X7Y942D01*
X2308Y942D02*
X2315Y942D01*
X0Y941D02*
X7Y941D01*
X2308Y941D02*
X2315Y941D01*
X0Y940D02*
X7Y940D01*
X2308Y940D02*
X2315Y940D01*
X0Y939D02*
X7Y939D01*
X2308Y939D02*
X2315Y939D01*
X0Y938D02*
X7Y938D01*
X2308Y938D02*
X2315Y938D01*
X0Y937D02*
X7Y937D01*
X2308Y937D02*
X2315Y937D01*
X0Y936D02*
X7Y936D01*
X2308Y936D02*
X2315Y936D01*
X0Y935D02*
X7Y935D01*
X2308Y935D02*
X2315Y935D01*
X0Y934D02*
X7Y934D01*
X2308Y934D02*
X2315Y934D01*
X0Y933D02*
X7Y933D01*
X2308Y933D02*
X2315Y933D01*
X0Y932D02*
X7Y932D01*
X2308Y932D02*
X2315Y932D01*
X0Y931D02*
X7Y931D01*
X2308Y931D02*
X2315Y931D01*
X0Y930D02*
X7Y930D01*
X2308Y930D02*
X2315Y930D01*
X0Y929D02*
X7Y929D01*
X2308Y929D02*
X2315Y929D01*
X0Y928D02*
X7Y928D01*
X2308Y928D02*
X2315Y928D01*
X0Y927D02*
X7Y927D01*
X2308Y927D02*
X2315Y927D01*
X0Y926D02*
X7Y926D01*
X2308Y926D02*
X2315Y926D01*
X0Y925D02*
X7Y925D01*
X2308Y925D02*
X2315Y925D01*
X0Y924D02*
X7Y924D01*
X2308Y924D02*
X2315Y924D01*
X0Y923D02*
X7Y923D01*
X2308Y923D02*
X2315Y923D01*
X0Y922D02*
X7Y922D01*
X2308Y922D02*
X2315Y922D01*
X0Y921D02*
X7Y921D01*
X2308Y921D02*
X2315Y921D01*
X0Y920D02*
X7Y920D01*
X2308Y920D02*
X2315Y920D01*
X0Y919D02*
X7Y919D01*
X2308Y919D02*
X2315Y919D01*
X0Y918D02*
X7Y918D01*
X2308Y918D02*
X2315Y918D01*
X0Y917D02*
X7Y917D01*
X2308Y917D02*
X2315Y917D01*
X0Y916D02*
X7Y916D01*
X2308Y916D02*
X2315Y916D01*
X0Y915D02*
X7Y915D01*
X2308Y915D02*
X2315Y915D01*
X0Y914D02*
X7Y914D01*
X2308Y914D02*
X2315Y914D01*
X0Y913D02*
X7Y913D01*
X2308Y913D02*
X2315Y913D01*
X0Y912D02*
X7Y912D01*
X2308Y912D02*
X2315Y912D01*
X0Y911D02*
X7Y911D01*
X1629Y911D02*
X1644Y911D01*
X2308Y911D02*
X2315Y911D01*
X0Y910D02*
X7Y910D01*
X1628Y910D02*
X1646Y910D01*
X2308Y910D02*
X2315Y910D01*
X0Y909D02*
X7Y909D01*
X1627Y909D02*
X1649Y909D01*
X2308Y909D02*
X2315Y909D01*
X0Y908D02*
X7Y908D01*
X1627Y908D02*
X1652Y908D01*
X2308Y908D02*
X2315Y908D01*
X0Y907D02*
X7Y907D01*
X1628Y907D02*
X1654Y907D01*
X2308Y907D02*
X2315Y907D01*
X0Y906D02*
X7Y906D01*
X1628Y906D02*
X1657Y906D01*
X2308Y906D02*
X2315Y906D01*
X0Y905D02*
X7Y905D01*
X1629Y905D02*
X1659Y905D01*
X2308Y905D02*
X2315Y905D01*
X0Y904D02*
X7Y904D01*
X1644Y904D02*
X1662Y904D01*
X2308Y904D02*
X2315Y904D01*
X0Y903D02*
X7Y903D01*
X1646Y903D02*
X1664Y903D01*
X2308Y903D02*
X2315Y903D01*
X0Y902D02*
X7Y902D01*
X1649Y902D02*
X1667Y902D01*
X2308Y902D02*
X2315Y902D01*
X0Y901D02*
X7Y901D01*
X1651Y901D02*
X1670Y901D01*
X2308Y901D02*
X2315Y901D01*
X0Y900D02*
X7Y900D01*
X1654Y900D02*
X1672Y900D01*
X2308Y900D02*
X2315Y900D01*
X0Y899D02*
X7Y899D01*
X1656Y899D02*
X1675Y899D01*
X2308Y899D02*
X2315Y899D01*
X0Y898D02*
X7Y898D01*
X1659Y898D02*
X1677Y898D01*
X2308Y898D02*
X2315Y898D01*
X0Y897D02*
X7Y897D01*
X1661Y897D02*
X1679Y897D01*
X2308Y897D02*
X2315Y897D01*
X0Y896D02*
X7Y896D01*
X1664Y896D02*
X1680Y896D01*
X2308Y896D02*
X2315Y896D01*
X0Y895D02*
X7Y895D01*
X1667Y895D02*
X1680Y895D01*
X2308Y895D02*
X2315Y895D01*
X0Y894D02*
X7Y894D01*
X1667Y894D02*
X1680Y894D01*
X2308Y894D02*
X2315Y894D01*
X0Y893D02*
X7Y893D01*
X1665Y893D02*
X1680Y893D01*
X2308Y893D02*
X2315Y893D01*
X0Y892D02*
X7Y892D01*
X1662Y892D02*
X1680Y892D01*
X2308Y892D02*
X2315Y892D01*
X0Y891D02*
X7Y891D01*
X1660Y891D02*
X1678Y891D01*
X2308Y891D02*
X2315Y891D01*
X0Y890D02*
X7Y890D01*
X1657Y890D02*
X1676Y890D01*
X2308Y890D02*
X2315Y890D01*
X0Y889D02*
X7Y889D01*
X1655Y889D02*
X1673Y889D01*
X2308Y889D02*
X2315Y889D01*
X0Y888D02*
X7Y888D01*
X1652Y888D02*
X1671Y888D01*
X2308Y888D02*
X2315Y888D01*
X0Y887D02*
X7Y887D01*
X1649Y887D02*
X1668Y887D01*
X2308Y887D02*
X2315Y887D01*
X0Y886D02*
X7Y886D01*
X1647Y886D02*
X1665Y886D01*
X2308Y886D02*
X2315Y886D01*
X0Y885D02*
X7Y885D01*
X1644Y885D02*
X1663Y885D01*
X2308Y885D02*
X2315Y885D01*
X0Y884D02*
X7Y884D01*
X1630Y884D02*
X1660Y884D01*
X2308Y884D02*
X2315Y884D01*
X0Y883D02*
X7Y883D01*
X1628Y883D02*
X1658Y883D01*
X2308Y883D02*
X2315Y883D01*
X0Y882D02*
X7Y882D01*
X1628Y882D02*
X1655Y882D01*
X2308Y882D02*
X2315Y882D01*
X0Y881D02*
X7Y881D01*
X1627Y881D02*
X1652Y881D01*
X2308Y881D02*
X2315Y881D01*
X0Y880D02*
X7Y880D01*
X1627Y880D02*
X1650Y880D01*
X2308Y880D02*
X2315Y880D01*
X0Y879D02*
X7Y879D01*
X1628Y879D02*
X1647Y879D01*
X2308Y879D02*
X2315Y879D01*
X0Y878D02*
X7Y878D01*
X1629Y878D02*
X1645Y878D01*
X2308Y878D02*
X2315Y878D01*
X0Y877D02*
X7Y877D01*
X2308Y877D02*
X2315Y877D01*
X0Y876D02*
X7Y876D01*
X2308Y876D02*
X2315Y876D01*
X0Y875D02*
X7Y875D01*
X2308Y875D02*
X2315Y875D01*
X0Y874D02*
X7Y874D01*
X2308Y874D02*
X2315Y874D01*
X0Y873D02*
X7Y873D01*
X2308Y873D02*
X2315Y873D01*
X0Y872D02*
X7Y872D01*
X2308Y872D02*
X2315Y872D01*
X0Y871D02*
X7Y871D01*
X2308Y871D02*
X2315Y871D01*
X0Y870D02*
X7Y870D01*
X2308Y870D02*
X2315Y870D01*
X0Y869D02*
X7Y869D01*
X2308Y869D02*
X2315Y869D01*
X0Y868D02*
X7Y868D01*
X2308Y868D02*
X2315Y868D01*
X0Y867D02*
X7Y867D01*
X2308Y867D02*
X2315Y867D01*
X0Y866D02*
X7Y866D01*
X2308Y866D02*
X2315Y866D01*
X0Y865D02*
X7Y865D01*
X2308Y865D02*
X2315Y865D01*
X0Y864D02*
X7Y864D01*
X2308Y864D02*
X2315Y864D01*
X0Y863D02*
X7Y863D01*
X2308Y863D02*
X2315Y863D01*
X0Y862D02*
X7Y862D01*
X2308Y862D02*
X2315Y862D01*
X0Y861D02*
X7Y861D01*
X1632Y861D02*
X1653Y861D01*
X1676Y861D02*
X1679Y861D01*
X2308Y861D02*
X2315Y861D01*
X0Y860D02*
X7Y860D01*
X1630Y860D02*
X1654Y860D01*
X1675Y860D02*
X1680Y860D01*
X2308Y860D02*
X2315Y860D01*
X0Y859D02*
X7Y859D01*
X1629Y859D02*
X1655Y859D01*
X1675Y859D02*
X1680Y859D01*
X2308Y859D02*
X2315Y859D01*
X0Y858D02*
X7Y858D01*
X1628Y858D02*
X1656Y858D01*
X1674Y858D02*
X1680Y858D01*
X2308Y858D02*
X2315Y858D01*
X0Y857D02*
X7Y857D01*
X1628Y857D02*
X1656Y857D01*
X1674Y857D02*
X1680Y857D01*
X2308Y857D02*
X2315Y857D01*
X0Y856D02*
X7Y856D01*
X1627Y856D02*
X1657Y856D01*
X1674Y856D02*
X1680Y856D01*
X2308Y856D02*
X2315Y856D01*
X0Y855D02*
X7Y855D01*
X1627Y855D02*
X1657Y855D01*
X1674Y855D02*
X1680Y855D01*
X2308Y855D02*
X2315Y855D01*
X0Y854D02*
X7Y854D01*
X1627Y854D02*
X1633Y854D01*
X1651Y854D02*
X1657Y854D01*
X1674Y854D02*
X1680Y854D01*
X2308Y854D02*
X2315Y854D01*
X0Y853D02*
X7Y853D01*
X1627Y853D02*
X1633Y853D01*
X1651Y853D02*
X1657Y853D01*
X1674Y853D02*
X1680Y853D01*
X2308Y853D02*
X2315Y853D01*
X0Y852D02*
X7Y852D01*
X1627Y852D02*
X1633Y852D01*
X1651Y852D02*
X1657Y852D01*
X1674Y852D02*
X1680Y852D01*
X2308Y852D02*
X2315Y852D01*
X0Y851D02*
X7Y851D01*
X1627Y851D02*
X1633Y851D01*
X1651Y851D02*
X1657Y851D01*
X1674Y851D02*
X1680Y851D01*
X2308Y851D02*
X2315Y851D01*
X0Y850D02*
X7Y850D01*
X1627Y850D02*
X1633Y850D01*
X1651Y850D02*
X1657Y850D01*
X1674Y850D02*
X1680Y850D01*
X2308Y850D02*
X2315Y850D01*
X0Y849D02*
X7Y849D01*
X1627Y849D02*
X1633Y849D01*
X1651Y849D02*
X1657Y849D01*
X1674Y849D02*
X1680Y849D01*
X2308Y849D02*
X2315Y849D01*
X0Y848D02*
X7Y848D01*
X1627Y848D02*
X1633Y848D01*
X1651Y848D02*
X1657Y848D01*
X1674Y848D02*
X1680Y848D01*
X2308Y848D02*
X2315Y848D01*
X0Y847D02*
X7Y847D01*
X1627Y847D02*
X1633Y847D01*
X1651Y847D02*
X1657Y847D01*
X1674Y847D02*
X1680Y847D01*
X2308Y847D02*
X2315Y847D01*
X0Y846D02*
X7Y846D01*
X1627Y846D02*
X1633Y846D01*
X1651Y846D02*
X1657Y846D01*
X1674Y846D02*
X1680Y846D01*
X2308Y846D02*
X2315Y846D01*
X0Y845D02*
X7Y845D01*
X1627Y845D02*
X1633Y845D01*
X1651Y845D02*
X1657Y845D01*
X1674Y845D02*
X1680Y845D01*
X2308Y845D02*
X2315Y845D01*
X0Y844D02*
X7Y844D01*
X1627Y844D02*
X1633Y844D01*
X1651Y844D02*
X1657Y844D01*
X1674Y844D02*
X1680Y844D01*
X2308Y844D02*
X2315Y844D01*
X0Y843D02*
X7Y843D01*
X1627Y843D02*
X1633Y843D01*
X1651Y843D02*
X1657Y843D01*
X1674Y843D02*
X1680Y843D01*
X2308Y843D02*
X2315Y843D01*
X0Y842D02*
X7Y842D01*
X1627Y842D02*
X1633Y842D01*
X1651Y842D02*
X1657Y842D01*
X1674Y842D02*
X1680Y842D01*
X2308Y842D02*
X2315Y842D01*
X0Y841D02*
X7Y841D01*
X1627Y841D02*
X1633Y841D01*
X1651Y841D02*
X1657Y841D01*
X1674Y841D02*
X1680Y841D01*
X2308Y841D02*
X2315Y841D01*
X0Y840D02*
X7Y840D01*
X1627Y840D02*
X1633Y840D01*
X1651Y840D02*
X1657Y840D01*
X1674Y840D02*
X1680Y840D01*
X2308Y840D02*
X2315Y840D01*
X0Y839D02*
X7Y839D01*
X1627Y839D02*
X1633Y839D01*
X1651Y839D02*
X1657Y839D01*
X1674Y839D02*
X1680Y839D01*
X2308Y839D02*
X2315Y839D01*
X0Y838D02*
X7Y838D01*
X1627Y838D02*
X1633Y838D01*
X1651Y838D02*
X1657Y838D01*
X1674Y838D02*
X1680Y838D01*
X2308Y838D02*
X2315Y838D01*
X0Y837D02*
X7Y837D01*
X1627Y837D02*
X1633Y837D01*
X1651Y837D02*
X1657Y837D01*
X1674Y837D02*
X1680Y837D01*
X2308Y837D02*
X2315Y837D01*
X0Y836D02*
X7Y836D01*
X1627Y836D02*
X1633Y836D01*
X1651Y836D02*
X1657Y836D01*
X1674Y836D02*
X1680Y836D01*
X2308Y836D02*
X2315Y836D01*
X0Y835D02*
X7Y835D01*
X1627Y835D02*
X1633Y835D01*
X1651Y835D02*
X1657Y835D01*
X1674Y835D02*
X1680Y835D01*
X2308Y835D02*
X2315Y835D01*
X0Y834D02*
X7Y834D01*
X1627Y834D02*
X1633Y834D01*
X1651Y834D02*
X1680Y834D01*
X2308Y834D02*
X2315Y834D01*
X0Y833D02*
X7Y833D01*
X1627Y833D02*
X1633Y833D01*
X1651Y833D02*
X1680Y833D01*
X2308Y833D02*
X2315Y833D01*
X0Y832D02*
X7Y832D01*
X1627Y832D02*
X1633Y832D01*
X1651Y832D02*
X1680Y832D01*
X2308Y832D02*
X2315Y832D01*
X0Y831D02*
X7Y831D01*
X1627Y831D02*
X1633Y831D01*
X1652Y831D02*
X1680Y831D01*
X2308Y831D02*
X2315Y831D01*
X0Y830D02*
X7Y830D01*
X1627Y830D02*
X1633Y830D01*
X1652Y830D02*
X1680Y830D01*
X2308Y830D02*
X2315Y830D01*
X0Y829D02*
X7Y829D01*
X1628Y829D02*
X1633Y829D01*
X1653Y829D02*
X1680Y829D01*
X2308Y829D02*
X2315Y829D01*
X0Y828D02*
X7Y828D01*
X1629Y828D02*
X1632Y828D01*
X1654Y828D02*
X1680Y828D01*
X2308Y828D02*
X2315Y828D01*
X0Y827D02*
X7Y827D01*
X2308Y827D02*
X2315Y827D01*
X0Y826D02*
X7Y826D01*
X2308Y826D02*
X2315Y826D01*
X0Y825D02*
X7Y825D01*
X2308Y825D02*
X2315Y825D01*
X0Y824D02*
X7Y824D01*
X2308Y824D02*
X2315Y824D01*
X0Y823D02*
X7Y823D01*
X2308Y823D02*
X2315Y823D01*
X0Y822D02*
X7Y822D01*
X2308Y822D02*
X2315Y822D01*
X0Y821D02*
X7Y821D01*
X2308Y821D02*
X2315Y821D01*
X0Y820D02*
X7Y820D01*
X2308Y820D02*
X2315Y820D01*
X0Y819D02*
X7Y819D01*
X2308Y819D02*
X2315Y819D01*
X0Y818D02*
X7Y818D01*
X2308Y818D02*
X2315Y818D01*
X0Y817D02*
X7Y817D01*
X2308Y817D02*
X2315Y817D01*
X0Y816D02*
X7Y816D01*
X2308Y816D02*
X2315Y816D01*
X0Y815D02*
X7Y815D01*
X2308Y815D02*
X2315Y815D01*
X0Y814D02*
X7Y814D01*
X2308Y814D02*
X2315Y814D01*
X0Y813D02*
X7Y813D01*
X2308Y813D02*
X2315Y813D01*
X0Y812D02*
X7Y812D01*
X2308Y812D02*
X2315Y812D01*
X0Y811D02*
X7Y811D01*
X1658Y811D02*
X1679Y811D01*
X2308Y811D02*
X2315Y811D01*
X0Y810D02*
X7Y810D01*
X1657Y810D02*
X1680Y810D01*
X2308Y810D02*
X2315Y810D01*
X0Y809D02*
X7Y809D01*
X1657Y809D02*
X1680Y809D01*
X2308Y809D02*
X2315Y809D01*
X0Y808D02*
X7Y808D01*
X1657Y808D02*
X1680Y808D01*
X2308Y808D02*
X2315Y808D01*
X0Y807D02*
X7Y807D01*
X1657Y807D02*
X1680Y807D01*
X2308Y807D02*
X2315Y807D01*
X0Y806D02*
X7Y806D01*
X1658Y806D02*
X1680Y806D01*
X2308Y806D02*
X2315Y806D01*
X0Y805D02*
X7Y805D01*
X1659Y805D02*
X1680Y805D01*
X2308Y805D02*
X2315Y805D01*
X0Y804D02*
X7Y804D01*
X1674Y804D02*
X1680Y804D01*
X2308Y804D02*
X2315Y804D01*
X0Y803D02*
X7Y803D01*
X1674Y803D02*
X1680Y803D01*
X2308Y803D02*
X2315Y803D01*
X0Y802D02*
X7Y802D01*
X1674Y802D02*
X1680Y802D01*
X2308Y802D02*
X2315Y802D01*
X0Y801D02*
X7Y801D01*
X1674Y801D02*
X1680Y801D01*
X2308Y801D02*
X2315Y801D01*
X0Y800D02*
X7Y800D01*
X1674Y800D02*
X1680Y800D01*
X2308Y800D02*
X2315Y800D01*
X0Y799D02*
X7Y799D01*
X1674Y799D02*
X1680Y799D01*
X2308Y799D02*
X2315Y799D01*
X0Y798D02*
X7Y798D01*
X1674Y798D02*
X1680Y798D01*
X2308Y798D02*
X2315Y798D01*
X0Y797D02*
X7Y797D01*
X1627Y797D02*
X1680Y797D01*
X2308Y797D02*
X2315Y797D01*
X0Y796D02*
X7Y796D01*
X1627Y796D02*
X1680Y796D01*
X2308Y796D02*
X2315Y796D01*
X0Y795D02*
X7Y795D01*
X1627Y795D02*
X1680Y795D01*
X2308Y795D02*
X2315Y795D01*
X0Y794D02*
X7Y794D01*
X1627Y794D02*
X1680Y794D01*
X2308Y794D02*
X2315Y794D01*
X0Y793D02*
X7Y793D01*
X1627Y793D02*
X1680Y793D01*
X2308Y793D02*
X2315Y793D01*
X0Y792D02*
X7Y792D01*
X1627Y792D02*
X1680Y792D01*
X2308Y792D02*
X2315Y792D01*
X0Y791D02*
X7Y791D01*
X1627Y791D02*
X1680Y791D01*
X2308Y791D02*
X2315Y791D01*
X0Y790D02*
X7Y790D01*
X1627Y790D02*
X1633Y790D01*
X1674Y790D02*
X1680Y790D01*
X2308Y790D02*
X2315Y790D01*
X0Y789D02*
X7Y789D01*
X545Y789D02*
X546Y789D01*
X571Y789D02*
X596Y789D01*
X1627Y789D02*
X1633Y789D01*
X1674Y789D02*
X1680Y789D01*
X2308Y789D02*
X2315Y789D01*
X0Y788D02*
X7Y788D01*
X544Y788D02*
X548Y788D01*
X569Y788D02*
X599Y788D01*
X1627Y788D02*
X1633Y788D01*
X1674Y788D02*
X1680Y788D01*
X2308Y788D02*
X2315Y788D01*
X0Y787D02*
X7Y787D01*
X543Y787D02*
X548Y787D01*
X569Y787D02*
X600Y787D01*
X1627Y787D02*
X1633Y787D01*
X1674Y787D02*
X1680Y787D01*
X2308Y787D02*
X2315Y787D01*
X0Y786D02*
X7Y786D01*
X543Y786D02*
X548Y786D01*
X569Y786D02*
X601Y786D01*
X1627Y786D02*
X1633Y786D01*
X1674Y786D02*
X1680Y786D01*
X2308Y786D02*
X2315Y786D01*
X0Y785D02*
X7Y785D01*
X543Y785D02*
X549Y785D01*
X569Y785D02*
X601Y785D01*
X1627Y785D02*
X1633Y785D01*
X1674Y785D02*
X1680Y785D01*
X2308Y785D02*
X2315Y785D01*
X0Y784D02*
X7Y784D01*
X543Y784D02*
X549Y784D01*
X569Y784D02*
X602Y784D01*
X1627Y784D02*
X1633Y784D01*
X1674Y784D02*
X1680Y784D01*
X2308Y784D02*
X2315Y784D01*
X0Y783D02*
X7Y783D01*
X543Y783D02*
X549Y783D01*
X570Y783D02*
X602Y783D01*
X1627Y783D02*
X1633Y783D01*
X1674Y783D02*
X1680Y783D01*
X2308Y783D02*
X2315Y783D01*
X0Y782D02*
X7Y782D01*
X543Y782D02*
X549Y782D01*
X596Y782D02*
X602Y782D01*
X1627Y782D02*
X1633Y782D01*
X1674Y782D02*
X1680Y782D01*
X2308Y782D02*
X2315Y782D01*
X0Y781D02*
X7Y781D01*
X543Y781D02*
X549Y781D01*
X596Y781D02*
X602Y781D01*
X1627Y781D02*
X1633Y781D01*
X1674Y781D02*
X1680Y781D01*
X2308Y781D02*
X2315Y781D01*
X0Y780D02*
X7Y780D01*
X543Y780D02*
X549Y780D01*
X596Y780D02*
X602Y780D01*
X1627Y780D02*
X1633Y780D01*
X1675Y780D02*
X1680Y780D01*
X2308Y780D02*
X2315Y780D01*
X0Y779D02*
X7Y779D01*
X543Y779D02*
X549Y779D01*
X596Y779D02*
X602Y779D01*
X1628Y779D02*
X1633Y779D01*
X1675Y779D02*
X1680Y779D01*
X2308Y779D02*
X2315Y779D01*
X0Y778D02*
X7Y778D01*
X543Y778D02*
X549Y778D01*
X596Y778D02*
X602Y778D01*
X1629Y778D02*
X1632Y778D01*
X1676Y778D02*
X1679Y778D01*
X2308Y778D02*
X2315Y778D01*
X0Y777D02*
X7Y777D01*
X543Y777D02*
X549Y777D01*
X596Y777D02*
X602Y777D01*
X2308Y777D02*
X2315Y777D01*
X0Y776D02*
X7Y776D01*
X543Y776D02*
X549Y776D01*
X596Y776D02*
X602Y776D01*
X2308Y776D02*
X2315Y776D01*
X0Y775D02*
X7Y775D01*
X543Y775D02*
X549Y775D01*
X596Y775D02*
X602Y775D01*
X2308Y775D02*
X2315Y775D01*
X0Y774D02*
X7Y774D01*
X543Y774D02*
X549Y774D01*
X596Y774D02*
X602Y774D01*
X2308Y774D02*
X2315Y774D01*
X0Y773D02*
X7Y773D01*
X543Y773D02*
X549Y773D01*
X596Y773D02*
X602Y773D01*
X2308Y773D02*
X2315Y773D01*
X0Y772D02*
X7Y772D01*
X543Y772D02*
X549Y772D01*
X596Y772D02*
X602Y772D01*
X2308Y772D02*
X2315Y772D01*
X0Y771D02*
X7Y771D01*
X543Y771D02*
X549Y771D01*
X596Y771D02*
X602Y771D01*
X2308Y771D02*
X2315Y771D01*
X0Y770D02*
X7Y770D01*
X543Y770D02*
X549Y770D01*
X596Y770D02*
X602Y770D01*
X2308Y770D02*
X2315Y770D01*
X0Y769D02*
X7Y769D01*
X543Y769D02*
X549Y769D01*
X596Y769D02*
X602Y769D01*
X2308Y769D02*
X2315Y769D01*
X0Y768D02*
X7Y768D01*
X543Y768D02*
X549Y768D01*
X596Y768D02*
X602Y768D01*
X2308Y768D02*
X2315Y768D01*
X0Y767D02*
X7Y767D01*
X543Y767D02*
X549Y767D01*
X596Y767D02*
X602Y767D01*
X2308Y767D02*
X2315Y767D01*
X0Y766D02*
X7Y766D01*
X543Y766D02*
X549Y766D01*
X596Y766D02*
X602Y766D01*
X2308Y766D02*
X2315Y766D01*
X0Y765D02*
X7Y765D01*
X543Y765D02*
X549Y765D01*
X573Y765D02*
X602Y765D01*
X2308Y765D02*
X2315Y765D01*
X0Y764D02*
X7Y764D01*
X543Y764D02*
X549Y764D01*
X571Y764D02*
X602Y764D01*
X2308Y764D02*
X2315Y764D01*
X0Y763D02*
X7Y763D01*
X543Y763D02*
X549Y763D01*
X570Y763D02*
X602Y763D01*
X2308Y763D02*
X2315Y763D01*
X0Y762D02*
X7Y762D01*
X543Y762D02*
X549Y762D01*
X569Y762D02*
X601Y762D01*
X2308Y762D02*
X2315Y762D01*
X0Y761D02*
X7Y761D01*
X543Y761D02*
X549Y761D01*
X569Y761D02*
X600Y761D01*
X1629Y761D02*
X1680Y761D01*
X2308Y761D02*
X2315Y761D01*
X0Y760D02*
X7Y760D01*
X543Y760D02*
X549Y760D01*
X569Y760D02*
X599Y760D01*
X1628Y760D02*
X1680Y760D01*
X2308Y760D02*
X2315Y760D01*
X0Y759D02*
X7Y759D01*
X523Y759D02*
X526Y759D01*
X543Y759D02*
X549Y759D01*
X568Y759D02*
X597Y759D01*
X1627Y759D02*
X1680Y759D01*
X2308Y759D02*
X2315Y759D01*
X0Y758D02*
X7Y758D01*
X522Y758D02*
X527Y758D01*
X543Y758D02*
X549Y758D01*
X568Y758D02*
X574Y758D01*
X1627Y758D02*
X1680Y758D01*
X2308Y758D02*
X2315Y758D01*
X0Y757D02*
X7Y757D01*
X522Y757D02*
X528Y757D01*
X543Y757D02*
X549Y757D01*
X568Y757D02*
X574Y757D01*
X1628Y757D02*
X1680Y757D01*
X2308Y757D02*
X2315Y757D01*
X0Y756D02*
X7Y756D01*
X522Y756D02*
X528Y756D01*
X543Y756D02*
X549Y756D01*
X568Y756D02*
X574Y756D01*
X1628Y756D02*
X1680Y756D01*
X2308Y756D02*
X2315Y756D01*
X0Y755D02*
X7Y755D01*
X522Y755D02*
X528Y755D01*
X543Y755D02*
X549Y755D01*
X568Y755D02*
X574Y755D01*
X1629Y755D02*
X1680Y755D01*
X2308Y755D02*
X2315Y755D01*
X0Y754D02*
X7Y754D01*
X522Y754D02*
X528Y754D01*
X543Y754D02*
X549Y754D01*
X568Y754D02*
X574Y754D01*
X1668Y754D02*
X1680Y754D01*
X2308Y754D02*
X2315Y754D01*
X0Y753D02*
X7Y753D01*
X522Y753D02*
X528Y753D01*
X543Y753D02*
X549Y753D01*
X568Y753D02*
X574Y753D01*
X1665Y753D02*
X1680Y753D01*
X2308Y753D02*
X2315Y753D01*
X0Y752D02*
X7Y752D01*
X522Y752D02*
X528Y752D01*
X543Y752D02*
X549Y752D01*
X568Y752D02*
X574Y752D01*
X1663Y752D02*
X1680Y752D01*
X2308Y752D02*
X2315Y752D01*
X0Y751D02*
X7Y751D01*
X522Y751D02*
X528Y751D01*
X543Y751D02*
X549Y751D01*
X568Y751D02*
X574Y751D01*
X1661Y751D02*
X1677Y751D01*
X2308Y751D02*
X2315Y751D01*
X0Y750D02*
X7Y750D01*
X522Y750D02*
X528Y750D01*
X543Y750D02*
X549Y750D01*
X568Y750D02*
X574Y750D01*
X1658Y750D02*
X1675Y750D01*
X2308Y750D02*
X2315Y750D01*
X0Y749D02*
X7Y749D01*
X522Y749D02*
X528Y749D01*
X543Y749D02*
X549Y749D01*
X568Y749D02*
X574Y749D01*
X1656Y749D02*
X1673Y749D01*
X2308Y749D02*
X2315Y749D01*
X0Y748D02*
X7Y748D01*
X522Y748D02*
X528Y748D01*
X543Y748D02*
X549Y748D01*
X568Y748D02*
X574Y748D01*
X1654Y748D02*
X1671Y748D01*
X2308Y748D02*
X2315Y748D01*
X0Y747D02*
X7Y747D01*
X522Y747D02*
X528Y747D01*
X543Y747D02*
X549Y747D01*
X568Y747D02*
X574Y747D01*
X1652Y747D02*
X1668Y747D01*
X2308Y747D02*
X2315Y747D01*
X0Y746D02*
X7Y746D01*
X522Y746D02*
X528Y746D01*
X543Y746D02*
X549Y746D01*
X568Y746D02*
X574Y746D01*
X1649Y746D02*
X1666Y746D01*
X2308Y746D02*
X2315Y746D01*
X0Y745D02*
X7Y745D01*
X522Y745D02*
X528Y745D01*
X542Y745D02*
X549Y745D01*
X568Y745D02*
X574Y745D01*
X1647Y745D02*
X1664Y745D01*
X2308Y745D02*
X2315Y745D01*
X0Y744D02*
X7Y744D01*
X522Y744D02*
X528Y744D01*
X542Y744D02*
X548Y744D01*
X568Y744D02*
X574Y744D01*
X1645Y744D02*
X1661Y744D01*
X2308Y744D02*
X2315Y744D01*
X0Y743D02*
X7Y743D01*
X522Y743D02*
X529Y743D01*
X541Y743D02*
X548Y743D01*
X568Y743D02*
X574Y743D01*
X1643Y743D02*
X1659Y743D01*
X2308Y743D02*
X2315Y743D01*
X0Y742D02*
X7Y742D01*
X522Y742D02*
X548Y742D01*
X568Y742D02*
X599Y742D01*
X1640Y742D02*
X1657Y742D01*
X2308Y742D02*
X2315Y742D01*
X0Y741D02*
X7Y741D01*
X523Y741D02*
X548Y741D01*
X568Y741D02*
X601Y741D01*
X1638Y741D02*
X1655Y741D01*
X2308Y741D02*
X2315Y741D01*
X0Y740D02*
X7Y740D01*
X523Y740D02*
X547Y740D01*
X568Y740D02*
X602Y740D01*
X1636Y740D02*
X1652Y740D01*
X2308Y740D02*
X2315Y740D01*
X0Y739D02*
X7Y739D01*
X524Y739D02*
X546Y739D01*
X568Y739D02*
X602Y739D01*
X1633Y739D02*
X1650Y739D01*
X2308Y739D02*
X2315Y739D01*
X0Y738D02*
X7Y738D01*
X525Y738D02*
X545Y738D01*
X568Y738D02*
X602Y738D01*
X1631Y738D02*
X1648Y738D01*
X2308Y738D02*
X2315Y738D01*
X0Y737D02*
X7Y737D01*
X526Y737D02*
X544Y737D01*
X568Y737D02*
X602Y737D01*
X1629Y737D02*
X1645Y737D01*
X2308Y737D02*
X2315Y737D01*
X0Y736D02*
X7Y736D01*
X528Y736D02*
X542Y736D01*
X568Y736D02*
X601Y736D01*
X1627Y736D02*
X1643Y736D01*
X2308Y736D02*
X2315Y736D01*
X0Y735D02*
X7Y735D01*
X1627Y735D02*
X1641Y735D01*
X2308Y735D02*
X2315Y735D01*
X0Y734D02*
X7Y734D01*
X1627Y734D02*
X1678Y734D01*
X2308Y734D02*
X2315Y734D01*
X0Y733D02*
X7Y733D01*
X1627Y733D02*
X1679Y733D01*
X2308Y733D02*
X2315Y733D01*
X0Y732D02*
X7Y732D01*
X1627Y732D02*
X1680Y732D01*
X2308Y732D02*
X2315Y732D01*
X0Y731D02*
X7Y731D01*
X1627Y731D02*
X1680Y731D01*
X2308Y731D02*
X2315Y731D01*
X0Y730D02*
X7Y730D01*
X1627Y730D02*
X1680Y730D01*
X2308Y730D02*
X2315Y730D01*
X0Y729D02*
X7Y729D01*
X1627Y729D02*
X1680Y729D01*
X2308Y729D02*
X2315Y729D01*
X0Y728D02*
X7Y728D01*
X1627Y728D02*
X1679Y728D01*
X2308Y728D02*
X2315Y728D01*
X0Y727D02*
X7Y727D01*
X2308Y727D02*
X2315Y727D01*
X0Y726D02*
X7Y726D01*
X2308Y726D02*
X2315Y726D01*
X0Y725D02*
X7Y725D01*
X2308Y725D02*
X2315Y725D01*
X0Y724D02*
X7Y724D01*
X2308Y724D02*
X2315Y724D01*
X0Y723D02*
X7Y723D01*
X2308Y723D02*
X2315Y723D01*
X0Y722D02*
X7Y722D01*
X2308Y722D02*
X2315Y722D01*
X0Y721D02*
X7Y721D01*
X2308Y721D02*
X2315Y721D01*
X0Y720D02*
X7Y720D01*
X2308Y720D02*
X2315Y720D01*
X0Y719D02*
X7Y719D01*
X2308Y719D02*
X2315Y719D01*
X0Y718D02*
X7Y718D01*
X2308Y718D02*
X2315Y718D01*
X0Y717D02*
X7Y717D01*
X2308Y717D02*
X2315Y717D01*
X0Y716D02*
X7Y716D01*
X2308Y716D02*
X2315Y716D01*
X0Y715D02*
X7Y715D01*
X2308Y715D02*
X2315Y715D01*
X0Y714D02*
X7Y714D01*
X2308Y714D02*
X2315Y714D01*
X0Y713D02*
X7Y713D01*
X2308Y713D02*
X2315Y713D01*
X0Y712D02*
X7Y712D01*
X2308Y712D02*
X2315Y712D01*
X0Y711D02*
X7Y711D01*
X1629Y711D02*
X1632Y711D01*
X1676Y711D02*
X1679Y711D01*
X2308Y711D02*
X2315Y711D01*
X0Y710D02*
X7Y710D01*
X1628Y710D02*
X1633Y710D01*
X1675Y710D02*
X1680Y710D01*
X2308Y710D02*
X2315Y710D01*
X0Y709D02*
X7Y709D01*
X1627Y709D02*
X1633Y709D01*
X1675Y709D02*
X1680Y709D01*
X2308Y709D02*
X2315Y709D01*
X0Y708D02*
X7Y708D01*
X1627Y708D02*
X1633Y708D01*
X1674Y708D02*
X1680Y708D01*
X2308Y708D02*
X2315Y708D01*
X0Y707D02*
X7Y707D01*
X1627Y707D02*
X1633Y707D01*
X1674Y707D02*
X1680Y707D01*
X2308Y707D02*
X2315Y707D01*
X0Y706D02*
X7Y706D01*
X1627Y706D02*
X1633Y706D01*
X1674Y706D02*
X1680Y706D01*
X2308Y706D02*
X2315Y706D01*
X0Y705D02*
X7Y705D01*
X1627Y705D02*
X1633Y705D01*
X1674Y705D02*
X1680Y705D01*
X2308Y705D02*
X2315Y705D01*
X0Y704D02*
X7Y704D01*
X1627Y704D02*
X1633Y704D01*
X1674Y704D02*
X1680Y704D01*
X2308Y704D02*
X2315Y704D01*
X0Y703D02*
X7Y703D01*
X1627Y703D02*
X1633Y703D01*
X1674Y703D02*
X1680Y703D01*
X2308Y703D02*
X2315Y703D01*
X0Y702D02*
X7Y702D01*
X1627Y702D02*
X1633Y702D01*
X1674Y702D02*
X1680Y702D01*
X2308Y702D02*
X2315Y702D01*
X0Y701D02*
X7Y701D01*
X1627Y701D02*
X1633Y701D01*
X1674Y701D02*
X1680Y701D01*
X2308Y701D02*
X2315Y701D01*
X0Y700D02*
X7Y700D01*
X1627Y700D02*
X1633Y700D01*
X1674Y700D02*
X1680Y700D01*
X2308Y700D02*
X2315Y700D01*
X0Y699D02*
X7Y699D01*
X1627Y699D02*
X1633Y699D01*
X1674Y699D02*
X1680Y699D01*
X2308Y699D02*
X2315Y699D01*
X0Y698D02*
X7Y698D01*
X1627Y698D02*
X1634Y698D01*
X1674Y698D02*
X1680Y698D01*
X2308Y698D02*
X2315Y698D01*
X0Y697D02*
X7Y697D01*
X1627Y697D02*
X1680Y697D01*
X2308Y697D02*
X2315Y697D01*
X0Y696D02*
X7Y696D01*
X1627Y696D02*
X1680Y696D01*
X2308Y696D02*
X2315Y696D01*
X0Y695D02*
X7Y695D01*
X1627Y695D02*
X1680Y695D01*
X2308Y695D02*
X2315Y695D01*
X0Y694D02*
X7Y694D01*
X1627Y694D02*
X1680Y694D01*
X2308Y694D02*
X2315Y694D01*
X0Y693D02*
X7Y693D01*
X1627Y693D02*
X1680Y693D01*
X2308Y693D02*
X2315Y693D01*
X0Y692D02*
X7Y692D01*
X1627Y692D02*
X1680Y692D01*
X2308Y692D02*
X2315Y692D01*
X0Y691D02*
X7Y691D01*
X1627Y691D02*
X1680Y691D01*
X2308Y691D02*
X2315Y691D01*
X0Y690D02*
X7Y690D01*
X1627Y690D02*
X1633Y690D01*
X1674Y690D02*
X1680Y690D01*
X2308Y690D02*
X2315Y690D01*
X0Y689D02*
X7Y689D01*
X1627Y689D02*
X1633Y689D01*
X1674Y689D02*
X1680Y689D01*
X2308Y689D02*
X2315Y689D01*
X0Y688D02*
X7Y688D01*
X1627Y688D02*
X1633Y688D01*
X1674Y688D02*
X1680Y688D01*
X2308Y688D02*
X2315Y688D01*
X0Y687D02*
X7Y687D01*
X1627Y687D02*
X1633Y687D01*
X1674Y687D02*
X1680Y687D01*
X2308Y687D02*
X2315Y687D01*
X0Y686D02*
X7Y686D01*
X1627Y686D02*
X1633Y686D01*
X1674Y686D02*
X1680Y686D01*
X2308Y686D02*
X2315Y686D01*
X0Y685D02*
X7Y685D01*
X1627Y685D02*
X1633Y685D01*
X1674Y685D02*
X1680Y685D01*
X2308Y685D02*
X2315Y685D01*
X0Y684D02*
X7Y684D01*
X1627Y684D02*
X1633Y684D01*
X1674Y684D02*
X1680Y684D01*
X2308Y684D02*
X2315Y684D01*
X0Y683D02*
X7Y683D01*
X1627Y683D02*
X1633Y683D01*
X1674Y683D02*
X1680Y683D01*
X2308Y683D02*
X2315Y683D01*
X0Y682D02*
X7Y682D01*
X1627Y682D02*
X1633Y682D01*
X1674Y682D02*
X1680Y682D01*
X2308Y682D02*
X2315Y682D01*
X0Y681D02*
X7Y681D01*
X1627Y681D02*
X1633Y681D01*
X1674Y681D02*
X1680Y681D01*
X2308Y681D02*
X2315Y681D01*
X0Y680D02*
X7Y680D01*
X1627Y680D02*
X1633Y680D01*
X1675Y680D02*
X1680Y680D01*
X2308Y680D02*
X2315Y680D01*
X0Y679D02*
X7Y679D01*
X1628Y679D02*
X1633Y679D01*
X1675Y679D02*
X1680Y679D01*
X2308Y679D02*
X2315Y679D01*
X0Y678D02*
X7Y678D01*
X1629Y678D02*
X1632Y678D01*
X1676Y678D02*
X1679Y678D01*
X2308Y678D02*
X2315Y678D01*
X0Y677D02*
X7Y677D01*
X2308Y677D02*
X2315Y677D01*
X0Y676D02*
X7Y676D01*
X2308Y676D02*
X2315Y676D01*
X0Y675D02*
X7Y675D01*
X2308Y675D02*
X2315Y675D01*
X0Y674D02*
X7Y674D01*
X2308Y674D02*
X2315Y674D01*
X0Y673D02*
X7Y673D01*
X2308Y673D02*
X2315Y673D01*
X0Y672D02*
X7Y672D01*
X2308Y672D02*
X2315Y672D01*
X0Y671D02*
X7Y671D01*
X2308Y671D02*
X2315Y671D01*
X0Y670D02*
X7Y670D01*
X2308Y670D02*
X2315Y670D01*
X0Y669D02*
X7Y669D01*
X2308Y669D02*
X2315Y669D01*
X0Y668D02*
X7Y668D01*
X2308Y668D02*
X2315Y668D01*
X0Y667D02*
X7Y667D01*
X2308Y667D02*
X2315Y667D01*
X0Y666D02*
X7Y666D01*
X2308Y666D02*
X2315Y666D01*
X0Y665D02*
X7Y665D01*
X2308Y665D02*
X2315Y665D01*
X0Y664D02*
X7Y664D01*
X2308Y664D02*
X2315Y664D01*
X0Y663D02*
X7Y663D01*
X2308Y663D02*
X2315Y663D01*
X0Y662D02*
X7Y662D01*
X2308Y662D02*
X2315Y662D01*
X0Y661D02*
X7Y661D01*
X2308Y661D02*
X2315Y661D01*
X0Y660D02*
X7Y660D01*
X2308Y660D02*
X2315Y660D01*
X0Y659D02*
X7Y659D01*
X2308Y659D02*
X2315Y659D01*
X0Y658D02*
X7Y658D01*
X2308Y658D02*
X2315Y658D01*
X0Y657D02*
X7Y657D01*
X2308Y657D02*
X2315Y657D01*
X0Y656D02*
X7Y656D01*
X2308Y656D02*
X2315Y656D01*
X0Y655D02*
X7Y655D01*
X2308Y655D02*
X2315Y655D01*
X0Y654D02*
X7Y654D01*
X2308Y654D02*
X2315Y654D01*
X0Y653D02*
X7Y653D01*
X2308Y653D02*
X2315Y653D01*
X0Y652D02*
X7Y652D01*
X2308Y652D02*
X2315Y652D01*
X0Y651D02*
X7Y651D01*
X2308Y651D02*
X2315Y651D01*
X0Y650D02*
X7Y650D01*
X2308Y650D02*
X2315Y650D01*
X0Y649D02*
X7Y649D01*
X2308Y649D02*
X2315Y649D01*
X0Y648D02*
X7Y648D01*
X2308Y648D02*
X2315Y648D01*
X0Y647D02*
X7Y647D01*
X2308Y647D02*
X2315Y647D01*
X0Y646D02*
X7Y646D01*
X2308Y646D02*
X2315Y646D01*
X0Y645D02*
X7Y645D01*
X2308Y645D02*
X2315Y645D01*
X0Y644D02*
X7Y644D01*
X2308Y644D02*
X2315Y644D01*
X0Y643D02*
X7Y643D01*
X2308Y643D02*
X2315Y643D01*
X0Y642D02*
X7Y642D01*
X2308Y642D02*
X2315Y642D01*
X0Y641D02*
X7Y641D01*
X2308Y641D02*
X2315Y641D01*
X0Y640D02*
X7Y640D01*
X2308Y640D02*
X2315Y640D01*
X0Y639D02*
X8Y639D01*
X28Y639D02*
X38Y639D01*
X49Y639D02*
X55Y639D01*
X2308Y639D02*
X2315Y639D01*
X0Y638D02*
X9Y638D01*
X27Y638D02*
X39Y638D01*
X47Y638D02*
X56Y638D01*
X2308Y638D02*
X2315Y638D01*
X0Y637D02*
X10Y637D01*
X26Y637D02*
X39Y637D01*
X46Y637D02*
X57Y637D01*
X2308Y637D02*
X2315Y637D01*
X0Y636D02*
X10Y636D01*
X26Y636D02*
X40Y636D01*
X45Y636D02*
X58Y636D01*
X2308Y636D02*
X2315Y636D01*
X0Y635D02*
X10Y635D01*
X27Y635D02*
X40Y635D01*
X44Y635D02*
X59Y635D01*
X2308Y635D02*
X2315Y635D01*
X0Y634D02*
X9Y634D01*
X27Y634D02*
X40Y634D01*
X43Y634D02*
X59Y634D01*
X2308Y634D02*
X2315Y634D01*
X0Y633D02*
X8Y633D01*
X29Y633D02*
X60Y633D01*
X2308Y633D02*
X2315Y633D01*
X0Y632D02*
X7Y632D01*
X35Y632D02*
X50Y632D01*
X54Y632D02*
X60Y632D01*
X2308Y632D02*
X2315Y632D01*
X0Y631D02*
X7Y631D01*
X35Y631D02*
X49Y631D01*
X54Y631D02*
X60Y631D01*
X2308Y631D02*
X2315Y631D01*
X0Y630D02*
X7Y630D01*
X35Y630D02*
X48Y630D01*
X54Y630D02*
X60Y630D01*
X2308Y630D02*
X2315Y630D01*
X0Y629D02*
X7Y629D01*
X36Y629D02*
X46Y629D01*
X54Y629D02*
X60Y629D01*
X2308Y629D02*
X2315Y629D01*
X0Y628D02*
X7Y628D01*
X35Y628D02*
X45Y628D01*
X54Y628D02*
X60Y628D01*
X2308Y628D02*
X2315Y628D01*
X0Y627D02*
X7Y627D01*
X34Y627D02*
X44Y627D01*
X54Y627D02*
X60Y627D01*
X2308Y627D02*
X2315Y627D01*
X0Y626D02*
X7Y626D01*
X33Y626D02*
X43Y626D01*
X54Y626D02*
X60Y626D01*
X2308Y626D02*
X2315Y626D01*
X0Y625D02*
X7Y625D01*
X32Y625D02*
X44Y625D01*
X54Y625D02*
X60Y625D01*
X2308Y625D02*
X2315Y625D01*
X0Y624D02*
X7Y624D01*
X31Y624D02*
X44Y624D01*
X54Y624D02*
X60Y624D01*
X2308Y624D02*
X2315Y624D01*
X0Y623D02*
X7Y623D01*
X30Y623D02*
X45Y623D01*
X54Y623D02*
X60Y623D01*
X2308Y623D02*
X2315Y623D01*
X0Y622D02*
X7Y622D01*
X29Y622D02*
X45Y622D01*
X54Y622D02*
X60Y622D01*
X2308Y622D02*
X2315Y622D01*
X0Y621D02*
X7Y621D01*
X28Y621D02*
X37Y621D01*
X39Y621D02*
X45Y621D01*
X54Y621D02*
X60Y621D01*
X2308Y621D02*
X2315Y621D01*
X0Y620D02*
X7Y620D01*
X28Y620D02*
X36Y620D01*
X39Y620D02*
X46Y620D01*
X54Y620D02*
X60Y620D01*
X2308Y620D02*
X2315Y620D01*
X0Y619D02*
X7Y619D01*
X27Y619D02*
X35Y619D01*
X40Y619D02*
X46Y619D01*
X54Y619D02*
X60Y619D01*
X2308Y619D02*
X2315Y619D01*
X0Y618D02*
X7Y618D01*
X27Y618D02*
X34Y618D01*
X40Y618D02*
X46Y618D01*
X54Y618D02*
X60Y618D01*
X2308Y618D02*
X2315Y618D01*
X0Y617D02*
X7Y617D01*
X27Y617D02*
X33Y617D01*
X41Y617D02*
X46Y617D01*
X54Y617D02*
X60Y617D01*
X2308Y617D02*
X2315Y617D01*
X0Y616D02*
X7Y616D01*
X26Y616D02*
X33Y616D01*
X41Y616D02*
X45Y616D01*
X54Y616D02*
X60Y616D01*
X2308Y616D02*
X2315Y616D01*
X0Y615D02*
X7Y615D01*
X26Y615D02*
X32Y615D01*
X54Y615D02*
X60Y615D01*
X2308Y615D02*
X2315Y615D01*
X0Y614D02*
X7Y614D01*
X26Y614D02*
X32Y614D01*
X54Y614D02*
X60Y614D01*
X2308Y614D02*
X2315Y614D01*
X0Y613D02*
X7Y613D01*
X26Y613D02*
X32Y613D01*
X54Y613D02*
X60Y613D01*
X2308Y613D02*
X2315Y613D01*
X0Y612D02*
X7Y612D01*
X26Y612D02*
X32Y612D01*
X54Y612D02*
X60Y612D01*
X2308Y612D02*
X2315Y612D01*
X0Y611D02*
X7Y611D01*
X26Y611D02*
X32Y611D01*
X54Y611D02*
X60Y611D01*
X2308Y611D02*
X2315Y611D01*
X0Y610D02*
X7Y610D01*
X26Y610D02*
X32Y610D01*
X54Y610D02*
X60Y610D01*
X2308Y610D02*
X2315Y610D01*
X0Y609D02*
X7Y609D01*
X26Y609D02*
X32Y609D01*
X53Y609D02*
X60Y609D01*
X2308Y609D02*
X2315Y609D01*
X0Y608D02*
X7Y608D01*
X26Y608D02*
X32Y608D01*
X53Y608D02*
X59Y608D01*
X2308Y608D02*
X2315Y608D01*
X0Y607D02*
X7Y607D01*
X26Y607D02*
X32Y607D01*
X52Y607D02*
X59Y607D01*
X2308Y607D02*
X2315Y607D01*
X0Y606D02*
X7Y606D01*
X26Y606D02*
X32Y606D01*
X51Y606D02*
X59Y606D01*
X2308Y606D02*
X2315Y606D01*
X0Y605D02*
X7Y605D01*
X26Y605D02*
X32Y605D01*
X50Y605D02*
X58Y605D01*
X2308Y605D02*
X2315Y605D01*
X0Y604D02*
X7Y604D01*
X26Y604D02*
X32Y604D01*
X49Y604D02*
X58Y604D01*
X2308Y604D02*
X2315Y604D01*
X0Y603D02*
X7Y603D01*
X26Y603D02*
X32Y603D01*
X48Y603D02*
X57Y603D01*
X2308Y603D02*
X2315Y603D01*
X0Y602D02*
X7Y602D01*
X26Y602D02*
X32Y602D01*
X46Y602D02*
X56Y602D01*
X2308Y602D02*
X2315Y602D01*
X0Y601D02*
X7Y601D01*
X26Y601D02*
X32Y601D01*
X45Y601D02*
X55Y601D01*
X2308Y601D02*
X2315Y601D01*
X0Y600D02*
X7Y600D01*
X26Y600D02*
X32Y600D01*
X44Y600D02*
X54Y600D01*
X2308Y600D02*
X2315Y600D01*
X0Y599D02*
X7Y599D01*
X26Y599D02*
X32Y599D01*
X43Y599D02*
X53Y599D01*
X2308Y599D02*
X2315Y599D01*
X0Y598D02*
X7Y598D01*
X26Y598D02*
X32Y598D01*
X42Y598D02*
X52Y598D01*
X2308Y598D02*
X2315Y598D01*
X0Y597D02*
X7Y597D01*
X26Y597D02*
X32Y597D01*
X40Y597D02*
X50Y597D01*
X2308Y597D02*
X2315Y597D01*
X0Y596D02*
X7Y596D01*
X26Y596D02*
X32Y596D01*
X39Y596D02*
X49Y596D01*
X2308Y596D02*
X2315Y596D01*
X0Y595D02*
X7Y595D01*
X26Y595D02*
X32Y595D01*
X38Y595D02*
X48Y595D01*
X2308Y595D02*
X2315Y595D01*
X0Y594D02*
X7Y594D01*
X26Y594D02*
X32Y594D01*
X37Y594D02*
X47Y594D01*
X2308Y594D02*
X2315Y594D01*
X0Y593D02*
X7Y593D01*
X26Y593D02*
X33Y593D01*
X36Y593D02*
X46Y593D01*
X2308Y593D02*
X2315Y593D01*
X0Y592D02*
X8Y592D01*
X27Y592D02*
X44Y592D01*
X2308Y592D02*
X2315Y592D01*
X0Y591D02*
X9Y591D01*
X27Y591D02*
X43Y591D01*
X2308Y591D02*
X2315Y591D01*
X0Y590D02*
X10Y590D01*
X27Y590D02*
X42Y590D01*
X2308Y590D02*
X2315Y590D01*
X0Y589D02*
X10Y589D01*
X28Y589D02*
X41Y589D01*
X2308Y589D02*
X2315Y589D01*
X0Y588D02*
X10Y588D01*
X29Y588D02*
X40Y588D01*
X2308Y588D02*
X2315Y588D01*
X0Y587D02*
X9Y587D01*
X30Y587D02*
X38Y587D01*
X2308Y587D02*
X2315Y587D01*
X0Y586D02*
X8Y586D01*
X32Y586D02*
X36Y586D01*
X2308Y586D02*
X2315Y586D01*
X0Y585D02*
X7Y585D01*
X2308Y585D02*
X2315Y585D01*
X0Y584D02*
X7Y584D01*
X2308Y584D02*
X2315Y584D01*
X0Y583D02*
X7Y583D01*
X2308Y583D02*
X2315Y583D01*
X0Y582D02*
X7Y582D01*
X2308Y582D02*
X2315Y582D01*
X0Y581D02*
X7Y581D01*
X2308Y581D02*
X2315Y581D01*
X0Y580D02*
X7Y580D01*
X2308Y580D02*
X2315Y580D01*
X0Y579D02*
X7Y579D01*
X2308Y579D02*
X2315Y579D01*
X0Y578D02*
X7Y578D01*
X2308Y578D02*
X2315Y578D01*
X0Y577D02*
X7Y577D01*
X2308Y577D02*
X2315Y577D01*
X0Y576D02*
X7Y576D01*
X2308Y576D02*
X2315Y576D01*
X0Y575D02*
X7Y575D01*
X2308Y575D02*
X2315Y575D01*
X0Y574D02*
X7Y574D01*
X2308Y574D02*
X2315Y574D01*
X0Y573D02*
X7Y573D01*
X2308Y573D02*
X2315Y573D01*
X0Y572D02*
X7Y572D01*
X2308Y572D02*
X2315Y572D01*
X0Y571D02*
X7Y571D01*
X2308Y571D02*
X2315Y571D01*
X0Y570D02*
X7Y570D01*
X2308Y570D02*
X2315Y570D01*
X0Y569D02*
X7Y569D01*
X2308Y569D02*
X2315Y569D01*
X0Y568D02*
X7Y568D01*
X2308Y568D02*
X2315Y568D01*
X0Y567D02*
X7Y567D01*
X2308Y567D02*
X2315Y567D01*
X0Y566D02*
X7Y566D01*
X2308Y566D02*
X2315Y566D01*
X0Y565D02*
X7Y565D01*
X2308Y565D02*
X2315Y565D01*
X0Y564D02*
X7Y564D01*
X2308Y564D02*
X2315Y564D01*
X0Y563D02*
X7Y563D01*
X2308Y563D02*
X2315Y563D01*
X0Y562D02*
X7Y562D01*
X2308Y562D02*
X2315Y562D01*
X0Y561D02*
X7Y561D01*
X2308Y561D02*
X2315Y561D01*
X0Y560D02*
X7Y560D01*
X2308Y560D02*
X2315Y560D01*
X0Y559D02*
X7Y559D01*
X2308Y559D02*
X2315Y559D01*
X0Y558D02*
X7Y558D01*
X2308Y558D02*
X2315Y558D01*
X0Y557D02*
X7Y557D01*
X2308Y557D02*
X2315Y557D01*
X0Y556D02*
X7Y556D01*
X2308Y556D02*
X2315Y556D01*
X0Y555D02*
X7Y555D01*
X2308Y555D02*
X2315Y555D01*
X0Y554D02*
X7Y554D01*
X2308Y554D02*
X2315Y554D01*
X0Y553D02*
X7Y553D01*
X2308Y553D02*
X2315Y553D01*
X0Y552D02*
X7Y552D01*
X2308Y552D02*
X2315Y552D01*
X0Y551D02*
X7Y551D01*
X2308Y551D02*
X2315Y551D01*
X0Y550D02*
X7Y550D01*
X2308Y550D02*
X2315Y550D01*
X0Y549D02*
X7Y549D01*
X2308Y549D02*
X2315Y549D01*
X0Y548D02*
X7Y548D01*
X2308Y548D02*
X2315Y548D01*
X0Y547D02*
X7Y547D01*
X2308Y547D02*
X2315Y547D01*
X0Y546D02*
X7Y546D01*
X2308Y546D02*
X2315Y546D01*
X0Y545D02*
X7Y545D01*
X2308Y545D02*
X2315Y545D01*
X0Y544D02*
X7Y544D01*
X2308Y544D02*
X2315Y544D01*
X0Y543D02*
X7Y543D01*
X2308Y543D02*
X2315Y543D01*
X0Y542D02*
X7Y542D01*
X2308Y542D02*
X2315Y542D01*
X0Y541D02*
X7Y541D01*
X2308Y541D02*
X2315Y541D01*
X0Y540D02*
X7Y540D01*
X2308Y540D02*
X2315Y540D01*
X0Y539D02*
X7Y539D01*
X2308Y539D02*
X2315Y539D01*
X0Y538D02*
X7Y538D01*
X2308Y538D02*
X2315Y538D01*
X0Y537D02*
X7Y537D01*
X2308Y537D02*
X2315Y537D01*
X0Y536D02*
X7Y536D01*
X2308Y536D02*
X2315Y536D01*
X0Y535D02*
X7Y535D01*
X2308Y535D02*
X2315Y535D01*
X0Y534D02*
X7Y534D01*
X2308Y534D02*
X2315Y534D01*
X0Y533D02*
X7Y533D01*
X2308Y533D02*
X2315Y533D01*
X0Y532D02*
X7Y532D01*
X2308Y532D02*
X2315Y532D01*
X0Y531D02*
X7Y531D01*
X2308Y531D02*
X2315Y531D01*
X0Y530D02*
X7Y530D01*
X2308Y530D02*
X2315Y530D01*
X0Y529D02*
X7Y529D01*
X2308Y529D02*
X2315Y529D01*
X0Y528D02*
X7Y528D01*
X2308Y528D02*
X2315Y528D01*
X0Y527D02*
X7Y527D01*
X2308Y527D02*
X2315Y527D01*
X0Y526D02*
X7Y526D01*
X2308Y526D02*
X2315Y526D01*
X0Y525D02*
X7Y525D01*
X2308Y525D02*
X2315Y525D01*
X0Y524D02*
X7Y524D01*
X2308Y524D02*
X2315Y524D01*
X0Y523D02*
X7Y523D01*
X2308Y523D02*
X2315Y523D01*
X0Y522D02*
X7Y522D01*
X2308Y522D02*
X2315Y522D01*
X0Y521D02*
X7Y521D01*
X2308Y521D02*
X2315Y521D01*
X0Y520D02*
X7Y520D01*
X2308Y520D02*
X2315Y520D01*
X0Y519D02*
X7Y519D01*
X1621Y519D02*
X1633Y519D01*
X2308Y519D02*
X2315Y519D01*
X0Y518D02*
X7Y518D01*
X1619Y518D02*
X1635Y518D01*
X2308Y518D02*
X2315Y518D01*
X0Y517D02*
X7Y517D01*
X1618Y517D02*
X1638Y517D01*
X2308Y517D02*
X2315Y517D01*
X0Y516D02*
X7Y516D01*
X1618Y516D02*
X1640Y516D01*
X2308Y516D02*
X2315Y516D01*
X0Y515D02*
X7Y515D01*
X1618Y515D02*
X1643Y515D01*
X2308Y515D02*
X2315Y515D01*
X0Y514D02*
X7Y514D01*
X1618Y514D02*
X1646Y514D01*
X2308Y514D02*
X2315Y514D01*
X0Y513D02*
X7Y513D01*
X1619Y513D02*
X1648Y513D01*
X2308Y513D02*
X2315Y513D01*
X0Y512D02*
X7Y512D01*
X1632Y512D02*
X1651Y512D01*
X2308Y512D02*
X2315Y512D01*
X0Y511D02*
X7Y511D01*
X1635Y511D02*
X1653Y511D01*
X2308Y511D02*
X2315Y511D01*
X0Y510D02*
X7Y510D01*
X1637Y510D02*
X1656Y510D01*
X2308Y510D02*
X2315Y510D01*
X0Y509D02*
X7Y509D01*
X1640Y509D02*
X1658Y509D01*
X2308Y509D02*
X2315Y509D01*
X0Y508D02*
X7Y508D01*
X1643Y508D02*
X1661Y508D01*
X2308Y508D02*
X2315Y508D01*
X0Y507D02*
X7Y507D01*
X1645Y507D02*
X1663Y507D01*
X2308Y507D02*
X2315Y507D01*
X0Y506D02*
X7Y506D01*
X1648Y506D02*
X1666Y506D01*
X2308Y506D02*
X2315Y506D01*
X0Y505D02*
X7Y505D01*
X1650Y505D02*
X1669Y505D01*
X2308Y505D02*
X2315Y505D01*
X0Y504D02*
X7Y504D01*
X1653Y504D02*
X1670Y504D01*
X2308Y504D02*
X2315Y504D01*
X0Y503D02*
X7Y503D01*
X1655Y503D02*
X1670Y503D01*
X2308Y503D02*
X2315Y503D01*
X0Y502D02*
X7Y502D01*
X1658Y502D02*
X1671Y502D01*
X2308Y502D02*
X2315Y502D01*
X0Y501D02*
X7Y501D01*
X1656Y501D02*
X1671Y501D01*
X2308Y501D02*
X2315Y501D01*
X0Y500D02*
X7Y500D01*
X1654Y500D02*
X1670Y500D01*
X2308Y500D02*
X2315Y500D01*
X0Y499D02*
X7Y499D01*
X1651Y499D02*
X1669Y499D01*
X2308Y499D02*
X2315Y499D01*
X0Y498D02*
X7Y498D01*
X1649Y498D02*
X1667Y498D01*
X2308Y498D02*
X2315Y498D01*
X0Y497D02*
X7Y497D01*
X1646Y497D02*
X1665Y497D01*
X2308Y497D02*
X2315Y497D01*
X0Y496D02*
X7Y496D01*
X1644Y496D02*
X1662Y496D01*
X2308Y496D02*
X2315Y496D01*
X0Y495D02*
X7Y495D01*
X1641Y495D02*
X1660Y495D01*
X2308Y495D02*
X2315Y495D01*
X0Y494D02*
X7Y494D01*
X1639Y494D02*
X1657Y494D01*
X2308Y494D02*
X2315Y494D01*
X0Y493D02*
X7Y493D01*
X1636Y493D02*
X1654Y493D01*
X2308Y493D02*
X2315Y493D01*
X0Y492D02*
X7Y492D01*
X1633Y492D02*
X1652Y492D01*
X2308Y492D02*
X2315Y492D01*
X0Y491D02*
X7Y491D01*
X1619Y491D02*
X1649Y491D01*
X2308Y491D02*
X2315Y491D01*
X0Y490D02*
X7Y490D01*
X1618Y490D02*
X1647Y490D01*
X2308Y490D02*
X2315Y490D01*
X0Y489D02*
X7Y489D01*
X1618Y489D02*
X1644Y489D01*
X2308Y489D02*
X2315Y489D01*
X0Y488D02*
X7Y488D01*
X1618Y488D02*
X1642Y488D01*
X2308Y488D02*
X2315Y488D01*
X0Y487D02*
X7Y487D01*
X1618Y487D02*
X1639Y487D01*
X2308Y487D02*
X2315Y487D01*
X0Y486D02*
X7Y486D01*
X1618Y486D02*
X1636Y486D01*
X2308Y486D02*
X2315Y486D01*
X0Y485D02*
X7Y485D01*
X1619Y485D02*
X1634Y485D01*
X2308Y485D02*
X2315Y485D01*
X0Y484D02*
X7Y484D01*
X2308Y484D02*
X2315Y484D01*
X0Y483D02*
X7Y483D01*
X2308Y483D02*
X2315Y483D01*
X0Y482D02*
X7Y482D01*
X2308Y482D02*
X2315Y482D01*
X0Y481D02*
X7Y481D01*
X2308Y481D02*
X2315Y481D01*
X0Y480D02*
X7Y480D01*
X2308Y480D02*
X2315Y480D01*
X0Y479D02*
X7Y479D01*
X2308Y479D02*
X2315Y479D01*
X0Y478D02*
X7Y478D01*
X2308Y478D02*
X2315Y478D01*
X0Y477D02*
X7Y477D01*
X2308Y477D02*
X2315Y477D01*
X0Y476D02*
X7Y476D01*
X2308Y476D02*
X2315Y476D01*
X0Y475D02*
X7Y475D01*
X2308Y475D02*
X2315Y475D01*
X0Y474D02*
X7Y474D01*
X2308Y474D02*
X2315Y474D01*
X0Y473D02*
X7Y473D01*
X2308Y473D02*
X2315Y473D01*
X0Y472D02*
X7Y472D01*
X2308Y472D02*
X2315Y472D01*
X0Y471D02*
X7Y471D01*
X2308Y471D02*
X2315Y471D01*
X0Y470D02*
X7Y470D01*
X2308Y470D02*
X2315Y470D01*
X0Y469D02*
X7Y469D01*
X1647Y469D02*
X1665Y469D01*
X2308Y469D02*
X2315Y469D01*
X0Y468D02*
X7Y468D01*
X1619Y468D02*
X1622Y468D01*
X1644Y468D02*
X1667Y468D01*
X2308Y468D02*
X2315Y468D01*
X0Y467D02*
X7Y467D01*
X1618Y467D02*
X1623Y467D01*
X1643Y467D02*
X1669Y467D01*
X2308Y467D02*
X2315Y467D01*
X0Y466D02*
X7Y466D01*
X1618Y466D02*
X1623Y466D01*
X1642Y466D02*
X1669Y466D01*
X2308Y466D02*
X2315Y466D01*
X0Y465D02*
X7Y465D01*
X1618Y465D02*
X1624Y465D01*
X1642Y465D02*
X1670Y465D01*
X2308Y465D02*
X2315Y465D01*
X0Y464D02*
X7Y464D01*
X1618Y464D02*
X1624Y464D01*
X1641Y464D02*
X1670Y464D01*
X2308Y464D02*
X2315Y464D01*
X0Y463D02*
X7Y463D01*
X1618Y463D02*
X1624Y463D01*
X1641Y463D02*
X1671Y463D01*
X2308Y463D02*
X2315Y463D01*
X0Y462D02*
X7Y462D01*
X1618Y462D02*
X1624Y462D01*
X1641Y462D02*
X1647Y462D01*
X1664Y462D02*
X1671Y462D01*
X2308Y462D02*
X2315Y462D01*
X0Y461D02*
X7Y461D01*
X1618Y461D02*
X1624Y461D01*
X1641Y461D02*
X1647Y461D01*
X1665Y461D02*
X1671Y461D01*
X2308Y461D02*
X2315Y461D01*
X0Y460D02*
X7Y460D01*
X1618Y460D02*
X1624Y460D01*
X1641Y460D02*
X1647Y460D01*
X1665Y460D02*
X1671Y460D01*
X2308Y460D02*
X2315Y460D01*
X0Y459D02*
X7Y459D01*
X1618Y459D02*
X1624Y459D01*
X1641Y459D02*
X1647Y459D01*
X1665Y459D02*
X1671Y459D01*
X2308Y459D02*
X2315Y459D01*
X0Y458D02*
X7Y458D01*
X1618Y458D02*
X1624Y458D01*
X1641Y458D02*
X1647Y458D01*
X1665Y458D02*
X1671Y458D01*
X2308Y458D02*
X2315Y458D01*
X0Y457D02*
X7Y457D01*
X1618Y457D02*
X1624Y457D01*
X1641Y457D02*
X1647Y457D01*
X1665Y457D02*
X1671Y457D01*
X2308Y457D02*
X2315Y457D01*
X0Y456D02*
X7Y456D01*
X1618Y456D02*
X1624Y456D01*
X1641Y456D02*
X1647Y456D01*
X1665Y456D02*
X1671Y456D01*
X2308Y456D02*
X2315Y456D01*
X0Y455D02*
X7Y455D01*
X1618Y455D02*
X1624Y455D01*
X1641Y455D02*
X1647Y455D01*
X1665Y455D02*
X1671Y455D01*
X2308Y455D02*
X2315Y455D01*
X0Y454D02*
X7Y454D01*
X1618Y454D02*
X1624Y454D01*
X1641Y454D02*
X1647Y454D01*
X1665Y454D02*
X1671Y454D01*
X2308Y454D02*
X2315Y454D01*
X0Y453D02*
X7Y453D01*
X1618Y453D02*
X1624Y453D01*
X1641Y453D02*
X1647Y453D01*
X1665Y453D02*
X1671Y453D01*
X2308Y453D02*
X2315Y453D01*
X0Y452D02*
X7Y452D01*
X1618Y452D02*
X1624Y452D01*
X1641Y452D02*
X1647Y452D01*
X1665Y452D02*
X1671Y452D01*
X2308Y452D02*
X2315Y452D01*
X0Y451D02*
X7Y451D01*
X1618Y451D02*
X1624Y451D01*
X1641Y451D02*
X1647Y451D01*
X1665Y451D02*
X1671Y451D01*
X2308Y451D02*
X2315Y451D01*
X0Y450D02*
X7Y450D01*
X1618Y450D02*
X1624Y450D01*
X1641Y450D02*
X1647Y450D01*
X1665Y450D02*
X1671Y450D01*
X2308Y450D02*
X2315Y450D01*
X0Y449D02*
X7Y449D01*
X1618Y449D02*
X1624Y449D01*
X1641Y449D02*
X1647Y449D01*
X1665Y449D02*
X1671Y449D01*
X2308Y449D02*
X2315Y449D01*
X0Y448D02*
X7Y448D01*
X1618Y448D02*
X1647Y448D01*
X1665Y448D02*
X1671Y448D01*
X2308Y448D02*
X2315Y448D01*
X0Y447D02*
X7Y447D01*
X1618Y447D02*
X1647Y447D01*
X1665Y447D02*
X1671Y447D01*
X2308Y447D02*
X2315Y447D01*
X0Y446D02*
X7Y446D01*
X1618Y446D02*
X1647Y446D01*
X1665Y446D02*
X1671Y446D01*
X2308Y446D02*
X2315Y446D01*
X0Y445D02*
X7Y445D01*
X1618Y445D02*
X1647Y445D01*
X1664Y445D02*
X1671Y445D01*
X2308Y445D02*
X2315Y445D01*
X0Y444D02*
X7Y444D01*
X1618Y444D02*
X1647Y444D01*
X1664Y444D02*
X1670Y444D01*
X2308Y444D02*
X2315Y444D01*
X0Y443D02*
X7Y443D01*
X1618Y443D02*
X1647Y443D01*
X1664Y443D02*
X1670Y443D01*
X2308Y443D02*
X2315Y443D01*
X0Y442D02*
X7Y442D01*
X1618Y442D02*
X1647Y442D01*
X1663Y442D02*
X1670Y442D01*
X2308Y442D02*
X2315Y442D01*
X0Y441D02*
X7Y441D01*
X1663Y441D02*
X1670Y441D01*
X2308Y441D02*
X2315Y441D01*
X0Y440D02*
X7Y440D01*
X1662Y440D02*
X1669Y440D01*
X2308Y440D02*
X2315Y440D01*
X0Y439D02*
X7Y439D01*
X1662Y439D02*
X1669Y439D01*
X2308Y439D02*
X2315Y439D01*
X0Y438D02*
X7Y438D01*
X1662Y438D02*
X1668Y438D01*
X2308Y438D02*
X2315Y438D01*
X0Y437D02*
X7Y437D01*
X1662Y437D02*
X1668Y437D01*
X2308Y437D02*
X2315Y437D01*
X0Y436D02*
X7Y436D01*
X1662Y436D02*
X1667Y436D01*
X2308Y436D02*
X2315Y436D01*
X0Y435D02*
X7Y435D01*
X1664Y435D02*
X1666Y435D01*
X2308Y435D02*
X2315Y435D01*
X0Y434D02*
X7Y434D01*
X2308Y434D02*
X2315Y434D01*
X0Y433D02*
X7Y433D01*
X2308Y433D02*
X2315Y433D01*
X0Y432D02*
X7Y432D01*
X2308Y432D02*
X2315Y432D01*
X0Y431D02*
X7Y431D01*
X2308Y431D02*
X2315Y431D01*
X0Y430D02*
X7Y430D01*
X2308Y430D02*
X2315Y430D01*
X0Y429D02*
X7Y429D01*
X2308Y429D02*
X2315Y429D01*
X0Y428D02*
X7Y428D01*
X2308Y428D02*
X2315Y428D01*
X0Y427D02*
X7Y427D01*
X2308Y427D02*
X2315Y427D01*
X0Y426D02*
X7Y426D01*
X2308Y426D02*
X2315Y426D01*
X0Y425D02*
X7Y425D01*
X2308Y425D02*
X2315Y425D01*
X0Y424D02*
X7Y424D01*
X2308Y424D02*
X2315Y424D01*
X0Y423D02*
X7Y423D01*
X2308Y423D02*
X2315Y423D01*
X0Y422D02*
X7Y422D01*
X2308Y422D02*
X2315Y422D01*
X0Y421D02*
X7Y421D01*
X2308Y421D02*
X2315Y421D01*
X0Y420D02*
X7Y420D01*
X2308Y420D02*
X2315Y420D01*
X0Y419D02*
X7Y419D01*
X2308Y419D02*
X2315Y419D01*
X0Y418D02*
X7Y418D01*
X2308Y418D02*
X2315Y418D01*
X0Y417D02*
X7Y417D01*
X2308Y417D02*
X2315Y417D01*
X0Y416D02*
X7Y416D01*
X2308Y416D02*
X2315Y416D01*
X0Y415D02*
X7Y415D01*
X768Y415D02*
X769Y415D01*
X798Y415D02*
X823Y415D01*
X2308Y415D02*
X2315Y415D01*
X0Y414D02*
X7Y414D01*
X766Y414D02*
X771Y414D01*
X798Y414D02*
X824Y414D01*
X2308Y414D02*
X2315Y414D01*
X0Y413D02*
X7Y413D01*
X766Y413D02*
X771Y413D01*
X798Y413D02*
X825Y413D01*
X2308Y413D02*
X2315Y413D01*
X0Y412D02*
X7Y412D01*
X766Y412D02*
X772Y412D01*
X798Y412D02*
X825Y412D01*
X2308Y412D02*
X2315Y412D01*
X0Y411D02*
X7Y411D01*
X766Y411D02*
X772Y411D01*
X798Y411D02*
X825Y411D01*
X2308Y411D02*
X2315Y411D01*
X0Y410D02*
X7Y410D01*
X766Y410D02*
X772Y410D01*
X798Y410D02*
X824Y410D01*
X2308Y410D02*
X2315Y410D01*
X0Y409D02*
X7Y409D01*
X766Y409D02*
X772Y409D01*
X798Y409D02*
X823Y409D01*
X2308Y409D02*
X2315Y409D01*
X0Y408D02*
X7Y408D01*
X766Y408D02*
X772Y408D01*
X798Y408D02*
X804Y408D01*
X2308Y408D02*
X2315Y408D01*
X0Y407D02*
X7Y407D01*
X766Y407D02*
X772Y407D01*
X798Y407D02*
X804Y407D01*
X2308Y407D02*
X2315Y407D01*
X0Y406D02*
X7Y406D01*
X766Y406D02*
X772Y406D01*
X798Y406D02*
X804Y406D01*
X2308Y406D02*
X2315Y406D01*
X0Y405D02*
X7Y405D01*
X766Y405D02*
X772Y405D01*
X798Y405D02*
X804Y405D01*
X2308Y405D02*
X2315Y405D01*
X0Y404D02*
X7Y404D01*
X766Y404D02*
X772Y404D01*
X798Y404D02*
X804Y404D01*
X2308Y404D02*
X2315Y404D01*
X0Y403D02*
X7Y403D01*
X766Y403D02*
X772Y403D01*
X798Y403D02*
X804Y403D01*
X2308Y403D02*
X2315Y403D01*
X0Y402D02*
X7Y402D01*
X766Y402D02*
X772Y402D01*
X798Y402D02*
X804Y402D01*
X2308Y402D02*
X2315Y402D01*
X0Y401D02*
X7Y401D01*
X766Y401D02*
X772Y401D01*
X798Y401D02*
X804Y401D01*
X2308Y401D02*
X2315Y401D01*
X0Y400D02*
X7Y400D01*
X766Y400D02*
X772Y400D01*
X798Y400D02*
X804Y400D01*
X2308Y400D02*
X2315Y400D01*
X0Y399D02*
X7Y399D01*
X766Y399D02*
X772Y399D01*
X798Y399D02*
X804Y399D01*
X2308Y399D02*
X2315Y399D01*
X0Y398D02*
X7Y398D01*
X766Y398D02*
X772Y398D01*
X798Y398D02*
X804Y398D01*
X2308Y398D02*
X2315Y398D01*
X0Y397D02*
X7Y397D01*
X766Y397D02*
X772Y397D01*
X798Y397D02*
X804Y397D01*
X2308Y397D02*
X2315Y397D01*
X0Y396D02*
X7Y396D01*
X766Y396D02*
X772Y396D01*
X798Y396D02*
X804Y396D01*
X2308Y396D02*
X2315Y396D01*
X0Y395D02*
X7Y395D01*
X766Y395D02*
X772Y395D01*
X798Y395D02*
X804Y395D01*
X2308Y395D02*
X2315Y395D01*
X0Y394D02*
X7Y394D01*
X766Y394D02*
X772Y394D01*
X798Y394D02*
X804Y394D01*
X2308Y394D02*
X2315Y394D01*
X0Y393D02*
X7Y393D01*
X766Y393D02*
X772Y393D01*
X798Y393D02*
X804Y393D01*
X2308Y393D02*
X2315Y393D01*
X0Y392D02*
X7Y392D01*
X766Y392D02*
X772Y392D01*
X798Y392D02*
X805Y392D01*
X2308Y392D02*
X2315Y392D01*
X0Y391D02*
X7Y391D01*
X766Y391D02*
X772Y391D01*
X798Y391D02*
X821Y391D01*
X2308Y391D02*
X2315Y391D01*
X0Y390D02*
X7Y390D01*
X766Y390D02*
X772Y390D01*
X798Y390D02*
X823Y390D01*
X2308Y390D02*
X2315Y390D01*
X0Y389D02*
X7Y389D01*
X766Y389D02*
X772Y389D01*
X798Y389D02*
X823Y389D01*
X2308Y389D02*
X2315Y389D01*
X0Y388D02*
X7Y388D01*
X766Y388D02*
X772Y388D01*
X798Y388D02*
X824Y388D01*
X2308Y388D02*
X2315Y388D01*
X0Y387D02*
X7Y387D01*
X766Y387D02*
X772Y387D01*
X798Y387D02*
X825Y387D01*
X2308Y387D02*
X2315Y387D01*
X0Y386D02*
X7Y386D01*
X766Y386D02*
X772Y386D01*
X798Y386D02*
X825Y386D01*
X2308Y386D02*
X2315Y386D01*
X0Y385D02*
X7Y385D01*
X746Y385D02*
X750Y385D01*
X766Y385D02*
X772Y385D01*
X799Y385D02*
X825Y385D01*
X2308Y385D02*
X2315Y385D01*
X0Y384D02*
X7Y384D01*
X745Y384D02*
X750Y384D01*
X766Y384D02*
X772Y384D01*
X819Y384D02*
X825Y384D01*
X2308Y384D02*
X2315Y384D01*
X0Y383D02*
X7Y383D01*
X745Y383D02*
X751Y383D01*
X766Y383D02*
X772Y383D01*
X819Y383D02*
X825Y383D01*
X2308Y383D02*
X2315Y383D01*
X0Y382D02*
X7Y382D01*
X745Y382D02*
X751Y382D01*
X766Y382D02*
X772Y382D01*
X819Y382D02*
X825Y382D01*
X2308Y382D02*
X2315Y382D01*
X0Y381D02*
X7Y381D01*
X745Y381D02*
X751Y381D01*
X766Y381D02*
X772Y381D01*
X819Y381D02*
X825Y381D01*
X2308Y381D02*
X2315Y381D01*
X0Y380D02*
X7Y380D01*
X745Y380D02*
X751Y380D01*
X766Y380D02*
X772Y380D01*
X819Y380D02*
X825Y380D01*
X2308Y380D02*
X2315Y380D01*
X0Y379D02*
X7Y379D01*
X745Y379D02*
X751Y379D01*
X766Y379D02*
X772Y379D01*
X819Y379D02*
X825Y379D01*
X2308Y379D02*
X2315Y379D01*
X0Y378D02*
X7Y378D01*
X745Y378D02*
X751Y378D01*
X766Y378D02*
X772Y378D01*
X819Y378D02*
X825Y378D01*
X2308Y378D02*
X2315Y378D01*
X0Y377D02*
X7Y377D01*
X745Y377D02*
X751Y377D01*
X766Y377D02*
X772Y377D01*
X819Y377D02*
X825Y377D01*
X2308Y377D02*
X2315Y377D01*
X0Y376D02*
X7Y376D01*
X745Y376D02*
X751Y376D01*
X766Y376D02*
X772Y376D01*
X819Y376D02*
X825Y376D01*
X2308Y376D02*
X2315Y376D01*
X0Y375D02*
X7Y375D01*
X745Y375D02*
X751Y375D01*
X766Y375D02*
X772Y375D01*
X819Y375D02*
X825Y375D01*
X2308Y375D02*
X2315Y375D01*
X0Y374D02*
X7Y374D01*
X745Y374D02*
X751Y374D01*
X766Y374D02*
X772Y374D01*
X819Y374D02*
X825Y374D01*
X2308Y374D02*
X2315Y374D01*
X0Y373D02*
X7Y373D01*
X745Y373D02*
X751Y373D01*
X766Y373D02*
X772Y373D01*
X819Y373D02*
X825Y373D01*
X2308Y373D02*
X2315Y373D01*
X0Y372D02*
X7Y372D01*
X745Y372D02*
X751Y372D01*
X766Y372D02*
X772Y372D01*
X819Y372D02*
X825Y372D01*
X2308Y372D02*
X2315Y372D01*
X0Y371D02*
X7Y371D01*
X745Y371D02*
X751Y371D01*
X765Y371D02*
X771Y371D01*
X794Y371D02*
X795Y371D01*
X819Y371D02*
X825Y371D01*
X2308Y371D02*
X2315Y371D01*
X0Y370D02*
X7Y370D01*
X745Y370D02*
X751Y370D01*
X765Y370D02*
X771Y370D01*
X792Y370D02*
X797Y370D01*
X819Y370D02*
X825Y370D01*
X2308Y370D02*
X2315Y370D01*
X0Y369D02*
X7Y369D01*
X745Y369D02*
X752Y369D01*
X764Y369D02*
X771Y369D01*
X792Y369D02*
X800Y369D01*
X819Y369D02*
X825Y369D01*
X1618Y369D02*
X1627Y369D01*
X2308Y369D02*
X2315Y369D01*
X0Y368D02*
X7Y368D01*
X746Y368D02*
X771Y368D01*
X791Y368D02*
X825Y368D01*
X1618Y368D02*
X1628Y368D01*
X2308Y368D02*
X2315Y368D01*
X0Y367D02*
X7Y367D01*
X746Y367D02*
X770Y367D01*
X792Y367D02*
X825Y367D01*
X1618Y367D02*
X1629Y367D01*
X2308Y367D02*
X2315Y367D01*
X0Y366D02*
X7Y366D01*
X747Y366D02*
X770Y366D01*
X792Y366D02*
X825Y366D01*
X1618Y366D02*
X1629Y366D01*
X2308Y366D02*
X2315Y366D01*
X0Y365D02*
X7Y365D01*
X747Y365D02*
X769Y365D01*
X793Y365D02*
X824Y365D01*
X1618Y365D02*
X1629Y365D01*
X2308Y365D02*
X2315Y365D01*
X0Y364D02*
X7Y364D01*
X748Y364D02*
X768Y364D01*
X794Y364D02*
X823Y364D01*
X1618Y364D02*
X1629Y364D01*
X2308Y364D02*
X2315Y364D01*
X0Y363D02*
X7Y363D01*
X750Y363D02*
X767Y363D01*
X797Y363D02*
X823Y363D01*
X1618Y363D02*
X1628Y363D01*
X2308Y363D02*
X2315Y363D01*
X0Y362D02*
X7Y362D01*
X751Y362D02*
X765Y362D01*
X799Y362D02*
X821Y362D01*
X1618Y362D02*
X1624Y362D01*
X2308Y362D02*
X2315Y362D01*
X0Y361D02*
X7Y361D01*
X1618Y361D02*
X1624Y361D01*
X2308Y361D02*
X2315Y361D01*
X0Y360D02*
X7Y360D01*
X1618Y360D02*
X1624Y360D01*
X2308Y360D02*
X2315Y360D01*
X0Y359D02*
X7Y359D01*
X1618Y359D02*
X1624Y359D01*
X2308Y359D02*
X2315Y359D01*
X0Y358D02*
X7Y358D01*
X1618Y358D02*
X1624Y358D01*
X2308Y358D02*
X2315Y358D01*
X0Y357D02*
X7Y357D01*
X1618Y357D02*
X1624Y357D01*
X2308Y357D02*
X2315Y357D01*
X0Y356D02*
X7Y356D01*
X1618Y356D02*
X1624Y356D01*
X2308Y356D02*
X2315Y356D01*
X0Y355D02*
X7Y355D01*
X1618Y355D02*
X1668Y355D01*
X2308Y355D02*
X2315Y355D01*
X0Y354D02*
X7Y354D01*
X1618Y354D02*
X1670Y354D01*
X2308Y354D02*
X2315Y354D01*
X0Y353D02*
X7Y353D01*
X1618Y353D02*
X1670Y353D01*
X2308Y353D02*
X2315Y353D01*
X0Y352D02*
X7Y352D01*
X1618Y352D02*
X1671Y352D01*
X2308Y352D02*
X2315Y352D01*
X0Y351D02*
X7Y351D01*
X1618Y351D02*
X1671Y351D01*
X2308Y351D02*
X2315Y351D01*
X0Y350D02*
X7Y350D01*
X1618Y350D02*
X1670Y350D01*
X2308Y350D02*
X2315Y350D01*
X0Y349D02*
X7Y349D01*
X1618Y349D02*
X1669Y349D01*
X2308Y349D02*
X2315Y349D01*
X0Y348D02*
X7Y348D01*
X1618Y348D02*
X1624Y348D01*
X2308Y348D02*
X2315Y348D01*
X0Y347D02*
X7Y347D01*
X1618Y347D02*
X1624Y347D01*
X2308Y347D02*
X2315Y347D01*
X0Y346D02*
X7Y346D01*
X1618Y346D02*
X1624Y346D01*
X2308Y346D02*
X2315Y346D01*
X0Y345D02*
X7Y345D01*
X1618Y345D02*
X1624Y345D01*
X2308Y345D02*
X2315Y345D01*
X0Y344D02*
X7Y344D01*
X1618Y344D02*
X1624Y344D01*
X2308Y344D02*
X2315Y344D01*
X0Y343D02*
X7Y343D01*
X1618Y343D02*
X1624Y343D01*
X2308Y343D02*
X2315Y343D01*
X0Y342D02*
X7Y342D01*
X1618Y342D02*
X1624Y342D01*
X2308Y342D02*
X2315Y342D01*
X0Y341D02*
X7Y341D01*
X1618Y341D02*
X1628Y341D01*
X2308Y341D02*
X2315Y341D01*
X0Y340D02*
X7Y340D01*
X1618Y340D02*
X1629Y340D01*
X2308Y340D02*
X2315Y340D01*
X0Y339D02*
X7Y339D01*
X1618Y339D02*
X1629Y339D01*
X2308Y339D02*
X2315Y339D01*
X0Y338D02*
X7Y338D01*
X1618Y338D02*
X1629Y338D01*
X2308Y338D02*
X2315Y338D01*
X0Y337D02*
X7Y337D01*
X1618Y337D02*
X1629Y337D01*
X2308Y337D02*
X2315Y337D01*
X0Y336D02*
X7Y336D01*
X1618Y336D02*
X1629Y336D01*
X2308Y336D02*
X2315Y336D01*
X0Y335D02*
X7Y335D01*
X1618Y335D02*
X1628Y335D01*
X2308Y335D02*
X2315Y335D01*
X0Y334D02*
X7Y334D01*
X2308Y334D02*
X2315Y334D01*
X0Y333D02*
X7Y333D01*
X2308Y333D02*
X2315Y333D01*
X0Y332D02*
X7Y332D01*
X2308Y332D02*
X2315Y332D01*
X0Y331D02*
X7Y331D01*
X2308Y331D02*
X2315Y331D01*
X0Y330D02*
X7Y330D01*
X2308Y330D02*
X2315Y330D01*
X0Y329D02*
X7Y329D01*
X2308Y329D02*
X2315Y329D01*
X0Y328D02*
X7Y328D01*
X2308Y328D02*
X2315Y328D01*
X0Y327D02*
X7Y327D01*
X2308Y327D02*
X2315Y327D01*
X0Y326D02*
X7Y326D01*
X2308Y326D02*
X2315Y326D01*
X0Y325D02*
X7Y325D01*
X2308Y325D02*
X2315Y325D01*
X0Y324D02*
X7Y324D01*
X2308Y324D02*
X2315Y324D01*
X0Y323D02*
X7Y323D01*
X2308Y323D02*
X2315Y323D01*
X0Y322D02*
X7Y322D01*
X2308Y322D02*
X2315Y322D01*
X0Y321D02*
X7Y321D01*
X2308Y321D02*
X2315Y321D01*
X0Y320D02*
X7Y320D01*
X2308Y320D02*
X2315Y320D01*
X0Y319D02*
X7Y319D01*
X1620Y319D02*
X1662Y319D01*
X2308Y319D02*
X2315Y319D01*
X0Y318D02*
X7Y318D01*
X1619Y318D02*
X1665Y318D01*
X2308Y318D02*
X2315Y318D01*
X0Y317D02*
X7Y317D01*
X1618Y317D02*
X1666Y317D01*
X2308Y317D02*
X2315Y317D01*
X0Y316D02*
X7Y316D01*
X1618Y316D02*
X1668Y316D01*
X2308Y316D02*
X2315Y316D01*
X0Y315D02*
X7Y315D01*
X1618Y315D02*
X1668Y315D01*
X2308Y315D02*
X2315Y315D01*
X0Y314D02*
X7Y314D01*
X1618Y314D02*
X1669Y314D01*
X2308Y314D02*
X2315Y314D01*
X0Y313D02*
X7Y313D01*
X1619Y313D02*
X1670Y313D01*
X2308Y313D02*
X2315Y313D01*
X0Y312D02*
X7Y312D01*
X1662Y312D02*
X1670Y312D01*
X2308Y312D02*
X2315Y312D01*
X0Y311D02*
X7Y311D01*
X1664Y311D02*
X1670Y311D01*
X2308Y311D02*
X2315Y311D01*
X0Y310D02*
X7Y310D01*
X1664Y310D02*
X1671Y310D01*
X2308Y310D02*
X2315Y310D01*
X0Y309D02*
X7Y309D01*
X1665Y309D02*
X1671Y309D01*
X2308Y309D02*
X2315Y309D01*
X0Y308D02*
X7Y308D01*
X1665Y308D02*
X1671Y308D01*
X2308Y308D02*
X2315Y308D01*
X0Y307D02*
X7Y307D01*
X1665Y307D02*
X1671Y307D01*
X2308Y307D02*
X2315Y307D01*
X0Y306D02*
X7Y306D01*
X1665Y306D02*
X1671Y306D01*
X2308Y306D02*
X2315Y306D01*
X0Y305D02*
X7Y305D01*
X1665Y305D02*
X1671Y305D01*
X2308Y305D02*
X2315Y305D01*
X0Y304D02*
X7Y304D01*
X1665Y304D02*
X1671Y304D01*
X2308Y304D02*
X2315Y304D01*
X0Y303D02*
X7Y303D01*
X1665Y303D02*
X1671Y303D01*
X2308Y303D02*
X2315Y303D01*
X0Y302D02*
X7Y302D01*
X1665Y302D02*
X1671Y302D01*
X2308Y302D02*
X2315Y302D01*
X0Y301D02*
X7Y301D01*
X1665Y301D02*
X1671Y301D01*
X2308Y301D02*
X2315Y301D01*
X0Y300D02*
X7Y300D01*
X1665Y300D02*
X1671Y300D01*
X2308Y300D02*
X2315Y300D01*
X0Y299D02*
X7Y299D01*
X1665Y299D02*
X1671Y299D01*
X2308Y299D02*
X2315Y299D01*
X0Y298D02*
X7Y298D01*
X1665Y298D02*
X1671Y298D01*
X2308Y298D02*
X2315Y298D01*
X0Y297D02*
X7Y297D01*
X1665Y297D02*
X1671Y297D01*
X2308Y297D02*
X2315Y297D01*
X0Y296D02*
X7Y296D01*
X1665Y296D02*
X1671Y296D01*
X2308Y296D02*
X2315Y296D01*
X0Y295D02*
X7Y295D01*
X1665Y295D02*
X1671Y295D01*
X2308Y295D02*
X2315Y295D01*
X0Y294D02*
X7Y294D01*
X1664Y294D02*
X1671Y294D01*
X2308Y294D02*
X2315Y294D01*
X0Y293D02*
X7Y293D01*
X1664Y293D02*
X1670Y293D01*
X2308Y293D02*
X2315Y293D01*
X0Y292D02*
X7Y292D01*
X1663Y292D02*
X1670Y292D01*
X2308Y292D02*
X2315Y292D01*
X0Y291D02*
X7Y291D01*
X1619Y291D02*
X1670Y291D01*
X2308Y291D02*
X2315Y291D01*
X0Y290D02*
X7Y290D01*
X1618Y290D02*
X1669Y290D01*
X2308Y290D02*
X2315Y290D01*
X0Y289D02*
X7Y289D01*
X1618Y289D02*
X1669Y289D01*
X2308Y289D02*
X2315Y289D01*
X0Y288D02*
X7Y288D01*
X1618Y288D02*
X1668Y288D01*
X2308Y288D02*
X2315Y288D01*
X0Y287D02*
X7Y287D01*
X1618Y287D02*
X1667Y287D01*
X2308Y287D02*
X2315Y287D01*
X0Y286D02*
X7Y286D01*
X1618Y286D02*
X1665Y286D01*
X2308Y286D02*
X2315Y286D01*
X0Y285D02*
X7Y285D01*
X1619Y285D02*
X1663Y285D01*
X2308Y285D02*
X2315Y285D01*
X0Y284D02*
X7Y284D01*
X2308Y284D02*
X2315Y284D01*
X0Y283D02*
X7Y283D01*
X2308Y283D02*
X2315Y283D01*
X0Y282D02*
X7Y282D01*
X2308Y282D02*
X2315Y282D01*
X0Y281D02*
X7Y281D01*
X2308Y281D02*
X2315Y281D01*
X0Y280D02*
X7Y280D01*
X2308Y280D02*
X2315Y280D01*
X0Y279D02*
X7Y279D01*
X2308Y279D02*
X2315Y279D01*
X0Y278D02*
X7Y278D01*
X2308Y278D02*
X2315Y278D01*
X0Y277D02*
X7Y277D01*
X2308Y277D02*
X2315Y277D01*
X0Y276D02*
X7Y276D01*
X2308Y276D02*
X2315Y276D01*
X0Y275D02*
X7Y275D01*
X2308Y275D02*
X2315Y275D01*
X0Y274D02*
X7Y274D01*
X2308Y274D02*
X2315Y274D01*
X0Y273D02*
X7Y273D01*
X2308Y273D02*
X2315Y273D01*
X0Y272D02*
X7Y272D01*
X2308Y272D02*
X2315Y272D01*
X0Y271D02*
X7Y271D01*
X2308Y271D02*
X2315Y271D01*
X0Y270D02*
X7Y270D01*
X2308Y270D02*
X2315Y270D01*
X0Y269D02*
X7Y269D01*
X1643Y269D02*
X1646Y269D01*
X2308Y269D02*
X2315Y269D01*
X0Y268D02*
X7Y268D01*
X1639Y268D02*
X1649Y268D01*
X2308Y268D02*
X2315Y268D01*
X0Y267D02*
X7Y267D01*
X1637Y267D02*
X1652Y267D01*
X2308Y267D02*
X2315Y267D01*
X0Y266D02*
X7Y266D01*
X1635Y266D02*
X1654Y266D01*
X2308Y266D02*
X2315Y266D01*
X0Y265D02*
X7Y265D01*
X1633Y265D02*
X1656Y265D01*
X2308Y265D02*
X2315Y265D01*
X0Y264D02*
X7Y264D01*
X1631Y264D02*
X1658Y264D01*
X2308Y264D02*
X2315Y264D01*
X0Y263D02*
X7Y263D01*
X1629Y263D02*
X1660Y263D01*
X2308Y263D02*
X2315Y263D01*
X0Y262D02*
X7Y262D01*
X1627Y262D02*
X1642Y262D01*
X1646Y262D02*
X1662Y262D01*
X2308Y262D02*
X2315Y262D01*
X0Y261D02*
X7Y261D01*
X1625Y261D02*
X1639Y261D01*
X1649Y261D02*
X1664Y261D01*
X2308Y261D02*
X2315Y261D01*
X0Y260D02*
X7Y260D01*
X1623Y260D02*
X1637Y260D01*
X1651Y260D02*
X1666Y260D01*
X2308Y260D02*
X2315Y260D01*
X0Y259D02*
X7Y259D01*
X1621Y259D02*
X1635Y259D01*
X1653Y259D02*
X1667Y259D01*
X2308Y259D02*
X2315Y259D01*
X0Y258D02*
X7Y258D01*
X1620Y258D02*
X1633Y258D01*
X1655Y258D02*
X1668Y258D01*
X2308Y258D02*
X2315Y258D01*
X0Y257D02*
X7Y257D01*
X1619Y257D02*
X1631Y257D01*
X1657Y257D02*
X1669Y257D01*
X2308Y257D02*
X2315Y257D01*
X0Y256D02*
X7Y256D01*
X1619Y256D02*
X1629Y256D01*
X1659Y256D02*
X1670Y256D01*
X2308Y256D02*
X2315Y256D01*
X0Y255D02*
X7Y255D01*
X1618Y255D02*
X1627Y255D01*
X1661Y255D02*
X1670Y255D01*
X2308Y255D02*
X2315Y255D01*
X0Y254D02*
X7Y254D01*
X1618Y254D02*
X1625Y254D01*
X1663Y254D02*
X1670Y254D01*
X2308Y254D02*
X2315Y254D01*
X0Y253D02*
X7Y253D01*
X1618Y253D02*
X1624Y253D01*
X1664Y253D02*
X1671Y253D01*
X2308Y253D02*
X2315Y253D01*
X0Y252D02*
X7Y252D01*
X1618Y252D02*
X1624Y252D01*
X1665Y252D02*
X1671Y252D01*
X2308Y252D02*
X2315Y252D01*
X0Y251D02*
X7Y251D01*
X1618Y251D02*
X1624Y251D01*
X1664Y251D02*
X1671Y251D01*
X2308Y251D02*
X2315Y251D01*
X0Y250D02*
X7Y250D01*
X1618Y250D02*
X1625Y250D01*
X1663Y250D02*
X1670Y250D01*
X2308Y250D02*
X2315Y250D01*
X0Y249D02*
X7Y249D01*
X1618Y249D02*
X1627Y249D01*
X1662Y249D02*
X1670Y249D01*
X2308Y249D02*
X2315Y249D01*
X0Y248D02*
X7Y248D01*
X1618Y248D02*
X1629Y248D01*
X1660Y248D02*
X1670Y248D01*
X2308Y248D02*
X2315Y248D01*
X0Y247D02*
X7Y247D01*
X1619Y247D02*
X1631Y247D01*
X1658Y247D02*
X1669Y247D01*
X2308Y247D02*
X2315Y247D01*
X0Y246D02*
X7Y246D01*
X1620Y246D02*
X1633Y246D01*
X1656Y246D02*
X1668Y246D01*
X2308Y246D02*
X2315Y246D01*
X0Y245D02*
X7Y245D01*
X1621Y245D02*
X1635Y245D01*
X1654Y245D02*
X1668Y245D01*
X2308Y245D02*
X2315Y245D01*
X0Y244D02*
X7Y244D01*
X1622Y244D02*
X1637Y244D01*
X1652Y244D02*
X1666Y244D01*
X2308Y244D02*
X2315Y244D01*
X0Y243D02*
X7Y243D01*
X1624Y243D02*
X1639Y243D01*
X1650Y243D02*
X1664Y243D01*
X2308Y243D02*
X2315Y243D01*
X0Y242D02*
X7Y242D01*
X1626Y242D02*
X1641Y242D01*
X1647Y242D02*
X1662Y242D01*
X2308Y242D02*
X2315Y242D01*
X0Y241D02*
X7Y241D01*
X1628Y241D02*
X1660Y241D01*
X2308Y241D02*
X2315Y241D01*
X0Y240D02*
X7Y240D01*
X1630Y240D02*
X1658Y240D01*
X2308Y240D02*
X2315Y240D01*
X0Y239D02*
X7Y239D01*
X1632Y239D02*
X1656Y239D01*
X2308Y239D02*
X2315Y239D01*
X0Y238D02*
X7Y238D01*
X1634Y238D02*
X1654Y238D01*
X2308Y238D02*
X2315Y238D01*
X0Y237D02*
X7Y237D01*
X1636Y237D02*
X1652Y237D01*
X2308Y237D02*
X2315Y237D01*
X0Y236D02*
X7Y236D01*
X1638Y236D02*
X1650Y236D01*
X2308Y236D02*
X2315Y236D01*
X0Y235D02*
X7Y235D01*
X1641Y235D02*
X1647Y235D01*
X2308Y235D02*
X2315Y235D01*
X0Y234D02*
X7Y234D01*
X2308Y234D02*
X2315Y234D01*
X0Y233D02*
X7Y233D01*
X2308Y233D02*
X2315Y233D01*
X0Y232D02*
X7Y232D01*
X2308Y232D02*
X2315Y232D01*
X0Y231D02*
X7Y231D01*
X2308Y231D02*
X2315Y231D01*
X0Y230D02*
X7Y230D01*
X2308Y230D02*
X2315Y230D01*
X0Y229D02*
X7Y229D01*
X2308Y229D02*
X2315Y229D01*
X0Y228D02*
X7Y228D01*
X2308Y228D02*
X2315Y228D01*
X0Y227D02*
X7Y227D01*
X2308Y227D02*
X2315Y227D01*
X0Y226D02*
X7Y226D01*
X2308Y226D02*
X2315Y226D01*
X0Y225D02*
X7Y225D01*
X2308Y225D02*
X2315Y225D01*
X0Y224D02*
X7Y224D01*
X2308Y224D02*
X2315Y224D01*
X0Y223D02*
X7Y223D01*
X2308Y223D02*
X2315Y223D01*
X0Y222D02*
X7Y222D01*
X2308Y222D02*
X2315Y222D01*
X0Y221D02*
X7Y221D01*
X2308Y221D02*
X2315Y221D01*
X0Y220D02*
X7Y220D01*
X2308Y220D02*
X2315Y220D01*
X0Y219D02*
X7Y219D01*
X2308Y219D02*
X2315Y219D01*
X0Y218D02*
X7Y218D01*
X2308Y218D02*
X2315Y218D01*
X0Y217D02*
X7Y217D01*
X2308Y217D02*
X2315Y217D01*
X0Y216D02*
X7Y216D01*
X2308Y216D02*
X2315Y216D01*
X0Y215D02*
X7Y215D01*
X2308Y215D02*
X2315Y215D01*
X0Y214D02*
X7Y214D01*
X2308Y214D02*
X2315Y214D01*
X0Y213D02*
X7Y213D01*
X2308Y213D02*
X2315Y213D01*
X0Y212D02*
X7Y212D01*
X2308Y212D02*
X2315Y212D01*
X0Y211D02*
X7Y211D01*
X2308Y211D02*
X2315Y211D01*
X0Y210D02*
X7Y210D01*
X2308Y210D02*
X2315Y210D01*
X0Y209D02*
X7Y209D01*
X2308Y209D02*
X2315Y209D01*
X0Y208D02*
X7Y208D01*
X2308Y208D02*
X2315Y208D01*
X0Y207D02*
X7Y207D01*
X2308Y207D02*
X2315Y207D01*
X0Y206D02*
X7Y206D01*
X2308Y206D02*
X2315Y206D01*
X0Y205D02*
X7Y205D01*
X2308Y205D02*
X2315Y205D01*
X0Y204D02*
X7Y204D01*
X2308Y204D02*
X2315Y204D01*
X0Y203D02*
X7Y203D01*
X2308Y203D02*
X2315Y203D01*
X0Y202D02*
X7Y202D01*
X2308Y202D02*
X2315Y202D01*
X0Y201D02*
X7Y201D01*
X2308Y201D02*
X2315Y201D01*
X0Y200D02*
X7Y200D01*
X2308Y200D02*
X2315Y200D01*
X0Y199D02*
X7Y199D01*
X2308Y199D02*
X2315Y199D01*
X0Y198D02*
X7Y198D01*
X2308Y198D02*
X2315Y198D01*
X0Y197D02*
X7Y197D01*
X2308Y197D02*
X2315Y197D01*
X0Y196D02*
X7Y196D01*
X2308Y196D02*
X2315Y196D01*
X0Y195D02*
X7Y195D01*
X2308Y195D02*
X2315Y195D01*
X0Y194D02*
X7Y194D01*
X2308Y194D02*
X2315Y194D01*
X0Y193D02*
X7Y193D01*
X2308Y193D02*
X2315Y193D01*
X0Y192D02*
X7Y192D01*
X2308Y192D02*
X2315Y192D01*
X0Y191D02*
X7Y191D01*
X2308Y191D02*
X2315Y191D01*
X0Y190D02*
X7Y190D01*
X2308Y190D02*
X2315Y190D01*
X0Y189D02*
X7Y189D01*
X2308Y189D02*
X2315Y189D01*
X0Y188D02*
X7Y188D01*
X2308Y188D02*
X2315Y188D01*
X0Y187D02*
X7Y187D01*
X2308Y187D02*
X2315Y187D01*
X0Y186D02*
X7Y186D01*
X2308Y186D02*
X2315Y186D01*
X0Y185D02*
X7Y185D01*
X2308Y185D02*
X2315Y185D01*
X0Y184D02*
X7Y184D01*
X2308Y184D02*
X2315Y184D01*
X0Y183D02*
X7Y183D01*
X2308Y183D02*
X2315Y183D01*
X0Y182D02*
X7Y182D01*
X2308Y182D02*
X2315Y182D01*
X0Y181D02*
X7Y181D01*
X2308Y181D02*
X2315Y181D01*
X0Y180D02*
X7Y180D01*
X2308Y180D02*
X2315Y180D01*
X0Y179D02*
X7Y179D01*
X2308Y179D02*
X2315Y179D01*
X0Y178D02*
X7Y178D01*
X2308Y178D02*
X2315Y178D01*
X0Y177D02*
X7Y177D01*
X2308Y177D02*
X2315Y177D01*
X0Y176D02*
X7Y176D01*
X2308Y176D02*
X2315Y176D01*
X0Y175D02*
X7Y175D01*
X2308Y175D02*
X2315Y175D01*
X0Y174D02*
X7Y174D01*
X2308Y174D02*
X2315Y174D01*
X0Y173D02*
X7Y173D01*
X2308Y173D02*
X2315Y173D01*
X0Y172D02*
X7Y172D01*
X2308Y172D02*
X2315Y172D01*
X0Y171D02*
X7Y171D01*
X2308Y171D02*
X2315Y171D01*
X0Y170D02*
X7Y170D01*
X2308Y170D02*
X2315Y170D01*
X0Y169D02*
X7Y169D01*
X2308Y169D02*
X2315Y169D01*
X0Y168D02*
X7Y168D01*
X2308Y168D02*
X2315Y168D01*
X0Y167D02*
X7Y167D01*
X2308Y167D02*
X2315Y167D01*
X0Y166D02*
X7Y166D01*
X2308Y166D02*
X2315Y166D01*
X0Y165D02*
X7Y165D01*
X2308Y165D02*
X2315Y165D01*
X0Y164D02*
X7Y164D01*
X2308Y164D02*
X2315Y164D01*
X0Y163D02*
X7Y163D01*
X2308Y163D02*
X2315Y163D01*
X0Y162D02*
X7Y162D01*
X2308Y162D02*
X2315Y162D01*
X0Y161D02*
X7Y161D01*
X2308Y161D02*
X2315Y161D01*
X0Y160D02*
X7Y160D01*
X2308Y160D02*
X2315Y160D01*
X0Y159D02*
X7Y159D01*
X2308Y159D02*
X2315Y159D01*
X0Y158D02*
X7Y158D01*
X2308Y158D02*
X2315Y158D01*
X0Y157D02*
X7Y157D01*
X2308Y157D02*
X2315Y157D01*
X0Y156D02*
X7Y156D01*
X2308Y156D02*
X2315Y156D01*
X0Y155D02*
X7Y155D01*
X2308Y155D02*
X2315Y155D01*
X0Y154D02*
X7Y154D01*
X2308Y154D02*
X2315Y154D01*
X0Y153D02*
X7Y153D01*
X2308Y153D02*
X2315Y153D01*
X0Y152D02*
X7Y152D01*
X515Y152D02*
X515Y152D01*
X2308Y152D02*
X2315Y152D01*
X0Y151D02*
X7Y151D01*
X514Y151D02*
X516Y151D01*
X2308Y151D02*
X2315Y151D01*
X0Y150D02*
X7Y150D01*
X513Y150D02*
X517Y150D01*
X2308Y150D02*
X2315Y150D01*
X0Y149D02*
X7Y149D01*
X512Y149D02*
X518Y149D01*
X2308Y149D02*
X2315Y149D01*
X0Y148D02*
X7Y148D01*
X513Y148D02*
X519Y148D01*
X2308Y148D02*
X2315Y148D01*
X0Y147D02*
X7Y147D01*
X514Y147D02*
X520Y147D01*
X2308Y147D02*
X2315Y147D01*
X0Y146D02*
X7Y146D01*
X515Y146D02*
X521Y146D01*
X2308Y146D02*
X2315Y146D01*
X0Y145D02*
X7Y145D01*
X516Y145D02*
X522Y145D01*
X2308Y145D02*
X2315Y145D01*
X0Y144D02*
X7Y144D01*
X517Y144D02*
X523Y144D01*
X2308Y144D02*
X2315Y144D01*
X0Y143D02*
X7Y143D01*
X518Y143D02*
X524Y143D01*
X2308Y143D02*
X2315Y143D01*
X0Y142D02*
X7Y142D01*
X519Y142D02*
X525Y142D01*
X2308Y142D02*
X2315Y142D01*
X0Y141D02*
X7Y141D01*
X520Y141D02*
X526Y141D01*
X2308Y141D02*
X2315Y141D01*
X0Y140D02*
X7Y140D01*
X521Y140D02*
X527Y140D01*
X2308Y140D02*
X2315Y140D01*
X0Y139D02*
X7Y139D01*
X522Y139D02*
X528Y139D01*
X2308Y139D02*
X2315Y139D01*
X0Y138D02*
X7Y138D01*
X523Y138D02*
X528Y138D01*
X2308Y138D02*
X2315Y138D01*
X0Y137D02*
X7Y137D01*
X524Y137D02*
X529Y137D01*
X2308Y137D02*
X2315Y137D01*
X0Y136D02*
X7Y136D01*
X525Y136D02*
X530Y136D01*
X2308Y136D02*
X2315Y136D01*
X0Y135D02*
X7Y135D01*
X526Y135D02*
X531Y135D01*
X2308Y135D02*
X2315Y135D01*
X0Y134D02*
X7Y134D01*
X527Y134D02*
X532Y134D01*
X2308Y134D02*
X2315Y134D01*
X0Y133D02*
X7Y133D01*
X528Y133D02*
X533Y133D01*
X2308Y133D02*
X2315Y133D01*
X0Y132D02*
X7Y132D01*
X529Y132D02*
X534Y132D01*
X2308Y132D02*
X2315Y132D01*
X0Y131D02*
X7Y131D01*
X530Y131D02*
X536Y131D01*
X2308Y131D02*
X2315Y131D01*
X0Y130D02*
X7Y130D01*
X531Y130D02*
X537Y130D01*
X2308Y130D02*
X2315Y130D01*
X0Y129D02*
X7Y129D01*
X532Y129D02*
X538Y129D01*
X2308Y129D02*
X2315Y129D01*
X0Y128D02*
X7Y128D01*
X533Y128D02*
X539Y128D01*
X2308Y128D02*
X2315Y128D01*
X0Y127D02*
X7Y127D01*
X534Y127D02*
X540Y127D01*
X2308Y127D02*
X2315Y127D01*
X0Y126D02*
X7Y126D01*
X535Y126D02*
X541Y126D01*
X2308Y126D02*
X2315Y126D01*
X0Y125D02*
X7Y125D01*
X536Y125D02*
X542Y125D01*
X2308Y125D02*
X2315Y125D01*
X0Y124D02*
X7Y124D01*
X537Y124D02*
X543Y124D01*
X2308Y124D02*
X2315Y124D01*
X0Y123D02*
X7Y123D01*
X538Y123D02*
X544Y123D01*
X2308Y123D02*
X2315Y123D01*
X0Y122D02*
X7Y122D01*
X539Y122D02*
X545Y122D01*
X2308Y122D02*
X2315Y122D01*
X0Y121D02*
X7Y121D01*
X540Y121D02*
X546Y121D01*
X2308Y121D02*
X2315Y121D01*
X0Y120D02*
X7Y120D01*
X541Y120D02*
X547Y120D01*
X2308Y120D02*
X2315Y120D01*
X0Y119D02*
X7Y119D01*
X542Y119D02*
X548Y119D01*
X2308Y119D02*
X2315Y119D01*
X0Y118D02*
X7Y118D01*
X543Y118D02*
X549Y118D01*
X2308Y118D02*
X2315Y118D01*
X0Y117D02*
X7Y117D01*
X544Y117D02*
X549Y117D01*
X2308Y117D02*
X2315Y117D01*
X0Y116D02*
X7Y116D01*
X545Y116D02*
X548Y116D01*
X2308Y116D02*
X2315Y116D01*
X0Y115D02*
X7Y115D01*
X546Y115D02*
X547Y115D01*
X2308Y115D02*
X2315Y115D01*
X0Y114D02*
X7Y114D01*
X2308Y114D02*
X2315Y114D01*
X0Y113D02*
X7Y113D01*
X2308Y113D02*
X2315Y113D01*
X0Y112D02*
X7Y112D01*
X2308Y112D02*
X2315Y112D01*
X0Y111D02*
X7Y111D01*
X2308Y111D02*
X2315Y111D01*
X0Y110D02*
X7Y110D01*
X2308Y110D02*
X2315Y110D01*
X0Y109D02*
X7Y109D01*
X2308Y109D02*
X2315Y109D01*
X0Y108D02*
X7Y108D01*
X2308Y108D02*
X2315Y108D01*
X0Y107D02*
X7Y107D01*
X2308Y107D02*
X2315Y107D01*
X0Y106D02*
X7Y106D01*
X2308Y106D02*
X2315Y106D01*
X0Y105D02*
X7Y105D01*
X2308Y105D02*
X2315Y105D01*
X0Y104D02*
X7Y104D01*
X2308Y104D02*
X2315Y104D01*
X0Y103D02*
X7Y103D01*
X2308Y103D02*
X2315Y103D01*
X0Y102D02*
X7Y102D01*
X2308Y102D02*
X2315Y102D01*
X0Y101D02*
X7Y101D01*
X2308Y101D02*
X2315Y101D01*
X0Y100D02*
X7Y100D01*
X2308Y100D02*
X2315Y100D01*
X0Y99D02*
X7Y99D01*
X2308Y99D02*
X2315Y99D01*
X0Y98D02*
X7Y98D01*
X2308Y98D02*
X2315Y98D01*
X0Y97D02*
X7Y97D01*
X2308Y97D02*
X2315Y97D01*
X0Y96D02*
X7Y96D01*
X2308Y96D02*
X2315Y96D01*
X0Y95D02*
X7Y95D01*
X2308Y95D02*
X2315Y95D01*
X0Y94D02*
X7Y94D01*
X2308Y94D02*
X2315Y94D01*
X0Y93D02*
X7Y93D01*
X2308Y93D02*
X2315Y93D01*
X0Y92D02*
X7Y92D01*
X2308Y92D02*
X2315Y92D01*
X0Y91D02*
X7Y91D01*
X2308Y91D02*
X2315Y91D01*
X0Y90D02*
X7Y90D01*
X2308Y90D02*
X2315Y90D01*
X0Y89D02*
X7Y89D01*
X2308Y89D02*
X2315Y89D01*
X0Y88D02*
X7Y88D01*
X2308Y88D02*
X2315Y88D01*
X0Y87D02*
X7Y87D01*
X2308Y87D02*
X2315Y87D01*
X0Y86D02*
X7Y86D01*
X2308Y86D02*
X2315Y86D01*
X0Y85D02*
X7Y85D01*
X2308Y85D02*
X2315Y85D01*
X0Y84D02*
X7Y84D01*
X2308Y84D02*
X2315Y84D01*
X0Y83D02*
X7Y83D01*
X2308Y83D02*
X2315Y83D01*
X0Y82D02*
X7Y82D01*
X2308Y82D02*
X2315Y82D01*
X0Y81D02*
X7Y81D01*
X2308Y81D02*
X2315Y81D01*
X0Y80D02*
X7Y80D01*
X2308Y80D02*
X2315Y80D01*
X0Y79D02*
X7Y79D01*
X2308Y79D02*
X2315Y79D01*
X0Y78D02*
X7Y78D01*
X2308Y78D02*
X2315Y78D01*
X0Y77D02*
X7Y77D01*
X2308Y77D02*
X2315Y77D01*
X0Y76D02*
X7Y76D01*
X2308Y76D02*
X2315Y76D01*
X0Y75D02*
X7Y75D01*
X2308Y75D02*
X2315Y75D01*
X0Y74D02*
X7Y74D01*
X2308Y74D02*
X2315Y74D01*
X0Y73D02*
X7Y73D01*
X2308Y73D02*
X2315Y73D01*
X0Y72D02*
X7Y72D01*
X2308Y72D02*
X2315Y72D01*
X0Y71D02*
X7Y71D01*
X2308Y71D02*
X2315Y71D01*
X0Y70D02*
X7Y70D01*
X2308Y70D02*
X2315Y70D01*
X0Y69D02*
X7Y69D01*
X2308Y69D02*
X2315Y69D01*
X0Y68D02*
X7Y68D01*
X2308Y68D02*
X2315Y68D01*
X0Y67D02*
X7Y67D01*
X2308Y67D02*
X2315Y67D01*
X0Y66D02*
X7Y66D01*
X2308Y66D02*
X2315Y66D01*
X0Y65D02*
X7Y65D01*
X2308Y65D02*
X2315Y65D01*
X0Y64D02*
X7Y64D01*
X2308Y64D02*
X2315Y64D01*
X0Y63D02*
X7Y63D01*
X2308Y63D02*
X2315Y63D01*
X0Y62D02*
X7Y62D01*
X2308Y62D02*
X2315Y62D01*
X0Y61D02*
X7Y61D01*
X2308Y61D02*
X2315Y61D01*
X0Y60D02*
X7Y60D01*
X2308Y60D02*
X2315Y60D01*
X0Y59D02*
X7Y59D01*
X2308Y59D02*
X2315Y59D01*
X0Y58D02*
X7Y58D01*
X2308Y58D02*
X2315Y58D01*
X0Y57D02*
X7Y57D01*
X2308Y57D02*
X2315Y57D01*
X0Y56D02*
X7Y56D01*
X2308Y56D02*
X2315Y56D01*
X0Y55D02*
X7Y55D01*
X2308Y55D02*
X2315Y55D01*
X0Y54D02*
X7Y54D01*
X2308Y54D02*
X2315Y54D01*
X0Y53D02*
X7Y53D01*
X2308Y53D02*
X2315Y53D01*
X0Y52D02*
X7Y52D01*
X2308Y52D02*
X2315Y52D01*
X0Y51D02*
X7Y51D01*
X2308Y51D02*
X2315Y51D01*
X0Y50D02*
X7Y50D01*
X2308Y50D02*
X2315Y50D01*
X0Y49D02*
X7Y49D01*
X2308Y49D02*
X2315Y49D01*
X0Y48D02*
X7Y48D01*
X2308Y48D02*
X2315Y48D01*
X0Y47D02*
X7Y47D01*
X2308Y47D02*
X2315Y47D01*
X0Y46D02*
X7Y46D01*
X2308Y46D02*
X2315Y46D01*
X0Y45D02*
X7Y45D01*
X2308Y45D02*
X2315Y45D01*
X0Y44D02*
X7Y44D01*
X2308Y44D02*
X2315Y44D01*
X0Y43D02*
X7Y43D01*
X2308Y43D02*
X2315Y43D01*
X0Y42D02*
X7Y42D01*
X2308Y42D02*
X2315Y42D01*
X0Y41D02*
X7Y41D01*
X2308Y41D02*
X2315Y41D01*
X0Y40D02*
X7Y40D01*
X2308Y40D02*
X2315Y40D01*
X0Y39D02*
X7Y39D01*
X2308Y39D02*
X2315Y39D01*
X0Y38D02*
X7Y38D01*
X2308Y38D02*
X2315Y38D01*
X0Y37D02*
X7Y37D01*
X2308Y37D02*
X2315Y37D01*
X0Y36D02*
X7Y36D01*
X2308Y36D02*
X2315Y36D01*
X0Y35D02*
X7Y35D01*
X2308Y35D02*
X2315Y35D01*
X0Y34D02*
X7Y34D01*
X2308Y34D02*
X2315Y34D01*
X0Y33D02*
X7Y33D01*
X2308Y33D02*
X2315Y33D01*
X0Y32D02*
X7Y32D01*
X2308Y32D02*
X2315Y32D01*
X0Y31D02*
X7Y31D01*
X2308Y31D02*
X2315Y31D01*
X0Y30D02*
X7Y30D01*
X2308Y30D02*
X2315Y30D01*
X0Y29D02*
X7Y29D01*
X2308Y29D02*
X2315Y29D01*
X0Y28D02*
X7Y28D01*
X2308Y28D02*
X2315Y28D01*
X0Y27D02*
X7Y27D01*
X2308Y27D02*
X2315Y27D01*
X0Y26D02*
X7Y26D01*
X2308Y26D02*
X2315Y26D01*
X0Y25D02*
X7Y25D01*
X2308Y25D02*
X2315Y25D01*
X0Y24D02*
X7Y24D01*
X2308Y24D02*
X2315Y24D01*
X0Y23D02*
X7Y23D01*
X2308Y23D02*
X2315Y23D01*
X0Y22D02*
X7Y22D01*
X2308Y22D02*
X2315Y22D01*
X0Y21D02*
X7Y21D01*
X2308Y21D02*
X2315Y21D01*
X0Y20D02*
X7Y20D01*
X2308Y20D02*
X2315Y20D01*
X0Y19D02*
X7Y19D01*
X2308Y19D02*
X2315Y19D01*
X0Y18D02*
X7Y18D01*
X2308Y18D02*
X2315Y18D01*
X0Y17D02*
X7Y17D01*
X2308Y17D02*
X2315Y17D01*
X0Y16D02*
X7Y16D01*
X2308Y16D02*
X2315Y16D01*
X0Y15D02*
X7Y15D01*
X2308Y15D02*
X2315Y15D01*
X0Y14D02*
X7Y14D01*
X2308Y14D02*
X2315Y14D01*
X0Y13D02*
X7Y13D01*
X2308Y13D02*
X2315Y13D01*
X0Y12D02*
X7Y12D01*
X2308Y12D02*
X2315Y12D01*
X0Y11D02*
X7Y11D01*
X2308Y11D02*
X2315Y11D01*
X0Y10D02*
X7Y10D01*
X2308Y10D02*
X2315Y10D01*
X0Y9D02*
X7Y9D01*
X2308Y9D02*
X2315Y9D01*
X0Y8D02*
X2315Y8D01*
X0Y7D02*
X2315Y7D01*
X0Y6D02*
X2315Y6D01*
X0Y5D02*
X2315Y5D01*
X0Y4D02*
X2315Y4D01*
X0Y3D02*
X2315Y3D01*
X0Y2D02*
X2315Y2D01*
X0Y1D02*
X2315Y1D01*
D02*
G04 End of Silk1*
M02*