G04 MADE WITH FRITZING*
G04 WWW.FRITZING.ORG*
G04 DOUBLE SIDED*
G04 HOLES PLATED*
G04 CONTOUR ON CENTER OF CONTOUR VECTOR*
%ASAXBY*%
%FSLAX23Y23*%
%MOIN*%
%OFA0B0*%
%SFA1.0B1.0*%
%ADD10C,0.075000*%
%ADD11C,0.080000*%
%ADD12C,0.083307*%
%ADD13C,0.082000*%
%ADD14C,0.078000*%
%ADD15C,0.075433*%
%ADD16R,0.080000X0.080000*%
%ADD17R,0.083307X0.083307*%
%ADD18R,0.082000X0.082000*%
%ADD19R,0.075000X0.075000*%
%ADD20C,0.048000*%
%ADD21C,0.065000*%
%LNCOPPER0*%
G90*
G70*
G54D10*
X1623Y1380D03*
G54D11*
X231Y1286D03*
X231Y1089D03*
X231Y586D03*
X231Y389D03*
G54D12*
X1914Y912D03*
X1914Y715D03*
X1914Y465D03*
X1914Y268D03*
G54D13*
X1539Y1240D03*
X1439Y1240D03*
X1339Y1240D03*
X1089Y1240D03*
X989Y1240D03*
X889Y1240D03*
G54D10*
X2014Y1240D03*
X1814Y1240D03*
X639Y1140D03*
X639Y1240D03*
G54D13*
X389Y865D03*
X289Y865D03*
X189Y865D03*
X389Y165D03*
X289Y165D03*
X189Y165D03*
G54D14*
X564Y165D03*
X664Y165D03*
X764Y165D03*
G54D15*
X664Y490D03*
X664Y690D03*
G54D16*
X231Y1286D03*
X231Y586D03*
G54D17*
X1914Y912D03*
X1914Y465D03*
G54D18*
X1539Y1240D03*
X1089Y1240D03*
G54D19*
X2014Y1240D03*
X639Y1140D03*
G54D18*
X389Y865D03*
X389Y165D03*
G54D20*
X1090Y1316D02*
X1164Y1390D01*
D02*
X1089Y1283D02*
X1090Y1316D01*
D02*
X1164Y1390D02*
X1463Y1390D01*
D02*
X1463Y1390D02*
X1539Y1315D01*
D02*
X1539Y1315D02*
X1539Y1283D01*
D02*
X1774Y1240D02*
X1582Y1240D01*
G54D21*
D02*
X834Y1240D02*
X690Y1240D01*
D02*
X314Y1240D02*
X277Y1260D01*
D02*
X588Y1240D02*
X314Y1240D01*
G54D20*
D02*
X289Y340D02*
X289Y208D01*
D02*
X263Y362D02*
X289Y340D01*
D02*
X289Y1039D02*
X289Y908D01*
D02*
X263Y1061D02*
X289Y1039D01*
G54D21*
D02*
X889Y1186D02*
X889Y666D01*
D02*
X788Y590D02*
X284Y586D01*
D02*
X889Y666D02*
X788Y590D01*
G54D20*
D02*
X1813Y1164D02*
X1912Y1091D01*
D02*
X1912Y1091D02*
X1913Y956D01*
D02*
X1813Y1200D02*
X1813Y1164D01*
D02*
X432Y165D02*
X522Y165D01*
D02*
X588Y866D02*
X648Y727D01*
D02*
X664Y450D02*
X664Y206D01*
D02*
X432Y865D02*
X588Y866D01*
G54D21*
D02*
X1388Y465D02*
X1338Y514D01*
D02*
X1338Y514D02*
X1339Y1186D01*
D02*
X1859Y465D02*
X1388Y465D01*
G36*
X40Y1450D02*
X40Y1426D01*
X1470Y1426D01*
X1470Y1424D01*
X1476Y1424D01*
X1476Y1422D01*
X1480Y1422D01*
X1480Y1420D01*
X1484Y1420D01*
X1484Y1418D01*
X1486Y1418D01*
X1486Y1416D01*
X1488Y1416D01*
X1488Y1414D01*
X1492Y1414D01*
X1492Y1412D01*
X1494Y1412D01*
X1494Y1410D01*
X1496Y1410D01*
X1496Y1408D01*
X1498Y1408D01*
X1498Y1406D01*
X1500Y1406D01*
X1500Y1404D01*
X1502Y1404D01*
X1502Y1402D01*
X1504Y1402D01*
X1504Y1400D01*
X1506Y1400D01*
X1506Y1396D01*
X1508Y1396D01*
X1508Y1394D01*
X1510Y1394D01*
X1510Y1392D01*
X1512Y1392D01*
X1512Y1390D01*
X1514Y1390D01*
X1514Y1388D01*
X1516Y1388D01*
X1516Y1386D01*
X1518Y1386D01*
X1518Y1384D01*
X1520Y1384D01*
X1520Y1382D01*
X1522Y1382D01*
X1522Y1380D01*
X1524Y1380D01*
X1524Y1378D01*
X1526Y1378D01*
X1526Y1376D01*
X1528Y1376D01*
X1528Y1374D01*
X1530Y1374D01*
X1530Y1372D01*
X1532Y1372D01*
X1532Y1370D01*
X1534Y1370D01*
X1534Y1368D01*
X1536Y1368D01*
X1536Y1366D01*
X1538Y1366D01*
X1538Y1364D01*
X1540Y1364D01*
X1540Y1362D01*
X1542Y1362D01*
X1542Y1360D01*
X1544Y1360D01*
X1544Y1358D01*
X1546Y1358D01*
X1546Y1356D01*
X1548Y1356D01*
X1548Y1354D01*
X1550Y1354D01*
X1550Y1352D01*
X1552Y1352D01*
X1552Y1350D01*
X1554Y1350D01*
X1554Y1348D01*
X1556Y1348D01*
X1556Y1346D01*
X1558Y1346D01*
X1558Y1344D01*
X1560Y1344D01*
X1560Y1342D01*
X1562Y1342D01*
X1562Y1340D01*
X1564Y1340D01*
X1564Y1338D01*
X1566Y1338D01*
X1566Y1336D01*
X1568Y1336D01*
X1568Y1334D01*
X1570Y1334D01*
X1570Y1330D01*
X1572Y1330D01*
X1572Y1324D01*
X1574Y1324D01*
X1574Y1292D01*
X1592Y1292D01*
X1592Y1290D01*
X2062Y1290D01*
X2062Y1288D01*
X2064Y1288D01*
X2064Y1190D01*
X2276Y1190D01*
X2276Y1450D01*
X40Y1450D01*
G37*
D02*
G36*
X40Y1426D02*
X40Y1338D01*
X282Y1338D01*
X282Y1304D01*
X284Y1304D01*
X284Y1302D01*
X292Y1302D01*
X292Y1300D01*
X298Y1300D01*
X298Y1298D01*
X302Y1298D01*
X302Y1296D01*
X304Y1296D01*
X304Y1294D01*
X308Y1294D01*
X308Y1292D01*
X1002Y1292D01*
X1002Y1290D01*
X1008Y1290D01*
X1008Y1288D01*
X1012Y1288D01*
X1012Y1286D01*
X1016Y1286D01*
X1016Y1284D01*
X1036Y1284D01*
X1036Y1292D01*
X1054Y1292D01*
X1054Y1324D01*
X1056Y1324D01*
X1056Y1330D01*
X1058Y1330D01*
X1058Y1334D01*
X1060Y1334D01*
X1060Y1338D01*
X1062Y1338D01*
X1062Y1340D01*
X1064Y1340D01*
X1064Y1342D01*
X1066Y1342D01*
X1066Y1344D01*
X1068Y1344D01*
X1068Y1346D01*
X1070Y1346D01*
X1070Y1348D01*
X1072Y1348D01*
X1072Y1350D01*
X1074Y1350D01*
X1074Y1352D01*
X1076Y1352D01*
X1076Y1354D01*
X1078Y1354D01*
X1078Y1356D01*
X1080Y1356D01*
X1080Y1358D01*
X1082Y1358D01*
X1082Y1360D01*
X1084Y1360D01*
X1084Y1362D01*
X1086Y1362D01*
X1086Y1364D01*
X1088Y1364D01*
X1088Y1366D01*
X1090Y1366D01*
X1090Y1368D01*
X1092Y1368D01*
X1092Y1370D01*
X1094Y1370D01*
X1094Y1372D01*
X1096Y1372D01*
X1096Y1374D01*
X1098Y1374D01*
X1098Y1376D01*
X1100Y1376D01*
X1100Y1378D01*
X1102Y1378D01*
X1102Y1380D01*
X1104Y1380D01*
X1104Y1382D01*
X1106Y1382D01*
X1106Y1384D01*
X1108Y1384D01*
X1108Y1386D01*
X1110Y1386D01*
X1110Y1388D01*
X1112Y1388D01*
X1112Y1390D01*
X1114Y1390D01*
X1114Y1392D01*
X1116Y1392D01*
X1116Y1394D01*
X1118Y1394D01*
X1118Y1396D01*
X1120Y1396D01*
X1120Y1398D01*
X1122Y1398D01*
X1122Y1400D01*
X1124Y1400D01*
X1124Y1402D01*
X1126Y1402D01*
X1126Y1404D01*
X1128Y1404D01*
X1128Y1406D01*
X1130Y1406D01*
X1130Y1408D01*
X1132Y1408D01*
X1132Y1410D01*
X1134Y1410D01*
X1134Y1412D01*
X1136Y1412D01*
X1136Y1414D01*
X1138Y1414D01*
X1138Y1416D01*
X1140Y1416D01*
X1140Y1418D01*
X1142Y1418D01*
X1142Y1420D01*
X1146Y1420D01*
X1146Y1422D01*
X1150Y1422D01*
X1150Y1424D01*
X1156Y1424D01*
X1156Y1426D01*
X40Y1426D01*
G37*
D02*
G36*
X1178Y1354D02*
X1178Y1352D01*
X1176Y1352D01*
X1176Y1350D01*
X1174Y1350D01*
X1174Y1348D01*
X1172Y1348D01*
X1172Y1346D01*
X1170Y1346D01*
X1170Y1344D01*
X1168Y1344D01*
X1168Y1342D01*
X1166Y1342D01*
X1166Y1340D01*
X1164Y1340D01*
X1164Y1338D01*
X1162Y1338D01*
X1162Y1336D01*
X1160Y1336D01*
X1160Y1334D01*
X1158Y1334D01*
X1158Y1332D01*
X1156Y1332D01*
X1156Y1330D01*
X1154Y1330D01*
X1154Y1328D01*
X1152Y1328D01*
X1152Y1326D01*
X1150Y1326D01*
X1150Y1324D01*
X1148Y1324D01*
X1148Y1322D01*
X1146Y1322D01*
X1146Y1320D01*
X1144Y1320D01*
X1144Y1318D01*
X1142Y1318D01*
X1142Y1316D01*
X1140Y1316D01*
X1140Y1314D01*
X1138Y1314D01*
X1138Y1312D01*
X1136Y1312D01*
X1136Y1292D01*
X1452Y1292D01*
X1452Y1290D01*
X1458Y1290D01*
X1458Y1288D01*
X1462Y1288D01*
X1462Y1286D01*
X1466Y1286D01*
X1466Y1284D01*
X1486Y1284D01*
X1486Y1292D01*
X1492Y1292D01*
X1492Y1312D01*
X1490Y1312D01*
X1490Y1314D01*
X1488Y1314D01*
X1488Y1316D01*
X1486Y1316D01*
X1486Y1318D01*
X1484Y1318D01*
X1484Y1320D01*
X1482Y1320D01*
X1482Y1322D01*
X1480Y1322D01*
X1480Y1324D01*
X1478Y1324D01*
X1478Y1326D01*
X1476Y1326D01*
X1476Y1328D01*
X1474Y1328D01*
X1474Y1330D01*
X1472Y1330D01*
X1472Y1332D01*
X1470Y1332D01*
X1470Y1334D01*
X1468Y1334D01*
X1468Y1336D01*
X1466Y1336D01*
X1466Y1338D01*
X1464Y1338D01*
X1464Y1340D01*
X1462Y1340D01*
X1462Y1342D01*
X1460Y1342D01*
X1460Y1344D01*
X1458Y1344D01*
X1458Y1346D01*
X1456Y1346D01*
X1456Y1348D01*
X1454Y1348D01*
X1454Y1350D01*
X1452Y1350D01*
X1452Y1352D01*
X1450Y1352D01*
X1450Y1354D01*
X1178Y1354D01*
G37*
D02*
G36*
X40Y1338D02*
X40Y1194D01*
X308Y1194D01*
X308Y1196D01*
X300Y1196D01*
X300Y1198D01*
X294Y1198D01*
X294Y1200D01*
X290Y1200D01*
X290Y1202D01*
X288Y1202D01*
X288Y1204D01*
X284Y1204D01*
X284Y1206D01*
X280Y1206D01*
X280Y1208D01*
X276Y1208D01*
X276Y1210D01*
X272Y1210D01*
X272Y1212D01*
X270Y1212D01*
X270Y1214D01*
X266Y1214D01*
X266Y1216D01*
X262Y1216D01*
X262Y1218D01*
X258Y1218D01*
X258Y1220D01*
X254Y1220D01*
X254Y1222D01*
X252Y1222D01*
X252Y1224D01*
X250Y1224D01*
X250Y1226D01*
X246Y1226D01*
X246Y1228D01*
X244Y1228D01*
X244Y1232D01*
X242Y1232D01*
X242Y1234D01*
X178Y1234D01*
X178Y1336D01*
X180Y1336D01*
X180Y1338D01*
X40Y1338D01*
G37*
D02*
G36*
X312Y1292D02*
X312Y1290D01*
X642Y1290D01*
X642Y1288D01*
X652Y1288D01*
X652Y1286D01*
X658Y1286D01*
X658Y1284D01*
X862Y1284D01*
X862Y1286D01*
X866Y1286D01*
X866Y1288D01*
X870Y1288D01*
X870Y1290D01*
X876Y1290D01*
X876Y1292D01*
X312Y1292D01*
G37*
D02*
G36*
X902Y1292D02*
X902Y1290D01*
X908Y1290D01*
X908Y1288D01*
X912Y1288D01*
X912Y1286D01*
X916Y1286D01*
X916Y1284D01*
X918Y1284D01*
X918Y1282D01*
X922Y1282D01*
X922Y1280D01*
X924Y1280D01*
X924Y1278D01*
X926Y1278D01*
X926Y1276D01*
X928Y1276D01*
X928Y1274D01*
X950Y1274D01*
X950Y1276D01*
X952Y1276D01*
X952Y1278D01*
X954Y1278D01*
X954Y1280D01*
X956Y1280D01*
X956Y1282D01*
X958Y1282D01*
X958Y1284D01*
X962Y1284D01*
X962Y1286D01*
X966Y1286D01*
X966Y1288D01*
X970Y1288D01*
X970Y1290D01*
X976Y1290D01*
X976Y1292D01*
X902Y1292D01*
G37*
D02*
G36*
X1142Y1292D02*
X1142Y1186D01*
X1294Y1186D01*
X1294Y1214D01*
X1292Y1214D01*
X1292Y1216D01*
X1290Y1216D01*
X1290Y1222D01*
X1288Y1222D01*
X1288Y1228D01*
X1286Y1228D01*
X1286Y1250D01*
X1288Y1250D01*
X1288Y1258D01*
X1290Y1258D01*
X1290Y1262D01*
X1292Y1262D01*
X1292Y1266D01*
X1294Y1266D01*
X1294Y1270D01*
X1296Y1270D01*
X1296Y1272D01*
X1298Y1272D01*
X1298Y1274D01*
X1300Y1274D01*
X1300Y1276D01*
X1302Y1276D01*
X1302Y1278D01*
X1304Y1278D01*
X1304Y1280D01*
X1306Y1280D01*
X1306Y1282D01*
X1308Y1282D01*
X1308Y1284D01*
X1312Y1284D01*
X1312Y1286D01*
X1316Y1286D01*
X1316Y1288D01*
X1320Y1288D01*
X1320Y1290D01*
X1326Y1290D01*
X1326Y1292D01*
X1142Y1292D01*
G37*
D02*
G36*
X1352Y1292D02*
X1352Y1290D01*
X1358Y1290D01*
X1358Y1288D01*
X1362Y1288D01*
X1362Y1286D01*
X1366Y1286D01*
X1366Y1284D01*
X1368Y1284D01*
X1368Y1282D01*
X1372Y1282D01*
X1372Y1280D01*
X1374Y1280D01*
X1374Y1278D01*
X1376Y1278D01*
X1376Y1276D01*
X1378Y1276D01*
X1378Y1274D01*
X1400Y1274D01*
X1400Y1276D01*
X1402Y1276D01*
X1402Y1278D01*
X1404Y1278D01*
X1404Y1280D01*
X1406Y1280D01*
X1406Y1282D01*
X1408Y1282D01*
X1408Y1284D01*
X1412Y1284D01*
X1412Y1286D01*
X1416Y1286D01*
X1416Y1288D01*
X1420Y1288D01*
X1420Y1290D01*
X1426Y1290D01*
X1426Y1292D01*
X1352Y1292D01*
G37*
D02*
G36*
X316Y1290D02*
X316Y1288D01*
X320Y1288D01*
X320Y1286D01*
X322Y1286D01*
X322Y1284D01*
X618Y1284D01*
X618Y1286D01*
X624Y1286D01*
X624Y1288D01*
X636Y1288D01*
X636Y1290D01*
X316Y1290D01*
G37*
D02*
G36*
X1592Y1290D02*
X1592Y1276D01*
X1782Y1276D01*
X1782Y1278D01*
X1784Y1278D01*
X1784Y1280D01*
X1786Y1280D01*
X1786Y1282D01*
X1790Y1282D01*
X1790Y1284D01*
X1794Y1284D01*
X1794Y1286D01*
X1800Y1286D01*
X1800Y1288D01*
X1810Y1288D01*
X1810Y1290D01*
X1592Y1290D01*
G37*
D02*
G36*
X1818Y1290D02*
X1818Y1288D01*
X1828Y1288D01*
X1828Y1286D01*
X1834Y1286D01*
X1834Y1284D01*
X1838Y1284D01*
X1838Y1282D01*
X1840Y1282D01*
X1840Y1280D01*
X1844Y1280D01*
X1844Y1278D01*
X1846Y1278D01*
X1846Y1276D01*
X1848Y1276D01*
X1848Y1274D01*
X1850Y1274D01*
X1850Y1272D01*
X1852Y1272D01*
X1852Y1270D01*
X1854Y1270D01*
X1854Y1266D01*
X1856Y1266D01*
X1856Y1264D01*
X1858Y1264D01*
X1858Y1260D01*
X1860Y1260D01*
X1860Y1254D01*
X1862Y1254D01*
X1862Y1242D01*
X1864Y1242D01*
X1864Y1236D01*
X1862Y1236D01*
X1862Y1226D01*
X1860Y1226D01*
X1860Y1220D01*
X1858Y1220D01*
X1858Y1216D01*
X1856Y1216D01*
X1856Y1212D01*
X1854Y1212D01*
X1854Y1210D01*
X1852Y1210D01*
X1852Y1208D01*
X1850Y1208D01*
X1850Y1190D01*
X1964Y1190D01*
X1964Y1290D01*
X1818Y1290D01*
G37*
D02*
G36*
X1592Y1204D02*
X1592Y1186D01*
X1778Y1186D01*
X1778Y1204D01*
X1592Y1204D01*
G37*
D02*
G36*
X932Y1202D02*
X932Y1190D01*
X934Y1190D01*
X934Y1186D01*
X984Y1186D01*
X984Y1188D01*
X974Y1188D01*
X974Y1190D01*
X968Y1190D01*
X968Y1192D01*
X964Y1192D01*
X964Y1194D01*
X960Y1194D01*
X960Y1196D01*
X958Y1196D01*
X958Y1198D01*
X956Y1198D01*
X956Y1200D01*
X952Y1200D01*
X952Y1202D01*
X932Y1202D01*
G37*
D02*
G36*
X1382Y1202D02*
X1382Y1188D01*
X1384Y1188D01*
X1384Y1186D01*
X1434Y1186D01*
X1434Y1188D01*
X1424Y1188D01*
X1424Y1190D01*
X1418Y1190D01*
X1418Y1192D01*
X1414Y1192D01*
X1414Y1194D01*
X1410Y1194D01*
X1410Y1196D01*
X1408Y1196D01*
X1408Y1198D01*
X1406Y1198D01*
X1406Y1200D01*
X1402Y1200D01*
X1402Y1202D01*
X1382Y1202D01*
G37*
D02*
G36*
X520Y1196D02*
X520Y1194D01*
X590Y1194D01*
X590Y1196D01*
X520Y1196D01*
G37*
D02*
G36*
X688Y1196D02*
X688Y1090D01*
X844Y1090D01*
X844Y1196D01*
X688Y1196D01*
G37*
D02*
G36*
X1016Y1196D02*
X1016Y1194D01*
X1014Y1194D01*
X1014Y1192D01*
X1010Y1192D01*
X1010Y1190D01*
X1004Y1190D01*
X1004Y1188D01*
X994Y1188D01*
X994Y1186D01*
X1036Y1186D01*
X1036Y1196D01*
X1016Y1196D01*
G37*
D02*
G36*
X1466Y1196D02*
X1466Y1194D01*
X1464Y1194D01*
X1464Y1192D01*
X1460Y1192D01*
X1460Y1190D01*
X1454Y1190D01*
X1454Y1188D01*
X1444Y1188D01*
X1444Y1186D01*
X1486Y1186D01*
X1486Y1196D01*
X1466Y1196D01*
G37*
D02*
G36*
X40Y1194D02*
X40Y1192D01*
X590Y1192D01*
X590Y1194D01*
X40Y1194D01*
G37*
D02*
G36*
X40Y1194D02*
X40Y1192D01*
X590Y1192D01*
X590Y1194D01*
X40Y1194D01*
G37*
D02*
G36*
X40Y1192D02*
X40Y1140D01*
X242Y1140D01*
X242Y1138D01*
X248Y1138D01*
X248Y1136D01*
X254Y1136D01*
X254Y1134D01*
X256Y1134D01*
X256Y1132D01*
X260Y1132D01*
X260Y1130D01*
X262Y1130D01*
X262Y1128D01*
X266Y1128D01*
X266Y1126D01*
X268Y1126D01*
X268Y1124D01*
X270Y1124D01*
X270Y1120D01*
X272Y1120D01*
X272Y1118D01*
X274Y1118D01*
X274Y1116D01*
X276Y1116D01*
X276Y1112D01*
X278Y1112D01*
X278Y1108D01*
X280Y1108D01*
X280Y1100D01*
X282Y1100D01*
X282Y1090D01*
X590Y1090D01*
X590Y1192D01*
X40Y1192D01*
G37*
D02*
G36*
X1850Y1190D02*
X1850Y1188D01*
X2276Y1188D01*
X2276Y1190D01*
X1850Y1190D01*
G37*
D02*
G36*
X1850Y1190D02*
X1850Y1188D01*
X2276Y1188D01*
X2276Y1190D01*
X1850Y1190D01*
G37*
D02*
G36*
X1850Y1188D02*
X1850Y1180D01*
X1852Y1180D01*
X1852Y1178D01*
X1856Y1178D01*
X1856Y1176D01*
X1858Y1176D01*
X1858Y1174D01*
X1860Y1174D01*
X1860Y1172D01*
X1864Y1172D01*
X1864Y1170D01*
X1866Y1170D01*
X1866Y1168D01*
X1870Y1168D01*
X1870Y1166D01*
X1872Y1166D01*
X1872Y1164D01*
X1874Y1164D01*
X1874Y1162D01*
X1878Y1162D01*
X1878Y1160D01*
X1880Y1160D01*
X1880Y1158D01*
X1882Y1158D01*
X1882Y1156D01*
X1886Y1156D01*
X1886Y1154D01*
X1888Y1154D01*
X1888Y1152D01*
X1890Y1152D01*
X1890Y1150D01*
X1894Y1150D01*
X1894Y1148D01*
X1896Y1148D01*
X1896Y1146D01*
X1898Y1146D01*
X1898Y1144D01*
X1902Y1144D01*
X1902Y1142D01*
X1904Y1142D01*
X1904Y1140D01*
X1908Y1140D01*
X1908Y1138D01*
X1910Y1138D01*
X1910Y1136D01*
X1912Y1136D01*
X1912Y1134D01*
X1916Y1134D01*
X1916Y1132D01*
X1918Y1132D01*
X1918Y1130D01*
X1920Y1130D01*
X1920Y1128D01*
X1924Y1128D01*
X1924Y1126D01*
X1926Y1126D01*
X1926Y1124D01*
X1928Y1124D01*
X1928Y1122D01*
X1932Y1122D01*
X1932Y1120D01*
X1934Y1120D01*
X1934Y1118D01*
X1936Y1118D01*
X1936Y1116D01*
X1938Y1116D01*
X1938Y1114D01*
X1940Y1114D01*
X1940Y1112D01*
X1942Y1112D01*
X1942Y1110D01*
X1944Y1110D01*
X1944Y1106D01*
X1946Y1106D01*
X1946Y1100D01*
X1948Y1100D01*
X1948Y1004D01*
X1950Y1004D01*
X1950Y966D01*
X1966Y966D01*
X1966Y964D01*
X1968Y964D01*
X1968Y858D01*
X2276Y858D01*
X2276Y1188D01*
X1850Y1188D01*
G37*
D02*
G36*
X934Y1186D02*
X934Y1184D01*
X1294Y1184D01*
X1294Y1186D01*
X934Y1186D01*
G37*
D02*
G36*
X934Y1186D02*
X934Y1184D01*
X1294Y1184D01*
X1294Y1186D01*
X934Y1186D01*
G37*
D02*
G36*
X934Y1186D02*
X934Y1184D01*
X1294Y1184D01*
X1294Y1186D01*
X934Y1186D01*
G37*
D02*
G36*
X1384Y1186D02*
X1384Y1184D01*
X1778Y1184D01*
X1778Y1186D01*
X1384Y1186D01*
G37*
D02*
G36*
X1384Y1186D02*
X1384Y1184D01*
X1778Y1184D01*
X1778Y1186D01*
X1384Y1186D01*
G37*
D02*
G36*
X1384Y1186D02*
X1384Y1184D01*
X1778Y1184D01*
X1778Y1186D01*
X1384Y1186D01*
G37*
D02*
G36*
X934Y1184D02*
X934Y656D01*
X932Y656D01*
X932Y650D01*
X930Y650D01*
X930Y646D01*
X928Y646D01*
X928Y642D01*
X926Y642D01*
X926Y638D01*
X924Y638D01*
X924Y636D01*
X922Y636D01*
X922Y634D01*
X920Y634D01*
X920Y632D01*
X918Y632D01*
X918Y630D01*
X914Y630D01*
X914Y628D01*
X912Y628D01*
X912Y626D01*
X910Y626D01*
X910Y624D01*
X908Y624D01*
X908Y622D01*
X904Y622D01*
X904Y620D01*
X902Y620D01*
X902Y618D01*
X900Y618D01*
X900Y616D01*
X896Y616D01*
X896Y614D01*
X894Y614D01*
X894Y612D01*
X892Y612D01*
X892Y610D01*
X888Y610D01*
X888Y608D01*
X886Y608D01*
X886Y606D01*
X884Y606D01*
X884Y604D01*
X880Y604D01*
X880Y602D01*
X878Y602D01*
X878Y600D01*
X876Y600D01*
X876Y598D01*
X872Y598D01*
X872Y596D01*
X870Y596D01*
X870Y594D01*
X868Y594D01*
X868Y592D01*
X864Y592D01*
X864Y590D01*
X862Y590D01*
X862Y588D01*
X860Y588D01*
X860Y586D01*
X856Y586D01*
X856Y584D01*
X854Y584D01*
X854Y582D01*
X852Y582D01*
X852Y580D01*
X848Y580D01*
X848Y578D01*
X846Y578D01*
X846Y576D01*
X844Y576D01*
X844Y574D01*
X840Y574D01*
X840Y572D01*
X838Y572D01*
X838Y570D01*
X836Y570D01*
X836Y568D01*
X832Y568D01*
X832Y566D01*
X830Y566D01*
X830Y564D01*
X828Y564D01*
X828Y562D01*
X824Y562D01*
X824Y560D01*
X822Y560D01*
X822Y558D01*
X820Y558D01*
X820Y556D01*
X816Y556D01*
X816Y554D01*
X814Y554D01*
X814Y552D01*
X810Y552D01*
X810Y550D01*
X808Y550D01*
X808Y548D01*
X802Y548D01*
X802Y546D01*
X794Y546D01*
X794Y544D01*
X698Y544D01*
X698Y524D01*
X700Y524D01*
X700Y522D01*
X702Y522D01*
X702Y520D01*
X704Y520D01*
X704Y518D01*
X706Y518D01*
X706Y514D01*
X708Y514D01*
X708Y510D01*
X710Y510D01*
X710Y504D01*
X712Y504D01*
X712Y496D01*
X714Y496D01*
X714Y484D01*
X712Y484D01*
X712Y476D01*
X710Y476D01*
X710Y470D01*
X708Y470D01*
X708Y466D01*
X706Y466D01*
X706Y462D01*
X704Y462D01*
X704Y460D01*
X702Y460D01*
X702Y458D01*
X700Y458D01*
X700Y412D01*
X1860Y412D01*
X1860Y420D01*
X1378Y420D01*
X1378Y422D01*
X1372Y422D01*
X1372Y424D01*
X1368Y424D01*
X1368Y426D01*
X1364Y426D01*
X1364Y428D01*
X1362Y428D01*
X1362Y430D01*
X1358Y430D01*
X1358Y432D01*
X1356Y432D01*
X1356Y434D01*
X1354Y434D01*
X1354Y436D01*
X1352Y436D01*
X1352Y438D01*
X1350Y438D01*
X1350Y440D01*
X1348Y440D01*
X1348Y442D01*
X1346Y442D01*
X1346Y444D01*
X1344Y444D01*
X1344Y446D01*
X1342Y446D01*
X1342Y448D01*
X1340Y448D01*
X1340Y450D01*
X1338Y450D01*
X1338Y452D01*
X1336Y452D01*
X1336Y454D01*
X1334Y454D01*
X1334Y456D01*
X1332Y456D01*
X1332Y458D01*
X1330Y458D01*
X1330Y460D01*
X1328Y460D01*
X1328Y462D01*
X1326Y462D01*
X1326Y464D01*
X1324Y464D01*
X1324Y466D01*
X1322Y466D01*
X1322Y468D01*
X1320Y468D01*
X1320Y470D01*
X1318Y470D01*
X1318Y472D01*
X1316Y472D01*
X1316Y474D01*
X1314Y474D01*
X1314Y476D01*
X1312Y476D01*
X1312Y478D01*
X1310Y478D01*
X1310Y480D01*
X1308Y480D01*
X1308Y482D01*
X1306Y482D01*
X1306Y484D01*
X1304Y484D01*
X1304Y488D01*
X1302Y488D01*
X1302Y490D01*
X1300Y490D01*
X1300Y494D01*
X1298Y494D01*
X1298Y498D01*
X1296Y498D01*
X1296Y504D01*
X1294Y504D01*
X1294Y1184D01*
X934Y1184D01*
G37*
D02*
G36*
X1384Y1184D02*
X1384Y858D01*
X1860Y858D01*
X1860Y966D01*
X1878Y966D01*
X1878Y1002D01*
X1876Y1002D01*
X1876Y1074D01*
X1872Y1074D01*
X1872Y1076D01*
X1870Y1076D01*
X1870Y1078D01*
X1868Y1078D01*
X1868Y1080D01*
X1864Y1080D01*
X1864Y1082D01*
X1862Y1082D01*
X1862Y1084D01*
X1858Y1084D01*
X1858Y1086D01*
X1856Y1086D01*
X1856Y1088D01*
X1854Y1088D01*
X1854Y1090D01*
X1850Y1090D01*
X1850Y1092D01*
X1848Y1092D01*
X1848Y1094D01*
X1846Y1094D01*
X1846Y1096D01*
X1842Y1096D01*
X1842Y1098D01*
X1840Y1098D01*
X1840Y1100D01*
X1838Y1100D01*
X1838Y1102D01*
X1834Y1102D01*
X1834Y1104D01*
X1832Y1104D01*
X1832Y1106D01*
X1830Y1106D01*
X1830Y1108D01*
X1826Y1108D01*
X1826Y1110D01*
X1824Y1110D01*
X1824Y1112D01*
X1820Y1112D01*
X1820Y1114D01*
X1818Y1114D01*
X1818Y1116D01*
X1816Y1116D01*
X1816Y1118D01*
X1812Y1118D01*
X1812Y1120D01*
X1810Y1120D01*
X1810Y1122D01*
X1808Y1122D01*
X1808Y1124D01*
X1804Y1124D01*
X1804Y1126D01*
X1802Y1126D01*
X1802Y1128D01*
X1800Y1128D01*
X1800Y1130D01*
X1796Y1130D01*
X1796Y1132D01*
X1794Y1132D01*
X1794Y1134D01*
X1792Y1134D01*
X1792Y1136D01*
X1788Y1136D01*
X1788Y1138D01*
X1786Y1138D01*
X1786Y1142D01*
X1784Y1142D01*
X1784Y1144D01*
X1782Y1144D01*
X1782Y1148D01*
X1780Y1148D01*
X1780Y1152D01*
X1778Y1152D01*
X1778Y1184D01*
X1384Y1184D01*
G37*
D02*
G36*
X40Y1140D02*
X40Y918D01*
X196Y918D01*
X196Y916D01*
X206Y916D01*
X206Y914D01*
X210Y914D01*
X210Y912D01*
X214Y912D01*
X214Y910D01*
X218Y910D01*
X218Y908D01*
X220Y908D01*
X220Y906D01*
X222Y906D01*
X222Y904D01*
X226Y904D01*
X226Y902D01*
X228Y902D01*
X228Y898D01*
X248Y898D01*
X248Y900D01*
X250Y900D01*
X250Y902D01*
X252Y902D01*
X252Y1024D01*
X250Y1024D01*
X250Y1026D01*
X248Y1026D01*
X248Y1028D01*
X246Y1028D01*
X246Y1030D01*
X242Y1030D01*
X242Y1032D01*
X240Y1032D01*
X240Y1034D01*
X238Y1034D01*
X238Y1036D01*
X224Y1036D01*
X224Y1038D01*
X214Y1038D01*
X214Y1040D01*
X210Y1040D01*
X210Y1042D01*
X206Y1042D01*
X206Y1044D01*
X202Y1044D01*
X202Y1046D01*
X200Y1046D01*
X200Y1048D01*
X198Y1048D01*
X198Y1050D01*
X194Y1050D01*
X194Y1052D01*
X192Y1052D01*
X192Y1056D01*
X190Y1056D01*
X190Y1058D01*
X188Y1058D01*
X188Y1060D01*
X186Y1060D01*
X186Y1064D01*
X184Y1064D01*
X184Y1068D01*
X182Y1068D01*
X182Y1074D01*
X180Y1074D01*
X180Y1084D01*
X178Y1084D01*
X178Y1094D01*
X180Y1094D01*
X180Y1104D01*
X182Y1104D01*
X182Y1108D01*
X184Y1108D01*
X184Y1112D01*
X186Y1112D01*
X186Y1116D01*
X188Y1116D01*
X188Y1120D01*
X190Y1120D01*
X190Y1122D01*
X192Y1122D01*
X192Y1124D01*
X194Y1124D01*
X194Y1126D01*
X196Y1126D01*
X196Y1128D01*
X198Y1128D01*
X198Y1130D01*
X202Y1130D01*
X202Y1132D01*
X204Y1132D01*
X204Y1134D01*
X208Y1134D01*
X208Y1136D01*
X212Y1136D01*
X212Y1138D01*
X220Y1138D01*
X220Y1140D01*
X40Y1140D01*
G37*
D02*
G36*
X286Y1090D02*
X286Y1088D01*
X844Y1088D01*
X844Y1090D01*
X286Y1090D01*
G37*
D02*
G36*
X286Y1090D02*
X286Y1088D01*
X844Y1088D01*
X844Y1090D01*
X286Y1090D01*
G37*
D02*
G36*
X288Y1088D02*
X288Y1086D01*
X290Y1086D01*
X290Y1084D01*
X292Y1084D01*
X292Y1082D01*
X296Y1082D01*
X296Y1080D01*
X298Y1080D01*
X298Y1078D01*
X300Y1078D01*
X300Y1076D01*
X302Y1076D01*
X302Y1074D01*
X304Y1074D01*
X304Y1072D01*
X306Y1072D01*
X306Y1070D01*
X310Y1070D01*
X310Y1068D01*
X312Y1068D01*
X312Y1066D01*
X314Y1066D01*
X314Y1064D01*
X316Y1064D01*
X316Y1062D01*
X318Y1062D01*
X318Y1058D01*
X320Y1058D01*
X320Y1056D01*
X322Y1056D01*
X322Y1050D01*
X324Y1050D01*
X324Y918D01*
X442Y918D01*
X442Y902D01*
X594Y902D01*
X594Y900D01*
X602Y900D01*
X602Y898D01*
X606Y898D01*
X606Y896D01*
X608Y896D01*
X608Y894D01*
X612Y894D01*
X612Y892D01*
X614Y892D01*
X614Y890D01*
X616Y890D01*
X616Y888D01*
X618Y888D01*
X618Y884D01*
X620Y884D01*
X620Y880D01*
X622Y880D01*
X622Y876D01*
X624Y876D01*
X624Y872D01*
X626Y872D01*
X626Y866D01*
X628Y866D01*
X628Y862D01*
X630Y862D01*
X630Y858D01*
X632Y858D01*
X632Y852D01*
X634Y852D01*
X634Y848D01*
X636Y848D01*
X636Y844D01*
X638Y844D01*
X638Y838D01*
X640Y838D01*
X640Y834D01*
X642Y834D01*
X642Y830D01*
X644Y830D01*
X644Y824D01*
X646Y824D01*
X646Y820D01*
X648Y820D01*
X648Y816D01*
X650Y816D01*
X650Y810D01*
X652Y810D01*
X652Y806D01*
X654Y806D01*
X654Y802D01*
X656Y802D01*
X656Y796D01*
X658Y796D01*
X658Y792D01*
X660Y792D01*
X660Y788D01*
X662Y788D01*
X662Y782D01*
X664Y782D01*
X664Y778D01*
X666Y778D01*
X666Y774D01*
X668Y774D01*
X668Y768D01*
X670Y768D01*
X670Y764D01*
X672Y764D01*
X672Y760D01*
X674Y760D01*
X674Y754D01*
X676Y754D01*
X676Y750D01*
X678Y750D01*
X678Y746D01*
X680Y746D01*
X680Y740D01*
X682Y740D01*
X682Y736D01*
X684Y736D01*
X684Y734D01*
X688Y734D01*
X688Y732D01*
X692Y732D01*
X692Y730D01*
X694Y730D01*
X694Y728D01*
X696Y728D01*
X696Y726D01*
X698Y726D01*
X698Y724D01*
X700Y724D01*
X700Y722D01*
X702Y722D01*
X702Y720D01*
X704Y720D01*
X704Y718D01*
X706Y718D01*
X706Y714D01*
X708Y714D01*
X708Y710D01*
X710Y710D01*
X710Y704D01*
X712Y704D01*
X712Y696D01*
X714Y696D01*
X714Y684D01*
X712Y684D01*
X712Y676D01*
X710Y676D01*
X710Y670D01*
X708Y670D01*
X708Y666D01*
X706Y666D01*
X706Y662D01*
X704Y662D01*
X704Y660D01*
X702Y660D01*
X702Y658D01*
X700Y658D01*
X700Y654D01*
X696Y654D01*
X696Y652D01*
X694Y652D01*
X694Y634D01*
X776Y634D01*
X776Y636D01*
X778Y636D01*
X778Y638D01*
X780Y638D01*
X780Y640D01*
X784Y640D01*
X784Y642D01*
X786Y642D01*
X786Y644D01*
X788Y644D01*
X788Y646D01*
X792Y646D01*
X792Y648D01*
X794Y648D01*
X794Y650D01*
X796Y650D01*
X796Y652D01*
X800Y652D01*
X800Y654D01*
X802Y654D01*
X802Y656D01*
X804Y656D01*
X804Y658D01*
X808Y658D01*
X808Y660D01*
X810Y660D01*
X810Y662D01*
X812Y662D01*
X812Y664D01*
X814Y664D01*
X814Y666D01*
X818Y666D01*
X818Y668D01*
X820Y668D01*
X820Y670D01*
X822Y670D01*
X822Y672D01*
X826Y672D01*
X826Y674D01*
X828Y674D01*
X828Y676D01*
X830Y676D01*
X830Y678D01*
X834Y678D01*
X834Y680D01*
X836Y680D01*
X836Y682D01*
X838Y682D01*
X838Y684D01*
X842Y684D01*
X842Y686D01*
X844Y686D01*
X844Y1088D01*
X288Y1088D01*
G37*
D02*
G36*
X40Y918D02*
X40Y812D01*
X178Y812D01*
X178Y814D01*
X170Y814D01*
X170Y816D01*
X166Y816D01*
X166Y818D01*
X162Y818D01*
X162Y820D01*
X158Y820D01*
X158Y822D01*
X156Y822D01*
X156Y824D01*
X154Y824D01*
X154Y826D01*
X152Y826D01*
X152Y828D01*
X150Y828D01*
X150Y830D01*
X148Y830D01*
X148Y832D01*
X146Y832D01*
X146Y834D01*
X144Y834D01*
X144Y838D01*
X142Y838D01*
X142Y842D01*
X140Y842D01*
X140Y846D01*
X138Y846D01*
X138Y854D01*
X136Y854D01*
X136Y876D01*
X138Y876D01*
X138Y882D01*
X140Y882D01*
X140Y888D01*
X142Y888D01*
X142Y892D01*
X144Y892D01*
X144Y894D01*
X146Y894D01*
X146Y898D01*
X148Y898D01*
X148Y900D01*
X150Y900D01*
X150Y902D01*
X152Y902D01*
X152Y904D01*
X154Y904D01*
X154Y906D01*
X158Y906D01*
X158Y908D01*
X160Y908D01*
X160Y910D01*
X164Y910D01*
X164Y912D01*
X168Y912D01*
X168Y914D01*
X172Y914D01*
X172Y916D01*
X180Y916D01*
X180Y918D01*
X40Y918D01*
G37*
D02*
G36*
X1384Y858D02*
X1384Y856D01*
X2276Y856D01*
X2276Y858D01*
X1384Y858D01*
G37*
D02*
G36*
X1384Y858D02*
X1384Y856D01*
X2276Y856D01*
X2276Y858D01*
X1384Y858D01*
G37*
D02*
G36*
X1384Y856D02*
X1384Y768D01*
X1926Y768D01*
X1926Y766D01*
X1932Y766D01*
X1932Y764D01*
X1936Y764D01*
X1936Y762D01*
X1940Y762D01*
X1940Y760D01*
X1944Y760D01*
X1944Y758D01*
X1946Y758D01*
X1946Y756D01*
X1948Y756D01*
X1948Y754D01*
X1952Y754D01*
X1952Y750D01*
X1954Y750D01*
X1954Y748D01*
X1956Y748D01*
X1956Y746D01*
X1958Y746D01*
X1958Y742D01*
X1960Y742D01*
X1960Y740D01*
X1962Y740D01*
X1962Y736D01*
X1964Y736D01*
X1964Y730D01*
X1966Y730D01*
X1966Y720D01*
X1968Y720D01*
X1968Y710D01*
X1966Y710D01*
X1966Y700D01*
X1964Y700D01*
X1964Y694D01*
X1962Y694D01*
X1962Y690D01*
X1960Y690D01*
X1960Y686D01*
X1958Y686D01*
X1958Y684D01*
X1956Y684D01*
X1956Y680D01*
X1954Y680D01*
X1954Y678D01*
X1952Y678D01*
X1952Y676D01*
X1950Y676D01*
X1950Y674D01*
X1946Y674D01*
X1946Y672D01*
X1944Y672D01*
X1944Y670D01*
X1942Y670D01*
X1942Y668D01*
X1938Y668D01*
X1938Y666D01*
X1934Y666D01*
X1934Y664D01*
X1928Y664D01*
X1928Y662D01*
X2276Y662D01*
X2276Y856D01*
X1384Y856D01*
G37*
D02*
G36*
X228Y830D02*
X228Y828D01*
X226Y828D01*
X226Y826D01*
X224Y826D01*
X224Y824D01*
X220Y824D01*
X220Y822D01*
X218Y822D01*
X218Y820D01*
X214Y820D01*
X214Y818D01*
X212Y818D01*
X212Y816D01*
X206Y816D01*
X206Y814D01*
X200Y814D01*
X200Y812D01*
X278Y812D01*
X278Y814D01*
X270Y814D01*
X270Y816D01*
X266Y816D01*
X266Y818D01*
X262Y818D01*
X262Y820D01*
X258Y820D01*
X258Y822D01*
X256Y822D01*
X256Y824D01*
X254Y824D01*
X254Y826D01*
X252Y826D01*
X252Y828D01*
X250Y828D01*
X250Y830D01*
X228Y830D01*
G37*
D02*
G36*
X454Y830D02*
X454Y828D01*
X442Y828D01*
X442Y812D01*
X572Y812D01*
X572Y814D01*
X570Y814D01*
X570Y818D01*
X568Y818D01*
X568Y824D01*
X566Y824D01*
X566Y828D01*
X564Y828D01*
X564Y830D01*
X454Y830D01*
G37*
D02*
G36*
X314Y820D02*
X314Y818D01*
X312Y818D01*
X312Y816D01*
X306Y816D01*
X306Y814D01*
X300Y814D01*
X300Y812D01*
X336Y812D01*
X336Y820D01*
X314Y820D01*
G37*
D02*
G36*
X40Y812D02*
X40Y810D01*
X572Y810D01*
X572Y812D01*
X40Y812D01*
G37*
D02*
G36*
X40Y812D02*
X40Y810D01*
X572Y810D01*
X572Y812D01*
X40Y812D01*
G37*
D02*
G36*
X40Y812D02*
X40Y810D01*
X572Y810D01*
X572Y812D01*
X40Y812D01*
G37*
D02*
G36*
X40Y812D02*
X40Y810D01*
X572Y810D01*
X572Y812D01*
X40Y812D01*
G37*
D02*
G36*
X40Y810D02*
X40Y638D01*
X282Y638D01*
X282Y630D01*
X416Y630D01*
X416Y632D01*
X632Y632D01*
X632Y652D01*
X630Y652D01*
X630Y654D01*
X628Y654D01*
X628Y656D01*
X626Y656D01*
X626Y658D01*
X624Y658D01*
X624Y662D01*
X622Y662D01*
X622Y664D01*
X620Y664D01*
X620Y668D01*
X618Y668D01*
X618Y674D01*
X616Y674D01*
X616Y680D01*
X614Y680D01*
X614Y716D01*
X612Y716D01*
X612Y722D01*
X610Y722D01*
X610Y726D01*
X608Y726D01*
X608Y730D01*
X606Y730D01*
X606Y736D01*
X604Y736D01*
X604Y740D01*
X602Y740D01*
X602Y744D01*
X600Y744D01*
X600Y750D01*
X598Y750D01*
X598Y754D01*
X596Y754D01*
X596Y758D01*
X594Y758D01*
X594Y764D01*
X592Y764D01*
X592Y768D01*
X590Y768D01*
X590Y772D01*
X588Y772D01*
X588Y778D01*
X586Y778D01*
X586Y782D01*
X584Y782D01*
X584Y786D01*
X582Y786D01*
X582Y792D01*
X580Y792D01*
X580Y796D01*
X578Y796D01*
X578Y800D01*
X576Y800D01*
X576Y804D01*
X574Y804D01*
X574Y810D01*
X40Y810D01*
G37*
D02*
G36*
X1384Y768D02*
X1384Y662D01*
X1900Y662D01*
X1900Y664D01*
X1894Y664D01*
X1894Y666D01*
X1890Y666D01*
X1890Y668D01*
X1886Y668D01*
X1886Y670D01*
X1882Y670D01*
X1882Y672D01*
X1880Y672D01*
X1880Y674D01*
X1878Y674D01*
X1878Y676D01*
X1876Y676D01*
X1876Y678D01*
X1874Y678D01*
X1874Y680D01*
X1872Y680D01*
X1872Y682D01*
X1870Y682D01*
X1870Y686D01*
X1868Y686D01*
X1868Y688D01*
X1866Y688D01*
X1866Y692D01*
X1864Y692D01*
X1864Y698D01*
X1862Y698D01*
X1862Y706D01*
X1860Y706D01*
X1860Y724D01*
X1862Y724D01*
X1862Y732D01*
X1864Y732D01*
X1864Y736D01*
X1866Y736D01*
X1866Y740D01*
X1868Y740D01*
X1868Y744D01*
X1870Y744D01*
X1870Y746D01*
X1872Y746D01*
X1872Y750D01*
X1874Y750D01*
X1874Y752D01*
X1876Y752D01*
X1876Y754D01*
X1878Y754D01*
X1878Y756D01*
X1882Y756D01*
X1882Y758D01*
X1884Y758D01*
X1884Y760D01*
X1888Y760D01*
X1888Y762D01*
X1890Y762D01*
X1890Y764D01*
X1896Y764D01*
X1896Y766D01*
X1902Y766D01*
X1902Y768D01*
X1384Y768D01*
G37*
D02*
G36*
X1384Y662D02*
X1384Y660D01*
X2276Y660D01*
X2276Y662D01*
X1384Y662D01*
G37*
D02*
G36*
X1384Y662D02*
X1384Y660D01*
X2276Y660D01*
X2276Y662D01*
X1384Y662D01*
G37*
D02*
G36*
X1384Y660D02*
X1384Y624D01*
X1382Y624D01*
X1382Y532D01*
X1384Y532D01*
X1384Y530D01*
X1386Y530D01*
X1386Y528D01*
X1388Y528D01*
X1388Y526D01*
X1390Y526D01*
X1390Y524D01*
X1392Y524D01*
X1392Y522D01*
X1394Y522D01*
X1394Y520D01*
X1396Y520D01*
X1396Y518D01*
X1968Y518D01*
X1968Y412D01*
X2276Y412D01*
X2276Y660D01*
X1384Y660D01*
G37*
D02*
G36*
X40Y638D02*
X40Y534D01*
X178Y534D01*
X178Y636D01*
X180Y636D01*
X180Y638D01*
X40Y638D01*
G37*
D02*
G36*
X558Y544D02*
X558Y542D01*
X282Y542D01*
X282Y534D01*
X628Y534D01*
X628Y544D01*
X558Y544D01*
G37*
D02*
G36*
X40Y534D02*
X40Y532D01*
X628Y532D01*
X628Y534D01*
X40Y534D01*
G37*
D02*
G36*
X40Y534D02*
X40Y532D01*
X628Y532D01*
X628Y534D01*
X40Y534D01*
G37*
D02*
G36*
X40Y532D02*
X40Y440D01*
X242Y440D01*
X242Y438D01*
X248Y438D01*
X248Y436D01*
X254Y436D01*
X254Y434D01*
X256Y434D01*
X256Y432D01*
X260Y432D01*
X260Y430D01*
X262Y430D01*
X262Y428D01*
X266Y428D01*
X266Y426D01*
X268Y426D01*
X268Y424D01*
X270Y424D01*
X270Y420D01*
X272Y420D01*
X272Y418D01*
X274Y418D01*
X274Y416D01*
X276Y416D01*
X276Y412D01*
X278Y412D01*
X278Y408D01*
X280Y408D01*
X280Y400D01*
X282Y400D01*
X282Y390D01*
X286Y390D01*
X286Y388D01*
X288Y388D01*
X288Y386D01*
X290Y386D01*
X290Y384D01*
X294Y384D01*
X294Y382D01*
X296Y382D01*
X296Y380D01*
X298Y380D01*
X298Y378D01*
X300Y378D01*
X300Y376D01*
X302Y376D01*
X302Y374D01*
X304Y374D01*
X304Y372D01*
X308Y372D01*
X308Y370D01*
X310Y370D01*
X310Y368D01*
X312Y368D01*
X312Y366D01*
X314Y366D01*
X314Y364D01*
X316Y364D01*
X316Y362D01*
X318Y362D01*
X318Y360D01*
X320Y360D01*
X320Y356D01*
X322Y356D01*
X322Y350D01*
X324Y350D01*
X324Y218D01*
X442Y218D01*
X442Y216D01*
X572Y216D01*
X572Y214D01*
X580Y214D01*
X580Y212D01*
X584Y212D01*
X584Y210D01*
X588Y210D01*
X588Y208D01*
X592Y208D01*
X592Y206D01*
X594Y206D01*
X594Y204D01*
X596Y204D01*
X596Y202D01*
X600Y202D01*
X600Y200D01*
X602Y200D01*
X602Y196D01*
X624Y196D01*
X624Y198D01*
X626Y198D01*
X626Y200D01*
X628Y200D01*
X628Y456D01*
X626Y456D01*
X626Y458D01*
X624Y458D01*
X624Y462D01*
X622Y462D01*
X622Y464D01*
X620Y464D01*
X620Y468D01*
X618Y468D01*
X618Y474D01*
X616Y474D01*
X616Y480D01*
X614Y480D01*
X614Y500D01*
X616Y500D01*
X616Y506D01*
X618Y506D01*
X618Y512D01*
X620Y512D01*
X620Y514D01*
X622Y514D01*
X622Y518D01*
X624Y518D01*
X624Y520D01*
X626Y520D01*
X626Y522D01*
X628Y522D01*
X628Y532D01*
X40Y532D01*
G37*
D02*
G36*
X1398Y518D02*
X1398Y516D01*
X1400Y516D01*
X1400Y514D01*
X1402Y514D01*
X1402Y512D01*
X1404Y512D01*
X1404Y510D01*
X1406Y510D01*
X1406Y508D01*
X1634Y508D01*
X1634Y510D01*
X1860Y510D01*
X1860Y518D01*
X1398Y518D01*
G37*
D02*
G36*
X40Y440D02*
X40Y218D01*
X196Y218D01*
X196Y216D01*
X206Y216D01*
X206Y214D01*
X210Y214D01*
X210Y212D01*
X214Y212D01*
X214Y210D01*
X218Y210D01*
X218Y208D01*
X220Y208D01*
X220Y206D01*
X222Y206D01*
X222Y204D01*
X226Y204D01*
X226Y202D01*
X228Y202D01*
X228Y198D01*
X248Y198D01*
X248Y200D01*
X250Y200D01*
X250Y202D01*
X252Y202D01*
X252Y324D01*
X250Y324D01*
X250Y326D01*
X248Y326D01*
X248Y328D01*
X246Y328D01*
X246Y330D01*
X242Y330D01*
X242Y332D01*
X240Y332D01*
X240Y334D01*
X238Y334D01*
X238Y336D01*
X224Y336D01*
X224Y338D01*
X214Y338D01*
X214Y340D01*
X210Y340D01*
X210Y342D01*
X206Y342D01*
X206Y344D01*
X202Y344D01*
X202Y346D01*
X200Y346D01*
X200Y348D01*
X198Y348D01*
X198Y350D01*
X194Y350D01*
X194Y352D01*
X192Y352D01*
X192Y356D01*
X190Y356D01*
X190Y358D01*
X188Y358D01*
X188Y360D01*
X186Y360D01*
X186Y364D01*
X184Y364D01*
X184Y368D01*
X182Y368D01*
X182Y374D01*
X180Y374D01*
X180Y384D01*
X178Y384D01*
X178Y394D01*
X180Y394D01*
X180Y404D01*
X182Y404D01*
X182Y410D01*
X184Y410D01*
X184Y412D01*
X186Y412D01*
X186Y416D01*
X188Y416D01*
X188Y420D01*
X190Y420D01*
X190Y422D01*
X192Y422D01*
X192Y424D01*
X194Y424D01*
X194Y426D01*
X196Y426D01*
X196Y428D01*
X198Y428D01*
X198Y430D01*
X202Y430D01*
X202Y432D01*
X204Y432D01*
X204Y434D01*
X208Y434D01*
X208Y436D01*
X212Y436D01*
X212Y438D01*
X220Y438D01*
X220Y440D01*
X40Y440D01*
G37*
D02*
G36*
X700Y412D02*
X700Y410D01*
X2276Y410D01*
X2276Y412D01*
X700Y412D01*
G37*
D02*
G36*
X700Y412D02*
X700Y410D01*
X2276Y410D01*
X2276Y412D01*
X700Y412D01*
G37*
D02*
G36*
X700Y410D02*
X700Y322D01*
X1920Y322D01*
X1920Y320D01*
X1930Y320D01*
X1930Y318D01*
X1936Y318D01*
X1936Y316D01*
X1938Y316D01*
X1938Y314D01*
X1942Y314D01*
X1942Y312D01*
X1946Y312D01*
X1946Y310D01*
X1948Y310D01*
X1948Y308D01*
X1950Y308D01*
X1950Y306D01*
X1952Y306D01*
X1952Y304D01*
X1954Y304D01*
X1954Y302D01*
X1956Y302D01*
X1956Y300D01*
X1958Y300D01*
X1958Y296D01*
X1960Y296D01*
X1960Y292D01*
X1962Y292D01*
X1962Y288D01*
X1964Y288D01*
X1964Y284D01*
X1966Y284D01*
X1966Y272D01*
X1968Y272D01*
X1968Y262D01*
X1966Y262D01*
X1966Y252D01*
X1964Y252D01*
X1964Y246D01*
X1962Y246D01*
X1962Y244D01*
X1960Y244D01*
X1960Y240D01*
X1958Y240D01*
X1958Y236D01*
X1956Y236D01*
X1956Y234D01*
X1954Y234D01*
X1954Y232D01*
X1952Y232D01*
X1952Y230D01*
X1950Y230D01*
X1950Y228D01*
X1948Y228D01*
X1948Y226D01*
X1946Y226D01*
X1946Y224D01*
X1942Y224D01*
X1942Y222D01*
X1940Y222D01*
X1940Y220D01*
X1936Y220D01*
X1936Y218D01*
X1930Y218D01*
X1930Y216D01*
X1922Y216D01*
X1922Y214D01*
X2276Y214D01*
X2276Y410D01*
X700Y410D01*
G37*
D02*
G36*
X700Y322D02*
X700Y216D01*
X772Y216D01*
X772Y214D01*
X1906Y214D01*
X1906Y216D01*
X1896Y216D01*
X1896Y218D01*
X1892Y218D01*
X1892Y220D01*
X1888Y220D01*
X1888Y222D01*
X1884Y222D01*
X1884Y224D01*
X1882Y224D01*
X1882Y226D01*
X1880Y226D01*
X1880Y228D01*
X1876Y228D01*
X1876Y230D01*
X1874Y230D01*
X1874Y234D01*
X1872Y234D01*
X1872Y236D01*
X1870Y236D01*
X1870Y238D01*
X1868Y238D01*
X1868Y242D01*
X1866Y242D01*
X1866Y246D01*
X1864Y246D01*
X1864Y250D01*
X1862Y250D01*
X1862Y258D01*
X1860Y258D01*
X1860Y278D01*
X1862Y278D01*
X1862Y286D01*
X1864Y286D01*
X1864Y290D01*
X1866Y290D01*
X1866Y294D01*
X1868Y294D01*
X1868Y298D01*
X1870Y298D01*
X1870Y300D01*
X1872Y300D01*
X1872Y302D01*
X1874Y302D01*
X1874Y304D01*
X1876Y304D01*
X1876Y306D01*
X1878Y306D01*
X1878Y308D01*
X1880Y308D01*
X1880Y310D01*
X1882Y310D01*
X1882Y312D01*
X1886Y312D01*
X1886Y314D01*
X1888Y314D01*
X1888Y316D01*
X1892Y316D01*
X1892Y318D01*
X1898Y318D01*
X1898Y320D01*
X1908Y320D01*
X1908Y322D01*
X700Y322D01*
G37*
D02*
G36*
X40Y218D02*
X40Y112D01*
X178Y112D01*
X178Y114D01*
X170Y114D01*
X170Y116D01*
X166Y116D01*
X166Y118D01*
X162Y118D01*
X162Y120D01*
X158Y120D01*
X158Y122D01*
X156Y122D01*
X156Y124D01*
X154Y124D01*
X154Y126D01*
X152Y126D01*
X152Y128D01*
X150Y128D01*
X150Y130D01*
X148Y130D01*
X148Y132D01*
X146Y132D01*
X146Y134D01*
X144Y134D01*
X144Y138D01*
X142Y138D01*
X142Y142D01*
X140Y142D01*
X140Y146D01*
X138Y146D01*
X138Y154D01*
X136Y154D01*
X136Y176D01*
X138Y176D01*
X138Y182D01*
X140Y182D01*
X140Y188D01*
X142Y188D01*
X142Y192D01*
X144Y192D01*
X144Y194D01*
X146Y194D01*
X146Y198D01*
X148Y198D01*
X148Y200D01*
X150Y200D01*
X150Y202D01*
X152Y202D01*
X152Y204D01*
X154Y204D01*
X154Y206D01*
X158Y206D01*
X158Y208D01*
X160Y208D01*
X160Y210D01*
X164Y210D01*
X164Y212D01*
X168Y212D01*
X168Y214D01*
X172Y214D01*
X172Y216D01*
X180Y216D01*
X180Y218D01*
X40Y218D01*
G37*
D02*
G36*
X442Y216D02*
X442Y200D01*
X528Y200D01*
X528Y202D01*
X530Y202D01*
X530Y204D01*
X532Y204D01*
X532Y206D01*
X536Y206D01*
X536Y208D01*
X538Y208D01*
X538Y210D01*
X542Y210D01*
X542Y212D01*
X548Y212D01*
X548Y214D01*
X556Y214D01*
X556Y216D01*
X442Y216D01*
G37*
D02*
G36*
X700Y216D02*
X700Y200D01*
X702Y200D01*
X702Y196D01*
X724Y196D01*
X724Y198D01*
X726Y198D01*
X726Y200D01*
X728Y200D01*
X728Y202D01*
X730Y202D01*
X730Y204D01*
X732Y204D01*
X732Y206D01*
X736Y206D01*
X736Y208D01*
X738Y208D01*
X738Y210D01*
X742Y210D01*
X742Y212D01*
X748Y212D01*
X748Y214D01*
X756Y214D01*
X756Y216D01*
X700Y216D01*
G37*
D02*
G36*
X780Y214D02*
X780Y212D01*
X2276Y212D01*
X2276Y214D01*
X780Y214D01*
G37*
D02*
G36*
X780Y214D02*
X780Y212D01*
X2276Y212D01*
X2276Y214D01*
X780Y214D01*
G37*
D02*
G36*
X784Y212D02*
X784Y210D01*
X788Y210D01*
X788Y208D01*
X792Y208D01*
X792Y206D01*
X794Y206D01*
X794Y204D01*
X796Y204D01*
X796Y202D01*
X800Y202D01*
X800Y200D01*
X802Y200D01*
X802Y196D01*
X804Y196D01*
X804Y194D01*
X806Y194D01*
X806Y192D01*
X808Y192D01*
X808Y188D01*
X810Y188D01*
X810Y184D01*
X812Y184D01*
X812Y178D01*
X814Y178D01*
X814Y152D01*
X812Y152D01*
X812Y146D01*
X810Y146D01*
X810Y142D01*
X808Y142D01*
X808Y138D01*
X806Y138D01*
X806Y136D01*
X804Y136D01*
X804Y132D01*
X802Y132D01*
X802Y130D01*
X800Y130D01*
X800Y128D01*
X798Y128D01*
X798Y126D01*
X796Y126D01*
X796Y124D01*
X792Y124D01*
X792Y122D01*
X790Y122D01*
X790Y120D01*
X786Y120D01*
X786Y118D01*
X782Y118D01*
X782Y116D01*
X774Y116D01*
X774Y114D01*
X2276Y114D01*
X2276Y212D01*
X784Y212D01*
G37*
D02*
G36*
X604Y134D02*
X604Y132D01*
X602Y132D01*
X602Y130D01*
X600Y130D01*
X600Y128D01*
X598Y128D01*
X598Y126D01*
X596Y126D01*
X596Y124D01*
X592Y124D01*
X592Y122D01*
X590Y122D01*
X590Y120D01*
X586Y120D01*
X586Y118D01*
X582Y118D01*
X582Y116D01*
X574Y116D01*
X574Y114D01*
X652Y114D01*
X652Y116D01*
X646Y116D01*
X646Y118D01*
X642Y118D01*
X642Y120D01*
X638Y120D01*
X638Y122D01*
X634Y122D01*
X634Y124D01*
X632Y124D01*
X632Y126D01*
X630Y126D01*
X630Y128D01*
X628Y128D01*
X628Y130D01*
X626Y130D01*
X626Y132D01*
X624Y132D01*
X624Y134D01*
X604Y134D01*
G37*
D02*
G36*
X704Y134D02*
X704Y132D01*
X702Y132D01*
X702Y130D01*
X700Y130D01*
X700Y128D01*
X698Y128D01*
X698Y126D01*
X696Y126D01*
X696Y124D01*
X692Y124D01*
X692Y122D01*
X690Y122D01*
X690Y120D01*
X686Y120D01*
X686Y118D01*
X682Y118D01*
X682Y116D01*
X674Y116D01*
X674Y114D01*
X752Y114D01*
X752Y116D01*
X746Y116D01*
X746Y118D01*
X742Y118D01*
X742Y120D01*
X738Y120D01*
X738Y122D01*
X734Y122D01*
X734Y124D01*
X732Y124D01*
X732Y126D01*
X730Y126D01*
X730Y128D01*
X728Y128D01*
X728Y130D01*
X726Y130D01*
X726Y132D01*
X724Y132D01*
X724Y134D01*
X704Y134D01*
G37*
D02*
G36*
X228Y130D02*
X228Y128D01*
X226Y128D01*
X226Y126D01*
X224Y126D01*
X224Y124D01*
X220Y124D01*
X220Y122D01*
X218Y122D01*
X218Y120D01*
X214Y120D01*
X214Y118D01*
X212Y118D01*
X212Y116D01*
X206Y116D01*
X206Y114D01*
X200Y114D01*
X200Y112D01*
X278Y112D01*
X278Y114D01*
X270Y114D01*
X270Y116D01*
X266Y116D01*
X266Y118D01*
X262Y118D01*
X262Y120D01*
X258Y120D01*
X258Y122D01*
X256Y122D01*
X256Y124D01*
X254Y124D01*
X254Y126D01*
X252Y126D01*
X252Y128D01*
X250Y128D01*
X250Y130D01*
X228Y130D01*
G37*
D02*
G36*
X442Y128D02*
X442Y114D01*
X552Y114D01*
X552Y116D01*
X546Y116D01*
X546Y118D01*
X542Y118D01*
X542Y120D01*
X538Y120D01*
X538Y122D01*
X534Y122D01*
X534Y124D01*
X532Y124D01*
X532Y126D01*
X530Y126D01*
X530Y128D01*
X442Y128D01*
G37*
D02*
G36*
X314Y120D02*
X314Y118D01*
X312Y118D01*
X312Y116D01*
X306Y116D01*
X306Y114D01*
X300Y114D01*
X300Y112D01*
X336Y112D01*
X336Y120D01*
X314Y120D01*
G37*
D02*
G36*
X442Y114D02*
X442Y112D01*
X2276Y112D01*
X2276Y114D01*
X442Y114D01*
G37*
D02*
G36*
X442Y114D02*
X442Y112D01*
X2276Y112D01*
X2276Y114D01*
X442Y114D01*
G37*
D02*
G36*
X442Y114D02*
X442Y112D01*
X2276Y112D01*
X2276Y114D01*
X442Y114D01*
G37*
D02*
G36*
X442Y114D02*
X442Y112D01*
X2276Y112D01*
X2276Y114D01*
X442Y114D01*
G37*
D02*
G36*
X40Y112D02*
X40Y110D01*
X2276Y110D01*
X2276Y112D01*
X40Y112D01*
G37*
D02*
G36*
X40Y112D02*
X40Y110D01*
X2276Y110D01*
X2276Y112D01*
X40Y112D01*
G37*
D02*
G36*
X40Y112D02*
X40Y110D01*
X2276Y110D01*
X2276Y112D01*
X40Y112D01*
G37*
D02*
G36*
X40Y112D02*
X40Y110D01*
X2276Y110D01*
X2276Y112D01*
X40Y112D01*
G37*
D02*
G36*
X40Y110D02*
X40Y40D01*
X2276Y40D01*
X2276Y110D01*
X40Y110D01*
G37*
D02*
G36*
X739Y220D02*
X784Y220D01*
X784Y186D01*
X739Y186D01*
X739Y220D01*
G37*
D02*
G36*
X739Y148D02*
X784Y148D01*
X784Y114D01*
X739Y114D01*
X739Y148D01*
G37*
D02*
G36*
X780Y189D02*
X814Y189D01*
X814Y144D01*
X780Y144D01*
X780Y189D01*
G37*
D02*
G36*
X164Y222D02*
X211Y222D01*
X211Y188D01*
X164Y188D01*
X164Y222D01*
G37*
D02*
G36*
X164Y146D02*
X211Y146D01*
X211Y112D01*
X164Y112D01*
X164Y146D01*
G37*
D02*
G36*
X132Y190D02*
X166Y190D01*
X166Y143D01*
X132Y143D01*
X132Y190D01*
G37*
D02*
G36*
X164Y922D02*
X211Y922D01*
X211Y888D01*
X164Y888D01*
X164Y922D01*
G37*
D02*
G36*
X164Y846D02*
X211Y846D01*
X211Y812D01*
X164Y812D01*
X164Y846D01*
G37*
D02*
G36*
X132Y890D02*
X166Y890D01*
X166Y843D01*
X132Y843D01*
X132Y890D01*
G37*
D02*
G36*
X616Y1124D02*
X659Y1124D01*
X659Y1090D01*
X616Y1090D01*
X616Y1124D01*
G37*
D02*
G36*
X586Y1162D02*
X620Y1162D01*
X620Y1119D01*
X586Y1119D01*
X586Y1162D01*
G37*
D02*
G36*
X654Y1162D02*
X688Y1162D01*
X688Y1119D01*
X654Y1119D01*
X654Y1162D01*
G37*
D02*
G36*
X1990Y1294D02*
X2033Y1294D01*
X2033Y1258D01*
X1990Y1258D01*
X1990Y1294D01*
G37*
D02*
G36*
X1990Y1224D02*
X2033Y1224D01*
X2033Y1190D01*
X1990Y1190D01*
X1990Y1224D01*
G37*
D02*
G36*
X1960Y1262D02*
X1994Y1262D01*
X1994Y1219D01*
X1960Y1219D01*
X1960Y1262D01*
G37*
D02*
G36*
X2028Y1262D02*
X2064Y1262D01*
X2064Y1219D01*
X2028Y1219D01*
X2028Y1262D01*
G37*
D02*
G36*
X964Y1296D02*
X1011Y1296D01*
X1011Y1262D01*
X964Y1262D01*
X964Y1296D01*
G37*
D02*
G36*
X964Y1220D02*
X1011Y1220D01*
X1011Y1186D01*
X964Y1186D01*
X964Y1220D01*
G37*
D02*
G36*
X1414Y1220D02*
X1461Y1220D01*
X1461Y1186D01*
X1414Y1186D01*
X1414Y1220D01*
G37*
D02*
G36*
X1888Y326D02*
X1935Y326D01*
X1935Y292D01*
X1888Y292D01*
X1888Y326D01*
G37*
D02*
G36*
X1888Y250D02*
X1935Y250D01*
X1935Y214D01*
X1888Y214D01*
X1888Y250D01*
G37*
D02*
G36*
X1856Y294D02*
X1890Y294D01*
X1890Y247D01*
X1856Y247D01*
X1856Y294D01*
G37*
D02*
G36*
X1932Y294D02*
X1968Y294D01*
X1968Y247D01*
X1932Y247D01*
X1932Y294D01*
G37*
D02*
G36*
X1888Y772D02*
X1935Y772D01*
X1935Y738D01*
X1888Y738D01*
X1888Y772D01*
G37*
D02*
G36*
X1888Y696D02*
X1935Y696D01*
X1935Y662D01*
X1888Y662D01*
X1888Y696D01*
G37*
D02*
G36*
X1856Y740D02*
X1890Y740D01*
X1890Y693D01*
X1856Y693D01*
X1856Y740D01*
G37*
D02*
G36*
X1932Y740D02*
X1968Y740D01*
X1968Y693D01*
X1932Y693D01*
X1932Y740D01*
G37*
D02*
G04 End of Copper0*
M02*