; NON-PLATED HOLES START AT T1
; THROUGH (PLATED) HOLES START AT T100
M48
INCH
T100C0.035433
T101C0.035000
T102C0.040000
T103C0.042000
T104C0.043307
T105C0.038000
%
T100
X006636Y006901
X006636Y004901
T101
X018136Y012401
X020136Y012401
X006386Y012401
X006386Y011401
T102
X002306Y010887
X002306Y005856
X002306Y003887
X002306Y012856
T103
X003886Y008651
X001886Y001651
X002886Y008651
X015386Y012401
X008886Y012401
X001886Y008651
X013386Y012401
X002886Y001651
X003886Y001651
X014386Y012401
X010886Y012401
X009886Y012401
T104
X019136Y002682
X019136Y004651
X019136Y009119
X019136Y007151
T105
X007636Y001651
X005636Y001651
X006636Y001651
T00
M30
