G04 MADE WITH FRITZING*
G04 WWW.FRITZING.ORG*
G04 SINGLE SIDED*
G04 HOLES NOT PLATED*
G04 CONTOUR ON CENTER OF CONTOUR VECTOR*
%ASAXBY*%
%FSLAX23Y23*%
%MOIN*%
%OFA0B0*%
%SFA1.0B1.0*%
%ADD10C,0.084000*%
%ADD11C,0.085000*%
%ADD12C,0.097244*%
%ADD13C,0.088000*%
%ADD14R,0.084000X0.084000*%
%ADD15R,0.085000X0.085000*%
%LNMASK0*%
G90*
G70*
G54D10*
X683Y1179D03*
X683Y1079D03*
X683Y979D03*
X683Y879D03*
X683Y779D03*
X683Y679D03*
X683Y579D03*
X683Y479D03*
X683Y379D03*
X683Y279D03*
X683Y179D03*
X683Y79D03*
X83Y79D03*
X83Y179D03*
X83Y279D03*
X83Y379D03*
X83Y479D03*
X83Y579D03*
X83Y679D03*
X83Y779D03*
X83Y879D03*
X83Y979D03*
X83Y1079D03*
X83Y1179D03*
G54D11*
X296Y679D03*
X296Y979D03*
X396Y679D03*
X396Y979D03*
X496Y679D03*
X496Y979D03*
X596Y679D03*
X596Y979D03*
G54D10*
X408Y279D03*
X408Y579D03*
G54D11*
X308Y579D03*
X308Y279D03*
G54D12*
X358Y117D03*
X521Y117D03*
G54D11*
X283Y1142D03*
X583Y1142D03*
G54D13*
X183Y979D03*
X183Y879D03*
X183Y779D03*
X183Y679D03*
X183Y579D03*
X183Y479D03*
X183Y379D03*
X183Y279D03*
X183Y179D03*
X183Y79D03*
G54D14*
X83Y1179D03*
G54D15*
X296Y679D03*
G04 End of Mask0*
M02*