G04 MADE WITH FRITZING*
G04 WWW.FRITZING.ORG*
G04 SINGLE SIDED*
G04 HOLES NOT PLATED*
G04 CONTOUR ON CENTER OF CONTOUR VECTOR*
%ASAXBY*%
%FSLAX23Y23*%
%MOIN*%
%OFA0B0*%
%SFA1.0B1.0*%
%ADD10C,0.075000*%
%ADD11C,0.074000*%
%ADD12C,0.087244*%
%ADD13C,0.078000*%
%ADD14R,0.074000X0.074000*%
%ADD15R,0.075000X0.075000*%
%ADD16C,0.048000*%
%LNCOPPER0*%
G90*
G70*
G54D10*
X612Y1284D03*
X399Y1138D03*
X290Y829D03*
X568Y359D03*
G54D11*
X683Y1179D03*
X683Y1079D03*
X683Y979D03*
X683Y879D03*
X683Y779D03*
X683Y679D03*
X683Y579D03*
X683Y479D03*
X683Y379D03*
X683Y279D03*
X683Y179D03*
X683Y79D03*
X83Y79D03*
X83Y179D03*
X83Y279D03*
X83Y379D03*
X83Y479D03*
X83Y579D03*
X83Y679D03*
X83Y779D03*
X83Y879D03*
X83Y979D03*
X83Y1079D03*
X83Y1179D03*
G54D10*
X296Y679D03*
X296Y979D03*
X396Y679D03*
X396Y979D03*
X496Y679D03*
X496Y979D03*
X596Y679D03*
X596Y979D03*
G54D11*
X408Y279D03*
X408Y579D03*
G54D10*
X308Y579D03*
X308Y279D03*
G54D12*
X358Y117D03*
X521Y117D03*
G54D10*
X283Y1142D03*
X583Y1142D03*
G54D13*
X183Y979D03*
X183Y879D03*
X183Y779D03*
X183Y679D03*
X183Y579D03*
X183Y479D03*
X183Y379D03*
X183Y279D03*
X183Y179D03*
X183Y79D03*
G54D14*
X83Y1179D03*
G54D15*
X296Y679D03*
G54D16*
X429Y313D02*
X510Y440D01*
D02*
X510Y440D02*
X510Y578D01*
D02*
X510Y578D02*
X501Y640D01*
D02*
X400Y640D02*
X403Y619D01*
D02*
X426Y243D02*
X445Y204D01*
D02*
X445Y204D02*
X491Y151D01*
D02*
X368Y579D02*
X348Y579D01*
D02*
X583Y1181D02*
X583Y1191D01*
D02*
X583Y1191D02*
X532Y1242D01*
D02*
X532Y1242D02*
X245Y1242D01*
D02*
X182Y1179D02*
X158Y1103D01*
D02*
X245Y1242D02*
X182Y1179D01*
D02*
X158Y1103D02*
X123Y1092D01*
D02*
X320Y241D02*
X345Y160D01*
D02*
X551Y1118D02*
X482Y1066D01*
D02*
X482Y1066D02*
X489Y1018D01*
D02*
X283Y1102D02*
X283Y1078D01*
D02*
X283Y1078D02*
X290Y1018D01*
D02*
X641Y879D02*
X359Y879D01*
D02*
X283Y955D02*
X277Y944D01*
D02*
X359Y879D02*
X283Y955D01*
D02*
X620Y1053D02*
X608Y1017D01*
D02*
X644Y1063D02*
X620Y1053D01*
D02*
X267Y979D02*
X213Y979D01*
D02*
X153Y879D02*
X114Y879D01*
D02*
X153Y779D02*
X114Y779D01*
D02*
X153Y679D02*
X114Y679D01*
D02*
X153Y579D02*
X114Y579D01*
D02*
X153Y479D02*
X114Y479D01*
D02*
X153Y379D02*
X114Y379D01*
D02*
X153Y279D02*
X114Y279D01*
D02*
X153Y179D02*
X114Y179D01*
D02*
X153Y79D02*
X114Y79D01*
G36*
X40Y1339D02*
X40Y1277D01*
X542Y1277D01*
X542Y1275D01*
X548Y1275D01*
X548Y1273D01*
X552Y1273D01*
X552Y1271D01*
X554Y1271D01*
X554Y1269D01*
X556Y1269D01*
X556Y1267D01*
X558Y1267D01*
X558Y1265D01*
X560Y1265D01*
X560Y1263D01*
X562Y1263D01*
X562Y1261D01*
X564Y1261D01*
X564Y1259D01*
X566Y1259D01*
X566Y1257D01*
X568Y1257D01*
X568Y1255D01*
X570Y1255D01*
X570Y1253D01*
X572Y1253D01*
X572Y1251D01*
X574Y1251D01*
X574Y1249D01*
X576Y1249D01*
X576Y1247D01*
X578Y1247D01*
X578Y1245D01*
X580Y1245D01*
X580Y1243D01*
X582Y1243D01*
X582Y1241D01*
X584Y1241D01*
X584Y1239D01*
X586Y1239D01*
X586Y1237D01*
X588Y1237D01*
X588Y1235D01*
X590Y1235D01*
X590Y1233D01*
X592Y1233D01*
X592Y1231D01*
X594Y1231D01*
X594Y1229D01*
X684Y1229D01*
X684Y1227D01*
X696Y1227D01*
X696Y1225D01*
X702Y1225D01*
X702Y1223D01*
X724Y1223D01*
X724Y1339D01*
X40Y1339D01*
G37*
D02*
G36*
X40Y1277D02*
X40Y1229D01*
X132Y1229D01*
X132Y1197D01*
X152Y1197D01*
X152Y1201D01*
X154Y1201D01*
X154Y1203D01*
X156Y1203D01*
X156Y1205D01*
X158Y1205D01*
X158Y1207D01*
X160Y1207D01*
X160Y1209D01*
X162Y1209D01*
X162Y1211D01*
X164Y1211D01*
X164Y1213D01*
X166Y1213D01*
X166Y1215D01*
X168Y1215D01*
X168Y1217D01*
X170Y1217D01*
X170Y1219D01*
X172Y1219D01*
X172Y1221D01*
X174Y1221D01*
X174Y1223D01*
X176Y1223D01*
X176Y1225D01*
X178Y1225D01*
X178Y1227D01*
X180Y1227D01*
X180Y1229D01*
X182Y1229D01*
X182Y1231D01*
X184Y1231D01*
X184Y1233D01*
X186Y1233D01*
X186Y1235D01*
X188Y1235D01*
X188Y1237D01*
X190Y1237D01*
X190Y1239D01*
X192Y1239D01*
X192Y1241D01*
X194Y1241D01*
X194Y1243D01*
X196Y1243D01*
X196Y1245D01*
X198Y1245D01*
X198Y1247D01*
X200Y1247D01*
X200Y1249D01*
X202Y1249D01*
X202Y1251D01*
X204Y1251D01*
X204Y1253D01*
X206Y1253D01*
X206Y1255D01*
X208Y1255D01*
X208Y1257D01*
X210Y1257D01*
X210Y1259D01*
X212Y1259D01*
X212Y1261D01*
X214Y1261D01*
X214Y1263D01*
X216Y1263D01*
X216Y1265D01*
X218Y1265D01*
X218Y1267D01*
X220Y1267D01*
X220Y1269D01*
X222Y1269D01*
X222Y1271D01*
X226Y1271D01*
X226Y1273D01*
X230Y1273D01*
X230Y1275D01*
X234Y1275D01*
X234Y1277D01*
X40Y1277D01*
G37*
D02*
G36*
X596Y1229D02*
X596Y1227D01*
X598Y1227D01*
X598Y1225D01*
X600Y1225D01*
X600Y1223D01*
X602Y1223D01*
X602Y1221D01*
X604Y1221D01*
X604Y1219D01*
X606Y1219D01*
X606Y1217D01*
X608Y1217D01*
X608Y1215D01*
X610Y1215D01*
X610Y1213D01*
X612Y1213D01*
X612Y1211D01*
X614Y1211D01*
X614Y1207D01*
X616Y1207D01*
X616Y1201D01*
X618Y1201D01*
X618Y1195D01*
X638Y1195D01*
X638Y1201D01*
X640Y1201D01*
X640Y1203D01*
X642Y1203D01*
X642Y1207D01*
X644Y1207D01*
X644Y1209D01*
X646Y1209D01*
X646Y1211D01*
X648Y1211D01*
X648Y1215D01*
X652Y1215D01*
X652Y1217D01*
X654Y1217D01*
X654Y1219D01*
X656Y1219D01*
X656Y1221D01*
X660Y1221D01*
X660Y1223D01*
X664Y1223D01*
X664Y1225D01*
X670Y1225D01*
X670Y1227D01*
X682Y1227D01*
X682Y1229D01*
X596Y1229D01*
G37*
D02*
G36*
X304Y1205D02*
X304Y1185D01*
X308Y1185D01*
X308Y1183D01*
X312Y1183D01*
X312Y1181D01*
X314Y1181D01*
X314Y1179D01*
X316Y1179D01*
X316Y1177D01*
X318Y1177D01*
X318Y1175D01*
X320Y1175D01*
X320Y1173D01*
X322Y1173D01*
X322Y1171D01*
X324Y1171D01*
X324Y1167D01*
X326Y1167D01*
X326Y1163D01*
X328Y1163D01*
X328Y1159D01*
X330Y1159D01*
X330Y1153D01*
X332Y1153D01*
X332Y1131D01*
X330Y1131D01*
X330Y1123D01*
X328Y1123D01*
X328Y1119D01*
X326Y1119D01*
X326Y1115D01*
X324Y1115D01*
X324Y1113D01*
X322Y1113D01*
X322Y1111D01*
X320Y1111D01*
X320Y1107D01*
X318Y1107D01*
X318Y1077D01*
X320Y1077D01*
X320Y1063D01*
X322Y1063D01*
X322Y1047D01*
X324Y1047D01*
X324Y1031D01*
X326Y1031D01*
X326Y1029D01*
X402Y1029D01*
X402Y1027D01*
X410Y1027D01*
X410Y1025D01*
X416Y1025D01*
X416Y1023D01*
X420Y1023D01*
X420Y1021D01*
X424Y1021D01*
X424Y1019D01*
X426Y1019D01*
X426Y1017D01*
X428Y1017D01*
X428Y1015D01*
X430Y1015D01*
X430Y1013D01*
X432Y1013D01*
X432Y1011D01*
X452Y1011D01*
X452Y1031D01*
X450Y1031D01*
X450Y1043D01*
X448Y1043D01*
X448Y1055D01*
X446Y1055D01*
X446Y1075D01*
X448Y1075D01*
X448Y1079D01*
X450Y1079D01*
X450Y1083D01*
X452Y1083D01*
X452Y1087D01*
X454Y1087D01*
X454Y1089D01*
X456Y1089D01*
X456Y1091D01*
X458Y1091D01*
X458Y1093D01*
X460Y1093D01*
X460Y1095D01*
X462Y1095D01*
X462Y1097D01*
X466Y1097D01*
X466Y1099D01*
X468Y1099D01*
X468Y1101D01*
X470Y1101D01*
X470Y1103D01*
X474Y1103D01*
X474Y1105D01*
X476Y1105D01*
X476Y1107D01*
X478Y1107D01*
X478Y1109D01*
X482Y1109D01*
X482Y1111D01*
X484Y1111D01*
X484Y1113D01*
X486Y1113D01*
X486Y1115D01*
X490Y1115D01*
X490Y1117D01*
X492Y1117D01*
X492Y1119D01*
X494Y1119D01*
X494Y1121D01*
X498Y1121D01*
X498Y1123D01*
X500Y1123D01*
X500Y1125D01*
X502Y1125D01*
X502Y1127D01*
X506Y1127D01*
X506Y1129D01*
X508Y1129D01*
X508Y1131D01*
X510Y1131D01*
X510Y1133D01*
X514Y1133D01*
X514Y1135D01*
X516Y1135D01*
X516Y1137D01*
X518Y1137D01*
X518Y1139D01*
X522Y1139D01*
X522Y1141D01*
X524Y1141D01*
X524Y1143D01*
X526Y1143D01*
X526Y1145D01*
X530Y1145D01*
X530Y1147D01*
X532Y1147D01*
X532Y1149D01*
X534Y1149D01*
X534Y1153D01*
X536Y1153D01*
X536Y1159D01*
X538Y1159D01*
X538Y1163D01*
X540Y1163D01*
X540Y1183D01*
X538Y1183D01*
X538Y1185D01*
X536Y1185D01*
X536Y1187D01*
X534Y1187D01*
X534Y1189D01*
X532Y1189D01*
X532Y1191D01*
X530Y1191D01*
X530Y1193D01*
X528Y1193D01*
X528Y1195D01*
X526Y1195D01*
X526Y1197D01*
X524Y1197D01*
X524Y1199D01*
X522Y1199D01*
X522Y1201D01*
X520Y1201D01*
X520Y1203D01*
X518Y1203D01*
X518Y1205D01*
X304Y1205D01*
G37*
D02*
G36*
X326Y1029D02*
X326Y1017D01*
X328Y1017D01*
X328Y1015D01*
X330Y1015D01*
X330Y1013D01*
X332Y1013D01*
X332Y1011D01*
X334Y1011D01*
X334Y1009D01*
X336Y1009D01*
X336Y1007D01*
X356Y1007D01*
X356Y1009D01*
X358Y1009D01*
X358Y1013D01*
X360Y1013D01*
X360Y1015D01*
X362Y1015D01*
X362Y1017D01*
X366Y1017D01*
X366Y1019D01*
X368Y1019D01*
X368Y1021D01*
X372Y1021D01*
X372Y1023D01*
X376Y1023D01*
X376Y1025D01*
X380Y1025D01*
X380Y1027D01*
X390Y1027D01*
X390Y1029D01*
X326Y1029D01*
G37*
D02*
G36*
X222Y1169D02*
X222Y1167D01*
X220Y1167D01*
X220Y1165D01*
X218Y1165D01*
X218Y1163D01*
X216Y1163D01*
X216Y1161D01*
X214Y1161D01*
X214Y1159D01*
X212Y1159D01*
X212Y1153D01*
X210Y1153D01*
X210Y1145D01*
X208Y1145D01*
X208Y1139D01*
X206Y1139D01*
X206Y1133D01*
X204Y1133D01*
X204Y1127D01*
X202Y1127D01*
X202Y1121D01*
X200Y1121D01*
X200Y1113D01*
X198Y1113D01*
X198Y1107D01*
X196Y1107D01*
X196Y1101D01*
X194Y1101D01*
X194Y1095D01*
X192Y1095D01*
X192Y1089D01*
X190Y1089D01*
X190Y1085D01*
X188Y1085D01*
X188Y1083D01*
X186Y1083D01*
X186Y1079D01*
X184Y1079D01*
X184Y1077D01*
X182Y1077D01*
X182Y1075D01*
X178Y1075D01*
X178Y1073D01*
X176Y1073D01*
X176Y1071D01*
X170Y1071D01*
X170Y1069D01*
X166Y1069D01*
X166Y1067D01*
X160Y1067D01*
X160Y1065D01*
X154Y1065D01*
X154Y1063D01*
X148Y1063D01*
X148Y1061D01*
X140Y1061D01*
X140Y1059D01*
X134Y1059D01*
X134Y1057D01*
X126Y1057D01*
X126Y1055D01*
X124Y1055D01*
X124Y1051D01*
X122Y1051D01*
X122Y1049D01*
X120Y1049D01*
X120Y1045D01*
X118Y1045D01*
X118Y1043D01*
X114Y1043D01*
X114Y1041D01*
X112Y1041D01*
X112Y1039D01*
X110Y1039D01*
X110Y1031D01*
X184Y1031D01*
X184Y1029D01*
X196Y1029D01*
X196Y1027D01*
X202Y1027D01*
X202Y1025D01*
X206Y1025D01*
X206Y1023D01*
X210Y1023D01*
X210Y1021D01*
X214Y1021D01*
X214Y1019D01*
X216Y1019D01*
X216Y1017D01*
X218Y1017D01*
X218Y1015D01*
X252Y1015D01*
X252Y1043D01*
X250Y1043D01*
X250Y1057D01*
X248Y1057D01*
X248Y1073D01*
X246Y1073D01*
X246Y1111D01*
X244Y1111D01*
X244Y1113D01*
X242Y1113D01*
X242Y1115D01*
X240Y1115D01*
X240Y1119D01*
X238Y1119D01*
X238Y1123D01*
X236Y1123D01*
X236Y1131D01*
X234Y1131D01*
X234Y1153D01*
X236Y1153D01*
X236Y1159D01*
X238Y1159D01*
X238Y1163D01*
X240Y1163D01*
X240Y1167D01*
X242Y1167D01*
X242Y1169D01*
X222Y1169D01*
G37*
D02*
G36*
X110Y1031D02*
X110Y1019D01*
X112Y1019D01*
X112Y1017D01*
X114Y1017D01*
X114Y1015D01*
X118Y1015D01*
X118Y1013D01*
X120Y1013D01*
X120Y1009D01*
X122Y1009D01*
X122Y1007D01*
X142Y1007D01*
X142Y1011D01*
X144Y1011D01*
X144Y1013D01*
X146Y1013D01*
X146Y1015D01*
X148Y1015D01*
X148Y1017D01*
X150Y1017D01*
X150Y1019D01*
X154Y1019D01*
X154Y1021D01*
X156Y1021D01*
X156Y1023D01*
X160Y1023D01*
X160Y1025D01*
X164Y1025D01*
X164Y1027D01*
X170Y1027D01*
X170Y1029D01*
X182Y1029D01*
X182Y1031D01*
X110Y1031D01*
G37*
D02*
G36*
X632Y1143D02*
X632Y1131D01*
X630Y1131D01*
X630Y1123D01*
X628Y1123D01*
X628Y1119D01*
X626Y1119D01*
X626Y1115D01*
X624Y1115D01*
X624Y1113D01*
X622Y1113D01*
X622Y1111D01*
X620Y1111D01*
X620Y1107D01*
X618Y1107D01*
X618Y1105D01*
X614Y1105D01*
X614Y1103D01*
X612Y1103D01*
X612Y1101D01*
X610Y1101D01*
X610Y1099D01*
X606Y1099D01*
X606Y1097D01*
X602Y1097D01*
X602Y1095D01*
X596Y1095D01*
X596Y1093D01*
X576Y1093D01*
X576Y1091D01*
X574Y1091D01*
X574Y1089D01*
X572Y1089D01*
X572Y1087D01*
X570Y1087D01*
X570Y1085D01*
X566Y1085D01*
X566Y1083D01*
X564Y1083D01*
X564Y1081D01*
X562Y1081D01*
X562Y1079D01*
X558Y1079D01*
X558Y1077D01*
X556Y1077D01*
X556Y1075D01*
X554Y1075D01*
X554Y1073D01*
X550Y1073D01*
X550Y1071D01*
X548Y1071D01*
X548Y1069D01*
X546Y1069D01*
X546Y1067D01*
X542Y1067D01*
X542Y1065D01*
X540Y1065D01*
X540Y1063D01*
X538Y1063D01*
X538Y1061D01*
X534Y1061D01*
X534Y1059D01*
X532Y1059D01*
X532Y1057D01*
X530Y1057D01*
X530Y1055D01*
X526Y1055D01*
X526Y1053D01*
X524Y1053D01*
X524Y1029D01*
X602Y1029D01*
X602Y1027D01*
X610Y1027D01*
X610Y1025D01*
X616Y1025D01*
X616Y1023D01*
X620Y1023D01*
X620Y1021D01*
X624Y1021D01*
X624Y1019D01*
X626Y1019D01*
X626Y1017D01*
X628Y1017D01*
X628Y1015D01*
X652Y1015D01*
X652Y1017D01*
X654Y1017D01*
X654Y1019D01*
X656Y1019D01*
X656Y1039D01*
X654Y1039D01*
X654Y1041D01*
X652Y1041D01*
X652Y1043D01*
X648Y1043D01*
X648Y1047D01*
X646Y1047D01*
X646Y1049D01*
X644Y1049D01*
X644Y1051D01*
X642Y1051D01*
X642Y1055D01*
X640Y1055D01*
X640Y1057D01*
X638Y1057D01*
X638Y1063D01*
X636Y1063D01*
X636Y1071D01*
X634Y1071D01*
X634Y1087D01*
X636Y1087D01*
X636Y1095D01*
X638Y1095D01*
X638Y1101D01*
X640Y1101D01*
X640Y1103D01*
X642Y1103D01*
X642Y1107D01*
X644Y1107D01*
X644Y1109D01*
X646Y1109D01*
X646Y1111D01*
X648Y1111D01*
X648Y1115D01*
X652Y1115D01*
X652Y1117D01*
X654Y1117D01*
X654Y1119D01*
X656Y1119D01*
X656Y1139D01*
X654Y1139D01*
X654Y1141D01*
X652Y1141D01*
X652Y1143D01*
X632Y1143D01*
G37*
D02*
G36*
X524Y1029D02*
X524Y1023D01*
X526Y1023D01*
X526Y1017D01*
X528Y1017D01*
X528Y1015D01*
X530Y1015D01*
X530Y1013D01*
X532Y1013D01*
X532Y1011D01*
X534Y1011D01*
X534Y1009D01*
X536Y1009D01*
X536Y1007D01*
X556Y1007D01*
X556Y1009D01*
X558Y1009D01*
X558Y1013D01*
X560Y1013D01*
X560Y1015D01*
X562Y1015D01*
X562Y1017D01*
X566Y1017D01*
X566Y1019D01*
X568Y1019D01*
X568Y1021D01*
X572Y1021D01*
X572Y1023D01*
X576Y1023D01*
X576Y1025D01*
X580Y1025D01*
X580Y1027D01*
X590Y1027D01*
X590Y1029D01*
X524Y1029D01*
G37*
D02*
G36*
X436Y951D02*
X436Y949D01*
X434Y949D01*
X434Y947D01*
X432Y947D01*
X432Y945D01*
X430Y945D01*
X430Y943D01*
X428Y943D01*
X428Y941D01*
X426Y941D01*
X426Y939D01*
X424Y939D01*
X424Y937D01*
X420Y937D01*
X420Y935D01*
X416Y935D01*
X416Y915D01*
X476Y915D01*
X476Y935D01*
X472Y935D01*
X472Y937D01*
X468Y937D01*
X468Y939D01*
X466Y939D01*
X466Y941D01*
X464Y941D01*
X464Y943D01*
X460Y943D01*
X460Y945D01*
X458Y945D01*
X458Y949D01*
X456Y949D01*
X456Y951D01*
X436Y951D01*
G37*
D02*
G36*
X536Y951D02*
X536Y949D01*
X534Y949D01*
X534Y947D01*
X532Y947D01*
X532Y945D01*
X530Y945D01*
X530Y943D01*
X528Y943D01*
X528Y941D01*
X526Y941D01*
X526Y939D01*
X524Y939D01*
X524Y937D01*
X520Y937D01*
X520Y935D01*
X516Y935D01*
X516Y915D01*
X576Y915D01*
X576Y935D01*
X572Y935D01*
X572Y937D01*
X568Y937D01*
X568Y939D01*
X566Y939D01*
X566Y941D01*
X564Y941D01*
X564Y943D01*
X560Y943D01*
X560Y945D01*
X558Y945D01*
X558Y949D01*
X556Y949D01*
X556Y951D01*
X536Y951D01*
G37*
D02*
G36*
X218Y943D02*
X218Y941D01*
X216Y941D01*
X216Y939D01*
X214Y939D01*
X214Y919D01*
X216Y919D01*
X216Y917D01*
X218Y917D01*
X218Y915D01*
X220Y915D01*
X220Y913D01*
X222Y913D01*
X222Y911D01*
X224Y911D01*
X224Y907D01*
X226Y907D01*
X226Y905D01*
X228Y905D01*
X228Y901D01*
X230Y901D01*
X230Y897D01*
X232Y897D01*
X232Y889D01*
X234Y889D01*
X234Y869D01*
X232Y869D01*
X232Y861D01*
X230Y861D01*
X230Y857D01*
X228Y857D01*
X228Y853D01*
X226Y853D01*
X226Y851D01*
X224Y851D01*
X224Y847D01*
X222Y847D01*
X222Y845D01*
X220Y845D01*
X220Y843D01*
X218Y843D01*
X218Y841D01*
X216Y841D01*
X216Y839D01*
X214Y839D01*
X214Y819D01*
X216Y819D01*
X216Y817D01*
X218Y817D01*
X218Y815D01*
X220Y815D01*
X220Y813D01*
X222Y813D01*
X222Y811D01*
X224Y811D01*
X224Y807D01*
X226Y807D01*
X226Y805D01*
X228Y805D01*
X228Y801D01*
X230Y801D01*
X230Y797D01*
X232Y797D01*
X232Y789D01*
X234Y789D01*
X234Y769D01*
X232Y769D01*
X232Y761D01*
X230Y761D01*
X230Y757D01*
X228Y757D01*
X228Y753D01*
X226Y753D01*
X226Y751D01*
X224Y751D01*
X224Y747D01*
X222Y747D01*
X222Y745D01*
X220Y745D01*
X220Y743D01*
X218Y743D01*
X218Y741D01*
X216Y741D01*
X216Y739D01*
X214Y739D01*
X214Y729D01*
X602Y729D01*
X602Y727D01*
X610Y727D01*
X610Y725D01*
X616Y725D01*
X616Y723D01*
X620Y723D01*
X620Y721D01*
X624Y721D01*
X624Y719D01*
X626Y719D01*
X626Y717D01*
X628Y717D01*
X628Y715D01*
X652Y715D01*
X652Y717D01*
X654Y717D01*
X654Y719D01*
X656Y719D01*
X656Y739D01*
X654Y739D01*
X654Y741D01*
X652Y741D01*
X652Y743D01*
X648Y743D01*
X648Y747D01*
X646Y747D01*
X646Y749D01*
X644Y749D01*
X644Y751D01*
X642Y751D01*
X642Y755D01*
X640Y755D01*
X640Y757D01*
X638Y757D01*
X638Y763D01*
X636Y763D01*
X636Y771D01*
X634Y771D01*
X634Y787D01*
X636Y787D01*
X636Y795D01*
X638Y795D01*
X638Y801D01*
X640Y801D01*
X640Y803D01*
X642Y803D01*
X642Y807D01*
X644Y807D01*
X644Y809D01*
X646Y809D01*
X646Y811D01*
X648Y811D01*
X648Y815D01*
X652Y815D01*
X652Y817D01*
X654Y817D01*
X654Y819D01*
X656Y819D01*
X656Y839D01*
X654Y839D01*
X654Y841D01*
X652Y841D01*
X652Y843D01*
X350Y843D01*
X350Y845D01*
X344Y845D01*
X344Y847D01*
X340Y847D01*
X340Y849D01*
X338Y849D01*
X338Y851D01*
X336Y851D01*
X336Y853D01*
X332Y853D01*
X332Y855D01*
X330Y855D01*
X330Y857D01*
X328Y857D01*
X328Y859D01*
X326Y859D01*
X326Y861D01*
X324Y861D01*
X324Y863D01*
X322Y863D01*
X322Y865D01*
X320Y865D01*
X320Y867D01*
X318Y867D01*
X318Y869D01*
X316Y869D01*
X316Y871D01*
X314Y871D01*
X314Y873D01*
X312Y873D01*
X312Y875D01*
X310Y875D01*
X310Y877D01*
X308Y877D01*
X308Y879D01*
X306Y879D01*
X306Y881D01*
X304Y881D01*
X304Y883D01*
X302Y883D01*
X302Y885D01*
X300Y885D01*
X300Y887D01*
X298Y887D01*
X298Y889D01*
X296Y889D01*
X296Y891D01*
X294Y891D01*
X294Y893D01*
X292Y893D01*
X292Y895D01*
X290Y895D01*
X290Y897D01*
X288Y897D01*
X288Y899D01*
X286Y899D01*
X286Y901D01*
X284Y901D01*
X284Y903D01*
X282Y903D01*
X282Y905D01*
X280Y905D01*
X280Y907D01*
X278Y907D01*
X278Y909D01*
X266Y909D01*
X266Y911D01*
X260Y911D01*
X260Y913D01*
X258Y913D01*
X258Y915D01*
X254Y915D01*
X254Y917D01*
X252Y917D01*
X252Y919D01*
X250Y919D01*
X250Y921D01*
X248Y921D01*
X248Y923D01*
X246Y923D01*
X246Y927D01*
X244Y927D01*
X244Y931D01*
X242Y931D01*
X242Y939D01*
X240Y939D01*
X240Y943D01*
X218Y943D01*
G37*
D02*
G36*
X214Y729D02*
X214Y719D01*
X216Y719D01*
X216Y717D01*
X218Y717D01*
X218Y715D01*
X220Y715D01*
X220Y713D01*
X222Y713D01*
X222Y711D01*
X224Y711D01*
X224Y707D01*
X226Y707D01*
X226Y705D01*
X246Y705D01*
X246Y729D01*
X214Y729D01*
G37*
D02*
G36*
X344Y729D02*
X344Y727D01*
X346Y727D01*
X346Y717D01*
X366Y717D01*
X366Y719D01*
X368Y719D01*
X368Y721D01*
X372Y721D01*
X372Y723D01*
X376Y723D01*
X376Y725D01*
X380Y725D01*
X380Y727D01*
X390Y727D01*
X390Y729D01*
X344Y729D01*
G37*
D02*
G36*
X402Y729D02*
X402Y727D01*
X410Y727D01*
X410Y725D01*
X416Y725D01*
X416Y723D01*
X420Y723D01*
X420Y721D01*
X424Y721D01*
X424Y719D01*
X426Y719D01*
X426Y717D01*
X428Y717D01*
X428Y715D01*
X430Y715D01*
X430Y713D01*
X432Y713D01*
X432Y711D01*
X434Y711D01*
X434Y709D01*
X436Y709D01*
X436Y707D01*
X456Y707D01*
X456Y709D01*
X458Y709D01*
X458Y713D01*
X460Y713D01*
X460Y715D01*
X462Y715D01*
X462Y717D01*
X466Y717D01*
X466Y719D01*
X468Y719D01*
X468Y721D01*
X472Y721D01*
X472Y723D01*
X476Y723D01*
X476Y725D01*
X480Y725D01*
X480Y727D01*
X490Y727D01*
X490Y729D01*
X402Y729D01*
G37*
D02*
G36*
X502Y729D02*
X502Y727D01*
X510Y727D01*
X510Y725D01*
X516Y725D01*
X516Y723D01*
X520Y723D01*
X520Y721D01*
X524Y721D01*
X524Y719D01*
X526Y719D01*
X526Y717D01*
X528Y717D01*
X528Y715D01*
X530Y715D01*
X530Y713D01*
X532Y713D01*
X532Y711D01*
X534Y711D01*
X534Y709D01*
X536Y709D01*
X536Y707D01*
X556Y707D01*
X556Y709D01*
X558Y709D01*
X558Y713D01*
X560Y713D01*
X560Y715D01*
X562Y715D01*
X562Y717D01*
X566Y717D01*
X566Y719D01*
X568Y719D01*
X568Y721D01*
X572Y721D01*
X572Y723D01*
X576Y723D01*
X576Y725D01*
X580Y725D01*
X580Y727D01*
X590Y727D01*
X590Y729D01*
X502Y729D01*
G37*
D02*
G36*
X226Y653D02*
X226Y651D01*
X224Y651D01*
X224Y647D01*
X222Y647D01*
X222Y645D01*
X220Y645D01*
X220Y643D01*
X218Y643D01*
X218Y641D01*
X216Y641D01*
X216Y639D01*
X214Y639D01*
X214Y619D01*
X216Y619D01*
X216Y617D01*
X218Y617D01*
X218Y615D01*
X220Y615D01*
X220Y613D01*
X222Y613D01*
X222Y611D01*
X224Y611D01*
X224Y607D01*
X226Y607D01*
X226Y605D01*
X228Y605D01*
X228Y601D01*
X230Y601D01*
X230Y597D01*
X232Y597D01*
X232Y589D01*
X234Y589D01*
X234Y569D01*
X232Y569D01*
X232Y561D01*
X230Y561D01*
X230Y557D01*
X228Y557D01*
X228Y553D01*
X226Y553D01*
X226Y551D01*
X224Y551D01*
X224Y547D01*
X222Y547D01*
X222Y545D01*
X220Y545D01*
X220Y543D01*
X218Y543D01*
X218Y541D01*
X216Y541D01*
X216Y539D01*
X214Y539D01*
X214Y529D01*
X302Y529D01*
X302Y531D01*
X294Y531D01*
X294Y533D01*
X288Y533D01*
X288Y535D01*
X284Y535D01*
X284Y537D01*
X280Y537D01*
X280Y539D01*
X278Y539D01*
X278Y541D01*
X276Y541D01*
X276Y543D01*
X274Y543D01*
X274Y545D01*
X272Y545D01*
X272Y547D01*
X270Y547D01*
X270Y549D01*
X268Y549D01*
X268Y551D01*
X266Y551D01*
X266Y555D01*
X264Y555D01*
X264Y559D01*
X262Y559D01*
X262Y565D01*
X260Y565D01*
X260Y573D01*
X258Y573D01*
X258Y585D01*
X260Y585D01*
X260Y593D01*
X262Y593D01*
X262Y599D01*
X264Y599D01*
X264Y603D01*
X266Y603D01*
X266Y607D01*
X268Y607D01*
X268Y609D01*
X270Y609D01*
X270Y629D01*
X246Y629D01*
X246Y653D01*
X226Y653D01*
G37*
D02*
G36*
X538Y649D02*
X538Y629D01*
X590Y629D01*
X590Y631D01*
X580Y631D01*
X580Y633D01*
X576Y633D01*
X576Y635D01*
X572Y635D01*
X572Y637D01*
X568Y637D01*
X568Y639D01*
X566Y639D01*
X566Y641D01*
X564Y641D01*
X564Y643D01*
X560Y643D01*
X560Y645D01*
X558Y645D01*
X558Y649D01*
X538Y649D01*
G37*
D02*
G36*
X628Y643D02*
X628Y641D01*
X626Y641D01*
X626Y639D01*
X624Y639D01*
X624Y637D01*
X620Y637D01*
X620Y635D01*
X616Y635D01*
X616Y633D01*
X610Y633D01*
X610Y631D01*
X602Y631D01*
X602Y629D01*
X656Y629D01*
X656Y639D01*
X654Y639D01*
X654Y641D01*
X652Y641D01*
X652Y643D01*
X628Y643D01*
G37*
D02*
G36*
X538Y629D02*
X538Y627D01*
X656Y627D01*
X656Y629D01*
X538Y629D01*
G37*
D02*
G36*
X538Y629D02*
X538Y627D01*
X656Y627D01*
X656Y629D01*
X538Y629D01*
G37*
D02*
G36*
X540Y627D02*
X540Y613D01*
X542Y613D01*
X542Y599D01*
X544Y599D01*
X544Y585D01*
X546Y585D01*
X546Y435D01*
X544Y435D01*
X544Y427D01*
X542Y427D01*
X542Y423D01*
X540Y423D01*
X540Y419D01*
X538Y419D01*
X538Y417D01*
X536Y417D01*
X536Y413D01*
X534Y413D01*
X534Y409D01*
X532Y409D01*
X532Y407D01*
X530Y407D01*
X530Y403D01*
X528Y403D01*
X528Y401D01*
X526Y401D01*
X526Y397D01*
X524Y397D01*
X524Y395D01*
X522Y395D01*
X522Y391D01*
X520Y391D01*
X520Y387D01*
X518Y387D01*
X518Y385D01*
X516Y385D01*
X516Y381D01*
X514Y381D01*
X514Y379D01*
X512Y379D01*
X512Y375D01*
X510Y375D01*
X510Y371D01*
X508Y371D01*
X508Y369D01*
X506Y369D01*
X506Y365D01*
X504Y365D01*
X504Y363D01*
X502Y363D01*
X502Y359D01*
X500Y359D01*
X500Y355D01*
X498Y355D01*
X498Y353D01*
X496Y353D01*
X496Y349D01*
X494Y349D01*
X494Y347D01*
X492Y347D01*
X492Y343D01*
X490Y343D01*
X490Y341D01*
X488Y341D01*
X488Y337D01*
X486Y337D01*
X486Y333D01*
X484Y333D01*
X484Y331D01*
X482Y331D01*
X482Y327D01*
X480Y327D01*
X480Y325D01*
X478Y325D01*
X478Y321D01*
X476Y321D01*
X476Y317D01*
X474Y317D01*
X474Y315D01*
X472Y315D01*
X472Y311D01*
X470Y311D01*
X470Y309D01*
X468Y309D01*
X468Y305D01*
X466Y305D01*
X466Y301D01*
X464Y301D01*
X464Y299D01*
X462Y299D01*
X462Y295D01*
X460Y295D01*
X460Y293D01*
X458Y293D01*
X458Y257D01*
X460Y257D01*
X460Y253D01*
X462Y253D01*
X462Y249D01*
X464Y249D01*
X464Y245D01*
X466Y245D01*
X466Y241D01*
X468Y241D01*
X468Y237D01*
X470Y237D01*
X470Y233D01*
X472Y233D01*
X472Y229D01*
X474Y229D01*
X474Y225D01*
X476Y225D01*
X476Y223D01*
X478Y223D01*
X478Y221D01*
X480Y221D01*
X480Y217D01*
X482Y217D01*
X482Y215D01*
X484Y215D01*
X484Y213D01*
X486Y213D01*
X486Y211D01*
X488Y211D01*
X488Y209D01*
X490Y209D01*
X490Y207D01*
X492Y207D01*
X492Y203D01*
X494Y203D01*
X494Y201D01*
X496Y201D01*
X496Y199D01*
X498Y199D01*
X498Y197D01*
X500Y197D01*
X500Y195D01*
X502Y195D01*
X502Y193D01*
X504Y193D01*
X504Y189D01*
X506Y189D01*
X506Y187D01*
X508Y187D01*
X508Y185D01*
X510Y185D01*
X510Y183D01*
X512Y183D01*
X512Y181D01*
X514Y181D01*
X514Y179D01*
X516Y179D01*
X516Y175D01*
X518Y175D01*
X518Y173D01*
X522Y173D01*
X522Y171D01*
X536Y171D01*
X536Y169D01*
X542Y169D01*
X542Y167D01*
X546Y167D01*
X546Y165D01*
X548Y165D01*
X548Y163D01*
X552Y163D01*
X552Y161D01*
X554Y161D01*
X554Y159D01*
X558Y159D01*
X558Y157D01*
X560Y157D01*
X560Y155D01*
X562Y155D01*
X562Y151D01*
X564Y151D01*
X564Y149D01*
X566Y149D01*
X566Y147D01*
X568Y147D01*
X568Y143D01*
X570Y143D01*
X570Y139D01*
X572Y139D01*
X572Y135D01*
X574Y135D01*
X574Y127D01*
X576Y127D01*
X576Y105D01*
X574Y105D01*
X574Y99D01*
X572Y99D01*
X572Y93D01*
X570Y93D01*
X570Y89D01*
X568Y89D01*
X568Y87D01*
X566Y87D01*
X566Y83D01*
X564Y83D01*
X564Y81D01*
X562Y81D01*
X562Y79D01*
X560Y79D01*
X560Y77D01*
X558Y77D01*
X558Y75D01*
X556Y75D01*
X556Y73D01*
X554Y73D01*
X554Y71D01*
X550Y71D01*
X550Y69D01*
X548Y69D01*
X548Y67D01*
X544Y67D01*
X544Y65D01*
X538Y65D01*
X538Y63D01*
X530Y63D01*
X530Y61D01*
X638Y61D01*
X638Y63D01*
X636Y63D01*
X636Y71D01*
X634Y71D01*
X634Y87D01*
X636Y87D01*
X636Y95D01*
X638Y95D01*
X638Y101D01*
X640Y101D01*
X640Y103D01*
X642Y103D01*
X642Y107D01*
X644Y107D01*
X644Y109D01*
X646Y109D01*
X646Y111D01*
X648Y111D01*
X648Y115D01*
X652Y115D01*
X652Y117D01*
X654Y117D01*
X654Y119D01*
X656Y119D01*
X656Y139D01*
X654Y139D01*
X654Y141D01*
X652Y141D01*
X652Y143D01*
X648Y143D01*
X648Y147D01*
X646Y147D01*
X646Y149D01*
X644Y149D01*
X644Y151D01*
X642Y151D01*
X642Y155D01*
X640Y155D01*
X640Y157D01*
X638Y157D01*
X638Y163D01*
X636Y163D01*
X636Y171D01*
X634Y171D01*
X634Y187D01*
X636Y187D01*
X636Y195D01*
X638Y195D01*
X638Y201D01*
X640Y201D01*
X640Y203D01*
X642Y203D01*
X642Y207D01*
X644Y207D01*
X644Y209D01*
X646Y209D01*
X646Y211D01*
X648Y211D01*
X648Y215D01*
X652Y215D01*
X652Y217D01*
X654Y217D01*
X654Y219D01*
X656Y219D01*
X656Y239D01*
X654Y239D01*
X654Y241D01*
X652Y241D01*
X652Y243D01*
X648Y243D01*
X648Y247D01*
X646Y247D01*
X646Y249D01*
X644Y249D01*
X644Y251D01*
X642Y251D01*
X642Y255D01*
X640Y255D01*
X640Y257D01*
X638Y257D01*
X638Y263D01*
X636Y263D01*
X636Y271D01*
X634Y271D01*
X634Y287D01*
X636Y287D01*
X636Y295D01*
X638Y295D01*
X638Y301D01*
X640Y301D01*
X640Y303D01*
X642Y303D01*
X642Y307D01*
X644Y307D01*
X644Y309D01*
X646Y309D01*
X646Y311D01*
X648Y311D01*
X648Y315D01*
X652Y315D01*
X652Y317D01*
X654Y317D01*
X654Y319D01*
X656Y319D01*
X656Y339D01*
X654Y339D01*
X654Y341D01*
X652Y341D01*
X652Y343D01*
X648Y343D01*
X648Y347D01*
X646Y347D01*
X646Y349D01*
X644Y349D01*
X644Y351D01*
X642Y351D01*
X642Y355D01*
X640Y355D01*
X640Y357D01*
X638Y357D01*
X638Y363D01*
X636Y363D01*
X636Y371D01*
X634Y371D01*
X634Y387D01*
X636Y387D01*
X636Y395D01*
X638Y395D01*
X638Y401D01*
X640Y401D01*
X640Y403D01*
X642Y403D01*
X642Y407D01*
X644Y407D01*
X644Y409D01*
X646Y409D01*
X646Y411D01*
X648Y411D01*
X648Y415D01*
X652Y415D01*
X652Y417D01*
X654Y417D01*
X654Y419D01*
X656Y419D01*
X656Y439D01*
X654Y439D01*
X654Y441D01*
X652Y441D01*
X652Y443D01*
X648Y443D01*
X648Y447D01*
X646Y447D01*
X646Y449D01*
X644Y449D01*
X644Y451D01*
X642Y451D01*
X642Y455D01*
X640Y455D01*
X640Y457D01*
X638Y457D01*
X638Y463D01*
X636Y463D01*
X636Y471D01*
X634Y471D01*
X634Y487D01*
X636Y487D01*
X636Y495D01*
X638Y495D01*
X638Y501D01*
X640Y501D01*
X640Y503D01*
X642Y503D01*
X642Y507D01*
X644Y507D01*
X644Y509D01*
X646Y509D01*
X646Y511D01*
X648Y511D01*
X648Y515D01*
X652Y515D01*
X652Y517D01*
X654Y517D01*
X654Y519D01*
X656Y519D01*
X656Y539D01*
X654Y539D01*
X654Y541D01*
X652Y541D01*
X652Y543D01*
X648Y543D01*
X648Y547D01*
X646Y547D01*
X646Y549D01*
X644Y549D01*
X644Y551D01*
X642Y551D01*
X642Y555D01*
X640Y555D01*
X640Y557D01*
X638Y557D01*
X638Y563D01*
X636Y563D01*
X636Y571D01*
X634Y571D01*
X634Y587D01*
X636Y587D01*
X636Y595D01*
X638Y595D01*
X638Y601D01*
X640Y601D01*
X640Y603D01*
X642Y603D01*
X642Y607D01*
X644Y607D01*
X644Y609D01*
X646Y609D01*
X646Y611D01*
X648Y611D01*
X648Y615D01*
X652Y615D01*
X652Y617D01*
X654Y617D01*
X654Y619D01*
X656Y619D01*
X656Y627D01*
X540Y627D01*
G37*
D02*
G36*
X454Y567D02*
X454Y559D01*
X452Y559D01*
X452Y555D01*
X450Y555D01*
X450Y553D01*
X448Y553D01*
X448Y549D01*
X446Y549D01*
X446Y547D01*
X444Y547D01*
X444Y545D01*
X442Y545D01*
X442Y543D01*
X440Y543D01*
X440Y541D01*
X438Y541D01*
X438Y539D01*
X434Y539D01*
X434Y537D01*
X430Y537D01*
X430Y535D01*
X428Y535D01*
X428Y533D01*
X420Y533D01*
X420Y531D01*
X474Y531D01*
X474Y567D01*
X454Y567D01*
G37*
D02*
G36*
X340Y543D02*
X340Y541D01*
X338Y541D01*
X338Y539D01*
X336Y539D01*
X336Y537D01*
X332Y537D01*
X332Y535D01*
X328Y535D01*
X328Y533D01*
X322Y533D01*
X322Y531D01*
X396Y531D01*
X396Y533D01*
X388Y533D01*
X388Y535D01*
X386Y535D01*
X386Y537D01*
X382Y537D01*
X382Y539D01*
X378Y539D01*
X378Y541D01*
X376Y541D01*
X376Y543D01*
X340Y543D01*
G37*
D02*
G36*
X314Y531D02*
X314Y529D01*
X474Y529D01*
X474Y531D01*
X314Y531D01*
G37*
D02*
G36*
X314Y531D02*
X314Y529D01*
X474Y529D01*
X474Y531D01*
X314Y531D01*
G37*
D02*
G36*
X214Y529D02*
X214Y527D01*
X474Y527D01*
X474Y529D01*
X214Y529D01*
G37*
D02*
G36*
X214Y529D02*
X214Y527D01*
X474Y527D01*
X474Y529D01*
X214Y529D01*
G37*
D02*
G36*
X214Y527D02*
X214Y519D01*
X216Y519D01*
X216Y517D01*
X218Y517D01*
X218Y515D01*
X220Y515D01*
X220Y513D01*
X222Y513D01*
X222Y511D01*
X224Y511D01*
X224Y507D01*
X226Y507D01*
X226Y505D01*
X228Y505D01*
X228Y501D01*
X230Y501D01*
X230Y497D01*
X232Y497D01*
X232Y489D01*
X234Y489D01*
X234Y469D01*
X232Y469D01*
X232Y461D01*
X230Y461D01*
X230Y457D01*
X228Y457D01*
X228Y453D01*
X226Y453D01*
X226Y451D01*
X224Y451D01*
X224Y447D01*
X222Y447D01*
X222Y445D01*
X220Y445D01*
X220Y443D01*
X218Y443D01*
X218Y441D01*
X216Y441D01*
X216Y439D01*
X214Y439D01*
X214Y419D01*
X216Y419D01*
X216Y417D01*
X218Y417D01*
X218Y415D01*
X220Y415D01*
X220Y413D01*
X222Y413D01*
X222Y411D01*
X224Y411D01*
X224Y407D01*
X226Y407D01*
X226Y405D01*
X228Y405D01*
X228Y401D01*
X230Y401D01*
X230Y397D01*
X232Y397D01*
X232Y389D01*
X234Y389D01*
X234Y369D01*
X232Y369D01*
X232Y361D01*
X230Y361D01*
X230Y357D01*
X228Y357D01*
X228Y353D01*
X226Y353D01*
X226Y351D01*
X224Y351D01*
X224Y347D01*
X222Y347D01*
X222Y345D01*
X220Y345D01*
X220Y343D01*
X218Y343D01*
X218Y341D01*
X216Y341D01*
X216Y339D01*
X214Y339D01*
X214Y329D01*
X314Y329D01*
X314Y327D01*
X322Y327D01*
X322Y325D01*
X328Y325D01*
X328Y323D01*
X332Y323D01*
X332Y321D01*
X336Y321D01*
X336Y319D01*
X338Y319D01*
X338Y317D01*
X340Y317D01*
X340Y315D01*
X342Y315D01*
X342Y313D01*
X344Y313D01*
X344Y311D01*
X346Y311D01*
X346Y309D01*
X348Y309D01*
X348Y307D01*
X368Y307D01*
X368Y309D01*
X370Y309D01*
X370Y311D01*
X372Y311D01*
X372Y313D01*
X374Y313D01*
X374Y315D01*
X376Y315D01*
X376Y317D01*
X378Y317D01*
X378Y319D01*
X382Y319D01*
X382Y321D01*
X386Y321D01*
X386Y323D01*
X388Y323D01*
X388Y325D01*
X396Y325D01*
X396Y329D01*
X398Y329D01*
X398Y333D01*
X400Y333D01*
X400Y335D01*
X402Y335D01*
X402Y339D01*
X404Y339D01*
X404Y341D01*
X406Y341D01*
X406Y345D01*
X408Y345D01*
X408Y349D01*
X410Y349D01*
X410Y351D01*
X412Y351D01*
X412Y355D01*
X414Y355D01*
X414Y357D01*
X416Y357D01*
X416Y361D01*
X418Y361D01*
X418Y365D01*
X420Y365D01*
X420Y367D01*
X422Y367D01*
X422Y371D01*
X424Y371D01*
X424Y373D01*
X426Y373D01*
X426Y377D01*
X428Y377D01*
X428Y379D01*
X430Y379D01*
X430Y383D01*
X432Y383D01*
X432Y387D01*
X434Y387D01*
X434Y389D01*
X436Y389D01*
X436Y393D01*
X438Y393D01*
X438Y395D01*
X440Y395D01*
X440Y399D01*
X442Y399D01*
X442Y403D01*
X444Y403D01*
X444Y405D01*
X446Y405D01*
X446Y409D01*
X448Y409D01*
X448Y411D01*
X450Y411D01*
X450Y415D01*
X452Y415D01*
X452Y419D01*
X454Y419D01*
X454Y421D01*
X456Y421D01*
X456Y425D01*
X458Y425D01*
X458Y427D01*
X460Y427D01*
X460Y431D01*
X462Y431D01*
X462Y433D01*
X464Y433D01*
X464Y437D01*
X466Y437D01*
X466Y441D01*
X468Y441D01*
X468Y443D01*
X470Y443D01*
X470Y447D01*
X472Y447D01*
X472Y449D01*
X474Y449D01*
X474Y527D01*
X214Y527D01*
G37*
D02*
G36*
X214Y329D02*
X214Y319D01*
X216Y319D01*
X216Y317D01*
X218Y317D01*
X218Y315D01*
X220Y315D01*
X220Y313D01*
X222Y313D01*
X222Y311D01*
X224Y311D01*
X224Y307D01*
X226Y307D01*
X226Y305D01*
X228Y305D01*
X228Y301D01*
X230Y301D01*
X230Y297D01*
X232Y297D01*
X232Y289D01*
X234Y289D01*
X234Y269D01*
X232Y269D01*
X232Y261D01*
X230Y261D01*
X230Y257D01*
X228Y257D01*
X228Y253D01*
X226Y253D01*
X226Y251D01*
X224Y251D01*
X224Y247D01*
X222Y247D01*
X222Y245D01*
X220Y245D01*
X220Y243D01*
X218Y243D01*
X218Y241D01*
X216Y241D01*
X216Y239D01*
X214Y239D01*
X214Y219D01*
X216Y219D01*
X216Y217D01*
X218Y217D01*
X218Y215D01*
X220Y215D01*
X220Y213D01*
X222Y213D01*
X222Y211D01*
X224Y211D01*
X224Y207D01*
X226Y207D01*
X226Y205D01*
X228Y205D01*
X228Y201D01*
X230Y201D01*
X230Y197D01*
X232Y197D01*
X232Y189D01*
X234Y189D01*
X234Y169D01*
X232Y169D01*
X232Y161D01*
X230Y161D01*
X230Y157D01*
X228Y157D01*
X228Y153D01*
X226Y153D01*
X226Y151D01*
X224Y151D01*
X224Y147D01*
X222Y147D01*
X222Y145D01*
X220Y145D01*
X220Y143D01*
X218Y143D01*
X218Y141D01*
X216Y141D01*
X216Y139D01*
X214Y139D01*
X214Y119D01*
X216Y119D01*
X216Y117D01*
X218Y117D01*
X218Y115D01*
X220Y115D01*
X220Y113D01*
X222Y113D01*
X222Y111D01*
X224Y111D01*
X224Y107D01*
X226Y107D01*
X226Y105D01*
X228Y105D01*
X228Y101D01*
X230Y101D01*
X230Y97D01*
X232Y97D01*
X232Y89D01*
X234Y89D01*
X234Y69D01*
X232Y69D01*
X232Y61D01*
X348Y61D01*
X348Y63D01*
X340Y63D01*
X340Y65D01*
X336Y65D01*
X336Y67D01*
X332Y67D01*
X332Y69D01*
X328Y69D01*
X328Y71D01*
X326Y71D01*
X326Y73D01*
X322Y73D01*
X322Y75D01*
X320Y75D01*
X320Y77D01*
X318Y77D01*
X318Y79D01*
X316Y79D01*
X316Y81D01*
X314Y81D01*
X314Y85D01*
X312Y85D01*
X312Y87D01*
X310Y87D01*
X310Y91D01*
X308Y91D01*
X308Y95D01*
X306Y95D01*
X306Y101D01*
X304Y101D01*
X304Y109D01*
X302Y109D01*
X302Y123D01*
X304Y123D01*
X304Y133D01*
X306Y133D01*
X306Y139D01*
X308Y139D01*
X308Y159D01*
X306Y159D01*
X306Y167D01*
X304Y167D01*
X304Y173D01*
X302Y173D01*
X302Y179D01*
X300Y179D01*
X300Y185D01*
X298Y185D01*
X298Y193D01*
X296Y193D01*
X296Y199D01*
X294Y199D01*
X294Y205D01*
X292Y205D01*
X292Y211D01*
X290Y211D01*
X290Y219D01*
X288Y219D01*
X288Y225D01*
X286Y225D01*
X286Y231D01*
X284Y231D01*
X284Y237D01*
X280Y237D01*
X280Y239D01*
X278Y239D01*
X278Y241D01*
X276Y241D01*
X276Y243D01*
X274Y243D01*
X274Y245D01*
X272Y245D01*
X272Y247D01*
X270Y247D01*
X270Y249D01*
X268Y249D01*
X268Y251D01*
X266Y251D01*
X266Y255D01*
X264Y255D01*
X264Y259D01*
X262Y259D01*
X262Y265D01*
X260Y265D01*
X260Y273D01*
X258Y273D01*
X258Y285D01*
X260Y285D01*
X260Y293D01*
X262Y293D01*
X262Y299D01*
X264Y299D01*
X264Y303D01*
X266Y303D01*
X266Y307D01*
X268Y307D01*
X268Y309D01*
X270Y309D01*
X270Y311D01*
X272Y311D01*
X272Y313D01*
X274Y313D01*
X274Y315D01*
X276Y315D01*
X276Y317D01*
X278Y317D01*
X278Y319D01*
X280Y319D01*
X280Y321D01*
X284Y321D01*
X284Y323D01*
X288Y323D01*
X288Y325D01*
X294Y325D01*
X294Y327D01*
X302Y327D01*
X302Y329D01*
X214Y329D01*
G37*
D02*
G36*
X358Y241D02*
X358Y235D01*
X360Y235D01*
X360Y229D01*
X362Y229D01*
X362Y223D01*
X364Y223D01*
X364Y217D01*
X366Y217D01*
X366Y209D01*
X368Y209D01*
X368Y203D01*
X370Y203D01*
X370Y197D01*
X372Y197D01*
X372Y191D01*
X374Y191D01*
X374Y183D01*
X376Y183D01*
X376Y177D01*
X378Y177D01*
X378Y171D01*
X380Y171D01*
X380Y167D01*
X382Y167D01*
X382Y165D01*
X386Y165D01*
X386Y163D01*
X390Y163D01*
X390Y161D01*
X392Y161D01*
X392Y159D01*
X394Y159D01*
X394Y157D01*
X398Y157D01*
X398Y153D01*
X400Y153D01*
X400Y151D01*
X402Y151D01*
X402Y149D01*
X404Y149D01*
X404Y145D01*
X406Y145D01*
X406Y143D01*
X408Y143D01*
X408Y139D01*
X410Y139D01*
X410Y133D01*
X412Y133D01*
X412Y125D01*
X414Y125D01*
X414Y109D01*
X412Y109D01*
X412Y99D01*
X410Y99D01*
X410Y95D01*
X408Y95D01*
X408Y91D01*
X406Y91D01*
X406Y87D01*
X404Y87D01*
X404Y85D01*
X402Y85D01*
X402Y81D01*
X400Y81D01*
X400Y79D01*
X398Y79D01*
X398Y77D01*
X396Y77D01*
X396Y75D01*
X394Y75D01*
X394Y73D01*
X390Y73D01*
X390Y71D01*
X388Y71D01*
X388Y69D01*
X384Y69D01*
X384Y67D01*
X382Y67D01*
X382Y65D01*
X376Y65D01*
X376Y63D01*
X368Y63D01*
X368Y61D01*
X510Y61D01*
X510Y63D01*
X502Y63D01*
X502Y65D01*
X498Y65D01*
X498Y67D01*
X494Y67D01*
X494Y69D01*
X490Y69D01*
X490Y71D01*
X488Y71D01*
X488Y73D01*
X486Y73D01*
X486Y75D01*
X482Y75D01*
X482Y77D01*
X480Y77D01*
X480Y79D01*
X478Y79D01*
X478Y83D01*
X476Y83D01*
X476Y85D01*
X474Y85D01*
X474Y89D01*
X472Y89D01*
X472Y91D01*
X470Y91D01*
X470Y95D01*
X468Y95D01*
X468Y101D01*
X466Y101D01*
X466Y115D01*
X464Y115D01*
X464Y129D01*
X462Y129D01*
X462Y131D01*
X460Y131D01*
X460Y133D01*
X458Y133D01*
X458Y135D01*
X456Y135D01*
X456Y137D01*
X454Y137D01*
X454Y139D01*
X452Y139D01*
X452Y143D01*
X450Y143D01*
X450Y145D01*
X448Y145D01*
X448Y147D01*
X446Y147D01*
X446Y149D01*
X444Y149D01*
X444Y151D01*
X442Y151D01*
X442Y153D01*
X440Y153D01*
X440Y157D01*
X438Y157D01*
X438Y159D01*
X436Y159D01*
X436Y161D01*
X434Y161D01*
X434Y163D01*
X432Y163D01*
X432Y165D01*
X430Y165D01*
X430Y167D01*
X428Y167D01*
X428Y171D01*
X426Y171D01*
X426Y173D01*
X424Y173D01*
X424Y175D01*
X422Y175D01*
X422Y177D01*
X420Y177D01*
X420Y179D01*
X418Y179D01*
X418Y181D01*
X416Y181D01*
X416Y185D01*
X414Y185D01*
X414Y189D01*
X412Y189D01*
X412Y193D01*
X410Y193D01*
X410Y197D01*
X408Y197D01*
X408Y201D01*
X406Y201D01*
X406Y205D01*
X404Y205D01*
X404Y209D01*
X402Y209D01*
X402Y213D01*
X400Y213D01*
X400Y217D01*
X398Y217D01*
X398Y221D01*
X396Y221D01*
X396Y225D01*
X394Y225D01*
X394Y229D01*
X392Y229D01*
X392Y233D01*
X388Y233D01*
X388Y235D01*
X386Y235D01*
X386Y237D01*
X382Y237D01*
X382Y239D01*
X378Y239D01*
X378Y241D01*
X358Y241D01*
G37*
D02*
G36*
X230Y61D02*
X230Y59D01*
X638Y59D01*
X638Y61D01*
X230Y61D01*
G37*
D02*
G36*
X230Y61D02*
X230Y59D01*
X638Y59D01*
X638Y61D01*
X230Y61D01*
G37*
D02*
G36*
X230Y61D02*
X230Y59D01*
X638Y59D01*
X638Y61D01*
X230Y61D01*
G37*
D02*
G36*
X230Y59D02*
X230Y41D01*
X638Y41D01*
X638Y59D01*
X230Y59D01*
G37*
D02*
G36*
X36Y903D02*
X62Y903D01*
X62Y860D01*
X36Y860D01*
X36Y903D01*
G37*
D02*
G36*
X36Y1003D02*
X62Y1003D01*
X62Y960D01*
X36Y960D01*
X36Y1003D01*
G37*
D02*
G36*
X698Y1103D02*
X724Y1103D01*
X724Y1060D01*
X698Y1060D01*
X698Y1103D01*
G37*
D02*
G04 End of Copper0*
M02*