G04 MADE WITH FRITZING*
G04 WWW.FRITZING.ORG*
G04 SINGLE SIDED*
G04 HOLES NOT PLATED*
G04 CONTOUR ON CENTER OF CONTOUR VECTOR*
%ASAXBY*%
%FSLAX23Y23*%
%MOIN*%
%OFA0B0*%
%SFA1.0B1.0*%
%ADD10C,0.083472X0.0765278*%
%ADD11R,0.765614X1.379010X0.749614X1.363010*%
%ADD12C,0.008000*%
%ADD13C,0.010000*%
%ADD14C,0.005000*%
%ADD15R,0.001000X0.001000*%
%LNSILK1*%
G90*
G70*
G54D10*
X83Y379D03*
X83Y479D03*
X83Y679D03*
X83Y79D03*
X683Y79D03*
G54D12*
X4Y1375D02*
X762Y1375D01*
X762Y4D01*
X4Y4D01*
X4Y1375D01*
D02*
G54D13*
X246Y629D02*
X646Y629D01*
D02*
X646Y629D02*
X646Y1029D01*
D02*
X646Y1029D02*
X246Y1029D01*
D02*
X246Y629D02*
X246Y779D01*
D02*
X246Y879D02*
X246Y1029D01*
G54D12*
D02*
X378Y329D02*
X378Y529D01*
D02*
X378Y529D02*
X408Y529D01*
D02*
X408Y529D02*
X438Y529D01*
D02*
X438Y529D02*
X438Y329D01*
D02*
X438Y329D02*
X408Y329D01*
D02*
X408Y329D02*
X378Y329D01*
D02*
X408Y529D02*
X408Y539D01*
D02*
X408Y329D02*
X408Y319D01*
D02*
X383Y504D02*
X433Y504D01*
G54D13*
D02*
X308Y542D02*
X308Y505D01*
D02*
X308Y355D02*
X308Y317D01*
D02*
X333Y505D02*
X333Y355D01*
D02*
X333Y355D02*
X283Y355D01*
D02*
X283Y355D02*
X283Y505D01*
D02*
X283Y505D02*
X333Y505D01*
D02*
X321Y1141D02*
X358Y1141D01*
D02*
X508Y1141D02*
X546Y1141D01*
D02*
X358Y1166D02*
X508Y1166D01*
D02*
X508Y1166D02*
X508Y1116D01*
D02*
X508Y1116D02*
X358Y1116D01*
D02*
X358Y1116D02*
X358Y1166D01*
D02*
X133Y1029D02*
X133Y29D01*
D02*
X133Y29D02*
X233Y29D01*
D02*
X233Y29D02*
X233Y1029D01*
D02*
X233Y1029D02*
X133Y1029D01*
G54D14*
D02*
X133Y994D02*
X168Y1029D01*
G54D12*
X37Y1326D02*
X37Y35D01*
X729Y35D01*
X729Y1326D01*
X37Y1326D01*
D02*
G54D15*
X146Y1300D02*
X163Y1300D01*
X633Y1300D02*
X660Y1300D01*
X144Y1299D02*
X164Y1299D01*
X632Y1299D02*
X662Y1299D01*
X143Y1298D02*
X165Y1298D01*
X631Y1298D02*
X663Y1298D01*
X142Y1297D02*
X165Y1297D01*
X540Y1297D02*
X542Y1297D01*
X631Y1297D02*
X664Y1297D01*
X141Y1296D02*
X165Y1296D01*
X539Y1296D02*
X543Y1296D01*
X631Y1296D02*
X664Y1296D01*
X140Y1295D02*
X164Y1295D01*
X538Y1295D02*
X544Y1295D01*
X632Y1295D02*
X664Y1295D01*
X140Y1294D02*
X163Y1294D01*
X538Y1294D02*
X544Y1294D01*
X633Y1294D02*
X665Y1294D01*
X139Y1293D02*
X147Y1293D01*
X538Y1293D02*
X544Y1293D01*
X659Y1293D02*
X665Y1293D01*
X139Y1292D02*
X146Y1292D01*
X538Y1292D02*
X544Y1292D01*
X659Y1292D02*
X665Y1292D01*
X138Y1291D02*
X145Y1291D01*
X538Y1291D02*
X544Y1291D01*
X659Y1291D02*
X665Y1291D01*
X138Y1290D02*
X145Y1290D01*
X538Y1290D02*
X544Y1290D01*
X659Y1290D02*
X665Y1290D01*
X137Y1289D02*
X144Y1289D01*
X538Y1289D02*
X544Y1289D01*
X659Y1289D02*
X665Y1289D01*
X137Y1288D02*
X144Y1288D01*
X538Y1288D02*
X544Y1288D01*
X659Y1288D02*
X665Y1288D01*
X136Y1287D02*
X143Y1287D01*
X284Y1287D02*
X285Y1287D01*
X295Y1287D02*
X301Y1287D01*
X538Y1287D02*
X544Y1287D01*
X659Y1287D02*
X665Y1287D01*
X136Y1286D02*
X143Y1286D01*
X282Y1286D02*
X287Y1286D01*
X293Y1286D02*
X303Y1286D01*
X538Y1286D02*
X544Y1286D01*
X659Y1286D02*
X665Y1286D01*
X135Y1285D02*
X142Y1285D01*
X190Y1285D02*
X206Y1285D01*
X232Y1285D02*
X236Y1285D01*
X240Y1285D02*
X246Y1285D01*
X254Y1285D02*
X259Y1285D01*
X282Y1285D02*
X287Y1285D01*
X292Y1285D02*
X305Y1285D01*
X340Y1285D02*
X356Y1285D01*
X383Y1285D02*
X386Y1285D01*
X397Y1285D02*
X408Y1285D01*
X440Y1285D02*
X456Y1285D01*
X483Y1285D02*
X486Y1285D01*
X497Y1285D02*
X508Y1285D01*
X532Y1285D02*
X560Y1285D01*
X590Y1285D02*
X606Y1285D01*
X659Y1285D02*
X665Y1285D01*
X135Y1284D02*
X142Y1284D01*
X189Y1284D02*
X208Y1284D01*
X231Y1284D02*
X236Y1284D01*
X238Y1284D02*
X248Y1284D01*
X252Y1284D02*
X261Y1284D01*
X281Y1284D02*
X287Y1284D01*
X290Y1284D02*
X306Y1284D01*
X338Y1284D02*
X358Y1284D01*
X382Y1284D02*
X387Y1284D01*
X395Y1284D02*
X409Y1284D01*
X438Y1284D02*
X458Y1284D01*
X482Y1284D02*
X487Y1284D01*
X495Y1284D02*
X509Y1284D01*
X532Y1284D02*
X561Y1284D01*
X588Y1284D02*
X608Y1284D01*
X659Y1284D02*
X665Y1284D01*
X134Y1283D02*
X141Y1283D01*
X187Y1283D02*
X209Y1283D01*
X231Y1283D02*
X249Y1283D01*
X251Y1283D02*
X262Y1283D01*
X281Y1283D02*
X287Y1283D01*
X289Y1283D02*
X307Y1283D01*
X337Y1283D02*
X359Y1283D01*
X381Y1283D02*
X387Y1283D01*
X393Y1283D02*
X411Y1283D01*
X437Y1283D02*
X459Y1283D01*
X481Y1283D02*
X487Y1283D01*
X493Y1283D02*
X511Y1283D01*
X531Y1283D02*
X561Y1283D01*
X587Y1283D02*
X609Y1283D01*
X659Y1283D02*
X665Y1283D01*
X134Y1282D02*
X141Y1282D01*
X186Y1282D02*
X210Y1282D01*
X231Y1282D02*
X263Y1282D01*
X281Y1282D02*
X309Y1282D01*
X336Y1282D02*
X360Y1282D01*
X381Y1282D02*
X387Y1282D01*
X392Y1282D02*
X412Y1282D01*
X436Y1282D02*
X460Y1282D01*
X481Y1282D02*
X487Y1282D01*
X491Y1282D02*
X511Y1282D01*
X531Y1282D02*
X561Y1282D01*
X586Y1282D02*
X610Y1282D01*
X659Y1282D02*
X665Y1282D01*
X133Y1281D02*
X140Y1281D01*
X185Y1281D02*
X212Y1281D01*
X231Y1281D02*
X264Y1281D01*
X281Y1281D02*
X310Y1281D01*
X335Y1281D02*
X361Y1281D01*
X381Y1281D02*
X387Y1281D01*
X390Y1281D02*
X412Y1281D01*
X435Y1281D02*
X461Y1281D01*
X481Y1281D02*
X487Y1281D01*
X490Y1281D02*
X512Y1281D01*
X531Y1281D02*
X561Y1281D01*
X585Y1281D02*
X611Y1281D01*
X659Y1281D02*
X665Y1281D01*
X133Y1280D02*
X140Y1280D01*
X184Y1280D02*
X212Y1280D01*
X231Y1280D02*
X264Y1280D01*
X281Y1280D02*
X296Y1280D01*
X301Y1280D02*
X311Y1280D01*
X334Y1280D02*
X362Y1280D01*
X381Y1280D02*
X413Y1280D01*
X434Y1280D02*
X462Y1280D01*
X481Y1280D02*
X513Y1280D01*
X532Y1280D02*
X560Y1280D01*
X584Y1280D02*
X612Y1280D01*
X659Y1280D02*
X665Y1280D01*
X133Y1279D02*
X139Y1279D01*
X183Y1279D02*
X213Y1279D01*
X231Y1279D02*
X264Y1279D01*
X281Y1279D02*
X294Y1279D01*
X302Y1279D02*
X312Y1279D01*
X333Y1279D02*
X363Y1279D01*
X381Y1279D02*
X413Y1279D01*
X433Y1279D02*
X463Y1279D01*
X481Y1279D02*
X513Y1279D01*
X534Y1279D02*
X559Y1279D01*
X583Y1279D02*
X613Y1279D01*
X659Y1279D02*
X665Y1279D01*
X132Y1278D02*
X139Y1278D01*
X183Y1278D02*
X191Y1278D01*
X205Y1278D02*
X214Y1278D01*
X231Y1278D02*
X241Y1278D01*
X245Y1278D02*
X255Y1278D01*
X258Y1278D02*
X264Y1278D01*
X281Y1278D02*
X293Y1278D01*
X303Y1278D02*
X313Y1278D01*
X333Y1278D02*
X341Y1278D01*
X355Y1278D02*
X364Y1278D01*
X381Y1278D02*
X397Y1278D01*
X407Y1278D02*
X414Y1278D01*
X432Y1278D02*
X441Y1278D01*
X455Y1278D02*
X464Y1278D01*
X481Y1278D02*
X497Y1278D01*
X507Y1278D02*
X514Y1278D01*
X538Y1278D02*
X544Y1278D01*
X582Y1278D02*
X591Y1278D01*
X605Y1278D02*
X614Y1278D01*
X659Y1278D02*
X665Y1278D01*
X132Y1277D02*
X138Y1277D01*
X182Y1277D02*
X190Y1277D01*
X207Y1277D02*
X214Y1277D01*
X231Y1277D02*
X240Y1277D01*
X245Y1277D02*
X254Y1277D01*
X258Y1277D02*
X264Y1277D01*
X281Y1277D02*
X292Y1277D01*
X305Y1277D02*
X313Y1277D01*
X332Y1277D02*
X340Y1277D01*
X357Y1277D02*
X364Y1277D01*
X381Y1277D02*
X396Y1277D01*
X407Y1277D02*
X414Y1277D01*
X432Y1277D02*
X440Y1277D01*
X457Y1277D02*
X464Y1277D01*
X481Y1277D02*
X496Y1277D01*
X507Y1277D02*
X514Y1277D01*
X538Y1277D02*
X544Y1277D01*
X582Y1277D02*
X590Y1277D01*
X607Y1277D02*
X614Y1277D01*
X658Y1277D02*
X665Y1277D01*
X132Y1276D02*
X138Y1276D01*
X182Y1276D02*
X189Y1276D01*
X208Y1276D02*
X215Y1276D01*
X231Y1276D02*
X239Y1276D01*
X245Y1276D02*
X253Y1276D01*
X259Y1276D02*
X264Y1276D01*
X281Y1276D02*
X291Y1276D01*
X306Y1276D02*
X314Y1276D01*
X332Y1276D02*
X339Y1276D01*
X358Y1276D02*
X365Y1276D01*
X381Y1276D02*
X394Y1276D01*
X408Y1276D02*
X414Y1276D01*
X432Y1276D02*
X439Y1276D01*
X458Y1276D02*
X464Y1276D01*
X481Y1276D02*
X494Y1276D01*
X508Y1276D02*
X514Y1276D01*
X538Y1276D02*
X544Y1276D01*
X582Y1276D02*
X588Y1276D01*
X607Y1276D02*
X614Y1276D01*
X635Y1276D02*
X665Y1276D01*
X132Y1275D02*
X138Y1275D01*
X182Y1275D02*
X188Y1275D01*
X208Y1275D02*
X215Y1275D01*
X231Y1275D02*
X238Y1275D01*
X245Y1275D02*
X251Y1275D01*
X259Y1275D02*
X265Y1275D01*
X281Y1275D02*
X290Y1275D01*
X307Y1275D02*
X314Y1275D01*
X332Y1275D02*
X338Y1275D01*
X358Y1275D02*
X365Y1275D01*
X381Y1275D02*
X393Y1275D01*
X408Y1275D02*
X414Y1275D01*
X431Y1275D02*
X438Y1275D01*
X458Y1275D02*
X465Y1275D01*
X481Y1275D02*
X493Y1275D01*
X508Y1275D02*
X514Y1275D01*
X538Y1275D02*
X544Y1275D01*
X581Y1275D02*
X588Y1275D01*
X608Y1275D02*
X615Y1275D01*
X633Y1275D02*
X664Y1275D01*
X132Y1274D02*
X138Y1274D01*
X182Y1274D02*
X188Y1274D01*
X209Y1274D02*
X215Y1274D01*
X231Y1274D02*
X237Y1274D01*
X245Y1274D02*
X251Y1274D01*
X259Y1274D02*
X265Y1274D01*
X281Y1274D02*
X289Y1274D01*
X308Y1274D02*
X315Y1274D01*
X331Y1274D02*
X337Y1274D01*
X359Y1274D02*
X365Y1274D01*
X381Y1274D02*
X391Y1274D01*
X408Y1274D02*
X414Y1274D01*
X431Y1274D02*
X437Y1274D01*
X459Y1274D02*
X465Y1274D01*
X481Y1274D02*
X491Y1274D01*
X508Y1274D02*
X514Y1274D01*
X538Y1274D02*
X544Y1274D01*
X581Y1274D02*
X587Y1274D01*
X609Y1274D02*
X615Y1274D01*
X632Y1274D02*
X664Y1274D01*
X132Y1273D02*
X138Y1273D01*
X181Y1273D02*
X187Y1273D01*
X209Y1273D02*
X215Y1273D01*
X231Y1273D02*
X237Y1273D01*
X245Y1273D02*
X251Y1273D01*
X259Y1273D02*
X265Y1273D01*
X281Y1273D02*
X288Y1273D01*
X309Y1273D02*
X315Y1273D01*
X331Y1273D02*
X337Y1273D01*
X359Y1273D02*
X365Y1273D01*
X381Y1273D02*
X390Y1273D01*
X408Y1273D02*
X414Y1273D01*
X431Y1273D02*
X437Y1273D01*
X459Y1273D02*
X465Y1273D01*
X481Y1273D02*
X489Y1273D01*
X508Y1273D02*
X514Y1273D01*
X538Y1273D02*
X544Y1273D01*
X581Y1273D02*
X587Y1273D01*
X609Y1273D02*
X615Y1273D01*
X632Y1273D02*
X663Y1273D01*
X132Y1272D02*
X138Y1272D01*
X181Y1272D02*
X187Y1272D01*
X209Y1272D02*
X215Y1272D01*
X231Y1272D02*
X237Y1272D01*
X245Y1272D02*
X251Y1272D01*
X259Y1272D02*
X265Y1272D01*
X281Y1272D02*
X288Y1272D01*
X309Y1272D02*
X315Y1272D01*
X331Y1272D02*
X337Y1272D01*
X359Y1272D02*
X365Y1272D01*
X381Y1272D02*
X388Y1272D01*
X408Y1272D02*
X414Y1272D01*
X431Y1272D02*
X437Y1272D01*
X459Y1272D02*
X465Y1272D01*
X481Y1272D02*
X488Y1272D01*
X508Y1272D02*
X514Y1272D01*
X538Y1272D02*
X544Y1272D01*
X581Y1272D02*
X587Y1272D01*
X609Y1272D02*
X615Y1272D01*
X631Y1272D02*
X662Y1272D01*
X132Y1271D02*
X138Y1271D01*
X181Y1271D02*
X187Y1271D01*
X209Y1271D02*
X215Y1271D01*
X231Y1271D02*
X237Y1271D01*
X245Y1271D02*
X251Y1271D01*
X259Y1271D02*
X265Y1271D01*
X281Y1271D02*
X287Y1271D01*
X309Y1271D02*
X315Y1271D01*
X331Y1271D02*
X337Y1271D01*
X359Y1271D02*
X365Y1271D01*
X381Y1271D02*
X387Y1271D01*
X408Y1271D02*
X414Y1271D01*
X431Y1271D02*
X437Y1271D01*
X459Y1271D02*
X465Y1271D01*
X481Y1271D02*
X487Y1271D01*
X508Y1271D02*
X514Y1271D01*
X538Y1271D02*
X544Y1271D01*
X581Y1271D02*
X587Y1271D01*
X609Y1271D02*
X615Y1271D01*
X631Y1271D02*
X661Y1271D01*
X132Y1270D02*
X138Y1270D01*
X181Y1270D02*
X187Y1270D01*
X209Y1270D02*
X215Y1270D01*
X231Y1270D02*
X237Y1270D01*
X245Y1270D02*
X251Y1270D01*
X259Y1270D02*
X265Y1270D01*
X281Y1270D02*
X287Y1270D01*
X309Y1270D02*
X315Y1270D01*
X331Y1270D02*
X337Y1270D01*
X359Y1270D02*
X365Y1270D01*
X381Y1270D02*
X387Y1270D01*
X408Y1270D02*
X414Y1270D01*
X431Y1270D02*
X437Y1270D01*
X459Y1270D02*
X465Y1270D01*
X481Y1270D02*
X487Y1270D01*
X508Y1270D02*
X514Y1270D01*
X538Y1270D02*
X544Y1270D01*
X581Y1270D02*
X587Y1270D01*
X609Y1270D02*
X615Y1270D01*
X631Y1270D02*
X638Y1270D01*
X132Y1269D02*
X139Y1269D01*
X181Y1269D02*
X187Y1269D01*
X209Y1269D02*
X215Y1269D01*
X231Y1269D02*
X237Y1269D01*
X245Y1269D02*
X251Y1269D01*
X259Y1269D02*
X265Y1269D01*
X281Y1269D02*
X287Y1269D01*
X309Y1269D02*
X315Y1269D01*
X331Y1269D02*
X337Y1269D01*
X359Y1269D02*
X365Y1269D01*
X381Y1269D02*
X387Y1269D01*
X408Y1269D02*
X414Y1269D01*
X431Y1269D02*
X437Y1269D01*
X459Y1269D02*
X465Y1269D01*
X481Y1269D02*
X487Y1269D01*
X508Y1269D02*
X514Y1269D01*
X538Y1269D02*
X544Y1269D01*
X581Y1269D02*
X587Y1269D01*
X609Y1269D02*
X615Y1269D01*
X631Y1269D02*
X637Y1269D01*
X133Y1268D02*
X139Y1268D01*
X181Y1268D02*
X187Y1268D01*
X209Y1268D02*
X215Y1268D01*
X231Y1268D02*
X237Y1268D01*
X245Y1268D02*
X251Y1268D01*
X259Y1268D02*
X265Y1268D01*
X281Y1268D02*
X287Y1268D01*
X309Y1268D02*
X315Y1268D01*
X331Y1268D02*
X337Y1268D01*
X359Y1268D02*
X365Y1268D01*
X381Y1268D02*
X387Y1268D01*
X408Y1268D02*
X414Y1268D01*
X431Y1268D02*
X465Y1268D01*
X481Y1268D02*
X487Y1268D01*
X508Y1268D02*
X514Y1268D01*
X538Y1268D02*
X544Y1268D01*
X581Y1268D02*
X615Y1268D01*
X631Y1268D02*
X637Y1268D01*
X133Y1267D02*
X140Y1267D01*
X181Y1267D02*
X187Y1267D01*
X209Y1267D02*
X215Y1267D01*
X231Y1267D02*
X237Y1267D01*
X245Y1267D02*
X251Y1267D01*
X259Y1267D02*
X265Y1267D01*
X281Y1267D02*
X287Y1267D01*
X309Y1267D02*
X315Y1267D01*
X331Y1267D02*
X337Y1267D01*
X359Y1267D02*
X365Y1267D01*
X381Y1267D02*
X387Y1267D01*
X408Y1267D02*
X414Y1267D01*
X431Y1267D02*
X465Y1267D01*
X481Y1267D02*
X487Y1267D01*
X508Y1267D02*
X514Y1267D01*
X538Y1267D02*
X544Y1267D01*
X581Y1267D02*
X615Y1267D01*
X631Y1267D02*
X637Y1267D01*
X133Y1266D02*
X140Y1266D01*
X181Y1266D02*
X187Y1266D01*
X209Y1266D02*
X215Y1266D01*
X231Y1266D02*
X237Y1266D01*
X245Y1266D02*
X251Y1266D01*
X259Y1266D02*
X265Y1266D01*
X281Y1266D02*
X287Y1266D01*
X309Y1266D02*
X315Y1266D01*
X331Y1266D02*
X337Y1266D01*
X359Y1266D02*
X365Y1266D01*
X381Y1266D02*
X387Y1266D01*
X408Y1266D02*
X414Y1266D01*
X431Y1266D02*
X465Y1266D01*
X481Y1266D02*
X487Y1266D01*
X508Y1266D02*
X514Y1266D01*
X538Y1266D02*
X544Y1266D01*
X581Y1266D02*
X615Y1266D01*
X631Y1266D02*
X637Y1266D01*
X134Y1265D02*
X141Y1265D01*
X181Y1265D02*
X187Y1265D01*
X209Y1265D02*
X215Y1265D01*
X231Y1265D02*
X237Y1265D01*
X245Y1265D02*
X251Y1265D01*
X259Y1265D02*
X265Y1265D01*
X281Y1265D02*
X287Y1265D01*
X309Y1265D02*
X315Y1265D01*
X331Y1265D02*
X337Y1265D01*
X359Y1265D02*
X365Y1265D01*
X381Y1265D02*
X387Y1265D01*
X408Y1265D02*
X414Y1265D01*
X431Y1265D02*
X465Y1265D01*
X481Y1265D02*
X487Y1265D01*
X508Y1265D02*
X514Y1265D01*
X538Y1265D02*
X544Y1265D01*
X581Y1265D02*
X615Y1265D01*
X631Y1265D02*
X637Y1265D01*
X134Y1264D02*
X141Y1264D01*
X181Y1264D02*
X187Y1264D01*
X209Y1264D02*
X215Y1264D01*
X231Y1264D02*
X237Y1264D01*
X245Y1264D02*
X251Y1264D01*
X259Y1264D02*
X265Y1264D01*
X281Y1264D02*
X287Y1264D01*
X309Y1264D02*
X315Y1264D01*
X331Y1264D02*
X337Y1264D01*
X359Y1264D02*
X365Y1264D01*
X381Y1264D02*
X387Y1264D01*
X408Y1264D02*
X414Y1264D01*
X431Y1264D02*
X465Y1264D01*
X481Y1264D02*
X487Y1264D01*
X508Y1264D02*
X514Y1264D01*
X538Y1264D02*
X544Y1264D01*
X581Y1264D02*
X615Y1264D01*
X631Y1264D02*
X637Y1264D01*
X135Y1263D02*
X142Y1263D01*
X181Y1263D02*
X187Y1263D01*
X209Y1263D02*
X215Y1263D01*
X231Y1263D02*
X237Y1263D01*
X245Y1263D02*
X251Y1263D01*
X259Y1263D02*
X265Y1263D01*
X281Y1263D02*
X287Y1263D01*
X309Y1263D02*
X315Y1263D01*
X331Y1263D02*
X337Y1263D01*
X359Y1263D02*
X365Y1263D01*
X381Y1263D02*
X387Y1263D01*
X408Y1263D02*
X414Y1263D01*
X431Y1263D02*
X464Y1263D01*
X481Y1263D02*
X487Y1263D01*
X508Y1263D02*
X514Y1263D01*
X538Y1263D02*
X544Y1263D01*
X581Y1263D02*
X614Y1263D01*
X631Y1263D02*
X637Y1263D01*
X135Y1262D02*
X142Y1262D01*
X181Y1262D02*
X187Y1262D01*
X209Y1262D02*
X215Y1262D01*
X231Y1262D02*
X237Y1262D01*
X245Y1262D02*
X251Y1262D01*
X259Y1262D02*
X265Y1262D01*
X281Y1262D02*
X287Y1262D01*
X309Y1262D02*
X315Y1262D01*
X331Y1262D02*
X337Y1262D01*
X359Y1262D02*
X365Y1262D01*
X381Y1262D02*
X387Y1262D01*
X408Y1262D02*
X414Y1262D01*
X431Y1262D02*
X464Y1262D01*
X481Y1262D02*
X487Y1262D01*
X508Y1262D02*
X514Y1262D01*
X538Y1262D02*
X544Y1262D01*
X581Y1262D02*
X613Y1262D01*
X631Y1262D02*
X637Y1262D01*
X136Y1261D02*
X143Y1261D01*
X181Y1261D02*
X187Y1261D01*
X209Y1261D02*
X215Y1261D01*
X231Y1261D02*
X237Y1261D01*
X245Y1261D02*
X251Y1261D01*
X259Y1261D02*
X265Y1261D01*
X281Y1261D02*
X288Y1261D01*
X309Y1261D02*
X315Y1261D01*
X331Y1261D02*
X337Y1261D01*
X359Y1261D02*
X365Y1261D01*
X381Y1261D02*
X387Y1261D01*
X408Y1261D02*
X414Y1261D01*
X431Y1261D02*
X438Y1261D01*
X481Y1261D02*
X487Y1261D01*
X508Y1261D02*
X514Y1261D01*
X538Y1261D02*
X544Y1261D01*
X581Y1261D02*
X587Y1261D01*
X631Y1261D02*
X637Y1261D01*
X136Y1260D02*
X143Y1260D01*
X181Y1260D02*
X187Y1260D01*
X209Y1260D02*
X215Y1260D01*
X231Y1260D02*
X237Y1260D01*
X245Y1260D02*
X251Y1260D01*
X259Y1260D02*
X265Y1260D01*
X281Y1260D02*
X288Y1260D01*
X309Y1260D02*
X315Y1260D01*
X331Y1260D02*
X337Y1260D01*
X359Y1260D02*
X365Y1260D01*
X381Y1260D02*
X387Y1260D01*
X408Y1260D02*
X414Y1260D01*
X431Y1260D02*
X437Y1260D01*
X481Y1260D02*
X487Y1260D01*
X508Y1260D02*
X514Y1260D01*
X538Y1260D02*
X544Y1260D01*
X581Y1260D02*
X587Y1260D01*
X631Y1260D02*
X637Y1260D01*
X137Y1259D02*
X144Y1259D01*
X181Y1259D02*
X188Y1259D01*
X209Y1259D02*
X215Y1259D01*
X231Y1259D02*
X237Y1259D01*
X245Y1259D02*
X251Y1259D01*
X259Y1259D02*
X265Y1259D01*
X281Y1259D02*
X288Y1259D01*
X309Y1259D02*
X315Y1259D01*
X331Y1259D02*
X337Y1259D01*
X359Y1259D02*
X365Y1259D01*
X381Y1259D02*
X387Y1259D01*
X409Y1259D02*
X414Y1259D01*
X431Y1259D02*
X437Y1259D01*
X481Y1259D02*
X487Y1259D01*
X508Y1259D02*
X514Y1259D01*
X538Y1259D02*
X544Y1259D01*
X561Y1259D02*
X563Y1259D01*
X581Y1259D02*
X587Y1259D01*
X631Y1259D02*
X637Y1259D01*
X137Y1258D02*
X144Y1258D01*
X182Y1258D02*
X188Y1258D01*
X209Y1258D02*
X215Y1258D01*
X231Y1258D02*
X237Y1258D01*
X245Y1258D02*
X251Y1258D01*
X259Y1258D02*
X265Y1258D01*
X281Y1258D02*
X289Y1258D01*
X308Y1258D02*
X315Y1258D01*
X331Y1258D02*
X338Y1258D01*
X359Y1258D02*
X365Y1258D01*
X381Y1258D02*
X387Y1258D01*
X409Y1258D02*
X415Y1258D01*
X431Y1258D02*
X438Y1258D01*
X481Y1258D02*
X487Y1258D01*
X508Y1258D02*
X514Y1258D01*
X538Y1258D02*
X544Y1258D01*
X560Y1258D02*
X564Y1258D01*
X581Y1258D02*
X587Y1258D01*
X631Y1258D02*
X637Y1258D01*
X138Y1257D02*
X145Y1257D01*
X182Y1257D02*
X188Y1257D01*
X208Y1257D02*
X215Y1257D01*
X231Y1257D02*
X237Y1257D01*
X245Y1257D02*
X251Y1257D01*
X259Y1257D02*
X265Y1257D01*
X281Y1257D02*
X291Y1257D01*
X307Y1257D02*
X314Y1257D01*
X332Y1257D02*
X338Y1257D01*
X358Y1257D02*
X365Y1257D01*
X381Y1257D02*
X387Y1257D01*
X409Y1257D02*
X415Y1257D01*
X431Y1257D02*
X438Y1257D01*
X481Y1257D02*
X487Y1257D01*
X509Y1257D02*
X514Y1257D01*
X538Y1257D02*
X544Y1257D01*
X559Y1257D02*
X564Y1257D01*
X581Y1257D02*
X588Y1257D01*
X631Y1257D02*
X637Y1257D01*
X138Y1256D02*
X145Y1256D01*
X182Y1256D02*
X189Y1256D01*
X207Y1256D02*
X215Y1256D01*
X231Y1256D02*
X237Y1256D01*
X245Y1256D02*
X251Y1256D01*
X259Y1256D02*
X265Y1256D01*
X281Y1256D02*
X292Y1256D01*
X305Y1256D02*
X314Y1256D01*
X332Y1256D02*
X339Y1256D01*
X357Y1256D02*
X364Y1256D01*
X381Y1256D02*
X387Y1256D01*
X409Y1256D02*
X415Y1256D01*
X432Y1256D02*
X439Y1256D01*
X481Y1256D02*
X487Y1256D01*
X509Y1256D02*
X515Y1256D01*
X538Y1256D02*
X544Y1256D01*
X559Y1256D02*
X565Y1256D01*
X582Y1256D02*
X589Y1256D01*
X631Y1256D02*
X637Y1256D01*
X139Y1255D02*
X146Y1255D01*
X182Y1255D02*
X190Y1255D01*
X206Y1255D02*
X214Y1255D01*
X231Y1255D02*
X237Y1255D01*
X245Y1255D02*
X251Y1255D01*
X259Y1255D02*
X265Y1255D01*
X281Y1255D02*
X292Y1255D01*
X304Y1255D02*
X313Y1255D01*
X332Y1255D02*
X340Y1255D01*
X356Y1255D02*
X364Y1255D01*
X381Y1255D02*
X387Y1255D01*
X409Y1255D02*
X415Y1255D01*
X432Y1255D02*
X440Y1255D01*
X481Y1255D02*
X487Y1255D01*
X509Y1255D02*
X515Y1255D01*
X538Y1255D02*
X545Y1255D01*
X558Y1255D02*
X565Y1255D01*
X582Y1255D02*
X590Y1255D01*
X631Y1255D02*
X637Y1255D01*
X139Y1254D02*
X147Y1254D01*
X183Y1254D02*
X192Y1254D01*
X205Y1254D02*
X214Y1254D01*
X231Y1254D02*
X237Y1254D01*
X245Y1254D02*
X251Y1254D01*
X259Y1254D02*
X265Y1254D01*
X281Y1254D02*
X293Y1254D01*
X303Y1254D02*
X313Y1254D01*
X333Y1254D02*
X341Y1254D01*
X355Y1254D02*
X364Y1254D01*
X381Y1254D02*
X387Y1254D01*
X409Y1254D02*
X415Y1254D01*
X432Y1254D02*
X441Y1254D01*
X481Y1254D02*
X487Y1254D01*
X509Y1254D02*
X515Y1254D01*
X538Y1254D02*
X546Y1254D01*
X557Y1254D02*
X564Y1254D01*
X582Y1254D02*
X591Y1254D01*
X631Y1254D02*
X637Y1254D01*
X140Y1253D02*
X163Y1253D01*
X183Y1253D02*
X213Y1253D01*
X231Y1253D02*
X237Y1253D01*
X245Y1253D02*
X251Y1253D01*
X259Y1253D02*
X265Y1253D01*
X281Y1253D02*
X295Y1253D01*
X302Y1253D02*
X312Y1253D01*
X333Y1253D02*
X363Y1253D01*
X381Y1253D02*
X387Y1253D01*
X409Y1253D02*
X415Y1253D01*
X433Y1253D02*
X463Y1253D01*
X481Y1253D02*
X487Y1253D01*
X509Y1253D02*
X515Y1253D01*
X539Y1253D02*
X564Y1253D01*
X583Y1253D02*
X613Y1253D01*
X631Y1253D02*
X663Y1253D01*
X140Y1252D02*
X164Y1252D01*
X184Y1252D02*
X212Y1252D01*
X231Y1252D02*
X237Y1252D01*
X245Y1252D02*
X251Y1252D01*
X259Y1252D02*
X265Y1252D01*
X281Y1252D02*
X297Y1252D01*
X300Y1252D02*
X311Y1252D01*
X334Y1252D02*
X362Y1252D01*
X381Y1252D02*
X387Y1252D01*
X409Y1252D02*
X415Y1252D01*
X434Y1252D02*
X464Y1252D01*
X481Y1252D02*
X487Y1252D01*
X509Y1252D02*
X515Y1252D01*
X539Y1252D02*
X564Y1252D01*
X584Y1252D02*
X614Y1252D01*
X631Y1252D02*
X664Y1252D01*
X141Y1251D02*
X165Y1251D01*
X185Y1251D02*
X211Y1251D01*
X231Y1251D02*
X237Y1251D01*
X245Y1251D02*
X251Y1251D01*
X259Y1251D02*
X265Y1251D01*
X281Y1251D02*
X309Y1251D01*
X335Y1251D02*
X361Y1251D01*
X381Y1251D02*
X387Y1251D01*
X409Y1251D02*
X415Y1251D01*
X435Y1251D02*
X465Y1251D01*
X481Y1251D02*
X487Y1251D01*
X509Y1251D02*
X515Y1251D01*
X540Y1251D02*
X563Y1251D01*
X585Y1251D02*
X614Y1251D01*
X631Y1251D02*
X664Y1251D01*
X142Y1250D02*
X165Y1250D01*
X186Y1250D02*
X210Y1250D01*
X231Y1250D02*
X237Y1250D01*
X245Y1250D02*
X251Y1250D01*
X259Y1250D02*
X265Y1250D01*
X281Y1250D02*
X308Y1250D01*
X336Y1250D02*
X360Y1250D01*
X381Y1250D02*
X387Y1250D01*
X409Y1250D02*
X415Y1250D01*
X436Y1250D02*
X465Y1250D01*
X481Y1250D02*
X487Y1250D01*
X509Y1250D02*
X515Y1250D01*
X541Y1250D02*
X562Y1250D01*
X586Y1250D02*
X615Y1250D01*
X631Y1250D02*
X665Y1250D01*
X143Y1249D02*
X165Y1249D01*
X188Y1249D02*
X209Y1249D01*
X231Y1249D02*
X237Y1249D01*
X245Y1249D02*
X251Y1249D01*
X260Y1249D02*
X265Y1249D01*
X281Y1249D02*
X287Y1249D01*
X290Y1249D02*
X307Y1249D01*
X337Y1249D02*
X359Y1249D01*
X381Y1249D02*
X387Y1249D01*
X409Y1249D02*
X415Y1249D01*
X437Y1249D02*
X465Y1249D01*
X481Y1249D02*
X487Y1249D01*
X509Y1249D02*
X515Y1249D01*
X542Y1249D02*
X561Y1249D01*
X587Y1249D02*
X615Y1249D01*
X631Y1249D02*
X664Y1249D01*
X144Y1248D02*
X164Y1248D01*
X189Y1248D02*
X208Y1248D01*
X232Y1248D02*
X236Y1248D01*
X246Y1248D02*
X251Y1248D01*
X260Y1248D02*
X265Y1248D01*
X281Y1248D02*
X287Y1248D01*
X291Y1248D02*
X306Y1248D01*
X339Y1248D02*
X357Y1248D01*
X382Y1248D02*
X387Y1248D01*
X409Y1248D02*
X414Y1248D01*
X439Y1248D02*
X464Y1248D01*
X482Y1248D02*
X487Y1248D01*
X509Y1248D02*
X514Y1248D01*
X543Y1248D02*
X560Y1248D01*
X589Y1248D02*
X614Y1248D01*
X631Y1248D02*
X664Y1248D01*
X146Y1247D02*
X163Y1247D01*
X191Y1247D02*
X206Y1247D01*
X233Y1247D02*
X235Y1247D01*
X247Y1247D02*
X249Y1247D01*
X261Y1247D02*
X264Y1247D01*
X281Y1247D02*
X287Y1247D01*
X292Y1247D02*
X305Y1247D01*
X341Y1247D02*
X355Y1247D01*
X383Y1247D02*
X386Y1247D01*
X411Y1247D02*
X413Y1247D01*
X441Y1247D02*
X463Y1247D01*
X483Y1247D02*
X486Y1247D01*
X510Y1247D02*
X513Y1247D01*
X545Y1247D02*
X558Y1247D01*
X591Y1247D02*
X613Y1247D01*
X631Y1247D02*
X663Y1247D01*
X281Y1246D02*
X287Y1246D01*
X294Y1246D02*
X303Y1246D01*
X281Y1245D02*
X287Y1245D01*
X298Y1245D02*
X299Y1245D01*
X281Y1244D02*
X287Y1244D01*
X281Y1243D02*
X287Y1243D01*
X281Y1242D02*
X287Y1242D01*
X281Y1241D02*
X287Y1241D01*
X281Y1240D02*
X287Y1240D01*
X281Y1239D02*
X287Y1239D01*
X281Y1238D02*
X287Y1238D01*
X281Y1237D02*
X287Y1237D01*
X281Y1236D02*
X287Y1236D01*
X281Y1235D02*
X287Y1235D01*
X282Y1234D02*
X287Y1234D01*
X282Y1233D02*
X287Y1233D01*
X283Y1232D02*
X285Y1232D01*
X386Y1156D02*
X409Y1156D01*
X439Y1156D02*
X462Y1156D01*
X385Y1155D02*
X413Y1155D01*
X436Y1155D02*
X465Y1155D01*
X385Y1154D02*
X414Y1154D01*
X436Y1154D02*
X467Y1154D01*
X385Y1153D02*
X416Y1153D01*
X435Y1153D02*
X468Y1153D01*
X385Y1152D02*
X417Y1152D01*
X435Y1152D02*
X468Y1152D01*
X385Y1151D02*
X417Y1151D01*
X436Y1151D02*
X469Y1151D01*
X385Y1150D02*
X418Y1150D01*
X436Y1150D02*
X469Y1150D01*
X385Y1149D02*
X418Y1149D01*
X439Y1149D02*
X469Y1149D01*
X385Y1148D02*
X391Y1148D01*
X412Y1148D02*
X419Y1148D01*
X463Y1148D02*
X469Y1148D01*
X385Y1147D02*
X391Y1147D01*
X412Y1147D02*
X419Y1147D01*
X463Y1147D02*
X469Y1147D01*
X385Y1146D02*
X391Y1146D01*
X413Y1146D02*
X419Y1146D01*
X463Y1146D02*
X469Y1146D01*
X385Y1145D02*
X391Y1145D01*
X413Y1145D02*
X419Y1145D01*
X463Y1145D02*
X469Y1145D01*
X385Y1144D02*
X391Y1144D01*
X413Y1144D02*
X419Y1144D01*
X463Y1144D02*
X469Y1144D01*
X385Y1143D02*
X391Y1143D01*
X413Y1143D02*
X419Y1143D01*
X463Y1143D02*
X469Y1143D01*
X385Y1142D02*
X391Y1142D01*
X413Y1142D02*
X419Y1142D01*
X463Y1142D02*
X469Y1142D01*
X385Y1141D02*
X391Y1141D01*
X413Y1141D02*
X419Y1141D01*
X463Y1141D02*
X469Y1141D01*
X385Y1140D02*
X391Y1140D01*
X412Y1140D02*
X419Y1140D01*
X463Y1140D02*
X469Y1140D01*
X385Y1139D02*
X391Y1139D01*
X411Y1139D02*
X418Y1139D01*
X463Y1139D02*
X469Y1139D01*
X385Y1138D02*
X418Y1138D01*
X463Y1138D02*
X469Y1138D01*
X385Y1137D02*
X418Y1137D01*
X463Y1137D02*
X469Y1137D01*
X385Y1136D02*
X417Y1136D01*
X463Y1136D02*
X469Y1136D01*
X385Y1135D02*
X416Y1135D01*
X463Y1135D02*
X469Y1135D01*
X385Y1134D02*
X415Y1134D01*
X463Y1134D02*
X469Y1134D01*
X385Y1133D02*
X414Y1133D01*
X463Y1133D02*
X469Y1133D01*
X385Y1132D02*
X412Y1132D01*
X440Y1132D02*
X469Y1132D01*
X385Y1131D02*
X392Y1131D01*
X397Y1131D02*
X405Y1131D01*
X438Y1131D02*
X469Y1131D01*
X385Y1130D02*
X391Y1130D01*
X398Y1130D02*
X405Y1130D01*
X437Y1130D02*
X468Y1130D01*
X287Y1129D02*
X289Y1129D01*
X313Y1129D02*
X330Y1129D01*
X385Y1129D02*
X391Y1129D01*
X398Y1129D02*
X406Y1129D01*
X436Y1129D02*
X468Y1129D01*
X286Y1128D02*
X290Y1128D01*
X311Y1128D02*
X330Y1128D01*
X385Y1128D02*
X391Y1128D01*
X399Y1128D02*
X406Y1128D01*
X436Y1128D02*
X467Y1128D01*
X285Y1127D02*
X291Y1127D01*
X311Y1127D02*
X330Y1127D01*
X385Y1127D02*
X391Y1127D01*
X400Y1127D02*
X407Y1127D01*
X436Y1127D02*
X466Y1127D01*
X285Y1126D02*
X291Y1126D01*
X311Y1126D02*
X330Y1126D01*
X385Y1126D02*
X391Y1126D01*
X400Y1126D02*
X407Y1126D01*
X435Y1126D02*
X464Y1126D01*
X285Y1125D02*
X291Y1125D01*
X311Y1125D02*
X330Y1125D01*
X385Y1125D02*
X391Y1125D01*
X401Y1125D02*
X408Y1125D01*
X435Y1125D02*
X441Y1125D01*
X285Y1124D02*
X291Y1124D01*
X311Y1124D02*
X330Y1124D01*
X385Y1124D02*
X391Y1124D01*
X401Y1124D02*
X409Y1124D01*
X435Y1124D02*
X441Y1124D01*
X285Y1123D02*
X291Y1123D01*
X312Y1123D02*
X330Y1123D01*
X385Y1123D02*
X391Y1123D01*
X402Y1123D02*
X409Y1123D01*
X435Y1123D02*
X441Y1123D01*
X285Y1122D02*
X291Y1122D01*
X324Y1122D02*
X330Y1122D01*
X385Y1122D02*
X391Y1122D01*
X403Y1122D02*
X410Y1122D01*
X435Y1122D02*
X441Y1122D01*
X285Y1121D02*
X291Y1121D01*
X324Y1121D02*
X330Y1121D01*
X385Y1121D02*
X391Y1121D01*
X403Y1121D02*
X410Y1121D01*
X435Y1121D02*
X441Y1121D01*
X285Y1120D02*
X291Y1120D01*
X324Y1120D02*
X330Y1120D01*
X385Y1120D02*
X391Y1120D01*
X404Y1120D02*
X411Y1120D01*
X435Y1120D02*
X441Y1120D01*
X285Y1119D02*
X291Y1119D01*
X324Y1119D02*
X330Y1119D01*
X385Y1119D02*
X391Y1119D01*
X404Y1119D02*
X412Y1119D01*
X435Y1119D02*
X441Y1119D01*
X285Y1118D02*
X291Y1118D01*
X324Y1118D02*
X330Y1118D01*
X385Y1118D02*
X391Y1118D01*
X405Y1118D02*
X412Y1118D01*
X435Y1118D02*
X441Y1118D01*
X285Y1117D02*
X291Y1117D01*
X324Y1117D02*
X330Y1117D01*
X385Y1117D02*
X391Y1117D01*
X405Y1117D02*
X413Y1117D01*
X435Y1117D02*
X441Y1117D01*
X285Y1116D02*
X291Y1116D01*
X324Y1116D02*
X330Y1116D01*
X385Y1116D02*
X391Y1116D01*
X406Y1116D02*
X413Y1116D01*
X435Y1116D02*
X441Y1116D01*
X285Y1115D02*
X291Y1115D01*
X324Y1115D02*
X330Y1115D01*
X385Y1115D02*
X391Y1115D01*
X407Y1115D02*
X414Y1115D01*
X435Y1115D02*
X441Y1115D01*
X285Y1114D02*
X291Y1114D01*
X324Y1114D02*
X330Y1114D01*
X385Y1114D02*
X391Y1114D01*
X407Y1114D02*
X414Y1114D01*
X435Y1114D02*
X441Y1114D01*
X285Y1113D02*
X291Y1113D01*
X324Y1113D02*
X330Y1113D01*
X385Y1113D02*
X391Y1113D01*
X408Y1113D02*
X415Y1113D01*
X435Y1113D02*
X441Y1113D01*
X285Y1112D02*
X291Y1112D01*
X324Y1112D02*
X330Y1112D01*
X385Y1112D02*
X391Y1112D01*
X408Y1112D02*
X416Y1112D01*
X435Y1112D02*
X441Y1112D01*
X285Y1111D02*
X291Y1111D01*
X324Y1111D02*
X330Y1111D01*
X385Y1111D02*
X391Y1111D01*
X409Y1111D02*
X416Y1111D01*
X435Y1111D02*
X441Y1111D01*
X285Y1110D02*
X291Y1110D01*
X324Y1110D02*
X330Y1110D01*
X385Y1110D02*
X391Y1110D01*
X410Y1110D02*
X417Y1110D01*
X435Y1110D02*
X441Y1110D01*
X285Y1109D02*
X291Y1109D01*
X324Y1109D02*
X330Y1109D01*
X385Y1109D02*
X391Y1109D01*
X410Y1109D02*
X417Y1109D01*
X435Y1109D02*
X442Y1109D01*
X285Y1108D02*
X291Y1108D01*
X324Y1108D02*
X330Y1108D01*
X385Y1108D02*
X391Y1108D01*
X411Y1108D02*
X418Y1108D01*
X435Y1108D02*
X468Y1108D01*
X285Y1107D02*
X291Y1107D01*
X324Y1107D02*
X330Y1107D01*
X385Y1107D02*
X391Y1107D01*
X411Y1107D02*
X418Y1107D01*
X435Y1107D02*
X468Y1107D01*
X285Y1106D02*
X291Y1106D01*
X324Y1106D02*
X330Y1106D01*
X385Y1106D02*
X391Y1106D01*
X412Y1106D02*
X419Y1106D01*
X435Y1106D02*
X469Y1106D01*
X285Y1105D02*
X291Y1105D01*
X324Y1105D02*
X330Y1105D01*
X385Y1105D02*
X391Y1105D01*
X413Y1105D02*
X419Y1105D01*
X435Y1105D02*
X469Y1105D01*
X285Y1104D02*
X291Y1104D01*
X324Y1104D02*
X330Y1104D01*
X386Y1104D02*
X391Y1104D01*
X413Y1104D02*
X419Y1104D01*
X435Y1104D02*
X469Y1104D01*
X285Y1103D02*
X291Y1103D01*
X324Y1103D02*
X330Y1103D01*
X386Y1103D02*
X390Y1103D01*
X414Y1103D02*
X418Y1103D01*
X435Y1103D02*
X468Y1103D01*
X285Y1102D02*
X291Y1102D01*
X324Y1102D02*
X330Y1102D01*
X388Y1102D02*
X389Y1102D01*
X415Y1102D02*
X416Y1102D01*
X436Y1102D02*
X466Y1102D01*
X285Y1101D02*
X291Y1101D01*
X324Y1101D02*
X330Y1101D01*
X285Y1100D02*
X291Y1100D01*
X324Y1100D02*
X330Y1100D01*
X265Y1099D02*
X269Y1099D01*
X285Y1099D02*
X291Y1099D01*
X324Y1099D02*
X330Y1099D01*
X339Y1099D02*
X343Y1099D01*
X265Y1098D02*
X270Y1098D01*
X285Y1098D02*
X291Y1098D01*
X324Y1098D02*
X330Y1098D01*
X339Y1098D02*
X344Y1098D01*
X264Y1097D02*
X270Y1097D01*
X285Y1097D02*
X291Y1097D01*
X324Y1097D02*
X330Y1097D01*
X338Y1097D02*
X344Y1097D01*
X264Y1096D02*
X270Y1096D01*
X285Y1096D02*
X291Y1096D01*
X324Y1096D02*
X330Y1096D01*
X338Y1096D02*
X344Y1096D01*
X264Y1095D02*
X270Y1095D01*
X285Y1095D02*
X291Y1095D01*
X324Y1095D02*
X330Y1095D01*
X338Y1095D02*
X344Y1095D01*
X264Y1094D02*
X270Y1094D01*
X285Y1094D02*
X291Y1094D01*
X324Y1094D02*
X330Y1094D01*
X338Y1094D02*
X344Y1094D01*
X264Y1093D02*
X270Y1093D01*
X285Y1093D02*
X291Y1093D01*
X324Y1093D02*
X330Y1093D01*
X338Y1093D02*
X344Y1093D01*
X264Y1092D02*
X270Y1092D01*
X285Y1092D02*
X291Y1092D01*
X324Y1092D02*
X330Y1092D01*
X338Y1092D02*
X344Y1092D01*
X264Y1091D02*
X270Y1091D01*
X285Y1091D02*
X291Y1091D01*
X324Y1091D02*
X330Y1091D01*
X338Y1091D02*
X344Y1091D01*
X264Y1090D02*
X270Y1090D01*
X285Y1090D02*
X291Y1090D01*
X324Y1090D02*
X330Y1090D01*
X338Y1090D02*
X344Y1090D01*
X264Y1089D02*
X270Y1089D01*
X285Y1089D02*
X291Y1089D01*
X324Y1089D02*
X330Y1089D01*
X338Y1089D02*
X344Y1089D01*
X264Y1088D02*
X270Y1088D01*
X285Y1088D02*
X291Y1088D01*
X324Y1088D02*
X330Y1088D01*
X338Y1088D02*
X344Y1088D01*
X264Y1087D02*
X270Y1087D01*
X285Y1087D02*
X291Y1087D01*
X324Y1087D02*
X330Y1087D01*
X338Y1087D02*
X344Y1087D01*
X264Y1086D02*
X270Y1086D01*
X285Y1086D02*
X291Y1086D01*
X324Y1086D02*
X330Y1086D01*
X338Y1086D02*
X344Y1086D01*
X264Y1085D02*
X270Y1085D01*
X285Y1085D02*
X291Y1085D01*
X324Y1085D02*
X330Y1085D01*
X338Y1085D02*
X344Y1085D01*
X264Y1084D02*
X271Y1084D01*
X284Y1084D02*
X291Y1084D01*
X324Y1084D02*
X330Y1084D01*
X338Y1084D02*
X344Y1084D01*
X264Y1083D02*
X272Y1083D01*
X283Y1083D02*
X290Y1083D01*
X324Y1083D02*
X330Y1083D01*
X338Y1083D02*
X344Y1083D01*
X265Y1082D02*
X290Y1082D01*
X313Y1082D02*
X344Y1082D01*
X265Y1081D02*
X290Y1081D01*
X312Y1081D02*
X344Y1081D01*
X266Y1080D02*
X289Y1080D01*
X311Y1080D02*
X344Y1080D01*
X267Y1079D02*
X288Y1079D01*
X311Y1079D02*
X344Y1079D01*
X268Y1078D02*
X287Y1078D01*
X311Y1078D02*
X344Y1078D01*
X269Y1077D02*
X286Y1077D01*
X311Y1077D02*
X344Y1077D01*
X271Y1076D02*
X284Y1076D01*
X312Y1076D02*
X343Y1076D01*
X208Y898D02*
X226Y898D01*
X206Y897D02*
X228Y897D01*
X205Y896D02*
X228Y896D01*
X205Y895D02*
X229Y895D01*
X205Y894D02*
X229Y894D01*
X205Y893D02*
X229Y893D01*
X206Y892D02*
X229Y892D01*
X222Y891D02*
X229Y891D01*
X223Y890D02*
X229Y890D01*
X223Y889D02*
X229Y889D01*
X223Y888D02*
X229Y888D01*
X223Y887D02*
X229Y887D01*
X223Y886D02*
X229Y886D01*
X223Y885D02*
X229Y885D01*
X176Y884D02*
X229Y884D01*
X176Y883D02*
X229Y883D01*
X176Y882D02*
X229Y882D01*
X176Y881D02*
X229Y881D01*
X176Y880D02*
X229Y880D01*
X176Y879D02*
X229Y879D01*
X176Y878D02*
X229Y878D01*
X176Y877D02*
X182Y877D01*
X223Y877D02*
X229Y877D01*
X176Y876D02*
X182Y876D01*
X223Y876D02*
X229Y876D01*
X176Y875D02*
X182Y875D01*
X223Y875D02*
X229Y875D01*
X176Y874D02*
X182Y874D01*
X223Y874D02*
X229Y874D01*
X176Y873D02*
X182Y873D01*
X223Y873D02*
X229Y873D01*
X176Y872D02*
X182Y872D01*
X223Y872D02*
X229Y872D01*
X176Y871D02*
X182Y871D01*
X223Y871D02*
X229Y871D01*
X176Y870D02*
X182Y870D01*
X223Y870D02*
X229Y870D01*
X176Y869D02*
X182Y869D01*
X223Y869D02*
X229Y869D01*
X176Y868D02*
X182Y868D01*
X223Y868D02*
X229Y868D01*
X176Y867D02*
X182Y867D01*
X223Y867D02*
X229Y867D01*
X176Y866D02*
X181Y866D01*
X223Y866D02*
X229Y866D01*
X176Y865D02*
X181Y865D01*
X223Y865D02*
X228Y865D01*
X177Y864D02*
X180Y864D01*
X225Y864D02*
X227Y864D01*
X179Y848D02*
X179Y848D01*
X226Y848D02*
X226Y848D01*
X177Y847D02*
X181Y847D01*
X224Y847D02*
X228Y847D01*
X176Y846D02*
X181Y846D01*
X223Y846D02*
X228Y846D01*
X176Y845D02*
X182Y845D01*
X223Y845D02*
X229Y845D01*
X176Y844D02*
X182Y844D01*
X223Y844D02*
X229Y844D01*
X176Y843D02*
X182Y843D01*
X223Y843D02*
X229Y843D01*
X176Y842D02*
X182Y842D01*
X223Y842D02*
X229Y842D01*
X176Y841D02*
X182Y841D01*
X223Y841D02*
X229Y841D01*
X176Y840D02*
X182Y840D01*
X223Y840D02*
X229Y840D01*
X176Y839D02*
X182Y839D01*
X223Y839D02*
X229Y839D01*
X176Y838D02*
X182Y838D01*
X223Y838D02*
X229Y838D01*
X176Y837D02*
X182Y837D01*
X223Y837D02*
X229Y837D01*
X176Y836D02*
X182Y836D01*
X223Y836D02*
X229Y836D01*
X176Y835D02*
X182Y835D01*
X223Y835D02*
X229Y835D01*
X176Y834D02*
X182Y834D01*
X223Y834D02*
X229Y834D01*
X176Y833D02*
X182Y833D01*
X223Y833D02*
X229Y833D01*
X176Y832D02*
X182Y832D01*
X223Y832D02*
X229Y832D01*
X176Y831D02*
X182Y831D01*
X223Y831D02*
X229Y831D01*
X176Y830D02*
X182Y830D01*
X222Y830D02*
X229Y830D01*
X176Y829D02*
X183Y829D01*
X221Y829D02*
X228Y829D01*
X176Y828D02*
X185Y828D01*
X220Y828D02*
X228Y828D01*
X177Y827D02*
X187Y827D01*
X218Y827D02*
X228Y827D01*
X177Y826D02*
X189Y826D01*
X216Y826D02*
X227Y826D01*
X178Y825D02*
X191Y825D01*
X214Y825D02*
X226Y825D01*
X179Y824D02*
X193Y824D01*
X212Y824D02*
X225Y824D01*
X180Y823D02*
X195Y823D01*
X210Y823D02*
X224Y823D01*
X182Y822D02*
X196Y822D01*
X208Y822D02*
X222Y822D01*
X184Y821D02*
X199Y821D01*
X205Y821D02*
X220Y821D01*
X186Y820D02*
X218Y820D01*
X188Y819D02*
X216Y819D01*
X190Y818D02*
X214Y818D01*
X192Y817D02*
X212Y817D01*
X194Y816D02*
X211Y816D01*
X196Y815D02*
X208Y815D01*
X199Y814D02*
X206Y814D01*
X179Y798D02*
X179Y798D01*
X226Y798D02*
X226Y798D01*
X177Y797D02*
X181Y797D01*
X224Y797D02*
X228Y797D01*
X176Y796D02*
X181Y796D01*
X223Y796D02*
X228Y796D01*
X176Y795D02*
X182Y795D01*
X223Y795D02*
X229Y795D01*
X176Y794D02*
X182Y794D01*
X223Y794D02*
X229Y794D01*
X176Y793D02*
X182Y793D01*
X223Y793D02*
X229Y793D01*
X176Y792D02*
X182Y792D01*
X223Y792D02*
X229Y792D01*
X176Y791D02*
X182Y791D01*
X223Y791D02*
X229Y791D01*
X176Y790D02*
X182Y790D01*
X223Y790D02*
X229Y790D01*
X176Y789D02*
X182Y789D01*
X223Y789D02*
X229Y789D01*
X176Y788D02*
X182Y788D01*
X223Y788D02*
X229Y788D01*
X176Y787D02*
X182Y787D01*
X223Y787D02*
X229Y787D01*
X176Y786D02*
X182Y786D01*
X223Y786D02*
X229Y786D01*
X176Y785D02*
X182Y785D01*
X223Y785D02*
X229Y785D01*
X176Y784D02*
X229Y784D01*
X176Y783D02*
X229Y783D01*
X176Y782D02*
X229Y782D01*
X176Y781D02*
X229Y781D01*
X176Y780D02*
X229Y780D01*
X176Y779D02*
X229Y779D01*
X176Y778D02*
X229Y778D01*
X176Y777D02*
X182Y777D01*
X223Y777D02*
X229Y777D01*
X176Y776D02*
X182Y776D01*
X223Y776D02*
X229Y776D01*
X176Y775D02*
X182Y775D01*
X223Y775D02*
X229Y775D01*
X176Y774D02*
X182Y774D01*
X223Y774D02*
X229Y774D01*
X176Y773D02*
X182Y773D01*
X223Y773D02*
X229Y773D01*
X176Y772D02*
X182Y772D01*
X223Y772D02*
X229Y772D01*
X176Y771D02*
X182Y771D01*
X223Y771D02*
X229Y771D01*
X176Y770D02*
X182Y770D01*
X223Y770D02*
X229Y770D01*
X176Y769D02*
X182Y769D01*
X223Y769D02*
X229Y769D01*
X176Y768D02*
X182Y768D01*
X223Y768D02*
X229Y768D01*
X176Y767D02*
X182Y767D01*
X223Y767D02*
X229Y767D01*
X176Y766D02*
X181Y766D01*
X223Y766D02*
X229Y766D01*
X176Y765D02*
X181Y765D01*
X223Y765D02*
X228Y765D01*
X177Y764D02*
X180Y764D01*
X225Y764D02*
X227Y764D01*
X295Y708D02*
X317Y708D01*
X339Y708D02*
X343Y708D01*
X293Y707D02*
X318Y707D01*
X339Y707D02*
X344Y707D01*
X292Y706D02*
X319Y706D01*
X338Y706D02*
X344Y706D01*
X292Y705D02*
X320Y705D01*
X338Y705D02*
X344Y705D01*
X291Y704D02*
X320Y704D01*
X338Y704D02*
X344Y704D01*
X291Y703D02*
X320Y703D01*
X338Y703D02*
X344Y703D01*
X291Y702D02*
X320Y702D01*
X338Y702D02*
X344Y702D01*
X291Y701D02*
X297Y701D01*
X315Y701D02*
X320Y701D01*
X338Y701D02*
X344Y701D01*
X291Y700D02*
X297Y700D01*
X315Y700D02*
X320Y700D01*
X338Y700D02*
X344Y700D01*
X291Y699D02*
X297Y699D01*
X315Y699D02*
X320Y699D01*
X338Y699D02*
X344Y699D01*
X291Y698D02*
X297Y698D01*
X315Y698D02*
X320Y698D01*
X338Y698D02*
X344Y698D01*
X291Y697D02*
X297Y697D01*
X315Y697D02*
X320Y697D01*
X338Y697D02*
X344Y697D01*
X291Y696D02*
X297Y696D01*
X315Y696D02*
X320Y696D01*
X338Y696D02*
X344Y696D01*
X291Y695D02*
X297Y695D01*
X315Y695D02*
X320Y695D01*
X338Y695D02*
X344Y695D01*
X291Y694D02*
X297Y694D01*
X315Y694D02*
X320Y694D01*
X338Y694D02*
X344Y694D01*
X291Y693D02*
X297Y693D01*
X315Y693D02*
X320Y693D01*
X338Y693D02*
X344Y693D01*
X291Y692D02*
X297Y692D01*
X315Y692D02*
X320Y692D01*
X338Y692D02*
X344Y692D01*
X291Y691D02*
X297Y691D01*
X315Y691D02*
X320Y691D01*
X338Y691D02*
X344Y691D01*
X291Y690D02*
X297Y690D01*
X315Y690D02*
X320Y690D01*
X338Y690D02*
X344Y690D01*
X291Y689D02*
X297Y689D01*
X315Y689D02*
X320Y689D01*
X338Y689D02*
X344Y689D01*
X291Y688D02*
X297Y688D01*
X315Y688D02*
X320Y688D01*
X338Y688D02*
X344Y688D01*
X291Y687D02*
X297Y687D01*
X315Y687D02*
X320Y687D01*
X338Y687D02*
X344Y687D01*
X291Y686D02*
X297Y686D01*
X315Y686D02*
X320Y686D01*
X338Y686D02*
X344Y686D01*
X291Y685D02*
X297Y685D01*
X315Y685D02*
X320Y685D01*
X338Y685D02*
X344Y685D01*
X291Y684D02*
X297Y684D01*
X315Y684D02*
X320Y684D01*
X338Y684D02*
X344Y684D01*
X291Y683D02*
X297Y683D01*
X315Y683D02*
X320Y683D01*
X338Y683D02*
X344Y683D01*
X291Y682D02*
X297Y682D01*
X315Y682D02*
X320Y682D01*
X338Y682D02*
X344Y682D01*
X291Y681D02*
X297Y681D01*
X315Y681D02*
X344Y681D01*
X291Y680D02*
X297Y680D01*
X315Y680D02*
X344Y680D01*
X291Y679D02*
X297Y679D01*
X315Y679D02*
X344Y679D01*
X291Y678D02*
X297Y678D01*
X315Y678D02*
X344Y678D01*
X291Y677D02*
X297Y677D01*
X316Y677D02*
X344Y677D01*
X292Y676D02*
X296Y676D01*
X317Y676D02*
X344Y676D01*
X293Y675D02*
X295Y675D01*
X319Y675D02*
X344Y675D01*
X313Y658D02*
X322Y658D01*
X310Y657D02*
X325Y657D01*
X308Y656D02*
X327Y656D01*
X306Y655D02*
X329Y655D01*
X304Y654D02*
X331Y654D01*
X302Y653D02*
X333Y653D01*
X300Y652D02*
X335Y652D01*
X299Y651D02*
X313Y651D01*
X322Y651D02*
X337Y651D01*
X297Y650D02*
X311Y650D01*
X324Y650D02*
X339Y650D01*
X295Y649D02*
X309Y649D01*
X326Y649D02*
X340Y649D01*
X294Y648D02*
X307Y648D01*
X328Y648D02*
X341Y648D01*
X293Y647D02*
X305Y647D01*
X330Y647D02*
X342Y647D01*
X292Y646D02*
X303Y646D01*
X332Y646D02*
X343Y646D01*
X292Y645D02*
X301Y645D01*
X334Y645D02*
X343Y645D01*
X292Y644D02*
X299Y644D01*
X336Y644D02*
X344Y644D01*
X291Y643D02*
X298Y643D01*
X337Y643D02*
X344Y643D01*
X291Y642D02*
X297Y642D01*
X338Y642D02*
X344Y642D01*
X291Y641D02*
X297Y641D01*
X338Y641D02*
X344Y641D01*
X291Y640D02*
X297Y640D01*
X338Y640D02*
X344Y640D01*
X291Y639D02*
X297Y639D01*
X338Y639D02*
X344Y639D01*
X291Y638D02*
X344Y638D01*
X291Y637D02*
X344Y637D01*
X291Y636D02*
X344Y636D01*
X291Y635D02*
X344Y635D01*
X291Y634D02*
X344Y634D01*
X291Y633D02*
X344Y633D01*
X291Y632D02*
X344Y632D01*
X291Y631D02*
X297Y631D01*
X338Y631D02*
X344Y631D01*
X291Y630D02*
X297Y630D01*
X338Y630D02*
X344Y630D01*
X291Y629D02*
X297Y629D01*
X338Y629D02*
X344Y629D01*
X291Y628D02*
X297Y628D01*
X338Y628D02*
X344Y628D01*
X291Y627D02*
X297Y627D01*
X338Y627D02*
X344Y627D01*
X292Y626D02*
X296Y626D01*
X339Y626D02*
X343Y626D01*
X293Y625D02*
X295Y625D01*
X340Y625D02*
X342Y625D01*
X373Y134D02*
X424Y134D01*
X372Y133D02*
X424Y133D01*
X371Y132D02*
X424Y132D01*
X371Y131D02*
X424Y131D01*
X371Y130D02*
X424Y130D01*
X371Y129D02*
X424Y129D01*
X372Y128D02*
X424Y128D01*
X400Y127D02*
X407Y127D01*
X418Y127D02*
X424Y127D01*
X400Y126D02*
X406Y126D01*
X418Y126D02*
X424Y126D01*
X400Y125D02*
X406Y125D01*
X418Y125D02*
X424Y125D01*
X400Y124D02*
X406Y124D01*
X418Y124D02*
X424Y124D01*
X400Y123D02*
X406Y123D01*
X418Y123D02*
X424Y123D01*
X400Y122D02*
X406Y122D01*
X418Y122D02*
X424Y122D01*
X398Y121D02*
X406Y121D01*
X418Y121D02*
X424Y121D01*
X396Y120D02*
X406Y120D01*
X418Y120D02*
X424Y120D01*
X395Y119D02*
X406Y119D01*
X418Y119D02*
X424Y119D01*
X393Y118D02*
X406Y118D01*
X418Y118D02*
X424Y118D01*
X391Y117D02*
X406Y117D01*
X418Y117D02*
X424Y117D01*
X389Y116D02*
X406Y116D01*
X418Y116D02*
X424Y116D01*
X388Y115D02*
X406Y115D01*
X418Y115D02*
X424Y115D01*
X386Y114D02*
X406Y114D01*
X418Y114D02*
X424Y114D01*
X384Y113D02*
X397Y113D01*
X400Y113D02*
X406Y113D01*
X418Y113D02*
X424Y113D01*
X383Y112D02*
X396Y112D01*
X400Y112D02*
X406Y112D01*
X418Y112D02*
X424Y112D01*
X381Y111D02*
X394Y111D01*
X400Y111D02*
X406Y111D01*
X418Y111D02*
X424Y111D01*
X379Y110D02*
X392Y110D01*
X400Y110D02*
X406Y110D01*
X418Y110D02*
X424Y110D01*
X377Y109D02*
X390Y109D01*
X400Y109D02*
X407Y109D01*
X418Y109D02*
X424Y109D01*
X376Y108D02*
X389Y108D01*
X401Y108D02*
X407Y108D01*
X417Y108D02*
X424Y108D01*
X374Y107D02*
X387Y107D01*
X401Y107D02*
X408Y107D01*
X416Y107D02*
X424Y107D01*
X372Y106D02*
X385Y106D01*
X401Y106D02*
X423Y106D01*
X372Y105D02*
X384Y105D01*
X402Y105D02*
X423Y105D01*
X371Y104D02*
X382Y104D01*
X402Y104D02*
X422Y104D01*
X371Y103D02*
X380Y103D01*
X403Y103D02*
X421Y103D01*
X371Y102D02*
X379Y102D01*
X404Y102D02*
X420Y102D01*
X372Y101D02*
X377Y101D01*
X406Y101D02*
X419Y101D01*
X373Y100D02*
X375Y100D01*
X408Y100D02*
X416Y100D01*
X373Y84D02*
X374Y84D01*
X421Y84D02*
X422Y84D01*
X372Y83D02*
X376Y83D01*
X419Y83D02*
X423Y83D01*
X371Y82D02*
X377Y82D01*
X418Y82D02*
X424Y82D01*
X371Y81D02*
X377Y81D01*
X418Y81D02*
X424Y81D01*
X371Y80D02*
X377Y80D01*
X418Y80D02*
X424Y80D01*
X371Y79D02*
X377Y79D01*
X418Y79D02*
X424Y79D01*
X371Y78D02*
X377Y78D01*
X418Y78D02*
X424Y78D01*
X371Y77D02*
X377Y77D01*
X418Y77D02*
X424Y77D01*
X371Y76D02*
X377Y76D01*
X418Y76D02*
X424Y76D01*
X371Y75D02*
X377Y75D01*
X418Y75D02*
X424Y75D01*
X371Y74D02*
X377Y74D01*
X418Y74D02*
X424Y74D01*
X371Y73D02*
X377Y73D01*
X418Y73D02*
X424Y73D01*
X371Y72D02*
X377Y72D01*
X418Y72D02*
X424Y72D01*
X371Y71D02*
X377Y71D01*
X418Y71D02*
X424Y71D01*
X371Y70D02*
X424Y70D01*
X371Y69D02*
X424Y69D01*
X371Y68D02*
X424Y68D01*
X371Y67D02*
X424Y67D01*
X371Y66D02*
X424Y66D01*
X371Y65D02*
X424Y65D01*
X371Y64D02*
X424Y64D01*
X371Y63D02*
X377Y63D01*
X371Y62D02*
X377Y62D01*
X371Y61D02*
X377Y61D01*
X371Y60D02*
X377Y60D01*
X371Y59D02*
X377Y59D01*
X371Y58D02*
X377Y58D01*
X371Y57D02*
X377Y57D01*
X371Y56D02*
X393Y56D01*
X371Y55D02*
X394Y55D01*
X371Y54D02*
X394Y54D01*
X371Y53D02*
X395Y53D01*
X371Y52D02*
X394Y52D01*
X372Y51D02*
X394Y51D01*
X373Y50D02*
X393Y50D01*
D02*
G04 End of Silk1*
M02*