; NON-PLATED HOLES START AT T1
; THROUGH (PLATED) HOLES START AT T100
M48
INCH
T100C0.038000
T101C0.035000
T102C0.047244
T103C0.035433
T104C0.040000
%
T100
X001830Y004790
X001830Y000790
X001830Y003790
X001830Y007790
X001830Y008790
X001830Y001790
X001830Y002790
X001830Y005790
X001830Y006790
X001830Y009790
T101
X005955Y009790
X003955Y006790
X003955Y009790
X005830Y011415
X002830Y011415
X003080Y005790
X002955Y006790
X003080Y002790
X005955Y006790
X004955Y009790
X004955Y006790
X002955Y009790
T102
X005205Y001165
X003580Y001165
T103
X004080Y005790
X004080Y002790
T104
X000830Y001790
X006830Y005790
X006830Y007790
X006830Y000790
X006830Y010790
X006830Y003790
X006830Y002790
X000830Y005790
X006830Y011790
X000830Y011790
X006830Y001790
X006830Y009790
X000830Y003790
X006830Y006790
X006830Y008790
X000830Y006790
X000830Y008790
X000830Y007790
X000830Y010790
X000830Y002790
X006830Y004790
X000830Y009790
X000830Y004790
X000830Y000790
T00
M30
