; NON-PLATED HOLES START AT T1
; THROUGH (PLATED) HOLES START AT T100
M48
INCH
T100C0.035433
T101C0.031497
T102C0.035000
T103C0.030000
T104C0.040000
T105C0.038000
T106C0.042000
%
T100
X005790Y000985
X008790Y000985
T101
X011538Y008820
X011538Y007835
T102
X005719Y009489
X004814Y006733
X004058Y003583
X008790Y003741
X006097Y005316
X005814Y006733
X007940Y009568
X005790Y001851
X005719Y008387
X008790Y001851
X008940Y009568
X008782Y002796
X004058Y002583
X006814Y006733
X005790Y003741
X009097Y005316
X006940Y009568
X002719Y009489
X002719Y008387
X005782Y002796
X004058Y001583
T103
X009963Y010198
X003900Y006725
X011963Y010198
X003900Y004725
T104
X001696Y005001
X001696Y001615
X001696Y002993
X001696Y006379
T105
X011223Y002009
X011223Y001009
X001459Y008387
X011223Y004339
X011223Y005339
X001459Y009387
X011223Y006339
X011223Y003009
T106
X009794Y008387
X006814Y008387
T00
M30
