G04 MADE WITH FRITZING*
G04 WWW.FRITZING.ORG*
G04 SINGLE SIDED*
G04 HOLES NOT PLATED*
G04 CONTOUR ON CENTER OF CONTOUR VECTOR*
%ASAXBY*%
%FSLAX23Y23*%
%MOIN*%
%OFA0B0*%
%SFA1.0B1.0*%
%ADD10R,1.309320X1.118640X1.293320X1.102640*%
%ADD11C,0.008000*%
%ADD12C,0.010000*%
%ADD13C,0.005000*%
%ADD14C,0.020000*%
%ADD15C,0.021000*%
%ADD16R,0.001000X0.001000*%
%LNSILK1*%
G90*
G70*
G54D11*
X4Y1115D02*
X1305Y1115D01*
X1305Y4D01*
X4Y4D01*
X4Y1115D01*
D02*
G54D12*
X651Y609D02*
X511Y609D01*
D02*
X342Y188D02*
X342Y328D01*
D02*
X864Y893D02*
X724Y893D01*
G54D11*
D02*
X629Y129D02*
X829Y129D01*
D02*
X829Y129D02*
X829Y99D01*
D02*
X829Y99D02*
X829Y69D01*
D02*
X829Y69D02*
X629Y69D01*
D02*
X629Y69D02*
X629Y99D01*
D02*
X629Y99D02*
X629Y129D01*
D02*
X829Y99D02*
X839Y99D01*
D02*
X629Y99D02*
X619Y99D01*
D02*
X804Y124D02*
X804Y74D01*
G54D12*
D02*
X309Y948D02*
X346Y948D01*
D02*
X496Y948D02*
X534Y948D01*
D02*
X346Y973D02*
X496Y973D01*
D02*
X496Y973D02*
X496Y923D01*
D02*
X496Y923D02*
X346Y923D01*
D02*
X346Y923D02*
X346Y973D01*
D02*
X309Y838D02*
X346Y838D01*
D02*
X496Y838D02*
X534Y838D01*
D02*
X346Y863D02*
X496Y863D01*
D02*
X496Y863D02*
X496Y813D01*
D02*
X496Y813D02*
X346Y813D01*
D02*
X346Y813D02*
X346Y863D01*
D02*
X196Y789D02*
X196Y989D01*
D02*
X196Y989D02*
X96Y989D01*
D02*
X96Y989D02*
X96Y789D01*
D02*
X96Y789D02*
X196Y789D01*
G54D13*
D02*
X196Y824D02*
X161Y789D01*
G54D12*
D02*
X842Y186D02*
X805Y186D01*
D02*
X655Y186D02*
X617Y186D01*
D02*
X805Y161D02*
X655Y161D01*
D02*
X655Y161D02*
X655Y211D01*
D02*
X655Y211D02*
X805Y211D01*
D02*
X805Y211D02*
X805Y161D01*
D02*
X872Y532D02*
X835Y532D01*
D02*
X685Y532D02*
X647Y532D01*
D02*
X835Y507D02*
X685Y507D01*
D02*
X685Y507D02*
X685Y557D01*
D02*
X685Y557D02*
X835Y557D01*
D02*
X835Y557D02*
X835Y507D01*
D02*
X82Y373D02*
X82Y88D01*
D02*
X82Y88D02*
X298Y88D01*
D02*
X298Y88D02*
X298Y373D01*
D02*
X298Y373D02*
X82Y373D01*
G54D13*
D02*
X258Y88D02*
X258Y373D01*
G54D12*
D02*
X82Y712D02*
X82Y426D01*
D02*
X82Y426D02*
X298Y426D01*
D02*
X298Y426D02*
X298Y712D01*
D02*
X298Y712D02*
X82Y712D01*
G54D13*
D02*
X258Y426D02*
X258Y712D01*
G54D12*
D02*
X616Y279D02*
X653Y279D01*
D02*
X803Y279D02*
X841Y279D01*
D02*
X653Y304D02*
X803Y304D01*
D02*
X803Y304D02*
X803Y254D01*
D02*
X803Y254D02*
X653Y254D01*
D02*
X653Y254D02*
X653Y304D01*
D02*
X722Y839D02*
X735Y839D01*
D02*
X930Y839D02*
X937Y839D01*
D02*
X735Y884D02*
X930Y884D01*
D02*
X930Y884D02*
X930Y794D01*
D02*
X930Y794D02*
X735Y794D01*
D02*
X735Y794D02*
X735Y884D01*
G54D14*
D02*
X755Y794D02*
X755Y884D01*
G54D15*
D02*
X617Y374D02*
X842Y374D01*
G54D12*
D02*
X1072Y351D02*
X1072Y51D01*
D02*
X1072Y51D02*
X1172Y51D01*
D02*
X1172Y51D02*
X1172Y351D01*
D02*
X1172Y351D02*
X1072Y351D01*
G54D13*
D02*
X1072Y316D02*
X1107Y351D01*
G54D12*
D02*
X1072Y684D02*
X1072Y384D01*
D02*
X1072Y384D02*
X1172Y384D01*
D02*
X1172Y384D02*
X1172Y684D01*
D02*
X1172Y684D02*
X1072Y684D01*
G54D13*
D02*
X1072Y649D02*
X1107Y684D01*
G54D16*
X781Y1109D02*
X785Y1109D01*
X809Y1109D02*
X827Y1109D01*
X779Y1108D02*
X787Y1108D01*
X808Y1108D02*
X827Y1108D01*
X778Y1107D02*
X788Y1107D01*
X808Y1107D02*
X827Y1107D01*
X776Y1106D02*
X789Y1106D01*
X807Y1106D02*
X827Y1106D01*
X775Y1105D02*
X790Y1105D01*
X808Y1105D02*
X827Y1105D01*
X774Y1104D02*
X790Y1104D01*
X808Y1104D02*
X827Y1104D01*
X773Y1103D02*
X791Y1103D01*
X809Y1103D02*
X827Y1103D01*
X772Y1102D02*
X782Y1102D01*
X784Y1102D02*
X791Y1102D01*
X821Y1102D02*
X827Y1102D01*
X770Y1101D02*
X780Y1101D01*
X785Y1101D02*
X791Y1101D01*
X821Y1101D02*
X827Y1101D01*
X769Y1100D02*
X779Y1100D01*
X785Y1100D02*
X791Y1100D01*
X821Y1100D02*
X827Y1100D01*
X768Y1099D02*
X778Y1099D01*
X785Y1099D02*
X791Y1099D01*
X821Y1099D02*
X827Y1099D01*
X767Y1098D02*
X777Y1098D01*
X785Y1098D02*
X791Y1098D01*
X821Y1098D02*
X827Y1098D01*
X766Y1097D02*
X776Y1097D01*
X785Y1097D02*
X791Y1097D01*
X821Y1097D02*
X827Y1097D01*
X764Y1096D02*
X774Y1096D01*
X785Y1096D02*
X791Y1096D01*
X821Y1096D02*
X827Y1096D01*
X763Y1095D02*
X773Y1095D01*
X785Y1095D02*
X791Y1095D01*
X821Y1095D02*
X827Y1095D01*
X762Y1094D02*
X772Y1094D01*
X785Y1094D02*
X791Y1094D01*
X821Y1094D02*
X827Y1094D01*
X761Y1093D02*
X771Y1093D01*
X785Y1093D02*
X791Y1093D01*
X821Y1093D02*
X827Y1093D01*
X760Y1092D02*
X770Y1092D01*
X785Y1092D02*
X791Y1092D01*
X821Y1092D02*
X827Y1092D01*
X760Y1091D02*
X768Y1091D01*
X785Y1091D02*
X791Y1091D01*
X821Y1091D02*
X827Y1091D01*
X759Y1090D02*
X767Y1090D01*
X785Y1090D02*
X791Y1090D01*
X821Y1090D02*
X827Y1090D01*
X759Y1089D02*
X766Y1089D01*
X785Y1089D02*
X791Y1089D01*
X821Y1089D02*
X827Y1089D01*
X758Y1088D02*
X765Y1088D01*
X785Y1088D02*
X791Y1088D01*
X821Y1088D02*
X827Y1088D01*
X758Y1087D02*
X764Y1087D01*
X785Y1087D02*
X791Y1087D01*
X821Y1087D02*
X827Y1087D01*
X758Y1086D02*
X764Y1086D01*
X785Y1086D02*
X791Y1086D01*
X821Y1086D02*
X827Y1086D01*
X758Y1085D02*
X764Y1085D01*
X785Y1085D02*
X791Y1085D01*
X821Y1085D02*
X827Y1085D01*
X757Y1084D02*
X763Y1084D01*
X785Y1084D02*
X791Y1084D01*
X821Y1084D02*
X827Y1084D01*
X757Y1083D02*
X763Y1083D01*
X785Y1083D02*
X791Y1083D01*
X821Y1083D02*
X827Y1083D01*
X757Y1082D02*
X763Y1082D01*
X785Y1082D02*
X791Y1082D01*
X821Y1082D02*
X827Y1082D01*
X757Y1081D02*
X763Y1081D01*
X785Y1081D02*
X791Y1081D01*
X821Y1081D02*
X827Y1081D01*
X757Y1080D02*
X763Y1080D01*
X785Y1080D02*
X791Y1080D01*
X821Y1080D02*
X827Y1080D01*
X757Y1079D02*
X763Y1079D01*
X772Y1079D02*
X776Y1079D01*
X785Y1079D02*
X791Y1079D01*
X821Y1079D02*
X827Y1079D01*
X836Y1079D02*
X840Y1079D01*
X757Y1078D02*
X763Y1078D01*
X772Y1078D02*
X777Y1078D01*
X784Y1078D02*
X791Y1078D01*
X821Y1078D02*
X827Y1078D01*
X835Y1078D02*
X841Y1078D01*
X757Y1077D02*
X763Y1077D01*
X771Y1077D02*
X777Y1077D01*
X783Y1077D02*
X790Y1077D01*
X821Y1077D02*
X827Y1077D01*
X835Y1077D02*
X841Y1077D01*
X757Y1076D02*
X763Y1076D01*
X771Y1076D02*
X778Y1076D01*
X783Y1076D02*
X790Y1076D01*
X821Y1076D02*
X827Y1076D01*
X835Y1076D02*
X841Y1076D01*
X757Y1075D02*
X763Y1075D01*
X771Y1075D02*
X778Y1075D01*
X781Y1075D02*
X789Y1075D01*
X821Y1075D02*
X827Y1075D01*
X835Y1075D02*
X841Y1075D01*
X757Y1074D02*
X763Y1074D01*
X772Y1074D02*
X778Y1074D01*
X780Y1074D02*
X789Y1074D01*
X821Y1074D02*
X827Y1074D01*
X835Y1074D02*
X841Y1074D01*
X757Y1073D02*
X763Y1073D01*
X772Y1073D02*
X788Y1073D01*
X821Y1073D02*
X827Y1073D01*
X835Y1073D02*
X841Y1073D01*
X757Y1072D02*
X763Y1072D01*
X773Y1072D02*
X787Y1072D01*
X821Y1072D02*
X827Y1072D01*
X835Y1072D02*
X841Y1072D01*
X757Y1071D02*
X763Y1071D01*
X773Y1071D02*
X786Y1071D01*
X821Y1071D02*
X827Y1071D01*
X835Y1071D02*
X841Y1071D01*
X757Y1070D02*
X763Y1070D01*
X773Y1070D02*
X785Y1070D01*
X821Y1070D02*
X827Y1070D01*
X835Y1070D02*
X841Y1070D01*
X757Y1069D02*
X763Y1069D01*
X774Y1069D02*
X784Y1069D01*
X821Y1069D02*
X827Y1069D01*
X835Y1069D02*
X841Y1069D01*
X757Y1068D02*
X763Y1068D01*
X773Y1068D02*
X783Y1068D01*
X821Y1068D02*
X827Y1068D01*
X835Y1068D02*
X841Y1068D01*
X757Y1067D02*
X763Y1067D01*
X772Y1067D02*
X782Y1067D01*
X821Y1067D02*
X827Y1067D01*
X835Y1067D02*
X841Y1067D01*
X757Y1066D02*
X763Y1066D01*
X771Y1066D02*
X781Y1066D01*
X821Y1066D02*
X827Y1066D01*
X835Y1066D02*
X841Y1066D01*
X757Y1065D02*
X763Y1065D01*
X770Y1065D02*
X782Y1065D01*
X821Y1065D02*
X827Y1065D01*
X835Y1065D02*
X841Y1065D01*
X757Y1064D02*
X763Y1064D01*
X768Y1064D02*
X782Y1064D01*
X821Y1064D02*
X827Y1064D01*
X835Y1064D02*
X841Y1064D01*
X757Y1063D02*
X764Y1063D01*
X767Y1063D02*
X783Y1063D01*
X821Y1063D02*
X827Y1063D01*
X835Y1063D02*
X841Y1063D01*
X758Y1062D02*
X789Y1062D01*
X810Y1062D02*
X841Y1062D01*
X758Y1061D02*
X775Y1061D01*
X777Y1061D02*
X790Y1061D01*
X808Y1061D02*
X841Y1061D01*
X758Y1060D02*
X773Y1060D01*
X777Y1060D02*
X791Y1060D01*
X808Y1060D02*
X841Y1060D01*
X759Y1059D02*
X772Y1059D01*
X778Y1059D02*
X791Y1059D01*
X807Y1059D02*
X841Y1059D01*
X1088Y1059D02*
X1103Y1059D01*
X760Y1058D02*
X771Y1058D01*
X778Y1058D02*
X791Y1058D01*
X808Y1058D02*
X841Y1058D01*
X1081Y1058D02*
X1110Y1058D01*
X761Y1057D02*
X770Y1057D01*
X778Y1057D02*
X806Y1057D01*
X808Y1057D02*
X840Y1057D01*
X1077Y1057D02*
X1115Y1057D01*
X763Y1056D02*
X768Y1056D01*
X776Y1056D02*
X839Y1056D01*
X1073Y1056D02*
X1118Y1056D01*
X770Y1055D02*
X821Y1055D01*
X1070Y1055D02*
X1121Y1055D01*
X765Y1054D02*
X826Y1054D01*
X1067Y1054D02*
X1124Y1054D01*
X761Y1053D02*
X830Y1053D01*
X1065Y1053D02*
X1127Y1053D01*
X758Y1052D02*
X833Y1052D01*
X1062Y1052D02*
X1129Y1052D01*
X755Y1051D02*
X837Y1051D01*
X1060Y1051D02*
X1084Y1051D01*
X1107Y1051D02*
X1131Y1051D01*
X752Y1050D02*
X839Y1050D01*
X1058Y1050D02*
X1089Y1050D01*
X1108Y1050D02*
X1136Y1050D01*
X749Y1049D02*
X842Y1049D01*
X1057Y1049D02*
X1089Y1049D01*
X1107Y1049D02*
X1138Y1049D01*
X747Y1048D02*
X845Y1048D01*
X1055Y1048D02*
X1090Y1048D01*
X1106Y1048D02*
X1139Y1048D01*
X744Y1047D02*
X784Y1047D01*
X807Y1047D02*
X847Y1047D01*
X1053Y1047D02*
X1090Y1047D01*
X1106Y1047D02*
X1139Y1047D01*
X742Y1046D02*
X775Y1046D01*
X816Y1046D02*
X849Y1046D01*
X1052Y1046D02*
X1090Y1046D01*
X1107Y1046D02*
X1140Y1046D01*
X740Y1045D02*
X770Y1045D01*
X822Y1045D02*
X851Y1045D01*
X1050Y1045D02*
X1089Y1045D01*
X1107Y1045D02*
X1141Y1045D01*
X738Y1044D02*
X765Y1044D01*
X826Y1044D02*
X853Y1044D01*
X1049Y1044D02*
X1087Y1044D01*
X1109Y1044D02*
X1142Y1044D01*
X736Y1043D02*
X761Y1043D01*
X830Y1043D02*
X855Y1043D01*
X1048Y1043D02*
X1061Y1043D01*
X1064Y1043D02*
X1071Y1043D01*
X1130Y1043D02*
X1144Y1043D01*
X735Y1042D02*
X758Y1042D01*
X833Y1042D02*
X857Y1042D01*
X1046Y1042D02*
X1059Y1042D01*
X1063Y1042D02*
X1070Y1042D01*
X1132Y1042D02*
X1145Y1042D01*
X733Y1041D02*
X755Y1041D01*
X836Y1041D02*
X858Y1041D01*
X1045Y1041D02*
X1058Y1041D01*
X1063Y1041D02*
X1070Y1041D01*
X1134Y1041D02*
X1146Y1041D01*
X731Y1040D02*
X752Y1040D01*
X839Y1040D02*
X860Y1040D01*
X1044Y1040D02*
X1056Y1040D01*
X1062Y1040D02*
X1069Y1040D01*
X1134Y1040D02*
X1147Y1040D01*
X730Y1039D02*
X750Y1039D01*
X841Y1039D02*
X861Y1039D01*
X1043Y1039D02*
X1055Y1039D01*
X1062Y1039D02*
X1069Y1039D01*
X1134Y1039D02*
X1148Y1039D01*
X729Y1038D02*
X748Y1038D01*
X844Y1038D02*
X863Y1038D01*
X1042Y1038D02*
X1053Y1038D01*
X1061Y1038D02*
X1068Y1038D01*
X1134Y1038D02*
X1149Y1038D01*
X727Y1037D02*
X745Y1037D01*
X846Y1037D02*
X864Y1037D01*
X1042Y1037D02*
X1052Y1037D01*
X1061Y1037D02*
X1068Y1037D01*
X1134Y1037D02*
X1149Y1037D01*
X726Y1036D02*
X743Y1036D01*
X848Y1036D02*
X865Y1036D01*
X1042Y1036D02*
X1051Y1036D01*
X1060Y1036D02*
X1067Y1036D01*
X1134Y1036D02*
X1149Y1036D01*
X725Y1035D02*
X742Y1035D01*
X850Y1035D02*
X866Y1035D01*
X1042Y1035D02*
X1049Y1035D01*
X1060Y1035D02*
X1067Y1035D01*
X1134Y1035D02*
X1140Y1035D01*
X1142Y1035D02*
X1148Y1035D01*
X724Y1034D02*
X740Y1034D01*
X851Y1034D02*
X868Y1034D01*
X1043Y1034D02*
X1048Y1034D01*
X1060Y1034D02*
X1066Y1034D01*
X1134Y1034D02*
X1140Y1034D01*
X1143Y1034D02*
X1148Y1034D01*
X723Y1033D02*
X738Y1033D01*
X853Y1033D02*
X869Y1033D01*
X1044Y1033D02*
X1047Y1033D01*
X1059Y1033D02*
X1066Y1033D01*
X1134Y1033D02*
X1140Y1033D01*
X1145Y1033D02*
X1146Y1033D01*
X721Y1032D02*
X736Y1032D01*
X855Y1032D02*
X870Y1032D01*
X1059Y1032D02*
X1065Y1032D01*
X1134Y1032D02*
X1140Y1032D01*
X721Y1031D02*
X735Y1031D01*
X856Y1031D02*
X871Y1031D01*
X1058Y1031D02*
X1065Y1031D01*
X1134Y1031D02*
X1140Y1031D01*
X720Y1030D02*
X734Y1030D01*
X858Y1030D02*
X872Y1030D01*
X1058Y1030D02*
X1064Y1030D01*
X1134Y1030D02*
X1140Y1030D01*
X719Y1029D02*
X732Y1029D01*
X859Y1029D02*
X873Y1029D01*
X1057Y1029D02*
X1064Y1029D01*
X1134Y1029D02*
X1140Y1029D01*
X718Y1028D02*
X731Y1028D01*
X860Y1028D02*
X873Y1028D01*
X1057Y1028D02*
X1063Y1028D01*
X1134Y1028D02*
X1140Y1028D01*
X717Y1027D02*
X730Y1027D01*
X862Y1027D02*
X874Y1027D01*
X1057Y1027D02*
X1063Y1027D01*
X1111Y1027D02*
X1140Y1027D01*
X716Y1026D02*
X728Y1026D01*
X863Y1026D02*
X875Y1026D01*
X1057Y1026D02*
X1063Y1026D01*
X1109Y1026D02*
X1140Y1026D01*
X715Y1025D02*
X727Y1025D01*
X864Y1025D02*
X876Y1025D01*
X1056Y1025D02*
X1062Y1025D01*
X1108Y1025D02*
X1139Y1025D01*
X715Y1024D02*
X726Y1024D01*
X865Y1024D02*
X877Y1024D01*
X1056Y1024D02*
X1062Y1024D01*
X1107Y1024D02*
X1139Y1024D01*
X714Y1023D02*
X725Y1023D01*
X866Y1023D02*
X877Y1023D01*
X1056Y1023D02*
X1062Y1023D01*
X1107Y1023D02*
X1138Y1023D01*
X713Y1022D02*
X724Y1022D01*
X867Y1022D02*
X878Y1022D01*
X1056Y1022D02*
X1063Y1022D01*
X1107Y1022D02*
X1137Y1022D01*
X713Y1021D02*
X724Y1021D01*
X868Y1021D02*
X879Y1021D01*
X1057Y1021D02*
X1063Y1021D01*
X1106Y1021D02*
X1136Y1021D01*
X712Y1020D02*
X723Y1020D01*
X868Y1020D02*
X879Y1020D01*
X1057Y1020D02*
X1063Y1020D01*
X1106Y1020D02*
X1112Y1020D01*
X711Y1019D02*
X722Y1019D01*
X869Y1019D02*
X880Y1019D01*
X1057Y1019D02*
X1064Y1019D01*
X1106Y1019D02*
X1112Y1019D01*
X711Y1018D02*
X721Y1018D01*
X870Y1018D02*
X880Y1018D01*
X1058Y1018D02*
X1064Y1018D01*
X1106Y1018D02*
X1112Y1018D01*
X710Y1017D02*
X721Y1017D01*
X871Y1017D02*
X881Y1017D01*
X1058Y1017D02*
X1065Y1017D01*
X1106Y1017D02*
X1112Y1017D01*
X710Y1016D02*
X720Y1016D01*
X871Y1016D02*
X881Y1016D01*
X1058Y1016D02*
X1065Y1016D01*
X1106Y1016D02*
X1112Y1016D01*
X710Y1015D02*
X719Y1015D01*
X872Y1015D02*
X882Y1015D01*
X1059Y1015D02*
X1066Y1015D01*
X1106Y1015D02*
X1112Y1015D01*
X709Y1014D02*
X719Y1014D01*
X872Y1014D02*
X882Y1014D01*
X1059Y1014D02*
X1066Y1014D01*
X1106Y1014D02*
X1112Y1014D01*
X709Y1013D02*
X718Y1013D01*
X873Y1013D02*
X883Y1013D01*
X1060Y1013D02*
X1067Y1013D01*
X1106Y1013D02*
X1112Y1013D01*
X708Y1012D02*
X718Y1012D01*
X873Y1012D02*
X883Y1012D01*
X1060Y1012D02*
X1067Y1012D01*
X1106Y1012D02*
X1112Y1012D01*
X708Y1011D02*
X717Y1011D01*
X874Y1011D02*
X883Y1011D01*
X1061Y1011D02*
X1068Y1011D01*
X1106Y1011D02*
X1112Y1011D01*
X708Y1010D02*
X717Y1010D01*
X874Y1010D02*
X884Y1010D01*
X1061Y1010D02*
X1068Y1010D01*
X1106Y1010D02*
X1112Y1010D01*
X707Y1009D02*
X717Y1009D01*
X874Y1009D02*
X884Y1009D01*
X1062Y1009D02*
X1069Y1009D01*
X1106Y1009D02*
X1112Y1009D01*
X707Y1008D02*
X716Y1008D01*
X875Y1008D02*
X884Y1008D01*
X1044Y1008D02*
X1047Y1008D01*
X1062Y1008D02*
X1069Y1008D01*
X1106Y1008D02*
X1112Y1008D01*
X1144Y1008D02*
X1148Y1008D01*
X707Y1007D02*
X716Y1007D01*
X875Y1007D02*
X884Y1007D01*
X1043Y1007D02*
X1049Y1007D01*
X1063Y1007D02*
X1070Y1007D01*
X1106Y1007D02*
X1112Y1007D01*
X1142Y1007D02*
X1149Y1007D01*
X707Y1006D02*
X716Y1006D01*
X875Y1006D02*
X884Y1006D01*
X1043Y1006D02*
X1050Y1006D01*
X1063Y1006D02*
X1070Y1006D01*
X1106Y1006D02*
X1112Y1006D01*
X1141Y1006D02*
X1149Y1006D01*
X707Y1005D02*
X716Y1005D01*
X875Y1005D02*
X885Y1005D01*
X1042Y1005D02*
X1051Y1005D01*
X1064Y1005D02*
X1071Y1005D01*
X1106Y1005D02*
X1112Y1005D01*
X1140Y1005D02*
X1149Y1005D01*
X630Y1004D02*
X657Y1004D01*
X682Y1004D02*
X716Y1004D01*
X876Y1004D02*
X885Y1004D01*
X1042Y1004D02*
X1052Y1004D01*
X1064Y1004D02*
X1072Y1004D01*
X1106Y1004D02*
X1113Y1004D01*
X1139Y1004D02*
X1149Y1004D01*
X630Y1003D02*
X659Y1003D01*
X681Y1003D02*
X715Y1003D01*
X876Y1003D02*
X885Y1003D01*
X1043Y1003D02*
X1054Y1003D01*
X1065Y1003D02*
X1089Y1003D01*
X1106Y1003D02*
X1149Y1003D01*
X630Y1002D02*
X660Y1002D01*
X680Y1002D02*
X715Y1002D01*
X876Y1002D02*
X885Y1002D01*
X1043Y1002D02*
X1055Y1002D01*
X1066Y1002D02*
X1089Y1002D01*
X1106Y1002D02*
X1148Y1002D01*
X630Y1001D02*
X661Y1001D01*
X680Y1001D02*
X715Y1001D01*
X876Y1001D02*
X885Y1001D01*
X1044Y1001D02*
X1057Y1001D01*
X1066Y1001D02*
X1090Y1001D01*
X1106Y1001D02*
X1147Y1001D01*
X630Y1000D02*
X662Y1000D01*
X680Y1000D02*
X715Y1000D01*
X876Y1000D02*
X885Y1000D01*
X1046Y1000D02*
X1058Y1000D01*
X1067Y1000D02*
X1090Y1000D01*
X1106Y1000D02*
X1145Y1000D01*
X630Y999D02*
X662Y999D01*
X681Y999D02*
X715Y999D01*
X876Y999D02*
X885Y999D01*
X1047Y999D02*
X1060Y999D01*
X1068Y999D02*
X1090Y999D01*
X1106Y999D02*
X1144Y999D01*
X630Y998D02*
X663Y998D01*
X682Y998D02*
X715Y998D01*
X877Y998D02*
X884Y998D01*
X1048Y998D02*
X1062Y998D01*
X1070Y998D02*
X1089Y998D01*
X1106Y998D02*
X1143Y998D01*
X630Y997D02*
X636Y997D01*
X656Y997D02*
X663Y997D01*
X707Y997D02*
X714Y997D01*
X877Y997D02*
X883Y997D01*
X1049Y997D02*
X1064Y997D01*
X1072Y997D02*
X1087Y997D01*
X1107Y997D02*
X1142Y997D01*
X630Y996D02*
X636Y996D01*
X657Y996D02*
X663Y996D01*
X708Y996D02*
X714Y996D01*
X879Y996D02*
X882Y996D01*
X1051Y996D02*
X1066Y996D01*
X1125Y996D02*
X1140Y996D01*
X630Y995D02*
X636Y995D01*
X657Y995D02*
X664Y995D01*
X708Y995D02*
X714Y995D01*
X1053Y995D02*
X1068Y995D01*
X1123Y995D02*
X1139Y995D01*
X630Y994D02*
X636Y994D01*
X658Y994D02*
X664Y994D01*
X708Y994D02*
X714Y994D01*
X1054Y994D02*
X1070Y994D01*
X1121Y994D02*
X1137Y994D01*
X630Y993D02*
X636Y993D01*
X658Y993D02*
X664Y993D01*
X708Y993D02*
X714Y993D01*
X1056Y993D02*
X1074Y993D01*
X1118Y993D02*
X1136Y993D01*
X630Y992D02*
X636Y992D01*
X658Y992D02*
X664Y992D01*
X708Y992D02*
X714Y992D01*
X1057Y992D02*
X1077Y992D01*
X1115Y992D02*
X1134Y992D01*
X630Y991D02*
X636Y991D01*
X658Y991D02*
X664Y991D01*
X708Y991D02*
X714Y991D01*
X1059Y991D02*
X1081Y991D01*
X1110Y991D02*
X1132Y991D01*
X630Y990D02*
X636Y990D01*
X658Y990D02*
X664Y990D01*
X708Y990D02*
X714Y990D01*
X1061Y990D02*
X1087Y990D01*
X1104Y990D02*
X1130Y990D01*
X630Y989D02*
X636Y989D01*
X657Y989D02*
X664Y989D01*
X708Y989D02*
X714Y989D01*
X1063Y989D02*
X1128Y989D01*
X630Y988D02*
X636Y988D01*
X656Y988D02*
X663Y988D01*
X708Y988D02*
X714Y988D01*
X1066Y988D02*
X1125Y988D01*
X630Y987D02*
X663Y987D01*
X708Y987D02*
X714Y987D01*
X1068Y987D02*
X1123Y987D01*
X630Y986D02*
X663Y986D01*
X708Y986D02*
X714Y986D01*
X1071Y986D02*
X1120Y986D01*
X630Y985D02*
X662Y985D01*
X708Y985D02*
X714Y985D01*
X1074Y985D02*
X1117Y985D01*
X630Y984D02*
X661Y984D01*
X708Y984D02*
X714Y984D01*
X1079Y984D02*
X1113Y984D01*
X630Y983D02*
X660Y983D01*
X707Y983D02*
X713Y983D01*
X1084Y983D02*
X1107Y983D01*
X630Y982D02*
X659Y982D01*
X706Y982D02*
X713Y982D01*
X62Y981D02*
X77Y981D01*
X630Y981D02*
X658Y981D01*
X690Y981D02*
X713Y981D01*
X60Y980D02*
X78Y980D01*
X630Y980D02*
X653Y980D01*
X688Y980D02*
X713Y980D01*
X57Y979D02*
X78Y979D01*
X630Y979D02*
X636Y979D01*
X642Y979D02*
X650Y979D01*
X687Y979D02*
X712Y979D01*
X55Y978D02*
X78Y978D01*
X630Y978D02*
X636Y978D01*
X643Y978D02*
X650Y978D01*
X687Y978D02*
X711Y978D01*
X52Y977D02*
X78Y977D01*
X630Y977D02*
X636Y977D01*
X644Y977D02*
X651Y977D01*
X687Y977D02*
X711Y977D01*
X49Y976D02*
X78Y976D01*
X630Y976D02*
X636Y976D01*
X644Y976D02*
X651Y976D01*
X687Y976D02*
X712Y976D01*
X47Y975D02*
X77Y975D01*
X630Y975D02*
X636Y975D01*
X645Y975D02*
X652Y975D01*
X688Y975D02*
X713Y975D01*
X44Y974D02*
X63Y974D01*
X630Y974D02*
X636Y974D01*
X645Y974D02*
X653Y974D01*
X705Y974D02*
X713Y974D01*
X42Y973D02*
X60Y973D01*
X630Y973D02*
X636Y973D01*
X646Y973D02*
X653Y973D01*
X707Y973D02*
X713Y973D01*
X39Y972D02*
X58Y972D01*
X630Y972D02*
X636Y972D01*
X647Y972D02*
X654Y972D01*
X707Y972D02*
X714Y972D01*
X37Y971D02*
X55Y971D01*
X630Y971D02*
X636Y971D01*
X647Y971D02*
X654Y971D01*
X708Y971D02*
X714Y971D01*
X34Y970D02*
X52Y970D01*
X630Y970D02*
X636Y970D01*
X648Y970D02*
X655Y970D01*
X708Y970D02*
X714Y970D01*
X31Y969D02*
X50Y969D01*
X630Y969D02*
X636Y969D01*
X648Y969D02*
X655Y969D01*
X708Y969D02*
X714Y969D01*
X29Y968D02*
X47Y968D01*
X630Y968D02*
X636Y968D01*
X649Y968D02*
X656Y968D01*
X708Y968D02*
X714Y968D01*
X27Y967D02*
X45Y967D01*
X630Y967D02*
X636Y967D01*
X649Y967D02*
X657Y967D01*
X708Y967D02*
X714Y967D01*
X26Y966D02*
X42Y966D01*
X630Y966D02*
X636Y966D01*
X650Y966D02*
X657Y966D01*
X708Y966D02*
X714Y966D01*
X25Y965D02*
X40Y965D01*
X630Y965D02*
X636Y965D01*
X651Y965D02*
X658Y965D01*
X708Y965D02*
X714Y965D01*
X25Y964D02*
X38Y964D01*
X630Y964D02*
X636Y964D01*
X651Y964D02*
X658Y964D01*
X708Y964D02*
X714Y964D01*
X26Y963D02*
X41Y963D01*
X630Y963D02*
X636Y963D01*
X652Y963D02*
X659Y963D01*
X708Y963D02*
X714Y963D01*
X26Y962D02*
X43Y962D01*
X630Y962D02*
X636Y962D01*
X652Y962D02*
X660Y962D01*
X708Y962D02*
X714Y962D01*
X27Y961D02*
X46Y961D01*
X630Y961D02*
X636Y961D01*
X653Y961D02*
X660Y961D01*
X708Y961D02*
X714Y961D01*
X30Y960D02*
X48Y960D01*
X630Y960D02*
X636Y960D01*
X654Y960D02*
X661Y960D01*
X708Y960D02*
X714Y960D01*
X32Y959D02*
X51Y959D01*
X630Y959D02*
X636Y959D01*
X654Y959D02*
X661Y959D01*
X708Y959D02*
X714Y959D01*
X35Y958D02*
X53Y958D01*
X630Y958D02*
X636Y958D01*
X655Y958D02*
X662Y958D01*
X708Y958D02*
X714Y958D01*
X38Y957D02*
X56Y957D01*
X630Y957D02*
X636Y957D01*
X655Y957D02*
X662Y957D01*
X682Y957D02*
X714Y957D01*
X40Y956D02*
X58Y956D01*
X630Y956D02*
X636Y956D01*
X656Y956D02*
X663Y956D01*
X681Y956D02*
X713Y956D01*
X43Y955D02*
X61Y955D01*
X630Y955D02*
X636Y955D01*
X656Y955D02*
X663Y955D01*
X680Y955D02*
X713Y955D01*
X1140Y955D02*
X1166Y955D01*
X45Y954D02*
X64Y954D01*
X630Y954D02*
X636Y954D01*
X657Y954D02*
X664Y954D01*
X680Y954D02*
X713Y954D01*
X1133Y954D02*
X1173Y954D01*
X48Y953D02*
X77Y953D01*
X630Y953D02*
X636Y953D01*
X658Y953D02*
X663Y953D01*
X680Y953D02*
X712Y953D01*
X1128Y953D02*
X1178Y953D01*
X50Y952D02*
X78Y952D01*
X631Y952D02*
X635Y952D01*
X658Y952D02*
X663Y952D01*
X681Y952D02*
X711Y952D01*
X1123Y952D02*
X1183Y952D01*
X53Y951D02*
X78Y951D01*
X632Y951D02*
X634Y951D01*
X659Y951D02*
X662Y951D01*
X682Y951D02*
X709Y951D01*
X1120Y951D02*
X1186Y951D01*
X55Y950D02*
X78Y950D01*
X1117Y950D02*
X1190Y950D01*
X58Y949D02*
X78Y949D01*
X1114Y949D02*
X1193Y949D01*
X61Y948D02*
X77Y948D01*
X1111Y948D02*
X1195Y948D01*
X63Y947D02*
X76Y947D01*
X1108Y947D02*
X1138Y947D01*
X1169Y947D02*
X1198Y947D01*
X1106Y946D02*
X1132Y946D01*
X1175Y946D02*
X1200Y946D01*
X1103Y945D02*
X1127Y945D01*
X1180Y945D02*
X1203Y945D01*
X1101Y944D02*
X1123Y944D01*
X1184Y944D02*
X1205Y944D01*
X1099Y943D02*
X1119Y943D01*
X1187Y943D02*
X1207Y943D01*
X1097Y942D02*
X1116Y942D01*
X1190Y942D02*
X1209Y942D01*
X1095Y941D02*
X1113Y941D01*
X1193Y941D02*
X1211Y941D01*
X1094Y940D02*
X1111Y940D01*
X1196Y940D02*
X1213Y940D01*
X1092Y939D02*
X1108Y939D01*
X1198Y939D02*
X1214Y939D01*
X1090Y938D02*
X1106Y938D01*
X1200Y938D02*
X1216Y938D01*
X1089Y937D02*
X1104Y937D01*
X1203Y937D02*
X1218Y937D01*
X1087Y936D02*
X1102Y936D01*
X1204Y936D02*
X1219Y936D01*
X1086Y935D02*
X1100Y935D01*
X1206Y935D02*
X1221Y935D01*
X1084Y934D02*
X1098Y934D01*
X1208Y934D02*
X1222Y934D01*
X1083Y933D02*
X1096Y933D01*
X1210Y933D02*
X1224Y933D01*
X1081Y932D02*
X1094Y932D01*
X1212Y932D02*
X1225Y932D01*
X49Y931D02*
X55Y931D01*
X1080Y931D02*
X1093Y931D01*
X1213Y931D02*
X1226Y931D01*
X46Y930D02*
X58Y930D01*
X1079Y930D02*
X1091Y930D01*
X1215Y930D02*
X1228Y930D01*
X44Y929D02*
X60Y929D01*
X1077Y929D02*
X1089Y929D01*
X1217Y929D02*
X1229Y929D01*
X42Y928D02*
X62Y928D01*
X1076Y928D02*
X1088Y928D01*
X1218Y928D02*
X1230Y928D01*
X40Y927D02*
X64Y927D01*
X1075Y927D02*
X1087Y927D01*
X1219Y927D02*
X1231Y927D01*
X38Y926D02*
X66Y926D01*
X1074Y926D02*
X1085Y926D01*
X1221Y926D02*
X1232Y926D01*
X36Y925D02*
X68Y925D01*
X1073Y925D02*
X1084Y925D01*
X1222Y925D02*
X1234Y925D01*
X34Y924D02*
X49Y924D01*
X55Y924D02*
X70Y924D01*
X1071Y924D02*
X1083Y924D01*
X1224Y924D02*
X1235Y924D01*
X32Y923D02*
X46Y923D01*
X58Y923D02*
X72Y923D01*
X1070Y923D02*
X1081Y923D01*
X1225Y923D02*
X1236Y923D01*
X30Y922D02*
X44Y922D01*
X59Y922D02*
X74Y922D01*
X1069Y922D02*
X1080Y922D01*
X1226Y922D02*
X1237Y922D01*
X29Y921D02*
X42Y921D01*
X61Y921D02*
X75Y921D01*
X1068Y921D02*
X1079Y921D01*
X1227Y921D02*
X1238Y921D01*
X28Y920D02*
X40Y920D01*
X63Y920D02*
X76Y920D01*
X1067Y920D02*
X1078Y920D01*
X1228Y920D02*
X1239Y920D01*
X27Y919D02*
X38Y919D01*
X65Y919D02*
X77Y919D01*
X1066Y919D02*
X1077Y919D01*
X1230Y919D02*
X1240Y919D01*
X27Y918D02*
X36Y918D01*
X67Y918D02*
X77Y918D01*
X1065Y918D02*
X1075Y918D01*
X1231Y918D02*
X1241Y918D01*
X26Y917D02*
X34Y917D01*
X69Y917D02*
X78Y917D01*
X1064Y917D02*
X1074Y917D01*
X1232Y917D02*
X1242Y917D01*
X26Y916D02*
X33Y916D01*
X71Y916D02*
X78Y916D01*
X1063Y916D02*
X1073Y916D01*
X1233Y916D02*
X1243Y916D01*
X25Y915D02*
X32Y915D01*
X72Y915D02*
X78Y915D01*
X1063Y915D02*
X1072Y915D01*
X1234Y915D02*
X1244Y915D01*
X25Y914D02*
X31Y914D01*
X72Y914D02*
X78Y914D01*
X1062Y914D02*
X1071Y914D01*
X1235Y914D02*
X1245Y914D01*
X25Y913D02*
X31Y913D01*
X72Y913D02*
X78Y913D01*
X1061Y913D02*
X1070Y913D01*
X1236Y913D02*
X1245Y913D01*
X25Y912D02*
X31Y912D01*
X72Y912D02*
X78Y912D01*
X1060Y912D02*
X1069Y912D01*
X1237Y912D02*
X1246Y912D01*
X25Y911D02*
X31Y911D01*
X72Y911D02*
X78Y911D01*
X1059Y911D02*
X1069Y911D01*
X1238Y911D02*
X1247Y911D01*
X25Y910D02*
X31Y910D01*
X72Y910D02*
X78Y910D01*
X1058Y910D02*
X1068Y910D01*
X1239Y910D02*
X1248Y910D01*
X25Y909D02*
X31Y909D01*
X72Y909D02*
X78Y909D01*
X1058Y909D02*
X1067Y909D01*
X1240Y909D02*
X1249Y909D01*
X25Y908D02*
X31Y908D01*
X72Y908D02*
X78Y908D01*
X1057Y908D02*
X1066Y908D01*
X1240Y908D02*
X1249Y908D01*
X25Y907D02*
X31Y907D01*
X72Y907D02*
X78Y907D01*
X1056Y907D02*
X1065Y907D01*
X1241Y907D02*
X1250Y907D01*
X25Y906D02*
X31Y906D01*
X72Y906D02*
X78Y906D01*
X1055Y906D02*
X1064Y906D01*
X1242Y906D02*
X1251Y906D01*
X25Y905D02*
X31Y905D01*
X72Y905D02*
X78Y905D01*
X1055Y905D02*
X1063Y905D01*
X1243Y905D02*
X1252Y905D01*
X25Y904D02*
X31Y904D01*
X72Y904D02*
X78Y904D01*
X1054Y904D02*
X1063Y904D01*
X1244Y904D02*
X1252Y904D01*
X25Y903D02*
X31Y903D01*
X72Y903D02*
X78Y903D01*
X1053Y903D02*
X1062Y903D01*
X1244Y903D02*
X1253Y903D01*
X25Y902D02*
X31Y902D01*
X72Y902D02*
X78Y902D01*
X1052Y902D02*
X1061Y902D01*
X1245Y902D02*
X1254Y902D01*
X25Y901D02*
X31Y901D01*
X72Y901D02*
X78Y901D01*
X1052Y901D02*
X1060Y901D01*
X1246Y901D02*
X1254Y901D01*
X25Y900D02*
X31Y900D01*
X73Y900D02*
X78Y900D01*
X1051Y900D02*
X1060Y900D01*
X1247Y900D02*
X1255Y900D01*
X26Y899D02*
X31Y899D01*
X73Y899D02*
X78Y899D01*
X1051Y899D02*
X1059Y899D01*
X1247Y899D02*
X1256Y899D01*
X26Y898D02*
X30Y898D01*
X74Y898D02*
X77Y898D01*
X1050Y898D02*
X1058Y898D01*
X1248Y898D02*
X1256Y898D01*
X28Y897D02*
X28Y897D01*
X1049Y897D02*
X1058Y897D01*
X1249Y897D02*
X1257Y897D01*
X1049Y896D02*
X1057Y896D01*
X1249Y896D02*
X1258Y896D01*
X1048Y895D02*
X1056Y895D01*
X1250Y895D02*
X1258Y895D01*
X1048Y894D02*
X1056Y894D01*
X1251Y894D02*
X1259Y894D01*
X1047Y893D02*
X1055Y893D01*
X1251Y893D02*
X1259Y893D01*
X1046Y892D02*
X1054Y892D01*
X1252Y892D02*
X1260Y892D01*
X1046Y891D02*
X1054Y891D01*
X1252Y891D02*
X1260Y891D01*
X1045Y890D02*
X1053Y890D01*
X1253Y890D02*
X1261Y890D01*
X1045Y889D02*
X1053Y889D01*
X1254Y889D02*
X1261Y889D01*
X1044Y888D02*
X1052Y888D01*
X1254Y888D02*
X1262Y888D01*
X1044Y887D02*
X1052Y887D01*
X1255Y887D02*
X1262Y887D01*
X1043Y886D02*
X1051Y886D01*
X1255Y886D02*
X1263Y886D01*
X1043Y885D02*
X1051Y885D01*
X1256Y885D02*
X1263Y885D01*
X1042Y884D02*
X1050Y884D01*
X1256Y884D02*
X1264Y884D01*
X1042Y883D02*
X1050Y883D01*
X1257Y883D02*
X1264Y883D01*
X1042Y882D02*
X1049Y882D01*
X1257Y882D02*
X1265Y882D01*
X49Y881D02*
X55Y881D01*
X1041Y881D02*
X1049Y881D01*
X1258Y881D02*
X1265Y881D01*
X46Y880D02*
X58Y880D01*
X1041Y880D02*
X1048Y880D01*
X1258Y880D02*
X1265Y880D01*
X44Y879D02*
X60Y879D01*
X1040Y879D02*
X1048Y879D01*
X1258Y879D02*
X1266Y879D01*
X42Y878D02*
X62Y878D01*
X1040Y878D02*
X1047Y878D01*
X1259Y878D02*
X1266Y878D01*
X40Y877D02*
X64Y877D01*
X1040Y877D02*
X1047Y877D01*
X1259Y877D02*
X1267Y877D01*
X38Y876D02*
X66Y876D01*
X1039Y876D02*
X1046Y876D01*
X1260Y876D02*
X1267Y876D01*
X36Y875D02*
X68Y875D01*
X1039Y875D02*
X1046Y875D01*
X1260Y875D02*
X1267Y875D01*
X34Y874D02*
X49Y874D01*
X55Y874D02*
X70Y874D01*
X1038Y874D02*
X1046Y874D01*
X1260Y874D02*
X1268Y874D01*
X32Y873D02*
X46Y873D01*
X58Y873D02*
X72Y873D01*
X1038Y873D02*
X1045Y873D01*
X1261Y873D02*
X1268Y873D01*
X30Y872D02*
X44Y872D01*
X60Y872D02*
X74Y872D01*
X1038Y872D02*
X1045Y872D01*
X1261Y872D02*
X1268Y872D01*
X29Y871D02*
X42Y871D01*
X62Y871D02*
X75Y871D01*
X1037Y871D02*
X1045Y871D01*
X1262Y871D02*
X1269Y871D01*
X28Y870D02*
X40Y870D01*
X63Y870D02*
X76Y870D01*
X1037Y870D02*
X1044Y870D01*
X1262Y870D02*
X1269Y870D01*
X27Y869D02*
X38Y869D01*
X65Y869D02*
X77Y869D01*
X1037Y869D02*
X1044Y869D01*
X1262Y869D02*
X1269Y869D01*
X27Y868D02*
X36Y868D01*
X67Y868D02*
X77Y868D01*
X1037Y868D02*
X1044Y868D01*
X1263Y868D02*
X1270Y868D01*
X26Y867D02*
X34Y867D01*
X69Y867D02*
X78Y867D01*
X1036Y867D02*
X1043Y867D01*
X1263Y867D02*
X1270Y867D01*
X26Y866D02*
X33Y866D01*
X71Y866D02*
X78Y866D01*
X1036Y866D02*
X1043Y866D01*
X1263Y866D02*
X1270Y866D01*
X25Y865D02*
X32Y865D01*
X72Y865D02*
X78Y865D01*
X1036Y865D02*
X1043Y865D01*
X1263Y865D02*
X1271Y865D01*
X25Y864D02*
X31Y864D01*
X72Y864D02*
X78Y864D01*
X814Y864D02*
X831Y864D01*
X864Y864D02*
X892Y864D01*
X1035Y864D02*
X1042Y864D01*
X1264Y864D02*
X1271Y864D01*
X25Y863D02*
X31Y863D01*
X72Y863D02*
X78Y863D01*
X813Y863D02*
X833Y863D01*
X863Y863D02*
X893Y863D01*
X1035Y863D02*
X1042Y863D01*
X1264Y863D02*
X1271Y863D01*
X25Y862D02*
X31Y862D01*
X72Y862D02*
X78Y862D01*
X813Y862D02*
X835Y862D01*
X863Y862D02*
X894Y862D01*
X1035Y862D02*
X1042Y862D01*
X1264Y862D02*
X1271Y862D01*
X25Y861D02*
X31Y861D01*
X72Y861D02*
X78Y861D01*
X813Y861D02*
X836Y861D01*
X863Y861D02*
X895Y861D01*
X1035Y861D02*
X1042Y861D01*
X1264Y861D02*
X1272Y861D01*
X25Y860D02*
X31Y860D01*
X72Y860D02*
X78Y860D01*
X813Y860D02*
X836Y860D01*
X863Y860D02*
X896Y860D01*
X1034Y860D02*
X1041Y860D01*
X1265Y860D02*
X1272Y860D01*
X25Y859D02*
X31Y859D01*
X72Y859D02*
X78Y859D01*
X813Y859D02*
X837Y859D01*
X863Y859D02*
X896Y859D01*
X1034Y859D02*
X1041Y859D01*
X1265Y859D02*
X1272Y859D01*
X25Y858D02*
X31Y858D01*
X72Y858D02*
X78Y858D01*
X814Y858D02*
X838Y858D01*
X864Y858D02*
X896Y858D01*
X1034Y858D02*
X1041Y858D01*
X1265Y858D02*
X1272Y858D01*
X25Y857D02*
X31Y857D01*
X72Y857D02*
X78Y857D01*
X819Y857D02*
X825Y857D01*
X831Y857D02*
X838Y857D01*
X890Y857D02*
X896Y857D01*
X1034Y857D02*
X1041Y857D01*
X1265Y857D02*
X1272Y857D01*
X25Y856D02*
X31Y856D01*
X72Y856D02*
X78Y856D01*
X819Y856D02*
X825Y856D01*
X832Y856D02*
X839Y856D01*
X890Y856D02*
X896Y856D01*
X1034Y856D02*
X1041Y856D01*
X1266Y856D02*
X1273Y856D01*
X25Y855D02*
X31Y855D01*
X72Y855D02*
X78Y855D01*
X819Y855D02*
X825Y855D01*
X832Y855D02*
X839Y855D01*
X890Y855D02*
X896Y855D01*
X1034Y855D02*
X1040Y855D01*
X1266Y855D02*
X1273Y855D01*
X25Y854D02*
X31Y854D01*
X72Y854D02*
X78Y854D01*
X819Y854D02*
X825Y854D01*
X833Y854D02*
X840Y854D01*
X890Y854D02*
X896Y854D01*
X1033Y854D02*
X1040Y854D01*
X1266Y854D02*
X1273Y854D01*
X25Y853D02*
X31Y853D01*
X72Y853D02*
X78Y853D01*
X819Y853D02*
X825Y853D01*
X833Y853D02*
X840Y853D01*
X890Y853D02*
X896Y853D01*
X1033Y853D02*
X1040Y853D01*
X1266Y853D02*
X1273Y853D01*
X25Y852D02*
X31Y852D01*
X72Y852D02*
X78Y852D01*
X819Y852D02*
X825Y852D01*
X834Y852D02*
X841Y852D01*
X890Y852D02*
X896Y852D01*
X1033Y852D02*
X1040Y852D01*
X1266Y852D02*
X1273Y852D01*
X25Y851D02*
X31Y851D01*
X72Y851D02*
X78Y851D01*
X819Y851D02*
X825Y851D01*
X834Y851D02*
X841Y851D01*
X890Y851D02*
X896Y851D01*
X1033Y851D02*
X1040Y851D01*
X1266Y851D02*
X1273Y851D01*
X25Y850D02*
X31Y850D01*
X73Y850D02*
X78Y850D01*
X819Y850D02*
X825Y850D01*
X835Y850D02*
X842Y850D01*
X890Y850D02*
X896Y850D01*
X1033Y850D02*
X1040Y850D01*
X1267Y850D02*
X1274Y850D01*
X26Y849D02*
X31Y849D01*
X73Y849D02*
X78Y849D01*
X819Y849D02*
X825Y849D01*
X835Y849D02*
X842Y849D01*
X890Y849D02*
X896Y849D01*
X1033Y849D02*
X1039Y849D01*
X1267Y849D02*
X1274Y849D01*
X26Y848D02*
X30Y848D01*
X74Y848D02*
X77Y848D01*
X819Y848D02*
X825Y848D01*
X836Y848D02*
X843Y848D01*
X890Y848D02*
X896Y848D01*
X1032Y848D02*
X1039Y848D01*
X1267Y848D02*
X1274Y848D01*
X819Y847D02*
X825Y847D01*
X836Y847D02*
X843Y847D01*
X890Y847D02*
X896Y847D01*
X1032Y847D02*
X1039Y847D01*
X1267Y847D02*
X1274Y847D01*
X819Y846D02*
X825Y846D01*
X837Y846D02*
X844Y846D01*
X890Y846D02*
X896Y846D01*
X1032Y846D02*
X1039Y846D01*
X1267Y846D02*
X1274Y846D01*
X819Y845D02*
X825Y845D01*
X837Y845D02*
X844Y845D01*
X890Y845D02*
X896Y845D01*
X1032Y845D02*
X1039Y845D01*
X1267Y845D02*
X1274Y845D01*
X819Y844D02*
X825Y844D01*
X838Y844D02*
X845Y844D01*
X890Y844D02*
X896Y844D01*
X1032Y844D02*
X1039Y844D01*
X1267Y844D02*
X1274Y844D01*
X819Y843D02*
X825Y843D01*
X838Y843D02*
X845Y843D01*
X890Y843D02*
X896Y843D01*
X1032Y843D02*
X1039Y843D01*
X1267Y843D02*
X1274Y843D01*
X819Y842D02*
X825Y842D01*
X839Y842D02*
X845Y842D01*
X890Y842D02*
X896Y842D01*
X1032Y842D02*
X1039Y842D01*
X1267Y842D02*
X1274Y842D01*
X819Y841D02*
X825Y841D01*
X839Y841D02*
X846Y841D01*
X869Y841D02*
X896Y841D01*
X1032Y841D02*
X1039Y841D01*
X1267Y841D02*
X1274Y841D01*
X819Y840D02*
X825Y840D01*
X840Y840D02*
X846Y840D01*
X866Y840D02*
X896Y840D01*
X1032Y840D02*
X1039Y840D01*
X1268Y840D02*
X1274Y840D01*
X819Y839D02*
X825Y839D01*
X840Y839D02*
X846Y839D01*
X865Y839D02*
X896Y839D01*
X1032Y839D02*
X1039Y839D01*
X1268Y839D02*
X1274Y839D01*
X819Y838D02*
X825Y838D01*
X840Y838D02*
X846Y838D01*
X864Y838D02*
X895Y838D01*
X1032Y838D02*
X1039Y838D01*
X1268Y838D02*
X1275Y838D01*
X819Y837D02*
X825Y837D01*
X840Y837D02*
X846Y837D01*
X863Y837D02*
X895Y837D01*
X1032Y837D02*
X1038Y837D01*
X1268Y837D02*
X1275Y837D01*
X819Y836D02*
X825Y836D01*
X840Y836D02*
X846Y836D01*
X863Y836D02*
X894Y836D01*
X1032Y836D02*
X1038Y836D01*
X1268Y836D02*
X1275Y836D01*
X819Y835D02*
X825Y835D01*
X840Y835D02*
X846Y835D01*
X863Y835D02*
X892Y835D01*
X1032Y835D02*
X1038Y835D01*
X1268Y835D02*
X1275Y835D01*
X819Y834D02*
X825Y834D01*
X839Y834D02*
X846Y834D01*
X862Y834D02*
X869Y834D01*
X1032Y834D02*
X1038Y834D01*
X1268Y834D02*
X1275Y834D01*
X819Y833D02*
X825Y833D01*
X839Y833D02*
X845Y833D01*
X862Y833D02*
X868Y833D01*
X1032Y833D02*
X1038Y833D01*
X1268Y833D02*
X1275Y833D01*
X819Y832D02*
X825Y832D01*
X838Y832D02*
X845Y832D01*
X862Y832D02*
X868Y832D01*
X1032Y832D02*
X1038Y832D01*
X1268Y832D02*
X1275Y832D01*
X27Y831D02*
X30Y831D01*
X74Y831D02*
X77Y831D01*
X819Y831D02*
X825Y831D01*
X838Y831D02*
X845Y831D01*
X862Y831D02*
X868Y831D01*
X1032Y831D02*
X1038Y831D01*
X1268Y831D02*
X1275Y831D01*
X26Y830D02*
X31Y830D01*
X73Y830D02*
X78Y830D01*
X819Y830D02*
X825Y830D01*
X837Y830D02*
X844Y830D01*
X862Y830D02*
X868Y830D01*
X1032Y830D02*
X1039Y830D01*
X1268Y830D02*
X1274Y830D01*
X25Y829D02*
X31Y829D01*
X73Y829D02*
X78Y829D01*
X819Y829D02*
X825Y829D01*
X837Y829D02*
X844Y829D01*
X862Y829D02*
X868Y829D01*
X1032Y829D02*
X1039Y829D01*
X1268Y829D02*
X1274Y829D01*
X25Y828D02*
X31Y828D01*
X72Y828D02*
X78Y828D01*
X819Y828D02*
X825Y828D01*
X836Y828D02*
X843Y828D01*
X862Y828D02*
X868Y828D01*
X1032Y828D02*
X1039Y828D01*
X1268Y828D02*
X1274Y828D01*
X25Y827D02*
X31Y827D01*
X72Y827D02*
X78Y827D01*
X819Y827D02*
X825Y827D01*
X836Y827D02*
X843Y827D01*
X862Y827D02*
X868Y827D01*
X1032Y827D02*
X1039Y827D01*
X1268Y827D02*
X1274Y827D01*
X25Y826D02*
X31Y826D01*
X72Y826D02*
X78Y826D01*
X819Y826D02*
X825Y826D01*
X835Y826D02*
X842Y826D01*
X862Y826D02*
X868Y826D01*
X1032Y826D02*
X1039Y826D01*
X1267Y826D02*
X1274Y826D01*
X25Y825D02*
X31Y825D01*
X72Y825D02*
X78Y825D01*
X819Y825D02*
X825Y825D01*
X835Y825D02*
X842Y825D01*
X862Y825D02*
X868Y825D01*
X1032Y825D02*
X1039Y825D01*
X1267Y825D02*
X1274Y825D01*
X25Y824D02*
X31Y824D01*
X72Y824D02*
X78Y824D01*
X819Y824D02*
X825Y824D01*
X834Y824D02*
X841Y824D01*
X862Y824D02*
X868Y824D01*
X1032Y824D02*
X1039Y824D01*
X1267Y824D02*
X1274Y824D01*
X25Y823D02*
X31Y823D01*
X72Y823D02*
X78Y823D01*
X819Y823D02*
X825Y823D01*
X834Y823D02*
X841Y823D01*
X862Y823D02*
X868Y823D01*
X1032Y823D02*
X1039Y823D01*
X1267Y823D02*
X1274Y823D01*
X25Y822D02*
X31Y822D01*
X72Y822D02*
X78Y822D01*
X819Y822D02*
X825Y822D01*
X833Y822D02*
X840Y822D01*
X862Y822D02*
X868Y822D01*
X1032Y822D02*
X1039Y822D01*
X1267Y822D02*
X1274Y822D01*
X25Y821D02*
X31Y821D01*
X72Y821D02*
X78Y821D01*
X819Y821D02*
X825Y821D01*
X833Y821D02*
X840Y821D01*
X862Y821D02*
X868Y821D01*
X1032Y821D02*
X1039Y821D01*
X1267Y821D02*
X1274Y821D01*
X25Y820D02*
X31Y820D01*
X72Y820D02*
X78Y820D01*
X819Y820D02*
X825Y820D01*
X832Y820D02*
X839Y820D01*
X862Y820D02*
X868Y820D01*
X1032Y820D02*
X1039Y820D01*
X1267Y820D02*
X1274Y820D01*
X25Y819D02*
X31Y819D01*
X72Y819D02*
X78Y819D01*
X819Y819D02*
X825Y819D01*
X832Y819D02*
X839Y819D01*
X862Y819D02*
X868Y819D01*
X1033Y819D02*
X1039Y819D01*
X1267Y819D02*
X1274Y819D01*
X25Y818D02*
X32Y818D01*
X72Y818D02*
X78Y818D01*
X819Y818D02*
X825Y818D01*
X831Y818D02*
X838Y818D01*
X862Y818D02*
X868Y818D01*
X1033Y818D02*
X1040Y818D01*
X1267Y818D02*
X1274Y818D01*
X25Y817D02*
X78Y817D01*
X814Y817D02*
X838Y817D01*
X862Y817D02*
X894Y817D01*
X1033Y817D02*
X1040Y817D01*
X1267Y817D02*
X1273Y817D01*
X25Y816D02*
X78Y816D01*
X813Y816D02*
X837Y816D01*
X862Y816D02*
X895Y816D01*
X1033Y816D02*
X1040Y816D01*
X1266Y816D02*
X1273Y816D01*
X25Y815D02*
X78Y815D01*
X813Y815D02*
X837Y815D01*
X862Y815D02*
X896Y815D01*
X1033Y815D02*
X1040Y815D01*
X1266Y815D02*
X1273Y815D01*
X25Y814D02*
X78Y814D01*
X813Y814D02*
X836Y814D01*
X862Y814D02*
X896Y814D01*
X1033Y814D02*
X1040Y814D01*
X1266Y814D02*
X1273Y814D01*
X25Y813D02*
X78Y813D01*
X813Y813D02*
X835Y813D01*
X862Y813D02*
X896Y813D01*
X1033Y813D02*
X1040Y813D01*
X1266Y813D02*
X1273Y813D01*
X25Y812D02*
X78Y812D01*
X813Y812D02*
X833Y812D01*
X862Y812D02*
X895Y812D01*
X1034Y812D02*
X1041Y812D01*
X1266Y812D02*
X1273Y812D01*
X25Y811D02*
X78Y811D01*
X814Y811D02*
X831Y811D01*
X862Y811D02*
X894Y811D01*
X1034Y811D02*
X1041Y811D01*
X1266Y811D02*
X1272Y811D01*
X25Y810D02*
X31Y810D01*
X1034Y810D02*
X1041Y810D01*
X1265Y810D02*
X1272Y810D01*
X25Y809D02*
X31Y809D01*
X1034Y809D02*
X1041Y809D01*
X1265Y809D02*
X1272Y809D01*
X25Y808D02*
X31Y808D01*
X1034Y808D02*
X1041Y808D01*
X1265Y808D02*
X1272Y808D01*
X25Y807D02*
X31Y807D01*
X1035Y807D02*
X1042Y807D01*
X1265Y807D02*
X1272Y807D01*
X25Y806D02*
X31Y806D01*
X1035Y806D02*
X1042Y806D01*
X1264Y806D02*
X1271Y806D01*
X25Y805D02*
X31Y805D01*
X1035Y805D02*
X1042Y805D01*
X1264Y805D02*
X1271Y805D01*
X25Y804D02*
X32Y804D01*
X1035Y804D02*
X1042Y804D01*
X1264Y804D02*
X1271Y804D01*
X25Y803D02*
X48Y803D01*
X1036Y803D02*
X1043Y803D01*
X1264Y803D02*
X1271Y803D01*
X25Y802D02*
X49Y802D01*
X1036Y802D02*
X1043Y802D01*
X1263Y802D02*
X1270Y802D01*
X25Y801D02*
X49Y801D01*
X1036Y801D02*
X1043Y801D01*
X1263Y801D02*
X1270Y801D01*
X25Y800D02*
X49Y800D01*
X1036Y800D02*
X1044Y800D01*
X1263Y800D02*
X1270Y800D01*
X26Y799D02*
X49Y799D01*
X1037Y799D02*
X1044Y799D01*
X1262Y799D02*
X1269Y799D01*
X26Y798D02*
X48Y798D01*
X1037Y798D02*
X1044Y798D01*
X1262Y798D02*
X1269Y798D01*
X29Y797D02*
X46Y797D01*
X1037Y797D02*
X1045Y797D01*
X1262Y797D02*
X1269Y797D01*
X244Y796D02*
X269Y796D01*
X296Y796D02*
X314Y796D01*
X1038Y796D02*
X1045Y796D01*
X1261Y796D02*
X1269Y796D01*
X244Y795D02*
X272Y795D01*
X295Y795D02*
X314Y795D01*
X1038Y795D02*
X1045Y795D01*
X1261Y795D02*
X1268Y795D01*
X244Y794D02*
X273Y794D01*
X294Y794D02*
X314Y794D01*
X1038Y794D02*
X1046Y794D01*
X1261Y794D02*
X1268Y794D01*
X244Y793D02*
X274Y793D01*
X294Y793D02*
X314Y793D01*
X1039Y793D02*
X1046Y793D01*
X1260Y793D02*
X1268Y793D01*
X244Y792D02*
X275Y792D01*
X294Y792D02*
X314Y792D01*
X1039Y792D02*
X1046Y792D01*
X1260Y792D02*
X1267Y792D01*
X244Y791D02*
X276Y791D01*
X294Y791D02*
X314Y791D01*
X1039Y791D02*
X1047Y791D01*
X1259Y791D02*
X1267Y791D01*
X244Y790D02*
X277Y790D01*
X295Y790D02*
X314Y790D01*
X1040Y790D02*
X1047Y790D01*
X1259Y790D02*
X1266Y790D01*
X244Y789D02*
X250Y789D01*
X269Y789D02*
X277Y789D01*
X308Y789D02*
X314Y789D01*
X1040Y789D02*
X1048Y789D01*
X1259Y789D02*
X1266Y789D01*
X244Y788D02*
X250Y788D01*
X271Y788D02*
X277Y788D01*
X308Y788D02*
X314Y788D01*
X683Y788D02*
X685Y788D01*
X711Y788D02*
X737Y788D01*
X1041Y788D02*
X1048Y788D01*
X1258Y788D02*
X1266Y788D01*
X244Y787D02*
X250Y787D01*
X271Y787D02*
X277Y787D01*
X308Y787D02*
X314Y787D01*
X680Y787D02*
X688Y787D01*
X710Y787D02*
X739Y787D01*
X1041Y787D02*
X1048Y787D01*
X1258Y787D02*
X1265Y787D01*
X244Y786D02*
X250Y786D01*
X271Y786D02*
X277Y786D01*
X308Y786D02*
X314Y786D01*
X679Y786D02*
X689Y786D01*
X709Y786D02*
X740Y786D01*
X1041Y786D02*
X1049Y786D01*
X1257Y786D02*
X1265Y786D01*
X244Y785D02*
X250Y785D01*
X271Y785D02*
X277Y785D01*
X308Y785D02*
X314Y785D01*
X678Y785D02*
X690Y785D01*
X709Y785D02*
X741Y785D01*
X1042Y785D02*
X1049Y785D01*
X1257Y785D02*
X1264Y785D01*
X244Y784D02*
X250Y784D01*
X271Y784D02*
X277Y784D01*
X308Y784D02*
X314Y784D01*
X677Y784D02*
X691Y784D01*
X709Y784D02*
X742Y784D01*
X1042Y784D02*
X1050Y784D01*
X1225Y784D02*
X1229Y784D01*
X1256Y784D02*
X1282Y784D01*
X244Y783D02*
X250Y783D01*
X271Y783D02*
X277Y783D01*
X308Y783D02*
X314Y783D01*
X676Y783D02*
X692Y783D01*
X709Y783D02*
X742Y783D01*
X1043Y783D02*
X1050Y783D01*
X1224Y783D02*
X1230Y783D01*
X1256Y783D02*
X1283Y783D01*
X244Y782D02*
X250Y782D01*
X271Y782D02*
X277Y782D01*
X308Y782D02*
X314Y782D01*
X674Y782D02*
X692Y782D01*
X710Y782D02*
X742Y782D01*
X1043Y782D02*
X1051Y782D01*
X1224Y782D02*
X1230Y782D01*
X1255Y782D02*
X1283Y782D01*
X244Y781D02*
X250Y781D01*
X271Y781D02*
X277Y781D01*
X308Y781D02*
X314Y781D01*
X673Y781D02*
X683Y781D01*
X685Y781D02*
X692Y781D01*
X736Y781D02*
X742Y781D01*
X1044Y781D02*
X1051Y781D01*
X1224Y781D02*
X1230Y781D01*
X1255Y781D02*
X1283Y781D01*
X244Y780D02*
X250Y780D01*
X271Y780D02*
X277Y780D01*
X308Y780D02*
X314Y780D01*
X672Y780D02*
X682Y780D01*
X686Y780D02*
X692Y780D01*
X736Y780D02*
X742Y780D01*
X1044Y780D02*
X1052Y780D01*
X1224Y780D02*
X1230Y780D01*
X1254Y780D02*
X1283Y780D01*
X244Y779D02*
X250Y779D01*
X269Y779D02*
X277Y779D01*
X308Y779D02*
X314Y779D01*
X671Y779D02*
X681Y779D01*
X686Y779D02*
X692Y779D01*
X736Y779D02*
X742Y779D01*
X1045Y779D02*
X1052Y779D01*
X1224Y779D02*
X1230Y779D01*
X1254Y779D02*
X1282Y779D01*
X244Y778D02*
X277Y778D01*
X308Y778D02*
X314Y778D01*
X670Y778D02*
X680Y778D01*
X686Y778D02*
X692Y778D01*
X736Y778D02*
X742Y778D01*
X1045Y778D02*
X1053Y778D01*
X1224Y778D02*
X1230Y778D01*
X1253Y778D02*
X1281Y778D01*
X244Y777D02*
X276Y777D01*
X308Y777D02*
X314Y777D01*
X668Y777D02*
X678Y777D01*
X686Y777D02*
X692Y777D01*
X736Y777D02*
X742Y777D01*
X1046Y777D02*
X1054Y777D01*
X1224Y777D02*
X1230Y777D01*
X1253Y777D02*
X1263Y777D01*
X244Y776D02*
X275Y776D01*
X308Y776D02*
X314Y776D01*
X667Y776D02*
X677Y776D01*
X686Y776D02*
X692Y776D01*
X736Y776D02*
X742Y776D01*
X1046Y776D02*
X1054Y776D01*
X1224Y776D02*
X1230Y776D01*
X1252Y776D02*
X1263Y776D01*
X244Y775D02*
X274Y775D01*
X308Y775D02*
X314Y775D01*
X666Y775D02*
X676Y775D01*
X686Y775D02*
X692Y775D01*
X736Y775D02*
X742Y775D01*
X1047Y775D02*
X1055Y775D01*
X1224Y775D02*
X1230Y775D01*
X1251Y775D02*
X1263Y775D01*
X244Y774D02*
X273Y774D01*
X308Y774D02*
X314Y774D01*
X578Y774D02*
X589Y774D01*
X665Y774D02*
X675Y774D01*
X686Y774D02*
X692Y774D01*
X736Y774D02*
X742Y774D01*
X1047Y774D02*
X1055Y774D01*
X1224Y774D02*
X1230Y774D01*
X1251Y774D02*
X1263Y774D01*
X244Y773D02*
X272Y773D01*
X308Y773D02*
X314Y773D01*
X565Y773D02*
X601Y773D01*
X664Y773D02*
X674Y773D01*
X686Y773D02*
X692Y773D01*
X736Y773D02*
X742Y773D01*
X1048Y773D02*
X1056Y773D01*
X1224Y773D02*
X1230Y773D01*
X1250Y773D02*
X1263Y773D01*
X244Y772D02*
X270Y772D01*
X308Y772D02*
X314Y772D01*
X559Y772D02*
X607Y772D01*
X663Y772D02*
X672Y772D01*
X686Y772D02*
X692Y772D01*
X736Y772D02*
X742Y772D01*
X1048Y772D02*
X1057Y772D01*
X1224Y772D02*
X1230Y772D01*
X1249Y772D02*
X1263Y772D01*
X244Y771D02*
X250Y771D01*
X256Y771D02*
X263Y771D01*
X308Y771D02*
X314Y771D01*
X554Y771D02*
X612Y771D01*
X662Y771D02*
X671Y771D01*
X686Y771D02*
X692Y771D01*
X736Y771D02*
X742Y771D01*
X1049Y771D02*
X1057Y771D01*
X1224Y771D02*
X1230Y771D01*
X1249Y771D02*
X1263Y771D01*
X244Y770D02*
X250Y770D01*
X257Y770D02*
X264Y770D01*
X308Y770D02*
X314Y770D01*
X550Y770D02*
X616Y770D01*
X661Y770D02*
X670Y770D01*
X686Y770D02*
X692Y770D01*
X736Y770D02*
X742Y770D01*
X1050Y770D02*
X1058Y770D01*
X1224Y770D02*
X1230Y770D01*
X1248Y770D02*
X1263Y770D01*
X244Y769D02*
X250Y769D01*
X257Y769D02*
X264Y769D01*
X308Y769D02*
X314Y769D01*
X546Y769D02*
X620Y769D01*
X660Y769D02*
X669Y769D01*
X686Y769D02*
X692Y769D01*
X736Y769D02*
X742Y769D01*
X1050Y769D02*
X1059Y769D01*
X1224Y769D02*
X1230Y769D01*
X1248Y769D02*
X1263Y769D01*
X244Y768D02*
X250Y768D01*
X258Y768D02*
X265Y768D01*
X308Y768D02*
X314Y768D01*
X543Y768D02*
X623Y768D01*
X660Y768D02*
X668Y768D01*
X686Y768D02*
X692Y768D01*
X736Y768D02*
X742Y768D01*
X1051Y768D02*
X1059Y768D01*
X1224Y768D02*
X1230Y768D01*
X1247Y768D02*
X1255Y768D01*
X1257Y768D02*
X1263Y768D01*
X244Y767D02*
X250Y767D01*
X258Y767D02*
X266Y767D01*
X308Y767D02*
X314Y767D01*
X540Y767D02*
X626Y767D01*
X660Y767D02*
X667Y767D01*
X686Y767D02*
X692Y767D01*
X736Y767D02*
X742Y767D01*
X1052Y767D02*
X1060Y767D01*
X1224Y767D02*
X1230Y767D01*
X1246Y767D02*
X1255Y767D01*
X1257Y767D02*
X1263Y767D01*
X244Y766D02*
X250Y766D01*
X259Y766D02*
X266Y766D01*
X308Y766D02*
X314Y766D01*
X323Y766D02*
X326Y766D01*
X537Y766D02*
X629Y766D01*
X659Y766D02*
X666Y766D01*
X686Y766D02*
X692Y766D01*
X735Y766D02*
X742Y766D01*
X1052Y766D02*
X1061Y766D01*
X1224Y766D02*
X1230Y766D01*
X1245Y766D02*
X1254Y766D01*
X1257Y766D02*
X1263Y766D01*
X244Y765D02*
X250Y765D01*
X260Y765D02*
X267Y765D01*
X308Y765D02*
X314Y765D01*
X322Y765D02*
X327Y765D01*
X535Y765D02*
X631Y765D01*
X659Y765D02*
X665Y765D01*
X686Y765D02*
X692Y765D01*
X734Y765D02*
X742Y765D01*
X1053Y765D02*
X1061Y765D01*
X1224Y765D02*
X1230Y765D01*
X1245Y765D02*
X1253Y765D01*
X1257Y765D02*
X1263Y765D01*
X244Y764D02*
X250Y764D01*
X260Y764D02*
X267Y764D01*
X308Y764D02*
X314Y764D01*
X322Y764D02*
X327Y764D01*
X532Y764D02*
X576Y764D01*
X591Y764D02*
X634Y764D01*
X659Y764D02*
X665Y764D01*
X686Y764D02*
X692Y764D01*
X717Y764D02*
X741Y764D01*
X1054Y764D02*
X1062Y764D01*
X1224Y764D02*
X1230Y764D01*
X1244Y764D02*
X1253Y764D01*
X1257Y764D02*
X1263Y764D01*
X244Y763D02*
X250Y763D01*
X261Y763D02*
X268Y763D01*
X308Y763D02*
X314Y763D01*
X321Y763D02*
X327Y763D01*
X530Y763D02*
X565Y763D01*
X601Y763D02*
X636Y763D01*
X659Y763D02*
X665Y763D01*
X686Y763D02*
X692Y763D01*
X716Y763D02*
X741Y763D01*
X1054Y763D02*
X1063Y763D01*
X1224Y763D02*
X1230Y763D01*
X1243Y763D02*
X1252Y763D01*
X1257Y763D02*
X1263Y763D01*
X244Y762D02*
X250Y762D01*
X261Y762D02*
X268Y762D01*
X308Y762D02*
X314Y762D01*
X321Y762D02*
X327Y762D01*
X528Y762D02*
X559Y762D01*
X608Y762D02*
X638Y762D01*
X659Y762D02*
X665Y762D01*
X686Y762D02*
X692Y762D01*
X716Y762D02*
X740Y762D01*
X1055Y762D02*
X1064Y762D01*
X1224Y762D02*
X1230Y762D01*
X1242Y762D02*
X1251Y762D01*
X1257Y762D02*
X1263Y762D01*
X244Y761D02*
X250Y761D01*
X262Y761D02*
X269Y761D01*
X308Y761D02*
X314Y761D01*
X321Y761D02*
X327Y761D01*
X526Y761D02*
X554Y761D01*
X612Y761D02*
X640Y761D01*
X659Y761D02*
X665Y761D01*
X686Y761D02*
X692Y761D01*
X716Y761D02*
X740Y761D01*
X1056Y761D02*
X1065Y761D01*
X1224Y761D02*
X1230Y761D01*
X1241Y761D02*
X1250Y761D01*
X1257Y761D02*
X1279Y761D01*
X244Y760D02*
X250Y760D01*
X262Y760D02*
X270Y760D01*
X308Y760D02*
X314Y760D01*
X321Y760D02*
X327Y760D01*
X524Y760D02*
X550Y760D01*
X616Y760D02*
X642Y760D01*
X659Y760D02*
X665Y760D01*
X686Y760D02*
X692Y760D01*
X716Y760D02*
X740Y760D01*
X1057Y760D02*
X1066Y760D01*
X1224Y760D02*
X1230Y760D01*
X1241Y760D02*
X1250Y760D01*
X1257Y760D02*
X1280Y760D01*
X244Y759D02*
X250Y759D01*
X263Y759D02*
X270Y759D01*
X308Y759D02*
X314Y759D01*
X321Y759D02*
X327Y759D01*
X523Y759D02*
X547Y759D01*
X620Y759D02*
X644Y759D01*
X659Y759D02*
X665Y759D01*
X686Y759D02*
X692Y759D01*
X716Y759D02*
X741Y759D01*
X1057Y759D02*
X1066Y759D01*
X1224Y759D02*
X1230Y759D01*
X1240Y759D02*
X1249Y759D01*
X1257Y759D02*
X1282Y759D01*
X244Y758D02*
X250Y758D01*
X264Y758D02*
X271Y758D01*
X308Y758D02*
X314Y758D01*
X321Y758D02*
X327Y758D01*
X521Y758D02*
X543Y758D01*
X623Y758D02*
X645Y758D01*
X659Y758D02*
X665Y758D01*
X674Y758D02*
X677Y758D01*
X686Y758D02*
X692Y758D01*
X718Y758D02*
X742Y758D01*
X1058Y758D02*
X1067Y758D01*
X1224Y758D02*
X1230Y758D01*
X1239Y758D02*
X1248Y758D01*
X1257Y758D02*
X1282Y758D01*
X244Y757D02*
X250Y757D01*
X264Y757D02*
X271Y757D01*
X308Y757D02*
X314Y757D01*
X321Y757D02*
X327Y757D01*
X519Y757D02*
X541Y757D01*
X625Y757D02*
X647Y757D01*
X659Y757D02*
X665Y757D01*
X673Y757D02*
X678Y757D01*
X685Y757D02*
X692Y757D01*
X735Y757D02*
X742Y757D01*
X1059Y757D02*
X1068Y757D01*
X1224Y757D02*
X1230Y757D01*
X1238Y757D02*
X1247Y757D01*
X1257Y757D02*
X1283Y757D01*
X244Y756D02*
X250Y756D01*
X265Y756D02*
X272Y756D01*
X308Y756D02*
X314Y756D01*
X321Y756D02*
X327Y756D01*
X518Y756D02*
X538Y756D01*
X628Y756D02*
X648Y756D01*
X659Y756D02*
X665Y756D01*
X673Y756D02*
X678Y756D01*
X685Y756D02*
X692Y756D01*
X736Y756D02*
X742Y756D01*
X1060Y756D02*
X1069Y756D01*
X1224Y756D02*
X1230Y756D01*
X1237Y756D02*
X1246Y756D01*
X1257Y756D02*
X1283Y756D01*
X244Y755D02*
X250Y755D01*
X265Y755D02*
X273Y755D01*
X308Y755D02*
X314Y755D01*
X321Y755D02*
X327Y755D01*
X516Y755D02*
X536Y755D01*
X630Y755D02*
X650Y755D01*
X659Y755D02*
X665Y755D01*
X673Y755D02*
X679Y755D01*
X684Y755D02*
X691Y755D01*
X736Y755D02*
X742Y755D01*
X1061Y755D02*
X1070Y755D01*
X1205Y755D02*
X1207Y755D01*
X1224Y755D02*
X1230Y755D01*
X1236Y755D02*
X1246Y755D01*
X1257Y755D02*
X1283Y755D01*
X244Y754D02*
X250Y754D01*
X266Y754D02*
X273Y754D01*
X308Y754D02*
X314Y754D01*
X321Y754D02*
X327Y754D01*
X515Y754D02*
X534Y754D01*
X633Y754D02*
X651Y754D01*
X659Y754D02*
X665Y754D01*
X673Y754D02*
X679Y754D01*
X683Y754D02*
X691Y754D01*
X736Y754D02*
X742Y754D01*
X1061Y754D02*
X1071Y754D01*
X1204Y754D02*
X1209Y754D01*
X1224Y754D02*
X1230Y754D01*
X1235Y754D02*
X1245Y754D01*
X1277Y754D02*
X1283Y754D01*
X244Y753D02*
X250Y753D01*
X267Y753D02*
X274Y753D01*
X308Y753D02*
X314Y753D01*
X321Y753D02*
X327Y753D01*
X514Y753D02*
X531Y753D01*
X635Y753D02*
X652Y753D01*
X659Y753D02*
X665Y753D01*
X673Y753D02*
X680Y753D01*
X682Y753D02*
X690Y753D01*
X736Y753D02*
X742Y753D01*
X1062Y753D02*
X1072Y753D01*
X1204Y753D02*
X1209Y753D01*
X1224Y753D02*
X1230Y753D01*
X1234Y753D02*
X1244Y753D01*
X1277Y753D02*
X1283Y753D01*
X244Y752D02*
X250Y752D01*
X267Y752D02*
X274Y752D01*
X308Y752D02*
X314Y752D01*
X321Y752D02*
X327Y752D01*
X513Y752D02*
X530Y752D01*
X637Y752D02*
X653Y752D01*
X659Y752D02*
X665Y752D01*
X673Y752D02*
X690Y752D01*
X736Y752D02*
X742Y752D01*
X1063Y752D02*
X1073Y752D01*
X1203Y752D02*
X1209Y752D01*
X1224Y752D02*
X1230Y752D01*
X1233Y752D02*
X1243Y752D01*
X1277Y752D02*
X1283Y752D01*
X244Y751D02*
X250Y751D01*
X268Y751D02*
X275Y751D01*
X308Y751D02*
X314Y751D01*
X321Y751D02*
X327Y751D01*
X511Y751D02*
X528Y751D01*
X638Y751D02*
X655Y751D01*
X659Y751D02*
X665Y751D01*
X674Y751D02*
X689Y751D01*
X736Y751D02*
X742Y751D01*
X1064Y751D02*
X1074Y751D01*
X1203Y751D02*
X1209Y751D01*
X1224Y751D02*
X1230Y751D01*
X1232Y751D02*
X1242Y751D01*
X1277Y751D02*
X1283Y751D01*
X244Y750D02*
X250Y750D01*
X268Y750D02*
X275Y750D01*
X308Y750D02*
X314Y750D01*
X321Y750D02*
X327Y750D01*
X510Y750D02*
X526Y750D01*
X640Y750D02*
X656Y750D01*
X659Y750D02*
X665Y750D01*
X674Y750D02*
X688Y750D01*
X736Y750D02*
X742Y750D01*
X1065Y750D02*
X1075Y750D01*
X1203Y750D02*
X1209Y750D01*
X1224Y750D02*
X1241Y750D01*
X1277Y750D02*
X1283Y750D01*
X244Y749D02*
X250Y749D01*
X269Y749D02*
X276Y749D01*
X296Y749D02*
X327Y749D01*
X509Y749D02*
X524Y749D01*
X642Y749D02*
X657Y749D01*
X659Y749D02*
X665Y749D01*
X675Y749D02*
X687Y749D01*
X736Y749D02*
X742Y749D01*
X1066Y749D02*
X1076Y749D01*
X1203Y749D02*
X1209Y749D01*
X1224Y749D02*
X1240Y749D01*
X1277Y749D02*
X1283Y749D01*
X244Y748D02*
X250Y748D01*
X269Y748D02*
X277Y748D01*
X295Y748D02*
X327Y748D01*
X508Y748D02*
X523Y748D01*
X643Y748D02*
X665Y748D01*
X675Y748D02*
X686Y748D01*
X736Y748D02*
X742Y748D01*
X1067Y748D02*
X1077Y748D01*
X1203Y748D02*
X1209Y748D01*
X1224Y748D02*
X1239Y748D01*
X1277Y748D02*
X1283Y748D01*
X244Y747D02*
X250Y747D01*
X270Y747D02*
X277Y747D01*
X294Y747D02*
X327Y747D01*
X507Y747D02*
X521Y747D01*
X645Y747D02*
X665Y747D01*
X675Y747D02*
X685Y747D01*
X736Y747D02*
X742Y747D01*
X1068Y747D02*
X1079Y747D01*
X1203Y747D02*
X1209Y747D01*
X1224Y747D02*
X1238Y747D01*
X1277Y747D02*
X1283Y747D01*
X244Y746D02*
X250Y746D01*
X271Y746D02*
X277Y746D01*
X294Y746D02*
X327Y746D01*
X506Y746D02*
X520Y746D01*
X646Y746D02*
X665Y746D01*
X674Y746D02*
X683Y746D01*
X736Y746D02*
X742Y746D01*
X1069Y746D02*
X1080Y746D01*
X1203Y746D02*
X1209Y746D01*
X1224Y746D02*
X1237Y746D01*
X1277Y746D02*
X1283Y746D01*
X244Y745D02*
X250Y745D01*
X271Y745D02*
X277Y745D01*
X294Y745D02*
X327Y745D01*
X505Y745D02*
X519Y745D01*
X647Y745D02*
X665Y745D01*
X672Y745D02*
X683Y745D01*
X736Y745D02*
X742Y745D01*
X1070Y745D02*
X1081Y745D01*
X1203Y745D02*
X1209Y745D01*
X1224Y745D02*
X1236Y745D01*
X1277Y745D02*
X1283Y745D01*
X244Y744D02*
X249Y744D01*
X272Y744D02*
X277Y744D01*
X294Y744D02*
X327Y744D01*
X505Y744D02*
X518Y744D01*
X649Y744D02*
X665Y744D01*
X671Y744D02*
X683Y744D01*
X736Y744D02*
X742Y744D01*
X1071Y744D02*
X1082Y744D01*
X1203Y744D02*
X1209Y744D01*
X1224Y744D02*
X1235Y744D01*
X1277Y744D02*
X1283Y744D01*
X245Y743D02*
X248Y743D01*
X273Y743D02*
X276Y743D01*
X295Y743D02*
X326Y743D01*
X504Y743D02*
X516Y743D01*
X650Y743D02*
X665Y743D01*
X670Y743D02*
X683Y743D01*
X736Y743D02*
X742Y743D01*
X1072Y743D02*
X1234Y743D01*
X1277Y743D02*
X1283Y743D01*
X503Y742D02*
X515Y742D01*
X651Y742D02*
X665Y742D01*
X669Y742D02*
X684Y742D01*
X736Y742D02*
X742Y742D01*
X1073Y742D02*
X1233Y742D01*
X1277Y742D02*
X1283Y742D01*
X502Y741D02*
X514Y741D01*
X652Y741D02*
X689Y741D01*
X712Y741D02*
X742Y741D01*
X1074Y741D02*
X1232Y741D01*
X1277Y741D02*
X1283Y741D01*
X502Y740D02*
X513Y740D01*
X653Y740D02*
X676Y740D01*
X678Y740D02*
X691Y740D01*
X710Y740D02*
X742Y740D01*
X1076Y740D02*
X1230Y740D01*
X1251Y740D02*
X1255Y740D01*
X1277Y740D02*
X1283Y740D01*
X501Y739D02*
X512Y739D01*
X654Y739D02*
X675Y739D01*
X678Y739D02*
X692Y739D01*
X709Y739D02*
X742Y739D01*
X1077Y739D02*
X1230Y739D01*
X1250Y739D02*
X1257Y739D01*
X1277Y739D02*
X1283Y739D01*
X500Y738D02*
X511Y738D01*
X655Y738D02*
X674Y738D01*
X679Y738D02*
X692Y738D01*
X709Y738D02*
X742Y738D01*
X1078Y738D02*
X1229Y738D01*
X1250Y738D02*
X1259Y738D01*
X1277Y738D02*
X1283Y738D01*
X500Y737D02*
X510Y737D01*
X656Y737D02*
X673Y737D01*
X679Y737D02*
X692Y737D01*
X709Y737D02*
X741Y737D01*
X1079Y737D02*
X1229Y737D01*
X1250Y737D02*
X1283Y737D01*
X499Y736D02*
X510Y736D01*
X656Y736D02*
X672Y736D01*
X680Y736D02*
X692Y736D01*
X709Y736D02*
X740Y736D01*
X1081Y736D02*
X1229Y736D01*
X1250Y736D02*
X1283Y736D01*
X499Y735D02*
X509Y735D01*
X657Y735D02*
X670Y735D01*
X680Y735D02*
X691Y735D01*
X710Y735D02*
X739Y735D01*
X1205Y735D02*
X1228Y735D01*
X1251Y735D02*
X1283Y735D01*
X498Y734D02*
X508Y734D01*
X658Y734D02*
X668Y734D01*
X1206Y734D02*
X1227Y734D01*
X1252Y734D02*
X1282Y734D01*
X498Y733D02*
X508Y733D01*
X658Y733D02*
X669Y733D01*
X1207Y733D02*
X1226Y733D01*
X1254Y733D02*
X1282Y733D01*
X497Y732D02*
X507Y732D01*
X659Y732D02*
X669Y732D01*
X1209Y732D02*
X1224Y732D01*
X1256Y732D02*
X1280Y732D01*
X497Y731D02*
X506Y731D01*
X660Y731D02*
X669Y731D01*
X1212Y731D02*
X1222Y731D01*
X1260Y731D02*
X1278Y731D01*
X496Y730D02*
X506Y730D01*
X660Y730D02*
X670Y730D01*
X496Y729D02*
X505Y729D01*
X661Y729D02*
X670Y729D01*
X496Y728D02*
X505Y728D01*
X661Y728D02*
X671Y728D01*
X495Y727D02*
X505Y727D01*
X661Y727D02*
X671Y727D01*
X495Y726D02*
X504Y726D01*
X662Y726D02*
X671Y726D01*
X495Y725D02*
X504Y725D01*
X662Y725D02*
X671Y725D01*
X494Y724D02*
X504Y724D01*
X662Y724D02*
X672Y724D01*
X494Y723D02*
X503Y723D01*
X663Y723D02*
X672Y723D01*
X494Y722D02*
X503Y722D01*
X663Y722D02*
X672Y722D01*
X494Y721D02*
X503Y721D01*
X663Y721D02*
X672Y721D01*
X494Y720D02*
X503Y720D01*
X663Y720D02*
X672Y720D01*
X494Y719D02*
X503Y719D01*
X663Y719D02*
X672Y719D01*
X494Y718D02*
X503Y718D01*
X663Y718D02*
X672Y718D01*
X494Y717D02*
X503Y717D01*
X663Y717D02*
X672Y717D01*
X494Y716D02*
X503Y716D01*
X664Y716D02*
X672Y716D01*
X494Y715D02*
X502Y715D01*
X664Y715D02*
X672Y715D01*
X495Y714D02*
X502Y714D01*
X665Y714D02*
X671Y714D01*
X495Y713D02*
X501Y713D01*
X666Y713D02*
X670Y713D01*
X497Y712D02*
X500Y712D01*
X841Y709D02*
X871Y709D01*
X904Y709D02*
X921Y709D01*
X941Y709D02*
X973Y709D01*
X991Y709D02*
X1023Y709D01*
X840Y708D02*
X872Y708D01*
X902Y708D02*
X922Y708D01*
X940Y708D02*
X973Y708D01*
X990Y708D02*
X1023Y708D01*
X839Y707D02*
X873Y707D01*
X900Y707D02*
X923Y707D01*
X939Y707D02*
X973Y707D01*
X989Y707D02*
X1023Y707D01*
X839Y706D02*
X873Y706D01*
X899Y706D02*
X923Y706D01*
X939Y706D02*
X973Y706D01*
X989Y706D02*
X1023Y706D01*
X839Y705D02*
X872Y705D01*
X899Y705D02*
X922Y705D01*
X939Y705D02*
X973Y705D01*
X989Y705D02*
X1023Y705D01*
X839Y704D02*
X872Y704D01*
X898Y704D02*
X922Y704D01*
X940Y704D02*
X973Y704D01*
X990Y704D02*
X1023Y704D01*
X839Y703D02*
X871Y703D01*
X897Y703D02*
X921Y703D01*
X941Y703D02*
X973Y703D01*
X991Y703D02*
X1023Y703D01*
X839Y702D02*
X845Y702D01*
X853Y702D02*
X859Y702D01*
X897Y702D02*
X904Y702D01*
X910Y702D02*
X916Y702D01*
X967Y702D02*
X973Y702D01*
X1017Y702D02*
X1023Y702D01*
X839Y701D02*
X845Y701D01*
X853Y701D02*
X859Y701D01*
X896Y701D02*
X903Y701D01*
X910Y701D02*
X916Y701D01*
X967Y701D02*
X973Y701D01*
X1017Y701D02*
X1023Y701D01*
X839Y700D02*
X845Y700D01*
X853Y700D02*
X859Y700D01*
X896Y700D02*
X903Y700D01*
X910Y700D02*
X916Y700D01*
X967Y700D02*
X973Y700D01*
X1017Y700D02*
X1023Y700D01*
X839Y699D02*
X845Y699D01*
X853Y699D02*
X859Y699D01*
X895Y699D02*
X902Y699D01*
X910Y699D02*
X916Y699D01*
X967Y699D02*
X973Y699D01*
X1017Y699D02*
X1023Y699D01*
X839Y698D02*
X845Y698D01*
X853Y698D02*
X859Y698D01*
X895Y698D02*
X902Y698D01*
X910Y698D02*
X916Y698D01*
X967Y698D02*
X973Y698D01*
X1017Y698D02*
X1023Y698D01*
X839Y697D02*
X845Y697D01*
X853Y697D02*
X859Y697D01*
X894Y697D02*
X901Y697D01*
X910Y697D02*
X916Y697D01*
X967Y697D02*
X973Y697D01*
X1017Y697D02*
X1023Y697D01*
X839Y696D02*
X845Y696D01*
X853Y696D02*
X859Y696D01*
X894Y696D02*
X901Y696D01*
X910Y696D02*
X916Y696D01*
X967Y696D02*
X973Y696D01*
X1017Y696D02*
X1023Y696D01*
X839Y695D02*
X845Y695D01*
X853Y695D02*
X859Y695D01*
X893Y695D02*
X900Y695D01*
X910Y695D02*
X916Y695D01*
X967Y695D02*
X973Y695D01*
X1017Y695D02*
X1023Y695D01*
X839Y694D02*
X845Y694D01*
X853Y694D02*
X859Y694D01*
X893Y694D02*
X900Y694D01*
X910Y694D02*
X916Y694D01*
X967Y694D02*
X973Y694D01*
X1017Y694D02*
X1023Y694D01*
X839Y693D02*
X845Y693D01*
X853Y693D02*
X859Y693D01*
X892Y693D02*
X899Y693D01*
X910Y693D02*
X916Y693D01*
X967Y693D02*
X973Y693D01*
X1017Y693D02*
X1023Y693D01*
X839Y692D02*
X845Y692D01*
X853Y692D02*
X859Y692D01*
X892Y692D02*
X899Y692D01*
X910Y692D02*
X916Y692D01*
X967Y692D02*
X973Y692D01*
X1017Y692D02*
X1023Y692D01*
X839Y691D02*
X845Y691D01*
X853Y691D02*
X859Y691D01*
X891Y691D02*
X898Y691D01*
X910Y691D02*
X916Y691D01*
X967Y691D02*
X973Y691D01*
X1017Y691D02*
X1023Y691D01*
X839Y690D02*
X845Y690D01*
X853Y690D02*
X859Y690D01*
X891Y690D02*
X898Y690D01*
X910Y690D02*
X916Y690D01*
X967Y690D02*
X973Y690D01*
X1017Y690D02*
X1023Y690D01*
X839Y689D02*
X845Y689D01*
X853Y689D02*
X859Y689D01*
X891Y689D02*
X897Y689D01*
X910Y689D02*
X916Y689D01*
X967Y689D02*
X973Y689D01*
X1017Y689D02*
X1023Y689D01*
X839Y688D02*
X845Y688D01*
X853Y688D02*
X859Y688D01*
X890Y688D02*
X897Y688D01*
X910Y688D02*
X916Y688D01*
X967Y688D02*
X973Y688D01*
X1017Y688D02*
X1023Y688D01*
X840Y687D02*
X845Y687D01*
X853Y687D02*
X859Y687D01*
X890Y687D02*
X896Y687D01*
X910Y687D02*
X916Y687D01*
X967Y687D02*
X973Y687D01*
X1017Y687D02*
X1023Y687D01*
X840Y686D02*
X844Y686D01*
X853Y686D02*
X859Y686D01*
X890Y686D02*
X896Y686D01*
X910Y686D02*
X916Y686D01*
X956Y686D02*
X973Y686D01*
X1017Y686D02*
X1023Y686D01*
X853Y685D02*
X859Y685D01*
X889Y685D02*
X896Y685D01*
X910Y685D02*
X916Y685D01*
X954Y685D02*
X973Y685D01*
X1017Y685D02*
X1023Y685D01*
X853Y684D02*
X859Y684D01*
X889Y684D02*
X895Y684D01*
X910Y684D02*
X916Y684D01*
X953Y684D02*
X973Y684D01*
X1017Y684D02*
X1023Y684D01*
X853Y683D02*
X859Y683D01*
X889Y683D02*
X895Y683D01*
X910Y683D02*
X916Y683D01*
X953Y683D02*
X973Y683D01*
X1017Y683D02*
X1023Y683D01*
X853Y682D02*
X859Y682D01*
X889Y682D02*
X895Y682D01*
X910Y682D02*
X916Y682D01*
X953Y682D02*
X973Y682D01*
X1017Y682D02*
X1023Y682D01*
X853Y681D02*
X859Y681D01*
X889Y681D02*
X895Y681D01*
X910Y681D02*
X916Y681D01*
X953Y681D02*
X973Y681D01*
X1017Y681D02*
X1023Y681D01*
X853Y680D02*
X859Y680D01*
X889Y680D02*
X896Y680D01*
X910Y680D02*
X916Y680D01*
X954Y680D02*
X973Y680D01*
X1017Y680D02*
X1023Y680D01*
X853Y679D02*
X859Y679D01*
X890Y679D02*
X896Y679D01*
X910Y679D02*
X916Y679D01*
X966Y679D02*
X973Y679D01*
X1017Y679D02*
X1023Y679D01*
X853Y678D02*
X859Y678D01*
X890Y678D02*
X896Y678D01*
X910Y678D02*
X916Y678D01*
X967Y678D02*
X973Y678D01*
X1017Y678D02*
X1023Y678D01*
X853Y677D02*
X859Y677D01*
X890Y677D02*
X897Y677D01*
X910Y677D02*
X916Y677D01*
X967Y677D02*
X973Y677D01*
X1017Y677D02*
X1023Y677D01*
X853Y676D02*
X859Y676D01*
X891Y676D02*
X897Y676D01*
X910Y676D02*
X916Y676D01*
X967Y676D02*
X973Y676D01*
X1017Y676D02*
X1023Y676D01*
X853Y675D02*
X859Y675D01*
X891Y675D02*
X898Y675D01*
X910Y675D02*
X916Y675D01*
X967Y675D02*
X973Y675D01*
X1017Y675D02*
X1023Y675D01*
X853Y674D02*
X859Y674D01*
X892Y674D02*
X899Y674D01*
X910Y674D02*
X916Y674D01*
X967Y674D02*
X973Y674D01*
X1017Y674D02*
X1023Y674D01*
X853Y673D02*
X859Y673D01*
X892Y673D02*
X899Y673D01*
X910Y673D02*
X916Y673D01*
X967Y673D02*
X973Y673D01*
X1017Y673D02*
X1023Y673D01*
X853Y672D02*
X859Y672D01*
X893Y672D02*
X900Y672D01*
X910Y672D02*
X916Y672D01*
X967Y672D02*
X973Y672D01*
X1017Y672D02*
X1023Y672D01*
X853Y671D02*
X859Y671D01*
X893Y671D02*
X900Y671D01*
X910Y671D02*
X916Y671D01*
X967Y671D02*
X973Y671D01*
X1017Y671D02*
X1023Y671D01*
X853Y670D02*
X859Y670D01*
X894Y670D02*
X901Y670D01*
X910Y670D02*
X916Y670D01*
X967Y670D02*
X973Y670D01*
X1017Y670D02*
X1023Y670D01*
X853Y669D02*
X859Y669D01*
X894Y669D02*
X901Y669D01*
X910Y669D02*
X916Y669D01*
X967Y669D02*
X973Y669D01*
X1017Y669D02*
X1023Y669D01*
X853Y668D02*
X859Y668D01*
X895Y668D02*
X902Y668D01*
X910Y668D02*
X916Y668D01*
X967Y668D02*
X973Y668D01*
X1017Y668D02*
X1023Y668D01*
X853Y667D02*
X859Y667D01*
X895Y667D02*
X902Y667D01*
X910Y667D02*
X916Y667D01*
X967Y667D02*
X973Y667D01*
X1017Y667D02*
X1023Y667D01*
X853Y666D02*
X859Y666D01*
X896Y666D02*
X903Y666D01*
X910Y666D02*
X916Y666D01*
X967Y666D02*
X973Y666D01*
X1017Y666D02*
X1023Y666D01*
X853Y665D02*
X859Y665D01*
X896Y665D02*
X903Y665D01*
X910Y665D02*
X916Y665D01*
X967Y665D02*
X973Y665D01*
X1017Y665D02*
X1023Y665D01*
X853Y664D02*
X859Y664D01*
X897Y664D02*
X904Y664D01*
X910Y664D02*
X916Y664D01*
X967Y664D02*
X973Y664D01*
X1017Y664D02*
X1023Y664D01*
X853Y663D02*
X859Y663D01*
X897Y663D02*
X905Y663D01*
X910Y663D02*
X916Y663D01*
X967Y663D02*
X973Y663D01*
X1017Y663D02*
X1023Y663D01*
X853Y662D02*
X871Y662D01*
X898Y662D02*
X921Y662D01*
X941Y662D02*
X973Y662D01*
X1017Y662D02*
X1023Y662D01*
X853Y661D02*
X872Y661D01*
X898Y661D02*
X922Y661D01*
X940Y661D02*
X973Y661D01*
X1017Y661D02*
X1023Y661D01*
X853Y660D02*
X873Y660D01*
X899Y660D02*
X923Y660D01*
X939Y660D02*
X973Y660D01*
X1017Y660D02*
X1023Y660D01*
X853Y659D02*
X873Y659D01*
X900Y659D02*
X923Y659D01*
X939Y659D02*
X973Y659D01*
X1017Y659D02*
X1023Y659D01*
X853Y658D02*
X873Y658D01*
X901Y658D02*
X923Y658D01*
X939Y658D02*
X973Y658D01*
X1017Y658D02*
X1023Y658D01*
X853Y657D02*
X872Y657D01*
X902Y657D02*
X922Y657D01*
X940Y657D02*
X973Y657D01*
X1017Y657D02*
X1022Y657D01*
X853Y656D02*
X871Y656D01*
X905Y656D02*
X921Y656D01*
X941Y656D02*
X973Y656D01*
X1019Y656D02*
X1021Y656D01*
X372Y627D02*
X375Y627D01*
X403Y627D02*
X407Y627D01*
X371Y626D02*
X376Y626D01*
X402Y626D02*
X408Y626D01*
X370Y625D02*
X376Y625D01*
X402Y625D02*
X409Y625D01*
X369Y624D02*
X377Y624D01*
X402Y624D02*
X410Y624D01*
X368Y623D02*
X377Y623D01*
X402Y623D02*
X411Y623D01*
X368Y622D02*
X377Y622D01*
X402Y622D02*
X411Y622D01*
X367Y621D02*
X376Y621D01*
X403Y621D02*
X412Y621D01*
X366Y620D02*
X375Y620D01*
X404Y620D02*
X413Y620D01*
X365Y619D02*
X374Y619D01*
X405Y619D02*
X414Y619D01*
X342Y618D02*
X360Y618D01*
X365Y618D02*
X374Y618D01*
X405Y618D02*
X414Y618D01*
X340Y617D02*
X362Y617D01*
X364Y617D02*
X373Y617D01*
X406Y617D02*
X415Y617D01*
X339Y616D02*
X372Y616D01*
X407Y616D02*
X416Y616D01*
X339Y615D02*
X371Y615D01*
X408Y615D02*
X416Y615D01*
X339Y614D02*
X371Y614D01*
X408Y614D02*
X417Y614D01*
X339Y613D02*
X370Y613D01*
X409Y613D02*
X417Y613D01*
X340Y612D02*
X369Y612D01*
X410Y612D02*
X418Y612D01*
X356Y611D02*
X369Y611D01*
X410Y611D02*
X418Y611D01*
X357Y610D02*
X368Y610D01*
X411Y610D02*
X419Y610D01*
X357Y609D02*
X367Y609D01*
X412Y609D02*
X420Y609D01*
X357Y608D02*
X367Y608D01*
X412Y608D02*
X420Y608D01*
X357Y607D02*
X366Y607D01*
X413Y607D02*
X420Y607D01*
X357Y606D02*
X366Y606D01*
X413Y606D02*
X421Y606D01*
X357Y605D02*
X365Y605D01*
X414Y605D02*
X421Y605D01*
X310Y604D02*
X365Y604D01*
X414Y604D02*
X422Y604D01*
X310Y603D02*
X364Y603D01*
X415Y603D02*
X422Y603D01*
X310Y602D02*
X364Y602D01*
X415Y602D02*
X423Y602D01*
X310Y601D02*
X363Y601D01*
X416Y601D02*
X423Y601D01*
X310Y600D02*
X363Y600D01*
X416Y600D02*
X423Y600D01*
X310Y599D02*
X363Y599D01*
X416Y599D02*
X424Y599D01*
X310Y598D02*
X363Y598D01*
X417Y598D02*
X424Y598D01*
X310Y597D02*
X316Y597D01*
X355Y597D02*
X363Y597D01*
X417Y597D02*
X424Y597D01*
X149Y596D02*
X150Y596D01*
X175Y596D02*
X201Y596D01*
X310Y596D02*
X316Y596D01*
X354Y596D02*
X363Y596D01*
X417Y596D02*
X425Y596D01*
X147Y595D02*
X151Y595D01*
X173Y595D02*
X203Y595D01*
X310Y595D02*
X316Y595D01*
X354Y595D02*
X363Y595D01*
X418Y595D02*
X425Y595D01*
X147Y594D02*
X152Y594D01*
X173Y594D02*
X204Y594D01*
X310Y594D02*
X316Y594D01*
X354Y594D02*
X363Y594D01*
X418Y594D02*
X425Y594D01*
X146Y593D02*
X152Y593D01*
X172Y593D02*
X205Y593D01*
X310Y593D02*
X316Y593D01*
X354Y593D02*
X363Y593D01*
X418Y593D02*
X425Y593D01*
X146Y592D02*
X152Y592D01*
X172Y592D02*
X205Y592D01*
X310Y592D02*
X316Y592D01*
X353Y592D02*
X363Y592D01*
X419Y592D02*
X426Y592D01*
X146Y591D02*
X152Y591D01*
X173Y591D02*
X206Y591D01*
X310Y591D02*
X316Y591D01*
X353Y591D02*
X363Y591D01*
X419Y591D02*
X426Y591D01*
X146Y590D02*
X152Y590D01*
X174Y590D02*
X206Y590D01*
X310Y590D02*
X316Y590D01*
X353Y590D02*
X363Y590D01*
X419Y590D02*
X426Y590D01*
X146Y589D02*
X152Y589D01*
X200Y589D02*
X206Y589D01*
X310Y589D02*
X316Y589D01*
X353Y589D02*
X363Y589D01*
X419Y589D02*
X426Y589D01*
X146Y588D02*
X152Y588D01*
X200Y588D02*
X206Y588D01*
X310Y588D02*
X316Y588D01*
X353Y588D02*
X363Y588D01*
X420Y588D02*
X426Y588D01*
X146Y587D02*
X152Y587D01*
X200Y587D02*
X206Y587D01*
X310Y587D02*
X316Y587D01*
X352Y587D02*
X363Y587D01*
X420Y587D02*
X427Y587D01*
X146Y586D02*
X152Y586D01*
X200Y586D02*
X206Y586D01*
X310Y586D02*
X315Y586D01*
X352Y586D02*
X363Y586D01*
X420Y586D02*
X427Y586D01*
X146Y585D02*
X152Y585D01*
X200Y585D02*
X206Y585D01*
X310Y585D02*
X315Y585D01*
X352Y585D02*
X362Y585D01*
X420Y585D02*
X427Y585D01*
X146Y584D02*
X152Y584D01*
X200Y584D02*
X206Y584D01*
X312Y584D02*
X314Y584D01*
X352Y584D02*
X361Y584D01*
X420Y584D02*
X427Y584D01*
X146Y583D02*
X152Y583D01*
X200Y583D02*
X206Y583D01*
X352Y583D02*
X358Y583D01*
X421Y583D02*
X427Y583D01*
X146Y582D02*
X152Y582D01*
X200Y582D02*
X206Y582D01*
X352Y582D02*
X358Y582D01*
X421Y582D02*
X427Y582D01*
X146Y581D02*
X152Y581D01*
X200Y581D02*
X206Y581D01*
X352Y581D02*
X358Y581D01*
X421Y581D02*
X427Y581D01*
X146Y580D02*
X152Y580D01*
X200Y580D02*
X206Y580D01*
X352Y580D02*
X358Y580D01*
X421Y580D02*
X427Y580D01*
X146Y579D02*
X152Y579D01*
X200Y579D02*
X206Y579D01*
X351Y579D02*
X358Y579D01*
X421Y579D02*
X427Y579D01*
X146Y578D02*
X152Y578D01*
X200Y578D02*
X206Y578D01*
X351Y578D02*
X358Y578D01*
X421Y578D02*
X428Y578D01*
X146Y577D02*
X152Y577D01*
X200Y577D02*
X206Y577D01*
X351Y577D02*
X358Y577D01*
X421Y577D02*
X428Y577D01*
X146Y576D02*
X152Y576D01*
X200Y576D02*
X206Y576D01*
X351Y576D02*
X358Y576D01*
X421Y576D02*
X428Y576D01*
X146Y575D02*
X152Y575D01*
X200Y575D02*
X206Y575D01*
X351Y575D02*
X358Y575D01*
X421Y575D02*
X428Y575D01*
X146Y574D02*
X152Y574D01*
X200Y574D02*
X206Y574D01*
X351Y574D02*
X358Y574D01*
X421Y574D02*
X428Y574D01*
X146Y573D02*
X152Y573D01*
X200Y573D02*
X206Y573D01*
X351Y573D02*
X358Y573D01*
X421Y573D02*
X428Y573D01*
X146Y572D02*
X152Y572D01*
X176Y572D02*
X206Y572D01*
X351Y572D02*
X358Y572D01*
X421Y572D02*
X428Y572D01*
X146Y571D02*
X152Y571D01*
X175Y571D02*
X206Y571D01*
X351Y571D02*
X358Y571D01*
X421Y571D02*
X428Y571D01*
X146Y570D02*
X152Y570D01*
X174Y570D02*
X205Y570D01*
X351Y570D02*
X358Y570D01*
X421Y570D02*
X428Y570D01*
X146Y569D02*
X152Y569D01*
X173Y569D02*
X205Y569D01*
X351Y569D02*
X358Y569D01*
X421Y569D02*
X428Y569D01*
X146Y568D02*
X152Y568D01*
X173Y568D02*
X204Y568D01*
X312Y568D02*
X313Y568D01*
X352Y568D02*
X360Y568D01*
X421Y568D02*
X427Y568D01*
X146Y567D02*
X152Y567D01*
X172Y567D02*
X203Y567D01*
X311Y567D02*
X315Y567D01*
X352Y567D02*
X362Y567D01*
X421Y567D02*
X427Y567D01*
X127Y566D02*
X130Y566D01*
X146Y566D02*
X152Y566D01*
X172Y566D02*
X201Y566D01*
X310Y566D02*
X315Y566D01*
X352Y566D02*
X362Y566D01*
X421Y566D02*
X427Y566D01*
X126Y565D02*
X131Y565D01*
X146Y565D02*
X152Y565D01*
X172Y565D02*
X178Y565D01*
X310Y565D02*
X316Y565D01*
X352Y565D02*
X363Y565D01*
X421Y565D02*
X427Y565D01*
X126Y564D02*
X132Y564D01*
X146Y564D02*
X152Y564D01*
X172Y564D02*
X178Y564D01*
X310Y564D02*
X316Y564D01*
X352Y564D02*
X363Y564D01*
X420Y564D02*
X427Y564D01*
X126Y563D02*
X132Y563D01*
X146Y563D02*
X152Y563D01*
X172Y563D02*
X178Y563D01*
X310Y563D02*
X316Y563D01*
X352Y563D02*
X363Y563D01*
X420Y563D02*
X427Y563D01*
X126Y562D02*
X132Y562D01*
X146Y562D02*
X152Y562D01*
X172Y562D02*
X178Y562D01*
X310Y562D02*
X316Y562D01*
X352Y562D02*
X363Y562D01*
X420Y562D02*
X427Y562D01*
X126Y561D02*
X132Y561D01*
X146Y561D02*
X152Y561D01*
X172Y561D02*
X178Y561D01*
X310Y561D02*
X316Y561D01*
X352Y561D02*
X363Y561D01*
X420Y561D02*
X427Y561D01*
X126Y560D02*
X132Y560D01*
X146Y560D02*
X152Y560D01*
X172Y560D02*
X178Y560D01*
X310Y560D02*
X316Y560D01*
X352Y560D02*
X363Y560D01*
X420Y560D02*
X427Y560D01*
X126Y559D02*
X132Y559D01*
X146Y559D02*
X152Y559D01*
X172Y559D02*
X178Y559D01*
X310Y559D02*
X316Y559D01*
X353Y559D02*
X363Y559D01*
X420Y559D02*
X426Y559D01*
X126Y558D02*
X132Y558D01*
X146Y558D02*
X152Y558D01*
X172Y558D02*
X178Y558D01*
X310Y558D02*
X316Y558D01*
X353Y558D02*
X363Y558D01*
X419Y558D02*
X426Y558D01*
X126Y557D02*
X132Y557D01*
X146Y557D02*
X152Y557D01*
X172Y557D02*
X178Y557D01*
X310Y557D02*
X316Y557D01*
X353Y557D02*
X363Y557D01*
X419Y557D02*
X426Y557D01*
X126Y556D02*
X132Y556D01*
X146Y556D02*
X152Y556D01*
X172Y556D02*
X178Y556D01*
X310Y556D02*
X316Y556D01*
X353Y556D02*
X363Y556D01*
X419Y556D02*
X426Y556D01*
X126Y555D02*
X132Y555D01*
X146Y555D02*
X152Y555D01*
X172Y555D02*
X178Y555D01*
X310Y555D02*
X316Y555D01*
X354Y555D02*
X363Y555D01*
X419Y555D02*
X425Y555D01*
X126Y554D02*
X132Y554D01*
X146Y554D02*
X152Y554D01*
X172Y554D02*
X178Y554D01*
X310Y554D02*
X316Y554D01*
X354Y554D02*
X363Y554D01*
X418Y554D02*
X425Y554D01*
X126Y553D02*
X132Y553D01*
X146Y553D02*
X152Y553D01*
X172Y553D02*
X178Y553D01*
X310Y553D02*
X316Y553D01*
X354Y553D02*
X363Y553D01*
X418Y553D02*
X425Y553D01*
X126Y552D02*
X132Y552D01*
X146Y552D02*
X152Y552D01*
X172Y552D02*
X178Y552D01*
X310Y552D02*
X316Y552D01*
X354Y552D02*
X363Y552D01*
X418Y552D02*
X425Y552D01*
X126Y551D02*
X132Y551D01*
X146Y551D02*
X152Y551D01*
X172Y551D02*
X178Y551D01*
X310Y551D02*
X316Y551D01*
X355Y551D02*
X363Y551D01*
X417Y551D02*
X424Y551D01*
X126Y550D02*
X133Y550D01*
X145Y550D02*
X152Y550D01*
X172Y550D02*
X178Y550D01*
X310Y550D02*
X316Y550D01*
X355Y550D02*
X363Y550D01*
X417Y550D02*
X424Y550D01*
X126Y549D02*
X152Y549D01*
X172Y549D02*
X203Y549D01*
X310Y549D02*
X317Y549D01*
X355Y549D02*
X362Y549D01*
X417Y549D02*
X424Y549D01*
X127Y548D02*
X151Y548D01*
X172Y548D02*
X205Y548D01*
X310Y548D02*
X319Y548D01*
X353Y548D02*
X363Y548D01*
X416Y548D02*
X423Y548D01*
X127Y547D02*
X151Y547D01*
X172Y547D02*
X205Y547D01*
X311Y547D02*
X321Y547D01*
X351Y547D02*
X363Y547D01*
X416Y547D02*
X423Y547D01*
X128Y546D02*
X150Y546D01*
X172Y546D02*
X206Y546D01*
X311Y546D02*
X323Y546D01*
X349Y546D02*
X364Y546D01*
X415Y546D02*
X423Y546D01*
X129Y545D02*
X149Y545D01*
X172Y545D02*
X206Y545D01*
X312Y545D02*
X325Y545D01*
X347Y545D02*
X364Y545D01*
X415Y545D02*
X422Y545D01*
X130Y544D02*
X148Y544D01*
X172Y544D02*
X205Y544D01*
X313Y544D02*
X327Y544D01*
X346Y544D02*
X364Y544D01*
X415Y544D02*
X422Y544D01*
X132Y543D02*
X146Y543D01*
X172Y543D02*
X205Y543D01*
X314Y543D02*
X329Y543D01*
X344Y543D02*
X365Y543D01*
X414Y543D02*
X422Y543D01*
X316Y542D02*
X331Y542D01*
X342Y542D02*
X356Y542D01*
X358Y542D02*
X365Y542D01*
X414Y542D02*
X421Y542D01*
X318Y541D02*
X333Y541D01*
X339Y541D02*
X354Y541D01*
X358Y541D02*
X366Y541D01*
X413Y541D02*
X421Y541D01*
X320Y540D02*
X352Y540D01*
X359Y540D02*
X367Y540D01*
X412Y540D02*
X420Y540D01*
X322Y539D02*
X350Y539D01*
X359Y539D02*
X367Y539D01*
X412Y539D02*
X420Y539D01*
X324Y538D02*
X348Y538D01*
X360Y538D02*
X368Y538D01*
X411Y538D02*
X419Y538D01*
X326Y537D02*
X346Y537D01*
X360Y537D02*
X368Y537D01*
X411Y537D02*
X419Y537D01*
X328Y536D02*
X344Y536D01*
X361Y536D02*
X369Y536D01*
X410Y536D02*
X418Y536D01*
X330Y535D02*
X342Y535D01*
X361Y535D02*
X370Y535D01*
X409Y535D02*
X418Y535D01*
X333Y534D02*
X339Y534D01*
X362Y534D02*
X370Y534D01*
X409Y534D02*
X417Y534D01*
X362Y533D02*
X371Y533D01*
X408Y533D02*
X417Y533D01*
X363Y532D02*
X372Y532D01*
X407Y532D02*
X416Y532D01*
X364Y531D02*
X372Y531D01*
X407Y531D02*
X415Y531D01*
X364Y530D02*
X373Y530D01*
X406Y530D02*
X415Y530D01*
X365Y529D02*
X374Y529D01*
X405Y529D02*
X414Y529D01*
X366Y528D02*
X375Y528D01*
X404Y528D02*
X413Y528D01*
X366Y527D02*
X376Y527D01*
X403Y527D02*
X413Y527D01*
X367Y526D02*
X376Y526D01*
X403Y526D02*
X412Y526D01*
X368Y525D02*
X377Y525D01*
X402Y525D02*
X411Y525D01*
X369Y524D02*
X377Y524D01*
X402Y524D02*
X410Y524D01*
X370Y523D02*
X377Y523D01*
X402Y523D02*
X409Y523D01*
X370Y522D02*
X377Y522D01*
X403Y522D02*
X409Y522D01*
X371Y521D02*
X376Y521D01*
X404Y521D02*
X408Y521D01*
X373Y520D02*
X375Y520D01*
X695Y495D02*
X720Y495D01*
X747Y495D02*
X773Y495D01*
X695Y494D02*
X723Y494D01*
X746Y494D02*
X775Y494D01*
X695Y493D02*
X724Y493D01*
X745Y493D02*
X776Y493D01*
X695Y492D02*
X725Y492D01*
X745Y492D02*
X777Y492D01*
X695Y491D02*
X726Y491D01*
X745Y491D02*
X778Y491D01*
X695Y490D02*
X727Y490D01*
X745Y490D02*
X778Y490D01*
X695Y489D02*
X727Y489D01*
X746Y489D02*
X778Y489D01*
X695Y488D02*
X701Y488D01*
X720Y488D02*
X728Y488D01*
X772Y488D02*
X778Y488D01*
X695Y487D02*
X701Y487D01*
X721Y487D02*
X728Y487D01*
X772Y487D02*
X778Y487D01*
X695Y486D02*
X701Y486D01*
X722Y486D02*
X728Y486D01*
X772Y486D02*
X778Y486D01*
X695Y485D02*
X701Y485D01*
X722Y485D02*
X728Y485D01*
X772Y485D02*
X778Y485D01*
X695Y484D02*
X701Y484D01*
X722Y484D02*
X728Y484D01*
X772Y484D02*
X778Y484D01*
X695Y483D02*
X701Y483D01*
X722Y483D02*
X728Y483D01*
X772Y483D02*
X778Y483D01*
X695Y482D02*
X701Y482D01*
X722Y482D02*
X728Y482D01*
X772Y482D02*
X778Y482D01*
X695Y481D02*
X701Y481D01*
X722Y481D02*
X728Y481D01*
X772Y481D02*
X778Y481D01*
X695Y480D02*
X701Y480D01*
X722Y480D02*
X728Y480D01*
X772Y480D02*
X778Y480D01*
X695Y479D02*
X701Y479D01*
X722Y479D02*
X728Y479D01*
X772Y479D02*
X778Y479D01*
X695Y478D02*
X701Y478D01*
X720Y478D02*
X728Y478D01*
X772Y478D02*
X778Y478D01*
X695Y477D02*
X728Y477D01*
X772Y477D02*
X778Y477D01*
X695Y476D02*
X727Y476D01*
X772Y476D02*
X778Y476D01*
X695Y475D02*
X726Y475D01*
X772Y475D02*
X778Y475D01*
X695Y474D02*
X726Y474D01*
X772Y474D02*
X778Y474D01*
X695Y473D02*
X725Y473D01*
X772Y473D02*
X778Y473D01*
X695Y472D02*
X723Y472D01*
X772Y472D02*
X778Y472D01*
X695Y471D02*
X721Y471D01*
X749Y471D02*
X778Y471D01*
X695Y470D02*
X701Y470D01*
X707Y470D02*
X714Y470D01*
X747Y470D02*
X778Y470D01*
X695Y469D02*
X701Y469D01*
X707Y469D02*
X715Y469D01*
X746Y469D02*
X778Y469D01*
X695Y468D02*
X701Y468D01*
X708Y468D02*
X715Y468D01*
X746Y468D02*
X777Y468D01*
X695Y467D02*
X701Y467D01*
X709Y467D02*
X716Y467D01*
X745Y467D02*
X777Y467D01*
X695Y466D02*
X701Y466D01*
X709Y466D02*
X716Y466D01*
X745Y466D02*
X775Y466D01*
X695Y465D02*
X701Y465D01*
X710Y465D02*
X717Y465D01*
X745Y465D02*
X773Y465D01*
X695Y464D02*
X701Y464D01*
X710Y464D02*
X718Y464D01*
X745Y464D02*
X751Y464D01*
X695Y463D02*
X701Y463D01*
X711Y463D02*
X718Y463D01*
X745Y463D02*
X751Y463D01*
X695Y462D02*
X701Y462D01*
X712Y462D02*
X719Y462D01*
X745Y462D02*
X751Y462D01*
X695Y461D02*
X701Y461D01*
X712Y461D02*
X719Y461D01*
X745Y461D02*
X751Y461D01*
X695Y460D02*
X701Y460D01*
X713Y460D02*
X720Y460D01*
X745Y460D02*
X751Y460D01*
X695Y459D02*
X701Y459D01*
X713Y459D02*
X720Y459D01*
X745Y459D02*
X751Y459D01*
X695Y458D02*
X701Y458D01*
X714Y458D02*
X721Y458D01*
X745Y458D02*
X751Y458D01*
X695Y457D02*
X701Y457D01*
X714Y457D02*
X722Y457D01*
X745Y457D02*
X751Y457D01*
X695Y456D02*
X701Y456D01*
X715Y456D02*
X722Y456D01*
X745Y456D02*
X751Y456D01*
X695Y455D02*
X701Y455D01*
X716Y455D02*
X723Y455D01*
X745Y455D02*
X751Y455D01*
X695Y454D02*
X701Y454D01*
X716Y454D02*
X723Y454D01*
X745Y454D02*
X751Y454D01*
X695Y453D02*
X701Y453D01*
X717Y453D02*
X724Y453D01*
X745Y453D02*
X751Y453D01*
X695Y452D02*
X701Y452D01*
X717Y452D02*
X725Y452D01*
X745Y452D02*
X751Y452D01*
X695Y451D02*
X701Y451D01*
X718Y451D02*
X725Y451D01*
X745Y451D02*
X751Y451D01*
X1225Y451D02*
X1229Y451D01*
X1253Y451D02*
X1256Y451D01*
X695Y450D02*
X701Y450D01*
X719Y450D02*
X726Y450D01*
X745Y450D02*
X751Y450D01*
X1224Y450D02*
X1230Y450D01*
X1252Y450D02*
X1257Y450D01*
X695Y449D02*
X701Y449D01*
X719Y449D02*
X726Y449D01*
X745Y449D02*
X751Y449D01*
X1224Y449D02*
X1230Y449D01*
X1252Y449D02*
X1258Y449D01*
X695Y448D02*
X701Y448D01*
X720Y448D02*
X727Y448D01*
X745Y448D02*
X775Y448D01*
X1224Y448D02*
X1230Y448D01*
X1252Y448D02*
X1258Y448D01*
X661Y447D02*
X664Y447D01*
X686Y447D02*
X701Y447D01*
X711Y447D02*
X727Y447D01*
X736Y447D02*
X777Y447D01*
X787Y447D02*
X805Y447D01*
X1224Y447D02*
X1230Y447D01*
X1252Y447D02*
X1258Y447D01*
X660Y446D02*
X665Y446D01*
X686Y446D02*
X701Y446D01*
X710Y446D02*
X719Y446D01*
X721Y446D02*
X728Y446D01*
X736Y446D02*
X778Y446D01*
X786Y446D02*
X805Y446D01*
X1224Y446D02*
X1230Y446D01*
X1252Y446D02*
X1258Y446D01*
X1275Y446D02*
X1275Y446D01*
X660Y445D02*
X666Y445D01*
X686Y445D02*
X701Y445D01*
X710Y445D02*
X719Y445D01*
X721Y445D02*
X728Y445D01*
X736Y445D02*
X778Y445D01*
X786Y445D02*
X805Y445D01*
X1224Y445D02*
X1230Y445D01*
X1252Y445D02*
X1258Y445D01*
X1273Y445D02*
X1277Y445D01*
X660Y444D02*
X666Y444D01*
X686Y444D02*
X701Y444D01*
X709Y444D02*
X719Y444D01*
X722Y444D02*
X728Y444D01*
X736Y444D02*
X778Y444D01*
X786Y444D02*
X805Y444D01*
X1224Y444D02*
X1230Y444D01*
X1252Y444D02*
X1258Y444D01*
X1273Y444D02*
X1278Y444D01*
X660Y443D02*
X666Y443D01*
X686Y443D02*
X700Y443D01*
X708Y443D02*
X719Y443D01*
X723Y443D02*
X728Y443D01*
X736Y443D02*
X778Y443D01*
X786Y443D02*
X805Y443D01*
X1224Y443D02*
X1230Y443D01*
X1252Y443D02*
X1258Y443D01*
X1272Y443D02*
X1278Y443D01*
X660Y442D02*
X666Y442D01*
X686Y442D02*
X700Y442D01*
X708Y442D02*
X719Y442D01*
X724Y442D02*
X727Y442D01*
X736Y442D02*
X777Y442D01*
X786Y442D02*
X805Y442D01*
X1224Y442D02*
X1230Y442D01*
X1252Y442D02*
X1258Y442D01*
X1272Y442D02*
X1278Y442D01*
X660Y441D02*
X666Y441D01*
X686Y441D02*
X698Y441D01*
X707Y441D02*
X719Y441D01*
X736Y441D02*
X768Y441D01*
X787Y441D02*
X805Y441D01*
X1224Y441D02*
X1230Y441D01*
X1252Y441D02*
X1258Y441D01*
X1272Y441D02*
X1278Y441D01*
X660Y440D02*
X666Y440D01*
X686Y440D02*
X699Y440D01*
X706Y440D02*
X719Y440D01*
X736Y440D02*
X742Y440D01*
X761Y440D02*
X769Y440D01*
X799Y440D02*
X805Y440D01*
X1224Y440D02*
X1230Y440D01*
X1252Y440D02*
X1258Y440D01*
X1272Y440D02*
X1278Y440D01*
X660Y439D02*
X666Y439D01*
X686Y439D02*
X699Y439D01*
X705Y439D02*
X719Y439D01*
X736Y439D02*
X742Y439D01*
X762Y439D02*
X769Y439D01*
X799Y439D02*
X805Y439D01*
X1224Y439D02*
X1230Y439D01*
X1252Y439D02*
X1258Y439D01*
X1272Y439D02*
X1278Y439D01*
X660Y438D02*
X666Y438D01*
X686Y438D02*
X700Y438D01*
X705Y438D02*
X719Y438D01*
X736Y438D02*
X742Y438D01*
X763Y438D02*
X769Y438D01*
X799Y438D02*
X805Y438D01*
X1224Y438D02*
X1230Y438D01*
X1252Y438D02*
X1258Y438D01*
X1272Y438D02*
X1278Y438D01*
X660Y437D02*
X666Y437D01*
X686Y437D02*
X701Y437D01*
X704Y437D02*
X719Y437D01*
X736Y437D02*
X742Y437D01*
X763Y437D02*
X769Y437D01*
X799Y437D02*
X805Y437D01*
X1224Y437D02*
X1230Y437D01*
X1252Y437D02*
X1258Y437D01*
X1272Y437D02*
X1278Y437D01*
X660Y436D02*
X666Y436D01*
X686Y436D02*
X692Y436D01*
X694Y436D02*
X711Y436D01*
X713Y436D02*
X719Y436D01*
X736Y436D02*
X742Y436D01*
X763Y436D02*
X769Y436D01*
X799Y436D02*
X805Y436D01*
X1224Y436D02*
X1230Y436D01*
X1252Y436D02*
X1258Y436D01*
X1272Y436D02*
X1278Y436D01*
X660Y435D02*
X666Y435D01*
X686Y435D02*
X692Y435D01*
X695Y435D02*
X710Y435D01*
X713Y435D02*
X719Y435D01*
X736Y435D02*
X742Y435D01*
X763Y435D02*
X769Y435D01*
X799Y435D02*
X805Y435D01*
X1224Y435D02*
X1230Y435D01*
X1252Y435D02*
X1258Y435D01*
X1272Y435D02*
X1278Y435D01*
X660Y434D02*
X666Y434D01*
X686Y434D02*
X692Y434D01*
X695Y434D02*
X709Y434D01*
X713Y434D02*
X719Y434D01*
X736Y434D02*
X742Y434D01*
X763Y434D02*
X769Y434D01*
X799Y434D02*
X805Y434D01*
X1224Y434D02*
X1230Y434D01*
X1252Y434D02*
X1258Y434D01*
X1272Y434D02*
X1278Y434D01*
X660Y433D02*
X666Y433D01*
X686Y433D02*
X692Y433D01*
X696Y433D02*
X709Y433D01*
X713Y433D02*
X719Y433D01*
X736Y433D02*
X742Y433D01*
X763Y433D02*
X769Y433D01*
X799Y433D02*
X805Y433D01*
X1224Y433D02*
X1230Y433D01*
X1252Y433D02*
X1258Y433D01*
X1272Y433D02*
X1278Y433D01*
X660Y432D02*
X666Y432D01*
X686Y432D02*
X692Y432D01*
X697Y432D02*
X708Y432D01*
X713Y432D02*
X719Y432D01*
X736Y432D02*
X742Y432D01*
X763Y432D02*
X769Y432D01*
X799Y432D02*
X805Y432D01*
X1224Y432D02*
X1230Y432D01*
X1252Y432D02*
X1258Y432D01*
X1272Y432D02*
X1278Y432D01*
X660Y431D02*
X666Y431D01*
X686Y431D02*
X692Y431D01*
X697Y431D02*
X707Y431D01*
X713Y431D02*
X719Y431D01*
X736Y431D02*
X742Y431D01*
X763Y431D02*
X769Y431D01*
X799Y431D02*
X805Y431D01*
X1224Y431D02*
X1230Y431D01*
X1252Y431D02*
X1258Y431D01*
X1272Y431D02*
X1278Y431D01*
X660Y430D02*
X666Y430D01*
X686Y430D02*
X692Y430D01*
X698Y430D02*
X707Y430D01*
X713Y430D02*
X719Y430D01*
X736Y430D02*
X742Y430D01*
X763Y430D02*
X769Y430D01*
X799Y430D02*
X805Y430D01*
X1224Y430D02*
X1230Y430D01*
X1252Y430D02*
X1258Y430D01*
X1272Y430D02*
X1278Y430D01*
X660Y429D02*
X666Y429D01*
X686Y429D02*
X692Y429D01*
X699Y429D02*
X706Y429D01*
X713Y429D02*
X719Y429D01*
X736Y429D02*
X742Y429D01*
X763Y429D02*
X769Y429D01*
X799Y429D02*
X805Y429D01*
X1224Y429D02*
X1230Y429D01*
X1252Y429D02*
X1258Y429D01*
X1272Y429D02*
X1278Y429D01*
X660Y428D02*
X666Y428D01*
X686Y428D02*
X692Y428D01*
X699Y428D02*
X705Y428D01*
X713Y428D02*
X719Y428D01*
X736Y428D02*
X742Y428D01*
X763Y428D02*
X769Y428D01*
X799Y428D02*
X805Y428D01*
X1224Y428D02*
X1230Y428D01*
X1252Y428D02*
X1258Y428D01*
X1272Y428D02*
X1278Y428D01*
X660Y427D02*
X666Y427D01*
X686Y427D02*
X692Y427D01*
X699Y427D02*
X705Y427D01*
X713Y427D02*
X719Y427D01*
X736Y427D02*
X742Y427D01*
X763Y427D02*
X769Y427D01*
X799Y427D02*
X805Y427D01*
X1224Y427D02*
X1230Y427D01*
X1252Y427D02*
X1258Y427D01*
X1272Y427D02*
X1278Y427D01*
X660Y426D02*
X666Y426D01*
X686Y426D02*
X692Y426D01*
X699Y426D02*
X705Y426D01*
X713Y426D02*
X719Y426D01*
X736Y426D02*
X742Y426D01*
X763Y426D02*
X769Y426D01*
X799Y426D02*
X805Y426D01*
X1224Y426D02*
X1230Y426D01*
X1252Y426D02*
X1258Y426D01*
X1272Y426D02*
X1278Y426D01*
X660Y425D02*
X666Y425D01*
X686Y425D02*
X692Y425D01*
X700Y425D02*
X705Y425D01*
X713Y425D02*
X719Y425D01*
X736Y425D02*
X742Y425D01*
X763Y425D02*
X769Y425D01*
X799Y425D02*
X805Y425D01*
X1224Y425D02*
X1230Y425D01*
X1252Y425D02*
X1258Y425D01*
X1272Y425D02*
X1278Y425D01*
X660Y424D02*
X666Y424D01*
X686Y424D02*
X692Y424D01*
X700Y424D02*
X704Y424D01*
X713Y424D02*
X719Y424D01*
X736Y424D02*
X742Y424D01*
X763Y424D02*
X769Y424D01*
X799Y424D02*
X805Y424D01*
X1224Y424D02*
X1230Y424D01*
X1252Y424D02*
X1258Y424D01*
X1272Y424D02*
X1278Y424D01*
X660Y423D02*
X666Y423D01*
X686Y423D02*
X692Y423D01*
X702Y423D02*
X703Y423D01*
X713Y423D02*
X719Y423D01*
X736Y423D02*
X742Y423D01*
X763Y423D02*
X769Y423D01*
X799Y423D02*
X805Y423D01*
X1224Y423D02*
X1230Y423D01*
X1252Y423D02*
X1258Y423D01*
X1272Y423D02*
X1278Y423D01*
X660Y422D02*
X666Y422D01*
X686Y422D02*
X692Y422D01*
X713Y422D02*
X719Y422D01*
X736Y422D02*
X742Y422D01*
X762Y422D02*
X769Y422D01*
X799Y422D02*
X805Y422D01*
X1205Y422D02*
X1208Y422D01*
X1224Y422D02*
X1230Y422D01*
X1252Y422D02*
X1280Y422D01*
X660Y421D02*
X666Y421D01*
X686Y421D02*
X692Y421D01*
X713Y421D02*
X719Y421D01*
X736Y421D02*
X769Y421D01*
X799Y421D02*
X805Y421D01*
X1204Y421D02*
X1209Y421D01*
X1224Y421D02*
X1230Y421D01*
X1252Y421D02*
X1281Y421D01*
X660Y420D02*
X666Y420D01*
X686Y420D02*
X692Y420D01*
X713Y420D02*
X719Y420D01*
X736Y420D02*
X768Y420D01*
X799Y420D02*
X805Y420D01*
X1204Y420D02*
X1209Y420D01*
X1224Y420D02*
X1230Y420D01*
X1252Y420D02*
X1282Y420D01*
X660Y419D02*
X666Y419D01*
X686Y419D02*
X692Y419D01*
X713Y419D02*
X719Y419D01*
X736Y419D02*
X768Y419D01*
X799Y419D02*
X805Y419D01*
X1203Y419D02*
X1209Y419D01*
X1224Y419D02*
X1230Y419D01*
X1252Y419D02*
X1282Y419D01*
X642Y418D02*
X642Y418D01*
X660Y418D02*
X666Y418D01*
X686Y418D02*
X692Y418D01*
X713Y418D02*
X719Y418D01*
X736Y418D02*
X767Y418D01*
X799Y418D02*
X805Y418D01*
X816Y418D02*
X816Y418D01*
X1203Y418D02*
X1209Y418D01*
X1224Y418D02*
X1230Y418D01*
X1252Y418D02*
X1282Y418D01*
X640Y417D02*
X644Y417D01*
X660Y417D02*
X666Y417D01*
X686Y417D02*
X692Y417D01*
X713Y417D02*
X719Y417D01*
X736Y417D02*
X766Y417D01*
X799Y417D02*
X805Y417D01*
X814Y417D02*
X818Y417D01*
X1203Y417D02*
X1209Y417D01*
X1224Y417D02*
X1230Y417D01*
X1252Y417D02*
X1281Y417D01*
X639Y416D02*
X645Y416D01*
X660Y416D02*
X666Y416D01*
X686Y416D02*
X692Y416D01*
X713Y416D02*
X719Y416D01*
X736Y416D02*
X765Y416D01*
X799Y416D02*
X805Y416D01*
X814Y416D02*
X819Y416D01*
X1203Y416D02*
X1209Y416D01*
X1224Y416D02*
X1230Y416D01*
X1252Y416D02*
X1280Y416D01*
X639Y415D02*
X645Y415D01*
X660Y415D02*
X666Y415D01*
X686Y415D02*
X692Y415D01*
X713Y415D02*
X719Y415D01*
X736Y415D02*
X763Y415D01*
X799Y415D02*
X805Y415D01*
X813Y415D02*
X819Y415D01*
X1203Y415D02*
X1209Y415D01*
X1224Y415D02*
X1230Y415D01*
X1272Y415D02*
X1278Y415D01*
X639Y414D02*
X645Y414D01*
X660Y414D02*
X666Y414D01*
X686Y414D02*
X692Y414D01*
X713Y414D02*
X719Y414D01*
X736Y414D02*
X742Y414D01*
X799Y414D02*
X805Y414D01*
X813Y414D02*
X819Y414D01*
X1203Y414D02*
X1209Y414D01*
X1224Y414D02*
X1230Y414D01*
X1272Y414D02*
X1278Y414D01*
X639Y413D02*
X645Y413D01*
X660Y413D02*
X666Y413D01*
X686Y413D02*
X692Y413D01*
X713Y413D02*
X719Y413D01*
X736Y413D02*
X742Y413D01*
X799Y413D02*
X805Y413D01*
X813Y413D02*
X819Y413D01*
X1203Y413D02*
X1209Y413D01*
X1224Y413D02*
X1230Y413D01*
X1272Y413D02*
X1278Y413D01*
X639Y412D02*
X645Y412D01*
X660Y412D02*
X666Y412D01*
X686Y412D02*
X692Y412D01*
X713Y412D02*
X719Y412D01*
X736Y412D02*
X742Y412D01*
X799Y412D02*
X805Y412D01*
X813Y412D02*
X819Y412D01*
X1203Y412D02*
X1209Y412D01*
X1224Y412D02*
X1230Y412D01*
X1272Y412D02*
X1278Y412D01*
X639Y411D02*
X645Y411D01*
X660Y411D02*
X666Y411D01*
X686Y411D02*
X692Y411D01*
X713Y411D02*
X719Y411D01*
X736Y411D02*
X742Y411D01*
X799Y411D02*
X805Y411D01*
X813Y411D02*
X819Y411D01*
X1203Y411D02*
X1209Y411D01*
X1224Y411D02*
X1230Y411D01*
X1272Y411D02*
X1278Y411D01*
X639Y410D02*
X645Y410D01*
X660Y410D02*
X666Y410D01*
X686Y410D02*
X692Y410D01*
X713Y410D02*
X719Y410D01*
X736Y410D02*
X742Y410D01*
X799Y410D02*
X805Y410D01*
X813Y410D02*
X819Y410D01*
X1203Y410D02*
X1209Y410D01*
X1224Y410D02*
X1230Y410D01*
X1272Y410D02*
X1278Y410D01*
X639Y409D02*
X645Y409D01*
X660Y409D02*
X666Y409D01*
X686Y409D02*
X692Y409D01*
X713Y409D02*
X719Y409D01*
X736Y409D02*
X742Y409D01*
X799Y409D02*
X805Y409D01*
X813Y409D02*
X819Y409D01*
X1203Y409D02*
X1209Y409D01*
X1224Y409D02*
X1230Y409D01*
X1272Y409D02*
X1278Y409D01*
X639Y408D02*
X645Y408D01*
X660Y408D02*
X666Y408D01*
X686Y408D02*
X692Y408D01*
X713Y408D02*
X719Y408D01*
X736Y408D02*
X742Y408D01*
X799Y408D02*
X805Y408D01*
X813Y408D02*
X819Y408D01*
X1203Y408D02*
X1209Y408D01*
X1224Y408D02*
X1230Y408D01*
X1272Y408D02*
X1278Y408D01*
X639Y407D02*
X645Y407D01*
X660Y407D02*
X666Y407D01*
X686Y407D02*
X692Y407D01*
X713Y407D02*
X719Y407D01*
X736Y407D02*
X742Y407D01*
X799Y407D02*
X805Y407D01*
X813Y407D02*
X819Y407D01*
X1203Y407D02*
X1210Y407D01*
X1224Y407D02*
X1230Y407D01*
X1272Y407D02*
X1278Y407D01*
X639Y406D02*
X645Y406D01*
X660Y406D02*
X666Y406D01*
X686Y406D02*
X692Y406D01*
X713Y406D02*
X719Y406D01*
X736Y406D02*
X742Y406D01*
X799Y406D02*
X805Y406D01*
X813Y406D02*
X819Y406D01*
X1204Y406D02*
X1210Y406D01*
X1223Y406D02*
X1230Y406D01*
X1272Y406D02*
X1278Y406D01*
X639Y405D02*
X645Y405D01*
X660Y405D02*
X666Y405D01*
X686Y405D02*
X692Y405D01*
X713Y405D02*
X719Y405D01*
X736Y405D02*
X742Y405D01*
X799Y405D02*
X805Y405D01*
X813Y405D02*
X819Y405D01*
X1204Y405D02*
X1212Y405D01*
X1221Y405D02*
X1229Y405D01*
X1272Y405D02*
X1278Y405D01*
X639Y404D02*
X645Y404D01*
X660Y404D02*
X666Y404D01*
X686Y404D02*
X692Y404D01*
X713Y404D02*
X719Y404D01*
X736Y404D02*
X742Y404D01*
X799Y404D02*
X805Y404D01*
X813Y404D02*
X819Y404D01*
X1204Y404D02*
X1229Y404D01*
X1272Y404D02*
X1278Y404D01*
X639Y403D02*
X645Y403D01*
X660Y403D02*
X666Y403D01*
X686Y403D02*
X692Y403D01*
X713Y403D02*
X719Y403D01*
X736Y403D02*
X742Y403D01*
X799Y403D02*
X805Y403D01*
X813Y403D02*
X819Y403D01*
X1205Y403D02*
X1229Y403D01*
X1272Y403D02*
X1278Y403D01*
X639Y402D02*
X646Y402D01*
X659Y402D02*
X666Y402D01*
X686Y402D02*
X692Y402D01*
X713Y402D02*
X719Y402D01*
X736Y402D02*
X742Y402D01*
X799Y402D02*
X805Y402D01*
X813Y402D02*
X819Y402D01*
X1206Y402D02*
X1228Y402D01*
X1272Y402D02*
X1278Y402D01*
X640Y401D02*
X647Y401D01*
X658Y401D02*
X665Y401D01*
X686Y401D02*
X692Y401D01*
X713Y401D02*
X719Y401D01*
X736Y401D02*
X742Y401D01*
X799Y401D02*
X805Y401D01*
X813Y401D02*
X819Y401D01*
X1206Y401D02*
X1227Y401D01*
X1272Y401D02*
X1278Y401D01*
X640Y400D02*
X665Y400D01*
X686Y400D02*
X692Y400D01*
X713Y400D02*
X719Y400D01*
X736Y400D02*
X742Y400D01*
X788Y400D02*
X819Y400D01*
X1208Y400D02*
X1226Y400D01*
X1273Y400D02*
X1278Y400D01*
X640Y399D02*
X665Y399D01*
X686Y399D02*
X692Y399D01*
X713Y399D02*
X719Y399D01*
X736Y399D02*
X742Y399D01*
X786Y399D02*
X819Y399D01*
X1209Y399D02*
X1224Y399D01*
X1273Y399D02*
X1277Y399D01*
X641Y398D02*
X664Y398D01*
X686Y398D02*
X692Y398D01*
X713Y398D02*
X719Y398D01*
X736Y398D02*
X742Y398D01*
X786Y398D02*
X819Y398D01*
X1212Y398D02*
X1221Y398D01*
X1275Y398D02*
X1275Y398D01*
X642Y397D02*
X663Y397D01*
X686Y397D02*
X692Y397D01*
X713Y397D02*
X719Y397D01*
X736Y397D02*
X742Y397D01*
X786Y397D02*
X819Y397D01*
X643Y396D02*
X662Y396D01*
X686Y396D02*
X691Y396D01*
X713Y396D02*
X719Y396D01*
X736Y396D02*
X741Y396D01*
X786Y396D02*
X819Y396D01*
X644Y395D02*
X661Y395D01*
X686Y395D02*
X691Y395D01*
X714Y395D02*
X719Y395D01*
X736Y395D02*
X741Y395D01*
X786Y395D02*
X819Y395D01*
X646Y394D02*
X659Y394D01*
X687Y394D02*
X690Y394D01*
X715Y394D02*
X718Y394D01*
X737Y394D02*
X740Y394D01*
X787Y394D02*
X818Y394D01*
X446Y347D02*
X451Y347D01*
X445Y346D02*
X456Y346D01*
X444Y345D02*
X460Y345D01*
X443Y344D02*
X462Y344D01*
X443Y343D02*
X464Y343D01*
X443Y342D02*
X466Y342D01*
X443Y341D02*
X468Y341D01*
X444Y340D02*
X470Y340D01*
X444Y339D02*
X471Y339D01*
X445Y338D02*
X472Y338D01*
X452Y337D02*
X474Y337D01*
X457Y336D02*
X475Y336D01*
X459Y335D02*
X476Y335D01*
X462Y334D02*
X477Y334D01*
X463Y333D02*
X478Y333D01*
X465Y332D02*
X479Y332D01*
X466Y331D02*
X480Y331D01*
X468Y330D02*
X481Y330D01*
X469Y329D02*
X482Y329D01*
X470Y328D02*
X483Y328D01*
X471Y327D02*
X483Y327D01*
X472Y326D02*
X484Y326D01*
X473Y325D02*
X485Y325D01*
X474Y324D02*
X486Y324D01*
X475Y323D02*
X486Y323D01*
X476Y322D02*
X487Y322D01*
X477Y321D02*
X488Y321D01*
X477Y320D02*
X488Y320D01*
X930Y320D02*
X954Y320D01*
X982Y320D02*
X1013Y320D01*
X478Y319D02*
X489Y319D01*
X930Y319D02*
X957Y319D01*
X981Y319D02*
X1013Y319D01*
X479Y318D02*
X490Y318D01*
X930Y318D02*
X959Y318D01*
X980Y318D02*
X1013Y318D01*
X479Y317D02*
X490Y317D01*
X930Y317D02*
X960Y317D01*
X980Y317D02*
X1013Y317D01*
X480Y316D02*
X491Y316D01*
X930Y316D02*
X961Y316D01*
X980Y316D02*
X1013Y316D01*
X481Y315D02*
X491Y315D01*
X930Y315D02*
X962Y315D01*
X980Y315D02*
X1013Y315D01*
X481Y314D02*
X492Y314D01*
X930Y314D02*
X962Y314D01*
X980Y314D02*
X1013Y314D01*
X482Y313D02*
X492Y313D01*
X930Y313D02*
X936Y313D01*
X954Y313D02*
X963Y313D01*
X980Y313D02*
X986Y313D01*
X1007Y313D02*
X1013Y313D01*
X482Y312D02*
X493Y312D01*
X930Y312D02*
X936Y312D01*
X956Y312D02*
X963Y312D01*
X980Y312D02*
X985Y312D01*
X1007Y312D02*
X1013Y312D01*
X483Y311D02*
X493Y311D01*
X930Y311D02*
X936Y311D01*
X957Y311D02*
X963Y311D01*
X981Y311D02*
X984Y311D01*
X1007Y311D02*
X1013Y311D01*
X484Y310D02*
X494Y310D01*
X930Y310D02*
X936Y310D01*
X957Y310D02*
X963Y310D01*
X1007Y310D02*
X1013Y310D01*
X484Y309D02*
X494Y309D01*
X930Y309D02*
X936Y309D01*
X957Y309D02*
X963Y309D01*
X1007Y309D02*
X1013Y309D01*
X485Y308D02*
X495Y308D01*
X930Y308D02*
X936Y308D01*
X957Y308D02*
X963Y308D01*
X1007Y308D02*
X1013Y308D01*
X485Y307D02*
X495Y307D01*
X930Y307D02*
X936Y307D01*
X957Y307D02*
X963Y307D01*
X1007Y307D02*
X1013Y307D01*
X486Y306D02*
X495Y306D01*
X930Y306D02*
X936Y306D01*
X957Y306D02*
X963Y306D01*
X1007Y306D02*
X1013Y306D01*
X486Y305D02*
X496Y305D01*
X930Y305D02*
X936Y305D01*
X957Y305D02*
X963Y305D01*
X1007Y305D02*
X1013Y305D01*
X486Y304D02*
X496Y304D01*
X930Y304D02*
X936Y304D01*
X956Y304D02*
X963Y304D01*
X1007Y304D02*
X1013Y304D01*
X487Y303D02*
X497Y303D01*
X930Y303D02*
X936Y303D01*
X955Y303D02*
X963Y303D01*
X1007Y303D02*
X1013Y303D01*
X487Y302D02*
X497Y302D01*
X930Y302D02*
X962Y302D01*
X1007Y302D02*
X1013Y302D01*
X488Y301D02*
X497Y301D01*
X930Y301D02*
X962Y301D01*
X1007Y301D02*
X1013Y301D01*
X488Y300D02*
X498Y300D01*
X930Y300D02*
X961Y300D01*
X1006Y300D02*
X1013Y300D01*
X488Y299D02*
X498Y299D01*
X930Y299D02*
X960Y299D01*
X1005Y299D02*
X1013Y299D01*
X489Y298D02*
X498Y298D01*
X930Y298D02*
X959Y298D01*
X1004Y298D02*
X1013Y298D01*
X489Y297D02*
X499Y297D01*
X930Y297D02*
X958Y297D01*
X1003Y297D02*
X1012Y297D01*
X490Y296D02*
X499Y296D01*
X930Y296D02*
X956Y296D01*
X1002Y296D02*
X1012Y296D01*
X490Y295D02*
X499Y295D01*
X930Y295D02*
X936Y295D01*
X942Y295D02*
X949Y295D01*
X1001Y295D02*
X1010Y295D01*
X490Y294D02*
X499Y294D01*
X930Y294D02*
X936Y294D01*
X942Y294D02*
X949Y294D01*
X999Y294D02*
X1009Y294D01*
X490Y293D02*
X500Y293D01*
X930Y293D02*
X936Y293D01*
X943Y293D02*
X950Y293D01*
X998Y293D02*
X1008Y293D01*
X491Y292D02*
X500Y292D01*
X930Y292D02*
X936Y292D01*
X943Y292D02*
X951Y292D01*
X997Y292D02*
X1007Y292D01*
X491Y291D02*
X500Y291D01*
X930Y291D02*
X936Y291D01*
X944Y291D02*
X951Y291D01*
X996Y291D02*
X1006Y291D01*
X491Y290D02*
X501Y290D01*
X930Y290D02*
X936Y290D01*
X945Y290D02*
X952Y290D01*
X995Y290D02*
X1005Y290D01*
X492Y289D02*
X501Y289D01*
X930Y289D02*
X936Y289D01*
X945Y289D02*
X952Y289D01*
X994Y289D02*
X1003Y289D01*
X492Y288D02*
X501Y288D01*
X930Y288D02*
X936Y288D01*
X946Y288D02*
X953Y288D01*
X994Y288D02*
X1002Y288D01*
X492Y287D02*
X501Y287D01*
X930Y287D02*
X936Y287D01*
X946Y287D02*
X954Y287D01*
X993Y287D02*
X1001Y287D01*
X492Y286D02*
X501Y286D01*
X930Y286D02*
X936Y286D01*
X947Y286D02*
X954Y286D01*
X993Y286D02*
X1000Y286D01*
X493Y285D02*
X502Y285D01*
X930Y285D02*
X936Y285D01*
X948Y285D02*
X955Y285D01*
X993Y285D02*
X999Y285D01*
X493Y284D02*
X502Y284D01*
X510Y284D02*
X538Y284D01*
X930Y284D02*
X936Y284D01*
X948Y284D02*
X955Y284D01*
X993Y284D02*
X999Y284D01*
X493Y283D02*
X502Y283D01*
X509Y283D02*
X540Y283D01*
X930Y283D02*
X936Y283D01*
X949Y283D02*
X956Y283D01*
X993Y283D02*
X999Y283D01*
X493Y282D02*
X502Y282D01*
X508Y282D02*
X541Y282D01*
X930Y282D02*
X936Y282D01*
X949Y282D02*
X956Y282D01*
X993Y282D02*
X999Y282D01*
X493Y281D02*
X502Y281D01*
X507Y281D02*
X542Y281D01*
X930Y281D02*
X936Y281D01*
X950Y281D02*
X957Y281D01*
X993Y281D02*
X999Y281D01*
X494Y280D02*
X503Y280D01*
X506Y280D02*
X543Y280D01*
X930Y280D02*
X936Y280D01*
X950Y280D02*
X958Y280D01*
X993Y280D02*
X999Y280D01*
X494Y279D02*
X503Y279D01*
X506Y279D02*
X544Y279D01*
X930Y279D02*
X936Y279D01*
X951Y279D02*
X958Y279D01*
X993Y279D02*
X999Y279D01*
X494Y278D02*
X503Y278D01*
X506Y278D02*
X545Y278D01*
X930Y278D02*
X936Y278D01*
X952Y278D02*
X959Y278D01*
X993Y278D02*
X999Y278D01*
X494Y277D02*
X503Y277D01*
X506Y277D02*
X512Y277D01*
X537Y277D02*
X546Y277D01*
X930Y277D02*
X936Y277D01*
X952Y277D02*
X959Y277D01*
X993Y277D02*
X999Y277D01*
X494Y276D02*
X503Y276D01*
X506Y276D02*
X512Y276D01*
X539Y276D02*
X547Y276D01*
X930Y276D02*
X936Y276D01*
X953Y276D02*
X960Y276D01*
X993Y276D02*
X999Y276D01*
X494Y275D02*
X503Y275D01*
X506Y275D02*
X512Y275D01*
X540Y275D02*
X548Y275D01*
X930Y275D02*
X936Y275D01*
X953Y275D02*
X961Y275D01*
X993Y275D02*
X999Y275D01*
X494Y274D02*
X503Y274D01*
X506Y274D02*
X513Y274D01*
X540Y274D02*
X549Y274D01*
X930Y274D02*
X936Y274D01*
X954Y274D02*
X961Y274D01*
X993Y274D02*
X999Y274D01*
X495Y273D02*
X504Y273D01*
X506Y273D02*
X514Y273D01*
X541Y273D02*
X549Y273D01*
X930Y273D02*
X936Y273D01*
X955Y273D02*
X962Y273D01*
X993Y273D02*
X999Y273D01*
X495Y272D02*
X504Y272D01*
X507Y272D02*
X515Y272D01*
X542Y272D02*
X550Y272D01*
X930Y272D02*
X936Y272D01*
X955Y272D02*
X962Y272D01*
X993Y272D02*
X999Y272D01*
X495Y271D02*
X504Y271D01*
X508Y271D02*
X516Y271D01*
X525Y271D02*
X527Y271D01*
X543Y271D02*
X551Y271D01*
X930Y271D02*
X936Y271D01*
X956Y271D02*
X963Y271D01*
X993Y271D02*
X999Y271D01*
X495Y270D02*
X504Y270D01*
X508Y270D02*
X517Y270D01*
X523Y270D02*
X528Y270D01*
X544Y270D02*
X552Y270D01*
X930Y270D02*
X936Y270D01*
X956Y270D02*
X963Y270D01*
X993Y270D02*
X999Y270D01*
X495Y269D02*
X504Y269D01*
X509Y269D02*
X517Y269D01*
X520Y269D02*
X529Y269D01*
X545Y269D02*
X553Y269D01*
X930Y269D02*
X936Y269D01*
X957Y269D02*
X963Y269D01*
X993Y269D02*
X999Y269D01*
X495Y268D02*
X504Y268D01*
X510Y268D02*
X529Y268D01*
X545Y268D02*
X554Y268D01*
X930Y268D02*
X935Y268D01*
X957Y268D02*
X963Y268D01*
X994Y268D02*
X999Y268D01*
X495Y267D02*
X504Y267D01*
X511Y267D02*
X529Y267D01*
X546Y267D02*
X554Y267D01*
X931Y267D02*
X934Y267D01*
X958Y267D02*
X962Y267D01*
X995Y267D02*
X998Y267D01*
X495Y266D02*
X504Y266D01*
X512Y266D02*
X529Y266D01*
X547Y266D02*
X555Y266D01*
X495Y265D02*
X504Y265D01*
X510Y265D02*
X528Y265D01*
X548Y265D02*
X556Y265D01*
X495Y264D02*
X504Y264D01*
X507Y264D02*
X526Y264D01*
X549Y264D02*
X557Y264D01*
X495Y263D02*
X504Y263D01*
X506Y263D02*
X523Y263D01*
X550Y263D02*
X558Y263D01*
X495Y262D02*
X504Y262D01*
X506Y262D02*
X523Y262D01*
X550Y262D02*
X558Y262D01*
X495Y261D02*
X504Y261D01*
X506Y261D02*
X524Y261D01*
X551Y261D02*
X558Y261D01*
X495Y260D02*
X504Y260D01*
X506Y260D02*
X525Y260D01*
X552Y260D02*
X559Y260D01*
X495Y259D02*
X504Y259D01*
X506Y259D02*
X513Y259D01*
X518Y259D02*
X526Y259D01*
X553Y259D02*
X559Y259D01*
X496Y258D02*
X512Y258D01*
X519Y258D02*
X528Y258D01*
X552Y258D02*
X559Y258D01*
X495Y257D02*
X504Y257D01*
X506Y257D02*
X512Y257D01*
X519Y257D02*
X558Y257D01*
X495Y256D02*
X504Y256D01*
X506Y256D02*
X512Y256D01*
X520Y256D02*
X558Y256D01*
X495Y255D02*
X504Y255D01*
X506Y255D02*
X512Y255D01*
X521Y255D02*
X558Y255D01*
X495Y254D02*
X504Y254D01*
X506Y254D02*
X512Y254D01*
X522Y254D02*
X557Y254D01*
X142Y253D02*
X144Y253D01*
X168Y253D02*
X194Y253D01*
X495Y253D02*
X504Y253D01*
X506Y253D02*
X511Y253D01*
X523Y253D02*
X556Y253D01*
X140Y252D02*
X145Y252D01*
X166Y252D02*
X196Y252D01*
X495Y252D02*
X504Y252D01*
X506Y252D02*
X511Y252D01*
X525Y252D02*
X555Y252D01*
X140Y251D02*
X145Y251D01*
X166Y251D02*
X197Y251D01*
X495Y251D02*
X504Y251D01*
X507Y251D02*
X510Y251D01*
X528Y251D02*
X553Y251D01*
X140Y250D02*
X146Y250D01*
X166Y250D02*
X198Y250D01*
X495Y250D02*
X504Y250D01*
X140Y249D02*
X146Y249D01*
X166Y249D02*
X199Y249D01*
X495Y249D02*
X504Y249D01*
X140Y248D02*
X146Y248D01*
X166Y248D02*
X199Y248D01*
X495Y248D02*
X504Y248D01*
X140Y247D02*
X146Y247D01*
X167Y247D02*
X199Y247D01*
X495Y247D02*
X504Y247D01*
X140Y246D02*
X146Y246D01*
X193Y246D02*
X199Y246D01*
X495Y246D02*
X504Y246D01*
X140Y245D02*
X146Y245D01*
X193Y245D02*
X199Y245D01*
X495Y245D02*
X504Y245D01*
X140Y244D02*
X146Y244D01*
X193Y244D02*
X199Y244D01*
X495Y244D02*
X504Y244D01*
X140Y243D02*
X146Y243D01*
X193Y243D02*
X199Y243D01*
X495Y243D02*
X504Y243D01*
X140Y242D02*
X146Y242D01*
X193Y242D02*
X199Y242D01*
X495Y242D02*
X504Y242D01*
X140Y241D02*
X146Y241D01*
X193Y241D02*
X199Y241D01*
X494Y241D02*
X504Y241D01*
X140Y240D02*
X146Y240D01*
X193Y240D02*
X199Y240D01*
X494Y240D02*
X503Y240D01*
X140Y239D02*
X146Y239D01*
X193Y239D02*
X199Y239D01*
X494Y239D02*
X503Y239D01*
X140Y238D02*
X146Y238D01*
X193Y238D02*
X199Y238D01*
X494Y238D02*
X503Y238D01*
X140Y237D02*
X146Y237D01*
X193Y237D02*
X199Y237D01*
X494Y237D02*
X503Y237D01*
X140Y236D02*
X146Y236D01*
X193Y236D02*
X199Y236D01*
X494Y236D02*
X503Y236D01*
X140Y235D02*
X146Y235D01*
X193Y235D02*
X199Y235D01*
X494Y235D02*
X503Y235D01*
X506Y235D02*
X528Y235D01*
X140Y234D02*
X146Y234D01*
X193Y234D02*
X199Y234D01*
X493Y234D02*
X502Y234D01*
X506Y234D02*
X532Y234D01*
X554Y234D02*
X558Y234D01*
X140Y233D02*
X146Y233D01*
X193Y233D02*
X199Y233D01*
X493Y233D02*
X502Y233D01*
X506Y233D02*
X533Y233D01*
X553Y233D02*
X558Y233D01*
X140Y232D02*
X146Y232D01*
X193Y232D02*
X199Y232D01*
X493Y232D02*
X502Y232D01*
X506Y232D02*
X534Y232D01*
X553Y232D02*
X559Y232D01*
X140Y231D02*
X146Y231D01*
X192Y231D02*
X199Y231D01*
X493Y231D02*
X502Y231D01*
X506Y231D02*
X534Y231D01*
X553Y231D02*
X559Y231D01*
X932Y231D02*
X958Y231D01*
X984Y231D02*
X990Y231D01*
X140Y230D02*
X146Y230D01*
X190Y230D02*
X199Y230D01*
X493Y230D02*
X502Y230D01*
X506Y230D02*
X535Y230D01*
X553Y230D02*
X559Y230D01*
X932Y230D02*
X960Y230D01*
X983Y230D02*
X991Y230D01*
X140Y229D02*
X146Y229D01*
X174Y229D02*
X198Y229D01*
X492Y229D02*
X501Y229D01*
X506Y229D02*
X535Y229D01*
X553Y229D02*
X559Y229D01*
X932Y229D02*
X962Y229D01*
X982Y229D02*
X991Y229D01*
X140Y228D02*
X146Y228D01*
X173Y228D02*
X198Y228D01*
X492Y228D02*
X501Y228D01*
X506Y228D02*
X535Y228D01*
X553Y228D02*
X559Y228D01*
X932Y228D02*
X963Y228D01*
X982Y228D02*
X991Y228D01*
X140Y227D02*
X146Y227D01*
X173Y227D02*
X197Y227D01*
X492Y227D02*
X501Y227D01*
X506Y227D02*
X512Y227D01*
X529Y227D02*
X535Y227D01*
X553Y227D02*
X559Y227D01*
X932Y227D02*
X964Y227D01*
X982Y227D02*
X991Y227D01*
X140Y226D02*
X146Y226D01*
X172Y226D02*
X197Y226D01*
X492Y226D02*
X501Y226D01*
X506Y226D02*
X512Y226D01*
X529Y226D02*
X535Y226D01*
X553Y226D02*
X559Y226D01*
X932Y226D02*
X964Y226D01*
X982Y226D02*
X991Y226D01*
X140Y225D02*
X146Y225D01*
X173Y225D02*
X197Y225D01*
X491Y225D02*
X501Y225D01*
X506Y225D02*
X512Y225D01*
X529Y225D02*
X535Y225D01*
X553Y225D02*
X559Y225D01*
X932Y225D02*
X965Y225D01*
X982Y225D02*
X990Y225D01*
X140Y224D02*
X146Y224D01*
X173Y224D02*
X198Y224D01*
X491Y224D02*
X500Y224D01*
X506Y224D02*
X512Y224D01*
X529Y224D02*
X535Y224D01*
X553Y224D02*
X559Y224D01*
X932Y224D02*
X938Y224D01*
X958Y224D02*
X965Y224D01*
X982Y224D02*
X988Y224D01*
X120Y223D02*
X124Y223D01*
X140Y223D02*
X146Y223D01*
X175Y223D02*
X198Y223D01*
X491Y223D02*
X500Y223D01*
X506Y223D02*
X512Y223D01*
X529Y223D02*
X535Y223D01*
X553Y223D02*
X559Y223D01*
X932Y223D02*
X938Y223D01*
X959Y223D02*
X965Y223D01*
X982Y223D02*
X988Y223D01*
X119Y222D02*
X125Y222D01*
X140Y222D02*
X146Y222D01*
X192Y222D02*
X199Y222D01*
X490Y222D02*
X500Y222D01*
X506Y222D02*
X512Y222D01*
X529Y222D02*
X535Y222D01*
X553Y222D02*
X559Y222D01*
X932Y222D02*
X938Y222D01*
X959Y222D02*
X965Y222D01*
X982Y222D02*
X988Y222D01*
X119Y221D02*
X125Y221D01*
X140Y221D02*
X146Y221D01*
X193Y221D02*
X199Y221D01*
X490Y221D02*
X500Y221D01*
X506Y221D02*
X512Y221D01*
X529Y221D02*
X535Y221D01*
X553Y221D02*
X559Y221D01*
X932Y221D02*
X938Y221D01*
X960Y221D02*
X966Y221D01*
X982Y221D02*
X988Y221D01*
X119Y220D02*
X125Y220D01*
X140Y220D02*
X146Y220D01*
X193Y220D02*
X199Y220D01*
X490Y220D02*
X499Y220D01*
X506Y220D02*
X512Y220D01*
X529Y220D02*
X535Y220D01*
X553Y220D02*
X559Y220D01*
X932Y220D02*
X938Y220D01*
X960Y220D02*
X966Y220D01*
X982Y220D02*
X988Y220D01*
X119Y219D02*
X125Y219D01*
X140Y219D02*
X146Y219D01*
X193Y219D02*
X199Y219D01*
X490Y219D02*
X499Y219D01*
X506Y219D02*
X512Y219D01*
X529Y219D02*
X535Y219D01*
X553Y219D02*
X559Y219D01*
X932Y219D02*
X938Y219D01*
X960Y219D02*
X966Y219D01*
X982Y219D02*
X988Y219D01*
X119Y218D02*
X125Y218D01*
X140Y218D02*
X146Y218D01*
X193Y218D02*
X199Y218D01*
X489Y218D02*
X499Y218D01*
X506Y218D02*
X512Y218D01*
X529Y218D02*
X535Y218D01*
X553Y218D02*
X559Y218D01*
X932Y218D02*
X938Y218D01*
X960Y218D02*
X966Y218D01*
X982Y218D02*
X988Y218D01*
X119Y217D02*
X125Y217D01*
X140Y217D02*
X146Y217D01*
X193Y217D02*
X199Y217D01*
X489Y217D02*
X498Y217D01*
X506Y217D02*
X512Y217D01*
X529Y217D02*
X535Y217D01*
X553Y217D02*
X559Y217D01*
X932Y217D02*
X938Y217D01*
X959Y217D02*
X966Y217D01*
X982Y217D02*
X988Y217D01*
X119Y216D02*
X125Y216D01*
X140Y216D02*
X146Y216D01*
X193Y216D02*
X199Y216D01*
X488Y216D02*
X498Y216D01*
X506Y216D02*
X512Y216D01*
X529Y216D02*
X535Y216D01*
X553Y216D02*
X559Y216D01*
X932Y216D02*
X938Y216D01*
X959Y216D02*
X965Y216D01*
X982Y216D02*
X988Y216D01*
X119Y215D02*
X125Y215D01*
X140Y215D02*
X146Y215D01*
X193Y215D02*
X199Y215D01*
X488Y215D02*
X498Y215D01*
X506Y215D02*
X512Y215D01*
X529Y215D02*
X535Y215D01*
X553Y215D02*
X559Y215D01*
X932Y215D02*
X938Y215D01*
X959Y215D02*
X965Y215D01*
X982Y215D02*
X988Y215D01*
X119Y214D02*
X125Y214D01*
X140Y214D02*
X146Y214D01*
X193Y214D02*
X199Y214D01*
X488Y214D02*
X497Y214D01*
X506Y214D02*
X512Y214D01*
X529Y214D02*
X535Y214D01*
X553Y214D02*
X559Y214D01*
X932Y214D02*
X938Y214D01*
X957Y214D02*
X965Y214D01*
X982Y214D02*
X988Y214D01*
X119Y213D02*
X125Y213D01*
X140Y213D02*
X146Y213D01*
X193Y213D02*
X199Y213D01*
X487Y213D02*
X497Y213D01*
X506Y213D02*
X512Y213D01*
X529Y213D02*
X535Y213D01*
X553Y213D02*
X559Y213D01*
X932Y213D02*
X965Y213D01*
X982Y213D02*
X988Y213D01*
X119Y212D02*
X125Y212D01*
X140Y212D02*
X146Y212D01*
X193Y212D02*
X199Y212D01*
X487Y212D02*
X497Y212D01*
X506Y212D02*
X512Y212D01*
X529Y212D02*
X535Y212D01*
X553Y212D02*
X559Y212D01*
X932Y212D02*
X964Y212D01*
X982Y212D02*
X988Y212D01*
X119Y211D02*
X125Y211D01*
X140Y211D02*
X146Y211D01*
X193Y211D02*
X199Y211D01*
X486Y211D02*
X496Y211D01*
X506Y211D02*
X512Y211D01*
X529Y211D02*
X535Y211D01*
X553Y211D02*
X559Y211D01*
X932Y211D02*
X963Y211D01*
X982Y211D02*
X988Y211D01*
X119Y210D02*
X125Y210D01*
X140Y210D02*
X146Y210D01*
X193Y210D02*
X199Y210D01*
X486Y210D02*
X496Y210D01*
X506Y210D02*
X512Y210D01*
X529Y210D02*
X535Y210D01*
X553Y210D02*
X559Y210D01*
X932Y210D02*
X962Y210D01*
X982Y210D02*
X988Y210D01*
X119Y209D02*
X125Y209D01*
X139Y209D02*
X146Y209D01*
X193Y209D02*
X199Y209D01*
X486Y209D02*
X495Y209D01*
X506Y209D02*
X512Y209D01*
X529Y209D02*
X535Y209D01*
X553Y209D02*
X559Y209D01*
X932Y209D02*
X961Y209D01*
X982Y209D02*
X988Y209D01*
X119Y208D02*
X125Y208D01*
X139Y208D02*
X145Y208D01*
X193Y208D02*
X199Y208D01*
X485Y208D02*
X495Y208D01*
X506Y208D02*
X512Y208D01*
X529Y208D02*
X535Y208D01*
X553Y208D02*
X559Y208D01*
X932Y208D02*
X960Y208D01*
X982Y208D02*
X988Y208D01*
X119Y207D02*
X126Y207D01*
X138Y207D02*
X145Y207D01*
X193Y207D02*
X199Y207D01*
X485Y207D02*
X495Y207D01*
X506Y207D02*
X512Y207D01*
X529Y207D02*
X559Y207D01*
X932Y207D02*
X957Y207D01*
X982Y207D02*
X988Y207D01*
X120Y206D02*
X145Y206D01*
X168Y206D02*
X199Y206D01*
X484Y206D02*
X494Y206D01*
X506Y206D02*
X512Y206D01*
X529Y206D02*
X558Y206D01*
X932Y206D02*
X938Y206D01*
X944Y206D02*
X951Y206D01*
X982Y206D02*
X988Y206D01*
X120Y205D02*
X144Y205D01*
X166Y205D02*
X199Y205D01*
X484Y205D02*
X494Y205D01*
X506Y205D02*
X512Y205D01*
X530Y205D02*
X558Y205D01*
X932Y205D02*
X938Y205D01*
X945Y205D02*
X952Y205D01*
X982Y205D02*
X988Y205D01*
X121Y204D02*
X144Y204D01*
X166Y204D02*
X199Y204D01*
X483Y204D02*
X493Y204D01*
X506Y204D02*
X512Y204D01*
X530Y204D02*
X558Y204D01*
X932Y204D02*
X938Y204D01*
X945Y204D02*
X953Y204D01*
X982Y204D02*
X988Y204D01*
X121Y203D02*
X143Y203D01*
X166Y203D02*
X198Y203D01*
X482Y203D02*
X493Y203D01*
X506Y203D02*
X511Y203D01*
X531Y203D02*
X557Y203D01*
X932Y203D02*
X938Y203D01*
X946Y203D02*
X953Y203D01*
X982Y203D02*
X988Y203D01*
X122Y202D02*
X142Y202D01*
X166Y202D02*
X198Y202D01*
X482Y202D02*
X492Y202D01*
X506Y202D02*
X511Y202D01*
X532Y202D02*
X556Y202D01*
X932Y202D02*
X938Y202D01*
X947Y202D02*
X954Y202D01*
X982Y202D02*
X1012Y202D01*
X124Y201D02*
X141Y201D01*
X166Y201D02*
X197Y201D01*
X481Y201D02*
X492Y201D01*
X507Y201D02*
X510Y201D01*
X533Y201D02*
X554Y201D01*
X932Y201D02*
X938Y201D01*
X947Y201D02*
X954Y201D01*
X982Y201D02*
X1014Y201D01*
X126Y200D02*
X139Y200D01*
X167Y200D02*
X195Y200D01*
X481Y200D02*
X491Y200D01*
X932Y200D02*
X938Y200D01*
X948Y200D02*
X955Y200D01*
X982Y200D02*
X1015Y200D01*
X480Y199D02*
X491Y199D01*
X932Y199D02*
X938Y199D01*
X948Y199D02*
X956Y199D01*
X982Y199D02*
X1015Y199D01*
X479Y198D02*
X490Y198D01*
X932Y198D02*
X938Y198D01*
X949Y198D02*
X956Y198D01*
X982Y198D02*
X1016Y198D01*
X479Y197D02*
X490Y197D01*
X932Y197D02*
X938Y197D01*
X950Y197D02*
X957Y197D01*
X982Y197D02*
X1016Y197D01*
X478Y196D02*
X489Y196D01*
X932Y196D02*
X938Y196D01*
X950Y196D02*
X957Y196D01*
X982Y196D02*
X1016Y196D01*
X477Y195D02*
X488Y195D01*
X932Y195D02*
X938Y195D01*
X951Y195D02*
X958Y195D01*
X982Y195D02*
X988Y195D01*
X1009Y195D02*
X1016Y195D01*
X477Y194D02*
X488Y194D01*
X932Y194D02*
X938Y194D01*
X951Y194D02*
X958Y194D01*
X982Y194D02*
X988Y194D01*
X1010Y194D02*
X1016Y194D01*
X476Y193D02*
X487Y193D01*
X932Y193D02*
X938Y193D01*
X952Y193D02*
X959Y193D01*
X982Y193D02*
X988Y193D01*
X1010Y193D02*
X1016Y193D01*
X475Y192D02*
X486Y192D01*
X932Y192D02*
X938Y192D01*
X952Y192D02*
X960Y192D01*
X982Y192D02*
X988Y192D01*
X1010Y192D02*
X1016Y192D01*
X474Y191D02*
X486Y191D01*
X932Y191D02*
X938Y191D01*
X953Y191D02*
X960Y191D01*
X982Y191D02*
X988Y191D01*
X1010Y191D02*
X1016Y191D01*
X473Y190D02*
X485Y190D01*
X932Y190D02*
X938Y190D01*
X954Y190D02*
X961Y190D01*
X982Y190D02*
X988Y190D01*
X1010Y190D02*
X1016Y190D01*
X472Y189D02*
X484Y189D01*
X932Y189D02*
X938Y189D01*
X954Y189D02*
X961Y189D01*
X982Y189D02*
X988Y189D01*
X1010Y189D02*
X1016Y189D01*
X471Y188D02*
X483Y188D01*
X932Y188D02*
X938Y188D01*
X955Y188D02*
X962Y188D01*
X982Y188D02*
X988Y188D01*
X1010Y188D02*
X1016Y188D01*
X470Y187D02*
X483Y187D01*
X932Y187D02*
X938Y187D01*
X955Y187D02*
X963Y187D01*
X982Y187D02*
X988Y187D01*
X1010Y187D02*
X1016Y187D01*
X469Y186D02*
X482Y186D01*
X932Y186D02*
X938Y186D01*
X956Y186D02*
X963Y186D01*
X982Y186D02*
X988Y186D01*
X1010Y186D02*
X1016Y186D01*
X468Y185D02*
X481Y185D01*
X932Y185D02*
X938Y185D01*
X957Y185D02*
X964Y185D01*
X982Y185D02*
X988Y185D01*
X1010Y185D02*
X1016Y185D01*
X467Y184D02*
X480Y184D01*
X932Y184D02*
X938Y184D01*
X957Y184D02*
X964Y184D01*
X982Y184D02*
X1016Y184D01*
X465Y183D02*
X479Y183D01*
X932Y183D02*
X938Y183D01*
X958Y183D02*
X965Y183D01*
X982Y183D02*
X1016Y183D01*
X463Y182D02*
X478Y182D01*
X932Y182D02*
X938Y182D01*
X958Y182D02*
X965Y182D01*
X982Y182D02*
X1016Y182D01*
X462Y181D02*
X477Y181D01*
X932Y181D02*
X938Y181D01*
X959Y181D02*
X966Y181D01*
X982Y181D02*
X1016Y181D01*
X459Y180D02*
X476Y180D01*
X932Y180D02*
X938Y180D01*
X959Y180D02*
X965Y180D01*
X982Y180D02*
X1015Y180D01*
X457Y179D02*
X475Y179D01*
X933Y179D02*
X937Y179D01*
X960Y179D02*
X965Y179D01*
X983Y179D02*
X1015Y179D01*
X452Y178D02*
X474Y178D01*
X934Y178D02*
X936Y178D01*
X961Y178D02*
X964Y178D01*
X984Y178D02*
X1014Y178D01*
X446Y177D02*
X472Y177D01*
X445Y176D02*
X471Y176D01*
X444Y175D02*
X470Y175D01*
X444Y174D02*
X468Y174D01*
X444Y173D02*
X466Y173D01*
X444Y172D02*
X464Y172D01*
X444Y171D02*
X462Y171D01*
X444Y170D02*
X460Y170D01*
X445Y169D02*
X457Y169D01*
X447Y168D02*
X452Y168D01*
X932Y136D02*
X949Y136D01*
X982Y136D02*
X1000Y136D01*
X931Y135D02*
X951Y135D01*
X981Y135D02*
X1000Y135D01*
X931Y134D02*
X952Y134D01*
X981Y134D02*
X1000Y134D01*
X930Y133D02*
X953Y133D01*
X980Y133D02*
X1000Y133D01*
X931Y132D02*
X954Y132D01*
X981Y132D02*
X1000Y132D01*
X931Y131D02*
X955Y131D01*
X981Y131D02*
X1000Y131D01*
X932Y130D02*
X955Y130D01*
X982Y130D02*
X1000Y130D01*
X937Y129D02*
X943Y129D01*
X948Y129D02*
X956Y129D01*
X994Y129D02*
X1000Y129D01*
X937Y128D02*
X943Y128D01*
X949Y128D02*
X956Y128D01*
X994Y128D02*
X1000Y128D01*
X937Y127D02*
X943Y127D01*
X950Y127D02*
X957Y127D01*
X994Y127D02*
X1000Y127D01*
X937Y126D02*
X943Y126D01*
X951Y126D02*
X957Y126D01*
X994Y126D02*
X1000Y126D01*
X937Y125D02*
X943Y125D01*
X951Y125D02*
X958Y125D01*
X994Y125D02*
X1000Y125D01*
X937Y124D02*
X943Y124D01*
X952Y124D02*
X958Y124D01*
X994Y124D02*
X1000Y124D01*
X937Y123D02*
X943Y123D01*
X952Y123D02*
X959Y123D01*
X994Y123D02*
X1000Y123D01*
X937Y122D02*
X943Y122D01*
X953Y122D02*
X959Y122D01*
X994Y122D02*
X1000Y122D01*
X937Y121D02*
X943Y121D01*
X953Y121D02*
X960Y121D01*
X994Y121D02*
X1000Y121D01*
X937Y120D02*
X943Y120D01*
X954Y120D02*
X960Y120D01*
X994Y120D02*
X1000Y120D01*
X937Y119D02*
X943Y119D01*
X954Y119D02*
X961Y119D01*
X994Y119D02*
X1000Y119D01*
X937Y118D02*
X943Y118D01*
X955Y118D02*
X961Y118D01*
X994Y118D02*
X1000Y118D01*
X937Y117D02*
X943Y117D01*
X955Y117D02*
X962Y117D01*
X994Y117D02*
X1000Y117D01*
X937Y116D02*
X943Y116D01*
X956Y116D02*
X962Y116D01*
X994Y116D02*
X1000Y116D01*
X937Y115D02*
X943Y115D01*
X956Y115D02*
X963Y115D01*
X994Y115D02*
X1000Y115D01*
X937Y114D02*
X943Y114D01*
X957Y114D02*
X963Y114D01*
X994Y114D02*
X1000Y114D01*
X937Y113D02*
X943Y113D01*
X957Y113D02*
X963Y113D01*
X994Y113D02*
X1000Y113D01*
X937Y112D02*
X943Y112D01*
X957Y112D02*
X964Y112D01*
X994Y112D02*
X1000Y112D01*
X937Y111D02*
X943Y111D01*
X958Y111D02*
X964Y111D01*
X994Y111D02*
X1000Y111D01*
X937Y110D02*
X943Y110D01*
X958Y110D02*
X964Y110D01*
X994Y110D02*
X1000Y110D01*
X937Y109D02*
X943Y109D01*
X958Y109D02*
X964Y109D01*
X994Y109D02*
X1000Y109D01*
X937Y108D02*
X943Y108D01*
X958Y108D02*
X964Y108D01*
X994Y108D02*
X1000Y108D01*
X937Y107D02*
X943Y107D01*
X958Y107D02*
X964Y107D01*
X994Y107D02*
X1000Y107D01*
X937Y106D02*
X943Y106D01*
X957Y106D02*
X964Y106D01*
X994Y106D02*
X1000Y106D01*
X1009Y106D02*
X1013Y106D01*
X937Y105D02*
X943Y105D01*
X957Y105D02*
X963Y105D01*
X994Y105D02*
X1000Y105D01*
X1008Y105D02*
X1014Y105D01*
X937Y104D02*
X943Y104D01*
X956Y104D02*
X963Y104D01*
X994Y104D02*
X1000Y104D01*
X1008Y104D02*
X1014Y104D01*
X937Y103D02*
X943Y103D01*
X956Y103D02*
X963Y103D01*
X994Y103D02*
X1000Y103D01*
X1008Y103D02*
X1014Y103D01*
X937Y102D02*
X943Y102D01*
X955Y102D02*
X962Y102D01*
X994Y102D02*
X1000Y102D01*
X1008Y102D02*
X1014Y102D01*
X937Y101D02*
X943Y101D01*
X955Y101D02*
X962Y101D01*
X994Y101D02*
X1000Y101D01*
X1008Y101D02*
X1014Y101D01*
X937Y100D02*
X943Y100D01*
X954Y100D02*
X961Y100D01*
X994Y100D02*
X1000Y100D01*
X1008Y100D02*
X1014Y100D01*
X937Y99D02*
X943Y99D01*
X954Y99D02*
X961Y99D01*
X994Y99D02*
X1000Y99D01*
X1008Y99D02*
X1014Y99D01*
X937Y98D02*
X943Y98D01*
X953Y98D02*
X960Y98D01*
X994Y98D02*
X1000Y98D01*
X1008Y98D02*
X1014Y98D01*
X937Y97D02*
X943Y97D01*
X953Y97D02*
X960Y97D01*
X994Y97D02*
X1000Y97D01*
X1008Y97D02*
X1014Y97D01*
X937Y96D02*
X943Y96D01*
X952Y96D02*
X959Y96D01*
X994Y96D02*
X1000Y96D01*
X1008Y96D02*
X1014Y96D01*
X937Y95D02*
X943Y95D01*
X952Y95D02*
X959Y95D01*
X994Y95D02*
X1000Y95D01*
X1008Y95D02*
X1014Y95D01*
X937Y94D02*
X943Y94D01*
X951Y94D02*
X958Y94D01*
X994Y94D02*
X1000Y94D01*
X1008Y94D02*
X1014Y94D01*
X937Y93D02*
X943Y93D01*
X951Y93D02*
X958Y93D01*
X994Y93D02*
X1000Y93D01*
X1008Y93D02*
X1014Y93D01*
X937Y92D02*
X943Y92D01*
X950Y92D02*
X957Y92D01*
X994Y92D02*
X1000Y92D01*
X1008Y92D02*
X1014Y92D01*
X937Y91D02*
X943Y91D01*
X950Y91D02*
X957Y91D01*
X994Y91D02*
X1000Y91D01*
X1008Y91D02*
X1014Y91D01*
X937Y90D02*
X943Y90D01*
X949Y90D02*
X956Y90D01*
X994Y90D02*
X1000Y90D01*
X1008Y90D02*
X1014Y90D01*
X933Y89D02*
X956Y89D01*
X983Y89D02*
X1014Y89D01*
X931Y88D02*
X955Y88D01*
X981Y88D02*
X1014Y88D01*
X931Y87D02*
X955Y87D01*
X981Y87D02*
X1014Y87D01*
X930Y86D02*
X954Y86D01*
X980Y86D02*
X1014Y86D01*
X931Y85D02*
X953Y85D01*
X981Y85D02*
X1014Y85D01*
X931Y84D02*
X952Y84D01*
X981Y84D02*
X1013Y84D01*
X932Y83D02*
X949Y83D01*
X982Y83D02*
X1012Y83D01*
D02*
G04 End of Silk1*
M02*